<?xml version="1.0"?><svg xmlns="http://www.w3.org/2000/svg" xmlns:xlink= "http://www.w3.org/1999/xlink" style="background: white;" width="1500" height="300"> <g style="color: black; font-size: 13px; font-family: sans-serif; transform: translate(18px, 25px);"><g><circle r="3" cx="-6" cy="-5" style="fill: #1AD4B3" /><text>Borrow APR, variable</text></g><g style="transform: translateX(150px);"><circle r="3" cx="-6" cy="-5" style="fill: #101423" /><text>Borrow APR, stable</text></g></g><g class="visx-group" transform="translate(45, 50)"><g class="visx-group visx-rows" transform="translate(0, 0)"><line class="visx-line" x1="0" y1="155" x2="1425" y2="155" fill="transparent" shape-rendering="crispEdges" stroke="#F2F0F9" stroke-width="1" pointer-events="none"></line><line class="visx-line" x1="0" y1="95.38461538461539" x2="1425" y2="95.38461538461539" fill="transparent" shape-rendering="crispEdges" stroke="#F2F0F9" stroke-width="1" pointer-events="none"></line><line class="visx-line" x1="0" y1="35.76923076923076" x2="1425" y2="35.76923076923076" fill="transparent" shape-rendering="crispEdges" stroke="#F2F0F9" stroke-width="1" pointer-events="none"></line></g><path class="visx-linepath" d="M0,151.42307692289808C2.375,151.3932692306649,4.75,151.36346153843175,7.125,151.33365384615385C9.5,151.30384615387595,11.875,151.27403846153845,14.25,151.24423076923077C16.625,151.21442307692308,19,151.18461538461537,21.375,151.15480769230768C23.75,151.125,26.125,151.09519230769232,28.5,151.06538461538463C30.875,151.03557692307695,33.25,151.00576923076923,35.625,150.97596153846155C38,150.94615384615386,40.375,150.91634615384615,42.75,150.88653846153846C45.125,150.85673076923078,47.50000000000001,150.82692307692307,49.87500000000001,150.79711538461538C52.25000000000001,150.7673076923077,54.625,150.73749999999998,57,150.7076923076923C59.375,150.6778846153846,61.75,150.64807692307693,64.125,150.61826923076924C66.5,150.58846153846156,68.875,150.55865384615385,71.25,150.52884615384616C73.625,150.49903846153848,76,150.46923076923076,78.375,150.43942307692308C80.75,150.4096153846154,83.125,150.37980769230768,85.5,150.35C87.875,150.3201923076923,90.25,150.29038461538462,92.625,150.26057692307694C95,150.23076923076925,97.37500000000001,150.2009615384615,99.75000000000001,150.17115384615383C102.12500000000001,150.14134615384614,104.5,150.11153846153846,106.875,150.08173076923077C109.25,150.0519230769231,111.625,150.02211538461538,114,149.9923076923077C116.375,149.9625,118.75000000000001,149.9326923076923,121.12500000000001,149.9028846153846C123.50000000000001,149.87307692307692,125.875,149.84326923076924,128.25,149.81346153846155C130.625,149.78365384615387,133,149.75384615384615,135.375,149.72403846153847C137.75,149.69423076923078,140.125,149.66442307692307,142.5,149.6346153846154C144.875,149.6048076923077,147.25,149.575,149.625,149.5451923076923C152,149.51538461538462,154.375,149.4855769230769,156.75,149.45576923076922C159.125,149.42596153846154,161.5,149.39615384615385,163.875,149.36634615384617C166.25,149.33653846153848,168.625,149.30673076923077,171,149.27692307692308C173.375,149.2471153846154,175.75,149.21730769230768,178.125,149.1875C180.5,149.15769230769232,182.875,149.1278846153846,185.25,149.09807692307692C187.625,149.06826923076923,190,149.03846153846152,192.375,149.00865384615383C194.75,148.97884615384615,197.12500000000003,148.94903846153846,199.50000000000003,148.91923076923078C201.875,148.8894230769231,204.25,148.85961538461538,206.62499999999997,148.8298076923077C208.99999999999997,148.8,211.375,148.7701923076923,213.75,148.7403846153846C216.125,148.71057692307693,218.5,148.68076923076922,220.875,148.65096153846153C223.25,148.62115384615385,225.625,148.59134615384616,228,148.56153846153848C230.375,148.5317307692308,232.75,148.50192307692308,235.125,148.4721153846154C237.5,148.4423076923077,239.87500000000003,148.4125,242.25000000000003,148.3826923076923C244.625,148.35288461538462,247,148.3230769230769,249.37499999999997,148.29326923076923C251.74999999999997,148.26346153846154,254.125,148.23365384615383,256.5,148.20384615384614C258.875,148.17403846153846,261.25,148.14423076923077,263.625,148.1144230769231C266,148.0846153846154,268.375,148.0548076923077,270.75,148.025C273.125,147.99519230769232,275.5,147.9653846153846,277.875,147.93557692307692C280.25,147.90576923076924,282.625,147.87596153846152,285,147.84615384615384C287.375,147.81634615384615,289.75,147.78653846153844,292.125,147.75673076923076C294.5,147.72692307692307,296.875,147.6971153846154,299.25,147.6673076923077C301.625,147.63750000000002,304,147.6076923076923,306.375,147.57788461538462C308.75,147.54807692307693,311.125,147.51826923076922,313.5,147.48846153846154C315.875,147.45865384615385,318.25,147.42884615384614,320.625,147.39903846153845C323,147.36923076923077,325.375,147.33942307692308,327.75,147.3096153846154C330.125,147.2798076923077,332.5,147.25,334.875,147.22019230769232C337.25,147.19038461538463,339.625,147.16057692307692,342,147.13076923076923C344.375,147.10096153846155,346.75,147.07115384615383,349.125,147.04134615384615C351.5,147.01153846153846,353.875,146.98173076923075,356.25,146.95192307692307C358.625,146.92211538461538,361,146.8923076923077,363.375,146.8625C365.75,146.83269230769233,368.125,146.8028846153846,370.5,146.77307692307693C372.875,146.74326923076924,375.25,146.71346153846153,377.625,146.68365384615385C380,146.65384615384616,382.375,146.62403846153845,384.75,146.59423076923076C387.125,146.56442307692308,389.50000000000006,146.53461538461536,391.87500000000006,146.50480769230768C394.25000000000006,146.475,396.62500000000006,146.4451923076923,399.00000000000006,146.41538461538462C401.375,146.38557692307694,403.75,146.35576923076923,406.12499999999994,146.32596153846154C408.49999999999994,146.29615384615386,410.87499999999994,146.26634615384614,413.24999999999994,146.23653846153846C415.62499999999994,146.20673076923077,418,146.1769230769231,420.375,146.1471153846154C422.75,146.11730769230772,425.125,146.08749999999998,427.5,146.0576923076923C429.875,146.0278846153846,432.25,145.99807692307692,434.625,145.96826923076924C437,145.93846153846155,439.375,145.90865384615384,441.75,145.87884615384615C444.125,145.84903846153847,446.5,145.81923076923076,448.875,145.78942307692307C451.25,145.7596153846154,453.625,145.72980769230767,456,145.7C458.375,145.6701923076923,460.75,145.64038461538462,463.125,145.61057692307693C465.5,145.58076923076925,467.875,145.55096153846154,470.25,145.52115384615385C472.625,145.49134615384617,475.00000000000006,145.46153846153845,477.37500000000006,145.43173076923077C479.75000000000006,145.40192307692308,482.12500000000006,145.37211538461537,484.50000000000006,145.34230769230768C486.875,145.3125,489.25,145.2826923076923,491.62499999999994,145.2528846153846C493.99999999999994,145.22307692307692,496.37499999999994,145.19326923076923,498.74999999999994,145.16346153846155C501.12499999999994,145.13365384615386,503.5,145.10384615384615,505.875,145.07403846153846C508.25,145.04423076923078,510.625,145.01442307692307,513,144.98461538461538C515.375,144.9548076923077,517.75,144.925,520.125,144.89519230769233C522.5,144.86538461538464,524.875,144.8355769230769,527.25,144.80576923076922C529.625,144.77596153846153,532,144.74615384615385,534.375,144.71634615384616C536.75,144.68653846153848,539.125,144.65673076923076,541.5,144.62692307692308C543.875,144.5971153846154,546.25,144.56730769230768,548.625,144.5375C551,144.5076923076923,553.375,144.47788461538462,555.75,144.44807692307694C558.125,144.41826923076925,560.5,144.38846153846154,562.875,144.35865384615386C565.25,144.32884615384617,567.625,144.29903846153846,570,144.26923076923077C572.375,144.2394230769231,574.75,144.20961538461538,577.125,144.1798076923077C579.5,144.15,581.875,144.1201923076923,584.25,144.0903846153846C586.625,144.06057692307692,589,144.0307692307692,591.375,144.00096153846152C593.75,143.97115384615384,596.125,143.94134615384615,598.5,143.91153846153847C600.875,143.88173076923078,603.25,143.85192307692307,605.625,143.8221153846154C608,143.7923076923077,610.375,143.7625,612.75,143.7326923076923C615.125,143.70288461538462,617.5,143.6730769230769,619.875,143.64326923076922C622.25,143.61346153846154,624.625,143.58365384615382,627,143.55384615384614C629.375,143.52403846153845,631.75,143.49423076923077,634.125,143.46442307692308C636.5,143.4346153846154,638.875,143.40480769230768,641.25,143.375C643.625,143.34519230769232,646,143.3153846153846,648.375,143.28557692307692C650.75,143.25576923076923,653.125,143.22596153846155,655.5,143.19615384615386C657.875,143.16634615384618,660.25,143.13653846153844,662.625,143.10673076923075C665,143.07692307692307,667.375,143.04711538461538,669.75,143.0173076923077C672.125,142.9875,674.5,142.9576923076923,676.875,142.9278846153846C679.25,142.89807692307693,681.625,142.86826923076922,684,142.83846153846153C686.375,142.80865384615385,688.75,142.77884615384616,691.125,142.74903846153848C693.5,142.7192307692308,695.875,142.68942307692308,698.25,142.6596153846154C700.625,142.6298076923077,703,142.6,705.375,142.5701923076923C707.75,142.54038461538462,710.125,142.5105769230769,712.5,142.48076923076923C714.875,142.45096153846154,717.25,142.42115384615383,719.625,142.39134615384614C722,142.36153846153846,724.375,142.33173076923075,726.75,142.30192307692306C729.125,142.27211538461538,731.5,142.2423076923077,733.875,142.2125C736.25,142.18269230769232,738.625,142.1528846153846,741,142.12307692307692C743.375,142.09326923076924,745.75,142.06346153846152,748.125,142.03365384615384C750.5,142.00384615384615,752.875,141.97403846153847,755.25,141.94423076923078C757.625,141.9144230769231,760,141.88461538461536,762.375,141.85480769230767C764.75,141.825,767.125,141.7951923076923,769.5,141.76538461538462C771.875,141.73557692307693,774.2500000000001,141.70576923076922,776.6250000000001,141.67596153846154C779.0000000000001,141.64615384615385,781.3750000000001,141.61634615384614,783.7500000000001,141.58653846153845C786.1250000000001,141.55673076923077,788.5000000000001,141.52692307692308,790.8750000000001,141.4971153846154C793.2500000000001,141.4673076923077,795.6250000000001,141.43749999999997,798.0000000000001,141.4076923076923C800.375,141.3778846153846,802.75,141.34807692307692,805.1249999999999,141.31826923076923C807.4999999999999,141.28846153846155,809.8749999999999,141.25865384615383,812.2499999999999,141.22884615384615C814.6249999999999,141.19903846153846,816.9999999999999,141.16923076923075,819.3749999999999,141.13942307692307C821.7499999999999,141.10961538461538,824.1249999999999,141.0798076923077,826.4999999999999,141.05C828.8749999999999,141.02019230769233,831.25,140.9903846153846,833.625,140.96057692307693C836,140.93076923076924,838.375,140.90096153846153,840.75,140.87115384615385C843.125,140.84134615384616,845.5,140.81153846153848,847.875,140.7817307692308C850.25,140.7519230769231,852.625,140.72211538461536,855,140.69230769230768C857.375,140.6625,859.75,140.6326923076923,862.125,140.60288461538462C864.5,140.57307692307694,866.875,140.54326923076923,869.25,140.51346153846154C871.625,140.48365384615386,874,140.45384615384614,876.375,140.42403846153846C878.75,140.39423076923077,881.125,140.36442307692306,883.5,140.33461538461538C885.875,140.3048076923077,888.25,140.275,890.625,140.24519230769232C893,140.21538461538464,895.375,140.18557692307692,897.75,140.15576923076924C900.125,140.12596153846155,902.5,140.09615384615384,904.875,140.06634615384615C907.25,140.03653846153847,909.625,140.00673076923076,912,139.97692307692307C914.375,139.9471153846154,916.75,139.91730769230767,919.125,139.8875C921.5,139.8576923076923,923.875,139.82788461538462,926.25,139.79807692307693C928.625,139.76826923076925,931,139.73846153846154,933.375,139.70865384615385C935.75,139.67884615384617,938.125,139.64903846153845,940.5,139.61923076923077C942.875,139.58942307692308,945.25,139.5596153846154,947.625,139.5298076923077C950,139.50000000000003,952.3750000000001,139.4701923076923,954.7500000000001,139.4403846153846C957.1250000000001,139.41057692307692,959.5000000000001,139.38076923076923,961.8750000000001,139.35096153846155C964.2500000000001,139.32115384615386,966.6250000000001,139.29134615384615,969.0000000000001,139.26153846153846C971.3750000000001,139.23173076923078,973.7500000000001,139.20192307692307,976.1250000000001,139.17211538461538C978.5,139.1423076923077,980.875,139.11249999999998,983.2499999999999,139.0826923076923C985.6249999999999,139.0528846153846,987.9999999999999,139.0230769230769,990.3749999999999,138.99326923076922C992.7499999999999,138.96346153846153,995.1249999999999,138.93365384615385,997.4999999999999,138.90384615384616C999.8749999999999,138.87403846153848,1002.2499999999999,138.84423076923076,1004.6249999999999,138.81442307692308C1006.9999999999999,138.7846153846154,1009.375,138.75480769230768,1011.75,138.725C1014.125,138.6951923076923,1016.5,138.6653846153846,1018.875,138.6355769230769C1021.25,138.60576923076923,1023.625,138.57596153846154,1026,138.54615384615386C1028.375,138.51634615384617,1030.75,138.48653846153843,1033.125,138.45673076923075C1035.5,138.42692307692306,1037.875,138.39711538461538,1040.25,138.3673076923077C1042.625,138.3375,1045,138.3076923076923,1047.375,138.2778846153846C1049.75,138.24807692307692,1052.125,138.21826923076924,1054.5,138.18846153846155C1056.875,138.15865384615387,1059.25,138.12884615384615,1061.625,138.09903846153847C1064,138.06923076923078,1066.375,138.03942307692307,1068.75,138.0096153846154C1071.125,137.9798076923077,1073.5,137.95,1075.875,137.9201923076923C1078.25,137.89038461538462,1080.625,137.86057692307693,1083,137.83076923076925C1085.375,137.80096153846156,1087.75,137.77115384615382,1090.125,137.74134615384614C1092.5,137.71153846153845,1094.875,137.68173076923077,1097.25,137.65192307692308C1099.625,137.6221153846154,1102,137.59230769230768,1104.375,137.5625C1106.75,137.53269230769232,1109.125,137.5028846153846,1111.5,137.47307692307692C1113.875,137.44326923076923,1116.25,137.41346153846155,1118.625,137.38365384615386C1121,137.35384615384618,1123.375,137.32403846153846,1125.75,137.29423076923078C1128.125,137.2644230769231,1130.5,137.23461538461538,1132.875,137.2048076923077C1135.25,137.175,1137.625,137.175,1140,137.1153846153846C1142.375,137.05576923076922,1144.75,135.12820512820514,1147.125,134.1346153846154C1149.5,133.14102564102564,1151.875,132.1474358974359,1154.25,131.15384615384616C1156.625,130.1602564102564,1159,129.16666666666666,1161.375,128.1730769230769C1163.75,127.17948717948715,1166.125,126.18589743589743,1168.5,125.1923076923077C1170.875,124.19871794871796,1173.25,123.2051282051282,1175.625,122.21153846153845C1178,121.2179487179487,1180.375,120.22435897435896,1182.75,119.23076923076923C1185.125,118.23717948717949,1187.5,117.24358974358974,1189.875,116.25C1192.25,115.25641025641026,1194.625,114.26282051282051,1197,113.26923076923077C1199.375,112.27564102564104,1201.75,111.2820512820513,1204.125,110.28846153846155C1206.5,109.2948717948718,1208.875,108.30128205128204,1211.25,107.3076923076923C1213.625,106.31410256410257,1216,105.32051282051282,1218.375,104.32692307692308C1220.75,103.33333333333334,1223.125,102.33974358974359,1225.5,101.34615384615385C1227.875,100.35256410256412,1230.25,99.35897435897436,1232.625,98.36538461538461C1235,97.37179487179486,1237.375,96.37820512820514,1239.75,95.38461538461539C1242.125,94.39102564102564,1244.5,93.39743589743588,1246.875,92.40384615384615C1249.25,91.41025641025641,1251.625,90.41666666666666,1254,89.42307692307692C1256.375,88.42948717948718,1258.75,87.43589743589743,1261.125,86.4423076923077C1263.5,85.44871794871796,1265.875,84.4551282051282,1268.25,83.46153846153845C1270.625,82.4679487179487,1273,81.47435897435896,1275.375,80.48076923076923C1277.75,79.48717948717949,1280.125,78.49358974358975,1282.5,77.5C1284.875,76.50641025641025,1287.25,75.5128205128205,1289.625,74.51923076923076C1292,73.52564102564102,1294.375,72.53205128205128,1296.75,71.53846153846155C1299.125,70.54487179487181,1301.5,69.55128205128204,1303.875,68.5576923076923C1306.25,67.56410256410257,1308.625,66.57051282051282,1311,65.57692307692308C1313.375,64.58333333333334,1315.75,63.58974358974359,1318.125,62.59615384615385C1320.5,61.6025641025641,1322.875,60.60897435897436,1325.25,59.61538461538461C1327.625,58.62179487179487,1330,57.62820512820513,1332.375,56.63461538461539C1334.75,55.64102564102564,1337.125,54.6474358974359,1339.5,53.65384615384615C1341.875,52.66025641025641,1344.25,51.66666666666666,1346.625,50.67307692307691C1349,49.67948717948717,1351.375,48.68589743589744,1353.75,47.69230769230769C1356.125,46.69871794871795,1358.5,45.705128205128204,1360.875,44.71153846153846C1363.25,43.717948717948715,1365.625,42.724358974358985,1368,41.73076923076924C1370.375,40.737179487179496,1372.75,39.743589743589745,1375.125,38.75C1377.5,37.756410256410255,1379.875,36.7628205128205,1382.25,35.76923076923076C1384.625,34.77564102564102,1387,33.782051282051306,1389.375,32.78846153846156C1391.75,31.79487179487182,1394.125,30.80128205128205,1396.5,29.807692307692307C1398.875,28.814102564102562,1401.25,27.820512820512832,1403.625,26.826923076923084C1406,25.833333333333336,1408.375,24.839743589743573,1410.75,23.84615384615383C1413.125,22.852564102564084,1415.5,21.858974358974347,1417.875,20.86538461538461C1420.25,19.871794871794872,1422.625,18.878205128205142,1425,17.884615384615408" fill="transparent" stroke-linecap="round" stroke="#1AD4B3" stroke-width="2"></path><g class="visx-group visx-axis visx-axis-bottom" transform="translate(0, 155)"><g class="visx-group visx-axis-tick" transform="translate(0, 0)"><line class="visx-line" x1="0" y1="0" x2="0" y2="8" fill="transparent" shape-rendering="crispEdges" stroke="#F2F0F9" stroke-width="1" stroke-linecap="square"></line><svg x="0" y="0" font-size="11" style="overflow:visible"><text transform="" x="0" y="19" fill="#1B2030" font-size="11" text-anchor="middle"><tspan x="0" dy="0em">0%</tspan></text></svg></g><g class="visx-group visx-axis-tick" transform="translate(0, 0)"><line class="visx-line" x1="356.25" y1="0" x2="356.25" y2="8" fill="transparent" shape-rendering="crispEdges" stroke="#F2F0F9" stroke-width="1" stroke-linecap="square"></line><svg x="0" y="0" font-size="11" style="overflow:visible"><text transform="" x="356.25" y="19" fill="#1B2030" font-size="11" text-anchor="middle"><tspan x="356.25" dy="0em">25%</tspan></text></svg></g><g class="visx-group visx-axis-tick" transform="translate(0, 0)"><line class="visx-line" x1="712.5" y1="0" x2="712.5" y2="8" fill="transparent" shape-rendering="crispEdges" stroke="#F2F0F9" stroke-width="1" stroke-linecap="square"></line><svg x="0" y="0" font-size="11" style="overflow:visible"><text transform="" x="712.5" y="19" fill="#1B2030" font-size="11" text-anchor="middle"><tspan x="712.5" dy="0em">50%</tspan></text></svg></g><g class="visx-group visx-axis-tick" transform="translate(0, 0)"><line class="visx-line" x1="1068.75" y1="0" x2="1068.75" y2="8" fill="transparent" shape-rendering="crispEdges" stroke="#F2F0F9" stroke-width="1" stroke-linecap="square"></line><svg x="0" y="0" font-size="11" style="overflow:visible"><text transform="" x="1068.75" y="19" fill="#1B2030" font-size="11" text-anchor="middle"><tspan x="1068.75" dy="0em">75%</tspan></text></svg></g><g class="visx-group visx-axis-tick" transform="translate(0, 0)"><line class="visx-line" x1="1425" y1="0" x2="1425" y2="8" fill="transparent" shape-rendering="crispEdges" stroke="#F2F0F9" stroke-width="1" stroke-linecap="square"></line><svg x="0" y="0" font-size="11" style="overflow:visible"><text transform="" x="1425" y="19" fill="#1B2030" font-size="11" text-anchor="middle"><tspan x="1425" dy="0em">100%</tspan></text></svg></g></g><g class="visx-group visx-axis visx-axis-left" transform="translate(0, 0)"><g class="visx-group visx-axis-tick" transform="translate(0, 0)"><line class="visx-line" x1="0" y1="155" x2="-8" y2="155" fill="transparent" shape-rendering="crispEdges" stroke="#F2F0F9" stroke-width="1" stroke-linecap="square"></line><svg x="-30" y="0" font-size="11" style="overflow:visible"><text transform="" x="-8" y="155" fill="#1B2030" font-size="11" text-anchor="start"><tspan x="-8" dy="0em">0%</tspan></text></svg></g><g class="visx-group visx-axis-tick" transform="translate(0, 0)"><line class="visx-line" x1="0" y1="95.38461538461539" x2="-8" y2="95.38461538461539" fill="transparent" shape-rendering="crispEdges" stroke="#F2F0F9" stroke-width="1" stroke-linecap="square"></line><svg x="-30" y="0" font-size="11" style="overflow:visible"><text transform="" x="-8" y="95.38461538461539" fill="#1B2030" font-size="11" text-anchor="start"><tspan x="-8" dy="0em">50%</tspan></text></svg></g><g class="visx-group visx-axis-tick" transform="translate(0, 0)"><line class="visx-line" x1="0" y1="35.76923076923076" x2="-8" y2="35.76923076923076" fill="transparent" shape-rendering="crispEdges" stroke="#F2F0F9" stroke-width="1" stroke-linecap="square"></line><svg x="-30" y="0" font-size="11" style="overflow:visible"><text transform="" x="-8" y="35.76923076923076" fill="#1B2030" font-size="11" text-anchor="start"><tspan x="-8" dy="0em">100%</tspan></text></svg></g><line class="visx-line visx-axis-line" x1="0" y1="155.5" x2="0" y2="0.5" fill="transparent" shape-rendering="crispEdges" stroke="#F2F0F9" stroke-width="1"></line></g><rect class="visx-bar" width="1425" height="155" fill="transparent"></rect><line class="visx-line" x1="1140" y1="58" x2="1140" y2="155" fill="transparent" shape-rendering="crispEdges" stroke="#CDC8E1" stroke-width="1" pointer-events="none" stroke-dasharray="5"></line><svg x="0" y="0" font-size="11px" style="overflow:visible"><text transform="" x="1140" y="50" font-size="11px" fill="#555069" stroke="#FFFFFF" stroke-width="1px" text-anchor="middle"><tspan x="1140" dy="0.355em">Optimal utilization 80%</tspan></text></svg><svg x="0" y="0" font-size="11px" style="overflow:visible"><text transform="" x="1140" y="50" font-size="11px" fill="#CDC8E1" text-anchor="middle"><tspan x="1140" dy="0.355em">Optimal utilization 80%</tspan></text></svg></g></svg>