<?xml version="1.0"?><svg xmlns="http://www.w3.org/2000/svg" xmlns:xlink= "http://www.w3.org/1999/xlink" style="background: white;" width="1500" height="185"> <g style="color: black; font-size: 13px; font-family: sans-serif; transform: translate(18px, 25px);"><g><circle r="3" cx="-6" cy="-5" style="fill: #B6509E" /><text>Borrow APR, variable</text></g><g style="transform: translateX(150px);"><circle r="3" cx="-6" cy="-5" style="fill: rgb(231, 198, 223)" /><text>Borrow APR, stable</text></g><g style="transform: translateX(290px);"><circle r="3" cx="-6" cy="-5" style="fill: rgb(0, 98, 210)" /><text>Utilization Rate</text></g></g><g class="visx-group" transform="translate(40, 50)"><g class="visx-group visx-rows" transform="translate(0, 0)"><line class="visx-line" x1="0" y1="115" x2="1450" y2="115" fill="transparent" shape-rendering="crispEdges" stroke="#000" stroke-width="1" stroke-dasharray="3,3" pointer-events="none"></line><line class="visx-line" x1="0" y1="82.14285714285714" x2="1450" y2="82.14285714285714" fill="transparent" shape-rendering="crispEdges" stroke="#000" stroke-width="1" stroke-dasharray="3,3" pointer-events="none"></line><line class="visx-line" x1="0" y1="49.28571428571429" x2="1450" y2="49.28571428571429" fill="transparent" shape-rendering="crispEdges" stroke="#000" stroke-width="1" stroke-dasharray="3,3" pointer-events="none"></line><line class="visx-line" x1="0" y1="16.428571428571434" x2="1450" y2="16.428571428571434" fill="transparent" shape-rendering="crispEdges" stroke="#000" stroke-width="1" stroke-dasharray="3,3" pointer-events="none"></line></g><path class="visx-linepath" d="M0,0C2.4166666666666665,8.214285714285717,4.833333333333334,16.428571428571434,7.25,16.428571428571434C9.666666666666666,16.428571428571434,12.083333333333334,16.428571428571434,14.5,16.428571428571434C16.916666666666668,16.428571428571434,19.333333333333332,16.428571428571434,21.75,16.428571428571434C24.166666666666668,16.428571428571434,26.583333333333332,16.428571428571434,29,16.428571428571434C31.416666666666668,16.428571428571434,33.833333333333336,16.428571428571434,36.25,16.428571428571434C38.666666666666664,16.428571428571434,41.083333333333336,16.428571428571434,43.5,16.428571428571434C45.91666666666667,16.428571428571434,48.333333333333336,16.428571428571434,50.75000000000001,16.428571428571434C53.16666666666667,16.428571428571434,55.583333333333336,16.428571428571434,58,16.428571428571434C60.416666666666664,16.428571428571434,62.833333333333336,16.428571428571434,65.25,16.428571428571434C67.66666666666667,16.428571428571434,70.08333333333333,16.428571428571434,72.5,16.428571428571434C74.91666666666667,16.428571428571434,77.33333333333333,16.428571428571434,79.75,16.428571428571434C82.16666666666667,16.428571428571434,84.58333333333333,16.428571428571434,87,16.428571428571434C89.41666666666667,16.428571428571434,91.83333333333333,16.428571428571434,94.25,16.428571428571434C96.66666666666667,16.428571428571434,99.08333333333334,16.428571428571434,101.50000000000001,16.428571428571434C103.91666666666667,16.428571428571434,106.33333333333334,16.428571428571434,108.75,16.428571428571434C111.16666666666667,16.428571428571434,113.58333333333333,16.428571428571434,116,16.428571428571434C118.41666666666667,16.428571428571434,120.83333333333334,16.428571428571434,123.25000000000001,16.428571428571434C125.66666666666667,16.428571428571434,128.08333333333334,16.428571428571434,130.5,16.428571428571434C132.91666666666666,16.428571428571434,135.33333333333334,16.428571428571434,137.75,16.428571428571434C140.16666666666666,16.428571428571434,142.58333333333334,16.428571428571434,145,16.428571428571434C147.41666666666666,16.428571428571434,149.83333333333334,16.428571428571434,152.25,16.428571428571434C154.66666666666666,16.428571428571434,157.08333333333334,16.428571428571434,159.5,16.428571428571434C161.91666666666666,16.428571428571434,164.33333333333334,16.428571428571434,166.75,16.428571428571434C169.16666666666666,16.428571428571434,171.58333333333334,16.428571428571434,174,16.428571428571434C176.41666666666666,16.428571428571434,178.83333333333334,16.428571428571434,181.25,16.428571428571434C183.66666666666666,16.428571428571434,186.08333333333334,16.428571428571434,188.5,16.428571428571434C190.91666666666666,16.428571428571434,193.33333333333334,16.428571428571434,195.75,16.428571428571434C198.16666666666669,16.428571428571434,200.58333333333334,16.428571428571434,203.00000000000003,16.428571428571434C205.41666666666669,16.428571428571434,207.83333333333331,16.428571428571434,210.24999999999997,16.428571428571434C212.66666666666666,16.428571428571434,215.08333333333331,16.428571428571434,217.5,16.428571428571434C219.91666666666666,16.428571428571434,222.33333333333334,16.428571428571434,224.75,16.428571428571434C227.16666666666666,16.428571428571434,229.58333333333334,16.428571428571434,232,16.428571428571434C234.41666666666666,16.428571428571434,236.83333333333334,16.428571428571434,239.25,16.428571428571434C241.66666666666669,16.428571428571434,244.08333333333334,16.428571428571434,246.50000000000003,16.428571428571434C248.91666666666669,16.428571428571434,251.33333333333331,16.428571428571434,253.74999999999997,16.428571428571434C256.16666666666663,16.428571428571434,258.5833333333333,16.428571428571434,261,16.428571428571434C263.4166666666667,16.428571428571434,265.8333333333333,16.428571428571434,268.25,16.428571428571434C270.6666666666667,16.428571428571434,273.0833333333333,16.428571428571434,275.5,16.428571428571434C277.9166666666667,16.428571428571434,280.3333333333333,16.428571428571434,282.75,16.428571428571434C285.1666666666667,16.428571428571434,287.5833333333333,16.428571428571434,290,16.428571428571434C292.4166666666667,16.428571428571434,294.8333333333333,16.428571428571434,297.25,16.428571428571434C299.6666666666667,16.428571428571434,302.0833333333333,16.428571428571434,304.5,16.428571428571434C306.9166666666667,16.428571428571434,309.3333333333333,16.428571428571434,311.75,16.428571428571434C314.1666666666667,16.428571428571434,316.5833333333333,16.428571428571434,319,16.428571428571434C321.4166666666667,16.428571428571434,323.8333333333333,16.428571428571434,326.25,16.428571428571434C328.6666666666667,16.428571428571434,331.0833333333333,16.428571428571434,333.5,16.428571428571434C335.9166666666667,16.428571428571434,338.3333333333333,16.428571428571434,340.75,16.428571428571434C343.1666666666667,16.428571428571434,345.5833333333333,16.428571428571434,348,16.428571428571434C350.4166666666667,16.428571428571434,352.8333333333333,16.428571428571434,355.25,16.428571428571434C357.6666666666667,16.428571428571434,360.0833333333333,16.428571428571434,362.5,16.428571428571434C364.9166666666667,16.428571428571434,367.3333333333333,16.428571428571434,369.75,16.428571428571434C372.1666666666667,16.428571428571434,374.5833333333333,16.428571428571434,377,16.428571428571434C379.4166666666667,16.428571428571434,381.8333333333333,16.428571428571434,384.25,16.428571428571434C386.6666666666667,16.428571428571434,389.0833333333333,16.428571428571434,391.5,16.428571428571434C393.9166666666667,16.428571428571434,396.33333333333337,16.428571428571434,398.75000000000006,16.428571428571434C401.16666666666674,16.428571428571434,403.58333333333337,16.428571428571434,406.00000000000006,16.428571428571434C408.4166666666667,16.428571428571434,410.8333333333333,16.428571428571434,413.24999999999994,16.428571428571434C415.66666666666663,16.428571428571434,418.08333333333326,16.428571428571434,420.49999999999994,16.428571428571434C422.91666666666663,16.428571428571434,425.3333333333333,16.428571428571434,427.75,16.428571428571434C430.1666666666667,16.428571428571434,432.5833333333333,16.428571428571434,435,16.428571428571434C437.4166666666667,16.428571428571434,439.8333333333333,16.428571428571434,442.25,16.428571428571434C444.6666666666667,16.428571428571434,447.0833333333333,16.428571428571434,449.5,16.428571428571434C451.9166666666667,16.428571428571434,454.3333333333333,16.428571428571434,456.75,16.428571428571434C459.1666666666667,16.428571428571434,461.5833333333333,16.428571428571434,464,16.428571428571434C466.4166666666667,16.428571428571434,468.8333333333333,16.428571428571434,471.25,16.428571428571434C473.6666666666667,16.428571428571434,476.0833333333333,16.428571428571434,478.5,16.428571428571434C480.9166666666667,16.428571428571434,483.33333333333337,16.428571428571434,485.75000000000006,16.428571428571434C488.16666666666674,16.428571428571434,490.58333333333337,16.428571428571434,493.00000000000006,16.428571428571434C495.4166666666667,16.428571428571434,497.8333333333333,16.428571428571434,500.24999999999994,16.428571428571434C502.66666666666663,16.428571428571434,505.08333333333326,16.428571428571434,507.49999999999994,16.428571428571434C509.91666666666663,16.428571428571434,512.3333333333333,16.428571428571434,514.75,16.428571428571434C517.1666666666666,16.428571428571434,519.5833333333334,16.428571428571434,522,16.428571428571434C524.4166666666666,16.428571428571434,526.8333333333334,16.428571428571434,529.25,16.428571428571434C531.6666666666666,16.428571428571434,534.0833333333334,16.428571428571434,536.5,16.428571428571434C538.9166666666666,16.428571428571434,541.3333333333334,16.428571428571434,543.75,16.428571428571434C546.1666666666666,16.428571428571434,548.5833333333334,16.428571428571434,551,16.428571428571434C553.4166666666666,16.428571428571434,555.8333333333334,16.428571428571434,558.25,16.428571428571434C560.6666666666666,16.428571428571434,563.0833333333334,16.428571428571434,565.5,16.428571428571434C567.9166666666666,16.428571428571434,570.3333333333334,16.428571428571434,572.75,16.428571428571434C575.1666666666666,16.428571428571434,577.5833333333334,16.428571428571434,580,16.428571428571434C582.4166666666666,16.428571428571434,584.8333333333334,16.428571428571434,587.25,16.428571428571434C589.6666666666666,16.428571428571434,592.0833333333334,16.428571428571434,594.5,16.428571428571434C596.9166666666666,16.428571428571434,599.3333333333334,16.428571428571434,601.75,16.428571428571434C604.1666666666666,16.428571428571434,606.5833333333334,16.428571428571434,609,16.428571428571434C611.4166666666666,16.428571428571434,613.8333333333334,16.428571428571434,616.25,16.428571428571434C618.6666666666666,16.428571428571434,621.0833333333334,16.428571428571434,623.5,16.428571428571434C625.9166666666666,16.428571428571434,628.3333333333334,16.428571428571434,630.75,16.428571428571434C633.1666666666666,16.428571428571434,635.5833333333334,16.428571428571434,638,16.428571428571434C640.4166666666666,16.428571428571434,642.8333333333334,16.428571428571434,645.25,16.428571428571434C647.6666666666666,16.428571428571434,650.0833333333334,16.428571428571434,652.5,16.428571428571434C654.9166666666666,16.428571428571434,657.3333333333334,16.428571428571434,659.75,16.428571428571434C662.1666666666666,16.428571428571434,664.5833333333334,16.428571428571434,667,16.428571428571434C669.4166666666666,16.428571428571434,671.8333333333334,16.428571428571434,674.25,16.428571428571434C676.6666666666666,16.428571428571434,679.0833333333334,16.428571428571434,681.5,16.428571428571434C683.9166666666666,16.428571428571434,686.3333333333334,16.428571428571434,688.75,16.428571428571434C691.1666666666666,16.428571428571434,693.5833333333334,16.428571428571434,696,16.428571428571434C698.4166666666666,16.428571428571434,700.8333333333334,16.428571428571434,703.25,16.428571428571434C705.6666666666666,16.428571428571434,708.0833333333334,16.428571428571434,710.5,16.428571428571434C712.9166666666666,16.428571428571434,715.3333333333334,16.428571428571434,717.75,16.428571428571434C720.1666666666666,16.428571428571434,722.5833333333334,16.428571428571434,725,16.428571428571434C727.4166666666666,16.428571428571434,729.8333333333334,16.428571428571434,732.25,16.428571428571434C734.6666666666666,16.428571428571434,737.0833333333334,16.428571428571434,739.5,16.428571428571434C741.9166666666666,16.428571428571434,744.3333333333334,16.428571428571434,746.75,16.428571428571434C749.1666666666666,16.428571428571434,751.5833333333334,16.428571428571434,754,16.428571428571434C756.4166666666666,16.428571428571434,758.8333333333334,16.428571428571434,761.25,16.428571428571434C763.6666666666666,16.428571428571434,766.0833333333334,16.428571428571434,768.5,16.428571428571434C770.9166666666666,16.428571428571434,773.3333333333334,16.428571428571434,775.75,16.428571428571434C778.1666666666666,16.428571428571434,780.5833333333334,16.428571428571434,783,16.428571428571434C785.4166666666667,16.428571428571434,787.8333333333334,16.428571428571434,790.2500000000001,16.428571428571434C792.6666666666667,16.428571428571434,795.0833333333335,16.428571428571434,797.5000000000001,16.428571428571434C799.9166666666667,16.428571428571434,802.3333333333335,16.428571428571434,804.7500000000001,16.428571428571434C807.1666666666667,16.428571428571434,809.5833333333335,16.428571428571434,812.0000000000001,16.428571428571434C814.4166666666667,16.428571428571434,816.8333333333333,16.428571428571434,819.2499999999999,16.428571428571434C821.6666666666665,16.428571428571434,824.0833333333333,16.428571428571434,826.4999999999999,16.428571428571434C828.9166666666665,16.428571428571434,831.3333333333333,16.428571428571434,833.7499999999999,16.428571428571434C836.1666666666665,16.428571428571434,838.5833333333333,16.428571428571434,840.9999999999999,16.428571428571434C843.4166666666666,16.428571428571434,845.8333333333333,16.428571428571434,848.25,16.428571428571434C850.6666666666666,16.428571428571434,853.0833333333334,16.428571428571434,855.5,16.428571428571434C857.9166666666666,16.428571428571434,860.3333333333334,16.428571428571434,862.75,16.428571428571434C865.1666666666666,16.428571428571434,867.5833333333334,16.428571428571434,870,16.428571428571434C872.4166666666666,16.428571428571434,874.8333333333334,16.428571428571434,877.25,16.428571428571434C879.6666666666666,16.428571428571434,882.0833333333334,16.428571428571434,884.5,16.428571428571434C886.9166666666666,16.428571428571434,889.3333333333334,16.428571428571434,891.75,16.428571428571434C894.1666666666666,16.428571428571434,896.5833333333334,16.428571428571434,899,16.428571428571434C901.4166666666666,16.428571428571434,903.8333333333334,16.428571428571434,906.25,16.428571428571434C908.6666666666666,16.428571428571434,911.0833333333334,16.428571428571434,913.5,16.428571428571434C915.9166666666666,16.428571428571434,918.3333333333334,16.428571428571434,920.75,16.428571428571434C923.1666666666666,16.428571428571434,925.5833333333334,16.428571428571434,928,16.428571428571434C930.4166666666666,16.428571428571434,932.8333333333334,16.428571428571434,935.25,16.428571428571434C937.6666666666666,16.428571428571434,940.0833333333334,16.428571428571434,942.5,16.428571428571434C944.9166666666666,16.428571428571434,947.3333333333334,16.428571428571434,949.75,16.428571428571434C952.1666666666666,16.428571428571434,954.5833333333334,16.428571428571434,957,16.428571428571434C959.4166666666666,16.428571428571434,961.8333333333334,16.428571428571434,964.25,16.428571428571434C966.6666666666667,16.428571428571434,969.0833333333334,16.428571428571434,971.5000000000001,16.428571428571434C973.9166666666667,16.428571428571434,976.3333333333335,16.428571428571434,978.7500000000001,16.428571428571434C981.1666666666667,16.428571428571434,983.5833333333335,16.428571428571434,986.0000000000001,16.428571428571434C988.4166666666667,16.428571428571434,990.8333333333335,16.428571428571434,993.2500000000001,16.428571428571434C995.6666666666667,16.428571428571434,998.0833333333333,16.428571428571434,1000.4999999999999,16.428571428571434C1002.9166666666665,16.428571428571434,1005.3333333333333,16.428571428571434,1007.7499999999999,16.428571428571434C1010.1666666666665,16.428571428571434,1012.5833333333333,16.428571428571434,1014.9999999999999,16.428571428571434C1017.4166666666665,16.428571428571434,1019.8333333333333,16.428571428571434,1022.2499999999999,16.428571428571434C1024.6666666666665,16.428571428571434,1027.0833333333333,16.428571428571434,1029.5,16.428571428571434C1031.9166666666667,16.428571428571434,1034.3333333333333,16.428571428571434,1036.75,16.428571428571434C1039.1666666666667,16.428571428571434,1041.5833333333333,16.428571428571434,1044,16.428571428571434C1046.4166666666667,16.428571428571434,1048.8333333333333,16.428571428571434,1051.25,16.428571428571434C1053.6666666666667,16.428571428571434,1056.0833333333333,16.428571428571434,1058.5,16.428571428571434C1060.9166666666667,16.428571428571434,1063.3333333333333,16.428571428571434,1065.75,16.428571428571434C1068.1666666666667,16.428571428571434,1070.5833333333333,16.428571428571434,1073,16.428571428571434C1075.4166666666667,16.428571428571434,1077.8333333333333,16.428571428571434,1080.25,16.428571428571434C1082.6666666666667,16.428571428571434,1085.0833333333333,16.428571428571434,1087.5,16.428571428571434C1089.9166666666667,16.428571428571434,1092.3333333333333,16.428571428571434,1094.75,16.428571428571434C1097.1666666666667,16.428571428571434,1099.5833333333333,16.428571428571434,1102,16.428571428571434C1104.4166666666667,16.428571428571434,1106.8333333333333,16.428571428571434,1109.25,16.428571428571434C1111.6666666666667,16.428571428571434,1114.0833333333333,16.428571428571434,1116.5,16.428571428571434C1118.9166666666667,16.428571428571434,1121.3333333333333,16.428571428571434,1123.75,16.428571428571434C1126.1666666666667,16.428571428571434,1128.5833333333333,16.428571428571434,1131,16.428571428571434C1133.4166666666667,16.428571428571434,1135.8333333333333,16.428571428571434,1138.25,16.428571428571434C1140.6666666666667,16.428571428571434,1143.0833333333333,16.428571428571434,1145.5,16.428571428571434C1147.9166666666667,16.428571428571434,1150.3333333333333,16.428571428571434,1152.75,16.428571428571434C1155.1666666666667,16.428571428571434,1157.5833333333333,16.428571428571434,1160,16.428571428571434C1162.4166666666667,16.428571428571434,1164.8333333333333,16.428571428571434,1167.25,16.428571428571434C1169.6666666666667,16.428571428571434,1172.0833333333333,16.428571428571434,1174.5,16.428571428571434C1176.9166666666667,16.428571428571434,1179.3333333333333,16.428571428571434,1181.75,16.428571428571434C1184.1666666666667,16.428571428571434,1186.5833333333333,16.428571428571434,1189,16.428571428571434C1191.4166666666667,16.428571428571434,1193.8333333333333,16.428571428571434,1196.25,16.428571428571434C1198.6666666666667,16.428571428571434,1201.0833333333333,16.428571428571434,1203.5,16.428571428571434C1205.9166666666667,16.428571428571434,1208.3333333333333,16.428571428571434,1210.75,16.428571428571434C1213.1666666666667,16.428571428571434,1215.5833333333333,16.428571428571434,1218,16.428571428571434C1220.4166666666667,16.428571428571434,1222.8333333333333,16.428571428571434,1225.25,16.428571428571434C1227.6666666666667,16.428571428571434,1230.0833333333333,16.428571428571434,1232.5,16.428571428571434C1234.9166666666667,16.428571428571434,1237.3333333333333,16.428571428571434,1239.75,16.428571428571434C1242.1666666666667,16.428571428571434,1244.5833333333333,16.428571428571434,1247,16.428571428571434C1249.4166666666667,16.428571428571434,1251.8333333333333,16.428571428571434,1254.25,16.428571428571434C1256.6666666666667,16.428571428571434,1259.0833333333333,16.428571428571434,1261.5,16.428571428571434C1263.9166666666667,16.428571428571434,1266.3333333333333,16.428571428571434,1268.75,16.428571428571434C1271.1666666666667,16.428571428571434,1273.5833333333333,16.428571428571434,1276,16.428571428571434C1278.4166666666667,16.428571428571434,1280.8333333333333,16.428571428571434,1283.25,16.428571428571434C1285.6666666666667,16.428571428571434,1288.0833333333333,16.428571428571434,1290.5,16.428571428571434C1292.9166666666667,16.428571428571434,1295.3333333333333,16.428571428571434,1297.75,16.428571428571434C1300.1666666666667,16.428571428571434,1302.5833333333333,16.428571428571434,1305,16.428571428571434C1307.4166666666667,16.428571428571434,1309.8333333333333,16.428571428571434,1312.25,16.428571428571434C1314.6666666666667,16.428571428571434,1317.0833333333333,16.428571428571434,1319.5,16.428571428571434C1321.9166666666667,16.428571428571434,1324.3333333333333,16.428571428571434,1326.75,16.428571428571434C1329.1666666666667,16.428571428571434,1331.5833333333333,16.428571428571434,1334,16.428571428571434C1336.4166666666667,16.428571428571434,1338.8333333333333,16.428571428571434,1341.25,16.428571428571434C1343.6666666666667,16.428571428571434,1346.0833333333333,16.428571428571434,1348.5,16.428571428571434C1350.9166666666667,16.428571428571434,1353.3333333333333,16.428571428571434,1355.75,16.428571428571434C1358.1666666666667,16.428571428571434,1360.5833333333333,16.428571428571434,1363,16.428571428571434C1365.4166666666667,16.428571428571434,1367.8333333333333,16.428571428571434,1370.25,16.428571428571434C1372.6666666666667,16.428571428571434,1375.0833333333333,16.428571428571434,1377.5,16.428571428571434C1379.9166666666667,16.428571428571434,1382.3333333333333,16.428571428571434,1384.75,16.428571428571434C1387.1666666666667,16.428571428571434,1389.5833333333333,16.428571428571434,1392,16.428571428571434C1394.4166666666667,16.428571428571434,1396.8333333333333,16.428571428571434,1399.25,16.428571428571434C1401.6666666666667,16.428571428571434,1404.0833333333333,16.428571428571434,1406.5,16.428571428571434C1408.9166666666667,16.428571428571434,1411.3333333333333,16.428571428571434,1413.75,16.428571428571434C1416.1666666666667,16.428571428571434,1418.5833333333333,16.428571428571434,1421,16.428571428571434C1423.4166666666667,16.428571428571434,1425.8333333333333,16.428571428571434,1428.25,16.428571428571434C1430.6666666666667,16.428571428571434,1433.0833333333333,16.428571428571434,1435.5,16.428571428571434C1437.9166666666667,16.428571428571434,1440.3333333333333,16.428571428571434,1442.75,16.428571428571434C1445.1666666666667,16.428571428571434,1447.5833333333333,16.428571428571434,1450,16.428571428571434" fill="transparent" stroke-linecap="round" stroke="#B6509E" stroke-width="2"></path><path class="visx-linepath" d="M0,0C2.4166666666666665,57.49999999999999,4.833333333333334,115,7.25,115C9.666666666666666,115,12.083333333333334,115,14.5,115C16.916666666666668,115,19.333333333333332,115,21.75,115C24.166666666666668,115,26.583333333333332,115,29,115C31.416666666666668,115,33.833333333333336,115,36.25,115C38.666666666666664,115,41.083333333333336,115,43.5,115C45.91666666666667,115,48.333333333333336,115,50.75000000000001,115C53.16666666666667,115,55.583333333333336,115,58,115C60.416666666666664,115,62.833333333333336,115,65.25,115C67.66666666666667,115,70.08333333333333,115,72.5,115C74.91666666666667,115,77.33333333333333,115,79.75,115C82.16666666666667,115,84.58333333333333,115,87,115C89.41666666666667,115,91.83333333333333,115,94.25,115C96.66666666666667,115,99.08333333333334,115,101.50000000000001,115C103.91666666666667,115,106.33333333333334,115,108.75,115C111.16666666666667,115,113.58333333333333,115,116,115C118.41666666666667,115,120.83333333333334,115,123.25000000000001,115C125.66666666666667,115,128.08333333333334,115,130.5,115C132.91666666666666,115,135.33333333333334,115,137.75,115C140.16666666666666,115,142.58333333333334,115,145,115C147.41666666666666,115,149.83333333333334,115,152.25,115C154.66666666666666,115,157.08333333333334,115,159.5,115C161.91666666666666,115,164.33333333333334,115,166.75,115C169.16666666666666,115,171.58333333333334,115,174,115C176.41666666666666,115,178.83333333333334,115,181.25,115C183.66666666666666,115,186.08333333333334,115,188.5,115C190.91666666666666,115,193.33333333333334,115,195.75,115C198.16666666666669,115,200.58333333333334,115,203.00000000000003,115C205.41666666666669,115,207.83333333333331,115,210.24999999999997,115C212.66666666666666,115,215.08333333333331,115,217.5,115C219.91666666666666,115,222.33333333333334,115,224.75,115C227.16666666666666,115,229.58333333333334,115,232,115C234.41666666666666,115,236.83333333333334,115,239.25,115C241.66666666666669,115,244.08333333333334,115,246.50000000000003,115C248.91666666666669,115,251.33333333333331,115,253.74999999999997,115C256.16666666666663,115,258.5833333333333,115,261,115C263.4166666666667,115,265.8333333333333,115,268.25,115C270.6666666666667,115,273.0833333333333,115,275.5,115C277.9166666666667,115,280.3333333333333,115,282.75,115C285.1666666666667,115,287.5833333333333,115,290,115C292.4166666666667,115,294.8333333333333,115,297.25,115C299.6666666666667,115,302.0833333333333,115,304.5,115C306.9166666666667,115,309.3333333333333,115,311.75,115C314.1666666666667,115,316.5833333333333,115,319,115C321.4166666666667,115,323.8333333333333,115,326.25,115C328.6666666666667,115,331.0833333333333,115,333.5,115C335.9166666666667,115,338.3333333333333,115,340.75,115C343.1666666666667,115,345.5833333333333,115,348,115C350.4166666666667,115,352.8333333333333,115,355.25,115C357.6666666666667,115,360.0833333333333,115,362.5,115C364.9166666666667,115,367.3333333333333,115,369.75,115C372.1666666666667,115,374.5833333333333,115,377,115C379.4166666666667,115,381.8333333333333,115,384.25,115C386.6666666666667,115,389.0833333333333,115,391.5,115C393.9166666666667,115,396.33333333333337,115,398.75000000000006,115C401.16666666666674,115,403.58333333333337,115,406.00000000000006,115C408.4166666666667,115,410.8333333333333,115,413.24999999999994,115C415.66666666666663,115,418.08333333333326,115,420.49999999999994,115C422.91666666666663,115,425.3333333333333,115,427.75,115C430.1666666666667,115,432.5833333333333,115,435,115C437.4166666666667,115,439.8333333333333,115,442.25,115C444.6666666666667,115,447.0833333333333,115,449.5,115C451.9166666666667,115,454.3333333333333,115,456.75,115C459.1666666666667,115,461.5833333333333,115,464,115C466.4166666666667,115,468.8333333333333,115,471.25,115C473.6666666666667,115,476.0833333333333,115,478.5,115C480.9166666666667,115,483.33333333333337,115,485.75000000000006,115C488.16666666666674,115,490.58333333333337,115,493.00000000000006,115C495.4166666666667,115,497.8333333333333,115,500.24999999999994,115C502.66666666666663,115,505.08333333333326,115,507.49999999999994,115C509.91666666666663,115,512.3333333333333,115,514.75,115C517.1666666666666,115,519.5833333333334,115,522,115C524.4166666666666,115,526.8333333333334,115,529.25,115C531.6666666666666,115,534.0833333333334,115,536.5,115C538.9166666666666,115,541.3333333333334,115,543.75,115C546.1666666666666,115,548.5833333333334,115,551,115C553.4166666666666,115,555.8333333333334,115,558.25,115C560.6666666666666,115,563.0833333333334,115,565.5,115C567.9166666666666,115,570.3333333333334,115,572.75,115C575.1666666666666,115,577.5833333333334,115,580,115C582.4166666666666,115,584.8333333333334,115,587.25,115C589.6666666666666,115,592.0833333333334,115,594.5,115C596.9166666666666,115,599.3333333333334,115,601.75,115C604.1666666666666,115,606.5833333333334,115,609,115C611.4166666666666,115,613.8333333333334,115,616.25,115C618.6666666666666,115,621.0833333333334,115,623.5,115C625.9166666666666,115,628.3333333333334,115,630.75,115C633.1666666666666,115,635.5833333333334,115,638,115C640.4166666666666,115,642.8333333333334,115,645.25,115C647.6666666666666,115,650.0833333333334,115,652.5,115C654.9166666666666,115,657.3333333333334,115,659.75,115C662.1666666666666,115,664.5833333333334,115,667,115C669.4166666666666,115,671.8333333333334,115,674.25,115C676.6666666666666,115,679.0833333333334,115,681.5,115C683.9166666666666,115,686.3333333333334,115,688.75,115C691.1666666666666,115,693.5833333333334,115,696,115C698.4166666666666,115,700.8333333333334,115,703.25,115C705.6666666666666,115,708.0833333333334,115,710.5,115C712.9166666666666,115,715.3333333333334,115,717.75,115C720.1666666666666,115,722.5833333333334,115,725,115C727.4166666666666,115,729.8333333333334,115,732.25,115C734.6666666666666,115,737.0833333333334,115,739.5,115C741.9166666666666,115,744.3333333333334,115,746.75,115C749.1666666666666,115,751.5833333333334,115,754,115C756.4166666666666,115,758.8333333333334,115,761.25,115C763.6666666666666,115,766.0833333333334,115,768.5,115C770.9166666666666,115,773.3333333333334,115,775.75,115C778.1666666666666,115,780.5833333333334,115,783,115C785.4166666666667,115,787.8333333333334,115,790.2500000000001,115C792.6666666666667,115,795.0833333333335,115,797.5000000000001,115C799.9166666666667,115,802.3333333333335,115,804.7500000000001,115C807.1666666666667,115,809.5833333333335,115,812.0000000000001,115C814.4166666666667,115,816.8333333333333,115,819.2499999999999,115C821.6666666666665,115,824.0833333333333,115,826.4999999999999,115C828.9166666666665,115,831.3333333333333,115,833.7499999999999,115C836.1666666666665,115,838.5833333333333,115,840.9999999999999,115C843.4166666666666,115,845.8333333333333,115,848.25,115C850.6666666666666,115,853.0833333333334,115,855.5,115C857.9166666666666,115,860.3333333333334,115,862.75,115C865.1666666666666,115,867.5833333333334,115,870,115C872.4166666666666,115,874.8333333333334,115,877.25,115C879.6666666666666,115,882.0833333333334,115,884.5,115C886.9166666666666,115,889.3333333333334,115,891.75,115C894.1666666666666,115,896.5833333333334,115,899,115C901.4166666666666,115,903.8333333333334,115,906.25,115C908.6666666666666,115,911.0833333333334,115,913.5,115C915.9166666666666,115,918.3333333333334,115,920.75,115C923.1666666666666,115,925.5833333333334,115,928,115C930.4166666666666,115,932.8333333333334,115,935.25,115C937.6666666666666,115,940.0833333333334,115,942.5,115C944.9166666666666,115,947.3333333333334,115,949.75,115C952.1666666666666,115,954.5833333333334,115,957,115C959.4166666666666,115,961.8333333333334,115,964.25,115C966.6666666666667,115,969.0833333333334,115,971.5000000000001,115C973.9166666666667,115,976.3333333333335,115,978.7500000000001,115C981.1666666666667,115,983.5833333333335,115,986.0000000000001,115C988.4166666666667,115,990.8333333333335,115,993.2500000000001,115C995.6666666666667,115,998.0833333333333,115,1000.4999999999999,115C1002.9166666666665,115,1005.3333333333333,115,1007.7499999999999,115C1010.1666666666665,115,1012.5833333333333,115,1014.9999999999999,115C1017.4166666666665,115,1019.8333333333333,115,1022.2499999999999,115C1024.6666666666665,115,1027.0833333333333,115,1029.5,115C1031.9166666666667,115,1034.3333333333333,115,1036.75,115C1039.1666666666667,115,1041.5833333333333,115,1044,115C1046.4166666666667,115,1048.8333333333333,115,1051.25,115C1053.6666666666667,115,1056.0833333333333,115,1058.5,115C1060.9166666666667,115,1063.3333333333333,115,1065.75,115C1068.1666666666667,115,1070.5833333333333,115,1073,115C1075.4166666666667,115,1077.8333333333333,115,1080.25,115C1082.6666666666667,115,1085.0833333333333,115,1087.5,115C1089.9166666666667,115,1092.3333333333333,115,1094.75,115C1097.1666666666667,115,1099.5833333333333,115,1102,115C1104.4166666666667,115,1106.8333333333333,115,1109.25,115C1111.6666666666667,115,1114.0833333333333,115,1116.5,115C1118.9166666666667,115,1121.3333333333333,115,1123.75,115C1126.1666666666667,115,1128.5833333333333,115,1131,115C1133.4166666666667,115,1135.8333333333333,115,1138.25,115C1140.6666666666667,115,1143.0833333333333,115,1145.5,115C1147.9166666666667,115,1150.3333333333333,115,1152.75,115C1155.1666666666667,115,1157.5833333333333,115,1160,115C1162.4166666666667,115,1164.8333333333333,115,1167.25,115C1169.6666666666667,115,1172.0833333333333,115,1174.5,115C1176.9166666666667,115,1179.3333333333333,115,1181.75,115C1184.1666666666667,115,1186.5833333333333,115,1189,115C1191.4166666666667,115,1193.8333333333333,115,1196.25,115C1198.6666666666667,115,1201.0833333333333,115,1203.5,115C1205.9166666666667,115,1208.3333333333333,115,1210.75,115C1213.1666666666667,115,1215.5833333333333,115,1218,115C1220.4166666666667,115,1222.8333333333333,115,1225.25,115C1227.6666666666667,115,1230.0833333333333,115,1232.5,115C1234.9166666666667,115,1237.3333333333333,115,1239.75,115C1242.1666666666667,115,1244.5833333333333,115,1247,115C1249.4166666666667,115,1251.8333333333333,115,1254.25,115C1256.6666666666667,115,1259.0833333333333,115,1261.5,115C1263.9166666666667,115,1266.3333333333333,115,1268.75,115C1271.1666666666667,115,1273.5833333333333,115,1276,115C1278.4166666666667,115,1280.8333333333333,115,1283.25,115C1285.6666666666667,115,1288.0833333333333,115,1290.5,115C1292.9166666666667,115,1295.3333333333333,115,1297.75,115C1300.1666666666667,115,1302.5833333333333,115,1305,115C1307.4166666666667,115,1309.8333333333333,115,1312.25,115C1314.6666666666667,115,1317.0833333333333,115,1319.5,115C1321.9166666666667,115,1324.3333333333333,115,1326.75,115C1329.1666666666667,115,1331.5833333333333,115,1334,115C1336.4166666666667,115,1338.8333333333333,115,1341.25,115C1343.6666666666667,115,1346.0833333333333,115,1348.5,115C1350.9166666666667,115,1353.3333333333333,115,1355.75,115C1358.1666666666667,115,1360.5833333333333,115,1363,115C1365.4166666666667,115,1367.8333333333333,115,1370.25,115C1372.6666666666667,115,1375.0833333333333,115,1377.5,115C1379.9166666666667,115,1382.3333333333333,115,1384.75,115C1387.1666666666667,115,1389.5833333333333,115,1392,115C1394.4166666666667,115,1396.8333333333333,115,1399.25,115C1401.6666666666667,115,1404.0833333333333,115,1406.5,115C1408.9166666666667,115,1411.3333333333333,115,1413.75,115C1416.1666666666667,115,1418.5833333333333,115,1421,115C1423.4166666666667,115,1425.8333333333333,115,1428.25,115C1430.6666666666667,115,1433.0833333333333,115,1435.5,115C1437.9166666666667,115,1440.3333333333333,115,1442.75,115C1445.1666666666667,115,1447.5833333333333,115,1450,115" fill="transparent" stroke-linecap="round" stroke="#E7C6DF" stroke-width="2"></path><g class="visx-group visx-axis visx-axis-bottom" transform="translate(0, 115)"><g class="visx-group visx-axis-tick" transform="translate(0, 0)"><line class="visx-line" x1="0" y1="0" x2="0" y2="8" fill="transparent" shape-rendering="crispEdges" stroke="#000" stroke-width="0" stroke-linecap="square"></line><svg x="0" y="0" font-size="10" style="overflow:visible"><text transform="" x="0" y="18" fill="#000" font-size="10" text-anchor="middle"><tspan x="0" dy="0em">0%</tspan></text></svg></g><g class="visx-group visx-axis-tick" transform="translate(0, 0)"><line class="visx-line" x1="362.5" y1="0" x2="362.5" y2="8" fill="transparent" shape-rendering="crispEdges" stroke="#000" stroke-width="0" stroke-linecap="square"></line><svg x="0" y="0" font-size="10" style="overflow:visible"><text transform="" x="362.5" y="18" fill="#000" font-size="10" text-anchor="middle"><tspan x="362.5" dy="0em">25%</tspan></text></svg></g><g class="visx-group visx-axis-tick" transform="translate(0, 0)"><line class="visx-line" x1="725" y1="0" x2="725" y2="8" fill="transparent" shape-rendering="crispEdges" stroke="#000" stroke-width="0" stroke-linecap="square"></line><svg x="0" y="0" font-size="10" style="overflow:visible"><text transform="" x="725" y="18" fill="#000" font-size="10" text-anchor="middle"><tspan x="725" dy="0em">50%</tspan></text></svg></g><g class="visx-group visx-axis-tick" transform="translate(0, 0)"><line class="visx-line" x1="1087.5" y1="0" x2="1087.5" y2="8" fill="transparent" shape-rendering="crispEdges" stroke="#000" stroke-width="0" stroke-linecap="square"></line><svg x="0" y="0" font-size="10" style="overflow:visible"><text transform="" x="1087.5" y="18" fill="#000" font-size="10" text-anchor="middle"><tspan x="1087.5" dy="0em">75%</tspan></text></svg></g><g class="visx-group visx-axis-tick" transform="translate(0, 0)"><line class="visx-line" x1="1450" y1="0" x2="1450" y2="8" fill="transparent" shape-rendering="crispEdges" stroke="#000" stroke-width="0" stroke-linecap="square"></line><svg x="0" y="0" font-size="10" style="overflow:visible"><text transform="" x="1450" y="18" fill="#000" font-size="10" text-anchor="middle"><tspan x="1450" dy="0em">100%</tspan></text></svg></g><line class="visx-line visx-axis-line" x1="0.5" y1="0" x2="1450.5" y2="0" fill="transparent" shape-rendering="crispEdges" stroke="#222" stroke-width="0"></line></g><g class="visx-group visx-axis visx-axis-left" transform="translate(0, 0)"><g class="visx-group visx-axis-tick" transform="translate(0, 0)"><line class="visx-line" x1="0" y1="115" x2="-8" y2="115" fill="transparent" shape-rendering="crispEdges" stroke="#222" stroke-width="0" stroke-linecap="square"></line><svg x="-30" y="0" font-size="8" style="overflow:visible"><text transform="" x="-8" y="115" fill="#000" font-size="8" text-anchor="start"><tspan x="-8" dy="0em">0%</tspan></text></svg></g><g class="visx-group visx-axis-tick" transform="translate(0, 0)"><line class="visx-line" x1="0" y1="49.28571428571429" x2="-8" y2="49.28571428571429" fill="transparent" shape-rendering="crispEdges" stroke="#222" stroke-width="0" stroke-linecap="square"></line><svg x="-30" y="0" font-size="8" style="overflow:visible"><text transform="" x="-8" y="49.28571428571429" fill="#000" font-size="8" text-anchor="start"><tspan x="-8" dy="0em">2%</tspan></text></svg></g><line class="visx-line visx-axis-line" x1="0" y1="115.5" x2="0" y2="0.5" fill="transparent" shape-rendering="crispEdges" stroke="#222" stroke-width="0"></line></g><rect class="visx-bar" width="1450" height="115" fill="transparent"></rect><line class="visx-line" x1="0" y1="28" x2="0" y2="115" fill="transparent" shape-rendering="crispEdges" stroke="#0062D2" stroke-width="1" pointer-events="none" stroke-dasharray="5,2"></line><svg x="0" y="0" font-size="10px" style="overflow:visible"><text transform="" x="0" y="20" font-size="10px" fill="#fff" stroke="#fff" stroke-width="0.8em" text-anchor="middle"><tspan x="0" dy="0.355em">Optimal 0%</tspan></text></svg><svg x="0" y="0" font-size="10px" style="overflow:visible"><text transform="" x="0" y="20" font-size="10px" fill="#62677B" text-anchor="middle"><tspan x="0" dy="0.355em">Optimal 0%</tspan></text></svg></g></svg>