<?xml version="1.0"?><svg xmlns="http://www.w3.org/2000/svg" xmlns:xlink= "http://www.w3.org/1999/xlink" style="background: white;" width="1500" height="300"> <g style="color: black; font-size: 13px; font-family: sans-serif; transform: translate(18px, 25px);"><g><circle r="3" cx="-6" cy="-5" style="fill: #1AD4B3" /><text>Borrow APR, variable</text></g><g style="transform: translateX(150px);"><circle r="3" cx="-6" cy="-5" style="fill: #101423" /><text>Borrow APR, stable</text></g></g><g class="visx-group" transform="translate(45, 50)"><g class="visx-group visx-rows" transform="translate(0, 0)"><line class="visx-line" x1="0" y1="155" x2="1425" y2="155" fill="transparent" shape-rendering="crispEdges" stroke="#F2F0F9" stroke-width="1" pointer-events="none"></line><line class="visx-line" x1="0" y1="90.41666666666666" x2="1425" y2="90.41666666666666" fill="transparent" shape-rendering="crispEdges" stroke="#F2F0F9" stroke-width="1" pointer-events="none"></line><line class="visx-line" x1="0" y1="25.83333333333333" x2="1425" y2="25.83333333333333" fill="transparent" shape-rendering="crispEdges" stroke="#F2F0F9" stroke-width="1" pointer-events="none"></line></g><path class="visx-linepath" d="M0,154.99999999991388C2.375,154.9856481480979,4.75,154.97129629628193,7.125,154.95694444444445C9.5,154.94259259260696,11.875,154.92824074074073,14.25,154.9138888888889C16.625,154.89953703703705,19,154.88518518518518,21.375,154.87083333333334C23.75,154.8564814814815,26.125,154.84212962962962,28.5,154.82777777777778C30.875,154.81342592592594,33.25,154.79907407407407,35.625,154.78472222222223C38,154.7703703703704,40.375,154.75601851851852,42.75,154.74166666666667C45.125,154.72731481481483,47.50000000000001,154.71296296296296,49.87500000000001,154.69861111111112C52.25000000000001,154.68425925925928,54.625,154.6699074074074,57,154.65555555555557C59.375,154.64120370370372,61.75,154.62685185185185,64.125,154.6125C66.5,154.59814814814817,68.875,154.58379629629633,71.25,154.56944444444446C73.625,154.5550925925926,76,154.54074074074072,78.375,154.52638888888887C80.75,154.51203703703703,83.125,154.4976851851852,85.5,154.48333333333335C87.875,154.4689814814815,90.25,154.4546296296296,92.625,154.44027777777777C95,154.4259259259259,97.37500000000001,154.41157407407405,99.75000000000001,154.3972222222222C102.12500000000001,154.38287037037037,104.5,154.3685185185185,106.875,154.35416666666666C109.25,154.33981481481482,111.625,154.32546296296294,114,154.3111111111111C116.375,154.29675925925926,118.75000000000001,154.2824074074074,121.12500000000001,154.26805555555555C123.50000000000001,154.2537037037037,125.875,154.23935185185184,128.25,154.225C130.625,154.21064814814815,133,154.19629629629628,135.375,154.18194444444444C137.75,154.1675925925926,140.125,154.15324074074073,142.5,154.13888888888889C144.875,154.12453703703704,147.25,154.11018518518517,149.625,154.09583333333333C152,154.0814814814815,154.375,154.06712962962962,156.75,154.05277777777778C159.125,154.03842592592594,161.5,154.02407407407406,163.875,154.00972222222222C166.25,153.99537037037038,168.625,153.9810185185185,171,153.96666666666667C173.375,153.95231481481483,175.75,153.93796296296296,178.125,153.92361111111111C180.5,153.90925925925927,182.875,153.8949074074074,185.25,153.88055555555556C187.625,153.86620370370372,190,153.85185185185185,192.375,153.8375C194.75,153.82314814814816,197.12500000000003,153.8087962962963,199.50000000000003,153.79444444444445C201.875,153.7800925925926,204.25,153.76574074074074,206.62499999999997,153.7513888888889C208.99999999999997,153.73703703703706,211.375,153.72268518518518,213.75,153.70833333333334C216.125,153.6939814814815,218.5,153.67962962962963,220.875,153.6652777777778C223.25,153.65092592592595,225.625,153.63657407407408,228,153.62222222222223C230.375,153.6078703703704,232.75,153.59351851851852,235.125,153.57916666666668C237.5,153.5648148148148,239.87500000000003,153.55046296296294,242.25000000000003,153.5361111111111C244.625,153.52175925925926,247,153.5074074074074,249.37499999999997,153.49305555555557C251.74999999999997,153.47870370370373,254.125,153.46435185185186,256.5,153.45C258.875,153.43564814814815,261.25,153.42129629629628,263.625,153.40694444444443C266,153.3925925925926,268.375,153.37824074074072,270.75,153.36388888888888C273.125,153.34953703703704,275.5,153.33518518518517,277.875,153.32083333333333C280.25,153.30648148148148,282.625,153.2921296296296,285,153.27777777777777C287.375,153.26342592592593,289.75,153.24907407407406,292.125,153.23472222222222C294.5,153.22037037037038,296.875,153.2060185185185,299.25,153.19166666666666C301.625,153.17731481481482,304,153.16296296296295,306.375,153.1486111111111C308.75,153.13425925925927,311.125,153.1199074074074,313.5,153.10555555555555C315.875,153.0912037037037,318.25,153.07685185185184,320.625,153.0625C323,153.04814814814816,325.375,153.0337962962963,327.75,153.01944444444445C330.125,153.0050925925926,332.5,152.99074074074073,334.875,152.9763888888889C337.25,152.96203703703705,339.625,152.94768518518518,342,152.93333333333334C344.375,152.9189814814815,346.75,152.90462962962962,349.125,152.89027777777778C351.5,152.87592592592594,353.875,152.86157407407407,356.25,152.84722222222223C358.625,152.8328703703704,361,152.81851851851854,363.375,152.80416666666667C365.75,152.7898148148148,368.125,152.77546296296293,370.5,152.7611111111111C372.875,152.74675925925925,375.25,152.7324074074074,377.625,152.71805555555557C380,152.70370370370372,382.375,152.68935185185185,384.75,152.675C387.125,152.66064814814817,389.50000000000006,152.6462962962963,391.87500000000006,152.63194444444446C394.25000000000006,152.61759259259262,396.62500000000006,152.60324074074077,399.00000000000006,152.5888888888889C401.375,152.57453703703706,403.75,152.56018518518516,406.12499999999994,152.54583333333332C408.49999999999994,152.53148148148148,410.87499999999994,152.51712962962964,413.24999999999994,152.5027777777778C415.62499999999994,152.48842592592595,418,152.47407407407408,420.375,152.4597222222222C422.75,152.44537037037037,425.125,152.4310185185185,427.5,152.41666666666666C429.875,152.40231481481482,432.25,152.38796296296294,434.625,152.3736111111111C437,152.35925925925926,439.375,152.3449074074074,441.75,152.33055555555555C444.125,152.3162037037037,446.5,152.30185185185184,448.875,152.2875C451.25,152.27314814814815,453.625,152.25879629629628,456,152.24444444444444C458.375,152.2300925925926,460.75,152.21574074074073,463.125,152.20138888888889C465.5,152.18703703703704,467.875,152.17268518518517,470.25,152.15833333333333C472.625,152.1439814814815,475.00000000000006,152.12962962962962,477.37500000000006,152.11527777777778C479.75000000000006,152.10092592592594,482.12500000000006,152.08657407407406,484.50000000000006,152.07222222222222C486.875,152.05787037037038,489.25,152.0435185185185,491.62499999999994,152.02916666666667C493.99999999999994,152.01481481481483,496.37499999999994,152.00046296296296,498.74999999999994,151.98611111111111C501.12499999999994,151.97175925925927,503.5,151.9574074074074,505.875,151.94305555555556C508.25,151.92870370370372,510.625,151.91435185185185,513,151.9C515.375,151.88564814814816,517.75,151.8712962962963,520.125,151.85694444444445C522.5,151.8425925925926,524.875,151.82824074074074,527.25,151.8138888888889C529.625,151.79953703703706,532,151.78518518518516,534.375,151.77083333333331C536.75,151.75648148148147,539.125,151.74212962962963,541.5,151.7277777777778C543.875,151.71342592592595,546.25,151.69907407407408,548.625,151.68472222222223C551,151.6703703703704,553.375,151.6560185185185,555.75,151.64166666666665C558.125,151.6273148148148,560.5,151.61296296296297,562.875,151.59861111111113C565.25,151.58425925925928,567.625,151.56990740740738,570,151.55555555555554C572.375,151.5412037037037,574.75,151.52685185185186,577.125,151.51250000000002C579.5,151.49814814814818,581.875,151.4837962962963,584.25,151.46944444444443C586.625,151.45509259259256,589,151.44074074074072,591.375,151.42638888888888C593.75,151.41203703703704,596.125,151.39768518518517,598.5,151.38333333333333C600.875,151.36898148148148,603.25,151.3546296296296,605.625,151.34027777777777C608,151.32592592592593,610.375,151.31157407407406,612.75,151.29722222222222C615.125,151.28287037037038,617.5,151.2685185185185,619.875,151.25416666666666C622.25,151.23981481481482,624.625,151.22546296296295,627,151.2111111111111C629.375,151.19675925925927,631.75,151.1824074074074,634.125,151.16805555555555C636.5,151.1537037037037,638.875,151.13935185185184,641.25,151.125C643.625,151.11064814814816,646,151.0962962962963,648.375,151.08194444444445C650.75,151.0675925925926,653.125,151.05324074074073,655.5,151.0388888888889C657.875,151.02453703703705,660.25,151.01018518518518,662.625,150.99583333333334C665,150.9814814814815,667.375,150.96712962962962,669.75,150.95277777777778C672.125,150.93842592592594,674.5,150.92407407407407,676.875,150.90972222222223C679.25,150.8953703703704,681.625,150.88101851851852,684,150.86666666666667C686.375,150.85231481481483,688.75,150.837962962963,691.125,150.82361111111112C693.5,150.80925925925925,695.875,150.79490740740738,698.25,150.78055555555554C700.625,150.7662037037037,703,150.75185185185185,705.375,150.7375C707.75,150.72314814814817,710.125,150.70879629629627,712.5,150.69444444444443C714.875,150.6800925925926,717.25,150.66574074074074,719.625,150.6513888888889C722,150.63703703703706,724.375,150.62268518518522,726.75,150.60833333333335C729.125,150.59398148148148,731.5,150.5796296296296,733.875,150.56527777777777C736.25,150.55092592592592,738.625,150.53657407407408,741,150.52222222222224C743.375,150.5078703703704,745.75,150.4935185185185,748.125,150.47916666666666C750.5,150.46481481481482,752.875,150.45046296296294,755.25,150.4361111111111C757.625,150.42175925925926,760,150.4074074074074,762.375,150.39305555555555C764.75,150.3787037037037,767.125,150.36435185185184,769.5,150.35C771.875,150.33564814814815,774.2500000000001,150.32129629629628,776.6250000000001,150.30694444444444C779.0000000000001,150.2925925925926,781.3750000000001,150.27824074074073,783.7500000000001,150.26388888888889C786.1250000000001,150.24953703703704,788.5000000000001,150.23518518518517,790.8750000000001,150.22083333333333C793.2500000000001,150.2064814814815,795.6250000000001,150.19212962962962,798.0000000000001,150.17777777777778C800.375,150.16342592592594,802.75,150.14907407407406,805.1249999999999,150.13472222222222C807.4999999999999,150.12037037037038,809.8749999999999,150.1060185185185,812.2499999999999,150.09166666666667C814.6249999999999,150.07731481481483,816.9999999999999,150.06296296296296,819.3749999999999,150.04861111111111C821.7499999999999,150.03425925925927,824.1249999999999,150.0199074074074,826.4999999999999,150.00555555555556C828.8749999999999,149.99120370370372,831.25,149.97685185185185,833.625,149.9625C836,149.94814814814816,838.375,149.9337962962963,840.75,149.91944444444445C843.125,149.9050925925926,845.5,149.89074074074074,847.875,149.8763888888889C850.25,149.86203703703706,852.625,149.86203703703706,855,149.83333333333334C857.375,149.80462962962963,859.75,148.75694444444446,862.125,148.21875C864.5,147.68055555555554,866.875,147.1423611111111,869.25,146.60416666666666C871.625,146.06597222222223,874,145.52777777777777,876.375,144.98958333333334C878.75,144.4513888888889,881.125,143.91319444444446,883.5,143.375C885.875,142.83680555555554,888.25,142.2986111111111,890.625,141.76041666666666C893,141.22222222222223,895.375,140.68402777777777,897.75,140.14583333333334C900.125,139.6076388888889,902.5,139.06944444444446,904.875,138.53125C907.25,137.99305555555554,909.625,137.4548611111111,912,136.91666666666666C914.375,136.37847222222223,916.75,135.84027777777777,919.125,135.30208333333334C921.5,134.7638888888889,923.875,134.22569444444446,926.25,133.6875C928.625,133.14930555555554,931,132.6111111111111,933.375,132.07291666666666C935.75,131.53472222222223,938.125,130.99652777777777,940.5,130.45833333333334C942.875,129.9201388888889,945.25,129.38194444444446,947.625,128.84375C950,128.30555555555554,952.3750000000001,127.7673611111111,954.7500000000001,127.22916666666666C957.1250000000001,126.69097222222221,959.5000000000001,126.15277777777777,961.8750000000001,125.61458333333333C964.2500000000001,125.07638888888889,966.6250000000001,124.53819444444444,969.0000000000001,124C971.3750000000001,123.46180555555556,973.7500000000001,122.92361111111111,976.1250000000001,122.38541666666666C978.5,121.84722222222221,980.875,121.30902777777777,983.2499999999999,120.77083333333333C985.6249999999999,120.23263888888887,987.9999999999999,119.69444444444443,990.3749999999999,119.15624999999999C992.7499999999999,118.61805555555554,995.1249999999999,118.0798611111111,997.4999999999999,117.54166666666666C999.8749999999999,117.00347222222221,1002.2499999999999,116.46527777777777,1004.6249999999999,115.92708333333333C1006.9999999999999,115.38888888888889,1009.375,114.85069444444444,1011.75,114.3125C1014.125,113.77430555555556,1016.5,113.2361111111111,1018.875,112.69791666666666C1021.25,112.15972222222221,1023.625,111.62152777777777,1026,111.08333333333333C1028.375,110.54513888888889,1030.75,110.00694444444444,1033.125,109.46875C1035.5,108.93055555555556,1037.875,108.3923611111111,1040.25,107.85416666666666C1042.625,107.31597222222221,1045,106.77777777777777,1047.375,106.23958333333333C1049.75,105.70138888888889,1052.125,105.16319444444444,1054.5,104.625C1056.875,104.08680555555556,1059.25,103.5486111111111,1061.625,103.01041666666666C1064,102.47222222222221,1066.375,101.93402777777777,1068.75,101.39583333333333C1071.125,100.85763888888889,1073.5,100.31944444444444,1075.875,99.78125C1078.25,99.24305555555556,1080.625,98.7048611111111,1083,98.16666666666666C1085.375,97.62847222222221,1087.75,97.09027777777777,1090.125,96.55208333333333C1092.5,96.01388888888889,1094.875,95.47569444444444,1097.25,94.9375C1099.625,94.39930555555556,1102,93.8611111111111,1104.375,93.32291666666666C1106.75,92.78472222222221,1109.125,92.24652777777777,1111.5,91.70833333333333C1113.875,91.17013888888889,1116.25,90.63194444444444,1118.625,90.09375C1121,89.55555555555556,1123.375,89.0173611111111,1125.75,88.47916666666666C1128.125,87.94097222222221,1130.5,87.40277777777777,1132.875,86.86458333333333C1135.25,86.32638888888889,1137.625,85.78819444444444,1140,85.25C1142.375,84.71180555555556,1144.75,84.1736111111111,1147.125,83.63541666666666C1149.5,83.09722222222221,1151.875,82.5590277777778,1154.25,82.02083333333336C1156.625,81.48263888888891,1159,80.94444444444446,1161.375,80.40625C1163.75,79.86805555555554,1166.125,79.3298611111111,1168.5,78.79166666666666C1170.875,78.25347222222221,1173.25,77.71527777777777,1175.625,77.17708333333333C1178,76.63888888888889,1180.375,76.10069444444444,1182.75,75.5625C1185.125,75.02430555555556,1187.5,74.48611111111113,1189.875,73.94791666666669C1192.25,73.40972222222224,1194.625,72.87152777777777,1197,72.33333333333333C1199.375,71.79513888888889,1201.75,71.25694444444444,1204.125,70.71875C1206.5,70.18055555555556,1208.875,69.6423611111111,1211.25,69.10416666666666C1213.625,68.56597222222221,1216,68.02777777777777,1218.375,67.48958333333333C1220.75,66.95138888888889,1223.125,66.41319444444444,1225.5,65.875C1227.875,65.33680555555556,1230.25,64.7986111111111,1232.625,64.26041666666666C1235,63.722222222222214,1237.375,63.18402777777778,1239.75,62.645833333333336C1242.125,62.10763888888889,1244.5,61.56944444444445,1246.875,61.03125000000001C1249.25,60.493055555555564,1251.625,59.95486111111111,1254,59.416666666666664C1256.375,58.87847222222222,1258.75,58.34027777777778,1261.125,57.802083333333336C1263.5,57.26388888888889,1265.875,56.72569444444445,1268.25,56.18750000000001C1270.625,55.649305555555564,1273,55.11111111111111,1275.375,54.572916666666664C1277.75,54.03472222222222,1280.125,53.49652777777778,1282.5,52.958333333333336C1284.875,52.42013888888889,1287.25,51.88194444444445,1289.625,51.34375000000001C1292,50.805555555555564,1294.375,50.26736111111111,1296.75,49.729166666666664C1299.125,49.19097222222222,1301.5,48.65277777777778,1303.875,48.114583333333336C1306.25,47.57638888888889,1308.625,47.03819444444445,1311,46.50000000000001C1313.375,45.961805555555564,1315.75,45.42361111111111,1318.125,44.885416666666664C1320.5,44.34722222222222,1322.875,43.80902777777778,1325.25,43.270833333333336C1327.625,42.73263888888889,1330,42.19444444444445,1332.375,41.65625000000001C1334.75,41.118055555555564,1337.125,40.57986111111111,1339.5,40.041666666666664C1341.875,39.50347222222222,1344.25,38.96527777777778,1346.625,38.427083333333336C1349,37.88888888888889,1351.375,37.35069444444445,1353.75,36.81250000000001C1356.125,36.274305555555564,1358.5,35.73611111111111,1360.875,35.197916666666664C1363.25,34.65972222222222,1365.625,34.12152777777778,1368,33.583333333333336C1370.375,33.04513888888889,1372.75,32.50694444444445,1375.125,31.968750000000007C1377.5,31.43055555555556,1379.875,30.892361111111107,1382.25,30.35416666666666C1384.625,29.815972222222214,1387,29.27777777777778,1389.375,28.739583333333336C1391.75,28.201388888888893,1394.125,27.663194444444454,1396.5,27.125000000000007C1398.875,26.58680555555556,1401.25,26.048611111111104,1403.625,25.51041666666666C1406,24.972222222222218,1408.375,24.434027777777796,1410.75,23.89583333333335C1413.125,23.357638888888903,1415.5,22.819444444444436,1417.875,22.28124999999999C1420.25,21.743055555555543,1422.625,21.2048611111111,1425,20.66666666666666" fill="transparent" stroke-linecap="round" stroke="#1AD4B3" stroke-width="2"></path><g class="visx-group visx-axis visx-axis-bottom" transform="translate(0, 155)"><g class="visx-group visx-axis-tick" transform="translate(0, 0)"><line class="visx-line" x1="0" y1="0" x2="0" y2="8" fill="transparent" shape-rendering="crispEdges" stroke="#F2F0F9" stroke-width="1" stroke-linecap="square"></line><svg x="0" y="0" font-size="11" style="overflow:visible"><text transform="" x="0" y="19" fill="#1B2030" font-size="11" text-anchor="middle"><tspan x="0" dy="0em">0%</tspan></text></svg></g><g class="visx-group visx-axis-tick" transform="translate(0, 0)"><line class="visx-line" x1="356.25" y1="0" x2="356.25" y2="8" fill="transparent" shape-rendering="crispEdges" stroke="#F2F0F9" stroke-width="1" stroke-linecap="square"></line><svg x="0" y="0" font-size="11" style="overflow:visible"><text transform="" x="356.25" y="19" fill="#1B2030" font-size="11" text-anchor="middle"><tspan x="356.25" dy="0em">25%</tspan></text></svg></g><g class="visx-group visx-axis-tick" transform="translate(0, 0)"><line class="visx-line" x1="712.5" y1="0" x2="712.5" y2="8" fill="transparent" shape-rendering="crispEdges" stroke="#F2F0F9" stroke-width="1" stroke-linecap="square"></line><svg x="0" y="0" font-size="11" style="overflow:visible"><text transform="" x="712.5" y="19" fill="#1B2030" font-size="11" text-anchor="middle"><tspan x="712.5" dy="0em">50%</tspan></text></svg></g><g class="visx-group visx-axis-tick" transform="translate(0, 0)"><line class="visx-line" x1="1068.75" y1="0" x2="1068.75" y2="8" fill="transparent" shape-rendering="crispEdges" stroke="#F2F0F9" stroke-width="1" stroke-linecap="square"></line><svg x="0" y="0" font-size="11" style="overflow:visible"><text transform="" x="1068.75" y="19" fill="#1B2030" font-size="11" text-anchor="middle"><tspan x="1068.75" dy="0em">75%</tspan></text></svg></g><g class="visx-group visx-axis-tick" transform="translate(0, 0)"><line class="visx-line" x1="1425" y1="0" x2="1425" y2="8" fill="transparent" shape-rendering="crispEdges" stroke="#F2F0F9" stroke-width="1" stroke-linecap="square"></line><svg x="0" y="0" font-size="11" style="overflow:visible"><text transform="" x="1425" y="19" fill="#1B2030" font-size="11" text-anchor="middle"><tspan x="1425" dy="0em">100%</tspan></text></svg></g></g><g class="visx-group visx-axis visx-axis-left" transform="translate(0, 0)"><g class="visx-group visx-axis-tick" transform="translate(0, 0)"><line class="visx-line" x1="0" y1="155" x2="-8" y2="155" fill="transparent" shape-rendering="crispEdges" stroke="#F2F0F9" stroke-width="1" stroke-linecap="square"></line><svg x="-30" y="0" font-size="11" style="overflow:visible"><text transform="" x="-8" y="155" fill="#1B2030" font-size="11" text-anchor="start"><tspan x="-8" dy="0em">0%</tspan></text></svg></g><g class="visx-group visx-axis-tick" transform="translate(0, 0)"><line class="visx-line" x1="0" y1="90.41666666666666" x2="-8" y2="90.41666666666666" fill="transparent" shape-rendering="crispEdges" stroke="#F2F0F9" stroke-width="1" stroke-linecap="square"></line><svg x="-30" y="0" font-size="11" style="overflow:visible"><text transform="" x="-8" y="90.41666666666666" fill="#1B2030" font-size="11" text-anchor="start"><tspan x="-8" dy="0em">100%</tspan></text></svg></g><g class="visx-group visx-axis-tick" transform="translate(0, 0)"><line class="visx-line" x1="0" y1="25.83333333333333" x2="-8" y2="25.83333333333333" fill="transparent" shape-rendering="crispEdges" stroke="#F2F0F9" stroke-width="1" stroke-linecap="square"></line><svg x="-30" y="0" font-size="11" style="overflow:visible"><text transform="" x="-8" y="25.83333333333333" fill="#1B2030" font-size="11" text-anchor="start"><tspan x="-8" dy="0em">200%</tspan></text></svg></g><line class="visx-line visx-axis-line" x1="0" y1="155.5" x2="0" y2="0.5" fill="transparent" shape-rendering="crispEdges" stroke="#F2F0F9" stroke-width="1"></line></g><rect class="visx-bar" width="1425" height="155" fill="transparent"></rect><line class="visx-line" x1="855" y1="58" x2="855" y2="155" fill="transparent" shape-rendering="crispEdges" stroke="#CDC8E1" stroke-width="1" pointer-events="none" stroke-dasharray="5"></line><svg x="0" y="0" font-size="11px" style="overflow:visible"><text transform="" x="855" y="50" font-size="11px" fill="#555069" stroke="#FFFFFF" stroke-width="1px" text-anchor="middle"><tspan x="855" dy="0.355em">Optimal utilization 60%</tspan></text></svg><svg x="0" y="0" font-size="11px" style="overflow:visible"><text transform="" x="855" y="50" font-size="11px" fill="#CDC8E1" text-anchor="middle"><tspan x="855" dy="0.355em">Optimal utilization 60%</tspan></text></svg></g></svg>