<?xml version="1.0"?><svg xmlns="http://www.w3.org/2000/svg" xmlns:xlink= "http://www.w3.org/1999/xlink" style="background: white;" width="1500" height="300"> <g style="color: black; font-size: 13px; font-family: sans-serif; transform: translate(18px, 25px);"><g><circle r="3" cx="-6" cy="-5" style="fill: #1AD4B3" /><text>Borrow APR, variable</text></g><g style="transform: translateX(150px);"><circle r="3" cx="-6" cy="-5" style="fill: #101423" /><text>Borrow APR, stable</text></g></g><g class="visx-group" transform="translate(45, 50)"><g class="visx-group visx-rows" transform="translate(0, 0)"><line class="visx-line" x1="0" y1="155" x2="1425" y2="155" fill="transparent" shape-rendering="crispEdges" stroke="#F2F0F9" stroke-width="1" pointer-events="none"></line><line class="visx-line" x1="0" y1="110.71428571428572" x2="1425" y2="110.71428571428572" fill="transparent" shape-rendering="crispEdges" stroke="#F2F0F9" stroke-width="1" pointer-events="none"></line><line class="visx-line" x1="0" y1="66.42857142857143" x2="1425" y2="66.42857142857143" fill="transparent" shape-rendering="crispEdges" stroke="#F2F0F9" stroke-width="1" pointer-events="none"></line><line class="visx-line" x1="0" y1="22.14285714285715" x2="1425" y2="22.14285714285715" fill="transparent" shape-rendering="crispEdges" stroke="#F2F0F9" stroke-width="1" pointer-events="none"></line></g><path class="visx-linepath" d="M0,153.67142857133015C2.375,153.65502645496906,4.75,153.63862433860794,7.125,153.62222222222223C9.5,153.60582010583653,11.875,153.589417989418,14.25,153.57301587301586C16.625,153.55661375661373,19,153.54021164021162,21.375,153.52380952380952C23.75,153.5074074074074,26.125,153.49100529100528,28.5,153.47460317460317C30.875,153.45820105820107,33.25,153.44179894179894,35.625,153.42539682539683C38,153.40899470899473,40.375,153.39259259259256,42.75,153.37619047619046C45.125,153.35978835978833,47.50000000000001,153.34338624338622,49.87500000000001,153.32698412698412C52.25000000000001,153.310582010582,54.625,153.29417989417988,57,153.27777777777777C59.375,153.26137566137567,61.75,153.24497354497353,64.125,153.22857142857143C66.5,153.21216931216932,68.875,153.1957671957672,71.25,153.17936507936508C73.625,153.16296296296298,76,153.14656084656082,78.375,153.1301587301587C80.75,153.1137566137566,83.125,153.09735449735447,85.5,153.08095238095237C87.875,153.06455026455026,90.25,153.04814814814813,92.625,153.03174603174602C95,153.01534391534392,97.37500000000001,152.9989417989418,99.75000000000001,152.98253968253968C102.12500000000001,152.96613756613758,104.5,152.94973544973544,106.875,152.93333333333334C109.25,152.9169312169312,111.625,152.90052910052907,114,152.88412698412696C116.375,152.86772486772486,118.75000000000001,152.85132275132275,121.12500000000001,152.83492063492065C123.50000000000001,152.81851851851854,125.875,152.8021164021164,128.25,152.7857142857143C130.625,152.76931216931217,133,152.75291005291007,135.375,152.73650793650793C137.75,152.7201058201058,140.125,152.7037037037037,142.5,152.6873015873016C144.875,152.67089947089949,147.25,152.65449735449735,149.625,152.63809523809525C152,152.62169312169314,154.375,152.605291005291,156.75,152.5888888888889C159.125,152.5724867724868,161.5,152.5560846560847,163.875,152.53968253968256C166.25,152.52328042328043,168.625,152.50687830687832,171,152.4904761904762C173.375,152.47407407407405,175.75,152.45767195767195,178.125,152.44126984126984C180.5,152.42486772486774,182.875,152.4084656084656,185.25,152.3920634920635C187.625,152.3756613756614,190,152.35925925925926,192.375,152.34285714285716C194.75,152.32645502645502,197.12500000000003,152.31005291005292,199.50000000000003,152.29365079365078C201.875,152.27724867724868,204.25,152.26084656084655,206.62499999999997,152.24444444444444C208.99999999999997,152.22804232804233,211.375,152.2116402116402,213.75,152.1952380952381C216.125,152.178835978836,218.5,152.16243386243386,220.875,152.14603174603175C223.25,152.12962962962965,225.625,152.1132275132275,228,152.0968253968254C230.375,152.0804232804233,232.75,152.06402116402114,235.125,152.04761904761904C237.5,152.0312169312169,239.87500000000003,152.0148148148148,242.25000000000003,151.9984126984127C244.625,151.9820105820106,247,151.96560846560845,249.37499999999997,151.94920634920635C251.74999999999997,151.93280423280424,254.125,151.9164021164021,256.5,151.9C258.875,151.8835978835979,261.25,151.86719576719577,263.625,151.85079365079366C266,151.83439153439156,268.375,151.8179894179894,270.75,151.8015873015873C273.125,151.78518518518518,275.5,151.76878306878305,277.875,151.75238095238095C280.25,151.73597883597884,282.625,151.7195767195767,285,151.7031746031746C287.375,151.6867724867725,289.75,151.67037037037036,292.125,151.65396825396826C294.5,151.63756613756615,296.875,151.62116402116402,299.25,151.60476190476192C301.625,151.5883597883598,304,151.57195767195765,306.375,151.55555555555554C308.75,151.53915343915344,311.125,151.5227513227513,313.5,151.5063492063492C315.875,151.4899470899471,318.25,151.47354497354496,320.625,151.45714285714286C323,151.44074074074075,325.375,151.42433862433862,327.75,151.4079365079365C330.125,151.3915343915344,332.5,151.37513227513227,334.875,151.35873015873017C337.25,151.34232804232806,339.625,151.3259259259259,342,151.3095238095238C344.375,151.2931216931217,346.75,151.27671957671956,349.125,151.26031746031745C351.5,151.24391534391535,353.875,151.2275132275132,356.25,151.2111111111111C358.625,151.194708994709,361,151.17830687830687,363.375,151.16190476190476C365.75,151.14550264550266,368.125,151.12910052910053,370.5,151.11269841269842C372.875,151.09629629629632,375.25,151.07989417989415,377.625,151.06349206349205C380,151.04708994708994,382.375,151.0306878306878,384.75,151.0142857142857C387.125,150.9978835978836,389.50000000000006,150.98148148148147,391.87500000000006,150.96507936507936C394.25000000000006,150.94867724867726,396.62500000000006,150.93227513227512,399.00000000000006,150.91587301587302C401.375,150.8994708994709,403.75,150.88306878306878,406.12499999999994,150.86666666666667C408.49999999999994,150.85026455026454,410.87499999999994,150.8338624338624,413.24999999999994,150.8174603174603C415.62499999999994,150.8010582010582,418,150.7846560846561,420.375,150.768253968254C422.75,150.75185185185188,425.125,150.73544973544972,427.5,150.71904761904761C429.875,150.7026455026455,432.25,150.68624338624338,434.625,150.66984126984127C437,150.65343915343917,439.375,150.63703703703703,441.75,150.62063492063493C444.125,150.60423280423282,446.5,150.5878306878307,448.875,150.57142857142858C451.25,150.55502645502648,453.625,150.53862433862435,456,150.52222222222224C458.375,150.50582010582013,460.75,150.48941798941797,463.125,150.47301587301587C465.5,150.45661375661376,467.875,150.44021164021163,470.25,150.42380952380952C472.625,150.40740740740742,475.00000000000006,150.39100529100529,477.37500000000006,150.37460317460318C479.75000000000006,150.35820105820108,482.12500000000006,150.34179894179894,484.50000000000006,150.32539682539684C486.875,150.30899470899473,489.25,150.2925925925926,491.62499999999994,150.2761904761905C493.99999999999994,150.25978835978836,496.37499999999994,150.24338624338623,498.74999999999994,150.22698412698412C501.12499999999994,150.210582010582,503.5,150.19417989417988,505.875,150.17777777777778C508.25,150.16137566137567,510.625,150.14497354497354,513,150.12857142857143C515.375,150.11216931216933,517.75,150.0957671957672,520.125,150.0793650793651C522.5,150.06296296296298,524.875,150.04656084656085,527.25,150.03015873015875C529.625,150.01375661375664,532,149.99735449735448,534.375,149.98095238095237C536.75,149.96455026455027,539.125,149.94814814814814,541.5,149.93174603174603C543.875,149.91534391534393,546.25,149.8989417989418,548.625,149.8825396825397C551,149.86613756613758,553.375,149.84973544973545,555.75,149.83333333333334C558.125,149.81693121693124,560.5,149.8005291005291,562.875,149.784126984127C565.25,149.7677248677249,567.625,149.75132275132273,570,149.73492063492063C572.375,149.71851851851852,574.75,149.7021164021164,577.125,149.68571428571428C579.5,149.66931216931218,581.875,149.65291005291004,584.25,149.63650793650794C586.625,149.62010582010583,589,149.60370370370373,591.375,149.5873015873016C593.75,149.57089947089946,596.125,149.55449735449736,598.5,149.53809523809522C600.875,149.5216931216931,603.25,149.50529100529099,605.625,149.48888888888888C608,149.47248677248677,610.375,149.45608465608464,612.75,149.43968253968254C615.125,149.42328042328043,617.5,149.4068783068783,619.875,149.3904761904762C622.25,149.3740740740741,624.625,149.35767195767198,627,149.34126984126985C629.375,149.32486772486772,631.75,149.3084656084656,634.125,149.29206349206348C636.5,149.27566137566134,638.875,149.27566137566137,641.25,149.24285714285713C643.625,149.2100529100529,646,148.43766233766232,648.375,148.03506493506492C650.75,147.63246753246753,653.125,147.2298701298701,655.5,146.8272727272727C657.875,146.42467532467532,660.25,146.0220779220779,662.625,145.6194805194805C665,145.2168831168831,667.375,144.81428571428572,669.75,144.41168831168832C672.125,144.00909090909093,674.5,143.6064935064935,676.875,143.2038961038961C679.25,142.80129870129872,681.625,142.3987012987013,684,141.9961038961039C686.375,141.5935064935065,688.75,141.1909090909091,691.125,140.7883116883117C693.5,140.3857142857143,695.875,139.98311688311688,698.25,139.58051948051948C700.625,139.1779220779221,703,138.77532467532467,705.375,138.37272727272727C707.75,137.97012987012988,710.125,137.56753246753246,712.5,137.16493506493507C714.875,136.76233766233767,717.25,136.35974025974025,719.625,135.95714285714286C722,135.55454545454546,724.375,135.15194805194804,726.75,134.74935064935065C729.125,134.34675324675325,731.5,133.94415584415583,733.875,133.54155844155844C736.25,133.13896103896104,738.625,132.73636363636362,741,132.33376623376623C743.375,131.93116883116883,745.75,131.52857142857144,748.125,131.12597402597405C750.5,130.72337662337665,752.875,130.3207792207792,755.25,129.9181818181818C757.625,129.5155844155844,760,129.11298701298702,762.375,128.71038961038963C764.75,128.30779220779223,767.125,127.90519480519478,769.5,127.50259740259739C771.875,127.09999999999998,774.2500000000001,126.69740259740261,776.6250000000001,126.2948051948052C779.0000000000001,125.89220779220781,781.3750000000001,125.48961038961039,783.7500000000001,125.08701298701298C786.1250000000001,124.68441558441558,788.5000000000001,124.28181818181818,790.8750000000001,123.87922077922077C793.2500000000001,123.47662337662337,795.6250000000001,123.07402597402597,798.0000000000001,122.67142857142856C800.375,122.26883116883117,802.75,121.86623376623376,805.1249999999999,121.46363636363637C807.4999999999999,121.06103896103896,809.8749999999999,120.65844155844155,812.2499999999999,120.25584415584414C814.6249999999999,119.85324675324674,816.9999999999999,119.45064935064934,819.3749999999999,119.04805194805195C821.7499999999999,118.64545454545456,824.1249999999999,118.24285714285715,826.4999999999999,117.84025974025975C828.8749999999999,117.43766233766235,831.25,117.03506493506495,833.625,116.63246753246754C836,116.22987012987014,838.375,115.82727272727273,840.75,115.42467532467532C843.125,115.02207792207791,845.5,114.61948051948053,847.875,114.21688311688312C850.25,113.81428571428572,852.625,113.41168831168831,855,113.0090909090909C857.375,112.60649350649349,859.75,112.20389610389611,862.125,111.8012987012987C864.5,111.3987012987013,866.875,110.9961038961039,869.25,110.5935064935065C871.625,110.19090909090909,874,109.7883116883117,876.375,109.38571428571429C878.75,108.98311688311688,881.125,108.58051948051947,883.5,108.17792207792206C885.875,107.77532467532465,888.25,107.37272727272727,890.625,106.97012987012987C893,106.56753246753246,895.375,106.16493506493504,897.75,105.76233766233764C900.125,105.35974025974025,902.5,104.95714285714286,904.875,104.55454545454546C907.25,104.15194805194807,909.625,103.74935064935066,912,103.34675324675325C914.375,102.94415584415584,916.75,102.54155844155845,919.125,102.13896103896104C921.5,101.73636363636363,923.875,101.33376623376624,926.25,100.93116883116883C928.625,100.52857142857142,931,100.12597402597402,933.375,99.72337662337662C935.75,99.32077922077923,938.125,98.91818181818184,940.5,98.51558441558443C942.875,98.11298701298702,945.25,97.71038961038961,947.625,97.3077922077922C950,96.9051948051948,952.3750000000001,96.5025974025974,954.7500000000001,96.1C957.1250000000001,95.6974025974026,959.5000000000001,95.29480519480518,961.8750000000001,94.89220779220778C964.2500000000001,94.48961038961039,966.6250000000001,94.087012987013,969.0000000000001,93.6844155844156C971.3750000000001,93.28181818181821,973.7500000000001,92.87922077922079,976.1250000000001,92.47662337662338C978.5,92.07402597402599,980.875,91.67142857142856,983.2499999999999,91.26883116883117C985.6249999999999,90.86623376623376,987.9999999999999,90.46363636363637,990.3749999999999,90.06103896103896C992.7499999999999,89.65844155844155,995.1249999999999,89.25584415584416,997.4999999999999,88.85324675324675C999.8749999999999,88.45064935064934,1002.2499999999999,88.04805194805193,1004.6249999999999,87.64545454545454C1006.9999999999999,87.24285714285713,1009.375,86.84025974025975,1011.75,86.43766233766235C1014.125,86.03506493506495,1016.5,85.63246753246753,1018.875,85.22987012987012C1021.25,84.82727272727271,1023.625,84.42467532467532,1026,84.02207792207791C1028.375,83.6194805194805,1030.75,83.2168831168831,1033.125,82.8142857142857C1035.5,82.41168831168831,1037.875,82.00909090909093,1040.25,81.60649350649352C1042.625,81.20389610389611,1045,80.8012987012987,1047.375,80.3987012987013C1049.75,79.99610389610389,1052.125,79.5935064935065,1054.5,79.19090909090909C1056.875,78.78831168831168,1059.25,78.38571428571427,1061.625,77.98311688311688C1064,77.58051948051948,1066.375,77.17792207792209,1068.75,76.77532467532468C1071.125,76.37272727272727,1073.5,75.97012987012987,1075.875,75.56753246753246C1078.25,75.16493506493505,1080.625,74.76233766233764,1083,74.35974025974025C1085.375,73.95714285714286,1087.75,73.55454545454546,1090.125,73.15194805194805C1092.5,72.74935064935065,1094.875,72.34675324675324,1097.25,71.94415584415583C1099.625,71.54155844155842,1102,71.13896103896101,1104.375,70.73636363636362C1106.75,70.33376623376623,1109.125,69.93116883116883,1111.5,69.52857142857144C1113.875,69.12597402597405,1116.25,68.72337662337664,1118.625,68.32077922077923C1121,67.91818181818182,1123.375,67.51558441558441,1125.75,67.112987012987C1128.125,66.7103896103896,1130.5,66.3077922077922,1132.875,65.9051948051948C1135.25,65.50259740259739,1137.625,65.1,1140,64.6974025974026C1142.375,64.2948051948052,1144.75,63.892207792207806,1147.125,63.4896103896104C1149.5,63.08701298701299,1151.875,62.684415584415575,1154.25,62.28181818181817C1156.625,61.87922077922076,1159,61.47662337662336,1161.375,61.074025974025965C1163.75,60.67142857142857,1166.125,60.26883116883119,1168.5,59.86623376623379C1170.875,59.46363636363639,1173.25,59.06103896103897,1175.625,58.65844155844156C1178,58.25584415584415,1180.375,57.85324675324676,1182.75,57.45064935064936C1185.125,57.048051948051956,1187.5,56.64545454545455,1189.875,56.24285714285715C1192.25,55.84025974025975,1194.625,55.43766233766234,1197,55.03506493506494C1199.375,54.63246753246754,1201.75,54.22987012987013,1204.125,53.82727272727273C1206.5,53.42467532467533,1208.875,53.02207792207792,1211.25,52.61948051948052C1213.625,52.21688311688312,1216,51.81428571428573,1218.375,51.41168831168833C1220.75,51.00909090909093,1223.125,50.606493506493514,1225.5,50.203896103896106C1227.875,49.8012987012987,1230.25,49.3987012987013,1232.625,48.9961038961039C1235,48.593506493506496,1237.375,48.19090909090909,1239.75,47.78831168831169C1242.125,47.385714285714286,1244.5,46.98311688311688,1246.875,46.58051948051948C1249.25,46.17792207792208,1251.625,45.775324675324676,1254,45.372727272727275C1256.375,44.970129870129874,1258.75,44.567532467532466,1261.125,44.164935064935065C1263.5,43.762337662337664,1265.875,43.35974025974027,1268.25,42.95714285714287C1270.625,42.55454545454547,1273,42.15194805194805,1275.375,41.749350649350646C1277.75,41.346753246753245,1280.125,40.94415584415586,1282.5,40.54155844155846C1284.875,40.13896103896106,1287.25,39.73636363636364,1289.625,39.333766233766234C1292,38.931168831168826,1294.375,38.528571428571404,1296.75,38.125974025974C1299.125,37.7233766233766,1301.5,37.320779220779215,1303.875,36.918181818181814C1306.25,36.515584415584414,1308.625,36.112987012987006,1311,35.710389610389605C1313.375,35.307792207792204,1315.75,34.90519480519482,1318.125,34.50259740259742C1320.5,34.100000000000016,1322.875,33.6974025974026,1325.25,33.29480519480519C1327.625,32.892207792207785,1330,32.489610389610384,1332.375,32.08701298701298C1334.75,31.684415584415582,1337.125,31.281818181818196,1339.5,30.87922077922079C1341.875,30.476623376623387,1344.25,30.07402597402597,1346.625,29.671428571428567C1349,29.268831168831163,1351.375,28.866233766233762,1353.75,28.463636363636358C1356.125,28.061038961038953,1358.5,27.658441558441538,1360.875,27.255844155844134C1363.25,26.85324675324673,1365.625,26.45064935064934,1368,26.048051948051942C1370.375,25.645454545454545,1372.75,25.24285714285715,1375.125,24.84025974025975C1377.5,24.43766233766235,1379.875,24.035064935064945,1382.25,23.63246753246754C1384.625,23.229870129870136,1387,22.82727272727272,1389.375,22.424675324675317C1391.75,22.022077922077912,1394.125,21.619480519480508,1396.5,21.216883116883107C1398.875,20.814285714285706,1401.25,20.411688311688323,1403.625,20.00909090909092C1406,19.606493506493514,1408.375,19.203896103896092,1410.75,18.80129870129869C1413.125,18.39870129870129,1415.5,17.996103896103904,1417.875,17.593506493506503C1420.25,17.190909090909102,1422.625,16.788311688311698,1425,16.385714285714293" fill="transparent" stroke-linecap="round" stroke="#1AD4B3" stroke-width="2"></path><g class="visx-group visx-axis visx-axis-bottom" transform="translate(0, 155)"><g class="visx-group visx-axis-tick" transform="translate(0, 0)"><line class="visx-line" x1="0" y1="0" x2="0" y2="8" fill="transparent" shape-rendering="crispEdges" stroke="#F2F0F9" stroke-width="1" stroke-linecap="square"></line><svg x="0" y="0" font-size="11" style="overflow:visible"><text transform="" x="0" y="19" fill="#1B2030" font-size="11" text-anchor="middle"><tspan x="0" dy="0em">0%</tspan></text></svg></g><g class="visx-group visx-axis-tick" transform="translate(0, 0)"><line class="visx-line" x1="356.25" y1="0" x2="356.25" y2="8" fill="transparent" shape-rendering="crispEdges" stroke="#F2F0F9" stroke-width="1" stroke-linecap="square"></line><svg x="0" y="0" font-size="11" style="overflow:visible"><text transform="" x="356.25" y="19" fill="#1B2030" font-size="11" text-anchor="middle"><tspan x="356.25" dy="0em">25%</tspan></text></svg></g><g class="visx-group visx-axis-tick" transform="translate(0, 0)"><line class="visx-line" x1="712.5" y1="0" x2="712.5" y2="8" fill="transparent" shape-rendering="crispEdges" stroke="#F2F0F9" stroke-width="1" stroke-linecap="square"></line><svg x="0" y="0" font-size="11" style="overflow:visible"><text transform="" x="712.5" y="19" fill="#1B2030" font-size="11" text-anchor="middle"><tspan x="712.5" dy="0em">50%</tspan></text></svg></g><g class="visx-group visx-axis-tick" transform="translate(0, 0)"><line class="visx-line" x1="1068.75" y1="0" x2="1068.75" y2="8" fill="transparent" shape-rendering="crispEdges" stroke="#F2F0F9" stroke-width="1" stroke-linecap="square"></line><svg x="0" y="0" font-size="11" style="overflow:visible"><text transform="" x="1068.75" y="19" fill="#1B2030" font-size="11" text-anchor="middle"><tspan x="1068.75" dy="0em">75%</tspan></text></svg></g><g class="visx-group visx-axis-tick" transform="translate(0, 0)"><line class="visx-line" x1="1425" y1="0" x2="1425" y2="8" fill="transparent" shape-rendering="crispEdges" stroke="#F2F0F9" stroke-width="1" stroke-linecap="square"></line><svg x="0" y="0" font-size="11" style="overflow:visible"><text transform="" x="1425" y="19" fill="#1B2030" font-size="11" text-anchor="middle"><tspan x="1425" dy="0em">100%</tspan></text></svg></g></g><g class="visx-group visx-axis visx-axis-left" transform="translate(0, 0)"><g class="visx-group visx-axis-tick" transform="translate(0, 0)"><line class="visx-line" x1="0" y1="155" x2="-8" y2="155" fill="transparent" shape-rendering="crispEdges" stroke="#F2F0F9" stroke-width="1" stroke-linecap="square"></line><svg x="-30" y="0" font-size="11" style="overflow:visible"><text transform="" x="-8" y="155" fill="#1B2030" font-size="11" text-anchor="start"><tspan x="-8" dy="0em">0%</tspan></text></svg></g><g class="visx-group visx-axis-tick" transform="translate(0, 0)"><line class="visx-line" x1="0" y1="110.71428571428572" x2="-8" y2="110.71428571428572" fill="transparent" shape-rendering="crispEdges" stroke="#F2F0F9" stroke-width="1" stroke-linecap="square"></line><svg x="-30" y="0" font-size="11" style="overflow:visible"><text transform="" x="-8" y="110.71428571428572" fill="#1B2030" font-size="11" text-anchor="start"><tspan x="-8" dy="0em">100%</tspan></text></svg></g><g class="visx-group visx-axis-tick" transform="translate(0, 0)"><line class="visx-line" x1="0" y1="66.42857142857143" x2="-8" y2="66.42857142857143" fill="transparent" shape-rendering="crispEdges" stroke="#F2F0F9" stroke-width="1" stroke-linecap="square"></line><svg x="-30" y="0" font-size="11" style="overflow:visible"><text transform="" x="-8" y="66.42857142857143" fill="#1B2030" font-size="11" text-anchor="start"><tspan x="-8" dy="0em">200%</tspan></text></svg></g><g class="visx-group visx-axis-tick" transform="translate(0, 0)"><line class="visx-line" x1="0" y1="22.14285714285715" x2="-8" y2="22.14285714285715" fill="transparent" shape-rendering="crispEdges" stroke="#F2F0F9" stroke-width="1" stroke-linecap="square"></line><svg x="-30" y="0" font-size="11" style="overflow:visible"><text transform="" x="-8" y="22.14285714285715" fill="#1B2030" font-size="11" text-anchor="start"><tspan x="-8" dy="0em">300%</tspan></text></svg></g><line class="visx-line visx-axis-line" x1="0" y1="155.5" x2="0" y2="0.5" fill="transparent" shape-rendering="crispEdges" stroke="#F2F0F9" stroke-width="1"></line></g><rect class="visx-bar" width="1425" height="155" fill="transparent"></rect><line class="visx-line" x1="641.25" y1="58" x2="641.25" y2="155" fill="transparent" shape-rendering="crispEdges" stroke="#CDC8E1" stroke-width="1" pointer-events="none" stroke-dasharray="5"></line><svg x="0" y="0" font-size="11px" style="overflow:visible"><text transform="" x="641.25" y="50" font-size="11px" fill="#555069" stroke="#FFFFFF" stroke-width="1px" text-anchor="middle"><tspan x="641.25" dy="0.355em">Optimal utilization 45%</tspan></text></svg><svg x="0" y="0" font-size="11px" style="overflow:visible"><text transform="" x="641.25" y="50" font-size="11px" fill="#CDC8E1" text-anchor="middle"><tspan x="641.25" dy="0.355em">Optimal utilization 45%</tspan></text></svg></g></svg>