<?xml version="1.0"?><svg xmlns="http://www.w3.org/2000/svg" xmlns:xlink= "http://www.w3.org/1999/xlink" style="background: white;" width="1500" height="300"> <g style="color: black; font-size: 13px; font-family: sans-serif; transform: translate(18px, 25px);"><g><circle r="3" cx="-6" cy="-5" style="fill: #1AD4B3" /><text>Borrow APR, variable</text></g><g style="transform: translateX(150px);"><circle r="3" cx="-6" cy="-5" style="fill: #101423" /><text>Borrow APR, stable</text></g></g><g class="visx-group" transform="translate(45, 50)"><g class="visx-group visx-rows" transform="translate(0, 0)"><line class="visx-line" x1="0" y1="155" x2="1425" y2="155" fill="transparent" shape-rendering="crispEdges" stroke="#F2F0F9" stroke-width="1" pointer-events="none"></line><line class="visx-line" x1="0" y1="95.38461538461539" x2="1425" y2="95.38461538461539" fill="transparent" shape-rendering="crispEdges" stroke="#F2F0F9" stroke-width="1" pointer-events="none"></line><line class="visx-line" x1="0" y1="35.76923076923076" x2="1425" y2="35.76923076923076" fill="transparent" shape-rendering="crispEdges" stroke="#F2F0F9" stroke-width="1" pointer-events="none"></line></g><path class="visx-linepath" d="M0,151.42307692285337C2.375,151.38581730756192,4.75,151.34855769227045,7.125,151.3112980769231C9.5,151.27403846157574,11.875,151.23677884615384,14.25,151.19951923076923C16.625,151.1622596153846,19,151.125,21.375,151.0877403846154C23.75,151.05048076923077,26.125,151.01322115384616,28.5,150.97596153846155C30.875,150.93870192307693,33.25,150.90144230769232,35.625,150.8641826923077C38,150.8269230769231,40.375,150.78966346153845,42.75,150.75240384615384C45.125,150.71514423076923,47.50000000000001,150.6778846153846,49.87500000000001,150.640625C52.25000000000001,150.6033653846154,54.625,150.56610576923077,57,150.52884615384616C59.375,150.49158653846155,61.75,150.45432692307693,64.125,150.41706730769232C66.5,150.3798076923077,68.875,150.34254807692307,71.25,150.30528846153845C73.625,150.26802884615384,76,150.23076923076923,78.375,150.1935096153846C80.75,150.15625,83.125,150.1189903846154,85.5,150.08173076923077C87.875,150.04447115384616,90.25,150.00721153846152,92.625,149.9699519230769C95,149.9326923076923,97.37500000000001,149.89543269230768,99.75000000000001,149.85817307692307C102.12500000000001,149.82091346153845,104.5,149.78365384615384,106.875,149.74639423076923C109.25,149.7091346153846,111.625,149.671875,114,149.6346153846154C116.375,149.59735576923077,118.75000000000001,149.56009615384613,121.12500000000001,149.52283653846152C123.50000000000001,149.4855769230769,125.875,149.44831730769232,128.25,149.4110576923077C130.625,149.3737980769231,133,149.33653846153845,135.375,149.29927884615384C137.75,149.26201923076923,140.125,149.2247596153846,142.5,149.1875C144.875,149.1502403846154,147.25,149.11298076923077,149.625,149.07572115384616C152,149.03846153846155,154.375,149.00120192307693,156.75,148.96394230769232C159.125,148.9266826923077,161.5,148.88942307692307,163.875,148.85216346153845C166.25,148.81490384615384,168.625,148.77764423076923,171,148.7403846153846C173.375,148.703125,175.75,148.6658653846154,178.125,148.62860576923077C180.5,148.59134615384616,182.875,148.55408653846155,185.25,148.51682692307693C187.625,148.47956730769232,190,148.44230769230768,192.375,148.40504807692307C194.75,148.36778846153845,197.12500000000003,148.33052884615384,199.50000000000003,148.29326923076923C201.875,148.2560096153846,204.25,148.21875,206.62499999999997,148.1814903846154C208.99999999999997,148.14423076923077,211.375,148.10697115384616,213.75,148.06971153846155C216.125,148.03245192307693,218.5,147.9951923076923,220.875,147.95793269230768C223.25,147.92067307692307,225.625,147.88341346153845,228,147.84615384615384C230.375,147.80889423076923,232.75,147.7716346153846,235.125,147.734375C237.5,147.6971153846154,239.87500000000003,147.65985576923077,242.25000000000003,147.62259615384616C244.625,147.58533653846155,247,147.54807692307693,249.37499999999997,147.51081730769232C251.74999999999997,147.4735576923077,254.125,147.43629807692307,256.5,147.39903846153845C258.875,147.36177884615384,261.25,147.32451923076923,263.625,147.2872596153846C266,147.25,268.375,147.2127403846154,270.75,147.17548076923077C273.125,147.13822115384616,275.5,147.10096153846155,277.875,147.06370192307693C280.25,147.02644230769232,282.625,146.98918269230768,285,146.95192307692307C287.375,146.91466346153845,289.75,146.87740384615384,292.125,146.84014423076923C294.5,146.8028846153846,296.875,146.765625,299.25,146.7283653846154C301.625,146.69110576923077,304,146.65384615384616,306.375,146.61658653846155C308.75,146.57932692307693,311.125,146.5420673076923,313.5,146.50480769230768C315.875,146.46754807692307,318.25,146.43028846153845,320.625,146.39302884615384C323,146.35576923076923,325.375,146.3185096153846,327.75,146.28125C330.125,146.2439903846154,332.5,146.20673076923077,334.875,146.16947115384616C337.25,146.13221153846155,339.625,146.0949519230769,342,146.0576923076923C344.375,146.02043269230768,346.75,145.9831730769231,349.125,145.94591346153848C351.5,145.90865384615387,353.875,145.87139423076923,356.25,145.8341346153846C358.625,145.796875,361,145.75961538461536,363.375,145.72235576923075C365.75,145.68509615384613,368.125,145.64783653846155,370.5,145.61057692307693C372.875,145.57331730769232,375.25,145.5360576923077,377.625,145.4987980769231C380,145.46153846153848,382.375,145.42427884615384,384.75,145.38701923076923C387.125,145.3497596153846,389.50000000000006,145.3125,391.87500000000006,145.2752403846154C394.25000000000006,145.23798076923077,396.62500000000006,145.20072115384616,399.00000000000006,145.16346153846155C401.375,145.12620192307693,403.75,145.08894230769232,406.12499999999994,145.0516826923077C408.49999999999994,145.0144230769231,410.87499999999994,144.97716346153845,413.24999999999994,144.93990384615384C415.62499999999994,144.90264423076923,418,144.8653846153846,420.375,144.828125C422.75,144.7908653846154,425.125,144.75360576923077,427.5,144.71634615384616C429.875,144.67908653846155,432.25,144.6418269230769,434.625,144.6045673076923C437,144.56730769230768,439.375,144.53004807692307,441.75,144.49278846153845C444.125,144.45552884615384,446.5,144.41826923076923,448.875,144.3810096153846C451.25,144.34375,453.625,144.3064903846154,456,144.26923076923077C458.375,144.23197115384616,460.75,144.19471153846152,463.125,144.1574519230769C465.5,144.1201923076923,467.875,144.0829326923077,470.25,144.0456730769231C472.625,144.00841346153848,475.00000000000006,143.97115384615384,477.37500000000006,143.93389423076923C479.75000000000006,143.8966346153846,482.12500000000006,143.859375,484.50000000000006,143.8221153846154C486.875,143.78485576923077,489.25,143.74759615384616,491.62499999999994,143.71033653846155C493.99999999999994,143.67307692307693,496.37499999999994,143.63581730769232,498.74999999999994,143.5985576923077C501.12499999999994,143.5612980769231,503.5,143.52403846153845,505.875,143.48677884615384C508.25,143.44951923076923,510.625,143.4122596153846,513,143.375C515.375,143.3377403846154,517.75,143.30048076923077,520.125,143.26322115384616C522.5,143.22596153846155,524.875,143.1887019230769,527.25,143.1514423076923C529.625,143.11418269230768,532,143.07692307692307,534.375,143.03966346153845C536.75,143.00240384615384,539.125,142.96514423076923,541.5,142.9278846153846C543.875,142.890625,546.25,142.8533653846154,548.625,142.81610576923077C551,142.77884615384616,553.375,142.74158653846152,555.75,142.7043269230769C558.125,142.6670673076923,560.5,142.62980769230768,562.875,142.59254807692307C565.25,142.55528846153845,567.625,142.51802884615384,570,142.48076923076923C572.375,142.4435096153846,574.75,142.40625,577.125,142.3689903846154C579.5,142.33173076923077,581.875,142.29447115384613,584.25,142.25721153846152C586.625,142.2199519230769,589,142.18269230769232,591.375,142.1454326923077C593.75,142.1081730769231,596.125,142.07091346153845,598.5,142.03365384615384C600.875,141.99639423076923,603.25,141.9591346153846,605.625,141.921875C608,141.8846153846154,610.375,141.84735576923077,612.75,141.81009615384616C615.125,141.77283653846155,617.5,141.73557692307693,619.875,141.69831730769232C622.25,141.6610576923077,624.625,141.62379807692307,627,141.58653846153845C629.375,141.54927884615384,631.75,141.51201923076923,634.125,141.4747596153846C636.5,141.4375,638.875,141.4002403846154,641.25,141.36298076923077C643.625,141.32572115384616,646,141.28846153846155,648.375,141.25120192307693C650.75,141.21394230769232,653.125,141.17668269230768,655.5,141.13942307692307C657.875,141.10216346153845,660.25,141.06490384615384,662.625,141.02764423076923C665,140.9903846153846,667.375,140.953125,669.75,140.9158653846154C672.125,140.87860576923077,674.5,140.84134615384616,676.875,140.80408653846155C679.25,140.76682692307693,681.625,140.7295673076923,684,140.69230769230768C686.375,140.65504807692307,688.75,140.61778846153845,691.125,140.58052884615384C693.5,140.54326923076923,695.875,140.5060096153846,698.25,140.46875C700.625,140.4314903846154,703,140.39423076923077,705.375,140.35697115384616C707.75,140.31971153846155,710.125,140.28245192307693,712.5,140.24519230769232C714.875,140.2079326923077,717.25,140.17067307692307,719.625,140.13341346153845C722,140.09615384615384,724.375,140.05889423076923,726.75,140.0216346153846C729.125,139.984375,731.5,139.9471153846154,733.875,139.90985576923077C736.25,139.87259615384616,738.625,139.83533653846155,741,139.79807692307693C743.375,139.76081730769232,745.75,139.72355769230768,748.125,139.68629807692307C750.5,139.64903846153845,752.875,139.61177884615384,755.25,139.57451923076923C757.625,139.5372596153846,760,139.5,762.375,139.4627403846154C764.75,139.42548076923077,767.125,139.38822115384616,769.5,139.35096153846155C771.875,139.31370192307693,774.2500000000001,139.2764423076923,776.6250000000001,139.23918269230768C779.0000000000001,139.20192307692307,781.3750000000001,139.16466346153845,783.7500000000001,139.12740384615384C786.1250000000001,139.09014423076923,788.5000000000001,139.0528846153846,790.8750000000001,139.015625C793.2500000000001,138.9783653846154,795.6250000000001,138.94110576923077,798.0000000000001,138.90384615384616C800.375,138.86658653846155,802.75,138.8293269230769,805.1249999999999,138.7920673076923C807.4999999999999,138.75480769230768,809.8749999999999,138.7175480769231,812.2499999999999,138.68028846153848C814.6249999999999,138.64302884615387,816.9999999999999,138.60576923076923,819.3749999999999,138.5685096153846C821.7499999999999,138.53125,824.1249999999999,138.49399038461536,826.4999999999999,138.45673076923075C828.8749999999999,138.41947115384613,831.25,138.38221153846155,833.625,138.34495192307693C836,138.30769230769232,838.375,138.2704326923077,840.75,138.2331730769231C843.125,138.19591346153848,845.5,138.15865384615384,847.875,138.12139423076923C850.25,138.0841346153846,852.625,138.046875,855,138.0096153846154C857.375,137.97235576923077,859.75,137.93509615384616,862.125,137.89783653846155C864.5,137.86057692307693,866.875,137.82331730769232,869.25,137.7860576923077C871.625,137.7487980769231,874,137.71153846153845,876.375,137.67427884615384C878.75,137.63701923076923,881.125,137.5997596153846,883.5,137.5625C885.875,137.5252403846154,888.25,137.48798076923077,890.625,137.45072115384616C893,137.41346153846155,895.375,137.3762019230769,897.75,137.3389423076923C900.125,137.30168269230768,902.5,137.26442307692307,904.875,137.22716346153845C907.25,137.18990384615384,909.625,137.15264423076923,912,137.1153846153846C914.375,137.078125,916.75,137.0408653846154,919.125,137.00360576923077C921.5,136.96634615384616,923.875,136.92908653846152,926.25,136.8918269230769C928.625,136.8545673076923,931,136.8173076923077,933.375,136.7800480769231C935.75,136.74278846153848,938.125,136.70552884615384,940.5,136.66826923076923C942.875,136.6310096153846,945.25,136.59375,947.625,136.5564903846154C950,136.51923076923077,952.3750000000001,136.48197115384616,954.7500000000001,136.44471153846155C957.1250000000001,136.40745192307693,959.5000000000001,136.37019230769232,961.8750000000001,136.3329326923077C964.2500000000001,136.2956730769231,966.6250000000001,136.25841346153845,969.0000000000001,136.22115384615384C971.3750000000001,136.18389423076923,973.7500000000001,136.1466346153846,976.1250000000001,136.109375C978.5,136.0721153846154,980.875,136.03485576923077,983.2499999999999,135.99759615384616C985.6249999999999,135.96033653846155,987.9999999999999,135.9230769230769,990.3749999999999,135.8858173076923C992.7499999999999,135.84855769230768,995.1249999999999,135.81129807692307,997.4999999999999,135.77403846153845C999.8749999999999,135.73677884615384,1002.2499999999999,135.69951923076923,1004.6249999999999,135.6622596153846C1006.9999999999999,135.625,1009.375,135.5877403846154,1011.75,135.55048076923077C1014.125,135.51322115384616,1016.5,135.47596153846152,1018.875,135.4387019230769C1021.25,135.4014423076923,1023.625,135.36418269230768,1026,135.32692307692307C1028.375,135.28966346153845,1030.75,135.25240384615387,1033.125,135.21514423076925C1035.5,135.17788461538464,1037.875,135.140625,1040.25,135.1033653846154C1042.625,135.06610576923077,1045,135.02884615384613,1047.375,134.99158653846152C1049.75,134.9543269230769,1052.125,134.91706730769232,1054.5,134.8798076923077C1056.875,134.8425480769231,1059.25,134.80528846153845,1061.625,134.76802884615384C1064,134.73076923076923,1066.375,134.6935096153846,1068.75,134.65625C1071.125,134.6189903846154,1073.5,134.58173076923077,1075.875,134.54447115384616C1078.25,134.50721153846155,1080.625,134.46995192307693,1083,134.43269230769232C1085.375,134.3954326923077,1087.75,134.35817307692307,1090.125,134.32091346153845C1092.5,134.28365384615384,1094.875,134.24639423076923,1097.25,134.2091346153846C1099.625,134.171875,1102,134.1346153846154,1104.375,134.09735576923077C1106.75,134.06009615384616,1109.125,134.02283653846155,1111.5,133.98557692307693C1113.875,133.94831730769232,1116.25,133.91105769230768,1118.625,133.87379807692307C1121,133.83653846153845,1123.375,133.79927884615384,1125.75,133.76201923076923C1128.125,133.7247596153846,1130.5,133.6875,1132.875,133.6502403846154C1135.25,133.61298076923077,1137.625,133.61298076923077,1140,133.53846153846155C1142.375,133.46394230769232,1144.75,131.55128205128207,1147.125,130.55769230769232C1149.5,129.56410256410257,1151.875,128.57051282051282,1154.25,127.57692307692307C1156.625,126.58333333333331,1159,125.58974358974359,1161.375,124.59615384615385C1163.75,123.60256410256412,1166.125,122.60897435897436,1168.5,121.61538461538461C1170.875,120.62179487179486,1173.25,119.62820512820511,1175.625,118.63461538461537C1178,117.64102564102564,1180.375,116.6474358974359,1182.75,115.65384615384616C1185.125,114.66025641025642,1187.5,113.66666666666669,1189.875,112.67307692307693C1192.25,111.67948717948718,1194.625,110.68589743589743,1197,109.69230769230768C1199.375,108.69871794871793,1201.75,107.7051282051282,1204.125,106.71153846153847C1206.5,105.71794871794873,1208.875,104.72435897435898,1211.25,103.73076923076924C1213.625,102.7371794871795,1216,101.74358974358975,1218.375,100.75C1220.75,99.75641025641025,1223.125,98.7628205128205,1225.5,97.76923076923076C1227.875,96.77564102564102,1230.25,95.78205128205128,1232.625,94.78846153846155C1235,93.79487179487181,1237.375,92.80128205128206,1239.75,91.8076923076923C1242.125,90.81410256410255,1244.5,89.8205128205128,1246.875,88.82692307692307C1249.25,87.83333333333333,1251.625,86.83974358974359,1254,85.84615384615385C1256.375,84.85256410256412,1258.75,83.85897435897436,1261.125,82.86538461538461C1263.5,81.87179487179486,1265.875,80.87820512820511,1268.25,79.88461538461537C1270.625,78.89102564102564,1273,77.8974358974359,1275.375,76.90384615384616C1277.75,75.91025641025642,1280.125,74.91666666666666,1282.5,73.92307692307692C1284.875,72.92948717948718,1287.25,71.93589743589743,1289.625,70.9423076923077C1292,69.94871794871796,1294.375,68.9551282051282,1296.75,67.96153846153847C1299.125,66.96794871794873,1301.5,65.97435897435898,1303.875,64.98076923076923C1306.25,63.98717948717948,1308.625,62.993589743589745,1311,62C1313.375,61.006410256410255,1315.75,60.01282051282051,1318.125,59.01923076923077C1320.5,58.02564102564102,1322.875,57.03205128205129,1325.25,56.03846153846155C1327.625,55.0448717948718,1330,54.05128205128205,1332.375,53.05769230769231C1334.75,52.06410256410256,1337.125,51.07051282051282,1339.5,50.07692307692307C1341.875,49.08333333333333,1344.25,48.0897435897436,1346.625,47.096153846153854C1349,46.10256410256411,1351.375,45.10897435897436,1353.75,44.11538461538461C1356.125,43.12179487179487,1358.5,42.12820512820512,1360.875,41.13461538461537C1363.25,40.14102564102563,1365.625,39.14743589743589,1368,38.15384615384615C1370.375,37.160256410256416,1372.75,36.16666666666668,1375.125,35.173076923076934C1377.5,34.17948717948719,1379.875,33.185897435897445,1382.25,32.1923076923077C1384.625,31.198717948717956,1387,30.205128205128204,1389.375,29.21153846153846C1391.75,28.217948717948715,1394.125,27.224358974358964,1396.5,26.230769230769223C1398.875,25.237179487179482,1401.25,24.243589743589745,1403.625,23.250000000000004C1406,22.256410256410263,1408.375,21.262820512820525,1410.75,20.269230769230784C1413.125,19.275641025641043,1415.5,18.28205128205129,1417.875,17.288461538461547C1420.25,16.294871794871803,1422.625,15.301282051282055,1425,14.307692307692308" fill="transparent" stroke-linecap="round" stroke="#1AD4B3" stroke-width="2"></path><g class="visx-group visx-axis visx-axis-bottom" transform="translate(0, 155)"><g class="visx-group visx-axis-tick" transform="translate(0, 0)"><line class="visx-line" x1="0" y1="0" x2="0" y2="8" fill="transparent" shape-rendering="crispEdges" stroke="#F2F0F9" stroke-width="1" stroke-linecap="square"></line><svg x="0" y="0" font-size="11" style="overflow:visible"><text transform="" x="0" y="19" fill="#1B2030" font-size="11" text-anchor="middle"><tspan x="0" dy="0em">0%</tspan></text></svg></g><g class="visx-group visx-axis-tick" transform="translate(0, 0)"><line class="visx-line" x1="356.25" y1="0" x2="356.25" y2="8" fill="transparent" shape-rendering="crispEdges" stroke="#F2F0F9" stroke-width="1" stroke-linecap="square"></line><svg x="0" y="0" font-size="11" style="overflow:visible"><text transform="" x="356.25" y="19" fill="#1B2030" font-size="11" text-anchor="middle"><tspan x="356.25" dy="0em">25%</tspan></text></svg></g><g class="visx-group visx-axis-tick" transform="translate(0, 0)"><line class="visx-line" x1="712.5" y1="0" x2="712.5" y2="8" fill="transparent" shape-rendering="crispEdges" stroke="#F2F0F9" stroke-width="1" stroke-linecap="square"></line><svg x="0" y="0" font-size="11" style="overflow:visible"><text transform="" x="712.5" y="19" fill="#1B2030" font-size="11" text-anchor="middle"><tspan x="712.5" dy="0em">50%</tspan></text></svg></g><g class="visx-group visx-axis-tick" transform="translate(0, 0)"><line class="visx-line" x1="1068.75" y1="0" x2="1068.75" y2="8" fill="transparent" shape-rendering="crispEdges" stroke="#F2F0F9" stroke-width="1" stroke-linecap="square"></line><svg x="0" y="0" font-size="11" style="overflow:visible"><text transform="" x="1068.75" y="19" fill="#1B2030" font-size="11" text-anchor="middle"><tspan x="1068.75" dy="0em">75%</tspan></text></svg></g><g class="visx-group visx-axis-tick" transform="translate(0, 0)"><line class="visx-line" x1="1425" y1="0" x2="1425" y2="8" fill="transparent" shape-rendering="crispEdges" stroke="#F2F0F9" stroke-width="1" stroke-linecap="square"></line><svg x="0" y="0" font-size="11" style="overflow:visible"><text transform="" x="1425" y="19" fill="#1B2030" font-size="11" text-anchor="middle"><tspan x="1425" dy="0em">100%</tspan></text></svg></g></g><g class="visx-group visx-axis visx-axis-left" transform="translate(0, 0)"><g class="visx-group visx-axis-tick" transform="translate(0, 0)"><line class="visx-line" x1="0" y1="155" x2="-8" y2="155" fill="transparent" shape-rendering="crispEdges" stroke="#F2F0F9" stroke-width="1" stroke-linecap="square"></line><svg x="-30" y="0" font-size="11" style="overflow:visible"><text transform="" x="-8" y="155" fill="#1B2030" font-size="11" text-anchor="start"><tspan x="-8" dy="0em">0%</tspan></text></svg></g><g class="visx-group visx-axis-tick" transform="translate(0, 0)"><line class="visx-line" x1="0" y1="95.38461538461539" x2="-8" y2="95.38461538461539" fill="transparent" shape-rendering="crispEdges" stroke="#F2F0F9" stroke-width="1" stroke-linecap="square"></line><svg x="-30" y="0" font-size="11" style="overflow:visible"><text transform="" x="-8" y="95.38461538461539" fill="#1B2030" font-size="11" text-anchor="start"><tspan x="-8" dy="0em">50%</tspan></text></svg></g><g class="visx-group visx-axis-tick" transform="translate(0, 0)"><line class="visx-line" x1="0" y1="35.76923076923076" x2="-8" y2="35.76923076923076" fill="transparent" shape-rendering="crispEdges" stroke="#F2F0F9" stroke-width="1" stroke-linecap="square"></line><svg x="-30" y="0" font-size="11" style="overflow:visible"><text transform="" x="-8" y="35.76923076923076" fill="#1B2030" font-size="11" text-anchor="start"><tspan x="-8" dy="0em">100%</tspan></text></svg></g><line class="visx-line visx-axis-line" x1="0" y1="155.5" x2="0" y2="0.5" fill="transparent" shape-rendering="crispEdges" stroke="#F2F0F9" stroke-width="1"></line></g><rect class="visx-bar" width="1425" height="155" fill="transparent"></rect><line class="visx-line" x1="1140" y1="58" x2="1140" y2="155" fill="transparent" shape-rendering="crispEdges" stroke="#CDC8E1" stroke-width="1" pointer-events="none" stroke-dasharray="5"></line><svg x="0" y="0" font-size="11px" style="overflow:visible"><text transform="" x="1140" y="50" font-size="11px" fill="#555069" stroke="#FFFFFF" stroke-width="1px" text-anchor="middle"><tspan x="1140" dy="0.355em">Optimal utilization 80%</tspan></text></svg><svg x="0" y="0" font-size="11px" style="overflow:visible"><text transform="" x="1140" y="50" font-size="11px" fill="#CDC8E1" text-anchor="middle"><tspan x="1140" dy="0.355em">Optimal utilization 80%</tspan></text></svg></g></svg>