<?xml version="1.0"?><svg xmlns="http://www.w3.org/2000/svg" xmlns:xlink= "http://www.w3.org/1999/xlink" style="background: white;" width="1500" height="185"> <g style="color: black; font-size: 13px; font-family: sans-serif; transform: translate(18px, 25px);"><g><circle r="3" cx="-6" cy="-5" style="fill: #B6509E" /><text>Borrow APR, variable</text></g><g style="transform: translateX(150px);"><circle r="3" cx="-6" cy="-5" style="fill: rgb(231, 198, 223)" /><text>Borrow APR, stable</text></g><g style="transform: translateX(290px);"><circle r="3" cx="-6" cy="-5" style="fill: rgb(0, 98, 210)" /><text>Utilization Rate</text></g></g><g class="visx-group" transform="translate(40, 50)"><g class="visx-group visx-rows" transform="translate(0, 0)"><line class="visx-line" x1="0" y1="115" x2="1450" y2="115" fill="transparent" shape-rendering="crispEdges" stroke="#000" stroke-width="1" stroke-dasharray="3,3" pointer-events="none"></line><line class="visx-line" x1="0" y1="86.25" x2="1450" y2="86.25" fill="transparent" shape-rendering="crispEdges" stroke="#000" stroke-width="1" stroke-dasharray="3,3" pointer-events="none"></line><line class="visx-line" x1="0" y1="57.5" x2="1450" y2="57.5" fill="transparent" shape-rendering="crispEdges" stroke="#000" stroke-width="1" stroke-dasharray="3,3" pointer-events="none"></line><line class="visx-line" x1="0" y1="28.75" x2="1450" y2="28.75" fill="transparent" shape-rendering="crispEdges" stroke="#000" stroke-width="1" stroke-dasharray="3,3" pointer-events="none"></line><line class="visx-line" x1="0" y1="0" x2="1450" y2="0" fill="transparent" shape-rendering="crispEdges" stroke="#000" stroke-width="1" stroke-dasharray="3,3" pointer-events="none"></line></g><path class="visx-linepath" d="M0,114.13749999993611C2.4166666666666665,114.12685185181458,4.833333333333334,114.11620370369306,7.25,114.10555555555555C9.666666666666666,114.09490740741805,12.083333333333334,114.08425925925926,14.5,114.0736111111111C16.916666666666668,114.06296296296296,19.333333333333332,114.05231481481482,21.75,114.04166666666667C24.166666666666668,114.03101851851852,26.583333333333332,114.02037037037037,29,114.00972222222222C31.416666666666668,113.99907407407407,33.833333333333336,113.98842592592594,36.25,113.97777777777779C38.666666666666664,113.96712962962964,41.083333333333336,113.95648148148149,43.5,113.94583333333334C45.91666666666667,113.93518518518519,48.333333333333336,113.92453703703704,50.75000000000001,113.91388888888889C53.16666666666667,113.90324074074074,55.583333333333336,113.89259259259259,58,113.88194444444444C60.416666666666664,113.8712962962963,62.833333333333336,113.86064814814814,65.25,113.85C67.66666666666667,113.83935185185184,70.08333333333333,113.8287037037037,72.5,113.81805555555555C74.91666666666667,113.8074074074074,77.33333333333333,113.79675925925926,79.75,113.78611111111111C82.16666666666667,113.77546296296296,84.58333333333333,113.76481481481481,87,113.75416666666666C89.41666666666667,113.74351851851851,91.83333333333333,113.73287037037038,94.25,113.72222222222223C96.66666666666667,113.71157407407408,99.08333333333334,113.70092592592593,101.50000000000001,113.69027777777778C103.91666666666667,113.67962962962963,106.33333333333334,113.66898148148148,108.75,113.65833333333333C111.16666666666667,113.64768518518518,113.58333333333333,113.63703703703705,116,113.6263888888889C118.41666666666667,113.61574074074075,120.83333333333334,113.6050925925926,123.25000000000001,113.59444444444445C125.66666666666667,113.5837962962963,128.08333333333334,113.57314814814815,130.5,113.5625C132.91666666666666,113.55185185185185,135.33333333333334,113.5412037037037,137.75,113.53055555555555C140.16666666666666,113.5199074074074,142.58333333333334,113.50925925925925,145,113.4986111111111C147.41666666666666,113.48796296296295,149.83333333333334,113.47731481481482,152.25,113.46666666666667C154.66666666666666,113.45601851851852,157.08333333333334,113.44537037037037,159.5,113.43472222222222C161.91666666666666,113.42407407407407,164.33333333333334,113.41342592592594,166.75,113.40277777777779C169.16666666666666,113.39212962962964,171.58333333333334,113.38148148148149,174,113.37083333333334C176.41666666666666,113.36018518518519,178.83333333333334,113.34953703703704,181.25,113.33888888888889C183.66666666666666,113.32824074074074,186.08333333333334,113.3175925925926,188.5,113.30694444444445C190.91666666666666,113.2962962962963,193.33333333333334,113.28564814814814,195.75,113.27499999999999C198.16666666666669,113.26435185185184,200.58333333333334,113.2537037037037,203.00000000000003,113.24305555555556C205.41666666666669,113.23240740740741,207.83333333333331,113.22175925925926,210.24999999999997,113.21111111111111C212.66666666666666,113.20046296296296,215.08333333333331,113.18981481481481,217.5,113.17916666666666C219.91666666666666,113.16851851851851,222.33333333333334,113.15787037037038,224.75,113.14722222222223C227.16666666666666,113.13657407407408,229.58333333333334,113.12592592592593,232,113.11527777777778C234.41666666666666,113.10462962962963,236.83333333333334,113.09398148148148,239.25,113.08333333333333C241.66666666666669,113.07268518518518,244.08333333333334,113.06203703703704,246.50000000000003,113.0513888888889C248.91666666666669,113.04074074074074,251.33333333333331,113.0300925925926,253.74999999999997,113.01944444444445C256.16666666666663,113.0087962962963,258.5833333333333,112.99814814814816,261,112.98750000000001C263.4166666666667,112.97685185185186,265.8333333333333,112.9662037037037,268.25,112.95555555555555C270.6666666666667,112.9449074074074,273.0833333333333,112.93425925925925,275.5,112.9236111111111C277.9166666666667,112.91296296296295,280.3333333333333,112.90231481481482,282.75,112.89166666666667C285.1666666666667,112.88101851851852,287.5833333333333,112.87037037037037,290,112.85972222222222C292.4166666666667,112.84907407407407,294.8333333333333,112.83842592592593,297.25,112.82777777777778C299.6666666666667,112.81712962962963,302.0833333333333,112.80648148148148,304.5,112.79583333333333C306.9166666666667,112.78518518518518,309.3333333333333,112.77453703703704,311.75,112.76388888888889C314.1666666666667,112.75324074074074,316.5833333333333,112.7425925925926,319,112.73194444444445C321.4166666666667,112.7212962962963,323.8333333333333,112.71064814814815,326.25,112.7C328.6666666666667,112.68935185185185,331.0833333333333,112.6787037037037,333.5,112.66805555555555C335.9166666666667,112.6574074074074,338.3333333333333,112.64675925925926,340.75,112.6361111111111C343.1666666666667,112.62546296296296,345.5833333333333,112.6148148148148,348,112.60416666666666C350.4166666666667,112.59351851851851,352.8333333333333,112.58287037037037,355.25,112.57222222222222C357.6666666666667,112.56157407407407,360.0833333333333,112.55092592592592,362.5,112.54027777777777C364.9166666666667,112.52962962962962,367.3333333333333,112.51898148148148,369.75,112.50833333333333C372.1666666666667,112.49768518518518,374.5833333333333,112.48703703703704,377,112.47638888888889C379.4166666666667,112.46574074074074,381.8333333333333,112.45509259259259,384.25,112.44444444444444C386.6666666666667,112.4337962962963,389.0833333333333,112.42314814814816,391.5,112.41250000000001C393.9166666666667,112.40185185185186,396.33333333333337,112.39120370370371,398.75000000000006,112.38055555555556C401.16666666666674,112.36990740740741,403.58333333333337,112.35925925925926,406.00000000000006,112.34861111111111C408.4166666666667,112.33796296296296,410.8333333333333,112.32731481481481,413.24999999999994,112.31666666666666C415.66666666666663,112.30601851851851,418.08333333333326,112.29537037037036,420.49999999999994,112.28472222222221C422.91666666666663,112.27407407407406,425.3333333333333,112.26342592592593,427.75,112.25277777777778C430.1666666666667,112.24212962962963,432.5833333333333,112.23148148148148,435,112.22083333333333C437.4166666666667,112.21018518518518,439.8333333333333,112.19953703703703,442.25,112.18888888888888C444.6666666666667,112.17824074074073,447.0833333333333,112.1675925925926,449.5,112.15694444444445C451.9166666666667,112.1462962962963,454.3333333333333,112.13564814814815,456.75,112.125C459.1666666666667,112.11435185185185,461.5833333333333,112.10370370370372,464,112.09305555555557C466.4166666666667,112.08240740740742,468.8333333333333,112.07175925925927,471.25,112.06111111111112C473.6666666666667,112.05046296296297,476.0833333333333,112.03981481481482,478.5,112.02916666666667C480.9166666666667,112.01851851851852,483.33333333333337,112.00787037037037,485.75000000000006,111.99722222222222C488.16666666666674,111.98657407407407,490.58333333333337,111.97592592592592,493.00000000000006,111.96527777777777C495.4166666666667,111.95462962962962,497.8333333333333,111.94398148148149,500.24999999999994,111.93333333333334C502.66666666666663,111.92268518518519,505.08333333333326,111.91203703703704,507.49999999999994,111.90138888888889C509.91666666666663,111.89074074074074,512.3333333333333,111.88009259259259,514.75,111.86944444444444C517.1666666666666,111.85879629629629,519.5833333333334,111.84814814814816,522,111.8375C524.4166666666666,111.82685185185186,526.8333333333334,111.8162037037037,529.25,111.80555555555556C531.6666666666666,111.79490740740741,534.0833333333334,111.78425925925927,536.5,111.77361111111112C538.9166666666666,111.76296296296297,541.3333333333334,111.75231481481482,543.75,111.74166666666667C546.1666666666666,111.73101851851852,548.5833333333334,111.72037037037036,551,111.70972222222221C553.4166666666666,111.69907407407406,555.8333333333334,111.68842592592593,558.25,111.67777777777778C560.6666666666666,111.66712962962963,563.0833333333334,111.65648148148148,565.5,111.64583333333333C567.9166666666666,111.63518518518518,570.3333333333334,111.62453703703703,572.75,111.61388888888888C575.1666666666666,111.60324074074073,577.5833333333334,111.5925925925926,580,111.58194444444445C582.4166666666666,111.5712962962963,584.8333333333334,111.56064814814815,587.25,111.55C589.6666666666666,111.53935185185185,592.0833333333334,111.52870370370371,594.5,111.51805555555556C596.9166666666666,111.50740740740741,599.3333333333334,111.49675925925926,601.75,111.48611111111111C604.1666666666666,111.47546296296296,606.5833333333334,111.46481481481482,609,111.45416666666667C611.4166666666666,111.44351851851852,613.8333333333334,111.43287037037038,616.25,111.42222222222223C618.6666666666666,111.41157407407408,621.0833333333334,111.40092592592592,623.5,111.39027777777777C625.9166666666666,111.37962962962962,628.3333333333334,111.36898148148148,630.75,111.35833333333333C633.1666666666666,111.34768518518518,635.5833333333334,111.33703703703704,638,111.32638888888889C640.4166666666666,111.31574074074074,642.8333333333334,111.30509259259259,645.25,111.29444444444444C647.6666666666666,111.28379629629629,650.0833333333334,111.28379629629629,652.5,111.2625C654.9166666666666,111.24120370370372,657.3333333333334,110.73977272727274,659.75,110.4784090909091C662.1666666666666,110.21704545454546,664.5833333333334,109.95568181818182,667,109.69431818181818C669.4166666666666,109.43295454545454,671.8333333333334,109.17159090909091,674.25,108.91022727272727C676.6666666666666,108.64886363636363,679.0833333333334,108.3875,681.5,108.12613636363636C683.9166666666666,107.86477272727272,686.3333333333334,107.60340909090908,688.75,107.34204545454544C691.1666666666666,107.0806818181818,693.5833333333334,106.81931818181818,696,106.55795454545455C698.4166666666666,106.29659090909092,700.8333333333334,106.03522727272728,703.25,105.77386363636364C705.6666666666666,105.5125,708.0833333333334,105.25113636363636,710.5,104.98977272727272C712.9166666666666,104.72840909090908,715.3333333333334,104.46704545454546,717.75,104.20568181818182C720.1666666666666,103.94431818181818,722.5833333333334,103.68295454545455,725,103.42159090909091C727.4166666666666,103.16022727272727,729.8333333333334,102.89886363636363,732.25,102.63749999999999C734.6666666666666,102.37613636363635,737.0833333333334,102.11477272727274,739.5,101.8534090909091C741.9166666666666,101.59204545454546,744.3333333333334,101.33068181818183,746.75,101.06931818181819C749.1666666666666,100.80795454545455,751.5833333333334,100.54659090909091,754,100.28522727272727C756.4166666666666,100.02386363636363,758.8333333333334,99.7625,761.25,99.50113636363636C763.6666666666666,99.23977272727272,766.0833333333334,98.9784090909091,768.5,98.71704545454546C770.9166666666666,98.45568181818182,773.3333333333334,98.19431818181819,775.75,97.93295454545455C778.1666666666666,97.67159090909091,780.5833333333334,97.41022727272727,783,97.14886363636363C785.4166666666667,96.88749999999999,787.8333333333334,96.62613636363638,790.2500000000001,96.36477272727274C792.6666666666667,96.1034090909091,795.0833333333335,95.84204545454546,797.5000000000001,95.58068181818182C799.9166666666667,95.31931818181818,802.3333333333335,95.05795454545455,804.7500000000001,94.79659090909091C807.1666666666667,94.53522727272727,809.5833333333335,94.27386363636364,812.0000000000001,94.0125C814.4166666666667,93.75113636363638,816.8333333333333,93.48977272727274,819.2499999999999,93.2284090909091C821.6666666666665,92.96704545454546,824.0833333333333,92.70568181818182,826.4999999999999,92.44431818181818C828.9166666666665,92.18295454545454,831.3333333333333,91.92159090909092,833.7499999999999,91.66022727272728C836.1666666666665,91.39886363636364,838.5833333333333,91.1375,840.9999999999999,90.87613636363636C843.4166666666666,90.61477272727272,845.8333333333333,90.3534090909091,848.25,90.09204545454546C850.6666666666666,89.83068181818182,853.0833333333334,89.56931818181819,855.5,89.30795454545455C857.9166666666666,89.04659090909091,860.3333333333334,88.78522727272728,862.75,88.52386363636364C865.1666666666666,88.2625,867.5833333333334,88.00113636363636,870,87.73977272727272C872.4166666666666,87.47840909090908,874.8333333333334,87.21704545454546,877.25,86.95568181818182C879.6666666666666,86.69431818181818,882.0833333333334,86.43295454545455,884.5,86.17159090909091C886.9166666666666,85.91022727272727,889.3333333333334,85.64886363636363,891.75,85.38749999999999C894.1666666666666,85.12613636363635,896.5833333333334,84.86477272727271,899,84.60340909090908C901.4166666666666,84.34204545454546,903.8333333333334,84.08068181818183,906.25,83.81931818181819C908.6666666666666,83.55795454545455,911.0833333333334,83.29659090909091,913.5,83.03522727272727C915.9166666666666,82.77386363636363,918.3333333333334,82.51249999999999,920.75,82.25113636363636C923.1666666666666,81.98977272727274,925.5833333333334,81.72840909090911,928,81.46704545454547C930.4166666666666,81.20568181818183,932.8333333333334,80.94431818181819,935.25,80.68295454545455C937.6666666666666,80.42159090909091,940.0833333333334,80.16022727272728,942.5,79.89886363636364C944.9166666666666,79.6375,947.3333333333334,79.37613636363638,949.75,79.11477272727274C952.1666666666666,78.8534090909091,954.5833333333334,78.59204545454546,957,78.33068181818182C959.4166666666666,78.06931818181818,961.8333333333334,77.80795454545455,964.25,77.54659090909091C966.6666666666667,77.28522727272727,969.0833333333334,77.02386363636364,971.5000000000001,76.7625C973.9166666666667,76.50113636363636,976.3333333333335,76.23977272727272,978.7500000000001,75.97840909090908C981.1666666666667,75.71704545454544,983.5833333333335,75.45568181818183,986.0000000000001,75.19431818181819C988.4166666666667,74.93295454545455,990.8333333333335,74.67159090909091,993.2500000000001,74.41022727272727C995.6666666666667,74.14886363636363,998.0833333333333,73.88749999999999,1000.4999999999999,73.62613636363636C1002.9166666666665,73.36477272727272,1005.3333333333333,73.1034090909091,1007.7499999999999,72.84204545454546C1010.1666666666665,72.58068181818182,1012.5833333333333,72.31931818181819,1014.9999999999999,72.05795454545455C1017.4166666666665,71.79659090909091,1019.8333333333333,71.53522727272727,1022.2499999999999,71.27386363636363C1024.6666666666665,71.01249999999999,1027.0833333333333,70.75113636363638,1029.5,70.48977272727274C1031.9166666666667,70.22840909090911,1034.3333333333333,69.96704545454547,1036.75,69.70568181818183C1039.1666666666667,69.44431818181819,1041.5833333333333,69.18295454545455,1044,68.92159090909091C1046.4166666666667,68.66022727272727,1048.8333333333333,68.39886363636364,1051.25,68.1375C1053.6666666666667,67.87613636363636,1056.0833333333333,67.61477272727274,1058.5,67.3534090909091C1060.9166666666667,67.09204545454546,1063.3333333333333,66.83068181818182,1065.75,66.56931818181818C1068.1666666666667,66.30795454545454,1070.5833333333333,66.04659090909091,1073,65.78522727272727C1075.4166666666667,65.52386363636363,1077.8333333333333,65.2625,1080.25,65.00113636363636C1082.6666666666667,64.73977272727272,1085.0833333333333,64.47840909090908,1087.5,64.21704545454544C1089.9166666666667,63.9556818181818,1092.3333333333333,63.69431818181817,1094.75,63.432954545454535C1097.1666666666667,63.1715909090909,1099.5833333333333,62.91022727272726,1102,62.64886363636363C1104.4166666666667,62.387499999999996,1106.8333333333333,62.12613636363637,1109.25,61.86477272727273C1111.6666666666667,61.60340909090909,1114.0833333333333,61.34204545454544,1116.5,61.0806818181818C1118.9166666666667,60.81931818181816,1121.3333333333333,60.55795454545454,1123.75,60.29659090909091C1126.1666666666667,60.035227272727276,1128.5833333333333,59.77386363636364,1131,59.51250000000001C1133.4166666666667,59.25113636363638,1135.8333333333333,58.98977272727274,1138.25,58.728409090909096C1140.6666666666667,58.467045454545456,1143.0833333333333,58.20568181818183,1145.5,57.94431818181819C1147.9166666666667,57.68295454545455,1150.3333333333333,57.42159090909092,1152.75,57.160227272727276C1155.1666666666667,56.898863636363636,1157.5833333333333,56.6375,1160,56.37613636363636C1162.4166666666667,56.11477272727272,1164.8333333333333,55.853409090909096,1167.25,55.592045454545456C1169.6666666666667,55.330681818181816,1172.0833333333333,55.06931818181818,1174.5,54.80795454545454C1176.9166666666667,54.5465909090909,1179.3333333333333,54.28522727272726,1181.75,54.02386363636363C1184.1666666666667,53.762499999999996,1186.5833333333333,53.50113636363637,1189,53.23977272727274C1191.4166666666667,52.9784090909091,1193.8333333333333,52.71704545454546,1196.25,52.45568181818182C1198.6666666666667,52.19431818181818,1201.0833333333333,51.93295454545455,1203.5,51.67159090909091C1205.9166666666667,51.41022727272727,1208.3333333333333,51.14886363636364,1210.75,50.8875C1213.1666666666667,50.62613636363636,1215.5833333333333,50.36477272727273,1218,50.10340909090909C1220.4166666666667,49.84204545454545,1222.8333333333333,49.580681818181816,1225.25,49.319318181818176C1227.6666666666667,49.057954545454535,1230.0833333333333,48.7965909090909,1232.5,48.53522727272727C1234.9166666666667,48.273863636363636,1237.3333333333333,48.0125,1239.75,47.75113636363637C1242.1666666666667,47.48977272727274,1244.5833333333333,47.228409090909096,1247,46.967045454545456C1249.4166666666667,46.705681818181816,1251.8333333333333,46.44431818181819,1254.25,46.18295454545455C1256.6666666666667,45.92159090909091,1259.0833333333333,45.660227272727276,1261.5,45.398863636363636C1263.9166666666667,45.137499999999996,1266.3333333333333,44.87613636363636,1268.75,44.61477272727272C1271.1666666666667,44.35340909090908,1273.5833333333333,44.092045454545456,1276,43.830681818181816C1278.4166666666667,43.569318181818176,1280.8333333333333,43.307954545454535,1283.25,43.0465909090909C1285.6666666666667,42.78522727272727,1288.0833333333333,42.523863636363636,1290.5,42.2625C1292.9166666666667,42.00113636363637,1295.3333333333333,41.73977272727274,1297.75,41.478409090909096C1300.1666666666667,41.217045454545456,1302.5833333333333,40.955681818181816,1305,40.69431818181818C1307.4166666666667,40.43295454545455,1309.8333333333333,40.17159090909091,1312.25,39.910227272727276C1314.6666666666667,39.64886363636364,1317.0833333333333,39.387499999999996,1319.5,39.12613636363636C1321.9166666666667,38.86477272727273,1324.3333333333333,38.603409090909096,1326.75,38.34204545454546C1329.1666666666667,38.08068181818183,1331.5833333333333,37.819318181818176,1334,37.55795454545454C1336.4166666666667,37.29659090909091,1338.8333333333333,37.035227272727276,1341.25,36.77386363636364C1343.6666666666667,36.51250000000001,1346.0833333333333,36.25113636363636,1348.5,35.98977272727273C1350.9166666666667,35.728409090909096,1353.3333333333333,35.467045454545456,1355.75,35.20568181818182C1358.1666666666667,34.94431818181819,1360.5833333333333,34.68295454545455,1363,34.42159090909091C1365.4166666666667,34.16022727272727,1367.8333333333333,33.89886363636363,1370.25,33.637499999999996C1372.6666666666667,33.37613636363636,1375.0833333333333,33.11477272727272,1377.5,32.85340909090909C1379.9166666666667,32.592045454545456,1382.3333333333333,32.330681818181816,1384.75,32.069318181818176C1387.1666666666667,31.80795454545454,1389.5833333333333,31.546590909090902,1392,31.285227272727266C1394.4166666666667,31.02386363636363,1396.8333333333333,30.762500000000003,1399.25,30.501136363636366C1401.6666666666667,30.23977272727273,1404.0833333333333,29.978409090909093,1406.5,29.717045454545456C1408.9166666666667,29.45568181818182,1411.3333333333333,29.194318181818186,1413.75,28.932954545454546C1416.1666666666667,28.671590909090906,1418.5833333333333,28.41022727272726,1421,28.14886363636362C1423.4166666666667,27.887499999999985,1425.8333333333333,27.626136363636355,1428.25,27.364772727272722C1430.6666666666667,27.10340909090909,1433.0833333333333,26.84204545454545,1435.5,26.580681818181812C1437.9166666666667,26.319318181818176,1440.3333333333333,26.05795454545455,1442.75,25.796590909090913C1445.1666666666667,25.535227272727276,1447.5833333333333,25.27386363636364,1450,25.012500000000003" fill="transparent" stroke-linecap="round" stroke="#B6509E" stroke-width="2"></path><path class="visx-linepath" d="M0,112.12499999993611C2.4166666666666665,112.11435185181459,4.833333333333334,112.10370370369307,7.25,112.09305555555557C9.666666666666666,112.08240740741806,12.083333333333334,112.07175925925927,14.5,112.06111111111112C16.916666666666668,112.05046296296297,19.333333333333332,112.03981481481482,21.75,112.02916666666667C24.166666666666668,112.01851851851852,26.583333333333332,112.00787037037037,29,111.99722222222222C31.416666666666668,111.98657407407407,33.833333333333336,111.97592592592592,36.25,111.96527777777777C38.666666666666664,111.95462962962962,41.083333333333336,111.94398148148149,43.5,111.93333333333334C45.91666666666667,111.92268518518519,48.333333333333336,111.91203703703704,50.75000000000001,111.90138888888889C53.16666666666667,111.89074074074074,55.583333333333336,111.88009259259259,58,111.86944444444444C60.416666666666664,111.85879629629629,62.833333333333336,111.84814814814816,65.25,111.8375C67.66666666666667,111.82685185185186,70.08333333333333,111.8162037037037,72.5,111.80555555555556C74.91666666666667,111.79490740740741,77.33333333333333,111.78425925925927,79.75,111.77361111111112C82.16666666666667,111.76296296296297,84.58333333333333,111.75231481481482,87,111.74166666666667C89.41666666666667,111.73101851851852,91.83333333333333,111.72037037037036,94.25,111.70972222222221C96.66666666666667,111.69907407407406,99.08333333333334,111.68842592592593,101.50000000000001,111.67777777777778C103.91666666666667,111.66712962962963,106.33333333333334,111.65648148148148,108.75,111.64583333333333C111.16666666666667,111.63518518518518,113.58333333333333,111.62453703703703,116,111.61388888888888C118.41666666666667,111.60324074074073,120.83333333333334,111.5925925925926,123.25000000000001,111.58194444444445C125.66666666666667,111.5712962962963,128.08333333333334,111.56064814814815,130.5,111.55C132.91666666666666,111.53935185185185,135.33333333333334,111.52870370370371,137.75,111.51805555555556C140.16666666666666,111.50740740740741,142.58333333333334,111.49675925925926,145,111.48611111111111C147.41666666666666,111.47546296296296,149.83333333333334,111.46481481481482,152.25,111.45416666666667C154.66666666666666,111.44351851851852,157.08333333333334,111.43287037037038,159.5,111.42222222222223C161.91666666666666,111.41157407407408,164.33333333333334,111.40092592592592,166.75,111.39027777777777C169.16666666666666,111.37962962962962,171.58333333333334,111.36898148148148,174,111.35833333333333C176.41666666666666,111.34768518518518,178.83333333333334,111.33703703703704,181.25,111.32638888888889C183.66666666666666,111.31574074074074,186.08333333333334,111.30509259259259,188.5,111.29444444444444C190.91666666666666,111.28379629629629,193.33333333333334,111.27314814814815,195.75,111.2625C198.16666666666669,111.25185185185185,200.58333333333334,111.2412037037037,203.00000000000003,111.23055555555555C205.41666666666669,111.2199074074074,207.83333333333331,111.20925925925927,210.24999999999997,111.19861111111112C212.66666666666666,111.18796296296297,215.08333333333331,111.17731481481482,217.5,111.16666666666667C219.91666666666666,111.15601851851852,222.33333333333334,111.14537037037037,224.75,111.13472222222222C227.16666666666666,111.12407407407407,229.58333333333334,111.11342592592594,232,111.10277777777779C234.41666666666666,111.09212962962964,236.83333333333334,111.08148148148148,239.25,111.07083333333333C241.66666666666669,111.06018518518518,244.08333333333334,111.04953703703703,246.50000000000003,111.03888888888888C248.91666666666669,111.02824074074073,251.33333333333331,111.01759259259259,253.74999999999997,111.00694444444444C256.16666666666663,110.9962962962963,258.5833333333333,110.98564814814814,261,110.975C263.4166666666667,110.96435185185184,265.8333333333333,110.95370370370371,268.25,110.94305555555556C270.6666666666667,110.93240740740741,273.0833333333333,110.92175925925926,275.5,110.91111111111111C277.9166666666667,110.90046296296296,280.3333333333333,110.88981481481481,282.75,110.87916666666666C285.1666666666667,110.86851851851851,287.5833333333333,110.85787037037038,290,110.84722222222223C292.4166666666667,110.83657407407408,294.8333333333333,110.82592592592593,297.25,110.81527777777778C299.6666666666667,110.80462962962963,302.0833333333333,110.79398148148148,304.5,110.78333333333333C306.9166666666667,110.77268518518518,309.3333333333333,110.76203703703703,311.75,110.75138888888888C314.1666666666667,110.74074074074073,316.5833333333333,110.73009259259258,319,110.71944444444443C321.4166666666667,110.70879629629628,323.8333333333333,110.69814814814815,326.25,110.6875C328.6666666666667,110.67685185185185,331.0833333333333,110.6662037037037,333.5,110.65555555555555C335.9166666666667,110.6449074074074,338.3333333333333,110.63425925925927,340.75,110.62361111111112C343.1666666666667,110.61296296296297,345.5833333333333,110.60231481481482,348,110.59166666666667C350.4166666666667,110.58101851851852,352.8333333333333,110.57037037037037,355.25,110.55972222222222C357.6666666666667,110.54907407407407,360.0833333333333,110.53842592592594,362.5,110.52777777777779C364.9166666666667,110.51712962962964,367.3333333333333,110.50648148148149,369.75,110.49583333333334C372.1666666666667,110.48518518518519,374.5833333333333,110.47453703703704,377,110.46388888888889C379.4166666666667,110.45324074074074,381.8333333333333,110.44259259259259,384.25,110.43194444444444C386.6666666666667,110.42129629629629,389.0833333333333,110.41064814814814,391.5,110.39999999999999C393.9166666666667,110.38935185185184,396.33333333333337,110.3787037037037,398.75000000000006,110.36805555555556C401.16666666666674,110.35740740740741,403.58333333333337,110.34675925925926,406.00000000000006,110.33611111111111C408.4166666666667,110.32546296296296,410.8333333333333,110.31481481481482,413.24999999999994,110.30416666666667C415.66666666666663,110.29351851851852,418.08333333333326,110.28287037037038,420.49999999999994,110.27222222222223C422.91666666666663,110.26157407407408,425.3333333333333,110.25092592592593,427.75,110.24027777777778C430.1666666666667,110.22962962962963,432.5833333333333,110.21898148148149,435,110.20833333333334C437.4166666666667,110.1976851851852,439.8333333333333,110.18703703703704,442.25,110.1763888888889C444.6666666666667,110.16574074074074,447.0833333333333,110.1550925925926,449.5,110.14444444444445C451.9166666666667,110.1337962962963,454.3333333333333,110.12314814814815,456.75,110.1125C459.1666666666667,110.10185185185185,461.5833333333333,110.0912037037037,464,110.08055555555555C466.4166666666667,110.0699074074074,468.8333333333333,110.05925925925926,471.25,110.04861111111111C473.6666666666667,110.03796296296296,476.0833333333333,110.02731481481482,478.5,110.01666666666667C480.9166666666667,110.00601851851852,483.33333333333337,109.99537037037037,485.75000000000006,109.98472222222222C488.16666666666674,109.97407407407407,490.58333333333337,109.96342592592593,493.00000000000006,109.95277777777778C495.4166666666667,109.94212962962963,497.8333333333333,109.93148148148148,500.24999999999994,109.92083333333333C502.66666666666663,109.91018518518518,505.08333333333326,109.89953703703705,507.49999999999994,109.8888888888889C509.91666666666663,109.87824074074075,512.3333333333333,109.8675925925926,514.75,109.85694444444445C517.1666666666666,109.8462962962963,519.5833333333334,109.83564814814814,522,109.82499999999999C524.4166666666666,109.81435185185184,526.8333333333334,109.8037037037037,529.25,109.79305555555555C531.6666666666666,109.7824074074074,534.0833333333334,109.77175925925926,536.5,109.7611111111111C538.9166666666666,109.75046296296296,541.3333333333334,109.73981481481482,543.75,109.72916666666667C546.1666666666666,109.71851851851852,548.5833333333334,109.70787037037037,551,109.69722222222222C553.4166666666666,109.68657407407407,555.8333333333334,109.67592592592592,558.25,109.66527777777777C560.6666666666666,109.65462962962962,563.0833333333334,109.64398148148149,565.5,109.63333333333334C567.9166666666666,109.62268518518519,570.3333333333334,109.61203703703704,572.75,109.60138888888889C575.1666666666666,109.59074074074074,577.5833333333334,109.58009259259259,580,109.56944444444444C582.4166666666666,109.5587962962963,584.8333333333334,109.54814814814816,587.25,109.53750000000001C589.6666666666666,109.52685185185186,592.0833333333334,109.5162037037037,594.5,109.50555555555555C596.9166666666666,109.4949074074074,599.3333333333334,109.48425925925926,601.75,109.47361111111111C604.1666666666666,109.46296296296296,606.5833333333334,109.45231481481481,609,109.44166666666666C611.4166666666666,109.43101851851851,613.8333333333334,109.42037037037036,616.25,109.40972222222221C618.6666666666666,109.39907407407406,621.0833333333334,109.38842592592593,623.5,109.37777777777778C625.9166666666666,109.36712962962963,628.3333333333334,109.35648148148148,630.75,109.34583333333333C633.1666666666666,109.33518518518518,635.5833333333334,109.32453703703705,638,109.3138888888889C640.4166666666666,109.30324074074075,642.8333333333334,109.2925925925926,645.25,109.28194444444445C647.6666666666666,109.2712962962963,650.0833333333334,109.2712962962963,652.5,109.25C654.9166666666666,109.2287037037037,657.3333333333334,108.72727272727273,659.75,108.4659090909091C662.1666666666666,108.20454545454545,664.5833333333334,107.94318181818183,667,107.68181818181819C669.4166666666666,107.42045454545455,671.8333333333334,107.15909090909092,674.25,106.89772727272728C676.6666666666666,106.63636363636364,679.0833333333334,106.375,681.5,106.11363636363636C683.9166666666666,105.85227272727272,686.3333333333334,105.5909090909091,688.75,105.32954545454545C691.1666666666666,105.06818181818181,693.5833333333334,104.80681818181819,696,104.54545454545455C698.4166666666666,104.2840909090909,700.8333333333334,104.02272727272727,703.25,103.76136363636363C705.6666666666666,103.49999999999999,708.0833333333334,103.23863636363637,710.5,102.97727272727273C712.9166666666666,102.7159090909091,715.3333333333334,102.45454545454547,717.75,102.19318181818183C720.1666666666666,101.93181818181819,722.5833333333334,101.67045454545455,725,101.4090909090909C727.4166666666666,101.14772727272727,729.8333333333334,100.88636363636364,732.25,100.625C734.6666666666666,100.36363636363636,737.0833333333334,100.10227272727273,739.5,99.8409090909091C741.9166666666666,99.57954545454545,744.3333333333334,99.31818181818181,746.75,99.05681818181817C749.1666666666666,98.79545454545453,751.5833333333334,98.5340909090909,754,98.27272727272727C756.4166666666666,98.01136363636363,758.8333333333334,97.75,761.25,97.48863636363636C763.6666666666666,97.22727272727272,766.0833333333334,96.9659090909091,768.5,96.70454545454545C770.9166666666666,96.44318181818181,773.3333333333334,96.18181818181819,775.75,95.92045454545455C778.1666666666666,95.6590909090909,780.5833333333334,95.39772727272728,783,95.13636363636364C785.4166666666667,94.875,787.8333333333334,94.61363636363636,790.2500000000001,94.35227272727272C792.6666666666667,94.09090909090908,795.0833333333335,93.82954545454544,797.5000000000001,93.56818181818181C799.9166666666667,93.30681818181819,802.3333333333335,93.04545454545456,804.7500000000001,92.78409090909092C807.1666666666667,92.52272727272728,809.5833333333335,92.26136363636364,812.0000000000001,92C814.4166666666667,91.73863636363636,816.8333333333333,91.47727272727272,819.2499999999999,91.2159090909091C821.6666666666665,90.95454545454545,824.0833333333333,90.69318181818183,826.4999999999999,90.43181818181819C828.9166666666665,90.17045454545455,831.3333333333333,89.9090909090909,833.7499999999999,89.64772727272727C836.1666666666665,89.38636363636363,838.5833333333333,89.125,840.9999999999999,88.86363636363636C843.4166666666666,88.60227272727272,845.8333333333333,88.3409090909091,848.25,88.07954545454545C850.6666666666666,87.81818181818181,853.0833333333334,87.55681818181817,855.5,87.29545454545453C857.9166666666666,87.03409090909089,860.3333333333334,86.77272727272725,862.75,86.51136363636363C865.1666666666666,86.25,867.5833333333334,85.98863636363637,870,85.72727272727273C872.4166666666666,85.4659090909091,874.8333333333334,85.20454545454545,877.25,84.94318181818181C879.6666666666666,84.68181818181817,882.0833333333334,84.42045454545455,884.5,84.1590909090909C886.9166666666666,83.89772727272727,889.3333333333334,83.63636363636364,891.75,83.375C894.1666666666666,83.11363636363636,896.5833333333334,82.85227272727273,899,82.5909090909091C901.4166666666666,82.32954545454545,903.8333333333334,82.06818181818183,906.25,81.80681818181819C908.6666666666666,81.54545454545455,911.0833333333334,81.28409090909092,913.5,81.02272727272728C915.9166666666666,80.76136363636364,918.3333333333334,80.5,920.75,80.23863636363636C923.1666666666666,79.97727272727272,925.5833333333334,79.7159090909091,928,79.45454545454545C930.4166666666666,79.19318181818181,932.8333333333334,78.93181818181819,935.25,78.67045454545455C937.6666666666666,78.4090909090909,940.0833333333334,78.14772727272728,942.5,77.88636363636364C944.9166666666666,77.625,947.3333333333334,77.36363636363636,949.75,77.10227272727272C952.1666666666666,76.84090909090908,954.5833333333334,76.57954545454547,957,76.31818181818183C959.4166666666666,76.05681818181819,961.8333333333334,75.79545454545455,964.25,75.5340909090909C966.6666666666667,75.27272727272727,969.0833333333334,75.01136363636364,971.5000000000001,74.75C973.9166666666667,74.48863636363636,976.3333333333335,74.22727272727273,978.7500000000001,73.9659090909091C981.1666666666667,73.70454545454545,983.5833333333335,73.44318181818183,986.0000000000001,73.18181818181819C988.4166666666667,72.92045454545455,990.8333333333335,72.6590909090909,993.2500000000001,72.39772727272727C995.6666666666667,72.13636363636364,998.0833333333333,71.875,1000.4999999999999,71.61363636363637C1002.9166666666665,71.35227272727273,1005.3333333333333,71.09090909090911,1007.7499999999999,70.82954545454547C1010.1666666666665,70.56818181818183,1012.5833333333333,70.30681818181819,1014.9999999999999,70.04545454545455C1017.4166666666665,69.7840909090909,1019.8333333333333,69.52272727272728,1022.2499999999999,69.26136363636364C1024.6666666666665,69,1027.0833333333333,68.73863636363637,1029.5,68.47727272727273C1031.9166666666667,68.2159090909091,1034.3333333333333,67.95454545454545,1036.75,67.69318181818181C1039.1666666666667,67.43181818181817,1041.5833333333333,67.17045454545455,1044,66.9090909090909C1046.4166666666667,66.64772727272727,1048.8333333333333,66.38636363636364,1051.25,66.125C1053.6666666666667,65.86363636363636,1056.0833333333333,65.60227272727272,1058.5,65.34090909090908C1060.9166666666667,65.07954545454544,1063.3333333333333,64.81818181818181,1065.75,64.55681818181817C1068.1666666666667,64.29545454545453,1070.5833333333333,64.03409090909089,1073,63.77272727272726C1075.4166666666667,63.511363636363626,1077.8333333333333,63.25,1080.25,62.98863636363637C1082.6666666666667,62.727272727272734,1085.0833333333333,62.46590909090907,1087.5,62.20454545454544C1089.9166666666667,61.943181818181806,1092.3333333333333,61.68181818181819,1094.75,61.420454545454554C1097.1666666666667,61.15909090909092,1099.5833333333333,60.89772727272728,1102,60.63636363636364C1104.4166666666667,60.375,1106.8333333333333,60.113636363636374,1109.25,59.852272727272734C1111.6666666666667,59.59090909090909,1114.0833333333333,59.32954545454545,1116.5,59.06818181818182C1118.9166666666667,58.80681818181819,1121.3333333333333,58.54545454545455,1123.75,58.284090909090914C1126.1666666666667,58.02272727272728,1128.5833333333333,57.76136363636364,1131,57.5C1133.4166666666667,57.23863636363636,1135.8333333333333,56.97727272727272,1138.25,56.715909090909086C1140.6666666666667,56.45454545454545,1143.0833333333333,56.19318181818181,1145.5,55.93181818181818C1147.9166666666667,55.67045454545455,1150.3333333333333,55.4090909090909,1152.75,55.147727272727266C1155.1666666666667,54.88636363636363,1157.5833333333333,54.625,1160,54.36363636363637C1162.4166666666667,54.102272727272734,1164.8333333333333,53.84090909090909,1167.25,53.57954545454546C1169.6666666666667,53.31818181818183,1172.0833333333333,53.05681818181819,1174.5,52.79545454545455C1176.9166666666667,52.53409090909091,1179.3333333333333,52.272727272727266,1181.75,52.01136363636363C1184.1666666666667,51.75,1186.5833333333333,51.48863636363636,1189,51.22727272727273C1191.4166666666667,50.96590909090909,1193.8333333333333,50.70454545454545,1196.25,50.44318181818181C1198.6666666666667,50.18181818181817,1201.0833333333333,49.92045454545454,1203.5,49.65909090909091C1205.9166666666667,49.39772727272727,1208.3333333333333,49.13636363636364,1210.75,48.87500000000001C1213.1666666666667,48.613636363636374,1215.5833333333333,48.352272727272734,1218,48.09090909090909C1220.4166666666667,47.82954545454545,1222.8333333333333,47.56818181818181,1225.25,47.30681818181818C1227.6666666666667,47.04545454545455,1230.0833333333333,46.78409090909091,1232.5,46.52272727272727C1234.9166666666667,46.26136363636364,1237.3333333333333,46,1239.75,45.73863636363636C1242.1666666666667,45.47727272727272,1244.5833333333333,45.21590909090909,1247,44.95454545454545C1249.4166666666667,44.69318181818181,1251.8333333333333,44.43181818181817,1254.25,44.17045454545454C1256.6666666666667,43.90909090909091,1259.0833333333333,43.64772727272727,1261.5,43.38636363636364C1263.9166666666667,43.12500000000001,1266.3333333333333,42.863636363636374,1268.75,42.602272727272734C1271.1666666666667,42.34090909090909,1273.5833333333333,42.07954545454545,1276,41.81818181818182C1278.4166666666667,41.55681818181819,1280.8333333333333,41.29545454545456,1283.25,41.03409090909092C1285.6666666666667,40.77272727272728,1288.0833333333333,40.51136363636364,1290.5,40.25C1292.9166666666667,39.98863636363636,1295.3333333333333,39.72727272727273,1297.75,39.465909090909086C1300.1666666666667,39.204545454545446,1302.5833333333333,38.943181818181806,1305,38.68181818181817C1307.4166666666667,38.42045454545454,1309.8333333333333,38.159090909090914,1312.25,37.89772727272728C1314.6666666666667,37.63636363636365,1317.0833333333333,37.37500000000001,1319.5,37.11363636363637C1321.9166666666667,36.85227272727273,1324.3333333333333,36.59090909090909,1326.75,36.32954545454545C1329.1666666666667,36.06818181818181,1331.5833333333333,35.80681818181819,1334,35.54545454545455C1336.4166666666667,35.28409090909091,1338.8333333333333,35.02272727272727,1341.25,34.76136363636363C1343.6666666666667,34.49999999999999,1346.0833333333333,34.23863636363635,1348.5,33.97727272727272C1350.9166666666667,33.715909090909086,1353.3333333333333,33.45454545454546,1355.75,33.19318181818183C1358.1666666666667,32.931818181818194,1360.5833333333333,32.670454545454554,1363,32.409090909090914C1365.4166666666667,32.14772727272727,1367.8333333333333,31.886363636363644,1370.25,31.625000000000004C1372.6666666666667,31.363636363636363,1375.0833333333333,31.102272727272716,1377.5,30.84090909090908C1379.9166666666667,30.579545454545443,1382.3333333333333,30.318181818181813,1384.75,30.05681818181818C1387.1666666666667,29.795454545454547,1389.5833333333333,29.534090909090907,1392,29.27272727272727C1394.4166666666667,29.011363636363633,1396.8333333333333,28.749999999999993,1399.25,28.48863636363636C1401.6666666666667,28.227272727272727,1404.0833333333333,27.965909090909097,1406.5,27.70454545454546C1408.9166666666667,27.443181818181824,1411.3333333333333,27.181818181818173,1413.75,26.920454545454536C1416.1666666666667,26.6590909090909,1418.5833333333333,26.397727272727273,1421,26.13636363636364C1423.4166666666667,25.875000000000007,1425.8333333333333,25.613636363636363,1428.25,25.352272727272727C1430.6666666666667,25.09090909090909,1433.0833333333333,24.829545454545457,1435.5,24.568181818181817C1437.9166666666667,24.306818181818176,1440.3333333333333,24.04545454545453,1442.75,23.784090909090892C1445.1666666666667,23.522727272727256,1447.5833333333333,23.261363636363626,1450,22.999999999999996" fill="transparent" stroke-linecap="round" stroke="#E7C6DF" stroke-width="2"></path><g class="visx-group visx-axis visx-axis-bottom" transform="translate(0, 115)"><g class="visx-group visx-axis-tick" transform="translate(0, 0)"><line class="visx-line" x1="0" y1="0" x2="0" y2="8" fill="transparent" shape-rendering="crispEdges" stroke="#000" stroke-width="0" stroke-linecap="square"></line><svg x="0" y="0" font-size="10" style="overflow:visible"><text transform="" x="0" y="18" fill="#000" font-size="10" text-anchor="middle"><tspan x="0" dy="0em">0%</tspan></text></svg></g><g class="visx-group visx-axis-tick" transform="translate(0, 0)"><line class="visx-line" x1="362.5" y1="0" x2="362.5" y2="8" fill="transparent" shape-rendering="crispEdges" stroke="#000" stroke-width="0" stroke-linecap="square"></line><svg x="0" y="0" font-size="10" style="overflow:visible"><text transform="" x="362.5" y="18" fill="#000" font-size="10" text-anchor="middle"><tspan x="362.5" dy="0em">25%</tspan></text></svg></g><g class="visx-group visx-axis-tick" transform="translate(0, 0)"><line class="visx-line" x1="725" y1="0" x2="725" y2="8" fill="transparent" shape-rendering="crispEdges" stroke="#000" stroke-width="0" stroke-linecap="square"></line><svg x="0" y="0" font-size="10" style="overflow:visible"><text transform="" x="725" y="18" fill="#000" font-size="10" text-anchor="middle"><tspan x="725" dy="0em">50%</tspan></text></svg></g><g class="visx-group visx-axis-tick" transform="translate(0, 0)"><line class="visx-line" x1="1087.5" y1="0" x2="1087.5" y2="8" fill="transparent" shape-rendering="crispEdges" stroke="#000" stroke-width="0" stroke-linecap="square"></line><svg x="0" y="0" font-size="10" style="overflow:visible"><text transform="" x="1087.5" y="18" fill="#000" font-size="10" text-anchor="middle"><tspan x="1087.5" dy="0em">75%</tspan></text></svg></g><g class="visx-group visx-axis-tick" transform="translate(0, 0)"><line class="visx-line" x1="1450" y1="0" x2="1450" y2="8" fill="transparent" shape-rendering="crispEdges" stroke="#000" stroke-width="0" stroke-linecap="square"></line><svg x="0" y="0" font-size="10" style="overflow:visible"><text transform="" x="1450" y="18" fill="#000" font-size="10" text-anchor="middle"><tspan x="1450" dy="0em">100%</tspan></text></svg></g><line class="visx-line visx-axis-line" x1="0.5" y1="0" x2="1450.5" y2="0" fill="transparent" shape-rendering="crispEdges" stroke="#222" stroke-width="0"></line></g><g class="visx-group visx-axis visx-axis-left" transform="translate(0, 0)"><g class="visx-group visx-axis-tick" transform="translate(0, 0)"><line class="visx-line" x1="0" y1="115" x2="-8" y2="115" fill="transparent" shape-rendering="crispEdges" stroke="#222" stroke-width="0" stroke-linecap="square"></line><svg x="-30" y="0" font-size="8" style="overflow:visible"><text transform="" x="-8" y="115" fill="#000" font-size="8" text-anchor="start"><tspan x="-8" dy="0em">0%</tspan></text></svg></g><g class="visx-group visx-axis-tick" transform="translate(0, 0)"><line class="visx-line" x1="0" y1="57.5" x2="-8" y2="57.5" fill="transparent" shape-rendering="crispEdges" stroke="#222" stroke-width="0" stroke-linecap="square"></line><svg x="-30" y="0" font-size="8" style="overflow:visible"><text transform="" x="-8" y="57.5" fill="#000" font-size="8" text-anchor="start"><tspan x="-8" dy="0em">200%</tspan></text></svg></g><g class="visx-group visx-axis-tick" transform="translate(0, 0)"><line class="visx-line" x1="0" y1="0" x2="-8" y2="0" fill="transparent" shape-rendering="crispEdges" stroke="#222" stroke-width="0" stroke-linecap="square"></line><svg x="-30" y="0" font-size="8" style="overflow:visible"><text transform="" x="-8" y="0" fill="#000" font-size="8" text-anchor="start"><tspan x="-8" dy="0em">400%</tspan></text></svg></g><line class="visx-line visx-axis-line" x1="0" y1="115.5" x2="0" y2="0.5" fill="transparent" shape-rendering="crispEdges" stroke="#222" stroke-width="0"></line></g><rect class="visx-bar" width="1450" height="115" fill="transparent"></rect><line class="visx-line" x1="652.5" y1="28" x2="652.5" y2="115" fill="transparent" shape-rendering="crispEdges" stroke="#0062D2" stroke-width="1" pointer-events="none" stroke-dasharray="5,2"></line><svg x="0" y="0" font-size="10px" style="overflow:visible"><text transform="" x="652.5" y="20" font-size="10px" fill="#fff" stroke="#fff" stroke-width="0.8em" text-anchor="middle"><tspan x="652.5" dy="0.355em">Optimal 45%</tspan></text></svg><svg x="0" y="0" font-size="10px" style="overflow:visible"><text transform="" x="652.5" y="20" font-size="10px" fill="#62677B" text-anchor="middle"><tspan x="652.5" dy="0.355em">Optimal 45%</tspan></text></svg></g></svg>