<?xml version="1.0"?><svg xmlns="http://www.w3.org/2000/svg" xmlns:xlink= "http://www.w3.org/1999/xlink" style="background: white;" width="1500" height="300"> <g style="color: black; font-size: 13px; font-family: sans-serif; transform: translate(18px, 25px);"><g><circle r="3" cx="-6" cy="-5" style="fill: #1AD4B3" /><text>Borrow APR, variable</text></g><g style="transform: translateX(150px);"><circle r="3" cx="-6" cy="-5" style="fill: #101423" /><text>Borrow APR, stable</text></g></g><g class="visx-group" transform="translate(45, 50)"><g class="visx-group visx-rows" transform="translate(0, 0)"><line class="visx-line" x1="0" y1="155" x2="1425" y2="155" fill="transparent" shape-rendering="crispEdges" stroke="#F2F0F9" stroke-width="1" pointer-events="none"></line><line class="visx-line" x1="0" y1="110.71428571428572" x2="1425" y2="110.71428571428572" fill="transparent" shape-rendering="crispEdges" stroke="#F2F0F9" stroke-width="1" pointer-events="none"></line><line class="visx-line" x1="0" y1="66.42857142857143" x2="1425" y2="66.42857142857143" fill="transparent" shape-rendering="crispEdges" stroke="#F2F0F9" stroke-width="1" pointer-events="none"></line><line class="visx-line" x1="0" y1="22.14285714285715" x2="1425" y2="22.14285714285715" fill="transparent" shape-rendering="crispEdges" stroke="#F2F0F9" stroke-width="1" pointer-events="none"></line></g><path class="visx-linepath" d="M0,154.9999999999311C2.375,154.98851851847832,4.75,154.97703703702553,7.125,154.96555555555554C9.5,154.95407407408555,11.875,154.94259259259258,14.25,154.9311111111111C16.625,154.91962962962964,19,154.90814814814814,21.375,154.89666666666665C23.75,154.88518518518515,26.125,154.87370370370368,28.5,154.86222222222221C30.875,154.85074074074075,33.25,154.83925925925925,35.625,154.82777777777778C38,154.81629629629631,40.375,154.80481481481482,42.75,154.79333333333335C45.125,154.78185185185185,47.50000000000001,154.7703703703704,49.87500000000001,154.7588888888889C52.25000000000001,154.74740740740742,54.625,154.73592592592593,57,154.72444444444446C59.375,154.71296296296296,61.75,154.7014814814815,64.125,154.69C66.5,154.6785185185185,68.875,154.66703703703706,71.25,154.65555555555557C73.625,154.64407407407407,76,154.63259259259257,78.375,154.6211111111111C80.75,154.60962962962964,83.125,154.59814814814814,85.5,154.58666666666667C87.875,154.5751851851852,90.25,154.56370370370368,92.625,154.5522222222222C95,154.54074074074072,97.37500000000001,154.52925925925925,99.75000000000001,154.51777777777778C102.12500000000001,154.5062962962963,104.5,154.49481481481482,106.875,154.48333333333335C109.25,154.47185185185185,111.625,154.46037037037036,114,154.4488888888889C116.375,154.4374074074074,118.75000000000001,154.42592592592595,121.12500000000001,154.41444444444446C123.50000000000001,154.402962962963,125.875,154.39148148148146,128.25,154.38C130.625,154.3685185185185,133,154.35703703703706,135.375,154.34555555555556C137.75,154.33407407407407,140.125,154.32259259259257,142.5,154.3111111111111C144.875,154.29962962962964,147.25,154.28814814814814,149.625,154.27666666666667C152,154.2651851851852,154.375,154.2537037037037,156.75,154.2422222222222C159.125,154.2307407407407,161.5,154.21925925925925,163.875,154.20777777777778C166.25,154.1962962962963,168.625,154.18481481481484,171,154.17333333333335C173.375,154.16185185185185,175.75,154.15037037037035,178.125,154.13888888888889C180.5,154.12740740740742,182.875,154.11592592592592,185.25,154.10444444444445C187.625,154.09296296296299,190,154.08148148148146,192.375,154.07C194.75,154.0585185185185,197.12500000000003,154.04703703703706,199.50000000000003,154.03555555555556C201.875,154.0240740740741,204.25,154.01259259259257,206.62499999999997,154.0011111111111C208.99999999999997,153.9896296296296,211.375,153.97814814814816,213.75,153.96666666666667C216.125,153.9551851851852,218.5,153.9437037037037,220.875,153.9322222222222C223.25,153.9207407407407,225.625,153.90925925925924,228,153.89777777777778C230.375,153.8862962962963,232.75,153.8748148148148,235.125,153.86333333333334C237.5,153.85185185185185,239.87500000000003,153.84037037037038,242.25000000000003,153.82888888888888C244.625,153.81740740740742,247,153.80592592592592,249.37499999999997,153.79444444444445C251.74999999999997,153.78296296296296,254.125,153.7714814814815,256.5,153.76C258.875,153.74851851851852,261.25,153.73703703703706,263.625,153.72555555555556C266,153.71407407407406,268.375,153.70259259259257,270.75,153.6911111111111C273.125,153.67962962962963,275.5,153.66814814814813,277.875,153.65666666666667C280.25,153.6451851851852,282.625,153.6337037037037,285,153.62222222222223C287.375,153.61074074074077,289.75,153.59925925925927,292.125,153.58777777777777C294.5,153.57629629629628,296.875,153.56481481481484,299.25,153.55333333333334C301.625,153.54185185185185,304,153.53037037037035,306.375,153.51888888888888C308.75,153.5074074074074,311.125,153.49592592592592,313.5,153.48444444444445C315.875,153.47296296296298,318.25,153.46148148148148,320.625,153.45C323,153.4385185185185,325.375,153.42703703703705,327.75,153.41555555555556C330.125,153.40407407407406,332.5,153.39259259259256,334.875,153.3811111111111C337.25,153.36962962962963,339.625,153.35814814814813,342,153.34666666666666C344.375,153.3351851851852,346.75,153.3237037037037,349.125,153.31222222222223C351.5,153.30074074074076,353.875,153.28925925925927,356.25,153.27777777777777C358.625,153.26629629629628,361,153.25481481481484,363.375,153.24333333333334C365.75,153.23185185185184,368.125,153.22037037037035,370.5,153.20888888888888C372.875,153.1974074074074,375.25,153.18592592592591,377.625,153.17444444444445C380,153.16296296296298,382.375,153.15148148148145,384.75,153.14C387.125,153.1285185185185,389.50000000000006,153.11703703703705,391.87500000000006,153.10555555555555C394.25000000000006,153.0940740740741,396.62500000000006,153.0825925925926,399.00000000000006,153.0711111111111C401.375,153.05962962962963,403.75,153.04814814814813,406.12499999999994,153.03666666666666C408.49999999999994,153.0251851851852,410.87499999999994,153.0137037037037,413.24999999999994,153.00222222222223C415.62499999999994,152.99074074074076,418,152.9792592592593,420.375,152.9677777777778C422.75,152.95629629629633,425.125,152.94481481481483,427.5,152.93333333333334C429.875,152.92185185185184,432.25,152.9103703703704,434.625,152.8988888888889C437,152.8874074074074,439.375,152.87592592592594,441.75,152.86444444444444C444.125,152.85296296296295,446.5,152.84148148148148,448.875,152.82999999999998C451.25,152.8185185185185,453.625,152.80703703703705,456,152.79555555555555C458.375,152.78407407407406,460.75,152.77259259259256,463.125,152.7611111111111C465.5,152.74962962962962,467.875,152.73814814814813,470.25,152.72666666666666C472.625,152.7151851851852,475.00000000000006,152.7037037037037,477.37500000000006,152.69222222222223C479.75000000000006,152.68074074074076,482.12500000000006,152.6692592592593,484.50000000000006,152.6577777777778C486.875,152.64629629629633,489.25,152.6348148148148,491.62499999999994,152.62333333333333C493.99999999999994,152.61185185185184,496.37499999999994,152.60037037037037,498.74999999999994,152.5888888888889C501.12499999999994,152.5774074074074,503.5,152.56592592592594,505.875,152.55444444444444C508.25,152.54296296296297,510.625,152.53148148148148,513,152.52C515.375,152.50851851851854,517.75,152.49703703703705,520.125,152.48555555555555C522.5,152.47407407407405,524.875,152.4625925925926,527.25,152.45111111111112C529.625,152.43962962962962,532,152.42814814814813,534.375,152.41666666666666C536.75,152.4051851851852,539.125,152.3937037037037,541.5,152.38222222222223C543.875,152.37074074074076,546.25,152.35925925925926,548.625,152.3477777777778C551,152.33629629629633,553.375,152.32481481481483,555.75,152.31333333333333C558.125,152.30185185185184,560.5,152.2903703703704,562.875,152.2788888888889C565.25,152.2674074074074,567.625,152.2559259259259,570,152.24444444444444C572.375,152.23296296296297,574.75,152.22148148148148,577.125,152.21C579.5,152.19851851851854,581.875,152.18703703703704,584.25,152.17555555555555C586.625,152.16407407407405,589,152.15259259259258,591.375,152.14111111111112C593.75,152.12962962962965,596.125,152.11814814814818,598.5,152.10666666666668C600.875,152.0951851851852,603.25,152.0837037037037,605.625,152.07222222222222C608,152.06074074074075,610.375,152.04925925925926,612.75,152.0377777777778C615.125,152.02629629629632,617.5,152.01481481481483,619.875,152.00333333333333C622.25,151.99185185185183,624.625,151.9803703703704,627,151.9688888888889C629.375,151.9574074074074,631.75,151.9459259259259,634.125,151.93444444444444C636.5,151.92296296296297,638.875,151.92296296296297,641.25,151.9C643.625,151.87703703703704,646,151.0948051948052,648.375,150.6922077922078C650.75,150.2896103896104,653.125,149.88701298701298,655.5,149.4844155844156C657.875,149.0818181818182,660.25,148.67922077922077,662.625,148.27662337662338C665,147.87402597402598,667.375,147.47142857142856,669.75,147.06883116883117C672.125,146.66623376623377,674.5,146.26363636363635,676.875,145.86103896103896C679.25,145.45844155844156,681.625,145.05584415584414,684,144.65324675324675C686.375,144.25064935064935,688.75,143.84805194805193,691.125,143.44545454545454C693.5,143.04285714285714,695.875,142.64025974025972,698.25,142.23766233766233C700.625,141.83506493506493,703,141.4324675324675,705.375,141.02987012987012C707.75,140.62727272727273,710.125,140.2246753246753,712.5,139.8220779220779C714.875,139.41948051948052,717.25,139.0168831168831,719.625,138.6142857142857C722,138.2116883116883,724.375,137.80909090909088,726.75,137.4064935064935C729.125,137.0038961038961,731.5,136.6012987012987,733.875,136.1987012987013C736.25,135.79610389610392,738.625,135.39350649350646,741,134.99090909090907C743.375,134.58831168831168,745.75,134.18571428571428,748.125,133.7831168831169C750.5,133.3805194805195,752.875,132.97792207792207,755.25,132.57532467532468C757.625,132.1727272727273,760,131.77012987012986,762.375,131.36753246753247C764.75,130.96493506493508,767.125,130.56233766233765,769.5,130.15974025974026C771.875,129.75714285714287,774.2500000000001,129.35454545454547,776.6250000000001,128.95194805194805C779.0000000000001,128.54935064935066,781.3750000000001,128.14675324675324,783.7500000000001,127.74415584415583C786.1250000000001,127.34155844155842,788.5000000000001,126.93896103896104,790.8750000000001,126.53636363636365C793.2500000000001,126.13376623376625,795.6250000000001,125.73116883116884,798.0000000000001,125.32857142857144C800.375,124.92597402597404,802.75,124.52337662337662,805.1249999999999,124.12077922077923C807.4999999999999,123.71818181818182,809.8749999999999,123.31558441558442,812.2499999999999,122.91298701298702C814.6249999999999,122.51038961038961,816.9999999999999,122.10779220779222,819.3749999999999,121.70519480519481C821.7499999999999,121.3025974025974,824.1249999999999,120.89999999999999,826.4999999999999,120.4974025974026C828.8749999999999,120.09480519480519,831.25,119.6922077922078,833.625,119.28961038961039C836,118.887012987013,838.375,118.48441558441559,840.75,118.08181818181818C843.125,117.67922077922077,845.5,117.27662337662338,847.875,116.87402597402598C850.25,116.47142857142859,852.625,116.06883116883118,855,115.66623376623377C857.375,115.26363636363637,859.75,114.86103896103897,862.125,114.45844155844156C864.5,114.05584415584416,866.875,113.65324675324675,869.25,113.25064935064934C871.625,112.84805194805193,874,112.44545454545454,876.375,112.04285714285714C878.75,111.64025974025975,881.125,111.23766233766234,883.5,110.83506493506493C885.875,110.43246753246753,888.25,110.02987012987013,890.625,109.62727272727273C893,109.22467532467532,895.375,108.82207792207792,897.75,108.41948051948052C900.125,108.01688311688311,902.5,107.61428571428571,904.875,107.2116883116883C907.25,106.8090909090909,909.625,106.40649350649349,912,106.0038961038961C914.375,105.6012987012987,916.75,105.19870129870131,919.125,104.7961038961039C921.5,104.3935064935065,923.875,103.9909090909091,926.25,103.58831168831169C928.625,103.18571428571428,931,102.78311688311689,933.375,102.38051948051948C935.75,101.97792207792207,938.125,101.57532467532467,940.5,101.17272727272726C942.875,100.77012987012985,945.25,100.36753246753246,947.625,99.96493506493506C950,99.56233766233765,952.3750000000001,99.15974025974026,954.7500000000001,98.75714285714285C957.1250000000001,98.35454545454546,959.5000000000001,97.95194805194805,961.8750000000001,97.54935064935064C964.2500000000001,97.14675324675324,966.6250000000001,96.74415584415586,969.0000000000001,96.34155844155845C971.3750000000001,95.93896103896104,973.7500000000001,95.53636363636363,976.1250000000001,95.13376623376622C978.5,94.73116883116883,980.875,94.32857142857144,983.2499999999999,93.92597402597404C985.6249999999999,93.52337662337663,987.9999999999999,93.12077922077923,990.3749999999999,92.71818181818182C992.7499999999999,92.31558441558441,995.1249999999999,91.91298701298702,997.4999999999999,91.51038961038961C999.8749999999999,91.1077922077922,1002.2499999999999,90.7051948051948,1004.6249999999999,90.3025974025974C1006.9999999999999,89.89999999999999,1009.375,89.49740259740261,1011.75,89.0948051948052C1014.125,88.69220779220781,1016.5,88.28961038961039,1018.875,87.88701298701298C1021.25,87.48441558441557,1023.625,87.08181818181818,1026,86.67922077922077C1028.375,86.27662337662336,1030.75,85.87402597402595,1033.125,85.47142857142856C1035.5,85.06883116883117,1037.875,84.66623376623377,1040.25,84.26363636363638C1042.625,83.86103896103899,1045,83.45844155844158,1047.375,83.05584415584417C1049.75,82.65324675324676,1052.125,82.25064935064937,1054.5,81.84805194805196C1056.875,81.44545454545455,1059.25,81.04285714285714,1061.625,80.64025974025974C1064,80.23766233766233,1066.375,79.83506493506495,1068.75,79.43246753246754C1071.125,79.02987012987013,1073.5,78.62727272727273,1075.875,78.22467532467532C1078.25,77.82207792207791,1080.625,77.41948051948052,1083,77.01688311688312C1085.375,76.61428571428573,1087.75,76.21168831168832,1090.125,75.80909090909091C1092.5,75.4064935064935,1094.875,75.00389610389611,1097.25,74.6012987012987C1099.625,74.1987012987013,1102,73.79610389610389,1104.375,73.39350649350648C1106.75,72.99090909090907,1109.125,72.58831168831169,1111.5,72.1857142857143C1113.875,71.7831168831169,1116.25,71.3805194805195,1118.625,70.97792207792209C1121,70.57532467532468,1123.375,70.17272727272727,1125.75,69.77012987012986C1128.125,69.36753246753246,1130.5,68.96493506493508,1132.875,68.56233766233767C1135.25,68.15974025974026,1137.625,67.75714285714287,1140,67.35454545454546C1142.375,66.95194805194805,1144.75,66.54935064935066,1147.125,66.14675324675325C1149.5,65.74415584415584,1151.875,65.34155844155845,1154.25,64.93896103896104C1156.625,64.53636363636363,1159,64.13376623376624,1161.375,63.73116883116883C1163.75,63.32857142857142,1166.125,62.92597402597401,1168.5,62.523376623376606C1170.875,62.120779220779205,1173.25,61.71818181818182,1175.625,61.31558441558442C1178,60.91298701298702,1180.375,60.51038961038961,1182.75,60.10779220779221C1185.125,59.70519480519481,1187.5,59.3025974025974,1189.875,58.9C1192.25,58.4974025974026,1194.625,58.0948051948052,1197,57.692207792207796C1199.375,57.289610389610395,1201.75,56.88701298701299,1204.125,56.484415584415586C1206.5,56.081818181818186,1208.875,55.679220779220785,1211.25,55.27662337662338C1213.625,54.87402597402597,1216,54.471428571428554,1218.375,54.06883116883115C1220.75,53.66623376623375,1223.125,53.26363636363635,1225.5,52.86103896103896C1227.875,52.458441558441564,1230.25,52.05584415584417,1232.625,51.65324675324677C1235,51.25064935064937,1237.375,50.84805194805195,1239.75,50.445454545454545C1242.125,50.04285714285714,1244.5,49.64025974025974,1246.875,49.237662337662336C1249.25,48.835064935064935,1251.625,48.43246753246753,1254,48.029870129870126C1256.375,47.627272727272725,1258.75,47.224675324675324,1261.125,46.822077922077916C1263.5,46.41948051948051,1265.875,46.01688311688309,1268.25,45.61428571428569C1270.625,45.21168831168829,1273,44.8090909090909,1275.375,44.406493506493504C1277.75,44.00389610389611,1280.125,43.60129870129871,1282.5,43.19870129870131C1284.875,42.79610389610391,1287.25,42.39350649350649,1289.625,41.990909090909085C1292,41.58831168831168,1294.375,41.185714285714276,1296.75,40.783116883116875C1299.125,40.380519480519474,1301.5,39.97792207792209,1303.875,39.57532467532469C1306.25,39.172727272727286,1308.625,38.77012987012987,1311,38.36753246753246C1313.375,37.964935064935055,1315.75,37.562337662337654,1318.125,37.15974025974025C1320.5,36.75714285714285,1322.875,36.354545454545466,1325.25,35.951948051948065C1327.625,35.549350649350664,1330,35.146753246753235,1332.375,34.744155844155834C1334.75,34.34155844155843,1337.125,33.93896103896105,1339.5,33.536363636363646C1341.875,33.133766233766245,1344.25,32.73116883116883,1346.625,32.32857142857142C1349,31.925974025974018,1351.375,31.523376623376617,1353.75,31.120779220779212C1356.125,30.718181818181808,1358.5,30.31558441558439,1360.875,29.91298701298699C1363.25,29.510389610389588,1365.625,29.107792207792194,1368,28.705194805194797C1370.375,28.3025974025974,1372.75,27.900000000000006,1375.125,27.497402597402605C1377.5,27.094805194805204,1379.875,26.6922077922078,1382.25,26.289610389610395C1384.625,25.88701298701299,1387,25.484415584415576,1389.375,25.08181818181817C1391.75,24.679220779220767,1394.125,24.276623376623363,1396.5,23.87402597402596C1398.875,23.47142857142856,1401.25,23.068831168831174,1403.625,22.666233766233773C1406,22.263636363636373,1408.375,21.86103896103895,1410.75,21.458441558441546C1413.125,21.05584415584414,1415.5,20.65324675324674,1417.875,20.25064935064934C1420.25,19.84805194805194,1422.625,19.445454545454545,1425,19.042857142857148" fill="transparent" stroke-linecap="round" stroke="#1AD4B3" stroke-width="2"></path><g class="visx-group visx-axis visx-axis-bottom" transform="translate(0, 155)"><g class="visx-group visx-axis-tick" transform="translate(0, 0)"><line class="visx-line" x1="0" y1="0" x2="0" y2="8" fill="transparent" shape-rendering="crispEdges" stroke="#F2F0F9" stroke-width="1" stroke-linecap="square"></line><svg x="0" y="0" font-size="11" style="overflow:visible"><text transform="" x="0" y="19" fill="#1B2030" font-size="11" text-anchor="middle"><tspan x="0" dy="0em">0%</tspan></text></svg></g><g class="visx-group visx-axis-tick" transform="translate(0, 0)"><line class="visx-line" x1="356.25" y1="0" x2="356.25" y2="8" fill="transparent" shape-rendering="crispEdges" stroke="#F2F0F9" stroke-width="1" stroke-linecap="square"></line><svg x="0" y="0" font-size="11" style="overflow:visible"><text transform="" x="356.25" y="19" fill="#1B2030" font-size="11" text-anchor="middle"><tspan x="356.25" dy="0em">25%</tspan></text></svg></g><g class="visx-group visx-axis-tick" transform="translate(0, 0)"><line class="visx-line" x1="712.5" y1="0" x2="712.5" y2="8" fill="transparent" shape-rendering="crispEdges" stroke="#F2F0F9" stroke-width="1" stroke-linecap="square"></line><svg x="0" y="0" font-size="11" style="overflow:visible"><text transform="" x="712.5" y="19" fill="#1B2030" font-size="11" text-anchor="middle"><tspan x="712.5" dy="0em">50%</tspan></text></svg></g><g class="visx-group visx-axis-tick" transform="translate(0, 0)"><line class="visx-line" x1="1068.75" y1="0" x2="1068.75" y2="8" fill="transparent" shape-rendering="crispEdges" stroke="#F2F0F9" stroke-width="1" stroke-linecap="square"></line><svg x="0" y="0" font-size="11" style="overflow:visible"><text transform="" x="1068.75" y="19" fill="#1B2030" font-size="11" text-anchor="middle"><tspan x="1068.75" dy="0em">75%</tspan></text></svg></g><g class="visx-group visx-axis-tick" transform="translate(0, 0)"><line class="visx-line" x1="1425" y1="0" x2="1425" y2="8" fill="transparent" shape-rendering="crispEdges" stroke="#F2F0F9" stroke-width="1" stroke-linecap="square"></line><svg x="0" y="0" font-size="11" style="overflow:visible"><text transform="" x="1425" y="19" fill="#1B2030" font-size="11" text-anchor="middle"><tspan x="1425" dy="0em">100%</tspan></text></svg></g></g><g class="visx-group visx-axis visx-axis-left" transform="translate(0, 0)"><g class="visx-group visx-axis-tick" transform="translate(0, 0)"><line class="visx-line" x1="0" y1="155" x2="-8" y2="155" fill="transparent" shape-rendering="crispEdges" stroke="#F2F0F9" stroke-width="1" stroke-linecap="square"></line><svg x="-30" y="0" font-size="11" style="overflow:visible"><text transform="" x="-8" y="155" fill="#1B2030" font-size="11" text-anchor="start"><tspan x="-8" dy="0em">0%</tspan></text></svg></g><g class="visx-group visx-axis-tick" transform="translate(0, 0)"><line class="visx-line" x1="0" y1="110.71428571428572" x2="-8" y2="110.71428571428572" fill="transparent" shape-rendering="crispEdges" stroke="#F2F0F9" stroke-width="1" stroke-linecap="square"></line><svg x="-30" y="0" font-size="11" style="overflow:visible"><text transform="" x="-8" y="110.71428571428572" fill="#1B2030" font-size="11" text-anchor="start"><tspan x="-8" dy="0em">100%</tspan></text></svg></g><g class="visx-group visx-axis-tick" transform="translate(0, 0)"><line class="visx-line" x1="0" y1="66.42857142857143" x2="-8" y2="66.42857142857143" fill="transparent" shape-rendering="crispEdges" stroke="#F2F0F9" stroke-width="1" stroke-linecap="square"></line><svg x="-30" y="0" font-size="11" style="overflow:visible"><text transform="" x="-8" y="66.42857142857143" fill="#1B2030" font-size="11" text-anchor="start"><tspan x="-8" dy="0em">200%</tspan></text></svg></g><g class="visx-group visx-axis-tick" transform="translate(0, 0)"><line class="visx-line" x1="0" y1="22.14285714285715" x2="-8" y2="22.14285714285715" fill="transparent" shape-rendering="crispEdges" stroke="#F2F0F9" stroke-width="1" stroke-linecap="square"></line><svg x="-30" y="0" font-size="11" style="overflow:visible"><text transform="" x="-8" y="22.14285714285715" fill="#1B2030" font-size="11" text-anchor="start"><tspan x="-8" dy="0em">300%</tspan></text></svg></g><line class="visx-line visx-axis-line" x1="0" y1="155.5" x2="0" y2="0.5" fill="transparent" shape-rendering="crispEdges" stroke="#F2F0F9" stroke-width="1"></line></g><rect class="visx-bar" width="1425" height="155" fill="transparent"></rect><line class="visx-line" x1="641.25" y1="58" x2="641.25" y2="155" fill="transparent" shape-rendering="crispEdges" stroke="#CDC8E1" stroke-width="1" pointer-events="none" stroke-dasharray="5"></line><svg x="0" y="0" font-size="11px" style="overflow:visible"><text transform="" x="641.25" y="50" font-size="11px" fill="#555069" stroke="#FFFFFF" stroke-width="1px" text-anchor="middle"><tspan x="641.25" dy="0.355em">Optimal utilization 45%</tspan></text></svg><svg x="0" y="0" font-size="11px" style="overflow:visible"><text transform="" x="641.25" y="50" font-size="11px" fill="#CDC8E1" text-anchor="middle"><tspan x="641.25" dy="0.355em">Optimal utilization 45%</tspan></text></svg></g></svg>