<?xml version="1.0"?><svg xmlns="http://www.w3.org/2000/svg" xmlns:xlink= "http://www.w3.org/1999/xlink" width="1500" height="155"><g class="visx-group" transform="translate(40, 20)"><g class="visx-group visx-rows" transform="translate(0, 0)"><line class="visx-line" x1="0" y1="115" x2="1450" y2="115" fill="transparent" shape-rendering="crispEdges" stroke="#000" stroke-width="1" stroke-dasharray="3,3" pointer-events="none"></line><line class="visx-line" x1="0" y1="86.25" x2="1450" y2="86.25" fill="transparent" shape-rendering="crispEdges" stroke="#000" stroke-width="1" stroke-dasharray="3,3" pointer-events="none"></line><line class="visx-line" x1="0" y1="57.5" x2="1450" y2="57.5" fill="transparent" shape-rendering="crispEdges" stroke="#000" stroke-width="1" stroke-dasharray="3,3" pointer-events="none"></line><line class="visx-line" x1="0" y1="28.75" x2="1450" y2="28.75" fill="transparent" shape-rendering="crispEdges" stroke="#000" stroke-width="1" stroke-dasharray="3,3" pointer-events="none"></line><line class="visx-line" x1="0" y1="0" x2="1450" y2="0" fill="transparent" shape-rendering="crispEdges" stroke="#000" stroke-width="1" stroke-dasharray="3,3" pointer-events="none"></line></g><path class="visx-linepath" d="M0,113.27499999989938C2.4166666666666665,113.25822916660798,4.833333333333334,113.24145833331656,7.25,113.2246875C9.666666666666666,113.20791666668345,12.083333333333334,113.19114583333334,14.5,113.174375C16.916666666666668,113.15760416666666,19.333333333333332,113.14083333333335,21.75,113.12406250000001C24.166666666666668,113.10729166666667,26.583333333333332,113.09052083333333,29,113.07374999999999C31.416666666666668,113.05697916666665,33.833333333333336,113.04020833333334,36.25,113.0234375C38.666666666666664,113.00666666666666,41.083333333333336,112.98989583333332,43.5,112.973125C45.91666666666667,112.95635416666666,48.333333333333336,112.93958333333335,50.75000000000001,112.9228125C53.16666666666667,112.90604166666668,55.583333333333336,112.88927083333334,58,112.8725C60.416666666666664,112.85572916666666,62.833333333333336,112.83895833333334,65.25,112.8221875C67.66666666666667,112.80541666666666,70.08333333333333,112.78864583333333,72.5,112.771875C74.91666666666667,112.75510416666665,77.33333333333333,112.73833333333334,79.75,112.7215625C82.16666666666667,112.70479166666667,84.58333333333333,112.68802083333334,87,112.67125C89.41666666666667,112.65447916666666,91.83333333333333,112.63770833333332,94.25,112.6209375C96.66666666666667,112.60416666666666,99.08333333333334,112.58739583333335,101.50000000000001,112.570625C103.91666666666667,112.55385416666667,106.33333333333334,112.53708333333333,108.75,112.52031249999999C111.16666666666667,112.50354166666665,113.58333333333333,112.48677083333332,116,112.47C118.41666666666667,112.45322916666666,120.83333333333334,112.43645833333333,123.25000000000001,112.4196875C125.66666666666667,112.40291666666667,128.08333333333334,112.38614583333333,130.5,112.369375C132.91666666666666,112.35260416666667,135.33333333333334,112.33583333333334,137.75,112.3190625C140.16666666666666,112.30229166666666,142.58333333333334,112.28552083333334,145,112.26875C147.41666666666666,112.25197916666666,149.83333333333334,112.23520833333333,152.25,112.2184375C154.66666666666666,112.20166666666665,157.08333333333334,112.18489583333334,159.5,112.168125C161.91666666666666,112.15135416666666,164.33333333333334,112.13458333333332,166.75,112.1178125C169.16666666666666,112.10104166666667,171.58333333333334,112.08427083333333,174,112.06750000000001C176.41666666666666,112.05072916666668,178.83333333333334,112.03395833333335,181.25,112.0171875C183.66666666666666,112.00041666666667,186.08333333333334,111.98364583333334,188.5,111.966875C190.91666666666666,111.95010416666666,193.33333333333334,111.93333333333334,195.75,111.9165625C198.16666666666669,111.89979166666666,200.58333333333334,111.88302083333333,203.00000000000003,111.86625C205.41666666666669,111.84947916666667,207.83333333333331,111.83270833333333,210.24999999999997,111.8159375C212.66666666666666,111.79916666666666,215.08333333333331,111.78239583333334,217.5,111.765625C219.91666666666666,111.74885416666666,222.33333333333334,111.73208333333334,224.75,111.7153125C227.16666666666666,111.69854166666666,229.58333333333334,111.68177083333333,232,111.66499999999999C234.41666666666666,111.64822916666665,236.83333333333334,111.63145833333333,239.25,111.6146875C241.66666666666669,111.59791666666666,244.08333333333334,111.58114583333334,246.50000000000003,111.564375C248.91666666666669,111.54760416666667,251.33333333333331,111.53083333333335,253.74999999999997,111.51406250000001C256.16666666666663,111.49729166666667,258.5833333333333,111.48052083333333,261,111.46374999999999C263.4166666666667,111.44697916666665,265.8333333333333,111.43020833333333,268.25,111.4134375C270.6666666666667,111.39666666666668,273.0833333333333,111.37989583333334,275.5,111.363125C277.9166666666667,111.34635416666666,280.3333333333333,111.32958333333335,282.75,111.3128125C285.1666666666667,111.29604166666667,287.5833333333333,111.27927083333334,290,111.2625C292.4166666666667,111.24572916666666,294.8333333333333,111.22895833333334,297.25,111.2121875C299.6666666666667,111.19541666666666,302.0833333333333,111.17864583333333,304.5,111.161875C306.9166666666667,111.14510416666666,309.3333333333333,111.12833333333333,311.75,111.11156249999999C314.1666666666667,111.09479166666665,316.5833333333333,111.07802083333334,319,111.06125C321.4166666666667,111.04447916666666,323.8333333333333,111.02770833333332,326.25,111.0109375C328.6666666666667,110.99416666666667,331.0833333333333,110.97739583333333,333.5,110.96062500000001C335.9166666666667,110.94385416666668,338.3333333333333,110.92708333333334,340.75,110.9103125C343.1666666666667,110.89354166666666,345.5833333333333,110.87677083333334,348,110.86C350.4166666666667,110.84322916666666,352.8333333333333,110.82645833333333,355.25,110.8096875C357.6666666666667,110.79291666666666,360.0833333333333,110.77614583333335,362.5,110.759375C364.9166666666667,110.74260416666667,367.3333333333333,110.72583333333333,369.75,110.7090625C372.1666666666667,110.69229166666668,374.5833333333333,110.67552083333335,377,110.65875000000001C379.4166666666667,110.64197916666667,381.8333333333333,110.62520833333333,384.25,110.6084375C386.6666666666667,110.59166666666665,389.0833333333333,110.57489583333333,391.5,110.558125C393.9166666666667,110.54135416666666,396.33333333333337,110.52458333333334,398.75000000000006,110.5078125C401.16666666666674,110.49104166666666,403.58333333333337,110.47427083333334,406.00000000000006,110.4575C408.4166666666667,110.44072916666667,410.8333333333333,110.42395833333335,413.24999999999994,110.4071875C415.66666666666663,110.39041666666667,418.08333333333326,110.37364583333333,420.49999999999994,110.35687499999999C422.91666666666663,110.34010416666665,425.3333333333333,110.32333333333334,427.75,110.3065625C430.1666666666667,110.28979166666667,432.5833333333333,110.27302083333333,435,110.25625C437.4166666666667,110.23947916666665,439.8333333333333,110.22270833333334,442.25,110.2059375C444.6666666666667,110.18916666666667,447.0833333333333,110.17239583333334,449.5,110.155625C451.9166666666667,110.13885416666666,454.3333333333333,110.12208333333334,456.75,110.1053125C459.1666666666667,110.08854166666666,461.5833333333333,110.07177083333332,464,110.05499999999999C466.4166666666667,110.03822916666667,468.8333333333333,110.02145833333333,471.25,110.0046875C473.6666666666667,109.98791666666668,476.0833333333333,109.97114583333332,478.5,109.954375C480.9166666666667,109.93760416666666,483.33333333333337,109.92083333333335,485.75000000000006,109.90406250000001C488.16666666666674,109.88729166666668,490.58333333333337,109.87052083333334,493.00000000000006,109.85375C495.4166666666667,109.83697916666667,497.8333333333333,109.82020833333334,500.24999999999994,109.8034375C502.66666666666663,109.78666666666666,505.08333333333326,109.76989583333334,507.49999999999994,109.753125C509.91666666666663,109.73635416666666,512.3333333333333,109.71958333333333,514.75,109.7028125C517.1666666666666,109.68604166666667,519.5833333333334,109.66927083333334,522,109.6525C524.4166666666666,109.63572916666666,526.8333333333334,109.61895833333332,529.25,109.6021875C531.6666666666666,109.58541666666667,534.0833333333334,109.56864583333335,536.5,109.55187500000001C538.9166666666666,109.53510416666667,541.3333333333334,109.51833333333333,543.75,109.50156249999999C546.1666666666666,109.48479166666665,548.5833333333334,109.46802083333333,551,109.45125C553.4166666666666,109.43447916666668,555.8333333333334,109.41770833333334,558.25,109.4009375C560.6666666666666,109.38416666666666,563.0833333333334,109.36739583333335,565.5,109.35062500000001C567.9166666666666,109.33385416666667,570.3333333333334,109.31708333333334,572.75,109.3003125C575.1666666666666,109.28354166666666,577.5833333333334,109.26677083333334,580,109.25C582.4166666666666,109.23322916666666,584.8333333333334,109.21645833333332,587.25,109.1996875C589.6666666666666,109.18291666666667,592.0833333333334,109.16614583333333,594.5,109.149375C596.9166666666666,109.13260416666668,599.3333333333334,109.11583333333334,601.75,109.0990625C604.1666666666666,109.08229166666666,606.5833333333334,109.06552083333334,609,109.04875C611.4166666666666,109.03197916666666,613.8333333333334,109.01520833333333,616.25,108.9984375C618.6666666666666,108.98166666666665,621.0833333333334,108.96489583333332,623.5,108.94812499999999C625.9166666666666,108.93135416666667,628.3333333333334,108.91458333333333,630.75,108.8978125C633.1666666666666,108.88104166666668,635.5833333333334,108.86427083333334,638,108.8475C640.4166666666666,108.83072916666666,642.8333333333334,108.81395833333335,645.25,108.7971875C647.6666666666666,108.78041666666667,650.0833333333334,108.76364583333334,652.5,108.746875C654.9166666666666,108.73010416666666,657.3333333333334,108.71333333333334,659.75,108.6965625C662.1666666666666,108.67979166666666,664.5833333333334,108.66302083333332,667,108.64625C669.4166666666666,108.62947916666667,671.8333333333334,108.61270833333333,674.25,108.5959375C676.6666666666666,108.57916666666668,679.0833333333334,108.56239583333334,681.5,108.545625C683.9166666666666,108.52885416666666,686.3333333333334,108.51208333333335,688.75,108.49531250000001C691.1666666666666,108.47854166666667,693.5833333333334,108.46177083333333,696,108.445C698.4166666666666,108.42822916666665,700.8333333333334,108.41145833333334,703.25,108.3946875C705.6666666666666,108.37791666666666,708.0833333333334,108.36114583333334,710.5,108.344375C712.9166666666666,108.32760416666666,715.3333333333334,108.31083333333333,717.75,108.2940625C720.1666666666666,108.27729166666666,722.5833333333334,108.26052083333335,725,108.24375C727.4166666666666,108.22697916666667,729.8333333333334,108.21020833333334,732.25,108.1934375C734.6666666666666,108.17666666666666,737.0833333333334,108.15989583333334,739.5,108.143125C741.9166666666666,108.12635416666666,744.3333333333334,108.10958333333332,746.75,108.0928125C749.1666666666666,108.07604166666667,751.5833333333334,108.05927083333333,754,108.0425C756.4166666666666,108.02572916666668,758.8333333333334,108.00895833333334,761.25,107.9921875C763.6666666666666,107.97541666666666,766.0833333333334,107.95864583333335,768.5,107.94187500000001C770.9166666666666,107.92510416666667,773.3333333333334,107.90833333333333,775.75,107.89156249999999C778.1666666666666,107.87479166666665,780.5833333333334,107.85802083333333,783,107.84125C785.4166666666667,107.82447916666666,787.8333333333334,107.80770833333334,790.2500000000001,107.7909375C792.6666666666667,107.77416666666667,795.0833333333335,107.75739583333333,797.5000000000001,107.74062500000001C799.9166666666667,107.72385416666668,802.3333333333335,107.70708333333334,804.7500000000001,107.6903125C807.1666666666667,107.67354166666667,809.5833333333335,107.65677083333333,812.0000000000001,107.63999999999999C814.4166666666667,107.62322916666665,816.8333333333333,107.60645833333332,819.2499999999999,107.5896875C821.6666666666665,107.57291666666666,824.0833333333333,107.55614583333332,826.4999999999999,107.53937499999999C828.9166666666665,107.52260416666667,831.3333333333333,107.50583333333333,833.7499999999999,107.4890625C836.1666666666665,107.47229166666668,838.5833333333333,107.45552083333332,840.9999999999999,107.43875C843.4166666666666,107.42197916666666,845.8333333333333,107.40520833333335,848.25,107.38843750000001C850.6666666666666,107.37166666666667,853.0833333333334,107.35489583333333,855.5,107.33812499999999C857.9166666666666,107.32135416666665,860.3333333333334,107.30458333333334,862.75,107.2878125C865.1666666666666,107.27104166666666,867.5833333333334,107.25427083333332,870,107.2375C872.4166666666666,107.22072916666667,874.8333333333334,107.20395833333333,877.25,107.18718750000001C879.6666666666666,107.17041666666668,882.0833333333334,107.15364583333334,884.5,107.136875C886.9166666666666,107.12010416666666,889.3333333333334,107.10333333333335,891.75,107.08656250000001C894.1666666666666,107.06979166666667,896.5833333333334,107.05302083333333,899,107.03625C901.4166666666666,107.01947916666666,903.8333333333334,107.00270833333332,906.25,106.98593749999999C908.6666666666666,106.96916666666667,911.0833333333334,106.95239583333333,913.5,106.935625C915.9166666666666,106.91885416666668,918.3333333333334,106.90208333333334,920.75,106.8853125C923.1666666666666,106.86854166666666,925.5833333333334,106.85177083333335,928,106.83500000000001C930.4166666666666,106.81822916666667,932.8333333333334,106.80145833333333,935.25,106.78468749999999C937.6666666666666,106.76791666666665,940.0833333333334,106.75114583333334,942.5,106.734375C944.9166666666666,106.71760416666666,947.3333333333334,106.70083333333332,949.75,106.6840625C952.1666666666666,106.66729166666667,954.5833333333334,106.65052083333333,957,106.63375C959.4166666666666,106.61697916666668,961.8333333333334,106.60020833333334,964.25,106.5834375C966.6666666666667,106.56666666666666,969.0833333333334,106.54989583333334,971.5000000000001,106.533125C973.9166666666667,106.51635416666666,976.3333333333335,106.49958333333333,978.7500000000001,106.4828125C981.1666666666667,106.46604166666665,983.5833333333335,106.44927083333334,986.0000000000001,106.4325C988.4166666666667,106.41572916666667,990.8333333333335,106.39895833333334,993.2500000000001,106.3821875C995.6666666666667,106.36541666666666,998.0833333333333,106.34864583333334,1000.4999999999999,106.331875C1002.9166666666665,106.31510416666666,1005.3333333333333,106.29833333333333,1007.7499999999999,106.28156249999999C1010.1666666666665,106.26479166666665,1012.5833333333333,106.24802083333333,1014.9999999999999,106.23124999999999C1017.4166666666665,106.21447916666665,1019.8333333333333,106.19770833333332,1022.2499999999999,106.1809375C1024.6666666666665,106.16416666666666,1027.0833333333333,106.14739583333333,1029.5,106.130625C1031.9166666666667,106.11385416666667,1034.3333333333333,106.09708333333333,1036.75,106.0803125C1039.1666666666667,106.06354166666668,1041.5833333333333,106.04677083333334,1044,106.03C1046.4166666666667,106.01322916666666,1048.8333333333333,105.99645833333335,1051.25,105.97968750000001C1053.6666666666667,105.96291666666667,1056.0833333333333,105.94614583333333,1058.5,105.929375C1060.9166666666667,105.91260416666665,1063.3333333333333,105.89583333333334,1065.75,105.8790625C1068.1666666666667,105.86229166666666,1070.5833333333333,105.84552083333332,1073,105.82875C1075.4166666666667,105.81197916666667,1077.8333333333333,105.79520833333333,1080.25,105.77843750000001C1082.6666666666667,105.76166666666668,1085.0833333333333,105.74489583333335,1087.5,105.728125C1089.9166666666667,105.71135416666667,1092.3333333333333,105.69458333333334,1094.75,105.6778125C1097.1666666666667,105.66104166666666,1099.5833333333333,105.64427083333334,1102,105.6275C1104.4166666666667,105.61072916666666,1106.8333333333333,105.59395833333332,1109.25,105.5771875C1111.6666666666667,105.56041666666667,1114.0833333333333,105.54364583333333,1116.5,105.526875C1118.9166666666667,105.51010416666668,1121.3333333333333,105.49333333333334,1123.75,105.4765625C1126.1666666666667,105.45979166666666,1128.5833333333333,105.44302083333334,1131,105.42625C1133.4166666666667,105.40947916666666,1135.8333333333333,105.39270833333333,1138.25,105.37593749999999C1140.6666666666667,105.35916666666665,1143.0833333333333,105.34239583333334,1145.5,105.325625C1147.9166666666667,105.30885416666666,1150.3333333333333,105.29208333333332,1152.75,105.2753125C1155.1666666666667,105.25854166666667,1157.5833333333333,105.25854166666667,1160,105.22500000000001C1162.4166666666667,105.19145833333334,1164.8333333333333,103.7875,1167.25,103.06875C1169.6666666666667,102.35,1172.0833333333333,101.63125,1174.5,100.9125C1176.9166666666667,100.19375,1179.3333333333333,99.47500000000001,1181.75,98.75625000000001C1184.1666666666667,98.03750000000001,1186.5833333333333,97.31875,1189,96.6C1191.4166666666667,95.88125,1193.8333333333333,95.16250000000001,1196.25,94.44375000000001C1198.6666666666667,93.72500000000001,1201.0833333333333,93.00625,1203.5,92.2875C1205.9166666666667,91.56875,1208.3333333333333,90.85,1210.75,90.13125C1213.1666666666667,89.4125,1215.5833333333333,88.69375000000001,1218,87.97500000000001C1220.4166666666667,87.25625000000001,1222.8333333333333,86.53750000000001,1225.25,85.81875000000001C1227.6666666666667,85.10000000000001,1230.0833333333333,84.38125000000001,1232.5,83.66250000000001C1234.9166666666667,82.94375000000001,1237.3333333333333,82.225,1239.75,81.50625C1242.1666666666667,80.7875,1244.5833333333333,80.06875,1247,79.35C1249.4166666666667,78.63125,1251.8333333333333,77.91250000000001,1254.25,77.19375000000001C1256.6666666666667,76.47500000000001,1259.0833333333333,75.75625000000001,1261.5,75.03750000000001C1263.9166666666667,74.31875000000001,1266.3333333333333,73.60000000000001,1268.75,72.88125000000001C1271.1666666666667,72.16250000000001,1273.5833333333333,71.44375,1276,70.725C1278.4166666666667,70.00625,1280.8333333333333,69.2875,1283.25,68.56875C1285.6666666666667,67.85,1288.0833333333333,67.13125000000001,1290.5,66.41250000000001C1292.9166666666667,65.69375000000001,1295.3333333333333,64.97500000000001,1297.75,64.25625000000001C1300.1666666666667,63.53750000000001,1302.5833333333333,62.81875,1305,62.1C1307.4166666666667,61.38125,1309.8333333333333,60.6625,1312.25,59.94375C1314.6666666666667,59.225,1317.0833333333333,58.506249999999994,1319.5,57.787499999999994C1321.9166666666667,57.068749999999994,1324.3333333333333,56.35,1326.75,55.63125C1329.1666666666667,54.9125,1331.5833333333333,54.193749999999994,1334,53.474999999999994C1336.4166666666667,52.756249999999994,1338.8333333333333,52.0375,1341.25,51.31875C1343.6666666666667,50.6,1346.0833333333333,49.88125,1348.5,49.1625C1350.9166666666667,48.44375,1353.3333333333333,47.724999999999994,1355.75,47.006249999999994C1358.1666666666667,46.287499999999994,1360.5833333333333,45.56875,1363,44.85C1365.4166666666667,44.13125,1367.8333333333333,43.412499999999994,1370.25,42.693749999999994C1372.6666666666667,41.974999999999994,1375.0833333333333,41.25625,1377.5,40.5375C1379.9166666666667,39.81875,1382.3333333333333,39.1,1384.75,38.38125C1387.1666666666667,37.6625,1389.5833333333333,36.943749999999994,1392,36.224999999999994C1394.4166666666667,35.506249999999994,1396.8333333333333,34.7875,1399.25,34.06875C1401.6666666666667,33.35,1404.0833333333333,32.631249999999994,1406.5,31.912499999999998C1408.9166666666667,31.193749999999998,1411.3333333333333,30.475000000000005,1413.75,29.756250000000005C1416.1666666666667,29.037500000000005,1418.5833333333333,28.31875,1421,27.599999999999998C1423.4166666666667,26.881249999999994,1425.8333333333333,26.162499999999994,1428.25,25.443749999999994C1430.6666666666667,24.724999999999994,1433.0833333333333,24.00625,1435.5,23.2875C1437.9166666666667,22.56875,1440.3333333333333,21.849999999999998,1442.75,21.131249999999998C1445.1666666666667,20.412499999999998,1447.5833333333333,19.69375,1450,18.975000000000005" fill="transparent" stroke-linecap="round" stroke="#B6509E" stroke-width="2"></path><path class="visx-linepath" d="M0,105.80000000000001C2.4166666666666665,105.80000000000001,4.833333333333334,105.80000000000001,7.25,105.80000000000001C9.666666666666666,105.80000000000001,12.083333333333334,105.80000000000001,14.5,105.80000000000001C16.916666666666668,105.80000000000001,19.333333333333332,105.80000000000001,21.75,105.80000000000001C24.166666666666668,105.80000000000001,26.583333333333332,105.80000000000001,29,105.80000000000001C31.416666666666668,105.80000000000001,33.833333333333336,105.80000000000001,36.25,105.80000000000001C38.666666666666664,105.80000000000001,41.083333333333336,105.80000000000001,43.5,105.80000000000001C45.91666666666667,105.80000000000001,48.333333333333336,105.80000000000001,50.75000000000001,105.80000000000001C53.16666666666667,105.80000000000001,55.583333333333336,105.80000000000001,58,105.80000000000001C60.416666666666664,105.80000000000001,62.833333333333336,105.80000000000001,65.25,105.80000000000001C67.66666666666667,105.80000000000001,70.08333333333333,105.80000000000001,72.5,105.80000000000001C74.91666666666667,105.80000000000001,77.33333333333333,105.80000000000001,79.75,105.80000000000001C82.16666666666667,105.80000000000001,84.58333333333333,105.80000000000001,87,105.80000000000001C89.41666666666667,105.80000000000001,91.83333333333333,105.80000000000001,94.25,105.80000000000001C96.66666666666667,105.80000000000001,99.08333333333334,105.80000000000001,101.50000000000001,105.80000000000001C103.91666666666667,105.80000000000001,106.33333333333334,105.80000000000001,108.75,105.80000000000001C111.16666666666667,105.80000000000001,113.58333333333333,105.80000000000001,116,105.80000000000001C118.41666666666667,105.80000000000001,120.83333333333334,105.80000000000001,123.25000000000001,105.80000000000001C125.66666666666667,105.80000000000001,128.08333333333334,105.80000000000001,130.5,105.80000000000001C132.91666666666666,105.80000000000001,135.33333333333334,105.80000000000001,137.75,105.80000000000001C140.16666666666666,105.80000000000001,142.58333333333334,105.80000000000001,145,105.80000000000001C147.41666666666666,105.80000000000001,149.83333333333334,105.80000000000001,152.25,105.80000000000001C154.66666666666666,105.80000000000001,157.08333333333334,105.80000000000001,159.5,105.80000000000001C161.91666666666666,105.80000000000001,164.33333333333334,105.80000000000001,166.75,105.80000000000001C169.16666666666666,105.80000000000001,171.58333333333334,105.80000000000001,174,105.80000000000001C176.41666666666666,105.80000000000001,178.83333333333334,105.80000000000001,181.25,105.80000000000001C183.66666666666666,105.80000000000001,186.08333333333334,105.80000000000001,188.5,105.80000000000001C190.91666666666666,105.80000000000001,193.33333333333334,105.80000000000001,195.75,105.80000000000001C198.16666666666669,105.80000000000001,200.58333333333334,105.80000000000001,203.00000000000003,105.80000000000001C205.41666666666669,105.80000000000001,207.83333333333331,105.80000000000001,210.24999999999997,105.80000000000001C212.66666666666666,105.80000000000001,215.08333333333331,105.80000000000001,217.5,105.80000000000001C219.91666666666666,105.80000000000001,222.33333333333334,105.80000000000001,224.75,105.80000000000001C227.16666666666666,105.80000000000001,229.58333333333334,105.80000000000001,232,105.80000000000001C234.41666666666666,105.80000000000001,236.83333333333334,105.80000000000001,239.25,105.80000000000001C241.66666666666669,105.80000000000001,244.08333333333334,105.80000000000001,246.50000000000003,105.80000000000001C248.91666666666669,105.80000000000001,251.33333333333331,105.80000000000001,253.74999999999997,105.80000000000001C256.16666666666663,105.80000000000001,258.5833333333333,105.80000000000001,261,105.80000000000001C263.4166666666667,105.80000000000001,265.8333333333333,105.80000000000001,268.25,105.80000000000001C270.6666666666667,105.80000000000001,273.0833333333333,105.80000000000001,275.5,105.80000000000001C277.9166666666667,105.80000000000001,280.3333333333333,105.80000000000001,282.75,105.80000000000001C285.1666666666667,105.80000000000001,287.5833333333333,105.80000000000001,290,105.80000000000001C292.4166666666667,105.80000000000001,294.8333333333333,105.80000000000001,297.25,105.80000000000001C299.6666666666667,105.80000000000001,302.0833333333333,105.80000000000001,304.5,105.80000000000001C306.9166666666667,105.80000000000001,309.3333333333333,105.80000000000001,311.75,105.80000000000001C314.1666666666667,105.80000000000001,316.5833333333333,105.80000000000001,319,105.80000000000001C321.4166666666667,105.80000000000001,323.8333333333333,105.80000000000001,326.25,105.80000000000001C328.6666666666667,105.80000000000001,331.0833333333333,105.80000000000001,333.5,105.80000000000001C335.9166666666667,105.80000000000001,338.3333333333333,105.80000000000001,340.75,105.80000000000001C343.1666666666667,105.80000000000001,345.5833333333333,105.80000000000001,348,105.80000000000001C350.4166666666667,105.80000000000001,352.8333333333333,105.80000000000001,355.25,105.80000000000001C357.6666666666667,105.80000000000001,360.0833333333333,105.80000000000001,362.5,105.80000000000001C364.9166666666667,105.80000000000001,367.3333333333333,105.80000000000001,369.75,105.80000000000001C372.1666666666667,105.80000000000001,374.5833333333333,105.80000000000001,377,105.80000000000001C379.4166666666667,105.80000000000001,381.8333333333333,105.80000000000001,384.25,105.80000000000001C386.6666666666667,105.80000000000001,389.0833333333333,105.80000000000001,391.5,105.80000000000001C393.9166666666667,105.80000000000001,396.33333333333337,105.80000000000001,398.75000000000006,105.80000000000001C401.16666666666674,105.80000000000001,403.58333333333337,105.80000000000001,406.00000000000006,105.80000000000001C408.4166666666667,105.80000000000001,410.8333333333333,105.80000000000001,413.24999999999994,105.80000000000001C415.66666666666663,105.80000000000001,418.08333333333326,105.80000000000001,420.49999999999994,105.80000000000001C422.91666666666663,105.80000000000001,425.3333333333333,105.80000000000001,427.75,105.80000000000001C430.1666666666667,105.80000000000001,432.5833333333333,105.80000000000001,435,105.80000000000001C437.4166666666667,105.80000000000001,439.8333333333333,105.80000000000001,442.25,105.80000000000001C444.6666666666667,105.80000000000001,447.0833333333333,105.80000000000001,449.5,105.80000000000001C451.9166666666667,105.80000000000001,454.3333333333333,105.80000000000001,456.75,105.80000000000001C459.1666666666667,105.80000000000001,461.5833333333333,105.80000000000001,464,105.80000000000001C466.4166666666667,105.80000000000001,468.8333333333333,105.80000000000001,471.25,105.80000000000001C473.6666666666667,105.80000000000001,476.0833333333333,105.80000000000001,478.5,105.80000000000001C480.9166666666667,105.80000000000001,483.33333333333337,105.80000000000001,485.75000000000006,105.80000000000001C488.16666666666674,105.80000000000001,490.58333333333337,105.80000000000001,493.00000000000006,105.80000000000001C495.4166666666667,105.80000000000001,497.8333333333333,105.80000000000001,500.24999999999994,105.80000000000001C502.66666666666663,105.80000000000001,505.08333333333326,105.80000000000001,507.49999999999994,105.80000000000001C509.91666666666663,105.80000000000001,512.3333333333333,105.80000000000001,514.75,105.80000000000001C517.1666666666666,105.80000000000001,519.5833333333334,105.80000000000001,522,105.80000000000001C524.4166666666666,105.80000000000001,526.8333333333334,105.80000000000001,529.25,105.80000000000001C531.6666666666666,105.80000000000001,534.0833333333334,105.80000000000001,536.5,105.80000000000001C538.9166666666666,105.80000000000001,541.3333333333334,105.80000000000001,543.75,105.80000000000001C546.1666666666666,105.80000000000001,548.5833333333334,105.80000000000001,551,105.80000000000001C553.4166666666666,105.80000000000001,555.8333333333334,105.80000000000001,558.25,105.80000000000001C560.6666666666666,105.80000000000001,563.0833333333334,105.80000000000001,565.5,105.80000000000001C567.9166666666666,105.80000000000001,570.3333333333334,105.80000000000001,572.75,105.80000000000001C575.1666666666666,105.80000000000001,577.5833333333334,105.80000000000001,580,105.80000000000001C582.4166666666666,105.80000000000001,584.8333333333334,105.80000000000001,587.25,105.80000000000001C589.6666666666666,105.80000000000001,592.0833333333334,105.80000000000001,594.5,105.80000000000001C596.9166666666666,105.80000000000001,599.3333333333334,105.80000000000001,601.75,105.80000000000001C604.1666666666666,105.80000000000001,606.5833333333334,105.80000000000001,609,105.80000000000001C611.4166666666666,105.80000000000001,613.8333333333334,105.80000000000001,616.25,105.80000000000001C618.6666666666666,105.80000000000001,621.0833333333334,105.80000000000001,623.5,105.80000000000001C625.9166666666666,105.80000000000001,628.3333333333334,105.80000000000001,630.75,105.80000000000001C633.1666666666666,105.80000000000001,635.5833333333334,105.80000000000001,638,105.80000000000001C640.4166666666666,105.80000000000001,642.8333333333334,105.80000000000001,645.25,105.80000000000001C647.6666666666666,105.80000000000001,650.0833333333334,105.80000000000001,652.5,105.80000000000001C654.9166666666666,105.80000000000001,657.3333333333334,105.80000000000001,659.75,105.80000000000001C662.1666666666666,105.80000000000001,664.5833333333334,105.80000000000001,667,105.80000000000001C669.4166666666666,105.80000000000001,671.8333333333334,105.80000000000001,674.25,105.80000000000001C676.6666666666666,105.80000000000001,679.0833333333334,105.80000000000001,681.5,105.80000000000001C683.9166666666666,105.80000000000001,686.3333333333334,105.80000000000001,688.75,105.80000000000001C691.1666666666666,105.80000000000001,693.5833333333334,105.80000000000001,696,105.80000000000001C698.4166666666666,105.80000000000001,700.8333333333334,105.80000000000001,703.25,105.80000000000001C705.6666666666666,105.80000000000001,708.0833333333334,105.80000000000001,710.5,105.80000000000001C712.9166666666666,105.80000000000001,715.3333333333334,105.80000000000001,717.75,105.80000000000001C720.1666666666666,105.80000000000001,722.5833333333334,105.80000000000001,725,105.80000000000001C727.4166666666666,105.80000000000001,729.8333333333334,105.80000000000001,732.25,105.80000000000001C734.6666666666666,105.80000000000001,737.0833333333334,105.80000000000001,739.5,105.80000000000001C741.9166666666666,105.80000000000001,744.3333333333334,105.80000000000001,746.75,105.80000000000001C749.1666666666666,105.80000000000001,751.5833333333334,105.80000000000001,754,105.80000000000001C756.4166666666666,105.80000000000001,758.8333333333334,105.80000000000001,761.25,105.80000000000001C763.6666666666666,105.80000000000001,766.0833333333334,105.80000000000001,768.5,105.80000000000001C770.9166666666666,105.80000000000001,773.3333333333334,105.80000000000001,775.75,105.80000000000001C778.1666666666666,105.80000000000001,780.5833333333334,105.80000000000001,783,105.80000000000001C785.4166666666667,105.80000000000001,787.8333333333334,105.80000000000001,790.2500000000001,105.80000000000001C792.6666666666667,105.80000000000001,795.0833333333335,105.80000000000001,797.5000000000001,105.80000000000001C799.9166666666667,105.80000000000001,802.3333333333335,105.80000000000001,804.7500000000001,105.80000000000001C807.1666666666667,105.80000000000001,809.5833333333335,105.80000000000001,812.0000000000001,105.80000000000001C814.4166666666667,105.80000000000001,816.8333333333333,105.80000000000001,819.2499999999999,105.80000000000001C821.6666666666665,105.80000000000001,824.0833333333333,105.80000000000001,826.4999999999999,105.80000000000001C828.9166666666665,105.80000000000001,831.3333333333333,105.80000000000001,833.7499999999999,105.80000000000001C836.1666666666665,105.80000000000001,838.5833333333333,105.80000000000001,840.9999999999999,105.80000000000001C843.4166666666666,105.80000000000001,845.8333333333333,105.80000000000001,848.25,105.80000000000001C850.6666666666666,105.80000000000001,853.0833333333334,105.80000000000001,855.5,105.80000000000001C857.9166666666666,105.80000000000001,860.3333333333334,105.80000000000001,862.75,105.80000000000001C865.1666666666666,105.80000000000001,867.5833333333334,105.80000000000001,870,105.80000000000001C872.4166666666666,105.80000000000001,874.8333333333334,105.80000000000001,877.25,105.80000000000001C879.6666666666666,105.80000000000001,882.0833333333334,105.80000000000001,884.5,105.80000000000001C886.9166666666666,105.80000000000001,889.3333333333334,105.80000000000001,891.75,105.80000000000001C894.1666666666666,105.80000000000001,896.5833333333334,105.80000000000001,899,105.80000000000001C901.4166666666666,105.80000000000001,903.8333333333334,105.80000000000001,906.25,105.80000000000001C908.6666666666666,105.80000000000001,911.0833333333334,105.80000000000001,913.5,105.80000000000001C915.9166666666666,105.80000000000001,918.3333333333334,105.80000000000001,920.75,105.80000000000001C923.1666666666666,105.80000000000001,925.5833333333334,105.80000000000001,928,105.80000000000001C930.4166666666666,105.80000000000001,932.8333333333334,105.80000000000001,935.25,105.80000000000001C937.6666666666666,105.80000000000001,940.0833333333334,105.80000000000001,942.5,105.80000000000001C944.9166666666666,105.80000000000001,947.3333333333334,105.80000000000001,949.75,105.80000000000001C952.1666666666666,105.80000000000001,954.5833333333334,105.80000000000001,957,105.80000000000001C959.4166666666666,105.80000000000001,961.8333333333334,105.80000000000001,964.25,105.80000000000001C966.6666666666667,105.80000000000001,969.0833333333334,105.80000000000001,971.5000000000001,105.80000000000001C973.9166666666667,105.80000000000001,976.3333333333335,105.80000000000001,978.7500000000001,105.80000000000001C981.1666666666667,105.80000000000001,983.5833333333335,105.80000000000001,986.0000000000001,105.80000000000001C988.4166666666667,105.80000000000001,990.8333333333335,105.80000000000001,993.2500000000001,105.80000000000001C995.6666666666667,105.80000000000001,998.0833333333333,105.80000000000001,1000.4999999999999,105.80000000000001C1002.9166666666665,105.80000000000001,1005.3333333333333,105.80000000000001,1007.7499999999999,105.80000000000001C1010.1666666666665,105.80000000000001,1012.5833333333333,105.80000000000001,1014.9999999999999,105.80000000000001C1017.4166666666665,105.80000000000001,1019.8333333333333,105.80000000000001,1022.2499999999999,105.80000000000001C1024.6666666666665,105.80000000000001,1027.0833333333333,105.80000000000001,1029.5,105.80000000000001C1031.9166666666667,105.80000000000001,1034.3333333333333,105.80000000000001,1036.75,105.80000000000001C1039.1666666666667,105.80000000000001,1041.5833333333333,105.80000000000001,1044,105.80000000000001C1046.4166666666667,105.80000000000001,1048.8333333333333,105.80000000000001,1051.25,105.80000000000001C1053.6666666666667,105.80000000000001,1056.0833333333333,105.80000000000001,1058.5,105.80000000000001C1060.9166666666667,105.80000000000001,1063.3333333333333,105.80000000000001,1065.75,105.80000000000001C1068.1666666666667,105.80000000000001,1070.5833333333333,105.80000000000001,1073,105.80000000000001C1075.4166666666667,105.80000000000001,1077.8333333333333,105.80000000000001,1080.25,105.80000000000001C1082.6666666666667,105.80000000000001,1085.0833333333333,105.80000000000001,1087.5,105.80000000000001C1089.9166666666667,105.80000000000001,1092.3333333333333,105.80000000000001,1094.75,105.80000000000001C1097.1666666666667,105.80000000000001,1099.5833333333333,105.80000000000001,1102,105.80000000000001C1104.4166666666667,105.80000000000001,1106.8333333333333,105.80000000000001,1109.25,105.80000000000001C1111.6666666666667,105.80000000000001,1114.0833333333333,105.80000000000001,1116.5,105.80000000000001C1118.9166666666667,105.80000000000001,1121.3333333333333,105.80000000000001,1123.75,105.80000000000001C1126.1666666666667,105.80000000000001,1128.5833333333333,105.80000000000001,1131,105.80000000000001C1133.4166666666667,105.80000000000001,1135.8333333333333,105.80000000000001,1138.25,105.80000000000001C1140.6666666666667,105.80000000000001,1143.0833333333333,105.80000000000001,1145.5,105.80000000000001C1147.9166666666667,105.80000000000001,1150.3333333333333,105.80000000000001,1152.75,105.80000000000001C1155.1666666666667,105.80000000000001,1157.5833333333333,105.80000000000001,1160,105.80000000000001C1162.4166666666667,105.80000000000001,1164.8333333333333,105.80000000000001,1167.25,105.80000000000001C1169.6666666666667,105.80000000000001,1172.0833333333333,105.80000000000001,1174.5,105.80000000000001C1176.9166666666667,105.80000000000001,1179.3333333333333,105.80000000000001,1181.75,105.80000000000001C1184.1666666666667,105.80000000000001,1186.5833333333333,105.80000000000001,1189,105.80000000000001C1191.4166666666667,105.80000000000001,1193.8333333333333,105.80000000000001,1196.25,105.80000000000001C1198.6666666666667,105.80000000000001,1201.0833333333333,105.80000000000001,1203.5,105.80000000000001C1205.9166666666667,105.80000000000001,1208.3333333333333,105.80000000000001,1210.75,105.80000000000001C1213.1666666666667,105.80000000000001,1215.5833333333333,105.80000000000001,1218,105.80000000000001C1220.4166666666667,105.80000000000001,1222.8333333333333,105.80000000000001,1225.25,105.80000000000001C1227.6666666666667,105.80000000000001,1230.0833333333333,105.80000000000001,1232.5,105.80000000000001C1234.9166666666667,105.80000000000001,1237.3333333333333,105.80000000000001,1239.75,105.80000000000001C1242.1666666666667,105.80000000000001,1244.5833333333333,105.80000000000001,1247,105.80000000000001C1249.4166666666667,105.80000000000001,1251.8333333333333,105.80000000000001,1254.25,105.80000000000001C1256.6666666666667,105.80000000000001,1259.0833333333333,105.80000000000001,1261.5,105.80000000000001C1263.9166666666667,105.80000000000001,1266.3333333333333,105.80000000000001,1268.75,105.80000000000001C1271.1666666666667,105.80000000000001,1273.5833333333333,105.80000000000001,1276,105.80000000000001C1278.4166666666667,105.80000000000001,1280.8333333333333,105.80000000000001,1283.25,105.80000000000001C1285.6666666666667,105.80000000000001,1288.0833333333333,105.80000000000001,1290.5,105.80000000000001C1292.9166666666667,105.80000000000001,1295.3333333333333,105.80000000000001,1297.75,105.80000000000001C1300.1666666666667,105.80000000000001,1302.5833333333333,105.80000000000001,1305,105.80000000000001C1307.4166666666667,105.80000000000001,1309.8333333333333,105.80000000000001,1312.25,105.80000000000001C1314.6666666666667,105.80000000000001,1317.0833333333333,105.80000000000001,1319.5,105.80000000000001C1321.9166666666667,105.80000000000001,1324.3333333333333,105.80000000000001,1326.75,105.80000000000001C1329.1666666666667,105.80000000000001,1331.5833333333333,105.80000000000001,1334,105.80000000000001C1336.4166666666667,105.80000000000001,1338.8333333333333,105.80000000000001,1341.25,105.80000000000001C1343.6666666666667,105.80000000000001,1346.0833333333333,105.80000000000001,1348.5,105.80000000000001C1350.9166666666667,105.80000000000001,1353.3333333333333,105.80000000000001,1355.75,105.80000000000001C1358.1666666666667,105.80000000000001,1360.5833333333333,105.80000000000001,1363,105.80000000000001C1365.4166666666667,105.80000000000001,1367.8333333333333,105.80000000000001,1370.25,105.80000000000001C1372.6666666666667,105.80000000000001,1375.0833333333333,105.80000000000001,1377.5,105.80000000000001C1379.9166666666667,105.80000000000001,1382.3333333333333,105.80000000000001,1384.75,105.80000000000001C1387.1666666666667,105.80000000000001,1389.5833333333333,105.80000000000001,1392,105.80000000000001C1394.4166666666667,105.80000000000001,1396.8333333333333,105.80000000000001,1399.25,105.80000000000001C1401.6666666666667,105.80000000000001,1404.0833333333333,105.80000000000001,1406.5,105.80000000000001C1408.9166666666667,105.80000000000001,1411.3333333333333,105.80000000000001,1413.75,105.80000000000001C1416.1666666666667,105.80000000000001,1418.5833333333333,105.80000000000001,1421,105.80000000000001C1423.4166666666667,105.80000000000001,1425.8333333333333,105.80000000000001,1428.25,105.80000000000001C1430.6666666666667,105.80000000000001,1433.0833333333333,105.80000000000001,1435.5,105.80000000000001C1437.9166666666667,105.80000000000001,1440.3333333333333,105.80000000000001,1442.75,105.80000000000001C1445.1666666666667,105.80000000000001,1447.5833333333333,105.80000000000001,1450,105.80000000000001" fill="transparent" stroke-linecap="round" stroke="#E7C6DF" stroke-width="2"></path><g class="visx-group visx-axis visx-axis-bottom" transform="translate(0, 115)"><g class="visx-group visx-axis-tick" transform="translate(0, 0)"><line class="visx-line" x1="0" y1="0" x2="0" y2="8" fill="transparent" shape-rendering="crispEdges" stroke="#000" stroke-width="0" stroke-linecap="square"></line><svg x="0" y="0" font-size="10" style="overflow:visible"><text transform="" x="0" y="18" fill="#000" font-size="10" text-anchor="middle"><tspan x="0" dy="0em">0%</tspan></text></svg></g><g class="visx-group visx-axis-tick" transform="translate(0, 0)"><line class="visx-line" x1="362.5" y1="0" x2="362.5" y2="8" fill="transparent" shape-rendering="crispEdges" stroke="#000" stroke-width="0" stroke-linecap="square"></line><svg x="0" y="0" font-size="10" style="overflow:visible"><text transform="" x="362.5" y="18" fill="#000" font-size="10" text-anchor="middle"><tspan x="362.5" dy="0em">25%</tspan></text></svg></g><g class="visx-group visx-axis-tick" transform="translate(0, 0)"><line class="visx-line" x1="725" y1="0" x2="725" y2="8" fill="transparent" shape-rendering="crispEdges" stroke="#000" stroke-width="0" stroke-linecap="square"></line><svg x="0" y="0" font-size="10" style="overflow:visible"><text transform="" x="725" y="18" fill="#000" font-size="10" text-anchor="middle"><tspan x="725" dy="0em">50%</tspan></text></svg></g><g class="visx-group visx-axis-tick" transform="translate(0, 0)"><line class="visx-line" x1="1087.5" y1="0" x2="1087.5" y2="8" fill="transparent" shape-rendering="crispEdges" stroke="#000" stroke-width="0" stroke-linecap="square"></line><svg x="0" y="0" font-size="10" style="overflow:visible"><text transform="" x="1087.5" y="18" fill="#000" font-size="10" text-anchor="middle"><tspan x="1087.5" dy="0em">75%</tspan></text></svg></g><g class="visx-group visx-axis-tick" transform="translate(0, 0)"><line class="visx-line" x1="1450" y1="0" x2="1450" y2="8" fill="transparent" shape-rendering="crispEdges" stroke="#000" stroke-width="0" stroke-linecap="square"></line><svg x="0" y="0" font-size="10" style="overflow:visible"><text transform="" x="1450" y="18" fill="#000" font-size="10" text-anchor="middle"><tspan x="1450" dy="0em">100%</tspan></text></svg></g><line class="visx-line visx-axis-line" x1="0.5" y1="0" x2="1450.5" y2="0" fill="transparent" shape-rendering="crispEdges" stroke="#222" stroke-width="0"></line></g><g class="visx-group visx-axis visx-axis-left" transform="translate(0, 0)"><g class="visx-group visx-axis-tick" transform="translate(0, 0)"><line class="visx-line" x1="0" y1="115" x2="-8" y2="115" fill="transparent" shape-rendering="crispEdges" stroke="#222" stroke-width="0" stroke-linecap="square"></line><svg x="-30" y="0" font-size="8" style="overflow:visible"><text transform="" x="-8" y="115" fill="#000" font-size="8" text-anchor="start"><tspan x="-8" dy="0em">0%</tspan></text></svg></g><g class="visx-group visx-axis-tick" transform="translate(0, 0)"><line class="visx-line" x1="0" y1="57.5" x2="-8" y2="57.5" fill="transparent" shape-rendering="crispEdges" stroke="#222" stroke-width="0" stroke-linecap="square"></line><svg x="-30" y="0" font-size="8" style="overflow:visible"><text transform="" x="-8" y="57.5" fill="#000" font-size="8" text-anchor="start"><tspan x="-8" dy="0em">100%</tspan></text></svg></g><g class="visx-group visx-axis-tick" transform="translate(0, 0)"><line class="visx-line" x1="0" y1="0" x2="-8" y2="0" fill="transparent" shape-rendering="crispEdges" stroke="#222" stroke-width="0" stroke-linecap="square"></line><svg x="-30" y="0" font-size="8" style="overflow:visible"><text transform="" x="-8" y="0" fill="#000" font-size="8" text-anchor="start"><tspan x="-8" dy="0em">200%</tspan></text></svg></g><line class="visx-line visx-axis-line" x1="0" y1="115.5" x2="0" y2="0.5" fill="transparent" shape-rendering="crispEdges" stroke="#222" stroke-width="0"></line></g><rect class="visx-bar" width="1450" height="115" fill="transparent"></rect><line class="visx-line" x1="1160" y1="28" x2="1160" y2="115" fill="transparent" shape-rendering="crispEdges" stroke="#0062D2" stroke-width="1" pointer-events="none" stroke-dasharray="5,2"></line><svg x="0" y="0" font-size="10px" style="overflow:visible"><text transform="" x="1160" y="20" font-size="10px" fill="#fff" stroke="#fff" stroke-width="0.8em" text-anchor="middle"><tspan x="1160" dy="0.355em">Optimal 80%</tspan></text></svg><svg x="0" y="0" font-size="10px" style="overflow:visible"><text transform="" x="1160" y="20" font-size="10px" fill="#62677B" text-anchor="middle"><tspan x="1160" dy="0.355em">Optimal 80%</tspan></text></svg></g></svg>