<?xml version="1.0"?><svg xmlns="http://www.w3.org/2000/svg" xmlns:xlink= "http://www.w3.org/1999/xlink" style="background: white;" width="1500" height="300"> <g style="color: black; font-size: 13px; font-family: sans-serif; transform: translate(18px, 25px);"><g><circle r="3" cx="-6" cy="-5" style="fill: #1AD4B3" /><text>Borrow APR, variable</text></g><g style="transform: translateX(150px);"><circle r="3" cx="-6" cy="-5" style="fill: #101423" /><text>Borrow APR, stable</text></g></g><g class="visx-group" transform="translate(45, 50)"><g class="visx-group visx-rows" transform="translate(0, 0)"><line class="visx-line" x1="0" y1="155" x2="1425" y2="155" fill="transparent" shape-rendering="crispEdges" stroke="#F2F0F9" stroke-width="1" pointer-events="none"></line><line class="visx-line" x1="0" y1="116.25" x2="1425" y2="116.25" fill="transparent" shape-rendering="crispEdges" stroke="#F2F0F9" stroke-width="1" pointer-events="none"></line><line class="visx-line" x1="0" y1="77.5" x2="1425" y2="77.5" fill="transparent" shape-rendering="crispEdges" stroke="#F2F0F9" stroke-width="1" pointer-events="none"></line><line class="visx-line" x1="0" y1="38.75" x2="1425" y2="38.75" fill="transparent" shape-rendering="crispEdges" stroke="#F2F0F9" stroke-width="1" pointer-events="none"></line><line class="visx-line" x1="0" y1="0" x2="1425" y2="0" fill="transparent" shape-rendering="crispEdges" stroke="#F2F0F9" stroke-width="1" pointer-events="none"></line></g><path class="visx-linepath" d="M0,0C2.375,9.687499999999991,4.75,19.374999999999982,7.125,19.374999999999982C9.5,19.374999999999982,11.875,19.374999999999982,14.25,19.374999999999982C16.625,19.374999999999982,19,19.374999999999982,21.375,19.374999999999982C23.75,19.374999999999982,26.125,19.374999999999982,28.5,19.374999999999982C30.875,19.374999999999982,33.25,19.374999999999982,35.625,19.374999999999982C38,19.374999999999982,40.375,19.374999999999982,42.75,19.374999999999982C45.125,19.374999999999982,47.50000000000001,19.374999999999982,49.87500000000001,19.374999999999982C52.25000000000001,19.374999999999982,54.625,19.374999999999982,57,19.374999999999982C59.375,19.374999999999982,61.75,19.374999999999982,64.125,19.374999999999982C66.5,19.374999999999982,68.875,19.374999999999982,71.25,19.374999999999982C73.625,19.374999999999982,76,19.374999999999982,78.375,19.374999999999982C80.75,19.374999999999982,83.125,19.374999999999982,85.5,19.374999999999982C87.875,19.374999999999982,90.25,19.374999999999982,92.625,19.374999999999982C95,19.374999999999982,97.37500000000001,19.374999999999982,99.75000000000001,19.374999999999982C102.12500000000001,19.374999999999982,104.5,19.374999999999982,106.875,19.374999999999982C109.25,19.374999999999982,111.625,19.374999999999982,114,19.374999999999982C116.375,19.374999999999982,118.75000000000001,19.374999999999982,121.12500000000001,19.374999999999982C123.50000000000001,19.374999999999982,125.875,19.374999999999982,128.25,19.374999999999982C130.625,19.374999999999982,133,19.374999999999982,135.375,19.374999999999982C137.75,19.374999999999982,140.125,19.374999999999982,142.5,19.374999999999982C144.875,19.374999999999982,147.25,19.374999999999982,149.625,19.374999999999982C152,19.374999999999982,154.375,19.374999999999982,156.75,19.374999999999982C159.125,19.374999999999982,161.5,19.374999999999982,163.875,19.374999999999982C166.25,19.374999999999982,168.625,19.374999999999982,171,19.374999999999982C173.375,19.374999999999982,175.75,19.374999999999982,178.125,19.374999999999982C180.5,19.374999999999982,182.875,19.374999999999982,185.25,19.374999999999982C187.625,19.374999999999982,190,19.374999999999982,192.375,19.374999999999982C194.75,19.374999999999982,197.12500000000003,19.374999999999982,199.50000000000003,19.374999999999982C201.875,19.374999999999982,204.25,19.374999999999982,206.62499999999997,19.374999999999982C208.99999999999997,19.374999999999982,211.375,19.374999999999982,213.75,19.374999999999982C216.125,19.374999999999982,218.5,19.374999999999982,220.875,19.374999999999982C223.25,19.374999999999982,225.625,19.374999999999982,228,19.374999999999982C230.375,19.374999999999982,232.75,19.374999999999982,235.125,19.374999999999982C237.5,19.374999999999982,239.87500000000003,19.374999999999982,242.25000000000003,19.374999999999982C244.625,19.374999999999982,247,19.374999999999982,249.37499999999997,19.374999999999982C251.74999999999997,19.374999999999982,254.125,19.374999999999982,256.5,19.374999999999982C258.875,19.374999999999982,261.25,19.374999999999982,263.625,19.374999999999982C266,19.374999999999982,268.375,19.374999999999982,270.75,19.374999999999982C273.125,19.374999999999982,275.5,19.374999999999982,277.875,19.374999999999982C280.25,19.374999999999982,282.625,19.374999999999982,285,19.374999999999982C287.375,19.374999999999982,289.75,19.374999999999982,292.125,19.374999999999982C294.5,19.374999999999982,296.875,19.374999999999982,299.25,19.374999999999982C301.625,19.374999999999982,304,19.374999999999982,306.375,19.374999999999982C308.75,19.374999999999982,311.125,19.374999999999982,313.5,19.374999999999982C315.875,19.374999999999982,318.25,19.374999999999982,320.625,19.374999999999982C323,19.374999999999982,325.375,19.374999999999982,327.75,19.374999999999982C330.125,19.374999999999982,332.5,19.374999999999982,334.875,19.374999999999982C337.25,19.374999999999982,339.625,19.374999999999982,342,19.374999999999982C344.375,19.374999999999982,346.75,19.374999999999982,349.125,19.374999999999982C351.5,19.374999999999982,353.875,19.374999999999982,356.25,19.374999999999982C358.625,19.374999999999982,361,19.374999999999982,363.375,19.374999999999982C365.75,19.374999999999982,368.125,19.374999999999982,370.5,19.374999999999982C372.875,19.374999999999982,375.25,19.374999999999982,377.625,19.374999999999982C380,19.374999999999982,382.375,19.374999999999982,384.75,19.374999999999982C387.125,19.374999999999982,389.50000000000006,19.374999999999982,391.87500000000006,19.374999999999982C394.25000000000006,19.374999999999982,396.62500000000006,19.374999999999982,399.00000000000006,19.374999999999982C401.375,19.374999999999982,403.75,19.374999999999982,406.12499999999994,19.374999999999982C408.49999999999994,19.374999999999982,410.87499999999994,19.374999999999982,413.24999999999994,19.374999999999982C415.62499999999994,19.374999999999982,418,19.374999999999982,420.375,19.374999999999982C422.75,19.374999999999982,425.125,19.374999999999982,427.5,19.374999999999982C429.875,19.374999999999982,432.25,19.374999999999982,434.625,19.374999999999982C437,19.374999999999982,439.375,19.374999999999982,441.75,19.374999999999982C444.125,19.374999999999982,446.5,19.374999999999982,448.875,19.374999999999982C451.25,19.374999999999982,453.625,19.374999999999982,456,19.374999999999982C458.375,19.374999999999982,460.75,19.374999999999982,463.125,19.374999999999982C465.5,19.374999999999982,467.875,19.374999999999982,470.25,19.374999999999982C472.625,19.374999999999982,475.00000000000006,19.374999999999982,477.37500000000006,19.374999999999982C479.75000000000006,19.374999999999982,482.12500000000006,19.374999999999982,484.50000000000006,19.374999999999982C486.875,19.374999999999982,489.25,19.374999999999982,491.62499999999994,19.374999999999982C493.99999999999994,19.374999999999982,496.37499999999994,19.374999999999982,498.74999999999994,19.374999999999982C501.12499999999994,19.374999999999982,503.5,19.374999999999982,505.875,19.374999999999982C508.25,19.374999999999982,510.625,19.374999999999982,513,19.374999999999982C515.375,19.374999999999982,517.75,19.374999999999982,520.125,19.374999999999982C522.5,19.374999999999982,524.875,19.374999999999982,527.25,19.374999999999982C529.625,19.374999999999982,532,19.374999999999982,534.375,19.374999999999982C536.75,19.374999999999982,539.125,19.374999999999982,541.5,19.374999999999982C543.875,19.374999999999982,546.25,19.374999999999982,548.625,19.374999999999982C551,19.374999999999982,553.375,19.374999999999982,555.75,19.374999999999982C558.125,19.374999999999982,560.5,19.374999999999982,562.875,19.374999999999982C565.25,19.374999999999982,567.625,19.374999999999982,570,19.374999999999982C572.375,19.374999999999982,574.75,19.374999999999982,577.125,19.374999999999982C579.5,19.374999999999982,581.875,19.374999999999982,584.25,19.374999999999982C586.625,19.374999999999982,589,19.374999999999982,591.375,19.374999999999982C593.75,19.374999999999982,596.125,19.374999999999982,598.5,19.374999999999982C600.875,19.374999999999982,603.25,19.374999999999982,605.625,19.374999999999982C608,19.374999999999982,610.375,19.374999999999982,612.75,19.374999999999982C615.125,19.374999999999982,617.5,19.374999999999982,619.875,19.374999999999982C622.25,19.374999999999982,624.625,19.374999999999982,627,19.374999999999982C629.375,19.374999999999982,631.75,19.374999999999982,634.125,19.374999999999982C636.5,19.374999999999982,638.875,19.374999999999982,641.25,19.374999999999982C643.625,19.374999999999982,646,19.374999999999982,648.375,19.374999999999982C650.75,19.374999999999982,653.125,19.374999999999982,655.5,19.374999999999982C657.875,19.374999999999982,660.25,19.374999999999982,662.625,19.374999999999982C665,19.374999999999982,667.375,19.374999999999982,669.75,19.374999999999982C672.125,19.374999999999982,674.5,19.374999999999982,676.875,19.374999999999982C679.25,19.374999999999982,681.625,19.374999999999982,684,19.374999999999982C686.375,19.374999999999982,688.75,19.374999999999982,691.125,19.374999999999982C693.5,19.374999999999982,695.875,19.374999999999982,698.25,19.374999999999982C700.625,19.374999999999982,703,19.374999999999982,705.375,19.374999999999982C707.75,19.374999999999982,710.125,19.374999999999982,712.5,19.374999999999982C714.875,19.374999999999982,717.25,19.374999999999982,719.625,19.374999999999982C722,19.374999999999982,724.375,19.374999999999982,726.75,19.374999999999982C729.125,19.374999999999982,731.5,19.374999999999982,733.875,19.374999999999982C736.25,19.374999999999982,738.625,19.374999999999982,741,19.374999999999982C743.375,19.374999999999982,745.75,19.374999999999982,748.125,19.374999999999982C750.5,19.374999999999982,752.875,19.374999999999982,755.25,19.374999999999982C757.625,19.374999999999982,760,19.374999999999982,762.375,19.374999999999982C764.75,19.374999999999982,767.125,19.374999999999982,769.5,19.374999999999982C771.875,19.374999999999982,774.2500000000001,19.374999999999982,776.6250000000001,19.374999999999982C779.0000000000001,19.374999999999982,781.3750000000001,19.374999999999982,783.7500000000001,19.374999999999982C786.1250000000001,19.374999999999982,788.5000000000001,19.374999999999982,790.8750000000001,19.374999999999982C793.2500000000001,19.374999999999982,795.6250000000001,19.374999999999982,798.0000000000001,19.374999999999982C800.375,19.374999999999982,802.75,19.374999999999982,805.1249999999999,19.374999999999982C807.4999999999999,19.374999999999982,809.8749999999999,19.374999999999982,812.2499999999999,19.374999999999982C814.6249999999999,19.374999999999982,816.9999999999999,19.374999999999982,819.3749999999999,19.374999999999982C821.7499999999999,19.374999999999982,824.1249999999999,19.374999999999982,826.4999999999999,19.374999999999982C828.8749999999999,19.374999999999982,831.25,19.374999999999982,833.625,19.374999999999982C836,19.374999999999982,838.375,19.374999999999982,840.75,19.374999999999982C843.125,19.374999999999982,845.5,19.374999999999982,847.875,19.374999999999982C850.25,19.374999999999982,852.625,19.374999999999982,855,19.374999999999982C857.375,19.374999999999982,859.75,19.374999999999982,862.125,19.374999999999982C864.5,19.374999999999982,866.875,19.374999999999982,869.25,19.374999999999982C871.625,19.374999999999982,874,19.374999999999982,876.375,19.374999999999982C878.75,19.374999999999982,881.125,19.374999999999982,883.5,19.374999999999982C885.875,19.374999999999982,888.25,19.374999999999982,890.625,19.374999999999982C893,19.374999999999982,895.375,19.374999999999982,897.75,19.374999999999982C900.125,19.374999999999982,902.5,19.374999999999982,904.875,19.374999999999982C907.25,19.374999999999982,909.625,19.374999999999982,912,19.374999999999982C914.375,19.374999999999982,916.75,19.374999999999982,919.125,19.374999999999982C921.5,19.374999999999982,923.875,19.374999999999982,926.25,19.374999999999982C928.625,19.374999999999982,931,19.374999999999982,933.375,19.374999999999982C935.75,19.374999999999982,938.125,19.374999999999982,940.5,19.374999999999982C942.875,19.374999999999982,945.25,19.374999999999982,947.625,19.374999999999982C950,19.374999999999982,952.3750000000001,19.374999999999982,954.7500000000001,19.374999999999982C957.1250000000001,19.374999999999982,959.5000000000001,19.374999999999982,961.8750000000001,19.374999999999982C964.2500000000001,19.374999999999982,966.6250000000001,19.374999999999982,969.0000000000001,19.374999999999982C971.3750000000001,19.374999999999982,973.7500000000001,19.374999999999982,976.1250000000001,19.374999999999982C978.5,19.374999999999982,980.875,19.374999999999982,983.2499999999999,19.374999999999982C985.6249999999999,19.374999999999982,987.9999999999999,19.374999999999982,990.3749999999999,19.374999999999982C992.7499999999999,19.374999999999982,995.1249999999999,19.374999999999982,997.4999999999999,19.374999999999982C999.8749999999999,19.374999999999982,1002.2499999999999,19.374999999999982,1004.6249999999999,19.374999999999982C1006.9999999999999,19.374999999999982,1009.375,19.374999999999982,1011.75,19.374999999999982C1014.125,19.374999999999982,1016.5,19.374999999999982,1018.875,19.374999999999982C1021.25,19.374999999999982,1023.625,19.374999999999982,1026,19.374999999999982C1028.375,19.374999999999982,1030.75,19.374999999999982,1033.125,19.374999999999982C1035.5,19.374999999999982,1037.875,19.374999999999982,1040.25,19.374999999999982C1042.625,19.374999999999982,1045,19.374999999999982,1047.375,19.374999999999982C1049.75,19.374999999999982,1052.125,19.374999999999982,1054.5,19.374999999999982C1056.875,19.374999999999982,1059.25,19.374999999999982,1061.625,19.374999999999982C1064,19.374999999999982,1066.375,19.374999999999982,1068.75,19.374999999999982C1071.125,19.374999999999982,1073.5,19.374999999999982,1075.875,19.374999999999982C1078.25,19.374999999999982,1080.625,19.374999999999982,1083,19.374999999999982C1085.375,19.374999999999982,1087.75,19.374999999999982,1090.125,19.374999999999982C1092.5,19.374999999999982,1094.875,19.374999999999982,1097.25,19.374999999999982C1099.625,19.374999999999982,1102,19.374999999999982,1104.375,19.374999999999982C1106.75,19.374999999999982,1109.125,19.374999999999982,1111.5,19.374999999999982C1113.875,19.374999999999982,1116.25,19.374999999999982,1118.625,19.374999999999982C1121,19.374999999999982,1123.375,19.374999999999982,1125.75,19.374999999999982C1128.125,19.374999999999982,1130.5,19.374999999999982,1132.875,19.374999999999982C1135.25,19.374999999999982,1137.625,19.374999999999982,1140,19.374999999999982C1142.375,19.374999999999982,1144.75,19.374999999999982,1147.125,19.374999999999982C1149.5,19.374999999999982,1151.875,19.374999999999982,1154.25,19.374999999999982C1156.625,19.374999999999982,1159,19.374999999999982,1161.375,19.374999999999982C1163.75,19.374999999999982,1166.125,19.374999999999982,1168.5,19.374999999999982C1170.875,19.374999999999982,1173.25,19.374999999999982,1175.625,19.374999999999982C1178,19.374999999999982,1180.375,19.374999999999982,1182.75,19.374999999999982C1185.125,19.374999999999982,1187.5,19.374999999999982,1189.875,19.374999999999982C1192.25,19.374999999999982,1194.625,19.374999999999982,1197,19.374999999999982C1199.375,19.374999999999982,1201.75,19.374999999999982,1204.125,19.374999999999982C1206.5,19.374999999999982,1208.875,19.374999999999982,1211.25,19.374999999999982C1213.625,19.374999999999982,1216,19.374999999999982,1218.375,19.374999999999982C1220.75,19.374999999999982,1223.125,19.374999999999982,1225.5,19.374999999999982C1227.875,19.374999999999982,1230.25,19.374999999999982,1232.625,19.374999999999982C1235,19.374999999999982,1237.375,19.374999999999982,1239.75,19.374999999999982C1242.125,19.374999999999982,1244.5,19.374999999999982,1246.875,19.374999999999982C1249.25,19.374999999999982,1251.625,19.374999999999982,1254,19.374999999999982C1256.375,19.374999999999982,1258.75,19.374999999999982,1261.125,19.374999999999982C1263.5,19.374999999999982,1265.875,19.374999999999982,1268.25,19.374999999999982C1270.625,19.374999999999982,1273,19.374999999999982,1275.375,19.374999999999982C1277.75,19.374999999999982,1280.125,19.374999999999982,1282.5,19.374999999999982C1284.875,19.374999999999982,1287.25,19.374999999999982,1289.625,19.374999999999982C1292,19.374999999999982,1294.375,19.374999999999982,1296.75,19.374999999999982C1299.125,19.374999999999982,1301.5,19.374999999999982,1303.875,19.374999999999982C1306.25,19.374999999999982,1308.625,19.374999999999982,1311,19.374999999999982C1313.375,19.374999999999982,1315.75,19.374999999999982,1318.125,19.374999999999982C1320.5,19.374999999999982,1322.875,19.374999999999982,1325.25,19.374999999999982C1327.625,19.374999999999982,1330,19.374999999999982,1332.375,19.374999999999982C1334.75,19.374999999999982,1337.125,19.374999999999982,1339.5,19.374999999999982C1341.875,19.374999999999982,1344.25,19.374999999999982,1346.625,19.374999999999982C1349,19.374999999999982,1351.375,19.374999999999982,1353.75,19.374999999999982C1356.125,19.374999999999982,1358.5,19.374999999999982,1360.875,19.374999999999982C1363.25,19.374999999999982,1365.625,19.374999999999982,1368,19.374999999999982C1370.375,19.374999999999982,1372.75,19.374999999999982,1375.125,19.374999999999982C1377.5,19.374999999999982,1379.875,19.374999999999982,1382.25,19.374999999999982C1384.625,19.374999999999982,1387,19.374999999999982,1389.375,19.374999999999982C1391.75,19.374999999999982,1394.125,19.374999999999982,1396.5,19.374999999999982C1398.875,19.374999999999982,1401.25,19.374999999999982,1403.625,19.374999999999982C1406,19.374999999999982,1408.375,19.374999999999982,1410.75,19.374999999999982C1413.125,19.374999999999982,1415.5,19.374999999999982,1417.875,19.374999999999982C1420.25,19.374999999999982,1422.625,19.374999999999982,1425,19.374999999999982" fill="transparent" stroke-linecap="round" stroke="#1AD4B3" stroke-width="2"></path><g class="visx-group visx-axis visx-axis-bottom" transform="translate(0, 155)"><g class="visx-group visx-axis-tick" transform="translate(0, 0)"><line class="visx-line" x1="0" y1="0" x2="0" y2="8" fill="transparent" shape-rendering="crispEdges" stroke="#F2F0F9" stroke-width="1" stroke-linecap="square"></line><svg x="0" y="0" font-size="11" style="overflow:visible"><text transform="" x="0" y="19" fill="#1B2030" font-size="11" text-anchor="middle"><tspan x="0" dy="0em">0%</tspan></text></svg></g><g class="visx-group visx-axis-tick" transform="translate(0, 0)"><line class="visx-line" x1="356.25" y1="0" x2="356.25" y2="8" fill="transparent" shape-rendering="crispEdges" stroke="#F2F0F9" stroke-width="1" stroke-linecap="square"></line><svg x="0" y="0" font-size="11" style="overflow:visible"><text transform="" x="356.25" y="19" fill="#1B2030" font-size="11" text-anchor="middle"><tspan x="356.25" dy="0em">25%</tspan></text></svg></g><g class="visx-group visx-axis-tick" transform="translate(0, 0)"><line class="visx-line" x1="712.5" y1="0" x2="712.5" y2="8" fill="transparent" shape-rendering="crispEdges" stroke="#F2F0F9" stroke-width="1" stroke-linecap="square"></line><svg x="0" y="0" font-size="11" style="overflow:visible"><text transform="" x="712.5" y="19" fill="#1B2030" font-size="11" text-anchor="middle"><tspan x="712.5" dy="0em">50%</tspan></text></svg></g><g class="visx-group visx-axis-tick" transform="translate(0, 0)"><line class="visx-line" x1="1068.75" y1="0" x2="1068.75" y2="8" fill="transparent" shape-rendering="crispEdges" stroke="#F2F0F9" stroke-width="1" stroke-linecap="square"></line><svg x="0" y="0" font-size="11" style="overflow:visible"><text transform="" x="1068.75" y="19" fill="#1B2030" font-size="11" text-anchor="middle"><tspan x="1068.75" dy="0em">75%</tspan></text></svg></g><g class="visx-group visx-axis-tick" transform="translate(0, 0)"><line class="visx-line" x1="1425" y1="0" x2="1425" y2="8" fill="transparent" shape-rendering="crispEdges" stroke="#F2F0F9" stroke-width="1" stroke-linecap="square"></line><svg x="0" y="0" font-size="11" style="overflow:visible"><text transform="" x="1425" y="19" fill="#1B2030" font-size="11" text-anchor="middle"><tspan x="1425" dy="0em">100%</tspan></text></svg></g></g><g class="visx-group visx-axis visx-axis-left" transform="translate(0, 0)"><g class="visx-group visx-axis-tick" transform="translate(0, 0)"><line class="visx-line" x1="0" y1="155" x2="-8" y2="155" fill="transparent" shape-rendering="crispEdges" stroke="#F2F0F9" stroke-width="1" stroke-linecap="square"></line><svg x="-30" y="0" font-size="11" style="overflow:visible"><text transform="" x="-8" y="155" fill="#1B2030" font-size="11" text-anchor="start"><tspan x="-8" dy="0em">0%</tspan></text></svg></g><g class="visx-group visx-axis-tick" transform="translate(0, 0)"><line class="visx-line" x1="0" y1="116.25" x2="-8" y2="116.25" fill="transparent" shape-rendering="crispEdges" stroke="#F2F0F9" stroke-width="1" stroke-linecap="square"></line><svg x="-30" y="0" font-size="11" style="overflow:visible"><text transform="" x="-8" y="116.25" fill="#1B2030" font-size="11" text-anchor="start"><tspan x="-8" dy="0em">2%</tspan></text></svg></g><g class="visx-group visx-axis-tick" transform="translate(0, 0)"><line class="visx-line" x1="0" y1="77.5" x2="-8" y2="77.5" fill="transparent" shape-rendering="crispEdges" stroke="#F2F0F9" stroke-width="1" stroke-linecap="square"></line><svg x="-30" y="0" font-size="11" style="overflow:visible"><text transform="" x="-8" y="77.5" fill="#1B2030" font-size="11" text-anchor="start"><tspan x="-8" dy="0em">4%</tspan></text></svg></g><g class="visx-group visx-axis-tick" transform="translate(0, 0)"><line class="visx-line" x1="0" y1="38.75" x2="-8" y2="38.75" fill="transparent" shape-rendering="crispEdges" stroke="#F2F0F9" stroke-width="1" stroke-linecap="square"></line><svg x="-30" y="0" font-size="11" style="overflow:visible"><text transform="" x="-8" y="38.75" fill="#1B2030" font-size="11" text-anchor="start"><tspan x="-8" dy="0em">6%</tspan></text></svg></g><g class="visx-group visx-axis-tick" transform="translate(0, 0)"><line class="visx-line" x1="0" y1="0" x2="-8" y2="0" fill="transparent" shape-rendering="crispEdges" stroke="#F2F0F9" stroke-width="1" stroke-linecap="square"></line><svg x="-30" y="0" font-size="11" style="overflow:visible"><text transform="" x="-8" y="0" fill="#1B2030" font-size="11" text-anchor="start"><tspan x="-8" dy="0em">8%</tspan></text></svg></g><line class="visx-line visx-axis-line" x1="0" y1="155.5" x2="0" y2="0.5" fill="transparent" shape-rendering="crispEdges" stroke="#F2F0F9" stroke-width="1"></line></g><rect class="visx-bar" width="1425" height="155" fill="transparent"></rect><line class="visx-line" x1="0" y1="58" x2="0" y2="155" fill="transparent" shape-rendering="crispEdges" stroke="#CDC8E1" stroke-width="1" pointer-events="none" stroke-dasharray="5"></line><svg x="0" y="0" font-size="11px" style="overflow:visible"><text transform="" x="0" y="50" font-size="11px" fill="#555069" stroke="#FFFFFF" stroke-width="1px" text-anchor="middle"><tspan x="0" dy="0.355em">Optimal utilization 0%</tspan></text></svg><svg x="0" y="0" font-size="11px" style="overflow:visible"><text transform="" x="0" y="50" font-size="11px" fill="#CDC8E1" text-anchor="middle"><tspan x="0" dy="0.355em">Optimal utilization 0%</tspan></text></svg></g></svg>