<?xml version="1.0"?><svg xmlns="http://www.w3.org/2000/svg" xmlns:xlink= "http://www.w3.org/1999/xlink" width="1500" height="155"><g class="visx-group" transform="translate(40, 20)"><g class="visx-group visx-rows" transform="translate(0, 0)"><line class="visx-line" x1="0" y1="115" x2="1450" y2="115" fill="transparent" shape-rendering="crispEdges" stroke="#000" stroke-width="1" stroke-dasharray="3,3" pointer-events="none"></line><line class="visx-line" x1="0" y1="89.44444444444444" x2="1450" y2="89.44444444444444" fill="transparent" shape-rendering="crispEdges" stroke="#000" stroke-width="1" stroke-dasharray="3,3" pointer-events="none"></line><line class="visx-line" x1="0" y1="63.88888888888889" x2="1450" y2="63.88888888888889" fill="transparent" shape-rendering="crispEdges" stroke="#000" stroke-width="1" stroke-dasharray="3,3" pointer-events="none"></line><line class="visx-line" x1="0" y1="38.333333333333336" x2="1450" y2="38.333333333333336" fill="transparent" shape-rendering="crispEdges" stroke="#000" stroke-width="1" stroke-dasharray="3,3" pointer-events="none"></line><line class="visx-line" x1="0" y1="12.777777777777784" x2="1450" y2="12.777777777777784" fill="transparent" shape-rendering="crispEdges" stroke="#000" stroke-width="1" stroke-dasharray="3,3" pointer-events="none"></line></g><path class="visx-linepath" d="M0,114.99999999994321C2.4166666666666665,114.99053497939074,4.833333333333334,114.98106995883828,7.25,114.97160493827161C9.666666666666666,114.96213991770495,12.083333333333334,114.95267489711934,14.5,114.94320987654321C16.916666666666668,114.93374485596708,19.333333333333332,114.92427983539095,21.75,114.91481481481482C24.166666666666668,114.90534979423869,26.583333333333332,114.89588477366254,29,114.88641975308641C31.416666666666668,114.87695473251028,33.833333333333336,114.86748971193416,36.25,114.85802469135803C38.666666666666664,114.8485596707819,41.083333333333336,114.83909465020575,43.5,114.82962962962962C45.91666666666667,114.82016460905349,48.333333333333336,114.81069958847736,50.75000000000001,114.80123456790123C53.16666666666667,114.7917695473251,55.583333333333336,114.78230452674897,58,114.77283950617284C60.416666666666664,114.76337448559671,62.833333333333336,114.75390946502057,65.25,114.74444444444444C67.66666666666667,114.73497942386831,70.08333333333333,114.72551440329218,72.5,114.71604938271605C74.91666666666667,114.70658436213992,77.33333333333333,114.69711934156378,79.75,114.68765432098765C82.16666666666667,114.67818930041152,84.58333333333333,114.66872427983539,87,114.65925925925926C89.41666666666667,114.64979423868313,91.83333333333333,114.64032921810698,94.25,114.63086419753085C96.66666666666667,114.62139917695472,99.08333333333334,114.6119341563786,101.50000000000001,114.60246913580247C103.91666666666667,114.59300411522634,106.33333333333334,114.5835390946502,108.75,114.57407407407408C111.16666666666667,114.56460905349795,113.58333333333333,114.5551440329218,116,114.54567901234567C118.41666666666667,114.53621399176954,120.83333333333334,114.52674897119341,123.25000000000001,114.51728395061728C125.66666666666667,114.50781893004115,128.08333333333334,114.49835390946501,130.5,114.48888888888888C132.91666666666666,114.47942386831275,135.33333333333334,114.46995884773662,137.75,114.46049382716049C140.16666666666666,114.45102880658436,142.58333333333334,114.44156378600822,145,114.43209876543209C147.41666666666666,114.42263374485596,149.83333333333334,114.41316872427983,152.25,114.4037037037037C154.66666666666666,114.39423868312757,157.08333333333334,114.38477366255144,159.5,114.37530864197531C161.91666666666666,114.36584362139918,164.33333333333334,114.35637860082304,166.75,114.3469135802469C169.16666666666666,114.33744855967078,171.58333333333334,114.32798353909465,174,114.31851851851852C176.41666666666666,114.30905349794239,178.83333333333334,114.29958847736626,181.25,114.29012345679013C183.66666666666666,114.280658436214,186.08333333333334,114.27119341563787,188.5,114.26172839506174C190.91666666666666,114.25226337448561,193.33333333333334,114.24279835390946,195.75,114.23333333333333C198.16666666666669,114.2238683127572,200.58333333333334,114.21440329218107,203.00000000000003,114.20493827160495C205.41666666666669,114.19547325102882,207.83333333333331,114.18600823045269,210.24999999999997,114.17654320987656C212.66666666666666,114.16707818930043,215.08333333333331,114.15761316872428,217.5,114.14814814814815C219.91666666666666,114.13868312757202,222.33333333333334,114.12921810699589,224.75,114.11975308641976C227.16666666666666,114.11028806584363,229.58333333333334,114.10082304526749,232,114.09135802469136C234.41666666666666,114.08189300411523,236.83333333333334,114.0724279835391,239.25,114.06296296296297C241.66666666666669,114.05349794238684,244.08333333333334,114.0440329218107,246.50000000000003,114.03456790123457C248.91666666666669,114.02510288065844,251.33333333333331,114.01563786008231,253.74999999999997,114.00617283950618C256.16666666666663,113.99670781893005,258.5833333333333,113.98724279835392,261,113.97777777777779C263.4166666666667,113.96831275720166,265.8333333333333,113.95884773662551,268.25,113.94938271604939C270.6666666666667,113.93991769547326,273.0833333333333,113.93045267489713,275.5,113.920987654321C277.9166666666667,113.91152263374487,280.3333333333333,113.90205761316872,282.75,113.89259259259259C285.1666666666667,113.88312757201646,287.5833333333333,113.87366255144033,290,113.8641975308642C292.4166666666667,113.85473251028807,294.8333333333333,113.84526748971193,297.25,113.8358024691358C299.6666666666667,113.82633744855967,302.0833333333333,113.81687242798354,304.5,113.80740740740741C306.9166666666667,113.79794238683128,309.3333333333333,113.78847736625515,311.75,113.77901234567902C314.1666666666667,113.76954732510289,316.5833333333333,113.76008230452675,319,113.75061728395062C321.4166666666667,113.74115226337449,323.8333333333333,113.73168724279836,326.25,113.72222222222223C328.6666666666667,113.7127572016461,331.0833333333333,113.70329218106995,333.5,113.69382716049383C335.9166666666667,113.6843621399177,338.3333333333333,113.67489711934157,340.75,113.66543209876544C343.1666666666667,113.6559670781893,345.5833333333333,113.64650205761316,348,113.63703703703703C350.4166666666667,113.6275720164609,352.8333333333333,113.61810699588477,355.25,113.60864197530864C357.6666666666667,113.59917695473251,360.0833333333333,113.58971193415637,362.5,113.58024691358024C364.9166666666667,113.57078189300411,367.3333333333333,113.56131687242798,369.75,113.55185185185185C372.1666666666667,113.54238683127572,374.5833333333333,113.53292181069959,377,113.52345679012346C379.4166666666667,113.51399176954733,381.8333333333333,113.50452674897119,384.25,113.49506172839506C386.6666666666667,113.48559670781893,389.0833333333333,113.4761316872428,391.5,113.46666666666667C393.9166666666667,113.45720164609054,396.33333333333337,113.4477366255144,398.75000000000006,113.43827160493827C401.16666666666674,113.42880658436214,403.58333333333337,113.419341563786,406.00000000000006,113.40987654320988C408.4166666666667,113.40041152263375,410.8333333333333,113.3909465020576,413.24999999999994,113.38148148148147C415.66666666666663,113.37201646090534,418.08333333333326,113.36255144032921,420.49999999999994,113.35308641975308C422.91666666666663,113.34362139917695,425.3333333333333,113.33415637860082,427.75,113.3246913580247C430.1666666666667,113.31522633744856,432.5833333333333,113.30576131687242,435,113.29629629629629C437.4166666666667,113.28683127572016,439.8333333333333,113.27736625514403,442.25,113.2679012345679C444.6666666666667,113.25843621399177,447.0833333333333,113.24897119341563,449.5,113.2395061728395C451.9166666666667,113.23004115226337,454.3333333333333,113.22057613168724,456.75,113.21111111111111C459.1666666666667,113.20164609053498,461.5833333333333,113.19218106995883,464,113.1827160493827C466.4166666666667,113.17325102880658,468.8333333333333,113.16378600823045,471.25,113.15432098765432C473.6666666666667,113.14485596707819,476.0833333333333,113.13539094650206,478.5,113.12592592592593C480.9166666666667,113.1164609053498,483.33333333333337,113.10699588477365,485.75000000000006,113.09753086419752C488.16666666666674,113.0880658436214,490.58333333333337,113.07860082304526,493.00000000000006,113.06913580246913C495.4166666666667,113.059670781893,497.8333333333333,113.05020576131686,500.24999999999994,113.04074074074073C502.66666666666663,113.0312757201646,505.08333333333326,113.02181069958847,507.49999999999994,113.01234567901234C509.91666666666663,113.00288065843621,512.3333333333333,112.99341563786007,514.75,112.98395061728394C517.1666666666666,112.97448559670781,519.5833333333334,112.96502057613168,522,112.95555555555555C524.4166666666666,112.94609053497942,526.8333333333334,112.93662551440329,529.25,112.92716049382716C531.6666666666666,112.91769547325103,534.0833333333334,112.9082304526749,536.5,112.89876543209877C538.9166666666666,112.88930041152264,541.3333333333334,112.8798353909465,543.75,112.87037037037037C546.1666666666666,112.86090534979424,548.5833333333334,112.85144032921811,551,112.84197530864198C553.4166666666666,112.83251028806585,555.8333333333334,112.82304526748972,558.25,112.81358024691359C560.6666666666666,112.80411522633746,563.0833333333334,112.79465020576131,565.5,112.78518518518518C567.9166666666666,112.77572016460906,570.3333333333334,112.76625514403293,572.75,112.7567901234568C575.1666666666666,112.74732510288067,577.5833333333334,112.73786008230454,580,112.7283950617284C582.4166666666666,112.71893004115228,584.8333333333334,112.70946502057613,587.25,112.7C589.6666666666666,112.69053497942387,592.0833333333334,112.68106995884774,594.5,112.67160493827161C596.9166666666666,112.66213991769548,599.3333333333334,112.65267489711934,601.75,112.64320987654321C604.1666666666666,112.63374485596708,606.5833333333334,112.62427983539095,609,112.61481481481482C611.4166666666666,112.60534979423869,613.8333333333334,112.59588477366255,616.25,112.58641975308642C618.6666666666666,112.57695473251029,621.0833333333334,112.56748971193416,623.5,112.55802469135803C625.9166666666666,112.5485596707819,628.3333333333334,112.53909465020577,630.75,112.52962962962964C633.1666666666666,112.52016460905351,635.5833333333334,112.51069958847737,638,112.50123456790124C640.4166666666666,112.4917695473251,642.8333333333334,112.48230452674898,645.25,112.47283950617285C647.6666666666666,112.46337448559672,650.0833333333334,112.45390946502057,652.5,112.44444444444444C654.9166666666666,112.43497942386831,657.3333333333334,112.42551440329218,659.75,112.41604938271605C662.1666666666666,112.40658436213992,664.5833333333334,112.39711934156378,667,112.38765432098765C669.4166666666666,112.37818930041152,671.8333333333334,112.36872427983539,674.25,112.35925925925926C676.6666666666666,112.34979423868313,679.0833333333334,112.340329218107,681.5,112.33086419753087C683.9166666666666,112.32139917695474,686.3333333333334,112.3119341563786,688.75,112.30246913580247C691.1666666666666,112.29300411522634,693.5833333333334,112.28353909465021,696,112.27407407407408C698.4166666666666,112.26460905349795,700.8333333333334,112.2551440329218,703.25,112.24567901234568C705.6666666666666,112.23621399176955,708.0833333333334,112.22674897119342,710.5,112.21728395061729C712.9166666666666,112.20781893004116,715.3333333333334,112.19835390946501,717.75,112.18888888888888C720.1666666666666,112.17942386831275,722.5833333333334,112.16995884773662,725,112.1604938271605C727.4166666666666,112.15102880658436,729.8333333333334,112.14156378600823,732.25,112.1320987654321C734.6666666666666,112.12263374485597,737.0833333333334,112.11316872427983,739.5,112.1037037037037C741.9166666666666,112.09423868312757,744.3333333333334,112.08477366255144,746.75,112.07530864197531C749.1666666666666,112.06584362139918,751.5833333333334,112.05637860082304,754,112.04691358024691C756.4166666666666,112.03744855967078,758.8333333333334,112.02798353909465,761.25,112.01851851851852C763.6666666666666,112.00905349794239,766.0833333333334,111.99958847736625,768.5,111.99012345679012C770.9166666666666,111.98065843621399,773.3333333333334,111.97119341563786,775.75,111.96172839506173C778.1666666666666,111.9522633744856,780.5833333333334,111.94279835390947,783,111.93333333333334C785.4166666666667,111.92386831275721,787.8333333333334,111.91440329218106,790.2500000000001,111.90493827160493C792.6666666666667,111.8954732510288,795.0833333333335,111.88600823045267,797.5000000000001,111.87654320987654C799.9166666666667,111.86707818930041,802.3333333333335,111.85761316872427,804.7500000000001,111.84814814814814C807.1666666666667,111.83868312757201,809.5833333333335,111.82921810699588,812.0000000000001,111.81975308641975C814.4166666666667,111.81028806584362,816.8333333333333,111.80082304526748,819.2499999999999,111.79135802469135C821.6666666666665,111.78189300411522,824.0833333333333,111.77242798353909,826.4999999999999,111.76296296296296C828.9166666666665,111.75349794238683,831.3333333333333,111.7440329218107,833.7499999999999,111.73456790123457C836.1666666666665,111.72510288065844,838.5833333333333,111.7156378600823,840.9999999999999,111.70617283950617C843.4166666666666,111.69670781893004,845.8333333333333,111.6872427983539,848.25,111.67777777777778C850.6666666666666,111.66831275720165,853.0833333333334,111.6588477366255,855.5,111.64938271604937C857.9166666666666,111.63991769547324,860.3333333333334,111.63045267489711,862.75,111.62098765432098C865.1666666666666,111.61152263374485,867.5833333333334,111.60205761316871,870,111.59259259259258C872.4166666666666,111.58312757201645,874.8333333333334,111.57366255144032,877.25,111.56419753086419C879.6666666666666,111.55473251028806,882.0833333333334,111.54526748971193,884.5,111.5358024691358C886.9166666666666,111.52633744855967,889.3333333333334,111.51687242798354,891.75,111.50740740740741C894.1666666666666,111.49794238683128,896.5833333333334,111.48847736625514,899,111.47901234567901C901.4166666666666,111.46954732510288,903.8333333333334,111.46008230452675,906.25,111.45061728395062C908.6666666666666,111.44115226337449,911.0833333333334,111.43168724279836,913.5,111.42222222222223C915.9166666666666,111.4127572016461,918.3333333333334,111.40329218106996,920.75,111.39382716049383C923.1666666666666,111.3843621399177,925.5833333333334,111.37489711934157,928,111.36543209876544C930.4166666666666,111.35596707818931,932.8333333333334,111.34650205761318,935.25,111.33703703703705C937.6666666666666,111.32757201646092,940.0833333333334,111.31810699588478,942.5,111.30864197530865C944.9166666666666,111.29917695473252,947.3333333333334,111.28971193415639,949.75,111.28024691358026C952.1666666666666,111.27078189300413,954.5833333333334,111.26131687242798,957,111.25185185185185C959.4166666666666,111.24238683127572,961.8333333333334,111.2329218106996,964.25,111.22345679012346C966.6666666666667,111.21399176954733,969.0833333333334,111.20452674897119,971.5000000000001,111.19506172839506C973.9166666666667,111.18559670781893,976.3333333333335,111.1761316872428,978.7500000000001,111.16666666666667C981.1666666666667,111.15720164609054,983.5833333333335,111.14773662551441,986.0000000000001,111.13827160493828C988.4166666666667,111.12880658436215,990.8333333333335,111.11934156378601,993.2500000000001,111.10987654320988C995.6666666666667,111.10041152263375,998.0833333333333,111.09094650205762,1000.4999999999999,111.08148148148149C1002.9166666666665,111.07201646090536,1005.3333333333333,111.06255144032922,1007.7499999999999,111.05308641975309C1010.1666666666665,111.04362139917696,1012.5833333333333,111.03415637860083,1014.9999999999999,111.0246913580247C1017.4166666666665,111.01522633744857,1019.8333333333333,111.00576131687242,1022.2499999999999,110.9962962962963C1024.6666666666665,110.98683127572016,1027.0833333333333,110.97736625514403,1029.5,110.9679012345679C1031.9166666666667,110.95843621399177,1034.3333333333333,110.94897119341563,1036.75,110.9395061728395C1039.1666666666667,110.93004115226337,1041.5833333333333,110.92057613168724,1044,110.91111111111111C1046.4166666666667,110.90164609053498,1048.8333333333333,110.89218106995885,1051.25,110.88271604938272C1053.6666666666667,110.87325102880659,1056.0833333333333,110.86378600823045,1058.5,110.85432098765432C1060.9166666666667,110.84485596707819,1063.3333333333333,110.83539094650206,1065.75,110.82592592592593C1068.1666666666667,110.8164609053498,1070.5833333333333,110.80699588477366,1073,110.79753086419753C1075.4166666666667,110.7880658436214,1077.8333333333333,110.77860082304527,1080.25,110.76913580246914C1082.6666666666667,110.759670781893,1085.0833333333333,110.75020576131686,1087.5,110.74074074074073C1089.9166666666667,110.7312757201646,1092.3333333333333,110.72181069958847,1094.75,110.71234567901234C1097.1666666666667,110.70288065843621,1099.5833333333333,110.69341563786008,1102,110.68395061728395C1104.4166666666667,110.67448559670783,1106.8333333333333,110.66502057613168,1109.25,110.65555555555555C1111.6666666666667,110.64609053497942,1114.0833333333333,110.63662551440329,1116.5,110.62716049382716C1118.9166666666667,110.61769547325103,1121.3333333333333,110.60823045267489,1123.75,110.59876543209876C1126.1666666666667,110.58930041152263,1128.5833333333333,110.5798353909465,1131,110.57037037037037C1133.4166666666667,110.56090534979424,1135.8333333333333,110.55144032921811,1138.25,110.54197530864198C1140.6666666666667,110.53251028806585,1143.0833333333333,110.5230452674897,1145.5,110.51358024691358C1147.9166666666667,110.50411522633745,1150.3333333333333,110.49465020576132,1152.75,110.48518518518519C1155.1666666666667,110.47572016460906,1157.5833333333333,110.46625514403291,1160,110.45679012345678C1162.4166666666667,110.44732510288065,1164.8333333333333,110.43786008230452,1167.25,110.4283950617284C1169.6666666666667,110.41893004115227,1172.0833333333333,110.40946502057612,1174.5,110.39999999999999C1176.9166666666667,110.39053497942386,1179.3333333333333,110.38106995884773,1181.75,110.3716049382716C1184.1666666666667,110.36213991769547,1186.5833333333333,110.35267489711933,1189,110.3432098765432C1191.4166666666667,110.33374485596707,1193.8333333333333,110.32427983539094,1196.25,110.31481481481481C1198.6666666666667,110.30534979423868,1201.0833333333333,110.29588477366255,1203.5,110.28641975308642C1205.9166666666667,110.27695473251029,1208.3333333333333,110.26748971193415,1210.75,110.25802469135802C1213.1666666666667,110.24855967078189,1215.5833333333333,110.23909465020576,1218,110.22962962962963C1220.4166666666667,110.2201646090535,1222.8333333333333,110.21069958847735,1225.25,110.20123456790122C1227.6666666666667,110.1917695473251,1230.0833333333333,110.18230452674896,1232.5,110.17283950617283C1234.9166666666667,110.1633744855967,1237.3333333333333,110.15390946502058,1239.75,110.14444444444445C1242.1666666666667,110.13497942386832,1244.5833333333333,110.12551440329217,1247,110.11604938271604C1249.4166666666667,110.10658436213991,1251.8333333333333,110.09711934156378,1254.25,110.08765432098765C1256.6666666666667,110.07818930041152,1259.0833333333333,110.0687242798354,1261.5,110.05925925925926C1263.9166666666667,110.04979423868313,1266.3333333333333,110.040329218107,1268.75,110.03086419753087C1271.1666666666667,110.02139917695474,1273.5833333333333,110.0119341563786,1276,110.00246913580247C1278.4166666666667,109.99300411522634,1280.8333333333333,109.98353909465021,1283.25,109.97407407407408C1285.6666666666667,109.96460905349795,1288.0833333333333,109.95514403292181,1290.5,109.94567901234568C1292.9166666666667,109.93621399176955,1295.3333333333333,109.92674897119342,1297.75,109.91728395061729C1300.1666666666667,109.90781893004116,1302.5833333333333,109.90781893004116,1305,109.8888888888889C1307.4166666666667,109.86995884773664,1309.8333333333333,106.82222222222222,1312.25,105.28888888888889C1314.6666666666667,103.75555555555556,1317.0833333333333,102.22222222222221,1319.5,100.68888888888888C1321.9166666666667,99.15555555555555,1324.3333333333333,97.62222222222222,1326.75,96.08888888888889C1329.1666666666667,94.55555555555556,1331.5833333333333,93.02222222222223,1334,91.4888888888889C1336.4166666666667,89.95555555555556,1338.8333333333333,88.42222222222222,1341.25,86.88888888888889C1343.6666666666667,85.35555555555555,1346.0833333333333,83.82222222222221,1348.5,82.28888888888888C1350.9166666666667,80.75555555555555,1353.3333333333333,79.22222222222223,1355.75,77.6888888888889C1358.1666666666667,76.15555555555557,1360.5833333333333,74.6222222222222,1363,73.08888888888887C1365.4166666666667,71.55555555555554,1367.8333333333333,70.02222222222223,1370.25,68.4888888888889C1372.6666666666667,66.95555555555556,1375.0833333333333,65.42222222222223,1377.5,63.88888888888889C1379.9166666666667,62.355555555555554,1382.3333333333333,60.822222222222216,1384.75,59.288888888888884C1387.1666666666667,57.75555555555555,1389.5833333333333,56.22222222222223,1392,54.6888888888889C1394.4166666666667,53.155555555555566,1396.8333333333333,51.622222222222234,1399.25,50.088888888888896C1401.6666666666667,48.55555555555556,1404.0833333333333,47.022222222222204,1406.5,45.48888888888887C1408.9166666666667,43.95555555555554,1411.3333333333333,42.42222222222223,1413.75,40.8888888888889C1416.1666666666667,39.35555555555557,1418.5833333333333,37.82222222222222,1421,36.28888888888889C1423.4166666666667,34.75555555555556,1425.8333333333333,33.22222222222222,1428.25,31.68888888888889C1430.6666666666667,30.15555555555556,1433.0833333333333,28.622222222222227,1435.5,27.088888888888896C1437.9166666666667,25.555555555555564,1440.3333333333333,24.02222222222224,1442.75,22.488888888888905C1445.1666666666667,20.95555555555557,1447.5833333333333,19.42222222222223,1450,17.88888888888889" fill="transparent" stroke-linecap="round" stroke="#B6509E" stroke-width="2"></path><path class="visx-linepath" d="M0,108.61111111105431C2.4166666666666665,108.60164609050184,4.833333333333334,108.59218106994939,7.25,108.58271604938273C9.666666666666666,108.57325102881606,12.083333333333334,108.56378600823045,14.5,108.55432098765432C16.916666666666668,108.54485596707819,19.333333333333332,108.53539094650206,21.75,108.52592592592593C24.166666666666668,108.5164609053498,26.583333333333332,108.50699588477367,29,108.49753086419754C31.416666666666668,108.48806584362141,33.833333333333336,108.47860082304527,36.25,108.46913580246914C38.666666666666664,108.45967078189301,41.083333333333336,108.45020576131688,43.5,108.44074074074075C45.91666666666667,108.43127572016462,48.333333333333336,108.42181069958848,50.75000000000001,108.41234567901235C53.16666666666667,108.40288065843622,55.583333333333336,108.39341563786009,58,108.38395061728396C60.416666666666664,108.37448559670783,62.833333333333336,108.36502057613168,65.25,108.35555555555555C67.66666666666667,108.34609053497942,70.08333333333333,108.3366255144033,72.5,108.32716049382717C74.91666666666667,108.31769547325104,77.33333333333333,108.30823045267489,79.75,108.29876543209876C82.16666666666667,108.28930041152263,84.58333333333333,108.2798353909465,87,108.27037037037037C89.41666666666667,108.26090534979424,91.83333333333333,108.25144032921811,94.25,108.24197530864198C96.66666666666667,108.23251028806585,99.08333333333334,108.22304526748971,101.50000000000001,108.21358024691358C103.91666666666667,108.20411522633745,106.33333333333334,108.19465020576132,108.75,108.18518518518519C111.16666666666667,108.17572016460906,113.58333333333333,108.16625514403292,116,108.15679012345679C118.41666666666667,108.14732510288066,120.83333333333334,108.13786008230453,123.25000000000001,108.1283950617284C125.66666666666667,108.11893004115227,128.08333333333334,108.10946502057612,130.5,108.1C132.91666666666666,108.09053497942386,135.33333333333334,108.08106995884773,137.75,108.0716049382716C140.16666666666666,108.06213991769548,142.58333333333334,108.05267489711935,145,108.04320987654322C147.41666666666666,108.03374485596709,149.83333333333334,108.02427983539094,152.25,108.01481481481481C154.66666666666666,108.00534979423868,157.08333333333334,107.99588477366255,159.5,107.98641975308642C161.91666666666666,107.9769547325103,164.33333333333334,107.96748971193415,166.75,107.95802469135802C169.16666666666666,107.94855967078189,171.58333333333334,107.93909465020576,174,107.92962962962963C176.41666666666666,107.9201646090535,178.83333333333334,107.91069958847736,181.25,107.90123456790123C183.66666666666666,107.8917695473251,186.08333333333334,107.88230452674897,188.5,107.87283950617284C190.91666666666666,107.86337448559671,193.33333333333334,107.85390946502058,195.75,107.84444444444445C198.16666666666669,107.83497942386832,200.58333333333334,107.82551440329217,203.00000000000003,107.81604938271605C205.41666666666669,107.80658436213992,207.83333333333331,107.79711934156379,210.24999999999997,107.78765432098766C212.66666666666666,107.77818930041153,215.08333333333331,107.76872427983538,217.5,107.75925925925925C219.91666666666666,107.74979423868312,222.33333333333334,107.740329218107,224.75,107.73086419753086C227.16666666666666,107.72139917695473,229.58333333333334,107.71193415637859,232,107.70246913580246C234.41666666666666,107.69300411522633,236.83333333333334,107.6835390946502,239.25,107.67407407407407C241.66666666666669,107.66460905349794,244.08333333333334,107.65514403292181,246.50000000000003,107.64567901234568C248.91666666666669,107.63621399176955,251.33333333333331,107.62674897119341,253.74999999999997,107.61728395061728C256.16666666666663,107.60781893004115,258.5833333333333,107.59835390946502,261,107.58888888888889C263.4166666666667,107.57942386831276,265.8333333333333,107.56995884773661,268.25,107.56049382716049C270.6666666666667,107.55102880658436,273.0833333333333,107.54156378600823,275.5,107.5320987654321C277.9166666666667,107.52263374485597,280.3333333333333,107.51316872427982,282.75,107.50370370370369C285.1666666666667,107.49423868312756,287.5833333333333,107.48477366255143,290,107.4753086419753C292.4166666666667,107.46584362139917,294.8333333333333,107.45637860082304,297.25,107.44691358024691C299.6666666666667,107.43744855967078,302.0833333333333,107.42798353909464,304.5,107.41851851851851C306.9166666666667,107.40905349794238,309.3333333333333,107.39958847736625,311.75,107.39012345679012C314.1666666666667,107.38065843621399,316.5833333333333,107.37119341563785,319,107.36172839506172C321.4166666666667,107.35226337448559,323.8333333333333,107.34279835390946,326.25,107.33333333333333C328.6666666666667,107.3238683127572,331.0833333333333,107.31440329218107,333.5,107.30493827160494C335.9166666666667,107.29547325102881,338.3333333333333,107.28600823045268,340.75,107.27654320987655C343.1666666666667,107.26707818930042,345.5833333333333,107.25761316872428,348,107.24814814814815C350.4166666666667,107.23868312757202,352.8333333333333,107.22921810699589,355.25,107.21975308641976C357.6666666666667,107.21028806584363,360.0833333333333,107.2008230452675,362.5,107.19135802469137C364.9166666666667,107.18189300411524,367.3333333333333,107.1724279835391,369.75,107.16296296296296C372.1666666666667,107.15349794238684,374.5833333333333,107.1440329218107,377,107.13456790123458C379.4166666666667,107.12510288065845,381.8333333333333,107.1156378600823,384.25,107.10617283950617C386.6666666666667,107.09670781893004,389.0833333333333,107.08724279835391,391.5,107.07777777777778C393.9166666666667,107.06831275720165,396.33333333333337,107.05884773662552,398.75000000000006,107.0493827160494C401.16666666666674,107.03991769547326,403.58333333333337,107.03045267489712,406.00000000000006,107.02098765432099C408.4166666666667,107.01152263374486,410.8333333333333,107.00205761316873,413.24999999999994,106.9925925925926C415.66666666666663,106.98312757201647,418.08333333333326,106.97366255144033,420.49999999999994,106.9641975308642C422.91666666666663,106.95473251028807,425.3333333333333,106.94526748971194,427.75,106.93580246913581C430.1666666666667,106.92633744855968,432.5833333333333,106.91687242798353,435,106.9074074074074C437.4166666666667,106.89794238683128,439.8333333333333,106.88847736625515,442.25,106.87901234567902C444.6666666666667,106.86954732510289,447.0833333333333,106.86008230452676,449.5,106.85061728395063C451.9166666666667,106.8411522633745,454.3333333333333,106.83168724279835,456.75,106.82222222222222C459.1666666666667,106.8127572016461,461.5833333333333,106.80329218106996,464,106.79382716049383C466.4166666666667,106.7843621399177,468.8333333333333,106.77489711934156,471.25,106.76543209876543C473.6666666666667,106.7559670781893,476.0833333333333,106.74650205761317,478.5,106.73703703703704C480.9166666666667,106.72757201646091,483.33333333333337,106.71810699588477,485.75000000000006,106.70864197530864C488.16666666666674,106.69917695473251,490.58333333333337,106.68971193415638,493.00000000000006,106.68024691358025C495.4166666666667,106.67078189300412,497.8333333333333,106.66131687242799,500.24999999999994,106.65185185185186C502.66666666666663,106.64238683127573,505.08333333333326,106.63292181069959,507.49999999999994,106.62345679012346C509.91666666666663,106.61399176954733,512.3333333333333,106.6045267489712,514.75,106.59506172839507C517.1666666666666,106.58559670781894,519.5833333333334,106.57613168724279,522,106.56666666666666C524.4166666666666,106.55720164609053,526.8333333333334,106.5477366255144,529.25,106.53827160493827C531.6666666666666,106.52880658436214,534.0833333333334,106.519341563786,536.5,106.50987654320987C538.9166666666666,106.50041152263374,541.3333333333334,106.49094650205761,543.75,106.48148148148148C546.1666666666666,106.47201646090535,548.5833333333334,106.46255144032922,551,106.45308641975309C553.4166666666666,106.44362139917696,555.8333333333334,106.43415637860082,558.25,106.42469135802469C560.6666666666666,106.41522633744856,563.0833333333334,106.40576131687243,565.5,106.3962962962963C567.9166666666666,106.38683127572017,570.3333333333334,106.37736625514403,572.75,106.3679012345679C575.1666666666666,106.35843621399177,577.5833333333334,106.34897119341564,580,106.3395061728395C582.4166666666666,106.33004115226338,584.8333333333334,106.32057613168723,587.25,106.3111111111111C589.6666666666666,106.30164609053497,592.0833333333334,106.29218106995884,594.5,106.28271604938271C596.9166666666666,106.27325102880658,599.3333333333334,106.26378600823045,601.75,106.25432098765432C604.1666666666666,106.2448559670782,606.5833333333334,106.23539094650205,609,106.22592592592592C611.4166666666666,106.21646090534979,613.8333333333334,106.20699588477366,616.25,106.19753086419753C618.6666666666666,106.1880658436214,621.0833333333334,106.17860082304526,623.5,106.16913580246913C625.9166666666666,106.159670781893,628.3333333333334,106.15020576131687,630.75,106.14074074074074C633.1666666666666,106.13127572016461,635.5833333333334,106.12181069958847,638,106.11234567901234C640.4166666666666,106.1028806584362,642.8333333333334,106.09341563786008,645.25,106.08395061728395C647.6666666666666,106.07448559670782,650.0833333333334,106.06502057613167,652.5,106.05555555555554C654.9166666666666,106.04609053497941,657.3333333333334,106.03662551440328,659.75,106.02716049382715C662.1666666666666,106.01769547325102,664.5833333333334,106.0082304526749,667,105.99876543209876C669.4166666666666,105.98930041152263,671.8333333333334,105.97983539094649,674.25,105.97037037037036C676.6666666666666,105.96090534979423,679.0833333333334,105.9514403292181,681.5,105.94197530864197C683.9166666666666,105.93251028806584,686.3333333333334,105.92304526748971,688.75,105.91358024691358C691.1666666666666,105.90411522633745,693.5833333333334,105.89465020576131,696,105.88518518518518C698.4166666666666,105.87572016460905,700.8333333333334,105.86625514403292,703.25,105.85679012345679C705.6666666666666,105.84732510288066,708.0833333333334,105.83786008230453,710.5,105.8283950617284C712.9166666666666,105.81893004115227,715.3333333333334,105.80946502057614,717.75,105.80000000000001C720.1666666666666,105.79053497942388,722.5833333333334,105.78106995884774,725,105.77160493827161C727.4166666666666,105.76213991769548,729.8333333333334,105.75267489711935,732.25,105.74320987654322C734.6666666666666,105.73374485596709,737.0833333333334,105.72427983539094,739.5,105.71481481481482C741.9166666666666,105.70534979423869,744.3333333333334,105.69588477366256,746.75,105.68641975308643C749.1666666666666,105.6769547325103,751.5833333333334,105.66748971193417,754,105.65802469135804C756.4166666666666,105.6485596707819,758.8333333333334,105.63909465020576,761.25,105.62962962962963C763.6666666666666,105.6201646090535,766.0833333333334,105.61069958847737,768.5,105.60123456790124C770.9166666666666,105.59176954732511,773.3333333333334,105.58230452674897,775.75,105.57283950617284C778.1666666666666,105.56337448559671,780.5833333333334,105.55390946502058,783,105.54444444444445C785.4166666666667,105.53497942386832,787.8333333333334,105.52551440329218,790.2500000000001,105.51604938271605C792.6666666666667,105.50658436213992,795.0833333333335,105.49711934156379,797.5000000000001,105.48765432098766C799.9166666666667,105.47818930041153,802.3333333333335,105.46872427983539,804.7500000000001,105.45925925925926C807.1666666666667,105.44979423868313,809.5833333333335,105.440329218107,812.0000000000001,105.43086419753087C814.4166666666667,105.42139917695474,816.8333333333333,105.4119341563786,819.2499999999999,105.40246913580248C821.6666666666665,105.39300411522635,824.0833333333333,105.3835390946502,826.4999999999999,105.37407407407407C828.9166666666665,105.36460905349794,831.3333333333333,105.35514403292181,833.7499999999999,105.34567901234568C836.1666666666665,105.33621399176955,838.5833333333333,105.32674897119341,840.9999999999999,105.31728395061728C843.4166666666666,105.30781893004115,845.8333333333333,105.29835390946502,848.25,105.28888888888889C850.6666666666666,105.27942386831276,853.0833333333334,105.26995884773663,855.5,105.2604938271605C857.9166666666666,105.25102880658437,860.3333333333334,105.24156378600823,862.75,105.2320987654321C865.1666666666666,105.22263374485597,867.5833333333334,105.21316872427984,870,105.20370370370371C872.4166666666666,105.19423868312758,874.8333333333334,105.18477366255144,877.25,105.1753086419753C879.6666666666666,105.16584362139918,882.0833333333334,105.15637860082305,884.5,105.14691358024692C886.9166666666666,105.13744855967079,889.3333333333334,105.12798353909464,891.75,105.11851851851851C894.1666666666666,105.10905349794238,896.5833333333334,105.09958847736625,899,105.09012345679012C901.4166666666666,105.080658436214,903.8333333333334,105.07119341563786,906.25,105.06172839506173C908.6666666666666,105.0522633744856,911.0833333333334,105.04279835390946,913.5,105.03333333333333C915.9166666666666,105.0238683127572,918.3333333333334,105.01440329218107,920.75,105.00493827160494C923.1666666666666,104.99547325102881,925.5833333333334,104.98600823045267,928,104.97654320987654C930.4166666666666,104.96707818930041,932.8333333333334,104.95761316872428,935.25,104.94814814814815C937.6666666666666,104.93868312757202,940.0833333333334,104.92921810699588,942.5,104.91975308641975C944.9166666666666,104.91028806584362,947.3333333333334,104.90082304526749,949.75,104.89135802469136C952.1666666666666,104.88189300411523,954.5833333333334,104.87242798353908,957,104.86296296296295C959.4166666666666,104.85349794238682,961.8333333333334,104.8440329218107,964.25,104.83456790123456C966.6666666666667,104.82510288065843,969.0833333333334,104.8156378600823,971.5000000000001,104.80617283950617C973.9166666666667,104.79670781893005,976.3333333333335,104.7872427983539,978.7500000000001,104.77777777777777C981.1666666666667,104.76831275720164,983.5833333333335,104.75884773662551,986.0000000000001,104.74938271604938C988.4166666666667,104.73991769547325,990.8333333333335,104.73045267489711,993.2500000000001,104.72098765432098C995.6666666666667,104.71152263374485,998.0833333333333,104.70205761316872,1000.4999999999999,104.69259259259259C1002.9166666666665,104.68312757201646,1005.3333333333333,104.67366255144033,1007.7499999999999,104.6641975308642C1010.1666666666665,104.65473251028807,1012.5833333333333,104.64526748971193,1014.9999999999999,104.6358024691358C1017.4166666666665,104.62633744855967,1019.8333333333333,104.61687242798354,1022.2499999999999,104.60740740740741C1024.6666666666665,104.59794238683128,1027.0833333333333,104.58847736625513,1029.5,104.579012345679C1031.9166666666667,104.56954732510287,1034.3333333333333,104.56008230452674,1036.75,104.55061728395061C1039.1666666666667,104.54115226337449,1041.5833333333333,104.53168724279834,1044,104.52222222222221C1046.4166666666667,104.51275720164608,1048.8333333333333,104.50329218106995,1051.25,104.49382716049382C1053.6666666666667,104.48436213991769,1056.0833333333333,104.47489711934156,1058.5,104.46543209876543C1060.9166666666667,104.4559670781893,1063.3333333333333,104.44650205761317,1065.75,104.43703703703704C1068.1666666666667,104.42757201646091,1070.5833333333333,104.41810699588478,1073,104.40864197530865C1075.4166666666667,104.39917695473252,1077.8333333333333,104.38971193415638,1080.25,104.38024691358025C1082.6666666666667,104.37078189300412,1085.0833333333333,104.36131687242799,1087.5,104.35185185185186C1089.9166666666667,104.34238683127573,1092.3333333333333,104.33292181069959,1094.75,104.32345679012346C1097.1666666666667,104.31399176954733,1099.5833333333333,104.3045267489712,1102,104.29506172839507C1104.4166666666667,104.28559670781894,1106.8333333333333,104.2761316872428,1109.25,104.26666666666667C1111.6666666666667,104.25720164609054,1114.0833333333333,104.2477366255144,1116.5,104.23827160493828C1118.9166666666667,104.22880658436215,1121.3333333333333,104.219341563786,1123.75,104.20987654320987C1126.1666666666667,104.20041152263374,1128.5833333333333,104.19094650205761,1131,104.18148148148148C1133.4166666666667,104.17201646090535,1135.8333333333333,104.16255144032922,1138.25,104.1530864197531C1140.6666666666667,104.14362139917696,1143.0833333333333,104.13415637860082,1145.5,104.12469135802469C1147.9166666666667,104.11522633744856,1150.3333333333333,104.10576131687243,1152.75,104.0962962962963C1155.1666666666667,104.08683127572017,1157.5833333333333,104.07736625514403,1160,104.0679012345679C1162.4166666666667,104.05843621399177,1164.8333333333333,104.04897119341564,1167.25,104.03950617283951C1169.6666666666667,104.03004115226338,1172.0833333333333,104.02057613168725,1174.5,104.01111111111112C1176.9166666666667,104.00164609053499,1179.3333333333333,103.99218106995885,1181.75,103.98271604938272C1184.1666666666667,103.97325102880659,1186.5833333333333,103.96378600823046,1189,103.95432098765433C1191.4166666666667,103.9448559670782,1193.8333333333333,103.93539094650205,1196.25,103.92592592592592C1198.6666666666667,103.9164609053498,1201.0833333333333,103.90699588477366,1203.5,103.89753086419753C1205.9166666666667,103.8880658436214,1208.3333333333333,103.87860082304528,1210.75,103.86913580246915C1213.1666666666667,103.85967078189302,1215.5833333333333,103.85020576131687,1218,103.84074074074074C1220.4166666666667,103.83127572016461,1222.8333333333333,103.82181069958848,1225.25,103.81234567901235C1227.6666666666667,103.80288065843622,1230.0833333333333,103.79341563786008,1232.5,103.78395061728395C1234.9166666666667,103.77448559670782,1237.3333333333333,103.76502057613169,1239.75,103.75555555555556C1242.1666666666667,103.74609053497943,1244.5833333333333,103.73662551440329,1247,103.72716049382716C1249.4166666666667,103.71769547325103,1251.8333333333333,103.7082304526749,1254.25,103.69876543209877C1256.6666666666667,103.68930041152264,1259.0833333333333,103.6798353909465,1261.5,103.67037037037036C1263.9166666666667,103.66090534979423,1266.3333333333333,103.6514403292181,1268.75,103.64197530864197C1271.1666666666667,103.63251028806584,1273.5833333333333,103.6230452674897,1276,103.61358024691357C1278.4166666666667,103.60411522633744,1280.8333333333333,103.59465020576131,1283.25,103.58518518518518C1285.6666666666667,103.57572016460905,1288.0833333333333,103.56625514403292,1290.5,103.55679012345679C1292.9166666666667,103.54732510288066,1295.3333333333333,103.53786008230452,1297.75,103.52839506172839C1300.1666666666667,103.51893004115226,1302.5833333333333,103.51893004115226,1305,103.5C1307.4166666666667,103.48106995884774,1309.8333333333333,100.43333333333332,1312.25,98.89999999999999C1314.6666666666667,97.36666666666666,1317.0833333333333,95.83333333333334,1319.5,94.30000000000001C1321.9166666666667,92.76666666666668,1324.3333333333333,91.23333333333333,1326.75,89.7C1329.1666666666667,88.16666666666667,1331.5833333333333,86.63333333333333,1334,85.1C1336.4166666666667,83.56666666666666,1338.8333333333333,82.03333333333333,1341.25,80.5C1343.6666666666667,78.96666666666667,1346.0833333333333,77.43333333333334,1348.5,75.9C1350.9166666666667,74.36666666666667,1353.3333333333333,72.83333333333333,1355.75,71.3C1358.1666666666667,69.76666666666667,1360.5833333333333,68.23333333333333,1363,66.7C1365.4166666666667,65.16666666666667,1367.8333333333333,63.63333333333333,1370.25,62.1C1372.6666666666667,60.56666666666667,1375.0833333333333,59.03333333333333,1377.5,57.5C1379.9166666666667,55.96666666666667,1382.3333333333333,54.43333333333334,1384.75,52.9C1387.1666666666667,51.36666666666666,1389.5833333333333,49.83333333333332,1392,48.29999999999999C1394.4166666666667,46.76666666666666,1396.8333333333333,45.233333333333334,1399.25,43.7C1401.6666666666667,42.16666666666667,1404.0833333333333,40.633333333333326,1406.5,39.099999999999994C1408.9166666666667,37.56666666666666,1411.3333333333333,36.03333333333334,1413.75,34.50000000000001C1416.1666666666667,32.966666666666676,1418.5833333333333,31.43333333333332,1421,29.899999999999988C1423.4166666666667,28.366666666666656,1425.8333333333333,26.833333333333343,1428.25,25.30000000000001C1430.6666666666667,23.76666666666668,1433.0833333333333,22.233333333333345,1435.5,20.700000000000006C1437.9166666666667,19.166666666666668,1440.3333333333333,17.633333333333322,1442.75,16.099999999999987C1445.1666666666667,14.566666666666652,1447.5833333333333,13.033333333333324,1450,11.499999999999998" fill="transparent" stroke-linecap="round" stroke="#E7C6DF" stroke-width="2"></path><g class="visx-group visx-axis visx-axis-bottom" transform="translate(0, 115)"><g class="visx-group visx-axis-tick" transform="translate(0, 0)"><line class="visx-line" x1="0" y1="0" x2="0" y2="8" fill="transparent" shape-rendering="crispEdges" stroke="#000" stroke-width="0" stroke-linecap="square"></line><svg x="0" y="0" font-size="10" style="overflow:visible"><text transform="" x="0" y="18" fill="#000" font-size="10" text-anchor="middle"><tspan x="0" dy="0em">0%</tspan></text></svg></g><g class="visx-group visx-axis-tick" transform="translate(0, 0)"><line class="visx-line" x1="362.5" y1="0" x2="362.5" y2="8" fill="transparent" shape-rendering="crispEdges" stroke="#000" stroke-width="0" stroke-linecap="square"></line><svg x="0" y="0" font-size="10" style="overflow:visible"><text transform="" x="362.5" y="18" fill="#000" font-size="10" text-anchor="middle"><tspan x="362.5" dy="0em">25%</tspan></text></svg></g><g class="visx-group visx-axis-tick" transform="translate(0, 0)"><line class="visx-line" x1="725" y1="0" x2="725" y2="8" fill="transparent" shape-rendering="crispEdges" stroke="#000" stroke-width="0" stroke-linecap="square"></line><svg x="0" y="0" font-size="10" style="overflow:visible"><text transform="" x="725" y="18" fill="#000" font-size="10" text-anchor="middle"><tspan x="725" dy="0em">50%</tspan></text></svg></g><g class="visx-group visx-axis-tick" transform="translate(0, 0)"><line class="visx-line" x1="1087.5" y1="0" x2="1087.5" y2="8" fill="transparent" shape-rendering="crispEdges" stroke="#000" stroke-width="0" stroke-linecap="square"></line><svg x="0" y="0" font-size="10" style="overflow:visible"><text transform="" x="1087.5" y="18" fill="#000" font-size="10" text-anchor="middle"><tspan x="1087.5" dy="0em">75%</tspan></text></svg></g><g class="visx-group visx-axis-tick" transform="translate(0, 0)"><line class="visx-line" x1="1450" y1="0" x2="1450" y2="8" fill="transparent" shape-rendering="crispEdges" stroke="#000" stroke-width="0" stroke-linecap="square"></line><svg x="0" y="0" font-size="10" style="overflow:visible"><text transform="" x="1450" y="18" fill="#000" font-size="10" text-anchor="middle"><tspan x="1450" dy="0em">100%</tspan></text></svg></g><line class="visx-line visx-axis-line" x1="0.5" y1="0" x2="1450.5" y2="0" fill="transparent" shape-rendering="crispEdges" stroke="#222" stroke-width="0"></line></g><g class="visx-group visx-axis visx-axis-left" transform="translate(0, 0)"><g class="visx-group visx-axis-tick" transform="translate(0, 0)"><line class="visx-line" x1="0" y1="115" x2="-8" y2="115" fill="transparent" shape-rendering="crispEdges" stroke="#222" stroke-width="0" stroke-linecap="square"></line><svg x="-30" y="0" font-size="8" style="overflow:visible"><text transform="" x="-8" y="115" fill="#000" font-size="8" text-anchor="start"><tspan x="-8" dy="0em">0%</tspan></text></svg></g><g class="visx-group visx-axis-tick" transform="translate(0, 0)"><line class="visx-line" x1="0" y1="51.11111111111111" x2="-8" y2="51.11111111111111" fill="transparent" shape-rendering="crispEdges" stroke="#222" stroke-width="0" stroke-linecap="square"></line><svg x="-30" y="0" font-size="8" style="overflow:visible"><text transform="" x="-8" y="51.11111111111111" fill="#000" font-size="8" text-anchor="start"><tspan x="-8" dy="0em">50%</tspan></text></svg></g><line class="visx-line visx-axis-line" x1="0" y1="115.5" x2="0" y2="0.5" fill="transparent" shape-rendering="crispEdges" stroke="#222" stroke-width="0"></line></g><rect class="visx-bar" width="1450" height="115" fill="transparent"></rect><line class="visx-line" x1="1305" y1="28" x2="1305" y2="115" fill="transparent" shape-rendering="crispEdges" stroke="#0062D2" stroke-width="1" pointer-events="none" stroke-dasharray="5,2"></line><svg x="0" y="0" font-size="10px" style="overflow:visible"><text transform="" x="1305" y="20" font-size="10px" fill="#fff" stroke="#fff" stroke-width="0.8em" text-anchor="middle"><tspan x="1305" dy="0.355em">Optimal 90%</tspan></text></svg><svg x="0" y="0" font-size="10px" style="overflow:visible"><text transform="" x="1305" y="20" font-size="10px" fill="#62677B" text-anchor="middle"><tspan x="1305" dy="0.355em">Optimal 90%</tspan></text></svg></g></svg>