<?xml version="1.0"?><svg xmlns="http://www.w3.org/2000/svg" xmlns:xlink= "http://www.w3.org/1999/xlink" style="background: white;" width="1500" height="300"> <g style="color: black; font-size: 13px; font-family: sans-serif; transform: translate(18px, 25px);"><g><circle r="3" cx="-6" cy="-5" style="fill: #1AD4B3" /><text>Borrow APR, variable</text></g><g style="transform: translateX(150px);"><circle r="3" cx="-6" cy="-5" style="fill: #101423" /><text>Borrow APR, stable</text></g></g><g class="visx-group" transform="translate(45, 50)"><g class="visx-group visx-rows" transform="translate(0, 0)"><line class="visx-line" x1="0" y1="155" x2="1425" y2="155" fill="transparent" shape-rendering="crispEdges" stroke="#F2F0F9" stroke-width="1" pointer-events="none"></line><line class="visx-line" x1="0" y1="77.5" x2="1425" y2="77.5" fill="transparent" shape-rendering="crispEdges" stroke="#F2F0F9" stroke-width="1" pointer-events="none"></line><line class="visx-line" x1="0" y1="0" x2="1425" y2="0" fill="transparent" shape-rendering="crispEdges" stroke="#F2F0F9" stroke-width="1" pointer-events="none"></line></g><path class="visx-linepath" d="M0,153.44999999992638C2.375,153.4377291666237,4.75,153.42545833332105,7.125,153.4131875C9.5,153.40091666667894,11.875,153.38864583333333,14.25,153.376375C16.625,153.36410416666666,19,153.35183333333333,21.375,153.3395625C23.75,153.32729166666667,26.125,153.31502083333334,28.5,153.30275C30.875,153.29047916666667,33.25,153.27820833333334,35.625,153.2659375C38,153.25366666666667,40.375,153.24139583333334,42.75,153.229125C45.125,153.21685416666668,47.50000000000001,153.20458333333332,49.87500000000001,153.19231249999999C52.25000000000001,153.18004166666665,54.625,153.16777083333332,57,153.1555C59.375,153.14322916666666,61.75,153.13095833333333,64.125,153.1186875C66.5,153.10641666666666,68.875,153.09414583333333,71.25,153.081875C73.625,153.06960416666666,76,153.05733333333333,78.375,153.0450625C80.75,153.03279166666667,83.125,153.02052083333334,85.5,153.00825C87.875,152.99597916666667,90.25,152.98370833333334,92.625,152.9714375C95,152.95916666666668,97.37500000000001,152.94689583333331,99.75000000000001,152.93462499999998C102.12500000000001,152.92235416666665,104.5,152.91008333333332,106.875,152.8978125C109.25,152.88554166666665,111.625,152.87327083333332,114,152.861C116.375,152.84872916666666,118.75000000000001,152.83645833333333,121.12500000000001,152.8241875C123.50000000000001,152.81191666666666,125.875,152.79964583333333,128.25,152.787375C130.625,152.77510416666667,133,152.76283333333333,135.375,152.7505625C137.75,152.73829166666667,140.125,152.72602083333334,142.5,152.71375C144.875,152.70147916666667,147.25,152.6892083333333,149.625,152.67693749999998C152,152.66466666666665,154.375,152.65239583333332,156.75,152.64012499999998C159.125,152.62785416666665,161.5,152.61558333333332,163.875,152.6033125C166.25,152.59104166666665,168.625,152.57877083333332,171,152.5665C173.375,152.55422916666666,175.75,152.54195833333333,178.125,152.5296875C180.5,152.51741666666666,182.875,152.50514583333333,185.25,152.492875C187.625,152.48060416666667,190,152.46833333333333,192.375,152.4560625C194.75,152.44379166666667,197.12500000000003,152.43152083333334,199.50000000000003,152.41925C201.875,152.40697916666667,204.25,152.39470833333334,206.62499999999997,152.3824375C208.99999999999997,152.37016666666668,211.375,152.35789583333332,213.75,152.34562499999998C216.125,152.33335416666665,218.5,152.32108333333335,220.875,152.30881250000002C223.25,152.29654166666668,225.625,152.28427083333335,228,152.27200000000002C230.375,152.2597291666667,232.75,152.24745833333333,235.125,152.2351875C237.5,152.22291666666666,239.87500000000003,152.21064583333333,242.25000000000003,152.198375C244.625,152.18610416666667,247,152.17383333333333,249.37499999999997,152.1615625C251.74999999999997,152.14929166666667,254.125,152.13702083333334,256.5,152.12475C258.875,152.11247916666667,261.25,152.10020833333334,263.625,152.0879375C266,152.07566666666668,268.375,152.06339583333335,270.75,152.051125C273.125,152.03885416666668,275.5,152.02658333333335,277.875,152.01431250000002C280.25,152.00204166666668,282.625,151.98977083333332,285,151.9775C287.375,151.96522916666666,289.75,151.95295833333333,292.125,151.9406875C294.5,151.92841666666666,296.875,151.91614583333333,299.25,151.903875C301.625,151.89160416666667,304,151.87933333333334,306.375,151.8670625C308.75,151.85479166666667,311.125,151.84252083333334,313.5,151.83025C315.875,151.81797916666667,318.25,151.80570833333334,320.625,151.7934375C323,151.78116666666668,325.375,151.76889583333335,327.75,151.756625C330.125,151.74435416666668,332.5,151.73208333333335,334.875,151.71981250000002C337.25,151.70754166666669,339.625,151.69527083333332,342,151.683C344.375,151.67072916666666,346.75,151.65845833333333,349.125,151.6461875C351.5,151.63391666666666,353.875,151.62164583333333,356.25,151.609375C358.625,151.59710416666667,361,151.58483333333334,363.375,151.5725625C365.75,151.56029166666667,368.125,151.54802083333334,370.5,151.53575C372.875,151.52347916666668,375.25,151.51120833333334,377.625,151.4989375C380,151.48666666666668,382.375,151.47439583333335,384.75,151.46212500000001C387.125,151.44985416666668,389.50000000000006,151.43758333333332,391.87500000000006,151.4253125C394.25000000000006,151.41304166666666,396.62500000000006,151.40077083333333,399.00000000000006,151.3885C401.375,151.37622916666666,403.75,151.36395833333333,406.12499999999994,151.3516875C408.49999999999994,151.33941666666666,410.87499999999994,151.32714583333333,413.24999999999994,151.314875C415.62499999999994,151.30260416666667,418,151.29033333333334,420.375,151.2780625C422.75,151.26579166666667,425.125,151.25352083333334,427.5,151.24125C429.875,151.22897916666668,432.25,151.21670833333334,434.625,151.2044375C437,151.19216666666668,439.375,151.17989583333332,441.75,151.167625C444.125,151.15535416666665,446.5,151.14308333333332,448.875,151.1308125C451.25,151.11854166666666,453.625,151.10627083333333,456,151.094C458.375,151.08172916666666,460.75,151.06945833333333,463.125,151.0571875C465.5,151.04491666666667,467.875,151.03264583333333,470.25,151.020375C472.625,151.00810416666667,475.00000000000006,150.99583333333334,477.37500000000006,150.9835625C479.75000000000006,150.97129166666667,482.12500000000006,150.95902083333334,484.50000000000006,150.94675C486.875,150.93447916666668,489.25,150.92220833333334,491.62499999999994,150.9099375C493.99999999999994,150.89766666666668,496.37499999999994,150.88539583333332,498.74999999999994,150.873125C501.12499999999994,150.86085416666666,503.5,150.84858333333332,505.875,150.8363125C508.25,150.82404166666666,510.625,150.81177083333333,513,150.7995C515.375,150.78722916666666,517.75,150.77495833333333,520.125,150.7626875C522.5,150.75041666666667,524.875,150.73814583333333,527.25,150.725875C529.625,150.71360416666667,532,150.70133333333334,534.375,150.6890625C536.75,150.67679166666667,539.125,150.66452083333334,541.5,150.65225C543.875,150.63997916666668,546.25,150.62770833333332,548.625,150.61543749999998C551,150.60316666666665,553.375,150.59089583333332,555.75,150.578625C558.125,150.56635416666666,560.5,150.55408333333332,562.875,150.5418125C565.25,150.52954166666666,567.625,150.51727083333333,570,150.505C572.375,150.49272916666666,574.75,150.48045833333333,577.125,150.4681875C579.5,150.45591666666667,581.875,150.44364583333333,584.25,150.431375C586.625,150.41910416666667,589,150.40683333333334,591.375,150.3945625C593.75,150.38229166666667,596.125,150.3700208333333,598.5,150.35774999999998C600.875,150.34547916666665,603.25,150.33320833333332,605.625,150.32093749999999C608,150.30866666666665,610.375,150.29639583333332,612.75,150.284125C615.125,150.27185416666666,617.5,150.25958333333332,619.875,150.2473125C622.25,150.23504166666666,624.625,150.22277083333333,627,150.2105C629.375,150.19822916666666,631.75,150.18595833333333,634.125,150.1736875C636.5,150.16141666666667,638.875,150.14914583333334,641.25,150.136875C643.625,150.12460416666667,646,150.11233333333334,648.375,150.1000625C650.75,150.08779166666667,653.125,150.07552083333331,655.5,150.06324999999998C657.875,150.05097916666665,660.25,150.03870833333332,662.625,150.0264375C665,150.01416666666665,667.375,150.00189583333332,669.75,149.989625C672.125,149.97735416666666,674.5,149.96508333333333,676.875,149.9528125C679.25,149.94054166666666,681.625,149.92827083333333,684,149.916C686.375,149.90372916666666,688.75,149.89145833333333,691.125,149.8791875C693.5,149.86691666666667,695.875,149.85464583333334,698.25,149.842375C700.625,149.83010416666667,703,149.8178333333333,705.375,149.80556249999998C707.75,149.79329166666665,710.125,149.78102083333334,712.5,149.76875C714.875,149.75647916666668,717.25,149.74420833333335,719.625,149.73193750000002C722,149.71966666666668,724.375,149.70739583333335,726.75,149.69512500000002C729.125,149.6828541666667,731.5,149.67058333333333,733.875,149.6583125C736.25,149.64604166666666,738.625,149.63377083333333,741,149.6215C743.375,149.60922916666667,745.75,149.59695833333333,748.125,149.5846875C750.5,149.57241666666667,752.875,149.56014583333334,755.25,149.547875C757.625,149.53560416666667,760,149.52333333333334,762.375,149.5110625C764.75,149.49879166666668,767.125,149.48652083333334,769.5,149.47425C771.875,149.46197916666668,774.2500000000001,149.44970833333335,776.6250000000001,149.43743750000002C779.0000000000001,149.42516666666668,781.3750000000001,149.41289583333335,783.7500000000001,149.40062500000002C786.1250000000001,149.3883541666667,788.5000000000001,149.37608333333333,790.8750000000001,149.3638125C793.2500000000001,149.35154166666666,795.6250000000001,149.33927083333333,798.0000000000001,149.327C800.375,149.31472916666667,802.75,149.30245833333333,805.1249999999999,149.2901875C807.4999999999999,149.27791666666667,809.8749999999999,149.26564583333334,812.2499999999999,149.253375C814.6249999999999,149.24110416666667,816.9999999999999,149.22883333333334,819.3749999999999,149.2165625C821.7499999999999,149.20429166666668,824.1249999999999,149.19202083333334,826.4999999999999,149.17975C828.8749999999999,149.16747916666668,831.25,149.15520833333335,833.625,149.14293750000002C836,149.13066666666668,838.375,149.11839583333332,840.75,149.106125C843.125,149.09385416666666,845.5,149.08158333333333,847.875,149.0693125C850.25,149.05704166666666,852.625,149.04477083333333,855,149.0325C857.375,149.02022916666667,859.75,149.00795833333333,862.125,148.9956875C864.5,148.98341666666667,866.875,148.97114583333334,869.25,148.958875C871.625,148.94660416666667,874,148.93433333333334,876.375,148.9220625C878.75,148.90979166666668,881.125,148.89752083333335,883.5,148.88525C885.875,148.87297916666668,888.25,148.86070833333332,890.625,148.8484375C893,148.83616666666666,895.375,148.82389583333332,897.75,148.811625C900.125,148.79935416666666,902.5,148.78708333333333,904.875,148.7748125C907.25,148.76254166666666,909.625,148.75027083333333,912,148.738C914.375,148.72572916666667,916.75,148.71345833333334,919.125,148.7011875C921.5,148.68891666666667,923.875,148.67664583333334,926.25,148.664375C928.625,148.65210416666667,931,148.63983333333334,933.375,148.6275625C935.75,148.61529166666668,938.125,148.60302083333335,940.5,148.59075C942.875,148.57847916666668,945.25,148.56620833333332,947.625,148.5539375C950,148.54166666666666,952.3750000000001,148.52939583333333,954.7500000000001,148.517125C957.1250000000001,148.50485416666666,959.5000000000001,148.49258333333333,961.8750000000001,148.4803125C964.2500000000001,148.46804166666666,966.6250000000001,148.45577083333333,969.0000000000001,148.4435C971.3750000000001,148.43122916666667,973.7500000000001,148.41895833333334,976.1250000000001,148.4066875C978.5,148.39441666666667,980.875,148.38214583333334,983.2499999999999,148.369875C985.6249999999999,148.35760416666668,987.9999999999999,148.34533333333334,990.3749999999999,148.3330625C992.7499999999999,148.32079166666668,995.1249999999999,148.30852083333332,997.4999999999999,148.29625C999.8749999999999,148.28397916666665,1002.2499999999999,148.27170833333332,1004.6249999999999,148.2594375C1006.9999999999999,148.24716666666666,1009.375,148.23489583333333,1011.75,148.222625C1014.125,148.21035416666666,1016.5,148.19808333333333,1018.875,148.1858125C1021.25,148.17354166666667,1023.625,148.16127083333333,1026,148.149C1028.375,148.13672916666667,1030.75,148.12445833333334,1033.125,148.1121875C1035.5,148.09991666666667,1037.875,148.08764583333334,1040.25,148.075375C1042.625,148.06310416666668,1045,148.05083333333332,1047.375,148.03856249999998C1049.75,148.02629166666665,1052.125,148.01402083333332,1054.5,148.00175C1056.875,147.98947916666665,1059.25,147.97720833333332,1061.625,147.9649375C1064,147.95266666666666,1066.375,147.94039583333333,1068.75,147.928125C1071.125,147.91585416666666,1073.5,147.90358333333333,1075.875,147.8913125C1078.25,147.87904166666667,1080.625,147.86677083333333,1083,147.8545C1085.375,147.84222916666667,1087.75,147.82995833333334,1090.125,147.8176875C1092.5,147.80541666666667,1094.875,147.79314583333334,1097.25,147.780875C1099.625,147.76860416666668,1102,147.75633333333332,1104.375,147.74406249999998C1106.75,147.73179166666665,1109.125,147.71952083333332,1111.5,147.70725C1113.875,147.69497916666666,1116.25,147.68270833333332,1118.625,147.6704375C1121,147.65816666666666,1123.375,147.64589583333333,1125.75,147.633625C1128.125,147.62135416666666,1130.5,147.60908333333333,1132.875,147.5968125C1135.25,147.58454166666667,1137.625,147.58454166666667,1140,147.56C1142.375,147.53545833333334,1144.75,145.4933333333333,1147.125,144.45999999999998C1149.5,143.42666666666665,1151.875,142.39333333333335,1154.25,141.36C1156.625,140.32666666666668,1159,139.29333333333332,1161.375,138.26C1163.75,137.22666666666666,1166.125,136.19333333333333,1168.5,135.16C1170.875,134.12666666666667,1173.25,133.09333333333333,1175.625,132.06C1178,131.02666666666667,1180.375,129.99333333333334,1182.75,128.96C1185.125,127.92666666666668,1187.5,126.89333333333335,1189.875,125.86000000000001C1192.25,124.82666666666668,1194.625,123.79333333333334,1197,122.76C1199.375,121.72666666666667,1201.75,120.69333333333333,1204.125,119.66C1206.5,118.62666666666667,1208.875,117.59333333333333,1211.25,116.56C1213.625,115.52666666666667,1216,114.49333333333333,1218.375,113.46C1220.75,112.42666666666666,1223.125,111.39333333333333,1225.5,110.36C1227.875,109.32666666666667,1230.25,108.29333333333332,1232.625,107.25999999999999C1235,106.22666666666666,1237.375,105.19333333333331,1239.75,104.15999999999998C1242.125,103.12666666666665,1244.5,102.09333333333333,1246.875,101.06C1249.25,100.02666666666667,1251.625,98.99333333333334,1254,97.96000000000001C1256.375,96.92666666666668,1258.75,95.89333333333332,1261.125,94.85999999999999C1263.5,93.82666666666665,1265.875,92.79333333333335,1268.25,91.76000000000002C1270.625,90.72666666666669,1273,89.69333333333336,1275.375,88.66000000000001C1277.75,87.62666666666667,1280.125,86.59333333333332,1282.5,85.55999999999999C1284.875,84.52666666666666,1287.25,83.49333333333334,1289.625,82.46000000000001C1292,81.42666666666668,1294.375,80.39333333333333,1296.75,79.36C1299.125,78.32666666666667,1301.5,77.29333333333334,1303.875,76.26C1306.25,75.22666666666667,1308.625,74.19333333333333,1311,73.16C1313.375,72.12666666666667,1315.75,71.09333333333332,1318.125,70.05999999999999C1320.5,69.02666666666666,1322.875,67.99333333333334,1325.25,66.96000000000001C1327.625,65.92666666666668,1330,64.89333333333335,1332.375,63.86000000000001C1334.75,62.826666666666675,1337.125,61.79333333333334,1339.5,60.760000000000005C1341.875,59.726666666666674,1344.25,58.69333333333333,1346.625,57.66C1349,56.626666666666665,1351.375,55.59333333333333,1353.75,54.559999999999995C1356.125,53.526666666666664,1358.5,52.49333333333334,1360.875,51.46000000000001C1363.25,50.42666666666668,1365.625,49.39333333333334,1368,48.36000000000001C1370.375,47.326666666666675,1372.75,46.29333333333334,1375.125,45.260000000000005C1377.5,44.226666666666674,1379.875,43.193333333333335,1382.25,42.160000000000004C1384.625,41.12666666666667,1387,40.093333333333334,1389.375,39.06C1391.75,38.02666666666667,1394.125,36.99333333333333,1396.5,35.96C1398.875,34.92666666666667,1401.25,33.89333333333335,1403.625,32.860000000000014C1406,31.826666666666675,1408.375,30.793333333333308,1410.75,29.759999999999973C1413.125,28.726666666666638,1415.5,27.693333333333335,1417.875,26.660000000000007C1420.25,25.62666666666668,1422.625,24.59333333333334,1425,23.560000000000002" fill="transparent" stroke-linecap="round" stroke="#1AD4B3" stroke-width="2"></path><g class="visx-group visx-axis visx-axis-bottom" transform="translate(0, 155)"><g class="visx-group visx-axis-tick" transform="translate(0, 0)"><line class="visx-line" x1="0" y1="0" x2="0" y2="8" fill="transparent" shape-rendering="crispEdges" stroke="#F2F0F9" stroke-width="1" stroke-linecap="square"></line><svg x="0" y="0" font-size="11" style="overflow:visible"><text transform="" x="0" y="19" fill="#1B2030" font-size="11" text-anchor="middle"><tspan x="0" dy="0em">0%</tspan></text></svg></g><g class="visx-group visx-axis-tick" transform="translate(0, 0)"><line class="visx-line" x1="356.25" y1="0" x2="356.25" y2="8" fill="transparent" shape-rendering="crispEdges" stroke="#F2F0F9" stroke-width="1" stroke-linecap="square"></line><svg x="0" y="0" font-size="11" style="overflow:visible"><text transform="" x="356.25" y="19" fill="#1B2030" font-size="11" text-anchor="middle"><tspan x="356.25" dy="0em">25%</tspan></text></svg></g><g class="visx-group visx-axis-tick" transform="translate(0, 0)"><line class="visx-line" x1="712.5" y1="0" x2="712.5" y2="8" fill="transparent" shape-rendering="crispEdges" stroke="#F2F0F9" stroke-width="1" stroke-linecap="square"></line><svg x="0" y="0" font-size="11" style="overflow:visible"><text transform="" x="712.5" y="19" fill="#1B2030" font-size="11" text-anchor="middle"><tspan x="712.5" dy="0em">50%</tspan></text></svg></g><g class="visx-group visx-axis-tick" transform="translate(0, 0)"><line class="visx-line" x1="1068.75" y1="0" x2="1068.75" y2="8" fill="transparent" shape-rendering="crispEdges" stroke="#F2F0F9" stroke-width="1" stroke-linecap="square"></line><svg x="0" y="0" font-size="11" style="overflow:visible"><text transform="" x="1068.75" y="19" fill="#1B2030" font-size="11" text-anchor="middle"><tspan x="1068.75" dy="0em">75%</tspan></text></svg></g><g class="visx-group visx-axis-tick" transform="translate(0, 0)"><line class="visx-line" x1="1425" y1="0" x2="1425" y2="8" fill="transparent" shape-rendering="crispEdges" stroke="#F2F0F9" stroke-width="1" stroke-linecap="square"></line><svg x="0" y="0" font-size="11" style="overflow:visible"><text transform="" x="1425" y="19" fill="#1B2030" font-size="11" text-anchor="middle"><tspan x="1425" dy="0em">100%</tspan></text></svg></g></g><g class="visx-group visx-axis visx-axis-left" transform="translate(0, 0)"><g class="visx-group visx-axis-tick" transform="translate(0, 0)"><line class="visx-line" x1="0" y1="155" x2="-8" y2="155" fill="transparent" shape-rendering="crispEdges" stroke="#F2F0F9" stroke-width="1" stroke-linecap="square"></line><svg x="-30" y="0" font-size="11" style="overflow:visible"><text transform="" x="-8" y="155" fill="#1B2030" font-size="11" text-anchor="start"><tspan x="-8" dy="0em">0%</tspan></text></svg></g><g class="visx-group visx-axis-tick" transform="translate(0, 0)"><line class="visx-line" x1="0" y1="77.5" x2="-8" y2="77.5" fill="transparent" shape-rendering="crispEdges" stroke="#F2F0F9" stroke-width="1" stroke-linecap="square"></line><svg x="-30" y="0" font-size="11" style="overflow:visible"><text transform="" x="-8" y="77.5" fill="#1B2030" font-size="11" text-anchor="start"><tspan x="-8" dy="0em">50%</tspan></text></svg></g><g class="visx-group visx-axis-tick" transform="translate(0, 0)"><line class="visx-line" x1="0" y1="0" x2="-8" y2="0" fill="transparent" shape-rendering="crispEdges" stroke="#F2F0F9" stroke-width="1" stroke-linecap="square"></line><svg x="-30" y="0" font-size="11" style="overflow:visible"><text transform="" x="-8" y="0" fill="#1B2030" font-size="11" text-anchor="start"><tspan x="-8" dy="0em">100%</tspan></text></svg></g><line class="visx-line visx-axis-line" x1="0" y1="155.5" x2="0" y2="0.5" fill="transparent" shape-rendering="crispEdges" stroke="#F2F0F9" stroke-width="1"></line></g><rect class="visx-bar" width="1425" height="155" fill="transparent"></rect><line class="visx-line" x1="1140" y1="58" x2="1140" y2="155" fill="transparent" shape-rendering="crispEdges" stroke="#CDC8E1" stroke-width="1" pointer-events="none" stroke-dasharray="5"></line><svg x="0" y="0" font-size="11px" style="overflow:visible"><text transform="" x="1140" y="50" font-size="11px" fill="#555069" stroke="#FFFFFF" stroke-width="1px" text-anchor="middle"><tspan x="1140" dy="0.355em">Optimal utilization 80%</tspan></text></svg><svg x="0" y="0" font-size="11px" style="overflow:visible"><text transform="" x="1140" y="50" font-size="11px" fill="#CDC8E1" text-anchor="middle"><tspan x="1140" dy="0.355em">Optimal utilization 80%</tspan></text></svg></g></svg>