<?xml version="1.0"?><svg xmlns="http://www.w3.org/2000/svg" xmlns:xlink= "http://www.w3.org/1999/xlink" style="background: white;" width="1500" height="185"> <g style="color: black; font-size: 13px; font-family: sans-serif; transform: translate(18px, 25px);"><g><circle r="3" cx="-6" cy="-5" style="fill: #B6509E" /><text>Borrow APR, variable</text></g><g style="transform: translateX(150px);"><circle r="3" cx="-6" cy="-5" style="fill: rgb(231, 198, 223)" /><text>Borrow APR, stable</text></g><g style="transform: translateX(290px);"><circle r="3" cx="-6" cy="-5" style="fill: rgb(0, 98, 210)" /><text>Utilization Rate</text></g></g><g class="visx-group" transform="translate(40, 50)"><g class="visx-group visx-rows" transform="translate(0, 0)"><line class="visx-line" x1="0" y1="115" x2="1450" y2="115" fill="transparent" shape-rendering="crispEdges" stroke="#000" stroke-width="1" stroke-dasharray="3,3" pointer-events="none"></line><line class="visx-line" x1="0" y1="86.25" x2="1450" y2="86.25" fill="transparent" shape-rendering="crispEdges" stroke="#000" stroke-width="1" stroke-dasharray="3,3" pointer-events="none"></line><line class="visx-line" x1="0" y1="57.5" x2="1450" y2="57.5" fill="transparent" shape-rendering="crispEdges" stroke="#000" stroke-width="1" stroke-dasharray="3,3" pointer-events="none"></line><line class="visx-line" x1="0" y1="28.75" x2="1450" y2="28.75" fill="transparent" shape-rendering="crispEdges" stroke="#000" stroke-width="1" stroke-dasharray="3,3" pointer-events="none"></line><line class="visx-line" x1="0" y1="0" x2="1450" y2="0" fill="transparent" shape-rendering="crispEdges" stroke="#000" stroke-width="1" stroke-dasharray="3,3" pointer-events="none"></line></g><path class="visx-linepath" d="M0,114.99999999993611C2.4166666666666665,114.98935185181458,4.833333333333334,114.97870370369304,7.25,114.96805555555555C9.666666666666666,114.95740740741806,12.083333333333334,114.94675925925927,14.5,114.93611111111112C16.916666666666668,114.92546296296297,19.333333333333332,114.91481481481482,21.75,114.90416666666667C24.166666666666668,114.89351851851852,26.583333333333332,114.88287037037038,29,114.87222222222223C31.416666666666668,114.86157407407408,33.833333333333336,114.85092592592592,36.25,114.84027777777777C38.666666666666664,114.82962962962962,41.083333333333336,114.81898148148147,43.5,114.80833333333332C45.91666666666667,114.79768518518517,48.333333333333336,114.78703703703704,50.75000000000001,114.77638888888889C53.16666666666667,114.76574074074074,55.583333333333336,114.75509259259259,58,114.74444444444444C60.416666666666664,114.73379629629629,62.833333333333336,114.72314814814816,65.25,114.7125C67.66666666666667,114.70185185185186,70.08333333333333,114.6912037037037,72.5,114.68055555555556C74.91666666666667,114.66990740740741,77.33333333333333,114.65925925925926,79.75,114.64861111111111C82.16666666666667,114.63796296296296,84.58333333333333,114.62731481481482,87,114.61666666666667C89.41666666666667,114.60601851851852,91.83333333333333,114.59537037037038,94.25,114.58472222222223C96.66666666666667,114.57407407407408,99.08333333333334,114.56342592592593,101.50000000000001,114.55277777777778C103.91666666666667,114.54212962962963,106.33333333333334,114.53148148148148,108.75,114.52083333333333C111.16666666666667,114.51018518518518,113.58333333333333,114.49953703703703,116,114.48888888888888C118.41666666666667,114.47824074074073,120.83333333333334,114.4675925925926,123.25000000000001,114.45694444444445C125.66666666666667,114.4462962962963,128.08333333333334,114.43564814814815,130.5,114.425C132.91666666666666,114.41435185185185,135.33333333333334,114.4037037037037,137.75,114.39305555555555C140.16666666666666,114.3824074074074,142.58333333333334,114.37175925925926,145,114.36111111111111C147.41666666666666,114.35046296296296,149.83333333333334,114.33981481481482,152.25,114.32916666666667C154.66666666666666,114.31851851851852,157.08333333333334,114.30787037037038,159.5,114.29722222222223C161.91666666666666,114.28657407407408,164.33333333333334,114.27592592592593,166.75,114.26527777777778C169.16666666666666,114.25462962962963,171.58333333333334,114.24398148148148,174,114.23333333333333C176.41666666666666,114.22268518518518,178.83333333333334,114.21203703703704,181.25,114.20138888888889C183.66666666666666,114.19074074074074,186.08333333333334,114.18009259259259,188.5,114.16944444444444C190.91666666666666,114.15879629629629,193.33333333333334,114.14814814814815,195.75,114.1375C198.16666666666669,114.12685185185185,200.58333333333334,114.1162037037037,203.00000000000003,114.10555555555555C205.41666666666669,114.0949074074074,207.83333333333331,114.08425925925926,210.24999999999997,114.0736111111111C212.66666666666666,114.06296296296296,215.08333333333331,114.05231481481482,217.5,114.04166666666667C219.91666666666666,114.03101851851852,222.33333333333334,114.02037037037037,224.75,114.00972222222222C227.16666666666666,113.99907407407407,229.58333333333334,113.98842592592594,232,113.97777777777779C234.41666666666666,113.96712962962964,236.83333333333334,113.95648148148149,239.25,113.94583333333334C241.66666666666669,113.93518518518519,244.08333333333334,113.92453703703704,246.50000000000003,113.91388888888889C248.91666666666669,113.90324074074074,251.33333333333331,113.89259259259259,253.74999999999997,113.88194444444444C256.16666666666663,113.8712962962963,258.5833333333333,113.86064814814814,261,113.85C263.4166666666667,113.83935185185184,265.8333333333333,113.8287037037037,268.25,113.81805555555555C270.6666666666667,113.8074074074074,273.0833333333333,113.79675925925926,275.5,113.78611111111111C277.9166666666667,113.77546296296296,280.3333333333333,113.76481481481481,282.75,113.75416666666666C285.1666666666667,113.74351851851851,287.5833333333333,113.73287037037038,290,113.72222222222223C292.4166666666667,113.71157407407408,294.8333333333333,113.70092592592593,297.25,113.69027777777778C299.6666666666667,113.67962962962963,302.0833333333333,113.66898148148148,304.5,113.65833333333333C306.9166666666667,113.64768518518518,309.3333333333333,113.63703703703705,311.75,113.6263888888889C314.1666666666667,113.61574074074075,316.5833333333333,113.6050925925926,319,113.59444444444445C321.4166666666667,113.5837962962963,323.8333333333333,113.57314814814815,326.25,113.5625C328.6666666666667,113.55185185185185,331.0833333333333,113.5412037037037,333.5,113.53055555555555C335.9166666666667,113.5199074074074,338.3333333333333,113.50925925925925,340.75,113.4986111111111C343.1666666666667,113.48796296296295,345.5833333333333,113.47731481481482,348,113.46666666666667C350.4166666666667,113.45601851851852,352.8333333333333,113.44537037037037,355.25,113.43472222222222C357.6666666666667,113.42407407407407,360.0833333333333,113.41342592592594,362.5,113.40277777777779C364.9166666666667,113.39212962962964,367.3333333333333,113.38148148148149,369.75,113.37083333333334C372.1666666666667,113.36018518518519,374.5833333333333,113.34953703703704,377,113.33888888888889C379.4166666666667,113.32824074074074,381.8333333333333,113.3175925925926,384.25,113.30694444444445C386.6666666666667,113.2962962962963,389.0833333333333,113.28564814814814,391.5,113.27499999999999C393.9166666666667,113.26435185185184,396.33333333333337,113.2537037037037,398.75000000000006,113.24305555555556C401.16666666666674,113.23240740740741,403.58333333333337,113.22175925925926,406.00000000000006,113.21111111111111C408.4166666666667,113.20046296296296,410.8333333333333,113.18981481481481,413.24999999999994,113.17916666666666C415.66666666666663,113.16851851851851,418.08333333333326,113.15787037037038,420.49999999999994,113.14722222222223C422.91666666666663,113.13657407407408,425.3333333333333,113.12592592592593,427.75,113.11527777777778C430.1666666666667,113.10462962962963,432.5833333333333,113.09398148148148,435,113.08333333333333C437.4166666666667,113.07268518518518,439.8333333333333,113.06203703703704,442.25,113.0513888888889C444.6666666666667,113.04074074074074,447.0833333333333,113.0300925925926,449.5,113.01944444444445C451.9166666666667,113.0087962962963,454.3333333333333,112.99814814814816,456.75,112.98750000000001C459.1666666666667,112.97685185185186,461.5833333333333,112.9662037037037,464,112.95555555555555C466.4166666666667,112.9449074074074,468.8333333333333,112.93425925925925,471.25,112.9236111111111C473.6666666666667,112.91296296296295,476.0833333333333,112.90231481481482,478.5,112.89166666666667C480.9166666666667,112.88101851851852,483.33333333333337,112.87037037037037,485.75000000000006,112.85972222222222C488.16666666666674,112.84907407407407,490.58333333333337,112.83842592592593,493.00000000000006,112.82777777777778C495.4166666666667,112.81712962962963,497.8333333333333,112.80648148148148,500.24999999999994,112.79583333333333C502.66666666666663,112.78518518518518,505.08333333333326,112.77453703703704,507.49999999999994,112.76388888888889C509.91666666666663,112.75324074074074,512.3333333333333,112.7425925925926,514.75,112.73194444444445C517.1666666666666,112.7212962962963,519.5833333333334,112.71064814814815,522,112.7C524.4166666666666,112.68935185185185,526.8333333333334,112.6787037037037,529.25,112.66805555555555C531.6666666666666,112.6574074074074,534.0833333333334,112.64675925925926,536.5,112.6361111111111C538.9166666666666,112.62546296296296,541.3333333333334,112.6148148148148,543.75,112.60416666666666C546.1666666666666,112.59351851851851,548.5833333333334,112.58287037037037,551,112.57222222222222C553.4166666666666,112.56157407407407,555.8333333333334,112.55092592592592,558.25,112.54027777777777C560.6666666666666,112.52962962962962,563.0833333333334,112.51898148148149,565.5,112.50833333333334C567.9166666666666,112.49768518518519,570.3333333333334,112.48703703703704,572.75,112.47638888888889C575.1666666666666,112.46574074074074,577.5833333333334,112.45509259259259,580,112.44444444444444C582.4166666666666,112.4337962962963,584.8333333333334,112.42314814814816,587.25,112.41250000000001C589.6666666666666,112.40185185185186,592.0833333333334,112.39120370370371,594.5,112.38055555555556C596.9166666666666,112.36990740740741,599.3333333333334,112.35925925925926,601.75,112.34861111111111C604.1666666666666,112.33796296296296,606.5833333333334,112.32731481481481,609,112.31666666666666C611.4166666666666,112.30601851851851,613.8333333333334,112.29537037037036,616.25,112.28472222222221C618.6666666666666,112.27407407407406,621.0833333333334,112.26342592592593,623.5,112.25277777777778C625.9166666666666,112.24212962962963,628.3333333333334,112.23148148148148,630.75,112.22083333333333C633.1666666666666,112.21018518518518,635.5833333333334,112.19953703703703,638,112.18888888888888C640.4166666666666,112.17824074074073,642.8333333333334,112.1675925925926,645.25,112.15694444444445C647.6666666666666,112.1462962962963,650.0833333333334,112.13564814814815,652.5,112.125C654.9166666666666,112.11435185185185,657.3333333333334,112.10370370370372,659.75,112.09305555555557C662.1666666666666,112.08240740740742,664.5833333333334,112.07175925925927,667,112.06111111111112C669.4166666666666,112.05046296296297,671.8333333333334,112.03981481481482,674.25,112.02916666666667C676.6666666666666,112.01851851851852,679.0833333333334,112.00787037037037,681.5,111.99722222222222C683.9166666666666,111.98657407407407,686.3333333333334,111.97592592592592,688.75,111.96527777777777C691.1666666666666,111.95462962962962,693.5833333333334,111.94398148148149,696,111.93333333333334C698.4166666666666,111.92268518518519,700.8333333333334,111.91203703703704,703.25,111.90138888888889C705.6666666666666,111.89074074074074,708.0833333333334,111.88009259259259,710.5,111.86944444444444C712.9166666666666,111.85879629629629,715.3333333333334,111.84814814814816,717.75,111.8375C720.1666666666666,111.82685185185186,722.5833333333334,111.8162037037037,725,111.80555555555556C727.4166666666666,111.79490740740741,729.8333333333334,111.78425925925927,732.25,111.77361111111112C734.6666666666666,111.76296296296297,737.0833333333334,111.75231481481482,739.5,111.74166666666667C741.9166666666666,111.73101851851852,744.3333333333334,111.72037037037036,746.75,111.70972222222221C749.1666666666666,111.69907407407406,751.5833333333334,111.68842592592593,754,111.67777777777778C756.4166666666666,111.66712962962963,758.8333333333334,111.65648148148148,761.25,111.64583333333333C763.6666666666666,111.63518518518518,766.0833333333334,111.62453703703703,768.5,111.61388888888888C770.9166666666666,111.60324074074073,773.3333333333334,111.5925925925926,775.75,111.58194444444445C778.1666666666666,111.5712962962963,780.5833333333334,111.56064814814815,783,111.55C785.4166666666667,111.53935185185185,787.8333333333334,111.52870370370371,790.2500000000001,111.51805555555556C792.6666666666667,111.50740740740741,795.0833333333335,111.49675925925926,797.5000000000001,111.48611111111111C799.9166666666667,111.47546296296296,802.3333333333335,111.46481481481482,804.7500000000001,111.45416666666667C807.1666666666667,111.44351851851852,809.5833333333335,111.43287037037038,812.0000000000001,111.42222222222223C814.4166666666667,111.41157407407408,816.8333333333333,111.40092592592592,819.2499999999999,111.39027777777777C821.6666666666665,111.37962962962962,824.0833333333333,111.36898148148148,826.4999999999999,111.35833333333333C828.9166666666665,111.34768518518518,831.3333333333333,111.33703703703704,833.7499999999999,111.32638888888889C836.1666666666665,111.31574074074074,838.5833333333333,111.30509259259259,840.9999999999999,111.29444444444444C843.4166666666666,111.28379629629629,845.8333333333333,111.27314814814815,848.25,111.2625C850.6666666666666,111.25185185185185,853.0833333333334,111.2412037037037,855.5,111.23055555555555C857.9166666666666,111.2199074074074,860.3333333333334,111.20925925925927,862.75,111.19861111111112C865.1666666666666,111.18796296296297,867.5833333333334,111.17731481481482,870,111.16666666666667C872.4166666666666,111.15601851851852,874.8333333333334,111.14537037037037,877.25,111.13472222222222C879.6666666666666,111.12407407407407,882.0833333333334,111.11342592592594,884.5,111.10277777777779C886.9166666666666,111.09212962962964,889.3333333333334,111.08148148148148,891.75,111.07083333333333C894.1666666666666,111.06018518518518,896.5833333333334,111.04953703703703,899,111.03888888888888C901.4166666666666,111.02824074074073,903.8333333333334,111.01759259259259,906.25,111.00694444444444C908.6666666666666,110.9962962962963,911.0833333333334,110.98564814814814,913.5,110.975C915.9166666666666,110.96435185185184,918.3333333333334,110.95370370370371,920.75,110.94305555555556C923.1666666666666,110.93240740740741,925.5833333333334,110.92175925925926,928,110.91111111111111C930.4166666666666,110.90046296296296,932.8333333333334,110.88981481481481,935.25,110.87916666666666C937.6666666666666,110.86851851851851,940.0833333333334,110.85787037037038,942.5,110.84722222222223C944.9166666666666,110.83657407407408,947.3333333333334,110.82592592592593,949.75,110.81527777777778C952.1666666666666,110.80462962962963,954.5833333333334,110.79398148148148,957,110.78333333333333C959.4166666666666,110.77268518518518,961.8333333333334,110.76203703703703,964.25,110.75138888888888C966.6666666666667,110.74074074074073,969.0833333333334,110.73009259259258,971.5000000000001,110.71944444444443C973.9166666666667,110.70879629629628,976.3333333333335,110.69814814814815,978.7500000000001,110.6875C981.1666666666667,110.67685185185185,983.5833333333335,110.6662037037037,986.0000000000001,110.65555555555555C988.4166666666667,110.6449074074074,990.8333333333335,110.63425925925927,993.2500000000001,110.62361111111112C995.6666666666667,110.61296296296297,998.0833333333333,110.60231481481482,1000.4999999999999,110.59166666666667C1002.9166666666665,110.58101851851852,1005.3333333333333,110.57037037037037,1007.7499999999999,110.55972222222222C1010.1666666666665,110.54907407407407,1012.5833333333333,110.53842592592594,1014.9999999999999,110.52777777777779C1017.4166666666665,110.51712962962964,1019.8333333333333,110.50648148148149,1022.2499999999999,110.49583333333334C1024.6666666666665,110.48518518518519,1027.0833333333333,110.47453703703704,1029.5,110.46388888888889C1031.9166666666667,110.45324074074074,1034.3333333333333,110.44259259259259,1036.75,110.43194444444444C1039.1666666666667,110.42129629629629,1041.5833333333333,110.41064814814814,1044,110.39999999999999C1046.4166666666667,110.38935185185184,1048.8333333333333,110.3787037037037,1051.25,110.36805555555556C1053.6666666666667,110.35740740740741,1056.0833333333333,110.34675925925926,1058.5,110.33611111111111C1060.9166666666667,110.32546296296296,1063.3333333333333,110.31481481481482,1065.75,110.30416666666667C1068.1666666666667,110.29351851851852,1070.5833333333333,110.28287037037038,1073,110.27222222222223C1075.4166666666667,110.26157407407408,1077.8333333333333,110.25092592592593,1080.25,110.24027777777778C1082.6666666666667,110.22962962962963,1085.0833333333333,110.21898148148149,1087.5,110.20833333333334C1089.9166666666667,110.1976851851852,1092.3333333333333,110.18703703703704,1094.75,110.1763888888889C1097.1666666666667,110.16574074074074,1099.5833333333333,110.1550925925926,1102,110.14444444444445C1104.4166666666667,110.1337962962963,1106.8333333333333,110.12314814814815,1109.25,110.1125C1111.6666666666667,110.10185185185185,1114.0833333333333,110.0912037037037,1116.5,110.08055555555555C1118.9166666666667,110.0699074074074,1121.3333333333333,110.05925925925926,1123.75,110.04861111111111C1126.1666666666667,110.03796296296296,1128.5833333333333,110.02731481481482,1131,110.01666666666667C1133.4166666666667,110.00601851851852,1135.8333333333333,109.99537037037037,1138.25,109.98472222222222C1140.6666666666667,109.97407407407407,1143.0833333333333,109.96342592592593,1145.5,109.95277777777778C1147.9166666666667,109.94212962962963,1150.3333333333333,109.93148148148148,1152.75,109.92083333333333C1155.1666666666667,109.91018518518518,1157.5833333333333,109.89953703703705,1160,109.8888888888889C1162.4166666666667,109.87824074074075,1164.8333333333333,109.8675925925926,1167.25,109.85694444444445C1169.6666666666667,109.8462962962963,1172.0833333333333,109.83564814814814,1174.5,109.82499999999999C1176.9166666666667,109.81435185185184,1179.3333333333333,109.8037037037037,1181.75,109.79305555555555C1184.1666666666667,109.7824074074074,1186.5833333333333,109.77175925925926,1189,109.7611111111111C1191.4166666666667,109.75046296296296,1193.8333333333333,109.73981481481482,1196.25,109.72916666666667C1198.6666666666667,109.71851851851852,1201.0833333333333,109.70787037037037,1203.5,109.69722222222222C1205.9166666666667,109.68657407407407,1208.3333333333333,109.67592592592592,1210.75,109.66527777777777C1213.1666666666667,109.65462962962962,1215.5833333333333,109.64398148148149,1218,109.63333333333334C1220.4166666666667,109.62268518518519,1222.8333333333333,109.61203703703704,1225.25,109.60138888888889C1227.6666666666667,109.59074074074074,1230.0833333333333,109.58009259259259,1232.5,109.56944444444444C1234.9166666666667,109.5587962962963,1237.3333333333333,109.54814814814816,1239.75,109.53750000000001C1242.1666666666667,109.52685185185186,1244.5833333333333,109.5162037037037,1247,109.50555555555555C1249.4166666666667,109.4949074074074,1251.8333333333333,109.48425925925926,1254.25,109.47361111111111C1256.6666666666667,109.46296296296296,1259.0833333333333,109.45231481481481,1261.5,109.44166666666666C1263.9166666666667,109.43101851851851,1266.3333333333333,109.42037037037036,1268.75,109.40972222222221C1271.1666666666667,109.39907407407406,1273.5833333333333,109.38842592592593,1276,109.37777777777778C1278.4166666666667,109.36712962962963,1280.8333333333333,109.35648148148148,1283.25,109.34583333333333C1285.6666666666667,109.33518518518518,1288.0833333333333,109.32453703703705,1290.5,109.3138888888889C1292.9166666666667,109.30324074074075,1295.3333333333333,109.2925925925926,1297.75,109.28194444444445C1300.1666666666667,109.2712962962963,1302.5833333333333,109.2712962962963,1305,109.25C1307.4166666666667,109.2287037037037,1309.8333333333333,106.375,1312.25,104.9375C1314.6666666666667,103.5,1317.0833333333333,102.0625,1319.5,100.625C1321.9166666666667,99.1875,1324.3333333333333,97.75,1326.75,96.3125C1329.1666666666667,94.875,1331.5833333333333,93.4375,1334,92C1336.4166666666667,90.5625,1338.8333333333333,89.125,1341.25,87.6875C1343.6666666666667,86.25,1346.0833333333333,84.8125,1348.5,83.375C1350.9166666666667,81.9375,1353.3333333333333,80.5,1355.75,79.0625C1358.1666666666667,77.625,1360.5833333333333,76.18749999999999,1363,74.74999999999999C1365.4166666666667,73.31249999999999,1367.8333333333333,71.875,1370.25,70.4375C1372.6666666666667,69,1375.0833333333333,67.5625,1377.5,66.125C1379.9166666666667,64.6875,1382.3333333333333,63.25,1384.75,61.8125C1387.1666666666667,60.375,1389.5833333333333,58.9375,1392,57.5C1394.4166666666667,56.0625,1396.8333333333333,54.625,1399.25,53.1875C1401.6666666666667,51.75,1404.0833333333333,50.31250000000001,1406.5,48.87500000000001C1408.9166666666667,47.43750000000001,1411.3333333333333,45.99999999999999,1413.75,44.56249999999999C1416.1666666666667,43.12499999999999,1418.5833333333333,41.6875,1421,40.25C1423.4166666666667,38.8125,1425.8333333333333,37.374999999999986,1428.25,35.937499999999986C1430.6666666666667,34.499999999999986,1433.0833333333333,33.062500000000014,1435.5,31.625000000000014C1437.9166666666667,30.187500000000018,1440.3333333333333,28.750000000000007,1442.75,27.312500000000004C1445.1666666666667,25.875,1447.5833333333333,24.4375,1450,22.999999999999996" fill="transparent" stroke-linecap="round" stroke="#B6509E" stroke-width="2"></path><path class="visx-linepath" d="M0,100.62499999996805C2.4166666666666665,100.61967592590729,4.833333333333334,100.61435185184652,7.25,100.60902777777777C9.666666666666666,100.60370370370902,12.083333333333334,100.59837962962962,14.5,100.59305555555555C16.916666666666668,100.58773148148148,19.333333333333332,100.58240740740739,21.75,100.57708333333332C24.166666666666668,100.57175925925925,26.583333333333332,100.56643518518518,29,100.56111111111112C31.416666666666668,100.55578703703705,33.833333333333336,100.55046296296297,36.25,100.54513888888889C38.666666666666664,100.5398148148148,41.083333333333336,100.53449074074074,43.5,100.52916666666667C45.91666666666667,100.5238425925926,48.333333333333336,100.51851851851852,50.75000000000001,100.51319444444445C53.16666666666667,100.50787037037038,55.583333333333336,100.5025462962963,58,100.49722222222223C60.416666666666664,100.49189814814815,62.833333333333336,100.48657407407408,65.25,100.48125C67.66666666666667,100.47592592592592,70.08333333333333,100.47060185185185,72.5,100.46527777777777C74.91666666666667,100.45995370370369,77.33333333333333,100.45462962962964,79.75,100.44930555555555C82.16666666666667,100.44398148148147,84.58333333333333,100.43865740740739,87,100.43333333333332C89.41666666666667,100.42800925925926,91.83333333333333,100.42268518518517,94.25,100.4173611111111C96.66666666666667,100.41203703703704,99.08333333333334,100.40671296296296,101.50000000000001,100.40138888888889C103.91666666666667,100.39606481481482,106.33333333333334,100.39074074074074,108.75,100.38541666666667C111.16666666666667,100.38009259259259,113.58333333333333,100.37476851851851,116,100.36944444444444C118.41666666666667,100.36412037037037,120.83333333333334,100.3587962962963,123.25000000000001,100.35347222222224C125.66666666666667,100.34814814814817,128.08333333333334,100.34282407407407,130.5,100.3375C132.91666666666666,100.33217592592592,135.33333333333334,100.32685185185187,137.75,100.32152777777779C140.16666666666666,100.3162037037037,142.58333333333334,100.31087962962964,145,100.30555555555556C147.41666666666666,100.30023148148148,149.83333333333334,100.29490740740741,152.25,100.28958333333333C154.66666666666666,100.28425925925924,157.08333333333334,100.27893518518519,159.5,100.27361111111111C161.91666666666666,100.26828703703703,164.33333333333334,100.26296296296294,166.75,100.25763888888888C169.16666666666666,100.25231481481481,171.58333333333334,100.24699074074073,174,100.24166666666666C176.41666666666666,100.23634259259259,178.83333333333334,100.23101851851851,181.25,100.22569444444444C183.66666666666666,100.22037037037038,186.08333333333334,100.2150462962963,188.5,100.20972222222223C190.91666666666666,100.20439814814816,193.33333333333334,100.19907407407408,195.75,100.19375000000001C198.16666666666669,100.18842592592594,200.58333333333334,100.18310185185187,203.00000000000003,100.17777777777779C205.41666666666669,100.17245370370372,207.83333333333331,100.16712962962964,210.24999999999997,100.16180555555556C212.66666666666666,100.15648148148148,215.08333333333331,100.15115740740741,217.5,100.14583333333333C219.91666666666666,100.14050925925926,222.33333333333334,100.13518518518518,224.75,100.12986111111111C227.16666666666666,100.12453703703704,229.58333333333334,100.11921296296296,232,100.11388888888888C234.41666666666666,100.1085648148148,236.83333333333334,100.10324074074073,239.25,100.09791666666666C241.66666666666669,100.09259259259258,244.08333333333334,100.0872685185185,246.50000000000003,100.08194444444443C248.91666666666669,100.07662037037036,251.33333333333331,100.0712962962963,253.74999999999997,100.06597222222223C256.16666666666663,100.06064814814816,258.5833333333333,100.05532407407408,261,100.05C263.4166666666667,100.04467592592593,265.8333333333333,100.03935185185185,268.25,100.03402777777778C270.6666666666667,100.02870370370371,273.0833333333333,100.02337962962963,275.5,100.01805555555556C277.9166666666667,100.0127314814815,280.3333333333333,100.00740740740741,282.75,100.00208333333333C285.1666666666667,99.99675925925925,287.5833333333333,99.9914351851852,290,99.98611111111111C292.4166666666667,99.98078703703703,294.8333333333333,99.97546296296295,297.25,99.97013888888888C299.6666666666667,99.96481481481482,302.0833333333333,99.95949074074073,304.5,99.95416666666667C306.9166666666667,99.9488425925926,309.3333333333333,99.94351851851852,311.75,99.93819444444443C314.1666666666667,99.93287037037035,316.5833333333333,99.92754629629628,319,99.92222222222222C321.4166666666667,99.91689814814815,323.8333333333333,99.91157407407407,326.25,99.90625C328.6666666666667,99.90092592592593,331.0833333333333,99.89560185185186,333.5,99.89027777777778C335.9166666666667,99.8849537037037,338.3333333333333,99.87962962962962,340.75,99.87430555555555C343.1666666666667,99.86898148148148,345.5833333333333,99.8636574074074,348,99.85833333333333C350.4166666666667,99.85300925925927,352.8333333333333,99.84768518518518,355.25,99.84236111111112C357.6666666666667,99.83703703703705,360.0833333333333,99.83171296296297,362.5,99.82638888888889C364.9166666666667,99.8210648148148,367.3333333333333,99.81574074074075,369.75,99.81041666666667C372.1666666666667,99.80509259259259,374.5833333333333,99.7997685185185,377,99.79444444444444C379.4166666666667,99.78912037037037,381.8333333333333,99.78379629629629,384.25,99.77847222222222C386.6666666666667,99.77314814814815,389.0833333333333,99.76782407407406,391.5,99.76249999999999C393.9166666666667,99.75717592592592,396.33333333333337,99.75185185185185,398.75000000000006,99.74652777777779C401.16666666666674,99.74120370370372,403.58333333333337,99.73587962962964,406.00000000000006,99.73055555555555C408.4166666666667,99.72523148148149,410.8333333333333,99.7199074074074,413.24999999999994,99.71458333333334C415.66666666666663,99.70925925925927,418.08333333333326,99.70393518518519,420.49999999999994,99.69861111111112C422.91666666666663,99.69328703703704,425.3333333333333,99.68796296296297,427.75,99.68263888888889C430.1666666666667,99.67731481481482,432.5833333333333,99.67199074074074,435,99.66666666666667C437.4166666666667,99.6613425925926,439.8333333333333,99.65601851851852,442.25,99.65069444444444C444.6666666666667,99.64537037037036,447.0833333333333,99.6400462962963,449.5,99.63472222222222C451.9166666666667,99.62939814814814,454.3333333333333,99.62407407407406,456.75,99.61874999999999C459.1666666666667,99.61342592592592,461.5833333333333,99.60810185185184,464,99.60277777777777C466.4166666666667,99.5974537037037,468.8333333333333,99.59212962962962,471.25,99.58680555555556C473.6666666666667,99.58148148148149,476.0833333333333,99.57615740740741,478.5,99.57083333333334C480.9166666666667,99.56550925925926,483.33333333333337,99.56018518518519,485.75000000000006,99.55486111111111C488.16666666666674,99.54953703703704,490.58333333333337,99.54421296296296,493.00000000000006,99.53888888888889C495.4166666666667,99.53356481481482,497.8333333333333,99.52824074074074,500.24999999999994,99.52291666666667C502.66666666666663,99.51759259259259,505.08333333333326,99.51226851851851,507.49999999999994,99.50694444444444C509.91666666666663,99.50162037037036,512.3333333333333,99.49629629629631,514.75,99.49097222222223C517.1666666666666,99.48564814814816,519.5833333333334,99.48032407407408,522,99.475C524.4166666666666,99.46967592592591,526.8333333333334,99.46435185185186,529.25,99.45902777777778C531.6666666666666,99.4537037037037,534.0833333333334,99.44837962962961,536.5,99.44305555555555C538.9166666666666,99.43773148148148,541.3333333333334,99.4324074074074,543.75,99.42708333333333C546.1666666666666,99.42175925925926,548.5833333333334,99.41643518518518,551,99.41111111111111C553.4166666666666,99.40578703703704,555.8333333333334,99.40046296296296,558.25,99.3951388888889C560.6666666666666,99.38981481481483,563.0833333333334,99.38449074074074,565.5,99.37916666666668C567.9166666666666,99.37384259259261,570.3333333333334,99.36851851851853,572.75,99.36319444444445C575.1666666666666,99.35787037037036,577.5833333333334,99.35254629629631,580,99.34722222222223C582.4166666666666,99.34189814814815,584.8333333333334,99.33657407407406,587.25,99.33125C589.6666666666666,99.32592592592593,592.0833333333334,99.32060185185185,594.5,99.31527777777778C596.9166666666666,99.30995370370371,599.3333333333334,99.30462962962963,601.75,99.29930555555555C604.1666666666666,99.29398148148147,606.5833333333334,99.28865740740741,609,99.28333333333333C611.4166666666666,99.27800925925925,613.8333333333334,99.27268518518517,616.25,99.2673611111111C618.6666666666666,99.26203703703703,621.0833333333334,99.25671296296296,623.5,99.2513888888889C625.9166666666666,99.24606481481483,628.3333333333334,99.24074074074073,630.75,99.23541666666667C633.1666666666666,99.2300925925926,635.5833333333334,99.22476851851852,638,99.21944444444445C640.4166666666666,99.21412037037038,642.8333333333334,99.2087962962963,645.25,99.20347222222223C647.6666666666666,99.19814814814816,650.0833333333334,99.19282407407408,652.5,99.1875C654.9166666666666,99.18217592592592,657.3333333333334,99.17685185185186,659.75,99.17152777777778C662.1666666666666,99.1662037037037,664.5833333333334,99.16087962962962,667,99.15555555555555C669.4166666666666,99.15023148148148,671.8333333333334,99.1449074074074,674.25,99.13958333333333C676.6666666666666,99.13425925925927,679.0833333333334,99.12893518518518,681.5,99.1236111111111C683.9166666666666,99.11828703703702,686.3333333333334,99.11296296296295,688.75,99.10763888888889C691.1666666666666,99.10231481481482,693.5833333333334,99.09699074074074,696,99.09166666666667C698.4166666666666,99.0863425925926,700.8333333333334,99.08101851851853,703.25,99.07569444444445C705.6666666666666,99.07037037037037,708.0833333333334,99.06504629629629,710.5,99.05972222222222C712.9166666666666,99.05439814814815,715.3333333333334,99.04907407407407,717.75,99.04375C720.1666666666666,99.03842592592594,722.5833333333334,99.03310185185185,725,99.02777777777779C727.4166666666666,99.02245370370372,729.8333333333334,99.01712962962964,732.25,99.01180555555555C734.6666666666666,99.00648148148147,737.0833333333334,99.00115740740742,739.5,98.99583333333334C741.9166666666666,98.99050925925926,744.3333333333334,98.98518518518517,746.75,98.9798611111111C749.1666666666666,98.97453703703704,751.5833333333334,98.96921296296296,754,98.96388888888889C756.4166666666666,98.95856481481482,758.8333333333334,98.95324074074074,761.25,98.94791666666666C763.6666666666666,98.94259259259258,766.0833333333334,98.93726851851851,768.5,98.93194444444444C770.9166666666666,98.92662037037037,773.3333333333334,98.9212962962963,775.75,98.91597222222222C778.1666666666666,98.91064814814814,780.5833333333334,98.90532407407406,783,98.89999999999999C785.4166666666667,98.89467592592592,787.8333333333334,98.88935185185186,790.2500000000001,98.88402777777779C792.6666666666667,98.87870370370372,795.0833333333335,98.87337962962962,797.5000000000001,98.86805555555556C799.9166666666667,98.86273148148149,802.3333333333335,98.85740740740741,804.7500000000001,98.85208333333334C807.1666666666667,98.84675925925927,809.5833333333335,98.84143518518519,812.0000000000001,98.83611111111111C814.4166666666667,98.83078703703704,816.8333333333333,98.82546296296296,819.2499999999999,98.82013888888889C821.6666666666665,98.81481481481481,824.0833333333333,98.80949074074073,826.4999999999999,98.80416666666666C828.9166666666665,98.79884259259259,831.3333333333333,98.79351851851851,833.7499999999999,98.78819444444444C836.1666666666665,98.78287037037038,838.5833333333333,98.7775462962963,840.9999999999999,98.77222222222223C843.4166666666666,98.76689814814816,845.8333333333333,98.76157407407409,848.25,98.75625000000001C850.6666666666666,98.75092592592594,853.0833333333334,98.74560185185186,855.5,98.74027777777778C857.9166666666666,98.7349537037037,860.3333333333334,98.72962962962961,862.75,98.72430555555555C865.1666666666666,98.71898148148148,867.5833333333334,98.71365740740741,870,98.70833333333334C872.4166666666666,98.70300925925928,874.8333333333334,98.69768518518518,877.25,98.69236111111111C879.6666666666666,98.68703703703704,882.0833333333334,98.68171296296296,884.5,98.6763888888889C886.9166666666666,98.67106481481483,889.3333333333334,98.66574074074074,891.75,98.66041666666666C894.1666666666666,98.65509259259258,896.5833333333334,98.64976851851853,899,98.64444444444445C901.4166666666666,98.63912037037036,903.8333333333334,98.63379629629628,906.25,98.62847222222221C908.6666666666666,98.62314814814815,911.0833333333334,98.61782407407406,913.5,98.6125C915.9166666666666,98.60717592592593,918.3333333333334,98.60185185185185,920.75,98.59652777777778C923.1666666666666,98.59120370370371,925.5833333333334,98.58587962962963,928,98.58055555555555C930.4166666666666,98.57523148148147,932.8333333333334,98.5699074074074,935.25,98.56458333333333C937.6666666666666,98.55925925925926,940.0833333333334,98.55393518518518,942.5,98.54861111111111C944.9166666666666,98.54328703703705,947.3333333333334,98.53796296296298,949.75,98.5326388888889C952.1666666666666,98.52731481481482,954.5833333333334,98.52199074074073,957,98.51666666666667C959.4166666666666,98.5113425925926,961.8333333333334,98.50601851851852,964.25,98.50069444444445C966.6666666666667,98.49537037037037,969.0833333333334,98.4900462962963,971.5000000000001,98.48472222222222C973.9166666666667,98.47939814814815,976.3333333333335,98.47407407407408,978.7500000000001,98.46875C981.1666666666667,98.46342592592592,983.5833333333335,98.45810185185184,986.0000000000001,98.45277777777777C988.4166666666667,98.4474537037037,990.8333333333335,98.44212962962962,993.2500000000001,98.43680555555555C995.6666666666667,98.43148148148148,998.0833333333333,98.4261574074074,1000.4999999999999,98.42083333333333C1002.9166666666665,98.41550925925925,1005.3333333333333,98.41018518518517,1007.7499999999999,98.4048611111111C1010.1666666666665,98.39953703703704,1012.5833333333333,98.39421296296297,1014.9999999999999,98.3888888888889C1017.4166666666665,98.38356481481483,1019.8333333333333,98.37824074074074,1022.2499999999999,98.37291666666667C1024.6666666666665,98.36759259259259,1027.0833333333333,98.36226851851853,1029.5,98.35694444444445C1031.9166666666667,98.35162037037038,1034.3333333333333,98.34629629629629,1036.75,98.34097222222222C1039.1666666666667,98.33564814814815,1041.5833333333333,98.33032407407407,1044,98.325C1046.4166666666667,98.31967592592594,1048.8333333333333,98.31435185185185,1051.25,98.30902777777777C1053.6666666666667,98.30370370370369,1056.0833333333333,98.29837962962962,1058.5,98.29305555555555C1060.9166666666667,98.28773148148149,1063.3333333333333,98.28240740740742,1065.75,98.27708333333334C1068.1666666666667,98.27175925925926,1070.5833333333333,98.26643518518517,1073,98.2611111111111C1075.4166666666667,98.25578703703704,1077.8333333333333,98.25046296296296,1080.25,98.24513888888889C1082.6666666666667,98.23981481481482,1085.0833333333333,98.23449074074074,1087.5,98.22916666666667C1089.9166666666667,98.2238425925926,1092.3333333333333,98.21851851851852,1094.75,98.21319444444445C1097.1666666666667,98.20787037037039,1099.5833333333333,98.2025462962963,1102,98.19722222222222C1104.4166666666667,98.19189814814814,1106.8333333333333,98.18657407407409,1109.25,98.18125C1111.6666666666667,98.17592592592592,1114.0833333333333,98.17060185185184,1116.5,98.16527777777777C1118.9166666666667,98.1599537037037,1121.3333333333333,98.15462962962962,1123.75,98.14930555555556C1126.1666666666667,98.14398148148149,1128.5833333333333,98.13865740740741,1131,98.13333333333333C1133.4166666666667,98.12800925925924,1135.8333333333333,98.12268518518518,1138.25,98.11736111111111C1140.6666666666667,98.11203703703704,1143.0833333333333,98.10671296296297,1145.5,98.10138888888889C1147.9166666666667,98.09606481481481,1150.3333333333333,98.09074074074073,1152.75,98.08541666666666C1155.1666666666667,98.08009259259259,1157.5833333333333,98.07476851851852,1160,98.06944444444446C1162.4166666666667,98.06412037037039,1164.8333333333333,98.0587962962963,1167.25,98.05347222222223C1169.6666666666667,98.04814814814816,1172.0833333333333,98.04282407407408,1174.5,98.03750000000001C1176.9166666666667,98.03217592592594,1179.3333333333333,98.02685185185186,1181.75,98.02152777777778C1184.1666666666667,98.0162037037037,1186.5833333333333,98.01087962962964,1189,98.00555555555556C1191.4166666666667,98.00023148148148,1193.8333333333333,97.9949074074074,1196.25,97.98958333333333C1198.6666666666667,97.98425925925926,1201.0833333333333,97.97893518518518,1203.5,97.97361111111111C1205.9166666666667,97.96828703703704,1208.3333333333333,97.96296296296296,1210.75,97.95763888888888C1213.1666666666667,97.9523148148148,1215.5833333333333,97.94699074074073,1218,97.94166666666666C1220.4166666666667,97.9363425925926,1222.8333333333333,97.93101851851853,1225.25,97.92569444444445C1227.6666666666667,97.92037037037036,1230.0833333333333,97.91504629629628,1232.5,97.90972222222221C1234.9166666666667,97.90439814814815,1237.3333333333333,97.89907407407408,1239.75,97.89375000000001C1242.1666666666667,97.88842592592594,1244.5833333333333,97.88310185185185,1247,97.87777777777778C1249.4166666666667,97.87245370370371,1251.8333333333333,97.86712962962963,1254.25,97.86180555555556C1256.6666666666667,97.8564814814815,1259.0833333333333,97.85115740740741,1261.5,97.84583333333333C1263.9166666666667,97.84050925925925,1266.3333333333333,97.8351851851852,1268.75,97.82986111111111C1271.1666666666667,97.82453703703703,1273.5833333333333,97.81921296296295,1276,97.81388888888888C1278.4166666666667,97.80856481481482,1280.8333333333333,97.80324074074073,1283.25,97.79791666666667C1285.6666666666667,97.7925925925926,1288.0833333333333,97.78726851851852,1290.5,97.78194444444445C1292.9166666666667,97.77662037037038,1295.3333333333333,97.7712962962963,1297.75,97.76597222222222C1300.1666666666667,97.76064814814814,1302.5833333333333,97.76064814814815,1305,97.75C1307.4166666666667,97.73935185185185,1309.8333333333333,94.875,1312.25,93.4375C1314.6666666666667,92,1317.0833333333333,90.5625,1319.5,89.125C1321.9166666666667,87.6875,1324.3333333333333,86.25,1326.75,84.8125C1329.1666666666667,83.375,1331.5833333333333,81.9375,1334,80.5C1336.4166666666667,79.0625,1338.8333333333333,77.625,1341.25,76.1875C1343.6666666666667,74.75,1346.0833333333333,73.3125,1348.5,71.875C1350.9166666666667,70.4375,1353.3333333333333,69,1355.75,67.5625C1358.1666666666667,66.125,1360.5833333333333,64.68750000000001,1363,63.25000000000001C1365.4166666666667,61.81250000000001,1367.8333333333333,60.37499999999999,1370.25,58.93749999999999C1372.6666666666667,57.49999999999999,1375.0833333333333,56.0625,1377.5,54.625C1379.9166666666667,53.1875,1382.3333333333333,51.75,1384.75,50.3125C1387.1666666666667,48.875,1389.5833333333333,47.4375,1392,46C1394.4166666666667,44.5625,1396.8333333333333,43.12500000000001,1399.25,41.68750000000001C1401.6666666666667,40.25000000000001,1404.0833333333333,38.81249999999999,1406.5,37.37499999999999C1408.9166666666667,35.93749999999999,1411.3333333333333,34.50000000000001,1413.75,33.06250000000001C1416.1666666666667,31.625000000000007,1418.5833333333333,30.1875,1421,28.75C1423.4166666666667,27.3125,1425.8333333333333,25.875000000000004,1428.25,24.437500000000004C1430.6666666666667,23.000000000000004,1433.0833333333333,21.562500000000004,1435.5,20.125000000000004C1437.9166666666667,18.687500000000004,1440.3333333333333,17.249999999999996,1442.75,15.812499999999995C1445.1666666666667,14.374999999999995,1447.5833333333333,12.937499999999996,1450,11.499999999999998" fill="transparent" stroke-linecap="round" stroke="#E7C6DF" stroke-width="2"></path><g class="visx-group visx-axis visx-axis-bottom" transform="translate(0, 115)"><g class="visx-group visx-axis-tick" transform="translate(0, 0)"><line class="visx-line" x1="0" y1="0" x2="0" y2="8" fill="transparent" shape-rendering="crispEdges" stroke="#000" stroke-width="0" stroke-linecap="square"></line><svg x="0" y="0" font-size="10" style="overflow:visible"><text transform="" x="0" y="18" fill="#000" font-size="10" text-anchor="middle"><tspan x="0" dy="0em">0%</tspan></text></svg></g><g class="visx-group visx-axis-tick" transform="translate(0, 0)"><line class="visx-line" x1="362.5" y1="0" x2="362.5" y2="8" fill="transparent" shape-rendering="crispEdges" stroke="#000" stroke-width="0" stroke-linecap="square"></line><svg x="0" y="0" font-size="10" style="overflow:visible"><text transform="" x="362.5" y="18" fill="#000" font-size="10" text-anchor="middle"><tspan x="362.5" dy="0em">25%</tspan></text></svg></g><g class="visx-group visx-axis-tick" transform="translate(0, 0)"><line class="visx-line" x1="725" y1="0" x2="725" y2="8" fill="transparent" shape-rendering="crispEdges" stroke="#000" stroke-width="0" stroke-linecap="square"></line><svg x="0" y="0" font-size="10" style="overflow:visible"><text transform="" x="725" y="18" fill="#000" font-size="10" text-anchor="middle"><tspan x="725" dy="0em">50%</tspan></text></svg></g><g class="visx-group visx-axis-tick" transform="translate(0, 0)"><line class="visx-line" x1="1087.5" y1="0" x2="1087.5" y2="8" fill="transparent" shape-rendering="crispEdges" stroke="#000" stroke-width="0" stroke-linecap="square"></line><svg x="0" y="0" font-size="10" style="overflow:visible"><text transform="" x="1087.5" y="18" fill="#000" font-size="10" text-anchor="middle"><tspan x="1087.5" dy="0em">75%</tspan></text></svg></g><g class="visx-group visx-axis-tick" transform="translate(0, 0)"><line class="visx-line" x1="1450" y1="0" x2="1450" y2="8" fill="transparent" shape-rendering="crispEdges" stroke="#000" stroke-width="0" stroke-linecap="square"></line><svg x="0" y="0" font-size="10" style="overflow:visible"><text transform="" x="1450" y="18" fill="#000" font-size="10" text-anchor="middle"><tspan x="1450" dy="0em">100%</tspan></text></svg></g><line class="visx-line visx-axis-line" x1="0.5" y1="0" x2="1450.5" y2="0" fill="transparent" shape-rendering="crispEdges" stroke="#222" stroke-width="0"></line></g><g class="visx-group visx-axis visx-axis-left" transform="translate(0, 0)"><g class="visx-group visx-axis-tick" transform="translate(0, 0)"><line class="visx-line" x1="0" y1="115" x2="-8" y2="115" fill="transparent" shape-rendering="crispEdges" stroke="#222" stroke-width="0" stroke-linecap="square"></line><svg x="-30" y="0" font-size="8" style="overflow:visible"><text transform="" x="-8" y="115" fill="#000" font-size="8" text-anchor="start"><tspan x="-8" dy="0em">0%</tspan></text></svg></g><g class="visx-group visx-axis-tick" transform="translate(0, 0)"><line class="visx-line" x1="0" y1="43.125" x2="-8" y2="43.125" fill="transparent" shape-rendering="crispEdges" stroke="#222" stroke-width="0" stroke-linecap="square"></line><svg x="-30" y="0" font-size="8" style="overflow:visible"><text transform="" x="-8" y="43.125" fill="#000" font-size="8" text-anchor="start"><tspan x="-8" dy="0em">50%</tspan></text></svg></g><line class="visx-line visx-axis-line" x1="0" y1="115.5" x2="0" y2="0.5" fill="transparent" shape-rendering="crispEdges" stroke="#222" stroke-width="0"></line></g><rect class="visx-bar" width="1450" height="115" fill="transparent"></rect><line class="visx-line" x1="1305" y1="28" x2="1305" y2="115" fill="transparent" shape-rendering="crispEdges" stroke="#0062D2" stroke-width="1" pointer-events="none" stroke-dasharray="5,2"></line><svg x="0" y="0" font-size="10px" style="overflow:visible"><text transform="" x="1305" y="20" font-size="10px" fill="#fff" stroke="#fff" stroke-width="0.8em" text-anchor="middle"><tspan x="1305" dy="0.355em">Optimal 90%</tspan></text></svg><svg x="0" y="0" font-size="10px" style="overflow:visible"><text transform="" x="1305" y="20" font-size="10px" fill="#62677B" text-anchor="middle"><tspan x="1305" dy="0.355em">Optimal 90%</tspan></text></svg></g></svg>