<?xml version="1.0"?><svg xmlns="http://www.w3.org/2000/svg" xmlns:xlink= "http://www.w3.org/1999/xlink" style="background: white;" width="1500" height="185"> <g style="color: black; font-size: 13px; font-family: sans-serif; transform: translate(18px, 25px);"><g><circle r="3" cx="-6" cy="-5" style="fill: #B6509E" /><text>Borrow APR, variable</text></g><g style="transform: translateX(150px);"><circle r="3" cx="-6" cy="-5" style="fill: rgb(231, 198, 223)" /><text>Borrow APR, stable</text></g><g style="transform: translateX(290px);"><circle r="3" cx="-6" cy="-5" style="fill: rgb(0, 98, 210)" /><text>Utilization Rate</text></g></g><g class="visx-group" transform="translate(40, 50)"><g class="visx-group visx-rows" transform="translate(0, 0)"><line class="visx-line" x1="0" y1="115" x2="1450" y2="115" fill="transparent" shape-rendering="crispEdges" stroke="#000" stroke-width="1" stroke-dasharray="3,3" pointer-events="none"></line><line class="visx-line" x1="0" y1="89.44444444444444" x2="1450" y2="89.44444444444444" fill="transparent" shape-rendering="crispEdges" stroke="#000" stroke-width="1" stroke-dasharray="3,3" pointer-events="none"></line><line class="visx-line" x1="0" y1="63.88888888888889" x2="1450" y2="63.88888888888889" fill="transparent" shape-rendering="crispEdges" stroke="#000" stroke-width="1" stroke-dasharray="3,3" pointer-events="none"></line><line class="visx-line" x1="0" y1="38.333333333333336" x2="1450" y2="38.333333333333336" fill="transparent" shape-rendering="crispEdges" stroke="#000" stroke-width="1" stroke-dasharray="3,3" pointer-events="none"></line><line class="visx-line" x1="0" y1="12.777777777777784" x2="1450" y2="12.777777777777784" fill="transparent" shape-rendering="crispEdges" stroke="#000" stroke-width="1" stroke-dasharray="3,3" pointer-events="none"></line></g><path class="visx-linepath" d="M0,114.87222222221902C2.4166666666666665,114.87168981481294,4.833333333333334,114.87115740740687,7.25,114.87062499999999C9.666666666666666,114.87009259259311,12.083333333333334,114.86956018518518,14.5,114.86902777777777C16.916666666666668,114.86849537037037,19.333333333333332,114.86796296296296,21.75,114.86743055555556C24.166666666666668,114.86689814814815,26.583333333333332,114.86636574074075,29,114.86583333333334C31.416666666666668,114.86530092592594,33.833333333333336,114.86476851851852,36.25,114.86423611111111C38.666666666666664,114.8637037037037,41.083333333333336,114.86317129629629,43.5,114.86263888888888C45.91666666666667,114.86210648148148,48.333333333333336,114.86157407407407,50.75000000000001,114.86104166666667C53.16666666666667,114.86050925925926,55.583333333333336,114.85997685185185,58,114.85944444444445C60.416666666666664,114.85891203703704,62.833333333333336,114.85837962962962,65.25,114.85784722222222C67.66666666666667,114.85731481481481,70.08333333333333,114.85678240740741,72.5,114.85625C74.91666666666667,114.8557175925926,77.33333333333333,114.85518518518519,79.75,114.85465277777779C82.16666666666667,114.85412037037038,84.58333333333333,114.85358796296296,87,114.85305555555556C89.41666666666667,114.85252314814815,91.83333333333333,114.85199074074073,94.25,114.85145833333333C96.66666666666667,114.85092592592592,99.08333333333334,114.85039351851852,101.50000000000001,114.84986111111111C103.91666666666667,114.8493287037037,106.33333333333334,114.8487962962963,108.75,114.8482638888889C111.16666666666667,114.84773148148149,113.58333333333333,114.84719907407407,116,114.84666666666666C118.41666666666667,114.84613425925926,120.83333333333334,114.84560185185184,123.25000000000001,114.84506944444443C125.66666666666667,114.84453703703703,128.08333333333334,114.84400462962962,130.5,114.84347222222222C132.91666666666666,114.84293981481481,135.33333333333334,114.8424074074074,137.75,114.841875C140.16666666666666,114.8413425925926,142.58333333333334,114.84081018518518,145,114.84027777777777C147.41666666666666,114.83974537037037,149.83333333333334,114.83921296296296,152.25,114.83868055555556C154.66666666666666,114.83814814814815,157.08333333333334,114.83761574074074,159.5,114.83708333333334C161.91666666666666,114.83655092592593,164.33333333333334,114.83601851851851,166.75,114.83548611111111C169.16666666666666,114.8349537037037,171.58333333333334,114.83442129629628,174,114.83388888888888C176.41666666666666,114.83335648148147,178.83333333333334,114.83282407407407,181.25,114.83229166666666C183.66666666666666,114.83175925925926,186.08333333333334,114.83122685185185,188.5,114.83069444444445C190.91666666666666,114.83016203703704,193.33333333333334,114.82962962962964,195.75,114.82909722222223C198.16666666666669,114.82856481481483,200.58333333333334,114.8280324074074,203.00000000000003,114.8275C205.41666666666669,114.8269675925926,207.83333333333331,114.82643518518518,210.24999999999997,114.82590277777777C212.66666666666666,114.82537037037036,215.08333333333331,114.82483796296296,217.5,114.82430555555555C219.91666666666666,114.82377314814815,222.33333333333334,114.82324074074074,224.75,114.82270833333334C227.16666666666666,114.82217592592593,229.58333333333334,114.82164351851851,232,114.82111111111111C234.41666666666666,114.8205787037037,236.83333333333334,114.8200462962963,239.25,114.81951388888889C241.66666666666669,114.81898148148149,244.08333333333334,114.81844907407407,246.50000000000003,114.81791666666666C248.91666666666669,114.81738425925926,251.33333333333331,114.81685185185185,253.74999999999997,114.81631944444445C256.16666666666663,114.81578703703704,258.5833333333333,114.81525462962962,261,114.81472222222222C263.4166666666667,114.81418981481481,265.8333333333333,114.8136574074074,268.25,114.813125C270.6666666666667,114.8125925925926,273.0833333333333,114.81206018518519,275.5,114.81152777777778C277.9166666666667,114.81099537037038,280.3333333333333,114.81046296296297,282.75,114.80993055555557C285.1666666666667,114.80939814814816,287.5833333333333,114.80886574074073,290,114.80833333333332C292.4166666666667,114.80780092592592,294.8333333333333,114.80726851851851,297.25,114.8067361111111C299.6666666666667,114.8062037037037,302.0833333333333,114.8056712962963,304.5,114.80513888888889C306.9166666666667,114.80460648148149,309.3333333333333,114.80407407407408,311.75,114.80354166666667C314.1666666666667,114.80300925925927,316.5833333333333,114.80247685185185,319,114.80194444444444C321.4166666666667,114.80141203703704,323.8333333333333,114.80087962962962,326.25,114.80034722222221C328.6666666666667,114.79981481481481,331.0833333333333,114.7992824074074,333.5,114.79875C335.9166666666667,114.7982175925926,338.3333333333333,114.79768518518519,340.75,114.79715277777778C343.1666666666667,114.79662037037038,345.5833333333333,114.79608796296296,348,114.79555555555555C350.4166666666667,114.79502314814815,352.8333333333333,114.79449074074074,355.25,114.79395833333334C357.6666666666667,114.79342592592593,360.0833333333333,114.79289351851853,362.5,114.79236111111112C364.9166666666667,114.79182870370371,367.3333333333333,114.7912962962963,369.75,114.79076388888889C372.1666666666667,114.79023148148148,374.5833333333333,114.78969907407406,377,114.78916666666666C379.4166666666667,114.78863425925925,381.8333333333333,114.78810185185185,384.25,114.78756944444444C386.6666666666667,114.78703703703704,389.0833333333333,114.78650462962963,391.5,114.78597222222223C393.9166666666667,114.78543981481482,396.33333333333337,114.78490740740742,398.75000000000006,114.78437500000001C401.16666666666674,114.7838425925926,403.58333333333337,114.78331018518517,406.00000000000006,114.78277777777777C408.4166666666667,114.78224537037036,410.8333333333333,114.78171296296296,413.24999999999994,114.78118055555555C415.66666666666663,114.78064814814815,418.08333333333326,114.78011574074074,420.49999999999994,114.77958333333333C422.91666666666663,114.77905092592593,425.3333333333333,114.77851851851852,427.75,114.77798611111112C430.1666666666667,114.77745370370371,432.5833333333333,114.7769212962963,435,114.77638888888889C437.4166666666667,114.77585648148148,439.8333333333333,114.77532407407408,442.25,114.77479166666667C444.6666666666667,114.77425925925927,447.0833333333333,114.77372685185185,449.5,114.77319444444444C451.9166666666667,114.77266203703704,454.3333333333333,114.77212962962963,456.75,114.77159722222223C459.1666666666667,114.77106481481482,461.5833333333333,114.7705324074074,464,114.77C466.4166666666667,114.76946759259259,468.8333333333333,114.76893518518519,471.25,114.76840277777778C473.6666666666667,114.76787037037037,476.0833333333333,114.76733796296297,478.5,114.76680555555556C480.9166666666667,114.76627314814816,483.33333333333337,114.76574074074074,485.75000000000006,114.76520833333333C488.16666666666674,114.76467592592593,490.58333333333337,114.76414351851851,493.00000000000006,114.7636111111111C495.4166666666667,114.7630787037037,497.8333333333333,114.76254629629629,500.24999999999994,114.76201388888889C502.66666666666663,114.76148148148148,505.08333333333326,114.76094907407408,507.49999999999994,114.76041666666667C509.91666666666663,114.75988425925927,512.3333333333333,114.75935185185185,514.75,114.75881944444444C517.1666666666666,114.75828703703704,519.5833333333334,114.75775462962963,522,114.75722222222223C524.4166666666666,114.75668981481482,526.8333333333334,114.7561574074074,529.25,114.755625C531.6666666666666,114.75509259259259,534.0833333333334,114.75456018518518,536.5,114.75402777777778C538.9166666666666,114.75349537037037,541.3333333333334,114.75296296296295,543.75,114.75243055555555C546.1666666666666,114.75189814814814,548.5833333333334,114.75136574074074,551,114.75083333333333C553.4166666666666,114.75030092592593,555.8333333333334,114.74976851851852,558.25,114.74923611111112C560.6666666666666,114.74870370370371,563.0833333333334,114.74817129629629,565.5,114.74763888888889C567.9166666666666,114.74710648148148,570.3333333333334,114.74657407407406,572.75,114.74604166666666C575.1666666666666,114.74550925925925,577.5833333333334,114.74497685185185,580,114.74444444444444C582.4166666666666,114.74391203703703,584.8333333333334,114.74337962962963,587.25,114.74284722222222C589.6666666666666,114.74231481481482,592.0833333333334,114.74178240740741,594.5,114.74125000000001C596.9166666666666,114.7407175925926,599.3333333333334,114.74018518518518,601.75,114.73965277777778C604.1666666666666,114.73912037037037,606.5833333333334,114.73858796296295,609,114.73805555555555C611.4166666666666,114.73752314814814,613.8333333333334,114.73699074074074,616.25,114.73645833333333C618.6666666666666,114.73592592592593,621.0833333333334,114.73539351851852,623.5,114.73486111111112C625.9166666666666,114.73432870370371,628.3333333333334,114.73379629629629,630.75,114.73326388888889C633.1666666666666,114.73273148148148,635.5833333333334,114.73219907407407,638,114.73166666666667C640.4166666666666,114.73113425925926,642.8333333333334,114.73060185185186,645.25,114.73006944444445C647.6666666666666,114.72953703703705,650.0833333333334,114.72900462962963,652.5,114.72847222222222C654.9166666666666,114.72793981481482,657.3333333333334,114.7274074074074,659.75,114.72687499999999C662.1666666666666,114.72634259259259,664.5833333333334,114.72581018518518,667,114.72527777777778C669.4166666666666,114.72474537037037,671.8333333333334,114.72421296296297,674.25,114.72368055555556C676.6666666666666,114.72314814814816,679.0833333333334,114.72261574074075,681.5,114.72208333333334C683.9166666666666,114.72155092592594,686.3333333333334,114.7210185185185,688.75,114.7204861111111C691.1666666666666,114.7199537037037,693.5833333333334,114.71942129629629,696,114.71888888888888C698.4166666666666,114.71835648148148,700.8333333333334,114.71782407407407,703.25,114.71729166666667C705.6666666666666,114.71675925925926,708.0833333333334,114.71622685185186,710.5,114.71569444444445C712.9166666666666,114.71516203703705,715.3333333333334,114.71462962962963,717.75,114.71409722222222C720.1666666666666,114.71356481481482,722.5833333333334,114.71303240740741,725,114.7125C727.4166666666666,114.7119675925926,729.8333333333334,114.71143518518518,732.25,114.71090277777778C734.6666666666666,114.71037037037037,737.0833333333334,114.70983796296296,739.5,114.70930555555556C741.9166666666666,114.70877314814815,744.3333333333334,114.70824074074073,746.75,114.70770833333333C749.1666666666666,114.70717592592592,751.5833333333334,114.70664351851852,754,114.70611111111111C756.4166666666666,114.70557870370371,758.8333333333334,114.7050462962963,761.25,114.7045138888889C763.6666666666666,114.70398148148149,766.0833333333334,114.70344907407407,768.5,114.70291666666667C770.9166666666666,114.70238425925926,773.3333333333334,114.70185185185184,775.75,114.70131944444444C778.1666666666666,114.70078703703703,780.5833333333334,114.70025462962963,783,114.69972222222222C785.4166666666667,114.69918981481482,787.8333333333334,114.69865740740741,790.2500000000001,114.698125C792.6666666666667,114.6975925925926,795.0833333333335,114.6970601851852,797.5000000000001,114.69652777777779C799.9166666666667,114.69599537037038,802.3333333333335,114.69546296296296,804.7500000000001,114.69493055555556C807.1666666666667,114.69439814814815,809.5833333333335,114.69386574074073,812.0000000000001,114.69333333333333C814.4166666666667,114.69280092592592,816.8333333333333,114.69226851851852,819.2499999999999,114.69173611111111C821.6666666666665,114.6912037037037,824.0833333333333,114.6906712962963,826.4999999999999,114.6901388888889C828.9166666666665,114.68960648148149,831.3333333333333,114.68907407407407,833.7499999999999,114.68854166666667C836.1666666666665,114.68800925925926,838.5833333333333,114.68747685185186,840.9999999999999,114.68694444444445C843.4166666666666,114.68641203703704,845.8333333333333,114.68587962962962,848.25,114.68534722222222C850.6666666666666,114.68481481481481,853.0833333333334,114.68428240740741,855.5,114.68375C857.9166666666666,114.6832175925926,860.3333333333334,114.68268518518518,862.75,114.68215277777777C865.1666666666666,114.68162037037037,867.5833333333334,114.68108796296296,870,114.68055555555556C872.4166666666666,114.68002314814815,874.8333333333334,114.67949074074075,877.25,114.67895833333334C879.6666666666666,114.67842592592594,882.0833333333334,114.67789351851852,884.5,114.67736111111111C886.9166666666666,114.6768287037037,889.3333333333334,114.67629629629629,891.75,114.67576388888888C894.1666666666666,114.67523148148148,896.5833333333334,114.67469907407407,899,114.67416666666666C901.4166666666666,114.67363425925926,903.8333333333334,114.67310185185185,906.25,114.67256944444445C908.6666666666666,114.67203703703704,911.0833333333334,114.67150462962962,913.5,114.67097222222222C915.9166666666666,114.67043981481481,918.3333333333334,114.66990740740741,920.75,114.669375C923.1666666666666,114.6688425925926,925.5833333333334,114.66831018518518,928,114.66777777777777C930.4166666666666,114.66724537037037,932.8333333333334,114.66671296296296,935.25,114.66618055555556C937.6666666666666,114.66564814814815,940.0833333333334,114.66511574074073,942.5,114.66458333333333C944.9166666666666,114.66405092592592,947.3333333333334,114.66351851851852,949.75,114.66298611111111C952.1666666666666,114.6624537037037,954.5833333333334,114.6619212962963,957,114.6613888888889C959.4166666666666,114.66085648148149,961.8333333333334,114.66032407407408,964.25,114.65979166666668C966.6666666666667,114.65925925925927,969.0833333333334,114.65872685185184,971.5000000000001,114.65819444444443C973.9166666666667,114.65766203703703,976.3333333333335,114.65712962962962,978.7500000000001,114.65659722222222C981.1666666666667,114.65606481481481,983.5833333333335,114.6555324074074,986.0000000000001,114.655C988.4166666666667,114.6544675925926,990.8333333333335,114.65393518518519,993.2500000000001,114.65340277777779C995.6666666666667,114.65287037037038,998.0833333333333,114.65233796296296,1000.4999999999999,114.65180555555555C1002.9166666666665,114.65127314814815,1005.3333333333333,114.65074074074073,1007.7499999999999,114.65020833333332C1010.1666666666665,114.64967592592592,1012.5833333333333,114.64914351851851,1014.9999999999999,114.64861111111111C1017.4166666666665,114.6480787037037,1019.8333333333333,114.6475462962963,1022.2499999999999,114.64701388888889C1024.6666666666665,114.64648148148149,1027.0833333333333,114.64594907407407,1029.5,114.64541666666666C1031.9166666666667,114.64488425925926,1034.3333333333333,114.64435185185185,1036.75,114.64381944444445C1039.1666666666667,114.64328703703704,1041.5833333333333,114.64275462962964,1044,114.64222222222223C1046.4166666666667,114.64168981481482,1048.8333333333333,114.6411574074074,1051.25,114.640625C1053.6666666666667,114.6400925925926,1056.0833333333333,114.63956018518518,1058.5,114.63902777777777C1060.9166666666667,114.63849537037036,1063.3333333333333,114.63796296296296,1065.75,114.63743055555555C1068.1666666666667,114.63689814814815,1070.5833333333333,114.63636574074074,1073,114.63583333333334C1075.4166666666667,114.63530092592593,1077.8333333333333,114.63476851851853,1080.25,114.63423611111112C1082.6666666666667,114.63370370370372,1085.0833333333333,114.63317129629628,1087.5,114.63263888888888C1089.9166666666667,114.63210648148147,1092.3333333333333,114.63157407407407,1094.75,114.63104166666666C1097.1666666666667,114.63050925925926,1099.5833333333333,114.62997685185185,1102,114.62944444444445C1104.4166666666667,114.62891203703704,1106.8333333333333,114.62837962962963,1109.25,114.62784722222223C1111.6666666666667,114.62731481481482,1114.0833333333333,114.6267824074074,1116.5,114.62625C1118.9166666666667,114.6257175925926,1121.3333333333333,114.62518518518519,1123.75,114.62465277777778C1126.1666666666667,114.62412037037038,1128.5833333333333,114.62358796296296,1131,114.62305555555555C1133.4166666666667,114.62252314814815,1135.8333333333333,114.62199074074074,1138.25,114.62145833333334C1140.6666666666667,114.62092592592593,1143.0833333333333,114.62039351851851,1145.5,114.6198611111111C1147.9166666666667,114.6193287037037,1150.3333333333333,114.6187962962963,1152.75,114.61826388888889C1155.1666666666667,114.61773148148148,1157.5833333333333,114.61773148148148,1160,114.61666666666667C1162.4166666666667,114.61560185185186,1164.8333333333333,113.01944444444445,1167.25,112.22083333333333C1169.6666666666667,111.42222222222222,1172.0833333333333,110.6236111111111,1174.5,109.82499999999999C1176.9166666666667,109.02638888888887,1179.3333333333333,108.22777777777779,1181.75,107.42916666666667C1184.1666666666667,106.63055555555556,1186.5833333333333,105.83194444444445,1189,105.03333333333333C1191.4166666666667,104.23472222222222,1193.8333333333333,103.4361111111111,1196.25,102.63749999999999C1198.6666666666667,101.83888888888887,1201.0833333333333,101.04027777777779,1203.5,100.24166666666667C1205.9166666666667,99.44305555555556,1208.3333333333333,98.64444444444445,1210.75,97.84583333333333C1213.1666666666667,97.04722222222222,1215.5833333333333,96.2486111111111,1218,95.44999999999999C1220.4166666666667,94.65138888888887,1222.8333333333333,93.85277777777779,1225.25,93.05416666666667C1227.6666666666667,92.25555555555556,1230.0833333333333,91.45694444444445,1232.5,90.65833333333333C1234.9166666666667,89.85972222222222,1237.3333333333333,89.06111111111112,1239.75,88.2625C1242.1666666666667,87.46388888888889,1244.5833333333333,86.66527777777779,1247,85.86666666666667C1249.4166666666667,85.06805555555556,1251.8333333333333,84.26944444444445,1254.25,83.47083333333333C1256.6666666666667,82.67222222222222,1259.0833333333333,81.87361111111112,1261.5,81.075C1263.9166666666667,80.27638888888889,1266.3333333333333,79.47777777777777,1268.75,78.67916666666666C1271.1666666666667,77.88055555555555,1273.5833333333333,77.08194444444445,1276,76.28333333333333C1278.4166666666667,75.48472222222222,1280.8333333333333,74.68611111111112,1283.25,73.8875C1285.6666666666667,73.08888888888889,1288.0833333333333,72.29027777777777,1290.5,71.49166666666666C1292.9166666666667,70.69305555555555,1295.3333333333333,69.89444444444445,1297.75,69.09583333333333C1300.1666666666667,68.29722222222222,1302.5833333333333,67.49861111111112,1305,66.7C1307.4166666666667,65.90138888888889,1309.8333333333333,65.10277777777777,1312.25,64.30416666666666C1314.6666666666667,63.505555555555546,1317.0833333333333,62.70694444444444,1319.5,61.90833333333333C1321.9166666666667,61.109722222222224,1324.3333333333333,60.31111111111112,1326.75,59.51250000000001C1329.1666666666667,58.7138888888889,1331.5833333333333,57.91527777777778,1334,57.11666666666667C1336.4166666666667,56.31805555555555,1338.8333333333333,55.519444444444446,1341.25,54.72083333333333C1343.6666666666667,53.92222222222222,1346.0833333333333,53.1236111111111,1348.5,52.324999999999996C1350.9166666666667,51.52638888888889,1353.3333333333333,50.727777777777774,1355.75,49.92916666666667C1358.1666666666667,49.13055555555556,1360.5833333333333,48.331944444444446,1363,47.53333333333333C1365.4166666666667,46.73472222222222,1367.8333333333333,45.9361111111111,1370.25,45.137499999999996C1372.6666666666667,44.33888888888889,1375.0833333333333,43.540277777777774,1377.5,42.74166666666667C1379.9166666666667,41.94305555555556,1382.3333333333333,41.144444444444446,1384.75,40.34583333333333C1387.1666666666667,39.54722222222222,1389.5833333333333,38.7486111111111,1392,37.949999999999996C1394.4166666666667,37.15138888888889,1396.8333333333333,36.352777777777774,1399.25,35.55416666666667C1401.6666666666667,34.75555555555556,1404.0833333333333,33.956944444444446,1406.5,33.15833333333333C1408.9166666666667,32.35972222222222,1411.3333333333333,31.561111111111106,1413.75,30.762499999999996C1416.1666666666667,29.963888888888885,1418.5833333333333,29.16527777777778,1421,28.36666666666667C1423.4166666666667,27.56805555555556,1425.8333333333333,26.769444444444442,1428.25,25.97083333333333C1430.6666666666667,25.17222222222222,1433.0833333333333,24.373611111111106,1435.5,23.574999999999996C1437.9166666666667,22.776388888888885,1440.3333333333333,21.97777777777778,1442.75,21.17916666666667C1445.1666666666667,20.38055555555556,1447.5833333333333,19.581944444444446,1450,18.78333333333333" fill="transparent" stroke-linecap="round" stroke="#B6509E" stroke-width="2"></path><path class="visx-linepath" d="M0,113.72222222222223C2.4166666666666665,113.72222222222223,4.833333333333334,113.72222222222223,7.25,113.72222222222223C9.666666666666666,113.72222222222223,12.083333333333334,113.72222222222223,14.5,113.72222222222223C16.916666666666668,113.72222222222223,19.333333333333332,113.72222222222223,21.75,113.72222222222223C24.166666666666668,113.72222222222223,26.583333333333332,113.72222222222223,29,113.72222222222223C31.416666666666668,113.72222222222223,33.833333333333336,113.72222222222223,36.25,113.72222222222223C38.666666666666664,113.72222222222223,41.083333333333336,113.72222222222223,43.5,113.72222222222223C45.91666666666667,113.72222222222223,48.333333333333336,113.72222222222223,50.75000000000001,113.72222222222223C53.16666666666667,113.72222222222223,55.583333333333336,113.72222222222223,58,113.72222222222223C60.416666666666664,113.72222222222223,62.833333333333336,113.72222222222223,65.25,113.72222222222223C67.66666666666667,113.72222222222223,70.08333333333333,113.72222222222223,72.5,113.72222222222223C74.91666666666667,113.72222222222223,77.33333333333333,113.72222222222223,79.75,113.72222222222223C82.16666666666667,113.72222222222223,84.58333333333333,113.72222222222223,87,113.72222222222223C89.41666666666667,113.72222222222223,91.83333333333333,113.72222222222223,94.25,113.72222222222223C96.66666666666667,113.72222222222223,99.08333333333334,113.72222222222223,101.50000000000001,113.72222222222223C103.91666666666667,113.72222222222223,106.33333333333334,113.72222222222223,108.75,113.72222222222223C111.16666666666667,113.72222222222223,113.58333333333333,113.72222222222223,116,113.72222222222223C118.41666666666667,113.72222222222223,120.83333333333334,113.72222222222223,123.25000000000001,113.72222222222223C125.66666666666667,113.72222222222223,128.08333333333334,113.72222222222223,130.5,113.72222222222223C132.91666666666666,113.72222222222223,135.33333333333334,113.72222222222223,137.75,113.72222222222223C140.16666666666666,113.72222222222223,142.58333333333334,113.72222222222223,145,113.72222222222223C147.41666666666666,113.72222222222223,149.83333333333334,113.72222222222223,152.25,113.72222222222223C154.66666666666666,113.72222222222223,157.08333333333334,113.72222222222223,159.5,113.72222222222223C161.91666666666666,113.72222222222223,164.33333333333334,113.72222222222223,166.75,113.72222222222223C169.16666666666666,113.72222222222223,171.58333333333334,113.72222222222223,174,113.72222222222223C176.41666666666666,113.72222222222223,178.83333333333334,113.72222222222223,181.25,113.72222222222223C183.66666666666666,113.72222222222223,186.08333333333334,113.72222222222223,188.5,113.72222222222223C190.91666666666666,113.72222222222223,193.33333333333334,113.72222222222223,195.75,113.72222222222223C198.16666666666669,113.72222222222223,200.58333333333334,113.72222222222223,203.00000000000003,113.72222222222223C205.41666666666669,113.72222222222223,207.83333333333331,113.72222222222223,210.24999999999997,113.72222222222223C212.66666666666666,113.72222222222223,215.08333333333331,113.72222222222223,217.5,113.72222222222223C219.91666666666666,113.72222222222223,222.33333333333334,113.72222222222223,224.75,113.72222222222223C227.16666666666666,113.72222222222223,229.58333333333334,113.72222222222223,232,113.72222222222223C234.41666666666666,113.72222222222223,236.83333333333334,113.72222222222223,239.25,113.72222222222223C241.66666666666669,113.72222222222223,244.08333333333334,113.72222222222223,246.50000000000003,113.72222222222223C248.91666666666669,113.72222222222223,251.33333333333331,113.72222222222223,253.74999999999997,113.72222222222223C256.16666666666663,113.72222222222223,258.5833333333333,113.72222222222223,261,113.72222222222223C263.4166666666667,113.72222222222223,265.8333333333333,113.72222222222223,268.25,113.72222222222223C270.6666666666667,113.72222222222223,273.0833333333333,113.72222222222223,275.5,113.72222222222223C277.9166666666667,113.72222222222223,280.3333333333333,113.72222222222223,282.75,113.72222222222223C285.1666666666667,113.72222222222223,287.5833333333333,113.72222222222223,290,113.72222222222223C292.4166666666667,113.72222222222223,294.8333333333333,113.72222222222223,297.25,113.72222222222223C299.6666666666667,113.72222222222223,302.0833333333333,113.72222222222223,304.5,113.72222222222223C306.9166666666667,113.72222222222223,309.3333333333333,113.72222222222223,311.75,113.72222222222223C314.1666666666667,113.72222222222223,316.5833333333333,113.72222222222223,319,113.72222222222223C321.4166666666667,113.72222222222223,323.8333333333333,113.72222222222223,326.25,113.72222222222223C328.6666666666667,113.72222222222223,331.0833333333333,113.72222222222223,333.5,113.72222222222223C335.9166666666667,113.72222222222223,338.3333333333333,113.72222222222223,340.75,113.72222222222223C343.1666666666667,113.72222222222223,345.5833333333333,113.72222222222223,348,113.72222222222223C350.4166666666667,113.72222222222223,352.8333333333333,113.72222222222223,355.25,113.72222222222223C357.6666666666667,113.72222222222223,360.0833333333333,113.72222222222223,362.5,113.72222222222223C364.9166666666667,113.72222222222223,367.3333333333333,113.72222222222223,369.75,113.72222222222223C372.1666666666667,113.72222222222223,374.5833333333333,113.72222222222223,377,113.72222222222223C379.4166666666667,113.72222222222223,381.8333333333333,113.72222222222223,384.25,113.72222222222223C386.6666666666667,113.72222222222223,389.0833333333333,113.72222222222223,391.5,113.72222222222223C393.9166666666667,113.72222222222223,396.33333333333337,113.72222222222223,398.75000000000006,113.72222222222223C401.16666666666674,113.72222222222223,403.58333333333337,113.72222222222223,406.00000000000006,113.72222222222223C408.4166666666667,113.72222222222223,410.8333333333333,113.72222222222223,413.24999999999994,113.72222222222223C415.66666666666663,113.72222222222223,418.08333333333326,113.72222222222223,420.49999999999994,113.72222222222223C422.91666666666663,113.72222222222223,425.3333333333333,113.72222222222223,427.75,113.72222222222223C430.1666666666667,113.72222222222223,432.5833333333333,113.72222222222223,435,113.72222222222223C437.4166666666667,113.72222222222223,439.8333333333333,113.72222222222223,442.25,113.72222222222223C444.6666666666667,113.72222222222223,447.0833333333333,113.72222222222223,449.5,113.72222222222223C451.9166666666667,113.72222222222223,454.3333333333333,113.72222222222223,456.75,113.72222222222223C459.1666666666667,113.72222222222223,461.5833333333333,113.72222222222223,464,113.72222222222223C466.4166666666667,113.72222222222223,468.8333333333333,113.72222222222223,471.25,113.72222222222223C473.6666666666667,113.72222222222223,476.0833333333333,113.72222222222223,478.5,113.72222222222223C480.9166666666667,113.72222222222223,483.33333333333337,113.72222222222223,485.75000000000006,113.72222222222223C488.16666666666674,113.72222222222223,490.58333333333337,113.72222222222223,493.00000000000006,113.72222222222223C495.4166666666667,113.72222222222223,497.8333333333333,113.72222222222223,500.24999999999994,113.72222222222223C502.66666666666663,113.72222222222223,505.08333333333326,113.72222222222223,507.49999999999994,113.72222222222223C509.91666666666663,113.72222222222223,512.3333333333333,113.72222222222223,514.75,113.72222222222223C517.1666666666666,113.72222222222223,519.5833333333334,113.72222222222223,522,113.72222222222223C524.4166666666666,113.72222222222223,526.8333333333334,113.72222222222223,529.25,113.72222222222223C531.6666666666666,113.72222222222223,534.0833333333334,113.72222222222223,536.5,113.72222222222223C538.9166666666666,113.72222222222223,541.3333333333334,113.72222222222223,543.75,113.72222222222223C546.1666666666666,113.72222222222223,548.5833333333334,113.72222222222223,551,113.72222222222223C553.4166666666666,113.72222222222223,555.8333333333334,113.72222222222223,558.25,113.72222222222223C560.6666666666666,113.72222222222223,563.0833333333334,113.72222222222223,565.5,113.72222222222223C567.9166666666666,113.72222222222223,570.3333333333334,113.72222222222223,572.75,113.72222222222223C575.1666666666666,113.72222222222223,577.5833333333334,113.72222222222223,580,113.72222222222223C582.4166666666666,113.72222222222223,584.8333333333334,113.72222222222223,587.25,113.72222222222223C589.6666666666666,113.72222222222223,592.0833333333334,113.72222222222223,594.5,113.72222222222223C596.9166666666666,113.72222222222223,599.3333333333334,113.72222222222223,601.75,113.72222222222223C604.1666666666666,113.72222222222223,606.5833333333334,113.72222222222223,609,113.72222222222223C611.4166666666666,113.72222222222223,613.8333333333334,113.72222222222223,616.25,113.72222222222223C618.6666666666666,113.72222222222223,621.0833333333334,113.72222222222223,623.5,113.72222222222223C625.9166666666666,113.72222222222223,628.3333333333334,113.72222222222223,630.75,113.72222222222223C633.1666666666666,113.72222222222223,635.5833333333334,113.72222222222223,638,113.72222222222223C640.4166666666666,113.72222222222223,642.8333333333334,113.72222222222223,645.25,113.72222222222223C647.6666666666666,113.72222222222223,650.0833333333334,113.72222222222223,652.5,113.72222222222223C654.9166666666666,113.72222222222223,657.3333333333334,113.72222222222223,659.75,113.72222222222223C662.1666666666666,113.72222222222223,664.5833333333334,113.72222222222223,667,113.72222222222223C669.4166666666666,113.72222222222223,671.8333333333334,113.72222222222223,674.25,113.72222222222223C676.6666666666666,113.72222222222223,679.0833333333334,113.72222222222223,681.5,113.72222222222223C683.9166666666666,113.72222222222223,686.3333333333334,113.72222222222223,688.75,113.72222222222223C691.1666666666666,113.72222222222223,693.5833333333334,113.72222222222223,696,113.72222222222223C698.4166666666666,113.72222222222223,700.8333333333334,113.72222222222223,703.25,113.72222222222223C705.6666666666666,113.72222222222223,708.0833333333334,113.72222222222223,710.5,113.72222222222223C712.9166666666666,113.72222222222223,715.3333333333334,113.72222222222223,717.75,113.72222222222223C720.1666666666666,113.72222222222223,722.5833333333334,113.72222222222223,725,113.72222222222223C727.4166666666666,113.72222222222223,729.8333333333334,113.72222222222223,732.25,113.72222222222223C734.6666666666666,113.72222222222223,737.0833333333334,113.72222222222223,739.5,113.72222222222223C741.9166666666666,113.72222222222223,744.3333333333334,113.72222222222223,746.75,113.72222222222223C749.1666666666666,113.72222222222223,751.5833333333334,113.72222222222223,754,113.72222222222223C756.4166666666666,113.72222222222223,758.8333333333334,113.72222222222223,761.25,113.72222222222223C763.6666666666666,113.72222222222223,766.0833333333334,113.72222222222223,768.5,113.72222222222223C770.9166666666666,113.72222222222223,773.3333333333334,113.72222222222223,775.75,113.72222222222223C778.1666666666666,113.72222222222223,780.5833333333334,113.72222222222223,783,113.72222222222223C785.4166666666667,113.72222222222223,787.8333333333334,113.72222222222223,790.2500000000001,113.72222222222223C792.6666666666667,113.72222222222223,795.0833333333335,113.72222222222223,797.5000000000001,113.72222222222223C799.9166666666667,113.72222222222223,802.3333333333335,113.72222222222223,804.7500000000001,113.72222222222223C807.1666666666667,113.72222222222223,809.5833333333335,113.72222222222223,812.0000000000001,113.72222222222223C814.4166666666667,113.72222222222223,816.8333333333333,113.72222222222223,819.2499999999999,113.72222222222223C821.6666666666665,113.72222222222223,824.0833333333333,113.72222222222223,826.4999999999999,113.72222222222223C828.9166666666665,113.72222222222223,831.3333333333333,113.72222222222223,833.7499999999999,113.72222222222223C836.1666666666665,113.72222222222223,838.5833333333333,113.72222222222223,840.9999999999999,113.72222222222223C843.4166666666666,113.72222222222223,845.8333333333333,113.72222222222223,848.25,113.72222222222223C850.6666666666666,113.72222222222223,853.0833333333334,113.72222222222223,855.5,113.72222222222223C857.9166666666666,113.72222222222223,860.3333333333334,113.72222222222223,862.75,113.72222222222223C865.1666666666666,113.72222222222223,867.5833333333334,113.72222222222223,870,113.72222222222223C872.4166666666666,113.72222222222223,874.8333333333334,113.72222222222223,877.25,113.72222222222223C879.6666666666666,113.72222222222223,882.0833333333334,113.72222222222223,884.5,113.72222222222223C886.9166666666666,113.72222222222223,889.3333333333334,113.72222222222223,891.75,113.72222222222223C894.1666666666666,113.72222222222223,896.5833333333334,113.72222222222223,899,113.72222222222223C901.4166666666666,113.72222222222223,903.8333333333334,113.72222222222223,906.25,113.72222222222223C908.6666666666666,113.72222222222223,911.0833333333334,113.72222222222223,913.5,113.72222222222223C915.9166666666666,113.72222222222223,918.3333333333334,113.72222222222223,920.75,113.72222222222223C923.1666666666666,113.72222222222223,925.5833333333334,113.72222222222223,928,113.72222222222223C930.4166666666666,113.72222222222223,932.8333333333334,113.72222222222223,935.25,113.72222222222223C937.6666666666666,113.72222222222223,940.0833333333334,113.72222222222223,942.5,113.72222222222223C944.9166666666666,113.72222222222223,947.3333333333334,113.72222222222223,949.75,113.72222222222223C952.1666666666666,113.72222222222223,954.5833333333334,113.72222222222223,957,113.72222222222223C959.4166666666666,113.72222222222223,961.8333333333334,113.72222222222223,964.25,113.72222222222223C966.6666666666667,113.72222222222223,969.0833333333334,113.72222222222223,971.5000000000001,113.72222222222223C973.9166666666667,113.72222222222223,976.3333333333335,113.72222222222223,978.7500000000001,113.72222222222223C981.1666666666667,113.72222222222223,983.5833333333335,113.72222222222223,986.0000000000001,113.72222222222223C988.4166666666667,113.72222222222223,990.8333333333335,113.72222222222223,993.2500000000001,113.72222222222223C995.6666666666667,113.72222222222223,998.0833333333333,113.72222222222223,1000.4999999999999,113.72222222222223C1002.9166666666665,113.72222222222223,1005.3333333333333,113.72222222222223,1007.7499999999999,113.72222222222223C1010.1666666666665,113.72222222222223,1012.5833333333333,113.72222222222223,1014.9999999999999,113.72222222222223C1017.4166666666665,113.72222222222223,1019.8333333333333,113.72222222222223,1022.2499999999999,113.72222222222223C1024.6666666666665,113.72222222222223,1027.0833333333333,113.72222222222223,1029.5,113.72222222222223C1031.9166666666667,113.72222222222223,1034.3333333333333,113.72222222222223,1036.75,113.72222222222223C1039.1666666666667,113.72222222222223,1041.5833333333333,113.72222222222223,1044,113.72222222222223C1046.4166666666667,113.72222222222223,1048.8333333333333,113.72222222222223,1051.25,113.72222222222223C1053.6666666666667,113.72222222222223,1056.0833333333333,113.72222222222223,1058.5,113.72222222222223C1060.9166666666667,113.72222222222223,1063.3333333333333,113.72222222222223,1065.75,113.72222222222223C1068.1666666666667,113.72222222222223,1070.5833333333333,113.72222222222223,1073,113.72222222222223C1075.4166666666667,113.72222222222223,1077.8333333333333,113.72222222222223,1080.25,113.72222222222223C1082.6666666666667,113.72222222222223,1085.0833333333333,113.72222222222223,1087.5,113.72222222222223C1089.9166666666667,113.72222222222223,1092.3333333333333,113.72222222222223,1094.75,113.72222222222223C1097.1666666666667,113.72222222222223,1099.5833333333333,113.72222222222223,1102,113.72222222222223C1104.4166666666667,113.72222222222223,1106.8333333333333,113.72222222222223,1109.25,113.72222222222223C1111.6666666666667,113.72222222222223,1114.0833333333333,113.72222222222223,1116.5,113.72222222222223C1118.9166666666667,113.72222222222223,1121.3333333333333,113.72222222222223,1123.75,113.72222222222223C1126.1666666666667,113.72222222222223,1128.5833333333333,113.72222222222223,1131,113.72222222222223C1133.4166666666667,113.72222222222223,1135.8333333333333,113.72222222222223,1138.25,113.72222222222223C1140.6666666666667,113.72222222222223,1143.0833333333333,113.72222222222223,1145.5,113.72222222222223C1147.9166666666667,113.72222222222223,1150.3333333333333,113.72222222222223,1152.75,113.72222222222223C1155.1666666666667,113.72222222222223,1157.5833333333333,113.72222222222223,1160,113.72222222222223C1162.4166666666667,113.72222222222223,1164.8333333333333,113.72222222222223,1167.25,113.72222222222223C1169.6666666666667,113.72222222222223,1172.0833333333333,113.72222222222223,1174.5,113.72222222222223C1176.9166666666667,113.72222222222223,1179.3333333333333,113.72222222222223,1181.75,113.72222222222223C1184.1666666666667,113.72222222222223,1186.5833333333333,113.72222222222223,1189,113.72222222222223C1191.4166666666667,113.72222222222223,1193.8333333333333,113.72222222222223,1196.25,113.72222222222223C1198.6666666666667,113.72222222222223,1201.0833333333333,113.72222222222223,1203.5,113.72222222222223C1205.9166666666667,113.72222222222223,1208.3333333333333,113.72222222222223,1210.75,113.72222222222223C1213.1666666666667,113.72222222222223,1215.5833333333333,113.72222222222223,1218,113.72222222222223C1220.4166666666667,113.72222222222223,1222.8333333333333,113.72222222222223,1225.25,113.72222222222223C1227.6666666666667,113.72222222222223,1230.0833333333333,113.72222222222223,1232.5,113.72222222222223C1234.9166666666667,113.72222222222223,1237.3333333333333,113.72222222222223,1239.75,113.72222222222223C1242.1666666666667,113.72222222222223,1244.5833333333333,113.72222222222223,1247,113.72222222222223C1249.4166666666667,113.72222222222223,1251.8333333333333,113.72222222222223,1254.25,113.72222222222223C1256.6666666666667,113.72222222222223,1259.0833333333333,113.72222222222223,1261.5,113.72222222222223C1263.9166666666667,113.72222222222223,1266.3333333333333,113.72222222222223,1268.75,113.72222222222223C1271.1666666666667,113.72222222222223,1273.5833333333333,113.72222222222223,1276,113.72222222222223C1278.4166666666667,113.72222222222223,1280.8333333333333,113.72222222222223,1283.25,113.72222222222223C1285.6666666666667,113.72222222222223,1288.0833333333333,113.72222222222223,1290.5,113.72222222222223C1292.9166666666667,113.72222222222223,1295.3333333333333,113.72222222222223,1297.75,113.72222222222223C1300.1666666666667,113.72222222222223,1302.5833333333333,113.72222222222223,1305,113.72222222222223C1307.4166666666667,113.72222222222223,1309.8333333333333,113.72222222222223,1312.25,113.72222222222223C1314.6666666666667,113.72222222222223,1317.0833333333333,113.72222222222223,1319.5,113.72222222222223C1321.9166666666667,113.72222222222223,1324.3333333333333,113.72222222222223,1326.75,113.72222222222223C1329.1666666666667,113.72222222222223,1331.5833333333333,113.72222222222223,1334,113.72222222222223C1336.4166666666667,113.72222222222223,1338.8333333333333,113.72222222222223,1341.25,113.72222222222223C1343.6666666666667,113.72222222222223,1346.0833333333333,113.72222222222223,1348.5,113.72222222222223C1350.9166666666667,113.72222222222223,1353.3333333333333,113.72222222222223,1355.75,113.72222222222223C1358.1666666666667,113.72222222222223,1360.5833333333333,113.72222222222223,1363,113.72222222222223C1365.4166666666667,113.72222222222223,1367.8333333333333,113.72222222222223,1370.25,113.72222222222223C1372.6666666666667,113.72222222222223,1375.0833333333333,113.72222222222223,1377.5,113.72222222222223C1379.9166666666667,113.72222222222223,1382.3333333333333,113.72222222222223,1384.75,113.72222222222223C1387.1666666666667,113.72222222222223,1389.5833333333333,113.72222222222223,1392,113.72222222222223C1394.4166666666667,113.72222222222223,1396.8333333333333,113.72222222222223,1399.25,113.72222222222223C1401.6666666666667,113.72222222222223,1404.0833333333333,113.72222222222223,1406.5,113.72222222222223C1408.9166666666667,113.72222222222223,1411.3333333333333,113.72222222222223,1413.75,113.72222222222223C1416.1666666666667,113.72222222222223,1418.5833333333333,113.72222222222223,1421,113.72222222222223C1423.4166666666667,113.72222222222223,1425.8333333333333,113.72222222222223,1428.25,113.72222222222223C1430.6666666666667,113.72222222222223,1433.0833333333333,113.72222222222223,1435.5,113.72222222222223C1437.9166666666667,113.72222222222223,1440.3333333333333,113.72222222222223,1442.75,113.72222222222223C1445.1666666666667,113.72222222222223,1447.5833333333333,113.72222222222223,1450,113.72222222222223" fill="transparent" stroke-linecap="round" stroke="#E7C6DF" stroke-width="2"></path><g class="visx-group visx-axis visx-axis-bottom" transform="translate(0, 115)"><g class="visx-group visx-axis-tick" transform="translate(0, 0)"><line class="visx-line" x1="0" y1="0" x2="0" y2="8" fill="transparent" shape-rendering="crispEdges" stroke="#000" stroke-width="0" stroke-linecap="square"></line><svg x="0" y="0" font-size="10" style="overflow:visible"><text transform="" x="0" y="18" fill="#000" font-size="10" text-anchor="middle"><tspan x="0" dy="0em">0%</tspan></text></svg></g><g class="visx-group visx-axis-tick" transform="translate(0, 0)"><line class="visx-line" x1="362.5" y1="0" x2="362.5" y2="8" fill="transparent" shape-rendering="crispEdges" stroke="#000" stroke-width="0" stroke-linecap="square"></line><svg x="0" y="0" font-size="10" style="overflow:visible"><text transform="" x="362.5" y="18" fill="#000" font-size="10" text-anchor="middle"><tspan x="362.5" dy="0em">25%</tspan></text></svg></g><g class="visx-group visx-axis-tick" transform="translate(0, 0)"><line class="visx-line" x1="725" y1="0" x2="725" y2="8" fill="transparent" shape-rendering="crispEdges" stroke="#000" stroke-width="0" stroke-linecap="square"></line><svg x="0" y="0" font-size="10" style="overflow:visible"><text transform="" x="725" y="18" fill="#000" font-size="10" text-anchor="middle"><tspan x="725" dy="0em">50%</tspan></text></svg></g><g class="visx-group visx-axis-tick" transform="translate(0, 0)"><line class="visx-line" x1="1087.5" y1="0" x2="1087.5" y2="8" fill="transparent" shape-rendering="crispEdges" stroke="#000" stroke-width="0" stroke-linecap="square"></line><svg x="0" y="0" font-size="10" style="overflow:visible"><text transform="" x="1087.5" y="18" fill="#000" font-size="10" text-anchor="middle"><tspan x="1087.5" dy="0em">75%</tspan></text></svg></g><g class="visx-group visx-axis-tick" transform="translate(0, 0)"><line class="visx-line" x1="1450" y1="0" x2="1450" y2="8" fill="transparent" shape-rendering="crispEdges" stroke="#000" stroke-width="0" stroke-linecap="square"></line><svg x="0" y="0" font-size="10" style="overflow:visible"><text transform="" x="1450" y="18" fill="#000" font-size="10" text-anchor="middle"><tspan x="1450" dy="0em">100%</tspan></text></svg></g><line class="visx-line visx-axis-line" x1="0.5" y1="0" x2="1450.5" y2="0" fill="transparent" shape-rendering="crispEdges" stroke="#222" stroke-width="0"></line></g><g class="visx-group visx-axis visx-axis-left" transform="translate(0, 0)"><g class="visx-group visx-axis-tick" transform="translate(0, 0)"><line class="visx-line" x1="0" y1="115" x2="-8" y2="115" fill="transparent" shape-rendering="crispEdges" stroke="#222" stroke-width="0" stroke-linecap="square"></line><svg x="-30" y="0" font-size="8" style="overflow:visible"><text transform="" x="-8" y="115" fill="#000" font-size="8" text-anchor="start"><tspan x="-8" dy="0em">0%</tspan></text></svg></g><g class="visx-group visx-axis-tick" transform="translate(0, 0)"><line class="visx-line" x1="0" y1="51.11111111111111" x2="-8" y2="51.11111111111111" fill="transparent" shape-rendering="crispEdges" stroke="#222" stroke-width="0" stroke-linecap="square"></line><svg x="-30" y="0" font-size="8" style="overflow:visible"><text transform="" x="-8" y="51.11111111111111" fill="#000" font-size="8" text-anchor="start"><tspan x="-8" dy="0em">500%</tspan></text></svg></g><line class="visx-line visx-axis-line" x1="0" y1="115.5" x2="0" y2="0.5" fill="transparent" shape-rendering="crispEdges" stroke="#222" stroke-width="0"></line></g><rect class="visx-bar" width="1450" height="115" fill="transparent"></rect><line class="visx-line" x1="1160" y1="28" x2="1160" y2="115" fill="transparent" shape-rendering="crispEdges" stroke="#0062D2" stroke-width="1" pointer-events="none" stroke-dasharray="5,2"></line><svg x="0" y="0" font-size="10px" style="overflow:visible"><text transform="" x="1160" y="20" font-size="10px" fill="#fff" stroke="#fff" stroke-width="0.8em" text-anchor="middle"><tspan x="1160" dy="0.355em">Optimal 80%</tspan></text></svg><svg x="0" y="0" font-size="10px" style="overflow:visible"><text transform="" x="1160" y="20" font-size="10px" fill="#62677B" text-anchor="middle"><tspan x="1160" dy="0.355em">Optimal 80%</tspan></text></svg></g></svg>