<?xml version="1.0"?><svg xmlns="http://www.w3.org/2000/svg" xmlns:xlink= "http://www.w3.org/1999/xlink" style="background: white;" width="1500" height="300"> <g style="color: black; font-size: 13px; font-family: sans-serif; transform: translate(18px, 25px);"><g><circle r="3" cx="-6" cy="-5" style="fill: #1AD4B3" /><text>Borrow APR, variable</text></g><g style="transform: translateX(150px);"><circle r="3" cx="-6" cy="-5" style="fill: #101423" /><text>Borrow APR, stable</text></g></g><g class="visx-group" transform="translate(45, 50)"><g class="visx-group visx-rows" transform="translate(0, 0)"><line class="visx-line" x1="0" y1="155" x2="1425" y2="155" fill="transparent" shape-rendering="crispEdges" stroke="#F2F0F9" stroke-width="1" pointer-events="none"></line><line class="visx-line" x1="0" y1="116.25" x2="1425" y2="116.25" fill="transparent" shape-rendering="crispEdges" stroke="#F2F0F9" stroke-width="1" pointer-events="none"></line><line class="visx-line" x1="0" y1="77.5" x2="1425" y2="77.5" fill="transparent" shape-rendering="crispEdges" stroke="#F2F0F9" stroke-width="1" pointer-events="none"></line><line class="visx-line" x1="0" y1="38.75" x2="1425" y2="38.75" fill="transparent" shape-rendering="crispEdges" stroke="#F2F0F9" stroke-width="1" pointer-events="none"></line><line class="visx-line" x1="0" y1="0" x2="1425" y2="0" fill="transparent" shape-rendering="crispEdges" stroke="#F2F0F9" stroke-width="1" pointer-events="none"></line></g><path class="visx-linepath" d="M0,154.99999999986008C2.375,154.9766782406591,4.75,154.95335648145814,7.125,154.93003472222222C9.5,154.9067129629863,11.875,154.8833912037037,14.25,154.86006944444443C16.625,154.83674768518517,19,154.81342592592594,21.375,154.79010416666668C23.75,154.76678240740742,26.125,154.74346064814816,28.5,154.7201388888889C30.875,154.69681712962964,33.25,154.67349537037038,35.625,154.65017361111111C38,154.62685185185185,40.375,154.6035300925926,42.75,154.58020833333333C45.125,154.55688657407407,47.50000000000001,154.5335648148148,49.87500000000001,154.51024305555555C52.25000000000001,154.4869212962963,54.625,154.46359953703703,57,154.44027777777777C59.375,154.4169560185185,61.75,154.39363425925927,64.125,154.3703125C66.5,154.34699074074075,68.875,154.3236689814815,71.25,154.30034722222223C73.625,154.27702546296297,76,154.2537037037037,78.375,154.23038194444445C80.75,154.20706018518518,83.125,154.18373842592592,85.5,154.16041666666666C87.875,154.1370949074074,90.25,154.11377314814814,92.625,154.09045138888888C95,154.06712962962962,97.37500000000001,154.0438078703704,99.75000000000001,154.02048611111113C102.12500000000001,153.99716435185186,104.5,153.9738425925926,106.875,153.95052083333334C109.25,153.92719907407408,111.625,153.90387731481482,114,153.88055555555556C116.375,153.8572337962963,118.75000000000001,153.83391203703704,121.12500000000001,153.81059027777778C123.50000000000001,153.78726851851852,125.875,153.76394675925926,128.25,153.740625C130.625,153.71730324074073,133,153.69398148148147,135.375,153.6706597222222C137.75,153.64733796296295,140.125,153.62401620370372,142.5,153.60069444444446C144.875,153.5773726851852,147.25,153.55405092592594,149.625,153.53072916666667C152,153.5074074074074,154.375,153.48408564814815,156.75,153.4607638888889C159.125,153.43744212962963,161.5,153.41412037037037,163.875,153.3907986111111C166.25,153.36747685185185,168.625,153.3441550925926,171,153.32083333333333C173.375,153.29751157407406,175.75,153.27418981481483,178.125,153.25086805555557C180.5,153.2275462962963,182.875,153.20422453703705,185.25,153.1809027777778C187.625,153.15758101851853,190,153.13425925925927,192.375,153.1109375C194.75,153.08761574074074,197.12500000000003,153.06429398148148,199.50000000000003,153.04097222222222C201.875,153.01765046296296,204.25,152.9943287037037,206.62499999999997,152.97100694444444C208.99999999999997,152.94768518518518,211.375,152.92436342592592,213.75,152.90104166666666C216.125,152.8777199074074,218.5,152.85439814814816,220.875,152.8310763888889C223.25,152.80775462962964,225.625,152.78443287037035,228,152.7611111111111C230.375,152.73778935185183,232.75,152.7144675925926,235.125,152.69114583333334C237.5,152.66782407407408,239.87500000000003,152.64450231481482,242.25000000000003,152.62118055555555C244.625,152.5978587962963,247,152.57453703703703,249.37499999999997,152.55121527777777C251.74999999999997,152.5278935185185,254.125,152.50457175925925,256.5,152.48125C258.875,152.45792824074073,261.25,152.43460648148147,263.625,152.4112847222222C266,152.38796296296294,268.375,152.3646412037037,270.75,152.34131944444445C273.125,152.3179976851852,275.5,152.29467592592593,277.875,152.27135416666667C280.25,152.2480324074074,282.625,152.22471064814815,285,152.20138888888889C287.375,152.17806712962962,289.75,152.15474537037036,292.125,152.1314236111111C294.5,152.10810185185184,296.875,152.0847800925926,299.25,152.06145833333335C301.625,152.0381365740741,304,152.0148148148148,306.375,151.99149305555554C308.75,151.96817129629628,311.125,151.94484953703704,313.5,151.92152777777778C315.875,151.89820601851852,318.25,151.87488425925926,320.625,151.8515625C323,151.82824074074074,325.375,151.80491898148148,327.75,151.78159722222222C330.125,151.75827546296296,332.5,151.7349537037037,334.875,151.71163194444443C337.25,151.68831018518517,339.625,151.66498842592594,342,151.64166666666668C344.375,151.61834490740742,346.75,151.59502314814816,349.125,151.5717013888889C351.5,151.54837962962964,353.875,151.52505787037038,356.25,151.50173611111111C358.625,151.47841435185185,361,151.4550925925926,363.375,151.43177083333333C365.75,151.40844907407407,368.125,151.3851273148148,370.5,151.36180555555555C372.875,151.3384837962963,375.25,151.31516203703706,377.625,151.2918402777778C380,151.26851851851853,382.375,151.24519675925924,384.75,151.22187499999998C387.125,151.19855324074072,389.50000000000006,151.1752314814815,391.87500000000006,151.15190972222223C394.25000000000006,151.12858796296297,396.62500000000006,151.1052662037037,399.00000000000006,151.08194444444445C401.375,151.05862268518518,403.75,151.03530092592592,406.12499999999994,151.01197916666666C408.49999999999994,150.9886574074074,410.87499999999994,150.96533564814814,413.24999999999994,150.94201388888888C415.62499999999994,150.91869212962962,418,150.89537037037036,420.375,150.8720486111111C422.75,150.84872685185184,425.125,150.8254050925926,427.5,150.80208333333334C429.875,150.77876157407408,432.25,150.75543981481482,434.625,150.73211805555556C437,150.7087962962963,439.375,150.68547453703704,441.75,150.66215277777778C444.125,150.63883101851852,446.5,150.61550925925926,448.875,150.5921875C451.25,150.56886574074073,453.625,150.5455439814815,456,150.52222222222224C458.375,150.49890046296298,460.75,150.4755787037037,463.125,150.45225694444443C465.5,150.42893518518517,467.875,150.40561342592594,470.25,150.38229166666667C472.625,150.3589699074074,475.00000000000006,150.33564814814815,477.37500000000006,150.3123263888889C479.75000000000006,150.28900462962963,482.12500000000006,150.26568287037037,484.50000000000006,150.2423611111111C486.875,150.21903935185185,489.25,150.1957175925926,491.62499999999994,150.17239583333333C493.99999999999994,150.14907407407406,496.37499999999994,150.1257523148148,498.74999999999994,150.10243055555554C501.12499999999994,150.07910879629628,503.5,150.05578703703705,505.875,150.0324652777778C508.25,150.00914351851853,510.625,149.98582175925927,513,149.9625C515.375,149.93917824074074,517.75,149.91585648148148,520.125,149.89253472222222C522.5,149.86921296296296,524.875,149.8458912037037,527.25,149.82256944444444C529.625,149.79924768518518,532,149.77592592592595,534.375,149.75260416666669C536.75,149.72928240740742,539.125,149.70596064814814,541.5,149.68263888888887C543.875,149.6593171296296,546.25,149.63599537037038,548.625,149.61267361111112C551,149.58935185185186,553.375,149.5660300925926,555.75,149.54270833333334C558.125,149.51938657407408,560.5,149.49606481481482,562.875,149.47274305555555C565.25,149.4494212962963,567.625,149.42609953703703,570,149.40277777777777C572.375,149.3794560185185,574.75,149.35613425925925,577.125,149.3328125C579.5,149.30949074074073,581.875,149.2861689814815,584.25,149.26284722222223C586.625,149.23952546296297,589,149.2162037037037,591.375,149.19288194444445C593.75,149.1695601851852,596.125,149.14623842592593,598.5,149.12291666666667C600.875,149.0995949074074,603.25,149.07627314814815,605.625,149.05295138888889C608,149.02962962962962,610.375,149.00630787037036,612.75,148.9829861111111C615.125,148.95966435185184,617.5,148.93634259259258,619.875,148.91302083333332C622.25,148.88969907407406,624.625,148.86637731481483,627,148.84305555555557C629.375,148.8197337962963,631.75,148.79641203703704,634.125,148.77309027777778C636.5,148.74976851851852,638.875,148.72644675925926,641.25,148.703125C643.625,148.67980324074074,646,148.65648148148148,648.375,148.63315972222222C650.75,148.60983796296296,653.125,148.5865162037037,655.5,148.56319444444443C657.875,148.53987268518517,660.25,148.5165509259259,662.625,148.49322916666665C665,148.4699074074074,667.375,148.44658564814816,669.75,148.4232638888889C672.125,148.39994212962964,674.5,148.37662037037038,676.875,148.35329861111111C679.25,148.32997685185185,681.625,148.3066550925926,684,148.28333333333333C686.375,148.26001157407407,688.75,148.2366898148148,691.125,148.21336805555555C693.5,148.1900462962963,695.875,148.16672453703703,698.25,148.14340277777777C700.625,148.1200810185185,703,148.09675925925927,705.375,148.0734375C707.75,148.05011574074075,710.125,148.0267939814815,712.5,148.00347222222223C714.875,147.98015046296297,717.25,147.9568287037037,719.625,147.93350694444445C722,147.91018518518518,724.375,147.88686342592592,726.75,147.86354166666666C729.125,147.8402199074074,731.5,147.81689814814814,733.875,147.79357638888888C736.25,147.77025462962962,738.625,147.74693287037036,741,147.7236111111111C743.375,147.70028935185184,745.75,147.6769675925926,748.125,147.65364583333334C750.5,147.63032407407408,752.875,147.60700231481482,755.25,147.58368055555556C757.625,147.5603587962963,760,147.53703703703704,762.375,147.51371527777778C764.75,147.49039351851852,767.125,147.46707175925926,769.5,147.44375C771.875,147.42042824074073,774.2500000000001,147.39710648148147,776.6250000000001,147.3737847222222C779.0000000000001,147.35046296296295,781.3750000000001,147.32714120370372,783.7500000000001,147.30381944444446C786.1250000000001,147.2804976851852,788.5000000000001,147.25717592592594,790.8750000000001,147.23385416666667C793.2500000000001,147.2105324074074,795.6250000000001,147.18721064814815,798.0000000000001,147.1638888888889C800.375,147.14056712962963,802.75,147.11724537037037,805.1249999999999,147.0939236111111C807.4999999999999,147.07060185185185,809.8749999999999,147.0472800925926,812.2499999999999,147.02395833333333C814.6249999999999,147.00063657407406,816.9999999999999,146.9773148148148,819.3749999999999,146.95399305555554C821.7499999999999,146.93067129629628,824.1249999999999,146.90734953703705,826.4999999999999,146.8840277777778C828.8749999999999,146.86070601851853,831.25,146.83738425925927,833.625,146.8140625C836,146.79074074074074,838.375,146.76741898148148,840.75,146.74409722222222C843.125,146.72077546296296,845.5,146.6974537037037,847.875,146.67413194444444C850.25,146.65081018518518,852.625,146.62748842592592,855,146.60416666666666C857.375,146.5808449074074,859.75,146.55752314814816,862.125,146.5342013888889C864.5,146.51087962962964,866.875,146.48755787037038,869.25,146.46423611111112C871.625,146.44091435185186,874,146.4175925925926,876.375,146.39427083333334C878.75,146.37094907407408,881.125,146.34762731481482,883.5,146.32430555555555C885.875,146.3009837962963,888.25,146.27766203703703,890.625,146.25434027777777C893,146.2310185185185,895.375,146.20769675925925,897.75,146.184375C900.125,146.16105324074073,902.5,146.1377314814815,904.875,146.11440972222223C907.25,146.09108796296297,909.625,146.0677662037037,912,146.04444444444445C914.375,146.0211226851852,916.75,145.99780092592593,919.125,145.97447916666667C921.5,145.9511574074074,923.875,145.92783564814815,926.25,145.90451388888889C928.625,145.88119212962962,931,145.85787037037036,933.375,145.8345486111111C935.75,145.81122685185184,938.125,145.7879050925926,940.5,145.76458333333335C942.875,145.7412615740741,945.25,145.71793981481483,947.625,145.69461805555557C950,145.6712962962963,952.3750000000001,145.64797453703704,954.7500000000001,145.62465277777778C957.1250000000001,145.60133101851852,959.5000000000001,145.57800925925926,961.8750000000001,145.5546875C964.2500000000001,145.53136574074074,966.6250000000001,145.50804398148148,969.0000000000001,145.48472222222222C971.3750000000001,145.46140046296296,973.7500000000001,145.4380787037037,976.1250000000001,145.41475694444443C978.5,145.39143518518517,980.875,145.36811342592594,983.2499999999999,145.34479166666668C985.6249999999999,145.32146990740742,987.9999999999999,145.29814814814816,990.3749999999999,145.2748263888889C992.7499999999999,145.25150462962964,995.1249999999999,145.22818287037038,997.4999999999999,145.20486111111111C999.8749999999999,145.18153935185185,1002.2499999999999,145.1582175925926,1004.6249999999999,145.13489583333333C1006.9999999999999,145.11157407407407,1009.375,145.0882523148148,1011.75,145.06493055555555C1014.125,145.0416087962963,1016.5,145.01828703703703,1018.875,144.99496527777777C1021.25,144.9716435185185,1023.625,144.94832175925927,1026,144.925C1028.375,144.90167824074075,1030.75,144.8783564814815,1033.125,144.85503472222223C1035.5,144.83171296296297,1037.875,144.8083912037037,1040.25,144.78506944444445C1042.625,144.76174768518518,1045,144.73842592592592,1047.375,144.71510416666666C1049.75,144.6917824074074,1052.125,144.66846064814814,1054.5,144.64513888888888C1056.875,144.62181712962962,1059.25,144.5984953703704,1061.625,144.57517361111113C1064,144.55185185185186,1066.375,144.52853009259258,1068.75,144.50520833333331C1071.125,144.48188657407405,1073.5,144.45856481481482,1075.875,144.43524305555556C1078.25,144.4119212962963,1080.625,144.38859953703704,1083,144.36527777777778C1085.375,144.34195601851852,1087.75,144.31863425925926,1090.125,144.2953125C1092.5,144.27199074074073,1094.875,144.24866898148147,1097.25,144.2253472222222C1099.625,144.20202546296295,1102,144.17870370370372,1104.375,144.15538194444446C1106.75,144.1320601851852,1109.125,144.10873842592594,1111.5,144.08541666666667C1113.875,144.0620949074074,1116.25,144.03877314814815,1118.625,144.0154513888889C1121,143.99212962962963,1123.375,143.96880787037037,1125.75,143.9454861111111C1128.125,143.92216435185185,1130.5,143.8988425925926,1132.875,143.87552083333333C1135.25,143.85219907407406,1137.625,143.82887731481483,1140,143.80555555555557C1142.375,143.7822337962963,1144.75,143.75891203703702,1147.125,143.73559027777776C1149.5,143.7122685185185,1151.875,143.68894675925927,1154.25,143.665625C1156.625,143.64230324074074,1159,143.61898148148148,1161.375,143.59565972222222C1163.75,143.57233796296296,1166.125,143.5490162037037,1168.5,143.52569444444444C1170.875,143.50237268518518,1173.25,143.47905092592592,1175.625,143.45572916666666C1178,143.4324074074074,1180.375,143.40908564814816,1182.75,143.3857638888889C1185.125,143.36244212962964,1187.5,143.33912037037038,1189.875,143.31579861111112C1192.25,143.29247685185186,1194.625,143.2691550925926,1197,143.24583333333334C1199.375,143.22251157407408,1201.75,143.19918981481482,1204.125,143.17586805555555C1206.5,143.1525462962963,1208.875,143.12922453703703,1211.25,143.10590277777777C1213.625,143.0825810185185,1216,143.05925925925928,1218.375,143.03593750000002C1220.75,143.01261574074076,1223.125,142.98929398148147,1225.5,142.9659722222222C1227.875,142.94265046296294,1230.25,142.9193287037037,1232.625,142.89600694444445C1235,142.8726851851852,1237.375,142.84936342592593,1239.75,142.82604166666667C1242.125,142.8027199074074,1244.5,142.77939814814815,1246.875,142.75607638888889C1249.25,142.73275462962962,1251.625,142.70943287037036,1254,142.6861111111111C1256.375,142.66278935185184,1258.75,142.6394675925926,1261.125,142.61614583333335C1263.5,142.5928240740741,1265.875,142.56950231481483,1268.25,142.54618055555557C1270.625,142.5228587962963,1273,142.49953703703704,1275.375,142.47621527777778C1277.75,142.45289351851852,1280.125,142.45289351851852,1282.5,142.40625C1284.875,142.35960648148148,1287.25,138.53125,1289.625,136.59375C1292,134.65625,1294.375,132.71875,1296.75,130.78125C1299.125,128.84375,1301.5,126.90625,1303.875,124.96875C1306.25,123.03125,1308.625,121.09375,1311,119.15625C1313.375,117.21875,1315.75,115.28125,1318.125,113.34375C1320.5,111.40625,1322.875,109.46875,1325.25,107.53125C1327.625,105.59375,1330,103.65625,1332.375,101.71875C1334.75,99.78125,1337.125,97.84375,1339.5,95.90625C1341.875,93.96875,1344.25,92.03125,1346.625,90.09375C1349,88.15625,1351.375,86.21875,1353.75,84.28125C1356.125,82.34375,1358.5,80.40625,1360.875,78.46875C1363.25,76.53125,1365.625,74.59375,1368,72.65625C1370.375,70.71875,1372.75,68.78125,1375.125,66.84375C1377.5,64.90625,1379.875,62.96875000000001,1382.25,61.03125000000001C1384.625,59.09375000000001,1387,57.15625,1389.375,55.21874999999999C1391.75,53.281249999999986,1394.125,51.34374999999997,1396.5,49.40624999999998C1398.875,47.468749999999986,1401.25,45.531250000000014,1403.625,43.593750000000014C1406,41.656250000000014,1408.375,39.71875,1410.75,37.78125C1413.125,35.84375,1415.5,33.90625000000001,1417.875,31.968750000000007C1420.25,30.031250000000007,1422.625,28.09375,1425,26.156249999999993" fill="transparent" stroke-linecap="round" stroke="#1AD4B3" stroke-width="2"></path><g class="visx-group visx-axis visx-axis-bottom" transform="translate(0, 155)"><g class="visx-group visx-axis-tick" transform="translate(0, 0)"><line class="visx-line" x1="0" y1="0" x2="0" y2="8" fill="transparent" shape-rendering="crispEdges" stroke="#F2F0F9" stroke-width="1" stroke-linecap="square"></line><svg x="0" y="0" font-size="11" style="overflow:visible"><text transform="" x="0" y="19" fill="#1B2030" font-size="11" text-anchor="middle"><tspan x="0" dy="0em">0%</tspan></text></svg></g><g class="visx-group visx-axis-tick" transform="translate(0, 0)"><line class="visx-line" x1="356.25" y1="0" x2="356.25" y2="8" fill="transparent" shape-rendering="crispEdges" stroke="#F2F0F9" stroke-width="1" stroke-linecap="square"></line><svg x="0" y="0" font-size="11" style="overflow:visible"><text transform="" x="356.25" y="19" fill="#1B2030" font-size="11" text-anchor="middle"><tspan x="356.25" dy="0em">25%</tspan></text></svg></g><g class="visx-group visx-axis-tick" transform="translate(0, 0)"><line class="visx-line" x1="712.5" y1="0" x2="712.5" y2="8" fill="transparent" shape-rendering="crispEdges" stroke="#F2F0F9" stroke-width="1" stroke-linecap="square"></line><svg x="0" y="0" font-size="11" style="overflow:visible"><text transform="" x="712.5" y="19" fill="#1B2030" font-size="11" text-anchor="middle"><tspan x="712.5" dy="0em">50%</tspan></text></svg></g><g class="visx-group visx-axis-tick" transform="translate(0, 0)"><line class="visx-line" x1="1068.75" y1="0" x2="1068.75" y2="8" fill="transparent" shape-rendering="crispEdges" stroke="#F2F0F9" stroke-width="1" stroke-linecap="square"></line><svg x="0" y="0" font-size="11" style="overflow:visible"><text transform="" x="1068.75" y="19" fill="#1B2030" font-size="11" text-anchor="middle"><tspan x="1068.75" dy="0em">75%</tspan></text></svg></g><g class="visx-group visx-axis-tick" transform="translate(0, 0)"><line class="visx-line" x1="1425" y1="0" x2="1425" y2="8" fill="transparent" shape-rendering="crispEdges" stroke="#F2F0F9" stroke-width="1" stroke-linecap="square"></line><svg x="0" y="0" font-size="11" style="overflow:visible"><text transform="" x="1425" y="19" fill="#1B2030" font-size="11" text-anchor="middle"><tspan x="1425" dy="0em">100%</tspan></text></svg></g></g><g class="visx-group visx-axis visx-axis-left" transform="translate(0, 0)"><g class="visx-group visx-axis-tick" transform="translate(0, 0)"><line class="visx-line" x1="0" y1="155" x2="-8" y2="155" fill="transparent" shape-rendering="crispEdges" stroke="#F2F0F9" stroke-width="1" stroke-linecap="square"></line><svg x="-30" y="0" font-size="11" style="overflow:visible"><text transform="" x="-8" y="155" fill="#1B2030" font-size="11" text-anchor="start"><tspan x="-8" dy="0em">0%</tspan></text></svg></g><g class="visx-group visx-axis-tick" transform="translate(0, 0)"><line class="visx-line" x1="0" y1="116.25" x2="-8" y2="116.25" fill="transparent" shape-rendering="crispEdges" stroke="#F2F0F9" stroke-width="1" stroke-linecap="square"></line><svg x="-30" y="0" font-size="11" style="overflow:visible"><text transform="" x="-8" y="116.25" fill="#1B2030" font-size="11" text-anchor="start"><tspan x="-8" dy="0em">20%</tspan></text></svg></g><g class="visx-group visx-axis-tick" transform="translate(0, 0)"><line class="visx-line" x1="0" y1="77.5" x2="-8" y2="77.5" fill="transparent" shape-rendering="crispEdges" stroke="#F2F0F9" stroke-width="1" stroke-linecap="square"></line><svg x="-30" y="0" font-size="11" style="overflow:visible"><text transform="" x="-8" y="77.5" fill="#1B2030" font-size="11" text-anchor="start"><tspan x="-8" dy="0em">40%</tspan></text></svg></g><g class="visx-group visx-axis-tick" transform="translate(0, 0)"><line class="visx-line" x1="0" y1="38.75" x2="-8" y2="38.75" fill="transparent" shape-rendering="crispEdges" stroke="#F2F0F9" stroke-width="1" stroke-linecap="square"></line><svg x="-30" y="0" font-size="11" style="overflow:visible"><text transform="" x="-8" y="38.75" fill="#1B2030" font-size="11" text-anchor="start"><tspan x="-8" dy="0em">60%</tspan></text></svg></g><g class="visx-group visx-axis-tick" transform="translate(0, 0)"><line class="visx-line" x1="0" y1="0" x2="-8" y2="0" fill="transparent" shape-rendering="crispEdges" stroke="#F2F0F9" stroke-width="1" stroke-linecap="square"></line><svg x="-30" y="0" font-size="11" style="overflow:visible"><text transform="" x="-8" y="0" fill="#1B2030" font-size="11" text-anchor="start"><tspan x="-8" dy="0em">80%</tspan></text></svg></g><line class="visx-line visx-axis-line" x1="0" y1="155.5" x2="0" y2="0.5" fill="transparent" shape-rendering="crispEdges" stroke="#F2F0F9" stroke-width="1"></line></g><rect class="visx-bar" width="1425" height="155" fill="transparent"></rect><line class="visx-line" x1="1282.5" y1="58" x2="1282.5" y2="155" fill="transparent" shape-rendering="crispEdges" stroke="#CDC8E1" stroke-width="1" pointer-events="none" stroke-dasharray="5"></line><svg x="0" y="0" font-size="11px" style="overflow:visible"><text transform="" x="1282.5" y="50" font-size="11px" fill="#555069" stroke="#FFFFFF" stroke-width="1px" text-anchor="middle"><tspan x="1282.5" dy="0.355em">Optimal utilization 90%</tspan></text></svg><svg x="0" y="0" font-size="11px" style="overflow:visible"><text transform="" x="1282.5" y="50" font-size="11px" fill="#CDC8E1" text-anchor="middle"><tspan x="1282.5" dy="0.355em">Optimal utilization 90%</tspan></text></svg></g></svg>