<?xml version="1.0"?><svg xmlns="http://www.w3.org/2000/svg" xmlns:xlink= "http://www.w3.org/1999/xlink" style="background: white;" width="1500" height="300"> <g style="color: black; font-size: 13px; font-family: sans-serif; transform: translate(18px, 25px);"><g><circle r="3" cx="-6" cy="-5" style="fill: #1AD4B3" /><text>Borrow APR, variable</text></g><g style="transform: translateX(150px);"><circle r="3" cx="-6" cy="-5" style="fill: #101423" /><text>Borrow APR, stable</text></g></g><g class="visx-group" transform="translate(45, 50)"><g class="visx-group visx-rows" transform="translate(0, 0)"><line class="visx-line" x1="0" y1="155" x2="1425" y2="155" fill="transparent" shape-rendering="crispEdges" stroke="#F2F0F9" stroke-width="1" pointer-events="none"></line><line class="visx-line" x1="0" y1="77.5" x2="1425" y2="77.5" fill="transparent" shape-rendering="crispEdges" stroke="#F2F0F9" stroke-width="1" pointer-events="none"></line><line class="visx-line" x1="0" y1="0" x2="1425" y2="0" fill="transparent" shape-rendering="crispEdges" stroke="#F2F0F9" stroke-width="1" pointer-events="none"></line></g><path class="visx-linepath" d="M0,154.612499999845C2.375,154.58666666657624,4.75,154.5608333333075,7.125,154.535C9.5,154.5091666666925,11.875,154.48333333333335,14.25,154.4575C16.625,154.43166666666667,19,154.40583333333333,21.375,154.38C23.75,154.35416666666666,26.125,154.32833333333335,28.5,154.3025C30.875,154.27666666666667,33.25,154.25083333333333,35.625,154.225C38,154.19916666666666,40.375,154.17333333333335,42.75,154.1475C45.125,154.12166666666667,47.50000000000001,154.09583333333333,49.87500000000001,154.07C52.25000000000001,154.04416666666665,54.625,154.01833333333335,57,153.9925C59.375,153.96666666666667,61.75,153.94083333333333,64.125,153.915C66.5,153.88916666666665,68.875,153.86333333333334,71.25,153.8375C73.625,153.81166666666667,76,153.78583333333333,78.375,153.76C80.75,153.73416666666665,83.125,153.70833333333334,85.5,153.6825C87.875,153.65666666666667,90.25,153.63083333333333,92.625,153.605C95,153.57916666666665,97.37500000000001,153.55333333333334,99.75000000000001,153.5275C102.12500000000001,153.50166666666667,104.5,153.47583333333333,106.875,153.45C109.25,153.42416666666665,111.625,153.39833333333334,114,153.3725C116.375,153.34666666666666,118.75000000000001,153.32083333333333,121.12500000000001,153.295C123.50000000000001,153.26916666666665,125.875,153.24333333333334,128.25,153.2175C130.625,153.19166666666666,133,153.16583333333332,135.375,153.14C137.75,153.11416666666665,140.125,153.08833333333334,142.5,153.0625C144.875,153.03666666666666,147.25,153.01083333333332,149.625,152.98499999999999C152,152.95916666666665,154.375,152.93333333333334,156.75,152.9075C159.125,152.88166666666666,161.5,152.85583333333332,163.875,152.82999999999998C166.25,152.80416666666665,168.625,152.77833333333334,171,152.7525C173.375,152.72666666666666,175.75,152.70083333333335,178.125,152.675C180.5,152.64916666666667,182.875,152.62333333333333,185.25,152.5975C187.625,152.57166666666666,190,152.54583333333335,192.375,152.52C194.75,152.49416666666667,197.12500000000003,152.46833333333333,199.50000000000003,152.4425C201.875,152.41666666666666,204.25,152.39083333333335,206.62499999999997,152.365C208.99999999999997,152.33916666666667,211.375,152.31333333333333,213.75,152.2875C216.125,152.26166666666666,218.5,152.23583333333335,220.875,152.21C223.25,152.18416666666667,225.625,152.15833333333333,228,152.1325C230.375,152.10666666666665,232.75,152.08083333333335,235.125,152.055C237.5,152.02916666666667,239.87500000000003,152.00333333333333,242.25000000000003,151.9775C244.625,151.95166666666665,247,151.92583333333334,249.37499999999997,151.9C251.74999999999997,151.87416666666667,254.125,151.84833333333336,256.5,151.82250000000002C258.875,151.79666666666668,261.25,151.77083333333334,263.625,151.745C266,151.71916666666667,268.375,151.69333333333336,270.75,151.66750000000002C273.125,151.64166666666668,275.5,151.61583333333334,277.875,151.59C280.25,151.56416666666667,282.625,151.53833333333336,285,151.51250000000002C287.375,151.48666666666668,289.75,151.46083333333334,292.125,151.435C294.5,151.40916666666666,296.875,151.38333333333335,299.25,151.35750000000002C301.625,151.33166666666668,304,151.30583333333334,306.375,151.28C308.75,151.25416666666666,311.125,151.22833333333335,313.5,151.20250000000001C315.875,151.17666666666668,318.25,151.15083333333334,320.625,151.125C323,151.09916666666666,325.375,151.07333333333335,327.75,151.0475C330.125,151.02166666666668,332.5,150.99583333333334,334.875,150.97C337.25,150.94416666666666,339.625,150.91833333333335,342,150.8925C344.375,150.86666666666667,346.75,150.84083333333334,349.125,150.815C351.5,150.78916666666666,353.875,150.76333333333335,356.25,150.7375C358.625,150.71166666666667,361,150.68583333333333,363.375,150.66C365.75,150.63416666666666,368.125,150.60833333333335,370.5,150.5825C372.875,150.55666666666667,375.25,150.53083333333333,377.625,150.505C380,150.47916666666666,382.375,150.45333333333335,384.75,150.4275C387.125,150.40166666666667,389.50000000000006,150.37583333333333,391.87500000000006,150.35C394.25000000000006,150.32416666666666,396.62500000000006,150.29833333333335,399.00000000000006,150.2725C401.375,150.24666666666667,403.75,150.22083333333333,406.12499999999994,150.195C408.49999999999994,150.16916666666665,410.87499999999994,150.14333333333335,413.24999999999994,150.1175C415.62499999999994,150.09166666666667,418,150.06583333333333,420.375,150.04C422.75,150.01416666666665,425.125,149.98833333333334,427.5,149.9625C429.875,149.93666666666667,432.25,149.91083333333333,434.625,149.885C437,149.85916666666665,439.375,149.83333333333334,441.75,149.8075C444.125,149.78166666666667,446.5,149.75583333333333,448.875,149.73C451.25,149.70416666666665,453.625,149.67833333333334,456,149.6525C458.375,149.62666666666667,460.75,149.60083333333333,463.125,149.575C465.5,149.54916666666665,467.875,149.52333333333334,470.25,149.4975C472.625,149.47166666666666,475.00000000000006,149.44583333333333,477.37500000000006,149.42C479.75000000000006,149.39416666666665,482.12500000000006,149.36833333333334,484.50000000000006,149.3425C486.875,149.31666666666666,489.25,149.29083333333332,491.62499999999994,149.265C493.99999999999994,149.23916666666665,496.37499999999994,149.21333333333334,498.74999999999994,149.1875C501.12499999999994,149.16166666666666,503.5,149.13583333333332,505.875,149.10999999999999C508.25,149.08416666666665,510.625,149.05833333333334,513,149.0325C515.375,149.00666666666666,517.75,148.98083333333332,520.125,148.95499999999998C522.5,148.92916666666665,524.875,148.90333333333334,527.25,148.8775C529.625,148.85166666666666,532,148.82583333333332,534.375,148.79999999999998C536.75,148.77416666666664,539.125,148.74833333333333,541.5,148.7225C543.875,148.69666666666666,546.25,148.67083333333332,548.625,148.64499999999998C551,148.61916666666664,553.375,148.59333333333333,555.75,148.5675C558.125,148.54166666666666,560.5,148.51583333333332,562.875,148.48999999999998C565.25,148.46416666666664,567.625,148.43833333333333,570,148.4125C572.375,148.38666666666666,574.75,148.36083333333335,577.125,148.335C579.5,148.30916666666667,581.875,148.28333333333333,584.25,148.2575C586.625,148.23166666666665,589,148.20583333333335,591.375,148.18C593.75,148.15416666666667,596.125,148.12833333333333,598.5,148.1025C600.875,148.07666666666665,603.25,148.05083333333334,605.625,148.025C608,147.99916666666667,610.375,147.97333333333333,612.75,147.9475C615.125,147.92166666666665,617.5,147.89583333333334,619.875,147.87C622.25,147.84416666666667,624.625,147.81833333333333,627,147.7925C629.375,147.76666666666665,631.75,147.74083333333334,634.125,147.715C636.5,147.68916666666667,638.875,147.68916666666667,641.25,147.6375C643.625,147.5858333333333,646,146.88598484848484,648.375,146.51022727272726C650.75,146.1344696969697,653.125,145.7587121212121,655.5,145.38295454545454C657.875,145.00719696969696,660.25,144.6314393939394,662.625,144.2556818181818C665,143.87992424242424,667.375,143.50416666666666,669.75,143.1284090909091C672.125,142.7526515151515,674.5,142.37689393939394,676.875,142.00113636363636C679.25,141.6253787878788,681.625,141.2496212121212,684,140.87386363636364C686.375,140.49810606060606,688.75,140.1223484848485,691.125,139.7465909090909C693.5,139.37083333333334,695.875,138.99507575757576,698.25,138.6193181818182C700.625,138.2435606060606,703,137.867803030303,705.375,137.49204545454543C707.75,137.11628787878786,710.125,136.7405303030303,712.5,136.36477272727274C714.875,135.98901515151516,717.25,135.6132575757576,719.625,135.2375C722,134.86174242424244,724.375,134.48598484848486,726.75,134.1102272727273C729.125,133.7344696969697,731.5,133.3587121212121,733.875,132.98295454545453C736.25,132.60719696969696,738.625,132.2314393939394,741,131.85568181818184C743.375,131.47992424242426,745.75,131.10416666666666,748.125,130.72840909090908C750.5,130.3526515151515,752.875,129.97689393939393,755.25,129.60113636363636C757.625,129.22537878787878,760,128.8496212121212,762.375,128.47386363636363C764.75,128.09810606060606,767.125,127.72234848484848,769.5,127.3465909090909C771.875,126.97083333333333,774.2500000000001,126.59507575757576,776.6250000000001,126.21931818181818C779.0000000000001,125.8435606060606,781.3750000000001,125.46780303030303,783.7500000000001,125.09204545454546C786.1250000000001,124.71628787878788,788.5000000000001,124.3405303030303,790.8750000000001,123.96477272727273C793.2500000000001,123.58901515151516,795.6250000000001,123.21325757575757,798.0000000000001,122.83749999999999C800.375,122.46174242424242,802.75,122.08598484848486,805.1249999999999,121.71022727272728C807.4999999999999,121.3344696969697,809.8749999999999,120.95871212121212,812.2499999999999,120.58295454545454C814.6249999999999,120.20719696969697,816.9999999999999,119.8314393939394,819.3749999999999,119.45568181818183C821.7499999999999,119.07992424242425,824.1249999999999,118.70416666666667,826.4999999999999,118.32840909090909C828.8749999999999,117.95265151515152,831.25,117.57689393939394,833.625,117.20113636363637C836,116.82537878787879,838.375,116.4496212121212,840.75,116.07386363636363C843.125,115.69810606060605,845.5,115.32234848484848,847.875,114.9465909090909C850.25,114.57083333333333,852.625,114.19507575757576,855,113.81931818181819C857.375,113.44356060606061,859.75,113.06780303030303,862.125,112.69204545454545C864.5,112.31628787878788,866.875,111.9405303030303,869.25,111.56477272727273C871.625,111.18901515151515,874,110.81325757575758,876.375,110.4375C878.75,110.06174242424242,881.125,109.68598484848485,883.5,109.31022727272727C885.875,108.9344696969697,888.25,108.55871212121212,890.625,108.18295454545455C893,107.80719696969697,895.375,107.43143939393939,897.75,107.05568181818181C900.125,106.67992424242424,902.5,106.30416666666666,904.875,105.92840909090908C907.25,105.55265151515151,909.625,105.17689393939393,912,104.80113636363636C914.375,104.42537878787878,916.75,104.04962121212122,919.125,103.67386363636365C921.5,103.29810606060607,923.875,102.92234848484848,926.25,102.54659090909091C928.625,102.17083333333333,931,101.79507575757576,933.375,101.41931818181818C935.75,101.04356060606061,938.125,100.66780303030302,940.5,100.29204545454544C942.875,99.91628787878787,945.25,99.54053030303031,947.625,99.16477272727273C950,98.78901515151516,952.3750000000001,98.41325757575758,954.7500000000001,98.03750000000001C957.1250000000001,97.66174242424243,959.5000000000001,97.28598484848484,961.8750000000001,96.91022727272727C964.2500000000001,96.5344696969697,966.6250000000001,96.15871212121212,969.0000000000001,95.78295454545454C971.3750000000001,95.40719696969697,973.7500000000001,95.0314393939394,976.1250000000001,94.6556818181818C978.5,94.27992424242423,980.875,93.90416666666664,983.2499999999999,93.52840909090907C985.6249999999999,93.15265151515149,987.9999999999999,92.77689393939393,990.3749999999999,92.40113636363635C992.7499999999999,92.02537878787878,995.1249999999999,91.64962121212122,997.4999999999999,91.27386363636364C999.8749999999999,90.89810606060607,1002.2499999999999,90.5223484848485,1004.6249999999999,90.14659090909092C1006.9999999999999,89.77083333333334,1009.375,89.39507575757578,1011.75,89.0193181818182C1014.125,88.64356060606063,1016.5,88.26780303030303,1018.875,87.89204545454545C1021.25,87.51628787878788,1023.625,87.1405303030303,1026,86.76477272727273C1028.375,86.38901515151515,1030.75,86.01325757575758,1033.125,85.6375C1035.5,85.26174242424243,1037.875,84.88598484848484,1040.25,84.51022727272726C1042.625,84.13446969696969,1045,83.75871212121213,1047.375,83.38295454545455C1049.75,83.00719696969698,1052.125,82.6314393939394,1054.5,82.25568181818183C1056.875,81.87992424242425,1059.25,81.50416666666666,1061.625,81.12840909090909C1064,80.75265151515151,1066.375,80.37689393939394,1068.75,80.00113636363636C1071.125,79.62537878787879,1073.5,79.2496212121212,1075.875,78.87386363636362C1078.25,78.49810606060605,1080.625,78.12234848484849,1083,77.74659090909091C1085.375,77.37083333333334,1087.75,76.99507575757575,1090.125,76.61931818181817C1092.5,76.2435606060606,1094.875,75.86780303030304,1097.25,75.49204545454546C1099.625,75.11628787878789,1102,74.7405303030303,1104.375,74.36477272727272C1106.75,73.98901515151515,1109.125,73.61325757575759,1111.5,73.23750000000001C1113.875,72.86174242424244,1116.25,72.48598484848485,1118.625,72.11022727272727C1121,71.7344696969697,1123.375,71.35871212121212,1125.75,70.98295454545455C1128.125,70.60719696969697,1130.5,70.2314393939394,1132.875,69.85568181818182C1135.25,69.47992424242425,1137.625,69.10416666666666,1140,68.72840909090908C1142.375,68.3526515151515,1144.75,67.97689393939395,1147.125,67.60113636363637C1149.5,67.2253787878788,1151.875,66.8496212121212,1154.25,66.47386363636363C1156.625,66.09810606060606,1159,65.7223484848485,1161.375,65.34659090909092C1163.75,64.97083333333335,1166.125,64.59507575757576,1168.5,64.21931818181818C1170.875,63.843560606060606,1173.25,63.46780303030304,1175.625,63.09204545454546C1178,62.71628787878789,1180.375,62.340530303030306,1182.75,61.96477272727273C1185.125,61.589015151515156,1187.5,61.21325757575757,1189.875,60.83749999999999C1192.25,60.461742424242416,1194.625,60.08598484848485,1197,59.71022727272727C1199.375,59.3344696969697,1201.75,58.958712121212116,1204.125,58.58295454545454C1206.5,58.207196969696966,1208.875,57.8314393939394,1211.25,57.45568181818182C1213.625,57.07992424242425,1216,56.704166666666666,1218.375,56.32840909090909C1220.75,55.952651515151516,1223.125,55.57689393939393,1225.5,55.20113636363636C1227.875,54.82537878787878,1230.25,54.449621212121215,1232.625,54.07386363636364C1235,53.698106060606065,1237.375,53.322348484848476,1239.75,52.9465909090909C1242.125,52.570833333333326,1244.5,52.195075757575765,1246.875,51.81931818181819C1249.25,51.443560606060615,1251.625,51.067803030303025,1254,50.69204545454545C1256.375,50.316287878787875,1258.75,49.94053030303031,1261.125,49.56477272727273C1263.5,49.18901515151516,1265.875,48.813257575757575,1268.25,48.4375C1270.625,48.061742424242425,1273,47.68598484848484,1275.375,47.31022727272727C1277.75,46.93446969696969,1280.125,46.558712121212125,1282.5,46.18295454545455C1284.875,45.807196969696975,1287.25,45.431439393939385,1289.625,45.05568181818181C1292,44.679924242424235,1294.375,44.304166666666674,1296.75,43.9284090909091C1299.125,43.552651515151524,1301.5,43.176893939393935,1303.875,42.80113636363636C1306.25,42.425378787878785,1308.625,42.04962121212122,1311,41.67386363636364C1313.375,41.29810606060607,1315.75,40.922348484848484,1318.125,40.54659090909091C1320.5,40.170833333333334,1322.875,39.79507575757575,1325.25,39.41931818181818C1327.625,39.0435606060606,1330,38.667803030303034,1332.375,38.29204545454546C1334.75,37.916287878787884,1337.125,37.5405303030303,1339.5,37.16477272727273C1341.875,36.78901515151515,1344.25,36.413257575757584,1346.625,36.03750000000001C1349,35.66174242424243,1351.375,35.28598484848483,1353.75,34.910227272727255C1356.125,34.53446969696968,1358.5,34.158712121212126,1360.875,33.78295454545455C1363.25,33.407196969696976,1365.625,33.03143939393938,1368,32.655681818181804C1370.375,32.27992424242423,1372.75,31.90416666666668,1375.125,31.528409090909104C1377.5,31.15265151515153,1379.875,30.776893939393926,1382.25,30.40113636363635C1384.625,30.025378787878775,1387,29.649621212121225,1389.375,29.27386363636365C1391.75,28.898106060606075,1394.125,28.52234848484848,1396.5,28.1465909090909C1398.875,27.77083333333332,1401.25,27.395075757575757,1403.625,27.019318181818182C1406,26.643560606060607,1408.375,26.26780303030302,1410.75,25.892045454545446C1413.125,25.51628787878787,1415.5,25.140530303030303,1417.875,24.764772727272728C1420.25,24.389015151515153,1422.625,24.013257575757574,1425,23.637499999999996" fill="transparent" stroke-linecap="round" stroke="#1AD4B3" stroke-width="2"></path><g class="visx-group visx-axis visx-axis-bottom" transform="translate(0, 155)"><g class="visx-group visx-axis-tick" transform="translate(0, 0)"><line class="visx-line" x1="0" y1="0" x2="0" y2="8" fill="transparent" shape-rendering="crispEdges" stroke="#F2F0F9" stroke-width="1" stroke-linecap="square"></line><svg x="0" y="0" font-size="11" style="overflow:visible"><text transform="" x="0" y="19" fill="#1B2030" font-size="11" text-anchor="middle"><tspan x="0" dy="0em">0%</tspan></text></svg></g><g class="visx-group visx-axis-tick" transform="translate(0, 0)"><line class="visx-line" x1="356.25" y1="0" x2="356.25" y2="8" fill="transparent" shape-rendering="crispEdges" stroke="#F2F0F9" stroke-width="1" stroke-linecap="square"></line><svg x="0" y="0" font-size="11" style="overflow:visible"><text transform="" x="356.25" y="19" fill="#1B2030" font-size="11" text-anchor="middle"><tspan x="356.25" dy="0em">25%</tspan></text></svg></g><g class="visx-group visx-axis-tick" transform="translate(0, 0)"><line class="visx-line" x1="712.5" y1="0" x2="712.5" y2="8" fill="transparent" shape-rendering="crispEdges" stroke="#F2F0F9" stroke-width="1" stroke-linecap="square"></line><svg x="0" y="0" font-size="11" style="overflow:visible"><text transform="" x="712.5" y="19" fill="#1B2030" font-size="11" text-anchor="middle"><tspan x="712.5" dy="0em">50%</tspan></text></svg></g><g class="visx-group visx-axis-tick" transform="translate(0, 0)"><line class="visx-line" x1="1068.75" y1="0" x2="1068.75" y2="8" fill="transparent" shape-rendering="crispEdges" stroke="#F2F0F9" stroke-width="1" stroke-linecap="square"></line><svg x="0" y="0" font-size="11" style="overflow:visible"><text transform="" x="1068.75" y="19" fill="#1B2030" font-size="11" text-anchor="middle"><tspan x="1068.75" dy="0em">75%</tspan></text></svg></g><g class="visx-group visx-axis-tick" transform="translate(0, 0)"><line class="visx-line" x1="1425" y1="0" x2="1425" y2="8" fill="transparent" shape-rendering="crispEdges" stroke="#F2F0F9" stroke-width="1" stroke-linecap="square"></line><svg x="0" y="0" font-size="11" style="overflow:visible"><text transform="" x="1425" y="19" fill="#1B2030" font-size="11" text-anchor="middle"><tspan x="1425" dy="0em">100%</tspan></text></svg></g></g><g class="visx-group visx-axis visx-axis-left" transform="translate(0, 0)"><g class="visx-group visx-axis-tick" transform="translate(0, 0)"><line class="visx-line" x1="0" y1="155" x2="-8" y2="155" fill="transparent" shape-rendering="crispEdges" stroke="#F2F0F9" stroke-width="1" stroke-linecap="square"></line><svg x="-30" y="0" font-size="11" style="overflow:visible"><text transform="" x="-8" y="155" fill="#1B2030" font-size="11" text-anchor="start"><tspan x="-8" dy="0em">0%</tspan></text></svg></g><g class="visx-group visx-axis-tick" transform="translate(0, 0)"><line class="visx-line" x1="0" y1="77.5" x2="-8" y2="77.5" fill="transparent" shape-rendering="crispEdges" stroke="#F2F0F9" stroke-width="1" stroke-linecap="square"></line><svg x="-30" y="0" font-size="11" style="overflow:visible"><text transform="" x="-8" y="77.5" fill="#1B2030" font-size="11" text-anchor="start"><tspan x="-8" dy="0em">50%</tspan></text></svg></g><g class="visx-group visx-axis-tick" transform="translate(0, 0)"><line class="visx-line" x1="0" y1="0" x2="-8" y2="0" fill="transparent" shape-rendering="crispEdges" stroke="#F2F0F9" stroke-width="1" stroke-linecap="square"></line><svg x="-30" y="0" font-size="11" style="overflow:visible"><text transform="" x="-8" y="0" fill="#1B2030" font-size="11" text-anchor="start"><tspan x="-8" dy="0em">100%</tspan></text></svg></g><line class="visx-line visx-axis-line" x1="0" y1="155.5" x2="0" y2="0.5" fill="transparent" shape-rendering="crispEdges" stroke="#F2F0F9" stroke-width="1"></line></g><rect class="visx-bar" width="1425" height="155" fill="transparent"></rect><line class="visx-line" x1="641.25" y1="58" x2="641.25" y2="155" fill="transparent" shape-rendering="crispEdges" stroke="#CDC8E1" stroke-width="1" pointer-events="none" stroke-dasharray="5"></line><svg x="0" y="0" font-size="11px" style="overflow:visible"><text transform="" x="641.25" y="50" font-size="11px" fill="#555069" stroke="#FFFFFF" stroke-width="1px" text-anchor="middle"><tspan x="641.25" dy="0.355em">Optimal utilization 45%</tspan></text></svg><svg x="0" y="0" font-size="11px" style="overflow:visible"><text transform="" x="641.25" y="50" font-size="11px" fill="#CDC8E1" text-anchor="middle"><tspan x="641.25" dy="0.355em">Optimal utilization 45%</tspan></text></svg></g></svg>