<?xml version="1.0"?><svg xmlns="http://www.w3.org/2000/svg" xmlns:xlink= "http://www.w3.org/1999/xlink" style="background: white;" width="1500" height="300"> <g style="color: black; font-size: 13px; font-family: sans-serif; transform: translate(18px, 25px);"><g><circle r="3" cx="-6" cy="-5" style="fill: #1AD4B3" /><text>Borrow APR, variable</text></g><g style="transform: translateX(150px);"><circle r="3" cx="-6" cy="-5" style="fill: #101423" /><text>Borrow APR, stable</text></g></g><g class="visx-group" transform="translate(45, 50)"><g class="visx-group visx-rows" transform="translate(0, 0)"><line class="visx-line" x1="0" y1="155" x2="1425" y2="155" fill="transparent" shape-rendering="crispEdges" stroke="#F2F0F9" stroke-width="1" pointer-events="none"></line><line class="visx-line" x1="0" y1="90.41666666666666" x2="1425" y2="90.41666666666666" fill="transparent" shape-rendering="crispEdges" stroke="#F2F0F9" stroke-width="1" pointer-events="none"></line><line class="visx-line" x1="0" y1="25.83333333333333" x2="1425" y2="25.83333333333333" fill="transparent" shape-rendering="crispEdges" stroke="#F2F0F9" stroke-width="1" pointer-events="none"></line></g><path class="visx-linepath" d="M0,154.99999999993543C2.375,154.98923611107344,4.75,154.97847222221145,7.125,154.96770833333332C9.5,154.9569444444552,11.875,154.94618055555554,14.25,154.93541666666667C16.625,154.9246527777778,19,154.9138888888889,21.375,154.903125C23.75,154.8923611111111,26.125,154.88159722222224,28.5,154.87083333333334C30.875,154.86006944444443,33.25,154.84930555555553,35.625,154.83854166666666C38,154.82777777777778,40.375,154.81701388888888,42.75,154.80625C45.125,154.7954861111111,47.50000000000001,154.78472222222223,49.87500000000001,154.77395833333333C52.25000000000001,154.76319444444445,54.625,154.75243055555555,57,154.74166666666667C59.375,154.73090277777777,61.75,154.72013888888887,64.125,154.709375C66.5,154.69861111111112,68.875,154.68784722222222,71.25,154.67708333333334C73.625,154.66631944444447,76,154.65555555555557,78.375,154.64479166666666C80.75,154.63402777777776,83.125,154.6232638888889,85.5,154.6125C87.875,154.6017361111111,90.25,154.59097222222223,92.625,154.58020833333333C95,154.56944444444443,97.37500000000001,154.55868055555555,99.75000000000001,154.54791666666665C102.12500000000001,154.53715277777778,104.5,154.52638888888887,106.875,154.515625C109.25,154.50486111111113,111.625,154.49409722222222,114,154.48333333333335C116.375,154.47256944444445,118.75000000000001,154.46180555555557,121.12500000000001,154.45104166666667C123.50000000000001,154.44027777777777,125.875,154.42951388888886,128.25,154.41875C130.625,154.4079861111111,133,154.39722222222224,135.375,154.38645833333334C137.75,154.37569444444443,140.125,154.36493055555553,142.5,154.35416666666666C144.875,154.34340277777778,147.25,154.33263888888888,149.625,154.321875C152,154.31111111111113,154.375,154.30034722222223,156.75,154.28958333333333C159.125,154.27881944444442,161.5,154.26805555555558,163.875,154.25729166666667C166.25,154.24652777777777,168.625,154.2357638888889,171,154.225C173.375,154.2142361111111,175.75,154.20347222222222,178.125,154.19270833333331C180.5,154.1819444444444,182.875,154.17118055555554,185.25,154.16041666666666C187.625,154.1496527777778,190,154.13888888888889,192.375,154.128125C194.75,154.1173611111111,197.12500000000003,154.10659722222223,199.50000000000003,154.09583333333333C201.875,154.08506944444443,204.25,154.07430555555553,206.62499999999997,154.06354166666665C208.99999999999997,154.05277777777775,211.375,154.0420138888889,213.75,154.03125C216.125,154.02048611111113,218.5,154.0097222222222,220.875,153.99895833333332C223.25,153.98819444444445,225.625,153.97743055555554,228,153.96666666666667C230.375,153.9559027777778,232.75,153.9451388888889,235.125,153.93437500000002C237.5,153.92361111111111,239.87500000000003,153.91284722222224,242.25000000000003,153.90208333333334C244.625,153.89131944444443,247,153.88055555555553,249.37499999999997,153.86979166666666C251.74999999999997,153.85902777777775,254.125,153.8482638888889,256.5,153.8375C258.875,153.82673611111113,261.25,153.81597222222223,263.625,153.80520833333333C266,153.79444444444442,268.375,153.78368055555558,270.75,153.77291666666667C273.125,153.76215277777777,275.5,153.75138888888887,277.875,153.740625C280.25,153.72986111111112,282.625,153.71909722222222,285,153.70833333333334C287.375,153.69756944444447,289.75,153.68680555555557,292.125,153.67604166666666C294.5,153.66527777777776,296.875,153.65451388888886,299.25,153.64374999999998C301.625,153.6329861111111,304,153.6222222222222,306.375,153.61145833333333C308.75,153.60069444444446,311.125,153.58993055555555,313.5,153.57916666666668C315.875,153.5684027777778,318.25,153.5576388888889,320.625,153.546875C323,153.5361111111111,325.375,153.52534722222225,327.75,153.51458333333335C330.125,153.50381944444445,332.5,153.49305555555557,334.875,153.48229166666667C337.25,153.47152777777777,339.625,153.4607638888889,342,153.45C344.375,153.4392361111111,346.75,153.4284722222222,349.125,153.41770833333334C351.5,153.40694444444446,353.875,153.3961805555556,356.25,153.38541666666669C358.625,153.37465277777778,361,153.3638888888889,363.375,153.353125C365.75,153.3423611111111,368.125,153.33159722222223,370.5,153.32083333333333C372.875,153.31006944444442,375.25,153.29930555555558,377.625,153.28854166666667C380,153.27777777777777,382.375,153.26701388888887,384.75,153.25625C387.125,153.2454861111111,389.50000000000006,153.23472222222225,391.87500000000006,153.22395833333334C394.25000000000006,153.21319444444447,396.62500000000006,153.20243055555557,399.00000000000006,153.19166666666666C401.375,153.1809027777778,403.75,153.17013888888889,406.12499999999994,153.159375C408.49999999999994,153.1486111111111,410.87499999999994,153.13784722222223,413.24999999999994,153.12708333333333C415.62499999999994,153.11631944444443,418,153.10555555555555,420.375,153.09479166666665C422.75,153.08402777777778,425.125,153.07326388888887,427.5,153.0625C429.875,153.05173611111113,432.25,153.04097222222225,434.625,153.03020833333335C437,153.01944444444445,439.375,153.00868055555557,441.75,152.99791666666667C444.125,152.98715277777777,446.5,152.9763888888889,448.875,152.965625C451.25,152.9548611111111,453.625,152.94409722222224,456,152.93333333333334C458.375,152.92256944444443,460.75,152.91180555555553,463.125,152.90104166666666C465.5,152.89027777777778,467.875,152.87951388888888,470.25,152.86875C472.625,152.8579861111111,475.00000000000006,152.84722222222223,477.37500000000006,152.83645833333333C479.75000000000006,152.82569444444445,482.12500000000006,152.81493055555558,484.50000000000006,152.80416666666667C486.875,152.7934027777778,489.25,152.78263888888887,491.62499999999994,152.771875C493.99999999999994,152.7611111111111,496.37499999999994,152.75034722222222,498.74999999999994,152.73958333333334C501.12499999999994,152.72881944444444,503.5,152.71805555555557,505.875,152.70729166666666C508.25,152.6965277777778,510.625,152.6857638888889,513,152.675C515.375,152.6642361111111,517.75,152.6534722222222,520.125,152.64270833333333C522.5,152.63194444444446,524.875,152.62118055555555,527.25,152.61041666666668C529.625,152.5996527777778,532,152.5888888888889,534.375,152.578125C536.75,152.5673611111111,539.125,152.5565972222222,541.5,152.54583333333332C543.875,152.53506944444445,546.25,152.52430555555554,548.625,152.51354166666667C551,152.5027777777778,553.375,152.4920138888889,555.75,152.48125C558.125,152.4704861111111,560.5,152.45972222222224,562.875,152.44895833333334C565.25,152.43819444444443,567.625,152.42743055555553,570,152.41666666666666C572.375,152.40590277777778,574.75,152.39513888888888,577.125,152.384375C579.5,152.37361111111113,581.875,152.36284722222223,584.25,152.35208333333333C586.625,152.34131944444442,589,152.33055555555558,591.375,152.31979166666667C593.75,152.30902777777777,596.125,152.29826388888887,598.5,152.2875C600.875,152.27673611111112,603.25,152.26597222222222,605.625,152.25520833333334C608,152.24444444444447,610.375,152.23368055555557,612.75,152.22291666666666C615.125,152.21215277777776,617.5,152.2013888888889,619.875,152.190625C622.25,152.1798611111111,624.625,152.16909722222223,627,152.15833333333333C629.375,152.14756944444443,631.75,152.13680555555555,634.125,152.12604166666665C636.5,152.11527777777775,638.875,152.10451388888887,641.25,152.09375C643.625,152.08298611111113,646,152.07222222222225,648.375,152.06145833333335C650.75,152.05069444444445,653.125,152.03993055555557,655.5,152.02916666666667C657.875,152.01840277777777,660.25,152.0076388888889,662.625,151.996875C665,151.9861111111111,667.375,151.97534722222224,669.75,151.96458333333334C672.125,151.95381944444443,674.5,151.94305555555553,676.875,151.93229166666666C679.25,151.92152777777778,681.625,151.91076388888888,684,151.9C686.375,151.88923611111113,688.75,151.87847222222223,691.125,151.86770833333333C693.5,151.85694444444442,695.875,151.84618055555558,698.25,151.83541666666667C700.625,151.82465277777777,703,151.8138888888889,705.375,151.803125C707.75,151.7923611111111,710.125,151.78159722222222,712.5,151.77083333333331C714.875,151.7600694444444,717.25,151.74930555555554,719.625,151.73854166666666C722,151.7277777777778,724.375,151.7170138888889,726.75,151.70625C729.125,151.6954861111111,731.5,151.68472222222223,733.875,151.67395833333333C736.25,151.66319444444443,738.625,151.65243055555555,741,151.64166666666665C743.375,151.63090277777775,745.75,151.6201388888889,748.125,151.609375C750.5,151.5986111111111,752.875,151.5878472222222,755.25,151.57708333333332C757.625,151.56631944444445,760,151.55555555555554,762.375,151.54479166666667C764.75,151.5340277777778,767.125,151.5232638888889,769.5,151.51250000000002C771.875,151.50173611111111,774.2500000000001,151.49097222222224,776.6250000000001,151.48020833333334C779.0000000000001,151.46944444444443,781.3750000000001,151.45868055555553,783.7500000000001,151.44791666666666C786.1250000000001,151.43715277777778,788.5000000000001,151.42638888888888,790.8750000000001,151.415625C793.2500000000001,151.40486111111113,795.6250000000001,151.39409722222223,798.0000000000001,151.38333333333333C800.375,151.37256944444445,802.75,151.36180555555555,805.1249999999999,151.35104166666667C807.4999999999999,151.34027777777777,809.8749999999999,151.32951388888887,812.2499999999999,151.31875C814.6249999999999,151.30798611111112,816.9999999999999,151.29722222222222,819.3749999999999,151.28645833333334C821.7499999999999,151.27569444444447,824.1249999999999,151.26493055555557,826.4999999999999,151.25416666666666C828.8749999999999,151.24340277777776,831.25,151.23263888888889,833.625,151.22187499999998C836,151.2111111111111,838.375,151.2003472222222,840.75,151.18958333333333C843.125,151.17881944444446,845.5,151.16805555555555,847.875,151.15729166666668C850.25,151.1465277777778,852.625,151.1357638888889,855,151.125C857.375,151.1142361111111,859.75,151.10347222222225,862.125,151.09270833333335C864.5,151.08194444444445,866.875,151.07118055555557,869.25,151.06041666666667C871.625,151.04965277777777,874,151.0388888888889,876.375,151.028125C878.75,151.0173611111111,881.125,151.0065972222222,883.5,150.99583333333334C885.875,150.98506944444446,888.25,150.9743055555556,890.625,150.96354166666669C893,150.95277777777778,895.375,150.9420138888889,897.75,150.93125C900.125,150.9204861111111,902.5,150.90972222222223,904.875,150.89895833333333C907.25,150.88819444444442,909.625,150.87743055555558,912,150.86666666666667C914.375,150.85590277777777,916.75,150.84513888888887,919.125,150.834375C921.5,150.82361111111112,923.875,150.81284722222222,926.25,150.80208333333334C928.625,150.79131944444447,931,150.78055555555557,933.375,150.76979166666666C935.75,150.75902777777776,938.125,150.7482638888889,940.5,150.7375C942.875,150.7267361111111,945.25,150.71597222222223,947.625,150.70520833333333C950,150.69444444444443,952.3750000000001,150.68368055555555,954.7500000000001,150.67291666666665C957.1250000000001,150.66215277777778,959.5000000000001,150.65138888888887,961.8750000000001,150.640625C964.2500000000001,150.62986111111113,966.6250000000001,150.61909722222225,969.0000000000001,150.60833333333335C971.3750000000001,150.59756944444445,973.7500000000001,150.58680555555557,976.1250000000001,150.57604166666667C978.5,150.56527777777777,980.875,150.55451388888886,983.2499999999999,150.54375C985.6249999999999,150.5329861111111,987.9999999999999,150.52222222222224,990.3749999999999,150.51145833333334C992.7499999999999,150.50069444444443,995.1249999999999,150.48993055555553,997.4999999999999,150.47916666666666C999.8749999999999,150.46840277777778,1002.2499999999999,150.45763888888888,1004.6249999999999,150.446875C1006.9999999999999,150.4361111111111,1009.375,150.42534722222223,1011.75,150.41458333333333C1014.125,150.40381944444445,1016.5,150.39305555555558,1018.875,150.38229166666667C1021.25,150.37152777777777,1023.625,150.36076388888887,1026,150.35C1028.375,150.33923611111112,1030.75,150.32847222222222,1033.125,150.31770833333334C1035.5,150.30694444444447,1037.875,150.29618055555557,1040.25,150.28541666666666C1042.625,150.27465277777776,1045,150.2638888888889,1047.375,150.253125C1049.75,150.2423611111111,1052.125,150.2315972222222,1054.5,150.22083333333333C1056.875,150.21006944444446,1059.25,150.19930555555555,1061.625,150.18854166666668C1064,150.1777777777778,1066.375,150.1670138888889,1068.75,150.15625C1071.125,150.1454861111111,1073.5,150.1347222222222,1075.875,150.12395833333332C1078.25,150.11319444444445,1080.625,150.10243055555554,1083,150.09166666666667C1085.375,150.0809027777778,1087.75,150.0701388888889,1090.125,150.059375C1092.5,150.0486111111111,1094.875,150.03784722222224,1097.25,150.02708333333334C1099.625,150.01631944444443,1102,150.00555555555553,1104.375,149.99479166666666C1106.75,149.98402777777778,1109.125,149.97326388888888,1111.5,149.9625C1113.875,149.95173611111113,1116.25,149.94097222222223,1118.625,149.93020833333333C1121,149.91944444444442,1123.375,149.90868055555558,1125.75,149.89791666666667C1128.125,149.88715277777777,1130.5,149.87638888888887,1132.875,149.865625C1135.25,149.85486111111112,1137.625,149.85486111111112,1140,149.83333333333334C1142.375,149.81180555555557,1144.75,147.68055555555554,1147.125,146.60416666666666C1149.5,145.52777777777777,1151.875,144.45138888888889,1154.25,143.375C1156.625,142.29861111111111,1159,141.22222222222223,1161.375,140.14583333333334C1163.75,139.06944444444446,1166.125,137.99305555555554,1168.5,136.91666666666666C1170.875,135.84027777777777,1173.25,134.76388888888889,1175.625,133.6875C1178,132.61111111111111,1180.375,131.53472222222223,1182.75,130.45833333333334C1185.125,129.38194444444446,1187.5,128.30555555555554,1189.875,127.22916666666666C1192.25,126.15277777777777,1194.625,125.07638888888889,1197,124C1199.375,122.92361111111111,1201.75,121.84722222222221,1204.125,120.77083333333333C1206.5,119.69444444444444,1208.875,118.61805555555554,1211.25,117.54166666666666C1213.625,116.46527777777777,1216,115.38888888888889,1218.375,114.3125C1220.75,113.23611111111111,1223.125,112.15972222222221,1225.5,111.08333333333333C1227.875,110.00694444444444,1230.25,108.93055555555554,1232.625,107.85416666666666C1235,106.77777777777777,1237.375,105.70138888888889,1239.75,104.625C1242.125,103.54861111111111,1244.5,102.47222222222221,1246.875,101.39583333333333C1249.25,100.31944444444444,1251.625,99.24305555555554,1254,98.16666666666666C1256.375,97.09027777777777,1258.75,96.01388888888889,1261.125,94.9375C1263.5,93.86111111111111,1265.875,92.78472222222221,1268.25,91.70833333333333C1270.625,90.63194444444444,1273,89.55555555555554,1275.375,88.47916666666666C1277.75,87.40277777777777,1280.125,86.32638888888889,1282.5,85.25C1284.875,84.17361111111111,1287.25,83.09722222222224,1289.625,82.02083333333336C1292,80.94444444444447,1294.375,79.86805555555554,1296.75,78.79166666666666C1299.125,77.71527777777777,1301.5,76.63888888888889,1303.875,75.5625C1306.25,74.48611111111111,1308.625,73.40972222222221,1311,72.33333333333333C1313.375,71.25694444444444,1315.75,70.18055555555554,1318.125,69.10416666666666C1320.5,68.02777777777777,1322.875,66.95138888888889,1325.25,65.875C1327.625,64.79861111111111,1330,63.72222222222223,1332.375,62.645833333333336C1334.75,61.56944444444444,1337.125,60.49305555555555,1339.5,59.416666666666664C1341.875,58.34027777777778,1344.25,57.26388888888889,1346.625,56.18750000000001C1349,55.11111111111112,1351.375,54.03472222222223,1353.75,52.958333333333336C1356.125,51.88194444444444,1358.5,50.80555555555555,1360.875,49.729166666666664C1363.25,48.65277777777778,1365.625,47.57638888888889,1368,46.50000000000001C1370.375,45.42361111111112,1372.75,44.34722222222223,1375.125,43.270833333333336C1377.5,42.19444444444444,1379.875,41.11805555555555,1382.25,40.041666666666664C1384.625,38.96527777777778,1387,37.88888888888889,1389.375,36.81250000000001C1391.75,35.73611111111112,1394.125,34.65972222222223,1396.5,33.583333333333336C1398.875,32.50694444444444,1401.25,31.43055555555555,1403.625,30.35416666666666C1406,29.27777777777777,1408.375,28.201388888888893,1410.75,27.125000000000007C1413.125,26.04861111111112,1415.5,24.972222222222243,1417.875,23.89583333333335C1420.25,22.819444444444457,1422.625,21.74305555555556,1425,20.66666666666666" fill="transparent" stroke-linecap="round" stroke="#1AD4B3" stroke-width="2"></path><g class="visx-group visx-axis visx-axis-bottom" transform="translate(0, 155)"><g class="visx-group visx-axis-tick" transform="translate(0, 0)"><line class="visx-line" x1="0" y1="0" x2="0" y2="8" fill="transparent" shape-rendering="crispEdges" stroke="#F2F0F9" stroke-width="1" stroke-linecap="square"></line><svg x="0" y="0" font-size="11" style="overflow:visible"><text transform="" x="0" y="19" fill="#1B2030" font-size="11" text-anchor="middle"><tspan x="0" dy="0em">0%</tspan></text></svg></g><g class="visx-group visx-axis-tick" transform="translate(0, 0)"><line class="visx-line" x1="356.25" y1="0" x2="356.25" y2="8" fill="transparent" shape-rendering="crispEdges" stroke="#F2F0F9" stroke-width="1" stroke-linecap="square"></line><svg x="0" y="0" font-size="11" style="overflow:visible"><text transform="" x="356.25" y="19" fill="#1B2030" font-size="11" text-anchor="middle"><tspan x="356.25" dy="0em">25%</tspan></text></svg></g><g class="visx-group visx-axis-tick" transform="translate(0, 0)"><line class="visx-line" x1="712.5" y1="0" x2="712.5" y2="8" fill="transparent" shape-rendering="crispEdges" stroke="#F2F0F9" stroke-width="1" stroke-linecap="square"></line><svg x="0" y="0" font-size="11" style="overflow:visible"><text transform="" x="712.5" y="19" fill="#1B2030" font-size="11" text-anchor="middle"><tspan x="712.5" dy="0em">50%</tspan></text></svg></g><g class="visx-group visx-axis-tick" transform="translate(0, 0)"><line class="visx-line" x1="1068.75" y1="0" x2="1068.75" y2="8" fill="transparent" shape-rendering="crispEdges" stroke="#F2F0F9" stroke-width="1" stroke-linecap="square"></line><svg x="0" y="0" font-size="11" style="overflow:visible"><text transform="" x="1068.75" y="19" fill="#1B2030" font-size="11" text-anchor="middle"><tspan x="1068.75" dy="0em">75%</tspan></text></svg></g><g class="visx-group visx-axis-tick" transform="translate(0, 0)"><line class="visx-line" x1="1425" y1="0" x2="1425" y2="8" fill="transparent" shape-rendering="crispEdges" stroke="#F2F0F9" stroke-width="1" stroke-linecap="square"></line><svg x="0" y="0" font-size="11" style="overflow:visible"><text transform="" x="1425" y="19" fill="#1B2030" font-size="11" text-anchor="middle"><tspan x="1425" dy="0em">100%</tspan></text></svg></g></g><g class="visx-group visx-axis visx-axis-left" transform="translate(0, 0)"><g class="visx-group visx-axis-tick" transform="translate(0, 0)"><line class="visx-line" x1="0" y1="155" x2="-8" y2="155" fill="transparent" shape-rendering="crispEdges" stroke="#F2F0F9" stroke-width="1" stroke-linecap="square"></line><svg x="-30" y="0" font-size="11" style="overflow:visible"><text transform="" x="-8" y="155" fill="#1B2030" font-size="11" text-anchor="start"><tspan x="-8" dy="0em">0%</tspan></text></svg></g><g class="visx-group visx-axis-tick" transform="translate(0, 0)"><line class="visx-line" x1="0" y1="90.41666666666666" x2="-8" y2="90.41666666666666" fill="transparent" shape-rendering="crispEdges" stroke="#F2F0F9" stroke-width="1" stroke-linecap="square"></line><svg x="-30" y="0" font-size="11" style="overflow:visible"><text transform="" x="-8" y="90.41666666666666" fill="#1B2030" font-size="11" text-anchor="start"><tspan x="-8" dy="0em">50%</tspan></text></svg></g><g class="visx-group visx-axis-tick" transform="translate(0, 0)"><line class="visx-line" x1="0" y1="25.83333333333333" x2="-8" y2="25.83333333333333" fill="transparent" shape-rendering="crispEdges" stroke="#F2F0F9" stroke-width="1" stroke-linecap="square"></line><svg x="-30" y="0" font-size="11" style="overflow:visible"><text transform="" x="-8" y="25.83333333333333" fill="#1B2030" font-size="11" text-anchor="start"><tspan x="-8" dy="0em">100%</tspan></text></svg></g><line class="visx-line visx-axis-line" x1="0" y1="155.5" x2="0" y2="0.5" fill="transparent" shape-rendering="crispEdges" stroke="#F2F0F9" stroke-width="1"></line></g><rect class="visx-bar" width="1425" height="155" fill="transparent"></rect><line class="visx-line" x1="1140" y1="58" x2="1140" y2="155" fill="transparent" shape-rendering="crispEdges" stroke="#CDC8E1" stroke-width="1" pointer-events="none" stroke-dasharray="5"></line><svg x="0" y="0" font-size="11px" style="overflow:visible"><text transform="" x="1140" y="50" font-size="11px" fill="#555069" stroke="#FFFFFF" stroke-width="1px" text-anchor="middle"><tspan x="1140" dy="0.355em">Optimal utilization 80%</tspan></text></svg><svg x="0" y="0" font-size="11px" style="overflow:visible"><text transform="" x="1140" y="50" font-size="11px" fill="#CDC8E1" text-anchor="middle"><tspan x="1140" dy="0.355em">Optimal utilization 80%</tspan></text></svg></g></svg>