<?xml version="1.0"?><svg xmlns="http://www.w3.org/2000/svg" xmlns:xlink= "http://www.w3.org/1999/xlink" style="background: white;" width="1500" height="185"> <g style="color: black; font-size: 13px; font-family: sans-serif; transform: translate(18px, 25px);"><g><circle r="3" cx="-6" cy="-5" style="fill: #B6509E" /><text>Borrow APR, variable</text></g><g style="transform: translateX(150px);"><circle r="3" cx="-6" cy="-5" style="fill: rgb(231, 198, 223)" /><text>Borrow APR, stable</text></g><g style="transform: translateX(290px);"><circle r="3" cx="-6" cy="-5" style="fill: rgb(0, 98, 210)" /><text>Utilization Rate</text></g></g><g class="visx-group" transform="translate(40, 50)"><g class="visx-group visx-rows" transform="translate(0, 0)"><line class="visx-line" x1="0" y1="115" x2="1450" y2="115" fill="transparent" shape-rendering="crispEdges" stroke="#000" stroke-width="1" stroke-dasharray="3,3" pointer-events="none"></line><line class="visx-line" x1="0" y1="70.76923076923077" x2="1450" y2="70.76923076923077" fill="transparent" shape-rendering="crispEdges" stroke="#000" stroke-width="1" stroke-dasharray="3,3" pointer-events="none"></line><line class="visx-line" x1="0" y1="26.538461538461533" x2="1450" y2="26.538461538461533" fill="transparent" shape-rendering="crispEdges" stroke="#000" stroke-width="1" stroke-dasharray="3,3" pointer-events="none"></line></g><path class="visx-linepath" d="M0,114.99999999995578C2.4166666666666665,114.9926282051024,4.833333333333334,114.98525641024904,7.25,114.97788461538461C9.666666666666666,114.97051282052018,12.083333333333334,114.96314102564101,14.5,114.95576923076922C16.916666666666668,114.94839743589743,19.333333333333332,114.94102564102563,21.75,114.93365384615385C24.166666666666668,114.92628205128206,26.583333333333332,114.91891025641026,29,114.91153846153847C31.416666666666668,114.90416666666668,33.833333333333336,114.89679487179488,36.25,114.88942307692308C38.666666666666664,114.88205128205128,41.083333333333336,114.87467948717949,43.5,114.86730769230769C45.91666666666667,114.85993589743589,48.333333333333336,114.8525641025641,50.75000000000001,114.8451923076923C53.16666666666667,114.83782051282051,55.583333333333336,114.83044871794871,58,114.82307692307693C60.416666666666664,114.81570512820512,62.833333333333336,114.80833333333332,65.25,114.80096153846154C67.66666666666667,114.79358974358975,70.08333333333333,114.78621794871795,72.5,114.77884615384616C74.91666666666667,114.77147435897437,77.33333333333333,114.76410256410257,79.75,114.75673076923077C82.16666666666667,114.74935897435897,84.58333333333333,114.74198717948717,87,114.73461538461538C89.41666666666667,114.7272435897436,91.83333333333333,114.71987179487179,94.25,114.7125C96.66666666666667,114.7051282051282,99.08333333333334,114.69775641025642,101.50000000000001,114.69038461538462C103.91666666666667,114.68301282051281,106.33333333333334,114.67564102564101,108.75,114.66826923076923C111.16666666666667,114.66089743589743,113.58333333333333,114.65352564102564,116,114.64615384615385C118.41666666666667,114.63878205128205,120.83333333333334,114.63141025641026,123.25000000000001,114.62403846153846C125.66666666666667,114.61666666666666,128.08333333333334,114.60929487179486,130.5,114.60192307692307C132.91666666666666,114.59455128205127,135.33333333333334,114.58717948717948,137.75,114.5798076923077C140.16666666666666,114.57243589743591,142.58333333333334,114.56506410256411,145,114.5576923076923C147.41666666666666,114.5503205128205,149.83333333333334,114.5429487179487,152.25,114.53557692307692C154.66666666666666,114.52820512820513,157.08333333333334,114.52083333333333,159.5,114.51346153846154C161.91666666666666,114.50608974358975,164.33333333333334,114.49871794871794,166.75,114.49134615384615C169.16666666666666,114.48397435897436,171.58333333333334,114.47660256410256,174,114.46923076923078C176.41666666666666,114.46185897435899,178.83333333333334,114.45448717948719,181.25,114.44711538461539C183.66666666666666,114.43974358974359,186.08333333333334,114.4323717948718,188.5,114.425C190.91666666666666,114.4176282051282,193.33333333333334,114.4102564102564,195.75,114.40288461538461C198.16666666666669,114.3955128205128,200.58333333333334,114.38814102564102,203.00000000000003,114.38076923076923C205.41666666666669,114.37339743589745,207.83333333333331,114.36602564102564,210.24999999999997,114.35865384615386C212.66666666666666,114.35128205128206,215.08333333333331,114.34391025641027,217.5,114.33653846153847C219.91666666666666,114.32916666666667,222.33333333333334,114.32179487179488,224.75,114.31442307692308C227.16666666666666,114.30705128205128,229.58333333333334,114.29967948717949,232,114.29230769230769C234.41666666666666,114.28493589743589,236.83333333333334,114.27756410256409,239.25,114.2701923076923C241.66666666666669,114.2628205128205,244.08333333333334,114.25544871794871,246.50000000000003,114.24807692307692C248.91666666666669,114.24070512820514,251.33333333333331,114.23333333333333,253.74999999999997,114.22596153846155C256.16666666666663,114.21858974358975,258.5833333333333,114.21121794871796,261,114.20384615384616C263.4166666666667,114.19647435897436,265.8333333333333,114.18910256410257,268.25,114.18173076923077C270.6666666666667,114.17435897435897,273.0833333333333,114.16698717948717,275.5,114.15961538461538C277.9166666666667,114.15224358974359,280.3333333333333,114.14487179487179,282.75,114.1375C285.1666666666667,114.13012820512822,287.5833333333333,114.1227564102564,290,114.11538461538461C292.4166666666667,114.10801282051283,294.8333333333333,114.10064102564102,297.25,114.09326923076924C299.6666666666667,114.08589743589745,302.0833333333333,114.07852564102565,304.5,114.07115384615385C306.9166666666667,114.06378205128205,309.3333333333333,114.05641025641025,311.75,114.04903846153846C314.1666666666667,114.04166666666667,316.5833333333333,114.03429487179487,319,114.02692307692308C321.4166666666667,114.0195512820513,323.8333333333333,114.0121794871795,326.25,114.0048076923077C328.6666666666667,113.99743589743589,331.0833333333333,113.99006410256409,333.5,113.9826923076923C335.9166666666667,113.97532051282052,338.3333333333333,113.96794871794872,340.75,113.96057692307693C343.1666666666667,113.95320512820514,345.5833333333333,113.94583333333334,348,113.93846153846154C350.4166666666667,113.93108974358974,352.8333333333333,113.92371794871794,355.25,113.91634615384615C357.6666666666667,113.90897435897436,360.0833333333333,113.90160256410256,362.5,113.89423076923077C364.9166666666667,113.88685897435899,367.3333333333333,113.87948717948719,369.75,113.87211538461538C372.1666666666667,113.86474358974358,374.5833333333333,113.85737179487178,377,113.85C379.4166666666667,113.84262820512821,381.8333333333333,113.8352564102564,384.25,113.82788461538462C386.6666666666667,113.82051282051283,389.0833333333333,113.81314102564102,391.5,113.80576923076923C393.9166666666667,113.79839743589743,396.33333333333337,113.79102564102566,398.75000000000006,113.78365384615385C401.16666666666674,113.77628205128207,403.58333333333337,113.76891025641027,406.00000000000006,113.76153846153846C408.4166666666667,113.75416666666666,410.8333333333333,113.74679487179488,413.24999999999994,113.73942307692307C415.66666666666663,113.73205128205127,418.08333333333326,113.72467948717949,420.49999999999994,113.71730769230768C422.91666666666663,113.70993589743588,425.3333333333333,113.70256410256408,427.75,113.6951923076923C430.1666666666667,113.68782051282051,432.5833333333333,113.68044871794872,435,113.67307692307693C437.4166666666667,113.66570512820515,439.8333333333333,113.65833333333335,442.25,113.65096153846154C444.6666666666667,113.64358974358974,447.0833333333333,113.63621794871796,449.5,113.62884615384615C451.9166666666667,113.62147435897435,454.3333333333333,113.61410256410257,456.75,113.60673076923077C459.1666666666667,113.59935897435896,461.5833333333333,113.59198717948716,464,113.58461538461538C466.4166666666667,113.57724358974359,468.8333333333333,113.56987179487179,471.25,113.5625C473.6666666666667,113.55512820512821,476.0833333333333,113.54775641025641,478.5,113.54038461538462C480.9166666666667,113.53301282051282,483.33333333333337,113.52564102564104,485.75000000000006,113.51826923076923C488.16666666666674,113.51089743589743,490.58333333333337,113.50352564102565,493.00000000000006,113.49615384615385C495.4166666666667,113.48878205128204,497.8333333333333,113.48141025641024,500.24999999999994,113.47403846153846C502.66666666666663,113.46666666666665,505.08333333333326,113.45929487179487,507.49999999999994,113.45192307692308C509.91666666666663,113.44455128205128,512.3333333333333,113.43717948717949,514.75,113.42980769230769C517.1666666666666,113.4224358974359,519.5833333333334,113.4150641025641,522,113.40769230769232C524.4166666666666,113.40032051282053,526.8333333333334,113.39294871794873,529.25,113.38557692307693C531.6666666666666,113.37820512820512,534.0833333333334,113.37083333333332,536.5,113.36346153846154C538.9166666666666,113.35608974358975,541.3333333333334,113.34871794871795,543.75,113.34134615384616C546.1666666666666,113.33397435897437,548.5833333333334,113.32660256410257,551,113.31923076923077C553.4166666666666,113.31185897435897,555.8333333333334,113.30448717948718,558.25,113.29711538461538C560.6666666666666,113.28974358974358,563.0833333333334,113.28237179487178,565.5,113.27499999999999C567.9166666666666,113.2676282051282,570.3333333333334,113.2602564102564,572.75,113.25288461538462C575.1666666666666,113.24551282051283,577.5833333333334,113.23814102564103,580,113.23076923076924C582.4166666666666,113.22339743589745,584.8333333333334,113.21602564102565,587.25,113.20865384615385C589.6666666666666,113.20128205128205,592.0833333333334,113.19391025641026,594.5,113.18653846153846C596.9166666666666,113.17916666666666,599.3333333333334,113.17179487179487,601.75,113.16442307692307C604.1666666666666,113.15705128205127,606.5833333333334,113.14967948717947,609,113.14230769230768C611.4166666666666,113.1349358974359,613.8333333333334,113.1275641025641,616.25,113.1201923076923C618.6666666666666,113.11282051282052,621.0833333333334,113.10544871794872,623.5,113.09807692307693C625.9166666666666,113.09070512820514,628.3333333333334,113.08333333333334,630.75,113.07596153846154C633.1666666666666,113.06858974358974,635.5833333333334,113.06121794871795,638,113.05384615384615C640.4166666666666,113.04647435897435,642.8333333333334,113.03910256410256,645.25,113.03173076923076C647.6666666666666,113.02435897435896,650.0833333333334,113.01698717948716,652.5,113.00961538461537C654.9166666666666,113.00224358974359,657.3333333333334,112.9948717948718,659.75,112.98750000000001C662.1666666666666,112.98012820512822,664.5833333333334,112.97275641025642,667,112.96538461538462C669.4166666666666,112.95801282051282,671.8333333333334,112.95064102564103,674.25,112.94326923076923C676.6666666666666,112.93589743589743,679.0833333333334,112.92852564102564,681.5,112.92115384615384C683.9166666666666,112.91378205128204,686.3333333333334,112.90641025641024,688.75,112.89903846153845C691.1666666666666,112.89166666666667,693.5833333333334,112.88429487179486,696,112.87692307692308C698.4166666666666,112.86955128205129,700.8333333333334,112.86217948717949,703.25,112.8548076923077C705.6666666666666,112.84743589743591,708.0833333333334,112.84006410256411,710.5,112.83269230769231C712.9166666666666,112.82532051282051,715.3333333333334,112.81794871794872,717.75,112.81057692307692C720.1666666666666,112.80320512820512,722.5833333333334,112.79583333333332,725,112.78846153846153C727.4166666666666,112.78108974358975,729.8333333333334,112.77371794871794,732.25,112.76634615384616C734.6666666666666,112.75897435897437,737.0833333333334,112.75160256410257,739.5,112.74423076923077C741.9166666666666,112.73685897435897,744.3333333333334,112.72948717948717,746.75,112.72211538461538C749.1666666666666,112.71474358974359,751.5833333333334,112.70737179487179,754,112.7C756.4166666666666,112.69262820512822,758.8333333333334,112.6852564102564,761.25,112.67788461538461C763.6666666666666,112.67051282051283,766.0833333333334,112.66314102564102,768.5,112.65576923076924C770.9166666666666,112.64839743589745,773.3333333333334,112.64102564102565,775.75,112.63365384615385C778.1666666666666,112.62628205128205,780.5833333333334,112.61891025641026,783,112.61153846153846C785.4166666666667,112.60416666666666,787.8333333333334,112.59679487179487,790.2500000000001,112.58942307692307C792.6666666666667,112.58205128205128,795.0833333333335,112.57467948717948,797.5000000000001,112.5673076923077C799.9166666666667,112.5599358974359,802.3333333333335,112.5525641025641,804.7500000000001,112.54519230769232C807.1666666666667,112.53782051282053,809.5833333333335,112.53044871794873,812.0000000000001,112.52307692307693C814.4166666666667,112.51570512820513,816.8333333333333,112.50833333333334,819.2499999999999,112.50096153846154C821.6666666666665,112.49358974358974,824.0833333333333,112.48621794871795,826.4999999999999,112.47884615384615C828.9166666666665,112.47147435897435,831.3333333333333,112.46410256410255,833.7499999999999,112.45673076923076C836.1666666666665,112.44935897435897,838.5833333333333,112.44198717948717,840.9999999999999,112.43461538461538C843.4166666666666,112.4272435897436,845.8333333333333,112.41987179487181,848.25,112.41250000000001C850.6666666666666,112.40512820512822,853.0833333333334,112.39775641025642,855.5,112.39038461538462C857.9166666666666,112.38301282051282,860.3333333333334,112.37564102564103,862.75,112.36826923076923C865.1666666666666,112.36089743589743,867.5833333333334,112.35352564102564,870,112.34615384615384C872.4166666666666,112.33878205128204,874.8333333333334,112.33141025641024,877.25,112.32403846153845C879.6666666666666,112.31666666666666,882.0833333333334,112.30929487179486,884.5,112.30192307692307C886.9166666666666,112.29455128205129,889.3333333333334,112.28717948717949,891.75,112.2798076923077C894.1666666666666,112.27243589743591,896.5833333333334,112.26506410256411,899,112.25769230769231C901.4166666666666,112.25032051282051,903.8333333333334,112.24294871794872,906.25,112.23557692307692C908.6666666666666,112.22820512820512,911.0833333333334,112.22083333333332,913.5,112.21346153846153C915.9166666666666,112.20608974358974,918.3333333333334,112.19871794871794,920.75,112.19134615384615C923.1666666666666,112.18397435897437,925.5833333333334,112.17660256410255,928,112.16923076923077C930.4166666666666,112.16185897435898,932.8333333333334,112.15448717948718,935.25,112.14711538461539C937.6666666666666,112.1397435897436,940.0833333333334,112.1323717948718,942.5,112.125C944.9166666666666,112.1176282051282,947.3333333333334,112.1102564102564,949.75,112.10288461538461C952.1666666666666,112.09551282051282,954.5833333333334,112.08814102564102,957,112.08076923076923C959.4166666666666,112.07339743589745,961.8333333333334,112.06602564102565,964.25,112.05865384615385C966.6666666666667,112.05128205128204,969.0833333333334,112.04391025641026,971.5000000000001,112.03653846153846C973.9166666666667,112.02916666666667,976.3333333333335,112.02179487179487,978.7500000000001,112.01442307692308C981.1666666666667,112.0070512820513,983.5833333333335,111.99967948717948,986.0000000000001,111.99230769230769C988.4166666666667,111.9849358974359,990.8333333333335,111.97756410256412,993.2500000000001,111.97019230769232C995.6666666666667,111.96282051282053,998.0833333333333,111.95544871794873,1000.4999999999999,111.94807692307693C1002.9166666666665,111.94070512820512,1005.3333333333333,111.93333333333334,1007.7499999999999,111.92596153846154C1010.1666666666665,111.91858974358973,1012.5833333333333,111.91121794871793,1014.9999999999999,111.90384615384615C1017.4166666666665,111.89647435897436,1019.8333333333333,111.88910256410256,1022.2499999999999,111.88173076923077C1024.6666666666665,111.87435897435898,1027.0833333333333,111.8669871794872,1029.5,111.8596153846154C1031.9166666666667,111.85224358974361,1034.3333333333333,111.8448717948718,1036.75,111.8375C1039.1666666666667,111.8301282051282,1041.5833333333333,111.82275641025642,1044,111.81538461538462C1046.4166666666667,111.80801282051281,1048.8333333333333,111.80064102564103,1051.25,111.79326923076923C1053.6666666666667,111.78589743589743,1056.0833333333333,111.77852564102562,1058.5,111.77115384615384C1060.9166666666667,111.76378205128205,1063.3333333333333,111.75641025641025,1065.75,111.74903846153846C1068.1666666666667,111.74166666666667,1070.5833333333333,111.73429487179487,1073,111.72692307692309C1075.4166666666667,111.7195512820513,1077.8333333333333,111.7121794871795,1080.25,111.7048076923077C1082.6666666666667,111.6974358974359,1085.0833333333333,111.69006410256411,1087.5,111.6826923076923C1089.9166666666667,111.6753205128205,1092.3333333333333,111.66794871794872,1094.75,111.66057692307692C1097.1666666666667,111.65320512820512,1099.5833333333333,111.64583333333331,1102,111.63846153846153C1104.4166666666667,111.63108974358974,1106.8333333333333,111.62371794871794,1109.25,111.61634615384615C1111.6666666666667,111.60897435897436,1114.0833333333333,111.60160256410256,1116.5,111.59423076923078C1118.9166666666667,111.58685897435899,1121.3333333333333,111.57948717948719,1123.75,111.57211538461539C1126.1666666666667,111.56474358974359,1128.5833333333333,111.5573717948718,1131,111.55C1133.4166666666667,111.5426282051282,1135.8333333333333,111.5352564102564,1138.25,111.52788461538461C1140.6666666666667,111.52051282051282,1143.0833333333333,111.51314102564102,1145.5,111.50576923076923C1147.9166666666667,111.49839743589745,1150.3333333333333,111.49102564102563,1152.75,111.48365384615384C1155.1666666666667,111.47628205128206,1157.5833333333333,111.47628205128206,1160,111.46153846153847C1162.4166666666667,111.44679487179488,1164.8333333333333,109.98717948717949,1167.25,109.25C1169.6666666666667,108.51282051282051,1172.0833333333333,107.77564102564104,1174.5,107.03846153846155C1176.9166666666667,106.30128205128206,1179.3333333333333,105.56410256410257,1181.75,104.82692307692308C1184.1666666666667,104.08974358974359,1186.5833333333333,103.3525641025641,1189,102.61538461538461C1191.4166666666667,101.87820512820512,1193.8333333333333,101.14102564102565,1196.25,100.40384615384616C1198.6666666666667,99.66666666666667,1201.0833333333333,98.92948717948718,1203.5,98.1923076923077C1205.9166666666667,97.4551282051282,1208.3333333333333,96.71794871794873,1210.75,95.98076923076924C1213.1666666666667,95.24358974358975,1215.5833333333333,94.50641025641026,1218,93.76923076923077C1220.4166666666667,93.03205128205128,1222.8333333333333,92.29487179487181,1225.25,91.55769230769232C1227.6666666666667,90.82051282051283,1230.0833333333333,90.08333333333334,1232.5,89.34615384615385C1234.9166666666667,88.60897435897436,1237.3333333333333,87.87179487179488,1239.75,87.13461538461539C1242.1666666666667,86.3974358974359,1244.5833333333333,85.66025641025642,1247,84.92307692307693C1249.4166666666667,84.18589743589745,1251.8333333333333,83.44871794871796,1254.25,82.71153846153847C1256.6666666666667,81.97435897435898,1259.0833333333333,81.23717948717949,1261.5,80.5C1263.9166666666667,79.76282051282051,1266.3333333333333,79.02564102564104,1268.75,78.28846153846155C1271.1666666666667,77.55128205128206,1273.5833333333333,76.81410256410257,1276,76.07692307692308C1278.4166666666667,75.33974358974359,1280.8333333333333,74.6025641025641,1283.25,73.86538461538461C1285.6666666666667,73.12820512820512,1288.0833333333333,72.39102564102565,1290.5,71.65384615384616C1292.9166666666667,70.91666666666667,1295.3333333333333,70.1794871794872,1297.75,69.44230769230771C1300.1666666666667,68.70512820512822,1302.5833333333333,67.96794871794872,1305,67.23076923076923C1307.4166666666667,66.49358974358974,1309.8333333333333,65.75641025641026,1312.25,65.01923076923077C1314.6666666666667,64.28205128205128,1317.0833333333333,63.5448717948718,1319.5,62.807692307692314C1321.9166666666667,62.070512820512825,1324.3333333333333,61.333333333333336,1326.75,60.59615384615385C1329.1666666666667,59.85897435897436,1331.5833333333333,59.12179487179487,1334,58.38461538461538C1336.4166666666667,57.64743589743589,1338.8333333333333,56.910256410256416,1341.25,56.17307692307693C1343.6666666666667,55.43589743589744,1346.0833333333333,54.69871794871795,1348.5,53.96153846153846C1350.9166666666667,53.22435897435897,1353.3333333333333,52.48717948717948,1355.75,51.74999999999999C1358.1666666666667,51.012820512820504,1360.5833333333333,50.27564102564103,1363,49.53846153846154C1365.4166666666667,48.80128205128205,1367.8333333333333,48.06410256410256,1370.25,47.32692307692307C1372.6666666666667,46.589743589743584,1375.0833333333333,45.85256410256411,1377.5,45.11538461538462C1379.9166666666667,44.37820512820513,1382.3333333333333,43.64102564102564,1384.75,42.90384615384615C1387.1666666666667,42.166666666666664,1389.5833333333333,41.429487179487175,1392,40.692307692307686C1394.4166666666667,39.9551282051282,1396.8333333333333,39.21794871794872,1399.25,38.48076923076923C1401.6666666666667,37.743589743589745,1404.0833333333333,37.006410256410255,1406.5,36.26923076923077C1408.9166666666667,35.53205128205128,1411.3333333333333,34.79487179487179,1413.75,34.0576923076923C1416.1666666666667,33.32051282051281,1418.5833333333333,32.583333333333336,1421,31.846153846153847C1423.4166666666667,31.10897435897436,1425.8333333333333,30.371794871794865,1428.25,29.63461538461538C1430.6666666666667,28.897435897435894,1433.0833333333333,28.160256410256412,1435.5,27.423076923076927C1437.9166666666667,26.68589743589744,1440.3333333333333,25.948717948717963,1442.75,25.211538461538474C1445.1666666666667,24.474358974358985,1447.5833333333333,23.737179487179493,1450,22.999999999999996" fill="transparent" stroke-linecap="round" stroke="#B6509E" stroke-width="2"></path><path class="visx-linepath" d="M0,106.15384615382403C2.4166666666666665,106.15016025639736,4.833333333333334,106.14647435897066,7.25,106.14278846153846C9.666666666666666,106.13910256410625,12.083333333333334,106.13541666666667,14.5,106.13173076923077C16.916666666666668,106.12804487179487,19.333333333333332,106.12435897435897,21.75,106.12067307692307C24.166666666666668,106.11698717948717,26.583333333333332,106.11330128205128,29,106.10961538461538C31.416666666666668,106.10592948717948,33.833333333333336,106.10224358974358,36.25,106.09855769230768C38.666666666666664,106.09487179487178,41.083333333333336,106.09118589743588,43.5,106.08749999999999C45.91666666666667,106.08381410256409,48.333333333333336,106.08012820512822,50.75000000000001,106.07644230769232C53.16666666666667,106.07275641025642,55.583333333333336,106.06907051282052,58,106.06538461538462C60.416666666666664,106.06169871794872,62.833333333333336,106.05801282051283,65.25,106.05432692307693C67.66666666666667,106.05064102564103,70.08333333333333,106.04695512820514,72.5,106.04326923076924C74.91666666666667,106.03958333333334,77.33333333333333,106.03589743589744,79.75,106.03221153846154C82.16666666666667,106.02852564102564,84.58333333333333,106.02483974358975,87,106.02115384615385C89.41666666666667,106.01746794871795,91.83333333333333,106.01378205128205,94.25,106.01009615384615C96.66666666666667,106.00641025641025,99.08333333333334,106.00272435897436,101.50000000000001,105.99903846153846C103.91666666666667,105.99535256410256,106.33333333333334,105.99166666666666,108.75,105.98798076923076C111.16666666666667,105.98429487179486,113.58333333333333,105.98060897435897,116,105.97692307692307C118.41666666666667,105.97323717948717,120.83333333333334,105.96955128205128,123.25000000000001,105.96586538461538C125.66666666666667,105.96217948717948,128.08333333333334,105.95849358974358,130.5,105.95480769230768C132.91666666666666,105.95112179487178,135.33333333333334,105.9474358974359,137.75,105.94375000000001C140.16666666666666,105.94006410256412,142.58333333333334,105.93637820512822,145,105.93269230769232C147.41666666666666,105.92900641025642,149.83333333333334,105.92532051282052,152.25,105.92163461538462C154.66666666666666,105.91794871794872,157.08333333333334,105.91426282051283,159.5,105.91057692307693C161.91666666666666,105.90689102564103,164.33333333333334,105.90320512820513,166.75,105.89951923076923C169.16666666666666,105.89583333333333,171.58333333333334,105.89214743589744,174,105.88846153846154C176.41666666666666,105.88477564102564,178.83333333333334,105.88108974358974,181.25,105.87740384615384C183.66666666666666,105.87371794871794,186.08333333333334,105.87003205128205,188.5,105.86634615384615C190.91666666666666,105.86266025641025,193.33333333333334,105.85897435897436,195.75,105.85528846153846C198.16666666666669,105.85160256410256,200.58333333333334,105.84791666666666,203.00000000000003,105.84423076923076C205.41666666666669,105.84054487179486,207.83333333333331,105.83685897435898,210.24999999999997,105.83317307692307C212.66666666666666,105.82948717948717,215.08333333333331,105.82580128205129,217.5,105.82211538461539C219.91666666666666,105.81842948717949,222.33333333333334,105.81474358974359,224.75,105.81105769230768C227.16666666666666,105.80737179487178,229.58333333333334,105.80368589743591,232,105.80000000000001C234.41666666666666,105.79631410256411,236.83333333333334,105.79262820512821,239.25,105.78894230769231C241.66666666666669,105.78525641025641,244.08333333333334,105.78157051282052,246.50000000000003,105.77788461538462C248.91666666666669,105.77419871794872,251.33333333333331,105.77051282051282,253.74999999999997,105.76682692307692C256.16666666666663,105.76314102564102,258.5833333333333,105.75945512820513,261,105.75576923076923C263.4166666666667,105.75208333333333,265.8333333333333,105.74839743589745,268.25,105.74471153846154C270.6666666666667,105.74102564102564,273.0833333333333,105.73733974358974,275.5,105.73365384615384C277.9166666666667,105.72996794871794,280.3333333333333,105.72628205128206,282.75,105.72259615384615C285.1666666666667,105.71891025641025,287.5833333333333,105.71522435897435,290,105.71153846153845C292.4166666666667,105.70785256410255,294.8333333333333,105.70416666666667,297.25,105.70048076923077C299.6666666666667,105.69679487179486,302.0833333333333,105.69310897435898,304.5,105.68942307692308C306.9166666666667,105.68573717948718,309.3333333333333,105.68205128205128,311.75,105.67836538461538C314.1666666666667,105.67467948717947,316.5833333333333,105.6709935897436,319,105.6673076923077C321.4166666666667,105.6636217948718,323.8333333333333,105.6599358974359,326.25,105.65625C328.6666666666667,105.6525641025641,331.0833333333333,105.64887820512821,333.5,105.64519230769231C335.9166666666667,105.64150641025641,338.3333333333333,105.63782051282053,340.75,105.63413461538462C343.1666666666667,105.63044871794872,345.5833333333333,105.62676282051282,348,105.62307692307692C350.4166666666667,105.61939102564102,352.8333333333333,105.61570512820514,355.25,105.61201923076923C357.6666666666667,105.60833333333333,360.0833333333333,105.60464743589743,362.5,105.60096153846153C364.9166666666667,105.59727564102563,367.3333333333333,105.59358974358975,369.75,105.58990384615385C372.1666666666667,105.58621794871794,374.5833333333333,105.58253205128204,377,105.57884615384614C379.4166666666667,105.57516025641024,381.8333333333333,105.57147435897436,384.25,105.56778846153846C386.6666666666667,105.56410256410255,389.0833333333333,105.56041666666667,391.5,105.55673076923077C393.9166666666667,105.55304487179487,396.33333333333337,105.54935897435897,398.75000000000006,105.54567307692307C401.16666666666674,105.54198717948717,403.58333333333337,105.53830128205128,406.00000000000006,105.53461538461538C408.4166666666667,105.53092948717949,410.8333333333333,105.5272435897436,413.24999999999994,105.5235576923077C415.66666666666663,105.5198717948718,418.08333333333326,105.5161858974359,420.49999999999994,105.5125C422.91666666666663,105.5088141025641,425.3333333333333,105.50512820512822,427.75,105.50144230769232C430.1666666666667,105.49775641025641,432.5833333333333,105.49407051282051,435,105.49038461538461C437.4166666666667,105.48669871794871,439.8333333333333,105.48301282051283,442.25,105.47932692307693C444.6666666666667,105.47564102564102,447.0833333333333,105.47195512820512,449.5,105.46826923076922C451.9166666666667,105.46458333333332,454.3333333333333,105.46089743589744,456.75,105.45721153846154C459.1666666666667,105.45352564102564,461.5833333333333,105.44983974358975,464,105.44615384615385C466.4166666666667,105.44246794871795,468.8333333333333,105.43878205128205,471.25,105.43509615384615C473.6666666666667,105.43141025641025,476.0833333333333,105.42772435897436,478.5,105.42403846153846C480.9166666666667,105.42035256410256,483.33333333333337,105.41666666666667,485.75000000000006,105.41298076923077C488.16666666666674,105.40929487179487,490.58333333333337,105.40560897435897,493.00000000000006,105.40192307692307C495.4166666666667,105.39823717948717,497.8333333333333,105.39455128205128,500.24999999999994,105.39086538461538C502.66666666666663,105.38717948717948,505.08333333333326,105.3834935897436,507.49999999999994,105.3798076923077C509.91666666666663,105.37612179487179,512.3333333333333,105.3724358974359,514.75,105.36875C517.1666666666666,105.3650641025641,519.5833333333334,105.3613782051282,522,105.3576923076923C524.4166666666666,105.3540064102564,526.8333333333334,105.35032051282052,529.25,105.34663461538462C531.6666666666666,105.34294871794872,534.0833333333334,105.33926282051283,536.5,105.33557692307693C538.9166666666666,105.33189102564103,541.3333333333334,105.32820512820513,543.75,105.32451923076923C546.1666666666666,105.32083333333333,548.5833333333334,105.31714743589744,551,105.31346153846154C553.4166666666666,105.30977564102564,555.8333333333334,105.30608974358975,558.25,105.30240384615385C560.6666666666666,105.29871794871795,563.0833333333334,105.29503205128205,565.5,105.29134615384615C567.9166666666666,105.28766025641025,570.3333333333334,105.28397435897436,572.75,105.28028846153846C575.1666666666666,105.27660256410256,577.5833333333334,105.27291666666666,580,105.26923076923076C582.4166666666666,105.26554487179486,584.8333333333334,105.26185897435897,587.25,105.25817307692307C589.6666666666666,105.25448717948717,592.0833333333334,105.25080128205128,594.5,105.24711538461538C596.9166666666666,105.24342948717948,599.3333333333334,105.2397435897436,601.75,105.2360576923077C604.1666666666666,105.2323717948718,606.5833333333334,105.22868589743591,609,105.22500000000001C611.4166666666666,105.22131410256411,613.8333333333334,105.21762820512821,616.25,105.2139423076923C618.6666666666666,105.2102564102564,621.0833333333334,105.20657051282052,623.5,105.20288461538462C625.9166666666666,105.19919871794872,628.3333333333334,105.19551282051283,630.75,105.19182692307693C633.1666666666666,105.18814102564103,635.5833333333334,105.18445512820513,638,105.18076923076923C640.4166666666666,105.17708333333333,642.8333333333334,105.17339743589744,645.25,105.16971153846154C647.6666666666666,105.16602564102564,650.0833333333334,105.16233974358974,652.5,105.15865384615384C654.9166666666666,105.15496794871794,657.3333333333334,105.15128205128205,659.75,105.14759615384615C662.1666666666666,105.14391025641025,664.5833333333334,105.14022435897435,667,105.13653846153845C669.4166666666666,105.13285256410255,671.8333333333334,105.12916666666666,674.25,105.12548076923076C676.6666666666666,105.12179487179486,679.0833333333334,105.11810897435898,681.5,105.11442307692307C683.9166666666666,105.11073717948717,686.3333333333334,105.10705128205129,688.75,105.10336538461539C691.1666666666666,105.09967948717949,693.5833333333334,105.0959935897436,696,105.0923076923077C698.4166666666666,105.0886217948718,700.8333333333334,105.0849358974359,703.25,105.08125C705.6666666666666,105.0775641025641,708.0833333333334,105.07387820512821,710.5,105.07019230769231C712.9166666666666,105.06650641025641,715.3333333333334,105.06282051282052,717.75,105.05913461538462C720.1666666666666,105.05544871794872,722.5833333333334,105.05176282051282,725,105.04807692307692C727.4166666666666,105.04439102564102,729.8333333333334,105.04070512820513,732.25,105.03701923076923C734.6666666666666,105.03333333333333,737.0833333333334,105.02964743589743,739.5,105.02596153846153C741.9166666666666,105.02227564102563,744.3333333333334,105.01858974358974,746.75,105.01490384615384C749.1666666666666,105.01121794871794,751.5833333333334,105.00753205128206,754,105.00384615384615C756.4166666666666,105.00016025641025,758.8333333333334,104.99647435897435,761.25,104.99278846153845C763.6666666666666,104.98910256410255,766.0833333333334,104.98541666666667,768.5,104.98173076923077C770.9166666666666,104.97804487179486,773.3333333333334,104.97435897435898,775.75,104.97067307692308C778.1666666666666,104.96698717948718,780.5833333333334,104.96330128205129,783,104.95961538461539C785.4166666666667,104.95592948717949,787.8333333333334,104.95224358974359,790.2500000000001,104.94855769230769C792.6666666666667,104.94487179487179,795.0833333333335,104.9411858974359,797.5000000000001,104.9375C799.9166666666667,104.9338141025641,802.3333333333335,104.93012820512821,804.7500000000001,104.92644230769231C807.1666666666667,104.92275641025641,809.5833333333335,104.91907051282051,812.0000000000001,104.91538461538461C814.4166666666667,104.91169871794871,816.8333333333333,104.90801282051282,819.2499999999999,104.90432692307692C821.6666666666665,104.90064102564102,824.0833333333333,104.89695512820514,826.4999999999999,104.89326923076923C828.9166666666665,104.88958333333333,831.3333333333333,104.88589743589743,833.7499999999999,104.88221153846153C836.1666666666665,104.87852564102563,838.5833333333333,104.87483974358975,840.9999999999999,104.87115384615385C843.4166666666666,104.86746794871794,845.8333333333333,104.86378205128204,848.25,104.86009615384614C850.6666666666666,104.85641025641024,853.0833333333334,104.85272435897436,855.5,104.84903846153846C857.9166666666666,104.84535256410255,860.3333333333334,104.84166666666667,862.75,104.83798076923077C865.1666666666666,104.83429487179487,867.5833333333334,104.83060897435898,870,104.82692307692308C872.4166666666666,104.82323717948718,874.8333333333334,104.8195512820513,877.25,104.81586538461539C879.6666666666666,104.81217948717949,882.0833333333334,104.80849358974359,884.5,104.80480769230769C886.9166666666666,104.80112179487179,889.3333333333334,104.7974358974359,891.75,104.79375C894.1666666666666,104.7900641025641,896.5833333333334,104.78637820512822,899,104.78269230769232C901.4166666666666,104.77900641025641,903.8333333333334,104.77532051282051,906.25,104.77163461538461C908.6666666666666,104.76794871794871,911.0833333333334,104.76426282051283,913.5,104.76057692307693C915.9166666666666,104.75689102564102,918.3333333333334,104.75320512820512,920.75,104.74951923076922C923.1666666666666,104.74583333333332,925.5833333333334,104.74214743589744,928,104.73846153846154C930.4166666666666,104.73477564102564,932.8333333333334,104.73108974358973,935.25,104.72740384615383C937.6666666666666,104.72371794871793,940.0833333333334,104.72003205128205,942.5,104.71634615384615C944.9166666666666,104.71266025641025,947.3333333333334,104.70897435897436,949.75,104.70528846153846C952.1666666666666,104.70160256410256,954.5833333333334,104.69791666666667,957,104.69423076923077C959.4166666666666,104.69054487179487,961.8333333333334,104.68685897435898,964.25,104.68317307692308C966.6666666666667,104.67948717948718,969.0833333333334,104.6758012820513,971.5000000000001,104.6721153846154C973.9166666666667,104.6684294871795,976.3333333333335,104.6647435897436,978.7500000000001,104.6610576923077C981.1666666666667,104.65737179487179,983.5833333333335,104.6536858974359,986.0000000000001,104.65C988.4166666666667,104.6463141025641,990.8333333333335,104.6426282051282,993.2500000000001,104.6389423076923C995.6666666666667,104.6352564102564,998.0833333333333,104.63157051282052,1000.4999999999999,104.62788461538462C1002.9166666666665,104.62419871794872,1005.3333333333333,104.62051282051283,1007.7499999999999,104.61682692307693C1010.1666666666665,104.61314102564103,1012.5833333333333,104.60945512820513,1014.9999999999999,104.60576923076923C1017.4166666666665,104.60208333333333,1019.8333333333333,104.59839743589744,1022.2499999999999,104.59471153846154C1024.6666666666665,104.59102564102564,1027.0833333333333,104.58733974358974,1029.5,104.58365384615384C1031.9166666666667,104.57996794871794,1034.3333333333333,104.57628205128205,1036.75,104.57259615384615C1039.1666666666667,104.56891025641025,1041.5833333333333,104.56522435897436,1044,104.56153846153846C1046.4166666666667,104.55785256410256,1048.8333333333333,104.55416666666667,1051.25,104.55048076923077C1053.6666666666667,104.54679487179487,1056.0833333333333,104.54310897435899,1058.5,104.53942307692309C1060.9166666666667,104.53573717948719,1063.3333333333333,104.53205128205128,1065.75,104.52836538461538C1068.1666666666667,104.52467948717948,1070.5833333333333,104.5209935897436,1073,104.5173076923077C1075.4166666666667,104.5136217948718,1077.8333333333333,104.5099358974359,1080.25,104.50625C1082.6666666666667,104.5025641025641,1085.0833333333333,104.49887820512821,1087.5,104.4951923076923C1089.9166666666667,104.4915064102564,1092.3333333333333,104.48782051282052,1094.75,104.48413461538462C1097.1666666666667,104.48044871794872,1099.5833333333333,104.47676282051282,1102,104.47307692307692C1104.4166666666667,104.46939102564102,1106.8333333333333,104.46570512820513,1109.25,104.46201923076923C1111.6666666666667,104.45833333333333,1114.0833333333333,104.45464743589744,1116.5,104.45096153846154C1118.9166666666667,104.44727564102564,1121.3333333333333,104.44358974358974,1123.75,104.43990384615384C1126.1666666666667,104.43621794871794,1128.5833333333333,104.43253205128205,1131,104.42884615384615C1133.4166666666667,104.42516025641025,1135.8333333333333,104.42147435897436,1138.25,104.41778846153846C1140.6666666666667,104.41410256410256,1143.0833333333333,104.41041666666668,1145.5,104.40673076923078C1147.9166666666667,104.40304487179488,1150.3333333333333,104.39935897435898,1152.75,104.39567307692307C1155.1666666666667,104.39198717948717,1157.5833333333333,104.39198717948717,1160,104.38461538461539C1162.4166666666667,104.3772435897436,1164.8333333333333,102.91025641025641,1167.25,102.17307692307692C1169.6666666666667,101.43589743589743,1172.0833333333333,100.69871794871796,1174.5,99.96153846153847C1176.9166666666667,99.22435897435898,1179.3333333333333,98.48717948717949,1181.75,97.75C1184.1666666666667,97.01282051282051,1186.5833333333333,96.27564102564102,1189,95.53846153846153C1191.4166666666667,94.80128205128204,1193.8333333333333,94.06410256410257,1196.25,93.32692307692308C1198.6666666666667,92.58974358974359,1201.0833333333333,91.8525641025641,1203.5,91.11538461538461C1205.9166666666667,90.37820512820512,1208.3333333333333,89.64102564102565,1210.75,88.90384615384616C1213.1666666666667,88.16666666666667,1215.5833333333333,87.42948717948718,1218,86.6923076923077C1220.4166666666667,85.9551282051282,1222.8333333333333,85.21794871794873,1225.25,84.48076923076924C1227.6666666666667,83.74358974358975,1230.0833333333333,83.00641025641026,1232.5,82.26923076923077C1234.9166666666667,81.53205128205128,1237.3333333333333,80.7948717948718,1239.75,80.0576923076923C1242.1666666666667,79.32051282051282,1244.5833333333333,78.58333333333334,1247,77.84615384615385C1249.4166666666667,77.10897435897436,1251.8333333333333,76.37179487179488,1254.25,75.63461538461539C1256.6666666666667,74.8974358974359,1259.0833333333333,74.16025641025641,1261.5,73.42307692307692C1263.9166666666667,72.68589743589743,1266.3333333333333,71.94871794871796,1268.75,71.21153846153847C1271.1666666666667,70.47435897435898,1273.5833333333333,69.73717948717949,1276,69C1278.4166666666667,68.26282051282051,1280.8333333333333,67.52564102564102,1283.25,66.78846153846153C1285.6666666666667,66.05128205128204,1288.0833333333333,65.31410256410257,1290.5,64.57692307692308C1292.9166666666667,63.83974358974359,1295.3333333333333,63.10256410256411,1297.75,62.36538461538462C1300.1666666666667,61.62820512820513,1302.5833333333333,60.891025641025635,1305,60.153846153846146C1307.4166666666667,59.41666666666666,1309.8333333333333,58.679487179487175,1312.25,57.94230769230769C1314.6666666666667,57.20512820512821,1317.0833333333333,56.46794871794873,1319.5,55.73076923076924C1321.9166666666667,54.99358974358975,1324.3333333333333,54.25641025641026,1326.75,53.519230769230774C1329.1666666666667,52.782051282051285,1331.5833333333333,52.044871794871796,1334,51.30769230769231C1336.4166666666667,50.57051282051282,1338.8333333333333,49.83333333333334,1341.25,49.096153846153854C1343.6666666666667,48.358974358974365,1346.0833333333333,47.621794871794876,1348.5,46.88461538461539C1350.9166666666667,46.1474358974359,1353.3333333333333,45.41025641025641,1355.75,44.67307692307692C1358.1666666666667,43.93589743589743,1360.5833333333333,43.198717948717956,1363,42.46153846153847C1365.4166666666667,41.72435897435898,1367.8333333333333,40.98717948717949,1370.25,40.25C1372.6666666666667,39.51282051282051,1375.0833333333333,38.775641025641036,1377.5,38.03846153846155C1379.9166666666667,37.30128205128206,1382.3333333333333,36.56410256410257,1384.75,35.82692307692308C1387.1666666666667,35.08974358974359,1389.5833333333333,34.3525641025641,1392,33.61538461538461C1394.4166666666667,32.878205128205124,1396.8333333333333,32.14102564102564,1399.25,31.403846153846157C1401.6666666666667,30.66666666666667,1404.0833333333333,29.929487179487175,1406.5,29.19230769230769C1408.9166666666667,28.455128205128204,1411.3333333333333,27.717948717948723,1413.75,26.980769230769237C1416.1666666666667,26.24358974358975,1418.5833333333333,25.50641025641026,1421,24.76923076923077C1423.4166666666667,24.03205128205128,1425.8333333333333,23.29487179487179,1428.25,22.557692307692303C1430.6666666666667,21.820512820512818,1433.0833333333333,21.083333333333336,1435.5,20.34615384615385C1437.9166666666667,19.608974358974365,1440.3333333333333,18.871794871794872,1442.75,18.134615384615383C1445.1666666666667,17.397435897435894,1447.5833333333333,16.660256410256398,1450,15.923076923076906" fill="transparent" stroke-linecap="round" stroke="#E7C6DF" stroke-width="2"></path><g class="visx-group visx-axis visx-axis-bottom" transform="translate(0, 115)"><g class="visx-group visx-axis-tick" transform="translate(0, 0)"><line class="visx-line" x1="0" y1="0" x2="0" y2="8" fill="transparent" shape-rendering="crispEdges" stroke="#000" stroke-width="0" stroke-linecap="square"></line><svg x="0" y="0" font-size="10" style="overflow:visible"><text transform="" x="0" y="18" fill="#000" font-size="10" text-anchor="middle"><tspan x="0" dy="0em">0%</tspan></text></svg></g><g class="visx-group visx-axis-tick" transform="translate(0, 0)"><line class="visx-line" x1="362.5" y1="0" x2="362.5" y2="8" fill="transparent" shape-rendering="crispEdges" stroke="#000" stroke-width="0" stroke-linecap="square"></line><svg x="0" y="0" font-size="10" style="overflow:visible"><text transform="" x="362.5" y="18" fill="#000" font-size="10" text-anchor="middle"><tspan x="362.5" dy="0em">25%</tspan></text></svg></g><g class="visx-group visx-axis-tick" transform="translate(0, 0)"><line class="visx-line" x1="725" y1="0" x2="725" y2="8" fill="transparent" shape-rendering="crispEdges" stroke="#000" stroke-width="0" stroke-linecap="square"></line><svg x="0" y="0" font-size="10" style="overflow:visible"><text transform="" x="725" y="18" fill="#000" font-size="10" text-anchor="middle"><tspan x="725" dy="0em">50%</tspan></text></svg></g><g class="visx-group visx-axis-tick" transform="translate(0, 0)"><line class="visx-line" x1="1087.5" y1="0" x2="1087.5" y2="8" fill="transparent" shape-rendering="crispEdges" stroke="#000" stroke-width="0" stroke-linecap="square"></line><svg x="0" y="0" font-size="10" style="overflow:visible"><text transform="" x="1087.5" y="18" fill="#000" font-size="10" text-anchor="middle"><tspan x="1087.5" dy="0em">75%</tspan></text></svg></g><g class="visx-group visx-axis-tick" transform="translate(0, 0)"><line class="visx-line" x1="1450" y1="0" x2="1450" y2="8" fill="transparent" shape-rendering="crispEdges" stroke="#000" stroke-width="0" stroke-linecap="square"></line><svg x="0" y="0" font-size="10" style="overflow:visible"><text transform="" x="1450" y="18" fill="#000" font-size="10" text-anchor="middle"><tspan x="1450" dy="0em">100%</tspan></text></svg></g><line class="visx-line visx-axis-line" x1="0.5" y1="0" x2="1450.5" y2="0" fill="transparent" shape-rendering="crispEdges" stroke="#222" stroke-width="0"></line></g><g class="visx-group visx-axis visx-axis-left" transform="translate(0, 0)"><g class="visx-group visx-axis-tick" transform="translate(0, 0)"><line class="visx-line" x1="0" y1="115" x2="-8" y2="115" fill="transparent" shape-rendering="crispEdges" stroke="#222" stroke-width="0" stroke-linecap="square"></line><svg x="-30" y="0" font-size="8" style="overflow:visible"><text transform="" x="-8" y="115" fill="#000" font-size="8" text-anchor="start"><tspan x="-8" dy="0em">0%</tspan></text></svg></g><g class="visx-group visx-axis-tick" transform="translate(0, 0)"><line class="visx-line" x1="0" y1="70.76923076923077" x2="-8" y2="70.76923076923077" fill="transparent" shape-rendering="crispEdges" stroke="#222" stroke-width="0" stroke-linecap="square"></line><svg x="-30" y="0" font-size="8" style="overflow:visible"><text transform="" x="-8" y="70.76923076923077" fill="#000" font-size="8" text-anchor="start"><tspan x="-8" dy="0em">50%</tspan></text></svg></g><g class="visx-group visx-axis-tick" transform="translate(0, 0)"><line class="visx-line" x1="0" y1="26.538461538461533" x2="-8" y2="26.538461538461533" fill="transparent" shape-rendering="crispEdges" stroke="#222" stroke-width="0" stroke-linecap="square"></line><svg x="-30" y="0" font-size="8" style="overflow:visible"><text transform="" x="-8" y="26.538461538461533" fill="#000" font-size="8" text-anchor="start"><tspan x="-8" dy="0em">100%</tspan></text></svg></g><line class="visx-line visx-axis-line" x1="0" y1="115.5" x2="0" y2="0.5" fill="transparent" shape-rendering="crispEdges" stroke="#222" stroke-width="0"></line></g><rect class="visx-bar" width="1450" height="115" fill="transparent"></rect><line class="visx-line" x1="1160" y1="28" x2="1160" y2="115" fill="transparent" shape-rendering="crispEdges" stroke="#0062D2" stroke-width="1" pointer-events="none" stroke-dasharray="5,2"></line><svg x="0" y="0" font-size="10px" style="overflow:visible"><text transform="" x="1160" y="20" font-size="10px" fill="#fff" stroke="#fff" stroke-width="0.8em" text-anchor="middle"><tspan x="1160" dy="0.355em">Optimal 80%</tspan></text></svg><svg x="0" y="0" font-size="10px" style="overflow:visible"><text transform="" x="1160" y="20" font-size="10px" fill="#62677B" text-anchor="middle"><tspan x="1160" dy="0.355em">Optimal 80%</tspan></text></svg></g></svg>