<?xml version="1.0"?><svg xmlns="http://www.w3.org/2000/svg" xmlns:xlink= "http://www.w3.org/1999/xlink" style="background: white;" width="1500" height="185"> <g style="color: black; font-size: 13px; font-family: sans-serif; transform: translate(18px, 25px);"><g><circle r="3" cx="-6" cy="-5" style="fill: #B6509E" /><text>Borrow APR, variable</text></g><g style="transform: translateX(150px);"><circle r="3" cx="-6" cy="-5" style="fill: rgb(231, 198, 223)" /><text>Borrow APR, stable</text></g><g style="transform: translateX(290px);"><circle r="3" cx="-6" cy="-5" style="fill: rgb(0, 98, 210)" /><text>Utilization Rate</text></g></g><g class="visx-group" transform="translate(40, 50)"><g class="visx-group visx-rows" transform="translate(0, 0)"><line class="visx-line" x1="0" y1="115" x2="1450" y2="115" fill="transparent" shape-rendering="crispEdges" stroke="#000" stroke-width="1" stroke-dasharray="3,3" pointer-events="none"></line><line class="visx-line" x1="0" y1="57.5" x2="1450" y2="57.5" fill="transparent" shape-rendering="crispEdges" stroke="#000" stroke-width="1" stroke-dasharray="3,3" pointer-events="none"></line><line class="visx-line" x1="0" y1="0" x2="1450" y2="0" fill="transparent" shape-rendering="crispEdges" stroke="#000" stroke-width="1" stroke-dasharray="3,3" pointer-events="none"></line></g><path class="visx-linepath" d="M0,114.99999999991056C2.4166666666666665,114.98509259254043,4.833333333333334,114.97018518517028,7.25,114.95527777777778C9.666666666666666,114.94037037038528,12.083333333333334,114.92546296296297,14.5,114.91055555555556C16.916666666666668,114.89564814814815,19.333333333333332,114.88074074074075,21.75,114.86583333333334C24.166666666666668,114.85092592592594,26.583333333333332,114.83601851851851,29,114.82111111111111C31.416666666666668,114.8062037037037,33.833333333333336,114.7912962962963,36.25,114.77638888888889C38.666666666666664,114.76148148148148,41.083333333333336,114.74657407407408,43.5,114.73166666666667C45.91666666666667,114.71675925925926,48.333333333333336,114.70185185185186,50.75000000000001,114.68694444444445C53.16666666666667,114.67203703703704,55.583333333333336,114.65712962962964,58,114.64222222222223C60.416666666666664,114.62731481481482,62.833333333333336,114.61240740740742,65.25,114.59750000000001C67.66666666666667,114.5825925925926,70.08333333333333,114.56768518518518,72.5,114.55277777777778C74.91666666666667,114.53787037037037,77.33333333333333,114.52296296296295,79.75,114.50805555555554C82.16666666666667,114.49314814814814,84.58333333333333,114.47824074074073,87,114.46333333333332C89.41666666666667,114.44842592592592,91.83333333333333,114.43351851851851,94.25,114.4186111111111C96.66666666666667,114.4037037037037,99.08333333333334,114.38879629629629,101.50000000000001,114.37388888888889C103.91666666666667,114.35898148148148,106.33333333333334,114.34407407407407,108.75,114.32916666666667C111.16666666666667,114.31425925925926,113.58333333333333,114.29935185185185,116,114.28444444444445C118.41666666666667,114.26953703703704,120.83333333333334,114.25462962962963,123.25000000000001,114.23972222222223C125.66666666666667,114.22481481481482,128.08333333333334,114.2099074074074,130.5,114.195C132.91666666666666,114.18009259259259,135.33333333333334,114.16518518518518,137.75,114.15027777777777C140.16666666666666,114.13537037037037,142.58333333333334,114.12046296296296,145,114.10555555555555C147.41666666666666,114.09064814814815,149.83333333333334,114.07574074074074,152.25,114.06083333333333C154.66666666666666,114.04592592592593,157.08333333333334,114.03101851851852,159.5,114.01611111111112C161.91666666666666,114.00120370370371,164.33333333333334,113.9862962962963,166.75,113.9713888888889C169.16666666666666,113.95648148148149,171.58333333333334,113.94157407407408,174,113.92666666666668C176.41666666666666,113.91175925925927,178.83333333333334,113.89685185185185,181.25,113.88194444444444C183.66666666666666,113.86703703703704,186.08333333333334,113.85212962962963,188.5,113.83722222222222C190.91666666666666,113.82231481481482,193.33333333333334,113.80740740740741,195.75,113.7925C198.16666666666669,113.7775925925926,200.58333333333334,113.76268518518519,203.00000000000003,113.74777777777778C205.41666666666669,113.73287037037038,207.83333333333331,113.71796296296296,210.24999999999997,113.70305555555555C212.66666666666666,113.68814814814814,215.08333333333331,113.67324074074074,217.5,113.65833333333333C219.91666666666666,113.64342592592592,222.33333333333334,113.62851851851852,224.75,113.61361111111111C227.16666666666666,113.5987037037037,229.58333333333334,113.58379629629628,232,113.56888888888888C234.41666666666666,113.55398148148147,236.83333333333334,113.53907407407407,239.25,113.52416666666666C241.66666666666669,113.50925925925925,244.08333333333334,113.49435185185185,246.50000000000003,113.47944444444444C248.91666666666669,113.46453703703703,251.33333333333331,113.44962962962963,253.74999999999997,113.43472222222222C256.16666666666663,113.41981481481481,258.5833333333333,113.4049074074074,261,113.39C263.4166666666667,113.3750925925926,265.8333333333333,113.36018518518519,268.25,113.34527777777778C270.6666666666667,113.33037037037037,273.0833333333333,113.31546296296297,275.5,113.30055555555556C277.9166666666667,113.28564814814816,280.3333333333333,113.27074074074073,282.75,113.25583333333333C285.1666666666667,113.24092592592592,287.5833333333333,113.22601851851852,290,113.21111111111111C292.4166666666667,113.1962037037037,294.8333333333333,113.1812962962963,297.25,113.16638888888889C299.6666666666667,113.15148148148148,302.0833333333333,113.13657407407408,304.5,113.12166666666667C306.9166666666667,113.10675925925926,309.3333333333333,113.09185185185186,311.75,113.07694444444445C314.1666666666667,113.06203703703704,316.5833333333333,113.04712962962964,319,113.03222222222223C321.4166666666667,113.01731481481482,323.8333333333333,113.00240740740742,326.25,112.98750000000001C328.6666666666667,112.9725925925926,331.0833333333333,112.95768518518518,333.5,112.94277777777778C335.9166666666667,112.92787037037037,338.3333333333333,112.91296296296296,340.75,112.89805555555556C343.1666666666667,112.88314814814815,345.5833333333333,112.86824074074073,348,112.85333333333332C350.4166666666667,112.83842592592592,352.8333333333333,112.82351851851851,355.25,112.8086111111111C357.6666666666667,112.7937037037037,360.0833333333333,112.77879629629629,362.5,112.76388888888889C364.9166666666667,112.74898148148148,367.3333333333333,112.73407407407407,369.75,112.71916666666667C372.1666666666667,112.70425925925926,374.5833333333333,112.68935185185185,377,112.67444444444445C379.4166666666667,112.65953703703704,381.8333333333333,112.64462962962962,384.25,112.62972222222221C386.6666666666667,112.6148148148148,389.0833333333333,112.5999074074074,391.5,112.585C393.9166666666667,112.57009259259259,396.33333333333337,112.55518518518518,398.75000000000006,112.54027777777777C401.16666666666674,112.52537037037037,403.58333333333337,112.51046296296296,406.00000000000006,112.49555555555555C408.4166666666667,112.48064814814815,410.8333333333333,112.46574074074074,413.24999999999994,112.45083333333334C415.66666666666663,112.43592592592593,418.08333333333326,112.42101851851852,420.49999999999994,112.40611111111112C422.91666666666663,112.39120370370371,425.3333333333333,112.3762962962963,427.75,112.3613888888889C430.1666666666667,112.34648148148149,432.5833333333333,112.33157407407407,435,112.31666666666666C437.4166666666667,112.30175925925926,439.8333333333333,112.28685185185185,442.25,112.27194444444444C444.6666666666667,112.25703703703704,447.0833333333333,112.24212962962963,449.5,112.22722222222222C451.9166666666667,112.21231481481482,454.3333333333333,112.19740740740741,456.75,112.1825C459.1666666666667,112.1675925925926,461.5833333333333,112.15268518518519,464,112.13777777777779C466.4166666666667,112.12287037037038,468.8333333333333,112.10796296296297,471.25,112.09305555555557C473.6666666666667,112.07814814814816,476.0833333333333,112.06324074074075,478.5,112.04833333333335C480.9166666666667,112.03342592592594,483.33333333333337,112.01851851851852,485.75000000000006,112.00361111111111C488.16666666666674,111.9887037037037,490.58333333333337,111.97379629629629,493.00000000000006,111.95888888888888C495.4166666666667,111.94398148148147,497.8333333333333,111.92907407407407,500.24999999999994,111.91416666666666C502.66666666666663,111.89925925925925,505.08333333333326,111.88435185185185,507.49999999999994,111.86944444444444C509.91666666666663,111.85453703703703,512.3333333333333,111.83962962962963,514.75,111.82472222222222C517.1666666666666,111.80981481481481,519.5833333333334,111.79490740740741,522,111.78C524.4166666666666,111.7650925925926,526.8333333333334,111.75018518518519,529.25,111.73527777777778C531.6666666666666,111.72037037037038,534.0833333333334,111.70546296296295,536.5,111.69055555555555C538.9166666666666,111.67564814814814,541.3333333333334,111.66074074074074,543.75,111.64583333333333C546.1666666666666,111.63092592592592,548.5833333333334,111.61601851851852,551,111.60111111111111C553.4166666666666,111.5862037037037,555.8333333333334,111.5712962962963,558.25,111.55638888888889C560.6666666666666,111.54148148148148,563.0833333333334,111.52657407407408,565.5,111.51166666666667C567.9166666666666,111.49675925925926,570.3333333333334,111.48185185185186,572.75,111.46694444444445C575.1666666666666,111.45203703703704,577.5833333333334,111.43712962962964,580,111.42222222222223C582.4166666666666,111.40731481481482,584.8333333333334,111.3924074074074,587.25,111.3775C589.6666666666666,111.36259259259259,592.0833333333334,111.34768518518518,594.5,111.33277777777778C596.9166666666666,111.31787037037037,599.3333333333334,111.30296296296297,601.75,111.28805555555556C604.1666666666666,111.27314814814815,606.5833333333334,111.25824074074075,609,111.24333333333334C611.4166666666666,111.22842592592593,613.8333333333334,111.21351851851853,616.25,111.19861111111112C618.6666666666666,111.18370370370371,621.0833333333334,111.1687962962963,623.5,111.1538888888889C625.9166666666666,111.1389814814815,628.3333333333334,111.12407407407407,630.75,111.10916666666667C633.1666666666666,111.09425925925926,635.5833333333334,111.07935185185184,638,111.06444444444443C640.4166666666666,111.04953703703703,642.8333333333334,111.03462962962962,645.25,111.01972222222221C647.6666666666666,111.00481481481481,650.0833333333334,110.9899074074074,652.5,110.975C654.9166666666666,110.96009259259259,657.3333333333334,110.94518518518518,659.75,110.93027777777777C662.1666666666666,110.91537037037037,664.5833333333334,110.90046296296296,667,110.88555555555556C669.4166666666666,110.87064814814815,671.8333333333334,110.85574074074074,674.25,110.84083333333334C676.6666666666666,110.82592592592593,679.0833333333334,110.81101851851852,681.5,110.79611111111112C683.9166666666666,110.78120370370371,686.3333333333334,110.76629629629629,688.75,110.75138888888888C691.1666666666666,110.73648148148148,693.5833333333334,110.72157407407407,696,110.70666666666666C698.4166666666666,110.69175925925926,700.8333333333334,110.67685185185185,703.25,110.66194444444444C705.6666666666666,110.64703703703704,708.0833333333334,110.63212962962963,710.5,110.61722222222222C712.9166666666666,110.60231481481482,715.3333333333334,110.58740740740741,717.75,110.5725C720.1666666666666,110.5575925925926,722.5833333333334,110.54268518518519,725,110.52777777777779C727.4166666666666,110.51287037037038,729.8333333333334,110.49796296296297,732.25,110.48305555555557C734.6666666666666,110.46814814814816,737.0833333333334,110.45324074074074,739.5,110.43833333333333C741.9166666666666,110.42342592592593,744.3333333333334,110.40851851851852,746.75,110.39361111111111C749.1666666666666,110.3787037037037,751.5833333333334,110.3637962962963,754,110.3488888888889C756.4166666666666,110.33398148148149,758.8333333333334,110.31907407407408,761.25,110.30416666666667C763.6666666666666,110.28925925925927,766.0833333333334,110.27435185185185,768.5,110.25944444444444C770.9166666666666,110.24453703703703,773.3333333333334,110.22962962962963,775.75,110.21472222222222C778.1666666666666,110.19981481481481,780.5833333333334,110.18490740740741,783,110.17C785.4166666666667,110.1550925925926,787.8333333333334,110.14018518518517,790.2500000000001,110.12527777777777C792.6666666666667,110.11037037037036,795.0833333333335,110.09546296296296,797.5000000000001,110.08055555555555C799.9166666666667,110.06564814814814,802.3333333333335,110.05074074074074,804.7500000000001,110.03583333333333C807.1666666666667,110.02092592592592,809.5833333333335,110.00601851851852,812.0000000000001,109.99111111111111C814.4166666666667,109.9762037037037,816.8333333333333,109.9612962962963,819.2499999999999,109.94638888888889C821.6666666666665,109.93148148148148,824.0833333333333,109.91657407407408,826.4999999999999,109.90166666666667C828.9166666666665,109.88675925925926,831.3333333333333,109.87185185185186,833.7499999999999,109.85694444444445C836.1666666666665,109.84203703703704,838.5833333333333,109.82712962962962,840.9999999999999,109.81222222222222C843.4166666666666,109.79731481481481,845.8333333333333,109.7824074074074,848.25,109.7675C850.6666666666666,109.75259259259259,853.0833333333334,109.73768518518519,855.5,109.72277777777778C857.9166666666666,109.70787037037037,860.3333333333334,109.69296296296297,862.75,109.67805555555556C865.1666666666666,109.66314814814815,867.5833333333334,109.64824074074075,870,109.63333333333334C872.4166666666666,109.61842592592593,874.8333333333334,109.60351851851853,877.25,109.58861111111112C879.6666666666666,109.57370370370371,882.0833333333334,109.5587962962963,884.5,109.54388888888889C886.9166666666666,109.52898148148148,889.3333333333334,109.51407407407407,891.75,109.49916666666667C894.1666666666666,109.48425925925926,896.5833333333334,109.46935185185185,899,109.45444444444445C901.4166666666666,109.43953703703704,903.8333333333334,109.42462962962962,906.25,109.40972222222221C908.6666666666666,109.39481481481481,911.0833333333334,109.3799074074074,913.5,109.365C915.9166666666666,109.35009259259259,918.3333333333334,109.33518518518518,920.75,109.32027777777778C923.1666666666666,109.30537037037037,925.5833333333334,109.29046296296296,928,109.27555555555556C930.4166666666666,109.26064814814815,932.8333333333334,109.24574074074074,935.25,109.23083333333334C937.6666666666666,109.21592592592593,940.0833333333334,109.20101851851851,942.5,109.1861111111111C944.9166666666666,109.1712037037037,947.3333333333334,109.15629629629629,949.75,109.14138888888888C952.1666666666666,109.12648148148148,954.5833333333334,109.11157407407407,957,109.09666666666666C959.4166666666666,109.08175925925926,961.8333333333334,109.06685185185185,964.25,109.05194444444444C966.6666666666667,109.03703703703704,969.0833333333334,109.02212962962963,971.5000000000001,109.00722222222223C973.9166666666667,108.99231481481482,976.3333333333335,108.97740740740741,978.7500000000001,108.9625C981.1666666666667,108.9475925925926,983.5833333333335,108.93268518518519,986.0000000000001,108.91777777777779C988.4166666666667,108.90287037037038,990.8333333333335,108.88796296296296,993.2500000000001,108.87305555555555C995.6666666666667,108.85814814814815,998.0833333333333,108.84324074074074,1000.4999999999999,108.82833333333333C1002.9166666666665,108.81342592592593,1005.3333333333333,108.79851851851852,1007.7499999999999,108.78361111111111C1010.1666666666665,108.76870370370371,1012.5833333333333,108.7537962962963,1014.9999999999999,108.7388888888889C1017.4166666666665,108.72398148148149,1019.8333333333333,108.70907407407408,1022.2499999999999,108.69416666666667C1024.6666666666665,108.67925925925927,1027.0833333333333,108.66435185185186,1029.5,108.64944444444446C1031.9166666666667,108.63453703703705,1034.3333333333333,108.61962962962963,1036.75,108.60472222222222C1039.1666666666667,108.58981481481482,1041.5833333333333,108.5749074074074,1044,108.55999999999999C1046.4166666666667,108.54509259259258,1048.8333333333333,108.53018518518518,1051.25,108.51527777777777C1053.6666666666667,108.50037037037036,1056.0833333333333,108.48546296296296,1058.5,108.47055555555555C1060.9166666666667,108.45564814814814,1063.3333333333333,108.44074074074074,1065.75,108.42583333333333C1068.1666666666667,108.41092592592592,1070.5833333333333,108.39601851851852,1073,108.38111111111111C1075.4166666666667,108.3662037037037,1077.8333333333333,108.3512962962963,1080.25,108.33638888888889C1082.6666666666667,108.32148148148148,1085.0833333333333,108.30657407407408,1087.5,108.29166666666667C1089.9166666666667,108.27675925925926,1092.3333333333333,108.26185185185184,1094.75,108.24694444444444C1097.1666666666667,108.23203703703703,1099.5833333333333,108.21712962962962,1102,108.20222222222222C1104.4166666666667,108.18731481481481,1106.8333333333333,108.1724074074074,1109.25,108.1575C1111.6666666666667,108.14259259259259,1114.0833333333333,108.12768518518519,1116.5,108.11277777777778C1118.9166666666667,108.09787037037037,1121.3333333333333,108.08296296296297,1123.75,108.06805555555556C1126.1666666666667,108.05314814814815,1128.5833333333333,108.03824074074075,1131,108.02333333333334C1133.4166666666667,108.00842592592593,1135.8333333333333,107.99351851851853,1138.25,107.97861111111112C1140.6666666666667,107.96370370370371,1143.0833333333333,107.9487962962963,1145.5,107.93388888888889C1147.9166666666667,107.91898148148148,1150.3333333333333,107.90407407407407,1152.75,107.88916666666667C1155.1666666666667,107.87425925925926,1157.5833333333333,107.85935185185186,1160,107.84444444444445C1162.4166666666667,107.82953703703704,1164.8333333333333,107.81462962962962,1167.25,107.79972222222221C1169.6666666666667,107.78481481481481,1172.0833333333333,107.76990740740742,1174.5,107.75500000000001C1176.9166666666667,107.7400925925926,1179.3333333333333,107.72518518518518,1181.75,107.71027777777778C1184.1666666666667,107.69537037037037,1186.5833333333333,107.68046296296296,1189,107.66555555555556C1191.4166666666667,107.65064814814815,1193.8333333333333,107.63574074074073,1196.25,107.62083333333332C1198.6666666666667,107.60592592592592,1201.0833333333333,107.59101851851851,1203.5,107.5761111111111C1205.9166666666667,107.5612037037037,1208.3333333333333,107.54629629629629,1210.75,107.53138888888888C1213.1666666666667,107.51648148148148,1215.5833333333333,107.50157407407407,1218,107.48666666666666C1220.4166666666667,107.47175925925926,1222.8333333333333,107.45685185185185,1225.25,107.44194444444445C1227.6666666666667,107.42703703703704,1230.0833333333333,107.41212962962963,1232.5,107.39722222222223C1234.9166666666667,107.38231481481482,1237.3333333333333,107.36740740740741,1239.75,107.3525C1242.1666666666667,107.3375925925926,1244.5833333333333,107.32268518518518,1247,107.30777777777777C1249.4166666666667,107.29287037037037,1251.8333333333333,107.27796296296296,1254.25,107.26305555555555C1256.6666666666667,107.24814814814815,1259.0833333333333,107.23324074074074,1261.5,107.21833333333333C1263.9166666666667,107.20342592592593,1266.3333333333333,107.18851851851852,1268.75,107.17361111111111C1271.1666666666667,107.15870370370371,1273.5833333333333,107.1437962962963,1276,107.1288888888889C1278.4166666666667,107.11398148148149,1280.8333333333333,107.09907407407408,1283.25,107.08416666666668C1285.6666666666667,107.06925925925927,1288.0833333333333,107.05435185185185,1290.5,107.03944444444444C1292.9166666666667,107.02453703703704,1295.3333333333333,107.00962962962963,1297.75,106.99472222222222C1300.1666666666667,106.97981481481482,1302.5833333333333,106.97981481481482,1305,106.94999999999999C1307.4166666666667,106.92018518518516,1309.8333333333333,103.88333333333334,1312.25,102.35000000000001C1314.6666666666667,100.81666666666668,1317.0833333333333,99.28333333333333,1319.5,97.75C1321.9166666666667,96.21666666666667,1324.3333333333333,94.68333333333334,1326.75,93.15C1329.1666666666667,91.61666666666667,1331.5833333333333,90.08333333333333,1334,88.55C1336.4166666666667,87.01666666666667,1338.8333333333333,85.48333333333333,1341.25,83.95C1343.6666666666667,82.41666666666667,1346.0833333333333,80.88333333333333,1348.5,79.35C1350.9166666666667,77.81666666666666,1353.3333333333333,76.28333333333333,1355.75,74.75C1358.1666666666667,73.21666666666667,1360.5833333333333,71.68333333333332,1363,70.14999999999999C1365.4166666666667,68.61666666666666,1367.8333333333333,67.08333333333334,1370.25,65.55000000000001C1372.6666666666667,64.01666666666668,1375.0833333333333,62.483333333333334,1377.5,60.95C1379.9166666666667,59.41666666666667,1382.3333333333333,57.88333333333334,1384.75,56.35C1387.1666666666667,54.81666666666666,1389.5833333333333,53.283333333333324,1392,51.74999999999999C1394.4166666666667,50.21666666666666,1396.8333333333333,48.68333333333334,1399.25,47.150000000000006C1401.6666666666667,45.616666666666674,1404.0833333333333,44.08333333333333,1406.5,42.55C1408.9166666666667,41.016666666666666,1411.3333333333333,39.48333333333333,1413.75,37.949999999999996C1416.1666666666667,36.416666666666664,1418.5833333333333,34.88333333333333,1421,33.35C1423.4166666666667,31.81666666666667,1425.8333333333333,30.283333333333335,1428.25,28.75C1430.6666666666667,27.216666666666665,1433.0833333333333,25.683333333333326,1435.5,24.149999999999995C1437.9166666666667,22.616666666666664,1440.3333333333333,21.083333333333336,1442.75,19.550000000000004C1445.1666666666667,18.016666666666673,1447.5833333333333,16.483333333333338,1450,14.950000000000001" fill="transparent" stroke-linecap="round" stroke="#B6509E" stroke-width="2"></path><path class="visx-linepath" d="M0,105.7999999999936C2.4166666666666665,105.79893518518145,4.833333333333334,105.7978703703693,7.25,105.79680555555555C9.666666666666666,105.7957407407418,12.083333333333334,105.79467592592593,14.5,105.79361111111112C16.916666666666668,105.79254629629631,19.333333333333332,105.79148148148148,21.75,105.79041666666667C24.166666666666668,105.78935185185186,26.583333333333332,105.78828703703704,29,105.78722222222223C31.416666666666668,105.78615740740742,33.833333333333336,105.78509259259259,36.25,105.78402777777778C38.666666666666664,105.78296296296297,41.083333333333336,105.78189814814814,43.5,105.78083333333333C45.91666666666667,105.77976851851852,48.333333333333336,105.7787037037037,50.75000000000001,105.77763888888889C53.16666666666667,105.77657407407408,55.583333333333336,105.77550925925925,58,105.77444444444444C60.416666666666664,105.77337962962963,62.833333333333336,105.7723148148148,65.25,105.77125C67.66666666666667,105.77018518518518,70.08333333333333,105.76912037037036,72.5,105.76805555555555C74.91666666666667,105.76699074074074,77.33333333333333,105.76592592592591,79.75,105.7648611111111C82.16666666666667,105.76379629629629,84.58333333333333,105.76273148148147,87,105.76166666666666C89.41666666666667,105.76060185185185,91.83333333333333,105.75953703703703,94.25,105.75847222222222C96.66666666666667,105.75740740740741,99.08333333333334,105.75634259259259,101.50000000000001,105.75527777777778C103.91666666666667,105.75421296296297,106.33333333333334,105.75314814814814,108.75,105.75208333333333C111.16666666666667,105.75101851851852,113.58333333333333,105.7499537037037,116,105.74888888888889C118.41666666666667,105.74782407407407,120.83333333333334,105.74675925925925,123.25000000000001,105.74569444444444C125.66666666666667,105.74462962962963,128.08333333333334,105.7435648148148,130.5,105.74249999999999C132.91666666666666,105.74143518518518,135.33333333333334,105.74037037037037,137.75,105.73930555555556C140.16666666666666,105.73824074074075,142.58333333333334,105.73717592592592,145,105.73611111111111C147.41666666666666,105.7350462962963,149.83333333333334,105.73398148148148,152.25,105.73291666666667C154.66666666666666,105.73185185185186,157.08333333333334,105.73078703703703,159.5,105.72972222222222C161.91666666666666,105.72865740740741,164.33333333333334,105.72759259259259,166.75,105.72652777777778C169.16666666666666,105.72546296296296,171.58333333333334,105.72439814814814,174,105.72333333333333C176.41666666666666,105.72226851851852,178.83333333333334,105.72120370370371,181.25,105.7201388888889C183.66666666666666,105.71907407407409,186.08333333333334,105.71800925925925,188.5,105.71694444444444C190.91666666666666,105.71587962962963,193.33333333333334,105.71481481481482,195.75,105.71375C198.16666666666669,105.7126851851852,200.58333333333334,105.71162037037035,203.00000000000003,105.71055555555554C205.41666666666669,105.70949074074073,207.83333333333331,105.70842592592592,210.24999999999997,105.70736111111111C212.66666666666666,105.7062962962963,215.08333333333331,105.70523148148148,217.5,105.70416666666667C219.91666666666666,105.70310185185186,222.33333333333334,105.70203703703704,224.75,105.70097222222223C227.16666666666666,105.69990740740742,229.58333333333334,105.69884259259258,232,105.69777777777777C234.41666666666666,105.69671296296296,236.83333333333334,105.69564814814815,239.25,105.69458333333334C241.66666666666669,105.69351851851853,244.08333333333334,105.69245370370369,246.50000000000003,105.69138888888888C248.91666666666669,105.69032407407407,251.33333333333331,105.68925925925926,253.74999999999997,105.68819444444445C256.16666666666663,105.68712962962964,258.5833333333333,105.68606481481481,261,105.685C263.4166666666667,105.68393518518519,265.8333333333333,105.68287037037037,268.25,105.68180555555556C270.6666666666667,105.68074074074075,273.0833333333333,105.67967592592592,275.5,105.67861111111111C277.9166666666667,105.6775462962963,280.3333333333333,105.67648148148149,282.75,105.67541666666668C285.1666666666667,105.67435185185187,287.5833333333333,105.67328703703703,290,105.67222222222222C292.4166666666667,105.6711574074074,294.8333333333333,105.6700925925926,297.25,105.66902777777779C299.6666666666667,105.66796296296297,302.0833333333333,105.66689814814815,304.5,105.66583333333334C306.9166666666667,105.66476851851853,309.3333333333333,105.6637037037037,311.75,105.66263888888889C314.1666666666667,105.66157407407408,316.5833333333333,105.66050925925926,319,105.65944444444445C321.4166666666667,105.65837962962964,323.8333333333333,105.65731481481481,326.25,105.65625C328.6666666666667,105.65518518518519,331.0833333333333,105.65412037037036,333.5,105.65305555555555C335.9166666666667,105.65199074074074,338.3333333333333,105.65092592592593,340.75,105.64986111111112C343.1666666666667,105.64879629629631,345.5833333333333,105.64773148148147,348,105.64666666666666C350.4166666666667,105.64560185185185,352.8333333333333,105.64453703703704,355.25,105.64347222222223C357.6666666666667,105.64240740740742,360.0833333333333,105.64134259259258,362.5,105.64027777777777C364.9166666666667,105.63921296296296,367.3333333333333,105.63814814814815,369.75,105.63708333333334C372.1666666666667,105.63601851851853,374.5833333333333,105.6349537037037,377,105.63388888888889C379.4166666666667,105.63282407407408,381.8333333333333,105.63175925925925,384.25,105.63069444444444C386.6666666666667,105.62962962962963,389.0833333333333,105.62856481481481,391.5,105.6275C393.9166666666667,105.62643518518519,396.33333333333337,105.62537037037036,398.75000000000006,105.62430555555555C401.16666666666674,105.62324074074074,403.58333333333337,105.62217592592592,406.00000000000006,105.6211111111111C408.4166666666667,105.6200462962963,410.8333333333333,105.61898148148147,413.24999999999994,105.61791666666666C415.66666666666663,105.61685185185185,418.08333333333326,105.61578703703704,420.49999999999994,105.61472222222223C422.91666666666663,105.61365740740742,425.3333333333333,105.61259259259259,427.75,105.61152777777778C430.1666666666667,105.61046296296297,432.5833333333333,105.60939814814814,435,105.60833333333333C437.4166666666667,105.60726851851852,439.8333333333333,105.6062037037037,442.25,105.60513888888889C444.6666666666667,105.60407407407408,447.0833333333333,105.60300925925925,449.5,105.60194444444444C451.9166666666667,105.60087962962963,454.3333333333333,105.5998148148148,456.75,105.59875C459.1666666666667,105.59768518518518,461.5833333333333,105.59662037037037,464,105.59555555555556C466.4166666666667,105.59449074074075,468.8333333333333,105.59342592592591,471.25,105.5923611111111C473.6666666666667,105.59129629629629,476.0833333333333,105.59023148148148,478.5,105.58916666666667C480.9166666666667,105.58810185185186,483.33333333333337,105.58703703703702,485.75000000000006,105.58597222222221C488.16666666666674,105.5849074074074,490.58333333333337,105.58384259259259,493.00000000000006,105.58277777777778C495.4166666666667,105.58171296296297,497.8333333333333,105.58064814814814,500.24999999999994,105.57958333333333C502.66666666666663,105.57851851851852,505.08333333333326,105.5774537037037,507.49999999999994,105.57638888888889C509.91666666666663,105.57532407407408,512.3333333333333,105.57425925925925,514.75,105.57319444444444C517.1666666666666,105.57212962962963,519.5833333333334,105.5710648148148,522,105.57C524.4166666666666,105.56893518518518,526.8333333333334,105.56787037037036,529.25,105.56680555555555C531.6666666666666,105.56574074074074,534.0833333333334,105.56467592592593,536.5,105.56361111111111C538.9166666666666,105.5625462962963,541.3333333333334,105.56148148148148,543.75,105.56041666666667C546.1666666666666,105.55935185185186,548.5833333333334,105.55828703703703,551,105.55722222222222C553.4166666666666,105.55615740740741,555.8333333333334,105.55509259259259,558.25,105.55402777777778C560.6666666666666,105.55296296296297,563.0833333333334,105.55189814814814,565.5,105.55083333333333C567.9166666666666,105.54976851851852,570.3333333333334,105.5487037037037,572.75,105.54763888888888C575.1666666666666,105.54657407407407,577.5833333333334,105.54550925925926,580,105.54444444444445C582.4166666666666,105.54337962962964,584.8333333333334,105.54231481481482,587.25,105.54125C589.6666666666666,105.5401851851852,592.0833333333334,105.53912037037037,594.5,105.53805555555556C596.9166666666666,105.53699074074075,599.3333333333334,105.53592592592592,601.75,105.53486111111111C604.1666666666666,105.5337962962963,606.5833333333334,105.53273148148148,609,105.53166666666667C611.4166666666666,105.53060185185186,613.8333333333334,105.52953703703703,616.25,105.52847222222222C618.6666666666666,105.52740740740741,621.0833333333334,105.5263425925926,623.5,105.52527777777779C625.9166666666666,105.52421296296298,628.3333333333334,105.52314814814814,630.75,105.52208333333333C633.1666666666666,105.52101851851852,635.5833333333334,105.5199537037037,638,105.5188888888889C640.4166666666666,105.51782407407408,642.8333333333334,105.51675925925925,645.25,105.51569444444443C647.6666666666666,105.51462962962962,650.0833333333334,105.51356481481481,652.5,105.5125C654.9166666666666,105.51143518518519,657.3333333333334,105.51037037037037,659.75,105.50930555555556C662.1666666666666,105.50824074074075,664.5833333333334,105.50717592592594,667,105.50611111111112C669.4166666666666,105.50504629629631,671.8333333333334,105.50398148148147,674.25,105.50291666666666C676.6666666666666,105.50185185185185,679.0833333333334,105.50078703703704,681.5,105.49972222222223C683.9166666666666,105.49865740740742,686.3333333333334,105.49759259259258,688.75,105.49652777777777C691.1666666666666,105.49546296296296,693.5833333333334,105.49439814814815,696,105.49333333333334C698.4166666666666,105.49226851851853,700.8333333333334,105.4912037037037,703.25,105.4901388888889C705.6666666666666,105.48907407407408,708.0833333333334,105.48800925925926,710.5,105.48694444444445C712.9166666666666,105.48587962962964,715.3333333333334,105.48481481481481,717.75,105.48375C720.1666666666666,105.48268518518519,722.5833333333334,105.48162037037036,725,105.48055555555555C727.4166666666666,105.47949074074074,729.8333333333334,105.47842592592592,732.25,105.47736111111111C734.6666666666666,105.4762962962963,737.0833333333334,105.47523148148147,739.5,105.47416666666666C741.9166666666666,105.47310185185185,744.3333333333334,105.47203703703704,746.75,105.47097222222223C749.1666666666666,105.46990740740742,751.5833333333334,105.4688425925926,754,105.46777777777778C756.4166666666666,105.46671296296297,758.8333333333334,105.46564814814815,761.25,105.46458333333334C763.6666666666666,105.46351851851853,766.0833333333334,105.4624537037037,768.5,105.46138888888889C770.9166666666666,105.46032407407408,773.3333333333334,105.45925925925926,775.75,105.45819444444444C778.1666666666666,105.45712962962963,780.5833333333334,105.45606481481481,783,105.455C785.4166666666667,105.45393518518519,787.8333333333334,105.45287037037036,790.2500000000001,105.45180555555555C792.6666666666667,105.45074074074074,795.0833333333335,105.44967592592592,797.5000000000001,105.4486111111111C799.9166666666667,105.4475462962963,802.3333333333335,105.44648148148147,804.7500000000001,105.44541666666666C807.1666666666667,105.44435185185185,809.5833333333335,105.44328703703702,812.0000000000001,105.44222222222221C814.4166666666667,105.4411574074074,816.8333333333333,105.44009259259259,819.2499999999999,105.43902777777778C821.6666666666665,105.43796296296297,824.0833333333333,105.43689814814815,826.4999999999999,105.43583333333333C828.9166666666665,105.43476851851852,831.3333333333333,105.4337037037037,833.7499999999999,105.43263888888889C836.1666666666665,105.43157407407408,838.5833333333333,105.43050925925925,840.9999999999999,105.42944444444444C843.4166666666666,105.42837962962963,845.8333333333333,105.4273148148148,848.25,105.42625C850.6666666666666,105.42518518518519,853.0833333333334,105.42412037037036,855.5,105.42305555555555C857.9166666666666,105.42199074074074,860.3333333333334,105.42092592592593,862.75,105.41986111111112C865.1666666666666,105.4187962962963,867.5833333333334,105.41773148148148,870,105.41666666666667C872.4166666666666,105.41560185185186,874.8333333333334,105.41453703703704,877.25,105.41347222222223C879.6666666666666,105.41240740740741,882.0833333333334,105.41134259259259,884.5,105.41027777777778C886.9166666666666,105.40921296296297,889.3333333333334,105.40814814814814,891.75,105.40708333333333C894.1666666666666,105.40601851851852,896.5833333333334,105.4049537037037,899,105.40388888888889C901.4166666666666,105.40282407407408,903.8333333333334,105.40175925925926,906.25,105.40069444444445C908.6666666666666,105.39962962962964,911.0833333333334,105.3985648148148,913.5,105.3975C915.9166666666666,105.39643518518518,918.3333333333334,105.39537037037037,920.75,105.39430555555556C923.1666666666666,105.39324074074075,925.5833333333334,105.39217592592591,928,105.3911111111111C930.4166666666666,105.39004629629629,932.8333333333334,105.38898148148148,935.25,105.38791666666667C937.6666666666666,105.38685185185186,940.0833333333334,105.38578703703703,942.5,105.38472222222222C944.9166666666666,105.38365740740741,947.3333333333334,105.38259259259259,949.75,105.38152777777778C952.1666666666666,105.38046296296297,954.5833333333334,105.37939814814814,957,105.37833333333333C959.4166666666666,105.37726851851852,961.8333333333334,105.3762037037037,964.25,105.37513888888888C966.6666666666667,105.37407407407407,969.0833333333334,105.37300925925925,971.5000000000001,105.37194444444444C973.9166666666667,105.37087962962963,976.3333333333335,105.36981481481482,978.7500000000001,105.36875C981.1666666666667,105.3676851851852,983.5833333333335,105.36662037037037,986.0000000000001,105.36555555555556C988.4166666666667,105.36449074074075,990.8333333333335,105.36342592592592,993.2500000000001,105.36236111111111C995.6666666666667,105.3612962962963,998.0833333333333,105.36023148148148,1000.4999999999999,105.35916666666667C1002.9166666666665,105.35810185185186,1005.3333333333333,105.35703703703703,1007.7499999999999,105.35597222222222C1010.1666666666665,105.35490740740741,1012.5833333333333,105.35384259259258,1014.9999999999999,105.35277777777777C1017.4166666666665,105.35171296296296,1019.8333333333333,105.35064814814815,1022.2499999999999,105.34958333333334C1024.6666666666665,105.34851851851853,1027.0833333333333,105.3474537037037,1029.5,105.3463888888889C1031.9166666666667,105.34532407407409,1034.3333333333333,105.34425925925926,1036.75,105.34319444444445C1039.1666666666667,105.34212962962964,1041.5833333333333,105.34106481481481,1044,105.34C1046.4166666666667,105.33893518518519,1048.8333333333333,105.33787037037037,1051.25,105.33680555555556C1053.6666666666667,105.33574074074075,1056.0833333333333,105.33467592592592,1058.5,105.33361111111111C1060.9166666666667,105.3325462962963,1063.3333333333333,105.33148148148149,1065.75,105.33041666666668C1068.1666666666667,105.32935185185187,1070.5833333333333,105.32828703703703,1073,105.32722222222222C1075.4166666666667,105.32615740740741,1077.8333333333333,105.3250925925926,1080.25,105.32402777777779C1082.6666666666667,105.32296296296298,1085.0833333333333,105.32189814814814,1087.5,105.32083333333333C1089.9166666666667,105.31976851851852,1092.3333333333333,105.3187037037037,1094.75,105.3176388888889C1097.1666666666667,105.31657407407408,1099.5833333333333,105.31550925925926,1102,105.31444444444445C1104.4166666666667,105.31337962962964,1106.8333333333333,105.31231481481481,1109.25,105.31125C1111.6666666666667,105.31018518518519,1114.0833333333333,105.30912037037037,1116.5,105.30805555555555C1118.9166666666667,105.30699074074074,1121.3333333333333,105.30592592592592,1123.75,105.30486111111111C1126.1666666666667,105.3037962962963,1128.5833333333333,105.30273148148147,1131,105.30166666666666C1133.4166666666667,105.30060185185185,1135.8333333333333,105.29953703703703,1138.25,105.29847222222222C1140.6666666666667,105.2974074074074,1143.0833333333333,105.2963425925926,1145.5,105.29527777777778C1147.9166666666667,105.29421296296297,1150.3333333333333,105.29314814814813,1152.75,105.29208333333332C1155.1666666666667,105.29101851851851,1157.5833333333333,105.2899537037037,1160,105.28888888888889C1162.4166666666667,105.28782407407408,1164.8333333333333,105.28675925925924,1167.25,105.28569444444443C1169.6666666666667,105.28462962962962,1172.0833333333333,105.28356481481481,1174.5,105.2825C1176.9166666666667,105.28143518518519,1179.3333333333333,105.28037037037036,1181.75,105.27930555555555C1184.1666666666667,105.27824074074074,1186.5833333333333,105.27717592592593,1189,105.27611111111112C1191.4166666666667,105.27504629629631,1193.8333333333333,105.27398148148147,1196.25,105.27291666666666C1198.6666666666667,105.27185185185185,1201.0833333333333,105.27078703703704,1203.5,105.26972222222223C1205.9166666666667,105.26865740740742,1208.3333333333333,105.26759259259258,1210.75,105.26652777777777C1213.1666666666667,105.26546296296296,1215.5833333333333,105.26439814814815,1218,105.26333333333334C1220.4166666666667,105.26226851851852,1222.8333333333333,105.2612037037037,1225.25,105.26013888888889C1227.6666666666667,105.25907407407408,1230.0833333333333,105.25800925925925,1232.5,105.25694444444444C1234.9166666666667,105.25587962962963,1237.3333333333333,105.25481481481481,1239.75,105.25375C1242.1666666666667,105.25268518518519,1244.5833333333333,105.25162037037036,1247,105.25055555555555C1249.4166666666667,105.24949074074074,1251.8333333333333,105.24842592592591,1254.25,105.2473611111111C1256.6666666666667,105.2462962962963,1259.0833333333333,105.24523148148148,1261.5,105.24416666666667C1263.9166666666667,105.24310185185186,1266.3333333333333,105.24203703703704,1268.75,105.24097222222223C1271.1666666666667,105.23990740740742,1273.5833333333333,105.23884259259259,1276,105.23777777777778C1278.4166666666667,105.23671296296297,1280.8333333333333,105.23564814814814,1283.25,105.23458333333333C1285.6666666666667,105.23351851851852,1288.0833333333333,105.2324537037037,1290.5,105.23138888888889C1292.9166666666667,105.23032407407408,1295.3333333333333,105.22925925925925,1297.75,105.22819444444444C1300.1666666666667,105.22712962962963,1302.5833333333333,105.22712962962963,1305,105.22500000000001C1307.4166666666667,105.22287037037039,1309.8333333333333,102.92500000000001,1312.25,101.775C1314.6666666666667,100.625,1317.0833333333333,99.47500000000001,1319.5,98.325C1321.9166666666667,97.175,1324.3333333333333,96.025,1326.75,94.875C1329.1666666666667,93.725,1331.5833333333333,92.57500000000002,1334,91.42500000000001C1336.4166666666667,90.275,1338.8333333333333,89.12500000000001,1341.25,87.97500000000001C1343.6666666666667,86.825,1346.0833333333333,85.675,1348.5,84.52499999999999C1350.9166666666667,83.37499999999999,1353.3333333333333,82.225,1355.75,81.075C1358.1666666666667,79.92500000000001,1360.5833333333333,78.775,1363,77.625C1365.4166666666667,76.475,1367.8333333333333,75.325,1370.25,74.175C1372.6666666666667,73.02499999999999,1375.0833333333333,71.875,1377.5,70.725C1379.9166666666667,69.57499999999999,1382.3333333333333,68.425,1384.75,67.27499999999999C1387.1666666666667,66.12499999999999,1389.5833333333333,64.975,1392,63.824999999999996C1394.4166666666667,62.675,1396.8333333333333,61.525,1399.25,60.375C1401.6666666666667,59.225,1404.0833333333333,58.074999999999996,1406.5,56.925C1408.9166666666667,55.775,1411.3333333333333,54.62499999999999,1413.75,53.474999999999994C1416.1666666666667,52.324999999999996,1418.5833333333333,51.175000000000004,1421,50.025000000000006C1423.4166666666667,48.87500000000001,1425.8333333333333,47.725,1428.25,46.575C1430.6666666666667,45.425000000000004,1433.0833333333333,44.275,1435.5,43.125C1437.9166666666667,41.975,1440.3333333333333,40.824999999999996,1442.75,39.675C1445.1666666666667,38.525,1447.5833333333333,37.37499999999999,1450,36.224999999999994" fill="transparent" stroke-linecap="round" stroke="#E7C6DF" stroke-width="2"></path><g class="visx-group visx-axis visx-axis-bottom" transform="translate(0, 115)"><g class="visx-group visx-axis-tick" transform="translate(0, 0)"><line class="visx-line" x1="0" y1="0" x2="0" y2="8" fill="transparent" shape-rendering="crispEdges" stroke="#000" stroke-width="0" stroke-linecap="square"></line><svg x="0" y="0" font-size="10" style="overflow:visible"><text transform="" x="0" y="18" fill="#000" font-size="10" text-anchor="middle"><tspan x="0" dy="0em">0%</tspan></text></svg></g><g class="visx-group visx-axis-tick" transform="translate(0, 0)"><line class="visx-line" x1="362.5" y1="0" x2="362.5" y2="8" fill="transparent" shape-rendering="crispEdges" stroke="#000" stroke-width="0" stroke-linecap="square"></line><svg x="0" y="0" font-size="10" style="overflow:visible"><text transform="" x="362.5" y="18" fill="#000" font-size="10" text-anchor="middle"><tspan x="362.5" dy="0em">25%</tspan></text></svg></g><g class="visx-group visx-axis-tick" transform="translate(0, 0)"><line class="visx-line" x1="725" y1="0" x2="725" y2="8" fill="transparent" shape-rendering="crispEdges" stroke="#000" stroke-width="0" stroke-linecap="square"></line><svg x="0" y="0" font-size="10" style="overflow:visible"><text transform="" x="725" y="18" fill="#000" font-size="10" text-anchor="middle"><tspan x="725" dy="0em">50%</tspan></text></svg></g><g class="visx-group visx-axis-tick" transform="translate(0, 0)"><line class="visx-line" x1="1087.5" y1="0" x2="1087.5" y2="8" fill="transparent" shape-rendering="crispEdges" stroke="#000" stroke-width="0" stroke-linecap="square"></line><svg x="0" y="0" font-size="10" style="overflow:visible"><text transform="" x="1087.5" y="18" fill="#000" font-size="10" text-anchor="middle"><tspan x="1087.5" dy="0em">75%</tspan></text></svg></g><g class="visx-group visx-axis-tick" transform="translate(0, 0)"><line class="visx-line" x1="1450" y1="0" x2="1450" y2="8" fill="transparent" shape-rendering="crispEdges" stroke="#000" stroke-width="0" stroke-linecap="square"></line><svg x="0" y="0" font-size="10" style="overflow:visible"><text transform="" x="1450" y="18" fill="#000" font-size="10" text-anchor="middle"><tspan x="1450" dy="0em">100%</tspan></text></svg></g><line class="visx-line visx-axis-line" x1="0.5" y1="0" x2="1450.5" y2="0" fill="transparent" shape-rendering="crispEdges" stroke="#222" stroke-width="0"></line></g><g class="visx-group visx-axis visx-axis-left" transform="translate(0, 0)"><g class="visx-group visx-axis-tick" transform="translate(0, 0)"><line class="visx-line" x1="0" y1="115" x2="-8" y2="115" fill="transparent" shape-rendering="crispEdges" stroke="#222" stroke-width="0" stroke-linecap="square"></line><svg x="-30" y="0" font-size="8" style="overflow:visible"><text transform="" x="-8" y="115" fill="#000" font-size="8" text-anchor="start"><tspan x="-8" dy="0em">0%</tspan></text></svg></g><g class="visx-group visx-axis-tick" transform="translate(0, 0)"><line class="visx-line" x1="0" y1="57.5" x2="-8" y2="57.5" fill="transparent" shape-rendering="crispEdges" stroke="#222" stroke-width="0" stroke-linecap="square"></line><svg x="-30" y="0" font-size="8" style="overflow:visible"><text transform="" x="-8" y="57.5" fill="#000" font-size="8" text-anchor="start"><tspan x="-8" dy="0em">50%</tspan></text></svg></g><g class="visx-group visx-axis-tick" transform="translate(0, 0)"><line class="visx-line" x1="0" y1="0" x2="-8" y2="0" fill="transparent" shape-rendering="crispEdges" stroke="#222" stroke-width="0" stroke-linecap="square"></line><svg x="-30" y="0" font-size="8" style="overflow:visible"><text transform="" x="-8" y="0" fill="#000" font-size="8" text-anchor="start"><tspan x="-8" dy="0em">100%</tspan></text></svg></g><line class="visx-line visx-axis-line" x1="0" y1="115.5" x2="0" y2="0.5" fill="transparent" shape-rendering="crispEdges" stroke="#222" stroke-width="0"></line></g><rect class="visx-bar" width="1450" height="115" fill="transparent"></rect><line class="visx-line" x1="1305" y1="28" x2="1305" y2="115" fill="transparent" shape-rendering="crispEdges" stroke="#0062D2" stroke-width="1" pointer-events="none" stroke-dasharray="5,2"></line><svg x="0" y="0" font-size="10px" style="overflow:visible"><text transform="" x="1305" y="20" font-size="10px" fill="#fff" stroke="#fff" stroke-width="0.8em" text-anchor="middle"><tspan x="1305" dy="0.355em">Optimal 90%</tspan></text></svg><svg x="0" y="0" font-size="10px" style="overflow:visible"><text transform="" x="1305" y="20" font-size="10px" fill="#62677B" text-anchor="middle"><tspan x="1305" dy="0.355em">Optimal 90%</tspan></text></svg></g></svg>