<?xml version="1.0"?><svg xmlns="http://www.w3.org/2000/svg" xmlns:xlink= "http://www.w3.org/1999/xlink" style="background: white;" width="1500" height="185"> <g style="color: black; font-size: 13px; font-family: sans-serif; transform: translate(18px, 25px);"><g><circle r="3" cx="-6" cy="-5" style="fill: #B6509E" /><text>Borrow APR, variable</text></g><g style="transform: translateX(150px);"><circle r="3" cx="-6" cy="-5" style="fill: rgb(231, 198, 223)" /><text>Borrow APR, stable</text></g><g style="transform: translateX(290px);"><circle r="3" cx="-6" cy="-5" style="fill: rgb(0, 98, 210)" /><text>Utilization Rate</text></g></g><g class="visx-group" transform="translate(40, 50)"><g class="visx-group visx-rows" transform="translate(0, 0)"><line class="visx-line" x1="0" y1="115" x2="1450" y2="115" fill="transparent" shape-rendering="crispEdges" stroke="#000" stroke-width="1" stroke-dasharray="3,3" pointer-events="none"></line><line class="visx-line" x1="0" y1="86.25" x2="1450" y2="86.25" fill="transparent" shape-rendering="crispEdges" stroke="#000" stroke-width="1" stroke-dasharray="3,3" pointer-events="none"></line><line class="visx-line" x1="0" y1="57.5" x2="1450" y2="57.5" fill="transparent" shape-rendering="crispEdges" stroke="#000" stroke-width="1" stroke-dasharray="3,3" pointer-events="none"></line><line class="visx-line" x1="0" y1="28.75" x2="1450" y2="28.75" fill="transparent" shape-rendering="crispEdges" stroke="#000" stroke-width="1" stroke-dasharray="3,3" pointer-events="none"></line><line class="visx-line" x1="0" y1="0" x2="1450" y2="0" fill="transparent" shape-rendering="crispEdges" stroke="#000" stroke-width="1" stroke-dasharray="3,3" pointer-events="none"></line></g><path class="visx-linepath" d="M0,114.13749999994968C2.4166666666666665,114.12911458330397,4.833333333333334,114.12072916665828,7.25,114.11234375C9.666666666666666,114.10395833334171,12.083333333333334,114.09557291666667,14.5,114.0871875C16.916666666666668,114.07880208333333,19.333333333333332,114.07041666666667,21.75,114.06203125C24.166666666666668,114.05364583333333,26.583333333333332,114.04526041666666,29,114.036875C31.416666666666668,114.02848958333333,33.833333333333336,114.02010416666667,36.25,114.01171875C38.666666666666664,114.00333333333333,41.083333333333336,113.99494791666667,43.5,113.9865625C45.91666666666667,113.97817708333334,48.333333333333336,113.96979166666667,50.75000000000001,113.96140625C53.16666666666667,113.95302083333333,55.583333333333336,113.94463541666667,58,113.93625C60.416666666666664,113.92786458333333,62.833333333333336,113.91947916666666,65.25,113.91109374999999C67.66666666666667,113.90270833333332,70.08333333333333,113.89432291666668,72.5,113.88593750000001C74.91666666666667,113.87755208333334,77.33333333333333,113.86916666666667,79.75,113.86078125C82.16666666666667,113.85239583333333,84.58333333333333,113.84401041666666,87,113.835625C89.41666666666667,113.82723958333332,91.83333333333333,113.81885416666667,94.25,113.81046875C96.66666666666667,113.80208333333333,99.08333333333334,113.79369791666667,101.50000000000001,113.7853125C103.91666666666667,113.77692708333333,106.33333333333334,113.76854166666668,108.75,113.76015625000001C111.16666666666667,113.75177083333334,113.58333333333333,113.74338541666667,116,113.735C118.41666666666667,113.72661458333333,120.83333333333334,113.71822916666666,123.25000000000001,113.70984374999999C125.66666666666667,113.70145833333332,128.08333333333334,113.69307291666667,130.5,113.6846875C132.91666666666666,113.67630208333333,135.33333333333334,113.66791666666667,137.75,113.65953125C140.16666666666666,113.65114583333333,142.58333333333334,113.64276041666668,145,113.634375C147.41666666666666,113.62598958333334,149.83333333333334,113.61760416666667,152.25,113.60921875C154.66666666666666,113.60083333333333,157.08333333333334,113.59244791666667,159.5,113.5840625C161.91666666666666,113.57567708333333,164.33333333333334,113.56729166666668,166.75,113.55890625C169.16666666666666,113.55052083333334,171.58333333333334,113.54213541666667,174,113.53375C176.41666666666666,113.52536458333333,178.83333333333334,113.51697916666667,181.25,113.50859375C183.66666666666666,113.50020833333333,186.08333333333334,113.49182291666666,188.5,113.4834375C190.91666666666666,113.47505208333332,193.33333333333334,113.46666666666667,195.75,113.45828125C198.16666666666669,113.44989583333333,200.58333333333334,113.44151041666667,203.00000000000003,113.433125C205.41666666666669,113.42473958333333,207.83333333333331,113.41635416666666,210.24999999999997,113.40796875C212.66666666666666,113.39958333333333,215.08333333333331,113.39119791666667,217.5,113.3828125C219.91666666666666,113.37442708333333,222.33333333333334,113.36604166666666,224.75,113.35765624999999C227.16666666666666,113.34927083333332,229.58333333333334,113.34088541666668,232,113.33250000000001C234.41666666666666,113.32411458333334,236.83333333333334,113.31572916666667,239.25,113.30734375C241.66666666666669,113.29895833333333,244.08333333333334,113.29057291666666,246.50000000000003,113.28218749999999C248.91666666666669,113.27380208333332,251.33333333333331,113.26541666666667,253.74999999999997,113.25703125C256.16666666666663,113.24864583333333,258.5833333333333,113.24026041666667,261,113.231875C263.4166666666667,113.22348958333333,265.8333333333333,113.21510416666668,268.25,113.20671875000001C270.6666666666667,113.19833333333334,273.0833333333333,113.18994791666667,275.5,113.1815625C277.9166666666667,113.17317708333333,280.3333333333333,113.16479166666666,282.75,113.15640624999999C285.1666666666667,113.14802083333332,287.5833333333333,113.13963541666668,290,113.13125000000001C292.4166666666667,113.12286458333334,294.8333333333333,113.11447916666667,297.25,113.10609375C299.6666666666667,113.09770833333333,302.0833333333333,113.08932291666667,304.5,113.0809375C306.9166666666667,113.07255208333333,309.3333333333333,113.06416666666667,311.75,113.05578125C314.1666666666667,113.04739583333333,316.5833333333333,113.03901041666666,319,113.03062499999999C321.4166666666667,113.02223958333332,323.8333333333333,113.01385416666668,326.25,113.00546875C328.6666666666667,112.99708333333334,331.0833333333333,112.98869791666667,333.5,112.9803125C335.9166666666667,112.97192708333333,338.3333333333333,112.96354166666667,340.75,112.95515625C343.1666666666667,112.94677083333333,345.5833333333333,112.93838541666666,348,112.92999999999999C350.4166666666667,112.92161458333332,352.8333333333333,112.91322916666668,355.25,112.90484375000001C357.6666666666667,112.89645833333334,360.0833333333333,112.88807291666667,362.5,112.8796875C364.9166666666667,112.87130208333333,367.3333333333333,112.86291666666666,369.75,112.85453125C372.1666666666667,112.84614583333332,374.5833333333333,112.83776041666667,377,112.829375C379.4166666666667,112.82098958333333,381.8333333333333,112.81260416666667,384.25,112.80421875C386.6666666666667,112.79583333333333,389.0833333333333,112.78744791666668,391.5,112.77906250000001C393.9166666666667,112.77067708333334,396.33333333333337,112.76229166666667,398.75000000000006,112.75390625C401.16666666666674,112.74552083333333,403.58333333333337,112.73713541666666,406.00000000000006,112.72874999999999C408.4166666666667,112.72036458333332,410.8333333333333,112.71197916666667,413.24999999999994,112.70359375C415.66666666666663,112.69520833333333,418.08333333333326,112.68682291666667,420.49999999999994,112.6784375C422.91666666666663,112.67005208333333,425.3333333333333,112.66166666666668,427.75,112.65328125C430.1666666666667,112.64489583333334,432.5833333333333,112.63651041666667,435,112.628125C437.4166666666667,112.61973958333333,439.8333333333333,112.61135416666666,442.25,112.60296874999999C444.6666666666667,112.59458333333332,447.0833333333333,112.58619791666668,449.5,112.57781250000001C451.9166666666667,112.56942708333334,454.3333333333333,112.56104166666667,456.75,112.55265625C459.1666666666667,112.54427083333333,461.5833333333333,112.53588541666667,464,112.5275C466.4166666666667,112.51911458333333,468.8333333333333,112.51072916666666,471.25,112.50234375C473.6666666666667,112.49395833333332,476.0833333333333,112.48557291666668,478.5,112.47718750000001C480.9166666666667,112.46880208333334,483.33333333333337,112.46041666666667,485.75000000000006,112.45203125C488.16666666666674,112.44364583333333,490.58333333333337,112.43526041666667,493.00000000000006,112.426875C495.4166666666667,112.41848958333333,497.8333333333333,112.41010416666667,500.24999999999994,112.40171875C502.66666666666663,112.39333333333333,505.08333333333326,112.38494791666666,507.49999999999994,112.37656249999999C509.91666666666663,112.36817708333332,512.3333333333333,112.35979166666668,514.75,112.35140625000001C517.1666666666666,112.34302083333334,519.5833333333334,112.33463541666667,522,112.32625C524.4166666666666,112.31786458333333,526.8333333333334,112.30947916666666,529.25,112.30109374999999C531.6666666666666,112.29270833333332,534.0833333333334,112.28432291666667,536.5,112.2759375C538.9166666666666,112.26755208333333,541.3333333333334,112.25916666666667,543.75,112.25078125C546.1666666666666,112.24239583333333,548.5833333333334,112.23401041666668,551,112.22562500000001C553.4166666666666,112.21723958333334,555.8333333333334,112.20885416666667,558.25,112.20046875C560.6666666666666,112.19208333333333,563.0833333333334,112.18369791666666,565.5,112.17531249999999C567.9166666666666,112.16692708333332,570.3333333333334,112.15854166666668,572.75,112.15015625000001C575.1666666666666,112.14177083333334,577.5833333333334,112.13338541666667,580,112.125C582.4166666666666,112.11661458333333,584.8333333333334,112.10822916666667,587.25,112.09984375C589.6666666666666,112.09145833333334,592.0833333333334,112.08307291666667,594.5,112.0746875C596.9166666666666,112.06630208333333,599.3333333333334,112.05791666666667,601.75,112.04953125C604.1666666666666,112.04114583333333,606.5833333333334,112.03276041666668,609,112.024375C611.4166666666666,112.01598958333334,613.8333333333334,112.00760416666667,616.25,111.99921875C618.6666666666666,111.99083333333333,621.0833333333334,111.98244791666667,623.5,111.9740625C625.9166666666666,111.96567708333333,628.3333333333334,111.95729166666666,630.75,111.94890625C633.1666666666666,111.94052083333332,635.5833333333334,111.93213541666667,638,111.92375C640.4166666666666,111.91536458333333,642.8333333333334,111.90697916666667,645.25,111.89859375C647.6666666666666,111.89020833333333,650.0833333333334,111.88182291666666,652.5,111.8734375C654.9166666666666,111.86505208333332,657.3333333333334,111.85666666666667,659.75,111.84828125C662.1666666666666,111.83989583333333,664.5833333333334,111.83151041666667,667,111.823125C669.4166666666666,111.81473958333333,671.8333333333334,111.80635416666668,674.25,111.79796875000001C676.6666666666666,111.78958333333334,679.0833333333334,111.78119791666667,681.5,111.7728125C683.9166666666666,111.76442708333333,686.3333333333334,111.75604166666666,688.75,111.74765624999999C691.1666666666666,111.73927083333332,693.5833333333334,111.73088541666667,696,111.7225C698.4166666666666,111.71411458333333,700.8333333333334,111.70572916666667,703.25,111.69734375C705.6666666666666,111.68895833333333,708.0833333333334,111.68057291666668,710.5,111.6721875C712.9166666666666,111.66380208333334,715.3333333333334,111.65541666666667,717.75,111.64703125C720.1666666666666,111.63864583333333,722.5833333333334,111.63026041666666,725,111.62187499999999C727.4166666666666,111.61348958333332,729.8333333333334,111.60510416666668,732.25,111.59671875000001C734.6666666666666,111.58833333333334,737.0833333333334,111.57994791666667,739.5,111.5715625C741.9166666666666,111.56317708333333,744.3333333333334,111.55479166666667,746.75,111.54640625C749.1666666666666,111.53802083333333,751.5833333333334,111.52963541666666,754,111.52125C756.4166666666666,111.51286458333333,758.8333333333334,111.50447916666667,761.25,111.49609375C763.6666666666666,111.48770833333333,766.0833333333334,111.47932291666667,768.5,111.4709375C770.9166666666666,111.46255208333334,773.3333333333334,111.45416666666667,775.75,111.44578125C778.1666666666666,111.43739583333333,780.5833333333334,111.42901041666667,783,111.420625C785.4166666666667,111.41223958333333,787.8333333333334,111.40385416666668,790.2500000000001,111.39546875C792.6666666666667,111.38708333333334,795.0833333333335,111.37869791666667,797.5000000000001,111.3703125C799.9166666666667,111.36192708333333,802.3333333333335,111.35354166666667,804.7500000000001,111.34515625C807.1666666666667,111.33677083333333,809.5833333333335,111.32838541666666,812.0000000000001,111.32C814.4166666666667,111.31161458333332,816.8333333333333,111.30322916666667,819.2499999999999,111.29484375C821.6666666666665,111.28645833333333,824.0833333333333,111.27807291666667,826.4999999999999,111.2696875C828.9166666666665,111.26130208333333,831.3333333333333,111.25291666666666,833.7499999999999,111.24453125C836.1666666666665,111.23614583333332,838.5833333333333,111.22776041666667,840.9999999999999,111.219375C843.4166666666666,111.21098958333333,845.8333333333333,111.20260416666666,848.25,111.19421874999999C850.6666666666666,111.18583333333332,853.0833333333334,111.17744791666668,855.5,111.16906250000001C857.9166666666666,111.16067708333334,860.3333333333334,111.15229166666667,862.75,111.14390625C865.1666666666666,111.13552083333333,867.5833333333334,111.12713541666668,870,111.11875C872.4166666666666,111.11036458333334,874.8333333333334,111.10197916666667,877.25,111.09359375C879.6666666666666,111.08520833333333,882.0833333333334,111.07682291666667,884.5,111.0684375C886.9166666666666,111.06005208333333,889.3333333333334,111.05166666666668,891.75,111.04328125C894.1666666666666,111.03489583333334,896.5833333333334,111.02651041666667,899,111.018125C901.4166666666666,111.00973958333333,903.8333333333334,111.00135416666667,906.25,110.99296875C908.6666666666666,110.98458333333333,911.0833333333334,110.97619791666666,913.5,110.9678125C915.9166666666666,110.95942708333332,918.3333333333334,110.95104166666667,920.75,110.94265625C923.1666666666666,110.93427083333333,925.5833333333334,110.92588541666667,928,110.9175C930.4166666666666,110.90911458333333,932.8333333333334,110.90072916666666,935.25,110.89234375C937.6666666666666,110.88395833333333,940.0833333333334,110.87557291666667,942.5,110.8671875C944.9166666666666,110.85880208333333,947.3333333333334,110.85041666666667,949.75,110.84203125C952.1666666666666,110.83364583333334,954.5833333333334,110.82526041666667,957,110.816875C959.4166666666666,110.80848958333333,961.8333333333334,110.80010416666667,964.25,110.79171875C966.6666666666667,110.78333333333333,969.0833333333334,110.77494791666666,971.5000000000001,110.76656249999999C973.9166666666667,110.75817708333332,976.3333333333335,110.74979166666668,978.7500000000001,110.74140625000001C981.1666666666667,110.73302083333334,983.5833333333335,110.72463541666667,986.0000000000001,110.71625C988.4166666666667,110.70786458333333,990.8333333333335,110.69947916666666,993.2500000000001,110.69109375C995.6666666666667,110.68270833333332,998.0833333333333,110.67432291666667,1000.4999999999999,110.6659375C1002.9166666666665,110.65755208333333,1005.3333333333333,110.64916666666667,1007.7499999999999,110.64078125C1010.1666666666665,110.63239583333333,1012.5833333333333,110.62401041666668,1014.9999999999999,110.61562500000001C1017.4166666666665,110.60723958333334,1019.8333333333333,110.59885416666667,1022.2499999999999,110.59046875C1024.6666666666665,110.58208333333333,1027.0833333333333,110.57369791666666,1029.5,110.56531249999999C1031.9166666666667,110.55692708333332,1034.3333333333333,110.54854166666667,1036.75,110.54015625C1039.1666666666667,110.53177083333333,1041.5833333333333,110.52338541666667,1044,110.515C1046.4166666666667,110.50661458333333,1048.8333333333333,110.49822916666668,1051.25,110.48984375C1053.6666666666667,110.48145833333334,1056.0833333333333,110.47307291666667,1058.5,110.4646875C1060.9166666666667,110.45630208333333,1063.3333333333333,110.44791666666667,1065.75,110.43953125C1068.1666666666667,110.43114583333333,1070.5833333333333,110.42276041666668,1073,110.414375C1075.4166666666667,110.40598958333334,1077.8333333333333,110.39760416666667,1080.25,110.38921875C1082.6666666666667,110.38083333333333,1085.0833333333333,110.37244791666667,1087.5,110.3640625C1089.9166666666667,110.35567708333333,1092.3333333333333,110.34729166666666,1094.75,110.33890625C1097.1666666666667,110.33052083333332,1099.5833333333333,110.32213541666667,1102,110.31375C1104.4166666666667,110.30536458333333,1106.8333333333333,110.29697916666667,1109.25,110.28859375C1111.6666666666667,110.28020833333333,1114.0833333333333,110.27182291666666,1116.5,110.2634375C1118.9166666666667,110.25505208333333,1121.3333333333333,110.24666666666667,1123.75,110.23828125C1126.1666666666667,110.22989583333333,1128.5833333333333,110.22151041666666,1131,110.21312499999999C1133.4166666666667,110.20473958333332,1135.8333333333333,110.19635416666668,1138.25,110.18796875000001C1140.6666666666667,110.17958333333334,1143.0833333333333,110.17119791666667,1145.5,110.1628125C1147.9166666666667,110.15442708333333,1150.3333333333333,110.14604166666666,1152.75,110.13765624999999C1155.1666666666667,110.12927083333332,1157.5833333333333,110.12927083333332,1160,110.1125C1162.4166666666667,110.09572916666667,1164.8333333333333,109.39375,1167.25,109.034375C1169.6666666666667,108.675,1172.0833333333333,108.315625,1174.5,107.95625C1176.9166666666667,107.596875,1179.3333333333333,107.23750000000001,1181.75,106.87812500000001C1184.1666666666667,106.51875000000001,1186.5833333333333,106.15937500000001,1189,105.80000000000001C1191.4166666666667,105.44062500000001,1193.8333333333333,105.08125,1196.25,104.721875C1198.6666666666667,104.3625,1201.0833333333333,104.003125,1203.5,103.64375C1205.9166666666667,103.284375,1208.3333333333333,102.925,1210.75,102.565625C1213.1666666666667,102.20625,1215.5833333333333,101.84687500000001,1218,101.48750000000001C1220.4166666666667,101.12812500000001,1222.8333333333333,100.76875000000001,1225.25,100.40937500000001C1227.6666666666667,100.05000000000001,1230.0833333333333,99.690625,1232.5,99.33125C1234.9166666666667,98.971875,1237.3333333333333,98.6125,1239.75,98.253125C1242.1666666666667,97.89375,1244.5833333333333,97.534375,1247,97.175C1249.4166666666667,96.815625,1251.8333333333333,96.45625000000001,1254.25,96.09687500000001C1256.6666666666667,95.73750000000001,1259.0833333333333,95.37812500000001,1261.5,95.01875000000001C1263.9166666666667,94.65937500000001,1266.3333333333333,94.3,1268.75,93.940625C1271.1666666666667,93.58125,1273.5833333333333,93.221875,1276,92.8625C1278.4166666666667,92.503125,1280.8333333333333,92.14375,1283.25,91.784375C1285.6666666666667,91.425,1288.0833333333333,91.06562500000001,1290.5,90.70625000000001C1292.9166666666667,90.34687500000001,1295.3333333333333,89.98750000000001,1297.75,89.62812500000001C1300.1666666666667,89.26875000000001,1302.5833333333333,88.909375,1305,88.55C1307.4166666666667,88.190625,1309.8333333333333,87.83125,1312.25,87.471875C1314.6666666666667,87.1125,1317.0833333333333,86.753125,1319.5,86.39375C1321.9166666666667,86.034375,1324.3333333333333,85.67500000000001,1326.75,85.31562500000001C1329.1666666666667,84.95625000000001,1331.5833333333333,84.596875,1334,84.2375C1336.4166666666667,83.878125,1338.8333333333333,83.51875,1341.25,83.159375C1343.6666666666667,82.8,1346.0833333333333,82.440625,1348.5,82.08125C1350.9166666666667,81.721875,1353.3333333333333,81.3625,1355.75,81.003125C1358.1666666666667,80.64375,1360.5833333333333,80.28437500000001,1363,79.92500000000001C1365.4166666666667,79.56562500000001,1367.8333333333333,79.20625,1370.25,78.846875C1372.6666666666667,78.4875,1375.0833333333333,78.128125,1377.5,77.76875C1379.9166666666667,77.409375,1382.3333333333333,77.05,1384.75,76.690625C1387.1666666666667,76.33125,1389.5833333333333,75.971875,1392,75.6125C1394.4166666666667,75.253125,1396.8333333333333,74.89375000000001,1399.25,74.53437500000001C1401.6666666666667,74.17500000000001,1404.0833333333333,73.815625,1406.5,73.45625C1408.9166666666667,73.096875,1411.3333333333333,72.7375,1413.75,72.378125C1416.1666666666667,72.01875,1418.5833333333333,71.659375,1421,71.3C1423.4166666666667,70.940625,1425.8333333333333,70.58125,1428.25,70.221875C1430.6666666666667,69.8625,1433.0833333333333,69.50312500000001,1435.5,69.14375000000001C1437.9166666666667,68.78437500000001,1440.3333333333333,68.425,1442.75,68.065625C1445.1666666666667,67.70625,1447.5833333333333,67.346875,1450,66.9875" fill="transparent" stroke-linecap="round" stroke="#B6509E" stroke-width="2"></path><path class="visx-linepath" d="M0,112.12499999996406C2.4166666666666665,112.11901041664571,4.833333333333334,112.11302083332734,7.25,112.10703125C9.666666666666666,112.10104166667267,12.083333333333334,112.09505208333334,14.5,112.08906250000001C16.916666666666668,112.08307291666668,19.333333333333332,112.07708333333332,21.75,112.07109374999999C24.166666666666668,112.06510416666666,26.583333333333332,112.05911458333333,29,112.053125C31.416666666666668,112.04713541666666,33.833333333333336,112.04114583333333,36.25,112.03515625C38.666666666666664,112.02916666666667,41.083333333333336,112.02317708333334,43.5,112.0171875C45.91666666666667,112.01119791666667,48.333333333333336,112.00520833333333,50.75000000000001,111.99921875C53.16666666666667,111.99322916666667,55.583333333333336,111.98723958333333,58,111.98125C60.416666666666664,111.97526041666667,62.833333333333336,111.96927083333334,65.25,111.96328125000001C67.66666666666667,111.95729166666668,70.08333333333333,111.95130208333333,72.5,111.9453125C74.91666666666667,111.93932291666667,77.33333333333333,111.93333333333332,79.75,111.92734374999999C82.16666666666667,111.92135416666666,84.58333333333333,111.91536458333333,87,111.909375C89.41666666666667,111.90338541666667,91.83333333333333,111.89739583333333,94.25,111.89140625C96.66666666666667,111.88541666666667,99.08333333333334,111.87942708333333,101.50000000000001,111.8734375C103.91666666666667,111.86744791666666,106.33333333333334,111.86145833333333,108.75,111.85546875C111.16666666666667,111.84947916666667,113.58333333333333,111.84348958333334,116,111.8375C118.41666666666667,111.83151041666667,120.83333333333334,111.82552083333333,123.25000000000001,111.81953125C125.66666666666667,111.81354166666667,128.08333333333334,111.80755208333333,130.5,111.8015625C132.91666666666666,111.79557291666667,135.33333333333334,111.78958333333334,137.75,111.78359375000001C140.16666666666666,111.77760416666668,142.58333333333334,111.77161458333333,145,111.765625C147.41666666666666,111.75963541666667,149.83333333333334,111.75364583333332,152.25,111.74765624999999C154.66666666666666,111.74166666666666,157.08333333333334,111.73567708333333,159.5,111.7296875C161.91666666666666,111.72369791666667,164.33333333333334,111.71770833333333,166.75,111.71171875C169.16666666666666,111.70572916666667,171.58333333333334,111.69973958333333,174,111.69375C176.41666666666666,111.68776041666666,178.83333333333334,111.68177083333333,181.25,111.67578125C183.66666666666666,111.66979166666667,186.08333333333334,111.66380208333334,188.5,111.6578125C190.91666666666666,111.65182291666667,193.33333333333334,111.64583333333334,195.75,111.63984375000001C198.16666666666669,111.63385416666668,200.58333333333334,111.62786458333332,203.00000000000003,111.62187499999999C205.41666666666669,111.61588541666666,207.83333333333331,111.60989583333333,210.24999999999997,111.60390625C212.66666666666666,111.59791666666666,215.08333333333331,111.59192708333333,217.5,111.5859375C219.91666666666666,111.57994791666667,222.33333333333334,111.57395833333334,224.75,111.56796875C227.16666666666666,111.56197916666667,229.58333333333334,111.55598958333333,232,111.55C234.41666666666666,111.54401041666667,236.83333333333334,111.53802083333333,239.25,111.53203125C241.66666666666669,111.52604166666667,244.08333333333334,111.52005208333334,246.50000000000003,111.51406250000001C248.91666666666669,111.50807291666668,251.33333333333331,111.50208333333333,253.74999999999997,111.49609375C256.16666666666663,111.49010416666667,258.5833333333333,111.48411458333332,261,111.47812499999999C263.4166666666667,111.47213541666666,265.8333333333333,111.46614583333333,268.25,111.46015625C270.6666666666667,111.45416666666667,273.0833333333333,111.44817708333333,275.5,111.4421875C277.9166666666667,111.43619791666667,280.3333333333333,111.43020833333333,282.75,111.42421875C285.1666666666667,111.41822916666666,287.5833333333333,111.41223958333333,290,111.40625C292.4166666666667,111.40026041666667,294.8333333333333,111.39427083333334,297.25,111.38828125C299.6666666666667,111.38229166666667,302.0833333333333,111.37630208333333,304.5,111.3703125C306.9166666666667,111.36432291666667,309.3333333333333,111.35833333333333,311.75,111.35234375C314.1666666666667,111.34635416666667,316.5833333333333,111.34036458333334,319,111.33437500000001C321.4166666666667,111.32838541666668,323.8333333333333,111.32239583333333,326.25,111.31640625C328.6666666666667,111.31041666666667,331.0833333333333,111.30442708333332,333.5,111.29843749999999C335.9166666666667,111.29244791666666,338.3333333333333,111.28645833333333,340.75,111.28046875C343.1666666666667,111.27447916666667,345.5833333333333,111.26848958333333,348,111.2625C350.4166666666667,111.25651041666667,352.8333333333333,111.25052083333333,355.25,111.24453125C357.6666666666667,111.23854166666666,360.0833333333333,111.23255208333333,362.5,111.2265625C364.9166666666667,111.22057291666667,367.3333333333333,111.21458333333334,369.75,111.20859375C372.1666666666667,111.20260416666667,374.5833333333333,111.19661458333334,377,111.19062500000001C379.4166666666667,111.18463541666668,381.8333333333333,111.17864583333332,384.25,111.17265624999999C386.6666666666667,111.16666666666666,389.0833333333333,111.16067708333333,391.5,111.1546875C393.9166666666667,111.14869791666666,396.33333333333337,111.14270833333333,398.75000000000006,111.13671875C401.16666666666674,111.13072916666667,403.58333333333337,111.12473958333334,406.00000000000006,111.11875C408.4166666666667,111.11276041666667,410.8333333333333,111.10677083333333,413.24999999999994,111.10078125C415.66666666666663,111.09479166666667,418.08333333333326,111.08880208333333,420.49999999999994,111.0828125C422.91666666666663,111.07682291666667,425.3333333333333,111.07083333333334,427.75,111.06484375000001C430.1666666666667,111.05885416666668,432.5833333333333,111.05286458333333,435,111.046875C437.4166666666667,111.04088541666667,439.8333333333333,111.03489583333332,442.25,111.02890624999999C444.6666666666667,111.02291666666666,447.0833333333333,111.01692708333333,449.5,111.0109375C451.9166666666667,111.00494791666667,454.3333333333333,110.99895833333333,456.75,110.99296875C459.1666666666667,110.98697916666667,461.5833333333333,110.98098958333333,464,110.975C466.4166666666667,110.96901041666666,468.8333333333333,110.96302083333333,471.25,110.95703125C473.6666666666667,110.95104166666667,476.0833333333333,110.94505208333334,478.5,110.9390625C480.9166666666667,110.93307291666667,483.33333333333337,110.92708333333333,485.75000000000006,110.92109375C488.16666666666674,110.91510416666667,490.58333333333337,110.90911458333333,493.00000000000006,110.903125C495.4166666666667,110.89713541666667,497.8333333333333,110.89114583333334,500.24999999999994,110.88515625000001C502.66666666666663,110.87916666666668,505.08333333333326,110.87317708333333,507.49999999999994,110.8671875C509.91666666666663,110.86119791666667,512.3333333333333,110.85520833333332,514.75,110.84921874999999C517.1666666666666,110.84322916666666,519.5833333333334,110.83723958333333,522,110.83125C524.4166666666666,110.82526041666667,526.8333333333334,110.81927083333333,529.25,110.81328125C531.6666666666666,110.80729166666667,534.0833333333334,110.80130208333333,536.5,110.7953125C538.9166666666666,110.78932291666666,541.3333333333334,110.78333333333333,543.75,110.77734375C546.1666666666666,110.77135416666667,548.5833333333334,110.76536458333334,551,110.759375C553.4166666666666,110.75338541666667,555.8333333333334,110.74739583333334,558.25,110.74140625000001C560.6666666666666,110.73541666666668,563.0833333333334,110.72942708333332,565.5,110.72343749999999C567.9166666666666,110.71744791666666,570.3333333333334,110.71145833333333,572.75,110.70546875C575.1666666666666,110.69947916666666,577.5833333333334,110.69348958333333,580,110.6875C582.4166666666666,110.68151041666667,584.8333333333334,110.67552083333334,587.25,110.66953125C589.6666666666666,110.66354166666667,592.0833333333334,110.65755208333333,594.5,110.6515625C596.9166666666666,110.64557291666667,599.3333333333334,110.63958333333333,601.75,110.63359375C604.1666666666666,110.62760416666667,606.5833333333334,110.62161458333334,609,110.61562500000001C611.4166666666666,110.60963541666668,613.8333333333334,110.60364583333333,616.25,110.59765625C618.6666666666666,110.59166666666667,621.0833333333334,110.58567708333332,623.5,110.57968749999999C625.9166666666666,110.57369791666666,628.3333333333334,110.56770833333333,630.75,110.56171875C633.1666666666666,110.55572916666667,635.5833333333334,110.54973958333333,638,110.54375C640.4166666666666,110.53776041666667,642.8333333333334,110.53177083333333,645.25,110.52578125C647.6666666666666,110.51979166666666,650.0833333333334,110.51380208333333,652.5,110.5078125C654.9166666666666,110.50182291666667,657.3333333333334,110.49583333333334,659.75,110.48984375C662.1666666666666,110.48385416666667,664.5833333333334,110.47786458333333,667,110.471875C669.4166666666666,110.46588541666667,671.8333333333334,110.45989583333333,674.25,110.45390625C676.6666666666666,110.44791666666667,679.0833333333334,110.44192708333334,681.5,110.43593750000001C683.9166666666666,110.42994791666668,686.3333333333334,110.42395833333333,688.75,110.41796875C691.1666666666666,110.41197916666667,693.5833333333334,110.40598958333332,696,110.39999999999999C698.4166666666666,110.39401041666666,700.8333333333334,110.38802083333333,703.25,110.38203125C705.6666666666666,110.37604166666667,708.0833333333334,110.37005208333333,710.5,110.3640625C712.9166666666666,110.35807291666667,715.3333333333334,110.35208333333333,717.75,110.34609375C720.1666666666666,110.34010416666666,722.5833333333334,110.33411458333333,725,110.328125C727.4166666666666,110.32213541666667,729.8333333333334,110.31614583333334,732.25,110.31015625C734.6666666666666,110.30416666666667,737.0833333333334,110.29817708333334,739.5,110.29218750000001C741.9166666666666,110.28619791666668,744.3333333333334,110.28020833333332,746.75,110.27421874999999C749.1666666666666,110.26822916666666,751.5833333333334,110.26223958333333,754,110.25625C756.4166666666666,110.25026041666666,758.8333333333334,110.24427083333333,761.25,110.23828125C763.6666666666666,110.23229166666667,766.0833333333334,110.22630208333334,768.5,110.2203125C770.9166666666666,110.21432291666667,773.3333333333334,110.20833333333333,775.75,110.20234375C778.1666666666666,110.19635416666667,780.5833333333334,110.19036458333333,783,110.184375C785.4166666666667,110.17838541666667,787.8333333333334,110.17239583333334,790.2500000000001,110.16640625000001C792.6666666666667,110.16041666666668,795.0833333333335,110.15442708333333,797.5000000000001,110.1484375C799.9166666666667,110.14244791666667,802.3333333333335,110.13645833333332,804.7500000000001,110.13046874999999C807.1666666666667,110.12447916666666,809.5833333333335,110.11848958333333,812.0000000000001,110.1125C814.4166666666667,110.10651041666667,816.8333333333333,110.10052083333333,819.2499999999999,110.09453125C821.6666666666665,110.08854166666667,824.0833333333333,110.08255208333333,826.4999999999999,110.0765625C828.9166666666665,110.07057291666666,831.3333333333333,110.06458333333333,833.7499999999999,110.05859375C836.1666666666665,110.05260416666667,838.5833333333333,110.04661458333334,840.9999999999999,110.040625C843.4166666666666,110.03463541666667,845.8333333333333,110.02864583333333,848.25,110.02265625C850.6666666666666,110.01666666666667,853.0833333333334,110.01067708333333,855.5,110.0046875C857.9166666666666,109.99869791666667,860.3333333333334,109.99270833333334,862.75,109.98671875000001C865.1666666666666,109.98072916666668,867.5833333333334,109.97473958333333,870,109.96875C872.4166666666666,109.96276041666667,874.8333333333334,109.95677083333332,877.25,109.95078124999999C879.6666666666666,109.94479166666666,882.0833333333334,109.93880208333333,884.5,109.9328125C886.9166666666666,109.92682291666667,889.3333333333334,109.92083333333333,891.75,109.91484375C894.1666666666666,109.90885416666667,896.5833333333334,109.90286458333333,899,109.896875C901.4166666666666,109.89088541666666,903.8333333333334,109.88489583333333,906.25,109.87890625C908.6666666666666,109.87291666666667,911.0833333333334,109.86692708333334,913.5,109.8609375C915.9166666666666,109.85494791666667,918.3333333333334,109.84895833333334,920.75,109.84296875000001C923.1666666666666,109.83697916666668,925.5833333333334,109.83098958333332,928,109.82499999999999C930.4166666666666,109.81901041666666,932.8333333333334,109.81302083333333,935.25,109.80703125C937.6666666666666,109.80104166666666,940.0833333333334,109.79505208333333,942.5,109.7890625C944.9166666666666,109.78307291666667,947.3333333333334,109.77708333333334,949.75,109.77109375C952.1666666666666,109.76510416666667,954.5833333333334,109.75911458333333,957,109.753125C959.4166666666666,109.74713541666667,961.8333333333334,109.74114583333333,964.25,109.73515625C966.6666666666667,109.72916666666667,969.0833333333334,109.72317708333334,971.5000000000001,109.71718750000001C973.9166666666667,109.71119791666668,976.3333333333335,109.70520833333333,978.7500000000001,109.69921875C981.1666666666667,109.69322916666667,983.5833333333335,109.68723958333332,986.0000000000001,109.68124999999999C988.4166666666667,109.67526041666666,990.8333333333335,109.66927083333333,993.2500000000001,109.66328125C995.6666666666667,109.65729166666667,998.0833333333333,109.65130208333333,1000.4999999999999,109.6453125C1002.9166666666665,109.63932291666667,1005.3333333333333,109.63333333333333,1007.7499999999999,109.62734375C1010.1666666666665,109.62135416666666,1012.5833333333333,109.61536458333333,1014.9999999999999,109.609375C1017.4166666666665,109.60338541666667,1019.8333333333333,109.59739583333334,1022.2499999999999,109.59140625C1024.6666666666665,109.58541666666667,1027.0833333333333,109.57942708333333,1029.5,109.5734375C1031.9166666666667,109.56744791666667,1034.3333333333333,109.56145833333333,1036.75,109.55546875C1039.1666666666667,109.54947916666667,1041.5833333333333,109.54348958333334,1044,109.53750000000001C1046.4166666666667,109.53151041666668,1048.8333333333333,109.52552083333333,1051.25,109.51953125C1053.6666666666667,109.51354166666667,1056.0833333333333,109.50755208333332,1058.5,109.50156249999999C1060.9166666666667,109.49557291666666,1063.3333333333333,109.48958333333333,1065.75,109.48359375C1068.1666666666667,109.47760416666667,1070.5833333333333,109.47161458333333,1073,109.465625C1075.4166666666667,109.45963541666667,1077.8333333333333,109.45364583333333,1080.25,109.44765625C1082.6666666666667,109.44166666666666,1085.0833333333333,109.43567708333333,1087.5,109.4296875C1089.9166666666667,109.42369791666667,1092.3333333333333,109.41770833333334,1094.75,109.41171875C1097.1666666666667,109.40572916666667,1099.5833333333333,109.39973958333334,1102,109.39375000000001C1104.4166666666667,109.38776041666668,1106.8333333333333,109.38177083333332,1109.25,109.37578124999999C1111.6666666666667,109.36979166666666,1114.0833333333333,109.36380208333333,1116.5,109.3578125C1118.9166666666667,109.35182291666666,1121.3333333333333,109.34583333333333,1123.75,109.33984375C1126.1666666666667,109.33385416666667,1128.5833333333333,109.32786458333334,1131,109.321875C1133.4166666666667,109.31588541666667,1135.8333333333333,109.30989583333333,1138.25,109.30390625C1140.6666666666667,109.29791666666667,1143.0833333333333,109.29192708333333,1145.5,109.2859375C1147.9166666666667,109.27994791666667,1150.3333333333333,109.27395833333334,1152.75,109.26796875000001C1155.1666666666667,109.26197916666668,1157.5833333333333,109.26197916666668,1160,109.25C1162.4166666666667,109.23802083333332,1164.8333333333333,107.8125,1167.25,107.09375C1169.6666666666667,106.375,1172.0833333333333,105.65625,1174.5,104.9375C1176.9166666666667,104.21875,1179.3333333333333,103.5,1181.75,102.78125C1184.1666666666667,102.0625,1186.5833333333333,101.34375,1189,100.625C1191.4166666666667,99.90625,1193.8333333333333,99.1875,1196.25,98.46875C1198.6666666666667,97.75,1201.0833333333333,97.03125,1203.5,96.3125C1205.9166666666667,95.59375,1208.3333333333333,94.875,1210.75,94.15625C1213.1666666666667,93.4375,1215.5833333333333,92.71875,1218,92C1220.4166666666667,91.28125,1222.8333333333333,90.5625,1225.25,89.84375C1227.6666666666667,89.125,1230.0833333333333,88.40625,1232.5,87.6875C1234.9166666666667,86.96875,1237.3333333333333,86.25,1239.75,85.53125C1242.1666666666667,84.8125,1244.5833333333333,84.09375,1247,83.375C1249.4166666666667,82.65625,1251.8333333333333,81.9375,1254.25,81.21875C1256.6666666666667,80.5,1259.0833333333333,79.78125,1261.5,79.0625C1263.9166666666667,78.34375,1266.3333333333333,77.625,1268.75,76.90625C1271.1666666666667,76.1875,1273.5833333333333,75.46875,1276,74.75C1278.4166666666667,74.03125,1280.8333333333333,73.3125,1283.25,72.59375C1285.6666666666667,71.875,1288.0833333333333,71.15625,1290.5,70.4375C1292.9166666666667,69.71875,1295.3333333333333,69,1297.75,68.28125C1300.1666666666667,67.5625,1302.5833333333333,66.84375,1305,66.125C1307.4166666666667,65.40625,1309.8333333333333,64.6875,1312.25,63.96875C1314.6666666666667,63.25,1317.0833333333333,62.53125,1319.5,61.8125C1321.9166666666667,61.09375,1324.3333333333333,60.37500000000001,1326.75,59.65625000000001C1329.1666666666667,58.93750000000001,1331.5833333333333,58.21875,1334,57.5C1336.4166666666667,56.78125,1338.8333333333333,56.06249999999999,1341.25,55.34374999999999C1343.6666666666667,54.62499999999999,1346.0833333333333,53.90625,1348.5,53.1875C1350.9166666666667,52.46875,1353.3333333333333,51.75,1355.75,51.03125C1358.1666666666667,50.3125,1360.5833333333333,49.59375000000001,1363,48.87500000000001C1365.4166666666667,48.15625000000001,1367.8333333333333,47.4375,1370.25,46.71875C1372.6666666666667,46,1375.0833333333333,45.28124999999999,1377.5,44.56249999999999C1379.9166666666667,43.84374999999999,1382.3333333333333,43.125,1384.75,42.40625C1387.1666666666667,41.6875,1389.5833333333333,40.96875,1392,40.25C1394.4166666666667,39.53125,1396.8333333333333,38.81250000000001,1399.25,38.09375000000001C1401.6666666666667,37.37500000000001,1404.0833333333333,36.65625,1406.5,35.9375C1408.9166666666667,35.21875,1411.3333333333333,34.49999999999999,1413.75,33.78124999999999C1416.1666666666667,33.06249999999999,1418.5833333333333,32.34375,1421,31.625000000000004C1423.4166666666667,30.906250000000004,1425.8333333333333,30.187499999999996,1428.25,29.468749999999996C1430.6666666666667,28.749999999999996,1433.0833333333333,28.031250000000004,1435.5,27.312500000000004C1437.9166666666667,26.593750000000004,1440.3333333333333,25.875,1442.75,25.15625C1445.1666666666667,24.4375,1447.5833333333333,23.718749999999996,1450,22.999999999999996" fill="transparent" stroke-linecap="round" stroke="#E7C6DF" stroke-width="2"></path><g class="visx-group visx-axis visx-axis-bottom" transform="translate(0, 115)"><g class="visx-group visx-axis-tick" transform="translate(0, 0)"><line class="visx-line" x1="0" y1="0" x2="0" y2="8" fill="transparent" shape-rendering="crispEdges" stroke="#000" stroke-width="0" stroke-linecap="square"></line><svg x="0" y="0" font-size="10" style="overflow:visible"><text transform="" x="0" y="18" fill="#000" font-size="10" text-anchor="middle"><tspan x="0" dy="0em">0%</tspan></text></svg></g><g class="visx-group visx-axis-tick" transform="translate(0, 0)"><line class="visx-line" x1="362.5" y1="0" x2="362.5" y2="8" fill="transparent" shape-rendering="crispEdges" stroke="#000" stroke-width="0" stroke-linecap="square"></line><svg x="0" y="0" font-size="10" style="overflow:visible"><text transform="" x="362.5" y="18" fill="#000" font-size="10" text-anchor="middle"><tspan x="362.5" dy="0em">25%</tspan></text></svg></g><g class="visx-group visx-axis-tick" transform="translate(0, 0)"><line class="visx-line" x1="725" y1="0" x2="725" y2="8" fill="transparent" shape-rendering="crispEdges" stroke="#000" stroke-width="0" stroke-linecap="square"></line><svg x="0" y="0" font-size="10" style="overflow:visible"><text transform="" x="725" y="18" fill="#000" font-size="10" text-anchor="middle"><tspan x="725" dy="0em">50%</tspan></text></svg></g><g class="visx-group visx-axis-tick" transform="translate(0, 0)"><line class="visx-line" x1="1087.5" y1="0" x2="1087.5" y2="8" fill="transparent" shape-rendering="crispEdges" stroke="#000" stroke-width="0" stroke-linecap="square"></line><svg x="0" y="0" font-size="10" style="overflow:visible"><text transform="" x="1087.5" y="18" fill="#000" font-size="10" text-anchor="middle"><tspan x="1087.5" dy="0em">75%</tspan></text></svg></g><g class="visx-group visx-axis-tick" transform="translate(0, 0)"><line class="visx-line" x1="1450" y1="0" x2="1450" y2="8" fill="transparent" shape-rendering="crispEdges" stroke="#000" stroke-width="0" stroke-linecap="square"></line><svg x="0" y="0" font-size="10" style="overflow:visible"><text transform="" x="1450" y="18" fill="#000" font-size="10" text-anchor="middle"><tspan x="1450" dy="0em">100%</tspan></text></svg></g><line class="visx-line visx-axis-line" x1="0.5" y1="0" x2="1450.5" y2="0" fill="transparent" shape-rendering="crispEdges" stroke="#222" stroke-width="0"></line></g><g class="visx-group visx-axis visx-axis-left" transform="translate(0, 0)"><g class="visx-group visx-axis-tick" transform="translate(0, 0)"><line class="visx-line" x1="0" y1="115" x2="-8" y2="115" fill="transparent" shape-rendering="crispEdges" stroke="#222" stroke-width="0" stroke-linecap="square"></line><svg x="-30" y="0" font-size="8" style="overflow:visible"><text transform="" x="-8" y="115" fill="#000" font-size="8" text-anchor="start"><tspan x="-8" dy="0em">0%</tspan></text></svg></g><g class="visx-group visx-axis-tick" transform="translate(0, 0)"><line class="visx-line" x1="0" y1="57.5" x2="-8" y2="57.5" fill="transparent" shape-rendering="crispEdges" stroke="#222" stroke-width="0" stroke-linecap="square"></line><svg x="-30" y="0" font-size="8" style="overflow:visible"><text transform="" x="-8" y="57.5" fill="#000" font-size="8" text-anchor="start"><tspan x="-8" dy="0em">200%</tspan></text></svg></g><g class="visx-group visx-axis-tick" transform="translate(0, 0)"><line class="visx-line" x1="0" y1="0" x2="-8" y2="0" fill="transparent" shape-rendering="crispEdges" stroke="#222" stroke-width="0" stroke-linecap="square"></line><svg x="-30" y="0" font-size="8" style="overflow:visible"><text transform="" x="-8" y="0" fill="#000" font-size="8" text-anchor="start"><tspan x="-8" dy="0em">400%</tspan></text></svg></g><line class="visx-line visx-axis-line" x1="0" y1="115.5" x2="0" y2="0.5" fill="transparent" shape-rendering="crispEdges" stroke="#222" stroke-width="0"></line></g><rect class="visx-bar" width="1450" height="115" fill="transparent"></rect><line class="visx-line" x1="1160" y1="28" x2="1160" y2="115" fill="transparent" shape-rendering="crispEdges" stroke="#0062D2" stroke-width="1" pointer-events="none" stroke-dasharray="5,2"></line><svg x="0" y="0" font-size="10px" style="overflow:visible"><text transform="" x="1160" y="20" font-size="10px" fill="#fff" stroke="#fff" stroke-width="0.8em" text-anchor="middle"><tspan x="1160" dy="0.355em">Optimal 80%</tspan></text></svg><svg x="0" y="0" font-size="10px" style="overflow:visible"><text transform="" x="1160" y="20" font-size="10px" fill="#62677B" text-anchor="middle"><tspan x="1160" dy="0.355em">Optimal 80%</tspan></text></svg></g></svg>