<?xml version="1.0"?><svg xmlns="http://www.w3.org/2000/svg" xmlns:xlink= "http://www.w3.org/1999/xlink" style="background: white;" width="1500" height="185"> <g style="color: black; font-size: 13px; font-family: sans-serif; transform: translate(18px, 25px);"><g><circle r="3" cx="-6" cy="-5" style="fill: #B6509E" /><text>Borrow APR, variable</text></g><g style="transform: translateX(150px);"><circle r="3" cx="-6" cy="-5" style="fill: rgb(231, 198, 223)" /><text>Borrow APR, stable</text></g><g style="transform: translateX(290px);"><circle r="3" cx="-6" cy="-5" style="fill: rgb(0, 98, 210)" /><text>Utilization Rate</text></g></g><g class="visx-group" transform="translate(40, 50)"><g class="visx-group visx-rows" transform="translate(0, 0)"><line class="visx-line" x1="0" y1="115" x2="1450" y2="115" fill="transparent" shape-rendering="crispEdges" stroke="#000" stroke-width="1" stroke-dasharray="3,3" pointer-events="none"></line><line class="visx-line" x1="0" y1="86.25" x2="1450" y2="86.25" fill="transparent" shape-rendering="crispEdges" stroke="#000" stroke-width="1" stroke-dasharray="3,3" pointer-events="none"></line><line class="visx-line" x1="0" y1="57.5" x2="1450" y2="57.5" fill="transparent" shape-rendering="crispEdges" stroke="#000" stroke-width="1" stroke-dasharray="3,3" pointer-events="none"></line><line class="visx-line" x1="0" y1="28.75" x2="1450" y2="28.75" fill="transparent" shape-rendering="crispEdges" stroke="#000" stroke-width="1" stroke-dasharray="3,3" pointer-events="none"></line><line class="visx-line" x1="0" y1="0" x2="1450" y2="0" fill="transparent" shape-rendering="crispEdges" stroke="#000" stroke-width="1" stroke-dasharray="3,3" pointer-events="none"></line></g><path class="visx-linepath" d="M0,114.99999999995528C2.4166666666666665,114.9925462962702,4.833333333333334,114.98509259258512,7.25,114.97763888888888C9.666666666666666,114.97018518519263,12.083333333333334,114.96273148148148,14.5,114.95527777777778C16.916666666666668,114.94782407407408,19.333333333333332,114.94037037037036,21.75,114.93291666666666C24.166666666666668,114.92546296296295,26.583333333333332,114.91800925925926,29,114.91055555555556C31.416666666666668,114.90310185185186,33.833333333333336,114.89564814814814,36.25,114.88819444444444C38.666666666666664,114.88074074074073,41.083333333333336,114.87328703703704,43.5,114.86583333333334C45.91666666666667,114.85837962962964,48.333333333333336,114.85092592592592,50.75000000000001,114.84347222222222C53.16666666666667,114.83601851851851,55.583333333333336,114.82856481481481,58,114.82111111111111C60.416666666666664,114.8136574074074,62.833333333333336,114.8062037037037,65.25,114.79875C67.66666666666667,114.7912962962963,70.08333333333333,114.78384259259259,72.5,114.77638888888889C74.91666666666667,114.76893518518519,77.33333333333333,114.76148148148148,79.75,114.75402777777778C82.16666666666667,114.74657407407408,84.58333333333333,114.73912037037037,87,114.73166666666667C89.41666666666667,114.72421296296297,91.83333333333333,114.71675925925926,94.25,114.70930555555556C96.66666666666667,114.70185185185186,99.08333333333334,114.69439814814815,101.50000000000001,114.68694444444445C103.91666666666667,114.67949074074075,106.33333333333334,114.67203703703703,108.75,114.66458333333333C111.16666666666667,114.65712962962962,113.58333333333333,114.64967592592593,116,114.64222222222223C118.41666666666667,114.63476851851853,120.83333333333334,114.62731481481481,123.25000000000001,114.6198611111111C125.66666666666667,114.6124074074074,128.08333333333334,114.60495370370371,130.5,114.59750000000001C132.91666666666666,114.59004629629631,135.33333333333334,114.58259259259259,137.75,114.57513888888889C140.16666666666666,114.56768518518518,142.58333333333334,114.56023148148148,145,114.55277777777778C147.41666666666666,114.54532407407407,149.83333333333334,114.53787037037037,152.25,114.53041666666667C154.66666666666666,114.52296296296296,157.08333333333334,114.51550925925925,159.5,114.50805555555554C161.91666666666666,114.50060185185184,164.33333333333334,114.49314814814815,166.75,114.48569444444445C169.16666666666666,114.47824074074074,171.58333333333334,114.47078703703703,174,114.46333333333332C176.41666666666666,114.45587962962962,178.83333333333334,114.44842592592593,181.25,114.44097222222223C183.66666666666666,114.43351851851853,186.08333333333334,114.42606481481481,188.5,114.4186111111111C190.91666666666666,114.4111574074074,193.33333333333334,114.40370370370371,195.75,114.39625000000001C198.16666666666669,114.3887962962963,200.58333333333334,114.38134259259259,203.00000000000003,114.37388888888889C205.41666666666669,114.36643518518518,207.83333333333331,114.35898148148148,210.24999999999997,114.35152777777778C212.66666666666666,114.34407407407407,215.08333333333331,114.33662037037037,217.5,114.32916666666667C219.91666666666666,114.32171296296296,222.33333333333334,114.31425925925926,224.75,114.30680555555556C227.16666666666666,114.29935185185185,229.58333333333334,114.29189814814815,232,114.28444444444445C234.41666666666666,114.27699074074074,236.83333333333334,114.26953703703704,239.25,114.26208333333334C241.66666666666669,114.25462962962963,244.08333333333334,114.24717592592593,246.50000000000003,114.23972222222223C248.91666666666669,114.23226851851852,251.33333333333331,114.22481481481482,253.74999999999997,114.21736111111112C256.16666666666663,114.20990740740741,258.5833333333333,114.2024537037037,261,114.195C263.4166666666667,114.18754629629629,265.8333333333333,114.1800925925926,268.25,114.1726388888889C270.6666666666667,114.1651851851852,273.0833333333333,114.15773148148148,275.5,114.15027777777777C277.9166666666667,114.14282407407407,280.3333333333333,114.13537037037037,282.75,114.12791666666666C285.1666666666667,114.12046296296296,287.5833333333333,114.11300925925926,290,114.10555555555555C292.4166666666667,114.09810185185185,294.8333333333333,114.09064814814815,297.25,114.08319444444444C299.6666666666667,114.07574074074074,302.0833333333333,114.06828703703704,304.5,114.06083333333333C306.9166666666667,114.05337962962963,309.3333333333333,114.04592592592591,311.75,114.03847222222221C314.1666666666667,114.03101851851851,316.5833333333333,114.02356481481482,319,114.01611111111112C321.4166666666667,114.00865740740741,323.8333333333333,114.0012037037037,326.25,113.99374999999999C328.6666666666667,113.98629629629629,331.0833333333333,113.9788425925926,333.5,113.9713888888889C335.9166666666667,113.96393518518519,338.3333333333333,113.95648148148148,340.75,113.94902777777777C343.1666666666667,113.94157407407407,345.5833333333333,113.93412037037038,348,113.92666666666668C350.4166666666667,113.91921296296297,352.8333333333333,113.91175925925926,355.25,113.90430555555555C357.6666666666667,113.89685185185185,360.0833333333333,113.88939814814815,362.5,113.88194444444444C364.9166666666667,113.87449074074074,367.3333333333333,113.86703703703704,369.75,113.85958333333333C372.1666666666667,113.85212962962963,374.5833333333333,113.84467592592593,377,113.83722222222222C379.4166666666667,113.82976851851852,381.8333333333333,113.82231481481482,384.25,113.81486111111111C386.6666666666667,113.80740740740741,389.0833333333333,113.79995370370371,391.5,113.7925C393.9166666666667,113.7850462962963,396.33333333333337,113.7775925925926,398.75000000000006,113.7701388888889C401.16666666666674,113.76268518518519,403.58333333333337,113.75523148148149,406.00000000000006,113.74777777777778C408.4166666666667,113.74032407407408,410.8333333333333,113.73287037037036,413.24999999999994,113.72541666666666C415.66666666666663,113.71796296296296,418.08333333333326,113.71050925925925,420.49999999999994,113.70305555555555C422.91666666666663,113.69560185185185,425.3333333333333,113.68814814814814,427.75,113.68069444444444C430.1666666666667,113.67324074074074,432.5833333333333,113.66578703703703,435,113.65833333333333C437.4166666666667,113.65087962962963,439.8333333333333,113.64342592592592,442.25,113.63597222222222C444.6666666666667,113.62851851851852,447.0833333333333,113.62106481481482,449.5,113.61361111111111C451.9166666666667,113.60615740740741,454.3333333333333,113.5987037037037,456.75,113.59125C459.1666666666667,113.5837962962963,461.5833333333333,113.57634259259258,464,113.56888888888888C466.4166666666667,113.56143518518518,468.8333333333333,113.55398148148149,471.25,113.54652777777778C473.6666666666667,113.53907407407408,476.0833333333333,113.53162037037036,478.5,113.52416666666666C480.9166666666667,113.51671296296296,483.33333333333337,113.50925925925927,485.75000000000006,113.50180555555556C488.16666666666674,113.49435185185186,490.58333333333337,113.48689814814814,493.00000000000006,113.47944444444444C495.4166666666667,113.47199074074074,497.8333333333333,113.46453703703705,500.24999999999994,113.45708333333334C502.66666666666663,113.44962962962964,505.08333333333326,113.44217592592592,507.49999999999994,113.43472222222222C509.91666666666663,113.42726851851852,512.3333333333333,113.41981481481481,514.75,113.41236111111111C517.1666666666666,113.4049074074074,519.5833333333334,113.3974537037037,522,113.39C524.4166666666666,113.3825462962963,526.8333333333334,113.3750925925926,529.25,113.36763888888889C531.6666666666666,113.36018518518519,534.0833333333334,113.35273148148148,536.5,113.34527777777778C538.9166666666666,113.33782407407408,541.3333333333334,113.33037037037037,543.75,113.32291666666667C546.1666666666666,113.31546296296297,548.5833333333334,113.30800925925926,551,113.30055555555556C553.4166666666666,113.29310185185186,555.8333333333334,113.28564814814814,558.25,113.27819444444444C560.6666666666666,113.27074074074073,563.0833333333334,113.26328703703703,565.5,113.25583333333333C567.9166666666666,113.24837962962962,570.3333333333334,113.24092592592592,572.75,113.23347222222222C575.1666666666666,113.22601851851852,577.5833333333334,113.21856481481481,580,113.21111111111111C582.4166666666666,113.2036574074074,584.8333333333334,113.1962037037037,587.25,113.18875C589.6666666666666,113.1812962962963,592.0833333333334,113.17384259259259,594.5,113.16638888888889C596.9166666666666,113.15893518518519,599.3333333333334,113.15148148148148,601.75,113.14402777777778C604.1666666666666,113.13657407407408,606.5833333333334,113.12912037037037,609,113.12166666666667C611.4166666666666,113.11421296296297,613.8333333333334,113.10675925925925,616.25,113.09930555555555C618.6666666666666,113.09185185185184,621.0833333333334,113.08439814814815,623.5,113.07694444444445C625.9166666666666,113.06949074074075,628.3333333333334,113.06203703703703,630.75,113.05458333333333C633.1666666666666,113.04712962962962,635.5833333333334,113.03967592592593,638,113.03222222222223C640.4166666666666,113.02476851851853,642.8333333333334,113.01731481481481,645.25,113.0098611111111C647.6666666666666,113.0024074074074,650.0833333333334,113.0024074074074,652.5,112.98750000000001C654.9166666666666,112.97259259259262,657.3333333333334,112.46477272727273,659.75,112.20340909090909C662.1666666666666,111.94204545454545,664.5833333333334,111.68068181818182,667,111.41931818181818C669.4166666666666,111.15795454545454,671.8333333333334,110.89659090909092,674.25,110.63522727272728C676.6666666666666,110.37386363636364,679.0833333333334,110.1125,681.5,109.85113636363636C683.9166666666666,109.58977272727272,686.3333333333334,109.32840909090908,688.75,109.06704545454545C691.1666666666666,108.80568181818182,693.5833333333334,108.5443181818182,696,108.28295454545456C698.4166666666666,108.02159090909092,700.8333333333334,107.76022727272728,703.25,107.49886363636364C705.6666666666666,107.2375,708.0833333333334,106.97613636363637,710.5,106.71477272727273C712.9166666666666,106.45340909090909,715.3333333333334,106.19204545454546,717.75,105.93068181818182C720.1666666666666,105.66931818181818,722.5833333333334,105.40795454545454,725,105.1465909090909C727.4166666666666,104.88522727272726,729.8333333333334,104.62386363636364,732.25,104.3625C734.6666666666666,104.10113636363636,737.0833333333334,103.83977272727273,739.5,103.57840909090909C741.9166666666666,103.31704545454545,744.3333333333334,103.05568181818181,746.75,102.79431818181817C749.1666666666666,102.53295454545453,751.5833333333334,102.27159090909089,754,102.01022727272726C756.4166666666666,101.74886363636364,758.8333333333334,101.48750000000001,761.25,101.22613636363637C763.6666666666666,100.96477272727273,766.0833333333334,100.70340909090909,768.5,100.44204545454545C770.9166666666666,100.18068181818181,773.3333333333334,99.91931818181818,775.75,99.65795454545454C778.1666666666666,99.3965909090909,780.5833333333334,99.13522727272728,783,98.87386363636364C785.4166666666667,98.6125,787.8333333333334,98.35113636363637,790.2500000000001,98.08977272727273C792.6666666666667,97.82840909090909,795.0833333333335,97.56704545454546,797.5000000000001,97.30568181818182C799.9166666666667,97.04431818181818,802.3333333333335,96.78295454545456,804.7500000000001,96.52159090909092C807.1666666666667,96.26022727272728,809.5833333333335,95.99886363636364,812.0000000000001,95.7375C814.4166666666667,95.47613636363636,816.8333333333333,95.21477272727272,819.2499999999999,94.95340909090909C821.6666666666665,94.69204545454545,824.0833333333333,94.43068181818182,826.4999999999999,94.16931818181818C828.9166666666665,93.90795454545454,831.3333333333333,93.6465909090909,833.7499999999999,93.38522727272726C836.1666666666665,93.12386363636362,838.5833333333333,92.8625,840.9999999999999,92.60113636363636C843.4166666666666,92.33977272727272,845.8333333333333,92.07840909090909,848.25,91.81704545454545C850.6666666666666,91.55568181818181,853.0833333333334,91.29431818181818,855.5,91.03295454545454C857.9166666666666,90.7715909090909,860.3333333333334,90.51022727272728,862.75,90.24886363636364C865.1666666666666,89.9875,867.5833333333334,89.72613636363637,870,89.46477272727273C872.4166666666666,89.20340909090909,874.8333333333334,88.94204545454545,877.25,88.68068181818181C879.6666666666666,88.41931818181817,882.0833333333334,88.15795454545454,884.5,87.8965909090909C886.9166666666666,87.63522727272726,889.3333333333334,87.37386363636365,891.75,87.11250000000001C894.1666666666666,86.85113636363637,896.5833333333334,86.58977272727273,899,86.32840909090909C901.4166666666666,86.06704545454545,903.8333333333334,85.80568181818182,906.25,85.54431818181818C908.6666666666666,85.28295454545454,911.0833333333334,85.02159090909092,913.5,84.76022727272728C915.9166666666666,84.49886363636364,918.3333333333334,84.2375,920.75,83.97613636363636C923.1666666666666,83.71477272727272,925.5833333333334,83.45340909090909,928,83.19204545454545C930.4166666666666,82.93068181818181,932.8333333333334,82.66931818181818,935.25,82.40795454545454C937.6666666666666,82.1465909090909,940.0833333333334,81.88522727272728,942.5,81.62386363636364C944.9166666666666,81.3625,947.3333333333334,81.10113636363636,949.75,80.83977272727272C952.1666666666666,80.57840909090908,954.5833333333334,80.31704545454545,957,80.05568181818181C959.4166666666666,79.79431818181817,961.8333333333334,79.53295454545454,964.25,79.2715909090909C966.6666666666667,79.01022727272726,969.0833333333334,78.74886363636364,971.5000000000001,78.4875C973.9166666666667,78.22613636363636,976.3333333333335,77.96477272727272,978.7500000000001,77.70340909090908C981.1666666666667,77.44204545454544,983.5833333333335,77.18068181818182,986.0000000000001,76.91931818181818C988.4166666666667,76.65795454545454,990.8333333333335,76.39659090909092,993.2500000000001,76.13522727272728C995.6666666666667,75.87386363636365,998.0833333333333,75.61250000000001,1000.4999999999999,75.35113636363637C1002.9166666666665,75.08977272727273,1005.3333333333333,74.82840909090909,1007.7499999999999,74.56704545454545C1010.1666666666665,74.30568181818181,1012.5833333333333,74.04431818181818,1014.9999999999999,73.78295454545454C1017.4166666666665,73.5215909090909,1019.8333333333333,73.26022727272728,1022.2499999999999,72.99886363636364C1024.6666666666665,72.7375,1027.0833333333333,72.47613636363637,1029.5,72.21477272727273C1031.9166666666667,71.95340909090909,1034.3333333333333,71.69204545454545,1036.75,71.43068181818181C1039.1666666666667,71.16931818181817,1041.5833333333333,70.90795454545454,1044,70.6465909090909C1046.4166666666667,70.38522727272726,1048.8333333333333,70.12386363636364,1051.25,69.8625C1053.6666666666667,69.60113636363636,1056.0833333333333,69.33977272727273,1058.5,69.07840909090909C1060.9166666666667,68.81704545454545,1063.3333333333333,68.55568181818184,1065.75,68.2943181818182C1068.1666666666667,68.03295454545456,1070.5833333333333,67.77159090909092,1073,67.51022727272728C1075.4166666666667,67.24886363636364,1077.8333333333333,66.98750000000001,1080.25,66.72613636363637C1082.6666666666667,66.46477272727273,1085.0833333333333,66.2034090909091,1087.5,65.94204545454546C1089.9166666666667,65.68068181818182,1092.3333333333333,65.4193181818182,1094.75,65.15795454545456C1097.1666666666667,64.89659090909092,1099.5833333333333,64.63522727272728,1102,64.37386363636364C1104.4166666666667,64.1125,1106.8333333333333,63.85113636363637,1109.25,63.58977272727273C1111.6666666666667,63.32840909090909,1114.0833333333333,63.06704545454545,1116.5,62.80568181818182C1118.9166666666667,62.544318181818184,1121.3333333333333,62.282954545454544,1123.75,62.02159090909091C1126.1666666666667,61.76022727272728,1128.5833333333333,61.49886363636364,1131,61.2375C1133.4166666666667,60.97613636363636,1135.8333333333333,60.71477272727272,1138.25,60.45340909090908C1140.6666666666667,60.19204545454545,1143.0833333333333,59.93068181818181,1145.5,59.66931818181818C1147.9166666666667,59.407954545454544,1150.3333333333333,59.1465909090909,1152.75,58.88522727272726C1155.1666666666667,58.62386363636363,1157.5833333333333,58.3625,1160,58.101136363636364C1162.4166666666667,57.83977272727273,1164.8333333333333,57.57840909090909,1167.25,57.31704545454546C1169.6666666666667,57.055681818181824,1172.0833333333333,56.794318181818184,1174.5,56.532954545454544C1176.9166666666667,56.271590909090904,1179.3333333333333,56.01022727272726,1181.75,55.74886363636363C1184.1666666666667,55.4875,1186.5833333333333,55.22613636363636,1189,54.964772727272724C1191.4166666666667,54.70340909090909,1193.8333333333333,54.44204545454546,1196.25,54.180681818181824C1198.6666666666667,53.91931818181819,1201.0833333333333,53.657954545454544,1203.5,53.39659090909091C1205.9166666666667,53.13522727272728,1208.3333333333333,52.87386363636364,1210.75,52.612500000000004C1213.1666666666667,52.35113636363637,1215.5833333333333,52.08977272727273,1218,51.82840909090909C1220.4166666666667,51.56704545454545,1222.8333333333333,51.30568181818181,1225.25,51.04431818181818C1227.6666666666667,50.782954545454544,1230.0833333333333,50.521590909090904,1232.5,50.26022727272727C1234.9166666666667,49.99886363636364,1237.3333333333333,49.73749999999999,1239.75,49.47613636363636C1242.1666666666667,49.214772727272724,1244.5833333333333,48.95340909090909,1247,48.69204545454546C1249.4166666666667,48.430681818181824,1251.8333333333333,48.169318181818184,1254.25,47.90795454545455C1256.6666666666667,47.64659090909092,1259.0833333333333,47.38522727272728,1261.5,47.12386363636364C1263.9166666666667,46.8625,1266.3333333333333,46.60113636363636,1268.75,46.339772727272724C1271.1666666666667,46.07840909090909,1273.5833333333333,45.81704545454545,1276,45.55568181818182C1278.4166666666667,45.294318181818184,1280.8333333333333,45.032954545454544,1283.25,44.771590909090904C1285.6666666666667,44.51022727272726,1288.0833333333333,44.24886363636363,1290.5,43.9875C1292.9166666666667,43.726136363636364,1295.3333333333333,43.46477272727273,1297.75,43.2034090909091C1300.1666666666667,42.942045454545465,1302.5833333333333,42.680681818181824,1305,42.419318181818184C1307.4166666666667,42.157954545454544,1309.8333333333333,41.89659090909092,1312.25,41.63522727272728C1314.6666666666667,41.37386363636364,1317.0833333333333,41.11249999999999,1319.5,40.85113636363635C1321.9166666666667,40.58977272727271,1324.3333333333333,40.32840909090908,1326.75,40.06704545454545C1329.1666666666667,39.80568181818182,1331.5833333333333,39.544318181818184,1334,39.282954545454544C1336.4166666666667,39.021590909090904,1338.8333333333333,38.76022727272726,1341.25,38.49886363636363C1343.6666666666667,38.2375,1346.0833333333333,37.97613636363637,1348.5,37.71477272727273C1350.9166666666667,37.45340909090909,1353.3333333333333,37.19204545454545,1355.75,36.93068181818181C1358.1666666666667,36.66931818181817,1360.5833333333333,36.407954545454544,1363,36.14659090909091C1365.4166666666667,35.88522727272728,1367.8333333333333,35.62386363636364,1370.25,35.3625C1372.6666666666667,35.10113636363636,1375.0833333333333,34.83977272727273,1377.5,34.57840909090909C1379.9166666666667,34.31704545454545,1382.3333333333333,34.0556818181818,1384.75,33.79431818181816C1387.1666666666667,33.53295454545452,1389.5833333333333,33.2715909090909,1392,33.01022727272726C1394.4166666666667,32.74886363636363,1396.8333333333333,32.487500000000004,1399.25,32.22613636363637C1401.6666666666667,31.964772727272738,1404.0833333333333,31.703409090909094,1406.5,31.442045454545458C1408.9166666666667,31.18068181818182,1411.3333333333333,30.919318181818188,1413.75,30.657954545454547C1416.1666666666667,30.396590909090907,1418.5833333333333,30.13522727272726,1421,29.873863636363623C1423.4166666666667,29.612499999999986,1425.8333333333333,29.351136363636357,1428.25,29.089772727272724C1430.6666666666667,28.82840909090909,1433.0833333333333,28.56704545454545,1435.5,28.305681818181814C1437.9166666666667,28.044318181818177,1440.3333333333333,27.782954545454537,1442.75,27.521590909090904C1445.1666666666667,27.26022727272727,1447.5833333333333,26.998863636363637,1450,26.737500000000004" fill="transparent" stroke-linecap="round" stroke="#B6509E" stroke-width="2"></path><path class="visx-linepath" d="M0,112.12499999991694C2.4166666666666665,112.11115740735895,4.833333333333334,112.09731481480097,7.25,112.08347222222221C9.666666666666666,112.06962962964346,12.083333333333334,112.05578703703705,14.5,112.04194444444445C16.916666666666668,112.02810185185186,19.333333333333332,112.01425925925926,21.75,112.00041666666667C24.166666666666668,111.98657407407407,26.583333333333332,111.97273148148147,29,111.95888888888888C31.416666666666668,111.94504629629628,33.833333333333336,111.93120370370372,36.25,111.91736111111112C38.666666666666664,111.90351851851852,41.083333333333336,111.88967592592593,43.5,111.87583333333333C45.91666666666667,111.86199074074074,48.333333333333336,111.84814814814814,50.75000000000001,111.83430555555555C53.16666666666667,111.82046296296295,55.583333333333336,111.80662037037038,58,111.79277777777779C60.416666666666664,111.77893518518519,62.833333333333336,111.7650925925926,65.25,111.75125C67.66666666666667,111.7374074074074,70.08333333333333,111.72356481481481,72.5,111.70972222222221C74.91666666666667,111.69587962962962,77.33333333333333,111.68203703703705,79.75,111.66819444444445C82.16666666666667,111.65435185185186,84.58333333333333,111.64050925925926,87,111.62666666666667C89.41666666666667,111.61282407407407,91.83333333333333,111.59898148148149,94.25,111.58513888888889C96.66666666666667,111.5712962962963,99.08333333333334,111.55745370370371,101.50000000000001,111.54361111111112C103.91666666666667,111.52976851851852,106.33333333333334,111.51592592592593,108.75,111.50208333333333C111.16666666666667,111.48824074074074,113.58333333333333,111.47439814814815,116,111.46055555555556C118.41666666666667,111.44671296296296,120.83333333333334,111.43287037037037,123.25000000000001,111.41902777777777C125.66666666666667,111.40518518518518,128.08333333333334,111.3913425925926,130.5,111.3775C132.91666666666666,111.3636574074074,135.33333333333334,111.34981481481482,137.75,111.33597222222222C140.16666666666666,111.32212962962963,142.58333333333334,111.30828703703703,145,111.29444444444444C147.41666666666666,111.28060185185184,149.83333333333334,111.26675925925926,152.25,111.25291666666666C154.66666666666666,111.23907407407407,157.08333333333334,111.22523148148149,159.5,111.21138888888889C161.91666666666666,111.1975462962963,164.33333333333334,111.1837037037037,166.75,111.1698611111111C169.16666666666666,111.15601851851851,171.58333333333334,111.14217592592594,174,111.12833333333334C176.41666666666666,111.11449074074075,178.83333333333334,111.10064814814815,181.25,111.08680555555556C183.66666666666666,111.07296296296296,186.08333333333334,111.05912037037037,188.5,111.04527777777777C190.91666666666666,111.03143518518517,193.33333333333334,111.01759259259259,195.75,111.00375C198.16666666666669,110.9899074074074,200.58333333333334,110.97606481481482,203.00000000000003,110.96222222222222C205.41666666666669,110.94837962962963,207.83333333333331,110.93453703703703,210.24999999999997,110.92069444444444C212.66666666666666,110.90685185185184,215.08333333333331,110.89300925925926,217.5,110.87916666666666C219.91666666666666,110.86532407407407,222.33333333333334,110.85148148148149,224.75,110.83763888888889C227.16666666666666,110.8237962962963,229.58333333333334,110.80995370370371,232,110.79611111111112C234.41666666666666,110.78226851851852,236.83333333333334,110.76842592592592,239.25,110.75458333333333C241.66666666666669,110.74074074074073,244.08333333333334,110.72689814814815,246.50000000000003,110.71305555555556C248.91666666666669,110.69921296296296,251.33333333333331,110.68537037037038,253.74999999999997,110.67152777777778C256.16666666666663,110.65768518518519,258.5833333333333,110.64384259259259,261,110.63C263.4166666666667,110.6161574074074,265.8333333333333,110.60231481481482,268.25,110.58847222222222C270.6666666666667,110.57462962962963,273.0833333333333,110.56078703703704,275.5,110.54694444444445C277.9166666666667,110.53310185185185,280.3333333333333,110.51925925925926,282.75,110.50541666666666C285.1666666666667,110.49157407407407,287.5833333333333,110.47773148148148,290,110.46388888888889C292.4166666666667,110.45004629629629,294.8333333333333,110.43620370370371,297.25,110.42236111111112C299.6666666666667,110.40851851851852,302.0833333333333,110.39467592592592,304.5,110.38083333333333C306.9166666666667,110.36699074074073,309.3333333333333,110.35314814814815,311.75,110.33930555555555C314.1666666666667,110.32546296296296,316.5833333333333,110.31162037037038,319,110.29777777777778C321.4166666666667,110.28393518518519,323.8333333333333,110.27009259259259,326.25,110.25625C328.6666666666667,110.2424074074074,331.0833333333333,110.22856481481482,333.5,110.21472222222222C335.9166666666667,110.20087962962963,338.3333333333333,110.18703703703704,340.75,110.17319444444445C343.1666666666667,110.15935185185185,345.5833333333333,110.14550925925926,348,110.13166666666666C350.4166666666667,110.11782407407406,352.8333333333333,110.10398148148148,355.25,110.09013888888889C357.6666666666667,110.07629629629629,360.0833333333333,110.06245370370371,362.5,110.04861111111111C364.9166666666667,110.03476851851852,367.3333333333333,110.02092592592594,369.75,110.00708333333334C372.1666666666667,109.99324074074075,374.5833333333333,109.97939814814815,377,109.96555555555555C379.4166666666667,109.95171296296296,381.8333333333333,109.93787037037038,384.25,109.92402777777778C386.6666666666667,109.91018518518518,389.0833333333333,109.8963425925926,391.5,109.88250000000001C393.9166666666667,109.86865740740741,396.33333333333337,109.85481481481482,398.75000000000006,109.84097222222222C401.16666666666674,109.82712962962962,403.58333333333337,109.81328703703703,406.00000000000006,109.79944444444443C408.4166666666667,109.78560185185184,410.8333333333333,109.77175925925927,413.24999999999994,109.75791666666667C415.66666666666663,109.74407407407408,418.08333333333326,109.73023148148148,420.49999999999994,109.71638888888889C422.91666666666663,109.70254629629629,425.3333333333333,109.68870370370371,427.75,109.67486111111111C430.1666666666667,109.66101851851852,432.5833333333333,109.64717592592594,435,109.63333333333334C437.4166666666667,109.61949074074074,439.8333333333333,109.60564814814815,442.25,109.59180555555555C444.6666666666667,109.57796296296296,447.0833333333333,109.56412037037038,449.5,109.55027777777778C451.9166666666667,109.53643518518518,454.3333333333333,109.5225925925926,456.75,109.50875C459.1666666666667,109.49490740740741,461.5833333333333,109.48106481481481,464,109.46722222222222C466.4166666666667,109.45337962962962,468.8333333333333,109.43953703703704,471.25,109.42569444444445C473.6666666666667,109.41185185185185,476.0833333333333,109.39800925925927,478.5,109.38416666666667C480.9166666666667,109.37032407407408,483.33333333333337,109.35648148148148,485.75000000000006,109.34263888888889C488.16666666666674,109.32879629629629,490.58333333333337,109.31495370370371,493.00000000000006,109.30111111111111C495.4166666666667,109.28726851851852,497.8333333333333,109.27342592592593,500.24999999999994,109.25958333333334C502.66666666666663,109.24574074074074,505.08333333333326,109.23189814814815,507.49999999999994,109.21805555555555C509.91666666666663,109.20421296296296,512.3333333333333,109.19037037037037,514.75,109.17652777777778C517.1666666666666,109.16268518518518,519.5833333333334,109.14884259259259,522,109.13499999999999C524.4166666666666,109.1211574074074,526.8333333333334,109.10731481481483,529.25,109.09347222222223C531.6666666666666,109.07962962962964,534.0833333333334,109.06578703703704,536.5,109.05194444444444C538.9166666666666,109.03810185185185,541.3333333333334,109.02425925925925,543.75,109.01041666666666C546.1666666666666,108.99657407407406,548.5833333333334,108.9827314814815,551,108.9688888888889C553.4166666666666,108.9550462962963,555.8333333333334,108.9412037037037,558.25,108.92736111111111C560.6666666666666,108.91351851851852,563.0833333333334,108.89967592592592,565.5,108.88583333333332C567.9166666666666,108.87199074074073,570.3333333333334,108.85814814814816,572.75,108.84430555555556C575.1666666666666,108.83046296296297,577.5833333333334,108.81662037037037,580,108.80277777777778C582.4166666666666,108.78893518518518,584.8333333333334,108.7750925925926,587.25,108.76125C589.6666666666666,108.74740740740741,592.0833333333334,108.73356481481481,594.5,108.71972222222222C596.9166666666666,108.70587962962962,599.3333333333334,108.69203703703704,601.75,108.67819444444444C604.1666666666666,108.66435185185185,606.5833333333334,108.65050925925927,609,108.63666666666667C611.4166666666666,108.62282407407407,613.8333333333334,108.60898148148148,616.25,108.59513888888888C618.6666666666666,108.58129629629629,621.0833333333334,108.5674537037037,623.5,108.55361111111111C625.9166666666666,108.53976851851851,628.3333333333334,108.52592592592593,630.75,108.51208333333334C633.1666666666666,108.49824074074074,635.5833333333334,108.48439814814814,638,108.47055555555555C640.4166666666666,108.45671296296295,642.8333333333334,108.44287037037037,645.25,108.42902777777778C647.6666666666666,108.41518518518518,650.0833333333334,108.41518518518518,652.5,108.3875C654.9166666666666,108.35981481481483,657.3333333333334,107.86477272727274,659.75,107.6034090909091C662.1666666666666,107.34204545454546,664.5833333333334,107.08068181818182,667,106.81931818181818C669.4166666666666,106.55795454545454,671.8333333333334,106.29659090909091,674.25,106.03522727272727C676.6666666666666,105.77386363636363,679.0833333333334,105.5125,681.5,105.25113636363636C683.9166666666666,104.98977272727272,686.3333333333334,104.7284090909091,688.75,104.46704545454546C691.1666666666666,104.20568181818182,693.5833333333334,103.94431818181819,696,103.68295454545455C698.4166666666666,103.42159090909091,700.8333333333334,103.16022727272728,703.25,102.89886363636364C705.6666666666666,102.6375,708.0833333333334,102.37613636363636,710.5,102.11477272727272C712.9166666666666,101.85340909090908,715.3333333333334,101.59204545454546,717.75,101.33068181818182C720.1666666666666,101.06931818181818,722.5833333333334,100.80795454545455,725,100.54659090909091C727.4166666666666,100.28522727272727,729.8333333333334,100.02386363636363,732.25,99.76249999999999C734.6666666666666,99.50113636363635,737.0833333333334,99.23977272727274,739.5,98.9784090909091C741.9166666666666,98.71704545454546,744.3333333333334,98.45568181818183,746.75,98.19431818181819C749.1666666666666,97.93295454545455,751.5833333333334,97.67159090909091,754,97.41022727272727C756.4166666666666,97.14886363636363,758.8333333333334,96.8875,761.25,96.62613636363636C763.6666666666666,96.36477272727272,766.0833333333334,96.1034090909091,768.5,95.84204545454546C770.9166666666666,95.58068181818182,773.3333333333334,95.31931818181819,775.75,95.05795454545455C778.1666666666666,94.79659090909091,780.5833333333334,94.53522727272728,783,94.27386363636364C785.4166666666667,94.0125,787.8333333333334,93.75113636363638,790.2500000000001,93.48977272727274C792.6666666666667,93.2284090909091,795.0833333333335,92.96704545454546,797.5000000000001,92.70568181818182C799.9166666666667,92.44431818181818,802.3333333333335,92.18295454545455,804.7500000000001,91.92159090909091C807.1666666666667,91.66022727272727,809.5833333333335,91.39886363636364,812.0000000000001,91.1375C814.4166666666667,90.87613636363636,816.8333333333333,90.61477272727272,819.2499999999999,90.35340909090908C821.6666666666665,90.09204545454544,824.0833333333333,89.83068181818182,826.4999999999999,89.56931818181818C828.9166666666665,89.30795454545454,831.3333333333333,89.04659090909091,833.7499999999999,88.78522727272727C836.1666666666665,88.52386363636363,838.5833333333333,88.2625,840.9999999999999,88.00113636363636C843.4166666666666,87.73977272727272,845.8333333333333,87.4784090909091,848.25,87.21704545454546C850.6666666666666,86.95568181818182,853.0833333333334,86.69431818181819,855.5,86.43295454545455C857.9166666666666,86.17159090909091,860.3333333333334,85.91022727272727,862.75,85.64886363636363C865.1666666666666,85.38749999999999,867.5833333333334,85.12613636363636,870,84.86477272727274C872.4166666666666,84.60340909090911,874.8333333333334,84.34204545454547,877.25,84.08068181818183C879.6666666666666,83.81931818181819,882.0833333333334,83.55795454545455,884.5,83.29659090909091C886.9166666666666,83.03522727272727,889.3333333333334,82.77386363636364,891.75,82.5125C894.1666666666666,82.25113636363636,896.5833333333334,81.98977272727274,899,81.7284090909091C901.4166666666666,81.46704545454546,903.8333333333334,81.20568181818182,906.25,80.94431818181818C908.6666666666666,80.68295454545454,911.0833333333334,80.42159090909091,913.5,80.16022727272727C915.9166666666666,79.89886363636363,918.3333333333334,79.6375,920.75,79.37613636363636C923.1666666666666,79.11477272727272,925.5833333333334,78.85340909090908,928,78.59204545454544C930.4166666666666,78.3306818181818,932.8333333333334,78.06931818181818,935.25,77.80795454545454C937.6666666666666,77.5465909090909,940.0833333333334,77.28522727272727,942.5,77.02386363636363C944.9166666666666,76.76249999999999,947.3333333333334,76.50113636363636,949.75,76.23977272727272C952.1666666666666,75.97840909090908,954.5833333333334,75.71704545454544,957,75.4556818181818C959.4166666666666,75.19431818181816,961.8333333333334,74.93295454545454,964.25,74.67159090909091C966.6666666666667,74.41022727272727,969.0833333333334,74.14886363636364,971.5000000000001,73.8875C973.9166666666667,73.62613636363636,976.3333333333335,73.36477272727274,978.7500000000001,73.1034090909091C981.1666666666667,72.84204545454546,983.5833333333335,72.58068181818183,986.0000000000001,72.31931818181819C988.4166666666667,72.05795454545455,990.8333333333335,71.79659090909091,993.2500000000001,71.53522727272727C995.6666666666667,71.27386363636363,998.0833333333333,71.01249999999999,1000.4999999999999,70.75113636363636C1002.9166666666665,70.48977272727272,1005.3333333333333,70.2284090909091,1007.7499999999999,69.96704545454546C1010.1666666666665,69.70568181818182,1012.5833333333333,69.44431818181819,1014.9999999999999,69.18295454545455C1017.4166666666665,68.92159090909091,1019.8333333333333,68.66022727272727,1022.2499999999999,68.39886363636363C1024.6666666666665,68.13749999999999,1027.0833333333333,67.87613636363636,1029.5,67.61477272727272C1031.9166666666667,67.35340909090908,1034.3333333333333,67.09204545454546,1036.75,66.83068181818182C1039.1666666666667,66.56931818181818,1041.5833333333333,66.30795454545456,1044,66.04659090909092C1046.4166666666667,65.78522727272728,1048.8333333333333,65.52386363636364,1051.25,65.2625C1053.6666666666667,65.00113636363636,1056.0833333333333,64.73977272727274,1058.5,64.4784090909091C1060.9166666666667,64.21704545454546,1063.3333333333333,63.95568181818182,1065.75,63.69431818181819C1068.1666666666667,63.43295454545456,1070.5833333333333,63.171590909090924,1073,62.91022727272728C1075.4166666666667,62.64886363636364,1077.8333333333333,62.38750000000001,1080.25,62.12613636363637C1082.6666666666667,61.86477272727273,1085.0833333333333,61.603409090909096,1087.5,61.342045454545456C1089.9166666666667,61.080681818181816,1092.3333333333333,60.81931818181819,1094.75,60.55795454545455C1097.1666666666667,60.29659090909091,1099.5833333333333,60.035227272727276,1102,59.773863636363636C1104.4166666666667,59.512499999999996,1106.8333333333333,59.25113636363636,1109.25,58.98977272727272C1111.6666666666667,58.72840909090908,1114.0833333333333,58.467045454545456,1116.5,58.205681818181816C1118.9166666666667,57.944318181818176,1121.3333333333333,57.682954545454535,1123.75,57.4215909090909C1126.1666666666667,57.16022727272727,1128.5833333333333,56.898863636363636,1131,56.6375C1133.4166666666667,56.37613636363637,1135.8333333333333,56.11477272727274,1138.25,55.853409090909096C1140.6666666666667,55.592045454545456,1143.0833333333333,55.330681818181816,1145.5,55.06931818181818C1147.9166666666667,54.80795454545455,1150.3333333333333,54.54659090909091,1152.75,54.285227272727276C1155.1666666666667,54.02386363636364,1157.5833333333333,53.7625,1160,53.50113636363636C1162.4166666666667,53.23977272727272,1164.8333333333333,52.97840909090908,1167.25,52.71704545454545C1169.6666666666667,52.455681818181816,1172.0833333333333,52.194318181818176,1174.5,51.93295454545454C1176.9166666666667,51.67159090909091,1179.3333333333333,51.410227272727276,1181.75,51.14886363636364C1184.1666666666667,50.88750000000001,1186.5833333333333,50.62613636363636,1189,50.36477272727273C1191.4166666666667,50.103409090909096,1193.8333333333333,49.842045454545456,1196.25,49.58068181818182C1198.6666666666667,49.31931818181819,1201.0833333333333,49.05795454545455,1203.5,48.79659090909091C1205.9166666666667,48.53522727272727,1208.3333333333333,48.27386363636363,1210.75,48.012499999999996C1213.1666666666667,47.75113636363636,1215.5833333333333,47.48977272727272,1218,47.22840909090909C1220.4166666666667,46.967045454545456,1222.8333333333333,46.70568181818181,1225.25,46.444318181818176C1227.6666666666667,46.18295454545454,1230.0833333333333,45.92159090909091,1232.5,45.660227272727276C1234.9166666666667,45.39886363636364,1237.3333333333333,45.1375,1239.75,44.87613636363637C1242.1666666666667,44.61477272727274,1244.5833333333333,44.353409090909096,1247,44.092045454545456C1249.4166666666667,43.830681818181816,1251.8333333333333,43.569318181818176,1254.25,43.30795454545454C1256.6666666666667,43.04659090909091,1259.0833333333333,42.78522727272727,1261.5,42.523863636363636C1263.9166666666667,42.2625,1266.3333333333333,42.00113636363636,1268.75,41.73977272727272C1271.1666666666667,41.47840909090908,1273.5833333333333,41.21704545454544,1276,40.95568181818181C1278.4166666666667,40.694318181818176,1280.8333333333333,40.43295454545455,1283.25,40.17159090909092C1285.6666666666667,39.91022727272728,1288.0833333333333,39.64886363636364,1290.5,39.3875C1292.9166666666667,39.12613636363636,1295.3333333333333,38.86477272727272,1297.75,38.60340909090908C1300.1666666666667,38.34204545454544,1302.5833333333333,38.080681818181816,1305,37.81931818181818C1307.4166666666667,37.55795454545455,1309.8333333333333,37.29659090909091,1312.25,37.03522727272727C1314.6666666666667,36.77386363636363,1317.0833333333333,36.5125,1319.5,36.25113636363636C1321.9166666666667,35.98977272727272,1324.3333333333333,35.728409090909075,1326.75,35.467045454545435C1329.1666666666667,35.205681818181795,1331.5833333333333,34.94431818181817,1334,34.682954545454535C1336.4166666666667,34.4215909090909,1338.8333333333333,34.16022727272727,1341.25,33.898863636363636C1343.6666666666667,33.6375,1346.0833333333333,33.37613636363636,1348.5,33.11477272727273C1350.9166666666667,32.853409090909096,1353.3333333333333,32.592045454545456,1355.75,32.330681818181816C1358.1666666666667,32.069318181818176,1360.5833333333333,31.807954545454532,1363,31.546590909090895C1365.4166666666667,31.28522727272726,1367.8333333333333,31.02386363636363,1370.25,30.762499999999996C1372.6666666666667,30.501136363636363,1375.0833333333333,30.23977272727273,1377.5,29.978409090909096C1379.9166666666667,29.717045454545463,1382.3333333333333,29.455681818181823,1384.75,29.194318181818186C1387.1666666666667,28.93295454545455,1389.5833333333333,28.67159090909091,1392,28.410227272727276C1394.4166666666667,28.148863636363643,1396.8333333333333,27.887500000000014,1399.25,27.626136363636377C1401.6666666666667,27.36477272727274,1404.0833333333333,27.103409090909093,1406.5,26.842045454545453C1408.9166666666667,26.580681818181812,1411.3333333333333,26.31931818181818,1413.75,26.057954545454542C1416.1666666666667,25.796590909090906,1418.5833333333333,25.53522727272727,1421,25.273863636363632C1423.4166666666667,25.012499999999996,1425.8333333333333,24.751136363636366,1428.25,24.489772727272733C1430.6666666666667,24.2284090909091,1433.0833333333333,23.96704545454547,1435.5,23.705681818181834C1437.9166666666667,23.444318181818197,1440.3333333333333,23.182954545454553,1442.75,22.921590909090913C1445.1666666666667,22.660227272727273,1447.5833333333333,22.398863636363636,1450,22.1375" fill="transparent" stroke-linecap="round" stroke="#E7C6DF" stroke-width="2"></path><g class="visx-group visx-axis visx-axis-bottom" transform="translate(0, 115)"><g class="visx-group visx-axis-tick" transform="translate(0, 0)"><line class="visx-line" x1="0" y1="0" x2="0" y2="8" fill="transparent" shape-rendering="crispEdges" stroke="#000" stroke-width="0" stroke-linecap="square"></line><svg x="0" y="0" font-size="10" style="overflow:visible"><text transform="" x="0" y="18" fill="#000" font-size="10" text-anchor="middle"><tspan x="0" dy="0em">0%</tspan></text></svg></g><g class="visx-group visx-axis-tick" transform="translate(0, 0)"><line class="visx-line" x1="362.5" y1="0" x2="362.5" y2="8" fill="transparent" shape-rendering="crispEdges" stroke="#000" stroke-width="0" stroke-linecap="square"></line><svg x="0" y="0" font-size="10" style="overflow:visible"><text transform="" x="362.5" y="18" fill="#000" font-size="10" text-anchor="middle"><tspan x="362.5" dy="0em">25%</tspan></text></svg></g><g class="visx-group visx-axis-tick" transform="translate(0, 0)"><line class="visx-line" x1="725" y1="0" x2="725" y2="8" fill="transparent" shape-rendering="crispEdges" stroke="#000" stroke-width="0" stroke-linecap="square"></line><svg x="0" y="0" font-size="10" style="overflow:visible"><text transform="" x="725" y="18" fill="#000" font-size="10" text-anchor="middle"><tspan x="725" dy="0em">50%</tspan></text></svg></g><g class="visx-group visx-axis-tick" transform="translate(0, 0)"><line class="visx-line" x1="1087.5" y1="0" x2="1087.5" y2="8" fill="transparent" shape-rendering="crispEdges" stroke="#000" stroke-width="0" stroke-linecap="square"></line><svg x="0" y="0" font-size="10" style="overflow:visible"><text transform="" x="1087.5" y="18" fill="#000" font-size="10" text-anchor="middle"><tspan x="1087.5" dy="0em">75%</tspan></text></svg></g><g class="visx-group visx-axis-tick" transform="translate(0, 0)"><line class="visx-line" x1="1450" y1="0" x2="1450" y2="8" fill="transparent" shape-rendering="crispEdges" stroke="#000" stroke-width="0" stroke-linecap="square"></line><svg x="0" y="0" font-size="10" style="overflow:visible"><text transform="" x="1450" y="18" fill="#000" font-size="10" text-anchor="middle"><tspan x="1450" dy="0em">100%</tspan></text></svg></g><line class="visx-line visx-axis-line" x1="0.5" y1="0" x2="1450.5" y2="0" fill="transparent" shape-rendering="crispEdges" stroke="#222" stroke-width="0"></line></g><g class="visx-group visx-axis visx-axis-left" transform="translate(0, 0)"><g class="visx-group visx-axis-tick" transform="translate(0, 0)"><line class="visx-line" x1="0" y1="115" x2="-8" y2="115" fill="transparent" shape-rendering="crispEdges" stroke="#222" stroke-width="0" stroke-linecap="square"></line><svg x="-30" y="0" font-size="8" style="overflow:visible"><text transform="" x="-8" y="115" fill="#000" font-size="8" text-anchor="start"><tspan x="-8" dy="0em">0%</tspan></text></svg></g><g class="visx-group visx-axis-tick" transform="translate(0, 0)"><line class="visx-line" x1="0" y1="57.5" x2="-8" y2="57.5" fill="transparent" shape-rendering="crispEdges" stroke="#222" stroke-width="0" stroke-linecap="square"></line><svg x="-30" y="0" font-size="8" style="overflow:visible"><text transform="" x="-8" y="57.5" fill="#000" font-size="8" text-anchor="start"><tspan x="-8" dy="0em">200%</tspan></text></svg></g><g class="visx-group visx-axis-tick" transform="translate(0, 0)"><line class="visx-line" x1="0" y1="0" x2="-8" y2="0" fill="transparent" shape-rendering="crispEdges" stroke="#222" stroke-width="0" stroke-linecap="square"></line><svg x="-30" y="0" font-size="8" style="overflow:visible"><text transform="" x="-8" y="0" fill="#000" font-size="8" text-anchor="start"><tspan x="-8" dy="0em">400%</tspan></text></svg></g><line class="visx-line visx-axis-line" x1="0" y1="115.5" x2="0" y2="0.5" fill="transparent" shape-rendering="crispEdges" stroke="#222" stroke-width="0"></line></g><rect class="visx-bar" width="1450" height="115" fill="transparent"></rect><line class="visx-line" x1="652.5" y1="28" x2="652.5" y2="115" fill="transparent" shape-rendering="crispEdges" stroke="#0062D2" stroke-width="1" pointer-events="none" stroke-dasharray="5,2"></line><svg x="0" y="0" font-size="10px" style="overflow:visible"><text transform="" x="652.5" y="20" font-size="10px" fill="#fff" stroke="#fff" stroke-width="0.8em" text-anchor="middle"><tspan x="652.5" dy="0.355em">Optimal 45%</tspan></text></svg><svg x="0" y="0" font-size="10px" style="overflow:visible"><text transform="" x="652.5" y="20" font-size="10px" fill="#62677B" text-anchor="middle"><tspan x="652.5" dy="0.355em">Optimal 45%</tspan></text></svg></g></svg>