<?xml version="1.0"?><svg xmlns="http://www.w3.org/2000/svg" xmlns:xlink= "http://www.w3.org/1999/xlink" style="background: white;" width="1500" height="185"> <g style="color: black; font-size: 13px; font-family: sans-serif; transform: translate(18px, 25px);"><g><circle r="3" cx="-6" cy="-5" style="fill: #B6509E" /><text>Borrow APR, variable</text></g><g style="transform: translateX(150px);"><circle r="3" cx="-6" cy="-5" style="fill: rgb(231, 198, 223)" /><text>Borrow APR, stable</text></g><g style="transform: translateX(290px);"><circle r="3" cx="-6" cy="-5" style="fill: rgb(0, 98, 210)" /><text>Utilization Rate</text></g></g><g class="visx-group" transform="translate(40, 50)"><g class="visx-group visx-rows" transform="translate(0, 0)"><line class="visx-line" x1="0" y1="115" x2="1450" y2="115" fill="transparent" shape-rendering="crispEdges" stroke="#000" stroke-width="1" stroke-dasharray="3,3" pointer-events="none"></line><line class="visx-line" x1="0" y1="86.25" x2="1450" y2="86.25" fill="transparent" shape-rendering="crispEdges" stroke="#000" stroke-width="1" stroke-dasharray="3,3" pointer-events="none"></line><line class="visx-line" x1="0" y1="57.5" x2="1450" y2="57.5" fill="transparent" shape-rendering="crispEdges" stroke="#000" stroke-width="1" stroke-dasharray="3,3" pointer-events="none"></line><line class="visx-line" x1="0" y1="28.75" x2="1450" y2="28.75" fill="transparent" shape-rendering="crispEdges" stroke="#000" stroke-width="1" stroke-dasharray="3,3" pointer-events="none"></line><line class="visx-line" x1="0" y1="0" x2="1450" y2="0" fill="transparent" shape-rendering="crispEdges" stroke="#000" stroke-width="1" stroke-dasharray="3,3" pointer-events="none"></line></g><path class="visx-linepath" d="M0,114.99999999995528C2.4166666666666665,114.9925462962702,4.833333333333334,114.98509259258512,7.25,114.97763888888888C9.666666666666666,114.97018518519263,12.083333333333334,114.96273148148148,14.5,114.95527777777778C16.916666666666668,114.94782407407408,19.333333333333332,114.94037037037036,21.75,114.93291666666666C24.166666666666668,114.92546296296295,26.583333333333332,114.91800925925926,29,114.91055555555556C31.416666666666668,114.90310185185186,33.833333333333336,114.89564814814814,36.25,114.88819444444444C38.666666666666664,114.88074074074073,41.083333333333336,114.87328703703704,43.5,114.86583333333334C45.91666666666667,114.85837962962964,48.333333333333336,114.85092592592592,50.75000000000001,114.84347222222222C53.16666666666667,114.83601851851851,55.583333333333336,114.82856481481481,58,114.82111111111111C60.416666666666664,114.8136574074074,62.833333333333336,114.8062037037037,65.25,114.79875C67.66666666666667,114.7912962962963,70.08333333333333,114.78384259259259,72.5,114.77638888888889C74.91666666666667,114.76893518518519,77.33333333333333,114.76148148148148,79.75,114.75402777777778C82.16666666666667,114.74657407407408,84.58333333333333,114.73912037037037,87,114.73166666666667C89.41666666666667,114.72421296296297,91.83333333333333,114.71675925925926,94.25,114.70930555555556C96.66666666666667,114.70185185185186,99.08333333333334,114.69439814814815,101.50000000000001,114.68694444444445C103.91666666666667,114.67949074074075,106.33333333333334,114.67203703703703,108.75,114.66458333333333C111.16666666666667,114.65712962962962,113.58333333333333,114.64967592592593,116,114.64222222222223C118.41666666666667,114.63476851851853,120.83333333333334,114.62731481481481,123.25000000000001,114.6198611111111C125.66666666666667,114.6124074074074,128.08333333333334,114.60495370370371,130.5,114.59750000000001C132.91666666666666,114.59004629629631,135.33333333333334,114.58259259259259,137.75,114.57513888888889C140.16666666666666,114.56768518518518,142.58333333333334,114.56023148148148,145,114.55277777777778C147.41666666666666,114.54532407407407,149.83333333333334,114.53787037037037,152.25,114.53041666666667C154.66666666666666,114.52296296296296,157.08333333333334,114.51550925925925,159.5,114.50805555555554C161.91666666666666,114.50060185185184,164.33333333333334,114.49314814814815,166.75,114.48569444444445C169.16666666666666,114.47824074074074,171.58333333333334,114.47078703703703,174,114.46333333333332C176.41666666666666,114.45587962962962,178.83333333333334,114.44842592592593,181.25,114.44097222222223C183.66666666666666,114.43351851851853,186.08333333333334,114.42606481481481,188.5,114.4186111111111C190.91666666666666,114.4111574074074,193.33333333333334,114.40370370370371,195.75,114.39625000000001C198.16666666666669,114.3887962962963,200.58333333333334,114.38134259259259,203.00000000000003,114.37388888888889C205.41666666666669,114.36643518518518,207.83333333333331,114.35898148148148,210.24999999999997,114.35152777777778C212.66666666666666,114.34407407407407,215.08333333333331,114.33662037037037,217.5,114.32916666666667C219.91666666666666,114.32171296296296,222.33333333333334,114.31425925925926,224.75,114.30680555555556C227.16666666666666,114.29935185185185,229.58333333333334,114.29189814814815,232,114.28444444444445C234.41666666666666,114.27699074074074,236.83333333333334,114.26953703703704,239.25,114.26208333333334C241.66666666666669,114.25462962962963,244.08333333333334,114.24717592592593,246.50000000000003,114.23972222222223C248.91666666666669,114.23226851851852,251.33333333333331,114.22481481481482,253.74999999999997,114.21736111111112C256.16666666666663,114.20990740740741,258.5833333333333,114.2024537037037,261,114.195C263.4166666666667,114.18754629629629,265.8333333333333,114.1800925925926,268.25,114.1726388888889C270.6666666666667,114.1651851851852,273.0833333333333,114.15773148148148,275.5,114.15027777777777C277.9166666666667,114.14282407407407,280.3333333333333,114.13537037037037,282.75,114.12791666666666C285.1666666666667,114.12046296296296,287.5833333333333,114.11300925925926,290,114.10555555555555C292.4166666666667,114.09810185185185,294.8333333333333,114.09064814814815,297.25,114.08319444444444C299.6666666666667,114.07574074074074,302.0833333333333,114.06828703703704,304.5,114.06083333333333C306.9166666666667,114.05337962962963,309.3333333333333,114.04592592592591,311.75,114.03847222222221C314.1666666666667,114.03101851851851,316.5833333333333,114.02356481481482,319,114.01611111111112C321.4166666666667,114.00865740740741,323.8333333333333,114.0012037037037,326.25,113.99374999999999C328.6666666666667,113.98629629629629,331.0833333333333,113.9788425925926,333.5,113.9713888888889C335.9166666666667,113.96393518518519,338.3333333333333,113.95648148148148,340.75,113.94902777777777C343.1666666666667,113.94157407407407,345.5833333333333,113.93412037037038,348,113.92666666666668C350.4166666666667,113.91921296296297,352.8333333333333,113.91175925925926,355.25,113.90430555555555C357.6666666666667,113.89685185185185,360.0833333333333,113.88939814814815,362.5,113.88194444444444C364.9166666666667,113.87449074074074,367.3333333333333,113.86703703703704,369.75,113.85958333333333C372.1666666666667,113.85212962962963,374.5833333333333,113.84467592592593,377,113.83722222222222C379.4166666666667,113.82976851851852,381.8333333333333,113.82231481481482,384.25,113.81486111111111C386.6666666666667,113.80740740740741,389.0833333333333,113.79995370370371,391.5,113.7925C393.9166666666667,113.7850462962963,396.33333333333337,113.7775925925926,398.75000000000006,113.7701388888889C401.16666666666674,113.76268518518519,403.58333333333337,113.75523148148149,406.00000000000006,113.74777777777778C408.4166666666667,113.74032407407408,410.8333333333333,113.73287037037036,413.24999999999994,113.72541666666666C415.66666666666663,113.71796296296296,418.08333333333326,113.71050925925925,420.49999999999994,113.70305555555555C422.91666666666663,113.69560185185185,425.3333333333333,113.68814814814814,427.75,113.68069444444444C430.1666666666667,113.67324074074074,432.5833333333333,113.66578703703703,435,113.65833333333333C437.4166666666667,113.65087962962963,439.8333333333333,113.64342592592592,442.25,113.63597222222222C444.6666666666667,113.62851851851852,447.0833333333333,113.62106481481482,449.5,113.61361111111111C451.9166666666667,113.60615740740741,454.3333333333333,113.5987037037037,456.75,113.59125C459.1666666666667,113.5837962962963,461.5833333333333,113.57634259259258,464,113.56888888888888C466.4166666666667,113.56143518518518,468.8333333333333,113.55398148148149,471.25,113.54652777777778C473.6666666666667,113.53907407407408,476.0833333333333,113.53162037037036,478.5,113.52416666666666C480.9166666666667,113.51671296296296,483.33333333333337,113.50925925925927,485.75000000000006,113.50180555555556C488.16666666666674,113.49435185185186,490.58333333333337,113.48689814814814,493.00000000000006,113.47944444444444C495.4166666666667,113.47199074074074,497.8333333333333,113.46453703703705,500.24999999999994,113.45708333333334C502.66666666666663,113.44962962962964,505.08333333333326,113.44217592592592,507.49999999999994,113.43472222222222C509.91666666666663,113.42726851851852,512.3333333333333,113.41981481481481,514.75,113.41236111111111C517.1666666666666,113.4049074074074,519.5833333333334,113.3974537037037,522,113.39C524.4166666666666,113.3825462962963,526.8333333333334,113.3750925925926,529.25,113.36763888888889C531.6666666666666,113.36018518518519,534.0833333333334,113.35273148148148,536.5,113.34527777777778C538.9166666666666,113.33782407407408,541.3333333333334,113.33037037037037,543.75,113.32291666666667C546.1666666666666,113.31546296296297,548.5833333333334,113.30800925925926,551,113.30055555555556C553.4166666666666,113.29310185185186,555.8333333333334,113.28564814814814,558.25,113.27819444444444C560.6666666666666,113.27074074074073,563.0833333333334,113.26328703703703,565.5,113.25583333333333C567.9166666666666,113.24837962962962,570.3333333333334,113.24092592592592,572.75,113.23347222222222C575.1666666666666,113.22601851851852,577.5833333333334,113.21856481481481,580,113.21111111111111C582.4166666666666,113.2036574074074,584.8333333333334,113.1962037037037,587.25,113.18875C589.6666666666666,113.1812962962963,592.0833333333334,113.17384259259259,594.5,113.16638888888889C596.9166666666666,113.15893518518519,599.3333333333334,113.15148148148148,601.75,113.14402777777778C604.1666666666666,113.13657407407408,606.5833333333334,113.12912037037037,609,113.12166666666667C611.4166666666666,113.11421296296297,613.8333333333334,113.10675925925925,616.25,113.09930555555555C618.6666666666666,113.09185185185184,621.0833333333334,113.08439814814815,623.5,113.07694444444445C625.9166666666666,113.06949074074075,628.3333333333334,113.06203703703703,630.75,113.05458333333333C633.1666666666666,113.04712962962962,635.5833333333334,113.03967592592593,638,113.03222222222223C640.4166666666666,113.02476851851853,642.8333333333334,113.01731481481481,645.25,113.0098611111111C647.6666666666666,113.0024074074074,650.0833333333334,113.0024074074074,652.5,112.98750000000001C654.9166666666666,112.97259259259262,657.3333333333334,112.46477272727273,659.75,112.20340909090909C662.1666666666666,111.94204545454545,664.5833333333334,111.68068181818182,667,111.41931818181818C669.4166666666666,111.15795454545454,671.8333333333334,110.89659090909092,674.25,110.63522727272728C676.6666666666666,110.37386363636364,679.0833333333334,110.1125,681.5,109.85113636363636C683.9166666666666,109.58977272727272,686.3333333333334,109.32840909090908,688.75,109.06704545454545C691.1666666666666,108.80568181818182,693.5833333333334,108.5443181818182,696,108.28295454545456C698.4166666666666,108.02159090909092,700.8333333333334,107.76022727272728,703.25,107.49886363636364C705.6666666666666,107.2375,708.0833333333334,106.97613636363637,710.5,106.71477272727273C712.9166666666666,106.45340909090909,715.3333333333334,106.19204545454546,717.75,105.93068181818182C720.1666666666666,105.66931818181818,722.5833333333334,105.40795454545454,725,105.1465909090909C727.4166666666666,104.88522727272726,729.8333333333334,104.62386363636364,732.25,104.3625C734.6666666666666,104.10113636363636,737.0833333333334,103.83977272727273,739.5,103.57840909090909C741.9166666666666,103.31704545454545,744.3333333333334,103.05568181818181,746.75,102.79431818181817C749.1666666666666,102.53295454545453,751.5833333333334,102.27159090909089,754,102.01022727272726C756.4166666666666,101.74886363636364,758.8333333333334,101.48750000000001,761.25,101.22613636363637C763.6666666666666,100.96477272727273,766.0833333333334,100.70340909090909,768.5,100.44204545454545C770.9166666666666,100.18068181818181,773.3333333333334,99.91931818181818,775.75,99.65795454545454C778.1666666666666,99.3965909090909,780.5833333333334,99.13522727272728,783,98.87386363636364C785.4166666666667,98.6125,787.8333333333334,98.35113636363637,790.2500000000001,98.08977272727273C792.6666666666667,97.82840909090909,795.0833333333335,97.56704545454546,797.5000000000001,97.30568181818182C799.9166666666667,97.04431818181818,802.3333333333335,96.78295454545456,804.7500000000001,96.52159090909092C807.1666666666667,96.26022727272728,809.5833333333335,95.99886363636364,812.0000000000001,95.7375C814.4166666666667,95.47613636363636,816.8333333333333,95.21477272727272,819.2499999999999,94.95340909090909C821.6666666666665,94.69204545454545,824.0833333333333,94.43068181818182,826.4999999999999,94.16931818181818C828.9166666666665,93.90795454545454,831.3333333333333,93.6465909090909,833.7499999999999,93.38522727272726C836.1666666666665,93.12386363636362,838.5833333333333,92.8625,840.9999999999999,92.60113636363636C843.4166666666666,92.33977272727272,845.8333333333333,92.07840909090909,848.25,91.81704545454545C850.6666666666666,91.55568181818181,853.0833333333334,91.29431818181818,855.5,91.03295454545454C857.9166666666666,90.7715909090909,860.3333333333334,90.51022727272728,862.75,90.24886363636364C865.1666666666666,89.9875,867.5833333333334,89.72613636363637,870,89.46477272727273C872.4166666666666,89.20340909090909,874.8333333333334,88.94204545454545,877.25,88.68068181818181C879.6666666666666,88.41931818181817,882.0833333333334,88.15795454545454,884.5,87.8965909090909C886.9166666666666,87.63522727272726,889.3333333333334,87.37386363636365,891.75,87.11250000000001C894.1666666666666,86.85113636363637,896.5833333333334,86.58977272727273,899,86.32840909090909C901.4166666666666,86.06704545454545,903.8333333333334,85.80568181818182,906.25,85.54431818181818C908.6666666666666,85.28295454545454,911.0833333333334,85.02159090909092,913.5,84.76022727272728C915.9166666666666,84.49886363636364,918.3333333333334,84.2375,920.75,83.97613636363636C923.1666666666666,83.71477272727272,925.5833333333334,83.45340909090909,928,83.19204545454545C930.4166666666666,82.93068181818181,932.8333333333334,82.66931818181818,935.25,82.40795454545454C937.6666666666666,82.1465909090909,940.0833333333334,81.88522727272728,942.5,81.62386363636364C944.9166666666666,81.3625,947.3333333333334,81.10113636363636,949.75,80.83977272727272C952.1666666666666,80.57840909090908,954.5833333333334,80.31704545454545,957,80.05568181818181C959.4166666666666,79.79431818181817,961.8333333333334,79.53295454545454,964.25,79.2715909090909C966.6666666666667,79.01022727272726,969.0833333333334,78.74886363636364,971.5000000000001,78.4875C973.9166666666667,78.22613636363636,976.3333333333335,77.96477272727272,978.7500000000001,77.70340909090908C981.1666666666667,77.44204545454544,983.5833333333335,77.18068181818182,986.0000000000001,76.91931818181818C988.4166666666667,76.65795454545454,990.8333333333335,76.39659090909092,993.2500000000001,76.13522727272728C995.6666666666667,75.87386363636365,998.0833333333333,75.61250000000001,1000.4999999999999,75.35113636363637C1002.9166666666665,75.08977272727273,1005.3333333333333,74.82840909090909,1007.7499999999999,74.56704545454545C1010.1666666666665,74.30568181818181,1012.5833333333333,74.04431818181818,1014.9999999999999,73.78295454545454C1017.4166666666665,73.5215909090909,1019.8333333333333,73.26022727272728,1022.2499999999999,72.99886363636364C1024.6666666666665,72.7375,1027.0833333333333,72.47613636363637,1029.5,72.21477272727273C1031.9166666666667,71.95340909090909,1034.3333333333333,71.69204545454545,1036.75,71.43068181818181C1039.1666666666667,71.16931818181817,1041.5833333333333,70.90795454545454,1044,70.6465909090909C1046.4166666666667,70.38522727272726,1048.8333333333333,70.12386363636364,1051.25,69.8625C1053.6666666666667,69.60113636363636,1056.0833333333333,69.33977272727273,1058.5,69.07840909090909C1060.9166666666667,68.81704545454545,1063.3333333333333,68.55568181818184,1065.75,68.2943181818182C1068.1666666666667,68.03295454545456,1070.5833333333333,67.77159090909092,1073,67.51022727272728C1075.4166666666667,67.24886363636364,1077.8333333333333,66.98750000000001,1080.25,66.72613636363637C1082.6666666666667,66.46477272727273,1085.0833333333333,66.2034090909091,1087.5,65.94204545454546C1089.9166666666667,65.68068181818182,1092.3333333333333,65.4193181818182,1094.75,65.15795454545456C1097.1666666666667,64.89659090909092,1099.5833333333333,64.63522727272728,1102,64.37386363636364C1104.4166666666667,64.1125,1106.8333333333333,63.85113636363637,1109.25,63.58977272727273C1111.6666666666667,63.32840909090909,1114.0833333333333,63.06704545454545,1116.5,62.80568181818182C1118.9166666666667,62.544318181818184,1121.3333333333333,62.282954545454544,1123.75,62.02159090909091C1126.1666666666667,61.76022727272728,1128.5833333333333,61.49886363636364,1131,61.2375C1133.4166666666667,60.97613636363636,1135.8333333333333,60.71477272727272,1138.25,60.45340909090908C1140.6666666666667,60.19204545454545,1143.0833333333333,59.93068181818181,1145.5,59.66931818181818C1147.9166666666667,59.407954545454544,1150.3333333333333,59.1465909090909,1152.75,58.88522727272726C1155.1666666666667,58.62386363636363,1157.5833333333333,58.3625,1160,58.101136363636364C1162.4166666666667,57.83977272727273,1164.8333333333333,57.57840909090909,1167.25,57.31704545454546C1169.6666666666667,57.055681818181824,1172.0833333333333,56.794318181818184,1174.5,56.532954545454544C1176.9166666666667,56.271590909090904,1179.3333333333333,56.01022727272726,1181.75,55.74886363636363C1184.1666666666667,55.4875,1186.5833333333333,55.22613636363636,1189,54.964772727272724C1191.4166666666667,54.70340909090909,1193.8333333333333,54.44204545454546,1196.25,54.180681818181824C1198.6666666666667,53.91931818181819,1201.0833333333333,53.657954545454544,1203.5,53.39659090909091C1205.9166666666667,53.13522727272728,1208.3333333333333,52.87386363636364,1210.75,52.612500000000004C1213.1666666666667,52.35113636363637,1215.5833333333333,52.08977272727273,1218,51.82840909090909C1220.4166666666667,51.56704545454545,1222.8333333333333,51.30568181818181,1225.25,51.04431818181818C1227.6666666666667,50.782954545454544,1230.0833333333333,50.521590909090904,1232.5,50.26022727272727C1234.9166666666667,49.99886363636364,1237.3333333333333,49.73749999999999,1239.75,49.47613636363636C1242.1666666666667,49.214772727272724,1244.5833333333333,48.95340909090909,1247,48.69204545454546C1249.4166666666667,48.430681818181824,1251.8333333333333,48.169318181818184,1254.25,47.90795454545455C1256.6666666666667,47.64659090909092,1259.0833333333333,47.38522727272728,1261.5,47.12386363636364C1263.9166666666667,46.8625,1266.3333333333333,46.60113636363636,1268.75,46.339772727272724C1271.1666666666667,46.07840909090909,1273.5833333333333,45.81704545454545,1276,45.55568181818182C1278.4166666666667,45.294318181818184,1280.8333333333333,45.032954545454544,1283.25,44.771590909090904C1285.6666666666667,44.51022727272726,1288.0833333333333,44.24886363636363,1290.5,43.9875C1292.9166666666667,43.726136363636364,1295.3333333333333,43.46477272727273,1297.75,43.2034090909091C1300.1666666666667,42.942045454545465,1302.5833333333333,42.680681818181824,1305,42.419318181818184C1307.4166666666667,42.157954545454544,1309.8333333333333,41.89659090909092,1312.25,41.63522727272728C1314.6666666666667,41.37386363636364,1317.0833333333333,41.11249999999999,1319.5,40.85113636363635C1321.9166666666667,40.58977272727271,1324.3333333333333,40.32840909090908,1326.75,40.06704545454545C1329.1666666666667,39.80568181818182,1331.5833333333333,39.544318181818184,1334,39.282954545454544C1336.4166666666667,39.021590909090904,1338.8333333333333,38.76022727272726,1341.25,38.49886363636363C1343.6666666666667,38.2375,1346.0833333333333,37.97613636363637,1348.5,37.71477272727273C1350.9166666666667,37.45340909090909,1353.3333333333333,37.19204545454545,1355.75,36.93068181818181C1358.1666666666667,36.66931818181817,1360.5833333333333,36.407954545454544,1363,36.14659090909091C1365.4166666666667,35.88522727272728,1367.8333333333333,35.62386363636364,1370.25,35.3625C1372.6666666666667,35.10113636363636,1375.0833333333333,34.83977272727273,1377.5,34.57840909090909C1379.9166666666667,34.31704545454545,1382.3333333333333,34.0556818181818,1384.75,33.79431818181816C1387.1666666666667,33.53295454545452,1389.5833333333333,33.2715909090909,1392,33.01022727272726C1394.4166666666667,32.74886363636363,1396.8333333333333,32.487500000000004,1399.25,32.22613636363637C1401.6666666666667,31.964772727272738,1404.0833333333333,31.703409090909094,1406.5,31.442045454545458C1408.9166666666667,31.18068181818182,1411.3333333333333,30.919318181818188,1413.75,30.657954545454547C1416.1666666666667,30.396590909090907,1418.5833333333333,30.13522727272726,1421,29.873863636363623C1423.4166666666667,29.612499999999986,1425.8333333333333,29.351136363636357,1428.25,29.089772727272724C1430.6666666666667,28.82840909090909,1433.0833333333333,28.56704545454545,1435.5,28.305681818181814C1437.9166666666667,28.044318181818177,1440.3333333333333,27.782954545454537,1442.75,27.521590909090904C1445.1666666666667,27.26022727272727,1447.5833333333333,26.998863636363637,1450,26.737500000000004" fill="transparent" stroke-linecap="round" stroke="#B6509E" stroke-width="2"></path><path class="visx-linepath" d="M0,112.12499999993611C2.4166666666666665,112.11435185181459,4.833333333333334,112.10370370369307,7.25,112.09305555555557C9.666666666666666,112.08240740741806,12.083333333333334,112.07175925925927,14.5,112.06111111111112C16.916666666666668,112.05046296296297,19.333333333333332,112.03981481481482,21.75,112.02916666666667C24.166666666666668,112.01851851851852,26.583333333333332,112.00787037037037,29,111.99722222222222C31.416666666666668,111.98657407407407,33.833333333333336,111.97592592592592,36.25,111.96527777777777C38.666666666666664,111.95462962962962,41.083333333333336,111.94398148148149,43.5,111.93333333333334C45.91666666666667,111.92268518518519,48.333333333333336,111.91203703703704,50.75000000000001,111.90138888888889C53.16666666666667,111.89074074074074,55.583333333333336,111.88009259259259,58,111.86944444444444C60.416666666666664,111.85879629629629,62.833333333333336,111.84814814814816,65.25,111.8375C67.66666666666667,111.82685185185186,70.08333333333333,111.8162037037037,72.5,111.80555555555556C74.91666666666667,111.79490740740741,77.33333333333333,111.78425925925927,79.75,111.77361111111112C82.16666666666667,111.76296296296297,84.58333333333333,111.75231481481482,87,111.74166666666667C89.41666666666667,111.73101851851852,91.83333333333333,111.72037037037036,94.25,111.70972222222221C96.66666666666667,111.69907407407406,99.08333333333334,111.68842592592593,101.50000000000001,111.67777777777778C103.91666666666667,111.66712962962963,106.33333333333334,111.65648148148148,108.75,111.64583333333333C111.16666666666667,111.63518518518518,113.58333333333333,111.62453703703703,116,111.61388888888888C118.41666666666667,111.60324074074073,120.83333333333334,111.5925925925926,123.25000000000001,111.58194444444445C125.66666666666667,111.5712962962963,128.08333333333334,111.56064814814815,130.5,111.55C132.91666666666666,111.53935185185185,135.33333333333334,111.52870370370371,137.75,111.51805555555556C140.16666666666666,111.50740740740741,142.58333333333334,111.49675925925926,145,111.48611111111111C147.41666666666666,111.47546296296296,149.83333333333334,111.46481481481482,152.25,111.45416666666667C154.66666666666666,111.44351851851852,157.08333333333334,111.43287037037038,159.5,111.42222222222223C161.91666666666666,111.41157407407408,164.33333333333334,111.40092592592592,166.75,111.39027777777777C169.16666666666666,111.37962962962962,171.58333333333334,111.36898148148148,174,111.35833333333333C176.41666666666666,111.34768518518518,178.83333333333334,111.33703703703704,181.25,111.32638888888889C183.66666666666666,111.31574074074074,186.08333333333334,111.30509259259259,188.5,111.29444444444444C190.91666666666666,111.28379629629629,193.33333333333334,111.27314814814815,195.75,111.2625C198.16666666666669,111.25185185185185,200.58333333333334,111.2412037037037,203.00000000000003,111.23055555555555C205.41666666666669,111.2199074074074,207.83333333333331,111.20925925925927,210.24999999999997,111.19861111111112C212.66666666666666,111.18796296296297,215.08333333333331,111.17731481481482,217.5,111.16666666666667C219.91666666666666,111.15601851851852,222.33333333333334,111.14537037037037,224.75,111.13472222222222C227.16666666666666,111.12407407407407,229.58333333333334,111.11342592592594,232,111.10277777777779C234.41666666666666,111.09212962962964,236.83333333333334,111.08148148148148,239.25,111.07083333333333C241.66666666666669,111.06018518518518,244.08333333333334,111.04953703703703,246.50000000000003,111.03888888888888C248.91666666666669,111.02824074074073,251.33333333333331,111.01759259259259,253.74999999999997,111.00694444444444C256.16666666666663,110.9962962962963,258.5833333333333,110.98564814814814,261,110.975C263.4166666666667,110.96435185185184,265.8333333333333,110.95370370370371,268.25,110.94305555555556C270.6666666666667,110.93240740740741,273.0833333333333,110.92175925925926,275.5,110.91111111111111C277.9166666666667,110.90046296296296,280.3333333333333,110.88981481481481,282.75,110.87916666666666C285.1666666666667,110.86851851851851,287.5833333333333,110.85787037037038,290,110.84722222222223C292.4166666666667,110.83657407407408,294.8333333333333,110.82592592592593,297.25,110.81527777777778C299.6666666666667,110.80462962962963,302.0833333333333,110.79398148148148,304.5,110.78333333333333C306.9166666666667,110.77268518518518,309.3333333333333,110.76203703703703,311.75,110.75138888888888C314.1666666666667,110.74074074074073,316.5833333333333,110.73009259259258,319,110.71944444444443C321.4166666666667,110.70879629629628,323.8333333333333,110.69814814814815,326.25,110.6875C328.6666666666667,110.67685185185185,331.0833333333333,110.6662037037037,333.5,110.65555555555555C335.9166666666667,110.6449074074074,338.3333333333333,110.63425925925927,340.75,110.62361111111112C343.1666666666667,110.61296296296297,345.5833333333333,110.60231481481482,348,110.59166666666667C350.4166666666667,110.58101851851852,352.8333333333333,110.57037037037037,355.25,110.55972222222222C357.6666666666667,110.54907407407407,360.0833333333333,110.53842592592594,362.5,110.52777777777779C364.9166666666667,110.51712962962964,367.3333333333333,110.50648148148149,369.75,110.49583333333334C372.1666666666667,110.48518518518519,374.5833333333333,110.47453703703704,377,110.46388888888889C379.4166666666667,110.45324074074074,381.8333333333333,110.44259259259259,384.25,110.43194444444444C386.6666666666667,110.42129629629629,389.0833333333333,110.41064814814814,391.5,110.39999999999999C393.9166666666667,110.38935185185184,396.33333333333337,110.3787037037037,398.75000000000006,110.36805555555556C401.16666666666674,110.35740740740741,403.58333333333337,110.34675925925926,406.00000000000006,110.33611111111111C408.4166666666667,110.32546296296296,410.8333333333333,110.31481481481482,413.24999999999994,110.30416666666667C415.66666666666663,110.29351851851852,418.08333333333326,110.28287037037038,420.49999999999994,110.27222222222223C422.91666666666663,110.26157407407408,425.3333333333333,110.25092592592593,427.75,110.24027777777778C430.1666666666667,110.22962962962963,432.5833333333333,110.21898148148149,435,110.20833333333334C437.4166666666667,110.1976851851852,439.8333333333333,110.18703703703704,442.25,110.1763888888889C444.6666666666667,110.16574074074074,447.0833333333333,110.1550925925926,449.5,110.14444444444445C451.9166666666667,110.1337962962963,454.3333333333333,110.12314814814815,456.75,110.1125C459.1666666666667,110.10185185185185,461.5833333333333,110.0912037037037,464,110.08055555555555C466.4166666666667,110.0699074074074,468.8333333333333,110.05925925925926,471.25,110.04861111111111C473.6666666666667,110.03796296296296,476.0833333333333,110.02731481481482,478.5,110.01666666666667C480.9166666666667,110.00601851851852,483.33333333333337,109.99537037037037,485.75000000000006,109.98472222222222C488.16666666666674,109.97407407407407,490.58333333333337,109.96342592592593,493.00000000000006,109.95277777777778C495.4166666666667,109.94212962962963,497.8333333333333,109.93148148148148,500.24999999999994,109.92083333333333C502.66666666666663,109.91018518518518,505.08333333333326,109.89953703703705,507.49999999999994,109.8888888888889C509.91666666666663,109.87824074074075,512.3333333333333,109.8675925925926,514.75,109.85694444444445C517.1666666666666,109.8462962962963,519.5833333333334,109.83564814814814,522,109.82499999999999C524.4166666666666,109.81435185185184,526.8333333333334,109.8037037037037,529.25,109.79305555555555C531.6666666666666,109.7824074074074,534.0833333333334,109.77175925925926,536.5,109.7611111111111C538.9166666666666,109.75046296296296,541.3333333333334,109.73981481481482,543.75,109.72916666666667C546.1666666666666,109.71851851851852,548.5833333333334,109.70787037037037,551,109.69722222222222C553.4166666666666,109.68657407407407,555.8333333333334,109.67592592592592,558.25,109.66527777777777C560.6666666666666,109.65462962962962,563.0833333333334,109.64398148148149,565.5,109.63333333333334C567.9166666666666,109.62268518518519,570.3333333333334,109.61203703703704,572.75,109.60138888888889C575.1666666666666,109.59074074074074,577.5833333333334,109.58009259259259,580,109.56944444444444C582.4166666666666,109.5587962962963,584.8333333333334,109.54814814814816,587.25,109.53750000000001C589.6666666666666,109.52685185185186,592.0833333333334,109.5162037037037,594.5,109.50555555555555C596.9166666666666,109.4949074074074,599.3333333333334,109.48425925925926,601.75,109.47361111111111C604.1666666666666,109.46296296296296,606.5833333333334,109.45231481481481,609,109.44166666666666C611.4166666666666,109.43101851851851,613.8333333333334,109.42037037037036,616.25,109.40972222222221C618.6666666666666,109.39907407407406,621.0833333333334,109.38842592592593,623.5,109.37777777777778C625.9166666666666,109.36712962962963,628.3333333333334,109.35648148148148,630.75,109.34583333333333C633.1666666666666,109.33518518518518,635.5833333333334,109.32453703703705,638,109.3138888888889C640.4166666666666,109.30324074074075,642.8333333333334,109.2925925925926,645.25,109.28194444444445C647.6666666666666,109.2712962962963,650.0833333333334,109.2712962962963,652.5,109.25C654.9166666666666,109.2287037037037,657.3333333333334,108.72727272727273,659.75,108.4659090909091C662.1666666666666,108.20454545454545,664.5833333333334,107.94318181818183,667,107.68181818181819C669.4166666666666,107.42045454545455,671.8333333333334,107.15909090909092,674.25,106.89772727272728C676.6666666666666,106.63636363636364,679.0833333333334,106.375,681.5,106.11363636363636C683.9166666666666,105.85227272727272,686.3333333333334,105.5909090909091,688.75,105.32954545454545C691.1666666666666,105.06818181818181,693.5833333333334,104.80681818181819,696,104.54545454545455C698.4166666666666,104.2840909090909,700.8333333333334,104.02272727272727,703.25,103.76136363636363C705.6666666666666,103.49999999999999,708.0833333333334,103.23863636363637,710.5,102.97727272727273C712.9166666666666,102.7159090909091,715.3333333333334,102.45454545454547,717.75,102.19318181818183C720.1666666666666,101.93181818181819,722.5833333333334,101.67045454545455,725,101.4090909090909C727.4166666666666,101.14772727272727,729.8333333333334,100.88636363636364,732.25,100.625C734.6666666666666,100.36363636363636,737.0833333333334,100.10227272727273,739.5,99.8409090909091C741.9166666666666,99.57954545454545,744.3333333333334,99.31818181818181,746.75,99.05681818181817C749.1666666666666,98.79545454545453,751.5833333333334,98.5340909090909,754,98.27272727272727C756.4166666666666,98.01136363636363,758.8333333333334,97.75,761.25,97.48863636363636C763.6666666666666,97.22727272727272,766.0833333333334,96.9659090909091,768.5,96.70454545454545C770.9166666666666,96.44318181818181,773.3333333333334,96.18181818181819,775.75,95.92045454545455C778.1666666666666,95.6590909090909,780.5833333333334,95.39772727272728,783,95.13636363636364C785.4166666666667,94.875,787.8333333333334,94.61363636363636,790.2500000000001,94.35227272727272C792.6666666666667,94.09090909090908,795.0833333333335,93.82954545454544,797.5000000000001,93.56818181818181C799.9166666666667,93.30681818181819,802.3333333333335,93.04545454545456,804.7500000000001,92.78409090909092C807.1666666666667,92.52272727272728,809.5833333333335,92.26136363636364,812.0000000000001,92C814.4166666666667,91.73863636363636,816.8333333333333,91.47727272727272,819.2499999999999,91.2159090909091C821.6666666666665,90.95454545454545,824.0833333333333,90.69318181818183,826.4999999999999,90.43181818181819C828.9166666666665,90.17045454545455,831.3333333333333,89.9090909090909,833.7499999999999,89.64772727272727C836.1666666666665,89.38636363636363,838.5833333333333,89.125,840.9999999999999,88.86363636363636C843.4166666666666,88.60227272727272,845.8333333333333,88.3409090909091,848.25,88.07954545454545C850.6666666666666,87.81818181818181,853.0833333333334,87.55681818181817,855.5,87.29545454545453C857.9166666666666,87.03409090909089,860.3333333333334,86.77272727272725,862.75,86.51136363636363C865.1666666666666,86.25,867.5833333333334,85.98863636363637,870,85.72727272727273C872.4166666666666,85.4659090909091,874.8333333333334,85.20454545454545,877.25,84.94318181818181C879.6666666666666,84.68181818181817,882.0833333333334,84.42045454545455,884.5,84.1590909090909C886.9166666666666,83.89772727272727,889.3333333333334,83.63636363636364,891.75,83.375C894.1666666666666,83.11363636363636,896.5833333333334,82.85227272727273,899,82.5909090909091C901.4166666666666,82.32954545454545,903.8333333333334,82.06818181818183,906.25,81.80681818181819C908.6666666666666,81.54545454545455,911.0833333333334,81.28409090909092,913.5,81.02272727272728C915.9166666666666,80.76136363636364,918.3333333333334,80.5,920.75,80.23863636363636C923.1666666666666,79.97727272727272,925.5833333333334,79.7159090909091,928,79.45454545454545C930.4166666666666,79.19318181818181,932.8333333333334,78.93181818181819,935.25,78.67045454545455C937.6666666666666,78.4090909090909,940.0833333333334,78.14772727272728,942.5,77.88636363636364C944.9166666666666,77.625,947.3333333333334,77.36363636363636,949.75,77.10227272727272C952.1666666666666,76.84090909090908,954.5833333333334,76.57954545454547,957,76.31818181818183C959.4166666666666,76.05681818181819,961.8333333333334,75.79545454545455,964.25,75.5340909090909C966.6666666666667,75.27272727272727,969.0833333333334,75.01136363636364,971.5000000000001,74.75C973.9166666666667,74.48863636363636,976.3333333333335,74.22727272727273,978.7500000000001,73.9659090909091C981.1666666666667,73.70454545454545,983.5833333333335,73.44318181818183,986.0000000000001,73.18181818181819C988.4166666666667,72.92045454545455,990.8333333333335,72.6590909090909,993.2500000000001,72.39772727272727C995.6666666666667,72.13636363636364,998.0833333333333,71.875,1000.4999999999999,71.61363636363637C1002.9166666666665,71.35227272727273,1005.3333333333333,71.09090909090911,1007.7499999999999,70.82954545454547C1010.1666666666665,70.56818181818183,1012.5833333333333,70.30681818181819,1014.9999999999999,70.04545454545455C1017.4166666666665,69.7840909090909,1019.8333333333333,69.52272727272728,1022.2499999999999,69.26136363636364C1024.6666666666665,69,1027.0833333333333,68.73863636363637,1029.5,68.47727272727273C1031.9166666666667,68.2159090909091,1034.3333333333333,67.95454545454545,1036.75,67.69318181818181C1039.1666666666667,67.43181818181817,1041.5833333333333,67.17045454545455,1044,66.9090909090909C1046.4166666666667,66.64772727272727,1048.8333333333333,66.38636363636364,1051.25,66.125C1053.6666666666667,65.86363636363636,1056.0833333333333,65.60227272727272,1058.5,65.34090909090908C1060.9166666666667,65.07954545454544,1063.3333333333333,64.81818181818181,1065.75,64.55681818181817C1068.1666666666667,64.29545454545453,1070.5833333333333,64.03409090909089,1073,63.77272727272726C1075.4166666666667,63.511363636363626,1077.8333333333333,63.25,1080.25,62.98863636363637C1082.6666666666667,62.727272727272734,1085.0833333333333,62.46590909090907,1087.5,62.20454545454544C1089.9166666666667,61.943181818181806,1092.3333333333333,61.68181818181819,1094.75,61.420454545454554C1097.1666666666667,61.15909090909092,1099.5833333333333,60.89772727272728,1102,60.63636363636364C1104.4166666666667,60.375,1106.8333333333333,60.113636363636374,1109.25,59.852272727272734C1111.6666666666667,59.59090909090909,1114.0833333333333,59.32954545454545,1116.5,59.06818181818182C1118.9166666666667,58.80681818181819,1121.3333333333333,58.54545454545455,1123.75,58.284090909090914C1126.1666666666667,58.02272727272728,1128.5833333333333,57.76136363636364,1131,57.5C1133.4166666666667,57.23863636363636,1135.8333333333333,56.97727272727272,1138.25,56.715909090909086C1140.6666666666667,56.45454545454545,1143.0833333333333,56.19318181818181,1145.5,55.93181818181818C1147.9166666666667,55.67045454545455,1150.3333333333333,55.4090909090909,1152.75,55.147727272727266C1155.1666666666667,54.88636363636363,1157.5833333333333,54.625,1160,54.36363636363637C1162.4166666666667,54.102272727272734,1164.8333333333333,53.84090909090909,1167.25,53.57954545454546C1169.6666666666667,53.31818181818183,1172.0833333333333,53.05681818181819,1174.5,52.79545454545455C1176.9166666666667,52.53409090909091,1179.3333333333333,52.272727272727266,1181.75,52.01136363636363C1184.1666666666667,51.75,1186.5833333333333,51.48863636363636,1189,51.22727272727273C1191.4166666666667,50.96590909090909,1193.8333333333333,50.70454545454545,1196.25,50.44318181818181C1198.6666666666667,50.18181818181817,1201.0833333333333,49.92045454545454,1203.5,49.65909090909091C1205.9166666666667,49.39772727272727,1208.3333333333333,49.13636363636364,1210.75,48.87500000000001C1213.1666666666667,48.613636363636374,1215.5833333333333,48.352272727272734,1218,48.09090909090909C1220.4166666666667,47.82954545454545,1222.8333333333333,47.56818181818181,1225.25,47.30681818181818C1227.6666666666667,47.04545454545455,1230.0833333333333,46.78409090909091,1232.5,46.52272727272727C1234.9166666666667,46.26136363636364,1237.3333333333333,46,1239.75,45.73863636363636C1242.1666666666667,45.47727272727272,1244.5833333333333,45.21590909090909,1247,44.95454545454545C1249.4166666666667,44.69318181818181,1251.8333333333333,44.43181818181817,1254.25,44.17045454545454C1256.6666666666667,43.90909090909091,1259.0833333333333,43.64772727272727,1261.5,43.38636363636364C1263.9166666666667,43.12500000000001,1266.3333333333333,42.863636363636374,1268.75,42.602272727272734C1271.1666666666667,42.34090909090909,1273.5833333333333,42.07954545454545,1276,41.81818181818182C1278.4166666666667,41.55681818181819,1280.8333333333333,41.29545454545456,1283.25,41.03409090909092C1285.6666666666667,40.77272727272728,1288.0833333333333,40.51136363636364,1290.5,40.25C1292.9166666666667,39.98863636363636,1295.3333333333333,39.72727272727273,1297.75,39.465909090909086C1300.1666666666667,39.204545454545446,1302.5833333333333,38.943181818181806,1305,38.68181818181817C1307.4166666666667,38.42045454545454,1309.8333333333333,38.159090909090914,1312.25,37.89772727272728C1314.6666666666667,37.63636363636365,1317.0833333333333,37.37500000000001,1319.5,37.11363636363637C1321.9166666666667,36.85227272727273,1324.3333333333333,36.59090909090909,1326.75,36.32954545454545C1329.1666666666667,36.06818181818181,1331.5833333333333,35.80681818181819,1334,35.54545454545455C1336.4166666666667,35.28409090909091,1338.8333333333333,35.02272727272727,1341.25,34.76136363636363C1343.6666666666667,34.49999999999999,1346.0833333333333,34.23863636363635,1348.5,33.97727272727272C1350.9166666666667,33.715909090909086,1353.3333333333333,33.45454545454546,1355.75,33.19318181818183C1358.1666666666667,32.931818181818194,1360.5833333333333,32.670454545454554,1363,32.409090909090914C1365.4166666666667,32.14772727272727,1367.8333333333333,31.886363636363644,1370.25,31.625000000000004C1372.6666666666667,31.363636363636363,1375.0833333333333,31.102272727272716,1377.5,30.84090909090908C1379.9166666666667,30.579545454545443,1382.3333333333333,30.318181818181813,1384.75,30.05681818181818C1387.1666666666667,29.795454545454547,1389.5833333333333,29.534090909090907,1392,29.27272727272727C1394.4166666666667,29.011363636363633,1396.8333333333333,28.749999999999993,1399.25,28.48863636363636C1401.6666666666667,28.227272727272727,1404.0833333333333,27.965909090909097,1406.5,27.70454545454546C1408.9166666666667,27.443181818181824,1411.3333333333333,27.181818181818173,1413.75,26.920454545454536C1416.1666666666667,26.6590909090909,1418.5833333333333,26.397727272727273,1421,26.13636363636364C1423.4166666666667,25.875000000000007,1425.8333333333333,25.613636363636363,1428.25,25.352272727272727C1430.6666666666667,25.09090909090909,1433.0833333333333,24.829545454545457,1435.5,24.568181818181817C1437.9166666666667,24.306818181818176,1440.3333333333333,24.04545454545453,1442.75,23.784090909090892C1445.1666666666667,23.522727272727256,1447.5833333333333,23.261363636363626,1450,22.999999999999996" fill="transparent" stroke-linecap="round" stroke="#E7C6DF" stroke-width="2"></path><g class="visx-group visx-axis visx-axis-bottom" transform="translate(0, 115)"><g class="visx-group visx-axis-tick" transform="translate(0, 0)"><line class="visx-line" x1="0" y1="0" x2="0" y2="8" fill="transparent" shape-rendering="crispEdges" stroke="#000" stroke-width="0" stroke-linecap="square"></line><svg x="0" y="0" font-size="10" style="overflow:visible"><text transform="" x="0" y="18" fill="#000" font-size="10" text-anchor="middle"><tspan x="0" dy="0em">0%</tspan></text></svg></g><g class="visx-group visx-axis-tick" transform="translate(0, 0)"><line class="visx-line" x1="362.5" y1="0" x2="362.5" y2="8" fill="transparent" shape-rendering="crispEdges" stroke="#000" stroke-width="0" stroke-linecap="square"></line><svg x="0" y="0" font-size="10" style="overflow:visible"><text transform="" x="362.5" y="18" fill="#000" font-size="10" text-anchor="middle"><tspan x="362.5" dy="0em">25%</tspan></text></svg></g><g class="visx-group visx-axis-tick" transform="translate(0, 0)"><line class="visx-line" x1="725" y1="0" x2="725" y2="8" fill="transparent" shape-rendering="crispEdges" stroke="#000" stroke-width="0" stroke-linecap="square"></line><svg x="0" y="0" font-size="10" style="overflow:visible"><text transform="" x="725" y="18" fill="#000" font-size="10" text-anchor="middle"><tspan x="725" dy="0em">50%</tspan></text></svg></g><g class="visx-group visx-axis-tick" transform="translate(0, 0)"><line class="visx-line" x1="1087.5" y1="0" x2="1087.5" y2="8" fill="transparent" shape-rendering="crispEdges" stroke="#000" stroke-width="0" stroke-linecap="square"></line><svg x="0" y="0" font-size="10" style="overflow:visible"><text transform="" x="1087.5" y="18" fill="#000" font-size="10" text-anchor="middle"><tspan x="1087.5" dy="0em">75%</tspan></text></svg></g><g class="visx-group visx-axis-tick" transform="translate(0, 0)"><line class="visx-line" x1="1450" y1="0" x2="1450" y2="8" fill="transparent" shape-rendering="crispEdges" stroke="#000" stroke-width="0" stroke-linecap="square"></line><svg x="0" y="0" font-size="10" style="overflow:visible"><text transform="" x="1450" y="18" fill="#000" font-size="10" text-anchor="middle"><tspan x="1450" dy="0em">100%</tspan></text></svg></g><line class="visx-line visx-axis-line" x1="0.5" y1="0" x2="1450.5" y2="0" fill="transparent" shape-rendering="crispEdges" stroke="#222" stroke-width="0"></line></g><g class="visx-group visx-axis visx-axis-left" transform="translate(0, 0)"><g class="visx-group visx-axis-tick" transform="translate(0, 0)"><line class="visx-line" x1="0" y1="115" x2="-8" y2="115" fill="transparent" shape-rendering="crispEdges" stroke="#222" stroke-width="0" stroke-linecap="square"></line><svg x="-30" y="0" font-size="8" style="overflow:visible"><text transform="" x="-8" y="115" fill="#000" font-size="8" text-anchor="start"><tspan x="-8" dy="0em">0%</tspan></text></svg></g><g class="visx-group visx-axis-tick" transform="translate(0, 0)"><line class="visx-line" x1="0" y1="57.5" x2="-8" y2="57.5" fill="transparent" shape-rendering="crispEdges" stroke="#222" stroke-width="0" stroke-linecap="square"></line><svg x="-30" y="0" font-size="8" style="overflow:visible"><text transform="" x="-8" y="57.5" fill="#000" font-size="8" text-anchor="start"><tspan x="-8" dy="0em">200%</tspan></text></svg></g><g class="visx-group visx-axis-tick" transform="translate(0, 0)"><line class="visx-line" x1="0" y1="0" x2="-8" y2="0" fill="transparent" shape-rendering="crispEdges" stroke="#222" stroke-width="0" stroke-linecap="square"></line><svg x="-30" y="0" font-size="8" style="overflow:visible"><text transform="" x="-8" y="0" fill="#000" font-size="8" text-anchor="start"><tspan x="-8" dy="0em">400%</tspan></text></svg></g><line class="visx-line visx-axis-line" x1="0" y1="115.5" x2="0" y2="0.5" fill="transparent" shape-rendering="crispEdges" stroke="#222" stroke-width="0"></line></g><rect class="visx-bar" width="1450" height="115" fill="transparent"></rect><line class="visx-line" x1="652.5" y1="28" x2="652.5" y2="115" fill="transparent" shape-rendering="crispEdges" stroke="#0062D2" stroke-width="1" pointer-events="none" stroke-dasharray="5,2"></line><svg x="0" y="0" font-size="10px" style="overflow:visible"><text transform="" x="652.5" y="20" font-size="10px" fill="#fff" stroke="#fff" stroke-width="0.8em" text-anchor="middle"><tspan x="652.5" dy="0.355em">Optimal 45%</tspan></text></svg><svg x="0" y="0" font-size="10px" style="overflow:visible"><text transform="" x="652.5" y="20" font-size="10px" fill="#62677B" text-anchor="middle"><tspan x="652.5" dy="0.355em">Optimal 45%</tspan></text></svg></g></svg>