<?xml version="1.0"?><svg xmlns="http://www.w3.org/2000/svg" xmlns:xlink= "http://www.w3.org/1999/xlink" style="background: white;" width="1500" height="185"> <g style="color: black; font-size: 13px; font-family: sans-serif; transform: translate(18px, 25px);"><g><circle r="3" cx="-6" cy="-5" style="fill: #B6509E" /><text>Borrow APR, variable</text></g><g style="transform: translateX(150px);"><circle r="3" cx="-6" cy="-5" style="fill: rgb(231, 198, 223)" /><text>Borrow APR, stable</text></g><g style="transform: translateX(290px);"><circle r="3" cx="-6" cy="-5" style="fill: rgb(0, 98, 210)" /><text>Utilization Rate</text></g></g><g class="visx-group" transform="translate(40, 50)"><g class="visx-group visx-rows" transform="translate(0, 0)"><line class="visx-line" x1="0" y1="115" x2="1450" y2="115" fill="transparent" shape-rendering="crispEdges" stroke="#000" stroke-width="1" stroke-dasharray="3,3" pointer-events="none"></line><line class="visx-line" x1="0" y1="82.14285714285714" x2="1450" y2="82.14285714285714" fill="transparent" shape-rendering="crispEdges" stroke="#000" stroke-width="1" stroke-dasharray="3,3" pointer-events="none"></line><line class="visx-line" x1="0" y1="49.28571428571429" x2="1450" y2="49.28571428571429" fill="transparent" shape-rendering="crispEdges" stroke="#000" stroke-width="1" stroke-dasharray="3,3" pointer-events="none"></line><line class="visx-line" x1="0" y1="16.428571428571434" x2="1450" y2="16.428571428571434" fill="transparent" shape-rendering="crispEdges" stroke="#000" stroke-width="1" stroke-dasharray="3,3" pointer-events="none"></line></g><path class="visx-linepath" d="M0,114.99999999997078C2.4166666666666665,114.99513227511524,4.833333333333334,114.99026455025968,7.25,114.98539682539683C9.666666666666666,114.98052910053399,12.083333333333334,114.97566137566137,14.5,114.97079365079365C16.916666666666668,114.96592592592593,19.333333333333332,114.9610582010582,21.75,114.95619047619047C24.166666666666668,114.95132275132275,26.583333333333332,114.94645502645503,29,114.9415873015873C31.416666666666668,114.93671957671958,33.833333333333336,114.93185185185185,36.25,114.92698412698412C38.666666666666664,114.9221164021164,41.083333333333336,114.91724867724868,43.5,114.91238095238096C45.91666666666667,114.90751322751323,48.333333333333336,114.9026455026455,50.75000000000001,114.89777777777778C53.16666666666667,114.89291005291005,55.583333333333336,114.88804232804232,58,114.8831746031746C60.416666666666664,114.87830687830687,62.833333333333336,114.87343915343915,65.25,114.86857142857143C67.66666666666667,114.8637037037037,70.08333333333333,114.85883597883597,72.5,114.85396825396825C74.91666666666667,114.84910052910053,77.33333333333333,114.8442328042328,79.75,114.83936507936508C82.16666666666667,114.83449735449736,84.58333333333333,114.82962962962964,87,114.82476190476191C89.41666666666667,114.81989417989419,91.83333333333333,114.81502645502646,94.25,114.81015873015873C96.66666666666667,114.80529100529101,99.08333333333334,114.80042328042327,101.50000000000001,114.79555555555555C103.91666666666667,114.79068783068783,106.33333333333334,114.78582010582011,108.75,114.78095238095239C111.16666666666667,114.77608465608466,113.58333333333333,114.77121693121693,116,114.7663492063492C118.41666666666667,114.76148148148148,120.83333333333334,114.75661375661376,123.25000000000001,114.75174603174604C125.66666666666667,114.74687830687832,128.08333333333334,114.74201058201058,130.5,114.73714285714286C132.91666666666666,114.73227513227513,135.33333333333334,114.7274074074074,137.75,114.72253968253968C140.16666666666666,114.71767195767195,142.58333333333334,114.71280423280423,145,114.70793650793651C147.41666666666666,114.70306878306879,149.83333333333334,114.69820105820105,152.25,114.69333333333333C154.66666666666666,114.6884656084656,157.08333333333334,114.68359788359788,159.5,114.67873015873016C161.91666666666666,114.67386243386244,164.33333333333334,114.66899470899472,166.75,114.664126984127C169.16666666666666,114.65925925925927,171.58333333333334,114.65439153439152,174,114.6495238095238C176.41666666666666,114.64465608465608,178.83333333333334,114.63978835978835,181.25,114.63492063492063C183.66666666666666,114.63005291005291,186.08333333333334,114.62518518518519,188.5,114.62031746031747C190.91666666666666,114.61544973544974,193.33333333333334,114.61058201058201,195.75,114.60571428571428C198.16666666666669,114.60084656084656,200.58333333333334,114.59597883597884,203.00000000000003,114.59111111111112C205.41666666666669,114.5862433862434,207.83333333333331,114.58137566137566,210.24999999999997,114.57650793650794C212.66666666666666,114.57164021164022,215.08333333333331,114.56677248677248,217.5,114.56190476190476C219.91666666666666,114.55703703703703,222.33333333333334,114.55216931216931,224.75,114.54730158730159C227.16666666666666,114.54243386243387,229.58333333333334,114.53756613756613,232,114.53269841269841C234.41666666666666,114.52783068783069,236.83333333333334,114.52296296296296,239.25,114.51809523809524C241.66666666666669,114.51322751322752,244.08333333333334,114.5083597883598,246.50000000000003,114.50349206349208C248.91666666666669,114.49862433862435,251.33333333333331,114.4937566137566,253.74999999999997,114.48888888888888C256.16666666666663,114.48402116402116,258.5833333333333,114.47915343915344,261,114.47428571428571C263.4166666666667,114.46941798941799,265.8333333333333,114.46455026455027,268.25,114.45968253968255C270.6666666666667,114.45481481481482,273.0833333333333,114.44994708994709,275.5,114.44507936507937C277.9166666666667,114.44021164021164,280.3333333333333,114.43534391534392,282.75,114.4304761904762C285.1666666666667,114.42560846560848,287.5833333333333,114.42074074074073,290,114.415873015873C292.4166666666667,114.41100529100528,294.8333333333333,114.40613756613756,297.25,114.40126984126984C299.6666666666667,114.39640211640211,302.0833333333333,114.39153439153439,304.5,114.38666666666667C306.9166666666667,114.38179894179895,309.3333333333333,114.37693121693121,311.75,114.37206349206349C314.1666666666667,114.36719576719577,316.5833333333333,114.36232804232804,319,114.35746031746032C321.4166666666667,114.3525925925926,323.8333333333333,114.34772486772486,326.25,114.34285714285714C328.6666666666667,114.33798941798942,331.0833333333333,114.33312169312168,333.5,114.32825396825396C335.9166666666667,114.32338624338624,338.3333333333333,114.31851851851852,340.75,114.3136507936508C343.1666666666667,114.30878306878307,345.5833333333333,114.30391534391535,348,114.29904761904763C350.4166666666667,114.2941798941799,352.8333333333333,114.28931216931217,355.25,114.28444444444445C357.6666666666667,114.27957671957672,360.0833333333333,114.27470899470899,362.5,114.26984126984127C364.9166666666667,114.26497354497354,367.3333333333333,114.2601058201058,369.75,114.25523809523808C372.1666666666667,114.25037037037036,374.5833333333333,114.24550264550264,377,114.24063492063492C379.4166666666667,114.2357671957672,381.8333333333333,114.23089947089947,384.25,114.22603174603175C386.6666666666667,114.22116402116403,389.0833333333333,114.21629629629629,391.5,114.21142857142857C393.9166666666667,114.20656084656085,396.33333333333337,114.20169312169313,398.75000000000006,114.1968253968254C401.16666666666674,114.19195767195768,403.58333333333337,114.18708994708994,406.00000000000006,114.18222222222222C408.4166666666667,114.1773544973545,410.8333333333333,114.17248677248676,413.24999999999994,114.16761904761904C415.66666666666663,114.16275132275132,418.08333333333326,114.1578835978836,420.49999999999994,114.15301587301587C422.91666666666663,114.14814814814815,425.3333333333333,114.14328042328043,427.75,114.13841269841271C430.1666666666667,114.13354497354499,432.5833333333333,114.12867724867725,435,114.12380952380953C437.4166666666667,114.1189417989418,439.8333333333333,114.11407407407407,442.25,114.10920634920635C444.6666666666667,114.10433862433862,447.0833333333333,114.09947089947089,449.5,114.09460317460317C451.9166666666667,114.08973544973544,454.3333333333333,114.08486772486772,456.75,114.08C459.1666666666667,114.07513227513228,461.5833333333333,114.07026455026455,464,114.06539682539683C466.4166666666667,114.06052910052911,468.8333333333333,114.05566137566137,471.25,114.05079365079365C473.6666666666667,114.04592592592593,476.0833333333333,114.04105820105819,478.5,114.03619047619047C480.9166666666667,114.03132275132275,483.33333333333337,114.02645502645503,485.75000000000006,114.0215873015873C488.16666666666674,114.01671957671958,490.58333333333337,114.01185185185184,493.00000000000006,114.00698412698412C495.4166666666667,114.0021164021164,497.8333333333333,113.99724867724868,500.24999999999994,113.99238095238096C502.66666666666663,113.98751322751323,505.08333333333326,113.98264550264551,507.49999999999994,113.97777777777779C509.91666666666663,113.97291005291007,512.3333333333333,113.96804232804233,514.75,113.96317460317461C517.1666666666666,113.95830687830689,519.5833333333334,113.95343915343915,522,113.94857142857143C524.4166666666666,113.9437037037037,526.8333333333334,113.93883597883597,529.25,113.93396825396825C531.6666666666666,113.92910052910052,534.0833333333334,113.9242328042328,536.5,113.91936507936508C538.9166666666666,113.91449735449736,541.3333333333334,113.90962962962963,543.75,113.90476190476191C546.1666666666666,113.89989417989419,548.5833333333334,113.89502645502645,551,113.89015873015873C553.4166666666666,113.88529100529101,555.8333333333334,113.88042328042327,558.25,113.87555555555555C560.6666666666666,113.87068783068783,563.0833333333334,113.8658201058201,565.5,113.86095238095238C567.9166666666666,113.85608465608466,570.3333333333334,113.85121693121692,572.75,113.8463492063492C575.1666666666666,113.84148148148148,577.5833333333334,113.83661375661376,580,113.83174603174604C582.4166666666666,113.82687830687831,584.8333333333334,113.82201058201059,587.25,113.81714285714287C589.6666666666666,113.81227513227515,592.0833333333334,113.8074074074074,594.5,113.80253968253967C596.9166666666666,113.79767195767195,599.3333333333334,113.79280423280423,601.75,113.78793650793651C604.1666666666666,113.78306878306879,606.5833333333334,113.77820105820105,609,113.77333333333333C611.4166666666666,113.7684656084656,613.8333333333334,113.76359788359788,616.25,113.75873015873016C618.6666666666666,113.75386243386244,621.0833333333334,113.74899470899472,623.5,113.74412698412699C625.9166666666666,113.73925925925927,628.3333333333334,113.73439153439153,630.75,113.72952380952381C633.1666666666666,113.72465608465609,635.5833333333334,113.71978835978835,638,113.71492063492063C640.4166666666666,113.71005291005291,642.8333333333334,113.70518518518519,645.25,113.70031746031746C647.6666666666666,113.69544973544974,650.0833333333334,113.69544973544974,652.5,113.68571428571428C654.9166666666666,113.67597883597882,657.3333333333334,113.08831168831169,659.75,112.78961038961039C662.1666666666666,112.49090909090908,664.5833333333334,112.1922077922078,667,111.8935064935065C669.4166666666666,111.59480519480519,671.8333333333334,111.2961038961039,674.25,110.9974025974026C676.6666666666666,110.6987012987013,679.0833333333334,110.4,681.5,110.1012987012987C683.9166666666666,109.8025974025974,686.3333333333334,109.50389610389611,688.75,109.20519480519481C691.1666666666666,108.9064935064935,693.5833333333334,108.6077922077922,696,108.3090909090909C698.4166666666666,108.0103896103896,700.8333333333334,107.71168831168829,703.25,107.412987012987C705.6666666666666,107.11428571428571,708.0833333333334,106.81558441558442,710.5,106.51688311688312C712.9166666666666,106.21818181818182,715.3333333333334,105.91948051948052,717.75,105.62077922077921C720.1666666666666,105.32207792207791,722.5833333333334,105.02337662337663,725,104.72467532467533C727.4166666666666,104.42597402597403,729.8333333333334,104.12727272727273,732.25,103.82857142857142C734.6666666666666,103.52987012987012,737.0833333333334,103.23116883116883,739.5,102.93246753246754C741.9166666666666,102.63376623376625,744.3333333333334,102.33506493506495,746.75,102.03636363636365C749.1666666666666,101.73766233766234,751.5833333333334,101.43896103896105,754,101.14025974025975C756.4166666666666,100.84155844155845,758.8333333333334,100.54285714285716,761.25,100.24415584415586C763.6666666666666,99.94545454545455,766.0833333333334,99.64675324675325,768.5,99.34805194805195C770.9166666666666,99.04935064935064,773.3333333333334,98.75064935064935,775.75,98.45194805194805C778.1666666666666,98.15324675324675,780.5833333333334,97.85454545454544,783,97.55584415584416C785.4166666666667,97.25714285714285,787.8333333333334,96.95844155844156,790.2500000000001,96.65974025974026C792.6666666666667,96.36103896103896,795.0833333333335,96.06233766233767,797.5000000000001,95.76363636363637C799.9166666666667,95.46493506493506,802.3333333333335,95.16623376623377,804.7500000000001,94.86753246753247C807.1666666666667,94.56883116883117,809.5833333333335,94.27012987012988,812.0000000000001,93.97142857142858C814.4166666666667,93.67272727272729,816.8333333333333,93.37402597402597,819.2499999999999,93.07532467532468C821.6666666666665,92.77662337662338,824.0833333333333,92.47792207792209,826.4999999999999,92.17922077922078C828.9166666666665,91.88051948051948,831.3333333333333,91.58181818181819,833.7499999999999,91.28311688311689C836.1666666666665,90.98441558441559,838.5833333333333,90.68571428571428,840.9999999999999,90.387012987013C843.4166666666666,90.08831168831169,845.8333333333333,89.7896103896104,848.25,89.4909090909091C850.6666666666666,89.1922077922078,853.0833333333334,88.8935064935065,855.5,88.59480519480519C857.9166666666666,88.29610389610389,860.3333333333334,87.9974025974026,862.75,87.6987012987013C865.1666666666666,87.39999999999999,867.5833333333334,87.1012987012987,870,86.8025974025974C872.4166666666666,86.5038961038961,874.8333333333334,86.20519480519481,877.25,85.9064935064935C879.6666666666666,85.6077922077922,882.0833333333334,85.30909090909091,884.5,85.01038961038961C886.9166666666666,84.7116883116883,889.3333333333334,84.41298701298702,891.75,84.11428571428571C894.1666666666666,83.81558441558441,896.5833333333334,83.51688311688312,899,83.21818181818182C901.4166666666666,82.91948051948052,903.8333333333334,82.62077922077923,906.25,82.32207792207792C908.6666666666666,82.02337662337662,911.0833333333334,81.72467532467533,913.5,81.42597402597403C915.9166666666666,81.12727272727273,918.3333333333334,80.82857142857144,920.75,80.52987012987013C923.1666666666666,80.23116883116883,925.5833333333334,79.93246753246754,928,79.63376623376624C930.4166666666666,79.33506493506493,932.8333333333334,79.03636363636365,935.25,78.73766233766234C937.6666666666666,78.43896103896104,940.0833333333334,78.14025974025974,942.5,77.84155844155843C944.9166666666666,77.54285714285713,947.3333333333334,77.24415584415586,949.75,76.94545454545455C952.1666666666666,76.64675324675325,954.5833333333334,76.34805194805195,957,76.04935064935064C959.4166666666666,75.75064935064934,961.8333333333334,75.45194805194805,964.25,75.15324675324676C966.6666666666667,74.85454545454546,969.0833333333334,74.55584415584416,971.5000000000001,74.25714285714285C973.9166666666667,73.95844155844155,976.3333333333335,73.65974025974026,978.7500000000001,73.36103896103896C981.1666666666667,73.06233766233765,983.5833333333335,72.76363636363637,986.0000000000001,72.46493506493506C988.4166666666667,72.16623376623376,990.8333333333335,71.86753246753247,993.2500000000001,71.56883116883117C995.6666666666667,71.27012987012988,998.0833333333333,70.97142857142856,1000.4999999999999,70.67272727272727C1002.9166666666665,70.37402597402597,1005.3333333333333,70.07532467532468,1007.7499999999999,69.77662337662338C1010.1666666666665,69.47792207792207,1012.5833333333333,69.17922077922078,1014.9999999999999,68.88051948051948C1017.4166666666665,68.58181818181818,1019.8333333333333,68.28311688311689,1022.2499999999999,67.98441558441559C1024.6666666666665,67.68571428571428,1027.0833333333333,67.38701298701298,1029.5,67.08831168831168C1031.9166666666667,66.78961038961037,1034.3333333333333,66.4909090909091,1036.75,66.1922077922078C1039.1666666666667,65.8935064935065,1041.5833333333333,65.59480519480519,1044,65.29610389610389C1046.4166666666667,64.99740259740258,1048.8333333333333,64.69870129870131,1051.25,64.4C1053.6666666666667,64.1012987012987,1056.0833333333333,63.80259740259739,1058.5,63.503896103896096C1060.9166666666667,63.2051948051948,1063.3333333333333,62.90649350649351,1065.75,62.607792207792215C1068.1666666666667,62.30909090909092,1070.5833333333333,62.0103896103896,1073,61.711688311688306C1075.4166666666667,61.41298701298701,1077.8333333333333,61.114285714285714,1080.25,60.81558441558442C1082.6666666666667,60.51688311688312,1085.0833333333333,60.21818181818182,1087.5,59.91948051948052C1089.9166666666667,59.62077922077923,1092.3333333333333,59.32207792207793,1094.75,59.02337662337663C1097.1666666666667,58.724675324675324,1099.5833333333333,58.42597402597402,1102,58.12727272727272C1104.4166666666667,57.828571428571415,1106.8333333333333,57.52987012987012,1109.25,57.23116883116882C1111.6666666666667,56.93246753246753,1114.0833333333333,56.63376623376624,1116.5,56.33506493506494C1118.9166666666667,56.036363636363646,1121.3333333333333,55.737662337662336,1123.75,55.43896103896104C1126.1666666666667,55.140259740259744,1128.5833333333333,54.84155844155844,1131,54.542857142857144C1133.4166666666667,54.24415584415585,1135.8333333333333,53.945454545454545,1138.25,53.64675324675325C1140.6666666666667,53.34805194805195,1143.0833333333333,53.04935064935065,1145.5,52.750649350649354C1147.9166666666667,52.45194805194806,1150.3333333333333,52.153246753246755,1152.75,51.85454545454546C1155.1666666666667,51.55584415584416,1157.5833333333333,51.25714285714285,1160,50.95844155844156C1162.4166666666667,50.65974025974026,1164.8333333333333,50.36103896103896,1167.25,50.06233766233766C1169.6666666666667,49.763636363636365,1172.0833333333333,49.46493506493506,1174.5,49.166233766233766C1176.9166666666667,48.86753246753247,1179.3333333333333,48.56883116883118,1181.75,48.270129870129885C1184.1666666666667,47.97142857142859,1186.5833333333333,47.67272727272728,1189,47.374025974025976C1191.4166666666667,47.07532467532467,1193.8333333333333,46.77662337662338,1196.25,46.47792207792208C1198.6666666666667,46.179220779220785,1201.0833333333333,45.880519480519474,1203.5,45.58181818181818C1205.9166666666667,45.28311688311688,1208.3333333333333,44.98441558441558,1210.75,44.68571428571428C1213.1666666666667,44.38701298701299,1215.5833333333333,44.088311688311684,1218,43.78961038961039C1220.4166666666667,43.49090909090909,1222.8333333333333,43.19220779220779,1225.25,42.89350649350649C1227.6666666666667,42.5948051948052,1230.0833333333333,42.29610389610391,1232.5,41.99740259740261C1234.9166666666667,41.698701298701316,1237.3333333333333,41.400000000000006,1239.75,41.1012987012987C1242.1666666666667,40.8025974025974,1244.5833333333333,40.503896103896096,1247,40.2051948051948C1249.4166666666667,39.906493506493504,1251.8333333333333,39.6077922077922,1254.25,39.309090909090905C1256.6666666666667,39.01038961038961,1259.0833333333333,38.711688311688306,1261.5,38.41298701298701C1263.9166666666667,38.114285714285714,1266.3333333333333,37.81558441558441,1268.75,37.516883116883115C1271.1666666666667,37.21818181818182,1273.5833333333333,36.91948051948053,1276,36.620779220779234C1278.4166666666667,36.32207792207794,1280.8333333333333,36.023376623376635,1283.25,35.72467532467533C1285.6666666666667,35.42597402597403,1288.0833333333333,35.12727272727272,1290.5,34.82857142857142C1292.9166666666667,34.529870129870126,1295.3333333333333,34.23116883116884,1297.75,33.93246753246754C1300.1666666666667,33.633766233766245,1302.5833333333333,33.335064935064935,1305,33.03636363636363C1307.4166666666667,32.73766233766233,1309.8333333333333,32.43896103896103,1312.25,32.14025974025974C1314.6666666666667,31.841558441558437,1317.0833333333333,31.542857142857134,1319.5,31.244155844155838C1321.9166666666667,30.94545454545454,1324.3333333333333,30.646753246753256,1326.75,30.348051948051957C1329.1666666666667,30.049350649350657,1331.5833333333333,29.750649350649347,1334,29.451948051948047C1336.4166666666667,29.153246753246748,1338.8333333333333,28.85454545454546,1341.25,28.555844155844163C1343.6666666666667,28.257142857142867,1346.0833333333333,27.958441558441567,1348.5,27.659740259740268C1350.9166666666667,27.361038961038968,1353.3333333333333,27.062337662337658,1355.75,26.76363636363636C1358.1666666666667,26.46493506493506,1360.5833333333333,26.166233766233756,1363,25.86753246753246C1365.4166666666667,25.568831168831164,1367.8333333333333,25.27012987012987,1370.25,24.97142857142858C1372.6666666666667,24.672727272727286,1375.0833333333333,24.374025974025994,1377.5,24.075324675324694C1379.9166666666667,23.776623376623395,1382.3333333333333,23.477922077922088,1384.75,23.179220779220785C1387.1666666666667,22.88051948051948,1389.5833333333333,22.581818181818175,1392,22.283116883116875C1394.4166666666667,21.984415584415576,1396.8333333333333,21.685714285714276,1399.25,21.38701298701298C1401.6666666666667,21.088311688311684,1404.0833333333333,20.789610389610395,1406.5,20.490909090909096C1408.9166666666667,20.192207792207796,1411.3333333333333,19.893506493506486,1413.75,19.594805194805186C1416.1666666666667,19.296103896103887,1418.5833333333333,18.997402597402587,1421,18.69870129870129C1423.4166666666667,18.399999999999995,1425.8333333333333,18.101298701298706,1428.25,17.802597402597407C1430.6666666666667,17.503896103896107,1433.0833333333333,17.205194805194797,1435.5,16.906493506493497C1437.9166666666667,16.607792207792198,1440.3333333333333,16.30909090909091,1442.75,16.010389610389613C1445.1666666666667,15.711688311688317,1447.5833333333333,15.412987012987017,1450,15.114285714285717" fill="transparent" stroke-linecap="round" stroke="#B6509E" stroke-width="2"></path><path class="visx-linepath" d="M0,113.02857142857142C2.4166666666666665,113.02857142857142,4.833333333333334,113.02857142857142,7.25,113.02857142857142C9.666666666666666,113.02857142857142,12.083333333333334,113.02857142857142,14.5,113.02857142857142C16.916666666666668,113.02857142857142,19.333333333333332,113.02857142857142,21.75,113.02857142857142C24.166666666666668,113.02857142857142,26.583333333333332,113.02857142857142,29,113.02857142857142C31.416666666666668,113.02857142857142,33.833333333333336,113.02857142857142,36.25,113.02857142857142C38.666666666666664,113.02857142857142,41.083333333333336,113.02857142857142,43.5,113.02857142857142C45.91666666666667,113.02857142857142,48.333333333333336,113.02857142857142,50.75000000000001,113.02857142857142C53.16666666666667,113.02857142857142,55.583333333333336,113.02857142857142,58,113.02857142857142C60.416666666666664,113.02857142857142,62.833333333333336,113.02857142857142,65.25,113.02857142857142C67.66666666666667,113.02857142857142,70.08333333333333,113.02857142857142,72.5,113.02857142857142C74.91666666666667,113.02857142857142,77.33333333333333,113.02857142857142,79.75,113.02857142857142C82.16666666666667,113.02857142857142,84.58333333333333,113.02857142857142,87,113.02857142857142C89.41666666666667,113.02857142857142,91.83333333333333,113.02857142857142,94.25,113.02857142857142C96.66666666666667,113.02857142857142,99.08333333333334,113.02857142857142,101.50000000000001,113.02857142857142C103.91666666666667,113.02857142857142,106.33333333333334,113.02857142857142,108.75,113.02857142857142C111.16666666666667,113.02857142857142,113.58333333333333,113.02857142857142,116,113.02857142857142C118.41666666666667,113.02857142857142,120.83333333333334,113.02857142857142,123.25000000000001,113.02857142857142C125.66666666666667,113.02857142857142,128.08333333333334,113.02857142857142,130.5,113.02857142857142C132.91666666666666,113.02857142857142,135.33333333333334,113.02857142857142,137.75,113.02857142857142C140.16666666666666,113.02857142857142,142.58333333333334,113.02857142857142,145,113.02857142857142C147.41666666666666,113.02857142857142,149.83333333333334,113.02857142857142,152.25,113.02857142857142C154.66666666666666,113.02857142857142,157.08333333333334,113.02857142857142,159.5,113.02857142857142C161.91666666666666,113.02857142857142,164.33333333333334,113.02857142857142,166.75,113.02857142857142C169.16666666666666,113.02857142857142,171.58333333333334,113.02857142857142,174,113.02857142857142C176.41666666666666,113.02857142857142,178.83333333333334,113.02857142857142,181.25,113.02857142857142C183.66666666666666,113.02857142857142,186.08333333333334,113.02857142857142,188.5,113.02857142857142C190.91666666666666,113.02857142857142,193.33333333333334,113.02857142857142,195.75,113.02857142857142C198.16666666666669,113.02857142857142,200.58333333333334,113.02857142857142,203.00000000000003,113.02857142857142C205.41666666666669,113.02857142857142,207.83333333333331,113.02857142857142,210.24999999999997,113.02857142857142C212.66666666666666,113.02857142857142,215.08333333333331,113.02857142857142,217.5,113.02857142857142C219.91666666666666,113.02857142857142,222.33333333333334,113.02857142857142,224.75,113.02857142857142C227.16666666666666,113.02857142857142,229.58333333333334,113.02857142857142,232,113.02857142857142C234.41666666666666,113.02857142857142,236.83333333333334,113.02857142857142,239.25,113.02857142857142C241.66666666666669,113.02857142857142,244.08333333333334,113.02857142857142,246.50000000000003,113.02857142857142C248.91666666666669,113.02857142857142,251.33333333333331,113.02857142857142,253.74999999999997,113.02857142857142C256.16666666666663,113.02857142857142,258.5833333333333,113.02857142857142,261,113.02857142857142C263.4166666666667,113.02857142857142,265.8333333333333,113.02857142857142,268.25,113.02857142857142C270.6666666666667,113.02857142857142,273.0833333333333,113.02857142857142,275.5,113.02857142857142C277.9166666666667,113.02857142857142,280.3333333333333,113.02857142857142,282.75,113.02857142857142C285.1666666666667,113.02857142857142,287.5833333333333,113.02857142857142,290,113.02857142857142C292.4166666666667,113.02857142857142,294.8333333333333,113.02857142857142,297.25,113.02857142857142C299.6666666666667,113.02857142857142,302.0833333333333,113.02857142857142,304.5,113.02857142857142C306.9166666666667,113.02857142857142,309.3333333333333,113.02857142857142,311.75,113.02857142857142C314.1666666666667,113.02857142857142,316.5833333333333,113.02857142857142,319,113.02857142857142C321.4166666666667,113.02857142857142,323.8333333333333,113.02857142857142,326.25,113.02857142857142C328.6666666666667,113.02857142857142,331.0833333333333,113.02857142857142,333.5,113.02857142857142C335.9166666666667,113.02857142857142,338.3333333333333,113.02857142857142,340.75,113.02857142857142C343.1666666666667,113.02857142857142,345.5833333333333,113.02857142857142,348,113.02857142857142C350.4166666666667,113.02857142857142,352.8333333333333,113.02857142857142,355.25,113.02857142857142C357.6666666666667,113.02857142857142,360.0833333333333,113.02857142857142,362.5,113.02857142857142C364.9166666666667,113.02857142857142,367.3333333333333,113.02857142857142,369.75,113.02857142857142C372.1666666666667,113.02857142857142,374.5833333333333,113.02857142857142,377,113.02857142857142C379.4166666666667,113.02857142857142,381.8333333333333,113.02857142857142,384.25,113.02857142857142C386.6666666666667,113.02857142857142,389.0833333333333,113.02857142857142,391.5,113.02857142857142C393.9166666666667,113.02857142857142,396.33333333333337,113.02857142857142,398.75000000000006,113.02857142857142C401.16666666666674,113.02857142857142,403.58333333333337,113.02857142857142,406.00000000000006,113.02857142857142C408.4166666666667,113.02857142857142,410.8333333333333,113.02857142857142,413.24999999999994,113.02857142857142C415.66666666666663,113.02857142857142,418.08333333333326,113.02857142857142,420.49999999999994,113.02857142857142C422.91666666666663,113.02857142857142,425.3333333333333,113.02857142857142,427.75,113.02857142857142C430.1666666666667,113.02857142857142,432.5833333333333,113.02857142857142,435,113.02857142857142C437.4166666666667,113.02857142857142,439.8333333333333,113.02857142857142,442.25,113.02857142857142C444.6666666666667,113.02857142857142,447.0833333333333,113.02857142857142,449.5,113.02857142857142C451.9166666666667,113.02857142857142,454.3333333333333,113.02857142857142,456.75,113.02857142857142C459.1666666666667,113.02857142857142,461.5833333333333,113.02857142857142,464,113.02857142857142C466.4166666666667,113.02857142857142,468.8333333333333,113.02857142857142,471.25,113.02857142857142C473.6666666666667,113.02857142857142,476.0833333333333,113.02857142857142,478.5,113.02857142857142C480.9166666666667,113.02857142857142,483.33333333333337,113.02857142857142,485.75000000000006,113.02857142857142C488.16666666666674,113.02857142857142,490.58333333333337,113.02857142857142,493.00000000000006,113.02857142857142C495.4166666666667,113.02857142857142,497.8333333333333,113.02857142857142,500.24999999999994,113.02857142857142C502.66666666666663,113.02857142857142,505.08333333333326,113.02857142857142,507.49999999999994,113.02857142857142C509.91666666666663,113.02857142857142,512.3333333333333,113.02857142857142,514.75,113.02857142857142C517.1666666666666,113.02857142857142,519.5833333333334,113.02857142857142,522,113.02857142857142C524.4166666666666,113.02857142857142,526.8333333333334,113.02857142857142,529.25,113.02857142857142C531.6666666666666,113.02857142857142,534.0833333333334,113.02857142857142,536.5,113.02857142857142C538.9166666666666,113.02857142857142,541.3333333333334,113.02857142857142,543.75,113.02857142857142C546.1666666666666,113.02857142857142,548.5833333333334,113.02857142857142,551,113.02857142857142C553.4166666666666,113.02857142857142,555.8333333333334,113.02857142857142,558.25,113.02857142857142C560.6666666666666,113.02857142857142,563.0833333333334,113.02857142857142,565.5,113.02857142857142C567.9166666666666,113.02857142857142,570.3333333333334,113.02857142857142,572.75,113.02857142857142C575.1666666666666,113.02857142857142,577.5833333333334,113.02857142857142,580,113.02857142857142C582.4166666666666,113.02857142857142,584.8333333333334,113.02857142857142,587.25,113.02857142857142C589.6666666666666,113.02857142857142,592.0833333333334,113.02857142857142,594.5,113.02857142857142C596.9166666666666,113.02857142857142,599.3333333333334,113.02857142857142,601.75,113.02857142857142C604.1666666666666,113.02857142857142,606.5833333333334,113.02857142857142,609,113.02857142857142C611.4166666666666,113.02857142857142,613.8333333333334,113.02857142857142,616.25,113.02857142857142C618.6666666666666,113.02857142857142,621.0833333333334,113.02857142857142,623.5,113.02857142857142C625.9166666666666,113.02857142857142,628.3333333333334,113.02857142857142,630.75,113.02857142857142C633.1666666666666,113.02857142857142,635.5833333333334,113.02857142857142,638,113.02857142857142C640.4166666666666,113.02857142857142,642.8333333333334,113.02857142857142,645.25,113.02857142857142C647.6666666666666,113.02857142857142,650.0833333333334,113.02857142857142,652.5,113.02857142857142C654.9166666666666,113.02857142857142,657.3333333333334,113.02857142857142,659.75,113.02857142857142C662.1666666666666,113.02857142857142,664.5833333333334,113.02857142857142,667,113.02857142857142C669.4166666666666,113.02857142857142,671.8333333333334,113.02857142857142,674.25,113.02857142857142C676.6666666666666,113.02857142857142,679.0833333333334,113.02857142857142,681.5,113.02857142857142C683.9166666666666,113.02857142857142,686.3333333333334,113.02857142857142,688.75,113.02857142857142C691.1666666666666,113.02857142857142,693.5833333333334,113.02857142857142,696,113.02857142857142C698.4166666666666,113.02857142857142,700.8333333333334,113.02857142857142,703.25,113.02857142857142C705.6666666666666,113.02857142857142,708.0833333333334,113.02857142857142,710.5,113.02857142857142C712.9166666666666,113.02857142857142,715.3333333333334,113.02857142857142,717.75,113.02857142857142C720.1666666666666,113.02857142857142,722.5833333333334,113.02857142857142,725,113.02857142857142C727.4166666666666,113.02857142857142,729.8333333333334,113.02857142857142,732.25,113.02857142857142C734.6666666666666,113.02857142857142,737.0833333333334,113.02857142857142,739.5,113.02857142857142C741.9166666666666,113.02857142857142,744.3333333333334,113.02857142857142,746.75,113.02857142857142C749.1666666666666,113.02857142857142,751.5833333333334,113.02857142857142,754,113.02857142857142C756.4166666666666,113.02857142857142,758.8333333333334,113.02857142857142,761.25,113.02857142857142C763.6666666666666,113.02857142857142,766.0833333333334,113.02857142857142,768.5,113.02857142857142C770.9166666666666,113.02857142857142,773.3333333333334,113.02857142857142,775.75,113.02857142857142C778.1666666666666,113.02857142857142,780.5833333333334,113.02857142857142,783,113.02857142857142C785.4166666666667,113.02857142857142,787.8333333333334,113.02857142857142,790.2500000000001,113.02857142857142C792.6666666666667,113.02857142857142,795.0833333333335,113.02857142857142,797.5000000000001,113.02857142857142C799.9166666666667,113.02857142857142,802.3333333333335,113.02857142857142,804.7500000000001,113.02857142857142C807.1666666666667,113.02857142857142,809.5833333333335,113.02857142857142,812.0000000000001,113.02857142857142C814.4166666666667,113.02857142857142,816.8333333333333,113.02857142857142,819.2499999999999,113.02857142857142C821.6666666666665,113.02857142857142,824.0833333333333,113.02857142857142,826.4999999999999,113.02857142857142C828.9166666666665,113.02857142857142,831.3333333333333,113.02857142857142,833.7499999999999,113.02857142857142C836.1666666666665,113.02857142857142,838.5833333333333,113.02857142857142,840.9999999999999,113.02857142857142C843.4166666666666,113.02857142857142,845.8333333333333,113.02857142857142,848.25,113.02857142857142C850.6666666666666,113.02857142857142,853.0833333333334,113.02857142857142,855.5,113.02857142857142C857.9166666666666,113.02857142857142,860.3333333333334,113.02857142857142,862.75,113.02857142857142C865.1666666666666,113.02857142857142,867.5833333333334,113.02857142857142,870,113.02857142857142C872.4166666666666,113.02857142857142,874.8333333333334,113.02857142857142,877.25,113.02857142857142C879.6666666666666,113.02857142857142,882.0833333333334,113.02857142857142,884.5,113.02857142857142C886.9166666666666,113.02857142857142,889.3333333333334,113.02857142857142,891.75,113.02857142857142C894.1666666666666,113.02857142857142,896.5833333333334,113.02857142857142,899,113.02857142857142C901.4166666666666,113.02857142857142,903.8333333333334,113.02857142857142,906.25,113.02857142857142C908.6666666666666,113.02857142857142,911.0833333333334,113.02857142857142,913.5,113.02857142857142C915.9166666666666,113.02857142857142,918.3333333333334,113.02857142857142,920.75,113.02857142857142C923.1666666666666,113.02857142857142,925.5833333333334,113.02857142857142,928,113.02857142857142C930.4166666666666,113.02857142857142,932.8333333333334,113.02857142857142,935.25,113.02857142857142C937.6666666666666,113.02857142857142,940.0833333333334,113.02857142857142,942.5,113.02857142857142C944.9166666666666,113.02857142857142,947.3333333333334,113.02857142857142,949.75,113.02857142857142C952.1666666666666,113.02857142857142,954.5833333333334,113.02857142857142,957,113.02857142857142C959.4166666666666,113.02857142857142,961.8333333333334,113.02857142857142,964.25,113.02857142857142C966.6666666666667,113.02857142857142,969.0833333333334,113.02857142857142,971.5000000000001,113.02857142857142C973.9166666666667,113.02857142857142,976.3333333333335,113.02857142857142,978.7500000000001,113.02857142857142C981.1666666666667,113.02857142857142,983.5833333333335,113.02857142857142,986.0000000000001,113.02857142857142C988.4166666666667,113.02857142857142,990.8333333333335,113.02857142857142,993.2500000000001,113.02857142857142C995.6666666666667,113.02857142857142,998.0833333333333,113.02857142857142,1000.4999999999999,113.02857142857142C1002.9166666666665,113.02857142857142,1005.3333333333333,113.02857142857142,1007.7499999999999,113.02857142857142C1010.1666666666665,113.02857142857142,1012.5833333333333,113.02857142857142,1014.9999999999999,113.02857142857142C1017.4166666666665,113.02857142857142,1019.8333333333333,113.02857142857142,1022.2499999999999,113.02857142857142C1024.6666666666665,113.02857142857142,1027.0833333333333,113.02857142857142,1029.5,113.02857142857142C1031.9166666666667,113.02857142857142,1034.3333333333333,113.02857142857142,1036.75,113.02857142857142C1039.1666666666667,113.02857142857142,1041.5833333333333,113.02857142857142,1044,113.02857142857142C1046.4166666666667,113.02857142857142,1048.8333333333333,113.02857142857142,1051.25,113.02857142857142C1053.6666666666667,113.02857142857142,1056.0833333333333,113.02857142857142,1058.5,113.02857142857142C1060.9166666666667,113.02857142857142,1063.3333333333333,113.02857142857142,1065.75,113.02857142857142C1068.1666666666667,113.02857142857142,1070.5833333333333,113.02857142857142,1073,113.02857142857142C1075.4166666666667,113.02857142857142,1077.8333333333333,113.02857142857142,1080.25,113.02857142857142C1082.6666666666667,113.02857142857142,1085.0833333333333,113.02857142857142,1087.5,113.02857142857142C1089.9166666666667,113.02857142857142,1092.3333333333333,113.02857142857142,1094.75,113.02857142857142C1097.1666666666667,113.02857142857142,1099.5833333333333,113.02857142857142,1102,113.02857142857142C1104.4166666666667,113.02857142857142,1106.8333333333333,113.02857142857142,1109.25,113.02857142857142C1111.6666666666667,113.02857142857142,1114.0833333333333,113.02857142857142,1116.5,113.02857142857142C1118.9166666666667,113.02857142857142,1121.3333333333333,113.02857142857142,1123.75,113.02857142857142C1126.1666666666667,113.02857142857142,1128.5833333333333,113.02857142857142,1131,113.02857142857142C1133.4166666666667,113.02857142857142,1135.8333333333333,113.02857142857142,1138.25,113.02857142857142C1140.6666666666667,113.02857142857142,1143.0833333333333,113.02857142857142,1145.5,113.02857142857142C1147.9166666666667,113.02857142857142,1150.3333333333333,113.02857142857142,1152.75,113.02857142857142C1155.1666666666667,113.02857142857142,1157.5833333333333,113.02857142857142,1160,113.02857142857142C1162.4166666666667,113.02857142857142,1164.8333333333333,113.02857142857142,1167.25,113.02857142857142C1169.6666666666667,113.02857142857142,1172.0833333333333,113.02857142857142,1174.5,113.02857142857142C1176.9166666666667,113.02857142857142,1179.3333333333333,113.02857142857142,1181.75,113.02857142857142C1184.1666666666667,113.02857142857142,1186.5833333333333,113.02857142857142,1189,113.02857142857142C1191.4166666666667,113.02857142857142,1193.8333333333333,113.02857142857142,1196.25,113.02857142857142C1198.6666666666667,113.02857142857142,1201.0833333333333,113.02857142857142,1203.5,113.02857142857142C1205.9166666666667,113.02857142857142,1208.3333333333333,113.02857142857142,1210.75,113.02857142857142C1213.1666666666667,113.02857142857142,1215.5833333333333,113.02857142857142,1218,113.02857142857142C1220.4166666666667,113.02857142857142,1222.8333333333333,113.02857142857142,1225.25,113.02857142857142C1227.6666666666667,113.02857142857142,1230.0833333333333,113.02857142857142,1232.5,113.02857142857142C1234.9166666666667,113.02857142857142,1237.3333333333333,113.02857142857142,1239.75,113.02857142857142C1242.1666666666667,113.02857142857142,1244.5833333333333,113.02857142857142,1247,113.02857142857142C1249.4166666666667,113.02857142857142,1251.8333333333333,113.02857142857142,1254.25,113.02857142857142C1256.6666666666667,113.02857142857142,1259.0833333333333,113.02857142857142,1261.5,113.02857142857142C1263.9166666666667,113.02857142857142,1266.3333333333333,113.02857142857142,1268.75,113.02857142857142C1271.1666666666667,113.02857142857142,1273.5833333333333,113.02857142857142,1276,113.02857142857142C1278.4166666666667,113.02857142857142,1280.8333333333333,113.02857142857142,1283.25,113.02857142857142C1285.6666666666667,113.02857142857142,1288.0833333333333,113.02857142857142,1290.5,113.02857142857142C1292.9166666666667,113.02857142857142,1295.3333333333333,113.02857142857142,1297.75,113.02857142857142C1300.1666666666667,113.02857142857142,1302.5833333333333,113.02857142857142,1305,113.02857142857142C1307.4166666666667,113.02857142857142,1309.8333333333333,113.02857142857142,1312.25,113.02857142857142C1314.6666666666667,113.02857142857142,1317.0833333333333,113.02857142857142,1319.5,113.02857142857142C1321.9166666666667,113.02857142857142,1324.3333333333333,113.02857142857142,1326.75,113.02857142857142C1329.1666666666667,113.02857142857142,1331.5833333333333,113.02857142857142,1334,113.02857142857142C1336.4166666666667,113.02857142857142,1338.8333333333333,113.02857142857142,1341.25,113.02857142857142C1343.6666666666667,113.02857142857142,1346.0833333333333,113.02857142857142,1348.5,113.02857142857142C1350.9166666666667,113.02857142857142,1353.3333333333333,113.02857142857142,1355.75,113.02857142857142C1358.1666666666667,113.02857142857142,1360.5833333333333,113.02857142857142,1363,113.02857142857142C1365.4166666666667,113.02857142857142,1367.8333333333333,113.02857142857142,1370.25,113.02857142857142C1372.6666666666667,113.02857142857142,1375.0833333333333,113.02857142857142,1377.5,113.02857142857142C1379.9166666666667,113.02857142857142,1382.3333333333333,113.02857142857142,1384.75,113.02857142857142C1387.1666666666667,113.02857142857142,1389.5833333333333,113.02857142857142,1392,113.02857142857142C1394.4166666666667,113.02857142857142,1396.8333333333333,113.02857142857142,1399.25,113.02857142857142C1401.6666666666667,113.02857142857142,1404.0833333333333,113.02857142857142,1406.5,113.02857142857142C1408.9166666666667,113.02857142857142,1411.3333333333333,113.02857142857142,1413.75,113.02857142857142C1416.1666666666667,113.02857142857142,1418.5833333333333,113.02857142857142,1421,113.02857142857142C1423.4166666666667,113.02857142857142,1425.8333333333333,113.02857142857142,1428.25,113.02857142857142C1430.6666666666667,113.02857142857142,1433.0833333333333,113.02857142857142,1435.5,113.02857142857142C1437.9166666666667,113.02857142857142,1440.3333333333333,113.02857142857142,1442.75,113.02857142857142C1445.1666666666667,113.02857142857142,1447.5833333333333,113.02857142857142,1450,113.02857142857142" fill="transparent" stroke-linecap="round" stroke="#E7C6DF" stroke-width="2"></path><g class="visx-group visx-axis visx-axis-bottom" transform="translate(0, 115)"><g class="visx-group visx-axis-tick" transform="translate(0, 0)"><line class="visx-line" x1="0" y1="0" x2="0" y2="8" fill="transparent" shape-rendering="crispEdges" stroke="#000" stroke-width="0" stroke-linecap="square"></line><svg x="0" y="0" font-size="10" style="overflow:visible"><text transform="" x="0" y="18" fill="#000" font-size="10" text-anchor="middle"><tspan x="0" dy="0em">0%</tspan></text></svg></g><g class="visx-group visx-axis-tick" transform="translate(0, 0)"><line class="visx-line" x1="362.5" y1="0" x2="362.5" y2="8" fill="transparent" shape-rendering="crispEdges" stroke="#000" stroke-width="0" stroke-linecap="square"></line><svg x="0" y="0" font-size="10" style="overflow:visible"><text transform="" x="362.5" y="18" fill="#000" font-size="10" text-anchor="middle"><tspan x="362.5" dy="0em">25%</tspan></text></svg></g><g class="visx-group visx-axis-tick" transform="translate(0, 0)"><line class="visx-line" x1="725" y1="0" x2="725" y2="8" fill="transparent" shape-rendering="crispEdges" stroke="#000" stroke-width="0" stroke-linecap="square"></line><svg x="0" y="0" font-size="10" style="overflow:visible"><text transform="" x="725" y="18" fill="#000" font-size="10" text-anchor="middle"><tspan x="725" dy="0em">50%</tspan></text></svg></g><g class="visx-group visx-axis-tick" transform="translate(0, 0)"><line class="visx-line" x1="1087.5" y1="0" x2="1087.5" y2="8" fill="transparent" shape-rendering="crispEdges" stroke="#000" stroke-width="0" stroke-linecap="square"></line><svg x="0" y="0" font-size="10" style="overflow:visible"><text transform="" x="1087.5" y="18" fill="#000" font-size="10" text-anchor="middle"><tspan x="1087.5" dy="0em">75%</tspan></text></svg></g><g class="visx-group visx-axis-tick" transform="translate(0, 0)"><line class="visx-line" x1="1450" y1="0" x2="1450" y2="8" fill="transparent" shape-rendering="crispEdges" stroke="#000" stroke-width="0" stroke-linecap="square"></line><svg x="0" y="0" font-size="10" style="overflow:visible"><text transform="" x="1450" y="18" fill="#000" font-size="10" text-anchor="middle"><tspan x="1450" dy="0em">100%</tspan></text></svg></g><line class="visx-line visx-axis-line" x1="0.5" y1="0" x2="1450.5" y2="0" fill="transparent" shape-rendering="crispEdges" stroke="#222" stroke-width="0"></line></g><g class="visx-group visx-axis visx-axis-left" transform="translate(0, 0)"><g class="visx-group visx-axis-tick" transform="translate(0, 0)"><line class="visx-line" x1="0" y1="115" x2="-8" y2="115" fill="transparent" shape-rendering="crispEdges" stroke="#222" stroke-width="0" stroke-linecap="square"></line><svg x="-30" y="0" font-size="8" style="overflow:visible"><text transform="" x="-8" y="115" fill="#000" font-size="8" text-anchor="start"><tspan x="-8" dy="0em">0%</tspan></text></svg></g><g class="visx-group visx-axis-tick" transform="translate(0, 0)"><line class="visx-line" x1="0" y1="49.28571428571429" x2="-8" y2="49.28571428571429" fill="transparent" shape-rendering="crispEdges" stroke="#222" stroke-width="0" stroke-linecap="square"></line><svg x="-30" y="0" font-size="8" style="overflow:visible"><text transform="" x="-8" y="49.28571428571429" fill="#000" font-size="8" text-anchor="start"><tspan x="-8" dy="0em">200%</tspan></text></svg></g><line class="visx-line visx-axis-line" x1="0" y1="115.5" x2="0" y2="0.5" fill="transparent" shape-rendering="crispEdges" stroke="#222" stroke-width="0"></line></g><rect class="visx-bar" width="1450" height="115" fill="transparent"></rect><line class="visx-line" x1="652.5" y1="28" x2="652.5" y2="115" fill="transparent" shape-rendering="crispEdges" stroke="#0062D2" stroke-width="1" pointer-events="none" stroke-dasharray="5,2"></line><svg x="0" y="0" font-size="10px" style="overflow:visible"><text transform="" x="652.5" y="20" font-size="10px" fill="#fff" stroke="#fff" stroke-width="0.8em" text-anchor="middle"><tspan x="652.5" dy="0.355em">Optimal 45%</tspan></text></svg><svg x="0" y="0" font-size="10px" style="overflow:visible"><text transform="" x="652.5" y="20" font-size="10px" fill="#62677B" text-anchor="middle"><tspan x="652.5" dy="0.355em">Optimal 45%</tspan></text></svg></g></svg>