<?xml version="1.0"?><svg xmlns="http://www.w3.org/2000/svg" xmlns:xlink= "http://www.w3.org/1999/xlink" style="background: white;" width="1500" height="300"> <g style="color: black; font-size: 13px; font-family: sans-serif; transform: translate(18px, 25px);"><g><circle r="3" cx="-6" cy="-5" style="fill: #1AD4B3" /><text>Borrow APR, variable</text></g><g style="transform: translateX(150px);"><circle r="3" cx="-6" cy="-5" style="fill: #101423" /><text>Borrow APR, stable</text></g></g><g class="visx-group" transform="translate(45, 50)"><g class="visx-group visx-rows" transform="translate(0, 0)"><line class="visx-line" x1="0" y1="155" x2="1425" y2="155" fill="transparent" shape-rendering="crispEdges" stroke="#F2F0F9" stroke-width="1" pointer-events="none"></line><line class="visx-line" x1="0" y1="116.25" x2="1425" y2="116.25" fill="transparent" shape-rendering="crispEdges" stroke="#F2F0F9" stroke-width="1" pointer-events="none"></line><line class="visx-line" x1="0" y1="77.5" x2="1425" y2="77.5" fill="transparent" shape-rendering="crispEdges" stroke="#F2F0F9" stroke-width="1" pointer-events="none"></line><line class="visx-line" x1="0" y1="38.75" x2="1425" y2="38.75" fill="transparent" shape-rendering="crispEdges" stroke="#F2F0F9" stroke-width="1" pointer-events="none"></line><line class="visx-line" x1="0" y1="0" x2="1425" y2="0" fill="transparent" shape-rendering="crispEdges" stroke="#F2F0F9" stroke-width="1" pointer-events="none"></line></g><path class="visx-linepath" d="M0,151.12499999978687C2.375,151.08947916654233,4.75,151.05395833329783,7.125,151.0184375C9.5,150.98291666670218,11.875,150.9473958333333,14.25,150.91187499999998C16.625,150.87635416666666,19,150.84083333333334,21.375,150.8053125C23.75,150.7697916666667,26.125,150.7342708333333,28.5,150.69875C30.875,150.66322916666667,33.25,150.62770833333332,35.625,150.5921875C38,150.55666666666667,40.375,150.52114583333332,42.75,150.485625C45.125,150.45010416666668,47.50000000000001,150.41458333333333,49.87500000000001,150.3790625C52.25000000000001,150.34354166666668,54.625,150.30802083333333,57,150.2725C59.375,150.23697916666666,61.75,150.20145833333333,64.125,150.16593749999998C66.5,150.13041666666663,68.875,150.0948958333333,71.25,150.059375C73.625,150.02385416666667,76,149.98833333333332,78.375,149.9528125C80.75,149.91729166666667,83.125,149.88177083333332,85.5,149.84625C87.875,149.81072916666668,90.25,149.77520833333332,92.625,149.7396875C95,149.70416666666668,97.37500000000001,149.66864583333333,99.75000000000001,149.633125C102.12500000000001,149.59760416666668,104.5,149.56208333333333,106.875,149.5265625C109.25,149.49104166666666,111.625,149.4555208333333,114,149.42C116.375,149.38447916666664,118.75000000000001,149.34895833333331,121.12500000000001,149.3134375C123.50000000000001,149.27791666666667,125.875,149.24239583333332,128.25,149.206875C130.625,149.17135416666667,133,149.13583333333332,135.375,149.1003125C137.75,149.06479166666668,140.125,149.02927083333333,142.5,148.99375C144.875,148.95822916666668,147.25,148.92270833333333,149.625,148.8871875C152,148.8516666666667,154.375,148.81614583333334,156.75,148.78062500000001C159.125,148.7451041666667,161.5,148.70958333333334,163.875,148.6740625C166.25,148.63854166666664,168.625,148.60302083333332,171,148.5675C173.375,148.53197916666667,175.75,148.49645833333332,178.125,148.4609375C180.5,148.42541666666668,182.875,148.38989583333333,185.25,148.354375C187.625,148.31885416666668,190,148.28333333333333,192.375,148.2478125C194.75,148.21229166666666,197.12500000000003,148.1767708333333,199.50000000000003,148.14124999999999C201.875,148.10572916666666,204.25,148.07020833333334,206.62499999999997,148.03468750000002C208.99999999999997,147.9991666666667,211.375,147.96364583333335,213.75,147.928125C216.125,147.89260416666667,218.5,147.85708333333332,220.875,147.8215625C223.25,147.78604166666668,225.625,147.75052083333333,228,147.715C230.375,147.67947916666668,232.75,147.64395833333333,235.125,147.6084375C237.5,147.57291666666666,239.87500000000003,147.53739583333333,242.25000000000003,147.50187499999998C244.625,147.46635416666666,247,147.4308333333333,249.37499999999997,147.3953125C251.74999999999997,147.35979166666667,254.125,147.32427083333332,256.5,147.28875C258.875,147.25322916666667,261.25,147.21770833333332,263.625,147.1821875C266,147.14666666666668,268.375,147.11114583333332,270.75,147.075625C273.125,147.04010416666668,275.5,147.00458333333333,277.875,146.9690625C280.25,146.93354166666668,282.625,146.89802083333333,285,146.8625C287.375,146.8269791666667,289.75,146.79145833333337,292.125,146.75593750000002C294.5,146.72041666666667,296.875,146.68489583333331,299.25,146.649375C301.625,146.61385416666667,304,146.57833333333332,306.375,146.5428125C308.75,146.50729166666667,311.125,146.47177083333332,313.5,146.43625C315.875,146.40072916666668,318.25,146.36520833333333,320.625,146.3296875C323,146.29416666666668,325.375,146.2586458333333,327.75,146.22312499999998C330.125,146.18760416666666,332.5,146.15208333333334,334.875,146.11656250000001C337.25,146.0810416666667,339.625,146.04552083333334,342,146.01C344.375,145.97447916666664,346.75,145.93895833333332,349.125,145.9034375C351.5,145.86791666666667,353.875,145.83239583333332,356.25,145.796875C358.625,145.76135416666668,361,145.72583333333333,363.375,145.6903125C365.75,145.65479166666668,368.125,145.61927083333336,370.5,145.58375C372.875,145.54822916666666,375.25,145.5127083333333,377.625,145.47718749999999C380,145.44166666666666,382.375,145.4061458333333,384.75,145.370625C387.125,145.33510416666667,389.50000000000006,145.29958333333335,391.87500000000006,145.26406250000002C394.25000000000006,145.2285416666667,396.62500000000006,145.19302083333335,399.00000000000006,145.1575C401.375,145.12197916666668,403.75,145.08645833333333,406.12499999999994,145.0509375C408.49999999999994,145.01541666666668,410.87499999999994,144.97989583333333,413.24999999999994,144.944375C415.62499999999994,144.90885416666669,418,144.87333333333336,420.375,144.8378125C422.75,144.8022916666667,425.125,144.76677083333334,427.5,144.73125C429.875,144.69572916666664,432.25,144.66020833333332,434.625,144.6246875C437,144.58916666666667,439.375,144.55364583333332,441.75,144.518125C444.125,144.48260416666668,446.5,144.44708333333332,448.875,144.4115625C451.25,144.37604166666668,453.625,144.34052083333333,456,144.305C458.375,144.26947916666668,460.75,144.23395833333333,463.125,144.1984375C465.5,144.1629166666667,467.875,144.12739583333334,470.25,144.09187500000002C472.625,144.05635416666667,475.00000000000006,144.02083333333334,477.37500000000006,143.9853125C479.75000000000006,143.94979166666667,482.12500000000006,143.91427083333332,484.50000000000006,143.87875C486.875,143.84322916666667,489.25,143.80770833333332,491.62499999999994,143.7721875C493.99999999999994,143.73666666666668,496.37499999999994,143.70114583333333,498.74999999999994,143.665625C501.12499999999994,143.63010416666665,503.5,143.59458333333333,505.875,143.55906249999998C508.25,143.52354166666666,510.625,143.4880208333333,513,143.4525C515.375,143.41697916666666,517.75,143.38145833333334,520.125,143.34593750000002C522.5,143.3104166666667,524.875,143.27489583333335,527.25,143.239375C529.625,143.20385416666664,532,143.16833333333332,534.375,143.1328125C536.75,143.09729166666668,539.125,143.06177083333333,541.5,143.02625C543.875,142.99072916666668,546.25,142.95520833333333,548.625,142.9196875C551,142.8841666666667,553.375,142.84864583333336,555.75,142.813125C558.125,142.77760416666666,560.5,142.7420833333333,562.875,142.7065625C565.25,142.67104166666667,567.625,142.63552083333332,570,142.6C572.375,142.56447916666667,574.75,142.52895833333332,577.125,142.4934375C579.5,142.45791666666668,581.875,142.42239583333333,584.25,142.386875C586.625,142.35135416666668,589,142.31583333333333,591.375,142.2803125C593.75,142.24479166666669,596.125,142.20927083333333,598.5,142.17375C600.875,142.1382291666667,603.25,142.10270833333334,605.625,142.0671875C608,142.03166666666664,610.375,141.99614583333332,612.75,141.960625C615.125,141.92510416666667,617.5,141.88958333333332,619.875,141.8540625C622.25,141.81854166666668,624.625,141.78302083333332,627,141.7475C629.375,141.71197916666668,631.75,141.67645833333336,634.125,141.6409375C636.5,141.60541666666666,638.875,141.5698958333333,641.25,141.53437499999998C643.625,141.49885416666666,646,141.46333333333334,648.375,141.42781250000002C650.75,141.3922916666667,653.125,141.35677083333337,655.5,141.32125000000002C657.875,141.28572916666667,660.25,141.25020833333332,662.625,141.2146875C665,141.17916666666667,667.375,141.14364583333332,669.75,141.108125C672.125,141.07260416666668,674.5,141.03708333333333,676.875,141.0015625C679.25,140.96604166666668,681.625,140.93052083333333,684,140.895C686.375,140.8594791666667,688.75,140.82395833333334,691.125,140.7884375C693.5,140.75291666666664,695.875,140.7173958333333,698.25,140.681875C700.625,140.64635416666667,703,140.61083333333332,705.375,140.5753125C707.75,140.53979166666667,710.125,140.50427083333332,712.5,140.46875C714.875,140.43322916666668,717.25,140.39770833333333,719.625,140.3621875C722,140.32666666666668,724.375,140.29114583333333,726.75,140.255625C729.125,140.2201041666667,731.5,140.18458333333336,733.875,140.1490625C736.25,140.11354166666666,738.625,140.0780208333333,741,140.0425C743.375,140.00697916666667,745.75,139.97145833333332,748.125,139.9359375C750.5,139.90041666666667,752.875,139.86489583333332,755.25,139.829375C757.625,139.79385416666668,760,139.75833333333333,762.375,139.7228125C764.75,139.68729166666668,767.125,139.6517708333333,769.5,139.61624999999998C771.875,139.58072916666663,774.2500000000001,139.5452083333333,776.6250000000001,139.50968749999998C779.0000000000001,139.47416666666666,781.3750000000001,139.43864583333334,783.7500000000001,139.40312500000002C786.1250000000001,139.3676041666667,788.5000000000001,139.33208333333334,790.8750000000001,139.2965625C793.2500000000001,139.26104166666664,795.6250000000001,139.22552083333332,798.0000000000001,139.19C800.375,139.15447916666668,802.75,139.11895833333332,805.1249999999999,139.0834375C807.4999999999999,139.04791666666668,809.8749999999999,139.01239583333333,812.2499999999999,138.976875C814.6249999999999,138.94135416666668,816.9999999999999,138.90583333333336,819.3749999999999,138.8703125C821.7499999999999,138.83479166666666,824.1249999999999,138.7992708333333,826.4999999999999,138.76375C828.8749999999999,138.72822916666664,831.25,138.69270833333331,833.625,138.6571875C836,138.62166666666667,838.375,138.58614583333332,840.75,138.550625C843.125,138.51510416666667,845.5,138.47958333333332,847.875,138.4440625C850.25,138.40854166666668,852.625,138.37302083333333,855,138.3375C857.375,138.30197916666668,859.75,138.26645833333333,862.125,138.2309375C864.5,138.1954166666667,866.875,138.15989583333334,869.25,138.124375C871.625,138.08885416666664,874,138.0533333333333,876.375,138.0178125C878.75,137.98229166666667,881.125,137.94677083333332,883.5,137.91125C885.875,137.87572916666667,888.25,137.84020833333332,890.625,137.8046875C893,137.76916666666668,895.375,137.73364583333336,897.75,137.698125C900.125,137.66260416666665,902.5,137.6270833333333,904.875,137.59156249999998C907.25,137.55604166666666,909.625,137.52052083333334,912,137.485C914.375,137.4494791666667,916.75,137.41395833333337,919.125,137.37843750000002C921.5,137.34291666666667,923.875,137.30739583333332,926.25,137.271875C928.625,137.23635416666667,931,137.20083333333332,933.375,137.1653125C935.75,137.12979166666668,938.125,137.09427083333333,940.5,137.05875C942.875,137.02322916666668,945.25,136.98770833333333,947.625,136.9521875C950,136.91666666666666,952.3750000000001,136.88114583333333,954.7500000000001,136.84562499999998C957.1250000000001,136.81010416666666,959.5000000000001,136.7745833333333,961.8750000000001,136.7390625C964.2500000000001,136.70354166666667,966.6250000000001,136.66802083333332,969.0000000000001,136.6325C971.3750000000001,136.59697916666667,973.7500000000001,136.56145833333332,976.1250000000001,136.5259375C978.5,136.49041666666668,980.875,136.45489583333332,983.2499999999999,136.419375C985.6249999999999,136.38385416666668,987.9999999999999,136.34833333333333,990.3749999999999,136.3128125C992.7499999999999,136.27729166666668,995.1249999999999,136.24177083333336,997.4999999999999,136.20625C999.8749999999999,136.17072916666666,1002.2499999999999,136.1352083333333,1004.6249999999999,136.0996875C1006.9999999999999,136.06416666666664,1009.375,136.02864583333331,1011.75,135.993125C1014.125,135.95760416666667,1016.5,135.92208333333332,1018.875,135.8865625C1021.25,135.85104166666667,1023.625,135.81552083333332,1026,135.78C1028.375,135.74447916666668,1030.75,135.7089583333333,1033.125,135.67343749999998C1035.5,135.63791666666665,1037.875,135.60239583333333,1040.25,135.566875C1042.625,135.5313541666667,1045,135.49583333333334,1047.375,135.46031250000001C1049.75,135.4247916666667,1052.125,135.38927083333334,1054.5,135.35375C1056.875,135.31822916666664,1059.25,135.28270833333332,1061.625,135.2471875C1064,135.21166666666667,1066.375,135.17614583333332,1068.75,135.140625C1071.125,135.10510416666668,1073.5,135.06958333333333,1075.875,135.0340625C1078.25,134.99854166666668,1080.625,134.96302083333336,1083,134.9275C1085.375,134.89197916666666,1087.75,134.8564583333333,1090.125,134.82093749999999C1092.5,134.78541666666666,1094.875,134.74989583333334,1097.25,134.71437500000002C1099.625,134.6788541666667,1102,134.64333333333332,1104.375,134.6078125C1106.75,134.57229166666667,1109.125,134.53677083333332,1111.5,134.50125C1113.875,134.46572916666668,1116.25,134.43020833333333,1118.625,134.3946875C1121,134.35916666666668,1123.375,134.32364583333333,1125.75,134.288125C1128.125,134.25260416666669,1130.5,134.21708333333333,1132.875,134.18156249999998C1135.25,134.14604166666663,1137.625,134.14604166666666,1140,134.075C1142.375,134.00395833333332,1144.75,132.1375,1147.125,131.16875C1149.5,130.2,1151.875,129.23125,1154.25,128.2625C1156.625,127.29374999999999,1159,126.32499999999999,1161.375,125.35624999999999C1163.75,124.38749999999999,1166.125,123.41875,1168.5,122.45C1170.875,121.48125,1173.25,120.5125,1175.625,119.54375C1178,118.575,1180.375,117.60624999999999,1182.75,116.63749999999999C1185.125,115.66874999999999,1187.5,114.7,1189.875,113.73125C1192.25,112.7625,1194.625,111.79375000000002,1197,110.82500000000002C1199.375,109.85625000000002,1201.75,108.8875,1204.125,107.91875C1206.5,106.95,1208.875,105.98125,1211.25,105.0125C1213.625,104.04375,1216,103.07499999999999,1218.375,102.10624999999999C1220.75,101.13749999999999,1223.125,100.16875,1225.5,99.2C1227.875,98.23125,1230.25,97.26250000000002,1232.625,96.29375000000002C1235,95.32500000000002,1237.375,94.35625,1239.75,93.3875C1242.125,92.41875,1244.5,91.45,1246.875,90.48125C1249.25,89.5125,1251.625,88.54374999999999,1254,87.57499999999999C1256.375,86.60624999999999,1258.75,85.6375,1261.125,84.66875C1263.5,83.7,1265.875,82.73125000000002,1268.25,81.76250000000002C1270.625,80.79375000000002,1273,79.825,1275.375,78.85625C1277.75,77.8875,1280.125,76.91875,1282.5,75.95C1284.875,74.98125,1287.25,74.01249999999999,1289.625,73.04374999999999C1292,72.07499999999999,1294.375,71.10625,1296.75,70.1375C1299.125,69.16875,1301.5,68.19999999999999,1303.875,67.23124999999999C1306.25,66.26249999999999,1308.625,65.29375,1311,64.325C1313.375,63.35625,1315.75,62.387499999999996,1318.125,61.418749999999996C1320.5,60.449999999999996,1322.875,59.48124999999999,1325.25,58.51249999999999C1327.625,57.54374999999999,1330,56.575,1332.375,55.60625C1334.75,54.6375,1337.125,53.668749999999996,1339.5,52.699999999999996C1341.875,51.731249999999996,1344.25,50.7625,1346.625,49.79375C1349,48.825,1351.375,47.856249999999996,1353.75,46.887499999999996C1356.125,45.918749999999996,1358.5,44.94999999999999,1360.875,43.98124999999999C1363.25,43.01249999999999,1365.625,42.04375,1368,41.075C1370.375,40.10625,1372.75,39.137499999999996,1375.125,38.168749999999996C1377.5,37.199999999999996,1379.875,36.23125,1382.25,35.2625C1384.625,34.29375,1387,33.324999999999996,1389.375,32.356249999999996C1391.75,31.387499999999996,1394.125,30.418749999999992,1396.5,29.449999999999992C1398.875,28.481249999999992,1401.25,27.512500000000003,1403.625,26.543750000000003C1406,25.575000000000003,1408.375,24.606249999999996,1410.75,23.637499999999996C1413.125,22.668749999999996,1415.5,21.700000000000006,1417.875,20.731250000000006C1420.25,19.762500000000006,1422.625,18.793750000000003,1425,17.825" fill="transparent" stroke-linecap="round" stroke="#1AD4B3" stroke-width="2"></path><g class="visx-group visx-axis visx-axis-bottom" transform="translate(0, 155)"><g class="visx-group visx-axis-tick" transform="translate(0, 0)"><line class="visx-line" x1="0" y1="0" x2="0" y2="8" fill="transparent" shape-rendering="crispEdges" stroke="#F2F0F9" stroke-width="1" stroke-linecap="square"></line><svg x="0" y="0" font-size="11" style="overflow:visible"><text transform="" x="0" y="19" fill="#1B2030" font-size="11" text-anchor="middle"><tspan x="0" dy="0em">0%</tspan></text></svg></g><g class="visx-group visx-axis-tick" transform="translate(0, 0)"><line class="visx-line" x1="356.25" y1="0" x2="356.25" y2="8" fill="transparent" shape-rendering="crispEdges" stroke="#F2F0F9" stroke-width="1" stroke-linecap="square"></line><svg x="0" y="0" font-size="11" style="overflow:visible"><text transform="" x="356.25" y="19" fill="#1B2030" font-size="11" text-anchor="middle"><tspan x="356.25" dy="0em">25%</tspan></text></svg></g><g class="visx-group visx-axis-tick" transform="translate(0, 0)"><line class="visx-line" x1="712.5" y1="0" x2="712.5" y2="8" fill="transparent" shape-rendering="crispEdges" stroke="#F2F0F9" stroke-width="1" stroke-linecap="square"></line><svg x="0" y="0" font-size="11" style="overflow:visible"><text transform="" x="712.5" y="19" fill="#1B2030" font-size="11" text-anchor="middle"><tspan x="712.5" dy="0em">50%</tspan></text></svg></g><g class="visx-group visx-axis-tick" transform="translate(0, 0)"><line class="visx-line" x1="1068.75" y1="0" x2="1068.75" y2="8" fill="transparent" shape-rendering="crispEdges" stroke="#F2F0F9" stroke-width="1" stroke-linecap="square"></line><svg x="0" y="0" font-size="11" style="overflow:visible"><text transform="" x="1068.75" y="19" fill="#1B2030" font-size="11" text-anchor="middle"><tspan x="1068.75" dy="0em">75%</tspan></text></svg></g><g class="visx-group visx-axis-tick" transform="translate(0, 0)"><line class="visx-line" x1="1425" y1="0" x2="1425" y2="8" fill="transparent" shape-rendering="crispEdges" stroke="#F2F0F9" stroke-width="1" stroke-linecap="square"></line><svg x="0" y="0" font-size="11" style="overflow:visible"><text transform="" x="1425" y="19" fill="#1B2030" font-size="11" text-anchor="middle"><tspan x="1425" dy="0em">100%</tspan></text></svg></g></g><g class="visx-group visx-axis visx-axis-left" transform="translate(0, 0)"><g class="visx-group visx-axis-tick" transform="translate(0, 0)"><line class="visx-line" x1="0" y1="155" x2="-8" y2="155" fill="transparent" shape-rendering="crispEdges" stroke="#F2F0F9" stroke-width="1" stroke-linecap="square"></line><svg x="-30" y="0" font-size="11" style="overflow:visible"><text transform="" x="-8" y="155" fill="#1B2030" font-size="11" text-anchor="start"><tspan x="-8" dy="0em">0%</tspan></text></svg></g><g class="visx-group visx-axis-tick" transform="translate(0, 0)"><line class="visx-line" x1="0" y1="116.25" x2="-8" y2="116.25" fill="transparent" shape-rendering="crispEdges" stroke="#F2F0F9" stroke-width="1" stroke-linecap="square"></line><svg x="-30" y="0" font-size="11" style="overflow:visible"><text transform="" x="-8" y="116.25" fill="#1B2030" font-size="11" text-anchor="start"><tspan x="-8" dy="0em">50%</tspan></text></svg></g><g class="visx-group visx-axis-tick" transform="translate(0, 0)"><line class="visx-line" x1="0" y1="77.5" x2="-8" y2="77.5" fill="transparent" shape-rendering="crispEdges" stroke="#F2F0F9" stroke-width="1" stroke-linecap="square"></line><svg x="-30" y="0" font-size="11" style="overflow:visible"><text transform="" x="-8" y="77.5" fill="#1B2030" font-size="11" text-anchor="start"><tspan x="-8" dy="0em">100%</tspan></text></svg></g><g class="visx-group visx-axis-tick" transform="translate(0, 0)"><line class="visx-line" x1="0" y1="38.75" x2="-8" y2="38.75" fill="transparent" shape-rendering="crispEdges" stroke="#F2F0F9" stroke-width="1" stroke-linecap="square"></line><svg x="-30" y="0" font-size="11" style="overflow:visible"><text transform="" x="-8" y="38.75" fill="#1B2030" font-size="11" text-anchor="start"><tspan x="-8" dy="0em">150%</tspan></text></svg></g><g class="visx-group visx-axis-tick" transform="translate(0, 0)"><line class="visx-line" x1="0" y1="0" x2="-8" y2="0" fill="transparent" shape-rendering="crispEdges" stroke="#F2F0F9" stroke-width="1" stroke-linecap="square"></line><svg x="-30" y="0" font-size="11" style="overflow:visible"><text transform="" x="-8" y="0" fill="#1B2030" font-size="11" text-anchor="start"><tspan x="-8" dy="0em">200%</tspan></text></svg></g><line class="visx-line visx-axis-line" x1="0" y1="155.5" x2="0" y2="0.5" fill="transparent" shape-rendering="crispEdges" stroke="#F2F0F9" stroke-width="1"></line></g><rect class="visx-bar" width="1425" height="155" fill="transparent"></rect><line class="visx-line" x1="1140" y1="58" x2="1140" y2="155" fill="transparent" shape-rendering="crispEdges" stroke="#CDC8E1" stroke-width="1" pointer-events="none" stroke-dasharray="5"></line><svg x="0" y="0" font-size="11px" style="overflow:visible"><text transform="" x="1140" y="50" font-size="11px" fill="#555069" stroke="#FFFFFF" stroke-width="1px" text-anchor="middle"><tspan x="1140" dy="0.355em">Optimal utilization 80%</tspan></text></svg><svg x="0" y="0" font-size="11px" style="overflow:visible"><text transform="" x="1140" y="50" font-size="11px" fill="#CDC8E1" text-anchor="middle"><tspan x="1140" dy="0.355em">Optimal utilization 80%</tspan></text></svg></g></svg>