<?xml version="1.0"?><svg xmlns="http://www.w3.org/2000/svg" xmlns:xlink= "http://www.w3.org/1999/xlink" style="background: white;" width="1500" height="185"> <g style="color: black; font-size: 13px; font-family: sans-serif; transform: translate(18px, 25px);"><g><circle r="3" cx="-6" cy="-5" style="fill: #B6509E" /><text>Borrow APR, variable</text></g><g style="transform: translateX(150px);"><circle r="3" cx="-6" cy="-5" style="fill: rgb(231, 198, 223)" /><text>Borrow APR, stable</text></g><g style="transform: translateX(290px);"><circle r="3" cx="-6" cy="-5" style="fill: rgb(0, 98, 210)" /><text>Utilization Rate</text></g></g><g class="visx-group" transform="translate(40, 50)"><g class="visx-group visx-rows" transform="translate(0, 0)"><line class="visx-line" x1="0" y1="115" x2="1450" y2="115" fill="transparent" shape-rendering="crispEdges" stroke="#000" stroke-width="1" stroke-dasharray="3,3" pointer-events="none"></line><line class="visx-line" x1="0" y1="62.72727272727272" x2="1450" y2="62.72727272727272" fill="transparent" shape-rendering="crispEdges" stroke="#000" stroke-width="1" stroke-dasharray="3,3" pointer-events="none"></line><line class="visx-line" x1="0" y1="10.454545454545459" x2="1450" y2="10.454545454545459" fill="transparent" shape-rendering="crispEdges" stroke="#000" stroke-width="1" stroke-dasharray="3,3" pointer-events="none"></line></g><path class="visx-linepath" d="M0,114.99999999993466C2.4166666666666665,114.98910984844673,4.833333333333334,114.9782196969588,7.25,114.96732954545455C9.666666666666666,114.95643939395029,12.083333333333334,114.94554924242425,14.5,114.9346590909091C16.916666666666668,114.92376893939394,19.333333333333332,114.9128787878788,21.75,114.90198863636364C24.166666666666668,114.89109848484848,26.583333333333332,114.88020833333334,29,114.86931818181819C31.416666666666668,114.85842803030303,33.833333333333336,114.84753787878788,36.25,114.83664772727272C38.666666666666664,114.82575757575756,41.083333333333336,114.81486742424241,43.5,114.80397727272727C45.91666666666667,114.79308712121211,48.333333333333336,114.78219696969698,50.75000000000001,114.77130681818183C53.16666666666667,114.76041666666667,55.583333333333336,114.74952651515152,58,114.73863636363636C60.416666666666664,114.7277462121212,62.833333333333336,114.71685606060606,65.25,114.7059659090909C67.66666666666667,114.69507575757575,70.08333333333333,114.68418560606061,72.5,114.67329545454545C74.91666666666667,114.6624053030303,77.33333333333333,114.65151515151516,79.75,114.640625C82.16666666666667,114.62973484848484,84.58333333333333,114.6188446969697,87,114.60795454545455C89.41666666666667,114.59706439393939,91.83333333333333,114.58617424242425,94.25,114.5752840909091C96.66666666666667,114.56439393939394,99.08333333333334,114.55350378787878,101.50000000000001,114.54261363636363C103.91666666666667,114.53172348484847,106.33333333333334,114.52083333333333,108.75,114.50994318181819C111.16666666666667,114.49905303030303,113.58333333333333,114.48816287878789,116,114.47727272727273C118.41666666666667,114.46638257575758,120.83333333333334,114.45549242424242,123.25000000000001,114.44460227272727C125.66666666666667,114.43371212121211,128.08333333333334,114.42282196969697,130.5,114.41193181818181C132.91666666666666,114.40104166666666,135.33333333333334,114.39015151515152,137.75,114.37926136363636C140.16666666666666,114.3683712121212,142.58333333333334,114.35748106060606,145,114.3465909090909C147.41666666666666,114.33570075757575,149.83333333333334,114.32481060606061,152.25,114.31392045454545C154.66666666666666,114.3030303030303,157.08333333333334,114.29214015151516,159.5,114.28125C161.91666666666666,114.27035984848484,164.33333333333334,114.25946969696969,166.75,114.24857954545453C169.16666666666666,114.23768939393938,171.58333333333334,114.22679924242425,174,114.2159090909091C176.41666666666666,114.20501893939394,178.83333333333334,114.1941287878788,181.25,114.18323863636364C183.66666666666666,114.17234848484848,186.08333333333334,114.16145833333333,188.5,114.15056818181817C190.91666666666666,114.13967803030302,193.33333333333334,114.12878787878786,195.75,114.11789772727272C198.16666666666669,114.10700757575756,200.58333333333334,114.09611742424244,203.00000000000003,114.08522727272728C205.41666666666669,114.07433712121214,207.83333333333331,114.06344696969698,210.24999999999997,114.05255681818183C212.66666666666666,114.04166666666667,215.08333333333331,114.03077651515152,217.5,114.01988636363636C219.91666666666666,114.0089962121212,222.33333333333334,113.99810606060606,224.75,113.9872159090909C227.16666666666666,113.97632575757575,229.58333333333334,113.96543560606062,232,113.95454545454547C234.41666666666666,113.94365530303031,236.83333333333334,113.93276515151516,239.25,113.921875C241.66666666666669,113.91098484848484,244.08333333333334,113.9000946969697,246.50000000000003,113.88920454545455C248.91666666666669,113.87831439393939,251.33333333333331,113.86742424242425,253.74999999999997,113.8565340909091C256.16666666666663,113.84564393939394,258.5833333333333,113.8347537878788,261,113.82386363636364C263.4166666666667,113.81297348484848,265.8333333333333,113.80208333333334,268.25,113.79119318181819C270.6666666666667,113.78030303030303,273.0833333333333,113.76941287878789,275.5,113.75852272727273C277.9166666666667,113.74763257575758,280.3333333333333,113.73674242424242,282.75,113.72585227272727C285.1666666666667,113.71496212121211,287.5833333333333,113.70407196969697,290,113.69318181818181C292.4166666666667,113.68229166666666,294.8333333333333,113.67140151515153,297.25,113.66051136363637C299.6666666666667,113.64962121212122,302.0833333333333,113.63873106060606,304.5,113.6278409090909C306.9166666666667,113.61695075757575,309.3333333333333,113.60606060606061,311.75,113.59517045454545C314.1666666666667,113.5842803030303,316.5833333333333,113.57339015151516,319,113.5625C321.4166666666667,113.55160984848484,323.8333333333333,113.5407196969697,326.25,113.52982954545455C328.6666666666667,113.51893939393939,331.0833333333333,113.50804924242425,333.5,113.4971590909091C335.9166666666667,113.48626893939394,338.3333333333333,113.4753787878788,340.75,113.46448863636364C343.1666666666667,113.45359848484848,345.5833333333333,113.44270833333333,348,113.43181818181817C350.4166666666667,113.42092803030302,352.8333333333333,113.41003787878788,355.25,113.39914772727273C357.6666666666667,113.38825757575759,360.0833333333333,113.37736742424244,362.5,113.36647727272728C364.9166666666667,113.35558712121212,367.3333333333333,113.34469696969697,369.75,113.33380681818181C372.1666666666667,113.32291666666666,374.5833333333333,113.31202651515152,377,113.30113636363636C379.4166666666667,113.2902462121212,381.8333333333333,113.27935606060606,384.25,113.2684659090909C386.6666666666667,113.25757575757575,389.0833333333333,113.24668560606061,391.5,113.23579545454545C393.9166666666667,113.2249053030303,396.33333333333337,113.21401515151516,398.75000000000006,113.203125C401.16666666666674,113.19223484848484,403.58333333333337,113.1813446969697,406.00000000000006,113.17045454545455C408.4166666666667,113.15956439393939,410.8333333333333,113.14867424242425,413.24999999999994,113.1377840909091C415.66666666666663,113.12689393939394,418.08333333333326,113.1160037878788,420.49999999999994,113.10511363636364C422.91666666666663,113.09422348484848,425.3333333333333,113.08333333333334,427.75,113.07244318181819C430.1666666666667,113.06155303030303,432.5833333333333,113.05066287878788,435,113.03977272727272C437.4166666666667,113.02888257575756,439.8333333333333,113.01799242424241,442.25,113.00710227272727C444.6666666666667,112.99621212121212,447.0833333333333,112.98532196969698,449.5,112.97443181818183C451.9166666666667,112.96354166666667,454.3333333333333,112.95265151515152,456.75,112.94176136363636C459.1666666666667,112.9308712121212,461.5833333333333,112.91998106060606,464,112.9090909090909C466.4166666666667,112.89820075757575,468.8333333333333,112.88731060606061,471.25,112.87642045454545C473.6666666666667,112.8655303030303,476.0833333333333,112.85464015151516,478.5,112.84375C480.9166666666667,112.83285984848484,483.33333333333337,112.8219696969697,485.75000000000006,112.81107954545455C488.16666666666674,112.80018939393939,490.58333333333337,112.78929924242425,493.00000000000006,112.7784090909091C495.4166666666667,112.76751893939394,497.8333333333333,112.75662878787878,500.24999999999994,112.74573863636363C502.66666666666663,112.73484848484847,505.08333333333326,112.72395833333333,507.49999999999994,112.71306818181819C509.91666666666663,112.70217803030303,512.3333333333333,112.69128787878789,514.75,112.68039772727273C517.1666666666666,112.66950757575758,519.5833333333334,112.65861742424242,522,112.64772727272727C524.4166666666666,112.63683712121211,526.8333333333334,112.62594696969697,529.25,112.61505681818181C531.6666666666666,112.60416666666666,534.0833333333334,112.59327651515152,536.5,112.58238636363636C538.9166666666666,112.5714962121212,541.3333333333334,112.56060606060606,543.75,112.5497159090909C546.1666666666666,112.53882575757575,548.5833333333334,112.52793560606061,551,112.51704545454545C553.4166666666666,112.5061553030303,555.8333333333334,112.49526515151516,558.25,112.484375C560.6666666666666,112.47348484848484,563.0833333333334,112.46259469696969,565.5,112.45170454545453C567.9166666666666,112.44081439393938,570.3333333333334,112.42992424242425,572.75,112.4190340909091C575.1666666666666,112.40814393939394,577.5833333333334,112.3972537878788,580,112.38636363636364C582.4166666666666,112.37547348484848,584.8333333333334,112.36458333333334,587.25,112.35369318181819C589.6666666666666,112.34280303030303,592.0833333333334,112.33191287878788,594.5,112.32102272727272C596.9166666666666,112.31013257575756,599.3333333333334,112.29924242424244,601.75,112.28835227272728C604.1666666666666,112.27746212121212,606.5833333333334,112.26657196969697,609,112.25568181818181C611.4166666666666,112.24479166666666,613.8333333333334,112.23390151515152,616.25,112.22301136363636C618.6666666666666,112.2121212121212,621.0833333333334,112.20123106060606,623.5,112.1903409090909C625.9166666666666,112.17945075757575,628.3333333333334,112.16856060606062,630.75,112.15767045454547C633.1666666666666,112.14678030303031,635.5833333333334,112.13589015151516,638,112.125C640.4166666666666,112.11410984848484,642.8333333333334,112.1032196969697,645.25,112.09232954545455C647.6666666666666,112.08143939393939,650.0833333333334,112.07054924242425,652.5,112.0596590909091C654.9166666666666,112.04876893939394,657.3333333333334,112.0378787878788,659.75,112.02698863636364C662.1666666666666,112.01609848484848,664.5833333333334,112.00520833333334,667,111.99431818181819C669.4166666666666,111.98342803030303,671.8333333333334,111.97253787878789,674.25,111.96164772727273C676.6666666666666,111.95075757575758,679.0833333333334,111.93986742424242,681.5,111.92897727272727C683.9166666666666,111.91808712121211,686.3333333333334,111.90719696969697,688.75,111.89630681818181C691.1666666666666,111.88541666666666,693.5833333333334,111.87452651515153,696,111.86363636363637C698.4166666666666,111.85274621212122,700.8333333333334,111.84185606060606,703.25,111.8309659090909C705.6666666666666,111.82007575757575,708.0833333333334,111.80918560606061,710.5,111.79829545454545C712.9166666666666,111.7874053030303,715.3333333333334,111.77651515151516,717.75,111.765625C720.1666666666666,111.75473484848484,722.5833333333334,111.7438446969697,725,111.73295454545455C727.4166666666666,111.72206439393939,729.8333333333334,111.71117424242425,732.25,111.7002840909091C734.6666666666666,111.68939393939394,737.0833333333334,111.6785037878788,739.5,111.66761363636364C741.9166666666666,111.65672348484848,744.3333333333334,111.64583333333333,746.75,111.63494318181817C749.1666666666666,111.62405303030302,751.5833333333334,111.61316287878788,754,111.60227272727273C756.4166666666666,111.59138257575759,758.8333333333334,111.58049242424244,761.25,111.56960227272728C763.6666666666666,111.55871212121212,766.0833333333334,111.54782196969697,768.5,111.53693181818181C770.9166666666666,111.52604166666666,773.3333333333334,111.51515151515152,775.75,111.50426136363636C778.1666666666666,111.4933712121212,780.5833333333334,111.48248106060606,783,111.4715909090909C785.4166666666667,111.46070075757575,787.8333333333334,111.44981060606061,790.2500000000001,111.43892045454545C792.6666666666667,111.4280303030303,795.0833333333335,111.41714015151516,797.5000000000001,111.40625C799.9166666666667,111.39535984848484,802.3333333333335,111.3844696969697,804.7500000000001,111.37357954545455C807.1666666666667,111.36268939393939,809.5833333333335,111.35179924242425,812.0000000000001,111.3409090909091C814.4166666666667,111.33001893939394,816.8333333333333,111.3191287878788,819.2499999999999,111.30823863636364C821.6666666666665,111.29734848484848,824.0833333333333,111.28645833333334,826.4999999999999,111.27556818181819C828.9166666666665,111.26467803030303,831.3333333333333,111.25378787878788,833.7499999999999,111.24289772727272C836.1666666666665,111.23200757575756,838.5833333333333,111.22111742424241,840.9999999999999,111.21022727272727C843.4166666666666,111.19933712121211,845.8333333333333,111.18844696969698,848.25,111.17755681818183C850.6666666666666,111.16666666666667,853.0833333333334,111.15577651515152,855.5,111.14488636363636C857.9166666666666,111.1339962121212,860.3333333333334,111.12310606060606,862.75,111.1122159090909C865.1666666666666,111.10132575757575,867.5833333333334,111.09043560606061,870,111.07954545454545C872.4166666666666,111.0686553030303,874.8333333333334,111.05776515151516,877.25,111.046875C879.6666666666666,111.03598484848484,882.0833333333334,111.0250946969697,884.5,111.01420454545455C886.9166666666666,111.00331439393939,889.3333333333334,110.99242424242425,891.75,110.9815340909091C894.1666666666666,110.97064393939394,896.5833333333334,110.95975378787878,899,110.94886363636363C901.4166666666666,110.93797348484847,903.8333333333334,110.92708333333334,906.25,110.91619318181819C908.6666666666666,110.90530303030303,911.0833333333334,110.89441287878789,913.5,110.88352272727273C915.9166666666666,110.87263257575758,918.3333333333334,110.86174242424242,920.75,110.85085227272727C923.1666666666666,110.83996212121211,925.5833333333334,110.82907196969697,928,110.81818181818181C930.4166666666666,110.80729166666666,932.8333333333334,110.79640151515152,935.25,110.78551136363636C937.6666666666666,110.7746212121212,940.0833333333334,110.76373106060606,942.5,110.7528409090909C944.9166666666666,110.74195075757575,947.3333333333334,110.73106060606061,949.75,110.72017045454545C952.1666666666666,110.7092803030303,954.5833333333334,110.69839015151516,957,110.6875C959.4166666666666,110.67660984848484,961.8333333333334,110.66571969696969,964.25,110.65482954545453C966.6666666666667,110.64393939393938,969.0833333333334,110.63304924242425,971.5000000000001,110.6221590909091C973.9166666666667,110.61126893939395,976.3333333333335,110.6003787878788,978.7500000000001,110.58948863636364C981.1666666666667,110.57859848484848,983.5833333333335,110.56770833333334,986.0000000000001,110.55681818181819C988.4166666666667,110.54592803030303,990.8333333333335,110.53503787878788,993.2500000000001,110.52414772727272C995.6666666666667,110.51325757575756,998.0833333333333,110.50236742424244,1000.4999999999999,110.49147727272728C1002.9166666666665,110.48058712121212,1005.3333333333333,110.46969696969697,1007.7499999999999,110.45880681818181C1010.1666666666665,110.44791666666666,1012.5833333333333,110.43702651515152,1014.9999999999999,110.42613636363636C1017.4166666666665,110.4152462121212,1019.8333333333333,110.40435606060605,1022.2499999999999,110.3934659090909C1024.6666666666665,110.38257575757575,1027.0833333333333,110.37168560606062,1029.5,110.36079545454547C1031.9166666666667,110.34990530303031,1034.3333333333333,110.33901515151516,1036.75,110.328125C1039.1666666666667,110.31723484848484,1041.5833333333333,110.3063446969697,1044,110.29545454545455C1046.4166666666667,110.28456439393939,1048.8333333333333,110.27367424242425,1051.25,110.2627840909091C1053.6666666666667,110.25189393939394,1056.0833333333333,110.2410037878788,1058.5,110.23011363636364C1060.9166666666667,110.21922348484848,1063.3333333333333,110.20833333333334,1065.75,110.19744318181819C1068.1666666666667,110.18655303030303,1070.5833333333333,110.17566287878789,1073,110.16477272727273C1075.4166666666667,110.15388257575758,1077.8333333333333,110.14299242424242,1080.25,110.13210227272727C1082.6666666666667,110.12121212121211,1085.0833333333333,110.11032196969697,1087.5,110.09943181818181C1089.9166666666667,110.08854166666666,1092.3333333333333,110.07765151515153,1094.75,110.06676136363637C1097.1666666666667,110.05587121212122,1099.5833333333333,110.04498106060606,1102,110.0340909090909C1104.4166666666667,110.02320075757575,1106.8333333333333,110.01231060606061,1109.25,110.00142045454545C1111.6666666666667,109.9905303030303,1114.0833333333333,109.97964015151516,1116.5,109.96875C1118.9166666666667,109.95785984848484,1121.3333333333333,109.9469696969697,1123.75,109.93607954545455C1126.1666666666667,109.92518939393939,1128.5833333333333,109.91429924242425,1131,109.9034090909091C1133.4166666666667,109.89251893939394,1135.8333333333333,109.8816287878788,1138.25,109.87073863636364C1140.6666666666667,109.85984848484848,1143.0833333333333,109.84895833333333,1145.5,109.83806818181817C1147.9166666666667,109.82717803030302,1150.3333333333333,109.81628787878788,1152.75,109.80539772727273C1155.1666666666667,109.79450757575759,1157.5833333333333,109.79450757575758,1160,109.77272727272728C1162.4166666666667,109.75094696969698,1164.8333333333333,108.25681818181818,1167.25,107.49886363636364C1169.6666666666667,106.7409090909091,1172.0833333333333,105.98295454545456,1174.5,105.22500000000001C1176.9166666666667,104.46704545454546,1179.3333333333333,103.70909090909092,1181.75,102.95113636363637C1184.1666666666667,102.19318181818181,1186.5833333333333,101.43522727272727,1189,100.67727272727274C1191.4166666666667,99.9193181818182,1193.8333333333333,99.16136363636365,1196.25,98.4034090909091C1198.6666666666667,97.64545454545454,1201.0833333333333,96.88749999999999,1203.5,96.12954545454545C1205.9166666666667,95.37159090909091,1208.3333333333333,94.61363636363637,1210.75,93.85568181818182C1213.1666666666667,93.09772727272727,1215.5833333333333,92.33977272727273,1218,91.58181818181818C1220.4166666666667,90.82386363636363,1222.8333333333333,90.06590909090909,1225.25,89.30795454545455C1227.6666666666667,88.55000000000001,1230.0833333333333,87.79204545454544,1232.5,87.0340909090909C1234.9166666666667,86.27613636363637,1237.3333333333333,85.51818181818183,1239.75,84.76022727272728C1242.1666666666667,84.00227272727273,1244.5833333333333,83.24431818181819,1247,82.48636363636363C1249.4166666666667,81.72840909090908,1251.8333333333333,80.97045454545454,1254.25,80.2125C1256.6666666666667,79.45454545454547,1259.0833333333333,78.6965909090909,1261.5,77.93863636363636C1263.9166666666667,77.18068181818182,1266.3333333333333,76.42272727272729,1268.75,75.66477272727273C1271.1666666666667,74.90681818181818,1273.5833333333333,74.14886363636364,1276,73.39090909090909C1278.4166666666667,72.63295454545454,1280.8333333333333,71.875,1283.25,71.11704545454545C1285.6666666666667,70.3590909090909,1288.0833333333333,69.60113636363636,1290.5,68.84318181818182C1292.9166666666667,68.08522727272728,1295.3333333333333,67.32727272727271,1297.75,66.56931818181818C1300.1666666666667,65.81136363636364,1302.5833333333333,65.05340909090908,1305,64.29545454545455C1307.4166666666667,63.5375,1309.8333333333333,62.779545454545456,1312.25,62.02159090909091C1314.6666666666667,61.263636363636365,1317.0833333333333,60.50568181818182,1319.5,59.747727272727275C1321.9166666666667,58.98977272727273,1324.3333333333333,58.23181818181818,1326.75,57.47386363636363C1329.1666666666667,56.715909090909086,1331.5833333333333,55.957954545454555,1334,55.20000000000001C1336.4166666666667,54.442045454545465,1338.8333333333333,53.684090909090905,1341.25,52.92613636363636C1343.6666666666667,52.168181818181814,1346.0833333333333,51.41022727272727,1348.5,50.652272727272724C1350.9166666666667,49.89431818181818,1353.3333333333333,49.13636363636363,1355.75,48.37840909090909C1358.1666666666667,47.62045454545454,1360.5833333333333,46.8625,1363,46.10454545454545C1365.4166666666667,45.34659090909091,1367.8333333333333,44.58863636363636,1370.25,43.830681818181816C1372.6666666666667,43.07272727272727,1375.0833333333333,42.314772727272725,1377.5,41.55681818181818C1379.9166666666667,40.798863636363635,1382.3333333333333,40.040909090909096,1384.75,39.28295454545455C1387.1666666666667,38.525000000000006,1389.5833333333333,37.76704545454546,1392,37.009090909090915C1394.4166666666667,36.25113636363637,1396.8333333333333,35.49318181818181,1399.25,34.735227272727265C1401.6666666666667,33.97727272727272,1404.0833333333333,33.219318181818174,1406.5,32.46136363636363C1408.9166666666667,31.703409090909084,1411.3333333333333,30.945454545454538,1413.75,30.187499999999996C1416.1666666666667,29.429545454545455,1418.5833333333333,28.671590909090913,1421,27.91363636363637C1423.4166666666667,27.15568181818183,1425.8333333333333,26.39772727272728,1428.25,25.639772727272735C1430.6666666666667,24.88181818181819,1433.0833333333333,24.123863636363648,1435.5,23.3659090909091C1437.9166666666667,22.60795454545455,1440.3333333333333,21.849999999999994,1442.75,21.09204545454545C1445.1666666666667,20.334090909090904,1447.5833333333333,19.576136363636362,1450,18.818181818181824" fill="transparent" stroke-linecap="round" stroke="#B6509E" stroke-width="2"></path><path class="visx-linepath" d="M0,108.72727272722045C2.4166666666666665,108.71856060603011,4.833333333333334,108.70984848483977,7.25,108.70113636363637C9.666666666666666,108.69242424243296,12.083333333333334,108.68371212121211,14.5,108.675C16.916666666666668,108.66628787878788,19.333333333333332,108.65757575757576,21.75,108.64886363636364C24.166666666666668,108.64015151515153,26.583333333333332,108.6314393939394,29,108.62272727272727C31.416666666666668,108.61401515151515,33.833333333333336,108.60530303030302,36.25,108.5965909090909C38.666666666666664,108.5878787878788,41.083333333333336,108.57916666666667,43.5,108.57045454545455C45.91666666666667,108.56174242424242,48.333333333333336,108.55303030303031,50.75000000000001,108.54431818181818C53.16666666666667,108.53560606060606,55.583333333333336,108.52689393939394,58,108.51818181818182C60.416666666666664,108.50946969696969,62.833333333333336,108.50075757575756,65.25,108.49204545454545C67.66666666666667,108.48333333333333,70.08333333333333,108.4746212121212,72.5,108.4659090909091C74.91666666666667,108.45719696969698,77.33333333333333,108.44848484848484,79.75,108.43977272727273C82.16666666666667,108.43106060606061,84.58333333333333,108.42234848484848,87,108.41363636363637C89.41666666666667,108.40492424242426,91.83333333333333,108.39621212121213,94.25,108.3875C96.66666666666667,108.37878787878788,99.08333333333334,108.37007575757576,101.50000000000001,108.36136363636363C103.91666666666667,108.3526515151515,106.33333333333334,108.3439393939394,108.75,108.33522727272727C111.16666666666667,108.32651515151514,113.58333333333333,108.31780303030301,116,108.3090909090909C118.41666666666667,108.30037878787878,120.83333333333334,108.29166666666667,123.25000000000001,108.28295454545456C125.66666666666667,108.27424242424244,128.08333333333334,108.26553030303032,130.5,108.25681818181819C132.91666666666666,108.24810606060606,135.33333333333334,108.23939393939395,137.75,108.23068181818182C140.16666666666666,108.2219696969697,142.58333333333334,108.21325757575758,145,108.20454545454545C147.41666666666666,108.19583333333333,149.83333333333334,108.1871212121212,152.25,108.17840909090908C154.66666666666666,108.16969696969697,157.08333333333334,108.16098484848484,159.5,108.15227272727273C161.91666666666666,108.14356060606062,164.33333333333334,108.13484848484849,166.75,108.12613636363636C169.16666666666666,108.11742424242424,171.58333333333334,108.10871212121211,174,108.1C176.41666666666666,108.09128787878788,178.83333333333334,108.08257575757575,181.25,108.07386363636364C183.66666666666666,108.06515151515153,186.08333333333334,108.0564393939394,188.5,108.04772727272727C190.91666666666666,108.03901515151514,193.33333333333334,108.03030303030302,195.75,108.0215909090909C198.16666666666669,108.01287878787878,200.58333333333334,108.00416666666668,203.00000000000003,107.99545454545455C205.41666666666669,107.98674242424244,207.83333333333331,107.97803030303031,210.24999999999997,107.96931818181818C212.66666666666666,107.96060606060605,215.08333333333331,107.95189393939394,217.5,107.94318181818181C219.91666666666666,107.93446969696969,222.33333333333334,107.92575757575756,224.75,107.91704545454544C227.16666666666666,107.90833333333333,229.58333333333334,107.8996212121212,232,107.89090909090909C234.41666666666666,107.88219696969698,236.83333333333334,107.87348484848485,239.25,107.86477272727274C241.66666666666669,107.85606060606061,244.08333333333334,107.8473484848485,246.50000000000003,107.83863636363637C248.91666666666669,107.82992424242424,251.33333333333331,107.82121212121213,253.74999999999997,107.8125C256.16666666666663,107.80378787878787,258.5833333333333,107.79507575757576,261,107.78636363636363C263.4166666666667,107.7776515151515,265.8333333333333,107.76893939393938,268.25,107.76022727272726C270.6666666666667,107.75151515151515,273.0833333333333,107.74280303030302,275.5,107.73409090909091C277.9166666666667,107.7253787878788,280.3333333333333,107.71666666666665,282.75,107.70795454545454C285.1666666666667,107.69924242424243,287.5833333333333,107.6905303030303,290,107.68181818181819C292.4166666666667,107.67310606060607,294.8333333333333,107.66439393939395,297.25,107.65568181818182C299.6666666666667,107.64696969696969,302.0833333333333,107.63825757575756,304.5,107.62954545454545C306.9166666666667,107.62083333333334,309.3333333333333,107.61212121212121,311.75,107.6034090909091C314.1666666666667,107.59469696969698,316.5833333333333,107.58598484848484,319,107.57727272727273C321.4166666666667,107.56856060606061,323.8333333333333,107.55984848484849,326.25,107.55113636363637C328.6666666666667,107.54242424242426,331.0833333333333,107.53371212121213,333.5,107.525C335.9166666666667,107.51628787878788,338.3333333333333,107.50757575757576,340.75,107.49886363636364C343.1666666666667,107.49015151515151,345.5833333333333,107.48143939393938,348,107.47272727272727C350.4166666666667,107.46401515151516,352.8333333333333,107.45530303030303,355.25,107.44659090909092C357.6666666666667,107.4378787878788,360.0833333333333,107.42916666666667,362.5,107.42045454545455C364.9166666666667,107.41174242424242,367.3333333333333,107.4030303030303,369.75,107.39431818181818C372.1666666666667,107.38560606060605,374.5833333333333,107.37689393939394,377,107.36818181818181C379.4166666666667,107.35946969696968,381.8333333333333,107.35075757575756,384.25,107.34204545454544C386.6666666666667,107.33333333333333,389.0833333333333,107.32462121212122,391.5,107.3159090909091C393.9166666666667,107.30719696969699,396.33333333333337,107.29848484848486,398.75000000000006,107.28977272727273C401.16666666666674,107.2810606060606,403.58333333333337,107.2723484848485,406.00000000000006,107.26363636363637C408.4166666666667,107.25492424242424,410.8333333333333,107.24621212121212,413.24999999999994,107.2375C415.66666666666663,107.22878787878787,418.08333333333326,107.22007575757574,420.49999999999994,107.21136363636363C422.91666666666663,107.2026515151515,425.3333333333333,107.19393939393939,427.75,107.18522727272727C430.1666666666667,107.17651515151516,432.5833333333333,107.16780303030303,435,107.15909090909092C437.4166666666667,107.15037878787881,439.8333333333333,107.14166666666668,442.25,107.13295454545455C444.6666666666667,107.12424242424242,447.0833333333333,107.11553030303031,449.5,107.10681818181818C451.9166666666667,107.09810606060606,454.3333333333333,107.08939393939394,456.75,107.08068181818182C459.1666666666667,107.07196969696969,461.5833333333333,107.06325757575756,464,107.05454545454545C466.4166666666667,107.04583333333333,468.8333333333333,107.0371212121212,471.25,107.0284090909091C473.6666666666667,107.01969696969698,476.0833333333333,107.01098484848485,478.5,107.00227272727273C480.9166666666667,106.9935606060606,483.33333333333337,106.98484848484848,485.75000000000006,106.97613636363636C488.16666666666674,106.96742424242423,490.58333333333337,106.95871212121212,493.00000000000006,106.94999999999999C495.4166666666667,106.94128787878788,497.8333333333333,106.93257575757575,500.24999999999994,106.92386363636363C502.66666666666663,106.91515151515152,505.08333333333326,106.9064393939394,507.49999999999994,106.89772727272728C509.91666666666663,106.88901515151515,512.3333333333333,106.88030303030304,514.75,106.87159090909091C517.1666666666666,106.86287878787878,519.5833333333334,106.85416666666667,522,106.84545454545454C524.4166666666666,106.83674242424242,526.8333333333334,106.8280303030303,529.25,106.81931818181818C531.6666666666666,106.81060606060605,534.0833333333334,106.80189393939392,536.5,106.79318181818181C538.9166666666666,106.7844696969697,541.3333333333334,106.77575757575758,543.75,106.76704545454547C546.1666666666666,106.75833333333335,548.5833333333334,106.74962121212123,551,106.7409090909091C553.4166666666666,106.73219696969697,555.8333333333334,106.72348484848486,558.25,106.71477272727273C560.6666666666666,106.7060606060606,563.0833333333334,106.69734848484849,565.5,106.68863636363636C567.9166666666666,106.67992424242424,570.3333333333334,106.67121212121211,572.75,106.6625C575.1666666666666,106.65378787878788,577.5833333333334,106.64507575757575,580,106.63636363636364C582.4166666666666,106.62765151515153,584.8333333333334,106.6189393939394,587.25,106.61022727272727C589.6666666666666,106.60151515151514,592.0833333333334,106.59280303030303,594.5,106.5840909090909C596.9166666666666,106.57537878787878,599.3333333333334,106.56666666666665,601.75,106.55795454545454C604.1666666666666,106.54924242424242,606.5833333333334,106.5405303030303,609,106.53181818181818C611.4166666666666,106.52310606060607,613.8333333333334,106.51439393939393,616.25,106.50568181818181C618.6666666666666,106.4969696969697,621.0833333333334,106.48825757575757,623.5,106.47954545454546C625.9166666666666,106.47083333333335,628.3333333333334,106.46212121212122,630.75,106.45340909090909C633.1666666666666,106.44469696969696,635.5833333333334,106.43598484848484,638,106.42727272727272C640.4166666666666,106.41856060606061,642.8333333333334,106.40984848484848,645.25,106.40113636363637C647.6666666666666,106.39242424242425,650.0833333333334,106.38371212121211,652.5,106.375C654.9166666666666,106.36628787878789,657.3333333333334,106.35757575757576,659.75,106.34886363636365C662.1666666666666,106.34015151515153,664.5833333333334,106.3314393939394,667,106.32272727272728C669.4166666666666,106.31401515151515,671.8333333333334,106.30530303030304,674.25,106.29659090909091C676.6666666666666,106.28787878787878,679.0833333333334,106.27916666666667,681.5,106.27045454545454C683.9166666666666,106.26174242424241,686.3333333333334,106.25303030303029,688.75,106.24431818181817C691.1666666666666,106.23560606060606,693.5833333333334,106.22689393939393,696,106.21818181818182C698.4166666666666,106.2094696969697,700.8333333333334,106.20075757575756,703.25,106.19204545454545C705.6666666666666,106.18333333333334,708.0833333333334,106.17462121212121,710.5,106.1659090909091C712.9166666666666,106.15719696969698,715.3333333333334,106.14848484848486,717.75,106.13977272727273C720.1666666666666,106.1310606060606,722.5833333333334,106.12234848484849,725,106.11363636363636C727.4166666666666,106.10492424242423,729.8333333333334,106.0962121212121,732.25,106.08749999999999C734.6666666666666,106.07878787878788,737.0833333333334,106.07007575757575,739.5,106.06136363636364C741.9166666666666,106.05265151515152,744.3333333333334,106.04393939393938,746.75,106.03522727272727C749.1666666666666,106.02651515151516,751.5833333333334,106.01780303030303,754,106.00909090909092C756.4166666666666,106.0003787878788,758.8333333333334,105.99166666666667,761.25,105.98295454545455C763.6666666666666,105.97424242424242,766.0833333333334,105.96553030303029,768.5,105.95681818181818C770.9166666666666,105.94810606060607,773.3333333333334,105.93939393939394,775.75,105.93068181818182C778.1666666666666,105.92196969696971,780.5833333333334,105.91325757575758,783,105.90454545454546C785.4166666666667,105.89583333333333,787.8333333333334,105.88712121212122,790.2500000000001,105.87840909090909C792.6666666666667,105.86969696969696,795.0833333333335,105.86098484848483,797.5000000000001,105.85227272727272C799.9166666666667,105.8435606060606,802.3333333333335,105.83484848484848,804.7500000000001,105.82613636363637C807.1666666666667,105.81742424242425,809.5833333333335,105.80871212121214,812.0000000000001,105.80000000000001C814.4166666666667,105.7912878787879,816.8333333333333,105.78257575757577,819.2499999999999,105.77386363636364C821.6666666666665,105.76515151515152,824.0833333333333,105.7564393939394,826.4999999999999,105.74772727272727C828.9166666666665,105.73901515151515,831.3333333333333,105.73030303030303,833.7499999999999,105.7215909090909C836.1666666666665,105.71287878787878,838.5833333333333,105.70416666666665,840.9999999999999,105.69545454545454C843.4166666666666,105.68674242424241,845.8333333333333,105.6780303030303,848.25,105.66931818181818C850.6666666666666,105.66060606060607,853.0833333333334,105.65189393939394,855.5,105.64318181818183C857.9166666666666,105.63446969696972,860.3333333333334,105.62575757575759,862.75,105.61704545454546C865.1666666666666,105.60833333333333,867.5833333333334,105.59962121212122,870,105.5909090909091C872.4166666666666,105.58219696969697,874.8333333333334,105.57348484848485,877.25,105.56477272727273C879.6666666666666,105.5560606060606,882.0833333333334,105.54734848484847,884.5,105.53863636363636C886.9166666666666,105.52992424242424,889.3333333333334,105.52121212121212,891.75,105.5125C894.1666666666666,105.50378787878789,896.5833333333334,105.49507575757576,899,105.48636363636363C901.4166666666666,105.4776515151515,903.8333333333334,105.4689393939394,906.25,105.46022727272727C908.6666666666666,105.45151515151514,911.0833333333334,105.44280303030301,913.5,105.4340909090909C915.9166666666666,105.42537878787878,918.3333333333334,105.41666666666666,920.75,105.40795454545454C923.1666666666666,105.39924242424243,925.5833333333334,105.3905303030303,928,105.38181818181819C930.4166666666666,105.37310606060608,932.8333333333334,105.36439393939395,935.25,105.35568181818182C937.6666666666666,105.3469696969697,940.0833333333334,105.33825757575758,942.5,105.32954545454545C944.9166666666666,105.32083333333333,947.3333333333334,105.31212121212121,949.75,105.30340909090908C952.1666666666666,105.29469696969696,954.5833333333334,105.28598484848483,957,105.27727272727272C959.4166666666666,105.2685606060606,961.8333333333334,105.25984848484848,964.25,105.25113636363636C966.6666666666667,105.24242424242425,969.0833333333334,105.23371212121214,971.5000000000001,105.22500000000001C973.9166666666667,105.2162878787879,976.3333333333335,105.20757575757577,978.7500000000001,105.19886363636364C981.1666666666667,105.19015151515151,983.5833333333335,105.1814393939394,986.0000000000001,105.17272727272727C988.4166666666667,105.16401515151514,990.8333333333335,105.15530303030303,993.2500000000001,105.1465909090909C995.6666666666667,105.13787878787879,998.0833333333333,105.12916666666666,1000.4999999999999,105.12045454545455C1002.9166666666665,105.11174242424242,1005.3333333333333,105.10303030303031,1007.7499999999999,105.09431818181818C1010.1666666666665,105.08560606060605,1012.5833333333333,105.07689393939393,1014.9999999999999,105.06818181818181C1017.4166666666665,105.0594696969697,1019.8333333333333,105.05075757575757,1022.2499999999999,105.04204545454546C1024.6666666666665,105.03333333333333,1027.0833333333333,105.02462121212122,1029.5,105.01590909090909C1031.9166666666667,105.00719696969696,1034.3333333333333,104.99848484848484,1036.75,104.98977272727272C1039.1666666666667,104.98106060606061,1041.5833333333333,104.97234848484848,1044,104.96363636363637C1046.4166666666667,104.95492424242425,1048.8333333333333,104.94621212121213,1051.25,104.9375C1053.6666666666667,104.92878787878787,1056.0833333333333,104.92007575757576,1058.5,104.91136363636363C1060.9166666666667,104.9026515151515,1063.3333333333333,104.89393939393938,1065.75,104.88522727272726C1068.1666666666667,104.87651515151515,1070.5833333333333,104.86780303030302,1073,104.85909090909091C1075.4166666666667,104.8503787878788,1077.8333333333333,104.84166666666667,1080.25,104.83295454545456C1082.6666666666667,104.82424242424244,1085.0833333333333,104.81553030303031,1087.5,104.80681818181819C1089.9166666666667,104.79810606060606,1092.3333333333333,104.78939393939395,1094.75,104.78068181818182C1097.1666666666667,104.77196969696969,1099.5833333333333,104.76325757575758,1102,104.75454545454545C1104.4166666666667,104.74583333333332,1106.8333333333333,104.7371212121212,1109.25,104.72840909090908C1111.6666666666667,104.71969696969697,1114.0833333333333,104.71098484848484,1116.5,104.70227272727273C1118.9166666666667,104.69356060606061,1121.3333333333333,104.68484848484849,1123.75,104.67613636363637C1126.1666666666667,104.66742424242426,1128.5833333333333,104.65871212121213,1131,104.65C1133.4166666666667,104.64128787878788,1135.8333333333333,104.63257575757576,1138.25,104.62386363636364C1140.6666666666667,104.61515151515151,1143.0833333333333,104.6064393939394,1145.5,104.59772727272727C1147.9166666666667,104.58901515151514,1150.3333333333333,104.58030303030301,1152.75,104.5715909090909C1155.1666666666667,104.56287878787879,1157.5833333333333,104.56287878787879,1160,104.54545454545455C1162.4166666666667,104.5280303030303,1164.8333333333333,103.02954545454546,1167.25,102.2715909090909C1169.6666666666667,101.51363636363635,1172.0833333333333,100.75568181818181,1174.5,99.99772727272727C1176.9166666666667,99.23977272727274,1179.3333333333333,98.48181818181817,1181.75,97.72386363636363C1184.1666666666667,96.9659090909091,1186.5833333333333,96.20795454545454,1189,95.45C1191.4166666666667,94.69204545454546,1193.8333333333333,93.93409090909093,1196.25,93.17613636363637C1198.6666666666667,92.41818181818182,1201.0833333333333,91.66022727272727,1203.5,90.90227272727272C1205.9166666666667,90.14431818181816,1208.3333333333333,89.38636363636365,1210.75,88.6284090909091C1213.1666666666667,87.87045454545455,1215.5833333333333,87.1125,1218,86.35454545454544C1220.4166666666667,85.59659090909089,1222.8333333333333,84.83863636363635,1225.25,84.08068181818182C1227.6666666666667,83.32272727272728,1230.0833333333333,82.56477272727273,1232.5,81.80681818181819C1234.9166666666667,81.04886363636365,1237.3333333333333,80.29090909090911,1239.75,79.53295454545456C1242.1666666666667,78.775,1244.5833333333333,78.01704545454547,1247,77.25909090909092C1249.4166666666667,76.50113636363636,1251.8333333333333,75.74318181818182,1254.25,74.98522727272727C1256.6666666666667,74.22727272727272,1259.0833333333333,73.46931818181818,1261.5,72.71136363636364C1263.9166666666667,71.9534090909091,1266.3333333333333,71.19545454545454,1268.75,70.4375C1271.1666666666667,69.67954545454546,1273.5833333333333,68.92159090909092,1276,68.16363636363637C1278.4166666666667,67.40568181818182,1280.8333333333333,66.64772727272728,1283.25,65.88977272727273C1285.6666666666667,65.13181818181818,1288.0833333333333,64.37386363636364,1290.5,63.61590909090909C1292.9166666666667,62.85795454545455,1295.3333333333333,62.1,1297.75,61.342045454545456C1300.1666666666667,60.58409090909091,1302.5833333333333,59.826136363636365,1305,59.06818181818182C1307.4166666666667,58.310227272727275,1309.8333333333333,57.55227272727273,1312.25,56.794318181818184C1314.6666666666667,56.03636363636364,1317.0833333333333,55.27840909090909,1319.5,54.52045454545455C1321.9166666666667,53.7625,1324.3333333333333,53.00454545454546,1326.75,52.24659090909091C1329.1666666666667,51.48863636363637,1331.5833333333333,50.73068181818182,1334,49.972727272727276C1336.4166666666667,49.21477272727273,1338.8333333333333,48.456818181818186,1341.25,47.69886363636364C1343.6666666666667,46.940909090909095,1346.0833333333333,46.18295454545455,1348.5,45.425000000000004C1350.9166666666667,44.66704545454546,1353.3333333333333,43.9090909090909,1355.75,43.151136363636354C1358.1666666666667,42.39318181818181,1360.5833333333333,41.635227272727285,1363,40.87727272727274C1365.4166666666667,40.119318181818194,1367.8333333333333,39.361363636363635,1370.25,38.60340909090909C1372.6666666666667,37.845454545454544,1375.0833333333333,37.0875,1377.5,36.32954545454545C1379.9166666666667,35.57159090909091,1382.3333333333333,34.81363636363636,1384.75,34.05568181818182C1387.1666666666667,33.29772727272727,1389.5833333333333,32.53977272727271,1392,31.78181818181817C1394.4166666666667,31.02386363636363,1396.8333333333333,30.2659090909091,1399.25,29.50795454545456C1401.6666666666667,28.750000000000018,1404.0833333333333,27.99204545454546,1406.5,27.23409090909091C1408.9166666666667,26.47613636363636,1411.3333333333333,25.71818181818182,1413.75,24.960227272727273C1416.1666666666667,24.202272727272728,1418.5833333333333,23.444318181818186,1421,22.686363636363637C1423.4166666666667,21.92840909090909,1425.8333333333333,21.170454545454533,1428.25,20.412499999999987C1430.6666666666667,19.654545454545442,1433.0833333333333,18.896590909090904,1435.5,18.138636363636362C1437.9166666666667,17.38068181818182,1440.3333333333333,16.62272727272727,1442.75,15.864772727272726C1445.1666666666667,15.10681818181818,1447.5833333333333,14.348863636363635,1450,13.59090909090909" fill="transparent" stroke-linecap="round" stroke="#E7C6DF" stroke-width="2"></path><g class="visx-group visx-axis visx-axis-bottom" transform="translate(0, 115)"><g class="visx-group visx-axis-tick" transform="translate(0, 0)"><line class="visx-line" x1="0" y1="0" x2="0" y2="8" fill="transparent" shape-rendering="crispEdges" stroke="#000" stroke-width="0" stroke-linecap="square"></line><svg x="0" y="0" font-size="10" style="overflow:visible"><text transform="" x="0" y="18" fill="#000" font-size="10" text-anchor="middle"><tspan x="0" dy="0em">0%</tspan></text></svg></g><g class="visx-group visx-axis-tick" transform="translate(0, 0)"><line class="visx-line" x1="362.5" y1="0" x2="362.5" y2="8" fill="transparent" shape-rendering="crispEdges" stroke="#000" stroke-width="0" stroke-linecap="square"></line><svg x="0" y="0" font-size="10" style="overflow:visible"><text transform="" x="362.5" y="18" fill="#000" font-size="10" text-anchor="middle"><tspan x="362.5" dy="0em">25%</tspan></text></svg></g><g class="visx-group visx-axis-tick" transform="translate(0, 0)"><line class="visx-line" x1="725" y1="0" x2="725" y2="8" fill="transparent" shape-rendering="crispEdges" stroke="#000" stroke-width="0" stroke-linecap="square"></line><svg x="0" y="0" font-size="10" style="overflow:visible"><text transform="" x="725" y="18" fill="#000" font-size="10" text-anchor="middle"><tspan x="725" dy="0em">50%</tspan></text></svg></g><g class="visx-group visx-axis-tick" transform="translate(0, 0)"><line class="visx-line" x1="1087.5" y1="0" x2="1087.5" y2="8" fill="transparent" shape-rendering="crispEdges" stroke="#000" stroke-width="0" stroke-linecap="square"></line><svg x="0" y="0" font-size="10" style="overflow:visible"><text transform="" x="1087.5" y="18" fill="#000" font-size="10" text-anchor="middle"><tspan x="1087.5" dy="0em">75%</tspan></text></svg></g><g class="visx-group visx-axis-tick" transform="translate(0, 0)"><line class="visx-line" x1="1450" y1="0" x2="1450" y2="8" fill="transparent" shape-rendering="crispEdges" stroke="#000" stroke-width="0" stroke-linecap="square"></line><svg x="0" y="0" font-size="10" style="overflow:visible"><text transform="" x="1450" y="18" fill="#000" font-size="10" text-anchor="middle"><tspan x="1450" dy="0em">100%</tspan></text></svg></g><line class="visx-line visx-axis-line" x1="0.5" y1="0" x2="1450.5" y2="0" fill="transparent" shape-rendering="crispEdges" stroke="#222" stroke-width="0"></line></g><g class="visx-group visx-axis visx-axis-left" transform="translate(0, 0)"><g class="visx-group visx-axis-tick" transform="translate(0, 0)"><line class="visx-line" x1="0" y1="115" x2="-8" y2="115" fill="transparent" shape-rendering="crispEdges" stroke="#222" stroke-width="0" stroke-linecap="square"></line><svg x="-30" y="0" font-size="8" style="overflow:visible"><text transform="" x="-8" y="115" fill="#000" font-size="8" text-anchor="start"><tspan x="-8" dy="0em">0%</tspan></text></svg></g><g class="visx-group visx-axis-tick" transform="translate(0, 0)"><line class="visx-line" x1="0" y1="62.72727272727272" x2="-8" y2="62.72727272727272" fill="transparent" shape-rendering="crispEdges" stroke="#222" stroke-width="0" stroke-linecap="square"></line><svg x="-30" y="0" font-size="8" style="overflow:visible"><text transform="" x="-8" y="62.72727272727272" fill="#000" font-size="8" text-anchor="start"><tspan x="-8" dy="0em">50%</tspan></text></svg></g><g class="visx-group visx-axis-tick" transform="translate(0, 0)"><line class="visx-line" x1="0" y1="10.454545454545459" x2="-8" y2="10.454545454545459" fill="transparent" shape-rendering="crispEdges" stroke="#222" stroke-width="0" stroke-linecap="square"></line><svg x="-30" y="0" font-size="8" style="overflow:visible"><text transform="" x="-8" y="10.454545454545459" fill="#000" font-size="8" text-anchor="start"><tspan x="-8" dy="0em">100%</tspan></text></svg></g><line class="visx-line visx-axis-line" x1="0" y1="115.5" x2="0" y2="0.5" fill="transparent" shape-rendering="crispEdges" stroke="#222" stroke-width="0"></line></g><rect class="visx-bar" width="1450" height="115" fill="transparent"></rect><line class="visx-line" x1="1160" y1="28" x2="1160" y2="115" fill="transparent" shape-rendering="crispEdges" stroke="#0062D2" stroke-width="1" pointer-events="none" stroke-dasharray="5,2"></line><svg x="0" y="0" font-size="10px" style="overflow:visible"><text transform="" x="1160" y="20" font-size="10px" fill="#fff" stroke="#fff" stroke-width="0.8em" text-anchor="middle"><tspan x="1160" dy="0.355em">Optimal 80%</tspan></text></svg><svg x="0" y="0" font-size="10px" style="overflow:visible"><text transform="" x="1160" y="20" font-size="10px" fill="#62677B" text-anchor="middle"><tspan x="1160" dy="0.355em">Optimal 80%</tspan></text></svg></g></svg>