<?xml version="1.0"?><svg xmlns="http://www.w3.org/2000/svg" xmlns:xlink= "http://www.w3.org/1999/xlink" style="background: white;" width="1500" height="300"> <g style="color: black; font-size: 13px; font-family: sans-serif; transform: translate(18px, 25px);"><g><circle r="3" cx="-6" cy="-5" style="fill: #1AD4B3" /><text>Borrow APR, variable</text></g><g style="transform: translateX(150px);"><circle r="3" cx="-6" cy="-5" style="fill: #101423" /><text>Borrow APR, stable</text></g></g><g class="visx-group" transform="translate(45, 50)"><g class="visx-group visx-rows" transform="translate(0, 0)"><line class="visx-line" x1="0" y1="155" x2="1425" y2="155" fill="transparent" shape-rendering="crispEdges" stroke="#F2F0F9" stroke-width="1" pointer-events="none"></line><line class="visx-line" x1="0" y1="116.25" x2="1425" y2="116.25" fill="transparent" shape-rendering="crispEdges" stroke="#F2F0F9" stroke-width="1" pointer-events="none"></line><line class="visx-line" x1="0" y1="77.5" x2="1425" y2="77.5" fill="transparent" shape-rendering="crispEdges" stroke="#F2F0F9" stroke-width="1" pointer-events="none"></line><line class="visx-line" x1="0" y1="38.75" x2="1425" y2="38.75" fill="transparent" shape-rendering="crispEdges" stroke="#F2F0F9" stroke-width="1" pointer-events="none"></line><line class="visx-line" x1="0" y1="0" x2="1425" y2="0" fill="transparent" shape-rendering="crispEdges" stroke="#F2F0F9" stroke-width="1" pointer-events="none"></line></g><path class="visx-linepath" d="M0,147.25C2.375,147.25,4.75,147.25,7.125,147.25C9.5,147.25,11.875,147.25,14.25,147.25C16.625,147.25,19,147.25,21.375,147.25C23.75,147.25,26.125,147.25,28.5,147.25C30.875,147.25,33.25,147.25,35.625,147.25C38,147.25,40.375,147.25,42.75,147.25C45.125,147.25,47.50000000000001,147.25,49.87500000000001,147.25C52.25000000000001,147.25,54.625,147.25,57,147.25C59.375,147.25,61.75,147.25,64.125,147.25C66.5,147.25,68.875,147.25,71.25,147.25C73.625,147.25,76,147.25,78.375,147.25C80.75,147.25,83.125,147.25,85.5,147.25C87.875,147.25,90.25,147.25,92.625,147.25C95,147.25,97.37500000000001,147.25,99.75000000000001,147.25C102.12500000000001,147.25,104.5,147.25,106.875,147.25C109.25,147.25,111.625,147.25,114,147.25C116.375,147.25,118.75000000000001,147.25,121.12500000000001,147.25C123.50000000000001,147.25,125.875,147.25,128.25,147.25C130.625,147.25,133,147.25,135.375,147.25C137.75,147.25,140.125,147.25,142.5,147.25C144.875,147.25,147.25,147.25,149.625,147.25C152,147.25,154.375,147.25,156.75,147.25C159.125,147.25,161.5,147.25,163.875,147.25C166.25,147.25,168.625,147.25,171,147.25C173.375,147.25,175.75,147.25,178.125,147.25C180.5,147.25,182.875,147.25,185.25,147.25C187.625,147.25,190,147.25,192.375,147.25C194.75,147.25,197.12500000000003,147.25,199.50000000000003,147.25C201.875,147.25,204.25,147.25,206.62499999999997,147.25C208.99999999999997,147.25,211.375,147.25,213.75,147.25C216.125,147.25,218.5,147.25,220.875,147.25C223.25,147.25,225.625,147.25,228,147.25C230.375,147.25,232.75,147.25,235.125,147.25C237.5,147.25,239.87500000000003,147.25,242.25000000000003,147.25C244.625,147.25,247,147.25,249.37499999999997,147.25C251.74999999999997,147.25,254.125,147.25,256.5,147.25C258.875,147.25,261.25,147.25,263.625,147.25C266,147.25,268.375,147.25,270.75,147.25C273.125,147.25,275.5,147.25,277.875,147.25C280.25,147.25,282.625,147.25,285,147.25C287.375,147.25,289.75,147.25,292.125,147.25C294.5,147.25,296.875,147.25,299.25,147.25C301.625,147.25,304,147.25,306.375,147.25C308.75,147.25,311.125,147.25,313.5,147.25C315.875,147.25,318.25,147.25,320.625,147.25C323,147.25,325.375,147.25,327.75,147.25C330.125,147.25,332.5,147.25,334.875,147.25C337.25,147.25,339.625,147.25,342,147.25C344.375,147.25,346.75,147.25,349.125,147.25C351.5,147.25,353.875,147.25,356.25,147.25C358.625,147.25,361,147.25,363.375,147.25C365.75,147.25,368.125,147.25,370.5,147.25C372.875,147.25,375.25,147.25,377.625,147.25C380,147.25,382.375,147.25,384.75,147.25C387.125,147.25,389.50000000000006,147.25,391.87500000000006,147.25C394.25000000000006,147.25,396.62500000000006,147.25,399.00000000000006,147.25C401.375,147.25,403.75,147.25,406.12499999999994,147.25C408.49999999999994,147.25,410.87499999999994,147.25,413.24999999999994,147.25C415.62499999999994,147.25,418,147.25,420.375,147.25C422.75,147.25,425.125,147.25,427.5,147.25C429.875,147.25,432.25,147.25,434.625,147.25C437,147.25,439.375,147.25,441.75,147.25C444.125,147.25,446.5,147.25,448.875,147.25C451.25,147.25,453.625,147.25,456,147.25C458.375,147.25,460.75,147.25,463.125,147.25C465.5,147.25,467.875,147.25,470.25,147.25C472.625,147.25,475.00000000000006,147.25,477.37500000000006,147.25C479.75000000000006,147.25,482.12500000000006,147.25,484.50000000000006,147.25C486.875,147.25,489.25,147.25,491.62499999999994,147.25C493.99999999999994,147.25,496.37499999999994,147.25,498.74999999999994,147.25C501.12499999999994,147.25,503.5,147.25,505.875,147.25C508.25,147.25,510.625,147.25,513,147.25C515.375,147.25,517.75,147.25,520.125,147.25C522.5,147.25,524.875,147.25,527.25,147.25C529.625,147.25,532,147.25,534.375,147.25C536.75,147.25,539.125,147.25,541.5,147.25C543.875,147.25,546.25,147.25,548.625,147.25C551,147.25,553.375,147.25,555.75,147.25C558.125,147.25,560.5,147.25,562.875,147.25C565.25,147.25,567.625,147.25,570,147.25C572.375,147.25,574.75,147.25,577.125,147.25C579.5,147.25,581.875,147.25,584.25,147.25C586.625,147.25,589,147.25,591.375,147.25C593.75,147.25,596.125,147.25,598.5,147.25C600.875,147.25,603.25,147.25,605.625,147.25C608,147.25,610.375,147.25,612.75,147.25C615.125,147.25,617.5,147.25,619.875,147.25C622.25,147.25,624.625,147.25,627,147.25C629.375,147.25,631.75,147.25,634.125,147.25C636.5,147.25,638.875,147.25,641.25,147.25C643.625,147.25,646,147.25,648.375,147.25C650.75,147.25,653.125,147.25,655.5,147.25C657.875,147.25,660.25,147.25,662.625,147.25C665,147.25,667.375,147.25,669.75,147.25C672.125,147.25,674.5,147.25,676.875,147.25C679.25,147.25,681.625,147.25,684,147.25C686.375,147.25,688.75,147.25,691.125,147.25C693.5,147.25,695.875,147.25,698.25,147.25C700.625,147.25,703,147.25,705.375,147.25C707.75,147.25,710.125,147.25,712.5,147.25C714.875,147.25,717.25,147.25,719.625,147.25C722,147.25,724.375,147.25,726.75,147.25C729.125,147.25,731.5,147.25,733.875,147.25C736.25,147.25,738.625,147.25,741,147.25C743.375,147.25,745.75,147.25,748.125,147.25C750.5,147.25,752.875,147.25,755.25,147.25C757.625,147.25,760,147.25,762.375,147.25C764.75,147.25,767.125,147.25,769.5,147.25C771.875,147.25,774.2500000000001,147.25,776.6250000000001,147.25C779.0000000000001,147.25,781.3750000000001,147.25,783.7500000000001,147.25C786.1250000000001,147.25,788.5000000000001,147.25,790.8750000000001,147.25C793.2500000000001,147.25,795.6250000000001,147.25,798.0000000000001,147.25C800.375,147.25,802.75,147.25,805.1249999999999,147.25C807.4999999999999,147.25,809.8749999999999,147.25,812.2499999999999,147.25C814.6249999999999,147.25,816.9999999999999,147.25,819.3749999999999,147.25C821.7499999999999,147.25,824.1249999999999,147.25,826.4999999999999,147.25C828.8749999999999,147.25,831.25,147.25,833.625,147.25C836,147.25,838.375,147.25,840.75,147.25C843.125,147.25,845.5,147.25,847.875,147.25C850.25,147.25,852.625,147.25,855,147.25C857.375,147.25,859.75,147.25,862.125,147.25C864.5,147.25,866.875,147.25,869.25,147.25C871.625,147.25,874,147.25,876.375,147.25C878.75,147.25,881.125,147.25,883.5,147.25C885.875,147.25,888.25,147.25,890.625,147.25C893,147.25,895.375,147.25,897.75,147.25C900.125,147.25,902.5,147.25,904.875,147.25C907.25,147.25,909.625,147.25,912,147.25C914.375,147.25,916.75,147.25,919.125,147.25C921.5,147.25,923.875,147.25,926.25,147.25C928.625,147.25,931,146.14285714285714,933.375,145.58928571428572C935.75,145.0357142857143,938.125,144.48214285714286,940.5,143.92857142857144C942.875,143.37500000000003,945.25,142.82142857142858,947.625,142.26785714285717C950,141.71428571428572,952.3750000000001,141.1607142857143,954.7500000000001,140.60714285714286C957.1250000000001,140.05357142857144,959.5000000000001,139.5,961.8750000000001,138.94642857142858C964.2500000000001,138.39285714285717,966.6250000000001,137.83928571428572,969.0000000000001,137.28571428571428C971.3750000000001,136.73214285714283,973.7500000000001,136.17857142857144,976.1250000000001,135.625C978.5,135.07142857142858,980.875,134.51785714285714,983.2499999999999,133.96428571428572C985.6249999999999,133.41071428571428,987.9999999999999,132.85714285714283,990.3749999999999,132.30357142857142C992.7499999999999,131.75,995.1249999999999,131.19642857142856,997.4999999999999,130.64285714285714C999.8749999999999,130.08928571428572,1002.2499999999999,129.53571428571428,1004.6249999999999,128.98214285714286C1006.9999999999999,128.42857142857142,1009.375,127.875,1011.75,127.32142857142857C1014.125,126.76785714285714,1016.5,126.21428571428572,1018.875,125.66071428571429C1021.25,125.10714285714286,1023.625,124.55357142857143,1026,124C1028.375,123.44642857142857,1030.75,122.89285714285714,1033.125,122.33928571428571C1035.5,121.78571428571428,1037.875,121.23214285714286,1040.25,120.67857142857143C1042.625,120.125,1045,119.57142857142857,1047.375,119.01785714285714C1049.75,118.46428571428571,1052.125,117.91071428571428,1054.5,117.35714285714285C1056.875,116.80357142857142,1059.25,116.25,1061.625,115.69642857142857C1064,115.14285714285714,1066.375,114.58928571428572,1068.75,114.03571428571429C1071.125,113.48214285714286,1073.5,112.92857142857143,1075.875,112.375C1078.25,111.82142857142857,1080.625,111.26785714285715,1083,110.71428571428572C1085.375,110.16071428571429,1087.75,109.60714285714285,1090.125,109.05357142857142C1092.5,108.49999999999999,1094.875,107.94642857142857,1097.25,107.39285714285714C1099.625,106.83928571428571,1102,106.28571428571429,1104.375,105.73214285714286C1106.75,105.17857142857143,1109.125,104.62500000000001,1111.5,104.07142857142858C1113.875,103.51785714285715,1116.25,102.96428571428571,1118.625,102.41071428571428C1121,101.85714285714285,1123.375,101.30357142857143,1125.75,100.75C1128.125,100.19642857142857,1130.5,99.64285714285714,1132.875,99.08928571428571C1135.25,98.53571428571428,1137.625,97.98214285714286,1140,97.42857142857143C1142.375,96.875,1144.75,96.32142857142858,1147.125,95.76785714285715C1149.5,95.21428571428572,1151.875,94.66071428571429,1154.25,94.10714285714286C1156.625,93.55357142857143,1159,92.99999999999999,1161.375,92.44642857142856C1163.75,91.89285714285712,1166.125,91.33928571428571,1168.5,90.78571428571428C1170.875,90.23214285714285,1173.25,89.67857142857143,1175.625,89.125C1178,88.57142857142857,1180.375,88.01785714285714,1182.75,87.46428571428571C1185.125,86.91071428571428,1187.5,86.35714285714286,1189.875,85.80357142857143C1192.25,85.25,1194.625,84.69642857142858,1197,84.14285714285715C1199.375,83.58928571428572,1201.75,83.03571428571429,1204.125,82.48214285714286C1206.5,81.92857142857143,1208.875,81.37499999999999,1211.25,80.82142857142856C1213.625,80.26785714285712,1216,79.71428571428572,1218.375,79.16071428571429C1220.75,78.60714285714286,1223.125,78.05357142857143,1225.5,77.5C1227.875,76.94642857142857,1230.25,76.39285714285715,1232.625,75.83928571428572C1235,75.28571428571429,1237.375,74.73214285714285,1239.75,74.17857142857142C1242.125,73.62499999999999,1244.5,73.07142857142857,1246.875,72.51785714285714C1249.25,71.96428571428571,1251.625,71.41071428571429,1254,70.85714285714286C1256.375,70.30357142857143,1258.75,69.75,1261.125,69.19642857142857C1263.5,68.64285714285714,1265.875,68.08928571428572,1268.25,67.53571428571429C1270.625,66.98214285714286,1273,66.42857142857143,1275.375,65.875C1277.75,65.32142857142857,1280.125,64.76785714285714,1282.5,64.21428571428571C1284.875,63.66071428571428,1287.25,63.107142857142854,1289.625,62.55357142857143C1292,62.00000000000001,1294.375,61.446428571428584,1296.75,60.89285714285715C1299.125,60.33928571428572,1301.5,59.785714285714285,1303.875,59.232142857142854C1306.25,58.67857142857142,1308.625,58.125,1311,57.57142857142858C1313.375,57.01785714285715,1315.75,56.46428571428572,1318.125,55.91071428571429C1320.5,55.35714285714286,1322.875,54.80357142857143,1325.25,54.25C1327.625,53.69642857142857,1330,53.14285714285714,1332.375,52.589285714285715C1334.75,52.03571428571429,1337.125,51.48214285714287,1339.5,50.92857142857144C1341.875,50.37500000000001,1344.25,49.821428571428555,1346.625,49.267857142857125C1349,48.714285714285694,1351.375,48.160714285714306,1353.75,47.607142857142875C1356.125,47.053571428571445,1358.5,46.49999999999999,1360.875,45.94642857142856C1363.25,45.39285714285713,1365.625,44.83928571428571,1368,44.285714285714285C1370.375,43.73214285714286,1372.75,43.17857142857143,1375.125,42.625C1377.5,42.07142857142857,1379.875,41.51785714285712,1382.25,40.96428571428569C1384.625,40.410714285714256,1387,39.85714285714285,1389.375,39.30357142857142C1391.75,38.75,1394.125,38.19642857142858,1396.5,37.642857142857146C1398.875,37.089285714285715,1401.25,36.53571428571428,1403.625,35.98214285714285C1406,35.428571428571416,1408.375,34.87499999999999,1410.75,34.32142857142857C1413.125,33.767857142857146,1415.5,33.21428571428572,1417.875,32.66071428571429C1420.25,32.10714285714286,1422.625,31.553571428571427,1425,30.999999999999993" fill="transparent" stroke-linecap="round" stroke="#1AD4B3" stroke-width="2"></path><g class="visx-group visx-axis visx-axis-bottom" transform="translate(0, 155)"><g class="visx-group visx-axis-tick" transform="translate(0, 0)"><line class="visx-line" x1="0" y1="0" x2="0" y2="8" fill="transparent" shape-rendering="crispEdges" stroke="#F2F0F9" stroke-width="1" stroke-linecap="square"></line><svg x="0" y="0" font-size="11" style="overflow:visible"><text transform="" x="0" y="19" fill="#1B2030" font-size="11" text-anchor="middle"><tspan x="0" dy="0em">0%</tspan></text></svg></g><g class="visx-group visx-axis-tick" transform="translate(0, 0)"><line class="visx-line" x1="356.25" y1="0" x2="356.25" y2="8" fill="transparent" shape-rendering="crispEdges" stroke="#F2F0F9" stroke-width="1" stroke-linecap="square"></line><svg x="0" y="0" font-size="11" style="overflow:visible"><text transform="" x="356.25" y="19" fill="#1B2030" font-size="11" text-anchor="middle"><tspan x="356.25" dy="0em">25%</tspan></text></svg></g><g class="visx-group visx-axis-tick" transform="translate(0, 0)"><line class="visx-line" x1="712.5" y1="0" x2="712.5" y2="8" fill="transparent" shape-rendering="crispEdges" stroke="#F2F0F9" stroke-width="1" stroke-linecap="square"></line><svg x="0" y="0" font-size="11" style="overflow:visible"><text transform="" x="712.5" y="19" fill="#1B2030" font-size="11" text-anchor="middle"><tspan x="712.5" dy="0em">50%</tspan></text></svg></g><g class="visx-group visx-axis-tick" transform="translate(0, 0)"><line class="visx-line" x1="1068.75" y1="0" x2="1068.75" y2="8" fill="transparent" shape-rendering="crispEdges" stroke="#F2F0F9" stroke-width="1" stroke-linecap="square"></line><svg x="0" y="0" font-size="11" style="overflow:visible"><text transform="" x="1068.75" y="19" fill="#1B2030" font-size="11" text-anchor="middle"><tspan x="1068.75" dy="0em">75%</tspan></text></svg></g><g class="visx-group visx-axis-tick" transform="translate(0, 0)"><line class="visx-line" x1="1425" y1="0" x2="1425" y2="8" fill="transparent" shape-rendering="crispEdges" stroke="#F2F0F9" stroke-width="1" stroke-linecap="square"></line><svg x="0" y="0" font-size="11" style="overflow:visible"><text transform="" x="1425" y="19" fill="#1B2030" font-size="11" text-anchor="middle"><tspan x="1425" dy="0em">100%</tspan></text></svg></g></g><g class="visx-group visx-axis visx-axis-left" transform="translate(0, 0)"><g class="visx-group visx-axis-tick" transform="translate(0, 0)"><line class="visx-line" x1="0" y1="155" x2="-8" y2="155" fill="transparent" shape-rendering="crispEdges" stroke="#F2F0F9" stroke-width="1" stroke-linecap="square"></line><svg x="-30" y="0" font-size="11" style="overflow:visible"><text transform="" x="-8" y="155" fill="#1B2030" font-size="11" text-anchor="start"><tspan x="-8" dy="0em">0%</tspan></text></svg></g><g class="visx-group visx-axis-tick" transform="translate(0, 0)"><line class="visx-line" x1="0" y1="116.25" x2="-8" y2="116.25" fill="transparent" shape-rendering="crispEdges" stroke="#F2F0F9" stroke-width="1" stroke-linecap="square"></line><svg x="-30" y="0" font-size="11" style="overflow:visible"><text transform="" x="-8" y="116.25" fill="#1B2030" font-size="11" text-anchor="start"><tspan x="-8" dy="0em">100%</tspan></text></svg></g><g class="visx-group visx-axis-tick" transform="translate(0, 0)"><line class="visx-line" x1="0" y1="77.5" x2="-8" y2="77.5" fill="transparent" shape-rendering="crispEdges" stroke="#F2F0F9" stroke-width="1" stroke-linecap="square"></line><svg x="-30" y="0" font-size="11" style="overflow:visible"><text transform="" x="-8" y="77.5" fill="#1B2030" font-size="11" text-anchor="start"><tspan x="-8" dy="0em">200%</tspan></text></svg></g><g class="visx-group visx-axis-tick" transform="translate(0, 0)"><line class="visx-line" x1="0" y1="38.75" x2="-8" y2="38.75" fill="transparent" shape-rendering="crispEdges" stroke="#F2F0F9" stroke-width="1" stroke-linecap="square"></line><svg x="-30" y="0" font-size="11" style="overflow:visible"><text transform="" x="-8" y="38.75" fill="#1B2030" font-size="11" text-anchor="start"><tspan x="-8" dy="0em">300%</tspan></text></svg></g><g class="visx-group visx-axis-tick" transform="translate(0, 0)"><line class="visx-line" x1="0" y1="0" x2="-8" y2="0" fill="transparent" shape-rendering="crispEdges" stroke="#F2F0F9" stroke-width="1" stroke-linecap="square"></line><svg x="-30" y="0" font-size="11" style="overflow:visible"><text transform="" x="-8" y="0" fill="#1B2030" font-size="11" text-anchor="start"><tspan x="-8" dy="0em">400%</tspan></text></svg></g><line class="visx-line visx-axis-line" x1="0" y1="155.5" x2="0" y2="0.5" fill="transparent" shape-rendering="crispEdges" stroke="#F2F0F9" stroke-width="1"></line></g><rect class="visx-bar" width="1425" height="155" fill="transparent"></rect><line class="visx-line" x1="926.25" y1="58" x2="926.25" y2="155" fill="transparent" shape-rendering="crispEdges" stroke="#CDC8E1" stroke-width="1" pointer-events="none" stroke-dasharray="5"></line><svg x="0" y="0" font-size="11px" style="overflow:visible"><text transform="" x="926.25" y="50" font-size="11px" fill="#555069" stroke="#FFFFFF" stroke-width="1px" text-anchor="middle"><tspan x="926.25" dy="0.355em">Optimal utilization 65%</tspan></text></svg><svg x="0" y="0" font-size="11px" style="overflow:visible"><text transform="" x="926.25" y="50" font-size="11px" fill="#CDC8E1" text-anchor="middle"><tspan x="926.25" dy="0.355em">Optimal utilization 65%</tspan></text></svg></g></svg>