<?xml version="1.0"?><svg xmlns="http://www.w3.org/2000/svg" xmlns:xlink= "http://www.w3.org/1999/xlink" style="background: white;" width="1500" height="300"> <g style="color: black; font-size: 13px; font-family: sans-serif; transform: translate(18px, 25px);"><g><circle r="3" cx="-6" cy="-5" style="fill: #1AD4B3" /><text>Borrow APR, variable</text></g><g style="transform: translateX(150px);"><circle r="3" cx="-6" cy="-5" style="fill: #101423" /><text>Borrow APR, stable</text></g></g><g class="visx-group" transform="translate(45, 50)"><g class="visx-group visx-rows" transform="translate(0, 0)"><line class="visx-line" x1="0" y1="155" x2="1425" y2="155" fill="transparent" shape-rendering="crispEdges" stroke="#F2F0F9" stroke-width="1" pointer-events="none"></line><line class="visx-line" x1="0" y1="116.25" x2="1425" y2="116.25" fill="transparent" shape-rendering="crispEdges" stroke="#F2F0F9" stroke-width="1" pointer-events="none"></line><line class="visx-line" x1="0" y1="77.5" x2="1425" y2="77.5" fill="transparent" shape-rendering="crispEdges" stroke="#F2F0F9" stroke-width="1" pointer-events="none"></line><line class="visx-line" x1="0" y1="38.75" x2="1425" y2="38.75" fill="transparent" shape-rendering="crispEdges" stroke="#F2F0F9" stroke-width="1" pointer-events="none"></line><line class="visx-line" x1="0" y1="0" x2="1425" y2="0" fill="transparent" shape-rendering="crispEdges" stroke="#F2F0F9" stroke-width="1" pointer-events="none"></line></g><path class="visx-linepath" d="M0,147.25C2.375,147.25,4.75,147.25,7.125,147.25C9.5,147.25,11.875,147.25,14.25,147.25C16.625,147.25,19,147.25,21.375,147.25C23.75,147.25,26.125,147.25,28.5,147.25C30.875,147.25,33.25,147.25,35.625,147.25C38,147.25,40.375,147.25,42.75,147.25C45.125,147.25,47.50000000000001,147.25,49.87500000000001,147.25C52.25000000000001,147.25,54.625,147.25,57,147.25C59.375,147.25,61.75,147.25,64.125,147.25C66.5,147.25,68.875,147.25,71.25,147.25C73.625,147.25,76,147.25,78.375,147.25C80.75,147.25,83.125,147.25,85.5,147.25C87.875,147.25,90.25,147.25,92.625,147.25C95,147.25,97.37500000000001,147.25,99.75000000000001,147.25C102.12500000000001,147.25,104.5,147.25,106.875,147.25C109.25,147.25,111.625,147.25,114,147.25C116.375,147.25,118.75000000000001,147.25,121.12500000000001,147.25C123.50000000000001,147.25,125.875,147.25,128.25,147.25C130.625,147.25,133,147.25,135.375,147.25C137.75,147.25,140.125,147.25,142.5,147.25C144.875,147.25,147.25,147.25,149.625,147.25C152,147.25,154.375,147.25,156.75,147.25C159.125,147.25,161.5,147.25,163.875,147.25C166.25,147.25,168.625,147.25,171,147.25C173.375,147.25,175.75,147.25,178.125,147.25C180.5,147.25,182.875,147.25,185.25,147.25C187.625,147.25,190,147.25,192.375,147.25C194.75,147.25,197.12500000000003,147.25,199.50000000000003,147.25C201.875,147.25,204.25,147.25,206.62499999999997,147.25C208.99999999999997,147.25,211.375,147.25,213.75,147.25C216.125,147.25,218.5,147.25,220.875,147.25C223.25,147.25,225.625,147.25,228,147.25C230.375,147.25,232.75,147.25,235.125,147.25C237.5,147.25,239.87500000000003,147.25,242.25000000000003,147.25C244.625,147.25,247,147.25,249.37499999999997,147.25C251.74999999999997,147.25,254.125,147.25,256.5,147.25C258.875,147.25,261.25,147.25,263.625,147.25C266,147.25,268.375,147.25,270.75,147.25C273.125,147.25,275.5,147.25,277.875,147.25C280.25,147.25,282.625,147.25,285,147.25C287.375,147.25,289.75,147.25,292.125,147.25C294.5,147.25,296.875,147.25,299.25,147.25C301.625,147.25,304,147.25,306.375,147.25C308.75,147.25,311.125,147.25,313.5,147.25C315.875,147.25,318.25,147.25,320.625,147.25C323,147.25,325.375,147.25,327.75,147.25C330.125,147.25,332.5,147.25,334.875,147.25C337.25,147.25,339.625,147.25,342,147.25C344.375,147.25,346.75,147.25,349.125,147.25C351.5,147.25,353.875,147.25,356.25,147.25C358.625,147.25,361,147.25,363.375,147.25C365.75,147.25,368.125,147.25,370.5,147.25C372.875,147.25,375.25,147.25,377.625,147.25C380,147.25,382.375,147.25,384.75,147.25C387.125,147.25,389.50000000000006,147.25,391.87500000000006,147.25C394.25000000000006,147.25,396.62500000000006,147.25,399.00000000000006,147.25C401.375,147.25,403.75,147.25,406.12499999999994,147.25C408.49999999999994,147.25,410.87499999999994,147.25,413.24999999999994,147.25C415.62499999999994,147.25,418,147.25,420.375,147.25C422.75,147.25,425.125,147.25,427.5,147.25C429.875,147.25,432.25,147.25,434.625,147.25C437,147.25,439.375,147.25,441.75,147.25C444.125,147.25,446.5,147.25,448.875,147.25C451.25,147.25,453.625,147.25,456,147.25C458.375,147.25,460.75,147.25,463.125,147.25C465.5,147.25,467.875,147.25,470.25,147.25C472.625,147.25,475.00000000000006,147.25,477.37500000000006,147.25C479.75000000000006,147.25,482.12500000000006,147.25,484.50000000000006,147.25C486.875,147.25,489.25,147.25,491.62499999999994,147.25C493.99999999999994,147.25,496.37499999999994,147.25,498.74999999999994,147.25C501.12499999999994,147.25,503.5,147.25,505.875,147.25C508.25,147.25,510.625,147.25,513,147.25C515.375,147.25,517.75,147.25,520.125,147.25C522.5,147.25,524.875,147.25,527.25,147.25C529.625,147.25,532,147.25,534.375,147.25C536.75,147.25,539.125,147.25,541.5,147.25C543.875,147.25,546.25,147.25,548.625,147.25C551,147.25,553.375,147.25,555.75,147.25C558.125,147.25,560.5,147.25,562.875,147.25C565.25,147.25,567.625,147.25,570,147.25C572.375,147.25,574.75,147.25,577.125,147.25C579.5,147.25,581.875,147.25,584.25,147.25C586.625,147.25,589,147.25,591.375,147.25C593.75,147.25,596.125,147.25,598.5,147.25C600.875,147.25,603.25,147.25,605.625,147.25C608,147.25,610.375,147.25,612.75,147.25C615.125,147.25,617.5,147.25,619.875,147.25C622.25,147.25,624.625,147.25,627,147.25C629.375,147.25,631.75,147.25,634.125,147.25C636.5,147.25,638.875,147.25,641.25,147.25C643.625,147.25,646,146.54545454545453,648.375,146.1931818181818C650.75,145.8409090909091,653.125,145.48863636363637,655.5,145.13636363636365C657.875,144.78409090909093,660.25,144.4318181818182,662.625,144.07954545454547C665,143.72727272727275,667.375,143.375,669.75,143.02272727272728C672.125,142.67045454545456,674.5,142.3181818181818,676.875,141.9659090909091C679.25,141.61363636363637,681.625,141.26136363636363,684,140.9090909090909C686.375,140.5568181818182,688.75,140.20454545454544,691.125,139.85227272727272C693.5,139.5,695.875,139.14772727272728,698.25,138.79545454545456C700.625,138.44318181818184,703,138.0909090909091,705.375,137.73863636363637C707.75,137.38636363636365,710.125,137.0340909090909,712.5,136.6818181818182C714.875,136.32954545454547,717.25,135.97727272727272,719.625,135.625C722,135.27272727272728,724.375,134.92045454545453,726.75,134.5681818181818C729.125,134.2159090909091,731.5,133.86363636363635,733.875,133.51136363636363C736.25,133.1590909090909,738.625,132.80681818181816,741,132.45454545454544C743.375,132.10227272727272,745.75,131.74999999999997,748.125,131.39772727272725C750.5,131.04545454545453,752.875,130.6931818181818,755.25,130.3409090909091C757.625,129.98863636363637,760,129.63636363636363,762.375,129.2840909090909C764.75,128.9318181818182,767.125,128.57954545454544,769.5,128.22727272727272C771.875,127.87499999999999,774.2500000000001,127.52272727272728,776.6250000000001,127.17045454545455C779.0000000000001,126.81818181818183,781.3750000000001,126.4659090909091,783.7500000000001,126.11363636363636C786.1250000000001,125.76136363636363,788.5000000000001,125.4090909090909,790.8750000000001,125.05681818181819C793.2500000000001,124.70454545454547,795.6250000000001,124.35227272727273,798.0000000000001,124C800.375,123.64772727272728,802.75,123.29545454545455,805.1249999999999,122.94318181818183C807.4999999999999,122.5909090909091,809.8749999999999,122.23863636363637,812.2499999999999,121.88636363636364C814.6249999999999,121.5340909090909,816.9999999999999,121.18181818181819,819.3749999999999,120.82954545454545C821.7499999999999,120.47727272727272,824.1249999999999,120.12499999999999,826.4999999999999,119.77272727272727C828.8749999999999,119.42045454545453,831.25,119.06818181818181,833.625,118.71590909090908C836,118.36363636363636,838.375,118.01136363636363,840.75,117.6590909090909C843.125,117.30681818181819,845.5,116.95454545454544,847.875,116.60227272727272C850.25,116.25,852.625,115.89772727272728,855,115.54545454545455C857.375,115.19318181818181,859.75,114.8409090909091,862.125,114.48863636363636C864.5,114.13636363636363,866.875,113.7840909090909,869.25,113.43181818181819C871.625,113.07954545454547,874,112.72727272727272,876.375,112.375C878.75,112.02272727272728,881.125,111.67045454545456,883.5,111.31818181818183C885.875,110.9659090909091,888.25,110.61363636363637,890.625,110.26136363636364C893,109.9090909090909,895.375,109.55681818181819,897.75,109.20454545454547C900.125,108.85227272727275,902.5,108.50000000000001,904.875,108.14772727272728C907.25,107.79545454545455,909.625,107.44318181818183,912,107.0909090909091C914.375,106.73863636363636,916.75,106.38636363636364,919.125,106.0340909090909C921.5,105.68181818181817,923.875,105.32954545454545,926.25,104.97727272727272C928.625,104.62499999999999,931,104.27272727272725,933.375,103.92045454545453C935.75,103.56818181818181,938.125,103.2159090909091,940.5,102.86363636363637C942.875,102.51136363636365,945.25,102.15909090909089,947.625,101.80681818181817C950,101.45454545454544,952.3750000000001,101.10227272727273,954.7500000000001,100.75C957.1250000000001,100.39772727272728,959.5000000000001,100.04545454545453,961.8750000000001,99.69318181818181C964.2500000000001,99.3409090909091,966.6250000000001,98.98863636363637,969.0000000000001,98.63636363636364C971.3750000000001,98.2840909090909,973.7500000000001,97.93181818181819,976.1250000000001,97.57954545454545C978.5,97.22727272727273,980.875,96.875,983.2499999999999,96.52272727272728C985.6249999999999,96.17045454545455,987.9999999999999,95.81818181818181,990.3749999999999,95.4659090909091C992.7499999999999,95.11363636363637,995.1249999999999,94.76136363636365,997.4999999999999,94.40909090909092C999.8749999999999,94.05681818181819,1002.2499999999999,93.70454545454545,1004.6249999999999,93.35227272727273C1006.9999999999999,93,1009.375,92.64772727272728,1011.75,92.29545454545455C1014.125,91.94318181818183,1016.5,91.5909090909091,1018.875,91.23863636363636C1021.25,90.88636363636363,1023.625,90.5340909090909,1026,90.18181818181817C1028.375,89.82954545454544,1030.75,89.47727272727272,1033.125,89.125C1035.5,88.77272727272728,1037.875,88.42045454545455,1040.25,88.06818181818181C1042.625,87.71590909090908,1045,87.36363636363636,1047.375,87.01136363636363C1049.75,86.65909090909089,1052.125,86.30681818181816,1054.5,85.95454545454544C1056.875,85.60227272727272,1059.25,85.25,1061.625,84.89772727272727C1064,84.54545454545453,1066.375,84.19318181818178,1068.75,83.84090909090907C1071.125,83.48863636363635,1073.5,83.13636363636364,1075.875,82.78409090909092C1078.25,82.4318181818182,1080.625,82.07954545454547,1083,81.72727272727273C1085.375,81.375,1087.75,81.02272727272728,1090.125,80.67045454545455C1092.5,80.31818181818181,1094.875,79.9659090909091,1097.25,79.61363636363637C1099.625,79.26136363636365,1102,78.90909090909092,1104.375,78.55681818181819C1106.75,78.20454545454545,1109.125,77.85227272727273,1111.5,77.5C1113.875,77.14772727272727,1116.25,76.79545454545455,1118.625,76.44318181818181C1121,76.09090909090908,1123.375,75.73863636363635,1125.75,75.38636363636363C1128.125,75.0340909090909,1130.5,74.68181818181817,1132.875,74.32954545454545C1135.25,73.97727272727273,1137.625,73.625,1140,73.27272727272728C1142.375,72.92045454545456,1144.75,72.56818181818183,1147.125,72.2159090909091C1149.5,71.86363636363636,1151.875,71.51136363636363,1154.25,71.1590909090909C1156.625,70.80681818181819,1159,70.45454545454547,1161.375,70.10227272727273C1163.75,69.75,1166.125,69.39772727272728,1168.5,69.04545454545455C1170.875,68.69318181818181,1173.25,68.3409090909091,1175.625,67.98863636363636C1178,67.63636363636363,1180.375,67.2840909090909,1182.75,66.93181818181817C1185.125,66.57954545454544,1187.5,66.22727272727272,1189.875,65.875C1192.25,65.52272727272728,1194.625,65.17045454545456,1197,64.81818181818183C1199.375,64.4659090909091,1201.75,64.11363636363637,1204.125,63.76136363636364C1206.5,63.409090909090914,1208.875,63.05681818181818,1211.25,62.70454545454545C1213.625,62.35227272727273,1216,61.99999999999999,1218.375,61.647727272727266C1220.75,61.29545454545454,1223.125,60.94318181818181,1225.5,60.590909090909086C1227.875,60.23863636363636,1230.25,59.886363636363626,1232.625,59.5340909090909C1235,59.18181818181817,1237.375,58.82954545454546,1239.75,58.477272727272734C1242.125,58.12500000000001,1244.5,57.77272727272727,1246.875,57.42045454545455C1249.25,57.06818181818182,1251.625,56.71590909090909,1254,56.36363636363637C1256.375,56.01136363636364,1258.75,55.65909090909093,1261.125,55.3068181818182C1263.5,54.954545454545475,1265.875,54.602272727272734,1268.25,54.25C1270.625,53.897727272727266,1273,53.54545454545454,1275.375,53.19318181818181C1277.75,52.840909090909086,1280.125,52.48863636363635,1282.5,52.136363636363626C1284.875,51.7840909090909,1287.25,51.43181818181819,1289.625,51.07954545454546C1292,50.727272727272734,1294.375,50.375,1296.75,50.02272727272727C1299.125,49.67045454545455,1301.5,49.31818181818182,1303.875,48.96590909090909C1306.25,48.61363636363637,1308.625,48.26136363636363,1311,47.90909090909091C1313.375,47.55681818181818,1315.75,47.20454545454545,1318.125,46.85227272727273C1320.5,46.5,1322.875,46.147727272727266,1325.25,45.79545454545454C1327.625,45.44318181818181,1330,45.0909090909091,1332.375,44.738636363636374C1334.75,44.38636363636365,1337.125,44.034090909090914,1339.5,43.68181818181819C1341.875,43.32954545454546,1344.25,42.977272727272734,1346.625,42.625C1349,42.272727272727266,1351.375,41.920454545454525,1353.75,41.5681818181818C1356.125,41.21590909090907,1358.5,40.86363636363636,1360.875,40.51136363636363C1363.25,40.15909090909091,1365.625,39.80681818181818,1368,39.45454545454545C1370.375,39.10227272727273,1372.75,38.74999999999999,1375.125,38.397727272727266C1377.5,38.04545454545454,1379.875,37.69318181818183,1382.25,37.3409090909091C1384.625,36.988636363636374,1387,36.636363636363626,1389.375,36.2840909090909C1391.75,35.93181818181817,1394.125,35.57954545454546,1396.5,35.227272727272734C1398.875,34.87500000000001,1401.25,34.52272727272727,1403.625,34.17045454545455C1406,33.81818181818182,1408.375,33.46590909090909,1410.75,33.11363636363636C1413.125,32.761363636363626,1415.5,32.409090909090885,1417.875,32.05681818181816C1420.25,31.704545454545432,1422.625,31.352272727272712,1425,30.999999999999993" fill="transparent" stroke-linecap="round" stroke="#1AD4B3" stroke-width="2"></path><g class="visx-group visx-axis visx-axis-bottom" transform="translate(0, 155)"><g class="visx-group visx-axis-tick" transform="translate(0, 0)"><line class="visx-line" x1="0" y1="0" x2="0" y2="8" fill="transparent" shape-rendering="crispEdges" stroke="#F2F0F9" stroke-width="1" stroke-linecap="square"></line><svg x="0" y="0" font-size="11" style="overflow:visible"><text transform="" x="0" y="19" fill="#1B2030" font-size="11" text-anchor="middle"><tspan x="0" dy="0em">0%</tspan></text></svg></g><g class="visx-group visx-axis-tick" transform="translate(0, 0)"><line class="visx-line" x1="356.25" y1="0" x2="356.25" y2="8" fill="transparent" shape-rendering="crispEdges" stroke="#F2F0F9" stroke-width="1" stroke-linecap="square"></line><svg x="0" y="0" font-size="11" style="overflow:visible"><text transform="" x="356.25" y="19" fill="#1B2030" font-size="11" text-anchor="middle"><tspan x="356.25" dy="0em">25%</tspan></text></svg></g><g class="visx-group visx-axis-tick" transform="translate(0, 0)"><line class="visx-line" x1="712.5" y1="0" x2="712.5" y2="8" fill="transparent" shape-rendering="crispEdges" stroke="#F2F0F9" stroke-width="1" stroke-linecap="square"></line><svg x="0" y="0" font-size="11" style="overflow:visible"><text transform="" x="712.5" y="19" fill="#1B2030" font-size="11" text-anchor="middle"><tspan x="712.5" dy="0em">50%</tspan></text></svg></g><g class="visx-group visx-axis-tick" transform="translate(0, 0)"><line class="visx-line" x1="1068.75" y1="0" x2="1068.75" y2="8" fill="transparent" shape-rendering="crispEdges" stroke="#F2F0F9" stroke-width="1" stroke-linecap="square"></line><svg x="0" y="0" font-size="11" style="overflow:visible"><text transform="" x="1068.75" y="19" fill="#1B2030" font-size="11" text-anchor="middle"><tspan x="1068.75" dy="0em">75%</tspan></text></svg></g><g class="visx-group visx-axis-tick" transform="translate(0, 0)"><line class="visx-line" x1="1425" y1="0" x2="1425" y2="8" fill="transparent" shape-rendering="crispEdges" stroke="#F2F0F9" stroke-width="1" stroke-linecap="square"></line><svg x="0" y="0" font-size="11" style="overflow:visible"><text transform="" x="1425" y="19" fill="#1B2030" font-size="11" text-anchor="middle"><tspan x="1425" dy="0em">100%</tspan></text></svg></g></g><g class="visx-group visx-axis visx-axis-left" transform="translate(0, 0)"><g class="visx-group visx-axis-tick" transform="translate(0, 0)"><line class="visx-line" x1="0" y1="155" x2="-8" y2="155" fill="transparent" shape-rendering="crispEdges" stroke="#F2F0F9" stroke-width="1" stroke-linecap="square"></line><svg x="-30" y="0" font-size="11" style="overflow:visible"><text transform="" x="-8" y="155" fill="#1B2030" font-size="11" text-anchor="start"><tspan x="-8" dy="0em">0%</tspan></text></svg></g><g class="visx-group visx-axis-tick" transform="translate(0, 0)"><line class="visx-line" x1="0" y1="116.25" x2="-8" y2="116.25" fill="transparent" shape-rendering="crispEdges" stroke="#F2F0F9" stroke-width="1" stroke-linecap="square"></line><svg x="-30" y="0" font-size="11" style="overflow:visible"><text transform="" x="-8" y="116.25" fill="#1B2030" font-size="11" text-anchor="start"><tspan x="-8" dy="0em">100%</tspan></text></svg></g><g class="visx-group visx-axis-tick" transform="translate(0, 0)"><line class="visx-line" x1="0" y1="77.5" x2="-8" y2="77.5" fill="transparent" shape-rendering="crispEdges" stroke="#F2F0F9" stroke-width="1" stroke-linecap="square"></line><svg x="-30" y="0" font-size="11" style="overflow:visible"><text transform="" x="-8" y="77.5" fill="#1B2030" font-size="11" text-anchor="start"><tspan x="-8" dy="0em">200%</tspan></text></svg></g><g class="visx-group visx-axis-tick" transform="translate(0, 0)"><line class="visx-line" x1="0" y1="38.75" x2="-8" y2="38.75" fill="transparent" shape-rendering="crispEdges" stroke="#F2F0F9" stroke-width="1" stroke-linecap="square"></line><svg x="-30" y="0" font-size="11" style="overflow:visible"><text transform="" x="-8" y="38.75" fill="#1B2030" font-size="11" text-anchor="start"><tspan x="-8" dy="0em">300%</tspan></text></svg></g><g class="visx-group visx-axis-tick" transform="translate(0, 0)"><line class="visx-line" x1="0" y1="0" x2="-8" y2="0" fill="transparent" shape-rendering="crispEdges" stroke="#F2F0F9" stroke-width="1" stroke-linecap="square"></line><svg x="-30" y="0" font-size="11" style="overflow:visible"><text transform="" x="-8" y="0" fill="#1B2030" font-size="11" text-anchor="start"><tspan x="-8" dy="0em">400%</tspan></text></svg></g><line class="visx-line visx-axis-line" x1="0" y1="155.5" x2="0" y2="0.5" fill="transparent" shape-rendering="crispEdges" stroke="#F2F0F9" stroke-width="1"></line></g><rect class="visx-bar" width="1425" height="155" fill="transparent"></rect><line class="visx-line" x1="641.25" y1="58" x2="641.25" y2="155" fill="transparent" shape-rendering="crispEdges" stroke="#CDC8E1" stroke-width="1" pointer-events="none" stroke-dasharray="5"></line><svg x="0" y="0" font-size="11px" style="overflow:visible"><text transform="" x="641.25" y="50" font-size="11px" fill="#555069" stroke="#FFFFFF" stroke-width="1px" text-anchor="middle"><tspan x="641.25" dy="0.355em">Optimal utilization 45%</tspan></text></svg><svg x="0" y="0" font-size="11px" style="overflow:visible"><text transform="" x="641.25" y="50" font-size="11px" fill="#CDC8E1" text-anchor="middle"><tspan x="641.25" dy="0.355em">Optimal utilization 45%</tspan></text></svg></g></svg>