<?xml version="1.0"?><svg xmlns="http://www.w3.org/2000/svg" xmlns:xlink= "http://www.w3.org/1999/xlink" style="background: white;" width="1500" height="300"> <g style="color: black; font-size: 13px; font-family: sans-serif; transform: translate(18px, 25px);"><g><circle r="3" cx="-6" cy="-5" style="fill: #1AD4B3" /><text>Borrow APR, variable</text></g><g style="transform: translateX(150px);"><circle r="3" cx="-6" cy="-5" style="fill: #101423" /><text>Borrow APR, stable</text></g></g><g class="visx-group" transform="translate(45, 50)"><g class="visx-group visx-rows" transform="translate(0, 0)"><line class="visx-line" x1="0" y1="155" x2="1425" y2="155" fill="transparent" shape-rendering="crispEdges" stroke="#F2F0F9" stroke-width="1" pointer-events="none"></line><line class="visx-line" x1="0" y1="110.71428571428572" x2="1425" y2="110.71428571428572" fill="transparent" shape-rendering="crispEdges" stroke="#F2F0F9" stroke-width="1" pointer-events="none"></line><line class="visx-line" x1="0" y1="66.42857142857143" x2="1425" y2="66.42857142857143" fill="transparent" shape-rendering="crispEdges" stroke="#F2F0F9" stroke-width="1" pointer-events="none"></line><line class="visx-line" x1="0" y1="22.14285714285715" x2="1425" y2="22.14285714285715" fill="transparent" shape-rendering="crispEdges" stroke="#F2F0F9" stroke-width="1" pointer-events="none"></line></g><path class="visx-linepath" d="M0,154.99999999991144C2.375,154.98523809518642,4.75,154.9704761904614,7.125,154.95571428571427C9.5,154.94095238096713,11.875,154.9261904761905,14.25,154.9114285714286C16.625,154.89666666666668,19,154.88190476190476,21.375,154.86714285714285C23.75,154.85238095238094,26.125,154.83761904761906,28.5,154.82285714285715C30.875,154.80809523809523,33.25,154.79333333333335,35.625,154.77857142857144C38,154.76380952380953,40.375,154.74904761904764,42.75,154.73428571428573C45.125,154.71952380952382,47.50000000000001,154.7047619047619,49.87500000000001,154.69C52.25000000000001,154.6752380952381,54.625,154.6604761904762,57,154.6457142857143C59.375,154.63095238095238,61.75,154.6161904761905,64.125,154.60142857142858C66.5,154.58666666666667,68.875,154.57190476190476,71.25,154.55714285714285C73.625,154.54238095238094,76,154.52761904761905,78.375,154.51285714285714C80.75,154.49809523809523,83.125,154.48333333333335,85.5,154.46857142857144C87.875,154.45380952380953,90.25,154.43904761904764,92.625,154.42428571428573C95,154.40952380952382,97.37500000000001,154.3947619047619,99.75000000000001,154.38C102.12500000000001,154.36523809523808,104.5,154.3504761904762,106.875,154.3357142857143C109.25,154.32095238095238,111.625,154.3061904761905,114,154.29142857142858C116.375,154.27666666666667,118.75000000000001,154.26190476190476,121.12500000000001,154.24714285714285C123.50000000000001,154.23238095238094,125.875,154.21761904761905,128.25,154.20285714285714C130.625,154.18809523809523,133,154.17333333333335,135.375,154.15857142857143C137.75,154.14380952380952,140.125,154.12904761904764,142.5,154.11428571428573C144.875,154.09952380952382,147.25,154.0847619047619,149.625,154.07C152,154.05523809523808,154.375,154.0404761904762,156.75,154.0257142857143C159.125,154.01095238095238,161.5,153.9961904761905,163.875,153.98142857142858C166.25,153.96666666666667,168.625,153.95190476190476,171,153.93714285714285C173.375,153.92238095238093,175.75,153.90761904761905,178.125,153.89285714285714C180.5,153.87809523809523,182.875,153.86333333333334,185.25,153.84857142857143C187.625,153.83380952380952,190,153.81904761904764,192.375,153.80428571428573C194.75,153.7895238095238,197.12500000000003,153.7747619047619,199.50000000000003,153.76C201.875,153.74523809523808,204.25,153.7304761904762,206.62499999999997,153.71571428571428C208.99999999999997,153.70095238095237,211.375,153.6861904761905,213.75,153.67142857142858C216.125,153.65666666666667,218.5,153.64190476190475,220.875,153.62714285714284C223.25,153.61238095238093,225.625,153.59761904761905,228,153.58285714285714C230.375,153.56809523809522,232.75,153.55333333333334,235.125,153.53857142857143C237.5,153.52380952380952,239.87500000000003,153.50904761904764,242.25000000000003,153.49428571428572C244.625,153.4795238095238,247,153.4647619047619,249.37499999999997,153.45C251.74999999999997,153.43523809523808,254.125,153.4204761904762,256.5,153.40571428571428C258.875,153.39095238095237,261.25,153.3761904761905,263.625,153.36142857142858C266,153.34666666666666,268.375,153.33190476190475,270.75,153.31714285714284C273.125,153.30238095238093,275.5,153.28761904761905,277.875,153.27285714285713C280.25,153.25809523809522,282.625,153.24333333333334,285,153.22857142857143C287.375,153.21380952380952,289.75,153.19904761904763,292.125,153.18428571428572C294.5,153.1695238095238,296.875,153.1547619047619,299.25,153.14C301.625,153.12523809523807,304,153.1104761904762,306.375,153.09571428571428C308.75,153.08095238095237,311.125,153.06619047619049,313.5,153.05142857142857C315.875,153.03666666666666,318.25,153.02190476190475,320.625,153.00714285714284C323,152.99238095238093,325.375,152.97761904761904,327.75,152.96285714285713C330.125,152.94809523809522,332.5,152.93333333333334,334.875,152.91857142857143C337.25,152.9038095238095,339.625,152.88904761904763,342,152.87428571428572C344.375,152.8595238095238,346.75,152.8447619047619,349.125,152.82999999999998C351.5,152.81523809523807,353.875,152.80047619047622,356.25,152.7857142857143C358.625,152.7709523809524,361,152.75619047619048,363.375,152.74142857142857C365.75,152.72666666666666,368.125,152.71190476190475,370.5,152.69714285714284C372.875,152.68238095238092,375.25,152.66761904761907,377.625,152.65285714285716C380,152.63809523809525,382.375,152.62333333333333,384.75,152.60857142857142C387.125,152.5938095238095,389.50000000000006,152.57904761904763,391.87500000000006,152.56428571428572C394.25000000000006,152.5495238095238,396.62500000000006,152.53476190476192,399.00000000000006,152.52C401.375,152.5052380952381,403.75,152.49047619047622,406.12499999999994,152.4757142857143C408.49999999999994,152.4609523809524,410.87499999999994,152.44619047619048,413.24999999999994,152.43142857142857C415.62499999999994,152.41666666666666,418,152.40190476190477,420.375,152.38714285714286C422.75,152.37238095238095,425.125,152.35761904761907,427.5,152.34285714285716C429.875,152.32809523809524,432.25,152.31333333333333,434.625,152.29857142857142C437,152.2838095238095,439.375,152.26904761904763,441.75,152.25428571428571C444.125,152.2395238095238,446.5,152.22476190476192,448.875,152.21C451.25,152.1952380952381,453.625,152.1804761904762,456,152.1657142857143C458.375,152.1509523809524,460.75,152.13619047619048,463.125,152.12142857142857C465.5,152.10666666666665,467.875,152.09190476190477,470.25,152.07714285714286C472.625,152.06238095238095,475.00000000000006,152.04761904761907,477.37500000000006,152.03285714285715C479.75000000000006,152.01809523809524,482.12500000000006,152.00333333333333,484.50000000000006,151.98857142857142C486.875,151.9738095238095,489.25,151.95904761904762,491.62499999999994,151.9442857142857C493.99999999999994,151.9295238095238,496.37499999999994,151.9295238095238,498.74999999999994,151.9C501.12499999999994,151.8704761904762,503.5,151.21868131868135,505.875,150.878021978022C508.25,150.53736263736266,510.625,150.19670329670328,513,149.85604395604395C515.375,149.51538461538462,517.75,149.17472527472526,520.125,148.83406593406593C522.5,148.4934065934066,524.875,148.15274725274725,527.25,147.81208791208792C529.625,147.4714285714286,532,147.1307692307692,534.375,146.79010989010987C536.75,146.44945054945055,539.125,146.1087912087912,541.5,145.76813186813186C543.875,145.42747252747253,546.25,145.08681318681317,548.625,144.74615384615385C551,144.40549450549452,553.375,144.06483516483513,555.75,143.7241758241758C558.125,143.38351648351647,560.5,143.04285714285712,562.875,142.7021978021978C565.25,142.36153846153846,567.625,142.0208791208791,570,141.68021978021977C572.375,141.33956043956044,574.75,140.9989010989011,577.125,140.65824175824176C579.5,140.31758241758243,581.875,139.97692307692307,584.25,139.63626373626374C586.625,139.2956043956044,589,138.95494505494503,591.375,138.6142857142857C593.75,138.27362637362637,596.125,137.932967032967,598.5,137.59230769230768C600.875,137.25164835164836,603.25,136.910989010989,605.625,136.57032967032967C608,136.22967032967034,610.375,135.889010989011,612.75,135.54835164835166C615.125,135.2076923076923,617.5,134.86703296703297,619.875,134.5263736263736C622.25,134.18571428571425,624.625,133.84505494505493,627,133.5043956043956C629.375,133.16373626373627,631.75,132.8230769230769,634.125,132.48241758241758C636.5,132.14175824175825,638.875,131.8010989010989,641.25,131.46043956043957C643.625,131.11978021978024,646,130.77912087912088,648.375,130.43846153846155C650.75,130.09780219780222,653.125,129.75714285714287,655.5,129.41648351648354C657.875,129.0758241758242,660.25,128.73516483516485,662.625,128.3945054945055C665,128.05384615384614,667.375,127.71318681318681,669.75,127.37252747252747C672.125,127.03186813186812,674.5,126.6912087912088,676.875,126.35054945054945C679.25,126.00989010989011,681.625,125.66923076923078,684,125.32857142857144C686.375,124.9879120879121,688.75,124.64725274725274,691.125,124.3065934065934C693.5,123.96593406593405,695.875,123.62527472527472,698.25,123.28461538461538C700.625,122.94395604395604,703,122.6032967032967,705.375,122.26263736263736C707.75,121.92197802197802,710.125,121.58131868131869,712.5,121.24065934065935C714.875,120.9,717.25,120.55934065934066,719.625,120.21868131868132C722,119.87802197802198,724.375,119.53736263736265,726.75,119.1967032967033C729.125,118.85604395604396,731.5,118.51538461538462,733.875,118.17472527472528C736.25,117.83406593406593,738.625,117.49340659340659,741,117.15274725274725C743.375,116.8120879120879,745.75,116.47142857142858,748.125,116.13076923076923C750.5,115.79010989010989,752.875,115.44945054945055,755.25,115.1087912087912C757.625,114.76813186813186,760,114.42747252747252,762.375,114.08681318681317C764.75,113.74615384615383,767.125,113.40549450549449,769.5,113.06483516483516C771.875,112.72417582417582,774.2500000000001,112.38351648351649,776.6250000000001,112.04285714285714C779.0000000000001,111.70219780219782,781.3750000000001,111.36153846153847,783.7500000000001,111.02087912087913C786.1250000000001,110.68021978021979,788.5000000000001,110.33956043956044,790.8750000000001,109.9989010989011C793.2500000000001,109.65824175824176,795.6250000000001,109.31758241758243,798.0000000000001,108.97692307692309C800.375,108.63626373626376,802.75,108.29560439560439,805.1249999999999,107.95494505494506C807.4999999999999,107.61428571428571,809.8749999999999,107.27362637362639,812.2499999999999,106.93296703296704C814.6249999999999,106.5923076923077,816.9999999999999,106.25164835164836,819.3749999999999,105.91098901098901C821.7499999999999,105.57032967032967,824.1249999999999,105.22967032967033,826.4999999999999,104.88901098901098C828.8749999999999,104.54835164835164,831.25,104.20769230769231,833.625,103.86703296703297C836,103.52637362637363,838.375,103.18571428571428,840.75,102.84505494505494C843.125,102.5043956043956,845.5,102.16373626373627,847.875,101.82307692307693C850.25,101.48241758241758,852.625,101.14175824175825,855,100.80109890109891C857.375,100.46043956043957,859.75,100.11978021978021,862.125,99.77912087912087C864.5,99.43846153846152,866.875,99.0978021978022,869.25,98.75714285714285C871.625,98.41648351648351,874,98.0758241758242,876.375,97.73516483516485C878.75,97.39450549450551,881.125,97.05384615384617,883.5,96.71318681318682C885.875,96.37252747252748,888.25,96.03186813186812,890.625,95.69120879120878C893,95.35054945054944,895.375,95.00989010989011,897.75,94.66923076923077C900.125,94.32857142857142,902.5,93.9879120879121,904.875,93.64725274725275C907.25,93.30659340659341,909.625,92.96593406593406,912,92.62527472527472C914.375,92.28461538461538,916.75,91.94395604395605,919.125,91.6032967032967C921.5,91.26263736263736,923.875,90.92197802197803,926.25,90.58131868131869C928.625,90.24065934065935,931,89.89999999999999,933.375,89.55934065934065C935.75,89.2186813186813,938.125,88.87802197802196,940.5,88.53736263736262C942.875,88.19670329670328,945.25,87.85604395604395,947.625,87.51538461538462C950,87.17472527472528,952.3750000000001,86.83406593406595,954.7500000000001,86.4934065934066C957.1250000000001,86.15274725274726,959.5000000000001,85.8120879120879,961.8750000000001,85.47142857142856C964.2500000000001,85.13076923076922,966.6250000000001,84.79010989010989,969.0000000000001,84.44945054945055C971.3750000000001,84.1087912087912,973.7500000000001,83.76813186813187,976.1250000000001,83.42747252747253C978.5,83.0868131868132,980.875,82.74615384615383,983.2499999999999,82.4054945054945C985.6249999999999,82.06483516483516,987.9999999999999,81.72417582417583,990.3749999999999,81.38351648351649C992.7499999999999,81.04285714285714,995.1249999999999,80.7021978021978,997.4999999999999,80.36153846153846C999.8749999999999,80.02087912087912,1002.2499999999999,79.6802197802198,1004.6249999999999,79.33956043956046C1006.9999999999999,78.99890109890111,1009.375,78.65824175824176,1011.75,78.31758241758241C1014.125,77.97692307692307,1016.5,77.63626373626373,1018.875,77.29560439560439C1021.25,76.95494505494504,1023.625,76.61428571428571,1026,76.27362637362637C1028.375,75.93296703296703,1030.75,75.5923076923077,1033.125,75.25164835164836C1035.5,74.91098901098901,1037.875,74.57032967032967,1040.25,74.22967032967033C1042.625,73.88901098901098,1045,73.54835164835166,1047.375,73.20769230769231C1049.75,72.86703296703297,1052.125,72.52637362637364,1054.5,72.1857142857143C1056.875,71.84505494505495,1059.25,71.5043956043956,1061.625,71.16373626373625C1064,70.82307692307691,1066.375,70.48241758241758,1068.75,70.14175824175824C1071.125,69.8010989010989,1073.5,69.46043956043957,1075.875,69.11978021978022C1078.25,68.77912087912088,1080.625,68.43846153846154,1083,68.0978021978022C1085.375,67.75714285714285,1087.75,67.41648351648352,1090.125,67.07582417582418C1092.5,66.73516483516484,1094.875,66.39450549450551,1097.25,66.05384615384617C1099.625,65.71318681318682,1102,65.37252747252747,1104.375,65.03186813186812C1106.75,64.69120879120878,1109.125,64.35054945054945,1111.5,64.00989010989011C1113.875,63.66923076923077,1116.25,63.328571428571436,1118.625,62.98791208791209C1121,62.64725274725275,1123.375,62.3065934065934,1125.75,61.96593406593406C1128.125,61.625274725274714,1130.5,61.28461538461537,1132.875,60.943956043956035C1135.25,60.6032967032967,1137.625,60.26263736263738,1140,59.921978021978035C1142.375,59.58131868131869,1144.75,59.24065934065934,1147.125,58.9C1149.5,58.559340659340656,1151.875,58.21868131868133,1154.25,57.878021978021984C1156.625,57.53736263736264,1159,57.19670329670329,1161.375,56.85604395604395C1163.75,56.515384615384605,1166.125,56.17472527472526,1168.5,55.834065934065926C1170.875,55.49340659340659,1173.25,55.15274725274725,1175.625,54.81208791208791C1178,54.471428571428575,1180.375,54.13076923076923,1182.75,53.79010989010989C1185.125,53.449450549450546,1187.5,53.10879120879122,1189.875,52.768131868131874C1192.25,52.42747252747253,1194.625,52.086813186813195,1197,51.74615384615385C1199.375,51.40549450549451,1201.75,51.06483516483516,1204.125,50.724175824175816C1206.5,50.38351648351647,1208.875,50.042857142857144,1211.25,49.7021978021978C1213.625,49.36153846153846,1216,49.020879120879115,1218.375,48.68021978021978C1220.75,48.339560439560444,1223.125,47.9989010989011,1225.5,47.658241758241765C1227.875,47.31758241758243,1230.25,46.976923076923086,1232.625,46.63626373626374C1235,46.2956043956044,1237.375,45.954945054945036,1239.75,45.61428571428569C1242.125,45.27362637362635,1244.5,44.93296703296703,1246.875,44.59230769230769C1249.25,44.251648351648356,1251.625,43.91098901098901,1254,43.57032967032968C1256.375,43.22967032967034,1258.75,42.889010989011,1261.125,42.548351648351655C1263.5,42.20769230769231,1265.875,41.867032967032955,1268.25,41.52637362637362C1270.625,41.18571428571428,1273,40.84505494505496,1275.375,40.50439560439562C1277.75,40.163736263736276,1280.125,39.82307692307691,1282.5,39.48241758241757C1284.875,39.141758241758225,1287.25,38.80109890109888,1289.625,38.460439560439546C1292,38.11978021978021,1294.375,37.77912087912088,1296.75,37.438461538461546C1299.125,37.09780219780221,1301.5,36.75714285714285,1303.875,36.41648351648351C1306.25,36.07582417582417,1308.625,35.73516483516485,1311,35.39450549450551C1313.375,35.053846153846166,1315.75,34.7131868131868,1318.125,34.37252747252746C1320.5,34.031868131868116,1322.875,33.691208791208794,1325.25,33.35054945054946C1327.625,33.00989010989012,1330,32.669230769230765,1332.375,32.32857142857142C1334.75,31.98791208791208,1337.125,31.64725274725274,1339.5,31.306593406593404C1341.875,30.965934065934068,1344.25,30.625274725274743,1346.625,30.2846153846154C1349,29.943956043956057,1351.375,29.603296703296692,1353.75,29.26263736263735C1356.125,28.921978021978006,1358.5,28.581318681318688,1360.875,28.24065934065935C1363.25,27.90000000000001,1365.625,27.559340659340656,1368,27.218681318681313C1370.375,26.87802197802197,1372.75,26.53736263736263,1375.125,26.196703296703294C1377.5,25.85604395604396,1379.875,25.515384615384633,1382.25,25.174725274725294C1384.625,24.834065934065954,1387,24.493406593406604,1389.375,24.152747252747258C1391.75,23.81208791208791,1394.125,23.471428571428564,1396.5,23.13076923076922C1398.875,22.79010989010988,1401.25,22.44945054945054,1403.625,22.108791208791203C1406,21.768131868131867,1408.375,21.427472527472542,1410.75,21.086813186813202C1413.125,20.746153846153863,1415.5,20.40549450549451,1417.875,20.064835164835166C1420.25,19.724175824175823,1422.625,19.383516483516487,1425,19.042857142857148" fill="transparent" stroke-linecap="round" stroke="#1AD4B3" stroke-width="2"></path><g class="visx-group visx-axis visx-axis-bottom" transform="translate(0, 155)"><g class="visx-group visx-axis-tick" transform="translate(0, 0)"><line class="visx-line" x1="0" y1="0" x2="0" y2="8" fill="transparent" shape-rendering="crispEdges" stroke="#F2F0F9" stroke-width="1" stroke-linecap="square"></line><svg x="0" y="0" font-size="11" style="overflow:visible"><text transform="" x="0" y="19" fill="#1B2030" font-size="11" text-anchor="middle"><tspan x="0" dy="0em">0%</tspan></text></svg></g><g class="visx-group visx-axis-tick" transform="translate(0, 0)"><line class="visx-line" x1="356.25" y1="0" x2="356.25" y2="8" fill="transparent" shape-rendering="crispEdges" stroke="#F2F0F9" stroke-width="1" stroke-linecap="square"></line><svg x="0" y="0" font-size="11" style="overflow:visible"><text transform="" x="356.25" y="19" fill="#1B2030" font-size="11" text-anchor="middle"><tspan x="356.25" dy="0em">25%</tspan></text></svg></g><g class="visx-group visx-axis-tick" transform="translate(0, 0)"><line class="visx-line" x1="712.5" y1="0" x2="712.5" y2="8" fill="transparent" shape-rendering="crispEdges" stroke="#F2F0F9" stroke-width="1" stroke-linecap="square"></line><svg x="0" y="0" font-size="11" style="overflow:visible"><text transform="" x="712.5" y="19" fill="#1B2030" font-size="11" text-anchor="middle"><tspan x="712.5" dy="0em">50%</tspan></text></svg></g><g class="visx-group visx-axis-tick" transform="translate(0, 0)"><line class="visx-line" x1="1068.75" y1="0" x2="1068.75" y2="8" fill="transparent" shape-rendering="crispEdges" stroke="#F2F0F9" stroke-width="1" stroke-linecap="square"></line><svg x="0" y="0" font-size="11" style="overflow:visible"><text transform="" x="1068.75" y="19" fill="#1B2030" font-size="11" text-anchor="middle"><tspan x="1068.75" dy="0em">75%</tspan></text></svg></g><g class="visx-group visx-axis-tick" transform="translate(0, 0)"><line class="visx-line" x1="1425" y1="0" x2="1425" y2="8" fill="transparent" shape-rendering="crispEdges" stroke="#F2F0F9" stroke-width="1" stroke-linecap="square"></line><svg x="0" y="0" font-size="11" style="overflow:visible"><text transform="" x="1425" y="19" fill="#1B2030" font-size="11" text-anchor="middle"><tspan x="1425" dy="0em">100%</tspan></text></svg></g></g><g class="visx-group visx-axis visx-axis-left" transform="translate(0, 0)"><g class="visx-group visx-axis-tick" transform="translate(0, 0)"><line class="visx-line" x1="0" y1="155" x2="-8" y2="155" fill="transparent" shape-rendering="crispEdges" stroke="#F2F0F9" stroke-width="1" stroke-linecap="square"></line><svg x="-30" y="0" font-size="11" style="overflow:visible"><text transform="" x="-8" y="155" fill="#1B2030" font-size="11" text-anchor="start"><tspan x="-8" dy="0em">0%</tspan></text></svg></g><g class="visx-group visx-axis-tick" transform="translate(0, 0)"><line class="visx-line" x1="0" y1="110.71428571428572" x2="-8" y2="110.71428571428572" fill="transparent" shape-rendering="crispEdges" stroke="#F2F0F9" stroke-width="1" stroke-linecap="square"></line><svg x="-30" y="0" font-size="11" style="overflow:visible"><text transform="" x="-8" y="110.71428571428572" fill="#1B2030" font-size="11" text-anchor="start"><tspan x="-8" dy="0em">100%</tspan></text></svg></g><g class="visx-group visx-axis-tick" transform="translate(0, 0)"><line class="visx-line" x1="0" y1="66.42857142857143" x2="-8" y2="66.42857142857143" fill="transparent" shape-rendering="crispEdges" stroke="#F2F0F9" stroke-width="1" stroke-linecap="square"></line><svg x="-30" y="0" font-size="11" style="overflow:visible"><text transform="" x="-8" y="66.42857142857143" fill="#1B2030" font-size="11" text-anchor="start"><tspan x="-8" dy="0em">200%</tspan></text></svg></g><g class="visx-group visx-axis-tick" transform="translate(0, 0)"><line class="visx-line" x1="0" y1="22.14285714285715" x2="-8" y2="22.14285714285715" fill="transparent" shape-rendering="crispEdges" stroke="#F2F0F9" stroke-width="1" stroke-linecap="square"></line><svg x="-30" y="0" font-size="11" style="overflow:visible"><text transform="" x="-8" y="22.14285714285715" fill="#1B2030" font-size="11" text-anchor="start"><tspan x="-8" dy="0em">300%</tspan></text></svg></g><line class="visx-line visx-axis-line" x1="0" y1="155.5" x2="0" y2="0.5" fill="transparent" shape-rendering="crispEdges" stroke="#F2F0F9" stroke-width="1"></line></g><rect class="visx-bar" width="1425" height="155" fill="transparent"></rect><line class="visx-line" x1="498.74999999999994" y1="58" x2="498.74999999999994" y2="155" fill="transparent" shape-rendering="crispEdges" stroke="#CDC8E1" stroke-width="1" pointer-events="none" stroke-dasharray="5"></line><svg x="0" y="0" font-size="11px" style="overflow:visible"><text transform="" x="498.74999999999994" y="50" font-size="11px" fill="#555069" stroke="#FFFFFF" stroke-width="1px" text-anchor="middle"><tspan x="498.74999999999994" dy="0.355em">Optimal utilization 35%</tspan></text></svg><svg x="0" y="0" font-size="11px" style="overflow:visible"><text transform="" x="498.74999999999994" y="50" font-size="11px" fill="#CDC8E1" text-anchor="middle"><tspan x="498.74999999999994" dy="0.355em">Optimal utilization 35%</tspan></text></svg></g></svg>