<?xml version="1.0"?><svg xmlns="http://www.w3.org/2000/svg" xmlns:xlink= "http://www.w3.org/1999/xlink" style="background: white;" width="1500" height="185"> <g style="color: black; font-size: 13px; font-family: sans-serif; transform: translate(18px, 25px);"><g><circle r="3" cx="-6" cy="-5" style="fill: #B6509E" /><text>Borrow APR, variable</text></g><g style="transform: translateX(150px);"><circle r="3" cx="-6" cy="-5" style="fill: rgb(231, 198, 223)" /><text>Borrow APR, stable</text></g><g style="transform: translateX(290px);"><circle r="3" cx="-6" cy="-5" style="fill: rgb(0, 98, 210)" /><text>Utilization Rate</text></g></g><g class="visx-group" transform="translate(40, 50)"><g class="visx-group visx-rows" transform="translate(0, 0)"><line class="visx-line" x1="0" y1="115" x2="1450" y2="115" fill="transparent" shape-rendering="crispEdges" stroke="#000" stroke-width="1" stroke-dasharray="3,3" pointer-events="none"></line><line class="visx-line" x1="0" y1="67.08333333333333" x2="1450" y2="67.08333333333333" fill="transparent" shape-rendering="crispEdges" stroke="#000" stroke-width="1" stroke-dasharray="3,3" pointer-events="none"></line><line class="visx-line" x1="0" y1="19.16666666666666" x2="1450" y2="19.16666666666666" fill="transparent" shape-rendering="crispEdges" stroke="#000" stroke-width="1" stroke-dasharray="3,3" pointer-events="none"></line></g><path class="visx-linepath" d="M0,114.99999999993611C2.4166666666666665,114.98935185181458,4.833333333333334,114.97870370369304,7.25,114.96805555555555C9.666666666666666,114.95740740741806,12.083333333333334,114.94675925925927,14.5,114.93611111111112C16.916666666666668,114.92546296296297,19.333333333333332,114.91481481481482,21.75,114.90416666666667C24.166666666666668,114.89351851851852,26.583333333333332,114.88287037037038,29,114.87222222222223C31.416666666666668,114.86157407407408,33.833333333333336,114.85092592592592,36.25,114.84027777777777C38.666666666666664,114.82962962962962,41.083333333333336,114.81898148148147,43.5,114.80833333333332C45.91666666666667,114.79768518518517,48.333333333333336,114.78703703703704,50.75000000000001,114.77638888888889C53.16666666666667,114.76574074074074,55.583333333333336,114.75509259259259,58,114.74444444444444C60.416666666666664,114.73379629629629,62.833333333333336,114.72314814814816,65.25,114.7125C67.66666666666667,114.70185185185186,70.08333333333333,114.6912037037037,72.5,114.68055555555556C74.91666666666667,114.66990740740741,77.33333333333333,114.65925925925926,79.75,114.64861111111111C82.16666666666667,114.63796296296296,84.58333333333333,114.62731481481482,87,114.61666666666667C89.41666666666667,114.60601851851852,91.83333333333333,114.59537037037038,94.25,114.58472222222223C96.66666666666667,114.57407407407408,99.08333333333334,114.56342592592593,101.50000000000001,114.55277777777778C103.91666666666667,114.54212962962963,106.33333333333334,114.53148148148148,108.75,114.52083333333333C111.16666666666667,114.51018518518518,113.58333333333333,114.49953703703703,116,114.48888888888888C118.41666666666667,114.47824074074073,120.83333333333334,114.4675925925926,123.25000000000001,114.45694444444445C125.66666666666667,114.4462962962963,128.08333333333334,114.43564814814815,130.5,114.425C132.91666666666666,114.41435185185185,135.33333333333334,114.4037037037037,137.75,114.39305555555555C140.16666666666666,114.3824074074074,142.58333333333334,114.37175925925926,145,114.36111111111111C147.41666666666666,114.35046296296296,149.83333333333334,114.33981481481482,152.25,114.32916666666667C154.66666666666666,114.31851851851852,157.08333333333334,114.30787037037038,159.5,114.29722222222223C161.91666666666666,114.28657407407408,164.33333333333334,114.27592592592593,166.75,114.26527777777778C169.16666666666666,114.25462962962963,171.58333333333334,114.24398148148148,174,114.23333333333333C176.41666666666666,114.22268518518518,178.83333333333334,114.21203703703704,181.25,114.20138888888889C183.66666666666666,114.19074074074074,186.08333333333334,114.18009259259259,188.5,114.16944444444444C190.91666666666666,114.15879629629629,193.33333333333334,114.14814814814815,195.75,114.1375C198.16666666666669,114.12685185185185,200.58333333333334,114.1162037037037,203.00000000000003,114.10555555555555C205.41666666666669,114.0949074074074,207.83333333333331,114.08425925925926,210.24999999999997,114.0736111111111C212.66666666666666,114.06296296296296,215.08333333333331,114.05231481481482,217.5,114.04166666666667C219.91666666666666,114.03101851851852,222.33333333333334,114.02037037037037,224.75,114.00972222222222C227.16666666666666,113.99907407407407,229.58333333333334,113.98842592592594,232,113.97777777777779C234.41666666666666,113.96712962962964,236.83333333333334,113.95648148148149,239.25,113.94583333333334C241.66666666666669,113.93518518518519,244.08333333333334,113.92453703703704,246.50000000000003,113.91388888888889C248.91666666666669,113.90324074074074,251.33333333333331,113.89259259259259,253.74999999999997,113.88194444444444C256.16666666666663,113.8712962962963,258.5833333333333,113.86064814814814,261,113.85C263.4166666666667,113.83935185185184,265.8333333333333,113.8287037037037,268.25,113.81805555555555C270.6666666666667,113.8074074074074,273.0833333333333,113.79675925925926,275.5,113.78611111111111C277.9166666666667,113.77546296296296,280.3333333333333,113.76481481481481,282.75,113.75416666666666C285.1666666666667,113.74351851851851,287.5833333333333,113.73287037037038,290,113.72222222222223C292.4166666666667,113.71157407407408,294.8333333333333,113.70092592592593,297.25,113.69027777777778C299.6666666666667,113.67962962962963,302.0833333333333,113.66898148148148,304.5,113.65833333333333C306.9166666666667,113.64768518518518,309.3333333333333,113.63703703703705,311.75,113.6263888888889C314.1666666666667,113.61574074074075,316.5833333333333,113.6050925925926,319,113.59444444444445C321.4166666666667,113.5837962962963,323.8333333333333,113.57314814814815,326.25,113.5625C328.6666666666667,113.55185185185185,331.0833333333333,113.5412037037037,333.5,113.53055555555555C335.9166666666667,113.5199074074074,338.3333333333333,113.50925925925925,340.75,113.4986111111111C343.1666666666667,113.48796296296295,345.5833333333333,113.47731481481482,348,113.46666666666667C350.4166666666667,113.45601851851852,352.8333333333333,113.44537037037037,355.25,113.43472222222222C357.6666666666667,113.42407407407407,360.0833333333333,113.41342592592594,362.5,113.40277777777779C364.9166666666667,113.39212962962964,367.3333333333333,113.38148148148149,369.75,113.37083333333334C372.1666666666667,113.36018518518519,374.5833333333333,113.34953703703704,377,113.33888888888889C379.4166666666667,113.32824074074074,381.8333333333333,113.3175925925926,384.25,113.30694444444445C386.6666666666667,113.2962962962963,389.0833333333333,113.28564814814814,391.5,113.27499999999999C393.9166666666667,113.26435185185184,396.33333333333337,113.2537037037037,398.75000000000006,113.24305555555556C401.16666666666674,113.23240740740741,403.58333333333337,113.22175925925926,406.00000000000006,113.21111111111111C408.4166666666667,113.20046296296296,410.8333333333333,113.18981481481481,413.24999999999994,113.17916666666666C415.66666666666663,113.16851851851851,418.08333333333326,113.15787037037038,420.49999999999994,113.14722222222223C422.91666666666663,113.13657407407408,425.3333333333333,113.12592592592593,427.75,113.11527777777778C430.1666666666667,113.10462962962963,432.5833333333333,113.09398148148148,435,113.08333333333333C437.4166666666667,113.07268518518518,439.8333333333333,113.06203703703704,442.25,113.0513888888889C444.6666666666667,113.04074074074074,447.0833333333333,113.0300925925926,449.5,113.01944444444445C451.9166666666667,113.0087962962963,454.3333333333333,112.99814814814816,456.75,112.98750000000001C459.1666666666667,112.97685185185186,461.5833333333333,112.9662037037037,464,112.95555555555555C466.4166666666667,112.9449074074074,468.8333333333333,112.93425925925925,471.25,112.9236111111111C473.6666666666667,112.91296296296295,476.0833333333333,112.90231481481482,478.5,112.89166666666667C480.9166666666667,112.88101851851852,483.33333333333337,112.87037037037037,485.75000000000006,112.85972222222222C488.16666666666674,112.84907407407407,490.58333333333337,112.83842592592593,493.00000000000006,112.82777777777778C495.4166666666667,112.81712962962963,497.8333333333333,112.80648148148148,500.24999999999994,112.79583333333333C502.66666666666663,112.78518518518518,505.08333333333326,112.77453703703704,507.49999999999994,112.76388888888889C509.91666666666663,112.75324074074074,512.3333333333333,112.7425925925926,514.75,112.73194444444445C517.1666666666666,112.7212962962963,519.5833333333334,112.71064814814815,522,112.7C524.4166666666666,112.68935185185185,526.8333333333334,112.6787037037037,529.25,112.66805555555555C531.6666666666666,112.6574074074074,534.0833333333334,112.64675925925926,536.5,112.6361111111111C538.9166666666666,112.62546296296296,541.3333333333334,112.6148148148148,543.75,112.60416666666666C546.1666666666666,112.59351851851851,548.5833333333334,112.58287037037037,551,112.57222222222222C553.4166666666666,112.56157407407407,555.8333333333334,112.55092592592592,558.25,112.54027777777777C560.6666666666666,112.52962962962962,563.0833333333334,112.51898148148148,565.5,112.50833333333333C567.9166666666666,112.49768518518518,570.3333333333334,112.48703703703704,572.75,112.47638888888889C575.1666666666666,112.46574074074074,577.5833333333334,112.45509259259259,580,112.44444444444444C582.4166666666666,112.4337962962963,584.8333333333334,112.42314814814816,587.25,112.41250000000001C589.6666666666666,112.40185185185186,592.0833333333334,112.39120370370371,594.5,112.38055555555556C596.9166666666666,112.36990740740741,599.3333333333334,112.35925925925926,601.75,112.34861111111111C604.1666666666666,112.33796296296296,606.5833333333334,112.32731481481481,609,112.31666666666666C611.4166666666666,112.30601851851851,613.8333333333334,112.29537037037036,616.25,112.28472222222221C618.6666666666666,112.27407407407406,621.0833333333334,112.26342592592593,623.5,112.25277777777778C625.9166666666666,112.24212962962963,628.3333333333334,112.23148148148148,630.75,112.22083333333333C633.1666666666666,112.21018518518518,635.5833333333334,112.19953703703703,638,112.18888888888888C640.4166666666666,112.17824074074073,642.8333333333334,112.1675925925926,645.25,112.15694444444445C647.6666666666666,112.1462962962963,650.0833333333334,112.13564814814815,652.5,112.125C654.9166666666666,112.11435185185185,657.3333333333334,112.10370370370372,659.75,112.09305555555557C662.1666666666666,112.08240740740742,664.5833333333334,112.07175925925927,667,112.06111111111112C669.4166666666666,112.05046296296297,671.8333333333334,112.03981481481482,674.25,112.02916666666667C676.6666666666666,112.01851851851852,679.0833333333334,112.00787037037037,681.5,111.99722222222222C683.9166666666666,111.98657407407407,686.3333333333334,111.97592592592592,688.75,111.96527777777777C691.1666666666666,111.95462962962962,693.5833333333334,111.94398148148149,696,111.93333333333334C698.4166666666666,111.92268518518519,700.8333333333334,111.91203703703704,703.25,111.90138888888889C705.6666666666666,111.89074074074074,708.0833333333334,111.88009259259259,710.5,111.86944444444444C712.9166666666666,111.85879629629629,715.3333333333334,111.84814814814816,717.75,111.8375C720.1666666666666,111.82685185185186,722.5833333333334,111.8162037037037,725,111.80555555555556C727.4166666666666,111.79490740740741,729.8333333333334,111.78425925925927,732.25,111.77361111111112C734.6666666666666,111.76296296296297,737.0833333333334,111.75231481481482,739.5,111.74166666666667C741.9166666666666,111.73101851851852,744.3333333333334,111.72037037037036,746.75,111.70972222222221C749.1666666666666,111.69907407407406,751.5833333333334,111.68842592592593,754,111.67777777777778C756.4166666666666,111.66712962962963,758.8333333333334,111.65648148148148,761.25,111.64583333333333C763.6666666666666,111.63518518518518,766.0833333333334,111.62453703703703,768.5,111.61388888888888C770.9166666666666,111.60324074074073,773.3333333333334,111.5925925925926,775.75,111.58194444444445C778.1666666666666,111.5712962962963,780.5833333333334,111.56064814814815,783,111.55C785.4166666666667,111.53935185185185,787.8333333333334,111.52870370370371,790.2500000000001,111.51805555555556C792.6666666666667,111.50740740740741,795.0833333333335,111.49675925925926,797.5000000000001,111.48611111111111C799.9166666666667,111.47546296296296,802.3333333333335,111.46481481481482,804.7500000000001,111.45416666666667C807.1666666666667,111.44351851851852,809.5833333333335,111.43287037037038,812.0000000000001,111.42222222222223C814.4166666666667,111.41157407407408,816.8333333333333,111.40092592592592,819.2499999999999,111.39027777777777C821.6666666666665,111.37962962962962,824.0833333333333,111.36898148148148,826.4999999999999,111.35833333333333C828.9166666666665,111.34768518518518,831.3333333333333,111.33703703703704,833.7499999999999,111.32638888888889C836.1666666666665,111.31574074074074,838.5833333333333,111.30509259259259,840.9999999999999,111.29444444444444C843.4166666666666,111.28379629629629,845.8333333333333,111.27314814814815,848.25,111.2625C850.6666666666666,111.25185185185185,853.0833333333334,111.2412037037037,855.5,111.23055555555555C857.9166666666666,111.2199074074074,860.3333333333334,111.20925925925927,862.75,111.19861111111112C865.1666666666666,111.18796296296297,867.5833333333334,111.18796296296297,870,111.16666666666667C872.4166666666666,111.14537037037037,874.8333333333334,110.36805555555556,877.25,109.96875C879.6666666666666,109.56944444444444,882.0833333333334,109.17013888888889,884.5,108.77083333333333C886.9166666666666,108.37152777777777,889.3333333333334,107.97222222222223,891.75,107.57291666666667C894.1666666666666,107.17361111111111,896.5833333333334,106.77430555555556,899,106.375C901.4166666666666,105.97569444444444,903.8333333333334,105.57638888888889,906.25,105.17708333333333C908.6666666666666,104.77777777777777,911.0833333333334,104.37847222222223,913.5,103.97916666666667C915.9166666666666,103.57986111111111,918.3333333333334,103.18055555555556,920.75,102.78125C923.1666666666666,102.38194444444444,925.5833333333334,101.98263888888889,928,101.58333333333333C930.4166666666666,101.18402777777777,932.8333333333334,100.78472222222223,935.25,100.38541666666667C937.6666666666666,99.98611111111111,940.0833333333334,99.58680555555556,942.5,99.1875C944.9166666666666,98.78819444444444,947.3333333333334,98.38888888888889,949.75,97.98958333333333C952.1666666666666,97.59027777777777,954.5833333333334,97.19097222222223,957,96.79166666666667C959.4166666666666,96.39236111111111,961.8333333333334,95.99305555555556,964.25,95.59375C966.6666666666667,95.19444444444444,969.0833333333334,94.79513888888889,971.5000000000001,94.39583333333333C973.9166666666667,93.99652777777777,976.3333333333335,93.59722222222223,978.7500000000001,93.19791666666667C981.1666666666667,92.79861111111111,983.5833333333335,92.39930555555556,986.0000000000001,92C988.4166666666667,91.60069444444444,990.8333333333335,91.20138888888889,993.2500000000001,90.80208333333333C995.6666666666667,90.40277777777779,998.0833333333333,90.00347222222223,1000.4999999999999,89.60416666666667C1002.9166666666665,89.20486111111111,1005.3333333333333,88.80555555555554,1007.7499999999999,88.40624999999999C1010.1666666666665,88.00694444444443,1012.5833333333333,87.60763888888889,1014.9999999999999,87.20833333333333C1017.4166666666665,86.80902777777777,1019.8333333333333,86.40972222222223,1022.2499999999999,86.01041666666667C1024.6666666666665,85.61111111111111,1027.0833333333333,85.21180555555556,1029.5,84.8125C1031.9166666666667,84.41319444444444,1034.3333333333333,84.01388888888889,1036.75,83.61458333333333C1039.1666666666667,83.21527777777777,1041.5833333333333,82.81597222222223,1044,82.41666666666667C1046.4166666666667,82.01736111111111,1048.8333333333333,81.61805555555556,1051.25,81.21875C1053.6666666666667,80.81944444444444,1056.0833333333333,80.42013888888889,1058.5,80.02083333333333C1060.9166666666667,79.62152777777777,1063.3333333333333,79.22222222222223,1065.75,78.82291666666667C1068.1666666666667,78.42361111111111,1070.5833333333333,78.02430555555556,1073,77.625C1075.4166666666667,77.22569444444444,1077.8333333333333,76.82638888888889,1080.25,76.42708333333333C1082.6666666666667,76.02777777777777,1085.0833333333333,75.62847222222223,1087.5,75.22916666666667C1089.9166666666667,74.82986111111111,1092.3333333333333,74.43055555555556,1094.75,74.03125C1097.1666666666667,73.63194444444444,1099.5833333333333,73.23263888888889,1102,72.83333333333333C1104.4166666666667,72.43402777777777,1106.8333333333333,72.03472222222223,1109.25,71.63541666666667C1111.6666666666667,71.23611111111111,1114.0833333333333,70.83680555555556,1116.5,70.4375C1118.9166666666667,70.03819444444444,1121.3333333333333,69.63888888888889,1123.75,69.23958333333333C1126.1666666666667,68.84027777777777,1128.5833333333333,68.44097222222223,1131,68.04166666666667C1133.4166666666667,67.64236111111111,1135.8333333333333,67.24305555555556,1138.25,66.84375C1140.6666666666667,66.44444444444444,1143.0833333333333,66.04513888888889,1145.5,65.64583333333333C1147.9166666666667,65.24652777777777,1150.3333333333333,64.84722222222223,1152.75,64.44791666666667C1155.1666666666667,64.04861111111111,1157.5833333333333,63.649305555555564,1160,63.25000000000001C1162.4166666666667,62.85069444444445,1164.8333333333333,62.451388888888886,1167.25,62.05208333333333C1169.6666666666667,61.65277777777777,1172.0833333333333,61.25347222222223,1174.5,60.85416666666668C1176.9166666666667,60.45486111111113,1179.3333333333333,60.055555555555564,1181.75,59.65625000000001C1184.1666666666667,59.25694444444445,1186.5833333333333,58.857638888888886,1189,58.45833333333333C1191.4166666666667,58.05902777777777,1193.8333333333333,57.659722222222214,1196.25,57.260416666666664C1198.6666666666667,56.861111111111114,1201.0833333333333,56.46180555555556,1203.5,56.06250000000001C1205.9166666666667,55.66319444444446,1208.3333333333333,55.2638888888889,1210.75,54.86458333333334C1213.1666666666667,54.465277777777786,1215.5833333333333,54.06597222222222,1218,53.666666666666664C1220.4166666666667,53.26736111111111,1222.8333333333333,52.868055555555564,1225.25,52.46875000000001C1227.6666666666667,52.06944444444445,1230.0833333333333,51.670138888888886,1232.5,51.27083333333333C1234.9166666666667,50.87152777777777,1237.3333333333333,50.472222222222214,1239.75,50.072916666666664C1242.1666666666667,49.673611111111114,1244.5833333333333,49.274305555555564,1247,48.87500000000001C1249.4166666666667,48.47569444444445,1251.8333333333333,48.076388888888886,1254.25,47.67708333333333C1256.6666666666667,47.27777777777777,1259.0833333333333,46.878472222222214,1261.5,46.479166666666664C1263.9166666666667,46.079861111111114,1266.3333333333333,45.680555555555564,1268.75,45.28125000000001C1271.1666666666667,44.88194444444445,1273.5833333333333,44.482638888888886,1276,44.08333333333333C1278.4166666666667,43.68402777777777,1280.8333333333333,43.284722222222214,1283.25,42.885416666666664C1285.6666666666667,42.486111111111114,1288.0833333333333,42.086805555555564,1290.5,41.68750000000001C1292.9166666666667,41.28819444444445,1295.3333333333333,40.888888888888886,1297.75,40.48958333333333C1300.1666666666667,40.09027777777777,1302.5833333333333,39.690972222222214,1305,39.291666666666664C1307.4166666666667,38.892361111111114,1309.8333333333333,38.493055555555564,1312.25,38.09375000000001C1314.6666666666667,37.69444444444445,1317.0833333333333,37.295138888888886,1319.5,36.89583333333333C1321.9166666666667,36.49652777777777,1324.3333333333333,36.097222222222214,1326.75,35.697916666666664C1329.1666666666667,35.298611111111114,1331.5833333333333,34.899305555555564,1334,34.50000000000001C1336.4166666666667,34.10069444444445,1338.8333333333333,33.701388888888886,1341.25,33.30208333333333C1343.6666666666667,32.90277777777777,1346.0833333333333,32.50347222222222,1348.5,32.104166666666664C1350.9166666666667,31.70486111111111,1353.3333333333333,31.30555555555556,1355.75,30.906250000000004C1358.1666666666667,30.506944444444446,1360.5833333333333,30.107638888888886,1363,29.70833333333333C1365.4166666666667,29.30902777777777,1367.8333333333333,28.90972222222222,1370.25,28.510416666666668C1372.6666666666667,28.111111111111114,1375.0833333333333,27.71180555555556,1377.5,27.312500000000004C1379.9166666666667,26.913194444444446,1382.3333333333333,26.513888888888886,1384.75,26.11458333333333C1387.1666666666667,25.71527777777777,1389.5833333333333,25.31597222222222,1392,24.916666666666668C1394.4166666666667,24.517361111111114,1396.8333333333333,24.11805555555556,1399.25,23.718750000000004C1401.6666666666667,23.319444444444446,1404.0833333333333,22.920138888888886,1406.5,22.52083333333333C1408.9166666666667,22.12152777777777,1411.3333333333333,21.72222222222222,1413.75,21.322916666666668C1416.1666666666667,20.923611111111114,1418.5833333333333,20.52430555555556,1421,20.125000000000004C1423.4166666666667,19.725694444444446,1425.8333333333333,19.326388888888882,1428.25,18.92708333333333C1430.6666666666667,18.527777777777775,1433.0833333333333,18.128472222222236,1435.5,17.72916666666668C1437.9166666666667,17.32986111111112,1440.3333333333333,16.93055555555555,1442.75,16.531249999999993C1445.1666666666667,16.131944444444436,1447.5833333333333,15.732638888888882,1450,15.33333333333333" fill="transparent" stroke-linecap="round" stroke="#B6509E" stroke-width="2"></path><path class="visx-linepath" d="M0,110.20833333333334C2.4166666666666665,110.20833333333334,4.833333333333334,110.20833333333334,7.25,110.20833333333334C9.666666666666666,110.20833333333334,12.083333333333334,110.20833333333334,14.5,110.20833333333334C16.916666666666668,110.20833333333334,19.333333333333332,110.20833333333334,21.75,110.20833333333334C24.166666666666668,110.20833333333334,26.583333333333332,110.20833333333334,29,110.20833333333334C31.416666666666668,110.20833333333334,33.833333333333336,110.20833333333334,36.25,110.20833333333334C38.666666666666664,110.20833333333334,41.083333333333336,110.20833333333334,43.5,110.20833333333334C45.91666666666667,110.20833333333334,48.333333333333336,110.20833333333334,50.75000000000001,110.20833333333334C53.16666666666667,110.20833333333334,55.583333333333336,110.20833333333334,58,110.20833333333334C60.416666666666664,110.20833333333334,62.833333333333336,110.20833333333334,65.25,110.20833333333334C67.66666666666667,110.20833333333334,70.08333333333333,110.20833333333334,72.5,110.20833333333334C74.91666666666667,110.20833333333334,77.33333333333333,110.20833333333334,79.75,110.20833333333334C82.16666666666667,110.20833333333334,84.58333333333333,110.20833333333334,87,110.20833333333334C89.41666666666667,110.20833333333334,91.83333333333333,110.20833333333334,94.25,110.20833333333334C96.66666666666667,110.20833333333334,99.08333333333334,110.20833333333334,101.50000000000001,110.20833333333334C103.91666666666667,110.20833333333334,106.33333333333334,110.20833333333334,108.75,110.20833333333334C111.16666666666667,110.20833333333334,113.58333333333333,110.20833333333334,116,110.20833333333334C118.41666666666667,110.20833333333334,120.83333333333334,110.20833333333334,123.25000000000001,110.20833333333334C125.66666666666667,110.20833333333334,128.08333333333334,110.20833333333334,130.5,110.20833333333334C132.91666666666666,110.20833333333334,135.33333333333334,110.20833333333334,137.75,110.20833333333334C140.16666666666666,110.20833333333334,142.58333333333334,110.20833333333334,145,110.20833333333334C147.41666666666666,110.20833333333334,149.83333333333334,110.20833333333334,152.25,110.20833333333334C154.66666666666666,110.20833333333334,157.08333333333334,110.20833333333334,159.5,110.20833333333334C161.91666666666666,110.20833333333334,164.33333333333334,110.20833333333334,166.75,110.20833333333334C169.16666666666666,110.20833333333334,171.58333333333334,110.20833333333334,174,110.20833333333334C176.41666666666666,110.20833333333334,178.83333333333334,110.20833333333334,181.25,110.20833333333334C183.66666666666666,110.20833333333334,186.08333333333334,110.20833333333334,188.5,110.20833333333334C190.91666666666666,110.20833333333334,193.33333333333334,110.20833333333334,195.75,110.20833333333334C198.16666666666669,110.20833333333334,200.58333333333334,110.20833333333334,203.00000000000003,110.20833333333334C205.41666666666669,110.20833333333334,207.83333333333331,110.20833333333334,210.24999999999997,110.20833333333334C212.66666666666666,110.20833333333334,215.08333333333331,110.20833333333334,217.5,110.20833333333334C219.91666666666666,110.20833333333334,222.33333333333334,110.20833333333334,224.75,110.20833333333334C227.16666666666666,110.20833333333334,229.58333333333334,110.20833333333334,232,110.20833333333334C234.41666666666666,110.20833333333334,236.83333333333334,110.20833333333334,239.25,110.20833333333334C241.66666666666669,110.20833333333334,244.08333333333334,110.20833333333334,246.50000000000003,110.20833333333334C248.91666666666669,110.20833333333334,251.33333333333331,110.20833333333334,253.74999999999997,110.20833333333334C256.16666666666663,110.20833333333334,258.5833333333333,110.20833333333334,261,110.20833333333334C263.4166666666667,110.20833333333334,265.8333333333333,110.20833333333334,268.25,110.20833333333334C270.6666666666667,110.20833333333334,273.0833333333333,110.20833333333334,275.5,110.20833333333334C277.9166666666667,110.20833333333334,280.3333333333333,110.20833333333334,282.75,110.20833333333334C285.1666666666667,110.20833333333334,287.5833333333333,110.20833333333334,290,110.20833333333334C292.4166666666667,110.20833333333334,294.8333333333333,110.20833333333334,297.25,110.20833333333334C299.6666666666667,110.20833333333334,302.0833333333333,110.20833333333334,304.5,110.20833333333334C306.9166666666667,110.20833333333334,309.3333333333333,110.20833333333334,311.75,110.20833333333334C314.1666666666667,110.20833333333334,316.5833333333333,110.20833333333334,319,110.20833333333334C321.4166666666667,110.20833333333334,323.8333333333333,110.20833333333334,326.25,110.20833333333334C328.6666666666667,110.20833333333334,331.0833333333333,110.20833333333334,333.5,110.20833333333334C335.9166666666667,110.20833333333334,338.3333333333333,110.20833333333334,340.75,110.20833333333334C343.1666666666667,110.20833333333334,345.5833333333333,110.20833333333334,348,110.20833333333334C350.4166666666667,110.20833333333334,352.8333333333333,110.20833333333334,355.25,110.20833333333334C357.6666666666667,110.20833333333334,360.0833333333333,110.20833333333334,362.5,110.20833333333334C364.9166666666667,110.20833333333334,367.3333333333333,110.20833333333334,369.75,110.20833333333334C372.1666666666667,110.20833333333334,374.5833333333333,110.20833333333334,377,110.20833333333334C379.4166666666667,110.20833333333334,381.8333333333333,110.20833333333334,384.25,110.20833333333334C386.6666666666667,110.20833333333334,389.0833333333333,110.20833333333334,391.5,110.20833333333334C393.9166666666667,110.20833333333334,396.33333333333337,110.20833333333334,398.75000000000006,110.20833333333334C401.16666666666674,110.20833333333334,403.58333333333337,110.20833333333334,406.00000000000006,110.20833333333334C408.4166666666667,110.20833333333334,410.8333333333333,110.20833333333334,413.24999999999994,110.20833333333334C415.66666666666663,110.20833333333334,418.08333333333326,110.20833333333334,420.49999999999994,110.20833333333334C422.91666666666663,110.20833333333334,425.3333333333333,110.20833333333334,427.75,110.20833333333334C430.1666666666667,110.20833333333334,432.5833333333333,110.20833333333334,435,110.20833333333334C437.4166666666667,110.20833333333334,439.8333333333333,110.20833333333334,442.25,110.20833333333334C444.6666666666667,110.20833333333334,447.0833333333333,110.20833333333334,449.5,110.20833333333334C451.9166666666667,110.20833333333334,454.3333333333333,110.20833333333334,456.75,110.20833333333334C459.1666666666667,110.20833333333334,461.5833333333333,110.20833333333334,464,110.20833333333334C466.4166666666667,110.20833333333334,468.8333333333333,110.20833333333334,471.25,110.20833333333334C473.6666666666667,110.20833333333334,476.0833333333333,110.20833333333334,478.5,110.20833333333334C480.9166666666667,110.20833333333334,483.33333333333337,110.20833333333334,485.75000000000006,110.20833333333334C488.16666666666674,110.20833333333334,490.58333333333337,110.20833333333334,493.00000000000006,110.20833333333334C495.4166666666667,110.20833333333334,497.8333333333333,110.20833333333334,500.24999999999994,110.20833333333334C502.66666666666663,110.20833333333334,505.08333333333326,110.20833333333334,507.49999999999994,110.20833333333334C509.91666666666663,110.20833333333334,512.3333333333333,110.20833333333334,514.75,110.20833333333334C517.1666666666666,110.20833333333334,519.5833333333334,110.20833333333334,522,110.20833333333334C524.4166666666666,110.20833333333334,526.8333333333334,110.20833333333334,529.25,110.20833333333334C531.6666666666666,110.20833333333334,534.0833333333334,110.20833333333334,536.5,110.20833333333334C538.9166666666666,110.20833333333334,541.3333333333334,110.20833333333334,543.75,110.20833333333334C546.1666666666666,110.20833333333334,548.5833333333334,110.20833333333334,551,110.20833333333334C553.4166666666666,110.20833333333334,555.8333333333334,110.20833333333334,558.25,110.20833333333334C560.6666666666666,110.20833333333334,563.0833333333334,110.20833333333334,565.5,110.20833333333334C567.9166666666666,110.20833333333334,570.3333333333334,110.20833333333334,572.75,110.20833333333334C575.1666666666666,110.20833333333334,577.5833333333334,110.20833333333334,580,110.20833333333334C582.4166666666666,110.20833333333334,584.8333333333334,110.20833333333334,587.25,110.20833333333334C589.6666666666666,110.20833333333334,592.0833333333334,110.20833333333334,594.5,110.20833333333334C596.9166666666666,110.20833333333334,599.3333333333334,110.20833333333334,601.75,110.20833333333334C604.1666666666666,110.20833333333334,606.5833333333334,110.20833333333334,609,110.20833333333334C611.4166666666666,110.20833333333334,613.8333333333334,110.20833333333334,616.25,110.20833333333334C618.6666666666666,110.20833333333334,621.0833333333334,110.20833333333334,623.5,110.20833333333334C625.9166666666666,110.20833333333334,628.3333333333334,110.20833333333334,630.75,110.20833333333334C633.1666666666666,110.20833333333334,635.5833333333334,110.20833333333334,638,110.20833333333334C640.4166666666666,110.20833333333334,642.8333333333334,110.20833333333334,645.25,110.20833333333334C647.6666666666666,110.20833333333334,650.0833333333334,110.20833333333334,652.5,110.20833333333334C654.9166666666666,110.20833333333334,657.3333333333334,110.20833333333334,659.75,110.20833333333334C662.1666666666666,110.20833333333334,664.5833333333334,110.20833333333334,667,110.20833333333334C669.4166666666666,110.20833333333334,671.8333333333334,110.20833333333334,674.25,110.20833333333334C676.6666666666666,110.20833333333334,679.0833333333334,110.20833333333334,681.5,110.20833333333334C683.9166666666666,110.20833333333334,686.3333333333334,110.20833333333334,688.75,110.20833333333334C691.1666666666666,110.20833333333334,693.5833333333334,110.20833333333334,696,110.20833333333334C698.4166666666666,110.20833333333334,700.8333333333334,110.20833333333334,703.25,110.20833333333334C705.6666666666666,110.20833333333334,708.0833333333334,110.20833333333334,710.5,110.20833333333334C712.9166666666666,110.20833333333334,715.3333333333334,110.20833333333334,717.75,110.20833333333334C720.1666666666666,110.20833333333334,722.5833333333334,110.20833333333334,725,110.20833333333334C727.4166666666666,110.20833333333334,729.8333333333334,110.20833333333334,732.25,110.20833333333334C734.6666666666666,110.20833333333334,737.0833333333334,110.20833333333334,739.5,110.20833333333334C741.9166666666666,110.20833333333334,744.3333333333334,110.20833333333334,746.75,110.20833333333334C749.1666666666666,110.20833333333334,751.5833333333334,110.20833333333334,754,110.20833333333334C756.4166666666666,110.20833333333334,758.8333333333334,110.20833333333334,761.25,110.20833333333334C763.6666666666666,110.20833333333334,766.0833333333334,110.20833333333334,768.5,110.20833333333334C770.9166666666666,110.20833333333334,773.3333333333334,110.20833333333334,775.75,110.20833333333334C778.1666666666666,110.20833333333334,780.5833333333334,110.20833333333334,783,110.20833333333334C785.4166666666667,110.20833333333334,787.8333333333334,110.20833333333334,790.2500000000001,110.20833333333334C792.6666666666667,110.20833333333334,795.0833333333335,110.20833333333334,797.5000000000001,110.20833333333334C799.9166666666667,110.20833333333334,802.3333333333335,110.20833333333334,804.7500000000001,110.20833333333334C807.1666666666667,110.20833333333334,809.5833333333335,110.20833333333334,812.0000000000001,110.20833333333334C814.4166666666667,110.20833333333334,816.8333333333333,110.20833333333334,819.2499999999999,110.20833333333334C821.6666666666665,110.20833333333334,824.0833333333333,110.20833333333334,826.4999999999999,110.20833333333334C828.9166666666665,110.20833333333334,831.3333333333333,110.20833333333334,833.7499999999999,110.20833333333334C836.1666666666665,110.20833333333334,838.5833333333333,110.20833333333334,840.9999999999999,110.20833333333334C843.4166666666666,110.20833333333334,845.8333333333333,110.20833333333334,848.25,110.20833333333334C850.6666666666666,110.20833333333334,853.0833333333334,110.20833333333334,855.5,110.20833333333334C857.9166666666666,110.20833333333334,860.3333333333334,110.20833333333334,862.75,110.20833333333334C865.1666666666666,110.20833333333334,867.5833333333334,110.20833333333334,870,110.20833333333334C872.4166666666666,110.20833333333334,874.8333333333334,110.20833333333334,877.25,110.20833333333334C879.6666666666666,110.20833333333334,882.0833333333334,110.20833333333334,884.5,110.20833333333334C886.9166666666666,110.20833333333334,889.3333333333334,110.20833333333334,891.75,110.20833333333334C894.1666666666666,110.20833333333334,896.5833333333334,110.20833333333334,899,110.20833333333334C901.4166666666666,110.20833333333334,903.8333333333334,110.20833333333334,906.25,110.20833333333334C908.6666666666666,110.20833333333334,911.0833333333334,110.20833333333334,913.5,110.20833333333334C915.9166666666666,110.20833333333334,918.3333333333334,110.20833333333334,920.75,110.20833333333334C923.1666666666666,110.20833333333334,925.5833333333334,110.20833333333334,928,110.20833333333334C930.4166666666666,110.20833333333334,932.8333333333334,110.20833333333334,935.25,110.20833333333334C937.6666666666666,110.20833333333334,940.0833333333334,110.20833333333334,942.5,110.20833333333334C944.9166666666666,110.20833333333334,947.3333333333334,110.20833333333334,949.75,110.20833333333334C952.1666666666666,110.20833333333334,954.5833333333334,110.20833333333334,957,110.20833333333334C959.4166666666666,110.20833333333334,961.8333333333334,110.20833333333334,964.25,110.20833333333334C966.6666666666667,110.20833333333334,969.0833333333334,110.20833333333334,971.5000000000001,110.20833333333334C973.9166666666667,110.20833333333334,976.3333333333335,110.20833333333334,978.7500000000001,110.20833333333334C981.1666666666667,110.20833333333334,983.5833333333335,110.20833333333334,986.0000000000001,110.20833333333334C988.4166666666667,110.20833333333334,990.8333333333335,110.20833333333334,993.2500000000001,110.20833333333334C995.6666666666667,110.20833333333334,998.0833333333333,110.20833333333334,1000.4999999999999,110.20833333333334C1002.9166666666665,110.20833333333334,1005.3333333333333,110.20833333333334,1007.7499999999999,110.20833333333334C1010.1666666666665,110.20833333333334,1012.5833333333333,110.20833333333334,1014.9999999999999,110.20833333333334C1017.4166666666665,110.20833333333334,1019.8333333333333,110.20833333333334,1022.2499999999999,110.20833333333334C1024.6666666666665,110.20833333333334,1027.0833333333333,110.20833333333334,1029.5,110.20833333333334C1031.9166666666667,110.20833333333334,1034.3333333333333,110.20833333333334,1036.75,110.20833333333334C1039.1666666666667,110.20833333333334,1041.5833333333333,110.20833333333334,1044,110.20833333333334C1046.4166666666667,110.20833333333334,1048.8333333333333,110.20833333333334,1051.25,110.20833333333334C1053.6666666666667,110.20833333333334,1056.0833333333333,110.20833333333334,1058.5,110.20833333333334C1060.9166666666667,110.20833333333334,1063.3333333333333,110.20833333333334,1065.75,110.20833333333334C1068.1666666666667,110.20833333333334,1070.5833333333333,110.20833333333334,1073,110.20833333333334C1075.4166666666667,110.20833333333334,1077.8333333333333,110.20833333333334,1080.25,110.20833333333334C1082.6666666666667,110.20833333333334,1085.0833333333333,110.20833333333334,1087.5,110.20833333333334C1089.9166666666667,110.20833333333334,1092.3333333333333,110.20833333333334,1094.75,110.20833333333334C1097.1666666666667,110.20833333333334,1099.5833333333333,110.20833333333334,1102,110.20833333333334C1104.4166666666667,110.20833333333334,1106.8333333333333,110.20833333333334,1109.25,110.20833333333334C1111.6666666666667,110.20833333333334,1114.0833333333333,110.20833333333334,1116.5,110.20833333333334C1118.9166666666667,110.20833333333334,1121.3333333333333,110.20833333333334,1123.75,110.20833333333334C1126.1666666666667,110.20833333333334,1128.5833333333333,110.20833333333334,1131,110.20833333333334C1133.4166666666667,110.20833333333334,1135.8333333333333,110.20833333333334,1138.25,110.20833333333334C1140.6666666666667,110.20833333333334,1143.0833333333333,110.20833333333334,1145.5,110.20833333333334C1147.9166666666667,110.20833333333334,1150.3333333333333,110.20833333333334,1152.75,110.20833333333334C1155.1666666666667,110.20833333333334,1157.5833333333333,110.20833333333334,1160,110.20833333333334C1162.4166666666667,110.20833333333334,1164.8333333333333,110.20833333333334,1167.25,110.20833333333334C1169.6666666666667,110.20833333333334,1172.0833333333333,110.20833333333334,1174.5,110.20833333333334C1176.9166666666667,110.20833333333334,1179.3333333333333,110.20833333333334,1181.75,110.20833333333334C1184.1666666666667,110.20833333333334,1186.5833333333333,110.20833333333334,1189,110.20833333333334C1191.4166666666667,110.20833333333334,1193.8333333333333,110.20833333333334,1196.25,110.20833333333334C1198.6666666666667,110.20833333333334,1201.0833333333333,110.20833333333334,1203.5,110.20833333333334C1205.9166666666667,110.20833333333334,1208.3333333333333,110.20833333333334,1210.75,110.20833333333334C1213.1666666666667,110.20833333333334,1215.5833333333333,110.20833333333334,1218,110.20833333333334C1220.4166666666667,110.20833333333334,1222.8333333333333,110.20833333333334,1225.25,110.20833333333334C1227.6666666666667,110.20833333333334,1230.0833333333333,110.20833333333334,1232.5,110.20833333333334C1234.9166666666667,110.20833333333334,1237.3333333333333,110.20833333333334,1239.75,110.20833333333334C1242.1666666666667,110.20833333333334,1244.5833333333333,110.20833333333334,1247,110.20833333333334C1249.4166666666667,110.20833333333334,1251.8333333333333,110.20833333333334,1254.25,110.20833333333334C1256.6666666666667,110.20833333333334,1259.0833333333333,110.20833333333334,1261.5,110.20833333333334C1263.9166666666667,110.20833333333334,1266.3333333333333,110.20833333333334,1268.75,110.20833333333334C1271.1666666666667,110.20833333333334,1273.5833333333333,110.20833333333334,1276,110.20833333333334C1278.4166666666667,110.20833333333334,1280.8333333333333,110.20833333333334,1283.25,110.20833333333334C1285.6666666666667,110.20833333333334,1288.0833333333333,110.20833333333334,1290.5,110.20833333333334C1292.9166666666667,110.20833333333334,1295.3333333333333,110.20833333333334,1297.75,110.20833333333334C1300.1666666666667,110.20833333333334,1302.5833333333333,110.20833333333334,1305,110.20833333333334C1307.4166666666667,110.20833333333334,1309.8333333333333,110.20833333333334,1312.25,110.20833333333334C1314.6666666666667,110.20833333333334,1317.0833333333333,110.20833333333334,1319.5,110.20833333333334C1321.9166666666667,110.20833333333334,1324.3333333333333,110.20833333333334,1326.75,110.20833333333334C1329.1666666666667,110.20833333333334,1331.5833333333333,110.20833333333334,1334,110.20833333333334C1336.4166666666667,110.20833333333334,1338.8333333333333,110.20833333333334,1341.25,110.20833333333334C1343.6666666666667,110.20833333333334,1346.0833333333333,110.20833333333334,1348.5,110.20833333333334C1350.9166666666667,110.20833333333334,1353.3333333333333,110.20833333333334,1355.75,110.20833333333334C1358.1666666666667,110.20833333333334,1360.5833333333333,110.20833333333334,1363,110.20833333333334C1365.4166666666667,110.20833333333334,1367.8333333333333,110.20833333333334,1370.25,110.20833333333334C1372.6666666666667,110.20833333333334,1375.0833333333333,110.20833333333334,1377.5,110.20833333333334C1379.9166666666667,110.20833333333334,1382.3333333333333,110.20833333333334,1384.75,110.20833333333334C1387.1666666666667,110.20833333333334,1389.5833333333333,110.20833333333334,1392,110.20833333333334C1394.4166666666667,110.20833333333334,1396.8333333333333,110.20833333333334,1399.25,110.20833333333334C1401.6666666666667,110.20833333333334,1404.0833333333333,110.20833333333334,1406.5,110.20833333333334C1408.9166666666667,110.20833333333334,1411.3333333333333,110.20833333333334,1413.75,110.20833333333334C1416.1666666666667,110.20833333333334,1418.5833333333333,110.20833333333334,1421,110.20833333333334C1423.4166666666667,110.20833333333334,1425.8333333333333,110.20833333333334,1428.25,110.20833333333334C1430.6666666666667,110.20833333333334,1433.0833333333333,110.20833333333334,1435.5,110.20833333333334C1437.9166666666667,110.20833333333334,1440.3333333333333,110.20833333333334,1442.75,110.20833333333334C1445.1666666666667,110.20833333333334,1447.5833333333333,110.20833333333334,1450,110.20833333333334" fill="transparent" stroke-linecap="round" stroke="#E7C6DF" stroke-width="2"></path><g class="visx-group visx-axis visx-axis-bottom" transform="translate(0, 115)"><g class="visx-group visx-axis-tick" transform="translate(0, 0)"><line class="visx-line" x1="0" y1="0" x2="0" y2="8" fill="transparent" shape-rendering="crispEdges" stroke="#000" stroke-width="0" stroke-linecap="square"></line><svg x="0" y="0" font-size="10" style="overflow:visible"><text transform="" x="0" y="18" fill="#000" font-size="10" text-anchor="middle"><tspan x="0" dy="0em">0%</tspan></text></svg></g><g class="visx-group visx-axis-tick" transform="translate(0, 0)"><line class="visx-line" x1="362.5" y1="0" x2="362.5" y2="8" fill="transparent" shape-rendering="crispEdges" stroke="#000" stroke-width="0" stroke-linecap="square"></line><svg x="0" y="0" font-size="10" style="overflow:visible"><text transform="" x="362.5" y="18" fill="#000" font-size="10" text-anchor="middle"><tspan x="362.5" dy="0em">25%</tspan></text></svg></g><g class="visx-group visx-axis-tick" transform="translate(0, 0)"><line class="visx-line" x1="725" y1="0" x2="725" y2="8" fill="transparent" shape-rendering="crispEdges" stroke="#000" stroke-width="0" stroke-linecap="square"></line><svg x="0" y="0" font-size="10" style="overflow:visible"><text transform="" x="725" y="18" fill="#000" font-size="10" text-anchor="middle"><tspan x="725" dy="0em">50%</tspan></text></svg></g><g class="visx-group visx-axis-tick" transform="translate(0, 0)"><line class="visx-line" x1="1087.5" y1="0" x2="1087.5" y2="8" fill="transparent" shape-rendering="crispEdges" stroke="#000" stroke-width="0" stroke-linecap="square"></line><svg x="0" y="0" font-size="10" style="overflow:visible"><text transform="" x="1087.5" y="18" fill="#000" font-size="10" text-anchor="middle"><tspan x="1087.5" dy="0em">75%</tspan></text></svg></g><g class="visx-group visx-axis-tick" transform="translate(0, 0)"><line class="visx-line" x1="1450" y1="0" x2="1450" y2="8" fill="transparent" shape-rendering="crispEdges" stroke="#000" stroke-width="0" stroke-linecap="square"></line><svg x="0" y="0" font-size="10" style="overflow:visible"><text transform="" x="1450" y="18" fill="#000" font-size="10" text-anchor="middle"><tspan x="1450" dy="0em">100%</tspan></text></svg></g><line class="visx-line visx-axis-line" x1="0.5" y1="0" x2="1450.5" y2="0" fill="transparent" shape-rendering="crispEdges" stroke="#222" stroke-width="0"></line></g><g class="visx-group visx-axis visx-axis-left" transform="translate(0, 0)"><g class="visx-group visx-axis-tick" transform="translate(0, 0)"><line class="visx-line" x1="0" y1="115" x2="-8" y2="115" fill="transparent" shape-rendering="crispEdges" stroke="#222" stroke-width="0" stroke-linecap="square"></line><svg x="-30" y="0" font-size="8" style="overflow:visible"><text transform="" x="-8" y="115" fill="#000" font-size="8" text-anchor="start"><tspan x="-8" dy="0em">0%</tspan></text></svg></g><g class="visx-group visx-axis-tick" transform="translate(0, 0)"><line class="visx-line" x1="0" y1="67.08333333333333" x2="-8" y2="67.08333333333333" fill="transparent" shape-rendering="crispEdges" stroke="#222" stroke-width="0" stroke-linecap="square"></line><svg x="-30" y="0" font-size="8" style="overflow:visible"><text transform="" x="-8" y="67.08333333333333" fill="#000" font-size="8" text-anchor="start"><tspan x="-8" dy="0em">100%</tspan></text></svg></g><g class="visx-group visx-axis-tick" transform="translate(0, 0)"><line class="visx-line" x1="0" y1="19.16666666666666" x2="-8" y2="19.16666666666666" fill="transparent" shape-rendering="crispEdges" stroke="#222" stroke-width="0" stroke-linecap="square"></line><svg x="-30" y="0" font-size="8" style="overflow:visible"><text transform="" x="-8" y="19.16666666666666" fill="#000" font-size="8" text-anchor="start"><tspan x="-8" dy="0em">200%</tspan></text></svg></g><line class="visx-line visx-axis-line" x1="0" y1="115.5" x2="0" y2="0.5" fill="transparent" shape-rendering="crispEdges" stroke="#222" stroke-width="0"></line></g><rect class="visx-bar" width="1450" height="115" fill="transparent"></rect><line class="visx-line" x1="870" y1="28" x2="870" y2="115" fill="transparent" shape-rendering="crispEdges" stroke="#0062D2" stroke-width="1" pointer-events="none" stroke-dasharray="5,2"></line><svg x="0" y="0" font-size="10px" style="overflow:visible"><text transform="" x="870" y="20" font-size="10px" fill="#fff" stroke="#fff" stroke-width="0.8em" text-anchor="middle"><tspan x="870" dy="0.355em">Optimal 60%</tspan></text></svg><svg x="0" y="0" font-size="10px" style="overflow:visible"><text transform="" x="870" y="20" font-size="10px" fill="#62677B" text-anchor="middle"><tspan x="870" dy="0.355em">Optimal 60%</tspan></text></svg></g></svg>