<?xml version="1.0"?><svg xmlns="http://www.w3.org/2000/svg" xmlns:xlink= "http://www.w3.org/1999/xlink" style="background: white;" width="1500" height="185"> <g style="color: black; font-size: 13px; font-family: sans-serif; transform: translate(18px, 25px);"><g><circle r="3" cx="-6" cy="-5" style="fill: #B6509E" /><text>Borrow APR, variable</text></g><g style="transform: translateX(150px);"><circle r="3" cx="-6" cy="-5" style="fill: rgb(231, 198, 223)" /><text>Borrow APR, stable</text></g><g style="transform: translateX(290px);"><circle r="3" cx="-6" cy="-5" style="fill: rgb(0, 98, 210)" /><text>Utilization Rate</text></g></g><g class="visx-group" transform="translate(40, 50)"><g class="visx-group visx-rows" transform="translate(0, 0)"><line class="visx-line" x1="0" y1="115" x2="1450" y2="115" fill="transparent" shape-rendering="crispEdges" stroke="#000" stroke-width="1" stroke-dasharray="3,3" pointer-events="none"></line><line class="visx-line" x1="0" y1="62.72727272727272" x2="1450" y2="62.72727272727272" fill="transparent" shape-rendering="crispEdges" stroke="#000" stroke-width="1" stroke-dasharray="3,3" pointer-events="none"></line><line class="visx-line" x1="0" y1="10.454545454545459" x2="1450" y2="10.454545454545459" fill="transparent" shape-rendering="crispEdges" stroke="#000" stroke-width="1" stroke-dasharray="3,3" pointer-events="none"></line></g><path class="visx-linepath" d="M0,114.99999999994773C2.4166666666666665,114.99128787875739,4.833333333333334,114.98257575756705,7.25,114.97386363636363C9.666666666666666,114.96515151516022,12.083333333333334,114.95643939393938,14.5,114.94772727272726C16.916666666666668,114.93901515151515,19.333333333333332,114.93030303030302,21.75,114.92159090909091C24.166666666666668,114.9128787878788,26.583333333333332,114.90416666666667,29,114.89545454545456C31.416666666666668,114.88674242424244,33.833333333333336,114.87803030303031,36.25,114.86931818181819C38.666666666666664,114.86060606060606,41.083333333333336,114.85189393939395,43.5,114.84318181818182C45.91666666666667,114.83446969696969,48.333333333333336,114.82575757575758,50.75000000000001,114.81704545454545C53.16666666666667,114.80833333333334,55.583333333333336,114.79962121212121,58,114.7909090909091C60.416666666666664,114.78219696969697,62.833333333333336,114.77348484848486,65.25,114.76477272727273C67.66666666666667,114.7560606060606,70.08333333333333,114.74734848484847,72.5,114.73863636363636C74.91666666666667,114.72992424242425,77.33333333333333,114.72121212121212,79.75,114.7125C82.16666666666667,114.70378787878789,84.58333333333333,114.69507575757576,87,114.68636363636364C89.41666666666667,114.67765151515151,91.83333333333333,114.66893939393938,94.25,114.66022727272727C96.66666666666667,114.65151515151514,99.08333333333334,114.64280303030304,101.50000000000001,114.63409090909092C103.91666666666667,114.6253787878788,106.33333333333334,114.61666666666667,108.75,114.60795454545455C111.16666666666667,114.59924242424242,113.58333333333333,114.5905303030303,116,114.58181818181818C118.41666666666667,114.57310606060605,120.83333333333334,114.56439393939394,123.25000000000001,114.55568181818181C125.66666666666667,114.54696969696968,128.08333333333334,114.53825757575756,130.5,114.52954545454544C132.91666666666666,114.52083333333333,135.33333333333334,114.51212121212122,137.75,114.5034090909091C140.16666666666666,114.49469696969699,142.58333333333334,114.48598484848486,145,114.47727272727273C147.41666666666666,114.4685606060606,149.83333333333334,114.4598484848485,152.25,114.45113636363637C154.66666666666666,114.44242424242424,157.08333333333334,114.43371212121212,159.5,114.425C161.91666666666666,114.41628787878787,164.33333333333334,114.40757575757574,166.75,114.39886363636363C169.16666666666666,114.39015151515152,171.58333333333334,114.38143939393939,174,114.37272727272727C176.41666666666666,114.36401515151516,178.83333333333334,114.35530303030302,181.25,114.3465909090909C183.66666666666666,114.3378787878788,186.08333333333334,114.32916666666667,188.5,114.32045454545455C190.91666666666666,114.31174242424244,193.33333333333334,114.30303030303031,195.75,114.29431818181818C198.16666666666669,114.28560606060606,200.58333333333334,114.27689393939394,203.00000000000003,114.26818181818182C205.41666666666669,114.25946969696969,207.83333333333331,114.25075757575756,210.24999999999997,114.24204545454545C212.66666666666666,114.23333333333332,215.08333333333331,114.22462121212122,217.5,114.2159090909091C219.91666666666666,114.20719696969698,222.33333333333334,114.19848484848485,224.75,114.18977272727273C227.16666666666666,114.1810606060606,229.58333333333334,114.17234848484847,232,114.16363636363636C234.41666666666666,114.15492424242424,236.83333333333334,114.14621212121212,239.25,114.1375C241.66666666666669,114.12878787878788,244.08333333333334,114.12007575757576,246.50000000000003,114.11136363636363C248.91666666666669,114.10265151515152,251.33333333333331,114.0939393939394,253.74999999999997,114.08522727272728C256.16666666666663,114.07651515151515,258.5833333333333,114.06780303030304,261,114.05909090909091C263.4166666666667,114.05037878787878,265.8333333333333,114.04166666666667,268.25,114.03295454545454C270.6666666666667,114.02424242424242,273.0833333333333,114.0155303030303,275.5,114.00681818181818C277.9166666666667,113.99810606060605,280.3333333333333,113.98939393939392,282.75,113.98068181818181C285.1666666666667,113.9719696969697,287.5833333333333,113.96325757575758,290,113.95454545454547C292.4166666666667,113.94583333333335,294.8333333333333,113.93712121212123,297.25,113.9284090909091C299.6666666666667,113.91969696969697,302.0833333333333,113.91098484848486,304.5,113.90227272727273C306.9166666666667,113.8935606060606,309.3333333333333,113.88484848484849,311.75,113.87613636363636C314.1666666666667,113.86742424242424,316.5833333333333,113.85871212121211,319,113.85C321.4166666666667,113.84128787878788,323.8333333333333,113.83257575757575,326.25,113.82386363636364C328.6666666666667,113.81515151515153,331.0833333333333,113.8064393939394,333.5,113.79772727272727C335.9166666666667,113.78901515151514,338.3333333333333,113.78030303030302,340.75,113.7715909090909C343.1666666666667,113.76287878787879,345.5833333333333,113.75416666666666,348,113.74545454545455C350.4166666666667,113.73674242424244,352.8333333333333,113.72803030303031,355.25,113.71931818181818C357.6666666666667,113.71060606060605,360.0833333333333,113.70189393939393,362.5,113.69318181818181C364.9166666666667,113.6844696969697,367.3333333333333,113.67575757575757,369.75,113.66704545454546C372.1666666666667,113.65833333333335,374.5833333333333,113.64962121212122,377,113.64090909090909C379.4166666666667,113.63219696969696,381.8333333333333,113.62348484848485,384.25,113.61477272727272C386.6666666666667,113.6060606060606,389.0833333333333,113.59734848484847,391.5,113.58863636363635C393.9166666666667,113.57992424242423,396.33333333333337,113.57121212121211,398.75000000000006,113.5625C401.16666666666674,113.55378787878789,403.58333333333337,113.54507575757577,406.00000000000006,113.53636363636365C408.4166666666667,113.52765151515153,410.8333333333333,113.5189393939394,413.24999999999994,113.51022727272728C415.66666666666663,113.50151515151515,418.08333333333326,113.49280303030304,420.49999999999994,113.48409090909091C422.91666666666663,113.47537878787878,425.3333333333333,113.46666666666667,427.75,113.45795454545454C430.1666666666667,113.44924242424241,432.5833333333333,113.44053030303029,435,113.43181818181817C437.4166666666667,113.42310606060606,439.8333333333333,113.41439393939393,442.25,113.40568181818182C444.6666666666667,113.3969696969697,447.0833333333333,113.38825757575758,449.5,113.37954545454546C451.9166666666667,113.37083333333335,454.3333333333333,113.36212121212122,456.75,113.3534090909091C459.1666666666667,113.34469696969697,461.5833333333333,113.33598484848486,464,113.32727272727273C466.4166666666667,113.3185606060606,468.8333333333333,113.30984848484849,471.25,113.30113636363636C473.6666666666667,113.29242424242423,476.0833333333333,113.2837121212121,478.5,113.27499999999999C480.9166666666667,113.26628787878786,483.33333333333337,113.25757575757576,485.75000000000006,113.24886363636364C488.16666666666674,113.24015151515152,490.58333333333337,113.2314393939394,493.00000000000006,113.22272727272727C495.4166666666667,113.21401515151516,497.8333333333333,113.20530303030303,500.24999999999994,113.19659090909092C502.66666666666663,113.18787878787879,505.08333333333326,113.17916666666667,507.49999999999994,113.17045454545455C509.91666666666663,113.16174242424242,512.3333333333333,113.1530303030303,514.75,113.14431818181818C517.1666666666666,113.13560606060607,519.5833333333334,113.12689393939394,522,113.11818181818182C524.4166666666666,113.10946969696971,526.8333333333334,113.10075757575758,529.25,113.09204545454546C531.6666666666666,113.08333333333333,534.0833333333334,113.07462121212122,536.5,113.06590909090909C538.9166666666666,113.05719696969696,541.3333333333334,113.04848484848485,543.75,113.03977272727272C546.1666666666666,113.03106060606059,548.5833333333334,113.02234848484846,551,113.01363636363635C553.4166666666666,113.00492424242424,555.8333333333334,112.99621212121212,558.25,112.98750000000001C560.6666666666666,112.9787878787879,563.0833333333334,112.97007575757577,565.5,112.96136363636364C567.9166666666666,112.95265151515152,570.3333333333334,112.9439393939394,572.75,112.93522727272727C575.1666666666666,112.92651515151515,577.5833333333334,112.91780303030303,580,112.9090909090909C582.4166666666666,112.90037878787878,584.8333333333334,112.89166666666665,587.25,112.88295454545454C589.6666666666666,112.87424242424242,592.0833333333334,112.8655303030303,594.5,112.85681818181818C596.9166666666666,112.84810606060607,599.3333333333334,112.83939393939393,601.75,112.83068181818182C604.1666666666666,112.8219696969697,606.5833333333334,112.81325757575758,609,112.80454545454546C611.4166666666666,112.79583333333335,613.8333333333334,112.78712121212122,616.25,112.7784090909091C618.6666666666666,112.76969696969697,621.0833333333334,112.76098484848485,623.5,112.75227272727273C625.9166666666666,112.7435606060606,628.3333333333334,112.73484848484847,630.75,112.72613636363636C633.1666666666666,112.71742424242424,635.5833333333334,112.70871212121212,638,112.7C640.4166666666666,112.69128787878789,642.8333333333334,112.68257575757576,645.25,112.67386363636363C647.6666666666666,112.6651515151515,650.0833333333334,112.65643939393938,652.5,112.64772727272727C654.9166666666666,112.63901515151515,657.3333333333334,112.63030303030303,659.75,112.62159090909091C662.1666666666666,112.6128787878788,664.5833333333334,112.60416666666666,667,112.59545454545454C669.4166666666666,112.58674242424243,671.8333333333334,112.5780303030303,674.25,112.56931818181819C676.6666666666666,112.56060606060608,679.0833333333334,112.55189393939395,681.5,112.54318181818182C683.9166666666666,112.5344696969697,686.3333333333334,112.52575757575758,688.75,112.51704545454545C691.1666666666666,112.50833333333333,693.5833333333334,112.49962121212121,696,112.49090909090908C698.4166666666666,112.48219696969696,700.8333333333334,112.47348484848483,703.25,112.46477272727272C705.6666666666666,112.4560606060606,708.0833333333334,112.44734848484848,710.5,112.43863636363636C712.9166666666666,112.42992424242425,715.3333333333334,112.42121212121212,717.75,112.41250000000001C720.1666666666666,112.4037878787879,722.5833333333334,112.39507575757577,725,112.38636363636364C727.4166666666666,112.37765151515151,729.8333333333334,112.3689393939394,732.25,112.36022727272727C734.6666666666666,112.35151515151514,737.0833333333334,112.34280303030302,739.5,112.3340909090909C741.9166666666666,112.32537878787879,744.3333333333334,112.31666666666666,746.75,112.30795454545455C749.1666666666666,112.29924242424244,751.5833333333334,112.29053030303031,754,112.28181818181818C756.4166666666666,112.27310606060605,758.8333333333334,112.26439393939393,761.25,112.25568181818181C763.6666666666666,112.2469696969697,766.0833333333334,112.23825757575757,768.5,112.22954545454546C770.9166666666666,112.22083333333335,773.3333333333334,112.21212121212122,775.75,112.20340909090909C778.1666666666666,112.19469696969696,780.5833333333334,112.18598484848484,783,112.17727272727272C785.4166666666667,112.1685606060606,787.8333333333334,112.1598484848485,790.2500000000001,112.15113636363637C792.6666666666667,112.14242424242425,795.0833333333335,112.13371212121213,797.5000000000001,112.125C799.9166666666667,112.11628787878787,802.3333333333335,112.10757575757576,804.7500000000001,112.09886363636363C807.1666666666667,112.0901515151515,809.5833333333335,112.08143939393939,812.0000000000001,112.07272727272726C814.4166666666667,112.06401515151515,816.8333333333333,112.05530303030302,819.2499999999999,112.04659090909091C821.6666666666665,112.0378787878788,824.0833333333333,112.02916666666667,826.4999999999999,112.02045454545456C828.9166666666665,112.01174242424244,831.3333333333333,112.00303030303031,833.7499999999999,111.99431818181819C836.1666666666665,111.98560606060606,838.5833333333333,111.97689393939395,840.9999999999999,111.96818181818182C843.4166666666666,111.95946969696969,845.8333333333333,111.95075757575758,848.25,111.94204545454545C850.6666666666666,111.93333333333332,853.0833333333334,111.9246212121212,855.5,111.91590909090908C857.9166666666666,111.90719696969697,860.3333333333334,111.89848484848484,862.75,111.88977272727273C865.1666666666666,111.88106060606061,867.5833333333334,111.87234848484849,870,111.86363636363637C872.4166666666666,111.85492424242426,874.8333333333334,111.84621212121213,877.25,111.8375C879.6666666666666,111.82878787878788,882.0833333333334,111.82007575757576,884.5,111.81136363636364C886.9166666666666,111.80265151515151,889.3333333333334,111.7939393939394,891.75,111.78522727272727C894.1666666666666,111.77651515151514,896.5833333333334,111.76780303030301,899,111.7590909090909C901.4166666666666,111.75037878787879,903.8333333333334,111.74166666666666,906.25,111.73295454545455C908.6666666666666,111.72424242424243,911.0833333333334,111.71553030303029,913.5,111.70681818181818C915.9166666666666,111.69810606060607,918.3333333333334,111.68939393939394,920.75,111.68068181818182C923.1666666666666,111.67196969696971,925.5833333333334,111.66325757575758,928,111.65454545454546C930.4166666666666,111.64583333333333,932.8333333333334,111.6371212121212,935.25,111.62840909090909C937.6666666666666,111.61969696969697,940.0833333333334,111.61098484848485,942.5,111.60227272727273C944.9166666666666,111.59356060606062,947.3333333333334,111.5848484848485,949.75,111.57613636363637C952.1666666666666,111.56742424242424,954.5833333333334,111.55871212121212,957,111.55C959.4166666666666,111.54128787878787,961.8333333333334,111.53257575757576,964.25,111.52386363636363C966.6666666666667,111.5151515151515,969.0833333333334,111.50643939393939,971.5000000000001,111.49772727272726C973.9166666666667,111.48901515151515,976.3333333333335,111.48030303030302,978.7500000000001,111.4715909090909C981.1666666666667,111.4628787878788,983.5833333333335,111.45416666666667,986.0000000000001,111.44545454545455C988.4166666666667,111.43674242424244,990.8333333333335,111.42803030303031,993.2500000000001,111.41931818181818C995.6666666666667,111.41060606060606,998.0833333333333,111.40189393939394,1000.4999999999999,111.39318181818182C1002.9166666666665,111.38446969696969,1005.3333333333333,111.37575757575756,1007.7499999999999,111.36704545454545C1010.1666666666665,111.35833333333333,1012.5833333333333,111.3496212121212,1014.9999999999999,111.3409090909091C1017.4166666666665,111.33219696969698,1019.8333333333333,111.32348484848485,1022.2499999999999,111.31477272727274C1024.6666666666665,111.30606060606061,1027.0833333333333,111.2973484848485,1029.5,111.28863636363637C1031.9166666666667,111.27992424242424,1034.3333333333333,111.27121212121213,1036.75,111.2625C1039.1666666666667,111.25378787878788,1041.5833333333333,111.24507575757576,1044,111.23636363636363C1046.4166666666667,111.2276515151515,1048.8333333333333,111.21893939393938,1051.25,111.21022727272727C1053.6666666666667,111.20151515151515,1056.0833333333333,111.19280303030303,1058.5,111.18409090909091C1060.9166666666667,111.1753787878788,1063.3333333333333,111.16666666666667,1065.75,111.15795454545454C1068.1666666666667,111.14924242424242,1070.5833333333333,111.14053030303029,1073,111.13181818181818C1075.4166666666667,111.12310606060606,1077.8333333333333,111.11439393939393,1080.25,111.10568181818182C1082.6666666666667,111.09696969696971,1085.0833333333333,111.08825757575757,1087.5,111.07954545454545C1089.9166666666667,111.07083333333334,1092.3333333333333,111.06212121212121,1094.75,111.0534090909091C1097.1666666666667,111.04469696969699,1099.5833333333333,111.03598484848486,1102,111.02727272727273C1104.4166666666667,111.0185606060606,1106.8333333333333,111.00984848484849,1109.25,111.00113636363636C1111.6666666666667,110.99242424242424,1114.0833333333333,110.98371212121212,1116.5,110.975C1118.9166666666667,110.96628787878787,1121.3333333333333,110.95757575757574,1123.75,110.94886363636363C1126.1666666666667,110.94015151515151,1128.5833333333333,110.93143939393939,1131,110.92272727272727C1133.4166666666667,110.91401515151516,1135.8333333333333,110.90530303030303,1138.25,110.89659090909092C1140.6666666666667,110.8878787878788,1143.0833333333333,110.87916666666668,1145.5,110.87045454545455C1147.9166666666667,110.86174242424242,1150.3333333333333,110.85303030303031,1152.75,110.84431818181818C1155.1666666666667,110.83560606060605,1157.5833333333333,110.83560606060605,1160,110.81818181818181C1162.4166666666667,110.80075757575757,1164.8333333333333,109.30227272727274,1167.25,108.54431818181818C1169.6666666666667,107.78636363636363,1172.0833333333333,107.0284090909091,1174.5,106.27045454545454C1176.9166666666667,105.51249999999999,1179.3333333333333,104.75454545454545,1181.75,103.99659090909091C1184.1666666666667,103.23863636363637,1186.5833333333333,102.48068181818181,1189,101.72272727272727C1191.4166666666667,100.96477272727273,1193.8333333333333,100.20681818181819,1196.25,99.44886363636364C1198.6666666666667,98.69090909090909,1201.0833333333333,97.93295454545455,1203.5,97.175C1205.9166666666667,96.41704545454544,1208.3333333333333,95.6590909090909,1210.75,94.90113636363635C1213.1666666666667,94.1431818181818,1215.5833333333333,93.38522727272726,1218,92.62727272727273C1220.4166666666667,91.86931818181819,1222.8333333333333,91.11136363636362,1225.25,90.35340909090908C1227.6666666666667,89.59545454545454,1230.0833333333333,88.8375,1232.5,88.07954545454545C1234.9166666666667,87.3215909090909,1237.3333333333333,86.56363636363636,1239.75,85.80568181818181C1242.1666666666667,85.04772727272726,1244.5833333333333,84.28977272727272,1247,83.53181818181818C1249.4166666666667,82.77386363636364,1251.8333333333333,82.01590909090908,1254.25,81.25795454545454C1256.6666666666667,80.5,1259.0833333333333,79.74204545454546,1261.5,78.98409090909092C1263.9166666666667,78.22613636363639,1266.3333333333333,77.46818181818182,1268.75,76.71022727272727C1271.1666666666667,75.95227272727271,1273.5833333333333,75.19431818181818,1276,74.43636363636364C1278.4166666666667,73.6784090909091,1280.8333333333333,72.92045454545455,1283.25,72.1625C1285.6666666666667,71.40454545454544,1288.0833333333333,70.64659090909089,1290.5,69.88863636363635C1292.9166666666667,69.13068181818181,1295.3333333333333,68.37272727272727,1297.75,67.61477272727274C1300.1666666666667,66.8568181818182,1302.5833333333333,66.09886363636363,1305,65.34090909090908C1307.4166666666667,64.58295454545453,1309.8333333333333,63.824999999999996,1312.25,63.06704545454545C1314.6666666666667,62.309090909090905,1317.0833333333333,61.55113636363637,1319.5,60.79318181818182C1321.9166666666667,60.035227272727276,1324.3333333333333,59.27727272727272,1326.75,58.51931818181817C1329.1666666666667,57.761363636363626,1331.5833333333333,57.00340909090908,1334,56.245454545454535C1336.4166666666667,55.48749999999999,1338.8333333333333,54.72954545454546,1341.25,53.971590909090914C1343.6666666666667,53.21363636363637,1346.0833333333333,52.45568181818181,1348.5,51.69772727272726C1350.9166666666667,50.93977272727272,1353.3333333333333,50.18181818181819,1355.75,49.42386363636364C1358.1666666666667,48.665909090909096,1360.5833333333333,47.90795454545454,1363,47.14999999999999C1365.4166666666667,46.392045454545446,1367.8333333333333,45.63409090909092,1370.25,44.87613636363638C1372.6666666666667,44.11818181818183,1375.0833333333333,43.36022727272728,1377.5,42.602272727272734C1379.9166666666667,41.84431818181819,1382.3333333333333,41.08636363636363,1384.75,40.32840909090908C1387.1666666666667,39.57045454545454,1389.5833333333333,38.8125,1392,38.054545454545455C1394.4166666666667,37.29659090909091,1396.8333333333333,36.53863636363635,1399.25,35.780681818181804C1401.6666666666667,35.02272727272726,1404.0833333333333,34.26477272727273,1406.5,33.50681818181818C1408.9166666666667,32.74886363636364,1411.3333333333333,31.990909090909092,1413.75,31.232954545454547C1416.1666666666667,30.475,1418.5833333333333,29.717045454545456,1421,28.95909090909091C1423.4166666666667,28.201136363636365,1425.8333333333333,27.443181818181824,1428.25,26.685227272727275C1430.6666666666667,25.927272727272726,1433.0833333333333,25.16931818181817,1435.5,24.411363636363625C1437.9166666666667,23.65340909090908,1440.3333333333333,22.89545454545454,1442.75,22.1375C1445.1666666666667,21.379545454545458,1447.5833333333333,20.62159090909091,1450,19.863636363636363" fill="transparent" stroke-linecap="round" stroke="#B6509E" stroke-width="2"></path><path class="visx-linepath" d="M0,109.772727272675C2.4166666666666665,109.76401515148466,4.833333333333334,109.75530303029433,7.25,109.74659090909091C9.666666666666666,109.7378787878875,12.083333333333334,109.72916666666667,14.5,109.72045454545454C16.916666666666668,109.71174242424242,19.333333333333332,109.70303030303029,21.75,109.69431818181818C24.166666666666668,109.68560606060606,26.583333333333332,109.67689393939393,29,109.66818181818182C31.416666666666668,109.65946969696971,33.833333333333336,109.65075757575758,36.25,109.64204545454545C38.666666666666664,109.63333333333333,41.083333333333336,109.6246212121212,43.5,109.61590909090908C45.91666666666667,109.60719696969696,48.333333333333336,109.59848484848486,50.75000000000001,109.58977272727273C53.16666666666667,109.58106060606062,55.583333333333336,109.57234848484848,58,109.56363636363636C60.416666666666664,109.55492424242424,62.833333333333336,109.54621212121212,65.25,109.53750000000001C67.66666666666667,109.5287878787879,70.08333333333333,109.52007575757577,72.5,109.51136363636364C74.91666666666667,109.50265151515151,77.33333333333333,109.4939393939394,79.75,109.48522727272727C82.16666666666667,109.47651515151514,84.58333333333333,109.46780303030303,87,109.4590909090909C89.41666666666667,109.45037878787878,91.83333333333333,109.44166666666665,94.25,109.43295454545454C96.66666666666667,109.42424242424241,99.08333333333334,109.4155303030303,101.50000000000001,109.40681818181818C103.91666666666667,109.39810606060607,106.33333333333334,109.38939393939394,108.75,109.38068181818183C111.16666666666667,109.3719696969697,113.58333333333333,109.36325757575759,116,109.35454545454546C118.41666666666667,109.34583333333333,120.83333333333334,109.33712121212122,123.25000000000001,109.32840909090909C125.66666666666667,109.31969696969696,128.08333333333334,109.31098484848485,130.5,109.30227272727272C132.91666666666666,109.2935606060606,135.33333333333334,109.28484848484847,137.75,109.27613636363635C140.16666666666666,109.26742424242424,142.58333333333334,109.25871212121211,145,109.25C147.41666666666666,109.24128787878789,149.83333333333334,109.23257575757575,152.25,109.22386363636363C154.66666666666666,109.21515151515152,157.08333333333334,109.20643939393939,159.5,109.19772727272728C161.91666666666666,109.18901515151516,164.33333333333334,109.18030303030304,166.75,109.17159090909091C169.16666666666666,109.16287878787878,171.58333333333334,109.15416666666665,174,109.14545454545454C176.41666666666666,109.13674242424243,178.83333333333334,109.1280303030303,181.25,109.11931818181819C183.66666666666666,109.11060606060607,186.08333333333334,109.10189393939395,188.5,109.09318181818182C190.91666666666666,109.08446969696969,193.33333333333334,109.07575757575756,195.75,109.06704545454545C198.16666666666669,109.05833333333332,200.58333333333334,109.04962121212122,203.00000000000003,109.0409090909091C205.41666666666669,109.03219696969698,207.83333333333331,109.02348484848486,210.24999999999997,109.01477272727273C212.66666666666666,109.0060606060606,215.08333333333331,108.99734848484849,217.5,108.98863636363636C219.91666666666666,108.97992424242425,222.33333333333334,108.97121212121212,224.75,108.9625C227.16666666666666,108.95378787878789,229.58333333333334,108.94507575757576,232,108.93636363636364C234.41666666666666,108.92765151515151,236.83333333333334,108.9189393939394,239.25,108.91022727272727C241.66666666666669,108.90151515151514,244.08333333333334,108.89280303030303,246.50000000000003,108.8840909090909C248.91666666666669,108.87537878787877,251.33333333333331,108.86666666666665,253.74999999999997,108.85795454545453C256.16666666666663,108.84924242424242,258.5833333333333,108.8405303030303,261,108.83181818181819C263.4166666666667,108.82310606060608,265.8333333333333,108.81439393939395,268.25,108.80568181818182C270.6666666666667,108.7969696969697,273.0833333333333,108.78825757575758,275.5,108.77954545454546C277.9166666666667,108.77083333333333,280.3333333333333,108.76212121212122,282.75,108.75340909090909C285.1666666666667,108.74469696969696,287.5833333333333,108.73598484848483,290,108.72727272727272C292.4166666666667,108.7185606060606,294.8333333333333,108.70984848484848,297.25,108.70113636363637C299.6666666666667,108.69242424242425,302.0833333333333,108.68371212121211,304.5,108.675C306.9166666666667,108.66628787878788,309.3333333333333,108.65757575757576,311.75,108.64886363636364C314.1666666666667,108.64015151515153,316.5833333333333,108.6314393939394,319,108.62272727272727C321.4166666666667,108.61401515151515,323.8333333333333,108.60530303030302,326.25,108.5965909090909C328.6666666666667,108.5878787878788,331.0833333333333,108.57916666666667,333.5,108.57045454545455C335.9166666666667,108.56174242424244,338.3333333333333,108.55303030303031,340.75,108.54431818181818C343.1666666666667,108.53560606060606,345.5833333333333,108.52689393939394,348,108.51818181818182C350.4166666666667,108.50946969696969,352.8333333333333,108.50075757575756,355.25,108.49204545454545C357.6666666666667,108.48333333333333,360.0833333333333,108.4746212121212,362.5,108.4659090909091C364.9166666666667,108.45719696969698,367.3333333333333,108.44848484848484,369.75,108.43977272727273C372.1666666666667,108.43106060606061,374.5833333333333,108.42234848484848,377,108.41363636363637C379.4166666666667,108.40492424242426,381.8333333333333,108.39621212121213,384.25,108.3875C386.6666666666667,108.37878787878788,389.0833333333333,108.37007575757576,391.5,108.36136363636363C393.9166666666667,108.3526515151515,396.33333333333337,108.3439393939394,398.75000000000006,108.33522727272727C401.16666666666674,108.32651515151514,403.58333333333337,108.31780303030301,406.00000000000006,108.3090909090909C408.4166666666667,108.30037878787878,410.8333333333333,108.29166666666667,413.24999999999994,108.28295454545456C415.66666666666663,108.27424242424244,418.08333333333326,108.26553030303032,420.49999999999994,108.25681818181819C422.91666666666663,108.24810606060606,425.3333333333333,108.23939393939395,427.75,108.23068181818182C430.1666666666667,108.2219696969697,432.5833333333333,108.21325757575758,435,108.20454545454545C437.4166666666667,108.19583333333333,439.8333333333333,108.1871212121212,442.25,108.17840909090908C444.6666666666667,108.16969696969697,447.0833333333333,108.16098484848484,449.5,108.15227272727273C451.9166666666667,108.14356060606062,454.3333333333333,108.13484848484849,456.75,108.12613636363636C459.1666666666667,108.11742424242424,461.5833333333333,108.10871212121211,464,108.1C466.4166666666667,108.09128787878788,468.8333333333333,108.08257575757575,471.25,108.07386363636364C473.6666666666667,108.06515151515153,476.0833333333333,108.0564393939394,478.5,108.04772727272727C480.9166666666667,108.03901515151514,483.33333333333337,108.03030303030303,485.75000000000006,108.0215909090909C488.16666666666674,108.01287878787879,490.58333333333337,108.00416666666668,493.00000000000006,107.99545454545455C495.4166666666667,107.98674242424244,497.8333333333333,107.97803030303031,500.24999999999994,107.96931818181818C502.66666666666663,107.96060606060605,505.08333333333326,107.95189393939394,507.49999999999994,107.94318181818181C509.91666666666663,107.93446969696969,512.3333333333333,107.92575757575757,514.75,107.91704545454544C517.1666666666666,107.90833333333333,519.5833333333334,107.8996212121212,522,107.89090909090909C524.4166666666666,107.88219696969698,526.8333333333334,107.87348484848485,529.25,107.86477272727274C531.6666666666666,107.85606060606062,534.0833333333334,107.8473484848485,536.5,107.83863636363637C538.9166666666666,107.82992424242424,541.3333333333334,107.82121212121213,543.75,107.8125C546.1666666666666,107.80378787878787,548.5833333333334,107.79507575757576,551,107.78636363636363C553.4166666666666,107.7776515151515,555.8333333333334,107.76893939393938,558.25,107.76022727272726C560.6666666666666,107.75151515151515,563.0833333333334,107.74280303030302,565.5,107.73409090909091C567.9166666666666,107.7253787878788,570.3333333333334,107.71666666666665,572.75,107.70795454545454C575.1666666666666,107.69924242424243,577.5833333333334,107.6905303030303,580,107.68181818181819C582.4166666666666,107.67310606060607,584.8333333333334,107.66439393939395,587.25,107.65568181818182C589.6666666666666,107.64696969696969,592.0833333333334,107.63825757575756,594.5,107.62954545454545C596.9166666666666,107.62083333333334,599.3333333333334,107.61212121212121,601.75,107.6034090909091C604.1666666666666,107.59469696969698,606.5833333333334,107.58598484848484,609,107.57727272727273C611.4166666666666,107.56856060606061,613.8333333333334,107.55984848484849,616.25,107.55113636363637C618.6666666666666,107.54242424242426,621.0833333333334,107.53371212121213,623.5,107.525C625.9166666666666,107.51628787878788,628.3333333333334,107.50757575757576,630.75,107.49886363636364C633.1666666666666,107.49015151515151,635.5833333333334,107.48143939393938,638,107.47272727272727C640.4166666666666,107.46401515151516,642.8333333333334,107.45530303030303,645.25,107.44659090909092C647.6666666666666,107.4378787878788,650.0833333333334,107.42916666666667,652.5,107.42045454545455C654.9166666666666,107.41174242424242,657.3333333333334,107.4030303030303,659.75,107.39431818181818C662.1666666666666,107.38560606060605,664.5833333333334,107.37689393939394,667,107.36818181818181C669.4166666666666,107.35946969696968,671.8333333333334,107.35075757575756,674.25,107.34204545454544C676.6666666666666,107.33333333333333,679.0833333333334,107.32462121212122,681.5,107.3159090909091C683.9166666666666,107.30719696969699,686.3333333333334,107.29848484848486,688.75,107.28977272727273C691.1666666666666,107.2810606060606,693.5833333333334,107.2723484848485,696,107.26363636363637C698.4166666666666,107.25492424242424,700.8333333333334,107.24621212121212,703.25,107.2375C705.6666666666666,107.22878787878787,708.0833333333334,107.22007575757574,710.5,107.21136363636363C712.9166666666666,107.20265151515152,715.3333333333334,107.19393939393939,717.75,107.18522727272727C720.1666666666666,107.17651515151516,722.5833333333334,107.16780303030303,725,107.15909090909092C727.4166666666666,107.15037878787881,729.8333333333334,107.14166666666668,732.25,107.13295454545455C734.6666666666666,107.12424242424242,737.0833333333334,107.11553030303031,739.5,107.10681818181818C741.9166666666666,107.09810606060606,744.3333333333334,107.08939393939394,746.75,107.08068181818182C749.1666666666666,107.07196969696969,751.5833333333334,107.06325757575756,754,107.05454545454545C756.4166666666666,107.04583333333333,758.8333333333334,107.0371212121212,761.25,107.0284090909091C763.6666666666666,107.01969696969698,766.0833333333334,107.01098484848485,768.5,107.00227272727273C770.9166666666666,106.9935606060606,773.3333333333334,106.98484848484848,775.75,106.97613636363636C778.1666666666666,106.96742424242423,780.5833333333334,106.9587121212121,783,106.94999999999999C785.4166666666667,106.94128787878786,787.8333333333334,106.93257575757575,790.2500000000001,106.92386363636363C792.6666666666667,106.91515151515152,795.0833333333335,106.9064393939394,797.5000000000001,106.89772727272728C799.9166666666667,106.88901515151517,802.3333333333335,106.88030303030304,804.7500000000001,106.87159090909091C807.1666666666667,106.86287878787878,809.5833333333335,106.85416666666667,812.0000000000001,106.84545454545454C814.4166666666667,106.83674242424242,816.8333333333333,106.8280303030303,819.2499999999999,106.81931818181818C821.6666666666665,106.81060606060605,824.0833333333333,106.80189393939392,826.4999999999999,106.79318181818181C828.9166666666665,106.7844696969697,831.3333333333333,106.77575757575758,833.7499999999999,106.76704545454547C836.1666666666665,106.75833333333335,838.5833333333333,106.74962121212123,840.9999999999999,106.7409090909091C843.4166666666666,106.73219696969697,845.8333333333333,106.72348484848486,848.25,106.71477272727273C850.6666666666666,106.7060606060606,853.0833333333334,106.69734848484849,855.5,106.68863636363636C857.9166666666666,106.67992424242424,860.3333333333334,106.67121212121211,862.75,106.6625C865.1666666666666,106.65378787878788,867.5833333333334,106.64507575757575,870,106.63636363636364C872.4166666666666,106.62765151515153,874.8333333333334,106.6189393939394,877.25,106.61022727272727C879.6666666666666,106.60151515151514,882.0833333333334,106.59280303030303,884.5,106.5840909090909C886.9166666666666,106.57537878787878,889.3333333333334,106.56666666666665,891.75,106.55795454545454C894.1666666666666,106.54924242424242,896.5833333333334,106.5405303030303,899,106.53181818181818C901.4166666666666,106.52310606060607,903.8333333333334,106.51439393939393,906.25,106.50568181818181C908.6666666666666,106.4969696969697,911.0833333333334,106.48825757575757,913.5,106.47954545454546C915.9166666666666,106.47083333333335,918.3333333333334,106.46212121212122,920.75,106.45340909090909C923.1666666666666,106.44469696969696,925.5833333333334,106.43598484848484,928,106.42727272727272C930.4166666666666,106.41856060606061,932.8333333333334,106.40984848484848,935.25,106.40113636363637C937.6666666666666,106.39242424242425,940.0833333333334,106.38371212121211,942.5,106.375C944.9166666666666,106.36628787878789,947.3333333333334,106.35757575757576,949.75,106.34886363636365C952.1666666666666,106.34015151515153,954.5833333333334,106.3314393939394,957,106.32272727272728C959.4166666666666,106.31401515151515,961.8333333333334,106.30530303030304,964.25,106.29659090909091C966.6666666666667,106.28787878787878,969.0833333333334,106.27916666666667,971.5000000000001,106.27045454545454C973.9166666666667,106.26174242424241,976.3333333333335,106.25303030303029,978.7500000000001,106.24431818181817C981.1666666666667,106.23560606060606,983.5833333333335,106.22689393939393,986.0000000000001,106.21818181818182C988.4166666666667,106.2094696969697,990.8333333333335,106.20075757575758,993.2500000000001,106.19204545454545C995.6666666666667,106.18333333333334,998.0833333333333,106.17462121212121,1000.4999999999999,106.1659090909091C1002.9166666666665,106.15719696969697,1005.3333333333333,106.14848484848486,1007.7499999999999,106.13977272727273C1010.1666666666665,106.1310606060606,1012.5833333333333,106.12234848484849,1014.9999999999999,106.11363636363636C1017.4166666666665,106.10492424242423,1019.8333333333333,106.0962121212121,1022.2499999999999,106.08749999999999C1024.6666666666665,106.07878787878786,1027.0833333333333,106.07007575757576,1029.5,106.06136363636364C1031.9166666666667,106.05265151515152,1034.3333333333333,106.04393939393938,1036.75,106.03522727272727C1039.1666666666667,106.02651515151516,1041.5833333333333,106.01780303030303,1044,106.00909090909092C1046.4166666666667,106.0003787878788,1048.8333333333333,105.99166666666667,1051.25,105.98295454545455C1053.6666666666667,105.97424242424242,1056.0833333333333,105.96553030303029,1058.5,105.95681818181818C1060.9166666666667,105.94810606060607,1063.3333333333333,105.93939393939394,1065.75,105.93068181818182C1068.1666666666667,105.92196969696971,1070.5833333333333,105.91325757575758,1073,105.90454545454546C1075.4166666666667,105.89583333333333,1077.8333333333333,105.88712121212122,1080.25,105.87840909090909C1082.6666666666667,105.86969696969696,1085.0833333333333,105.86098484848483,1087.5,105.85227272727272C1089.9166666666667,105.8435606060606,1092.3333333333333,105.83484848484848,1094.75,105.82613636363637C1097.1666666666667,105.81742424242425,1099.5833333333333,105.80871212121212,1102,105.80000000000001C1104.4166666666667,105.7912878787879,1106.8333333333333,105.78257575757577,1109.25,105.77386363636364C1111.6666666666667,105.76515151515152,1114.0833333333333,105.7564393939394,1116.5,105.74772727272727C1118.9166666666667,105.73901515151515,1121.3333333333333,105.73030303030303,1123.75,105.7215909090909C1126.1666666666667,105.71287878787878,1128.5833333333333,105.70416666666665,1131,105.69545454545454C1133.4166666666667,105.68674242424242,1135.8333333333333,105.6780303030303,1138.25,105.66931818181818C1140.6666666666667,105.66060606060607,1143.0833333333333,105.65189393939394,1145.5,105.64318181818183C1147.9166666666667,105.63446969696972,1150.3333333333333,105.62575757575759,1152.75,105.61704545454546C1155.1666666666667,105.60833333333333,1157.5833333333333,105.60833333333333,1160,105.5909090909091C1162.4166666666667,105.57348484848485,1164.8333333333333,104.07499999999999,1167.25,103.31704545454545C1169.6666666666667,102.55909090909091,1172.0833333333333,101.80113636363637,1174.5,101.04318181818182C1176.9166666666667,100.28522727272727,1179.3333333333333,99.52727272727273,1181.75,98.76931818181818C1184.1666666666667,98.01136363636363,1186.5833333333333,97.25340909090909,1189,96.49545454545455C1191.4166666666667,95.73750000000001,1193.8333333333333,94.97954545454544,1196.25,94.2215909090909C1198.6666666666667,93.46363636363637,1201.0833333333333,92.70568181818183,1203.5,91.94772727272728C1205.9166666666667,91.18977272727273,1208.3333333333333,90.43181818181819,1210.75,89.67386363636363C1213.1666666666667,88.91590909090908,1215.5833333333333,88.15795454545454,1218,87.4C1220.4166666666667,86.64204545454547,1222.8333333333333,85.8840909090909,1225.25,85.12613636363636C1227.6666666666667,84.36818181818182,1230.0833333333333,83.61022727272729,1232.5,82.85227272727273C1234.9166666666667,82.09431818181818,1237.3333333333333,81.33636363636364,1239.75,80.57840909090909C1242.1666666666667,79.82045454545454,1244.5833333333333,79.0625,1247,78.30454545454545C1249.4166666666667,77.5465909090909,1251.8333333333333,76.78863636363636,1254.25,76.03068181818182C1256.6666666666667,75.27272727272728,1259.0833333333333,74.51477272727271,1261.5,73.75681818181818C1263.9166666666667,72.99886363636364,1266.3333333333333,72.2409090909091,1268.75,71.48295454545455C1271.1666666666667,70.725,1273.5833333333333,69.96704545454546,1276,69.2090909090909C1278.4166666666667,68.45113636363635,1280.8333333333333,67.69318181818181,1283.25,66.93522727272727C1285.6666666666667,66.17727272727274,1288.0833333333333,65.41931818181818,1290.5,64.66136363636363C1292.9166666666667,63.903409090909086,1295.3333333333333,63.14545454545454,1297.75,62.387499999999996C1300.1666666666667,61.62954545454545,1302.5833333333333,60.871590909090905,1305,60.11363636363636C1307.4166666666667,59.355681818181814,1309.8333333333333,58.59772727272727,1312.25,57.839772727272724C1314.6666666666667,57.08181818181818,1317.0833333333333,56.32386363636363,1319.5,55.56590909090909C1321.9166666666667,54.80795454545454,1324.3333333333333,54.05,1326.75,53.29204545454545C1329.1666666666667,52.53409090909091,1331.5833333333333,51.776136363636375,1334,51.01818181818183C1336.4166666666667,50.260227272727285,1338.8333333333333,49.502272727272725,1341.25,48.74431818181818C1343.6666666666667,47.986363636363635,1346.0833333333333,47.228409090909096,1348.5,46.47045454545455C1350.9166666666667,45.712500000000006,1353.3333333333333,44.95454545454545,1355.75,44.19659090909091C1358.1666666666667,43.43863636363636,1360.5833333333333,42.680681818181824,1363,41.92272727272728C1365.4166666666667,41.164772727272734,1367.8333333333333,40.406818181818174,1370.25,39.64886363636363C1372.6666666666667,38.89090909090908,1375.0833333333333,38.13295454545454,1377.5,37.37499999999999C1379.9166666666667,36.61704545454545,1382.3333333333333,35.85909090909092,1384.75,35.10113636363637C1387.1666666666667,34.343181818181826,1389.5833333333333,33.585227272727266,1392,32.82727272727272C1394.4166666666667,32.069318181818176,1396.8333333333333,31.311363636363645,1399.25,30.5534090909091C1401.6666666666667,29.795454545454554,1404.0833333333333,29.037499999999994,1406.5,28.27954545454545C1408.9166666666667,27.521590909090904,1411.3333333333333,26.763636363636365,1413.75,26.005681818181824C1416.1666666666667,25.247727272727282,1418.5833333333333,24.489772727272737,1421,23.731818181818188C1423.4166666666667,22.97386363636364,1425.8333333333333,22.215909090909083,1428.25,21.457954545454538C1430.6666666666667,20.699999999999992,1433.0833333333333,19.94204545454546,1435.5,19.184090909090916C1437.9166666666667,18.42613636363637,1440.3333333333333,17.66818181818181,1442.75,16.910227272727266C1445.1666666666667,16.15227272727272,1447.5833333333333,15.39431818181818,1450,14.636363636363642" fill="transparent" stroke-linecap="round" stroke="#E7C6DF" stroke-width="2"></path><g class="visx-group visx-axis visx-axis-bottom" transform="translate(0, 115)"><g class="visx-group visx-axis-tick" transform="translate(0, 0)"><line class="visx-line" x1="0" y1="0" x2="0" y2="8" fill="transparent" shape-rendering="crispEdges" stroke="#000" stroke-width="0" stroke-linecap="square"></line><svg x="0" y="0" font-size="10" style="overflow:visible"><text transform="" x="0" y="18" fill="#000" font-size="10" text-anchor="middle"><tspan x="0" dy="0em">0%</tspan></text></svg></g><g class="visx-group visx-axis-tick" transform="translate(0, 0)"><line class="visx-line" x1="362.5" y1="0" x2="362.5" y2="8" fill="transparent" shape-rendering="crispEdges" stroke="#000" stroke-width="0" stroke-linecap="square"></line><svg x="0" y="0" font-size="10" style="overflow:visible"><text transform="" x="362.5" y="18" fill="#000" font-size="10" text-anchor="middle"><tspan x="362.5" dy="0em">25%</tspan></text></svg></g><g class="visx-group visx-axis-tick" transform="translate(0, 0)"><line class="visx-line" x1="725" y1="0" x2="725" y2="8" fill="transparent" shape-rendering="crispEdges" stroke="#000" stroke-width="0" stroke-linecap="square"></line><svg x="0" y="0" font-size="10" style="overflow:visible"><text transform="" x="725" y="18" fill="#000" font-size="10" text-anchor="middle"><tspan x="725" dy="0em">50%</tspan></text></svg></g><g class="visx-group visx-axis-tick" transform="translate(0, 0)"><line class="visx-line" x1="1087.5" y1="0" x2="1087.5" y2="8" fill="transparent" shape-rendering="crispEdges" stroke="#000" stroke-width="0" stroke-linecap="square"></line><svg x="0" y="0" font-size="10" style="overflow:visible"><text transform="" x="1087.5" y="18" fill="#000" font-size="10" text-anchor="middle"><tspan x="1087.5" dy="0em">75%</tspan></text></svg></g><g class="visx-group visx-axis-tick" transform="translate(0, 0)"><line class="visx-line" x1="1450" y1="0" x2="1450" y2="8" fill="transparent" shape-rendering="crispEdges" stroke="#000" stroke-width="0" stroke-linecap="square"></line><svg x="0" y="0" font-size="10" style="overflow:visible"><text transform="" x="1450" y="18" fill="#000" font-size="10" text-anchor="middle"><tspan x="1450" dy="0em">100%</tspan></text></svg></g><line class="visx-line visx-axis-line" x1="0.5" y1="0" x2="1450.5" y2="0" fill="transparent" shape-rendering="crispEdges" stroke="#222" stroke-width="0"></line></g><g class="visx-group visx-axis visx-axis-left" transform="translate(0, 0)"><g class="visx-group visx-axis-tick" transform="translate(0, 0)"><line class="visx-line" x1="0" y1="115" x2="-8" y2="115" fill="transparent" shape-rendering="crispEdges" stroke="#222" stroke-width="0" stroke-linecap="square"></line><svg x="-30" y="0" font-size="8" style="overflow:visible"><text transform="" x="-8" y="115" fill="#000" font-size="8" text-anchor="start"><tspan x="-8" dy="0em">0%</tspan></text></svg></g><g class="visx-group visx-axis-tick" transform="translate(0, 0)"><line class="visx-line" x1="0" y1="62.72727272727272" x2="-8" y2="62.72727272727272" fill="transparent" shape-rendering="crispEdges" stroke="#222" stroke-width="0" stroke-linecap="square"></line><svg x="-30" y="0" font-size="8" style="overflow:visible"><text transform="" x="-8" y="62.72727272727272" fill="#000" font-size="8" text-anchor="start"><tspan x="-8" dy="0em">50%</tspan></text></svg></g><g class="visx-group visx-axis-tick" transform="translate(0, 0)"><line class="visx-line" x1="0" y1="10.454545454545459" x2="-8" y2="10.454545454545459" fill="transparent" shape-rendering="crispEdges" stroke="#222" stroke-width="0" stroke-linecap="square"></line><svg x="-30" y="0" font-size="8" style="overflow:visible"><text transform="" x="-8" y="10.454545454545459" fill="#000" font-size="8" text-anchor="start"><tspan x="-8" dy="0em">100%</tspan></text></svg></g><line class="visx-line visx-axis-line" x1="0" y1="115.5" x2="0" y2="0.5" fill="transparent" shape-rendering="crispEdges" stroke="#222" stroke-width="0"></line></g><rect class="visx-bar" width="1450" height="115" fill="transparent"></rect><line class="visx-line" x1="1160" y1="28" x2="1160" y2="115" fill="transparent" shape-rendering="crispEdges" stroke="#0062D2" stroke-width="1" pointer-events="none" stroke-dasharray="5,2"></line><svg x="0" y="0" font-size="10px" style="overflow:visible"><text transform="" x="1160" y="20" font-size="10px" fill="#fff" stroke="#fff" stroke-width="0.8em" text-anchor="middle"><tspan x="1160" dy="0.355em">Optimal 80%</tspan></text></svg><svg x="0" y="0" font-size="10px" style="overflow:visible"><text transform="" x="1160" y="20" font-size="10px" fill="#62677B" text-anchor="middle"><tspan x="1160" dy="0.355em">Optimal 80%</tspan></text></svg></g></svg>