<?xml version="1.0"?><svg xmlns="http://www.w3.org/2000/svg" xmlns:xlink= "http://www.w3.org/1999/xlink" style="background: white;" width="1500" height="300"> <g style="color: black; font-size: 13px; font-family: sans-serif; transform: translate(18px, 25px);"><g><circle r="3" cx="-6" cy="-5" style="fill: #1AD4B3" /><text>Borrow APR, variable</text></g><g style="transform: translateX(150px);"><circle r="3" cx="-6" cy="-5" style="fill: #101423" /><text>Borrow APR, stable</text></g></g><g class="visx-group" transform="translate(45, 50)"><g class="visx-group visx-rows" transform="translate(0, 0)"><line class="visx-line" x1="0" y1="155" x2="1425" y2="155" fill="transparent" shape-rendering="crispEdges" stroke="#F2F0F9" stroke-width="1" pointer-events="none"></line><line class="visx-line" x1="0" y1="84.54545454545453" x2="1425" y2="84.54545454545453" fill="transparent" shape-rendering="crispEdges" stroke="#F2F0F9" stroke-width="1" pointer-events="none"></line><line class="visx-line" x1="0" y1="14.090909090909095" x2="1425" y2="14.090909090909095" fill="transparent" shape-rendering="crispEdges" stroke="#F2F0F9" stroke-width="1" pointer-events="none"></line></g><path class="visx-linepath" d="M0,14.090909090909095C2.375,14.090909090909095,4.75,14.090909090909095,7.125,14.090909090909095C9.5,14.090909090909095,11.875,14.090909090909095,14.25,14.090909090909095C16.625,14.090909090909095,19,14.090909090909095,21.375,14.090909090909095C23.75,14.090909090909095,26.125,14.090909090909095,28.5,14.090909090909095C30.875,14.090909090909095,33.25,14.090909090909095,35.625,14.090909090909095C38,14.090909090909095,40.375,14.090909090909095,42.75,14.090909090909095C45.125,14.090909090909095,47.50000000000001,14.090909090909095,49.87500000000001,14.090909090909095C52.25000000000001,14.090909090909095,54.625,14.090909090909095,57,14.090909090909095C59.375,14.090909090909095,61.75,14.090909090909095,64.125,14.090909090909095C66.5,14.090909090909095,68.875,14.090909090909095,71.25,14.090909090909095C73.625,14.090909090909095,76,14.090909090909095,78.375,14.090909090909095C80.75,14.090909090909095,83.125,14.090909090909095,85.5,14.090909090909095C87.875,14.090909090909095,90.25,14.090909090909095,92.625,14.090909090909095C95,14.090909090909095,97.37500000000001,14.090909090909095,99.75000000000001,14.090909090909095C102.12500000000001,14.090909090909095,104.5,14.090909090909095,106.875,14.090909090909095C109.25,14.090909090909095,111.625,14.090909090909095,114,14.090909090909095C116.375,14.090909090909095,118.75000000000001,14.090909090909095,121.12500000000001,14.090909090909095C123.50000000000001,14.090909090909095,125.875,14.090909090909095,128.25,14.090909090909095C130.625,14.090909090909095,133,14.090909090909095,135.375,14.090909090909095C137.75,14.090909090909095,140.125,14.090909090909095,142.5,14.090909090909095C144.875,14.090909090909095,147.25,14.090909090909095,149.625,14.090909090909095C152,14.090909090909095,154.375,14.090909090909095,156.75,14.090909090909095C159.125,14.090909090909095,161.5,14.090909090909095,163.875,14.090909090909095C166.25,14.090909090909095,168.625,14.090909090909095,171,14.090909090909095C173.375,14.090909090909095,175.75,14.090909090909095,178.125,14.090909090909095C180.5,14.090909090909095,182.875,14.090909090909095,185.25,14.090909090909095C187.625,14.090909090909095,190,14.090909090909095,192.375,14.090909090909095C194.75,14.090909090909095,197.12500000000003,14.090909090909095,199.50000000000003,14.090909090909095C201.875,14.090909090909095,204.25,14.090909090909095,206.62499999999997,14.090909090909095C208.99999999999997,14.090909090909095,211.375,14.090909090909095,213.75,14.090909090909095C216.125,14.090909090909095,218.5,14.090909090909095,220.875,14.090909090909095C223.25,14.090909090909095,225.625,14.090909090909095,228,14.090909090909095C230.375,14.090909090909095,232.75,14.090909090909095,235.125,14.090909090909095C237.5,14.090909090909095,239.87500000000003,14.090909090909095,242.25000000000003,14.090909090909095C244.625,14.090909090909095,247,14.090909090909095,249.37499999999997,14.090909090909095C251.74999999999997,14.090909090909095,254.125,14.090909090909095,256.5,14.090909090909095C258.875,14.090909090909095,261.25,14.090909090909095,263.625,14.090909090909095C266,14.090909090909095,268.375,14.090909090909095,270.75,14.090909090909095C273.125,14.090909090909095,275.5,14.090909090909095,277.875,14.090909090909095C280.25,14.090909090909095,282.625,14.090909090909095,285,14.090909090909095C287.375,14.090909090909095,289.75,14.090909090909095,292.125,14.090909090909095C294.5,14.090909090909095,296.875,14.090909090909095,299.25,14.090909090909095C301.625,14.090909090909095,304,14.090909090909095,306.375,14.090909090909095C308.75,14.090909090909095,311.125,14.090909090909095,313.5,14.090909090909095C315.875,14.090909090909095,318.25,14.090909090909095,320.625,14.090909090909095C323,14.090909090909095,325.375,14.090909090909095,327.75,14.090909090909095C330.125,14.090909090909095,332.5,14.090909090909095,334.875,14.090909090909095C337.25,14.090909090909095,339.625,14.090909090909095,342,14.090909090909095C344.375,14.090909090909095,346.75,14.090909090909095,349.125,14.090909090909095C351.5,14.090909090909095,353.875,14.090909090909095,356.25,14.090909090909095C358.625,14.090909090909095,361,14.090909090909095,363.375,14.090909090909095C365.75,14.090909090909095,368.125,14.090909090909095,370.5,14.090909090909095C372.875,14.090909090909095,375.25,14.090909090909095,377.625,14.090909090909095C380,14.090909090909095,382.375,14.090909090909095,384.75,14.090909090909095C387.125,14.090909090909095,389.50000000000006,14.090909090909095,391.87500000000006,14.090909090909095C394.25000000000006,14.090909090909095,396.62500000000006,14.090909090909095,399.00000000000006,14.090909090909095C401.375,14.090909090909095,403.75,14.090909090909095,406.12499999999994,14.090909090909095C408.49999999999994,14.090909090909095,410.87499999999994,14.090909090909095,413.24999999999994,14.090909090909095C415.62499999999994,14.090909090909095,418,14.090909090909095,420.375,14.090909090909095C422.75,14.090909090909095,425.125,14.090909090909095,427.5,14.090909090909095C429.875,14.090909090909095,432.25,14.090909090909095,434.625,14.090909090909095C437,14.090909090909095,439.375,14.090909090909095,441.75,14.090909090909095C444.125,14.090909090909095,446.5,14.090909090909095,448.875,14.090909090909095C451.25,14.090909090909095,453.625,14.090909090909095,456,14.090909090909095C458.375,14.090909090909095,460.75,14.090909090909095,463.125,14.090909090909095C465.5,14.090909090909095,467.875,14.090909090909095,470.25,14.090909090909095C472.625,14.090909090909095,475.00000000000006,14.090909090909095,477.37500000000006,14.090909090909095C479.75000000000006,14.090909090909095,482.12500000000006,14.090909090909095,484.50000000000006,14.090909090909095C486.875,14.090909090909095,489.25,14.090909090909095,491.62499999999994,14.090909090909095C493.99999999999994,14.090909090909095,496.37499999999994,14.090909090909095,498.74999999999994,14.090909090909095C501.12499999999994,14.090909090909095,503.5,14.090909090909095,505.875,14.090909090909095C508.25,14.090909090909095,510.625,14.090909090909095,513,14.090909090909095C515.375,14.090909090909095,517.75,14.090909090909095,520.125,14.090909090909095C522.5,14.090909090909095,524.875,14.090909090909095,527.25,14.090909090909095C529.625,14.090909090909095,532,14.090909090909095,534.375,14.090909090909095C536.75,14.090909090909095,539.125,14.090909090909095,541.5,14.090909090909095C543.875,14.090909090909095,546.25,14.090909090909095,548.625,14.090909090909095C551,14.090909090909095,553.375,14.090909090909095,555.75,14.090909090909095C558.125,14.090909090909095,560.5,14.090909090909095,562.875,14.090909090909095C565.25,14.090909090909095,567.625,14.090909090909095,570,14.090909090909095C572.375,14.090909090909095,574.75,14.090909090909095,577.125,14.090909090909095C579.5,14.090909090909095,581.875,14.090909090909095,584.25,14.090909090909095C586.625,14.090909090909095,589,14.090909090909095,591.375,14.090909090909095C593.75,14.090909090909095,596.125,14.090909090909095,598.5,14.090909090909095C600.875,14.090909090909095,603.25,14.090909090909095,605.625,14.090909090909095C608,14.090909090909095,610.375,14.090909090909095,612.75,14.090909090909095C615.125,14.090909090909095,617.5,14.090909090909095,619.875,14.090909090909095C622.25,14.090909090909095,624.625,14.090909090909095,627,14.090909090909095C629.375,14.090909090909095,631.75,14.090909090909095,634.125,14.090909090909095C636.5,14.090909090909095,638.875,14.090909090909095,641.25,14.090909090909095C643.625,14.090909090909095,646,14.090909090909095,648.375,14.090909090909095C650.75,14.090909090909095,653.125,14.090909090909095,655.5,14.090909090909095C657.875,14.090909090909095,660.25,14.090909090909095,662.625,14.090909090909095C665,14.090909090909095,667.375,14.090909090909095,669.75,14.090909090909095C672.125,14.090909090909095,674.5,14.090909090909095,676.875,14.090909090909095C679.25,14.090909090909095,681.625,14.090909090909095,684,14.090909090909095C686.375,14.090909090909095,688.75,14.090909090909095,691.125,14.090909090909095C693.5,14.090909090909095,695.875,14.090909090909095,698.25,14.090909090909095C700.625,14.090909090909095,703,14.090909090909095,705.375,14.090909090909095C707.75,14.090909090909095,710.125,14.090909090909095,712.5,14.090909090909095C714.875,14.090909090909095,717.25,14.090909090909095,719.625,14.090909090909095C722,14.090909090909095,724.375,14.090909090909095,726.75,14.090909090909095C729.125,14.090909090909095,731.5,14.090909090909095,733.875,14.090909090909095C736.25,14.090909090909095,738.625,14.090909090909095,741,14.090909090909095C743.375,14.090909090909095,745.75,14.090909090909095,748.125,14.090909090909095C750.5,14.090909090909095,752.875,14.090909090909095,755.25,14.090909090909095C757.625,14.090909090909095,760,14.090909090909095,762.375,14.090909090909095C764.75,14.090909090909095,767.125,14.090909090909095,769.5,14.090909090909095C771.875,14.090909090909095,774.2500000000001,14.090909090909095,776.6250000000001,14.090909090909095C779.0000000000001,14.090909090909095,781.3750000000001,14.090909090909095,783.7500000000001,14.090909090909095C786.1250000000001,14.090909090909095,788.5000000000001,14.090909090909095,790.8750000000001,14.090909090909095C793.2500000000001,14.090909090909095,795.6250000000001,14.090909090909095,798.0000000000001,14.090909090909095C800.375,14.090909090909095,802.75,14.090909090909095,805.1249999999999,14.090909090909095C807.4999999999999,14.090909090909095,809.8749999999999,14.090909090909095,812.2499999999999,14.090909090909095C814.6249999999999,14.090909090909095,816.9999999999999,14.090909090909095,819.3749999999999,14.090909090909095C821.7499999999999,14.090909090909095,824.1249999999999,14.090909090909095,826.4999999999999,14.090909090909095C828.8749999999999,14.090909090909095,831.25,14.090909090909095,833.625,14.090909090909095C836,14.090909090909095,838.375,14.090909090909095,840.75,14.090909090909095C843.125,14.090909090909095,845.5,14.090909090909095,847.875,14.090909090909095C850.25,14.090909090909095,852.625,14.090909090909095,855,14.090909090909095C857.375,14.090909090909095,859.75,14.090909090909095,862.125,14.090909090909095C864.5,14.090909090909095,866.875,14.090909090909095,869.25,14.090909090909095C871.625,14.090909090909095,874,14.090909090909095,876.375,14.090909090909095C878.75,14.090909090909095,881.125,14.090909090909095,883.5,14.090909090909095C885.875,14.090909090909095,888.25,14.090909090909095,890.625,14.090909090909095C893,14.090909090909095,895.375,14.090909090909095,897.75,14.090909090909095C900.125,14.090909090909095,902.5,14.090909090909095,904.875,14.090909090909095C907.25,14.090909090909095,909.625,14.090909090909095,912,14.090909090909095C914.375,14.090909090909095,916.75,14.090909090909095,919.125,14.090909090909095C921.5,14.090909090909095,923.875,14.090909090909095,926.25,14.090909090909095C928.625,14.090909090909095,931,14.090909090909095,933.375,14.090909090909095C935.75,14.090909090909095,938.125,14.090909090909095,940.5,14.090909090909095C942.875,14.090909090909095,945.25,14.090909090909095,947.625,14.090909090909095C950,14.090909090909095,952.3750000000001,14.090909090909095,954.7500000000001,14.090909090909095C957.1250000000001,14.090909090909095,959.5000000000001,14.090909090909095,961.8750000000001,14.090909090909095C964.2500000000001,14.090909090909095,966.6250000000001,14.090909090909095,969.0000000000001,14.090909090909095C971.3750000000001,14.090909090909095,973.7500000000001,14.090909090909095,976.1250000000001,14.090909090909095C978.5,14.090909090909095,980.875,14.090909090909095,983.2499999999999,14.090909090909095C985.6249999999999,14.090909090909095,987.9999999999999,14.090909090909095,990.3749999999999,14.090909090909095C992.7499999999999,14.090909090909095,995.1249999999999,14.090909090909095,997.4999999999999,14.090909090909095C999.8749999999999,14.090909090909095,1002.2499999999999,14.090909090909095,1004.6249999999999,14.090909090909095C1006.9999999999999,14.090909090909095,1009.375,14.090909090909095,1011.75,14.090909090909095C1014.125,14.090909090909095,1016.5,14.090909090909095,1018.875,14.090909090909095C1021.25,14.090909090909095,1023.625,14.090909090909095,1026,14.090909090909095C1028.375,14.090909090909095,1030.75,14.090909090909095,1033.125,14.090909090909095C1035.5,14.090909090909095,1037.875,14.090909090909095,1040.25,14.090909090909095C1042.625,14.090909090909095,1045,14.090909090909095,1047.375,14.090909090909095C1049.75,14.090909090909095,1052.125,14.090909090909095,1054.5,14.090909090909095C1056.875,14.090909090909095,1059.25,14.090909090909095,1061.625,14.090909090909095C1064,14.090909090909095,1066.375,14.090909090909095,1068.75,14.090909090909095C1071.125,14.090909090909095,1073.5,14.090909090909095,1075.875,14.090909090909095C1078.25,14.090909090909095,1080.625,14.090909090909095,1083,14.090909090909095C1085.375,14.090909090909095,1087.75,14.090909090909095,1090.125,14.090909090909095C1092.5,14.090909090909095,1094.875,14.090909090909095,1097.25,14.090909090909095C1099.625,14.090909090909095,1102,14.090909090909095,1104.375,14.090909090909095C1106.75,14.090909090909095,1109.125,14.090909090909095,1111.5,14.090909090909095C1113.875,14.090909090909095,1116.25,14.090909090909095,1118.625,14.090909090909095C1121,14.090909090909095,1123.375,14.090909090909095,1125.75,14.090909090909095C1128.125,14.090909090909095,1130.5,14.090909090909095,1132.875,14.090909090909095C1135.25,14.090909090909095,1137.625,14.090909090909095,1140,14.090909090909095C1142.375,14.090909090909095,1144.75,14.090909090909095,1147.125,14.090909090909095C1149.5,14.090909090909095,1151.875,14.090909090909095,1154.25,14.090909090909095C1156.625,14.090909090909095,1159,14.090909090909095,1161.375,14.090909090909095C1163.75,14.090909090909095,1166.125,14.090909090909095,1168.5,14.090909090909095C1170.875,14.090909090909095,1173.25,14.090909090909095,1175.625,14.090909090909095C1178,14.090909090909095,1180.375,14.090909090909095,1182.75,14.090909090909095C1185.125,14.090909090909095,1187.5,14.090909090909095,1189.875,14.090909090909095C1192.25,14.090909090909095,1194.625,14.090909090909095,1197,14.090909090909095C1199.375,14.090909090909095,1201.75,14.090909090909095,1204.125,14.090909090909095C1206.5,14.090909090909095,1208.875,14.090909090909095,1211.25,14.090909090909095C1213.625,14.090909090909095,1216,14.090909090909095,1218.375,14.090909090909095C1220.75,14.090909090909095,1223.125,14.090909090909095,1225.5,14.090909090909095C1227.875,14.090909090909095,1230.25,14.090909090909095,1232.625,14.090909090909095C1235,14.090909090909095,1237.375,14.090909090909095,1239.75,14.090909090909095C1242.125,14.090909090909095,1244.5,14.090909090909095,1246.875,14.090909090909095C1249.25,14.090909090909095,1251.625,14.090909090909095,1254,14.090909090909095C1256.375,14.090909090909095,1258.75,14.090909090909095,1261.125,14.090909090909095C1263.5,14.090909090909095,1265.875,14.090909090909095,1268.25,14.090909090909095C1270.625,14.090909090909095,1273,14.090909090909095,1275.375,14.090909090909095C1277.75,14.090909090909095,1280.125,14.090909090909095,1282.5,14.090909090909095C1284.875,14.090909090909095,1287.25,14.090909090909095,1289.625,14.090909090909095C1292,14.090909090909095,1294.375,14.090909090909095,1296.75,14.090909090909095C1299.125,14.090909090909095,1301.5,14.090909090909095,1303.875,14.090909090909095C1306.25,14.090909090909095,1308.625,14.090909090909095,1311,14.090909090909095C1313.375,14.090909090909095,1315.75,14.090909090909095,1318.125,14.090909090909095C1320.5,14.090909090909095,1322.875,14.090909090909095,1325.25,14.090909090909095C1327.625,14.090909090909095,1330,14.090909090909095,1332.375,14.090909090909095C1334.75,14.090909090909095,1337.125,14.090909090909095,1339.5,14.090909090909095C1341.875,14.090909090909095,1344.25,14.090909090909095,1346.625,14.090909090909095C1349,14.090909090909095,1351.375,14.090909090909095,1353.75,14.090909090909095C1356.125,14.090909090909095,1358.5,14.090909090909095,1360.875,14.090909090909095C1363.25,14.090909090909095,1365.625,14.090909090909095,1368,14.090909090909095C1370.375,14.090909090909095,1372.75,14.090909090909095,1375.125,14.090909090909095C1377.5,14.090909090909095,1379.875,14.090909090909095,1382.25,14.090909090909095C1384.625,14.090909090909095,1387,14.090909090909095,1389.375,14.090909090909095C1391.75,14.090909090909095,1394.125,14.090909090909095,1396.5,14.090909090909095C1398.875,14.090909090909095,1401.25,14.090909090909095,1403.625,14.090909090909095C1406,14.090909090909095,1408.375,14.090909090909095,1410.75,14.090909090909095C1413.125,14.090909090909095,1415.5,14.090909090909095,1417.875,14.090909090909095C1420.25,14.090909090909095,1422.625,14.090909090909095,1425,14.090909090909095" fill="transparent" stroke-linecap="round" stroke="#1AD4B3" stroke-width="2"></path><g class="visx-group visx-axis visx-axis-bottom" transform="translate(0, 155)"><g class="visx-group visx-axis-tick" transform="translate(0, 0)"><line class="visx-line" x1="0" y1="0" x2="0" y2="8" fill="transparent" shape-rendering="crispEdges" stroke="#F2F0F9" stroke-width="1" stroke-linecap="square"></line><svg x="0" y="0" font-size="11" style="overflow:visible"><text transform="" x="0" y="19" fill="#1B2030" font-size="11" text-anchor="middle"><tspan x="0" dy="0em">0%</tspan></text></svg></g><g class="visx-group visx-axis-tick" transform="translate(0, 0)"><line class="visx-line" x1="356.25" y1="0" x2="356.25" y2="8" fill="transparent" shape-rendering="crispEdges" stroke="#F2F0F9" stroke-width="1" stroke-linecap="square"></line><svg x="0" y="0" font-size="11" style="overflow:visible"><text transform="" x="356.25" y="19" fill="#1B2030" font-size="11" text-anchor="middle"><tspan x="356.25" dy="0em">25%</tspan></text></svg></g><g class="visx-group visx-axis-tick" transform="translate(0, 0)"><line class="visx-line" x1="712.5" y1="0" x2="712.5" y2="8" fill="transparent" shape-rendering="crispEdges" stroke="#F2F0F9" stroke-width="1" stroke-linecap="square"></line><svg x="0" y="0" font-size="11" style="overflow:visible"><text transform="" x="712.5" y="19" fill="#1B2030" font-size="11" text-anchor="middle"><tspan x="712.5" dy="0em">50%</tspan></text></svg></g><g class="visx-group visx-axis-tick" transform="translate(0, 0)"><line class="visx-line" x1="1068.75" y1="0" x2="1068.75" y2="8" fill="transparent" shape-rendering="crispEdges" stroke="#F2F0F9" stroke-width="1" stroke-linecap="square"></line><svg x="0" y="0" font-size="11" style="overflow:visible"><text transform="" x="1068.75" y="19" fill="#1B2030" font-size="11" text-anchor="middle"><tspan x="1068.75" dy="0em">75%</tspan></text></svg></g><g class="visx-group visx-axis-tick" transform="translate(0, 0)"><line class="visx-line" x1="1425" y1="0" x2="1425" y2="8" fill="transparent" shape-rendering="crispEdges" stroke="#F2F0F9" stroke-width="1" stroke-linecap="square"></line><svg x="0" y="0" font-size="11" style="overflow:visible"><text transform="" x="1425" y="19" fill="#1B2030" font-size="11" text-anchor="middle"><tspan x="1425" dy="0em">100%</tspan></text></svg></g></g><g class="visx-group visx-axis visx-axis-left" transform="translate(0, 0)"><g class="visx-group visx-axis-tick" transform="translate(0, 0)"><line class="visx-line" x1="0" y1="155" x2="-8" y2="155" fill="transparent" shape-rendering="crispEdges" stroke="#F2F0F9" stroke-width="1" stroke-linecap="square"></line><svg x="-30" y="0" font-size="11" style="overflow:visible"><text transform="" x="-8" y="155" fill="#1B2030" font-size="11" text-anchor="start"><tspan x="-8" dy="0em">0%</tspan></text></svg></g><g class="visx-group visx-axis-tick" transform="translate(0, 0)"><line class="visx-line" x1="0" y1="84.54545454545453" x2="-8" y2="84.54545454545453" fill="transparent" shape-rendering="crispEdges" stroke="#F2F0F9" stroke-width="1" stroke-linecap="square"></line><svg x="-30" y="0" font-size="11" style="overflow:visible"><text transform="" x="-8" y="84.54545454545453" fill="#1B2030" font-size="11" text-anchor="start"><tspan x="-8" dy="0em">5%</tspan></text></svg></g><g class="visx-group visx-axis-tick" transform="translate(0, 0)"><line class="visx-line" x1="0" y1="14.090909090909095" x2="-8" y2="14.090909090909095" fill="transparent" shape-rendering="crispEdges" stroke="#F2F0F9" stroke-width="1" stroke-linecap="square"></line><svg x="-30" y="0" font-size="11" style="overflow:visible"><text transform="" x="-8" y="14.090909090909095" fill="#1B2030" font-size="11" text-anchor="start"><tspan x="-8" dy="0em">10%</tspan></text></svg></g><line class="visx-line visx-axis-line" x1="0" y1="155.5" x2="0" y2="0.5" fill="transparent" shape-rendering="crispEdges" stroke="#F2F0F9" stroke-width="1"></line></g><rect class="visx-bar" width="1425" height="155" fill="transparent"></rect><line class="visx-line" x1="14.25" y1="58" x2="14.25" y2="155" fill="transparent" shape-rendering="crispEdges" stroke="#CDC8E1" stroke-width="1" pointer-events="none" stroke-dasharray="5"></line><svg x="0" y="0" font-size="11px" style="overflow:visible"><text transform="" x="14.25" y="50" font-size="11px" fill="#555069" stroke="#FFFFFF" stroke-width="1px" text-anchor="middle"><tspan x="14.25" dy="0.355em">Optimal utilization 1%</tspan></text></svg><svg x="0" y="0" font-size="11px" style="overflow:visible"><text transform="" x="14.25" y="50" font-size="11px" fill="#CDC8E1" text-anchor="middle"><tspan x="14.25" dy="0.355em">Optimal utilization 1%</tspan></text></svg></g></svg>