<?xml version="1.0"?><svg xmlns="http://www.w3.org/2000/svg" xmlns:xlink= "http://www.w3.org/1999/xlink" style="background: white;" width="1500" height="185"> <g style="color: black; font-size: 13px; font-family: sans-serif; transform: translate(18px, 25px);"><g><circle r="3" cx="-6" cy="-5" style="fill: #B6509E" /><text>Borrow APR, variable</text></g><g style="transform: translateX(150px);"><circle r="3" cx="-6" cy="-5" style="fill: rgb(231, 198, 223)" /><text>Borrow APR, stable</text></g><g style="transform: translateX(290px);"><circle r="3" cx="-6" cy="-5" style="fill: rgb(0, 98, 210)" /><text>Utilization Rate</text></g></g><g class="visx-group" transform="translate(40, 50)"><g class="visx-group visx-rows" transform="translate(0, 0)"><line class="visx-line" x1="0" y1="115" x2="1450" y2="115" fill="transparent" shape-rendering="crispEdges" stroke="#000" stroke-width="1" stroke-dasharray="3,3" pointer-events="none"></line><line class="visx-line" x1="0" y1="83.05555555555556" x2="1450" y2="83.05555555555556" fill="transparent" shape-rendering="crispEdges" stroke="#000" stroke-width="1" stroke-dasharray="3,3" pointer-events="none"></line><line class="visx-line" x1="0" y1="51.11111111111111" x2="1450" y2="51.11111111111111" fill="transparent" shape-rendering="crispEdges" stroke="#000" stroke-width="1" stroke-dasharray="3,3" pointer-events="none"></line><line class="visx-line" x1="0" y1="19.16666666666666" x2="1450" y2="19.16666666666666" fill="transparent" shape-rendering="crispEdges" stroke="#000" stroke-width="1" stroke-dasharray="3,3" pointer-events="none"></line></g><path class="visx-linepath" d="M0,114.84027777772098C2.4166666666666665,114.83081275716852,4.833333333333334,114.82134773661605,7.25,114.81188271604938C9.666666666666666,114.80241769548272,12.083333333333334,114.79295267489712,14.5,114.783487654321C16.916666666666668,114.77402263374486,19.333333333333332,114.76455761316873,21.75,114.7550925925926C24.166666666666668,114.74562757201647,26.583333333333332,114.73616255144033,29,114.7266975308642C31.416666666666668,114.71723251028807,33.833333333333336,114.70776748971194,36.25,114.69830246913581C38.666666666666664,114.68883744855968,41.083333333333336,114.67937242798354,43.5,114.66990740740741C45.91666666666667,114.66044238683128,48.333333333333336,114.65097736625515,50.75000000000001,114.64151234567902C53.16666666666667,114.63204732510289,55.583333333333336,114.62258230452676,58,114.61311728395063C60.416666666666664,114.6036522633745,62.833333333333336,114.59418724279836,65.25,114.58472222222223C67.66666666666667,114.5752572016461,70.08333333333333,114.56579218106997,72.5,114.55632716049384C74.91666666666667,114.5468621399177,77.33333333333333,114.53739711934156,79.75,114.52793209876543C82.16666666666667,114.5184670781893,84.58333333333333,114.50900205761317,87,114.49953703703704C89.41666666666667,114.49007201646091,91.83333333333333,114.48060699588477,94.25,114.47114197530864C96.66666666666667,114.46167695473251,99.08333333333334,114.45221193415638,101.50000000000001,114.44274691358025C103.91666666666667,114.43328189300412,106.33333333333334,114.42381687242799,108.75,114.41435185185186C111.16666666666667,114.40488683127573,113.58333333333333,114.39542181069959,116,114.38595679012346C118.41666666666667,114.37649176954733,120.83333333333334,114.3670267489712,123.25000000000001,114.35756172839507C125.66666666666667,114.34809670781894,128.08333333333334,114.3386316872428,130.5,114.32916666666667C132.91666666666666,114.31970164609054,135.33333333333334,114.3102366255144,137.75,114.30077160493828C140.16666666666666,114.29130658436215,142.58333333333334,114.281841563786,145,114.27237654320987C147.41666666666666,114.26291152263374,149.83333333333334,114.25344650205761,152.25,114.24398148148148C154.66666666666666,114.23451646090535,157.08333333333334,114.22505144032921,159.5,114.21558641975308C161.91666666666666,114.20612139917695,164.33333333333334,114.19665637860082,166.75,114.18719135802469C169.16666666666666,114.17772633744856,171.58333333333334,114.16826131687243,174,114.1587962962963C176.41666666666666,114.14933127572017,178.83333333333334,114.13986625514403,181.25,114.1304012345679C183.66666666666666,114.12093621399177,186.08333333333334,114.11147119341564,188.5,114.10200617283951C190.91666666666666,114.09254115226338,193.33333333333334,114.08307613168724,195.75,114.0736111111111C198.16666666666669,114.06414609053498,200.58333333333334,114.05468106995885,203.00000000000003,114.04521604938272C205.41666666666669,114.03575102880659,207.83333333333331,114.02628600823044,210.24999999999997,114.01682098765431C212.66666666666666,114.00735596707818,215.08333333333331,113.99789094650205,217.5,113.98842592592592C219.91666666666666,113.9789609053498,222.33333333333334,113.96949588477366,224.75,113.96003086419753C227.16666666666666,113.9505658436214,229.58333333333334,113.94110082304526,232,113.93163580246913C234.41666666666666,113.922170781893,236.83333333333334,113.91270576131687,239.25,113.90324074074074C241.66666666666669,113.89377572016461,244.08333333333334,113.88431069958847,246.50000000000003,113.87484567901234C248.91666666666669,113.86538065843621,251.33333333333331,113.85591563786008,253.74999999999997,113.84645061728395C256.16666666666663,113.83698559670782,258.5833333333333,113.82752057613168,261,113.81805555555555C263.4166666666667,113.80859053497942,265.8333333333333,113.79912551440329,268.25,113.78966049382716C270.6666666666667,113.78019547325103,273.0833333333333,113.7707304526749,275.5,113.76126543209877C277.9166666666667,113.75180041152264,280.3333333333333,113.7423353909465,282.75,113.73287037037036C285.1666666666667,113.72340534979423,287.5833333333333,113.7139403292181,290,113.70447530864197C292.4166666666667,113.69501028806584,294.8333333333333,113.6855452674897,297.25,113.67608024691357C299.6666666666667,113.66661522633744,302.0833333333333,113.65715020576131,304.5,113.64768518518518C306.9166666666667,113.63822016460905,309.3333333333333,113.62875514403291,311.75,113.61929012345678C314.1666666666667,113.60982510288065,316.5833333333333,113.60036008230452,319,113.59089506172839C321.4166666666667,113.58143004115226,323.8333333333333,113.57196502057613,326.25,113.5625C328.6666666666667,113.55303497942387,331.0833333333333,113.54356995884773,333.5,113.5341049382716C335.9166666666667,113.52463991769547,338.3333333333333,113.51517489711934,340.75,113.50570987654321C343.1666666666667,113.49624485596708,345.5833333333333,113.48677983539093,348,113.4773148148148C350.4166666666667,113.46784979423867,352.8333333333333,113.45838477366254,355.25,113.44891975308641C357.6666666666667,113.43945473251028,360.0833333333333,113.42998971193416,362.5,113.42052469135803C364.9166666666667,113.4110596707819,367.3333333333333,113.40159465020577,369.75,113.39212962962964C372.1666666666667,113.3826646090535,374.5833333333333,113.37319958847738,377,113.36373456790125C379.4166666666667,113.35426954732512,381.8333333333333,113.34480452674897,384.25,113.33533950617284C386.6666666666667,113.32587448559671,389.0833333333333,113.31640946502058,391.5,113.30694444444445C393.9166666666667,113.29747942386832,396.33333333333337,113.28801440329218,398.75000000000006,113.27854938271605C401.16666666666674,113.26908436213992,403.58333333333337,113.25961934156379,406.00000000000006,113.25015432098766C408.4166666666667,113.24068930041153,410.8333333333333,113.23122427983539,413.24999999999994,113.22175925925926C415.66666666666663,113.21229423868313,418.08333333333326,113.202829218107,420.49999999999994,113.19336419753087C422.91666666666663,113.18389917695474,425.3333333333333,113.17443415637861,427.75,113.16496913580248C430.1666666666667,113.15550411522635,432.5833333333333,113.1460390946502,435,113.13657407407408C437.4166666666667,113.12710905349795,439.8333333333333,113.11764403292182,442.25,113.10817901234569C444.6666666666667,113.09871399176956,447.0833333333333,113.08924897119341,449.5,113.07978395061728C451.9166666666667,113.07031893004115,454.3333333333333,113.06085390946502,456.75,113.0513888888889C459.1666666666667,113.04192386831276,461.5833333333333,113.03245884773662,464,113.02299382716049C466.4166666666667,113.01352880658436,468.8333333333333,113.00406378600823,471.25,112.9945987654321C473.6666666666667,112.98513374485597,476.0833333333333,112.97566872427984,478.5,112.96620370370371C480.9166666666667,112.95673868312758,483.33333333333337,112.94727366255144,485.75000000000006,112.93780864197531C488.16666666666674,112.92834362139918,490.58333333333337,112.91887860082305,493.00000000000006,112.90941358024692C495.4166666666667,112.89994855967079,497.8333333333333,112.89048353909465,500.24999999999994,112.88101851851852C502.66666666666663,112.87155349794239,505.08333333333326,112.86208847736626,507.49999999999994,112.85262345679013C509.91666666666663,112.843158436214,512.3333333333333,112.83369341563785,514.75,112.82422839506172C517.1666666666666,112.8147633744856,519.5833333333334,112.80529835390946,522,112.79583333333333C524.4166666666666,112.7863683127572,526.8333333333334,112.77690329218107,529.25,112.76743827160495C531.6666666666666,112.75797325102882,534.0833333333334,112.74850823045267,536.5,112.73904320987654C538.9166666666666,112.72957818930041,541.3333333333334,112.72011316872428,543.75,112.71064814814815C546.1666666666666,112.70118312757202,548.5833333333334,112.69171810699588,551,112.68225308641975C553.4166666666666,112.67278806584362,555.8333333333334,112.66332304526749,558.25,112.65385802469136C560.6666666666666,112.64439300411523,563.0833333333334,112.63492798353909,565.5,112.62546296296296C567.9166666666666,112.61599794238683,570.3333333333334,112.6065329218107,572.75,112.59706790123457C575.1666666666666,112.58760288065844,577.5833333333334,112.57813786008231,580,112.56867283950618C582.4166666666666,112.55920781893005,584.8333333333334,112.5497427983539,587.25,112.54027777777777C589.6666666666666,112.53081275720164,592.0833333333334,112.52134773662551,594.5,112.51188271604939C596.9166666666666,112.50241769547326,599.3333333333334,112.49295267489711,601.75,112.48348765432098C604.1666666666666,112.47402263374485,606.5833333333334,112.46455761316872,609,112.45509259259259C611.4166666666666,112.44562757201646,613.8333333333334,112.43616255144032,616.25,112.42669753086419C618.6666666666666,112.41723251028806,621.0833333333334,112.40776748971193,623.5,112.3983024691358C625.9166666666666,112.38883744855967,628.3333333333334,112.37937242798354,630.75,112.36990740740741C633.1666666666666,112.36044238683128,635.5833333333334,112.35097736625514,638,112.341512345679C640.4166666666666,112.33204732510288,642.8333333333334,112.32258230452675,645.25,112.31311728395062C647.6666666666666,112.30365226337449,650.0833333333334,112.30365226337449,652.5,112.28472222222221C654.9166666666666,112.26579218106994,657.3333333333334,111.70391414141415,659.75,111.4135101010101C662.1666666666666,111.12310606060606,664.5833333333334,110.83270202020202,667,110.54229797979798C669.4166666666666,110.25189393939394,671.8333333333334,109.9614898989899,674.25,109.67108585858585C676.6666666666666,109.38068181818181,679.0833333333334,109.09027777777779,681.5,108.79987373737374C683.9166666666666,108.5094696969697,686.3333333333334,108.21906565656566,688.75,107.92866161616162C691.1666666666666,107.63825757575758,693.5833333333334,107.34785353535354,696,107.0574494949495C698.4166666666666,106.76704545454545,700.8333333333334,106.47664141414141,703.25,106.18623737373737C705.6666666666666,105.89583333333333,708.0833333333334,105.6054292929293,710.5,105.31502525252526C712.9166666666666,105.02462121212122,715.3333333333334,104.73421717171718,717.75,104.44381313131314C720.1666666666666,104.1534090909091,722.5833333333334,103.86300505050505,725,103.57260101010101C727.4166666666666,103.28219696969697,729.8333333333334,102.99179292929294,732.25,102.7013888888889C734.6666666666666,102.41098484848486,737.0833333333334,102.1205808080808,739.5,101.83017676767676C741.9166666666666,101.53977272727272,744.3333333333334,101.24936868686868,746.75,100.95896464646464C749.1666666666666,100.6685606060606,751.5833333333334,100.37815656565657,754,100.08775252525253C756.4166666666666,99.79734848484848,758.8333333333334,99.50694444444444,761.25,99.2165404040404C763.6666666666666,98.92613636363636,766.0833333333334,98.63573232323232,768.5,98.34532828282828C770.9166666666666,98.05492424242424,773.3333333333334,97.7645202020202,775.75,97.47411616161615C778.1666666666666,97.18371212121211,780.5833333333334,96.89330808080808,783,96.60290404040404C785.4166666666667,96.3125,787.8333333333334,96.02209595959596,790.2500000000001,95.73169191919192C792.6666666666667,95.44128787878788,795.0833333333335,95.15088383838383,797.5000000000001,94.86047979797979C799.9166666666667,94.57007575757575,802.3333333333335,94.27967171717172,804.7500000000001,93.98926767676768C807.1666666666667,93.69886363636364,809.5833333333335,93.4084595959596,812.0000000000001,93.11805555555556C814.4166666666667,92.82765151515152,816.8333333333333,92.53724747474747,819.2499999999999,92.24684343434343C821.6666666666665,91.95643939393939,824.0833333333333,91.66603535353536,826.4999999999999,91.37563131313132C828.9166666666665,91.08522727272728,831.3333333333333,90.79482323232324,833.7499999999999,90.5044191919192C836.1666666666665,90.21401515151516,838.5833333333333,89.92361111111111,840.9999999999999,89.63320707070707C843.4166666666666,89.34280303030303,845.8333333333333,89.05239898989899,848.25,88.76199494949495C850.6666666666666,88.4715909090909,853.0833333333334,88.18118686868688,855.5,87.89078282828284C857.9166666666666,87.6003787878788,860.3333333333334,87.30997474747475,862.75,87.01957070707071C865.1666666666666,86.72916666666667,867.5833333333334,86.43876262626263,870,86.14835858585859C872.4166666666666,85.85795454545455,874.8333333333334,85.56755050505052,877.25,85.27714646464648C879.6666666666666,84.98674242424244,882.0833333333334,84.69633838383838,884.5,84.40593434343434C886.9166666666666,84.1155303030303,889.3333333333334,83.82512626262626,891.75,83.53472222222221C894.1666666666666,83.24431818181817,896.5833333333334,82.95391414141416,899,82.66351010101012C901.4166666666666,82.37310606060608,903.8333333333334,82.08270202020202,906.25,81.79229797979798C908.6666666666666,81.50189393939394,911.0833333333334,81.2114898989899,913.5,80.92108585858585C915.9166666666666,80.63068181818181,918.3333333333334,80.34027777777779,920.75,80.04987373737374C923.1666666666666,79.7594696969697,925.5833333333334,79.46906565656566,928,79.17866161616162C930.4166666666666,78.88825757575758,932.8333333333334,78.59785353535352,935.25,78.30744949494948C937.6666666666666,78.01704545454544,940.0833333333334,77.72664141414141,942.5,77.43623737373737C944.9166666666666,77.14583333333333,947.3333333333334,76.8554292929293,949.75,76.56502525252526C952.1666666666666,76.27462121212122,954.5833333333334,75.98421717171716,957,75.69381313131312C959.4166666666666,75.40340909090908,961.8333333333334,75.11300505050504,964.25,74.822601010101C966.6666666666667,74.53219696969695,969.0833333333334,74.24179292929293,971.5000000000001,73.95138888888889C973.9166666666667,73.66098484848484,976.3333333333335,73.3705808080808,978.7500000000001,73.08017676767676C981.1666666666667,72.78977272727272,983.5833333333335,72.49936868686868,986.0000000000001,72.20896464646464C988.4166666666667,71.9185606060606,990.8333333333335,71.62815656565657,993.2500000000001,71.33775252525253C995.6666666666667,71.04734848484848,998.0833333333333,70.75694444444444,1000.4999999999999,70.4665404040404C1002.9166666666665,70.17613636363636,1005.3333333333333,69.88573232323232,1007.7499999999999,69.59532828282828C1010.1666666666665,69.30492424242424,1012.5833333333333,69.0145202020202,1014.9999999999999,68.72411616161615C1017.4166666666665,68.43371212121211,1019.8333333333333,68.14330808080808,1022.2499999999999,67.85290404040404C1024.6666666666665,67.5625,1027.0833333333333,67.27209595959596,1029.5,66.98169191919192C1031.9166666666667,66.69128787878788,1034.3333333333333,66.40088383838383,1036.75,66.11047979797979C1039.1666666666667,65.82007575757575,1041.5833333333333,65.52967171717172,1044,65.23926767676768C1046.4166666666667,64.94886363636364,1048.8333333333333,64.6584595959596,1051.25,64.36805555555556C1053.6666666666667,64.07765151515152,1056.0833333333333,63.78724747474748,1058.5,63.49684343434344C1060.9166666666667,63.2064393939394,1063.3333333333333,62.91603535353536,1065.75,62.625631313131315C1068.1666666666667,62.33522727272727,1070.5833333333333,62.04482323232324,1073,61.7544191919192C1075.4166666666667,61.464015151515156,1077.8333333333333,61.173611111111114,1080.25,60.88320707070707C1082.6666666666667,60.59280303030303,1085.0833333333333,60.30239898989898,1087.5,60.01199494949494C1089.9166666666667,59.7215909090909,1092.3333333333333,59.43118686868688,1094.75,59.14078282828284C1097.1666666666667,58.850378787878796,1099.5833333333333,58.559974747474755,1102,58.26957070707071C1104.4166666666667,57.97916666666667,1106.8333333333333,57.68876262626264,1109.25,57.398358585858595C1111.6666666666667,57.107954545454554,1114.0833333333333,56.8175505050505,1116.5,56.52714646464646C1118.9166666666667,56.236742424242415,1121.3333333333333,55.94633838383838,1123.75,55.65593434343434C1126.1666666666667,55.3655303030303,1128.5833333333333,55.07512626262626,1131,54.78472222222222C1133.4166666666667,54.49431818181818,1135.8333333333333,54.20391414141413,1138.25,53.9135101010101C1140.6666666666667,53.62310606060606,1143.0833333333333,53.332702020202035,1145.5,53.04229797979799C1147.9166666666667,52.75189393939395,1150.3333333333333,52.461489898989896,1152.75,52.171085858585855C1155.1666666666667,51.88068181818181,1157.5833333333333,51.59027777777778,1160,51.29987373737374C1162.4166666666667,51.009469696969695,1164.8333333333333,50.71906565656565,1167.25,50.428661616161605C1169.6666666666667,50.138257575757564,1172.0833333333333,49.847853535353536,1174.5,49.557449494949495C1176.9166666666667,49.26704545454545,1179.3333333333333,48.97664141414142,1181.75,48.68623737373738C1184.1666666666667,48.395833333333336,1186.5833333333333,48.105429292929294,1189,47.81502525252525C1191.4166666666667,47.52462121212121,1193.8333333333333,47.23421717171718,1196.25,46.943813131313135C1198.6666666666667,46.65340909090909,1201.0833333333333,46.363005050505045,1203.5,46.072601010101C1205.9166666666667,45.78219696969696,1208.3333333333333,45.491792929292934,1210.75,45.20138888888889C1213.1666666666667,44.91098484848485,1215.5833333333333,44.6205808080808,1218,44.33017676767676C1220.4166666666667,44.03977272727272,1222.8333333333333,43.74936868686868,1225.25,43.45896464646464C1227.6666666666667,43.16856060606061,1230.0833333333333,42.878156565656575,1232.5,42.58775252525253C1234.9166666666667,42.29734848484849,1237.3333333333333,42.00694444444444,1239.75,41.7165404040404C1242.1666666666667,41.42613636363636,1244.5833333333333,41.13573232323233,1247,40.84532828282829C1249.4166666666667,40.55492424242425,1251.8333333333333,40.2645202020202,1254.25,39.97411616161616C1256.6666666666667,39.68371212121212,1259.0833333333333,39.39330808080808,1261.5,39.10290404040404C1263.9166666666667,38.8125,1266.3333333333333,38.52209595959596,1268.75,38.23169191919192C1271.1666666666667,37.941287878787875,1273.5833333333333,37.65088383838384,1276,37.3604797979798C1278.4166666666667,37.07007575757576,1280.8333333333333,36.779671717171716,1283.25,36.489267676767675C1285.6666666666667,36.19886363636363,1288.0833333333333,35.9084595959596,1290.5,35.61805555555556C1292.9166666666667,35.327651515151516,1295.3333333333333,35.03724747474748,1297.75,34.74684343434344C1300.1666666666667,34.4564393939394,1302.5833333333333,34.16603535353534,1305,33.8756313131313C1307.4166666666667,33.58522727272726,1309.8333333333333,33.29482323232324,1312.25,33.0044191919192C1314.6666666666667,32.714015151515156,1317.0833333333333,32.42361111111111,1319.5,32.133207070707066C1321.9166666666667,31.84280303030302,1324.3333333333333,31.552398989898972,1326.75,31.26199494949493C1329.1666666666667,30.97159090909089,1331.5833333333333,30.681186868686858,1334,30.39078282828282C1336.4166666666667,30.100378787878782,1338.8333333333333,29.80997474747475,1341.25,29.519570707070713C1343.6666666666667,29.229166666666675,1346.0833333333333,28.938762626262633,1348.5,28.648358585858592C1350.9166666666667,28.35795454545455,1353.3333333333333,28.067550505050498,1355.75,27.77714646464646C1358.1666666666667,27.486742424242422,1360.5833333333333,27.196338383838395,1363,26.905934343434353C1365.4166666666667,26.61553030303031,1367.8333333333333,26.32512626262626,1370.25,26.034722222222218C1372.6666666666667,25.744318181818176,1375.0833333333333,25.45391414141414,1377.5,25.1635101010101C1379.9166666666667,24.873106060606062,1382.3333333333333,24.58270202020203,1384.75,24.29229797979799C1387.1666666666667,24.00189393939395,1389.5833333333333,23.711489898989896,1392,23.421085858585858C1394.4166666666667,23.13068181818182,1396.8333333333333,22.840277777777793,1399.25,22.54987373737375C1401.6666666666667,22.25946969696971,1404.0833333333333,21.969065656565657,1406.5,21.678661616161616C1408.9166666666667,21.388257575757574,1411.3333333333333,21.097853535353536,1413.75,20.807449494949495C1416.1666666666667,20.517045454545453,1418.5833333333333,20.226641414141405,1421,19.936237373737363C1423.4166666666667,19.64583333333332,1425.8333333333333,19.35542929292929,1428.25,19.065025252525256C1430.6666666666667,18.77462121212122,1433.0833333333333,18.48421717171719,1435.5,18.19381313131315C1437.9166666666667,17.903409090909108,1440.3333333333333,17.613005050505055,1442.75,17.322601010101014C1445.1666666666667,17.032196969696972,1447.5833333333333,16.74179292929293,1450,16.451388888888893" fill="transparent" stroke-linecap="round" stroke="#B6509E" stroke-width="2"></path><path class="visx-linepath" d="M0,111.16666666665957C2.4166666666666665,111.16548353909052,4.833333333333334,111.16430041152145,7.25,111.16311728395063C9.666666666666666,111.1619341563798,12.083333333333334,111.16075102880659,14.5,111.15956790123457C16.916666666666668,111.15838477366255,19.333333333333332,111.15720164609053,21.75,111.15601851851851C24.166666666666668,111.15483539094649,26.583333333333332,111.15365226337448,29,111.15246913580246C31.416666666666668,111.15128600823044,33.833333333333336,111.15010288065844,36.25,111.14891975308642C38.666666666666664,111.1477366255144,41.083333333333336,111.14655349794239,43.5,111.14537037037037C45.91666666666667,111.14418724279835,48.333333333333336,111.14300411522635,50.75000000000001,111.14182098765433C53.16666666666667,111.14063786008231,55.583333333333336,111.1394547325103,58,111.13827160493828C60.416666666666664,111.13708847736626,62.833333333333336,111.13590534979424,65.25,111.13472222222222C67.66666666666667,111.1335390946502,70.08333333333333,111.1323559670782,72.5,111.13117283950618C74.91666666666667,111.12998971193416,77.33333333333333,111.12880658436214,79.75,111.12762345679012C82.16666666666667,111.1264403292181,84.58333333333333,111.1252572016461,87,111.12407407407407C89.41666666666667,111.12289094650205,91.83333333333333,111.12170781893005,94.25,111.12052469135803C96.66666666666667,111.11934156378601,99.08333333333334,111.11815843621399,101.50000000000001,111.11697530864197C103.91666666666667,111.11579218106995,106.33333333333334,111.11460905349794,108.75,111.11342592592592C111.16666666666667,111.1122427983539,113.58333333333333,111.1110596707819,116,111.10987654320988C118.41666666666667,111.10869341563786,120.83333333333334,111.10751028806585,123.25000000000001,111.10632716049383C125.66666666666667,111.10514403292181,128.08333333333334,111.10396090534981,130.5,111.10277777777779C132.91666666666666,111.10159465020577,135.33333333333334,111.10041152263375,137.75,111.09922839506173C140.16666666666666,111.09804526748971,142.58333333333334,111.09686213991769,145,111.09567901234567C147.41666666666666,111.09449588477365,149.83333333333334,111.09331275720164,152.25,111.09212962962962C154.66666666666666,111.0909465020576,157.08333333333334,111.0897633744856,159.5,111.08858024691358C161.91666666666666,111.08739711934156,164.33333333333334,111.08621399176955,166.75,111.08503086419753C169.16666666666666,111.08384773662551,171.58333333333334,111.08266460905351,174,111.08148148148149C176.41666666666666,111.08029835390947,178.83333333333334,111.07911522633745,181.25,111.07793209876543C183.66666666666666,111.07674897119341,186.08333333333334,111.0755658436214,188.5,111.07438271604939C190.91666666666666,111.07319958847737,193.33333333333334,111.07201646090535,195.75,111.07083333333333C198.16666666666669,111.0696502057613,200.58333333333334,111.0684670781893,203.00000000000003,111.06728395061728C205.41666666666669,111.06610082304526,207.83333333333331,111.06491769547326,210.24999999999997,111.06373456790124C212.66666666666666,111.06255144032922,215.08333333333331,111.06136831275721,217.5,111.06018518518519C219.91666666666666,111.05900205761317,222.33333333333334,111.05781893004115,224.75,111.05663580246913C227.16666666666666,111.05545267489711,229.58333333333334,111.0542695473251,232,111.05308641975309C234.41666666666666,111.05190329218107,236.83333333333334,111.05072016460906,239.25,111.04953703703704C241.66666666666669,111.04835390946502,244.08333333333334,111.04717078189302,246.50000000000003,111.045987654321C248.91666666666669,111.04480452674898,251.33333333333331,111.04362139917696,253.74999999999997,111.04243827160494C256.16666666666663,111.04125514403292,258.5833333333333,111.0400720164609,261,111.03888888888888C263.4166666666667,111.03770576131686,265.8333333333333,111.03652263374485,268.25,111.03533950617283C270.6666666666667,111.03415637860081,273.0833333333333,111.0329732510288,275.5,111.03179012345679C277.9166666666667,111.03060699588477,280.3333333333333,111.02942386831276,282.75,111.02824074074074C285.1666666666667,111.02705761316872,287.5833333333333,111.02587448559672,290,111.0246913580247C292.4166666666667,111.02350823045268,294.8333333333333,111.02232510288067,297.25,111.02114197530865C299.6666666666667,111.01995884773663,302.0833333333333,111.01877572016461,304.5,111.01759259259259C306.9166666666667,111.01640946502057,309.3333333333333,111.01522633744855,311.75,111.01404320987653C314.1666666666667,111.01286008230451,316.5833333333333,111.01167695473251,319,111.01049382716049C321.4166666666667,111.00931069958847,323.8333333333333,111.00812757201646,326.25,111.00694444444444C328.6666666666667,111.00576131687242,331.0833333333333,111.00457818930042,333.5,111.0033950617284C335.9166666666667,111.00221193415638,338.3333333333333,111.00102880658436,340.75,110.99984567901234C343.1666666666667,110.99866255144032,345.5833333333333,110.99747942386831,348,110.9962962962963C350.4166666666667,110.99511316872427,352.8333333333333,110.99393004115227,355.25,110.99274691358025C357.6666666666667,110.99156378600823,360.0833333333333,110.99038065843622,362.5,110.9891975308642C364.9166666666667,110.98801440329218,367.3333333333333,110.98683127572016,369.75,110.98564814814814C372.1666666666667,110.98446502057612,374.5833333333333,110.98328189300412,377,110.9820987654321C379.4166666666667,110.98091563786008,381.8333333333333,110.97973251028806,384.25,110.97854938271604C386.6666666666667,110.97736625514402,389.0833333333333,110.97618312757201,391.5,110.975C393.9166666666667,110.97381687242797,396.33333333333337,110.97263374485597,398.75000000000006,110.97145061728395C401.16666666666674,110.97026748971193,403.58333333333337,110.96908436213992,406.00000000000006,110.9679012345679C408.4166666666667,110.96671810699588,410.8333333333333,110.96553497942388,413.24999999999994,110.96435185185186C415.66666666666663,110.96316872427984,418.08333333333326,110.96198559670783,420.49999999999994,110.96080246913581C422.91666666666663,110.9596193415638,425.3333333333333,110.95843621399177,427.75,110.95725308641975C430.1666666666667,110.95606995884773,432.5833333333333,110.95488683127572,435,110.9537037037037C437.4166666666667,110.95252057613168,439.8333333333333,110.95133744855967,442.25,110.95015432098765C444.6666666666667,110.94897119341563,447.0833333333333,110.94778806584362,449.5,110.9466049382716C451.9166666666667,110.94542181069959,454.3333333333333,110.94423868312758,456.75,110.94305555555556C459.1666666666667,110.94187242798354,461.5833333333333,110.94068930041152,464,110.9395061728395C466.4166666666667,110.93832304526748,468.8333333333333,110.93713991769548,471.25,110.93595679012346C473.6666666666667,110.93477366255144,476.0833333333333,110.93359053497943,478.5,110.93240740740741C480.9166666666667,110.93122427983539,483.33333333333337,110.93004115226339,485.75000000000006,110.92885802469137C488.16666666666674,110.92767489711935,490.58333333333337,110.92649176954733,493.00000000000006,110.9253086419753C495.4166666666667,110.92412551440329,497.8333333333333,110.92294238683128,500.24999999999994,110.92175925925926C502.66666666666663,110.92057613168724,505.08333333333326,110.91939300411522,507.49999999999994,110.9182098765432C509.91666666666663,110.91702674897118,512.3333333333333,110.91584362139918,514.75,110.91466049382716C517.1666666666666,110.91347736625514,519.5833333333334,110.91229423868313,522,110.91111111111111C524.4166666666666,110.90992798353909,526.8333333333334,110.90874485596709,529.25,110.90756172839507C531.6666666666666,110.90637860082305,534.0833333333334,110.90519547325104,536.5,110.90401234567902C538.9166666666666,110.902829218107,541.3333333333334,110.90164609053498,543.75,110.90046296296296C546.1666666666666,110.89927983539094,548.5833333333334,110.89809670781892,551,110.8969135802469C553.4166666666666,110.89573045267488,555.8333333333334,110.89454732510288,558.25,110.89336419753086C560.6666666666666,110.89218106995884,563.0833333333334,110.89099794238683,565.5,110.88981481481481C567.9166666666666,110.88863168724279,570.3333333333334,110.88744855967079,572.75,110.88626543209877C575.1666666666666,110.88508230452675,577.5833333333334,110.88389917695474,580,110.88271604938272C582.4166666666666,110.8815329218107,584.8333333333334,110.88034979423868,587.25,110.87916666666666C589.6666666666666,110.87798353909464,592.0833333333334,110.87680041152264,594.5,110.87561728395062C596.9166666666666,110.8744341563786,599.3333333333334,110.87325102880659,601.75,110.87206790123457C604.1666666666666,110.87088477366255,606.5833333333334,110.86970164609053,609,110.86851851851851C611.4166666666666,110.8673353909465,613.8333333333334,110.86615226337449,616.25,110.86496913580247C618.6666666666666,110.86378600823045,621.0833333333334,110.86260288065844,623.5,110.86141975308642C625.9166666666666,110.8602366255144,628.3333333333334,110.85905349794238,630.75,110.85787037037036C633.1666666666666,110.85668724279834,635.5833333333334,110.85550411522634,638,110.85432098765432C640.4166666666666,110.8531378600823,642.8333333333334,110.8519547325103,645.25,110.85077160493827C647.6666666666666,110.84958847736625,650.0833333333334,110.84958847736625,652.5,110.84722222222223C654.9166666666666,110.8448559670782,657.3333333333334,110.26641414141415,659.75,109.9760101010101C662.1666666666666,109.68560606060606,664.5833333333334,109.39520202020202,667,109.10479797979798C669.4166666666666,108.81439393939394,671.8333333333334,108.52398989898991,674.25,108.23358585858587C676.6666666666666,107.94318181818183,679.0833333333334,107.65277777777779,681.5,107.36237373737374C683.9166666666666,107.0719696969697,686.3333333333334,106.78156565656565,688.75,106.4911616161616C691.1666666666666,106.20075757575756,693.5833333333334,105.91035353535354,696,105.6199494949495C698.4166666666666,105.32954545454545,700.8333333333334,105.03914141414141,703.25,104.74873737373737C705.6666666666666,104.45833333333333,708.0833333333334,104.16792929292929,710.5,103.87752525252525C712.9166666666666,103.5871212121212,715.3333333333334,103.29671717171716,717.75,103.00631313131312C720.1666666666666,102.71590909090908,722.5833333333334,102.42550505050505,725,102.13510101010101C727.4166666666666,101.84469696969697,729.8333333333334,101.55429292929293,732.25,101.26388888888889C734.6666666666666,100.97348484848484,737.0833333333334,100.6830808080808,739.5,100.39267676767676C741.9166666666666,100.10227272727272,744.3333333333334,99.81186868686869,746.75,99.52146464646465C749.1666666666666,99.23106060606061,751.5833333333334,98.94065656565657,754,98.65025252525253C756.4166666666666,98.35984848484848,758.8333333333334,98.06944444444444,761.25,97.7790404040404C763.6666666666666,97.48863636363636,766.0833333333334,97.19823232323233,768.5,96.90782828282829C770.9166666666666,96.61742424242425,773.3333333333334,96.32702020202021,775.75,96.03661616161617C778.1666666666666,95.74621212121212,780.5833333333334,95.45580808080808,783,95.16540404040404C785.4166666666667,94.875,787.8333333333334,94.58459595959596,790.2500000000001,94.29419191919192C792.6666666666667,94.00378787878788,795.0833333333335,93.71338383838385,797.5000000000001,93.4229797979798C799.9166666666667,93.13257575757576,802.3333333333335,92.84217171717172,804.7500000000001,92.55176767676768C807.1666666666667,92.26136363636364,809.5833333333335,91.9709595959596,812.0000000000001,91.68055555555556C814.4166666666667,91.39015151515152,816.8333333333333,91.09974747474747,819.2499999999999,90.80934343434343C821.6666666666665,90.51893939393939,824.0833333333333,90.22853535353536,826.4999999999999,89.93813131313132C828.9166666666665,89.64772727272728,831.3333333333333,89.35732323232324,833.7499999999999,89.0669191919192C836.1666666666665,88.77651515151516,838.5833333333333,88.48611111111111,840.9999999999999,88.19570707070707C843.4166666666666,87.90530303030303,845.8333333333333,87.61489898989899,848.25,87.32449494949495C850.6666666666666,87.0340909090909,853.0833333333334,86.74368686868686,855.5,86.45328282828282C857.9166666666666,86.16287878787878,860.3333333333334,85.87247474747475,862.75,85.58207070707071C865.1666666666666,85.29166666666667,867.5833333333334,85.00126262626263,870,84.71085858585859C872.4166666666666,84.42045454545455,874.8333333333334,84.1300505050505,877.25,83.83964646464646C879.6666666666666,83.54924242424242,882.0833333333334,83.25883838383838,884.5,82.96843434343434C886.9166666666666,82.6780303030303,889.3333333333334,82.38762626262627,891.75,82.09722222222223C894.1666666666666,81.80681818181819,896.5833333333334,81.51641414141413,899,81.22601010101009C901.4166666666666,80.93560606060605,903.8333333333334,80.64520202020202,906.25,80.35479797979798C908.6666666666666,80.06439393939394,911.0833333333334,79.7739898989899,913.5,79.48358585858585C915.9166666666666,79.19318181818181,918.3333333333334,78.90277777777777,920.75,78.61237373737373C923.1666666666666,78.32196969696969,925.5833333333334,78.03156565656566,928,77.74116161616162C930.4166666666666,77.45075757575758,932.8333333333334,77.16035353535354,935.25,76.8699494949495C937.6666666666666,76.57954545454545,940.0833333333334,76.28914141414141,942.5,75.99873737373737C944.9166666666666,75.70833333333333,947.3333333333334,75.41792929292929,949.75,75.12752525252525C952.1666666666666,74.8371212121212,954.5833333333334,74.54671717171716,957,74.25631313131312C959.4166666666666,73.96590909090908,961.8333333333334,73.67550505050505,964.25,73.38510101010101C966.6666666666667,73.09469696969697,969.0833333333334,72.80429292929293,971.5000000000001,72.51388888888889C973.9166666666667,72.22348484848484,976.3333333333335,71.9330808080808,978.7500000000001,71.64267676767676C981.1666666666667,71.35227272727272,983.5833333333335,71.06186868686869,986.0000000000001,70.77146464646465C988.4166666666667,70.48106060606061,990.8333333333335,70.19065656565657,993.2500000000001,69.90025252525253C995.6666666666667,69.60984848484848,998.0833333333333,69.31944444444444,1000.4999999999999,69.0290404040404C1002.9166666666665,68.73863636363636,1005.3333333333333,68.44823232323233,1007.7499999999999,68.15782828282829C1010.1666666666665,67.86742424242425,1012.5833333333333,67.57702020202021,1014.9999999999999,67.28661616161617C1017.4166666666665,66.99621212121212,1019.8333333333333,66.70580808080808,1022.2499999999999,66.41540404040404C1024.6666666666665,66.125,1027.0833333333333,65.83459595959596,1029.5,65.54419191919192C1031.9166666666667,65.25378787878788,1034.3333333333333,64.96338383838385,1036.75,64.6729797979798C1039.1666666666667,64.38257575757576,1041.5833333333333,64.09217171717172,1044,63.80176767676768C1046.4166666666667,63.51136363636364,1048.8333333333333,63.220959595959606,1051.25,62.930555555555564C1053.6666666666667,62.64015151515152,1056.0833333333333,62.34974747474748,1058.5,62.05934343434344C1060.9166666666667,61.7689393939394,1063.3333333333333,61.47853535353535,1065.75,61.18813131313131C1068.1666666666667,60.897727272727266,1070.5833333333333,60.607323232323225,1073,60.31691919191919C1075.4166666666667,60.026515151515156,1077.8333333333333,59.736111111111114,1080.25,59.44570707070708C1082.6666666666667,59.155303030303045,1085.0833333333333,58.864898989899004,1087.5,58.57449494949496C1089.9166666666667,58.28409090909092,1092.3333333333333,57.993686868686865,1094.75,57.70328282828282C1097.1666666666667,57.41287878787878,1099.5833333333333,57.12247474747475,1102,56.832070707070706C1104.4166666666667,56.541666666666664,1106.8333333333333,56.25126262626263,1109.25,55.96085858585859C1111.6666666666667,55.67045454545455,1114.0833333333333,55.380050505050505,1116.5,55.089646464646464C1118.9166666666667,54.79924242424242,1121.3333333333333,54.50883838383839,1123.75,54.218434343434346C1126.1666666666667,53.928030303030305,1128.5833333333333,53.63762626262626,1131,53.34722222222222C1133.4166666666667,53.05681818181818,1135.8333333333333,52.766414141414145,1138.25,52.476010101010104C1140.6666666666667,52.18560606060606,1143.0833333333333,51.895202020202014,1145.5,51.60479797979797C1147.9166666666667,51.31439393939393,1150.3333333333333,51.023989898989896,1152.75,50.73358585858586C1155.1666666666667,50.44318181818183,1157.5833333333333,50.152777777777786,1160,49.862373737373744C1162.4166666666667,49.5719696969697,1164.8333333333333,49.28156565656566,1167.25,48.99116161616162C1169.6666666666667,48.70075757575758,1172.0833333333333,48.41035353535353,1174.5,48.11994949494949C1176.9166666666667,47.829545454545446,1179.3333333333333,47.53914141414141,1181.75,47.24873737373737C1184.1666666666667,46.95833333333333,1186.5833333333333,46.6679292929293,1189,46.37752525252526C1191.4166666666667,46.08712121212122,1193.8333333333333,45.796717171717184,1196.25,45.50631313131314C1198.6666666666667,45.2159090909091,1201.0833333333333,44.92550505050506,1203.5,44.63510101010102C1205.9166666666667,44.344696969696976,1208.3333333333333,44.05429292929293,1210.75,43.763888888888886C1213.1666666666667,43.473484848484844,1215.5833333333333,43.18308080808081,1218,42.89267676767677C1220.4166666666667,42.60227272727273,1222.8333333333333,42.311868686868685,1225.25,42.02146464646464C1227.6666666666667,41.7310606060606,1230.0833333333333,41.44065656565657,1232.5,41.150252525252526C1234.9166666666667,40.859848484848484,1237.3333333333333,40.56944444444446,1239.75,40.279040404040416C1242.1666666666667,39.988636363636374,1244.5833333333333,39.698232323232325,1247,39.407828282828284C1249.4166666666667,39.11742424242424,1251.8333333333333,38.82702020202021,1254.25,38.536616161616166C1256.6666666666667,38.246212121212125,1259.0833333333333,37.95580808080808,1261.5,37.66540404040404C1263.9166666666667,37.375,1266.3333333333333,37.084595959595966,1268.75,36.794191919191924C1271.1666666666667,36.50378787878788,1273.5833333333333,36.213383838383834,1276,35.92297979797979C1278.4166666666667,35.63257575757575,1280.8333333333333,35.34217171717171,1283.25,35.05176767676767C1285.6666666666667,34.761363636363626,1288.0833333333333,34.4709595959596,1290.5,34.180555555555564C1292.9166666666667,33.89015151515153,1295.3333333333333,33.59974747474748,1297.75,33.30934343434344C1300.1666666666667,33.0189393939394,1302.5833333333333,32.728535353535364,1305,32.43813131313132C1307.4166666666667,32.14772727272728,1309.8333333333333,31.85732323232323,1312.25,31.566919191919187C1314.6666666666667,31.276515151515145,1317.0833333333333,30.986111111111107,1319.5,30.695707070707066C1321.9166666666667,30.405303030303024,1324.3333333333333,30.11489898989899,1326.75,29.824494949494948C1329.1666666666667,29.534090909090907,1331.5833333333333,29.243686868686865,1334,28.953282828282827C1336.4166666666667,28.66287878787879,1338.8333333333333,28.37247474747476,1341.25,28.08207070707072C1343.6666666666667,27.79166666666668,1346.0833333333333,27.501262626262626,1348.5,27.210858585858585C1350.9166666666667,26.920454545454543,1353.3333333333333,26.630050505050505,1355.75,26.339646464646464C1358.1666666666667,26.049242424242422,1360.5833333333333,25.758838383838388,1363,25.468434343434346C1365.4166666666667,25.178030303030305,1367.8333333333333,24.887626262626267,1370.25,24.597222222222225C1372.6666666666667,24.306818181818183,1375.0833333333333,24.01641414141413,1377.5,23.72601010101009C1379.9166666666667,23.435606060606048,1382.3333333333333,23.14520202020201,1384.75,22.854797979797972C1387.1666666666667,22.564393939393934,1389.5833333333333,22.2739898989899,1392,21.98358585858586C1394.4166666666667,21.693181818181824,1396.8333333333333,21.402777777777786,1399.25,21.112373737373744C1401.6666666666667,20.821969696969703,1404.0833333333333,20.531565656565665,1406.5,20.241161616161623C1408.9166666666667,19.95075757575758,1411.3333333333333,19.66035353535353,1413.75,19.369949494949488C1416.1666666666667,19.079545454545446,1418.5833333333333,18.78914141414141,1421,18.49873737373737C1423.4166666666667,18.20833333333333,1425.8333333333333,17.91792929292929,1428.25,17.62752525252525C1430.6666666666667,17.337121212121207,1433.0833333333333,17.046717171717166,1435.5,16.756313131313128C1437.9166666666667,16.46590909090909,1440.3333333333333,16.17550505050506,1442.75,15.88510101010102C1445.1666666666667,15.59469696969698,1447.5833333333333,15.304292929292933,1450,15.013888888888886" fill="transparent" stroke-linecap="round" stroke="#E7C6DF" stroke-width="2"></path><g class="visx-group visx-axis visx-axis-bottom" transform="translate(0, 115)"><g class="visx-group visx-axis-tick" transform="translate(0, 0)"><line class="visx-line" x1="0" y1="0" x2="0" y2="8" fill="transparent" shape-rendering="crispEdges" stroke="#000" stroke-width="0" stroke-linecap="square"></line><svg x="0" y="0" font-size="10" style="overflow:visible"><text transform="" x="0" y="18" fill="#000" font-size="10" text-anchor="middle"><tspan x="0" dy="0em">0%</tspan></text></svg></g><g class="visx-group visx-axis-tick" transform="translate(0, 0)"><line class="visx-line" x1="362.5" y1="0" x2="362.5" y2="8" fill="transparent" shape-rendering="crispEdges" stroke="#000" stroke-width="0" stroke-linecap="square"></line><svg x="0" y="0" font-size="10" style="overflow:visible"><text transform="" x="362.5" y="18" fill="#000" font-size="10" text-anchor="middle"><tspan x="362.5" dy="0em">25%</tspan></text></svg></g><g class="visx-group visx-axis-tick" transform="translate(0, 0)"><line class="visx-line" x1="725" y1="0" x2="725" y2="8" fill="transparent" shape-rendering="crispEdges" stroke="#000" stroke-width="0" stroke-linecap="square"></line><svg x="0" y="0" font-size="10" style="overflow:visible"><text transform="" x="725" y="18" fill="#000" font-size="10" text-anchor="middle"><tspan x="725" dy="0em">50%</tspan></text></svg></g><g class="visx-group visx-axis-tick" transform="translate(0, 0)"><line class="visx-line" x1="1087.5" y1="0" x2="1087.5" y2="8" fill="transparent" shape-rendering="crispEdges" stroke="#000" stroke-width="0" stroke-linecap="square"></line><svg x="0" y="0" font-size="10" style="overflow:visible"><text transform="" x="1087.5" y="18" fill="#000" font-size="10" text-anchor="middle"><tspan x="1087.5" dy="0em">75%</tspan></text></svg></g><g class="visx-group visx-axis-tick" transform="translate(0, 0)"><line class="visx-line" x1="1450" y1="0" x2="1450" y2="8" fill="transparent" shape-rendering="crispEdges" stroke="#000" stroke-width="0" stroke-linecap="square"></line><svg x="0" y="0" font-size="10" style="overflow:visible"><text transform="" x="1450" y="18" fill="#000" font-size="10" text-anchor="middle"><tspan x="1450" dy="0em">100%</tspan></text></svg></g><line class="visx-line visx-axis-line" x1="0.5" y1="0" x2="1450.5" y2="0" fill="transparent" shape-rendering="crispEdges" stroke="#222" stroke-width="0"></line></g><g class="visx-group visx-axis visx-axis-left" transform="translate(0, 0)"><g class="visx-group visx-axis-tick" transform="translate(0, 0)"><line class="visx-line" x1="0" y1="115" x2="-8" y2="115" fill="transparent" shape-rendering="crispEdges" stroke="#222" stroke-width="0" stroke-linecap="square"></line><svg x="-30" y="0" font-size="8" style="overflow:visible"><text transform="" x="-8" y="115" fill="#000" font-size="8" text-anchor="start"><tspan x="-8" dy="0em">0%</tspan></text></svg></g><g class="visx-group visx-axis-tick" transform="translate(0, 0)"><line class="visx-line" x1="0" y1="51.11111111111111" x2="-8" y2="51.11111111111111" fill="transparent" shape-rendering="crispEdges" stroke="#222" stroke-width="0" stroke-linecap="square"></line><svg x="-30" y="0" font-size="8" style="overflow:visible"><text transform="" x="-8" y="51.11111111111111" fill="#000" font-size="8" text-anchor="start"><tspan x="-8" dy="0em">100%</tspan></text></svg></g><line class="visx-line visx-axis-line" x1="0" y1="115.5" x2="0" y2="0.5" fill="transparent" shape-rendering="crispEdges" stroke="#222" stroke-width="0"></line></g><rect class="visx-bar" width="1450" height="115" fill="transparent"></rect><line class="visx-line" x1="652.5" y1="28" x2="652.5" y2="115" fill="transparent" shape-rendering="crispEdges" stroke="#0062D2" stroke-width="1" pointer-events="none" stroke-dasharray="5,2"></line><svg x="0" y="0" font-size="10px" style="overflow:visible"><text transform="" x="652.5" y="20" font-size="10px" fill="#fff" stroke="#fff" stroke-width="0.8em" text-anchor="middle"><tspan x="652.5" dy="0.355em">Optimal 45%</tspan></text></svg><svg x="0" y="0" font-size="10px" style="overflow:visible"><text transform="" x="652.5" y="20" font-size="10px" fill="#62677B" text-anchor="middle"><tspan x="652.5" dy="0.355em">Optimal 45%</tspan></text></svg></g></svg>