<?xml version="1.0"?><svg xmlns="http://www.w3.org/2000/svg" xmlns:xlink= "http://www.w3.org/1999/xlink" style="background: white;" width="1500" height="185"> <g style="color: black; font-size: 13px; font-family: sans-serif; transform: translate(18px, 25px);"><g><circle r="3" cx="-6" cy="-5" style="fill: #B6509E" /><text>Borrow APR, variable</text></g><g style="transform: translateX(150px);"><circle r="3" cx="-6" cy="-5" style="fill: rgb(231, 198, 223)" /><text>Borrow APR, stable</text></g><g style="transform: translateX(290px);"><circle r="3" cx="-6" cy="-5" style="fill: rgb(0, 98, 210)" /><text>Utilization Rate</text></g></g><g class="visx-group" transform="translate(40, 50)"><g class="visx-group visx-rows" transform="translate(0, 0)"><line class="visx-line" x1="0" y1="115" x2="1450" y2="115" fill="transparent" shape-rendering="crispEdges" stroke="#000" stroke-width="1" stroke-dasharray="3,3" pointer-events="none"></line><line class="visx-line" x1="0" y1="57.5" x2="1450" y2="57.5" fill="transparent" shape-rendering="crispEdges" stroke="#000" stroke-width="1" stroke-dasharray="3,3" pointer-events="none"></line><line class="visx-line" x1="0" y1="0" x2="1450" y2="0" fill="transparent" shape-rendering="crispEdges" stroke="#000" stroke-width="1" stroke-dasharray="3,3" pointer-events="none"></line></g><path class="visx-linepath" d="M0,114.99999999993611C2.4166666666666665,114.98935185181458,4.833333333333334,114.97870370369304,7.25,114.96805555555555C9.666666666666666,114.95740740741806,12.083333333333334,114.94675925925927,14.5,114.93611111111112C16.916666666666668,114.92546296296297,19.333333333333332,114.91481481481482,21.75,114.90416666666667C24.166666666666668,114.89351851851852,26.583333333333332,114.88287037037038,29,114.87222222222223C31.416666666666668,114.86157407407408,33.833333333333336,114.85092592592592,36.25,114.84027777777777C38.666666666666664,114.82962962962962,41.083333333333336,114.81898148148147,43.5,114.80833333333332C45.91666666666667,114.79768518518517,48.333333333333336,114.78703703703704,50.75000000000001,114.77638888888889C53.16666666666667,114.76574074074074,55.583333333333336,114.75509259259259,58,114.74444444444444C60.416666666666664,114.73379629629629,62.833333333333336,114.72314814814816,65.25,114.7125C67.66666666666667,114.70185185185186,70.08333333333333,114.6912037037037,72.5,114.68055555555556C74.91666666666667,114.66990740740741,77.33333333333333,114.65925925925926,79.75,114.64861111111111C82.16666666666667,114.63796296296296,84.58333333333333,114.62731481481482,87,114.61666666666667C89.41666666666667,114.60601851851852,91.83333333333333,114.59537037037038,94.25,114.58472222222223C96.66666666666667,114.57407407407408,99.08333333333334,114.56342592592593,101.50000000000001,114.55277777777778C103.91666666666667,114.54212962962963,106.33333333333334,114.53148148148148,108.75,114.52083333333333C111.16666666666667,114.51018518518518,113.58333333333333,114.49953703703703,116,114.48888888888888C118.41666666666667,114.47824074074073,120.83333333333334,114.4675925925926,123.25000000000001,114.45694444444445C125.66666666666667,114.4462962962963,128.08333333333334,114.43564814814815,130.5,114.425C132.91666666666666,114.41435185185185,135.33333333333334,114.4037037037037,137.75,114.39305555555555C140.16666666666666,114.3824074074074,142.58333333333334,114.37175925925926,145,114.36111111111111C147.41666666666666,114.35046296296296,149.83333333333334,114.33981481481482,152.25,114.32916666666667C154.66666666666666,114.31851851851852,157.08333333333334,114.30787037037038,159.5,114.29722222222223C161.91666666666666,114.28657407407408,164.33333333333334,114.27592592592593,166.75,114.26527777777778C169.16666666666666,114.25462962962963,171.58333333333334,114.24398148148148,174,114.23333333333333C176.41666666666666,114.22268518518518,178.83333333333334,114.21203703703704,181.25,114.20138888888889C183.66666666666666,114.19074074074074,186.08333333333334,114.18009259259259,188.5,114.16944444444444C190.91666666666666,114.15879629629629,193.33333333333334,114.14814814814815,195.75,114.1375C198.16666666666669,114.12685185185185,200.58333333333334,114.1162037037037,203.00000000000003,114.10555555555555C205.41666666666669,114.0949074074074,207.83333333333331,114.08425925925926,210.24999999999997,114.0736111111111C212.66666666666666,114.06296296296296,215.08333333333331,114.05231481481482,217.5,114.04166666666667C219.91666666666666,114.03101851851852,222.33333333333334,114.02037037037037,224.75,114.00972222222222C227.16666666666666,113.99907407407407,229.58333333333334,113.98842592592594,232,113.97777777777779C234.41666666666666,113.96712962962964,236.83333333333334,113.95648148148149,239.25,113.94583333333334C241.66666666666669,113.93518518518519,244.08333333333334,113.92453703703704,246.50000000000003,113.91388888888889C248.91666666666669,113.90324074074074,251.33333333333331,113.89259259259259,253.74999999999997,113.88194444444444C256.16666666666663,113.8712962962963,258.5833333333333,113.86064814814814,261,113.85C263.4166666666667,113.83935185185184,265.8333333333333,113.8287037037037,268.25,113.81805555555555C270.6666666666667,113.8074074074074,273.0833333333333,113.79675925925926,275.5,113.78611111111111C277.9166666666667,113.77546296296296,280.3333333333333,113.76481481481481,282.75,113.75416666666666C285.1666666666667,113.74351851851851,287.5833333333333,113.73287037037038,290,113.72222222222223C292.4166666666667,113.71157407407408,294.8333333333333,113.70092592592593,297.25,113.69027777777778C299.6666666666667,113.67962962962963,302.0833333333333,113.66898148148148,304.5,113.65833333333333C306.9166666666667,113.64768518518518,309.3333333333333,113.63703703703705,311.75,113.6263888888889C314.1666666666667,113.61574074074075,316.5833333333333,113.6050925925926,319,113.59444444444445C321.4166666666667,113.5837962962963,323.8333333333333,113.57314814814815,326.25,113.5625C328.6666666666667,113.55185185185185,331.0833333333333,113.5412037037037,333.5,113.53055555555555C335.9166666666667,113.5199074074074,338.3333333333333,113.50925925925925,340.75,113.4986111111111C343.1666666666667,113.48796296296295,345.5833333333333,113.47731481481482,348,113.46666666666667C350.4166666666667,113.45601851851852,352.8333333333333,113.44537037037037,355.25,113.43472222222222C357.6666666666667,113.42407407407407,360.0833333333333,113.41342592592594,362.5,113.40277777777779C364.9166666666667,113.39212962962964,367.3333333333333,113.38148148148149,369.75,113.37083333333334C372.1666666666667,113.36018518518519,374.5833333333333,113.34953703703704,377,113.33888888888889C379.4166666666667,113.32824074074074,381.8333333333333,113.3175925925926,384.25,113.30694444444445C386.6666666666667,113.2962962962963,389.0833333333333,113.28564814814814,391.5,113.27499999999999C393.9166666666667,113.26435185185184,396.33333333333337,113.2537037037037,398.75000000000006,113.24305555555556C401.16666666666674,113.23240740740741,403.58333333333337,113.22175925925926,406.00000000000006,113.21111111111111C408.4166666666667,113.20046296296296,410.8333333333333,113.18981481481481,413.24999999999994,113.17916666666666C415.66666666666663,113.16851851851851,418.08333333333326,113.15787037037038,420.49999999999994,113.14722222222223C422.91666666666663,113.13657407407408,425.3333333333333,113.12592592592593,427.75,113.11527777777778C430.1666666666667,113.10462962962963,432.5833333333333,113.09398148148148,435,113.08333333333333C437.4166666666667,113.07268518518518,439.8333333333333,113.06203703703704,442.25,113.0513888888889C444.6666666666667,113.04074074074074,447.0833333333333,113.0300925925926,449.5,113.01944444444445C451.9166666666667,113.0087962962963,454.3333333333333,112.99814814814816,456.75,112.98750000000001C459.1666666666667,112.97685185185186,461.5833333333333,112.9662037037037,464,112.95555555555555C466.4166666666667,112.9449074074074,468.8333333333333,112.93425925925925,471.25,112.9236111111111C473.6666666666667,112.91296296296295,476.0833333333333,112.90231481481482,478.5,112.89166666666667C480.9166666666667,112.88101851851852,483.33333333333337,112.87037037037037,485.75000000000006,112.85972222222222C488.16666666666674,112.84907407407407,490.58333333333337,112.83842592592593,493.00000000000006,112.82777777777778C495.4166666666667,112.81712962962963,497.8333333333333,112.80648148148148,500.24999999999994,112.79583333333333C502.66666666666663,112.78518518518518,505.08333333333326,112.77453703703704,507.49999999999994,112.76388888888889C509.91666666666663,112.75324074074074,512.3333333333333,112.7425925925926,514.75,112.73194444444445C517.1666666666666,112.7212962962963,519.5833333333334,112.71064814814815,522,112.7C524.4166666666666,112.68935185185185,526.8333333333334,112.6787037037037,529.25,112.66805555555555C531.6666666666666,112.6574074074074,534.0833333333334,112.64675925925926,536.5,112.6361111111111C538.9166666666666,112.62546296296296,541.3333333333334,112.6148148148148,543.75,112.60416666666666C546.1666666666666,112.59351851851851,548.5833333333334,112.58287037037037,551,112.57222222222222C553.4166666666666,112.56157407407407,555.8333333333334,112.55092592592592,558.25,112.54027777777777C560.6666666666666,112.52962962962962,563.0833333333334,112.51898148148148,565.5,112.50833333333333C567.9166666666666,112.49768518518518,570.3333333333334,112.48703703703704,572.75,112.47638888888889C575.1666666666666,112.46574074074074,577.5833333333334,112.45509259259259,580,112.44444444444444C582.4166666666666,112.4337962962963,584.8333333333334,112.42314814814816,587.25,112.41250000000001C589.6666666666666,112.40185185185186,592.0833333333334,112.39120370370371,594.5,112.38055555555556C596.9166666666666,112.36990740740741,599.3333333333334,112.35925925925926,601.75,112.34861111111111C604.1666666666666,112.33796296296296,606.5833333333334,112.32731481481481,609,112.31666666666666C611.4166666666666,112.30601851851851,613.8333333333334,112.29537037037036,616.25,112.28472222222221C618.6666666666666,112.27407407407406,621.0833333333334,112.26342592592593,623.5,112.25277777777778C625.9166666666666,112.24212962962963,628.3333333333334,112.23148148148148,630.75,112.22083333333333C633.1666666666666,112.21018518518518,635.5833333333334,112.19953703703703,638,112.18888888888888C640.4166666666666,112.17824074074073,642.8333333333334,112.1675925925926,645.25,112.15694444444445C647.6666666666666,112.1462962962963,650.0833333333334,112.13564814814815,652.5,112.125C654.9166666666666,112.11435185185185,657.3333333333334,112.10370370370372,659.75,112.09305555555557C662.1666666666666,112.08240740740742,664.5833333333334,112.07175925925927,667,112.06111111111112C669.4166666666666,112.05046296296297,671.8333333333334,112.03981481481482,674.25,112.02916666666667C676.6666666666666,112.01851851851852,679.0833333333334,112.00787037037037,681.5,111.99722222222222C683.9166666666666,111.98657407407407,686.3333333333334,111.97592592592592,688.75,111.96527777777777C691.1666666666666,111.95462962962962,693.5833333333334,111.94398148148149,696,111.93333333333334C698.4166666666666,111.92268518518519,700.8333333333334,111.91203703703704,703.25,111.90138888888889C705.6666666666666,111.89074074074074,708.0833333333334,111.88009259259259,710.5,111.86944444444444C712.9166666666666,111.85879629629629,715.3333333333334,111.84814814814816,717.75,111.8375C720.1666666666666,111.82685185185186,722.5833333333334,111.8162037037037,725,111.80555555555556C727.4166666666666,111.79490740740741,729.8333333333334,111.78425925925927,732.25,111.77361111111112C734.6666666666666,111.76296296296297,737.0833333333334,111.75231481481482,739.5,111.74166666666667C741.9166666666666,111.73101851851852,744.3333333333334,111.72037037037036,746.75,111.70972222222221C749.1666666666666,111.69907407407406,751.5833333333334,111.68842592592593,754,111.67777777777778C756.4166666666666,111.66712962962963,758.8333333333334,111.65648148148148,761.25,111.64583333333333C763.6666666666666,111.63518518518518,766.0833333333334,111.62453703703703,768.5,111.61388888888888C770.9166666666666,111.60324074074073,773.3333333333334,111.5925925925926,775.75,111.58194444444445C778.1666666666666,111.5712962962963,780.5833333333334,111.56064814814815,783,111.55C785.4166666666667,111.53935185185185,787.8333333333334,111.52870370370371,790.2500000000001,111.51805555555556C792.6666666666667,111.50740740740741,795.0833333333335,111.49675925925926,797.5000000000001,111.48611111111111C799.9166666666667,111.47546296296296,802.3333333333335,111.46481481481482,804.7500000000001,111.45416666666667C807.1666666666667,111.44351851851852,809.5833333333335,111.43287037037038,812.0000000000001,111.42222222222223C814.4166666666667,111.41157407407408,816.8333333333333,111.40092592592592,819.2499999999999,111.39027777777777C821.6666666666665,111.37962962962962,824.0833333333333,111.36898148148148,826.4999999999999,111.35833333333333C828.9166666666665,111.34768518518518,831.3333333333333,111.33703703703704,833.7499999999999,111.32638888888889C836.1666666666665,111.31574074074074,838.5833333333333,111.30509259259259,840.9999999999999,111.29444444444444C843.4166666666666,111.28379629629629,845.8333333333333,111.27314814814815,848.25,111.2625C850.6666666666666,111.25185185185185,853.0833333333334,111.2412037037037,855.5,111.23055555555555C857.9166666666666,111.2199074074074,860.3333333333334,111.20925925925927,862.75,111.19861111111112C865.1666666666666,111.18796296296297,867.5833333333334,111.17731481481482,870,111.16666666666667C872.4166666666666,111.15601851851852,874.8333333333334,111.14537037037037,877.25,111.13472222222222C879.6666666666666,111.12407407407407,882.0833333333334,111.11342592592594,884.5,111.10277777777779C886.9166666666666,111.09212962962964,889.3333333333334,111.08148148148148,891.75,111.07083333333333C894.1666666666666,111.06018518518518,896.5833333333334,111.04953703703703,899,111.03888888888888C901.4166666666666,111.02824074074073,903.8333333333334,111.01759259259259,906.25,111.00694444444444C908.6666666666666,110.9962962962963,911.0833333333334,110.98564814814814,913.5,110.975C915.9166666666666,110.96435185185184,918.3333333333334,110.95370370370371,920.75,110.94305555555556C923.1666666666666,110.93240740740741,925.5833333333334,110.92175925925926,928,110.91111111111111C930.4166666666666,110.90046296296296,932.8333333333334,110.88981481481481,935.25,110.87916666666666C937.6666666666666,110.86851851851851,940.0833333333334,110.85787037037038,942.5,110.84722222222223C944.9166666666666,110.83657407407408,947.3333333333334,110.82592592592593,949.75,110.81527777777778C952.1666666666666,110.80462962962963,954.5833333333334,110.79398148148148,957,110.78333333333333C959.4166666666666,110.77268518518518,961.8333333333334,110.76203703703703,964.25,110.75138888888888C966.6666666666667,110.74074074074073,969.0833333333334,110.73009259259258,971.5000000000001,110.71944444444443C973.9166666666667,110.70879629629628,976.3333333333335,110.69814814814815,978.7500000000001,110.6875C981.1666666666667,110.67685185185185,983.5833333333335,110.6662037037037,986.0000000000001,110.65555555555555C988.4166666666667,110.6449074074074,990.8333333333335,110.63425925925927,993.2500000000001,110.62361111111112C995.6666666666667,110.61296296296297,998.0833333333333,110.60231481481482,1000.4999999999999,110.59166666666667C1002.9166666666665,110.58101851851852,1005.3333333333333,110.57037037037037,1007.7499999999999,110.55972222222222C1010.1666666666665,110.54907407407407,1012.5833333333333,110.53842592592594,1014.9999999999999,110.52777777777779C1017.4166666666665,110.51712962962964,1019.8333333333333,110.50648148148149,1022.2499999999999,110.49583333333334C1024.6666666666665,110.48518518518519,1027.0833333333333,110.47453703703704,1029.5,110.46388888888889C1031.9166666666667,110.45324074074074,1034.3333333333333,110.44259259259259,1036.75,110.43194444444444C1039.1666666666667,110.42129629629629,1041.5833333333333,110.41064814814814,1044,110.39999999999999C1046.4166666666667,110.38935185185184,1048.8333333333333,110.3787037037037,1051.25,110.36805555555556C1053.6666666666667,110.35740740740741,1056.0833333333333,110.34675925925926,1058.5,110.33611111111111C1060.9166666666667,110.32546296296296,1063.3333333333333,110.31481481481482,1065.75,110.30416666666667C1068.1666666666667,110.29351851851852,1070.5833333333333,110.28287037037038,1073,110.27222222222223C1075.4166666666667,110.26157407407408,1077.8333333333333,110.25092592592593,1080.25,110.24027777777778C1082.6666666666667,110.22962962962963,1085.0833333333333,110.21898148148149,1087.5,110.20833333333334C1089.9166666666667,110.1976851851852,1092.3333333333333,110.18703703703704,1094.75,110.1763888888889C1097.1666666666667,110.16574074074074,1099.5833333333333,110.1550925925926,1102,110.14444444444445C1104.4166666666667,110.1337962962963,1106.8333333333333,110.12314814814815,1109.25,110.1125C1111.6666666666667,110.10185185185185,1114.0833333333333,110.0912037037037,1116.5,110.08055555555555C1118.9166666666667,110.0699074074074,1121.3333333333333,110.05925925925926,1123.75,110.04861111111111C1126.1666666666667,110.03796296296296,1128.5833333333333,110.02731481481482,1131,110.01666666666667C1133.4166666666667,110.00601851851852,1135.8333333333333,109.99537037037037,1138.25,109.98472222222222C1140.6666666666667,109.97407407407407,1143.0833333333333,109.96342592592593,1145.5,109.95277777777778C1147.9166666666667,109.94212962962963,1150.3333333333333,109.93148148148148,1152.75,109.92083333333333C1155.1666666666667,109.91018518518518,1157.5833333333333,109.89953703703705,1160,109.8888888888889C1162.4166666666667,109.87824074074075,1164.8333333333333,109.8675925925926,1167.25,109.85694444444445C1169.6666666666667,109.8462962962963,1172.0833333333333,109.83564814814814,1174.5,109.82499999999999C1176.9166666666667,109.81435185185184,1179.3333333333333,109.8037037037037,1181.75,109.79305555555555C1184.1666666666667,109.7824074074074,1186.5833333333333,109.77175925925926,1189,109.7611111111111C1191.4166666666667,109.75046296296296,1193.8333333333333,109.73981481481482,1196.25,109.72916666666667C1198.6666666666667,109.71851851851852,1201.0833333333333,109.70787037037037,1203.5,109.69722222222222C1205.9166666666667,109.68657407407407,1208.3333333333333,109.67592592592592,1210.75,109.66527777777777C1213.1666666666667,109.65462962962962,1215.5833333333333,109.64398148148149,1218,109.63333333333334C1220.4166666666667,109.62268518518519,1222.8333333333333,109.61203703703704,1225.25,109.60138888888889C1227.6666666666667,109.59074074074074,1230.0833333333333,109.58009259259259,1232.5,109.56944444444444C1234.9166666666667,109.5587962962963,1237.3333333333333,109.54814814814816,1239.75,109.53750000000001C1242.1666666666667,109.52685185185186,1244.5833333333333,109.5162037037037,1247,109.50555555555555C1249.4166666666667,109.4949074074074,1251.8333333333333,109.48425925925926,1254.25,109.47361111111111C1256.6666666666667,109.46296296296296,1259.0833333333333,109.45231481481481,1261.5,109.44166666666666C1263.9166666666667,109.43101851851851,1266.3333333333333,109.42037037037036,1268.75,109.40972222222221C1271.1666666666667,109.39907407407406,1273.5833333333333,109.38842592592593,1276,109.37777777777778C1278.4166666666667,109.36712962962963,1280.8333333333333,109.35648148148148,1283.25,109.34583333333333C1285.6666666666667,109.33518518518518,1288.0833333333333,109.32453703703705,1290.5,109.3138888888889C1292.9166666666667,109.30324074074075,1295.3333333333333,109.2925925925926,1297.75,109.28194444444445C1300.1666666666667,109.2712962962963,1302.5833333333333,109.2712962962963,1305,109.25C1307.4166666666667,109.2287037037037,1309.8333333333333,106.375,1312.25,104.9375C1314.6666666666667,103.5,1317.0833333333333,102.0625,1319.5,100.625C1321.9166666666667,99.1875,1324.3333333333333,97.75,1326.75,96.3125C1329.1666666666667,94.875,1331.5833333333333,93.4375,1334,92C1336.4166666666667,90.5625,1338.8333333333333,89.125,1341.25,87.6875C1343.6666666666667,86.25,1346.0833333333333,84.8125,1348.5,83.375C1350.9166666666667,81.9375,1353.3333333333333,80.5,1355.75,79.0625C1358.1666666666667,77.625,1360.5833333333333,76.1875,1363,74.75C1365.4166666666667,73.3125,1367.8333333333333,71.875,1370.25,70.4375C1372.6666666666667,69,1375.0833333333333,67.5625,1377.5,66.125C1379.9166666666667,64.6875,1382.3333333333333,63.25,1384.75,61.8125C1387.1666666666667,60.375,1389.5833333333333,58.9375,1392,57.5C1394.4166666666667,56.0625,1396.8333333333333,54.625,1399.25,53.1875C1401.6666666666667,51.75,1404.0833333333333,50.31250000000001,1406.5,48.87500000000001C1408.9166666666667,47.43750000000001,1411.3333333333333,45.99999999999999,1413.75,44.56249999999999C1416.1666666666667,43.12499999999999,1418.5833333333333,41.6875,1421,40.25C1423.4166666666667,38.8125,1425.8333333333333,37.375,1428.25,35.9375C1430.6666666666667,34.5,1433.0833333333333,33.0625,1435.5,31.625000000000004C1437.9166666666667,30.187500000000004,1440.3333333333333,28.750000000000004,1442.75,27.312500000000004C1445.1666666666667,25.875000000000004,1447.5833333333333,24.4375,1450,22.999999999999996" fill="transparent" stroke-linecap="round" stroke="#B6509E" stroke-width="2"></path><path class="visx-linepath" d="M0,108.09999999994889C2.4166666666666665,108.09148148145167,4.833333333333334,108.08296296295445,7.25,108.07444444444445C9.666666666666666,108.06592592593445,12.083333333333334,108.05740740740741,14.5,108.0488888888889C16.916666666666668,108.04037037037038,19.333333333333332,108.03185185185185,21.75,108.02333333333334C24.166666666666668,108.01481481481483,26.583333333333332,108.0062962962963,29,107.99777777777778C31.416666666666668,107.98925925925927,33.833333333333336,107.98074074074074,36.25,107.97222222222223C38.666666666666664,107.96370370370371,41.083333333333336,107.95518518518517,43.5,107.94666666666666C45.91666666666667,107.93814814814813,48.333333333333336,107.92962962962962,50.75000000000001,107.9211111111111C53.16666666666667,107.91259259259259,55.583333333333336,107.90407407407406,58,107.89555555555555C60.416666666666664,107.88703703703703,62.833333333333336,107.8785185185185,65.25,107.86999999999999C67.66666666666667,107.86148148148148,70.08333333333333,107.85296296296296,72.5,107.84444444444445C74.91666666666667,107.83592592592593,77.33333333333333,107.8274074074074,79.75,107.81888888888889C82.16666666666667,107.81037037037038,84.58333333333333,107.80185185185185,87,107.79333333333334C89.41666666666667,107.78481481481482,91.83333333333333,107.7762962962963,94.25,107.76777777777778C96.66666666666667,107.75925925925927,99.08333333333334,107.75074074074074,101.50000000000001,107.74222222222222C103.91666666666667,107.73370370370371,106.33333333333334,107.72518518518518,108.75,107.71666666666667C111.16666666666667,107.70814814814815,113.58333333333333,107.69962962962963,116,107.69111111111111C118.41666666666667,107.6825925925926,120.83333333333334,107.67407407407408,123.25000000000001,107.66555555555556C125.66666666666667,107.65703703703704,128.08333333333334,107.6485185185185,130.5,107.63999999999999C132.91666666666666,107.63148148148147,135.33333333333334,107.62296296296296,137.75,107.61444444444444C140.16666666666666,107.60592592592593,142.58333333333334,107.5974074074074,145,107.58888888888889C147.41666666666666,107.58037037037037,149.83333333333334,107.57185185185185,152.25,107.56333333333333C154.66666666666666,107.55481481481482,157.08333333333334,107.54629629629629,159.5,107.53777777777778C161.91666666666666,107.52925925925926,164.33333333333334,107.52074074074073,166.75,107.51222222222222C169.16666666666666,107.5037037037037,171.58333333333334,107.49518518518518,174,107.48666666666666C176.41666666666666,107.47814814814815,178.83333333333334,107.46962962962962,181.25,107.46111111111111C183.66666666666666,107.4525925925926,186.08333333333334,107.44407407407407,188.5,107.43555555555555C190.91666666666666,107.42703703703704,193.33333333333334,107.41851851851851,195.75,107.41C198.16666666666669,107.40148148148148,200.58333333333334,107.39296296296297,203.00000000000003,107.38444444444445C205.41666666666669,107.37592592592594,207.83333333333331,107.36740740740741,210.24999999999997,107.3588888888889C212.66666666666666,107.35037037037037,215.08333333333331,107.34185185185186,217.5,107.33333333333333C219.91666666666666,107.32481481481481,222.33333333333334,107.31629629629629,224.75,107.30777777777777C227.16666666666666,107.29925925925926,229.58333333333334,107.29074074074073,232,107.28222222222222C234.41666666666666,107.2737037037037,236.83333333333334,107.26518518518517,239.25,107.25666666666666C241.66666666666669,107.24814814814815,244.08333333333334,107.23962962962962,246.50000000000003,107.2311111111111C248.91666666666669,107.22259259259259,251.33333333333331,107.21407407407406,253.74999999999997,107.20555555555555C256.16666666666663,107.19703703703703,258.5833333333333,107.1885185185185,261,107.17999999999999C263.4166666666667,107.17148148148148,265.8333333333333,107.16296296296296,268.25,107.15444444444445C270.6666666666667,107.14592592592594,273.0833333333333,107.13740740740741,275.5,107.1288888888889C277.9166666666667,107.12037037037038,280.3333333333333,107.11185185185185,282.75,107.10333333333334C285.1666666666667,107.09481481481482,287.5833333333333,107.0862962962963,290,107.07777777777778C292.4166666666667,107.06925925925927,294.8333333333333,107.06074074074074,297.25,107.05222222222223C299.6666666666667,107.04370370370371,302.0833333333333,107.03518518518518,304.5,107.02666666666667C306.9166666666667,107.01814814814816,309.3333333333333,107.00962962962961,311.75,107.0011111111111C314.1666666666667,106.99259259259259,316.5833333333333,106.98407407407407,319,106.97555555555556C321.4166666666667,106.96703703703704,323.8333333333333,106.9585185185185,326.25,106.94999999999999C328.6666666666667,106.94148148148147,331.0833333333333,106.93296296296296,333.5,106.92444444444445C335.9166666666667,106.91592592592593,338.3333333333333,106.9074074074074,340.75,106.89888888888889C343.1666666666667,106.89037037037038,345.5833333333333,106.88185185185185,348,106.87333333333333C350.4166666666667,106.86481481481482,352.8333333333333,106.85629629629629,355.25,106.84777777777778C357.6666666666667,106.83925925925926,360.0833333333333,106.83074074074074,362.5,106.82222222222222C364.9166666666667,106.81370370370371,367.3333333333333,106.80518518518518,369.75,106.79666666666667C372.1666666666667,106.78814814814815,374.5833333333333,106.77962962962962,377,106.77111111111111C379.4166666666667,106.7625925925926,381.8333333333333,106.75407407407408,384.25,106.74555555555557C386.6666666666667,106.73703703703706,389.0833333333333,106.72851851851851,391.5,106.72C393.9166666666667,106.71148148148147,396.33333333333337,106.70296296296296,398.75000000000006,106.69444444444444C401.16666666666674,106.68592592592593,403.58333333333337,106.6774074074074,406.00000000000006,106.66888888888889C408.4166666666667,106.66037037037037,410.8333333333333,106.65185185185184,413.24999999999994,106.64333333333333C415.66666666666663,106.63481481481482,418.08333333333326,106.62629629629629,420.49999999999994,106.61777777777777C422.91666666666663,106.60925925925926,425.3333333333333,106.60074074074073,427.75,106.59222222222222C430.1666666666667,106.5837037037037,432.5833333333333,106.57518518518518,435,106.56666666666666C437.4166666666667,106.55814814814815,439.8333333333333,106.54962962962962,442.25,106.5411111111111C444.6666666666667,106.5325925925926,447.0833333333333,106.52407407407408,449.5,106.51555555555557C451.9166666666667,106.50703703703705,454.3333333333333,106.49851851851852,456.75,106.49000000000001C459.1666666666667,106.4814814814815,461.5833333333333,106.47296296296297,464,106.46444444444445C466.4166666666667,106.45592592592594,468.8333333333333,106.44740740740741,471.25,106.4388888888889C473.6666666666667,106.43037037037038,476.0833333333333,106.42185185185186,478.5,106.41333333333334C480.9166666666667,106.40481481481481,483.33333333333337,106.3962962962963,485.75000000000006,106.38777777777777C488.16666666666674,106.37925925925926,490.58333333333337,106.37074074074073,493.00000000000006,106.36222222222221C495.4166666666667,106.3537037037037,497.8333333333333,106.34518518518517,500.24999999999994,106.33666666666666C502.66666666666663,106.32814814814814,505.08333333333326,106.31962962962962,507.49999999999994,106.3111111111111C509.91666666666663,106.30259259259259,512.3333333333333,106.29407407407408,514.75,106.28555555555556C517.1666666666666,106.27703703703705,519.5833333333334,106.26851851851852,522,106.26C524.4166666666666,106.25148148148149,526.8333333333334,106.24296296296296,529.25,106.23444444444445C531.6666666666666,106.22592592592594,534.0833333333334,106.2174074074074,536.5,106.2088888888889C538.9166666666666,106.20037037037038,541.3333333333334,106.19185185185185,543.75,106.18333333333334C546.1666666666666,106.17481481481482,548.5833333333334,106.1662962962963,551,106.15777777777778C553.4166666666666,106.14925925925927,555.8333333333334,106.14074074074074,558.25,106.13222222222223C560.6666666666666,106.12370370370371,563.0833333333334,106.11518518518518,565.5,106.10666666666667C567.9166666666666,106.09814814814816,570.3333333333334,106.08962962962963,572.75,106.08111111111111C575.1666666666666,106.0725925925926,577.5833333333334,106.06407407407407,580,106.05555555555556C582.4166666666666,106.04703703703704,584.8333333333334,106.03851851851852,587.25,106.03C589.6666666666666,106.02148148148149,592.0833333333334,106.01296296296296,594.5,106.00444444444445C596.9166666666666,105.99592592592593,599.3333333333334,105.9874074074074,601.75,105.97888888888889C604.1666666666666,105.97037037037038,606.5833333333334,105.96185185185185,609,105.95333333333333C611.4166666666666,105.94481481481482,613.8333333333334,105.93629629629629,616.25,105.92777777777778C618.6666666666666,105.91925925925926,621.0833333333334,105.91074074074074,623.5,105.90222222222222C625.9166666666666,105.89370370370371,628.3333333333334,105.88518518518518,630.75,105.87666666666667C633.1666666666666,105.86814814814815,635.5833333333334,105.85962962962962,638,105.85111111111111C640.4166666666666,105.8425925925926,642.8333333333334,105.83407407407408,645.25,105.82555555555557C647.6666666666666,105.81703703703705,650.0833333333334,105.80851851851853,652.5,105.80000000000001C654.9166666666666,105.7914814814815,657.3333333333334,105.78296296296296,659.75,105.77444444444444C662.1666666666666,105.76592592592593,664.5833333333334,105.7574074074074,667,105.74888888888889C669.4166666666666,105.74037037037037,671.8333333333334,105.73185185185184,674.25,105.72333333333333C676.6666666666666,105.71481481481482,679.0833333333334,105.70629629629629,681.5,105.69777777777777C683.9166666666666,105.68925925925926,686.3333333333334,105.68074074074073,688.75,105.67222222222222C691.1666666666666,105.6637037037037,693.5833333333334,105.65518518518518,696,105.64666666666666C698.4166666666666,105.63814814814815,700.8333333333334,105.62962962962962,703.25,105.6211111111111C705.6666666666666,105.61259259259259,708.0833333333334,105.60407407407408,710.5,105.59555555555556C712.9166666666666,105.58703703703705,715.3333333333334,105.57851851851851,717.75,105.57C720.1666666666666,105.56148148148148,722.5833333333334,105.55296296296297,725,105.54444444444445C727.4166666666666,105.53592592592594,729.8333333333334,105.52740740740741,732.25,105.5188888888889C734.6666666666666,105.51037037037038,737.0833333333334,105.50185185185185,739.5,105.49333333333334C741.9166666666666,105.48481481481483,744.3333333333334,105.47629629629631,746.75,105.46777777777778C749.1666666666666,105.45925925925926,751.5833333333334,105.45074074074073,754,105.44222222222221C756.4166666666666,105.4337037037037,758.8333333333334,105.42518518518519,761.25,105.41666666666667C763.6666666666666,105.40814814814816,766.0833333333334,105.39962962962962,768.5,105.3911111111111C770.9166666666666,105.38259259259259,773.3333333333334,105.37407407407407,775.75,105.36555555555556C778.1666666666666,105.35703703703705,780.5833333333334,105.34851851851852,783,105.34C785.4166666666667,105.33148148148149,787.8333333333334,105.32296296296296,790.2500000000001,105.31444444444445C792.6666666666667,105.30592592592593,795.0833333333335,105.2974074074074,797.5000000000001,105.28888888888889C799.9166666666667,105.28037037037038,802.3333333333335,105.27185185185185,804.7500000000001,105.26333333333334C807.1666666666667,105.25481481481482,809.5833333333335,105.2462962962963,812.0000000000001,105.23777777777778C814.4166666666667,105.22925925925927,816.8333333333333,105.22074074074074,819.2499999999999,105.21222222222222C821.6666666666665,105.20370370370371,824.0833333333333,105.19518518518518,826.4999999999999,105.18666666666667C828.9166666666665,105.17814814814815,831.3333333333333,105.16962962962963,833.7499999999999,105.16111111111111C836.1666666666665,105.1525925925926,838.5833333333333,105.14407407407407,840.9999999999999,105.13555555555556C843.4166666666666,105.12703703703704,845.8333333333333,105.11851851851851,848.25,105.11C850.6666666666666,105.10148148148149,853.0833333333334,105.09296296296296,855.5,105.08444444444444C857.9166666666666,105.07592592592593,860.3333333333334,105.0674074074074,862.75,105.05888888888889C865.1666666666666,105.05037037037037,867.5833333333334,105.04185185185185,870,105.03333333333333C872.4166666666666,105.02481481481482,874.8333333333334,105.01629629629629,877.25,105.00777777777778C879.6666666666666,104.99925925925926,882.0833333333334,104.99074074074073,884.5,104.98222222222222C886.9166666666666,104.9737037037037,889.3333333333334,104.96518518518519,891.75,104.95666666666668C894.1666666666666,104.94814814814816,896.5833333333334,104.93962962962962,899,104.93111111111111C901.4166666666666,104.9225925925926,903.8333333333334,104.91407407407408,906.25,104.90555555555557C908.6666666666666,104.89703703703705,911.0833333333334,104.88851851851852,913.5,104.88000000000001C915.9166666666666,104.8714814814815,918.3333333333334,104.86296296296297,920.75,104.85444444444445C923.1666666666666,104.84592592592594,925.5833333333334,104.8374074074074,928,104.82888888888888C930.4166666666666,104.82037037037037,932.8333333333334,104.81185185185184,935.25,104.80333333333333C937.6666666666666,104.79481481481481,940.0833333333334,104.78629629629629,942.5,104.77777777777777C944.9166666666666,104.76925925925926,947.3333333333334,104.76074074074073,949.75,104.75222222222222C952.1666666666666,104.7437037037037,954.5833333333334,104.73518518518517,957,104.72666666666666C959.4166666666666,104.71814814814815,961.8333333333334,104.70962962962962,964.25,104.7011111111111C966.6666666666667,104.69259259259259,969.0833333333334,104.68407407407408,971.5000000000001,104.67555555555556C973.9166666666667,104.66703703703705,976.3333333333335,104.65851851851852,978.7500000000001,104.65C981.1666666666667,104.64148148148149,983.5833333333335,104.63296296296296,986.0000000000001,104.62444444444445C988.4166666666667,104.61592592592594,990.8333333333335,104.60740740740741,993.2500000000001,104.5988888888889C995.6666666666667,104.59037037037038,998.0833333333333,104.58185185185185,1000.4999999999999,104.57333333333334C1002.9166666666665,104.56481481481482,1005.3333333333333,104.5562962962963,1007.7499999999999,104.54777777777778C1010.1666666666665,104.53925925925927,1012.5833333333333,104.53074074074073,1014.9999999999999,104.52222222222221C1017.4166666666665,104.5137037037037,1019.8333333333333,104.50518518518518,1022.2499999999999,104.49666666666667C1024.6666666666665,104.48814814814816,1027.0833333333333,104.47962962962961,1029.5,104.4711111111111C1031.9166666666667,104.46259259259259,1034.3333333333333,104.45407407407407,1036.75,104.44555555555556C1039.1666666666667,104.43703703703704,1041.5833333333333,104.42851851851852,1044,104.42C1046.4166666666667,104.41148148148149,1048.8333333333333,104.40296296296296,1051.25,104.39444444444445C1053.6666666666667,104.38592592592593,1056.0833333333333,104.3774074074074,1058.5,104.36888888888889C1060.9166666666667,104.36037037037038,1063.3333333333333,104.35185185185185,1065.75,104.34333333333333C1068.1666666666667,104.33481481481482,1070.5833333333333,104.32629629629629,1073,104.31777777777778C1075.4166666666667,104.30925925925926,1077.8333333333333,104.30074074074074,1080.25,104.29222222222222C1082.6666666666667,104.28370370370371,1085.0833333333333,104.27518518518518,1087.5,104.26666666666667C1089.9166666666667,104.25814814814815,1092.3333333333333,104.24962962962962,1094.75,104.24111111111111C1097.1666666666667,104.2325925925926,1099.5833333333333,104.22407407407407,1102,104.21555555555555C1104.4166666666667,104.20703703703704,1106.8333333333333,104.19851851851851,1109.25,104.19C1111.6666666666667,104.18148148148148,1114.0833333333333,104.17296296296296,1116.5,104.16444444444444C1118.9166666666667,104.15592592592593,1121.3333333333333,104.1474074074074,1123.75,104.13888888888889C1126.1666666666667,104.13037037037037,1128.5833333333333,104.12185185185184,1131,104.11333333333333C1133.4166666666667,104.10481481481482,1135.8333333333333,104.09629629629629,1138.25,104.08777777777777C1140.6666666666667,104.07925925925926,1143.0833333333333,104.07074074074073,1145.5,104.06222222222222C1147.9166666666667,104.0537037037037,1150.3333333333333,104.04518518518519,1152.75,104.03666666666668C1155.1666666666667,104.02814814814816,1157.5833333333333,104.01962962962962,1160,104.0111111111111C1162.4166666666667,104.00259259259259,1164.8333333333333,103.99407407407408,1167.25,103.98555555555556C1169.6666666666667,103.97703703703705,1172.0833333333333,103.96851851851852,1174.5,103.96000000000001C1176.9166666666667,103.9514814814815,1179.3333333333333,103.94296296296297,1181.75,103.93444444444445C1184.1666666666667,103.92592592592594,1186.5833333333333,103.91740740740741,1189,103.9088888888889C1191.4166666666667,103.90037037037038,1193.8333333333333,103.89185185185184,1196.25,103.88333333333333C1198.6666666666667,103.87481481481481,1201.0833333333333,103.86629629629628,1203.5,103.85777777777777C1205.9166666666667,103.84925925925926,1208.3333333333333,103.84074074074073,1210.75,103.83222222222221C1213.1666666666667,103.8237037037037,1215.5833333333333,103.81518518518519,1218,103.80666666666667C1220.4166666666667,103.79814814814816,1222.8333333333333,103.78962962962962,1225.25,103.7811111111111C1227.6666666666667,103.77259259259259,1230.0833333333333,103.76407407407407,1232.5,103.75555555555556C1234.9166666666667,103.74703703703705,1237.3333333333333,103.73851851851852,1239.75,103.73C1242.1666666666667,103.72148148148149,1244.5833333333333,103.71296296296296,1247,103.70444444444445C1249.4166666666667,103.69592592592593,1251.8333333333333,103.6874074074074,1254.25,103.67888888888889C1256.6666666666667,103.67037037037038,1259.0833333333333,103.66185185185185,1261.5,103.65333333333334C1263.9166666666667,103.64481481481482,1266.3333333333333,103.6362962962963,1268.75,103.62777777777778C1271.1666666666667,103.61925925925927,1273.5833333333333,103.61074074074074,1276,103.60222222222222C1278.4166666666667,103.59370370370371,1280.8333333333333,103.5851851851852,1283.25,103.57666666666667C1285.6666666666667,103.56814814814814,1288.0833333333333,103.55962962962961,1290.5,103.5511111111111C1292.9166666666667,103.54259259259258,1295.3333333333333,103.53407407407407,1297.75,103.52555555555556C1300.1666666666667,103.51703703703704,1302.5833333333333,103.51703703703704,1305,103.5C1307.4166666666667,103.48296296296296,1309.8333333333333,100.74,1312.25,99.36C1314.6666666666667,97.98,1317.0833333333333,96.60000000000001,1319.5,95.22000000000001C1321.9166666666667,93.84000000000002,1324.3333333333333,92.46000000000001,1326.75,91.08C1329.1666666666667,89.69999999999999,1331.5833333333333,88.32,1334,86.94C1336.4166666666667,85.56,1338.8333333333333,84.17999999999999,1341.25,82.8C1343.6666666666667,81.42,1346.0833333333333,80.03999999999999,1348.5,78.66C1350.9166666666667,77.28,1353.3333333333333,75.9,1355.75,74.52C1358.1666666666667,73.13999999999999,1360.5833333333333,71.75999999999998,1363,70.37999999999998C1365.4166666666667,68.99999999999999,1367.8333333333333,67.62,1370.25,66.24000000000001C1372.6666666666667,64.86000000000001,1375.0833333333333,63.480000000000004,1377.5,62.1C1379.9166666666667,60.72,1382.3333333333333,59.34,1384.75,57.96C1387.1666666666667,56.58,1389.5833333333333,55.19999999999999,1392,53.81999999999999C1394.4166666666667,52.44,1396.8333333333333,51.06,1399.25,49.68000000000001C1401.6666666666667,48.30000000000001,1404.0833333333333,46.92,1406.5,45.54C1408.9166666666667,44.16,1411.3333333333333,42.78,1413.75,41.4C1416.1666666666667,40.019999999999996,1418.5833333333333,38.64,1421,37.26C1423.4166666666667,35.879999999999995,1425.8333333333333,34.49999999999999,1428.25,33.11999999999999C1430.6666666666667,31.73999999999999,1433.0833333333333,30.36,1435.5,28.98C1437.9166666666667,27.6,1440.3333333333333,26.219999999999995,1442.75,24.839999999999996C1445.1666666666667,23.459999999999997,1447.5833333333333,22.080000000000002,1450,20.700000000000006" fill="transparent" stroke-linecap="round" stroke="#E7C6DF" stroke-width="2"></path><g class="visx-group visx-axis visx-axis-bottom" transform="translate(0, 115)"><g class="visx-group visx-axis-tick" transform="translate(0, 0)"><line class="visx-line" x1="0" y1="0" x2="0" y2="8" fill="transparent" shape-rendering="crispEdges" stroke="#000" stroke-width="0" stroke-linecap="square"></line><svg x="0" y="0" font-size="10" style="overflow:visible"><text transform="" x="0" y="18" fill="#000" font-size="10" text-anchor="middle"><tspan x="0" dy="0em">0%</tspan></text></svg></g><g class="visx-group visx-axis-tick" transform="translate(0, 0)"><line class="visx-line" x1="362.5" y1="0" x2="362.5" y2="8" fill="transparent" shape-rendering="crispEdges" stroke="#000" stroke-width="0" stroke-linecap="square"></line><svg x="0" y="0" font-size="10" style="overflow:visible"><text transform="" x="362.5" y="18" fill="#000" font-size="10" text-anchor="middle"><tspan x="362.5" dy="0em">25%</tspan></text></svg></g><g class="visx-group visx-axis-tick" transform="translate(0, 0)"><line class="visx-line" x1="725" y1="0" x2="725" y2="8" fill="transparent" shape-rendering="crispEdges" stroke="#000" stroke-width="0" stroke-linecap="square"></line><svg x="0" y="0" font-size="10" style="overflow:visible"><text transform="" x="725" y="18" fill="#000" font-size="10" text-anchor="middle"><tspan x="725" dy="0em">50%</tspan></text></svg></g><g class="visx-group visx-axis-tick" transform="translate(0, 0)"><line class="visx-line" x1="1087.5" y1="0" x2="1087.5" y2="8" fill="transparent" shape-rendering="crispEdges" stroke="#000" stroke-width="0" stroke-linecap="square"></line><svg x="0" y="0" font-size="10" style="overflow:visible"><text transform="" x="1087.5" y="18" fill="#000" font-size="10" text-anchor="middle"><tspan x="1087.5" dy="0em">75%</tspan></text></svg></g><g class="visx-group visx-axis-tick" transform="translate(0, 0)"><line class="visx-line" x1="1450" y1="0" x2="1450" y2="8" fill="transparent" shape-rendering="crispEdges" stroke="#000" stroke-width="0" stroke-linecap="square"></line><svg x="0" y="0" font-size="10" style="overflow:visible"><text transform="" x="1450" y="18" fill="#000" font-size="10" text-anchor="middle"><tspan x="1450" dy="0em">100%</tspan></text></svg></g><line class="visx-line visx-axis-line" x1="0.5" y1="0" x2="1450.5" y2="0" fill="transparent" shape-rendering="crispEdges" stroke="#222" stroke-width="0"></line></g><g class="visx-group visx-axis visx-axis-left" transform="translate(0, 0)"><g class="visx-group visx-axis-tick" transform="translate(0, 0)"><line class="visx-line" x1="0" y1="115" x2="-8" y2="115" fill="transparent" shape-rendering="crispEdges" stroke="#222" stroke-width="0" stroke-linecap="square"></line><svg x="-30" y="0" font-size="8" style="overflow:visible"><text transform="" x="-8" y="115" fill="#000" font-size="8" text-anchor="start"><tspan x="-8" dy="0em">0%</tspan></text></svg></g><g class="visx-group visx-axis-tick" transform="translate(0, 0)"><line class="visx-line" x1="0" y1="57.5" x2="-8" y2="57.5" fill="transparent" shape-rendering="crispEdges" stroke="#222" stroke-width="0" stroke-linecap="square"></line><svg x="-30" y="0" font-size="8" style="overflow:visible"><text transform="" x="-8" y="57.5" fill="#000" font-size="8" text-anchor="start"><tspan x="-8" dy="0em">50%</tspan></text></svg></g><g class="visx-group visx-axis-tick" transform="translate(0, 0)"><line class="visx-line" x1="0" y1="0" x2="-8" y2="0" fill="transparent" shape-rendering="crispEdges" stroke="#222" stroke-width="0" stroke-linecap="square"></line><svg x="-30" y="0" font-size="8" style="overflow:visible"><text transform="" x="-8" y="0" fill="#000" font-size="8" text-anchor="start"><tspan x="-8" dy="0em">100%</tspan></text></svg></g><line class="visx-line visx-axis-line" x1="0" y1="115.5" x2="0" y2="0.5" fill="transparent" shape-rendering="crispEdges" stroke="#222" stroke-width="0"></line></g><rect class="visx-bar" width="1450" height="115" fill="transparent"></rect><line class="visx-line" x1="1305" y1="28" x2="1305" y2="115" fill="transparent" shape-rendering="crispEdges" stroke="#0062D2" stroke-width="1" pointer-events="none" stroke-dasharray="5,2"></line><svg x="0" y="0" font-size="10px" style="overflow:visible"><text transform="" x="1305" y="20" font-size="10px" fill="#fff" stroke="#fff" stroke-width="0.8em" text-anchor="middle"><tspan x="1305" dy="0.355em">Optimal 90%</tspan></text></svg><svg x="0" y="0" font-size="10px" style="overflow:visible"><text transform="" x="1305" y="20" font-size="10px" fill="#62677B" text-anchor="middle"><tspan x="1305" dy="0.355em">Optimal 90%</tspan></text></svg></g></svg>