<?xml version="1.0"?><svg xmlns="http://www.w3.org/2000/svg" xmlns:xlink= "http://www.w3.org/1999/xlink" style="background: white;" width="1500" height="300"> <g style="color: black; font-size: 13px; font-family: sans-serif; transform: translate(18px, 25px);"><g><circle r="3" cx="-6" cy="-5" style="fill: #1AD4B3" /><text>Borrow APR, variable</text></g><g style="transform: translateX(150px);"><circle r="3" cx="-6" cy="-5" style="fill: #101423" /><text>Borrow APR, stable</text></g></g><g class="visx-group" transform="translate(45, 50)"><g class="visx-group visx-rows" transform="translate(0, 0)"><line class="visx-line" x1="0" y1="155" x2="1425" y2="155" fill="transparent" shape-rendering="crispEdges" stroke="#F2F0F9" stroke-width="1" pointer-events="none"></line><line class="visx-line" x1="0" y1="110.71428571428572" x2="1425" y2="110.71428571428572" fill="transparent" shape-rendering="crispEdges" stroke="#F2F0F9" stroke-width="1" pointer-events="none"></line><line class="visx-line" x1="0" y1="66.42857142857143" x2="1425" y2="66.42857142857143" fill="transparent" shape-rendering="crispEdges" stroke="#F2F0F9" stroke-width="1" pointer-events="none"></line><line class="visx-line" x1="0" y1="22.14285714285715" x2="1425" y2="22.14285714285715" fill="transparent" shape-rendering="crispEdges" stroke="#F2F0F9" stroke-width="1" pointer-events="none"></line></g><path class="visx-linepath" d="M0,154.99999999996064C2.375,154.9934391534162,4.75,154.98687830687177,7.125,154.98031746031748C9.5,154.9737566137632,11.875,154.96719576719576,14.25,154.9606349206349C16.625,154.95407407407404,19,154.9475132275132,21.375,154.94095238095238C23.75,154.93439153439155,26.125,154.9278306878307,28.5,154.92126984126986C30.875,154.91470899470903,33.25,154.90814814814817,35.625,154.9015873015873C38,154.89502645502645,40.375,154.88846560846562,42.75,154.88190476190476C45.125,154.8753439153439,47.50000000000001,154.86878306878307,49.87500000000001,154.86222222222221C52.25000000000001,154.85566137566138,54.625,154.84910052910053,57,154.8425396825397C59.375,154.83597883597884,61.75,154.829417989418,64.125,154.82285714285715C66.5,154.8162962962963,68.875,154.80973544973546,71.25,154.8031746031746C73.625,154.79661375661374,76,154.7900529100529,78.375,154.78349206349208C80.75,154.77693121693125,83.125,154.7703703703704,85.5,154.76380952380953C87.875,154.75724867724867,90.25,154.7506878306878,92.625,154.74412698412698C95,154.73756613756612,97.37500000000001,154.73100529100532,99.75000000000001,154.72444444444446C102.12500000000001,154.71788359788363,104.5,154.71132275132277,106.875,154.7047619047619C109.25,154.69820105820105,111.625,154.6916402116402,114,154.68507936507936C116.375,154.6785185185185,118.75000000000001,154.6719576719577,121.12500000000001,154.66539682539684C123.50000000000001,154.658835978836,125.875,154.65227513227515,128.25,154.6457142857143C130.625,154.63915343915343,133,154.63259259259257,135.375,154.62603174603174C137.75,154.6194708994709,140.125,154.61291005291008,142.5,154.60634920634922C144.875,154.59978835978836,147.25,154.59322751322753,149.625,154.58666666666667C152,154.5801058201058,154.375,154.57354497354498,156.75,154.56698412698412C159.125,154.56042328042327,161.5,154.55386243386243,163.875,154.5473015873016C166.25,154.54074074074077,168.625,154.5341798941799,171,154.52761904761905C173.375,154.5210582010582,175.75,154.51449735449734,178.125,154.5079365079365C180.5,154.50137566137568,182.875,154.49481481481484,185.25,154.48825396825399C187.625,154.48169312169313,190,154.4751322751323,192.375,154.46857142857144C194.75,154.46201058201058,197.12500000000003,154.45544973544975,199.50000000000003,154.4488888888889C201.875,154.44232804232803,204.25,154.43576719576717,206.62499999999997,154.42920634920634C208.99999999999997,154.42264550264548,211.375,154.41608465608468,213.75,154.40952380952382C216.125,154.402962962963,218.5,154.39640211640213,220.875,154.38984126984127C223.25,154.3832804232804,225.625,154.37671957671955,228,154.37015873015872C230.375,154.3635978835979,232.75,154.35703703703703,235.125,154.3504761904762C237.5,154.34391534391534,239.87500000000003,154.3373544973545,242.25000000000003,154.33079365079365C244.625,154.3242328042328,247,154.31767195767193,249.37499999999997,154.3111111111111C251.74999999999997,154.30455026455024,254.125,154.29798941798944,256.5,154.29142857142858C258.875,154.28486772486775,261.25,154.2783068783069,263.625,154.27174603174603C266,154.26518518518517,268.375,154.25862433862432,270.75,154.25206349206348C273.125,154.24550264550265,275.5,154.23894179894182,277.875,154.23238095238096C280.25,154.2258201058201,282.625,154.21925925925927,285,154.21269841269842C287.375,154.20613756613756,289.75,154.19957671957673,292.125,154.19301587301587C294.5,154.186455026455,296.875,154.17989417989418,299.25,154.17333333333335C301.625,154.16677248677252,304,154.16021164021166,306.375,154.1536507936508C308.75,154.14708994708994,311.125,154.14052910052908,313.5,154.13396825396825C315.875,154.12740740740742,318.25,154.1208465608466,320.625,154.11428571428573C323,154.10772486772487,325.375,154.10116402116404,327.75,154.09460317460318C330.125,154.08804232804232,332.5,154.0814814814815,334.875,154.07492063492063C337.25,154.06835978835977,339.625,154.06179894179894,342,154.0552380952381C344.375,154.04867724867728,346.75,154.04211640211642,349.125,154.03555555555556C351.5,154.0289947089947,353.875,154.02243386243387,356.25,154.015873015873C358.625,154.00931216931215,361,154.0027513227513,363.375,153.99619047619046C365.75,153.98962962962963,368.125,153.9830687830688,370.5,153.97650793650794C372.875,153.96994708994708,375.25,153.96338624338625,377.625,153.9568253968254C380,153.95026455026454,382.375,153.94370370370368,384.75,153.93714285714285C387.125,153.930582010582,389.50000000000006,153.92402116402118,391.87500000000006,153.91746031746032C394.25000000000006,153.9108994708995,396.62500000000006,153.90433862433864,399.00000000000006,153.89777777777778C401.375,153.89121693121692,403.75,153.88465608465606,406.12499999999994,153.87809523809523C408.49999999999994,153.87153439153437,410.87499999999994,153.86497354497354,413.24999999999994,153.8584126984127C415.62499999999994,153.85185185185185,418,153.84529100529102,420.375,153.83873015873016C422.75,153.8321693121693,425.125,153.82560846560847,427.5,153.8190476190476C429.875,153.81248677248675,432.25,153.80592592592592,434.625,153.7993650793651C437,153.79280423280426,439.375,153.7862433862434,441.75,153.77968253968254C444.125,153.77312169312168,446.5,153.76656084656082,448.875,153.76C451.25,153.75343915343916,453.625,153.74687830687833,456,153.74031746031747C458.375,153.7337566137566,460.75,153.72719576719578,463.125,153.72063492063492C465.5,153.71407407407406,467.875,153.7075132275132,470.25,153.70095238095237C472.625,153.6943915343915,475.00000000000006,153.6878306878307,477.37500000000006,153.68126984126985C479.75000000000006,153.67470899470902,482.12500000000006,153.66814814814816,484.50000000000006,153.6615873015873C486.875,153.65502645502644,489.25,153.64846560846559,491.62499999999994,153.64190476190475C493.99999999999994,153.6353439153439,496.37499999999994,153.62878306878306,498.74999999999994,153.62222222222223C501.12499999999994,153.61566137566138,503.5,153.60910052910054,505.875,153.60253968253969C508.25,153.59597883597883,510.625,153.589417989418,513,153.58285714285714C515.375,153.57629629629628,517.75,153.56973544973545,520.125,153.5631746031746C522.5,153.55661375661373,524.875,153.5500529100529,527.25,153.54349206349207C529.625,153.53693121693124,532,153.53037037037038,534.375,153.52380952380952C536.75,153.51724867724866,539.125,153.5106878306878,541.5,153.50412698412697C543.875,153.49756613756614,546.25,153.4910052910053,548.625,153.48444444444445C551,153.4778835978836,553.375,153.47132275132276,555.75,153.4647619047619C558.125,153.45820105820104,560.5,153.4516402116402,562.875,153.44507936507935C565.25,153.4385185185185,567.625,153.43195767195766,570,153.42539682539683C572.375,153.418835978836,574.75,153.41227513227514,577.125,153.40571428571428C579.5,153.39915343915342,581.875,153.39259259259256,584.25,153.38603174603173C586.625,153.3794708994709,589,153.37291005291007,591.375,153.3663492063492C593.75,153.35978835978835,596.125,153.35322751322752,598.5,153.34666666666666C600.875,153.3401058201058,603.25,153.33354497354497,605.625,153.32698412698412C608,153.32042328042326,610.375,153.31386243386243,612.75,153.3073015873016C615.125,153.30074074074076,617.5,153.2941798941799,619.875,153.28761904761905C622.25,153.2810582010582,624.625,153.27449735449733,627,153.2679365079365C629.375,153.26137566137567,631.75,153.25481481481484,634.125,153.24825396825398C636.5,153.24169312169312,638.875,153.24169312169312,641.25,153.22857142857143C643.625,153.21544973544974,646,152.4233766233766,648.375,152.02077922077922C650.75,151.61818181818182,653.125,151.2155844155844,655.5,150.812987012987C657.875,150.41038961038961,660.25,150.0077922077922,662.625,149.6051948051948C665,149.2025974025974,667.375,148.79999999999998,669.75,148.3974025974026C672.125,147.9948051948052,674.5,147.59220779220777,676.875,147.18961038961038C679.25,146.787012987013,681.625,146.38441558441556,684,145.98181818181817C686.375,145.57922077922078,688.75,145.17662337662335,691.125,144.77402597402596C693.5,144.37142857142857,695.875,143.96883116883117,698.25,143.56623376623378C700.625,143.16363636363639,703,142.76103896103893,705.375,142.35844155844154C707.75,141.95584415584415,710.125,141.55324675324675,712.5,141.15064935064936C714.875,140.74805194805197,717.25,140.34545454545452,719.625,139.94285714285712C722,139.54025974025973,724.375,139.13766233766233,726.75,138.73506493506494C729.125,138.33246753246755,731.5,137.92987012987012,733.875,137.52727272727273C736.25,137.12467532467534,738.625,136.72207792207791,741,136.31948051948052C743.375,135.91688311688313,745.75,135.5142857142857,748.125,135.1116883116883C750.5,134.70909090909092,752.875,134.3064935064935,755.25,133.9038961038961C757.625,133.5012987012987,760,133.0987012987013,762.375,132.6961038961039C764.75,132.2935064935065,767.125,131.89090909090908,769.5,131.48831168831168C771.875,131.0857142857143,774.2500000000001,130.68311688311687,776.6250000000001,130.28051948051947C779.0000000000001,129.87792207792208,781.3750000000001,129.47532467532469,783.7500000000001,129.0727272727273C786.1250000000001,128.6701298701299,788.5000000000001,128.26753246753248,790.8750000000001,127.86493506493507C793.2500000000001,127.46233766233766,795.6250000000001,127.05974025974027,798.0000000000001,126.65714285714286C800.375,126.25454545454546,802.75,125.85194805194804,805.1249999999999,125.44935064935065C807.4999999999999,125.04675324675324,809.8749999999999,124.64415584415585,812.2499999999999,124.24155844155844C814.6249999999999,123.83896103896103,816.9999999999999,123.43636363636364,819.3749999999999,123.03376623376624C821.7499999999999,122.63116883116885,824.1249999999999,122.22857142857143,826.4999999999999,121.82597402597403C828.8749999999999,121.42337662337663,831.25,121.02077922077923,833.625,120.61818181818182C836,120.21558441558443,838.375,119.81298701298702,840.75,119.41038961038961C843.125,119.0077922077922,845.5,118.60519480519481,847.875,118.2025974025974C850.25,117.8,852.625,117.3974025974026,855,116.9948051948052C857.375,116.59220779220779,859.75,116.1896103896104,862.125,115.78701298701299C864.5,115.38441558441558,866.875,114.98181818181818,869.25,114.57922077922078C871.625,114.17662337662337,874,113.77402597402597,876.375,113.37142857142857C878.75,112.96883116883116,881.125,112.56623376623375,883.5,112.16363636363636C885.875,111.76103896103896,888.25,111.35844155844157,890.625,110.95584415584416C893,110.55324675324675,895.375,110.15064935064936,897.75,109.74805194805195C900.125,109.34545454545454,902.5,108.94285714285715,904.875,108.54025974025974C907.25,108.13766233766233,909.625,107.73506493506494,912,107.33246753246753C914.375,106.92987012987012,916.75,106.52727272727275,919.125,106.12467532467534C921.5,105.72207792207793,923.875,105.31948051948052,926.25,104.91688311688311C928.625,104.5142857142857,931,104.11168831168833,933.375,103.70909090909092C935.75,103.30649350649351,938.125,102.9038961038961,940.5,102.5012987012987C942.875,102.09870129870129,945.25,101.6961038961039,947.625,101.29350649350651C950,100.8909090909091,952.3750000000001,100.48831168831168,954.7500000000001,100.08571428571427C957.1250000000001,99.68311688311687,959.5000000000001,99.28051948051947,961.8750000000001,98.87792207792208C964.2500000000001,98.47532467532469,966.6250000000001,98.07272727272728,969.0000000000001,97.67012987012987C971.3750000000001,97.26753246753246,973.7500000000001,96.86493506493507,976.1250000000001,96.46233766233766C978.5,96.05974025974027,980.875,95.65714285714284,983.2499999999999,95.25454545454545C985.6249999999999,94.85194805194804,987.9999999999999,94.44935064935063,990.3749999999999,94.04675324675324C992.7499999999999,93.64415584415585,995.1249999999999,93.24155844155845,997.4999999999999,92.83896103896105C999.8749999999999,92.43636363636364,1002.2499999999999,92.03376623376624,1004.6249999999999,91.63116883116884C1006.9999999999999,91.22857142857143,1009.375,90.82597402597402,1011.75,90.42337662337661C1014.125,90.02077922077922,1016.5,89.61818181818184,1018.875,89.21558441558443C1021.25,88.81298701298702,1023.625,88.4103896103896,1026,88.00779220779219C1028.375,87.60519480519478,1030.75,87.2025974025974,1033.125,86.80000000000001C1035.5,86.39740259740262,1037.875,85.9948051948052,1040.25,85.59220779220779C1042.625,85.18961038961038,1045,84.787012987013,1047.375,84.38441558441559C1049.75,83.98181818181818,1052.125,83.57922077922078,1054.5,83.17662337662337C1056.875,82.77402597402596,1059.25,82.37142857142857,1061.625,81.96883116883117C1064,81.56623376623378,1066.375,81.16363636363637,1068.75,80.76103896103896C1071.125,80.35844155844156,1073.5,79.95584415584416,1075.875,79.55324675324675C1078.25,79.15064935064935,1080.625,78.74805194805194,1083,78.34545454545453C1085.375,77.94285714285712,1087.75,77.54025974025971,1090.125,77.13766233766232C1092.5,76.73506493506493,1094.875,76.33246753246753,1097.25,75.92987012987014C1099.625,75.52727272727275,1102,75.12467532467534,1104.375,74.72207792207793C1106.75,74.31948051948052,1109.125,73.91688311688313,1111.5,73.51428571428572C1113.875,73.11168831168831,1116.25,72.70909090909092,1118.625,72.30649350649351C1121,71.9038961038961,1123.375,71.50129870129871,1125.75,71.0987012987013C1128.125,70.69610389610389,1130.5,70.2935064935065,1132.875,69.89090909090909C1135.25,69.48831168831168,1137.625,69.08571428571429,1140,68.68311688311688C1142.375,68.28051948051947,1144.75,67.87792207792208,1147.125,67.47532467532467C1149.5,67.07272727272726,1151.875,66.67012987012987,1154.25,66.26753246753248C1156.625,65.86493506493508,1159,65.46233766233769,1161.375,65.05974025974028C1163.75,64.65714285714287,1166.125,64.25454545454545,1168.5,63.85194805194805C1170.875,63.44935064935064,1173.25,63.04675324675325,1175.625,62.64415584415585C1178,62.241558441558446,1180.375,61.83896103896104,1182.75,61.43636363636364C1185.125,61.03376623376624,1187.5,60.63116883116883,1189.875,60.22857142857143C1192.25,59.82597402597403,1194.625,59.42337662337662,1197,59.02077922077922C1199.375,58.61818181818182,1201.75,58.21558441558441,1204.125,57.81298701298701C1206.5,57.41038961038961,1208.875,57.00779220779222,1211.25,56.60519480519482C1213.625,56.20259740259742,1216,55.800000000000004,1218.375,55.397402597402596C1220.75,54.99480519480519,1223.125,54.59220779220779,1225.5,54.18961038961039C1227.875,53.787012987012986,1230.25,53.38441558441558,1232.625,52.98181818181818C1235,52.579220779220776,1237.375,52.17662337662337,1239.75,51.77402597402597C1242.125,51.37142857142857,1244.5,50.968831168831166,1246.875,50.566233766233765C1249.25,50.163636363636364,1251.625,49.76103896103897,1254,49.35844155844157C1256.375,48.95584415584417,1258.75,48.55324675324677,1261.125,48.15064935064936C1263.5,47.74805194805195,1265.875,47.34545454545454,1268.25,46.942857142857136C1270.625,46.540259740259735,1273,46.13766233766235,1275.375,45.73506493506495C1277.75,45.33246753246755,1280.125,44.92987012987013,1282.5,44.527272727272724C1284.875,44.124675324675316,1287.25,43.722077922077915,1289.625,43.319480519480514C1292,42.91688311688311,1294.375,42.514285714285705,1296.75,42.111688311688305C1299.125,41.709090909090904,1301.5,41.30649350649352,1303.875,40.903896103896116C1306.25,40.501298701298715,1308.625,40.098701298701286,1311,39.696103896103885C1313.375,39.293506493506484,1315.75,38.8909090909091,1318.125,38.4883116883117C1320.5,38.085714285714296,1322.875,37.683116883116895,1325.25,37.28051948051949C1327.625,36.87792207792208,1330,36.47532467532467,1332.375,36.07272727272726C1334.75,35.670129870129855,1337.125,35.267532467532455,1339.5,34.864935064935054C1341.875,34.46233766233765,1344.25,34.05974025974026,1346.625,33.657142857142865C1349,33.25454545454547,1351.375,32.85194805194808,1353.75,32.44935064935068C1356.125,32.046753246753276,1358.5,31.644155844155858,1360.875,31.24155844155845C1363.25,30.838961038961042,1365.625,30.436363636363627,1368,30.033766233766222C1370.375,29.631168831168818,1372.75,29.228571428571417,1375.125,28.825974025974016C1377.5,28.423376623376615,1379.875,28.02077922077923,1382.25,27.618181818181824C1384.625,27.21558441558442,1387,26.812987012987,1389.375,26.410389610389597C1391.75,26.007792207792193,1394.125,25.60519480519479,1396.5,25.20259740259739C1398.875,24.79999999999999,1401.25,24.397402597402603,1403.625,23.9948051948052C1406,23.592207792207795,1408.375,23.18961038961038,1410.75,22.787012987012975C1413.125,22.38441558441557,1415.5,21.981818181818184,1417.875,21.579220779220783C1420.25,21.176623376623382,1422.625,20.774025974025978,1425,20.371428571428574" fill="transparent" stroke-linecap="round" stroke="#1AD4B3" stroke-width="2"></path><g class="visx-group visx-axis visx-axis-bottom" transform="translate(0, 155)"><g class="visx-group visx-axis-tick" transform="translate(0, 0)"><line class="visx-line" x1="0" y1="0" x2="0" y2="8" fill="transparent" shape-rendering="crispEdges" stroke="#F2F0F9" stroke-width="1" stroke-linecap="square"></line><svg x="0" y="0" font-size="11" style="overflow:visible"><text transform="" x="0" y="19" fill="#1B2030" font-size="11" text-anchor="middle"><tspan x="0" dy="0em">0%</tspan></text></svg></g><g class="visx-group visx-axis-tick" transform="translate(0, 0)"><line class="visx-line" x1="356.25" y1="0" x2="356.25" y2="8" fill="transparent" shape-rendering="crispEdges" stroke="#F2F0F9" stroke-width="1" stroke-linecap="square"></line><svg x="0" y="0" font-size="11" style="overflow:visible"><text transform="" x="356.25" y="19" fill="#1B2030" font-size="11" text-anchor="middle"><tspan x="356.25" dy="0em">25%</tspan></text></svg></g><g class="visx-group visx-axis-tick" transform="translate(0, 0)"><line class="visx-line" x1="712.5" y1="0" x2="712.5" y2="8" fill="transparent" shape-rendering="crispEdges" stroke="#F2F0F9" stroke-width="1" stroke-linecap="square"></line><svg x="0" y="0" font-size="11" style="overflow:visible"><text transform="" x="712.5" y="19" fill="#1B2030" font-size="11" text-anchor="middle"><tspan x="712.5" dy="0em">50%</tspan></text></svg></g><g class="visx-group visx-axis-tick" transform="translate(0, 0)"><line class="visx-line" x1="1068.75" y1="0" x2="1068.75" y2="8" fill="transparent" shape-rendering="crispEdges" stroke="#F2F0F9" stroke-width="1" stroke-linecap="square"></line><svg x="0" y="0" font-size="11" style="overflow:visible"><text transform="" x="1068.75" y="19" fill="#1B2030" font-size="11" text-anchor="middle"><tspan x="1068.75" dy="0em">75%</tspan></text></svg></g><g class="visx-group visx-axis-tick" transform="translate(0, 0)"><line class="visx-line" x1="1425" y1="0" x2="1425" y2="8" fill="transparent" shape-rendering="crispEdges" stroke="#F2F0F9" stroke-width="1" stroke-linecap="square"></line><svg x="0" y="0" font-size="11" style="overflow:visible"><text transform="" x="1425" y="19" fill="#1B2030" font-size="11" text-anchor="middle"><tspan x="1425" dy="0em">100%</tspan></text></svg></g></g><g class="visx-group visx-axis visx-axis-left" transform="translate(0, 0)"><g class="visx-group visx-axis-tick" transform="translate(0, 0)"><line class="visx-line" x1="0" y1="155" x2="-8" y2="155" fill="transparent" shape-rendering="crispEdges" stroke="#F2F0F9" stroke-width="1" stroke-linecap="square"></line><svg x="-30" y="0" font-size="11" style="overflow:visible"><text transform="" x="-8" y="155" fill="#1B2030" font-size="11" text-anchor="start"><tspan x="-8" dy="0em">0%</tspan></text></svg></g><g class="visx-group visx-axis-tick" transform="translate(0, 0)"><line class="visx-line" x1="0" y1="110.71428571428572" x2="-8" y2="110.71428571428572" fill="transparent" shape-rendering="crispEdges" stroke="#F2F0F9" stroke-width="1" stroke-linecap="square"></line><svg x="-30" y="0" font-size="11" style="overflow:visible"><text transform="" x="-8" y="110.71428571428572" fill="#1B2030" font-size="11" text-anchor="start"><tspan x="-8" dy="0em">100%</tspan></text></svg></g><g class="visx-group visx-axis-tick" transform="translate(0, 0)"><line class="visx-line" x1="0" y1="66.42857142857143" x2="-8" y2="66.42857142857143" fill="transparent" shape-rendering="crispEdges" stroke="#F2F0F9" stroke-width="1" stroke-linecap="square"></line><svg x="-30" y="0" font-size="11" style="overflow:visible"><text transform="" x="-8" y="66.42857142857143" fill="#1B2030" font-size="11" text-anchor="start"><tspan x="-8" dy="0em">200%</tspan></text></svg></g><g class="visx-group visx-axis-tick" transform="translate(0, 0)"><line class="visx-line" x1="0" y1="22.14285714285715" x2="-8" y2="22.14285714285715" fill="transparent" shape-rendering="crispEdges" stroke="#F2F0F9" stroke-width="1" stroke-linecap="square"></line><svg x="-30" y="0" font-size="11" style="overflow:visible"><text transform="" x="-8" y="22.14285714285715" fill="#1B2030" font-size="11" text-anchor="start"><tspan x="-8" dy="0em">300%</tspan></text></svg></g><line class="visx-line visx-axis-line" x1="0" y1="155.5" x2="0" y2="0.5" fill="transparent" shape-rendering="crispEdges" stroke="#F2F0F9" stroke-width="1"></line></g><rect class="visx-bar" width="1425" height="155" fill="transparent"></rect><line class="visx-line" x1="641.25" y1="58" x2="641.25" y2="155" fill="transparent" shape-rendering="crispEdges" stroke="#CDC8E1" stroke-width="1" pointer-events="none" stroke-dasharray="5"></line><svg x="0" y="0" font-size="11px" style="overflow:visible"><text transform="" x="641.25" y="50" font-size="11px" fill="#555069" stroke="#FFFFFF" stroke-width="1px" text-anchor="middle"><tspan x="641.25" dy="0.355em">Optimal utilization 45%</tspan></text></svg><svg x="0" y="0" font-size="11px" style="overflow:visible"><text transform="" x="641.25" y="50" font-size="11px" fill="#CDC8E1" text-anchor="middle"><tspan x="641.25" dy="0.355em">Optimal utilization 45%</tspan></text></svg></g></svg>