<?xml version="1.0"?><svg xmlns="http://www.w3.org/2000/svg" xmlns:xlink= "http://www.w3.org/1999/xlink" style="background: white;" width="1500" height="300"> <g style="color: black; font-size: 13px; font-family: sans-serif; transform: translate(18px, 25px);"><g><circle r="3" cx="-6" cy="-5" style="fill: #1AD4B3" /><text>Borrow APR, variable</text></g><g style="transform: translateX(150px);"><circle r="3" cx="-6" cy="-5" style="fill: #101423" /><text>Borrow APR, stable</text></g></g><g class="visx-group" transform="translate(45, 50)"><g class="visx-group visx-rows" transform="translate(0, 0)"><line class="visx-line" x1="0" y1="155" x2="1425" y2="155" fill="transparent" shape-rendering="crispEdges" stroke="#F2F0F9" stroke-width="1" pointer-events="none"></line><line class="visx-line" x1="0" y1="110.71428571428572" x2="1425" y2="110.71428571428572" fill="transparent" shape-rendering="crispEdges" stroke="#F2F0F9" stroke-width="1" pointer-events="none"></line><line class="visx-line" x1="0" y1="66.42857142857143" x2="1425" y2="66.42857142857143" fill="transparent" shape-rendering="crispEdges" stroke="#F2F0F9" stroke-width="1" pointer-events="none"></line><line class="visx-line" x1="0" y1="22.14285714285715" x2="1425" y2="22.14285714285715" fill="transparent" shape-rendering="crispEdges" stroke="#F2F0F9" stroke-width="1" pointer-events="none"></line></g><path class="visx-linepath" d="M0,154.99999999993798C2.375,154.98966666663048,4.75,154.97933333332298,7.125,154.969C9.5,154.958666666677,11.875,154.94833333333335,14.25,154.93800000000002C16.625,154.92766666666668,19,154.91733333333332,21.375,154.90699999999998C23.75,154.89666666666665,26.125,154.88633333333334,28.5,154.876C30.875,154.86566666666667,33.25,154.85533333333333,35.625,154.845C38,154.83466666666666,40.375,154.82433333333333,42.75,154.814C45.125,154.80366666666666,47.50000000000001,154.79333333333335,49.87500000000001,154.78300000000002C52.25000000000001,154.77266666666668,54.625,154.76233333333332,57,154.75199999999998C59.375,154.74166666666665,61.75,154.73133333333334,64.125,154.721C66.5,154.71066666666667,68.875,154.70033333333333,71.25,154.69C73.625,154.67966666666666,76,154.66933333333333,78.375,154.659C80.75,154.64866666666666,83.125,154.63833333333335,85.5,154.62800000000001C87.875,154.61766666666668,90.25,154.60733333333332,92.625,154.59699999999998C95,154.58666666666664,97.37500000000001,154.57633333333334,99.75000000000001,154.566C102.12500000000001,154.55566666666667,104.5,154.54533333333333,106.875,154.535C109.25,154.52466666666666,111.625,154.51433333333333,114,154.504C116.375,154.49366666666666,118.75000000000001,154.48333333333335,121.12500000000001,154.473C123.50000000000001,154.46266666666668,125.875,154.4523333333333,128.25,154.44199999999998C130.625,154.43166666666664,133,154.42133333333334,135.375,154.411C137.75,154.40066666666667,140.125,154.39033333333333,142.5,154.38C144.875,154.36966666666666,147.25,154.35933333333332,149.625,154.349C152,154.33866666666665,154.375,154.32833333333335,156.75,154.318C159.125,154.30766666666668,161.5,154.29733333333334,163.875,154.287C166.25,154.27666666666667,168.625,154.26633333333334,171,154.256C173.375,154.24566666666666,175.75,154.23533333333333,178.125,154.225C180.5,154.21466666666666,182.875,154.20433333333335,185.25,154.19400000000002C187.625,154.18366666666668,190,154.17333333333335,192.375,154.163C194.75,154.15266666666668,197.12500000000003,154.14233333333334,199.50000000000003,154.132C201.875,154.12166666666667,204.25,154.11133333333333,206.62499999999997,154.101C208.99999999999997,154.09066666666666,211.375,154.08033333333333,213.75,154.07C216.125,154.05966666666666,218.5,154.04933333333335,220.875,154.03900000000002C223.25,154.02866666666668,225.625,154.01833333333335,228,154.008C230.375,153.99766666666667,232.75,153.98733333333334,235.125,153.977C237.5,153.96666666666667,239.87500000000003,153.95633333333333,242.25000000000003,153.946C244.625,153.93566666666666,247,153.92533333333333,249.37499999999997,153.915C251.74999999999997,153.90466666666666,254.125,153.89433333333335,256.5,153.88400000000001C258.875,153.87366666666668,261.25,153.86333333333334,263.625,153.853C266,153.84266666666667,268.375,153.83233333333334,270.75,153.822C273.125,153.81166666666667,275.5,153.80133333333333,277.875,153.791C280.25,153.78066666666666,282.625,153.77033333333333,285,153.76C287.375,153.74966666666666,289.75,153.73933333333335,292.125,153.729C294.5,153.71866666666668,296.875,153.70833333333334,299.25,153.698C301.625,153.68766666666667,304,153.67733333333334,306.375,153.667C308.75,153.65666666666667,311.125,153.64633333333333,313.5,153.636C315.875,153.62566666666666,318.25,153.61533333333333,320.625,153.605C323,153.59466666666665,325.375,153.58433333333335,327.75,153.574C330.125,153.56366666666668,332.5,153.55333333333334,334.875,153.543C337.25,153.53266666666667,339.625,153.52233333333334,342,153.512C344.375,153.50166666666667,346.75,153.49133333333333,349.125,153.481C351.5,153.47066666666666,353.875,153.46033333333332,356.25,153.45C358.625,153.43966666666665,361,153.42933333333335,363.375,153.419C365.75,153.40866666666668,368.125,153.39833333333334,370.5,153.388C372.875,153.37766666666667,375.25,153.36733333333333,377.625,153.357C380,153.34666666666666,382.375,153.33633333333333,384.75,153.326C387.125,153.31566666666666,389.50000000000006,153.30533333333332,391.87500000000006,153.295C394.25000000000006,153.28466666666665,396.62500000000006,153.27433333333335,399.00000000000006,153.264C401.375,153.25366666666667,403.75,153.24333333333334,406.12499999999994,153.233C408.49999999999994,153.22266666666667,410.87499999999994,153.21233333333333,413.24999999999994,153.202C415.62499999999994,153.19166666666666,418,153.18133333333333,420.375,153.171C422.75,153.16066666666666,425.125,153.15033333333332,427.5,153.14C429.875,153.12966666666665,432.25,153.11933333333334,434.625,153.109C437,153.09866666666667,439.375,153.08833333333334,441.75,153.078C444.125,153.06766666666667,446.5,153.05733333333333,448.875,153.047C451.25,153.03666666666666,453.625,153.02633333333333,456,153.016C458.375,153.00566666666666,460.75,152.99533333333332,463.125,152.98499999999999C465.5,152.97466666666665,467.875,152.96433333333334,470.25,152.954C472.625,152.94366666666667,475.00000000000006,152.93333333333334,477.37500000000006,152.923C479.75000000000006,152.91266666666667,482.12500000000006,152.90233333333333,484.50000000000006,152.892C486.875,152.88166666666666,489.25,152.87133333333333,491.62499999999994,152.861C493.99999999999994,152.85066666666665,496.37499999999994,152.84033333333332,498.74999999999994,152.82999999999998C501.12499999999994,152.81966666666665,503.5,152.80933333333334,505.875,152.799C508.25,152.78866666666667,510.625,152.77833333333334,513,152.768C515.375,152.75766666666667,517.75,152.74733333333333,520.125,152.737C522.5,152.72666666666666,524.875,152.71633333333332,527.25,152.706C529.625,152.69566666666665,532,152.68533333333335,534.375,152.675C536.75,152.66466666666668,539.125,152.65433333333334,541.5,152.644C543.875,152.63366666666667,546.25,152.62333333333333,548.625,152.613C551,152.60266666666666,553.375,152.59233333333336,555.75,152.58200000000002C558.125,152.5716666666667,560.5,152.56133333333332,562.875,152.551C565.25,152.54066666666665,567.625,152.53033333333335,570,152.52C572.375,152.50966666666667,574.75,152.49933333333334,577.125,152.489C579.5,152.47866666666667,581.875,152.46833333333333,584.25,152.458C586.625,152.44766666666666,589,152.43733333333336,591.375,152.42700000000002C593.75,152.41666666666669,596.125,152.40633333333332,598.5,152.396C600.875,152.38566666666665,603.25,152.37533333333334,605.625,152.365C608,152.35466666666667,610.375,152.34433333333334,612.75,152.334C615.125,152.32366666666667,617.5,152.31333333333333,619.875,152.303C622.25,152.29266666666666,624.625,152.28233333333336,627,152.27200000000002C629.375,152.26166666666668,631.75,152.25133333333332,634.125,152.24099999999999C636.5,152.23066666666665,638.875,152.22033333333334,641.25,152.21C643.625,152.19966666666667,646,152.18933333333334,648.375,152.179C650.75,152.16866666666667,653.125,152.15833333333333,655.5,152.148C657.875,152.13766666666666,660.25,152.12733333333335,662.625,152.11700000000002C665,152.10666666666668,667.375,152.09633333333332,669.75,152.08599999999998C672.125,152.07566666666665,674.5,152.06533333333334,676.875,152.055C679.25,152.04466666666667,681.625,152.03433333333334,684,152.024C686.375,152.01366666666667,688.75,152.00333333333333,691.125,151.993C693.5,151.98266666666666,695.875,151.97233333333335,698.25,151.96200000000002C700.625,151.95166666666668,703,151.94133333333332,705.375,151.93099999999998C707.75,151.92066666666665,710.125,151.92066666666665,712.5,151.9C714.875,151.87933333333336,717.25,151.01428571428573,719.625,150.57142857142858C722,150.12857142857143,724.375,149.68571428571428,726.75,149.24285714285713C729.125,148.79999999999998,731.5,148.35714285714286,733.875,147.9142857142857C736.25,147.47142857142856,738.625,147.02857142857144,741,146.5857142857143C743.375,146.14285714285714,745.75,145.70000000000002,748.125,145.25714285714287C750.5,144.81428571428572,752.875,144.3714285714286,755.25,143.92857142857144C757.625,143.4857142857143,760,143.04285714285714,762.375,142.6C764.75,142.15714285714284,767.125,141.71428571428572,769.5,141.27142857142857C771.875,140.82857142857142,774.2500000000001,140.38571428571427,776.6250000000001,139.94285714285712C779.0000000000001,139.49999999999997,781.3750000000001,139.05714285714285,783.7500000000001,138.6142857142857C786.1250000000001,138.17142857142855,788.5000000000001,137.72857142857143,790.8750000000001,137.28571428571428C793.2500000000001,136.84285714285713,795.6250000000001,136.4,798.0000000000001,135.95714285714286C800.375,135.51428571428573,802.75,135.07142857142856,805.1249999999999,134.62857142857143C807.4999999999999,134.18571428571428,809.8749999999999,133.74285714285716,812.2499999999999,133.3C814.6249999999999,132.85714285714286,816.9999999999999,132.4142857142857,819.3749999999999,131.97142857142856C821.7499999999999,131.5285714285714,824.1249999999999,131.0857142857143,826.4999999999999,130.64285714285714C828.8749999999999,130.2,831.25,129.75714285714287,833.625,129.31428571428572C836,128.87142857142857,838.375,128.42857142857144,840.75,127.9857142857143C843.125,127.54285714285714,845.5,127.1,847.875,126.65714285714286C850.25,126.21428571428572,852.625,125.77142857142857,855,125.32857142857144C857.375,124.8857142857143,859.75,124.44285714285715,862.125,124C864.5,123.55714285714285,866.875,123.1142857142857,869.25,122.67142857142856C871.625,122.22857142857143,874,121.7857142857143,876.375,121.34285714285716C878.75,120.9,881.125,120.45714285714286,883.5,120.0142857142857C885.875,119.57142857142856,888.25,119.12857142857143,890.625,118.68571428571428C893,118.24285714285713,895.375,117.79999999999998,897.75,117.35714285714285C900.125,116.91428571428571,902.5,116.47142857142856,904.875,116.02857142857142C907.25,115.58571428571429,909.625,115.14285714285714,912,114.7C914.375,114.25714285714287,916.75,113.81428571428572,919.125,113.37142857142857C921.5,112.92857142857142,923.875,112.48571428571428,926.25,112.04285714285714C928.625,111.60000000000001,931,111.15714285714287,933.375,110.71428571428572C935.75,110.27142857142857,938.125,109.82857142857144,940.5,109.38571428571429C942.875,108.94285714285714,945.25,108.49999999999999,947.625,108.05714285714285C950,107.6142857142857,952.3750000000001,107.17142857142858,954.7500000000001,106.72857142857143C957.1250000000001,106.28571428571429,959.5000000000001,105.84285714285713,961.8750000000001,105.39999999999999C964.2500000000001,104.95714285714286,966.6250000000001,104.51428571428573,969.0000000000001,104.07142857142858C971.3750000000001,103.62857142857143,973.7500000000001,103.18571428571428,976.1250000000001,102.74285714285713C978.5,102.3,980.875,101.85714285714286,983.2499999999999,101.41428571428573C985.6249999999999,100.97142857142858,987.9999999999999,100.52857142857142,990.3749999999999,100.08571428571427C992.7499999999999,99.64285714285712,995.1249999999999,99.19999999999999,997.4999999999999,98.75714285714285C999.8749999999999,98.31428571428572,1002.2499999999999,97.87142857142857,1004.6249999999999,97.42857142857143C1006.9999999999999,96.98571428571428,1009.375,96.54285714285714,1011.75,96.1C1014.125,95.65714285714286,1016.5,95.21428571428571,1018.875,94.77142857142857C1021.25,94.32857142857144,1023.625,93.8857142857143,1026,93.44285714285715C1028.375,93,1030.75,92.55714285714286,1033.125,92.11428571428571C1035.5,91.67142857142856,1037.875,91.22857142857141,1040.25,90.78571428571428C1042.625,90.34285714285714,1045,89.9,1047.375,89.45714285714287C1049.75,89.01428571428573,1052.125,88.57142857142856,1054.5,88.12857142857142C1056.875,87.68571428571428,1059.25,87.24285714285716,1061.625,86.80000000000001C1064,86.35714285714286,1066.375,85.91428571428571,1068.75,85.47142857142856C1071.125,85.02857142857141,1073.5,84.58571428571429,1075.875,84.14285714285715C1078.25,83.70000000000002,1080.625,83.25714285714285,1083,82.8142857142857C1085.375,82.37142857142855,1087.75,81.92857142857142,1090.125,81.48571428571428C1092.5,81.04285714285714,1094.875,80.6,1097.25,80.15714285714286C1099.625,79.71428571428572,1102,79.27142857142857,1104.375,78.82857142857142C1106.75,78.38571428571427,1109.125,77.94285714285714,1111.5,77.5C1113.875,77.05714285714286,1116.25,76.61428571428573,1118.625,76.17142857142858C1121,75.72857142857143,1123.375,75.28571428571428,1125.75,74.84285714285714C1128.125,74.4,1130.5,73.95714285714286,1132.875,73.51428571428572C1135.25,73.07142857142858,1137.625,72.62857142857143,1140,72.1857142857143C1142.375,71.74285714285716,1144.75,71.30000000000001,1147.125,70.85714285714286C1149.5,70.41428571428571,1151.875,69.97142857142859,1154.25,69.52857142857144C1156.625,69.08571428571429,1159,68.64285714285714,1161.375,68.19999999999999C1163.75,67.75714285714284,1166.125,67.31428571428572,1168.5,66.87142857142857C1170.875,66.42857142857142,1173.25,65.98571428571427,1175.625,65.54285714285713C1178,65.1,1180.375,64.65714285714286,1182.75,64.21428571428572C1185.125,63.77142857142858,1187.5,63.32857142857143,1189.875,62.885714285714286C1192.25,62.44285714285714,1194.625,62,1197,61.55714285714286C1199.375,61.114285714285714,1201.75,60.67142857142857,1204.125,60.22857142857143C1206.5,59.785714285714285,1208.875,59.34285714285714,1211.25,58.9C1213.625,58.457142857142856,1216,58.0142857142857,1218.375,57.571428571428555C1220.75,57.12857142857141,1223.125,56.68571428571428,1225.5,56.24285714285715C1227.875,55.80000000000001,1230.25,55.35714285714286,1232.625,54.91428571428572C1235,54.471428571428575,1237.375,54.02857142857143,1239.75,53.58571428571429C1242.125,53.142857142857146,1244.5,52.70000000000001,1246.875,52.25714285714287C1249.25,51.814285714285724,1251.625,51.37142857142858,1254,50.92857142857144C1256.375,50.485714285714295,1258.75,50.04285714285714,1261.125,49.599999999999994C1263.5,49.15714285714285,1265.875,48.71428571428571,1268.25,48.271428571428565C1270.625,47.82857142857142,1273,47.38571428571428,1275.375,46.942857142857136C1277.75,46.49999999999999,1280.125,46.057142857142836,1282.5,45.61428571428569C1284.875,45.17142857142855,1287.25,44.72857142857142,1289.625,44.285714285714285C1292,43.84285714285715,1294.375,43.40000000000001,1296.75,42.95714285714287C1299.125,42.51428571428573,1301.5,42.07142857142857,1303.875,41.628571428571426C1306.25,41.18571428571428,1308.625,40.74285714285715,1311,40.300000000000004C1313.375,39.85714285714286,1315.75,39.41428571428572,1318.125,38.971428571428575C1320.5,38.52857142857143,1322.875,38.08571428571429,1325.25,37.642857142857146C1327.625,37.2,1330,36.75714285714286,1332.375,36.31428571428572C1334.75,35.871428571428574,1337.125,35.42857142857144,1339.5,34.985714285714295C1341.875,34.54285714285715,1344.25,34.10000000000001,1346.625,33.657142857142865C1349,33.21428571428572,1351.375,32.771428571428565,1353.75,32.32857142857142C1356.125,31.885714285714275,1358.5,31.442857142857136,1360.875,30.999999999999993C1363.25,30.55714285714285,1365.625,30.11428571428571,1368,29.671428571428567C1370.375,29.228571428571424,1372.75,28.78571428571428,1375.125,28.342857142857138C1377.5,27.899999999999995,1379.875,27.457142857142856,1382.25,27.014285714285712C1384.625,26.57142857142857,1387,26.128571428571426,1389.375,25.685714285714283C1391.75,25.24285714285714,1394.125,24.8,1396.5,24.357142857142858C1398.875,23.914285714285715,1401.25,23.47142857142857,1403.625,23.02857142857143C1406,22.585714285714285,1408.375,22.142857142857146,1410.75,21.700000000000003C1413.125,21.25714285714286,1415.5,20.814285714285717,1417.875,20.371428571428574C1420.25,19.92857142857143,1422.625,19.48571428571429,1425,19.042857142857148" fill="transparent" stroke-linecap="round" stroke="#1AD4B3" stroke-width="2"></path><g class="visx-group visx-axis visx-axis-bottom" transform="translate(0, 155)"><g class="visx-group visx-axis-tick" transform="translate(0, 0)"><line class="visx-line" x1="0" y1="0" x2="0" y2="8" fill="transparent" shape-rendering="crispEdges" stroke="#F2F0F9" stroke-width="1" stroke-linecap="square"></line><svg x="0" y="0" font-size="11" style="overflow:visible"><text transform="" x="0" y="19" fill="#1B2030" font-size="11" text-anchor="middle"><tspan x="0" dy="0em">0%</tspan></text></svg></g><g class="visx-group visx-axis-tick" transform="translate(0, 0)"><line class="visx-line" x1="356.25" y1="0" x2="356.25" y2="8" fill="transparent" shape-rendering="crispEdges" stroke="#F2F0F9" stroke-width="1" stroke-linecap="square"></line><svg x="0" y="0" font-size="11" style="overflow:visible"><text transform="" x="356.25" y="19" fill="#1B2030" font-size="11" text-anchor="middle"><tspan x="356.25" dy="0em">25%</tspan></text></svg></g><g class="visx-group visx-axis-tick" transform="translate(0, 0)"><line class="visx-line" x1="712.5" y1="0" x2="712.5" y2="8" fill="transparent" shape-rendering="crispEdges" stroke="#F2F0F9" stroke-width="1" stroke-linecap="square"></line><svg x="0" y="0" font-size="11" style="overflow:visible"><text transform="" x="712.5" y="19" fill="#1B2030" font-size="11" text-anchor="middle"><tspan x="712.5" dy="0em">50%</tspan></text></svg></g><g class="visx-group visx-axis-tick" transform="translate(0, 0)"><line class="visx-line" x1="1068.75" y1="0" x2="1068.75" y2="8" fill="transparent" shape-rendering="crispEdges" stroke="#F2F0F9" stroke-width="1" stroke-linecap="square"></line><svg x="0" y="0" font-size="11" style="overflow:visible"><text transform="" x="1068.75" y="19" fill="#1B2030" font-size="11" text-anchor="middle"><tspan x="1068.75" dy="0em">75%</tspan></text></svg></g><g class="visx-group visx-axis-tick" transform="translate(0, 0)"><line class="visx-line" x1="1425" y1="0" x2="1425" y2="8" fill="transparent" shape-rendering="crispEdges" stroke="#F2F0F9" stroke-width="1" stroke-linecap="square"></line><svg x="0" y="0" font-size="11" style="overflow:visible"><text transform="" x="1425" y="19" fill="#1B2030" font-size="11" text-anchor="middle"><tspan x="1425" dy="0em">100%</tspan></text></svg></g></g><g class="visx-group visx-axis visx-axis-left" transform="translate(0, 0)"><g class="visx-group visx-axis-tick" transform="translate(0, 0)"><line class="visx-line" x1="0" y1="155" x2="-8" y2="155" fill="transparent" shape-rendering="crispEdges" stroke="#F2F0F9" stroke-width="1" stroke-linecap="square"></line><svg x="-30" y="0" font-size="11" style="overflow:visible"><text transform="" x="-8" y="155" fill="#1B2030" font-size="11" text-anchor="start"><tspan x="-8" dy="0em">0%</tspan></text></svg></g><g class="visx-group visx-axis-tick" transform="translate(0, 0)"><line class="visx-line" x1="0" y1="110.71428571428572" x2="-8" y2="110.71428571428572" fill="transparent" shape-rendering="crispEdges" stroke="#F2F0F9" stroke-width="1" stroke-linecap="square"></line><svg x="-30" y="0" font-size="11" style="overflow:visible"><text transform="" x="-8" y="110.71428571428572" fill="#1B2030" font-size="11" text-anchor="start"><tspan x="-8" dy="0em">100%</tspan></text></svg></g><g class="visx-group visx-axis-tick" transform="translate(0, 0)"><line class="visx-line" x1="0" y1="66.42857142857143" x2="-8" y2="66.42857142857143" fill="transparent" shape-rendering="crispEdges" stroke="#F2F0F9" stroke-width="1" stroke-linecap="square"></line><svg x="-30" y="0" font-size="11" style="overflow:visible"><text transform="" x="-8" y="66.42857142857143" fill="#1B2030" font-size="11" text-anchor="start"><tspan x="-8" dy="0em">200%</tspan></text></svg></g><g class="visx-group visx-axis-tick" transform="translate(0, 0)"><line class="visx-line" x1="0" y1="22.14285714285715" x2="-8" y2="22.14285714285715" fill="transparent" shape-rendering="crispEdges" stroke="#F2F0F9" stroke-width="1" stroke-linecap="square"></line><svg x="-30" y="0" font-size="11" style="overflow:visible"><text transform="" x="-8" y="22.14285714285715" fill="#1B2030" font-size="11" text-anchor="start"><tspan x="-8" dy="0em">300%</tspan></text></svg></g><line class="visx-line visx-axis-line" x1="0" y1="155.5" x2="0" y2="0.5" fill="transparent" shape-rendering="crispEdges" stroke="#F2F0F9" stroke-width="1"></line></g><rect class="visx-bar" width="1425" height="155" fill="transparent"></rect><line class="visx-line" x1="712.5" y1="58" x2="712.5" y2="155" fill="transparent" shape-rendering="crispEdges" stroke="#CDC8E1" stroke-width="1" pointer-events="none" stroke-dasharray="5"></line><svg x="0" y="0" font-size="11px" style="overflow:visible"><text transform="" x="712.5" y="50" font-size="11px" fill="#555069" stroke="#FFFFFF" stroke-width="1px" text-anchor="middle"><tspan x="712.5" dy="0.355em">Optimal utilization 50%</tspan></text></svg><svg x="0" y="0" font-size="11px" style="overflow:visible"><text transform="" x="712.5" y="50" font-size="11px" fill="#CDC8E1" text-anchor="middle"><tspan x="712.5" dy="0.355em">Optimal utilization 50%</tspan></text></svg></g></svg>