<?xml version="1.0"?><svg xmlns="http://www.w3.org/2000/svg" xmlns:xlink= "http://www.w3.org/1999/xlink" style="background: white;" width="1500" height="300"> <g style="color: black; font-size: 13px; font-family: sans-serif; transform: translate(18px, 25px);"><g><circle r="3" cx="-6" cy="-5" style="fill: #1AD4B3" /><text>Borrow APR, variable</text></g><g style="transform: translateX(150px);"><circle r="3" cx="-6" cy="-5" style="fill: #101423" /><text>Borrow APR, stable</text></g></g><g class="visx-group" transform="translate(45, 50)"><g class="visx-group visx-rows" transform="translate(0, 0)"><line class="visx-line" x1="0" y1="155" x2="1425" y2="155" fill="transparent" shape-rendering="crispEdges" stroke="#F2F0F9" stroke-width="1" pointer-events="none"></line><line class="visx-line" x1="0" y1="116.25" x2="1425" y2="116.25" fill="transparent" shape-rendering="crispEdges" stroke="#F2F0F9" stroke-width="1" pointer-events="none"></line><line class="visx-line" x1="0" y1="77.5" x2="1425" y2="77.5" fill="transparent" shape-rendering="crispEdges" stroke="#F2F0F9" stroke-width="1" pointer-events="none"></line><line class="visx-line" x1="0" y1="38.75" x2="1425" y2="38.75" fill="transparent" shape-rendering="crispEdges" stroke="#F2F0F9" stroke-width="1" pointer-events="none"></line><line class="visx-line" x1="0" y1="0" x2="1425" y2="0" fill="transparent" shape-rendering="crispEdges" stroke="#F2F0F9" stroke-width="1" pointer-events="none"></line></g><path class="visx-linepath" d="M0,152.67499999986438C2.375,152.65239583325422,4.75,152.62979166664408,7.125,152.6071875C9.5,152.58458333335594,11.875,152.56197916666667,14.25,152.539375C16.625,152.51677083333334,19,152.49416666666667,21.375,152.4715625C23.75,152.44895833333334,26.125,152.42635416666667,28.5,152.40375C30.875,152.38114583333333,33.25,152.35854166666667,35.625,152.3359375C38,152.31333333333333,40.375,152.29072916666667,42.75,152.268125C45.125,152.24552083333333,47.50000000000001,152.22291666666666,49.87500000000001,152.2003125C52.25000000000001,152.17770833333333,54.625,152.15510416666666,57,152.1325C59.375,152.10989583333333,61.75,152.08729166666666,64.125,152.0646875C66.5,152.04208333333332,68.875,152.01947916666666,71.25,151.996875C73.625,151.97427083333332,76,151.95166666666665,78.375,151.9290625C80.75,151.90645833333332,83.125,151.88385416666668,85.5,151.86125C87.875,151.83864583333335,90.25,151.81604166666668,92.625,151.7934375C95,151.77083333333334,97.37500000000001,151.74822916666668,99.75000000000001,151.725625C102.12500000000001,151.70302083333334,104.5,151.68041666666667,106.875,151.6578125C109.25,151.63520833333334,111.625,151.61260416666667,114,151.59C116.375,151.56739583333334,118.75000000000001,151.54479166666667,121.12500000000001,151.5221875C123.50000000000001,151.49958333333333,125.875,151.47697916666667,128.25,151.454375C130.625,151.43177083333333,133,151.40916666666666,135.375,151.3865625C137.75,151.36395833333333,140.125,151.34135416666666,142.5,151.31875C144.875,151.29614583333333,147.25,151.27354166666666,149.625,151.2509375C152,151.22833333333332,154.375,151.20572916666666,156.75,151.183125C159.125,151.16052083333332,161.5,151.13791666666668,163.875,151.11531250000002C166.25,151.09270833333335,168.625,151.07010416666668,171,151.0475C173.375,151.02489583333335,175.75,151.00229166666668,178.125,150.9796875C180.5,150.95708333333334,182.875,150.93447916666665,185.25,150.91187499999998C187.625,150.8892708333333,190,150.86666666666667,192.375,150.8440625C194.75,150.82145833333334,197.12500000000003,150.79885416666667,199.50000000000003,150.77625C201.875,150.75364583333334,204.25,150.73104166666667,206.62499999999997,150.7084375C208.99999999999997,150.68583333333333,211.375,150.66322916666667,213.75,150.640625C216.125,150.61802083333333,218.5,150.59541666666667,220.875,150.5728125C223.25,150.55020833333333,225.625,150.52760416666666,228,150.505C230.375,150.48239583333333,232.75,150.45979166666666,235.125,150.4371875C237.5,150.41458333333333,239.87500000000003,150.39197916666666,242.25000000000003,150.369375C244.625,150.34677083333332,247,150.32416666666668,249.37499999999997,150.30156250000002C251.74999999999997,150.27895833333335,254.125,150.25635416666665,256.5,150.23375C258.875,150.21114583333332,261.25,150.18854166666665,263.625,150.16593749999998C266,150.14333333333332,268.375,150.12072916666668,270.75,150.098125C273.125,150.07552083333334,275.5,150.05291666666668,277.875,150.0303125C280.25,150.00770833333334,282.625,149.98510416666667,285,149.9625C287.375,149.93989583333334,289.75,149.91729166666667,292.125,149.8946875C294.5,149.87208333333334,296.875,149.84947916666667,299.25,149.826875C301.625,149.80427083333333,304,149.78166666666667,306.375,149.7590625C308.75,149.73645833333333,311.125,149.71385416666666,313.5,149.69125C315.875,149.66864583333333,318.25,149.64604166666666,320.625,149.6234375C323,149.60083333333333,325.375,149.57822916666666,327.75,149.555625C330.125,149.53302083333332,332.5,149.51041666666669,334.875,149.48781250000002C337.25,149.46520833333335,339.625,149.44260416666665,342,149.42C344.375,149.39739583333332,346.75,149.37479166666665,349.125,149.35218749999999C351.5,149.32958333333332,353.875,149.30697916666668,356.25,149.284375C358.625,149.26177083333334,361,149.23916666666668,363.375,149.2165625C365.75,149.19395833333334,368.125,149.17135416666667,370.5,149.14875C372.875,149.12614583333334,375.25,149.10354166666667,377.625,149.0809375C380,149.05833333333334,382.375,149.03572916666667,384.75,149.013125C387.125,148.99052083333333,389.50000000000006,148.96791666666667,391.87500000000006,148.9453125C394.25000000000006,148.92270833333333,396.62500000000006,148.90010416666667,399.00000000000006,148.8775C401.375,148.85489583333333,403.75,148.83229166666666,406.12499999999994,148.8096875C408.49999999999994,148.78708333333333,410.87499999999994,148.76447916666666,413.24999999999994,148.741875C415.62499999999994,148.71927083333333,418,148.69666666666666,420.375,148.6740625C422.75,148.65145833333332,425.125,148.62885416666666,427.5,148.60625C429.875,148.58364583333332,432.25,148.56104166666668,434.625,148.53843750000001C437,148.51583333333335,439.375,148.49322916666668,441.75,148.470625C444.125,148.44802083333335,446.5,148.42541666666665,448.875,148.40281249999998C451.25,148.38020833333331,453.625,148.35760416666668,456,148.335C458.375,148.31239583333334,460.75,148.28979166666667,463.125,148.2671875C465.5,148.24458333333334,467.875,148.22197916666667,470.25,148.199375C472.625,148.17677083333334,475.00000000000006,148.15416666666667,477.37500000000006,148.1315625C479.75000000000006,148.10895833333333,482.12500000000006,148.08635416666667,484.50000000000006,148.06375C486.875,148.04114583333333,489.25,148.01854166666666,491.62499999999994,147.9959375C493.99999999999994,147.97333333333333,496.37499999999994,147.95072916666666,498.74999999999994,147.928125C501.12499999999994,147.90552083333333,503.5,147.88291666666666,505.875,147.8603125C508.25,147.83770833333332,510.625,147.81510416666666,513,147.7925C515.375,147.76989583333332,517.75,147.74729166666668,520.125,147.72468750000002C522.5,147.70208333333335,524.875,147.67947916666668,527.25,147.656875C529.625,147.63427083333335,532,147.61166666666665,534.375,147.58906249999998C536.75,147.56645833333332,539.125,147.54385416666668,541.5,147.52125C543.875,147.49864583333334,546.25,147.47604166666667,548.625,147.4534375C551,147.43083333333334,553.375,147.40822916666667,555.75,147.385625C558.125,147.36302083333334,560.5,147.34041666666667,562.875,147.3178125C565.25,147.29520833333333,567.625,147.27260416666667,570,147.25C572.375,147.22739583333333,574.75,147.20479166666667,577.125,147.1821875C579.5,147.15958333333333,581.875,147.13697916666666,584.25,147.114375C586.625,147.09177083333333,589,147.06916666666666,591.375,147.0465625C593.75,147.02395833333333,596.125,147.0013541666667,598.5,146.97875000000002C600.875,146.95614583333335,603.25,146.93354166666666,605.625,146.9109375C608,146.88833333333332,610.375,146.86572916666665,612.75,146.843125C615.125,146.82052083333332,617.5,146.79791666666665,619.875,146.77531249999998C622.25,146.75270833333332,624.625,146.73010416666668,627,146.7075C629.375,146.68489583333334,631.75,146.66229166666668,634.125,146.6396875C636.5,146.61708333333334,638.875,146.59447916666667,641.25,146.571875C643.625,146.54927083333334,646,146.52666666666667,648.375,146.5040625C650.75,146.48145833333334,653.125,146.45885416666667,655.5,146.43625C657.875,146.41364583333333,660.25,146.39104166666667,662.625,146.3684375C665,146.34583333333333,667.375,146.32322916666666,669.75,146.300625C672.125,146.27802083333333,674.5,146.25541666666666,676.875,146.2328125C679.25,146.21020833333333,681.625,146.18760416666666,684,146.165C686.375,146.14239583333332,688.75,146.11979166666666,691.125,146.0971875C693.5,146.07458333333332,695.875,146.05197916666665,698.25,146.029375C700.625,146.00677083333332,703,145.98416666666668,705.375,145.9615625C707.75,145.93895833333335,710.125,145.91635416666668,712.5,145.89375C714.875,145.87114583333334,717.25,145.84854166666668,719.625,145.8259375C722,145.80333333333334,724.375,145.78072916666667,726.75,145.758125C729.125,145.73552083333334,731.5,145.71291666666667,733.875,145.6903125C736.25,145.66770833333334,738.625,145.64510416666667,741,145.6225C743.375,145.59989583333333,745.75,145.57729166666667,748.125,145.5546875C750.5,145.53208333333333,752.875,145.50947916666667,755.25,145.486875C757.625,145.46427083333333,760,145.44166666666666,762.375,145.4190625C764.75,145.39645833333333,767.125,145.37385416666666,769.5,145.35125C771.875,145.32864583333333,774.2500000000001,145.30604166666666,776.6250000000001,145.2834375C779.0000000000001,145.26083333333332,781.3750000000001,145.23822916666666,783.7500000000001,145.215625C786.1250000000001,145.19302083333332,788.5000000000001,145.17041666666668,790.8750000000001,145.14781250000001C793.2500000000001,145.12520833333335,795.6250000000001,145.10260416666665,798.0000000000001,145.07999999999998C800.375,145.05739583333332,802.75,145.03479166666665,805.1249999999999,145.01218749999998C807.4999999999999,144.98958333333331,809.8749999999999,144.96697916666668,812.2499999999999,144.944375C814.6249999999999,144.92177083333334,816.9999999999999,144.89916666666667,819.3749999999999,144.8765625C821.7499999999999,144.85395833333334,824.1249999999999,144.83135416666667,826.4999999999999,144.80875C828.8749999999999,144.78614583333334,831.25,144.76354166666667,833.625,144.7409375C836,144.71833333333333,838.375,144.69572916666667,840.75,144.673125C843.125,144.65052083333333,845.5,144.62791666666666,847.875,144.6053125C850.25,144.58270833333333,852.625,144.56010416666666,855,144.5375C857.375,144.51489583333333,859.75,144.49229166666666,862.125,144.4696875C864.5,144.44708333333332,866.875,144.42447916666669,869.25,144.40187500000002C871.625,144.37927083333335,874,144.35666666666668,876.375,144.33406250000002C878.75,144.31145833333335,881.125,144.28885416666665,883.5,144.26624999999999C885.875,144.24364583333332,888.25,144.22104166666668,890.625,144.1984375C893,144.17583333333334,895.375,144.15322916666668,897.75,144.130625C900.125,144.10802083333334,902.5,144.08541666666667,904.875,144.0628125C907.25,144.04020833333334,909.625,144.01760416666667,912,143.995C914.375,143.97239583333334,916.75,143.94979166666667,919.125,143.9271875C921.5,143.90458333333333,923.875,143.88197916666667,926.25,143.859375C928.625,143.83677083333333,931,143.81416666666667,933.375,143.7915625C935.75,143.76895833333333,938.125,143.74635416666666,940.5,143.72375C942.875,143.70114583333333,945.25,143.67854166666666,947.625,143.6559375C950,143.63333333333333,952.3750000000001,143.61072916666666,954.7500000000001,143.588125C957.1250000000001,143.56552083333332,959.5000000000001,143.54291666666666,961.8750000000001,143.5203125C964.2500000000001,143.49770833333332,966.6250000000001,143.47510416666665,969.0000000000001,143.4525C971.3750000000001,143.42989583333332,973.7500000000001,143.40729166666668,976.1250000000001,143.3846875C978.5,143.36208333333335,980.875,143.33947916666668,983.2499999999999,143.316875C985.6249999999999,143.29427083333334,987.9999999999999,143.27166666666665,990.3749999999999,143.24906249999998C992.7499999999999,143.2264583333333,995.1249999999999,143.20385416666667,997.4999999999999,143.18125C999.8749999999999,143.15864583333334,1002.2499999999999,143.13604166666667,1004.6249999999999,143.1134375C1006.9999999999999,143.09083333333334,1009.375,143.06822916666667,1011.75,143.045625C1014.125,143.02302083333333,1016.5,143.00041666666667,1018.875,142.9778125C1021.25,142.95520833333333,1023.625,142.93260416666666,1026,142.91C1028.375,142.88739583333333,1030.75,142.8647916666667,1033.125,142.84218750000002C1035.5,142.81958333333336,1037.875,142.79697916666666,1040.25,142.774375C1042.625,142.75177083333332,1045,142.72916666666666,1047.375,142.7065625C1049.75,142.68395833333332,1052.125,142.66135416666668,1054.5,142.63875000000002C1056.875,142.61614583333335,1059.25,142.59354166666668,1061.625,142.5709375C1064,142.54833333333335,1066.375,142.52572916666668,1068.75,142.503125C1071.125,142.48052083333334,1073.5,142.45791666666665,1075.875,142.43531249999998C1078.25,142.4127083333333,1080.625,142.39010416666667,1083,142.3675C1085.375,142.34489583333334,1087.75,142.32229166666667,1090.125,142.2996875C1092.5,142.27708333333334,1094.875,142.25447916666667,1097.25,142.231875C1099.625,142.20927083333333,1102,142.18666666666667,1104.375,142.1640625C1106.75,142.14145833333333,1109.125,142.11885416666667,1111.5,142.09625C1113.875,142.07364583333333,1116.25,142.05104166666666,1118.625,142.0284375C1121,142.00583333333333,1123.375,141.98322916666666,1125.75,141.960625C1128.125,141.93802083333333,1130.5,141.91541666666666,1132.875,141.8928125C1135.25,141.87020833333332,1137.625,141.87020833333332,1140,141.82500000000002C1142.375,141.7797916666667,1144.75,139.8875,1147.125,138.91875C1149.5,137.95,1151.875,136.98125,1154.25,136.0125C1156.625,135.04375,1159,134.075,1161.375,133.10625C1163.75,132.1375,1166.125,131.16875,1168.5,130.2C1170.875,129.23125,1173.25,128.2625,1175.625,127.29375C1178,126.325,1180.375,125.35625,1182.75,124.3875C1185.125,123.41875,1187.5,122.44999999999999,1189.875,121.48124999999999C1192.25,120.51249999999999,1194.625,119.54375,1197,118.575C1199.375,117.60625,1201.75,116.63750000000002,1204.125,115.66875000000002C1206.5,114.70000000000002,1208.875,113.73125,1211.25,112.7625C1213.625,111.79375,1216,110.825,1218.375,109.85625C1220.75,108.8875,1223.125,107.91874999999999,1225.5,106.94999999999999C1227.875,105.98124999999999,1230.25,105.0125,1232.625,104.04375C1235,103.075,1237.375,102.10625000000002,1239.75,101.13750000000002C1242.125,100.16875000000002,1244.5,99.2,1246.875,98.23125C1249.25,97.2625,1251.625,96.29375,1254,95.325C1256.375,94.35625,1258.75,93.38749999999999,1261.125,92.41874999999999C1263.5,91.44999999999999,1265.875,90.48125,1268.25,89.5125C1270.625,88.54375,1273,87.57500000000002,1275.375,86.60625000000002C1277.75,85.63750000000002,1280.125,84.66875,1282.5,83.7C1284.875,82.73125,1287.25,81.7625,1289.625,80.79375C1292,79.825,1294.375,78.85624999999999,1296.75,77.88749999999999C1299.125,76.91874999999999,1301.5,75.95,1303.875,74.98125C1306.25,74.0125,1308.625,73.04374999999999,1311,72.07499999999999C1313.375,71.10624999999999,1315.75,70.1375,1318.125,69.16875C1320.5,68.2,1322.875,67.23125,1325.25,66.2625C1327.625,65.29375,1330,64.32499999999999,1332.375,63.35624999999999C1334.75,62.38749999999999,1337.125,61.41875,1339.5,60.45C1341.875,59.48125,1344.25,58.512499999999996,1346.625,57.543749999999996C1349,56.574999999999996,1351.375,55.60625,1353.75,54.6375C1356.125,53.66875,1358.5,52.699999999999996,1360.875,51.731249999999996C1363.25,50.762499999999996,1365.625,49.79374999999999,1368,48.82499999999999C1370.375,47.85624999999999,1372.75,46.8875,1375.125,45.91875C1377.5,44.95,1379.875,43.981249999999996,1382.25,43.012499999999996C1384.625,42.043749999999996,1387,41.075,1389.375,40.10625C1391.75,39.1375,1394.125,38.168749999999996,1396.5,37.199999999999996C1398.875,36.231249999999996,1401.25,35.26249999999999,1403.625,34.29374999999999C1406,33.32499999999999,1408.375,32.35625,1410.75,31.387500000000003C1413.125,30.418750000000003,1415.5,29.449999999999996,1417.875,28.481249999999996C1420.25,27.512499999999996,1422.625,26.543750000000003,1425,25.575000000000006" fill="transparent" stroke-linecap="round" stroke="#1AD4B3" stroke-width="2"></path><g class="visx-group visx-axis visx-axis-bottom" transform="translate(0, 155)"><g class="visx-group visx-axis-tick" transform="translate(0, 0)"><line class="visx-line" x1="0" y1="0" x2="0" y2="8" fill="transparent" shape-rendering="crispEdges" stroke="#F2F0F9" stroke-width="1" stroke-linecap="square"></line><svg x="0" y="0" font-size="11" style="overflow:visible"><text transform="" x="0" y="19" fill="#1B2030" font-size="11" text-anchor="middle"><tspan x="0" dy="0em">0%</tspan></text></svg></g><g class="visx-group visx-axis-tick" transform="translate(0, 0)"><line class="visx-line" x1="356.25" y1="0" x2="356.25" y2="8" fill="transparent" shape-rendering="crispEdges" stroke="#F2F0F9" stroke-width="1" stroke-linecap="square"></line><svg x="0" y="0" font-size="11" style="overflow:visible"><text transform="" x="356.25" y="19" fill="#1B2030" font-size="11" text-anchor="middle"><tspan x="356.25" dy="0em">25%</tspan></text></svg></g><g class="visx-group visx-axis-tick" transform="translate(0, 0)"><line class="visx-line" x1="712.5" y1="0" x2="712.5" y2="8" fill="transparent" shape-rendering="crispEdges" stroke="#F2F0F9" stroke-width="1" stroke-linecap="square"></line><svg x="0" y="0" font-size="11" style="overflow:visible"><text transform="" x="712.5" y="19" fill="#1B2030" font-size="11" text-anchor="middle"><tspan x="712.5" dy="0em">50%</tspan></text></svg></g><g class="visx-group visx-axis-tick" transform="translate(0, 0)"><line class="visx-line" x1="1068.75" y1="0" x2="1068.75" y2="8" fill="transparent" shape-rendering="crispEdges" stroke="#F2F0F9" stroke-width="1" stroke-linecap="square"></line><svg x="0" y="0" font-size="11" style="overflow:visible"><text transform="" x="1068.75" y="19" fill="#1B2030" font-size="11" text-anchor="middle"><tspan x="1068.75" dy="0em">75%</tspan></text></svg></g><g class="visx-group visx-axis-tick" transform="translate(0, 0)"><line class="visx-line" x1="1425" y1="0" x2="1425" y2="8" fill="transparent" shape-rendering="crispEdges" stroke="#F2F0F9" stroke-width="1" stroke-linecap="square"></line><svg x="0" y="0" font-size="11" style="overflow:visible"><text transform="" x="1425" y="19" fill="#1B2030" font-size="11" text-anchor="middle"><tspan x="1425" dy="0em">100%</tspan></text></svg></g></g><g class="visx-group visx-axis visx-axis-left" transform="translate(0, 0)"><g class="visx-group visx-axis-tick" transform="translate(0, 0)"><line class="visx-line" x1="0" y1="155" x2="-8" y2="155" fill="transparent" shape-rendering="crispEdges" stroke="#F2F0F9" stroke-width="1" stroke-linecap="square"></line><svg x="-30" y="0" font-size="11" style="overflow:visible"><text transform="" x="-8" y="155" fill="#1B2030" font-size="11" text-anchor="start"><tspan x="-8" dy="0em">0%</tspan></text></svg></g><g class="visx-group visx-axis-tick" transform="translate(0, 0)"><line class="visx-line" x1="0" y1="116.25" x2="-8" y2="116.25" fill="transparent" shape-rendering="crispEdges" stroke="#F2F0F9" stroke-width="1" stroke-linecap="square"></line><svg x="-30" y="0" font-size="11" style="overflow:visible"><text transform="" x="-8" y="116.25" fill="#1B2030" font-size="11" text-anchor="start"><tspan x="-8" dy="0em">50%</tspan></text></svg></g><g class="visx-group visx-axis-tick" transform="translate(0, 0)"><line class="visx-line" x1="0" y1="77.5" x2="-8" y2="77.5" fill="transparent" shape-rendering="crispEdges" stroke="#F2F0F9" stroke-width="1" stroke-linecap="square"></line><svg x="-30" y="0" font-size="11" style="overflow:visible"><text transform="" x="-8" y="77.5" fill="#1B2030" font-size="11" text-anchor="start"><tspan x="-8" dy="0em">100%</tspan></text></svg></g><g class="visx-group visx-axis-tick" transform="translate(0, 0)"><line class="visx-line" x1="0" y1="38.75" x2="-8" y2="38.75" fill="transparent" shape-rendering="crispEdges" stroke="#F2F0F9" stroke-width="1" stroke-linecap="square"></line><svg x="-30" y="0" font-size="11" style="overflow:visible"><text transform="" x="-8" y="38.75" fill="#1B2030" font-size="11" text-anchor="start"><tspan x="-8" dy="0em">150%</tspan></text></svg></g><g class="visx-group visx-axis-tick" transform="translate(0, 0)"><line class="visx-line" x1="0" y1="0" x2="-8" y2="0" fill="transparent" shape-rendering="crispEdges" stroke="#F2F0F9" stroke-width="1" stroke-linecap="square"></line><svg x="-30" y="0" font-size="11" style="overflow:visible"><text transform="" x="-8" y="0" fill="#1B2030" font-size="11" text-anchor="start"><tspan x="-8" dy="0em">200%</tspan></text></svg></g><line class="visx-line visx-axis-line" x1="0" y1="155.5" x2="0" y2="0.5" fill="transparent" shape-rendering="crispEdges" stroke="#F2F0F9" stroke-width="1"></line></g><rect class="visx-bar" width="1425" height="155" fill="transparent"></rect><line class="visx-line" x1="1140" y1="58" x2="1140" y2="155" fill="transparent" shape-rendering="crispEdges" stroke="#CDC8E1" stroke-width="1" pointer-events="none" stroke-dasharray="5"></line><svg x="0" y="0" font-size="11px" style="overflow:visible"><text transform="" x="1140" y="50" font-size="11px" fill="#555069" stroke="#FFFFFF" stroke-width="1px" text-anchor="middle"><tspan x="1140" dy="0.355em">Optimal utilization 80%</tspan></text></svg><svg x="0" y="0" font-size="11px" style="overflow:visible"><text transform="" x="1140" y="50" font-size="11px" fill="#CDC8E1" text-anchor="middle"><tspan x="1140" dy="0.355em">Optimal utilization 80%</tspan></text></svg></g></svg>