<?xml version="1.0"?><svg xmlns="http://www.w3.org/2000/svg" xmlns:xlink= "http://www.w3.org/1999/xlink" style="background: white;" width="1500" height="185"> <g style="color: black; font-size: 13px; font-family: sans-serif; transform: translate(18px, 25px);"><g><circle r="3" cx="-6" cy="-5" style="fill: #B6509E" /><text>Borrow APR, variable</text></g><g style="transform: translateX(150px);"><circle r="3" cx="-6" cy="-5" style="fill: rgb(231, 198, 223)" /><text>Borrow APR, stable</text></g><g style="transform: translateX(290px);"><circle r="3" cx="-6" cy="-5" style="fill: rgb(0, 98, 210)" /><text>Utilization Rate</text></g></g><g class="visx-group" transform="translate(40, 50)"><g class="visx-group visx-rows" transform="translate(0, 0)"><line class="visx-line" x1="0" y1="115" x2="1450" y2="115" fill="transparent" shape-rendering="crispEdges" stroke="#000" stroke-width="1" stroke-dasharray="3,3" pointer-events="none"></line><line class="visx-line" x1="0" y1="62.72727272727272" x2="1450" y2="62.72727272727272" fill="transparent" shape-rendering="crispEdges" stroke="#000" stroke-width="1" stroke-dasharray="3,3" pointer-events="none"></line><line class="visx-line" x1="0" y1="10.454545454545459" x2="1450" y2="10.454545454545459" fill="transparent" shape-rendering="crispEdges" stroke="#000" stroke-width="1" stroke-dasharray="3,3" pointer-events="none"></line></g><path class="visx-linepath" d="M0,114.9999999999216C2.4166666666666665,114.98693181813609,4.833333333333334,114.97386363635056,7.25,114.96079545454545C9.666666666666666,114.94772727274034,12.083333333333334,114.9346590909091,14.5,114.92159090909091C16.916666666666668,114.90852272727273,19.333333333333332,114.89545454545456,21.75,114.88238636363637C24.166666666666668,114.86931818181819,26.583333333333332,114.85625,29,114.84318181818182C31.416666666666668,114.83011363636363,33.833333333333336,114.81704545454545,36.25,114.80397727272727C38.666666666666664,114.79090909090908,41.083333333333336,114.77784090909091,43.5,114.76477272727273C45.91666666666667,114.75170454545454,48.333333333333336,114.73863636363636,50.75000000000001,114.72556818181818C53.16666666666667,114.71249999999999,55.583333333333336,114.69943181818182,58,114.68636363636364C60.416666666666664,114.67329545454545,62.833333333333336,114.66022727272728,65.25,114.6471590909091C67.66666666666667,114.63409090909092,70.08333333333333,114.62102272727273,72.5,114.60795454545455C74.91666666666667,114.59488636363636,77.33333333333333,114.58181818181818,79.75,114.56875C82.16666666666667,114.55568181818181,84.58333333333333,114.54261363636363,87,114.52954545454544C89.41666666666667,114.51647727272726,91.83333333333333,114.5034090909091,94.25,114.49034090909092C96.66666666666667,114.47727272727273,99.08333333333334,114.46420454545455,101.50000000000001,114.45113636363637C103.91666666666667,114.43806818181818,106.33333333333334,114.425,108.75,114.41193181818181C111.16666666666667,114.39886363636363,113.58333333333333,114.38579545454546,116,114.37272727272727C118.41666666666667,114.35965909090909,120.83333333333334,114.34659090909092,123.25000000000001,114.33352272727274C125.66666666666667,114.32045454545455,128.08333333333334,114.30738636363637,130.5,114.29431818181818C132.91666666666666,114.28125,135.33333333333334,114.26818181818182,137.75,114.25511363636363C140.16666666666666,114.24204545454545,142.58333333333334,114.22897727272728,145,114.2159090909091C147.41666666666666,114.20284090909091,149.83333333333334,114.18977272727273,152.25,114.17670454545454C154.66666666666666,114.16363636363636,157.08333333333334,114.15056818181819,159.5,114.1375C161.91666666666666,114.12443181818182,164.33333333333334,114.11136363636363,166.75,114.09829545454545C169.16666666666666,114.08522727272727,171.58333333333334,114.0721590909091,174,114.05909090909091C176.41666666666666,114.04602272727273,178.83333333333334,114.03295454545454,181.25,114.01988636363636C183.66666666666666,114.00681818181818,186.08333333333334,113.99374999999999,188.5,113.98068181818181C190.91666666666666,113.96761363636362,193.33333333333334,113.95454545454547,195.75,113.94147727272728C198.16666666666669,113.9284090909091,200.58333333333334,113.91534090909092,203.00000000000003,113.90227272727273C205.41666666666669,113.88920454545455,207.83333333333331,113.87613636363636,210.24999999999997,113.86306818181818C212.66666666666666,113.85,215.08333333333331,113.83693181818182,217.5,113.82386363636364C219.91666666666666,113.81079545454546,222.33333333333334,113.79772727272727,224.75,113.78465909090909C227.16666666666666,113.7715909090909,229.58333333333334,113.75852272727273,232,113.74545454545455C234.41666666666666,113.73238636363637,236.83333333333334,113.71931818181818,239.25,113.70625C241.66666666666669,113.69318181818181,244.08333333333334,113.68011363636364,246.50000000000003,113.66704545454546C248.91666666666669,113.65397727272727,251.33333333333331,113.64090909090909,253.74999999999997,113.6278409090909C256.16666666666663,113.61477272727272,258.5833333333333,113.60170454545454,261,113.58863636363635C263.4166666666667,113.57556818181817,265.8333333333333,113.5625,268.25,113.54943181818182C270.6666666666667,113.53636363636363,273.0833333333333,113.52329545454546,275.5,113.51022727272728C277.9166666666667,113.4971590909091,280.3333333333333,113.48409090909091,282.75,113.47102272727273C285.1666666666667,113.45795454545454,287.5833333333333,113.44488636363636,290,113.43181818181817C292.4166666666667,113.41874999999999,294.8333333333333,113.40568181818182,297.25,113.39261363636363C299.6666666666667,113.37954545454545,302.0833333333333,113.36647727272728,304.5,113.3534090909091C306.9166666666667,113.34034090909091,309.3333333333333,113.32727272727273,311.75,113.31420454545454C314.1666666666667,113.30113636363636,316.5833333333333,113.28806818181818,319,113.27499999999999C321.4166666666667,113.26193181818181,323.8333333333333,113.24886363636364,326.25,113.23579545454545C328.6666666666667,113.22272727272727,331.0833333333333,113.2096590909091,333.5,113.19659090909092C335.9166666666667,113.18352272727273,338.3333333333333,113.17045454545455,340.75,113.15738636363636C343.1666666666667,113.14431818181818,345.5833333333333,113.13125000000001,348,113.11818181818182C350.4166666666667,113.10511363636364,352.8333333333333,113.09204545454546,355.25,113.07897727272727C357.6666666666667,113.06590909090909,360.0833333333333,113.0528409090909,362.5,113.03977272727272C364.9166666666667,113.02670454545454,367.3333333333333,113.01363636363637,369.75,113.00056818181818C372.1666666666667,112.9875,374.5833333333333,112.97443181818183,377,112.96136363636364C379.4166666666667,112.94829545454546,381.8333333333333,112.93522727272727,384.25,112.92215909090909C386.6666666666667,112.9090909090909,389.0833333333333,112.89602272727272,391.5,112.88295454545454C393.9166666666667,112.86988636363635,396.33333333333337,112.85681818181818,398.75000000000006,112.84375C401.16666666666674,112.83068181818182,403.58333333333337,112.81761363636365,406.00000000000006,112.80454545454546C408.4166666666667,112.79147727272728,410.8333333333333,112.7784090909091,413.24999999999994,112.76534090909091C415.66666666666663,112.75227272727273,418.08333333333326,112.73920454545454,420.49999999999994,112.72613636363636C422.91666666666663,112.71306818181817,425.3333333333333,112.7,427.75,112.68693181818182C430.1666666666667,112.67386363636363,432.5833333333333,112.66079545454545,435,112.64772727272727C437.4166666666667,112.63465909090908,439.8333333333333,112.62159090909091,442.25,112.60852272727273C444.6666666666667,112.59545454545454,447.0833333333333,112.58238636363637,449.5,112.56931818181819C451.9166666666667,112.55625,454.3333333333333,112.54318181818182,456.75,112.53011363636364C459.1666666666667,112.51704545454545,461.5833333333333,112.50397727272727,464,112.49090909090908C466.4166666666667,112.4778409090909,468.8333333333333,112.46477272727272,471.25,112.45170454545453C473.6666666666667,112.43863636363635,476.0833333333333,112.42556818181819,478.5,112.41250000000001C480.9166666666667,112.39943181818182,483.33333333333337,112.38636363636364,485.75000000000006,112.37329545454546C488.16666666666674,112.36022727272727,490.58333333333337,112.34715909090909,493.00000000000006,112.3340909090909C495.4166666666667,112.32102272727272,497.8333333333333,112.30795454545455,500.24999999999994,112.29488636363637C502.66666666666663,112.28181818181818,505.08333333333326,112.26875,507.49999999999994,112.25568181818181C509.91666666666663,112.24261363636363,512.3333333333333,112.22954545454546,514.75,112.21647727272727C517.1666666666666,112.20340909090909,519.5833333333334,112.1903409090909,522,112.17727272727272C524.4166666666666,112.16420454545454,526.8333333333334,112.15113636363637,529.25,112.13806818181818C531.6666666666666,112.125,534.0833333333334,112.11193181818182,536.5,112.09886363636363C538.9166666666666,112.08579545454545,541.3333333333334,112.07272727272728,543.75,112.0596590909091C546.1666666666666,112.04659090909091,548.5833333333334,112.03352272727274,551,112.02045454545456C553.4166666666666,112.00738636363637,555.8333333333334,111.99431818181819,558.25,111.98125C560.6666666666666,111.96818181818182,563.0833333333334,111.95511363636363,565.5,111.94204545454545C567.9166666666666,111.92897727272727,570.3333333333334,111.91590909090908,572.75,111.9028409090909C575.1666666666666,111.88977272727271,577.5833333333334,111.87670454545456,580,111.86363636363637C582.4166666666666,111.85056818181819,584.8333333333334,111.8375,587.25,111.82443181818182C589.6666666666666,111.81136363636364,592.0833333333334,111.79829545454545,594.5,111.78522727272727C596.9166666666666,111.77215909090908,599.3333333333334,111.75909090909092,601.75,111.74602272727273C604.1666666666666,111.73295454545455,606.5833333333334,111.71988636363636,609,111.70681818181818C611.4166666666666,111.69375,613.8333333333334,111.68068181818182,616.25,111.66761363636364C618.6666666666666,111.65454545454546,621.0833333333334,111.64147727272727,623.5,111.62840909090909C625.9166666666666,111.6153409090909,628.3333333333334,111.60227272727273,630.75,111.58920454545455C633.1666666666666,111.57613636363637,635.5833333333334,111.56306818181818,638,111.55C640.4166666666666,111.53693181818181,642.8333333333334,111.52386363636363,645.25,111.51079545454544C647.6666666666666,111.49772727272726,650.0833333333334,111.48465909090909,652.5,111.4715909090909C654.9166666666666,111.45852272727272,657.3333333333334,111.44545454545455,659.75,111.43238636363637C662.1666666666666,111.41931818181818,664.5833333333334,111.40625,667,111.39318181818182C669.4166666666666,111.38011363636363,671.8333333333334,111.36704545454545,674.25,111.35397727272726C676.6666666666666,111.34090909090908,679.0833333333334,111.32784090909092,681.5,111.31477272727274C683.9166666666666,111.30170454545456,686.3333333333334,111.28863636363637,688.75,111.27556818181819C691.1666666666666,111.2625,693.5833333333334,111.24943181818182,696,111.23636363636363C698.4166666666666,111.22329545454545,700.8333333333334,111.21022727272728,703.25,111.1971590909091C705.6666666666666,111.18409090909091,708.0833333333334,111.17102272727273,710.5,111.15795454545454C712.9166666666666,111.14488636363636,715.3333333333334,111.13181818181819,717.75,111.11875C720.1666666666666,111.10568181818182,722.5833333333334,111.09261363636364,725,111.07954545454545C727.4166666666666,111.06647727272727,729.8333333333334,111.0534090909091,732.25,111.04034090909092C734.6666666666666,111.02727272727273,737.0833333333334,111.01420454545455,739.5,111.00113636363636C741.9166666666666,110.98806818181818,744.3333333333334,110.975,746.75,110.96193181818181C749.1666666666666,110.94886363636363,751.5833333333334,110.93579545454546,754,110.92272727272727C756.4166666666666,110.90965909090909,758.8333333333334,110.89659090909092,761.25,110.88352272727273C763.6666666666666,110.87045454545455,766.0833333333334,110.85738636363637,768.5,110.84431818181818C770.9166666666666,110.83125,773.3333333333334,110.81818181818181,775.75,110.80511363636363C778.1666666666666,110.79204545454544,780.5833333333334,110.77897727272727,783,110.76590909090909C785.4166666666667,110.7528409090909,787.8333333333334,110.73977272727274,790.2500000000001,110.72670454545455C792.6666666666667,110.71363636363637,795.0833333333335,110.70056818181818,797.5000000000001,110.6875C799.9166666666667,110.67443181818182,802.3333333333335,110.66136363636363,804.7500000000001,110.64829545454545C807.1666666666667,110.63522727272726,809.5833333333335,110.6221590909091,812.0000000000001,110.60909090909091C814.4166666666667,110.59602272727273,816.8333333333333,110.58295454545454,819.2499999999999,110.56988636363636C821.6666666666665,110.55681818181817,824.0833333333333,110.54375,826.4999999999999,110.53068181818182C828.9166666666665,110.51761363636363,831.3333333333333,110.50454545454546,833.7499999999999,110.49147727272728C836.1666666666665,110.4784090909091,838.5833333333333,110.46534090909091,840.9999999999999,110.45227272727273C843.4166666666666,110.43920454545454,845.8333333333333,110.42613636363636,848.25,110.41306818181818C850.6666666666666,110.39999999999999,853.0833333333334,110.38693181818182,855.5,110.37386363636364C857.9166666666666,110.36079545454545,860.3333333333334,110.34772727272728,862.75,110.3346590909091C865.1666666666666,110.32159090909092,867.5833333333334,110.30852272727273,870,110.29545454545455C872.4166666666666,110.28238636363636,874.8333333333334,110.26931818181818,877.25,110.25625C879.6666666666666,110.24318181818181,882.0833333333334,110.23011363636364,884.5,110.21704545454546C886.9166666666666,110.20397727272727,889.3333333333334,110.19090909090909,891.75,110.1778409090909C894.1666666666666,110.16477272727272,896.5833333333334,110.15170454545455,899,110.13863636363637C901.4166666666666,110.12556818181818,903.8333333333334,110.1125,906.25,110.09943181818181C908.6666666666666,110.08636363636363,911.0833333333334,110.07329545454546,913.5,110.06022727272727C915.9166666666666,110.04715909090909,918.3333333333334,110.0340909090909,920.75,110.02102272727272C923.1666666666666,110.00795454545454,925.5833333333334,109.99488636363637,928,109.98181818181818C930.4166666666666,109.96875,932.8333333333334,109.95568181818183,935.25,109.94261363636365C937.6666666666666,109.92954545454546,940.0833333333334,109.91647727272728,942.5,109.9034090909091C944.9166666666666,109.89034090909091,947.3333333333334,109.87727272727273,949.75,109.86420454545454C952.1666666666666,109.85113636363636,954.5833333333334,109.83806818181817,957,109.82499999999999C959.4166666666666,109.8119318181818,961.8333333333334,109.79886363636363,964.25,109.78579545454545C966.6666666666667,109.77272727272727,969.0833333333334,109.7596590909091,971.5000000000001,109.74659090909091C973.9166666666667,109.73352272727273,976.3333333333335,109.72045454545454,978.7500000000001,109.70738636363636C981.1666666666667,109.69431818181818,983.5833333333335,109.68125,986.0000000000001,109.66818181818182C988.4166666666667,109.65511363636364,990.8333333333335,109.64204545454545,993.2500000000001,109.62897727272727C995.6666666666667,109.61590909090908,998.0833333333333,109.60284090909092,1000.4999999999999,109.58977272727273C1002.9166666666665,109.57670454545455,1005.3333333333333,109.56363636363636,1007.7499999999999,109.55056818181818C1010.1666666666665,109.5375,1012.5833333333333,109.52443181818182,1014.9999999999999,109.51136363636364C1017.4166666666665,109.49829545454546,1019.8333333333333,109.48522727272727,1022.2499999999999,109.47215909090909C1024.6666666666665,109.4590909090909,1027.0833333333333,109.44602272727272,1029.5,109.43295454545454C1031.9166666666667,109.41988636363635,1034.3333333333333,109.4068181818182,1036.75,109.39375000000001C1039.1666666666667,109.38068181818183,1041.5833333333333,109.36761363636364,1044,109.35454545454546C1046.4166666666667,109.34147727272727,1048.8333333333333,109.32840909090909,1051.25,109.3153409090909C1053.6666666666667,109.30227272727272,1056.0833333333333,109.28920454545454,1058.5,109.27613636363635C1060.9166666666667,109.26306818181817,1063.3333333333333,109.25,1065.75,109.23693181818182C1068.1666666666667,109.22386363636363,1070.5833333333333,109.21079545454546,1073,109.19772727272728C1075.4166666666667,109.1846590909091,1077.8333333333333,109.17159090909091,1080.25,109.15852272727273C1082.6666666666667,109.14545454545454,1085.0833333333333,109.13238636363637,1087.5,109.11931818181819C1089.9166666666667,109.10625,1092.3333333333333,109.09318181818182,1094.75,109.08011363636363C1097.1666666666667,109.06704545454545,1099.5833333333333,109.05397727272728,1102,109.0409090909091C1104.4166666666667,109.02784090909091,1106.8333333333333,109.01477272727273,1109.25,109.00170454545454C1111.6666666666667,108.98863636363636,1114.0833333333333,108.97556818181819,1116.5,108.9625C1118.9166666666667,108.94943181818182,1121.3333333333333,108.93636363636364,1123.75,108.92329545454545C1126.1666666666667,108.91022727272727,1128.5833333333333,108.89715909090908,1131,108.8840909090909C1133.4166666666667,108.87102272727272,1135.8333333333333,108.85795454545455,1138.25,108.84488636363636C1140.6666666666667,108.83181818181818,1143.0833333333333,108.81875000000001,1145.5,108.80568181818182C1147.9166666666667,108.79261363636364,1150.3333333333333,108.77954545454546,1152.75,108.76647727272727C1155.1666666666667,108.75340909090909,1157.5833333333333,108.75340909090909,1160,108.72727272727272C1162.4166666666667,108.70113636363635,1164.8333333333333,107.21136363636364,1167.25,106.45340909090909C1169.6666666666667,105.69545454545454,1172.0833333333333,104.9375,1174.5,104.17954545454545C1176.9166666666667,103.4215909090909,1179.3333333333333,102.66363636363636,1181.75,101.90568181818182C1184.1666666666667,101.14772727272728,1186.5833333333333,100.38977272727271,1189,99.63181818181818C1191.4166666666667,98.87386363636364,1193.8333333333333,98.1159090909091,1196.25,97.35795454545455C1198.6666666666667,96.6,1201.0833333333333,95.84204545454546,1203.5,95.0840909090909C1205.9166666666667,94.32613636363635,1208.3333333333333,93.56818181818181,1210.75,92.81022727272727C1213.1666666666667,92.05227272727274,1215.5833333333333,91.29431818181817,1218,90.53636363636363C1220.4166666666667,89.7784090909091,1222.8333333333333,89.02045454545456,1225.25,88.2625C1227.6666666666667,87.50454545454545,1230.0833333333333,86.74659090909091,1232.5,85.98863636363636C1234.9166666666667,85.23068181818181,1237.3333333333333,84.47272727272727,1239.75,83.71477272727273C1242.1666666666667,82.95681818181819,1244.5833333333333,82.19886363636365,1247,81.4409090909091C1249.4166666666667,80.68295454545455,1251.8333333333333,79.92500000000001,1254.25,79.16704545454546C1256.6666666666667,78.4090909090909,1259.0833333333333,77.65113636363637,1261.5,76.89318181818183C1263.9166666666667,76.13522727272729,1266.3333333333333,75.37727272727273,1268.75,74.61931818181819C1271.1666666666667,73.86136363636365,1273.5833333333333,73.10340909090911,1276,72.34545454545456C1278.4166666666667,71.5875,1280.8333333333333,70.82954545454547,1283.25,70.07159090909092C1285.6666666666667,69.31363636363636,1288.0833333333333,68.55568181818182,1290.5,67.79772727272727C1292.9166666666667,67.03977272727272,1295.3333333333333,66.28181818181818,1297.75,65.52386363636364C1300.1666666666667,64.7659090909091,1302.5833333333333,64.00795454545455,1305,63.25000000000001C1307.4166666666667,62.49204545454546,1309.8333333333333,61.73409090909092,1312.25,60.97613636363637C1314.6666666666667,60.218181818181826,1317.0833333333333,59.46022727272728,1319.5,58.702272727272735C1321.9166666666667,57.94431818181819,1324.3333333333333,57.18636363636363,1326.75,56.428409090909085C1329.1666666666667,55.67045454545454,1331.5833333333333,54.9125,1334,54.154545454545456C1336.4166666666667,53.39659090909091,1338.8333333333333,52.638636363636365,1341.25,51.88068181818182C1343.6666666666667,51.122727272727275,1346.0833333333333,50.36477272727273,1348.5,49.606818181818184C1350.9166666666667,48.84886363636364,1353.3333333333333,48.09090909090909,1355.75,47.33295454545455C1358.1666666666667,46.575,1360.5833333333333,45.81704545454544,1363,45.0590909090909C1365.4166666666667,44.30113636363635,1367.8333333333333,43.54318181818182,1370.25,42.785227272727276C1372.6666666666667,42.02727272727273,1375.0833333333333,41.269318181818186,1377.5,40.51136363636364C1379.9166666666667,39.753409090909095,1382.3333333333333,38.99545454545455,1384.75,38.237500000000004C1387.1666666666667,37.47954545454546,1389.5833333333333,36.721590909090914,1392,35.96363636363637C1394.4166666666667,35.20568181818182,1396.8333333333333,34.44772727272726,1399.25,33.68977272727272C1401.6666666666667,32.93181818181817,1404.0833333333333,32.173863636363635,1406.5,31.415909090909093C1408.9166666666667,30.65795454545455,1411.3333333333333,29.900000000000002,1413.75,29.142045454545457C1416.1666666666667,28.38409090909091,1418.5833333333333,27.626136363636366,1421,26.868181818181817C1423.4166666666667,26.11022727272727,1425.8333333333333,25.352272727272712,1428.25,24.59431818181817C1430.6666666666667,23.83636363636363,1433.0833333333333,23.0784090909091,1435.5,22.32045454545456C1437.9166666666667,21.562500000000018,1440.3333333333333,20.80454545454546,1442.75,20.04659090909091C1445.1666666666667,19.28863636363636,1447.5833333333333,18.53068181818182,1450,17.772727272727273" fill="transparent" stroke-linecap="round" stroke="#B6509E" stroke-width="2"></path><path class="visx-linepath" d="M0,107.68181818176592C2.4166666666666665,107.67310606057558,4.833333333333334,107.66439393938523,7.25,107.65568181818182C9.666666666666666,107.6469696969784,12.083333333333334,107.63825757575756,14.5,107.62954545454545C16.916666666666668,107.62083333333334,19.333333333333332,107.61212121212121,21.75,107.6034090909091C24.166666666666668,107.59469696969698,26.583333333333332,107.58598484848484,29,107.57727272727273C31.416666666666668,107.56856060606061,33.833333333333336,107.55984848484849,36.25,107.55113636363637C38.666666666666664,107.54242424242426,41.083333333333336,107.53371212121213,43.5,107.525C45.91666666666667,107.51628787878788,48.333333333333336,107.50757575757576,50.75000000000001,107.49886363636364C53.16666666666667,107.49015151515151,55.583333333333336,107.48143939393938,58,107.47272727272727C60.416666666666664,107.46401515151514,62.833333333333336,107.45530303030303,65.25,107.44659090909092C67.66666666666667,107.4378787878788,70.08333333333333,107.42916666666667,72.5,107.42045454545455C74.91666666666667,107.41174242424242,77.33333333333333,107.4030303030303,79.75,107.39431818181818C82.16666666666667,107.38560606060605,84.58333333333333,107.37689393939394,87,107.36818181818181C89.41666666666667,107.35946969696968,91.83333333333333,107.35075757575756,94.25,107.34204545454544C96.66666666666667,107.33333333333333,99.08333333333334,107.32462121212122,101.50000000000001,107.3159090909091C103.91666666666667,107.30719696969699,106.33333333333334,107.29848484848486,108.75,107.28977272727273C111.16666666666667,107.2810606060606,113.58333333333333,107.2723484848485,116,107.26363636363637C118.41666666666667,107.25492424242424,120.83333333333334,107.24621212121212,123.25000000000001,107.2375C125.66666666666667,107.22878787878787,128.08333333333334,107.22007575757574,130.5,107.21136363636363C132.91666666666666,107.2026515151515,135.33333333333334,107.19393939393939,137.75,107.18522727272727C140.16666666666666,107.17651515151516,142.58333333333334,107.16780303030303,145,107.15909090909092C147.41666666666666,107.15037878787881,149.83333333333334,107.14166666666668,152.25,107.13295454545455C154.66666666666666,107.12424242424242,157.08333333333334,107.11553030303031,159.5,107.10681818181818C161.91666666666666,107.09810606060606,164.33333333333334,107.08939393939394,166.75,107.08068181818182C169.16666666666666,107.07196969696969,171.58333333333334,107.06325757575756,174,107.05454545454545C176.41666666666666,107.04583333333333,178.83333333333334,107.0371212121212,181.25,107.0284090909091C183.66666666666666,107.01969696969698,186.08333333333334,107.01098484848485,188.5,107.00227272727273C190.91666666666666,106.9935606060606,193.33333333333334,106.98484848484848,195.75,106.97613636363636C198.16666666666669,106.96742424242423,200.58333333333334,106.95871212121212,203.00000000000003,106.94999999999999C205.41666666666669,106.94128787878788,207.83333333333331,106.93257575757575,210.24999999999997,106.92386363636363C212.66666666666666,106.91515151515152,215.08333333333331,106.90643939393941,217.5,106.89772727272728C219.91666666666666,106.88901515151517,222.33333333333334,106.88030303030304,224.75,106.87159090909091C227.16666666666666,106.86287878787878,229.58333333333334,106.85416666666667,232,106.84545454545454C234.41666666666666,106.83674242424242,236.83333333333334,106.8280303030303,239.25,106.81931818181818C241.66666666666669,106.81060606060605,244.08333333333334,106.80189393939392,246.50000000000003,106.79318181818181C248.91666666666669,106.7844696969697,251.33333333333331,106.77575757575758,253.74999999999997,106.76704545454547C256.16666666666663,106.75833333333335,258.5833333333333,106.74962121212123,261,106.7409090909091C263.4166666666667,106.73219696969697,265.8333333333333,106.72348484848486,268.25,106.71477272727273C270.6666666666667,106.7060606060606,273.0833333333333,106.69734848484849,275.5,106.68863636363636C277.9166666666667,106.67992424242424,280.3333333333333,106.67121212121211,282.75,106.6625C285.1666666666667,106.65378787878788,287.5833333333333,106.64507575757575,290,106.63636363636364C292.4166666666667,106.62765151515153,294.8333333333333,106.6189393939394,297.25,106.61022727272727C299.6666666666667,106.60151515151514,302.0833333333333,106.59280303030303,304.5,106.5840909090909C306.9166666666667,106.57537878787878,309.3333333333333,106.56666666666665,311.75,106.55795454545454C314.1666666666667,106.54924242424242,316.5833333333333,106.5405303030303,319,106.53181818181818C321.4166666666667,106.52310606060607,323.8333333333333,106.51439393939393,326.25,106.50568181818181C328.6666666666667,106.4969696969697,331.0833333333333,106.48825757575757,333.5,106.47954545454546C335.9166666666667,106.47083333333335,338.3333333333333,106.46212121212122,340.75,106.45340909090909C343.1666666666667,106.44469696969696,345.5833333333333,106.43598484848484,348,106.42727272727272C350.4166666666667,106.41856060606061,352.8333333333333,106.40984848484848,355.25,106.40113636363637C357.6666666666667,106.39242424242425,360.0833333333333,106.38371212121211,362.5,106.375C364.9166666666667,106.36628787878789,367.3333333333333,106.35757575757576,369.75,106.34886363636365C372.1666666666667,106.34015151515153,374.5833333333333,106.3314393939394,377,106.32272727272728C379.4166666666667,106.31401515151515,381.8333333333333,106.30530303030304,384.25,106.29659090909091C386.6666666666667,106.28787878787878,389.0833333333333,106.27916666666667,391.5,106.27045454545454C393.9166666666667,106.26174242424241,396.33333333333337,106.2530303030303,398.75000000000006,106.24431818181817C401.16666666666674,106.23560606060606,403.58333333333337,106.22689393939395,406.00000000000006,106.21818181818182C408.4166666666667,106.2094696969697,410.8333333333333,106.20075757575756,413.24999999999994,106.19204545454545C415.66666666666663,106.18333333333332,418.08333333333326,106.17462121212121,420.49999999999994,106.1659090909091C422.91666666666663,106.15719696969697,425.3333333333333,106.14848484848486,427.75,106.13977272727273C430.1666666666667,106.1310606060606,432.5833333333333,106.12234848484849,435,106.11363636363636C437.4166666666667,106.10492424242423,439.8333333333333,106.0962121212121,442.25,106.08749999999999C444.6666666666667,106.07878787878788,447.0833333333333,106.07007575757575,449.5,106.06136363636364C451.9166666666667,106.05265151515152,454.3333333333333,106.04393939393938,456.75,106.03522727272727C459.1666666666667,106.02651515151516,461.5833333333333,106.01780303030303,464,106.00909090909092C466.4166666666667,106.0003787878788,468.8333333333333,105.99166666666667,471.25,105.98295454545455C473.6666666666667,105.97424242424242,476.0833333333333,105.96553030303029,478.5,105.95681818181818C480.9166666666667,105.94810606060605,483.33333333333337,105.93939393939395,485.75000000000006,105.93068181818182C488.16666666666674,105.92196969696971,490.58333333333337,105.91325757575758,493.00000000000006,105.90454545454546C495.4166666666667,105.89583333333333,497.8333333333333,105.88712121212122,500.24999999999994,105.87840909090909C502.66666666666663,105.86969696969696,505.08333333333326,105.86098484848483,507.49999999999994,105.85227272727272C509.91666666666663,105.84356060606059,512.3333333333333,105.83484848484848,514.75,105.82613636363637C517.1666666666666,105.81742424242425,519.5833333333334,105.80871212121212,522,105.80000000000001C524.4166666666666,105.7912878787879,526.8333333333334,105.78257575757577,529.25,105.77386363636364C531.6666666666666,105.76515151515152,534.0833333333334,105.7564393939394,536.5,105.74772727272727C538.9166666666666,105.73901515151515,541.3333333333334,105.73030303030303,543.75,105.7215909090909C546.1666666666666,105.71287878787878,548.5833333333334,105.70416666666665,551,105.69545454545454C553.4166666666666,105.68674242424242,555.8333333333334,105.6780303030303,558.25,105.66931818181818C560.6666666666666,105.66060606060607,563.0833333333334,105.65189393939394,565.5,105.64318181818183C567.9166666666666,105.63446969696972,570.3333333333334,105.62575757575759,572.75,105.61704545454546C575.1666666666666,105.60833333333333,577.5833333333334,105.59962121212122,580,105.5909090909091C582.4166666666666,105.58219696969697,584.8333333333334,105.57348484848485,587.25,105.56477272727273C589.6666666666666,105.5560606060606,592.0833333333334,105.54734848484847,594.5,105.53863636363636C596.9166666666666,105.52992424242424,599.3333333333334,105.52121212121212,601.75,105.5125C604.1666666666666,105.50378787878789,606.5833333333334,105.49507575757576,609,105.48636363636363C611.4166666666666,105.4776515151515,613.8333333333334,105.4689393939394,616.25,105.46022727272727C618.6666666666666,105.45151515151514,621.0833333333334,105.44280303030301,623.5,105.4340909090909C625.9166666666666,105.42537878787878,628.3333333333334,105.41666666666666,630.75,105.40795454545454C633.1666666666666,105.39924242424243,635.5833333333334,105.3905303030303,638,105.38181818181819C640.4166666666666,105.37310606060608,642.8333333333334,105.36439393939395,645.25,105.35568181818182C647.6666666666666,105.3469696969697,650.0833333333334,105.33825757575758,652.5,105.32954545454545C654.9166666666666,105.32083333333333,657.3333333333334,105.31212121212121,659.75,105.30340909090908C662.1666666666666,105.29469696969696,664.5833333333334,105.28598484848483,667,105.27727272727272C669.4166666666666,105.2685606060606,671.8333333333334,105.25984848484848,674.25,105.25113636363636C676.6666666666666,105.24242424242425,679.0833333333334,105.23371212121212,681.5,105.22500000000001C683.9166666666666,105.2162878787879,686.3333333333334,105.20757575757577,688.75,105.19886363636364C691.1666666666666,105.19015151515151,693.5833333333334,105.1814393939394,696,105.17272727272727C698.4166666666666,105.16401515151514,700.8333333333334,105.15530303030302,703.25,105.1465909090909C705.6666666666666,105.13787878787879,708.0833333333334,105.12916666666666,710.5,105.12045454545455C712.9166666666666,105.11174242424244,715.3333333333334,105.10303030303031,717.75,105.09431818181818C720.1666666666666,105.08560606060605,722.5833333333334,105.07689393939393,725,105.06818181818181C727.4166666666666,105.0594696969697,729.8333333333334,105.05075757575757,732.25,105.04204545454546C734.6666666666666,105.03333333333335,737.0833333333334,105.02462121212122,739.5,105.01590909090909C741.9166666666666,105.00719696969696,744.3333333333334,104.99848484848484,746.75,104.98977272727272C749.1666666666666,104.98106060606061,751.5833333333334,104.97234848484848,754,104.96363636363637C756.4166666666666,104.95492424242425,758.8333333333334,104.94621212121213,761.25,104.9375C763.6666666666666,104.92878787878787,766.0833333333334,104.92007575757576,768.5,104.91136363636363C770.9166666666666,104.9026515151515,773.3333333333334,104.89393939393938,775.75,104.88522727272726C778.1666666666666,104.87651515151515,780.5833333333334,104.86780303030302,783,104.85909090909091C785.4166666666667,104.8503787878788,787.8333333333334,104.84166666666668,790.2500000000001,104.83295454545456C792.6666666666667,104.82424242424244,795.0833333333335,104.81553030303031,797.5000000000001,104.80681818181819C799.9166666666667,104.79810606060606,802.3333333333335,104.78939393939395,804.7500000000001,104.78068181818182C807.1666666666667,104.77196969696969,809.5833333333335,104.76325757575758,812.0000000000001,104.75454545454545C814.4166666666667,104.74583333333332,816.8333333333333,104.7371212121212,819.2499999999999,104.72840909090908C821.6666666666665,104.71969696969695,824.0833333333333,104.71098484848484,826.4999999999999,104.70227272727273C828.9166666666665,104.69356060606061,831.3333333333333,104.68484848484849,833.7499999999999,104.67613636363637C836.1666666666665,104.66742424242426,838.5833333333333,104.65871212121213,840.9999999999999,104.65C843.4166666666666,104.64128787878788,845.8333333333333,104.63257575757576,848.25,104.62386363636364C850.6666666666666,104.61515151515151,853.0833333333334,104.6064393939394,855.5,104.59772727272727C857.9166666666666,104.58901515151514,860.3333333333334,104.58030303030301,862.75,104.5715909090909C865.1666666666666,104.56287878787879,867.5833333333334,104.55416666666666,870,104.54545454545455C872.4166666666666,104.53674242424243,874.8333333333334,104.52803030303029,877.25,104.51931818181818C879.6666666666666,104.51060606060607,882.0833333333334,104.50189393939394,884.5,104.49318181818182C886.9166666666666,104.48446969696971,889.3333333333334,104.47575757575758,891.75,104.46704545454546C894.1666666666666,104.45833333333333,896.5833333333334,104.4496212121212,899,104.44090909090909C901.4166666666666,104.43219696969697,903.8333333333334,104.42348484848485,906.25,104.41477272727273C908.6666666666666,104.40606060606062,911.0833333333334,104.3973484848485,913.5,104.38863636363637C915.9166666666666,104.37992424242424,918.3333333333334,104.37121212121212,920.75,104.3625C923.1666666666666,104.35378787878787,925.5833333333334,104.34507575757576,928,104.33636363636363C930.4166666666666,104.3276515151515,932.8333333333334,104.31893939393937,935.25,104.31022727272726C937.6666666666666,104.30151515151515,940.0833333333334,104.29280303030302,942.5,104.2840909090909C944.9166666666666,104.2753787878788,947.3333333333334,104.26666666666667,949.75,104.25795454545455C952.1666666666666,104.24924242424244,954.5833333333334,104.24053030303031,957,104.23181818181818C959.4166666666666,104.22310606060606,961.8333333333334,104.21439393939394,964.25,104.20568181818182C966.6666666666667,104.19696969696969,969.0833333333334,104.18825757575758,971.5000000000001,104.17954545454545C973.9166666666667,104.17083333333333,976.3333333333335,104.1621212121212,978.7500000000001,104.1534090909091C981.1666666666667,104.14469696969698,983.5833333333335,104.13598484848485,986.0000000000001,104.12727272727274C988.4166666666667,104.11856060606063,990.8333333333335,104.1098484848485,993.2500000000001,104.10113636363637C995.6666666666667,104.09242424242424,998.0833333333333,104.08371212121213,1000.4999999999999,104.075C1002.9166666666665,104.06628787878788,1005.3333333333333,104.05757575757576,1007.7499999999999,104.04886363636363C1010.1666666666665,104.0401515151515,1012.5833333333333,104.03143939393938,1014.9999999999999,104.02272727272727C1017.4166666666665,104.01401515151515,1019.8333333333333,104.00530303030303,1022.2499999999999,103.99659090909091C1024.6666666666665,103.98787878787878,1027.0833333333333,103.97916666666667,1029.5,103.97045454545454C1031.9166666666667,103.96174242424242,1034.3333333333333,103.95303030303029,1036.75,103.94431818181818C1039.1666666666667,103.93560606060606,1041.5833333333333,103.92689393939393,1044,103.91818181818182C1046.4166666666667,103.90946969696971,1048.8333333333333,103.90075757575757,1051.25,103.89204545454545C1053.6666666666667,103.88333333333334,1056.0833333333333,103.87462121212121,1058.5,103.8659090909091C1060.9166666666667,103.85719696969699,1063.3333333333333,103.84848484848486,1065.75,103.83977272727273C1068.1666666666667,103.8310606060606,1070.5833333333333,103.82234848484849,1073,103.81363636363636C1075.4166666666667,103.80492424242424,1077.8333333333333,103.79621212121212,1080.25,103.7875C1082.6666666666667,103.77878787878787,1085.0833333333333,103.77007575757574,1087.5,103.76136363636363C1089.9166666666667,103.75265151515151,1092.3333333333333,103.74393939393939,1094.75,103.73522727272727C1097.1666666666667,103.72651515151516,1099.5833333333333,103.71780303030303,1102,103.70909090909092C1104.4166666666667,103.7003787878788,1106.8333333333333,103.69166666666668,1109.25,103.68295454545455C1111.6666666666667,103.67424242424242,1114.0833333333333,103.66553030303031,1116.5,103.65681818181818C1118.9166666666667,103.64810606060605,1121.3333333333333,103.63939393939394,1123.75,103.63068181818181C1126.1666666666667,103.62196969696969,1128.5833333333333,103.61325757575756,1131,103.60454545454544C1133.4166666666667,103.59583333333333,1135.8333333333333,103.5871212121212,1138.25,103.57840909090909C1140.6666666666667,103.56969696969698,1143.0833333333333,103.56098484848485,1145.5,103.55227272727274C1147.9166666666667,103.54356060606062,1150.3333333333333,103.5348484848485,1152.75,103.52613636363637C1155.1666666666667,103.51742424242424,1157.5833333333333,103.51742424242424,1160,103.5C1162.4166666666667,103.48257575757576,1164.8333333333333,101.98409090909092,1167.25,101.22613636363637C1169.6666666666667,100.46818181818182,1172.0833333333333,99.71022727272728,1174.5,98.95227272727273C1176.9166666666667,98.19431818181818,1179.3333333333333,97.43636363636364,1181.75,96.6784090909091C1184.1666666666667,95.92045454545456,1186.5833333333333,95.16250000000001,1189,94.40454545454546C1191.4166666666667,93.6465909090909,1193.8333333333333,92.88863636363635,1196.25,92.13068181818181C1198.6666666666667,91.37272727272727,1201.0833333333333,90.61477272727274,1203.5,89.85681818181818C1205.9166666666667,89.09886363636363,1208.3333333333333,88.3409090909091,1210.75,87.58295454545454C1213.1666666666667,86.82499999999999,1215.5833333333333,86.06704545454545,1218,85.30909090909091C1220.4166666666667,84.55113636363637,1222.8333333333333,83.79318181818181,1225.25,83.03522727272727C1227.6666666666667,82.27727272727273,1230.0833333333333,81.51931818181818,1232.5,80.76136363636364C1234.9166666666667,80.0034090909091,1237.3333333333333,79.24545454545455,1239.75,78.48750000000001C1242.1666666666667,77.72954545454547,1244.5833333333333,76.97159090909092,1247,76.21363636363637C1249.4166666666667,75.45568181818182,1251.8333333333333,74.69772727272726,1254.25,73.93977272727273C1256.6666666666667,73.18181818181819,1259.0833333333333,72.42386363636365,1261.5,71.6659090909091C1263.9166666666667,70.90795454545454,1266.3333333333333,70.15,1268.75,69.39204545454545C1271.1666666666667,68.6340909090909,1273.5833333333333,67.87613636363636,1276,67.11818181818181C1278.4166666666667,66.36022727272726,1280.8333333333333,65.60227272727272,1283.25,64.84431818181818C1285.6666666666667,64.08636363636364,1288.0833333333333,63.3284090909091,1290.5,62.57045454545455C1292.9166666666667,61.81250000000001,1295.3333333333333,61.054545454545455,1297.75,60.29659090909091C1300.1666666666667,59.538636363636364,1302.5833333333333,58.780681818181804,1305,58.02272727272726C1307.4166666666667,57.264772727272714,1309.8333333333333,56.506818181818176,1312.25,55.74886363636363C1314.6666666666667,54.990909090909085,1317.0833333333333,54.23295454545454,1319.5,53.474999999999994C1321.9166666666667,52.71704545454545,1324.3333333333333,51.959090909090904,1326.75,51.20113636363636C1329.1666666666667,50.44318181818181,1331.5833333333333,49.68522727272727,1334,48.92727272727272C1336.4166666666667,48.16931818181818,1338.8333333333333,47.41136363636363,1341.25,46.653409090909086C1343.6666666666667,45.89545454545454,1346.0833333333333,45.13750000000001,1348.5,44.379545454545465C1350.9166666666667,43.62159090909092,1353.3333333333333,42.86363636363636,1355.75,42.105681818181814C1358.1666666666667,41.34772727272727,1360.5833333333333,40.58977272727274,1363,39.83181818181819C1365.4166666666667,39.07386363636365,1367.8333333333333,38.31590909090909,1370.25,37.55795454545454C1372.6666666666667,36.8,1375.0833333333333,36.04204545454545,1377.5,35.28409090909091C1379.9166666666667,34.52613636363636,1382.3333333333333,33.76818181818182,1384.75,33.01022727272728C1387.1666666666667,32.25227272727273,1389.5833333333333,31.49431818181818,1392,30.73636363636363C1394.4166666666667,29.978409090909082,1396.8333333333333,29.22045454545454,1399.25,28.462499999999995C1401.6666666666667,27.70454545454545,1404.0833333333333,26.946590909090897,1406.5,26.188636363636355C1408.9166666666667,25.430681818181814,1411.3333333333333,24.672727272727276,1413.75,23.914772727272734C1416.1666666666667,23.156818181818192,1418.5833333333333,22.398863636363643,1421,21.640909090909098C1423.4166666666667,20.882954545454552,1425.8333333333333,20.125000000000007,1428.25,19.36704545454546C1430.6666666666667,18.60909090909091,1433.0833333333333,17.85113636363636,1435.5,17.09318181818181C1437.9166666666667,16.335227272727263,1440.3333333333333,15.577272727272717,1442.75,14.819318181818174C1445.1666666666667,14.06136363636363,1447.5833333333333,13.30340909090909,1450,12.54545454545455" fill="transparent" stroke-linecap="round" stroke="#E7C6DF" stroke-width="2"></path><g class="visx-group visx-axis visx-axis-bottom" transform="translate(0, 115)"><g class="visx-group visx-axis-tick" transform="translate(0, 0)"><line class="visx-line" x1="0" y1="0" x2="0" y2="8" fill="transparent" shape-rendering="crispEdges" stroke="#000" stroke-width="0" stroke-linecap="square"></line><svg x="0" y="0" font-size="10" style="overflow:visible"><text transform="" x="0" y="18" fill="#000" font-size="10" text-anchor="middle"><tspan x="0" dy="0em">0%</tspan></text></svg></g><g class="visx-group visx-axis-tick" transform="translate(0, 0)"><line class="visx-line" x1="362.5" y1="0" x2="362.5" y2="8" fill="transparent" shape-rendering="crispEdges" stroke="#000" stroke-width="0" stroke-linecap="square"></line><svg x="0" y="0" font-size="10" style="overflow:visible"><text transform="" x="362.5" y="18" fill="#000" font-size="10" text-anchor="middle"><tspan x="362.5" dy="0em">25%</tspan></text></svg></g><g class="visx-group visx-axis-tick" transform="translate(0, 0)"><line class="visx-line" x1="725" y1="0" x2="725" y2="8" fill="transparent" shape-rendering="crispEdges" stroke="#000" stroke-width="0" stroke-linecap="square"></line><svg x="0" y="0" font-size="10" style="overflow:visible"><text transform="" x="725" y="18" fill="#000" font-size="10" text-anchor="middle"><tspan x="725" dy="0em">50%</tspan></text></svg></g><g class="visx-group visx-axis-tick" transform="translate(0, 0)"><line class="visx-line" x1="1087.5" y1="0" x2="1087.5" y2="8" fill="transparent" shape-rendering="crispEdges" stroke="#000" stroke-width="0" stroke-linecap="square"></line><svg x="0" y="0" font-size="10" style="overflow:visible"><text transform="" x="1087.5" y="18" fill="#000" font-size="10" text-anchor="middle"><tspan x="1087.5" dy="0em">75%</tspan></text></svg></g><g class="visx-group visx-axis-tick" transform="translate(0, 0)"><line class="visx-line" x1="1450" y1="0" x2="1450" y2="8" fill="transparent" shape-rendering="crispEdges" stroke="#000" stroke-width="0" stroke-linecap="square"></line><svg x="0" y="0" font-size="10" style="overflow:visible"><text transform="" x="1450" y="18" fill="#000" font-size="10" text-anchor="middle"><tspan x="1450" dy="0em">100%</tspan></text></svg></g><line class="visx-line visx-axis-line" x1="0.5" y1="0" x2="1450.5" y2="0" fill="transparent" shape-rendering="crispEdges" stroke="#222" stroke-width="0"></line></g><g class="visx-group visx-axis visx-axis-left" transform="translate(0, 0)"><g class="visx-group visx-axis-tick" transform="translate(0, 0)"><line class="visx-line" x1="0" y1="115" x2="-8" y2="115" fill="transparent" shape-rendering="crispEdges" stroke="#222" stroke-width="0" stroke-linecap="square"></line><svg x="-30" y="0" font-size="8" style="overflow:visible"><text transform="" x="-8" y="115" fill="#000" font-size="8" text-anchor="start"><tspan x="-8" dy="0em">0%</tspan></text></svg></g><g class="visx-group visx-axis-tick" transform="translate(0, 0)"><line class="visx-line" x1="0" y1="62.72727272727272" x2="-8" y2="62.72727272727272" fill="transparent" shape-rendering="crispEdges" stroke="#222" stroke-width="0" stroke-linecap="square"></line><svg x="-30" y="0" font-size="8" style="overflow:visible"><text transform="" x="-8" y="62.72727272727272" fill="#000" font-size="8" text-anchor="start"><tspan x="-8" dy="0em">50%</tspan></text></svg></g><g class="visx-group visx-axis-tick" transform="translate(0, 0)"><line class="visx-line" x1="0" y1="10.454545454545459" x2="-8" y2="10.454545454545459" fill="transparent" shape-rendering="crispEdges" stroke="#222" stroke-width="0" stroke-linecap="square"></line><svg x="-30" y="0" font-size="8" style="overflow:visible"><text transform="" x="-8" y="10.454545454545459" fill="#000" font-size="8" text-anchor="start"><tspan x="-8" dy="0em">100%</tspan></text></svg></g><line class="visx-line visx-axis-line" x1="0" y1="115.5" x2="0" y2="0.5" fill="transparent" shape-rendering="crispEdges" stroke="#222" stroke-width="0"></line></g><rect class="visx-bar" width="1450" height="115" fill="transparent"></rect><line class="visx-line" x1="1160" y1="28" x2="1160" y2="115" fill="transparent" shape-rendering="crispEdges" stroke="#0062D2" stroke-width="1" pointer-events="none" stroke-dasharray="5,2"></line><svg x="0" y="0" font-size="10px" style="overflow:visible"><text transform="" x="1160" y="20" font-size="10px" fill="#fff" stroke="#fff" stroke-width="0.8em" text-anchor="middle"><tspan x="1160" dy="0.355em">Optimal 80%</tspan></text></svg><svg x="0" y="0" font-size="10px" style="overflow:visible"><text transform="" x="1160" y="20" font-size="10px" fill="#62677B" text-anchor="middle"><tspan x="1160" dy="0.355em">Optimal 80%</tspan></text></svg></g></svg>