<?xml version="1.0"?><svg xmlns="http://www.w3.org/2000/svg" xmlns:xlink= "http://www.w3.org/1999/xlink" style="background: white;" width="1500" height="300"> <g style="color: black; font-size: 13px; font-family: sans-serif; transform: translate(18px, 25px);"><g><circle r="3" cx="-6" cy="-5" style="fill: #1AD4B3" /><text>Borrow APR, variable</text></g><g style="transform: translateX(150px);"><circle r="3" cx="-6" cy="-5" style="fill: #101423" /><text>Borrow APR, stable</text></g></g><g class="visx-group" transform="translate(45, 50)"><g class="visx-group visx-rows" transform="translate(0, 0)"><line class="visx-line" x1="0" y1="155" x2="1425" y2="155" fill="transparent" shape-rendering="crispEdges" stroke="#F2F0F9" stroke-width="1" pointer-events="none"></line><line class="visx-line" x1="0" y1="120.55555555555556" x2="1425" y2="120.55555555555556" fill="transparent" shape-rendering="crispEdges" stroke="#F2F0F9" stroke-width="1" pointer-events="none"></line><line class="visx-line" x1="0" y1="86.11111111111111" x2="1425" y2="86.11111111111111" fill="transparent" shape-rendering="crispEdges" stroke="#F2F0F9" stroke-width="1" pointer-events="none"></line><line class="visx-line" x1="0" y1="51.66666666666667" x2="1425" y2="51.66666666666667" fill="transparent" shape-rendering="crispEdges" stroke="#F2F0F9" stroke-width="1" pointer-events="none"></line><line class="visx-line" x1="0" y1="17.22222222222223" x2="1425" y2="17.22222222222223" fill="transparent" shape-rendering="crispEdges" stroke="#F2F0F9" stroke-width="1" pointer-events="none"></line></g><path class="visx-linepath" d="M0,154.99999999991388C2.375,154.9856481480979,4.75,154.97129629628193,7.125,154.95694444444445C9.5,154.94259259260696,11.875,154.92824074074073,14.25,154.9138888888889C16.625,154.89953703703705,19,154.88518518518518,21.375,154.87083333333334C23.75,154.8564814814815,26.125,154.84212962962962,28.5,154.82777777777778C30.875,154.81342592592594,33.25,154.79907407407407,35.625,154.78472222222223C38,154.7703703703704,40.375,154.75601851851852,42.75,154.74166666666667C45.125,154.72731481481483,47.50000000000001,154.71296296296296,49.87500000000001,154.69861111111112C52.25000000000001,154.68425925925928,54.625,154.6699074074074,57,154.65555555555557C59.375,154.64120370370372,61.75,154.62685185185185,64.125,154.6125C66.5,154.59814814814817,68.875,154.58379629629633,71.25,154.56944444444446C73.625,154.5550925925926,76,154.54074074074072,78.375,154.52638888888887C80.75,154.51203703703703,83.125,154.4976851851852,85.5,154.48333333333335C87.875,154.4689814814815,90.25,154.4546296296296,92.625,154.44027777777777C95,154.4259259259259,97.37500000000001,154.41157407407405,99.75000000000001,154.3972222222222C102.12500000000001,154.38287037037037,104.5,154.3685185185185,106.875,154.35416666666666C109.25,154.33981481481482,111.625,154.32546296296294,114,154.3111111111111C116.375,154.29675925925926,118.75000000000001,154.2824074074074,121.12500000000001,154.26805555555555C123.50000000000001,154.2537037037037,125.875,154.23935185185184,128.25,154.225C130.625,154.21064814814815,133,154.19629629629628,135.375,154.18194444444444C137.75,154.1675925925926,140.125,154.15324074074073,142.5,154.13888888888889C144.875,154.12453703703704,147.25,154.11018518518517,149.625,154.09583333333333C152,154.0814814814815,154.375,154.06712962962962,156.75,154.05277777777778C159.125,154.03842592592594,161.5,154.02407407407406,163.875,154.00972222222222C166.25,153.99537037037038,168.625,153.9810185185185,171,153.96666666666667C173.375,153.95231481481483,175.75,153.93796296296296,178.125,153.92361111111111C180.5,153.90925925925927,182.875,153.8949074074074,185.25,153.88055555555556C187.625,153.86620370370372,190,153.85185185185185,192.375,153.8375C194.75,153.82314814814816,197.12500000000003,153.8087962962963,199.50000000000003,153.79444444444445C201.875,153.7800925925926,204.25,153.76574074074074,206.62499999999997,153.7513888888889C208.99999999999997,153.73703703703706,211.375,153.72268518518518,213.75,153.70833333333334C216.125,153.6939814814815,218.5,153.67962962962963,220.875,153.6652777777778C223.25,153.65092592592595,225.625,153.63657407407408,228,153.62222222222223C230.375,153.6078703703704,232.75,153.59351851851852,235.125,153.57916666666668C237.5,153.5648148148148,239.87500000000003,153.55046296296294,242.25000000000003,153.5361111111111C244.625,153.52175925925926,247,153.5074074074074,249.37499999999997,153.49305555555557C251.74999999999997,153.47870370370373,254.125,153.46435185185186,256.5,153.45C258.875,153.43564814814815,261.25,153.42129629629628,263.625,153.40694444444443C266,153.3925925925926,268.375,153.37824074074072,270.75,153.36388888888888C273.125,153.34953703703704,275.5,153.33518518518517,277.875,153.32083333333333C280.25,153.30648148148148,282.625,153.2921296296296,285,153.27777777777777C287.375,153.26342592592593,289.75,153.24907407407406,292.125,153.23472222222222C294.5,153.22037037037038,296.875,153.2060185185185,299.25,153.19166666666666C301.625,153.17731481481482,304,153.16296296296295,306.375,153.1486111111111C308.75,153.13425925925927,311.125,153.1199074074074,313.5,153.10555555555555C315.875,153.0912037037037,318.25,153.07685185185184,320.625,153.0625C323,153.04814814814816,325.375,153.0337962962963,327.75,153.01944444444445C330.125,153.0050925925926,332.5,152.99074074074073,334.875,152.9763888888889C337.25,152.96203703703705,339.625,152.94768518518518,342,152.93333333333334C344.375,152.9189814814815,346.75,152.90462962962962,349.125,152.89027777777778C351.5,152.87592592592594,353.875,152.86157407407407,356.25,152.84722222222223C358.625,152.8328703703704,361,152.81851851851854,363.375,152.80416666666667C365.75,152.7898148148148,368.125,152.77546296296293,370.5,152.7611111111111C372.875,152.74675925925925,375.25,152.7324074074074,377.625,152.71805555555557C380,152.70370370370372,382.375,152.68935185185185,384.75,152.675C387.125,152.66064814814817,389.50000000000006,152.6462962962963,391.87500000000006,152.63194444444446C394.25000000000006,152.61759259259262,396.62500000000006,152.60324074074077,399.00000000000006,152.5888888888889C401.375,152.57453703703706,403.75,152.56018518518516,406.12499999999994,152.54583333333332C408.49999999999994,152.53148148148148,410.87499999999994,152.51712962962964,413.24999999999994,152.5027777777778C415.62499999999994,152.48842592592595,418,152.47407407407408,420.375,152.4597222222222C422.75,152.44537037037037,425.125,152.4310185185185,427.5,152.41666666666666C429.875,152.40231481481482,432.25,152.38796296296294,434.625,152.3736111111111C437,152.35925925925926,439.375,152.3449074074074,441.75,152.33055555555555C444.125,152.3162037037037,446.5,152.30185185185184,448.875,152.2875C451.25,152.27314814814815,453.625,152.25879629629628,456,152.24444444444444C458.375,152.2300925925926,460.75,152.21574074074073,463.125,152.20138888888889C465.5,152.18703703703704,467.875,152.17268518518517,470.25,152.15833333333333C472.625,152.1439814814815,475.00000000000006,152.12962962962962,477.37500000000006,152.11527777777778C479.75000000000006,152.10092592592594,482.12500000000006,152.08657407407406,484.50000000000006,152.07222222222222C486.875,152.05787037037038,489.25,152.0435185185185,491.62499999999994,152.02916666666667C493.99999999999994,152.01481481481483,496.37499999999994,152.00046296296296,498.74999999999994,151.98611111111111C501.12499999999994,151.97175925925927,503.5,151.9574074074074,505.875,151.94305555555556C508.25,151.92870370370372,510.625,151.91435185185185,513,151.9C515.375,151.88564814814816,517.75,151.8712962962963,520.125,151.85694444444445C522.5,151.8425925925926,524.875,151.82824074074074,527.25,151.8138888888889C529.625,151.79953703703706,532,151.78518518518516,534.375,151.77083333333331C536.75,151.75648148148147,539.125,151.74212962962963,541.5,151.7277777777778C543.875,151.71342592592595,546.25,151.69907407407408,548.625,151.68472222222223C551,151.6703703703704,553.375,151.6560185185185,555.75,151.64166666666665C558.125,151.6273148148148,560.5,151.61296296296297,562.875,151.59861111111113C565.25,151.58425925925928,567.625,151.56990740740738,570,151.55555555555554C572.375,151.5412037037037,574.75,151.52685185185186,577.125,151.51250000000002C579.5,151.49814814814818,581.875,151.4837962962963,584.25,151.46944444444443C586.625,151.45509259259256,589,151.44074074074072,591.375,151.42638888888888C593.75,151.41203703703704,596.125,151.39768518518517,598.5,151.38333333333333C600.875,151.36898148148148,603.25,151.3546296296296,605.625,151.34027777777777C608,151.32592592592593,610.375,151.31157407407406,612.75,151.29722222222222C615.125,151.28287037037038,617.5,151.2685185185185,619.875,151.25416666666666C622.25,151.23981481481482,624.625,151.22546296296295,627,151.2111111111111C629.375,151.19675925925927,631.75,151.1824074074074,634.125,151.16805555555555C636.5,151.1537037037037,638.875,151.13935185185184,641.25,151.125C643.625,151.11064814814816,646,151.0962962962963,648.375,151.08194444444445C650.75,151.0675925925926,653.125,151.05324074074073,655.5,151.0388888888889C657.875,151.02453703703705,660.25,151.01018518518518,662.625,150.99583333333334C665,150.9814814814815,667.375,150.96712962962962,669.75,150.95277777777778C672.125,150.93842592592594,674.5,150.92407407407407,676.875,150.90972222222223C679.25,150.8953703703704,681.625,150.88101851851852,684,150.86666666666667C686.375,150.85231481481483,688.75,150.837962962963,691.125,150.82361111111112C693.5,150.80925925925925,695.875,150.79490740740738,698.25,150.78055555555554C700.625,150.7662037037037,703,150.75185185185185,705.375,150.7375C707.75,150.72314814814817,710.125,150.70879629629627,712.5,150.69444444444443C714.875,150.6800925925926,717.25,150.66574074074072,719.625,150.65138888888887C722,150.63703703703703,724.375,150.6226851851852,726.75,150.60833333333335C729.125,150.5939814814815,731.5,150.5796296296296,733.875,150.56527777777777C736.25,150.55092592592592,738.625,150.53657407407408,741,150.52222222222224C743.375,150.5078703703704,745.75,150.4935185185185,748.125,150.47916666666666C750.5,150.46481481481482,752.875,150.45046296296294,755.25,150.4361111111111C757.625,150.42175925925926,760,150.4074074074074,762.375,150.39305555555555C764.75,150.3787037037037,767.125,150.36435185185184,769.5,150.35C771.875,150.33564814814815,774.2500000000001,150.32129629629628,776.6250000000001,150.30694444444444C779.0000000000001,150.2925925925926,781.3750000000001,150.27824074074073,783.7500000000001,150.26388888888889C786.1250000000001,150.24953703703704,788.5000000000001,150.23518518518517,790.8750000000001,150.22083333333333C793.2500000000001,150.2064814814815,795.6250000000001,150.19212962962962,798.0000000000001,150.17777777777778C800.375,150.16342592592594,802.75,150.14907407407406,805.1249999999999,150.13472222222222C807.4999999999999,150.12037037037038,809.8749999999999,150.1060185185185,812.2499999999999,150.09166666666667C814.6249999999999,150.07731481481483,816.9999999999999,150.06296296296296,819.3749999999999,150.04861111111111C821.7499999999999,150.03425925925927,824.1249999999999,150.0199074074074,826.4999999999999,150.00555555555556C828.8749999999999,149.99120370370372,831.25,149.97685185185185,833.625,149.9625C836,149.94814814814816,838.375,149.9337962962963,840.75,149.91944444444445C843.125,149.9050925925926,845.5,149.89074074074074,847.875,149.8763888888889C850.25,149.86203703703706,852.625,149.84768518518518,855,149.83333333333334C857.375,149.8189814814815,859.75,149.8046296296296,862.125,149.79027777777776C864.5,149.77592592592592,866.875,149.76157407407408,869.25,149.74722222222223C871.625,149.7328703703704,874,149.71851851851852,876.375,149.70416666666665C878.75,149.68981481481478,881.125,149.67546296296294,883.5,149.6611111111111C885.875,149.64675925925926,888.25,149.6324074074074,890.625,149.61805555555557C893,149.60370370370373,895.375,149.58935185185183,897.75,149.575C900.125,149.56064814814815,902.5,149.5462962962963,904.875,149.53194444444446C907.25,149.51759259259262,909.625,149.50324074074075,912,149.48888888888888C914.375,149.474537037037,916.75,149.46018518518517,919.125,149.44583333333333C921.5,149.43148148148148,923.875,149.4171296296296,926.25,149.40277777777777C928.625,149.38842592592593,931,149.37407407407406,933.375,149.35972222222222C935.75,149.34537037037038,938.125,149.3310185185185,940.5,149.31666666666666C942.875,149.30231481481482,945.25,149.28796296296295,947.625,149.2736111111111C950,149.25925925925927,952.3750000000001,149.2449074074074,954.7500000000001,149.23055555555555C957.1250000000001,149.2162037037037,959.5000000000001,149.20185185185184,961.8750000000001,149.1875C964.2500000000001,149.17314814814816,966.6250000000001,149.1587962962963,969.0000000000001,149.14444444444445C971.3750000000001,149.1300925925926,973.7500000000001,149.11574074074073,976.1250000000001,149.1013888888889C978.5,149.08703703703705,980.875,149.07268518518518,983.2499999999999,149.05833333333334C985.6249999999999,149.0439814814815,987.9999999999999,149.02962962962962,990.3749999999999,149.01527777777778C992.7499999999999,149.00092592592594,995.1249999999999,148.98657407407407,997.4999999999999,148.97222222222223C999.8749999999999,148.9578703703704,1002.2499999999999,148.94351851851852,1004.6249999999999,148.92916666666667C1006.9999999999999,148.91481481481483,1009.375,148.90046296296296,1011.75,148.88611111111112C1014.125,148.87175925925928,1016.5,148.85740740740744,1018.875,148.84305555555557C1021.25,148.8287037037037,1023.625,148.81435185185182,1026,148.79999999999998C1028.375,148.78564814814814,1030.75,148.7712962962963,1033.125,148.75694444444446C1035.5,148.74259259259262,1037.875,148.72824074074072,1040.25,148.71388888888887C1042.625,148.69953703703703,1045,148.6851851851852,1047.375,148.67083333333335C1049.75,148.6564814814815,1052.125,148.6421296296296,1054.5,148.62777777777777C1056.875,148.61342592592592,1059.25,148.59907407407405,1061.625,148.5847222222222C1064,148.57037037037037,1066.375,148.55601851851853,1068.75,148.54166666666669C1071.125,148.52731481481484,1073.5,148.51296296296294,1075.875,148.4986111111111C1078.25,148.48425925925926,1080.625,148.4699074074074,1083,148.45555555555555C1085.375,148.4412037037037,1087.75,148.42685185185184,1090.125,148.4125C1092.5,148.39814814814815,1094.875,148.38379629629628,1097.25,148.36944444444444C1099.625,148.3550925925926,1102,148.34074074074073,1104.375,148.32638888888889C1106.75,148.31203703703704,1109.125,148.29768518518517,1111.5,148.28333333333333C1113.875,148.2689814814815,1116.25,148.25462962962962,1118.625,148.24027777777778C1121,148.22592592592594,1123.375,148.21157407407406,1125.75,148.19722222222222C1128.125,148.18287037037038,1130.5,148.1685185185185,1132.875,148.15416666666667C1135.25,148.13981481481483,1137.625,148.13981481481483,1140,148.11111111111111C1142.375,148.0824074074074,1144.75,145.95833333333334,1147.125,144.88194444444446C1149.5,143.80555555555557,1151.875,142.72916666666666,1154.25,141.65277777777777C1156.625,140.57638888888889,1159,139.5,1161.375,138.42361111111111C1163.75,137.34722222222223,1166.125,136.27083333333334,1168.5,135.19444444444446C1170.875,134.11805555555557,1173.25,133.04166666666666,1175.625,131.96527777777777C1178,130.88888888888889,1180.375,129.8125,1182.75,128.73611111111111C1185.125,127.65972222222223,1187.5,126.58333333333333,1189.875,125.50694444444444C1192.25,124.43055555555556,1194.625,123.35416666666666,1197,122.27777777777777C1199.375,121.20138888888889,1201.75,120.12499999999999,1204.125,119.0486111111111C1206.5,117.97222222222221,1208.875,116.89583333333333,1211.25,115.81944444444444C1213.625,114.74305555555556,1216,113.66666666666666,1218.375,112.59027777777777C1220.75,111.51388888888889,1223.125,110.43749999999999,1225.5,109.3611111111111C1227.875,108.28472222222221,1230.25,107.20833333333333,1232.625,106.13194444444444C1235,105.05555555555556,1237.375,103.97916666666666,1239.75,102.90277777777777C1242.125,101.82638888888889,1244.5,100.74999999999999,1246.875,99.6736111111111C1249.25,98.59722222222221,1251.625,97.52083333333333,1254,96.44444444444444C1256.375,95.36805555555556,1258.75,94.29166666666666,1261.125,93.21527777777777C1263.5,92.13888888888889,1265.875,91.06249999999999,1268.25,89.9861111111111C1270.625,88.90972222222221,1273,87.83333333333333,1275.375,86.75694444444444C1277.75,85.68055555555556,1280.125,84.60416666666666,1282.5,83.52777777777777C1284.875,82.45138888888889,1287.25,81.37499999999999,1289.625,80.2986111111111C1292,79.22222222222221,1294.375,78.14583333333333,1296.75,77.06944444444444C1299.125,75.99305555555556,1301.5,74.91666666666666,1303.875,73.84027777777777C1306.25,72.76388888888889,1308.625,71.6875,1311,70.61111111111111C1313.375,69.53472222222223,1315.75,68.45833333333333,1318.125,67.38194444444444C1320.5,66.30555555555556,1322.875,65.22916666666666,1325.25,64.15277777777777C1327.625,63.076388888888886,1330,62.00000000000001,1332.375,60.92361111111112C1334.75,59.847222222222236,1337.125,58.77083333333336,1339.5,57.694444444444464C1341.875,56.61805555555557,1344.25,55.541666666666664,1346.625,54.46527777777777C1349,53.38888888888888,1351.375,52.31250000000001,1353.75,51.23611111111112C1356.125,50.159722222222236,1358.5,49.083333333333336,1360.875,48.00694444444444C1363.25,46.93055555555555,1365.625,45.85416666666666,1368,44.77777777777777C1370.375,43.701388888888886,1372.75,42.62500000000001,1375.125,41.54861111111112C1377.5,40.472222222222236,1379.875,39.395833333333336,1382.25,38.31944444444444C1384.625,37.24305555555555,1387,36.16666666666666,1389.375,35.09027777777777C1391.75,34.013888888888886,1394.125,32.93750000000001,1396.5,31.861111111111118C1398.875,30.78472222222223,1401.25,29.708333333333336,1403.625,28.631944444444446C1406,27.555555555555557,1408.375,26.479166666666664,1410.75,25.402777777777775C1413.125,24.326388888888886,1415.5,23.250000000000007,1417.875,22.173611111111118C1420.25,21.09722222222223,1422.625,20.02083333333334,1425,18.944444444444446" fill="transparent" stroke-linecap="round" stroke="#1AD4B3" stroke-width="2"></path><g class="visx-group visx-axis visx-axis-bottom" transform="translate(0, 155)"><g class="visx-group visx-axis-tick" transform="translate(0, 0)"><line class="visx-line" x1="0" y1="0" x2="0" y2="8" fill="transparent" shape-rendering="crispEdges" stroke="#F2F0F9" stroke-width="1" stroke-linecap="square"></line><svg x="0" y="0" font-size="11" style="overflow:visible"><text transform="" x="0" y="19" fill="#1B2030" font-size="11" text-anchor="middle"><tspan x="0" dy="0em">0%</tspan></text></svg></g><g class="visx-group visx-axis-tick" transform="translate(0, 0)"><line class="visx-line" x1="356.25" y1="0" x2="356.25" y2="8" fill="transparent" shape-rendering="crispEdges" stroke="#F2F0F9" stroke-width="1" stroke-linecap="square"></line><svg x="0" y="0" font-size="11" style="overflow:visible"><text transform="" x="356.25" y="19" fill="#1B2030" font-size="11" text-anchor="middle"><tspan x="356.25" dy="0em">25%</tspan></text></svg></g><g class="visx-group visx-axis-tick" transform="translate(0, 0)"><line class="visx-line" x1="712.5" y1="0" x2="712.5" y2="8" fill="transparent" shape-rendering="crispEdges" stroke="#F2F0F9" stroke-width="1" stroke-linecap="square"></line><svg x="0" y="0" font-size="11" style="overflow:visible"><text transform="" x="712.5" y="19" fill="#1B2030" font-size="11" text-anchor="middle"><tspan x="712.5" dy="0em">50%</tspan></text></svg></g><g class="visx-group visx-axis-tick" transform="translate(0, 0)"><line class="visx-line" x1="1068.75" y1="0" x2="1068.75" y2="8" fill="transparent" shape-rendering="crispEdges" stroke="#F2F0F9" stroke-width="1" stroke-linecap="square"></line><svg x="0" y="0" font-size="11" style="overflow:visible"><text transform="" x="1068.75" y="19" fill="#1B2030" font-size="11" text-anchor="middle"><tspan x="1068.75" dy="0em">75%</tspan></text></svg></g><g class="visx-group visx-axis-tick" transform="translate(0, 0)"><line class="visx-line" x1="1425" y1="0" x2="1425" y2="8" fill="transparent" shape-rendering="crispEdges" stroke="#F2F0F9" stroke-width="1" stroke-linecap="square"></line><svg x="0" y="0" font-size="11" style="overflow:visible"><text transform="" x="1425" y="19" fill="#1B2030" font-size="11" text-anchor="middle"><tspan x="1425" dy="0em">100%</tspan></text></svg></g></g><g class="visx-group visx-axis visx-axis-left" transform="translate(0, 0)"><g class="visx-group visx-axis-tick" transform="translate(0, 0)"><line class="visx-line" x1="0" y1="155" x2="-8" y2="155" fill="transparent" shape-rendering="crispEdges" stroke="#F2F0F9" stroke-width="1" stroke-linecap="square"></line><svg x="-30" y="0" font-size="11" style="overflow:visible"><text transform="" x="-8" y="155" fill="#1B2030" font-size="11" text-anchor="start"><tspan x="-8" dy="0em">0%</tspan></text></svg></g><g class="visx-group visx-axis-tick" transform="translate(0, 0)"><line class="visx-line" x1="0" y1="120.55555555555556" x2="-8" y2="120.55555555555556" fill="transparent" shape-rendering="crispEdges" stroke="#F2F0F9" stroke-width="1" stroke-linecap="square"></line><svg x="-30" y="0" font-size="11" style="overflow:visible"><text transform="" x="-8" y="120.55555555555556" fill="#1B2030" font-size="11" text-anchor="start"><tspan x="-8" dy="0em">20%</tspan></text></svg></g><g class="visx-group visx-axis-tick" transform="translate(0, 0)"><line class="visx-line" x1="0" y1="86.11111111111111" x2="-8" y2="86.11111111111111" fill="transparent" shape-rendering="crispEdges" stroke="#F2F0F9" stroke-width="1" stroke-linecap="square"></line><svg x="-30" y="0" font-size="11" style="overflow:visible"><text transform="" x="-8" y="86.11111111111111" fill="#1B2030" font-size="11" text-anchor="start"><tspan x="-8" dy="0em">40%</tspan></text></svg></g><g class="visx-group visx-axis-tick" transform="translate(0, 0)"><line class="visx-line" x1="0" y1="51.66666666666667" x2="-8" y2="51.66666666666667" fill="transparent" shape-rendering="crispEdges" stroke="#F2F0F9" stroke-width="1" stroke-linecap="square"></line><svg x="-30" y="0" font-size="11" style="overflow:visible"><text transform="" x="-8" y="51.66666666666667" fill="#1B2030" font-size="11" text-anchor="start"><tspan x="-8" dy="0em">60%</tspan></text></svg></g><g class="visx-group visx-axis-tick" transform="translate(0, 0)"><line class="visx-line" x1="0" y1="17.22222222222223" x2="-8" y2="17.22222222222223" fill="transparent" shape-rendering="crispEdges" stroke="#F2F0F9" stroke-width="1" stroke-linecap="square"></line><svg x="-30" y="0" font-size="11" style="overflow:visible"><text transform="" x="-8" y="17.22222222222223" fill="#1B2030" font-size="11" text-anchor="start"><tspan x="-8" dy="0em">80%</tspan></text></svg></g><line class="visx-line visx-axis-line" x1="0" y1="155.5" x2="0" y2="0.5" fill="transparent" shape-rendering="crispEdges" stroke="#F2F0F9" stroke-width="1"></line></g><rect class="visx-bar" width="1425" height="155" fill="transparent"></rect><line class="visx-line" x1="1140" y1="58" x2="1140" y2="155" fill="transparent" shape-rendering="crispEdges" stroke="#CDC8E1" stroke-width="1" pointer-events="none" stroke-dasharray="5"></line><svg x="0" y="0" font-size="11px" style="overflow:visible"><text transform="" x="1140" y="50" font-size="11px" fill="#555069" stroke="#FFFFFF" stroke-width="1px" text-anchor="middle"><tspan x="1140" dy="0.355em">Optimal utilization 80%</tspan></text></svg><svg x="0" y="0" font-size="11px" style="overflow:visible"><text transform="" x="1140" y="50" font-size="11px" fill="#CDC8E1" text-anchor="middle"><tspan x="1140" dy="0.355em">Optimal utilization 80%</tspan></text></svg></g></svg>