<?xml version="1.0"?><svg xmlns="http://www.w3.org/2000/svg" xmlns:xlink= "http://www.w3.org/1999/xlink" style="background: white;" width="1500" height="185"> <g style="color: black; font-size: 13px; font-family: sans-serif; transform: translate(18px, 25px);"><g><circle r="3" cx="-6" cy="-5" style="fill: #B6509E" /><text>Borrow APR, variable</text></g><g style="transform: translateX(150px);"><circle r="3" cx="-6" cy="-5" style="fill: rgb(231, 198, 223)" /><text>Borrow APR, stable</text></g><g style="transform: translateX(290px);"><circle r="3" cx="-6" cy="-5" style="fill: rgb(0, 98, 210)" /><text>Utilization Rate</text></g></g><g class="visx-group" transform="translate(40, 50)"><g class="visx-group visx-rows" transform="translate(0, 0)"><line class="visx-line" x1="0" y1="115" x2="1450" y2="115" fill="transparent" shape-rendering="crispEdges" stroke="#000" stroke-width="1" stroke-dasharray="3,3" pointer-events="none"></line><line class="visx-line" x1="0" y1="89.44444444444444" x2="1450" y2="89.44444444444444" fill="transparent" shape-rendering="crispEdges" stroke="#000" stroke-width="1" stroke-dasharray="3,3" pointer-events="none"></line><line class="visx-line" x1="0" y1="63.88888888888889" x2="1450" y2="63.88888888888889" fill="transparent" shape-rendering="crispEdges" stroke="#000" stroke-width="1" stroke-dasharray="3,3" pointer-events="none"></line><line class="visx-line" x1="0" y1="38.333333333333336" x2="1450" y2="38.333333333333336" fill="transparent" shape-rendering="crispEdges" stroke="#000" stroke-width="1" stroke-dasharray="3,3" pointer-events="none"></line><line class="visx-line" x1="0" y1="12.777777777777784" x2="1450" y2="12.777777777777784" fill="transparent" shape-rendering="crispEdges" stroke="#000" stroke-width="1" stroke-dasharray="3,3" pointer-events="none"></line></g><path class="visx-linepath" d="M0,114.99999999993611C2.4166666666666665,114.98935185181458,4.833333333333334,114.97870370369304,7.25,114.96805555555555C9.666666666666666,114.95740740741806,12.083333333333334,114.94675925925927,14.5,114.93611111111112C16.916666666666668,114.92546296296297,19.333333333333332,114.91481481481482,21.75,114.90416666666667C24.166666666666668,114.89351851851852,26.583333333333332,114.88287037037038,29,114.87222222222223C31.416666666666668,114.86157407407408,33.833333333333336,114.85092592592592,36.25,114.84027777777777C38.666666666666664,114.82962962962962,41.083333333333336,114.81898148148147,43.5,114.80833333333332C45.91666666666667,114.79768518518517,48.333333333333336,114.78703703703704,50.75000000000001,114.77638888888889C53.16666666666667,114.76574074074074,55.583333333333336,114.75509259259259,58,114.74444444444444C60.416666666666664,114.73379629629629,62.833333333333336,114.72314814814816,65.25,114.7125C67.66666666666667,114.70185185185186,70.08333333333333,114.6912037037037,72.5,114.68055555555556C74.91666666666667,114.66990740740741,77.33333333333333,114.65925925925926,79.75,114.64861111111111C82.16666666666667,114.63796296296296,84.58333333333333,114.62731481481482,87,114.61666666666667C89.41666666666667,114.60601851851852,91.83333333333333,114.59537037037038,94.25,114.58472222222223C96.66666666666667,114.57407407407408,99.08333333333334,114.56342592592593,101.50000000000001,114.55277777777778C103.91666666666667,114.54212962962963,106.33333333333334,114.53148148148148,108.75,114.52083333333333C111.16666666666667,114.51018518518518,113.58333333333333,114.49953703703703,116,114.48888888888888C118.41666666666667,114.47824074074073,120.83333333333334,114.4675925925926,123.25000000000001,114.45694444444445C125.66666666666667,114.4462962962963,128.08333333333334,114.43564814814815,130.5,114.425C132.91666666666666,114.41435185185185,135.33333333333334,114.4037037037037,137.75,114.39305555555555C140.16666666666666,114.3824074074074,142.58333333333334,114.37175925925926,145,114.36111111111111C147.41666666666666,114.35046296296296,149.83333333333334,114.33981481481482,152.25,114.32916666666667C154.66666666666666,114.31851851851852,157.08333333333334,114.30787037037038,159.5,114.29722222222223C161.91666666666666,114.28657407407408,164.33333333333334,114.27592592592593,166.75,114.26527777777778C169.16666666666666,114.25462962962963,171.58333333333334,114.24398148148148,174,114.23333333333333C176.41666666666666,114.22268518518518,178.83333333333334,114.21203703703704,181.25,114.20138888888889C183.66666666666666,114.19074074074074,186.08333333333334,114.18009259259259,188.5,114.16944444444444C190.91666666666666,114.15879629629629,193.33333333333334,114.14814814814815,195.75,114.1375C198.16666666666669,114.12685185185185,200.58333333333334,114.1162037037037,203.00000000000003,114.10555555555555C205.41666666666669,114.0949074074074,207.83333333333331,114.08425925925926,210.24999999999997,114.0736111111111C212.66666666666666,114.06296296296296,215.08333333333331,114.05231481481482,217.5,114.04166666666667C219.91666666666666,114.03101851851852,222.33333333333334,114.02037037037037,224.75,114.00972222222222C227.16666666666666,113.99907407407407,229.58333333333334,113.98842592592594,232,113.97777777777779C234.41666666666666,113.96712962962964,236.83333333333334,113.95648148148149,239.25,113.94583333333334C241.66666666666669,113.93518518518519,244.08333333333334,113.92453703703704,246.50000000000003,113.91388888888889C248.91666666666669,113.90324074074074,251.33333333333331,113.89259259259259,253.74999999999997,113.88194444444444C256.16666666666663,113.8712962962963,258.5833333333333,113.86064814814814,261,113.85C263.4166666666667,113.83935185185184,265.8333333333333,113.8287037037037,268.25,113.81805555555555C270.6666666666667,113.8074074074074,273.0833333333333,113.79675925925926,275.5,113.78611111111111C277.9166666666667,113.77546296296296,280.3333333333333,113.76481481481481,282.75,113.75416666666666C285.1666666666667,113.74351851851851,287.5833333333333,113.73287037037038,290,113.72222222222223C292.4166666666667,113.71157407407408,294.8333333333333,113.70092592592593,297.25,113.69027777777778C299.6666666666667,113.67962962962963,302.0833333333333,113.66898148148148,304.5,113.65833333333333C306.9166666666667,113.64768518518518,309.3333333333333,113.63703703703705,311.75,113.6263888888889C314.1666666666667,113.61574074074075,316.5833333333333,113.6050925925926,319,113.59444444444445C321.4166666666667,113.5837962962963,323.8333333333333,113.57314814814815,326.25,113.5625C328.6666666666667,113.55185185185185,331.0833333333333,113.5412037037037,333.5,113.53055555555555C335.9166666666667,113.5199074074074,338.3333333333333,113.50925925925925,340.75,113.4986111111111C343.1666666666667,113.48796296296295,345.5833333333333,113.47731481481482,348,113.46666666666667C350.4166666666667,113.45601851851852,352.8333333333333,113.44537037037037,355.25,113.43472222222222C357.6666666666667,113.42407407407407,360.0833333333333,113.41342592592594,362.5,113.40277777777779C364.9166666666667,113.39212962962964,367.3333333333333,113.38148148148149,369.75,113.37083333333334C372.1666666666667,113.36018518518519,374.5833333333333,113.34953703703704,377,113.33888888888889C379.4166666666667,113.32824074074074,381.8333333333333,113.3175925925926,384.25,113.30694444444445C386.6666666666667,113.2962962962963,389.0833333333333,113.28564814814814,391.5,113.27499999999999C393.9166666666667,113.26435185185184,396.33333333333337,113.2537037037037,398.75000000000006,113.24305555555556C401.16666666666674,113.23240740740741,403.58333333333337,113.22175925925926,406.00000000000006,113.21111111111111C408.4166666666667,113.20046296296296,410.8333333333333,113.18981481481481,413.24999999999994,113.17916666666666C415.66666666666663,113.16851851851851,418.08333333333326,113.15787037037038,420.49999999999994,113.14722222222223C422.91666666666663,113.13657407407408,425.3333333333333,113.12592592592593,427.75,113.11527777777778C430.1666666666667,113.10462962962963,432.5833333333333,113.09398148148148,435,113.08333333333333C437.4166666666667,113.07268518518518,439.8333333333333,113.06203703703704,442.25,113.0513888888889C444.6666666666667,113.04074074074074,447.0833333333333,113.0300925925926,449.5,113.01944444444445C451.9166666666667,113.0087962962963,454.3333333333333,112.99814814814816,456.75,112.98750000000001C459.1666666666667,112.97685185185186,461.5833333333333,112.9662037037037,464,112.95555555555555C466.4166666666667,112.9449074074074,468.8333333333333,112.93425925925925,471.25,112.9236111111111C473.6666666666667,112.91296296296295,476.0833333333333,112.90231481481482,478.5,112.89166666666667C480.9166666666667,112.88101851851852,483.33333333333337,112.87037037037037,485.75000000000006,112.85972222222222C488.16666666666674,112.84907407407407,490.58333333333337,112.83842592592593,493.00000000000006,112.82777777777778C495.4166666666667,112.81712962962963,497.8333333333333,112.80648148148148,500.24999999999994,112.79583333333333C502.66666666666663,112.78518518518518,505.08333333333326,112.77453703703704,507.49999999999994,112.76388888888889C509.91666666666663,112.75324074074074,512.3333333333333,112.7425925925926,514.75,112.73194444444445C517.1666666666666,112.7212962962963,519.5833333333334,112.71064814814815,522,112.7C524.4166666666666,112.68935185185185,526.8333333333334,112.6787037037037,529.25,112.66805555555555C531.6666666666666,112.6574074074074,534.0833333333334,112.64675925925926,536.5,112.6361111111111C538.9166666666666,112.62546296296296,541.3333333333334,112.6148148148148,543.75,112.60416666666666C546.1666666666666,112.59351851851851,548.5833333333334,112.58287037037037,551,112.57222222222222C553.4166666666666,112.56157407407407,555.8333333333334,112.55092592592592,558.25,112.54027777777777C560.6666666666666,112.52962962962962,563.0833333333334,112.51898148148148,565.5,112.50833333333333C567.9166666666666,112.49768518518518,570.3333333333334,112.48703703703704,572.75,112.47638888888889C575.1666666666666,112.46574074074074,577.5833333333334,112.45509259259259,580,112.44444444444444C582.4166666666666,112.4337962962963,584.8333333333334,112.42314814814816,587.25,112.41250000000001C589.6666666666666,112.40185185185186,592.0833333333334,112.39120370370371,594.5,112.38055555555556C596.9166666666666,112.36990740740741,599.3333333333334,112.35925925925926,601.75,112.34861111111111C604.1666666666666,112.33796296296296,606.5833333333334,112.32731481481481,609,112.31666666666666C611.4166666666666,112.30601851851851,613.8333333333334,112.29537037037036,616.25,112.28472222222221C618.6666666666666,112.27407407407406,621.0833333333334,112.26342592592593,623.5,112.25277777777778C625.9166666666666,112.24212962962963,628.3333333333334,112.23148148148148,630.75,112.22083333333333C633.1666666666666,112.21018518518518,635.5833333333334,112.19953703703703,638,112.18888888888888C640.4166666666666,112.17824074074073,642.8333333333334,112.1675925925926,645.25,112.15694444444445C647.6666666666666,112.1462962962963,650.0833333333334,112.13564814814815,652.5,112.125C654.9166666666666,112.11435185185185,657.3333333333334,112.10370370370372,659.75,112.09305555555557C662.1666666666666,112.08240740740742,664.5833333333334,112.07175925925927,667,112.06111111111112C669.4166666666666,112.05046296296297,671.8333333333334,112.03981481481482,674.25,112.02916666666667C676.6666666666666,112.01851851851852,679.0833333333334,112.00787037037037,681.5,111.99722222222222C683.9166666666666,111.98657407407407,686.3333333333334,111.97592592592592,688.75,111.96527777777777C691.1666666666666,111.95462962962962,693.5833333333334,111.94398148148149,696,111.93333333333334C698.4166666666666,111.92268518518519,700.8333333333334,111.91203703703704,703.25,111.90138888888889C705.6666666666666,111.89074074074074,708.0833333333334,111.88009259259259,710.5,111.86944444444444C712.9166666666666,111.85879629629629,715.3333333333334,111.84814814814816,717.75,111.8375C720.1666666666666,111.82685185185186,722.5833333333334,111.8162037037037,725,111.80555555555556C727.4166666666666,111.79490740740741,729.8333333333334,111.78425925925926,732.25,111.77361111111111C734.6666666666666,111.76296296296296,737.0833333333334,111.75231481481482,739.5,111.74166666666667C741.9166666666666,111.73101851851852,744.3333333333334,111.72037037037036,746.75,111.70972222222221C749.1666666666666,111.69907407407406,751.5833333333334,111.68842592592593,754,111.67777777777778C756.4166666666666,111.66712962962963,758.8333333333334,111.65648148148148,761.25,111.64583333333333C763.6666666666666,111.63518518518518,766.0833333333334,111.62453703703703,768.5,111.61388888888888C770.9166666666666,111.60324074074073,773.3333333333334,111.5925925925926,775.75,111.58194444444445C778.1666666666666,111.5712962962963,780.5833333333334,111.56064814814815,783,111.55C785.4166666666667,111.53935185185185,787.8333333333334,111.52870370370371,790.2500000000001,111.51805555555556C792.6666666666667,111.50740740740741,795.0833333333335,111.49675925925926,797.5000000000001,111.48611111111111C799.9166666666667,111.47546296296296,802.3333333333335,111.46481481481482,804.7500000000001,111.45416666666667C807.1666666666667,111.44351851851852,809.5833333333335,111.43287037037038,812.0000000000001,111.42222222222223C814.4166666666667,111.41157407407408,816.8333333333333,111.40092592592592,819.2499999999999,111.39027777777777C821.6666666666665,111.37962962962962,824.0833333333333,111.36898148148148,826.4999999999999,111.35833333333333C828.9166666666665,111.34768518518518,831.3333333333333,111.33703703703704,833.7499999999999,111.32638888888889C836.1666666666665,111.31574074074074,838.5833333333333,111.30509259259259,840.9999999999999,111.29444444444444C843.4166666666666,111.28379629629629,845.8333333333333,111.27314814814815,848.25,111.2625C850.6666666666666,111.25185185185185,853.0833333333334,111.2412037037037,855.5,111.23055555555555C857.9166666666666,111.2199074074074,860.3333333333334,111.20925925925927,862.75,111.19861111111112C865.1666666666666,111.18796296296297,867.5833333333334,111.17731481481482,870,111.16666666666667C872.4166666666666,111.15601851851852,874.8333333333334,111.14537037037037,877.25,111.13472222222222C879.6666666666666,111.12407407407407,882.0833333333334,111.11342592592594,884.5,111.10277777777779C886.9166666666666,111.09212962962964,889.3333333333334,111.08148148148148,891.75,111.07083333333333C894.1666666666666,111.06018518518518,896.5833333333334,111.04953703703703,899,111.03888888888888C901.4166666666666,111.02824074074073,903.8333333333334,111.01759259259259,906.25,111.00694444444444C908.6666666666666,110.9962962962963,911.0833333333334,110.98564814814814,913.5,110.975C915.9166666666666,110.96435185185184,918.3333333333334,110.95370370370371,920.75,110.94305555555556C923.1666666666666,110.93240740740741,925.5833333333334,110.92175925925926,928,110.91111111111111C930.4166666666666,110.90046296296296,932.8333333333334,110.88981481481481,935.25,110.87916666666666C937.6666666666666,110.86851851851851,940.0833333333334,110.85787037037038,942.5,110.84722222222223C944.9166666666666,110.83657407407408,947.3333333333334,110.82592592592593,949.75,110.81527777777778C952.1666666666666,110.80462962962963,954.5833333333334,110.79398148148148,957,110.78333333333333C959.4166666666666,110.77268518518518,961.8333333333334,110.76203703703703,964.25,110.75138888888888C966.6666666666667,110.74074074074073,969.0833333333334,110.73009259259258,971.5000000000001,110.71944444444443C973.9166666666667,110.70879629629628,976.3333333333335,110.69814814814815,978.7500000000001,110.6875C981.1666666666667,110.67685185185185,983.5833333333335,110.6662037037037,986.0000000000001,110.65555555555555C988.4166666666667,110.6449074074074,990.8333333333335,110.63425925925927,993.2500000000001,110.62361111111112C995.6666666666667,110.61296296296297,998.0833333333333,110.60231481481482,1000.4999999999999,110.59166666666667C1002.9166666666665,110.58101851851852,1005.3333333333333,110.57037037037037,1007.7499999999999,110.55972222222222C1010.1666666666665,110.54907407407407,1012.5833333333333,110.53842592592594,1014.9999999999999,110.52777777777779C1017.4166666666665,110.51712962962964,1019.8333333333333,110.50648148148149,1022.2499999999999,110.49583333333334C1024.6666666666665,110.48518518518519,1027.0833333333333,110.47453703703704,1029.5,110.46388888888889C1031.9166666666667,110.45324074074074,1034.3333333333333,110.44259259259259,1036.75,110.43194444444444C1039.1666666666667,110.42129629629629,1041.5833333333333,110.41064814814814,1044,110.39999999999999C1046.4166666666667,110.38935185185184,1048.8333333333333,110.3787037037037,1051.25,110.36805555555556C1053.6666666666667,110.35740740740741,1056.0833333333333,110.34675925925926,1058.5,110.33611111111111C1060.9166666666667,110.32546296296296,1063.3333333333333,110.31481481481482,1065.75,110.30416666666667C1068.1666666666667,110.29351851851852,1070.5833333333333,110.28287037037038,1073,110.27222222222223C1075.4166666666667,110.26157407407408,1077.8333333333333,110.25092592592593,1080.25,110.24027777777778C1082.6666666666667,110.22962962962963,1085.0833333333333,110.21898148148149,1087.5,110.20833333333334C1089.9166666666667,110.1976851851852,1092.3333333333333,110.18703703703704,1094.75,110.1763888888889C1097.1666666666667,110.16574074074074,1099.5833333333333,110.1550925925926,1102,110.14444444444445C1104.4166666666667,110.1337962962963,1106.8333333333333,110.12314814814815,1109.25,110.1125C1111.6666666666667,110.10185185185185,1114.0833333333333,110.0912037037037,1116.5,110.08055555555555C1118.9166666666667,110.0699074074074,1121.3333333333333,110.05925925925926,1123.75,110.04861111111111C1126.1666666666667,110.03796296296296,1128.5833333333333,110.02731481481482,1131,110.01666666666667C1133.4166666666667,110.00601851851852,1135.8333333333333,109.99537037037037,1138.25,109.98472222222222C1140.6666666666667,109.97407407407407,1143.0833333333333,109.96342592592593,1145.5,109.95277777777778C1147.9166666666667,109.94212962962963,1150.3333333333333,109.93148148148148,1152.75,109.92083333333333C1155.1666666666667,109.91018518518518,1157.5833333333333,109.91018518518518,1160,109.8888888888889C1162.4166666666667,109.86759259259262,1164.8333333333333,108.29166666666667,1167.25,107.49305555555556C1169.6666666666667,106.69444444444444,1172.0833333333333,105.89583333333333,1174.5,105.09722222222221C1176.9166666666667,104.2986111111111,1179.3333333333333,103.50000000000001,1181.75,102.7013888888889C1184.1666666666667,101.90277777777779,1186.5833333333333,101.10416666666667,1189,100.30555555555556C1191.4166666666667,99.50694444444444,1193.8333333333333,98.70833333333333,1196.25,97.90972222222221C1198.6666666666667,97.1111111111111,1201.0833333333333,96.3125,1203.5,95.51388888888889C1205.9166666666667,94.71527777777777,1208.3333333333333,93.91666666666667,1210.75,93.11805555555556C1213.1666666666667,92.31944444444444,1215.5833333333333,91.52083333333333,1218,90.72222222222221C1220.4166666666667,89.9236111111111,1222.8333333333333,89.125,1225.25,88.32638888888889C1227.6666666666667,87.52777777777777,1230.0833333333333,86.72916666666667,1232.5,85.93055555555556C1234.9166666666667,85.13194444444444,1237.3333333333333,84.33333333333333,1239.75,83.53472222222221C1242.1666666666667,82.7361111111111,1244.5833333333333,81.9375,1247,81.13888888888889C1249.4166666666667,80.34027777777777,1251.8333333333333,79.54166666666667,1254.25,78.74305555555556C1256.6666666666667,77.94444444444444,1259.0833333333333,77.14583333333333,1261.5,76.34722222222221C1263.9166666666667,75.5486111111111,1266.3333333333333,74.75,1268.75,73.95138888888889C1271.1666666666667,73.15277777777777,1273.5833333333333,72.35416666666667,1276,71.55555555555556C1278.4166666666667,70.75694444444444,1280.8333333333333,69.95833333333333,1283.25,69.15972222222221C1285.6666666666667,68.3611111111111,1288.0833333333333,67.5625,1290.5,66.76388888888889C1292.9166666666667,65.96527777777777,1295.3333333333333,65.16666666666667,1297.75,64.36805555555556C1300.1666666666667,63.56944444444444,1302.5833333333333,62.770833333333336,1305,61.97222222222222C1307.4166666666667,61.17361111111111,1309.8333333333333,60.374999999999986,1312.25,59.57638888888888C1314.6666666666667,58.77777777777777,1317.0833333333333,57.979166666666664,1319.5,57.18055555555556C1321.9166666666667,56.38194444444445,1324.3333333333333,55.58333333333333,1326.75,54.78472222222222C1329.1666666666667,53.986111111111114,1331.5833333333333,53.1875,1334,52.38888888888889C1336.4166666666667,51.590277777777786,1338.8333333333333,50.79166666666667,1341.25,49.99305555555556C1343.6666666666667,49.19444444444444,1346.0833333333333,48.39583333333333,1348.5,47.59722222222222C1350.9166666666667,46.798611111111114,1353.3333333333333,46,1355.75,45.20138888888889C1358.1666666666667,44.402777777777786,1360.5833333333333,43.604166666666686,1363,42.80555555555557C1365.4166666666667,42.00694444444446,1367.8333333333333,41.208333333333336,1370.25,40.40972222222222C1372.6666666666667,39.61111111111111,1375.0833333333333,38.8125,1377.5,38.01388888888889C1379.9166666666667,37.215277777777786,1382.3333333333333,36.41666666666667,1384.75,35.61805555555556C1387.1666666666667,34.81944444444444,1389.5833333333333,34.02083333333333,1392,33.22222222222222C1394.4166666666667,32.423611111111114,1396.8333333333333,31.625000000000004,1399.25,30.826388888888893C1401.6666666666667,30.027777777777782,1404.0833333333333,29.229166666666668,1406.5,28.430555555555557C1408.9166666666667,27.631944444444446,1411.3333333333333,26.83333333333333,1413.75,26.034722222222218C1416.1666666666667,25.236111111111107,1418.5833333333333,24.437500000000004,1421,23.638888888888893C1423.4166666666667,22.840277777777782,1425.8333333333333,22.041666666666668,1428.25,21.243055555555557C1430.6666666666667,20.444444444444446,1433.0833333333333,19.64583333333333,1435.5,18.847222222222218C1437.9166666666667,18.048611111111107,1440.3333333333333,17.250000000000004,1442.75,16.451388888888893C1445.1666666666667,15.652777777777782,1447.5833333333333,14.85416666666667,1450,14.055555555555557" fill="transparent" stroke-linecap="round" stroke="#B6509E" stroke-width="2"></path><path class="visx-linepath" d="M0,108.61111111110313C2.4166666666666665,108.60978009258793,4.833333333333334,108.60844907407274,7.25,108.60711805555555C9.666666666666666,108.60578703703835,12.083333333333334,108.6044560185185,14.5,108.60312499999999C16.916666666666668,108.60179398148148,19.333333333333332,108.60046296296295,21.75,108.59913194444444C24.166666666666668,108.59780092592592,26.583333333333332,108.5964699074074,29,108.59513888888888C31.416666666666668,108.59380787037037,33.833333333333336,108.59247685185184,36.25,108.59114583333333C38.666666666666664,108.58981481481482,41.083333333333336,108.58848379629629,43.5,108.58715277777777C45.91666666666667,108.58582175925926,48.333333333333336,108.58449074074075,50.75000000000001,108.58315972222223C53.16666666666667,108.58182870370372,55.583333333333336,108.58049768518518,58,108.57916666666667C60.416666666666664,108.57783564814814,62.833333333333336,108.57650462962962,65.25,108.57517361111111C67.66666666666667,108.5738425925926,70.08333333333333,108.57251157407407,72.5,108.57118055555556C74.91666666666667,108.56984953703704,77.33333333333333,108.56851851851852,79.75,108.5671875C82.16666666666667,108.56585648148149,84.58333333333333,108.56452546296296,87,108.56319444444445C89.41666666666667,108.56186342592594,91.83333333333333,108.56053240740741,94.25,108.5592013888889C96.66666666666667,108.55787037037038,99.08333333333334,108.55653935185187,101.50000000000001,108.55520833333334C103.91666666666667,108.55387731481483,106.33333333333334,108.55254629629628,108.75,108.55121527777777C111.16666666666667,108.54988425925924,113.58333333333333,108.54855324074073,116,108.54722222222222C118.41666666666667,108.5458912037037,120.83333333333334,108.54456018518518,123.25000000000001,108.54322916666666C125.66666666666667,108.54189814814815,128.08333333333334,108.54056712962962,130.5,108.53923611111111C132.91666666666666,108.5379050925926,135.33333333333334,108.53657407407407,137.75,108.53524305555555C140.16666666666666,108.53391203703704,142.58333333333334,108.53258101851851,145,108.53125C147.41666666666666,108.52991898148149,149.83333333333334,108.52858796296296,152.25,108.52725694444445C154.66666666666666,108.52592592592593,157.08333333333334,108.5245949074074,159.5,108.52326388888889C161.91666666666666,108.52193287037038,164.33333333333334,108.52060185185184,166.75,108.51927083333332C169.16666666666666,108.51793981481481,171.58333333333334,108.51660879629628,174,108.51527777777777C176.41666666666666,108.51394675925926,178.83333333333334,108.51261574074073,181.25,108.51128472222221C183.66666666666666,108.5099537037037,186.08333333333334,108.50862268518519,188.5,108.50729166666667C190.91666666666666,108.50596064814816,193.33333333333334,108.50462962962963,195.75,108.50329861111112C198.16666666666669,108.5019675925926,200.58333333333334,108.50063657407408,203.00000000000003,108.49930555555557C205.41666666666669,108.49797453703705,207.83333333333331,108.49664351851852,210.24999999999997,108.49531250000001C212.66666666666666,108.49398148148148,215.08333333333331,108.49265046296297,217.5,108.49131944444444C219.91666666666666,108.48998842592593,222.33333333333334,108.4886574074074,224.75,108.48732638888889C227.16666666666666,108.48599537037038,229.58333333333334,108.48466435185185,232,108.48333333333333C234.41666666666666,108.48200231481482,236.83333333333334,108.4806712962963,239.25,108.47934027777778C241.66666666666669,108.47800925925927,244.08333333333334,108.47667824074074,246.50000000000003,108.47534722222223C248.91666666666669,108.47401620370371,251.33333333333331,108.47268518518518,253.74999999999997,108.47135416666667C256.16666666666663,108.47002314814816,258.5833333333333,108.46869212962964,261,108.46736111111112C263.4166666666667,108.4660300925926,265.8333333333333,108.46469907407406,268.25,108.46336805555555C270.6666666666667,108.46203703703704,273.0833333333333,108.46070601851851,275.5,108.459375C277.9166666666667,108.45804398148148,280.3333333333333,108.45671296296295,282.75,108.45538194444444C285.1666666666667,108.45405092592593,287.5833333333333,108.4527199074074,290,108.45138888888889C292.4166666666667,108.45005787037037,294.8333333333333,108.44872685185184,297.25,108.44739583333333C299.6666666666667,108.44606481481482,302.0833333333333,108.44473379629629,304.5,108.44340277777778C306.9166666666667,108.44207175925926,309.3333333333333,108.44074074074074,311.75,108.43940972222222C314.1666666666667,108.43807870370371,316.5833333333333,108.43674768518518,319,108.43541666666667C321.4166666666667,108.43408564814816,323.8333333333333,108.43275462962961,326.25,108.4314236111111C328.6666666666667,108.43009259259259,331.0833333333333,108.42876157407406,333.5,108.42743055555555C335.9166666666667,108.42609953703703,338.3333333333333,108.42476851851852,340.75,108.4234375C343.1666666666667,108.42210648148149,345.5833333333333,108.42077546296296,348,108.41944444444445C350.4166666666667,108.41811342592594,352.8333333333333,108.41678240740741,355.25,108.4154513888889C357.6666666666667,108.41412037037038,360.0833333333333,108.41278935185186,362.5,108.41145833333334C364.9166666666667,108.41012731481483,367.3333333333333,108.4087962962963,369.75,108.40746527777779C372.1666666666667,108.40613425925928,374.5833333333333,108.40480324074073,377,108.40347222222222C379.4166666666667,108.4021412037037,381.8333333333333,108.40081018518518,384.25,108.39947916666667C386.6666666666667,108.39814814814815,389.0833333333333,108.39681712962962,391.5,108.39548611111111C393.9166666666667,108.3941550925926,396.33333333333337,108.39282407407407,398.75000000000006,108.39149305555556C401.16666666666674,108.39016203703704,403.58333333333337,108.38883101851852,406.00000000000006,108.3875C408.4166666666667,108.38616898148149,410.8333333333333,108.38483796296296,413.24999999999994,108.38350694444445C415.66666666666663,108.38217592592594,418.08333333333326,108.38084490740741,420.49999999999994,108.3795138888889C422.91666666666663,108.37818287037037,425.3333333333333,108.37685185185185,427.75,108.37552083333333C430.1666666666667,108.37418981481481,432.5833333333333,108.37285879629628,435,108.37152777777777C437.4166666666667,108.37019675925926,439.8333333333333,108.36886574074073,442.25,108.36753472222222C444.6666666666667,108.3662037037037,447.0833333333333,108.36487268518518,449.5,108.36354166666666C451.9166666666667,108.36221064814815,454.3333333333333,108.36087962962962,456.75,108.35954861111111C459.1666666666667,108.3582175925926,461.5833333333333,108.35688657407407,464,108.35555555555555C466.4166666666667,108.35422453703704,468.8333333333333,108.35289351851851,471.25,108.3515625C473.6666666666667,108.35023148148149,476.0833333333333,108.34890046296296,478.5,108.34756944444445C480.9166666666667,108.34623842592592,483.33333333333337,108.34490740740739,485.75000000000006,108.34357638888888C488.16666666666674,108.34224537037036,490.58333333333337,108.34091435185185,493.00000000000006,108.33958333333334C495.4166666666667,108.33825231481482,497.8333333333333,108.3369212962963,500.24999999999994,108.33559027777778C502.66666666666663,108.33425925925927,505.08333333333326,108.33292824074074,507.49999999999994,108.33159722222223C509.91666666666663,108.33026620370372,512.3333333333333,108.32893518518519,514.75,108.32760416666667C517.1666666666666,108.32627314814816,519.5833333333334,108.32494212962963,522,108.32361111111112C524.4166666666666,108.3222800925926,526.8333333333334,108.32094907407406,529.25,108.31961805555555C531.6666666666666,108.31828703703704,534.0833333333334,108.31695601851851,536.5,108.315625C538.9166666666666,108.31429398148148,541.3333333333334,108.31296296296296,543.75,108.31163194444444C546.1666666666666,108.31030092592593,548.5833333333334,108.3089699074074,551,108.30763888888889C553.4166666666666,108.30630787037038,555.8333333333334,108.30497685185185,558.25,108.30364583333333C560.6666666666666,108.30231481481482,563.0833333333334,108.3009837962963,565.5,108.29965277777778C567.9166666666666,108.29832175925927,570.3333333333334,108.29699074074074,572.75,108.29565972222223C575.1666666666666,108.29432870370371,577.5833333333334,108.29299768518518,580,108.29166666666667C582.4166666666666,108.29033564814816,584.8333333333334,108.28900462962962,587.25,108.2876736111111C589.6666666666666,108.28634259259259,592.0833333333334,108.28501157407406,594.5,108.28368055555555C596.9166666666666,108.28234953703704,599.3333333333334,108.28101851851851,601.75,108.2796875C604.1666666666666,108.27835648148148,606.5833333333334,108.27702546296295,609,108.27569444444444C611.4166666666666,108.27436342592593,613.8333333333334,108.2730324074074,616.25,108.27170138888889C618.6666666666666,108.27037037037037,621.0833333333334,108.26903935185184,623.5,108.26770833333333C625.9166666666666,108.26637731481482,628.3333333333334,108.26504629629629,630.75,108.26371527777778C633.1666666666666,108.26238425925926,635.5833333333334,108.26105324074074,638,108.25972222222222C640.4166666666666,108.25839120370371,642.8333333333334,108.25706018518518,645.25,108.25572916666667C647.6666666666666,108.25439814814816,650.0833333333334,108.25306712962963,652.5,108.25173611111111C654.9166666666666,108.2504050925926,657.3333333333334,108.24907407407407,659.75,108.24774305555556C662.1666666666666,108.24641203703705,664.5833333333334,108.24508101851852,667,108.24375C669.4166666666666,108.24241898148149,671.8333333333334,108.24108796296296,674.25,108.23975694444445C676.6666666666666,108.23842592592594,679.0833333333334,108.23709490740741,681.5,108.2357638888889C683.9166666666666,108.23443287037038,686.3333333333334,108.23310185185184,688.75,108.23177083333333C691.1666666666666,108.23043981481482,693.5833333333334,108.22910879629629,696,108.22777777777777C698.4166666666666,108.22644675925926,700.8333333333334,108.22511574074073,703.25,108.22378472222222C705.6666666666666,108.2224537037037,708.0833333333334,108.22112268518518,710.5,108.21979166666667C712.9166666666666,108.21846064814815,715.3333333333334,108.21712962962962,717.75,108.21579861111111C720.1666666666666,108.2144675925926,722.5833333333334,108.21313657407407,725,108.21180555555556C727.4166666666666,108.21047453703704,729.8333333333334,108.20914351851852,732.25,108.2078125C734.6666666666666,108.20648148148149,737.0833333333334,108.20515046296296,739.5,108.20381944444445C741.9166666666666,108.20248842592594,744.3333333333334,108.2011574074074,746.75,108.19982638888888C749.1666666666666,108.19849537037037,751.5833333333334,108.19716435185184,754,108.19583333333333C756.4166666666666,108.19450231481481,758.8333333333334,108.19317129629628,761.25,108.19184027777777C763.6666666666666,108.19050925925926,766.0833333333334,108.18917824074073,768.5,108.18784722222222C770.9166666666666,108.1865162037037,773.3333333333334,108.18518518518518,775.75,108.18385416666666C778.1666666666666,108.18252314814815,780.5833333333334,108.18119212962964,783,108.17986111111112C785.4166666666667,108.17853009259261,787.8333333333334,108.17719907407408,790.2500000000001,108.17586805555555C792.6666666666667,108.17453703703704,795.0833333333335,108.17320601851851,797.5000000000001,108.171875C799.9166666666667,108.17054398148149,802.3333333333335,108.16921296296296,804.7500000000001,108.16788194444445C807.1666666666667,108.16655092592593,809.5833333333335,108.1652199074074,812.0000000000001,108.16388888888889C814.4166666666667,108.16255787037038,816.8333333333333,108.16122685185185,819.2499999999999,108.15989583333334C821.6666666666665,108.15856481481482,824.0833333333333,108.1572337962963,826.4999999999999,108.15590277777778C828.9166666666665,108.15457175925927,831.3333333333333,108.15324074074074,833.7499999999999,108.15190972222223C836.1666666666665,108.15057870370372,838.5833333333333,108.14924768518519,840.9999999999999,108.14791666666667C843.4166666666666,108.14658564814815,845.8333333333333,108.14525462962963,848.25,108.1439236111111C850.6666666666666,108.14259259259259,853.0833333333334,108.14126157407406,855.5,108.13993055555555C857.9166666666666,108.13859953703704,860.3333333333334,108.13726851851851,862.75,108.1359375C865.1666666666666,108.13460648148148,867.5833333333334,108.13327546296296,870,108.13194444444444C872.4166666666666,108.13061342592593,874.8333333333334,108.1292824074074,877.25,108.12795138888889C879.6666666666666,108.12662037037038,882.0833333333334,108.12528935185185,884.5,108.12395833333333C886.9166666666666,108.12262731481482,889.3333333333334,108.1212962962963,891.75,108.11996527777778C894.1666666666666,108.11863425925927,896.5833333333334,108.11730324074072,899,108.11597222222221C901.4166666666666,108.1146412037037,903.8333333333334,108.11331018518517,906.25,108.11197916666666C908.6666666666666,108.11064814814814,911.0833333333334,108.10931712962962,913.5,108.1079861111111C915.9166666666666,108.10665509259259,918.3333333333334,108.10532407407406,920.75,108.10399305555555C923.1666666666666,108.10266203703704,925.5833333333334,108.10133101851851,928,108.1C930.4166666666666,108.09866898148148,932.8333333333334,108.09733796296297,935.25,108.09600694444445C937.6666666666666,108.09467592592594,940.0833333333334,108.09334490740741,942.5,108.0920138888889C944.9166666666666,108.09068287037039,947.3333333333334,108.08935185185184,949.75,108.08802083333333C952.1666666666666,108.08668981481482,954.5833333333334,108.08535879629629,957,108.08402777777778C959.4166666666666,108.08269675925926,961.8333333333334,108.08136574074074,964.25,108.08003472222222C966.6666666666667,108.07870370370371,969.0833333333334,108.07737268518518,971.5000000000001,108.07604166666667C973.9166666666667,108.07471064814816,976.3333333333335,108.07337962962963,978.7500000000001,108.07204861111111C981.1666666666667,108.0707175925926,983.5833333333335,108.06938657407407,986.0000000000001,108.06805555555556C988.4166666666667,108.06672453703705,990.8333333333335,108.06539351851852,993.2500000000001,108.0640625C995.6666666666667,108.06273148148149,998.0833333333333,108.06140046296296,1000.4999999999999,108.06006944444445C1002.9166666666665,108.05873842592592,1005.3333333333333,108.0574074074074,1007.7499999999999,108.05607638888888C1010.1666666666665,108.05474537037037,1012.5833333333333,108.05341435185184,1014.9999999999999,108.05208333333333C1017.4166666666665,108.05075231481482,1019.8333333333333,108.04942129629629,1022.2499999999999,108.04809027777777C1024.6666666666665,108.04675925925926,1027.0833333333333,108.04542824074073,1029.5,108.04409722222222C1031.9166666666667,108.0427662037037,1034.3333333333333,108.04143518518518,1036.75,108.04010416666667C1039.1666666666667,108.03877314814815,1041.5833333333333,108.03744212962962,1044,108.03611111111111C1046.4166666666667,108.0347800925926,1048.8333333333333,108.03344907407407,1051.25,108.03211805555556C1053.6666666666667,108.03078703703704,1056.0833333333333,108.0294560185185,1058.5,108.02812499999999C1060.9166666666667,108.02679398148148,1063.3333333333333,108.02546296296295,1065.75,108.02413194444443C1068.1666666666667,108.02280092592592,1070.5833333333333,108.0214699074074,1073,108.02013888888888C1075.4166666666667,108.01880787037037,1077.8333333333333,108.01747685185184,1080.25,108.01614583333333C1082.6666666666667,108.01481481481481,1085.0833333333333,108.0134837962963,1087.5,108.01215277777779C1089.9166666666667,108.01082175925927,1092.3333333333333,108.00949074074074,1094.75,108.00815972222223C1097.1666666666667,108.00682870370372,1099.5833333333333,108.00549768518519,1102,108.00416666666668C1104.4166666666667,108.00283564814816,1106.8333333333333,108.00150462962962,1109.25,108.00017361111111C1111.6666666666667,107.9988425925926,1114.0833333333333,107.99751157407407,1116.5,107.99618055555555C1118.9166666666667,107.99484953703704,1121.3333333333333,107.99351851851851,1123.75,107.9921875C1126.1666666666667,107.99085648148149,1128.5833333333333,107.98952546296296,1131,107.98819444444445C1133.4166666666667,107.98686342592593,1135.8333333333333,107.9855324074074,1138.25,107.98420138888889C1140.6666666666667,107.98287037037038,1143.0833333333333,107.98153935185185,1145.5,107.98020833333334C1147.9166666666667,107.97887731481482,1150.3333333333333,107.9775462962963,1152.75,107.97621527777778C1155.1666666666667,107.97488425925927,1157.5833333333333,107.97488425925927,1160,107.97222222222223C1162.4166666666667,107.96956018518519,1164.8333333333333,106.375,1167.25,105.57638888888889C1169.6666666666667,104.77777777777777,1172.0833333333333,103.97916666666667,1174.5,103.18055555555556C1176.9166666666667,102.38194444444444,1179.3333333333333,101.58333333333334,1181.75,100.78472222222223C1184.1666666666667,99.98611111111111,1186.5833333333333,99.18750000000001,1189,98.3888888888889C1191.4166666666667,97.59027777777779,1193.8333333333333,96.79166666666667,1196.25,95.99305555555556C1198.6666666666667,95.19444444444444,1201.0833333333333,94.39583333333334,1203.5,93.59722222222223C1205.9166666666667,92.79861111111111,1208.3333333333333,92.00000000000001,1210.75,91.2013888888889C1213.1666666666667,90.40277777777779,1215.5833333333333,89.60416666666667,1218,88.80555555555556C1220.4166666666667,88.00694444444444,1222.8333333333333,87.20833333333334,1225.25,86.40972222222223C1227.6666666666667,85.61111111111111,1230.0833333333333,84.81250000000001,1232.5,84.0138888888889C1234.9166666666667,83.21527777777779,1237.3333333333333,82.41666666666666,1239.75,81.61805555555554C1242.1666666666667,80.81944444444443,1244.5833333333333,80.02083333333333,1247,79.22222222222223C1249.4166666666667,78.42361111111113,1251.8333333333333,77.62500000000001,1254.25,76.8263888888889C1256.6666666666667,76.02777777777779,1259.0833333333333,75.22916666666666,1261.5,74.43055555555554C1263.9166666666667,73.63194444444443,1266.3333333333333,72.83333333333333,1268.75,72.03472222222223C1271.1666666666667,71.23611111111113,1273.5833333333333,70.43750000000001,1276,69.6388888888889C1278.4166666666667,68.84027777777779,1280.8333333333333,68.04166666666666,1283.25,67.24305555555554C1285.6666666666667,66.44444444444443,1288.0833333333333,65.64583333333333,1290.5,64.84722222222223C1292.9166666666667,64.04861111111113,1295.3333333333333,63.250000000000014,1297.75,62.4513888888889C1300.1666666666667,61.652777777777786,1302.5833333333333,60.85416666666666,1305,60.05555555555554C1307.4166666666667,59.25694444444443,1309.8333333333333,58.45833333333333,1312.25,57.65972222222222C1314.6666666666667,56.861111111111114,1317.0833333333333,56.0625,1319.5,55.263888888888886C1321.9166666666667,54.46527777777777,1324.3333333333333,53.66666666666667,1326.75,52.86805555555556C1329.1666666666667,52.06944444444444,1331.5833333333333,51.270833333333336,1334,50.47222222222222C1336.4166666666667,49.67361111111111,1338.8333333333333,48.875,1341.25,48.076388888888886C1343.6666666666667,47.27777777777777,1346.0833333333333,46.47916666666667,1348.5,45.68055555555556C1350.9166666666667,44.88194444444444,1353.3333333333333,44.08333333333333,1355.75,43.28472222222222C1358.1666666666667,42.486111111111114,1360.5833333333333,41.687500000000014,1363,40.8888888888889C1365.4166666666667,40.090277777777786,1367.8333333333333,39.29166666666667,1370.25,38.49305555555556C1372.6666666666667,37.69444444444444,1375.0833333333333,36.89583333333332,1377.5,36.09722222222221C1379.9166666666667,35.29861111111109,1382.3333333333333,34.49999999999999,1384.75,33.701388888888886C1387.1666666666667,32.90277777777778,1389.5833333333333,32.10416666666667,1392,31.30555555555556C1394.4166666666667,30.50694444444445,1396.8333333333333,29.708333333333332,1399.25,28.90972222222222C1401.6666666666667,28.11111111111111,1404.0833333333333,27.312499999999996,1406.5,26.513888888888886C1408.9166666666667,25.715277777777775,1411.3333333333333,24.91666666666667,1413.75,24.11805555555556C1416.1666666666667,23.31944444444445,1418.5833333333333,22.520833333333332,1421,21.72222222222222C1423.4166666666667,20.92361111111111,1425.8333333333333,20.124999999999996,1428.25,19.326388888888886C1430.6666666666667,18.527777777777775,1433.0833333333333,17.72916666666667,1435.5,16.93055555555556C1437.9166666666667,16.13194444444445,1440.3333333333333,15.333333333333334,1442.75,14.534722222222221C1445.1666666666667,13.736111111111109,1447.5833333333333,12.937499999999996,1450,12.138888888888884" fill="transparent" stroke-linecap="round" stroke="#E7C6DF" stroke-width="2"></path><g class="visx-group visx-axis visx-axis-bottom" transform="translate(0, 115)"><g class="visx-group visx-axis-tick" transform="translate(0, 0)"><line class="visx-line" x1="0" y1="0" x2="0" y2="8" fill="transparent" shape-rendering="crispEdges" stroke="#000" stroke-width="0" stroke-linecap="square"></line><svg x="0" y="0" font-size="10" style="overflow:visible"><text transform="" x="0" y="18" fill="#000" font-size="10" text-anchor="middle"><tspan x="0" dy="0em">0%</tspan></text></svg></g><g class="visx-group visx-axis-tick" transform="translate(0, 0)"><line class="visx-line" x1="362.5" y1="0" x2="362.5" y2="8" fill="transparent" shape-rendering="crispEdges" stroke="#000" stroke-width="0" stroke-linecap="square"></line><svg x="0" y="0" font-size="10" style="overflow:visible"><text transform="" x="362.5" y="18" fill="#000" font-size="10" text-anchor="middle"><tspan x="362.5" dy="0em">25%</tspan></text></svg></g><g class="visx-group visx-axis-tick" transform="translate(0, 0)"><line class="visx-line" x1="725" y1="0" x2="725" y2="8" fill="transparent" shape-rendering="crispEdges" stroke="#000" stroke-width="0" stroke-linecap="square"></line><svg x="0" y="0" font-size="10" style="overflow:visible"><text transform="" x="725" y="18" fill="#000" font-size="10" text-anchor="middle"><tspan x="725" dy="0em">50%</tspan></text></svg></g><g class="visx-group visx-axis-tick" transform="translate(0, 0)"><line class="visx-line" x1="1087.5" y1="0" x2="1087.5" y2="8" fill="transparent" shape-rendering="crispEdges" stroke="#000" stroke-width="0" stroke-linecap="square"></line><svg x="0" y="0" font-size="10" style="overflow:visible"><text transform="" x="1087.5" y="18" fill="#000" font-size="10" text-anchor="middle"><tspan x="1087.5" dy="0em">75%</tspan></text></svg></g><g class="visx-group visx-axis-tick" transform="translate(0, 0)"><line class="visx-line" x1="1450" y1="0" x2="1450" y2="8" fill="transparent" shape-rendering="crispEdges" stroke="#000" stroke-width="0" stroke-linecap="square"></line><svg x="0" y="0" font-size="10" style="overflow:visible"><text transform="" x="1450" y="18" fill="#000" font-size="10" text-anchor="middle"><tspan x="1450" dy="0em">100%</tspan></text></svg></g><line class="visx-line visx-axis-line" x1="0.5" y1="0" x2="1450.5" y2="0" fill="transparent" shape-rendering="crispEdges" stroke="#222" stroke-width="0"></line></g><g class="visx-group visx-axis visx-axis-left" transform="translate(0, 0)"><g class="visx-group visx-axis-tick" transform="translate(0, 0)"><line class="visx-line" x1="0" y1="115" x2="-8" y2="115" fill="transparent" shape-rendering="crispEdges" stroke="#222" stroke-width="0" stroke-linecap="square"></line><svg x="-30" y="0" font-size="8" style="overflow:visible"><text transform="" x="-8" y="115" fill="#000" font-size="8" text-anchor="start"><tspan x="-8" dy="0em">0%</tspan></text></svg></g><g class="visx-group visx-axis-tick" transform="translate(0, 0)"><line class="visx-line" x1="0" y1="51.11111111111111" x2="-8" y2="51.11111111111111" fill="transparent" shape-rendering="crispEdges" stroke="#222" stroke-width="0" stroke-linecap="square"></line><svg x="-30" y="0" font-size="8" style="overflow:visible"><text transform="" x="-8" y="51.11111111111111" fill="#000" font-size="8" text-anchor="start"><tspan x="-8" dy="0em">50%</tspan></text></svg></g><line class="visx-line visx-axis-line" x1="0" y1="115.5" x2="0" y2="0.5" fill="transparent" shape-rendering="crispEdges" stroke="#222" stroke-width="0"></line></g><rect class="visx-bar" width="1450" height="115" fill="transparent"></rect><line class="visx-line" x1="1160" y1="28" x2="1160" y2="115" fill="transparent" shape-rendering="crispEdges" stroke="#0062D2" stroke-width="1" pointer-events="none" stroke-dasharray="5,2"></line><svg x="0" y="0" font-size="10px" style="overflow:visible"><text transform="" x="1160" y="20" font-size="10px" fill="#fff" stroke="#fff" stroke-width="0.8em" text-anchor="middle"><tspan x="1160" dy="0.355em">Optimal 80%</tspan></text></svg><svg x="0" y="0" font-size="10px" style="overflow:visible"><text transform="" x="1160" y="20" font-size="10px" fill="#62677B" text-anchor="middle"><tspan x="1160" dy="0.355em">Optimal 80%</tspan></text></svg></g></svg>