<?xml version="1.0"?><svg xmlns="http://www.w3.org/2000/svg" xmlns:xlink= "http://www.w3.org/1999/xlink" style="background: white;" width="1500" height="185"> <g style="color: black; font-size: 13px; font-family: sans-serif; transform: translate(18px, 25px);"><g><circle r="3" cx="-6" cy="-5" style="fill: #B6509E" /><text>Borrow APR, variable</text></g><g style="transform: translateX(150px);"><circle r="3" cx="-6" cy="-5" style="fill: rgb(231, 198, 223)" /><text>Borrow APR, stable</text></g><g style="transform: translateX(290px);"><circle r="3" cx="-6" cy="-5" style="fill: rgb(0, 98, 210)" /><text>Utilization Rate</text></g></g><g class="visx-group" transform="translate(40, 50)"><g class="visx-group visx-rows" transform="translate(0, 0)"><line class="visx-line" x1="0" y1="115" x2="1450" y2="115" fill="transparent" shape-rendering="crispEdges" stroke="#000" stroke-width="1" stroke-dasharray="3,3" pointer-events="none"></line><line class="visx-line" x1="0" y1="86.25" x2="1450" y2="86.25" fill="transparent" shape-rendering="crispEdges" stroke="#000" stroke-width="1" stroke-dasharray="3,3" pointer-events="none"></line><line class="visx-line" x1="0" y1="57.5" x2="1450" y2="57.5" fill="transparent" shape-rendering="crispEdges" stroke="#000" stroke-width="1" stroke-dasharray="3,3" pointer-events="none"></line><line class="visx-line" x1="0" y1="28.75" x2="1450" y2="28.75" fill="transparent" shape-rendering="crispEdges" stroke="#000" stroke-width="1" stroke-dasharray="3,3" pointer-events="none"></line><line class="visx-line" x1="0" y1="0" x2="1450" y2="0" fill="transparent" shape-rendering="crispEdges" stroke="#000" stroke-width="1" stroke-dasharray="3,3" pointer-events="none"></line></g><path class="visx-linepath" d="M0,114.99999999993611C2.4166666666666665,114.98935185181458,4.833333333333334,114.97870370369304,7.25,114.96805555555555C9.666666666666666,114.95740740741806,12.083333333333334,114.94675925925927,14.5,114.93611111111112C16.916666666666668,114.92546296296297,19.333333333333332,114.91481481481482,21.75,114.90416666666667C24.166666666666668,114.89351851851852,26.583333333333332,114.88287037037038,29,114.87222222222223C31.416666666666668,114.86157407407408,33.833333333333336,114.85092592592592,36.25,114.84027777777777C38.666666666666664,114.82962962962962,41.083333333333336,114.81898148148147,43.5,114.80833333333332C45.91666666666667,114.79768518518517,48.333333333333336,114.78703703703704,50.75000000000001,114.77638888888889C53.16666666666667,114.76574074074074,55.583333333333336,114.75509259259259,58,114.74444444444444C60.416666666666664,114.73379629629629,62.833333333333336,114.72314814814816,65.25,114.7125C67.66666666666667,114.70185185185186,70.08333333333333,114.6912037037037,72.5,114.68055555555556C74.91666666666667,114.66990740740741,77.33333333333333,114.65925925925926,79.75,114.64861111111111C82.16666666666667,114.63796296296296,84.58333333333333,114.62731481481482,87,114.61666666666667C89.41666666666667,114.60601851851852,91.83333333333333,114.59537037037038,94.25,114.58472222222223C96.66666666666667,114.57407407407408,99.08333333333334,114.56342592592593,101.50000000000001,114.55277777777778C103.91666666666667,114.54212962962963,106.33333333333334,114.53148148148148,108.75,114.52083333333333C111.16666666666667,114.51018518518518,113.58333333333333,114.49953703703703,116,114.48888888888888C118.41666666666667,114.47824074074073,120.83333333333334,114.4675925925926,123.25000000000001,114.45694444444445C125.66666666666667,114.4462962962963,128.08333333333334,114.43564814814815,130.5,114.425C132.91666666666666,114.41435185185185,135.33333333333334,114.4037037037037,137.75,114.39305555555555C140.16666666666666,114.3824074074074,142.58333333333334,114.37175925925926,145,114.36111111111111C147.41666666666666,114.35046296296296,149.83333333333334,114.33981481481482,152.25,114.32916666666667C154.66666666666666,114.31851851851852,157.08333333333334,114.30787037037038,159.5,114.29722222222223C161.91666666666666,114.28657407407408,164.33333333333334,114.27592592592593,166.75,114.26527777777778C169.16666666666666,114.25462962962963,171.58333333333334,114.24398148148148,174,114.23333333333333C176.41666666666666,114.22268518518518,178.83333333333334,114.21203703703704,181.25,114.20138888888889C183.66666666666666,114.19074074074074,186.08333333333334,114.18009259259259,188.5,114.16944444444444C190.91666666666666,114.15879629629629,193.33333333333334,114.14814814814815,195.75,114.1375C198.16666666666669,114.12685185185185,200.58333333333334,114.1162037037037,203.00000000000003,114.10555555555555C205.41666666666669,114.0949074074074,207.83333333333331,114.08425925925926,210.24999999999997,114.0736111111111C212.66666666666666,114.06296296296296,215.08333333333331,114.05231481481482,217.5,114.04166666666667C219.91666666666666,114.03101851851852,222.33333333333334,114.02037037037037,224.75,114.00972222222222C227.16666666666666,113.99907407407407,229.58333333333334,113.98842592592594,232,113.97777777777779C234.41666666666666,113.96712962962964,236.83333333333334,113.95648148148149,239.25,113.94583333333334C241.66666666666669,113.93518518518519,244.08333333333334,113.92453703703704,246.50000000000003,113.91388888888889C248.91666666666669,113.90324074074074,251.33333333333331,113.89259259259259,253.74999999999997,113.88194444444444C256.16666666666663,113.8712962962963,258.5833333333333,113.86064814814814,261,113.85C263.4166666666667,113.83935185185184,265.8333333333333,113.8287037037037,268.25,113.81805555555555C270.6666666666667,113.8074074074074,273.0833333333333,113.79675925925926,275.5,113.78611111111111C277.9166666666667,113.77546296296296,280.3333333333333,113.76481481481481,282.75,113.75416666666666C285.1666666666667,113.74351851851851,287.5833333333333,113.73287037037038,290,113.72222222222223C292.4166666666667,113.71157407407408,294.8333333333333,113.70092592592593,297.25,113.69027777777778C299.6666666666667,113.67962962962963,302.0833333333333,113.66898148148148,304.5,113.65833333333333C306.9166666666667,113.64768518518518,309.3333333333333,113.63703703703705,311.75,113.6263888888889C314.1666666666667,113.61574074074075,316.5833333333333,113.6050925925926,319,113.59444444444445C321.4166666666667,113.5837962962963,323.8333333333333,113.57314814814815,326.25,113.5625C328.6666666666667,113.55185185185185,331.0833333333333,113.5412037037037,333.5,113.53055555555555C335.9166666666667,113.5199074074074,338.3333333333333,113.50925925925925,340.75,113.4986111111111C343.1666666666667,113.48796296296295,345.5833333333333,113.47731481481482,348,113.46666666666667C350.4166666666667,113.45601851851852,352.8333333333333,113.44537037037037,355.25,113.43472222222222C357.6666666666667,113.42407407407407,360.0833333333333,113.41342592592594,362.5,113.40277777777779C364.9166666666667,113.39212962962964,367.3333333333333,113.38148148148149,369.75,113.37083333333334C372.1666666666667,113.36018518518519,374.5833333333333,113.34953703703704,377,113.33888888888889C379.4166666666667,113.32824074074074,381.8333333333333,113.3175925925926,384.25,113.30694444444445C386.6666666666667,113.2962962962963,389.0833333333333,113.28564814814814,391.5,113.27499999999999C393.9166666666667,113.26435185185184,396.33333333333337,113.2537037037037,398.75000000000006,113.24305555555556C401.16666666666674,113.23240740740741,403.58333333333337,113.22175925925926,406.00000000000006,113.21111111111111C408.4166666666667,113.20046296296296,410.8333333333333,113.18981481481481,413.24999999999994,113.17916666666666C415.66666666666663,113.16851851851851,418.08333333333326,113.15787037037038,420.49999999999994,113.14722222222223C422.91666666666663,113.13657407407408,425.3333333333333,113.12592592592593,427.75,113.11527777777778C430.1666666666667,113.10462962962963,432.5833333333333,113.09398148148148,435,113.08333333333333C437.4166666666667,113.07268518518518,439.8333333333333,113.06203703703704,442.25,113.0513888888889C444.6666666666667,113.04074074074074,447.0833333333333,113.0300925925926,449.5,113.01944444444445C451.9166666666667,113.0087962962963,454.3333333333333,112.99814814814816,456.75,112.98750000000001C459.1666666666667,112.97685185185186,461.5833333333333,112.9662037037037,464,112.95555555555555C466.4166666666667,112.9449074074074,468.8333333333333,112.93425925925925,471.25,112.9236111111111C473.6666666666667,112.91296296296295,476.0833333333333,112.90231481481482,478.5,112.89166666666667C480.9166666666667,112.88101851851852,483.33333333333337,112.87037037037037,485.75000000000006,112.85972222222222C488.16666666666674,112.84907407407407,490.58333333333337,112.83842592592593,493.00000000000006,112.82777777777778C495.4166666666667,112.81712962962963,497.8333333333333,112.80648148148148,500.24999999999994,112.79583333333333C502.66666666666663,112.78518518518518,505.08333333333326,112.77453703703704,507.49999999999994,112.76388888888889C509.91666666666663,112.75324074074074,512.3333333333333,112.7425925925926,514.75,112.73194444444445C517.1666666666666,112.7212962962963,519.5833333333334,112.71064814814815,522,112.7C524.4166666666666,112.68935185185185,526.8333333333334,112.6787037037037,529.25,112.66805555555555C531.6666666666666,112.6574074074074,534.0833333333334,112.64675925925926,536.5,112.6361111111111C538.9166666666666,112.62546296296296,541.3333333333334,112.6148148148148,543.75,112.60416666666666C546.1666666666666,112.59351851851851,548.5833333333334,112.58287037037037,551,112.57222222222222C553.4166666666666,112.56157407407407,555.8333333333334,112.55092592592592,558.25,112.54027777777777C560.6666666666666,112.52962962962962,563.0833333333334,112.51898148148149,565.5,112.50833333333334C567.9166666666666,112.49768518518519,570.3333333333334,112.48703703703704,572.75,112.47638888888889C575.1666666666666,112.46574074074074,577.5833333333334,112.45509259259259,580,112.44444444444444C582.4166666666666,112.4337962962963,584.8333333333334,112.42314814814816,587.25,112.41250000000001C589.6666666666666,112.40185185185186,592.0833333333334,112.39120370370371,594.5,112.38055555555556C596.9166666666666,112.36990740740741,599.3333333333334,112.35925925925926,601.75,112.34861111111111C604.1666666666666,112.33796296296296,606.5833333333334,112.32731481481481,609,112.31666666666666C611.4166666666666,112.30601851851851,613.8333333333334,112.29537037037036,616.25,112.28472222222221C618.6666666666666,112.27407407407406,621.0833333333334,112.26342592592593,623.5,112.25277777777778C625.9166666666666,112.24212962962963,628.3333333333334,112.23148148148148,630.75,112.22083333333333C633.1666666666666,112.21018518518518,635.5833333333334,112.19953703703703,638,112.18888888888888C640.4166666666666,112.17824074074073,642.8333333333334,112.1675925925926,645.25,112.15694444444445C647.6666666666666,112.1462962962963,650.0833333333334,112.13564814814815,652.5,112.125C654.9166666666666,112.11435185185185,657.3333333333334,112.10370370370372,659.75,112.09305555555557C662.1666666666666,112.08240740740742,664.5833333333334,112.07175925925927,667,112.06111111111112C669.4166666666666,112.05046296296297,671.8333333333334,112.03981481481482,674.25,112.02916666666667C676.6666666666666,112.01851851851852,679.0833333333334,112.00787037037037,681.5,111.99722222222222C683.9166666666666,111.98657407407407,686.3333333333334,111.97592592592592,688.75,111.96527777777777C691.1666666666666,111.95462962962962,693.5833333333334,111.94398148148149,696,111.93333333333334C698.4166666666666,111.92268518518519,700.8333333333334,111.91203703703704,703.25,111.90138888888889C705.6666666666666,111.89074074074074,708.0833333333334,111.88009259259259,710.5,111.86944444444444C712.9166666666666,111.85879629629629,715.3333333333334,111.84814814814816,717.75,111.8375C720.1666666666666,111.82685185185186,722.5833333333334,111.8162037037037,725,111.80555555555556C727.4166666666666,111.79490740740741,729.8333333333334,111.78425925925927,732.25,111.77361111111112C734.6666666666666,111.76296296296297,737.0833333333334,111.75231481481482,739.5,111.74166666666667C741.9166666666666,111.73101851851852,744.3333333333334,111.72037037037036,746.75,111.70972222222221C749.1666666666666,111.69907407407406,751.5833333333334,111.68842592592593,754,111.67777777777778C756.4166666666666,111.66712962962963,758.8333333333334,111.65648148148148,761.25,111.64583333333333C763.6666666666666,111.63518518518518,766.0833333333334,111.62453703703703,768.5,111.61388888888888C770.9166666666666,111.60324074074073,773.3333333333334,111.5925925925926,775.75,111.58194444444445C778.1666666666666,111.5712962962963,780.5833333333334,111.56064814814815,783,111.55C785.4166666666667,111.53935185185185,787.8333333333334,111.52870370370371,790.2500000000001,111.51805555555556C792.6666666666667,111.50740740740741,795.0833333333335,111.49675925925926,797.5000000000001,111.48611111111111C799.9166666666667,111.47546296296296,802.3333333333335,111.46481481481482,804.7500000000001,111.45416666666667C807.1666666666667,111.44351851851852,809.5833333333335,111.43287037037038,812.0000000000001,111.42222222222223C814.4166666666667,111.41157407407408,816.8333333333333,111.40092592592592,819.2499999999999,111.39027777777777C821.6666666666665,111.37962962962962,824.0833333333333,111.36898148148148,826.4999999999999,111.35833333333333C828.9166666666665,111.34768518518518,831.3333333333333,111.33703703703704,833.7499999999999,111.32638888888889C836.1666666666665,111.31574074074074,838.5833333333333,111.30509259259259,840.9999999999999,111.29444444444444C843.4166666666666,111.28379629629629,845.8333333333333,111.27314814814815,848.25,111.2625C850.6666666666666,111.25185185185185,853.0833333333334,111.2412037037037,855.5,111.23055555555555C857.9166666666666,111.2199074074074,860.3333333333334,111.20925925925927,862.75,111.19861111111112C865.1666666666666,111.18796296296297,867.5833333333334,111.17731481481482,870,111.16666666666667C872.4166666666666,111.15601851851852,874.8333333333334,111.14537037037037,877.25,111.13472222222222C879.6666666666666,111.12407407407407,882.0833333333334,111.11342592592594,884.5,111.10277777777779C886.9166666666666,111.09212962962964,889.3333333333334,111.08148148148148,891.75,111.07083333333333C894.1666666666666,111.06018518518518,896.5833333333334,111.04953703703703,899,111.03888888888888C901.4166666666666,111.02824074074073,903.8333333333334,111.01759259259259,906.25,111.00694444444444C908.6666666666666,110.9962962962963,911.0833333333334,110.98564814814814,913.5,110.975C915.9166666666666,110.96435185185184,918.3333333333334,110.95370370370371,920.75,110.94305555555556C923.1666666666666,110.93240740740741,925.5833333333334,110.92175925925926,928,110.91111111111111C930.4166666666666,110.90046296296296,932.8333333333334,110.88981481481481,935.25,110.87916666666666C937.6666666666666,110.86851851851851,940.0833333333334,110.85787037037038,942.5,110.84722222222223C944.9166666666666,110.83657407407408,947.3333333333334,110.82592592592593,949.75,110.81527777777778C952.1666666666666,110.80462962962963,954.5833333333334,110.79398148148148,957,110.78333333333333C959.4166666666666,110.77268518518518,961.8333333333334,110.76203703703703,964.25,110.75138888888888C966.6666666666667,110.74074074074073,969.0833333333334,110.73009259259258,971.5000000000001,110.71944444444443C973.9166666666667,110.70879629629628,976.3333333333335,110.69814814814815,978.7500000000001,110.6875C981.1666666666667,110.67685185185185,983.5833333333335,110.6662037037037,986.0000000000001,110.65555555555555C988.4166666666667,110.6449074074074,990.8333333333335,110.63425925925927,993.2500000000001,110.62361111111112C995.6666666666667,110.61296296296297,998.0833333333333,110.60231481481482,1000.4999999999999,110.59166666666667C1002.9166666666665,110.58101851851852,1005.3333333333333,110.57037037037037,1007.7499999999999,110.55972222222222C1010.1666666666665,110.54907407407407,1012.5833333333333,110.53842592592594,1014.9999999999999,110.52777777777779C1017.4166666666665,110.51712962962964,1019.8333333333333,110.50648148148149,1022.2499999999999,110.49583333333334C1024.6666666666665,110.48518518518519,1027.0833333333333,110.47453703703704,1029.5,110.46388888888889C1031.9166666666667,110.45324074074074,1034.3333333333333,110.44259259259259,1036.75,110.43194444444444C1039.1666666666667,110.42129629629629,1041.5833333333333,110.41064814814814,1044,110.39999999999999C1046.4166666666667,110.38935185185184,1048.8333333333333,110.3787037037037,1051.25,110.36805555555556C1053.6666666666667,110.35740740740741,1056.0833333333333,110.34675925925926,1058.5,110.33611111111111C1060.9166666666667,110.32546296296296,1063.3333333333333,110.31481481481482,1065.75,110.30416666666667C1068.1666666666667,110.29351851851852,1070.5833333333333,110.28287037037038,1073,110.27222222222223C1075.4166666666667,110.26157407407408,1077.8333333333333,110.25092592592593,1080.25,110.24027777777778C1082.6666666666667,110.22962962962963,1085.0833333333333,110.21898148148149,1087.5,110.20833333333334C1089.9166666666667,110.1976851851852,1092.3333333333333,110.18703703703704,1094.75,110.1763888888889C1097.1666666666667,110.16574074074074,1099.5833333333333,110.1550925925926,1102,110.14444444444445C1104.4166666666667,110.1337962962963,1106.8333333333333,110.12314814814815,1109.25,110.1125C1111.6666666666667,110.10185185185185,1114.0833333333333,110.0912037037037,1116.5,110.08055555555555C1118.9166666666667,110.0699074074074,1121.3333333333333,110.05925925925926,1123.75,110.04861111111111C1126.1666666666667,110.03796296296296,1128.5833333333333,110.02731481481482,1131,110.01666666666667C1133.4166666666667,110.00601851851852,1135.8333333333333,109.99537037037037,1138.25,109.98472222222222C1140.6666666666667,109.97407407407407,1143.0833333333333,109.96342592592593,1145.5,109.95277777777778C1147.9166666666667,109.94212962962963,1150.3333333333333,109.93148148148148,1152.75,109.92083333333333C1155.1666666666667,109.91018518518518,1157.5833333333333,109.89953703703705,1160,109.8888888888889C1162.4166666666667,109.87824074074075,1164.8333333333333,109.8675925925926,1167.25,109.85694444444445C1169.6666666666667,109.8462962962963,1172.0833333333333,109.83564814814814,1174.5,109.82499999999999C1176.9166666666667,109.81435185185184,1179.3333333333333,109.8037037037037,1181.75,109.79305555555555C1184.1666666666667,109.7824074074074,1186.5833333333333,109.77175925925926,1189,109.7611111111111C1191.4166666666667,109.75046296296296,1193.8333333333333,109.73981481481482,1196.25,109.72916666666667C1198.6666666666667,109.71851851851852,1201.0833333333333,109.70787037037037,1203.5,109.69722222222222C1205.9166666666667,109.68657407407407,1208.3333333333333,109.67592592592592,1210.75,109.66527777777777C1213.1666666666667,109.65462962962962,1215.5833333333333,109.64398148148149,1218,109.63333333333334C1220.4166666666667,109.62268518518519,1222.8333333333333,109.61203703703704,1225.25,109.60138888888889C1227.6666666666667,109.59074074074074,1230.0833333333333,109.58009259259259,1232.5,109.56944444444444C1234.9166666666667,109.5587962962963,1237.3333333333333,109.54814814814816,1239.75,109.53750000000001C1242.1666666666667,109.52685185185186,1244.5833333333333,109.5162037037037,1247,109.50555555555555C1249.4166666666667,109.4949074074074,1251.8333333333333,109.48425925925926,1254.25,109.47361111111111C1256.6666666666667,109.46296296296296,1259.0833333333333,109.45231481481481,1261.5,109.44166666666666C1263.9166666666667,109.43101851851851,1266.3333333333333,109.42037037037036,1268.75,109.40972222222221C1271.1666666666667,109.39907407407406,1273.5833333333333,109.38842592592593,1276,109.37777777777778C1278.4166666666667,109.36712962962963,1280.8333333333333,109.35648148148148,1283.25,109.34583333333333C1285.6666666666667,109.33518518518518,1288.0833333333333,109.32453703703705,1290.5,109.3138888888889C1292.9166666666667,109.30324074074075,1295.3333333333333,109.2925925925926,1297.75,109.28194444444445C1300.1666666666667,109.2712962962963,1302.5833333333333,109.2712962962963,1305,109.25C1307.4166666666667,109.2287037037037,1309.8333333333333,106.375,1312.25,104.9375C1314.6666666666667,103.5,1317.0833333333333,102.0625,1319.5,100.625C1321.9166666666667,99.1875,1324.3333333333333,97.75,1326.75,96.3125C1329.1666666666667,94.875,1331.5833333333333,93.4375,1334,92C1336.4166666666667,90.5625,1338.8333333333333,89.125,1341.25,87.6875C1343.6666666666667,86.25,1346.0833333333333,84.8125,1348.5,83.375C1350.9166666666667,81.9375,1353.3333333333333,80.5,1355.75,79.0625C1358.1666666666667,77.625,1360.5833333333333,76.18749999999999,1363,74.74999999999999C1365.4166666666667,73.31249999999999,1367.8333333333333,71.875,1370.25,70.4375C1372.6666666666667,69,1375.0833333333333,67.5625,1377.5,66.125C1379.9166666666667,64.6875,1382.3333333333333,63.25,1384.75,61.8125C1387.1666666666667,60.375,1389.5833333333333,58.9375,1392,57.5C1394.4166666666667,56.0625,1396.8333333333333,54.625,1399.25,53.1875C1401.6666666666667,51.75,1404.0833333333333,50.31250000000001,1406.5,48.87500000000001C1408.9166666666667,47.43750000000001,1411.3333333333333,45.99999999999999,1413.75,44.56249999999999C1416.1666666666667,43.12499999999999,1418.5833333333333,41.6875,1421,40.25C1423.4166666666667,38.8125,1425.8333333333333,37.374999999999986,1428.25,35.937499999999986C1430.6666666666667,34.499999999999986,1433.0833333333333,33.062500000000014,1435.5,31.625000000000014C1437.9166666666667,30.187500000000018,1440.3333333333333,28.750000000000007,1442.75,27.312500000000004C1445.1666666666667,25.875,1447.5833333333333,24.4375,1450,22.999999999999996" fill="transparent" stroke-linecap="round" stroke="#B6509E" stroke-width="2"></path><path class="visx-linepath" d="M0,107.81249999999201C2.4166666666666665,107.81116898147683,4.833333333333334,107.80983796296164,7.25,107.80850694444445C9.666666666666666,107.80717592592725,12.083333333333334,107.8058449074074,14.5,107.80451388888889C16.916666666666668,107.80318287037038,19.333333333333332,107.80185185185185,21.75,107.80052083333334C24.166666666666668,107.79918981481482,26.583333333333332,107.79785879629628,29,107.79652777777777C31.416666666666668,107.79519675925926,33.833333333333336,107.79386574074073,36.25,107.79253472222221C38.666666666666664,107.7912037037037,41.083333333333336,107.78987268518517,43.5,107.78854166666666C45.91666666666667,107.78721064814815,48.333333333333336,107.78587962962962,50.75000000000001,107.7845486111111C53.16666666666667,107.78321759259259,55.583333333333336,107.78188657407406,58,107.78055555555555C60.416666666666664,107.77922453703704,62.833333333333336,107.77789351851851,65.25,107.7765625C67.66666666666667,107.77523148148148,70.08333333333333,107.77390046296296,72.5,107.77256944444444C74.91666666666667,107.77123842592593,77.33333333333333,107.7699074074074,79.75,107.76857638888889C82.16666666666667,107.76724537037038,84.58333333333333,107.76591435185185,87,107.76458333333333C89.41666666666667,107.76325231481482,91.83333333333333,107.7619212962963,94.25,107.76059027777778C96.66666666666667,107.75925925925927,99.08333333333334,107.75792824074074,101.50000000000001,107.75659722222223C103.91666666666667,107.75526620370371,106.33333333333334,107.75393518518518,108.75,107.75260416666667C111.16666666666667,107.75127314814816,113.58333333333333,107.74994212962963,116,107.74861111111112C118.41666666666667,107.7472800925926,120.83333333333334,107.74594907407408,123.25000000000001,107.74461805555556C125.66666666666667,107.74328703703705,128.08333333333334,107.74195601851852,130.5,107.74062500000001C132.91666666666666,107.73929398148148,135.33333333333334,107.73796296296295,137.75,107.73663194444444C140.16666666666666,107.73530092592593,142.58333333333334,107.7339699074074,145,107.73263888888889C147.41666666666666,107.73130787037037,149.83333333333334,107.72997685185184,152.25,107.72864583333333C154.66666666666666,107.72731481481482,157.08333333333334,107.72598379629629,159.5,107.72465277777778C161.91666666666666,107.72332175925926,164.33333333333334,107.72199074074074,166.75,107.72065972222222C169.16666666666666,107.71932870370371,171.58333333333334,107.71799768518518,174,107.71666666666667C176.41666666666666,107.71533564814816,178.83333333333334,107.71400462962963,181.25,107.71267361111111C183.66666666666666,107.7113425925926,186.08333333333334,107.71001157407406,188.5,107.70868055555555C190.91666666666666,107.70734953703703,193.33333333333334,107.7060185185185,195.75,107.70468749999999C198.16666666666669,107.70335648148148,200.58333333333334,107.70202546296295,203.00000000000003,107.70069444444444C205.41666666666669,107.69936342592592,207.83333333333331,107.6980324074074,210.24999999999997,107.69670138888888C212.66666666666666,107.69537037037037,215.08333333333331,107.69403935185186,217.5,107.69270833333334C219.91666666666666,107.69137731481483,222.33333333333334,107.69004629629629,224.75,107.68871527777777C227.16666666666666,107.68738425925926,229.58333333333334,107.68605324074075,232,107.68472222222223C234.41666666666666,107.68339120370372,236.83333333333334,107.68206018518518,239.25,107.68072916666667C241.66666666666669,107.67939814814814,244.08333333333334,107.67806712962962,246.50000000000003,107.67673611111111C248.91666666666669,107.6754050925926,251.33333333333331,107.67407407407407,253.74999999999997,107.67274305555556C256.16666666666663,107.67141203703704,258.5833333333333,107.67008101851852,261,107.66875C263.4166666666667,107.66741898148149,265.8333333333333,107.66608796296296,268.25,107.66475694444445C270.6666666666667,107.66342592592594,273.0833333333333,107.66209490740741,275.5,107.6607638888889C277.9166666666667,107.65943287037038,280.3333333333333,107.65810185185185,282.75,107.65677083333334C285.1666666666667,107.65543981481483,287.5833333333333,107.65410879629628,290,107.65277777777777C292.4166666666667,107.65144675925926,294.8333333333333,107.65011574074073,297.25,107.64878472222222C299.6666666666667,107.6474537037037,302.0833333333333,107.64612268518518,304.5,107.64479166666666C306.9166666666667,107.64346064814815,309.3333333333333,107.64212962962962,311.75,107.64079861111111C314.1666666666667,107.6394675925926,316.5833333333333,107.63813657407407,319,107.63680555555555C321.4166666666667,107.63547453703704,323.8333333333333,107.63414351851851,326.25,107.6328125C328.6666666666667,107.63148148148149,331.0833333333333,107.63015046296296,333.5,107.62881944444445C335.9166666666667,107.62748842592593,338.3333333333333,107.6261574074074,340.75,107.62482638888889C343.1666666666667,107.62349537037038,345.5833333333333,107.62216435185184,348,107.62083333333332C350.4166666666667,107.61950231481481,352.8333333333333,107.61817129629628,355.25,107.61684027777777C357.6666666666667,107.61550925925926,360.0833333333333,107.61417824074073,362.5,107.61284722222221C364.9166666666667,107.6115162037037,367.3333333333333,107.61018518518519,369.75,107.60885416666667C372.1666666666667,107.60752314814816,374.5833333333333,107.60619212962962,377,107.6048611111111C379.4166666666667,107.60353009259259,381.8333333333333,107.60219907407408,384.25,107.60086805555557C386.6666666666667,107.59953703703705,389.0833333333333,107.59820601851852,391.5,107.59687500000001C393.9166666666667,107.59554398148148,396.33333333333337,107.59421296296297,398.75000000000006,107.59288194444444C401.16666666666674,107.59155092592593,403.58333333333337,107.5902199074074,406.00000000000006,107.58888888888889C408.4166666666667,107.58755787037038,410.8333333333333,107.58622685185185,413.24999999999994,107.58489583333333C415.66666666666663,107.58356481481482,418.08333333333326,107.5822337962963,420.49999999999994,107.58090277777778C422.91666666666663,107.57957175925927,425.3333333333333,107.57824074074074,427.75,107.57690972222223C430.1666666666667,107.57557870370371,432.5833333333333,107.57424768518518,435,107.57291666666667C437.4166666666667,107.57158564814816,439.8333333333333,107.57025462962963,442.25,107.56892361111112C444.6666666666667,107.5675925925926,447.0833333333333,107.56626157407406,449.5,107.56493055555555C451.9166666666667,107.56359953703704,454.3333333333333,107.56226851851851,456.75,107.5609375C459.1666666666667,107.55960648148148,461.5833333333333,107.55827546296295,464,107.55694444444444C466.4166666666667,107.55561342592593,468.8333333333333,107.5542824074074,471.25,107.55295138888889C473.6666666666667,107.55162037037037,476.0833333333333,107.55028935185184,478.5,107.54895833333333C480.9166666666667,107.54762731481482,483.33333333333337,107.54629629629629,485.75000000000006,107.54496527777778C488.16666666666674,107.54363425925926,490.58333333333337,107.54230324074074,493.00000000000006,107.54097222222222C495.4166666666667,107.53964120370371,497.8333333333333,107.53831018518518,500.24999999999994,107.53697916666667C502.66666666666663,107.53564814814814,505.08333333333326,107.53431712962961,507.49999999999994,107.5329861111111C509.91666666666663,107.53165509259257,512.3333333333333,107.53032407407406,514.75,107.52899305555555C517.1666666666666,107.52766203703703,519.5833333333334,107.52633101851852,522,107.525C524.4166666666666,107.52366898148149,526.8333333333334,107.52233796296296,529.25,107.52100694444445C531.6666666666666,107.51967592592594,534.0833333333334,107.51834490740741,536.5,107.5170138888889C538.9166666666666,107.51568287037038,541.3333333333334,107.51435185185186,543.75,107.51302083333334C546.1666666666666,107.51168981481483,548.5833333333334,107.5103587962963,551,107.50902777777779C553.4166666666666,107.50769675925928,555.8333333333334,107.50636574074073,558.25,107.50503472222222C560.6666666666666,107.5037037037037,563.0833333333334,107.50237268518518,565.5,107.50104166666667C567.9166666666666,107.49971064814815,570.3333333333334,107.49837962962962,572.75,107.49704861111111C575.1666666666666,107.4957175925926,577.5833333333334,107.49438657407407,580,107.49305555555556C582.4166666666666,107.49172453703704,584.8333333333334,107.49039351851852,587.25,107.4890625C589.6666666666666,107.48773148148149,592.0833333333334,107.48640046296296,594.5,107.48506944444445C596.9166666666666,107.48373842592594,599.3333333333334,107.48240740740741,601.75,107.4810763888889C604.1666666666666,107.47974537037038,606.5833333333334,107.47841435185184,609,107.47708333333333C611.4166666666666,107.47575231481481,613.8333333333334,107.47442129629628,616.25,107.47309027777777C618.6666666666666,107.47175925925926,621.0833333333334,107.47042824074073,623.5,107.46909722222222C625.9166666666666,107.4677662037037,628.3333333333334,107.46643518518518,630.75,107.46510416666666C633.1666666666666,107.46377314814815,635.5833333333334,107.46244212962962,638,107.46111111111111C640.4166666666666,107.4597800925926,642.8333333333334,107.45844907407407,645.25,107.45711805555555C647.6666666666666,107.45578703703704,650.0833333333334,107.45445601851851,652.5,107.453125C654.9166666666666,107.45179398148149,657.3333333333334,107.45046296296296,659.75,107.44913194444445C662.1666666666666,107.44780092592593,664.5833333333334,107.44646990740739,667,107.44513888888888C669.4166666666666,107.44380787037036,671.8333333333334,107.44247685185185,674.25,107.44114583333334C676.6666666666666,107.43981481481482,679.0833333333334,107.4384837962963,681.5,107.43715277777778C683.9166666666666,107.43582175925927,686.3333333333334,107.43449074074074,688.75,107.43315972222223C691.1666666666666,107.43182870370372,693.5833333333334,107.43049768518519,696,107.42916666666667C698.4166666666666,107.42783564814816,700.8333333333334,107.42650462962963,703.25,107.42517361111112C705.6666666666666,107.4238425925926,708.0833333333334,107.42251157407406,710.5,107.42118055555555C712.9166666666666,107.41984953703704,715.3333333333334,107.41851851851851,717.75,107.4171875C720.1666666666666,107.41585648148148,722.5833333333334,107.41452546296296,725,107.41319444444444C727.4166666666666,107.41186342592593,729.8333333333334,107.4105324074074,732.25,107.40920138888889C734.6666666666666,107.40787037037038,737.0833333333334,107.40653935185185,739.5,107.40520833333333C741.9166666666666,107.40387731481482,744.3333333333334,107.4025462962963,746.75,107.40121527777778C749.1666666666666,107.39988425925927,751.5833333333334,107.39855324074074,754,107.39722222222223C756.4166666666666,107.39589120370371,758.8333333333334,107.39456018518518,761.25,107.39322916666667C763.6666666666666,107.39189814814816,766.0833333333334,107.39056712962962,768.5,107.3892361111111C770.9166666666666,107.38790509259259,773.3333333333334,107.38657407407406,775.75,107.38524305555555C778.1666666666666,107.38391203703704,780.5833333333334,107.38258101851851,783,107.38125C785.4166666666667,107.37991898148148,787.8333333333334,107.37858796296295,790.2500000000001,107.37725694444444C792.6666666666667,107.37592592592593,795.0833333333335,107.3745949074074,797.5000000000001,107.37326388888889C799.9166666666667,107.37193287037037,802.3333333333335,107.37060185185184,804.7500000000001,107.36927083333333C807.1666666666667,107.36793981481482,809.5833333333335,107.36660879629632,812.0000000000001,107.36527777777779C814.4166666666667,107.36394675925928,816.8333333333333,107.36261574074072,819.2499999999999,107.36128472222221C821.6666666666665,107.35995370370368,824.0833333333333,107.35862268518518,826.4999999999999,107.35729166666667C828.9166666666665,107.35596064814816,831.3333333333333,107.35462962962963,833.7499999999999,107.35329861111111C836.1666666666665,107.3519675925926,838.5833333333333,107.35063657407407,840.9999999999999,107.34930555555556C843.4166666666666,107.34797453703705,845.8333333333333,107.34664351851852,848.25,107.3453125C850.6666666666666,107.34398148148149,853.0833333333334,107.34265046296296,855.5,107.34131944444445C857.9166666666666,107.33998842592594,860.3333333333334,107.33865740740741,862.75,107.3373263888889C865.1666666666666,107.33599537037038,867.5833333333334,107.33466435185184,870,107.33333333333333C872.4166666666666,107.33200231481482,874.8333333333334,107.33067129629629,877.25,107.32934027777777C879.6666666666666,107.32800925925926,882.0833333333334,107.32667824074073,884.5,107.32534722222222C886.9166666666666,107.3240162037037,889.3333333333334,107.32268518518518,891.75,107.32135416666667C894.1666666666666,107.32002314814815,896.5833333333334,107.31869212962962,899,107.31736111111111C901.4166666666666,107.3160300925926,903.8333333333334,107.31469907407407,906.25,107.31336805555556C908.6666666666666,107.31203703703704,911.0833333333334,107.31070601851852,913.5,107.309375C915.9166666666666,107.30804398148149,918.3333333333334,107.30671296296296,920.75,107.30538194444445C923.1666666666666,107.30405092592594,925.5833333333334,107.3027199074074,928,107.30138888888888C930.4166666666666,107.30005787037037,932.8333333333334,107.29872685185184,935.25,107.29739583333333C937.6666666666666,107.29606481481481,940.0833333333334,107.29473379629628,942.5,107.29340277777777C944.9166666666666,107.29207175925926,947.3333333333334,107.29074074074073,949.75,107.28940972222222C952.1666666666666,107.2880787037037,954.5833333333334,107.28674768518518,957,107.28541666666666C959.4166666666666,107.28408564814815,961.8333333333334,107.28275462962964,964.25,107.28142361111112C966.6666666666667,107.28009259259261,969.0833333333334,107.27876157407408,971.5000000000001,107.27743055555555C973.9166666666667,107.27609953703704,976.3333333333335,107.27476851851851,978.7500000000001,107.2734375C981.1666666666667,107.27210648148149,983.5833333333335,107.27077546296296,986.0000000000001,107.26944444444445C988.4166666666667,107.26811342592593,990.8333333333335,107.2667824074074,993.2500000000001,107.26545138888889C995.6666666666667,107.26412037037038,998.0833333333333,107.26278935185185,1000.4999999999999,107.26145833333334C1002.9166666666665,107.26012731481482,1005.3333333333333,107.2587962962963,1007.7499999999999,107.25746527777778C1010.1666666666665,107.25613425925927,1012.5833333333333,107.25480324074074,1014.9999999999999,107.25347222222223C1017.4166666666665,107.25214120370372,1019.8333333333333,107.25081018518519,1022.2499999999999,107.24947916666667C1024.6666666666665,107.24814814814815,1027.0833333333333,107.24681712962963,1029.5,107.2454861111111C1031.9166666666667,107.24415509259259,1034.3333333333333,107.24282407407406,1036.75,107.24149305555555C1039.1666666666667,107.24016203703704,1041.5833333333333,107.23883101851851,1044,107.2375C1046.4166666666667,107.23616898148148,1048.8333333333333,107.23483796296296,1051.25,107.23350694444444C1053.6666666666667,107.23217592592593,1056.0833333333333,107.2308449074074,1058.5,107.22951388888889C1060.9166666666667,107.22818287037038,1063.3333333333333,107.22685185185185,1065.75,107.22552083333333C1068.1666666666667,107.22418981481482,1070.5833333333333,107.2228587962963,1073,107.22152777777778C1075.4166666666667,107.22019675925927,1077.8333333333333,107.21886574074072,1080.25,107.21753472222221C1082.6666666666667,107.2162037037037,1085.0833333333333,107.21487268518517,1087.5,107.21354166666666C1089.9166666666667,107.21221064814814,1092.3333333333333,107.21087962962962,1094.75,107.2095486111111C1097.1666666666667,107.20821759259259,1099.5833333333333,107.20688657407408,1102,107.20555555555556C1104.4166666666667,107.20422453703705,1106.8333333333333,107.20289351851851,1109.25,107.2015625C1111.6666666666667,107.20023148148148,1114.0833333333333,107.19890046296297,1116.5,107.19756944444445C1118.9166666666667,107.19623842592594,1121.3333333333333,107.1949074074074,1123.75,107.19357638888889C1126.1666666666667,107.19224537037037,1128.5833333333333,107.19091435185184,1131,107.18958333333333C1133.4166666666667,107.18825231481482,1135.8333333333333,107.18692129629629,1138.25,107.18559027777778C1140.6666666666667,107.18425925925926,1143.0833333333333,107.18292824074074,1145.5,107.18159722222222C1147.9166666666667,107.18026620370371,1150.3333333333333,107.17893518518518,1152.75,107.17760416666667C1155.1666666666667,107.17627314814816,1157.5833333333333,107.17494212962963,1160,107.17361111111111C1162.4166666666667,107.1722800925926,1164.8333333333333,107.17094907407407,1167.25,107.16961805555556C1169.6666666666667,107.16828703703705,1172.0833333333333,107.16695601851852,1174.5,107.165625C1176.9166666666667,107.16429398148149,1179.3333333333333,107.16296296296296,1181.75,107.16163194444445C1184.1666666666667,107.16030092592594,1186.5833333333333,107.1589699074074,1189,107.15763888888888C1191.4166666666667,107.15630787037037,1193.8333333333333,107.15497685185184,1196.25,107.15364583333333C1198.6666666666667,107.15231481481482,1201.0833333333333,107.15098379629629,1203.5,107.14965277777777C1205.9166666666667,107.14832175925926,1208.3333333333333,107.14699074074073,1210.75,107.14565972222222C1213.1666666666667,107.1443287037037,1215.5833333333333,107.14299768518518,1218,107.14166666666667C1220.4166666666667,107.14033564814815,1222.8333333333333,107.13900462962962,1225.25,107.13767361111111C1227.6666666666667,107.1363425925926,1230.0833333333333,107.13501157407407,1232.5,107.13368055555556C1234.9166666666667,107.13234953703704,1237.3333333333333,107.1310185185185,1239.75,107.12968749999999C1242.1666666666667,107.12835648148148,1244.5833333333333,107.12702546296295,1247,107.12569444444443C1249.4166666666667,107.12436342592592,1251.8333333333333,107.1230324074074,1254.25,107.12170138888888C1256.6666666666667,107.12037037037037,1259.0833333333333,107.11903935185184,1261.5,107.11770833333333C1263.9166666666667,107.11637731481481,1266.3333333333333,107.1150462962963,1268.75,107.11371527777779C1271.1666666666667,107.11238425925927,1273.5833333333333,107.11105324074074,1276,107.10972222222223C1278.4166666666667,107.10839120370372,1280.8333333333333,107.10706018518519,1283.25,107.10572916666668C1285.6666666666667,107.10439814814816,1288.0833333333333,107.10306712962962,1290.5,107.10173611111111C1292.9166666666667,107.1004050925926,1295.3333333333333,107.09907407407407,1297.75,107.09774305555555C1300.1666666666667,107.09641203703704,1302.5833333333333,107.09641203703704,1305,107.09375C1307.4166666666667,107.09108796296296,1309.8333333333333,104.21875,1312.25,102.78125C1314.6666666666667,101.34375,1317.0833333333333,99.90625,1319.5,98.46875C1321.9166666666667,97.03125,1324.3333333333333,95.59375000000001,1326.75,94.15625000000001C1329.1666666666667,92.71875000000001,1331.5833333333333,91.28125,1334,89.84375C1336.4166666666667,88.40625,1338.8333333333333,86.96875,1341.25,85.53125C1343.6666666666667,84.09375,1346.0833333333333,82.65625,1348.5,81.21875C1350.9166666666667,79.78125,1353.3333333333333,78.34375,1355.75,76.90625C1358.1666666666667,75.46875,1360.5833333333333,74.03125,1363,72.59375C1365.4166666666667,71.15625,1367.8333333333333,69.71875,1370.25,68.28125C1372.6666666666667,66.84375,1375.0833333333333,65.40625,1377.5,63.96875C1379.9166666666667,62.53125,1382.3333333333333,61.09375000000001,1384.75,59.65625000000001C1387.1666666666667,58.21875000000001,1389.5833333333333,56.78124999999999,1392,55.34374999999999C1394.4166666666667,53.90624999999999,1396.8333333333333,52.46875,1399.25,51.03125C1401.6666666666667,49.59375,1404.0833333333333,48.15625,1406.5,46.71875C1408.9166666666667,45.28125,1411.3333333333333,43.84375,1413.75,42.40625C1416.1666666666667,40.96875,1418.5833333333333,39.53125000000001,1421,38.09375000000001C1423.4166666666667,36.65625000000001,1425.8333333333333,35.21875000000001,1428.25,33.78125000000001C1430.6666666666667,32.34375000000001,1433.0833333333333,30.906249999999996,1435.5,29.468749999999996C1437.9166666666667,28.031249999999996,1440.3333333333333,26.59375,1442.75,25.15625C1445.1666666666667,23.71875,1447.5833333333333,22.281250000000004,1450,20.843750000000004" fill="transparent" stroke-linecap="round" stroke="#E7C6DF" stroke-width="2"></path><g class="visx-group visx-axis visx-axis-bottom" transform="translate(0, 115)"><g class="visx-group visx-axis-tick" transform="translate(0, 0)"><line class="visx-line" x1="0" y1="0" x2="0" y2="8" fill="transparent" shape-rendering="crispEdges" stroke="#000" stroke-width="0" stroke-linecap="square"></line><svg x="0" y="0" font-size="10" style="overflow:visible"><text transform="" x="0" y="18" fill="#000" font-size="10" text-anchor="middle"><tspan x="0" dy="0em">0%</tspan></text></svg></g><g class="visx-group visx-axis-tick" transform="translate(0, 0)"><line class="visx-line" x1="362.5" y1="0" x2="362.5" y2="8" fill="transparent" shape-rendering="crispEdges" stroke="#000" stroke-width="0" stroke-linecap="square"></line><svg x="0" y="0" font-size="10" style="overflow:visible"><text transform="" x="362.5" y="18" fill="#000" font-size="10" text-anchor="middle"><tspan x="362.5" dy="0em">25%</tspan></text></svg></g><g class="visx-group visx-axis-tick" transform="translate(0, 0)"><line class="visx-line" x1="725" y1="0" x2="725" y2="8" fill="transparent" shape-rendering="crispEdges" stroke="#000" stroke-width="0" stroke-linecap="square"></line><svg x="0" y="0" font-size="10" style="overflow:visible"><text transform="" x="725" y="18" fill="#000" font-size="10" text-anchor="middle"><tspan x="725" dy="0em">50%</tspan></text></svg></g><g class="visx-group visx-axis-tick" transform="translate(0, 0)"><line class="visx-line" x1="1087.5" y1="0" x2="1087.5" y2="8" fill="transparent" shape-rendering="crispEdges" stroke="#000" stroke-width="0" stroke-linecap="square"></line><svg x="0" y="0" font-size="10" style="overflow:visible"><text transform="" x="1087.5" y="18" fill="#000" font-size="10" text-anchor="middle"><tspan x="1087.5" dy="0em">75%</tspan></text></svg></g><g class="visx-group visx-axis-tick" transform="translate(0, 0)"><line class="visx-line" x1="1450" y1="0" x2="1450" y2="8" fill="transparent" shape-rendering="crispEdges" stroke="#000" stroke-width="0" stroke-linecap="square"></line><svg x="0" y="0" font-size="10" style="overflow:visible"><text transform="" x="1450" y="18" fill="#000" font-size="10" text-anchor="middle"><tspan x="1450" dy="0em">100%</tspan></text></svg></g><line class="visx-line visx-axis-line" x1="0.5" y1="0" x2="1450.5" y2="0" fill="transparent" shape-rendering="crispEdges" stroke="#222" stroke-width="0"></line></g><g class="visx-group visx-axis visx-axis-left" transform="translate(0, 0)"><g class="visx-group visx-axis-tick" transform="translate(0, 0)"><line class="visx-line" x1="0" y1="115" x2="-8" y2="115" fill="transparent" shape-rendering="crispEdges" stroke="#222" stroke-width="0" stroke-linecap="square"></line><svg x="-30" y="0" font-size="8" style="overflow:visible"><text transform="" x="-8" y="115" fill="#000" font-size="8" text-anchor="start"><tspan x="-8" dy="0em">0%</tspan></text></svg></g><g class="visx-group visx-axis-tick" transform="translate(0, 0)"><line class="visx-line" x1="0" y1="43.125" x2="-8" y2="43.125" fill="transparent" shape-rendering="crispEdges" stroke="#222" stroke-width="0" stroke-linecap="square"></line><svg x="-30" y="0" font-size="8" style="overflow:visible"><text transform="" x="-8" y="43.125" fill="#000" font-size="8" text-anchor="start"><tspan x="-8" dy="0em">50%</tspan></text></svg></g><line class="visx-line visx-axis-line" x1="0" y1="115.5" x2="0" y2="0.5" fill="transparent" shape-rendering="crispEdges" stroke="#222" stroke-width="0"></line></g><rect class="visx-bar" width="1450" height="115" fill="transparent"></rect><line class="visx-line" x1="1305" y1="28" x2="1305" y2="115" fill="transparent" shape-rendering="crispEdges" stroke="#0062D2" stroke-width="1" pointer-events="none" stroke-dasharray="5,2"></line><svg x="0" y="0" font-size="10px" style="overflow:visible"><text transform="" x="1305" y="20" font-size="10px" fill="#fff" stroke="#fff" stroke-width="0.8em" text-anchor="middle"><tspan x="1305" dy="0.355em">Optimal 90%</tspan></text></svg><svg x="0" y="0" font-size="10px" style="overflow:visible"><text transform="" x="1305" y="20" font-size="10px" fill="#62677B" text-anchor="middle"><tspan x="1305" dy="0.355em">Optimal 90%</tspan></text></svg></g></svg>