<?xml version="1.0"?><svg xmlns="http://www.w3.org/2000/svg" xmlns:xlink= "http://www.w3.org/1999/xlink" style="background: white;" width="1500" height="300"> <g style="color: black; font-size: 13px; font-family: sans-serif; transform: translate(18px, 25px);"><g><circle r="3" cx="-6" cy="-5" style="fill: #1AD4B3" /><text>Borrow APR, variable</text></g><g style="transform: translateX(150px);"><circle r="3" cx="-6" cy="-5" style="fill: #101423" /><text>Borrow APR, stable</text></g></g><g class="visx-group" transform="translate(45, 50)"><g class="visx-group visx-rows" transform="translate(0, 0)"><line class="visx-line" x1="0" y1="155" x2="1425" y2="155" fill="transparent" shape-rendering="crispEdges" stroke="#F2F0F9" stroke-width="1" pointer-events="none"></line><line class="visx-line" x1="0" y1="77.5" x2="1425" y2="77.5" fill="transparent" shape-rendering="crispEdges" stroke="#F2F0F9" stroke-width="1" pointer-events="none"></line><line class="visx-line" x1="0" y1="0" x2="1425" y2="0" fill="transparent" shape-rendering="crispEdges" stroke="#F2F0F9" stroke-width="1" pointer-events="none"></line></g><path class="visx-linepath" d="M0,154.99999999994833C2.375,154.99138888885875,4.75,154.98277777776917,7.125,154.97416666666666C9.5,154.96555555556415,11.875,154.95694444444445,14.25,154.94833333333335C16.625,154.93972222222226,19,154.93111111111114,21.375,154.9225C23.75,154.9138888888889,26.125,154.90527777777777,28.5,154.89666666666665C30.875,154.88805555555552,33.25,154.87944444444446,35.625,154.87083333333334C38,154.86222222222221,40.375,154.85361111111112,42.75,154.845C45.125,154.83638888888888,47.50000000000001,154.82777777777778,49.87500000000001,154.81916666666666C52.25000000000001,154.81055555555557,54.625,154.80194444444444,57,154.79333333333335C59.375,154.78472222222223,61.75,154.77611111111113,64.125,154.7675C66.5,154.7588888888889,68.875,154.7502777777778,71.25,154.74166666666667C73.625,154.73305555555555,76,154.72444444444446,78.375,154.71583333333334C80.75,154.7072222222222,83.125,154.69861111111112,85.5,154.69C87.875,154.68138888888888,90.25,154.67277777777775,92.625,154.66416666666666C95,154.65555555555554,97.37500000000001,154.64694444444447,99.75000000000001,154.63833333333335C102.12500000000001,154.62972222222226,104.5,154.62111111111113,106.875,154.6125C109.25,154.6038888888889,111.625,154.5952777777778,114,154.58666666666667C116.375,154.57805555555555,118.75000000000001,154.56944444444446,121.12500000000001,154.56083333333333C123.50000000000001,154.5522222222222,125.875,154.54361111111112,128.25,154.535C130.625,154.52638888888887,133,154.51777777777778,135.375,154.50916666666666C137.75,154.50055555555554,140.125,154.49194444444447,142.5,154.48333333333335C144.875,154.47472222222223,147.25,154.46611111111113,149.625,154.4575C152,154.4488888888889,154.375,154.4402777777778,156.75,154.43166666666667C159.125,154.42305555555555,161.5,154.41444444444446,163.875,154.40583333333333C166.25,154.3972222222222,168.625,154.38861111111112,171,154.38C173.375,154.37138888888887,175.75,154.36277777777775,178.125,154.35416666666666C180.5,154.34555555555556,182.875,154.33694444444444,185.25,154.32833333333335C187.625,154.31972222222225,190,154.31111111111113,192.375,154.3025C194.75,154.2938888888889,197.12500000000003,154.2852777777778,199.50000000000003,154.27666666666667C201.875,154.26805555555555,204.25,154.25944444444445,206.62499999999997,154.25083333333333C208.99999999999997,154.2422222222222,211.375,154.23361111111112,213.75,154.225C216.125,154.21638888888887,218.5,154.20777777777778,220.875,154.19916666666666C223.25,154.19055555555553,225.625,154.18194444444447,228,154.17333333333335C230.375,154.16472222222222,232.75,154.15611111111113,235.125,154.1475C237.5,154.13888888888889,239.87500000000003,154.1302777777778,242.25000000000003,154.12166666666667C244.625,154.11305555555555,247,154.10444444444445,249.37499999999997,154.09583333333333C251.74999999999997,154.0872222222222,254.125,154.07861111111112,256.5,154.07C258.875,154.06138888888887,261.25,154.05277777777775,263.625,154.04416666666665C266,154.03555555555556,268.375,154.02694444444444,270.75,154.01833333333335C273.125,154.00972222222225,275.5,154.00111111111113,277.875,153.9925C280.25,153.98388888888888,282.625,153.9752777777778,285,153.96666666666667C287.375,153.95805555555555,289.75,153.94944444444445,292.125,153.94083333333333C294.5,153.9322222222222,296.875,153.9236111111111,299.25,153.915C301.625,153.9063888888889,304,153.89777777777778,306.375,153.88916666666668C308.75,153.8805555555556,311.125,153.87194444444447,313.5,153.86333333333334C315.875,153.85472222222222,318.25,153.84611111111113,320.625,153.8375C323,153.82888888888888,325.375,153.8202777777778,327.75,153.81166666666667C330.125,153.80305555555555,332.5,153.79444444444445,334.875,153.78583333333333C337.25,153.7772222222222,339.625,153.7686111111111,342,153.76C344.375,153.75138888888887,346.75,153.7427777777778,349.125,153.73416666666668C351.5,153.72555555555556,353.875,153.71694444444447,356.25,153.70833333333334C358.625,153.69972222222222,361,153.69111111111113,363.375,153.6825C365.75,153.67388888888888,368.125,153.6652777777778,370.5,153.65666666666667C372.875,153.64805555555554,375.25,153.63944444444445,377.625,153.63083333333333C380,153.6222222222222,382.375,153.61361111111108,384.75,153.605C387.125,153.59638888888887,389.50000000000006,153.5877777777778,391.87500000000006,153.57916666666668C394.25000000000006,153.5705555555556,396.62500000000006,153.56194444444446,399.00000000000006,153.55333333333334C401.375,153.54472222222222,403.75,153.53611111111113,406.12499999999994,153.5275C408.49999999999994,153.51888888888888,410.87499999999994,153.5102777777778,413.24999999999994,153.50166666666667C415.62499999999994,153.49305555555554,418,153.48444444444445,420.375,153.47583333333333C422.75,153.4672222222222,425.125,153.4586111111111,427.5,153.45C429.875,153.44138888888887,432.25,153.4327777777778,434.625,153.42416666666668C437,153.41555555555556,439.375,153.40694444444446,441.75,153.39833333333334C444.125,153.38972222222222,446.5,153.38111111111112,448.875,153.3725C451.25,153.36388888888888,453.625,153.3552777777778,456,153.34666666666666C458.375,153.33805555555554,460.75,153.32944444444445,463.125,153.32083333333333C465.5,153.3122222222222,467.875,153.30361111111108,470.25,153.295C472.625,153.28638888888887,475.00000000000006,153.2777777777778,477.37500000000006,153.26916666666668C479.75000000000006,153.26055555555558,482.12500000000006,153.25194444444446,484.50000000000006,153.24333333333334C486.875,153.23472222222222,489.25,153.22611111111112,491.62499999999994,153.2175C493.99999999999994,153.20888888888888,496.37499999999994,153.20027777777779,498.74999999999994,153.19166666666666C501.12499999999994,153.18305555555554,503.5,153.17444444444445,505.875,153.16583333333332C508.25,153.1572222222222,510.625,153.1486111111111,513,153.14C515.375,153.13138888888886,517.75,153.1227777777778,520.125,153.11416666666668C522.5,153.10555555555555,524.875,153.09694444444446,527.25,153.08833333333334C529.625,153.07972222222222,532,153.07111111111112,534.375,153.0625C536.75,153.05388888888888,539.125,153.04527777777778,541.5,153.03666666666666C543.875,153.02805555555554,546.25,153.01944444444445,548.625,153.01083333333332C551,153.0022222222222,553.375,152.99361111111108,555.75,152.98499999999999C558.125,152.9763888888889,560.5,152.96777777777777,562.875,152.95916666666668C565.25,152.95055555555558,567.625,152.94194444444446,570,152.93333333333334C572.375,152.92472222222221,574.75,152.91611111111112,577.125,152.9075C579.5,152.89888888888888,581.875,152.89027777777778,584.25,152.88166666666666C586.625,152.87305555555554,589,152.86444444444444,591.375,152.85583333333332C593.75,152.8472222222222,596.125,152.8386111111111,598.5,152.82999999999998C600.875,152.82138888888886,603.25,152.8127777777778,605.625,152.80416666666667C608,152.79555555555555,610.375,152.78694444444446,612.75,152.77833333333334C615.125,152.7697222222222,617.5,152.76111111111112,619.875,152.7525C622.25,152.74388888888888,624.625,152.73527777777778,627,152.72666666666666C629.375,152.71805555555554,631.75,152.70944444444444,634.125,152.70083333333332C636.5,152.6922222222222,638.875,152.68361111111113,641.25,152.675C643.625,152.6663888888889,646,152.6577777777778,648.375,152.64916666666667C650.75,152.64055555555555,653.125,152.63194444444446,655.5,152.62333333333333C657.875,152.6147222222222,660.25,152.60611111111112,662.625,152.5975C665,152.58888888888887,667.375,152.58027777777778,669.75,152.57166666666666C672.125,152.56305555555554,674.5,152.5544444444444,676.875,152.54583333333332C679.25,152.53722222222223,681.625,152.5286111111111,684,152.52C686.375,152.51138888888892,688.75,152.5027777777778,691.125,152.49416666666667C693.5,152.48555555555555,695.875,152.47694444444446,698.25,152.46833333333333C700.625,152.4597222222222,703,152.45111111111112,705.375,152.4425C707.75,152.43388888888887,710.125,152.42527777777778,712.5,152.41666666666666C714.875,152.40805555555553,717.25,152.39944444444444,719.625,152.39083333333332C722,152.3822222222222,724.375,152.37361111111113,726.75,152.365C729.125,152.3563888888889,731.5,152.3477777777778,733.875,152.33916666666667C736.25,152.33055555555555,738.625,152.32194444444445,741,152.31333333333333C743.375,152.3047222222222,745.75,152.29611111111112,748.125,152.2875C750.5,152.27888888888887,752.875,152.27027777777778,755.25,152.26166666666666C757.625,152.25305555555553,760,152.2444444444444,762.375,152.23583333333332C764.75,152.22722222222222,767.125,152.2186111111111,769.5,152.21C771.875,152.20138888888889,774.2500000000001,152.1927777777778,776.6250000000001,152.18416666666667C779.0000000000001,152.17555555555555,781.3750000000001,152.16694444444445,783.7500000000001,152.15833333333333C786.1250000000001,152.1497222222222,788.5000000000001,152.14111111111112,790.8750000000001,152.1325C793.2500000000001,152.12388888888887,795.6250000000001,152.11527777777778,798.0000000000001,152.10666666666665C800.375,152.09805555555553,802.75,152.0894444444444,805.1249999999999,152.08083333333332C807.4999999999999,152.0722222222222,809.8749999999999,152.06361111111113,812.2499999999999,152.055C814.6249999999999,152.04638888888888,816.9999999999999,152.0377777777778,819.3749999999999,152.02916666666667C821.7499999999999,152.02055555555555,824.1249999999999,152.01194444444445,826.4999999999999,152.00333333333333C828.8749999999999,151.9947222222222,831.25,151.98611111111111,833.625,151.9775C836,151.96888888888887,838.375,151.96027777777778,840.75,151.95166666666665C843.125,151.94305555555553,845.5,151.9344444444444,847.875,151.92583333333332C850.25,151.91722222222222,852.625,151.9086111111111,855,151.9C857.375,151.8913888888889,859.75,151.8827777777778,862.125,151.87416666666667C864.5,151.86555555555555,866.875,151.85694444444442,869.25,151.84833333333333C871.625,151.83972222222224,874,151.8311111111111,876.375,151.82250000000002C878.75,151.81388888888893,881.125,151.8052777777778,883.5,151.79666666666668C885.875,151.78805555555556,888.25,151.77944444444444,890.625,151.77083333333331C893,151.7622222222222,895.375,151.75361111111113,897.75,151.745C900.125,151.73638888888888,902.5,151.7277777777778,904.875,151.71916666666667C907.25,151.71055555555554,909.625,151.70194444444445,912,151.69333333333333C914.375,151.6847222222222,916.75,151.67611111111114,919.125,151.66750000000002C921.5,151.6588888888889,923.875,151.65027777777777,926.25,151.64166666666665C928.625,151.63305555555553,931,151.62444444444446,933.375,151.61583333333334C935.75,151.60722222222222,938.125,151.59861111111113,940.5,151.59C942.875,151.58138888888888,945.25,151.5727777777778,947.625,151.56416666666667C950,151.55555555555554,952.3750000000001,151.54694444444445,954.7500000000001,151.53833333333333C957.1250000000001,151.52972222222223,959.5000000000001,151.5211111111111,961.8750000000001,151.51250000000002C964.2500000000001,151.50388888888892,966.6250000000001,151.4952777777778,969.0000000000001,151.48666666666668C971.3750000000001,151.47805555555556,973.7500000000001,151.46944444444446,976.1250000000001,151.46083333333334C978.5,151.45222222222222,980.875,151.44361111111112,983.2499999999999,151.435C985.6249999999999,151.42638888888888,987.9999999999999,151.4177777777778,990.3749999999999,151.40916666666666C992.7499999999999,151.40055555555554,995.1249999999999,151.39194444444445,997.4999999999999,151.38333333333333C999.8749999999999,151.3747222222222,1002.2499999999999,151.3661111111111,1004.6249999999999,151.35750000000002C1006.9999999999999,151.3488888888889,1009.375,151.3402777777778,1011.75,151.33166666666668C1014.125,151.32305555555556,1016.5,151.31444444444446,1018.875,151.30583333333334C1021.25,151.29722222222222,1023.625,151.28861111111112,1026,151.28C1028.375,151.27138888888888,1030.75,151.26277777777779,1033.125,151.25416666666666C1035.5,151.24555555555554,1037.875,151.23694444444442,1040.25,151.22833333333332C1042.625,151.21972222222223,1045,151.2111111111111,1047.375,151.20250000000001C1049.75,151.19388888888892,1052.125,151.1852777777778,1054.5,151.17666666666668C1056.875,151.16805555555555,1059.25,151.15944444444446,1061.625,151.15083333333334C1064,151.14222222222222,1066.375,151.13361111111112,1068.75,151.125C1071.125,151.11638888888888,1073.5,151.10777777777778,1075.875,151.09916666666666C1078.25,151.09055555555554,1080.625,151.08194444444445,1083,151.07333333333332C1085.375,151.0647222222222,1087.75,151.05611111111114,1090.125,151.0475C1092.5,151.0388888888889,1094.875,151.0302777777778,1097.25,151.02166666666668C1099.625,151.01305555555555,1102,151.00444444444446,1104.375,150.99583333333334C1106.75,150.98722222222221,1109.125,150.97861111111112,1111.5,150.97C1113.875,150.96138888888888,1116.25,150.95277777777778,1118.625,150.94416666666666C1121,150.93555555555554,1123.375,150.92694444444442,1125.75,150.91833333333332C1128.125,150.90972222222223,1130.5,150.9011111111111,1132.875,150.8925C1135.25,150.88388888888892,1137.625,150.8752777777778,1140,150.86666666666667C1142.375,150.85805555555555,1144.75,150.84944444444446,1147.125,150.84083333333334C1149.5,150.8322222222222,1151.875,150.82361111111112,1154.25,150.815C1156.625,150.80638888888888,1159,150.79777777777778,1161.375,150.78916666666666C1163.75,150.78055555555554,1166.125,150.77194444444444,1168.5,150.76333333333332C1170.875,150.7547222222222,1173.25,150.74611111111113,1175.625,150.7375C1178,150.7288888888889,1180.375,150.7202777777778,1182.75,150.71166666666667C1185.125,150.70305555555555,1187.5,150.69444444444446,1189.875,150.68583333333333C1192.25,150.6772222222222,1194.625,150.66861111111112,1197,150.66C1199.375,150.65138888888887,1201.75,150.64277777777778,1204.125,150.63416666666666C1206.5,150.62555555555554,1208.875,150.61694444444447,1211.25,150.60833333333335C1213.625,150.59972222222223,1216,150.59111111111113,1218.375,150.5825C1220.75,150.5738888888889,1223.125,150.5652777777778,1225.5,150.55666666666667C1227.875,150.54805555555555,1230.25,150.53944444444446,1232.625,150.53083333333333C1235,150.5222222222222,1237.375,150.51361111111112,1239.75,150.505C1242.125,150.49638888888887,1244.5,150.48777777777775,1246.875,150.47916666666666C1249.25,150.47055555555556,1251.625,150.46194444444444,1254,150.45333333333335C1256.375,150.44472222222225,1258.75,150.43611111111113,1261.125,150.4275C1263.5,150.4188888888889,1265.875,150.4102777777778,1268.25,150.40166666666667C1270.625,150.39305555555555,1273,150.38444444444445,1275.375,150.37583333333333C1277.75,150.3672222222222,1280.125,150.3672222222222,1282.5,150.35C1284.875,150.33277777777778,1287.25,146.21666666666664,1289.625,144.14999999999998C1292,142.08333333333331,1294.375,140.01666666666665,1296.75,137.95C1299.125,135.88333333333333,1301.5,133.81666666666666,1303.875,131.75C1306.25,129.68333333333334,1308.625,127.61666666666667,1311,125.55000000000001C1313.375,123.48333333333335,1315.75,121.41666666666669,1318.125,119.35000000000001C1320.5,117.28333333333333,1322.875,115.21666666666667,1325.25,113.14999999999999C1327.625,111.08333333333331,1330,109.01666666666665,1332.375,106.94999999999999C1334.75,104.88333333333333,1337.125,102.81666666666666,1339.5,100.75C1341.875,98.68333333333334,1344.25,96.61666666666666,1346.625,94.55C1349,92.48333333333333,1351.375,90.41666666666667,1353.75,88.35000000000001C1356.125,86.28333333333335,1358.5,84.21666666666667,1360.875,82.15C1363.25,80.08333333333334,1365.625,78.01666666666667,1368,75.95C1370.375,73.88333333333334,1372.75,71.81666666666666,1375.125,69.75C1377.5,67.68333333333334,1379.875,65.61666666666667,1382.25,63.550000000000004C1384.625,61.483333333333334,1387,59.41666666666667,1389.375,57.35C1391.75,55.28333333333333,1394.125,53.216666666666654,1396.5,51.14999999999999C1398.875,49.08333333333333,1401.25,47.016666666666666,1403.625,44.95C1406,42.88333333333334,1408.375,40.81666666666667,1410.75,38.75C1413.125,36.68333333333333,1415.5,34.61666666666666,1417.875,32.55C1420.25,30.48333333333333,1422.625,28.416666666666668,1425,26.350000000000005" fill="transparent" stroke-linecap="round" stroke="#1AD4B3" stroke-width="2"></path><g class="visx-group visx-axis visx-axis-bottom" transform="translate(0, 155)"><g class="visx-group visx-axis-tick" transform="translate(0, 0)"><line class="visx-line" x1="0" y1="0" x2="0" y2="8" fill="transparent" shape-rendering="crispEdges" stroke="#F2F0F9" stroke-width="1" stroke-linecap="square"></line><svg x="0" y="0" font-size="11" style="overflow:visible"><text transform="" x="0" y="19" fill="#1B2030" font-size="11" text-anchor="middle"><tspan x="0" dy="0em">0%</tspan></text></svg></g><g class="visx-group visx-axis-tick" transform="translate(0, 0)"><line class="visx-line" x1="356.25" y1="0" x2="356.25" y2="8" fill="transparent" shape-rendering="crispEdges" stroke="#F2F0F9" stroke-width="1" stroke-linecap="square"></line><svg x="0" y="0" font-size="11" style="overflow:visible"><text transform="" x="356.25" y="19" fill="#1B2030" font-size="11" text-anchor="middle"><tspan x="356.25" dy="0em">25%</tspan></text></svg></g><g class="visx-group visx-axis-tick" transform="translate(0, 0)"><line class="visx-line" x1="712.5" y1="0" x2="712.5" y2="8" fill="transparent" shape-rendering="crispEdges" stroke="#F2F0F9" stroke-width="1" stroke-linecap="square"></line><svg x="0" y="0" font-size="11" style="overflow:visible"><text transform="" x="712.5" y="19" fill="#1B2030" font-size="11" text-anchor="middle"><tspan x="712.5" dy="0em">50%</tspan></text></svg></g><g class="visx-group visx-axis-tick" transform="translate(0, 0)"><line class="visx-line" x1="1068.75" y1="0" x2="1068.75" y2="8" fill="transparent" shape-rendering="crispEdges" stroke="#F2F0F9" stroke-width="1" stroke-linecap="square"></line><svg x="0" y="0" font-size="11" style="overflow:visible"><text transform="" x="1068.75" y="19" fill="#1B2030" font-size="11" text-anchor="middle"><tspan x="1068.75" dy="0em">75%</tspan></text></svg></g><g class="visx-group visx-axis-tick" transform="translate(0, 0)"><line class="visx-line" x1="1425" y1="0" x2="1425" y2="8" fill="transparent" shape-rendering="crispEdges" stroke="#F2F0F9" stroke-width="1" stroke-linecap="square"></line><svg x="0" y="0" font-size="11" style="overflow:visible"><text transform="" x="1425" y="19" fill="#1B2030" font-size="11" text-anchor="middle"><tspan x="1425" dy="0em">100%</tspan></text></svg></g></g><g class="visx-group visx-axis visx-axis-left" transform="translate(0, 0)"><g class="visx-group visx-axis-tick" transform="translate(0, 0)"><line class="visx-line" x1="0" y1="155" x2="-8" y2="155" fill="transparent" shape-rendering="crispEdges" stroke="#F2F0F9" stroke-width="1" stroke-linecap="square"></line><svg x="-30" y="0" font-size="11" style="overflow:visible"><text transform="" x="-8" y="155" fill="#1B2030" font-size="11" text-anchor="start"><tspan x="-8" dy="0em">0%</tspan></text></svg></g><g class="visx-group visx-axis-tick" transform="translate(0, 0)"><line class="visx-line" x1="0" y1="77.5" x2="-8" y2="77.5" fill="transparent" shape-rendering="crispEdges" stroke="#F2F0F9" stroke-width="1" stroke-linecap="square"></line><svg x="-30" y="0" font-size="11" style="overflow:visible"><text transform="" x="-8" y="77.5" fill="#1B2030" font-size="11" text-anchor="start"><tspan x="-8" dy="0em">50%</tspan></text></svg></g><g class="visx-group visx-axis-tick" transform="translate(0, 0)"><line class="visx-line" x1="0" y1="0" x2="-8" y2="0" fill="transparent" shape-rendering="crispEdges" stroke="#F2F0F9" stroke-width="1" stroke-linecap="square"></line><svg x="-30" y="0" font-size="11" style="overflow:visible"><text transform="" x="-8" y="0" fill="#1B2030" font-size="11" text-anchor="start"><tspan x="-8" dy="0em">100%</tspan></text></svg></g><line class="visx-line visx-axis-line" x1="0" y1="155.5" x2="0" y2="0.5" fill="transparent" shape-rendering="crispEdges" stroke="#F2F0F9" stroke-width="1"></line></g><rect class="visx-bar" width="1425" height="155" fill="transparent"></rect><line class="visx-line" x1="1282.5" y1="58" x2="1282.5" y2="155" fill="transparent" shape-rendering="crispEdges" stroke="#CDC8E1" stroke-width="1" pointer-events="none" stroke-dasharray="5"></line><svg x="0" y="0" font-size="11px" style="overflow:visible"><text transform="" x="1282.5" y="50" font-size="11px" fill="#555069" stroke="#FFFFFF" stroke-width="1px" text-anchor="middle"><tspan x="1282.5" dy="0.355em">uOptimal 90%</tspan></text></svg><svg x="0" y="0" font-size="11px" style="overflow:visible"><text transform="" x="1282.5" y="50" font-size="11px" fill="#CDC8E1" text-anchor="middle"><tspan x="1282.5" dy="0.355em">uOptimal 90%</tspan></text></svg></g></svg>