<?xml version="1.0"?><svg xmlns="http://www.w3.org/2000/svg" xmlns:xlink= "http://www.w3.org/1999/xlink" style="background: white;" width="1500" height="185"> <g style="color: black; font-size: 13px; font-family: sans-serif; transform: translate(18px, 25px);"><g><circle r="3" cx="-6" cy="-5" style="fill: #B6509E" /><text>Borrow APR, variable</text></g><g style="transform: translateX(150px);"><circle r="3" cx="-6" cy="-5" style="fill: rgb(231, 198, 223)" /><text>Borrow APR, stable</text></g><g style="transform: translateX(290px);"><circle r="3" cx="-6" cy="-5" style="fill: rgb(0, 98, 210)" /><text>Utilization Rate</text></g></g><g class="visx-group" transform="translate(40, 50)"><g class="visx-group visx-rows" transform="translate(0, 0)"><line class="visx-line" x1="0" y1="115" x2="1450" y2="115" fill="transparent" shape-rendering="crispEdges" stroke="#000" stroke-width="1" stroke-dasharray="3,3" pointer-events="none"></line><line class="visx-line" x1="0" y1="89.44444444444444" x2="1450" y2="89.44444444444444" fill="transparent" shape-rendering="crispEdges" stroke="#000" stroke-width="1" stroke-dasharray="3,3" pointer-events="none"></line><line class="visx-line" x1="0" y1="63.88888888888889" x2="1450" y2="63.88888888888889" fill="transparent" shape-rendering="crispEdges" stroke="#000" stroke-width="1" stroke-dasharray="3,3" pointer-events="none"></line><line class="visx-line" x1="0" y1="38.333333333333336" x2="1450" y2="38.333333333333336" fill="transparent" shape-rendering="crispEdges" stroke="#000" stroke-width="1" stroke-dasharray="3,3" pointer-events="none"></line><line class="visx-line" x1="0" y1="12.777777777777784" x2="1450" y2="12.777777777777784" fill="transparent" shape-rendering="crispEdges" stroke="#000" stroke-width="1" stroke-dasharray="3,3" pointer-events="none"></line></g><path class="visx-linepath" d="M0,114.99999999993611C2.4166666666666665,114.98935185181458,4.833333333333334,114.97870370369304,7.25,114.96805555555555C9.666666666666666,114.95740740741806,12.083333333333334,114.94675925925927,14.5,114.93611111111112C16.916666666666668,114.92546296296297,19.333333333333332,114.91481481481482,21.75,114.90416666666667C24.166666666666668,114.89351851851852,26.583333333333332,114.88287037037038,29,114.87222222222223C31.416666666666668,114.86157407407408,33.833333333333336,114.85092592592592,36.25,114.84027777777777C38.666666666666664,114.82962962962962,41.083333333333336,114.81898148148147,43.5,114.80833333333332C45.91666666666667,114.79768518518517,48.333333333333336,114.78703703703704,50.75000000000001,114.77638888888889C53.16666666666667,114.76574074074074,55.583333333333336,114.75509259259259,58,114.74444444444444C60.416666666666664,114.73379629629629,62.833333333333336,114.72314814814816,65.25,114.7125C67.66666666666667,114.70185185185186,70.08333333333333,114.6912037037037,72.5,114.68055555555556C74.91666666666667,114.66990740740741,77.33333333333333,114.65925925925926,79.75,114.64861111111111C82.16666666666667,114.63796296296296,84.58333333333333,114.62731481481482,87,114.61666666666667C89.41666666666667,114.60601851851852,91.83333333333333,114.59537037037038,94.25,114.58472222222223C96.66666666666667,114.57407407407408,99.08333333333334,114.56342592592593,101.50000000000001,114.55277777777778C103.91666666666667,114.54212962962963,106.33333333333334,114.53148148148148,108.75,114.52083333333333C111.16666666666667,114.51018518518518,113.58333333333333,114.49953703703703,116,114.48888888888888C118.41666666666667,114.47824074074073,120.83333333333334,114.4675925925926,123.25000000000001,114.45694444444445C125.66666666666667,114.4462962962963,128.08333333333334,114.43564814814815,130.5,114.425C132.91666666666666,114.41435185185185,135.33333333333334,114.4037037037037,137.75,114.39305555555555C140.16666666666666,114.3824074074074,142.58333333333334,114.37175925925926,145,114.36111111111111C147.41666666666666,114.35046296296296,149.83333333333334,114.33981481481482,152.25,114.32916666666667C154.66666666666666,114.31851851851852,157.08333333333334,114.30787037037038,159.5,114.29722222222223C161.91666666666666,114.28657407407408,164.33333333333334,114.27592592592593,166.75,114.26527777777778C169.16666666666666,114.25462962962963,171.58333333333334,114.24398148148148,174,114.23333333333333C176.41666666666666,114.22268518518518,178.83333333333334,114.21203703703704,181.25,114.20138888888889C183.66666666666666,114.19074074074074,186.08333333333334,114.18009259259259,188.5,114.16944444444444C190.91666666666666,114.15879629629629,193.33333333333334,114.14814814814815,195.75,114.1375C198.16666666666669,114.12685185185185,200.58333333333334,114.1162037037037,203.00000000000003,114.10555555555555C205.41666666666669,114.0949074074074,207.83333333333331,114.08425925925926,210.24999999999997,114.0736111111111C212.66666666666666,114.06296296296296,215.08333333333331,114.05231481481482,217.5,114.04166666666667C219.91666666666666,114.03101851851852,222.33333333333334,114.02037037037037,224.75,114.00972222222222C227.16666666666666,113.99907407407407,229.58333333333334,113.98842592592594,232,113.97777777777779C234.41666666666666,113.96712962962964,236.83333333333334,113.95648148148149,239.25,113.94583333333334C241.66666666666669,113.93518518518519,244.08333333333334,113.92453703703704,246.50000000000003,113.91388888888889C248.91666666666669,113.90324074074074,251.33333333333331,113.89259259259259,253.74999999999997,113.88194444444444C256.16666666666663,113.8712962962963,258.5833333333333,113.86064814814814,261,113.85C263.4166666666667,113.83935185185184,265.8333333333333,113.8287037037037,268.25,113.81805555555555C270.6666666666667,113.8074074074074,273.0833333333333,113.79675925925926,275.5,113.78611111111111C277.9166666666667,113.77546296296296,280.3333333333333,113.76481481481481,282.75,113.75416666666666C285.1666666666667,113.74351851851851,287.5833333333333,113.73287037037038,290,113.72222222222223C292.4166666666667,113.71157407407408,294.8333333333333,113.70092592592593,297.25,113.69027777777778C299.6666666666667,113.67962962962963,302.0833333333333,113.66898148148148,304.5,113.65833333333333C306.9166666666667,113.64768518518518,309.3333333333333,113.63703703703705,311.75,113.6263888888889C314.1666666666667,113.61574074074075,316.5833333333333,113.6050925925926,319,113.59444444444445C321.4166666666667,113.5837962962963,323.8333333333333,113.57314814814815,326.25,113.5625C328.6666666666667,113.55185185185185,331.0833333333333,113.5412037037037,333.5,113.53055555555555C335.9166666666667,113.5199074074074,338.3333333333333,113.50925925925925,340.75,113.4986111111111C343.1666666666667,113.48796296296295,345.5833333333333,113.47731481481482,348,113.46666666666667C350.4166666666667,113.45601851851852,352.8333333333333,113.44537037037037,355.25,113.43472222222222C357.6666666666667,113.42407407407407,360.0833333333333,113.41342592592594,362.5,113.40277777777779C364.9166666666667,113.39212962962964,367.3333333333333,113.38148148148149,369.75,113.37083333333334C372.1666666666667,113.36018518518519,374.5833333333333,113.34953703703704,377,113.33888888888889C379.4166666666667,113.32824074074074,381.8333333333333,113.3175925925926,384.25,113.30694444444445C386.6666666666667,113.2962962962963,389.0833333333333,113.28564814814814,391.5,113.27499999999999C393.9166666666667,113.26435185185184,396.33333333333337,113.2537037037037,398.75000000000006,113.24305555555556C401.16666666666674,113.23240740740741,403.58333333333337,113.22175925925926,406.00000000000006,113.21111111111111C408.4166666666667,113.20046296296296,410.8333333333333,113.18981481481481,413.24999999999994,113.17916666666666C415.66666666666663,113.16851851851851,418.08333333333326,113.15787037037038,420.49999999999994,113.14722222222223C422.91666666666663,113.13657407407408,425.3333333333333,113.12592592592593,427.75,113.11527777777778C430.1666666666667,113.10462962962963,432.5833333333333,113.09398148148148,435,113.08333333333333C437.4166666666667,113.07268518518518,439.8333333333333,113.06203703703704,442.25,113.0513888888889C444.6666666666667,113.04074074074074,447.0833333333333,113.0300925925926,449.5,113.01944444444445C451.9166666666667,113.0087962962963,454.3333333333333,112.99814814814816,456.75,112.98750000000001C459.1666666666667,112.97685185185186,461.5833333333333,112.9662037037037,464,112.95555555555555C466.4166666666667,112.9449074074074,468.8333333333333,112.93425925925925,471.25,112.9236111111111C473.6666666666667,112.91296296296295,476.0833333333333,112.90231481481482,478.5,112.89166666666667C480.9166666666667,112.88101851851852,483.33333333333337,112.87037037037037,485.75000000000006,112.85972222222222C488.16666666666674,112.84907407407407,490.58333333333337,112.83842592592593,493.00000000000006,112.82777777777778C495.4166666666667,112.81712962962963,497.8333333333333,112.80648148148148,500.24999999999994,112.79583333333333C502.66666666666663,112.78518518518518,505.08333333333326,112.77453703703704,507.49999999999994,112.76388888888889C509.91666666666663,112.75324074074074,512.3333333333333,112.7425925925926,514.75,112.73194444444445C517.1666666666666,112.7212962962963,519.5833333333334,112.71064814814815,522,112.7C524.4166666666666,112.68935185185185,526.8333333333334,112.6787037037037,529.25,112.66805555555555C531.6666666666666,112.6574074074074,534.0833333333334,112.64675925925926,536.5,112.6361111111111C538.9166666666666,112.62546296296296,541.3333333333334,112.6148148148148,543.75,112.60416666666666C546.1666666666666,112.59351851851851,548.5833333333334,112.58287037037037,551,112.57222222222222C553.4166666666666,112.56157407407407,555.8333333333334,112.55092592592592,558.25,112.54027777777777C560.6666666666666,112.52962962962962,563.0833333333334,112.51898148148148,565.5,112.50833333333333C567.9166666666666,112.49768518518518,570.3333333333334,112.48703703703704,572.75,112.47638888888889C575.1666666666666,112.46574074074074,577.5833333333334,112.45509259259259,580,112.44444444444444C582.4166666666666,112.4337962962963,584.8333333333334,112.42314814814816,587.25,112.41250000000001C589.6666666666666,112.40185185185186,592.0833333333334,112.39120370370371,594.5,112.38055555555556C596.9166666666666,112.36990740740741,599.3333333333334,112.35925925925926,601.75,112.34861111111111C604.1666666666666,112.33796296296296,606.5833333333334,112.32731481481481,609,112.31666666666666C611.4166666666666,112.30601851851851,613.8333333333334,112.29537037037036,616.25,112.28472222222221C618.6666666666666,112.27407407407406,621.0833333333334,112.26342592592593,623.5,112.25277777777778C625.9166666666666,112.24212962962963,628.3333333333334,112.23148148148148,630.75,112.22083333333333C633.1666666666666,112.21018518518518,635.5833333333334,112.19953703703703,638,112.18888888888888C640.4166666666666,112.17824074074073,642.8333333333334,112.1675925925926,645.25,112.15694444444445C647.6666666666666,112.1462962962963,650.0833333333334,112.13564814814815,652.5,112.125C654.9166666666666,112.11435185185185,657.3333333333334,112.10370370370372,659.75,112.09305555555557C662.1666666666666,112.08240740740742,664.5833333333334,112.07175925925927,667,112.06111111111112C669.4166666666666,112.05046296296297,671.8333333333334,112.03981481481482,674.25,112.02916666666667C676.6666666666666,112.01851851851852,679.0833333333334,112.00787037037037,681.5,111.99722222222222C683.9166666666666,111.98657407407407,686.3333333333334,111.97592592592592,688.75,111.96527777777777C691.1666666666666,111.95462962962962,693.5833333333334,111.94398148148149,696,111.93333333333334C698.4166666666666,111.92268518518519,700.8333333333334,111.91203703703704,703.25,111.90138888888889C705.6666666666666,111.89074074074074,708.0833333333334,111.88009259259259,710.5,111.86944444444444C712.9166666666666,111.85879629629629,715.3333333333334,111.84814814814816,717.75,111.8375C720.1666666666666,111.82685185185186,722.5833333333334,111.8162037037037,725,111.80555555555556C727.4166666666666,111.79490740740741,729.8333333333334,111.78425925925926,732.25,111.77361111111111C734.6666666666666,111.76296296296296,737.0833333333334,111.75231481481482,739.5,111.74166666666667C741.9166666666666,111.73101851851852,744.3333333333334,111.72037037037036,746.75,111.70972222222221C749.1666666666666,111.69907407407406,751.5833333333334,111.68842592592593,754,111.67777777777778C756.4166666666666,111.66712962962963,758.8333333333334,111.65648148148148,761.25,111.64583333333333C763.6666666666666,111.63518518518518,766.0833333333334,111.62453703703703,768.5,111.61388888888888C770.9166666666666,111.60324074074073,773.3333333333334,111.5925925925926,775.75,111.58194444444445C778.1666666666666,111.5712962962963,780.5833333333334,111.56064814814815,783,111.55C785.4166666666667,111.53935185185185,787.8333333333334,111.52870370370371,790.2500000000001,111.51805555555556C792.6666666666667,111.50740740740741,795.0833333333335,111.49675925925926,797.5000000000001,111.48611111111111C799.9166666666667,111.47546296296296,802.3333333333335,111.46481481481482,804.7500000000001,111.45416666666667C807.1666666666667,111.44351851851852,809.5833333333335,111.43287037037038,812.0000000000001,111.42222222222223C814.4166666666667,111.41157407407408,816.8333333333333,111.40092592592592,819.2499999999999,111.39027777777777C821.6666666666665,111.37962962962962,824.0833333333333,111.36898148148148,826.4999999999999,111.35833333333333C828.9166666666665,111.34768518518518,831.3333333333333,111.33703703703704,833.7499999999999,111.32638888888889C836.1666666666665,111.31574074074074,838.5833333333333,111.30509259259259,840.9999999999999,111.29444444444444C843.4166666666666,111.28379629629629,845.8333333333333,111.27314814814815,848.25,111.2625C850.6666666666666,111.25185185185185,853.0833333333334,111.2412037037037,855.5,111.23055555555555C857.9166666666666,111.2199074074074,860.3333333333334,111.20925925925927,862.75,111.19861111111112C865.1666666666666,111.18796296296297,867.5833333333334,111.17731481481482,870,111.16666666666667C872.4166666666666,111.15601851851852,874.8333333333334,111.14537037037037,877.25,111.13472222222222C879.6666666666666,111.12407407407407,882.0833333333334,111.11342592592594,884.5,111.10277777777779C886.9166666666666,111.09212962962964,889.3333333333334,111.08148148148148,891.75,111.07083333333333C894.1666666666666,111.06018518518518,896.5833333333334,111.04953703703703,899,111.03888888888888C901.4166666666666,111.02824074074073,903.8333333333334,111.01759259259259,906.25,111.00694444444444C908.6666666666666,110.9962962962963,911.0833333333334,110.98564814814814,913.5,110.975C915.9166666666666,110.96435185185184,918.3333333333334,110.95370370370371,920.75,110.94305555555556C923.1666666666666,110.93240740740741,925.5833333333334,110.92175925925926,928,110.91111111111111C930.4166666666666,110.90046296296296,932.8333333333334,110.88981481481481,935.25,110.87916666666666C937.6666666666666,110.86851851851851,940.0833333333334,110.85787037037038,942.5,110.84722222222223C944.9166666666666,110.83657407407408,947.3333333333334,110.82592592592593,949.75,110.81527777777778C952.1666666666666,110.80462962962963,954.5833333333334,110.79398148148148,957,110.78333333333333C959.4166666666666,110.77268518518518,961.8333333333334,110.76203703703703,964.25,110.75138888888888C966.6666666666667,110.74074074074073,969.0833333333334,110.73009259259258,971.5000000000001,110.71944444444443C973.9166666666667,110.70879629629628,976.3333333333335,110.69814814814815,978.7500000000001,110.6875C981.1666666666667,110.67685185185185,983.5833333333335,110.6662037037037,986.0000000000001,110.65555555555555C988.4166666666667,110.6449074074074,990.8333333333335,110.63425925925927,993.2500000000001,110.62361111111112C995.6666666666667,110.61296296296297,998.0833333333333,110.60231481481482,1000.4999999999999,110.59166666666667C1002.9166666666665,110.58101851851852,1005.3333333333333,110.57037037037037,1007.7499999999999,110.55972222222222C1010.1666666666665,110.54907407407407,1012.5833333333333,110.53842592592594,1014.9999999999999,110.52777777777779C1017.4166666666665,110.51712962962964,1019.8333333333333,110.50648148148149,1022.2499999999999,110.49583333333334C1024.6666666666665,110.48518518518519,1027.0833333333333,110.47453703703704,1029.5,110.46388888888889C1031.9166666666667,110.45324074074074,1034.3333333333333,110.44259259259259,1036.75,110.43194444444444C1039.1666666666667,110.42129629629629,1041.5833333333333,110.41064814814814,1044,110.39999999999999C1046.4166666666667,110.38935185185184,1048.8333333333333,110.3787037037037,1051.25,110.36805555555556C1053.6666666666667,110.35740740740741,1056.0833333333333,110.34675925925926,1058.5,110.33611111111111C1060.9166666666667,110.32546296296296,1063.3333333333333,110.31481481481482,1065.75,110.30416666666667C1068.1666666666667,110.29351851851852,1070.5833333333333,110.28287037037038,1073,110.27222222222223C1075.4166666666667,110.26157407407408,1077.8333333333333,110.25092592592593,1080.25,110.24027777777778C1082.6666666666667,110.22962962962963,1085.0833333333333,110.21898148148149,1087.5,110.20833333333334C1089.9166666666667,110.1976851851852,1092.3333333333333,110.18703703703704,1094.75,110.1763888888889C1097.1666666666667,110.16574074074074,1099.5833333333333,110.1550925925926,1102,110.14444444444445C1104.4166666666667,110.1337962962963,1106.8333333333333,110.12314814814815,1109.25,110.1125C1111.6666666666667,110.10185185185185,1114.0833333333333,110.0912037037037,1116.5,110.08055555555555C1118.9166666666667,110.0699074074074,1121.3333333333333,110.05925925925926,1123.75,110.04861111111111C1126.1666666666667,110.03796296296296,1128.5833333333333,110.02731481481482,1131,110.01666666666667C1133.4166666666667,110.00601851851852,1135.8333333333333,109.99537037037037,1138.25,109.98472222222222C1140.6666666666667,109.97407407407407,1143.0833333333333,109.96342592592593,1145.5,109.95277777777778C1147.9166666666667,109.94212962962963,1150.3333333333333,109.93148148148148,1152.75,109.92083333333333C1155.1666666666667,109.91018518518518,1157.5833333333333,109.91018518518518,1160,109.8888888888889C1162.4166666666667,109.86759259259262,1164.8333333333333,108.29166666666667,1167.25,107.49305555555556C1169.6666666666667,106.69444444444444,1172.0833333333333,105.89583333333333,1174.5,105.09722222222221C1176.9166666666667,104.2986111111111,1179.3333333333333,103.50000000000001,1181.75,102.7013888888889C1184.1666666666667,101.90277777777779,1186.5833333333333,101.10416666666667,1189,100.30555555555556C1191.4166666666667,99.50694444444444,1193.8333333333333,98.70833333333333,1196.25,97.90972222222221C1198.6666666666667,97.1111111111111,1201.0833333333333,96.3125,1203.5,95.51388888888889C1205.9166666666667,94.71527777777777,1208.3333333333333,93.91666666666667,1210.75,93.11805555555556C1213.1666666666667,92.31944444444444,1215.5833333333333,91.52083333333333,1218,90.72222222222221C1220.4166666666667,89.9236111111111,1222.8333333333333,89.125,1225.25,88.32638888888889C1227.6666666666667,87.52777777777777,1230.0833333333333,86.72916666666667,1232.5,85.93055555555556C1234.9166666666667,85.13194444444444,1237.3333333333333,84.33333333333333,1239.75,83.53472222222221C1242.1666666666667,82.7361111111111,1244.5833333333333,81.9375,1247,81.13888888888889C1249.4166666666667,80.34027777777777,1251.8333333333333,79.54166666666667,1254.25,78.74305555555556C1256.6666666666667,77.94444444444444,1259.0833333333333,77.14583333333333,1261.5,76.34722222222221C1263.9166666666667,75.5486111111111,1266.3333333333333,74.75,1268.75,73.95138888888889C1271.1666666666667,73.15277777777777,1273.5833333333333,72.35416666666667,1276,71.55555555555556C1278.4166666666667,70.75694444444444,1280.8333333333333,69.95833333333333,1283.25,69.15972222222221C1285.6666666666667,68.3611111111111,1288.0833333333333,67.5625,1290.5,66.76388888888889C1292.9166666666667,65.96527777777777,1295.3333333333333,65.16666666666667,1297.75,64.36805555555556C1300.1666666666667,63.56944444444444,1302.5833333333333,62.770833333333336,1305,61.97222222222222C1307.4166666666667,61.17361111111111,1309.8333333333333,60.374999999999986,1312.25,59.57638888888888C1314.6666666666667,58.77777777777777,1317.0833333333333,57.979166666666664,1319.5,57.18055555555556C1321.9166666666667,56.38194444444445,1324.3333333333333,55.58333333333333,1326.75,54.78472222222222C1329.1666666666667,53.986111111111114,1331.5833333333333,53.1875,1334,52.38888888888889C1336.4166666666667,51.590277777777786,1338.8333333333333,50.79166666666667,1341.25,49.99305555555556C1343.6666666666667,49.19444444444444,1346.0833333333333,48.39583333333333,1348.5,47.59722222222222C1350.9166666666667,46.798611111111114,1353.3333333333333,46,1355.75,45.20138888888889C1358.1666666666667,44.402777777777786,1360.5833333333333,43.604166666666686,1363,42.80555555555557C1365.4166666666667,42.00694444444446,1367.8333333333333,41.208333333333336,1370.25,40.40972222222222C1372.6666666666667,39.61111111111111,1375.0833333333333,38.8125,1377.5,38.01388888888889C1379.9166666666667,37.215277777777786,1382.3333333333333,36.41666666666667,1384.75,35.61805555555556C1387.1666666666667,34.81944444444444,1389.5833333333333,34.02083333333333,1392,33.22222222222222C1394.4166666666667,32.423611111111114,1396.8333333333333,31.625000000000004,1399.25,30.826388888888893C1401.6666666666667,30.027777777777782,1404.0833333333333,29.229166666666668,1406.5,28.430555555555557C1408.9166666666667,27.631944444444446,1411.3333333333333,26.83333333333333,1413.75,26.034722222222218C1416.1666666666667,25.236111111111107,1418.5833333333333,24.437500000000004,1421,23.638888888888893C1423.4166666666667,22.840277777777782,1425.8333333333333,22.041666666666668,1428.25,21.243055555555557C1430.6666666666667,20.444444444444446,1433.0833333333333,19.64583333333333,1435.5,18.847222222222218C1437.9166666666667,18.048611111111107,1440.3333333333333,17.250000000000004,1442.75,16.451388888888893C1445.1666666666667,15.652777777777782,1447.5833333333333,14.85416666666667,1450,14.055555555555557" fill="transparent" stroke-linecap="round" stroke="#B6509E" stroke-width="2"></path><path class="visx-linepath" d="M0,108.61111111104722C2.4166666666666665,108.60046296292569,4.833333333333334,108.58981481480417,7.25,108.57916666666667C9.666666666666666,108.56851851852916,12.083333333333334,108.55787037037037,14.5,108.54722222222222C16.916666666666668,108.53657407407407,19.333333333333332,108.52592592592592,21.75,108.51527777777777C24.166666666666668,108.50462962962962,26.583333333333332,108.49398148148148,29,108.48333333333333C31.416666666666668,108.47268518518518,33.833333333333336,108.46203703703704,36.25,108.45138888888889C38.666666666666664,108.44074074074074,41.083333333333336,108.4300925925926,43.5,108.41944444444445C45.91666666666667,108.4087962962963,48.333333333333336,108.39814814814815,50.75000000000001,108.3875C53.16666666666667,108.37685185185185,55.583333333333336,108.3662037037037,58,108.35555555555555C60.416666666666664,108.3449074074074,62.833333333333336,108.33425925925927,65.25,108.32361111111112C67.66666666666667,108.31296296296297,70.08333333333333,108.30231481481482,72.5,108.29166666666667C74.91666666666667,108.28101851851852,77.33333333333333,108.27037037037037,79.75,108.25972222222222C82.16666666666667,108.24907407407407,84.58333333333333,108.23842592592592,87,108.22777777777777C89.41666666666667,108.21712962962962,91.83333333333333,108.20648148148148,94.25,108.19583333333333C96.66666666666667,108.18518518518518,99.08333333333334,108.17453703703704,101.50000000000001,108.16388888888889C103.91666666666667,108.15324074074074,106.33333333333334,108.14259259259259,108.75,108.13194444444444C111.16666666666667,108.1212962962963,113.58333333333333,108.11064814814814,116,108.1C118.41666666666667,108.08935185185184,120.83333333333334,108.07870370370371,123.25000000000001,108.06805555555556C125.66666666666667,108.05740740740741,128.08333333333334,108.04675925925926,130.5,108.03611111111111C132.91666666666666,108.02546296296296,135.33333333333334,108.01481481481483,137.75,108.00416666666668C140.16666666666666,107.99351851851853,142.58333333333334,107.98287037037038,145,107.97222222222223C147.41666666666666,107.96157407407408,149.83333333333334,107.95092592592592,152.25,107.94027777777777C154.66666666666666,107.92962962962962,157.08333333333334,107.91898148148148,159.5,107.90833333333333C161.91666666666666,107.89768518518518,164.33333333333334,107.88703703703703,166.75,107.87638888888888C169.16666666666666,107.86574074074073,171.58333333333334,107.8550925925926,174,107.84444444444445C176.41666666666666,107.8337962962963,178.83333333333334,107.82314814814815,181.25,107.8125C183.66666666666666,107.80185185185185,186.08333333333334,107.7912037037037,188.5,107.78055555555555C190.91666666666666,107.7699074074074,193.33333333333334,107.75925925925927,195.75,107.74861111111112C198.16666666666669,107.73796296296297,200.58333333333334,107.72731481481482,203.00000000000003,107.71666666666667C205.41666666666669,107.70601851851852,207.83333333333331,107.69537037037038,210.24999999999997,107.68472222222223C212.66666666666666,107.67407407407408,215.08333333333331,107.66342592592592,217.5,107.65277777777777C219.91666666666666,107.64212962962962,222.33333333333334,107.63148148148147,224.75,107.62083333333332C227.16666666666666,107.61018518518517,229.58333333333334,107.59953703703704,232,107.58888888888889C234.41666666666666,107.57824074074074,236.83333333333334,107.56759259259259,239.25,107.55694444444444C241.66666666666669,107.54629629629629,244.08333333333334,107.53564814814816,246.50000000000003,107.525C248.91666666666669,107.51435185185186,251.33333333333331,107.5037037037037,253.74999999999997,107.49305555555556C256.16666666666663,107.48240740740741,258.5833333333333,107.47175925925926,261,107.46111111111111C263.4166666666667,107.45046296296296,265.8333333333333,107.43981481481482,268.25,107.42916666666667C270.6666666666667,107.41851851851852,273.0833333333333,107.40787037037038,275.5,107.39722222222223C277.9166666666667,107.38657407407408,280.3333333333333,107.37592592592594,282.75,107.36527777777779C285.1666666666667,107.35462962962964,287.5833333333333,107.34398148148148,290,107.33333333333333C292.4166666666667,107.32268518518518,294.8333333333333,107.31203703703703,297.25,107.30138888888888C299.6666666666667,107.29074074074073,302.0833333333333,107.2800925925926,304.5,107.26944444444445C306.9166666666667,107.2587962962963,309.3333333333333,107.24814814814815,311.75,107.2375C314.1666666666667,107.22685185185185,316.5833333333333,107.21620370370371,319,107.20555555555556C321.4166666666667,107.19490740740741,323.8333333333333,107.18425925925926,326.25,107.17361111111111C328.6666666666667,107.16296296296296,331.0833333333333,107.15231481481482,333.5,107.14166666666667C335.9166666666667,107.13101851851852,338.3333333333333,107.12037037037038,340.75,107.10972222222223C343.1666666666667,107.09907407407408,345.5833333333333,107.08842592592593,348,107.07777777777778C350.4166666666667,107.06712962962963,352.8333333333333,107.05648148148148,355.25,107.04583333333333C357.6666666666667,107.03518518518518,360.0833333333333,107.02453703703704,362.5,107.01388888888889C364.9166666666667,107.00324074074074,367.3333333333333,106.99259259259259,369.75,106.98194444444444C372.1666666666667,106.97129629629629,374.5833333333333,106.96064814814815,377,106.95C379.4166666666667,106.93935185185185,381.8333333333333,106.9287037037037,384.25,106.91805555555555C386.6666666666667,106.9074074074074,389.0833333333333,106.89675925925926,391.5,106.8861111111111C393.9166666666667,106.87546296296296,396.33333333333337,106.86481481481482,398.75000000000006,106.85416666666667C401.16666666666674,106.84351851851852,403.58333333333337,106.83287037037037,406.00000000000006,106.82222222222222C408.4166666666667,106.81157407407407,410.8333333333333,106.80092592592592,413.24999999999994,106.79027777777777C415.66666666666663,106.77962962962962,418.08333333333326,106.76898148148149,420.49999999999994,106.75833333333334C422.91666666666663,106.74768518518519,425.3333333333333,106.73703703703704,427.75,106.72638888888889C430.1666666666667,106.71574074074074,432.5833333333333,106.70509259259259,435,106.69444444444444C437.4166666666667,106.6837962962963,439.8333333333333,106.67314814814814,442.25,106.6625C444.6666666666667,106.65185185185184,447.0833333333333,106.6412037037037,449.5,106.63055555555555C451.9166666666667,106.6199074074074,454.3333333333333,106.60925925925926,456.75,106.59861111111111C459.1666666666667,106.58796296296296,461.5833333333333,106.57731481481481,464,106.56666666666666C466.4166666666667,106.55601851851851,468.8333333333333,106.54537037037038,471.25,106.53472222222223C473.6666666666667,106.52407407407408,476.0833333333333,106.51342592592593,478.5,106.50277777777778C480.9166666666667,106.49212962962963,483.33333333333337,106.48148148148148,485.75000000000006,106.47083333333333C488.16666666666674,106.46018518518518,490.58333333333337,106.44953703703705,493.00000000000006,106.4388888888889C495.4166666666667,106.42824074074075,497.8333333333333,106.4175925925926,500.24999999999994,106.40694444444445C502.66666666666663,106.3962962962963,505.08333333333326,106.38564814814815,507.49999999999994,106.375C509.91666666666663,106.36435185185185,512.3333333333333,106.3537037037037,514.75,106.34305555555555C517.1666666666666,106.3324074074074,519.5833333333334,106.32175925925925,522,106.3111111111111C524.4166666666666,106.30046296296295,526.8333333333334,106.28981481481482,529.25,106.27916666666667C531.6666666666666,106.26851851851852,534.0833333333334,106.25787037037037,536.5,106.24722222222222C538.9166666666666,106.23657407407407,541.3333333333334,106.22592592592594,543.75,106.21527777777779C546.1666666666666,106.20462962962964,548.5833333333334,106.19398148148149,551,106.18333333333334C553.4166666666666,106.17268518518519,555.8333333333334,106.16203703703704,558.25,106.15138888888889C560.6666666666666,106.14074074074074,563.0833333333334,106.1300925925926,565.5,106.11944444444445C567.9166666666666,106.1087962962963,570.3333333333334,106.09814814814814,572.75,106.08749999999999C575.1666666666666,106.07685185185184,577.5833333333334,106.06620370370369,580,106.05555555555554C582.4166666666666,106.0449074074074,584.8333333333334,106.03425925925926,587.25,106.02361111111111C589.6666666666666,106.01296296296296,592.0833333333334,106.00231481481481,594.5,105.99166666666666C596.9166666666666,105.98101851851851,599.3333333333334,105.97037037037038,601.75,105.95972222222223C604.1666666666666,105.94907407407408,606.5833333333334,105.93842592592593,609,105.92777777777778C611.4166666666666,105.91712962962963,613.8333333333334,105.90648148148149,616.25,105.89583333333334C618.6666666666666,105.8851851851852,621.0833333333334,105.87453703703704,623.5,105.8638888888889C625.9166666666666,105.85324074074074,628.3333333333334,105.8425925925926,630.75,105.83194444444445C633.1666666666666,105.8212962962963,635.5833333333334,105.81064814814816,638,105.80000000000001C640.4166666666666,105.78935185185186,642.8333333333334,105.7787037037037,645.25,105.76805555555555C647.6666666666666,105.7574074074074,650.0833333333334,105.74675925925926,652.5,105.73611111111111C654.9166666666666,105.72546296296296,657.3333333333334,105.71481481481482,659.75,105.70416666666667C662.1666666666666,105.69351851851852,664.5833333333334,105.68287037037037,667,105.67222222222222C669.4166666666666,105.66157407407407,671.8333333333334,105.65092592592593,674.25,105.64027777777778C676.6666666666666,105.62962962962963,679.0833333333334,105.61898148148148,681.5,105.60833333333333C683.9166666666666,105.59768518518518,686.3333333333334,105.58703703703704,688.75,105.57638888888889C691.1666666666666,105.56574074074074,693.5833333333334,105.5550925925926,696,105.54444444444445C698.4166666666666,105.5337962962963,700.8333333333334,105.52314814814815,703.25,105.5125C705.6666666666666,105.50185185185185,708.0833333333334,105.4912037037037,710.5,105.48055555555555C712.9166666666666,105.4699074074074,715.3333333333334,105.45925925925926,717.75,105.4486111111111C720.1666666666666,105.43796296296296,722.5833333333334,105.4273148148148,725,105.41666666666666C727.4166666666666,105.40601851851851,729.8333333333334,105.39537037037037,732.25,105.38472222222222C734.6666666666666,105.37407407407407,737.0833333333334,105.36342592592592,739.5,105.35277777777777C741.9166666666666,105.34212962962962,744.3333333333334,105.33148148148148,746.75,105.32083333333333C749.1666666666666,105.31018518518518,751.5833333333334,105.29953703703704,754,105.28888888888889C756.4166666666666,105.27824074074074,758.8333333333334,105.26759259259259,761.25,105.25694444444444C763.6666666666666,105.2462962962963,766.0833333333334,105.23564814814816,768.5,105.22500000000001C770.9166666666666,105.21435185185186,773.3333333333334,105.20370370370371,775.75,105.19305555555556C778.1666666666666,105.18240740740741,780.5833333333334,105.17175925925926,783,105.16111111111111C785.4166666666667,105.15046296296296,787.8333333333334,105.13981481481481,790.2500000000001,105.12916666666666C792.6666666666667,105.11851851851851,795.0833333333335,105.10787037037036,797.5000000000001,105.09722222222221C799.9166666666667,105.08657407407406,802.3333333333335,105.07592592592593,804.7500000000001,105.06527777777778C807.1666666666667,105.05462962962963,809.5833333333335,105.04398148148148,812.0000000000001,105.03333333333333C814.4166666666667,105.02268518518518,816.8333333333333,105.01203703703703,819.2499999999999,105.00138888888888C821.6666666666665,104.99074074074073,824.0833333333333,104.9800925925926,826.4999999999999,104.96944444444445C828.9166666666665,104.9587962962963,831.3333333333333,104.94814814814815,833.7499999999999,104.9375C836.1666666666665,104.92685185185185,838.5833333333333,104.91620370370372,840.9999999999999,104.90555555555557C843.4166666666666,104.89490740740742,845.8333333333333,104.88425925925927,848.25,104.87361111111112C850.6666666666666,104.86296296296297,853.0833333333334,104.85231481481482,855.5,104.84166666666667C857.9166666666666,104.83101851851852,860.3333333333334,104.82037037037037,862.75,104.80972222222222C865.1666666666666,104.79907407407407,867.5833333333334,104.78842592592592,870,104.77777777777777C872.4166666666666,104.76712962962962,874.8333333333334,104.75648148148149,877.25,104.74583333333334C879.6666666666666,104.73518518518519,882.0833333333334,104.72453703703704,884.5,104.71388888888889C886.9166666666666,104.70324074074074,889.3333333333334,104.69259259259259,891.75,104.68194444444444C894.1666666666666,104.67129629629629,896.5833333333334,104.66064814814816,899,104.65C901.4166666666666,104.63935185185186,903.8333333333334,104.6287037037037,906.25,104.61805555555556C908.6666666666666,104.60740740740741,911.0833333333334,104.59675925925927,913.5,104.58611111111112C915.9166666666666,104.57546296296297,918.3333333333334,104.56481481481482,920.75,104.55416666666667C923.1666666666666,104.54351851851852,925.5833333333334,104.53287037037036,928,104.52222222222221C930.4166666666666,104.51157407407406,932.8333333333334,104.50092592592593,935.25,104.49027777777778C937.6666666666666,104.47962962962963,940.0833333333334,104.46898148148148,942.5,104.45833333333333C944.9166666666666,104.44768518518518,947.3333333333334,104.43703703703703,949.75,104.42638888888888C952.1666666666666,104.41574074074073,954.5833333333334,104.4050925925926,957,104.39444444444445C959.4166666666666,104.3837962962963,961.8333333333334,104.37314814814815,964.25,104.3625C966.6666666666667,104.35185185185185,969.0833333333334,104.34120370370371,971.5000000000001,104.33055555555556C973.9166666666667,104.31990740740741,976.3333333333335,104.30925925925926,978.7500000000001,104.29861111111111C981.1666666666667,104.28796296296296,983.5833333333335,104.27731481481482,986.0000000000001,104.26666666666667C988.4166666666667,104.25601851851852,990.8333333333335,104.24537037037038,993.2500000000001,104.23472222222223C995.6666666666667,104.22407407407408,998.0833333333333,104.21342592592592,1000.4999999999999,104.20277777777777C1002.9166666666665,104.19212962962962,1005.3333333333333,104.18148148148147,1007.7499999999999,104.17083333333332C1010.1666666666665,104.16018518518517,1012.5833333333333,104.14953703703704,1014.9999999999999,104.13888888888889C1017.4166666666665,104.12824074074074,1019.8333333333333,104.11759259259259,1022.2499999999999,104.10694444444444C1024.6666666666665,104.09629629629629,1027.0833333333333,104.08564814814815,1029.5,104.075C1031.9166666666667,104.06435185185185,1034.3333333333333,104.0537037037037,1036.75,104.04305555555555C1039.1666666666667,104.0324074074074,1041.5833333333333,104.02175925925927,1044,104.01111111111112C1046.4166666666667,104.00046296296297,1048.8333333333333,103.98981481481482,1051.25,103.97916666666667C1053.6666666666667,103.96851851851852,1056.0833333333333,103.95787037037039,1058.5,103.94722222222224C1060.9166666666667,103.93657407407409,1063.3333333333333,103.92592592592594,1065.75,103.91527777777779C1068.1666666666667,103.90462962962964,1070.5833333333333,103.89398148148148,1073,103.88333333333333C1075.4166666666667,103.87268518518518,1077.8333333333333,103.86203703703703,1080.25,103.85138888888888C1082.6666666666667,103.84074074074073,1085.0833333333333,103.83009259259259,1087.5,103.81944444444444C1089.9166666666667,103.8087962962963,1092.3333333333333,103.79814814814814,1094.75,103.7875C1097.1666666666667,103.77685185185184,1099.5833333333333,103.76620370370371,1102,103.75555555555556C1104.4166666666667,103.74490740740741,1106.8333333333333,103.73425925925926,1109.25,103.72361111111111C1111.6666666666667,103.71296296296296,1114.0833333333333,103.70231481481481,1116.5,103.69166666666666C1118.9166666666667,103.68101851851851,1121.3333333333333,103.67037037037038,1123.75,103.65972222222223C1126.1666666666667,103.64907407407408,1128.5833333333333,103.63842592592593,1131,103.62777777777778C1133.4166666666667,103.61712962962963,1135.8333333333333,103.60648148148148,1138.25,103.59583333333333C1140.6666666666667,103.58518518518518,1143.0833333333333,103.57453703703703,1145.5,103.56388888888888C1147.9166666666667,103.55324074074073,1150.3333333333333,103.54259259259258,1152.75,103.53194444444443C1155.1666666666667,103.52129629629628,1157.5833333333333,103.52129629629628,1160,103.5C1162.4166666666667,103.47870370370372,1164.8333333333333,101.96666666666667,1167.25,101.2C1169.6666666666667,100.43333333333334,1172.0833333333333,99.66666666666666,1174.5,98.89999999999999C1176.9166666666667,98.13333333333333,1179.3333333333333,97.36666666666667,1181.75,96.60000000000001C1184.1666666666667,95.83333333333334,1186.5833333333333,95.06666666666668,1189,94.30000000000001C1191.4166666666667,93.53333333333335,1193.8333333333333,92.76666666666667,1196.25,92C1198.6666666666667,91.23333333333333,1201.0833333333333,90.46666666666667,1203.5,89.7C1205.9166666666667,88.93333333333334,1208.3333333333333,88.16666666666667,1210.75,87.4C1213.1666666666667,86.63333333333334,1215.5833333333333,85.86666666666666,1218,85.1C1220.4166666666667,84.33333333333333,1222.8333333333333,83.56666666666666,1225.25,82.8C1227.6666666666667,82.03333333333333,1230.0833333333333,81.26666666666667,1232.5,80.5C1234.9166666666667,79.73333333333333,1237.3333333333333,78.96666666666667,1239.75,78.2C1242.1666666666667,77.43333333333334,1244.5833333333333,76.66666666666667,1247,75.9C1249.4166666666667,75.13333333333334,1251.8333333333333,74.36666666666667,1254.25,73.60000000000001C1256.6666666666667,72.83333333333334,1259.0833333333333,72.06666666666666,1261.5,71.3C1263.9166666666667,70.53333333333333,1266.3333333333333,69.76666666666667,1268.75,69C1271.1666666666667,68.23333333333333,1273.5833333333333,67.46666666666667,1276,66.7C1278.4166666666667,65.93333333333334,1280.8333333333333,65.16666666666667,1283.25,64.4C1285.6666666666667,63.63333333333334,1288.0833333333333,62.86666666666667,1290.5,62.1C1292.9166666666667,61.333333333333336,1295.3333333333333,60.56666666666667,1297.75,59.800000000000004C1300.1666666666667,59.03333333333334,1302.5833333333333,58.266666666666666,1305,57.5C1307.4166666666667,56.733333333333334,1309.8333333333333,55.96666666666666,1312.25,55.199999999999996C1314.6666666666667,54.43333333333333,1317.0833333333333,53.666666666666664,1319.5,52.9C1321.9166666666667,52.13333333333333,1324.3333333333333,51.366666666666674,1326.75,50.60000000000001C1329.1666666666667,49.83333333333334,1331.5833333333333,49.066666666666656,1334,48.29999999999999C1336.4166666666667,47.533333333333324,1338.8333333333333,46.766666666666666,1341.25,46C1343.6666666666667,45.233333333333334,1346.0833333333333,44.46666666666667,1348.5,43.7C1350.9166666666667,42.93333333333334,1353.3333333333333,42.16666666666668,1355.75,41.40000000000001C1358.1666666666667,40.63333333333335,1360.5833333333333,39.86666666666666,1363,39.099999999999994C1365.4166666666667,38.33333333333333,1367.8333333333333,37.56666666666667,1370.25,36.800000000000004C1372.6666666666667,36.03333333333334,1375.0833333333333,35.26666666666667,1377.5,34.50000000000001C1379.9166666666667,33.73333333333334,1382.3333333333333,32.966666666666676,1384.75,32.2C1387.1666666666667,31.433333333333334,1389.5833333333333,30.666666666666657,1392,29.899999999999988C1394.4166666666667,29.13333333333332,1396.8333333333333,28.36666666666666,1399.25,27.599999999999998C1401.6666666666667,26.833333333333336,1404.0833333333333,26.066666666666677,1406.5,25.30000000000001C1408.9166666666667,24.533333333333346,1411.3333333333333,23.766666666666666,1413.75,22.999999999999996C1416.1666666666667,22.233333333333327,1418.5833333333333,21.466666666666672,1421,20.700000000000006C1423.4166666666667,19.93333333333334,1425.8333333333333,19.16666666666667,1428.25,18.400000000000002C1430.6666666666667,17.633333333333333,1433.0833333333333,16.866666666666653,1435.5,16.099999999999987C1437.9166666666667,15.33333333333332,1440.3333333333333,14.566666666666663,1442.75,13.799999999999999C1445.1666666666667,13.033333333333335,1447.5833333333333,12.266666666666666,1450,11.499999999999998" fill="transparent" stroke-linecap="round" stroke="#E7C6DF" stroke-width="2"></path><g class="visx-group visx-axis visx-axis-bottom" transform="translate(0, 115)"><g class="visx-group visx-axis-tick" transform="translate(0, 0)"><line class="visx-line" x1="0" y1="0" x2="0" y2="8" fill="transparent" shape-rendering="crispEdges" stroke="#000" stroke-width="0" stroke-linecap="square"></line><svg x="0" y="0" font-size="10" style="overflow:visible"><text transform="" x="0" y="18" fill="#000" font-size="10" text-anchor="middle"><tspan x="0" dy="0em">0%</tspan></text></svg></g><g class="visx-group visx-axis-tick" transform="translate(0, 0)"><line class="visx-line" x1="362.5" y1="0" x2="362.5" y2="8" fill="transparent" shape-rendering="crispEdges" stroke="#000" stroke-width="0" stroke-linecap="square"></line><svg x="0" y="0" font-size="10" style="overflow:visible"><text transform="" x="362.5" y="18" fill="#000" font-size="10" text-anchor="middle"><tspan x="362.5" dy="0em">25%</tspan></text></svg></g><g class="visx-group visx-axis-tick" transform="translate(0, 0)"><line class="visx-line" x1="725" y1="0" x2="725" y2="8" fill="transparent" shape-rendering="crispEdges" stroke="#000" stroke-width="0" stroke-linecap="square"></line><svg x="0" y="0" font-size="10" style="overflow:visible"><text transform="" x="725" y="18" fill="#000" font-size="10" text-anchor="middle"><tspan x="725" dy="0em">50%</tspan></text></svg></g><g class="visx-group visx-axis-tick" transform="translate(0, 0)"><line class="visx-line" x1="1087.5" y1="0" x2="1087.5" y2="8" fill="transparent" shape-rendering="crispEdges" stroke="#000" stroke-width="0" stroke-linecap="square"></line><svg x="0" y="0" font-size="10" style="overflow:visible"><text transform="" x="1087.5" y="18" fill="#000" font-size="10" text-anchor="middle"><tspan x="1087.5" dy="0em">75%</tspan></text></svg></g><g class="visx-group visx-axis-tick" transform="translate(0, 0)"><line class="visx-line" x1="1450" y1="0" x2="1450" y2="8" fill="transparent" shape-rendering="crispEdges" stroke="#000" stroke-width="0" stroke-linecap="square"></line><svg x="0" y="0" font-size="10" style="overflow:visible"><text transform="" x="1450" y="18" fill="#000" font-size="10" text-anchor="middle"><tspan x="1450" dy="0em">100%</tspan></text></svg></g><line class="visx-line visx-axis-line" x1="0.5" y1="0" x2="1450.5" y2="0" fill="transparent" shape-rendering="crispEdges" stroke="#222" stroke-width="0"></line></g><g class="visx-group visx-axis visx-axis-left" transform="translate(0, 0)"><g class="visx-group visx-axis-tick" transform="translate(0, 0)"><line class="visx-line" x1="0" y1="115" x2="-8" y2="115" fill="transparent" shape-rendering="crispEdges" stroke="#222" stroke-width="0" stroke-linecap="square"></line><svg x="-30" y="0" font-size="8" style="overflow:visible"><text transform="" x="-8" y="115" fill="#000" font-size="8" text-anchor="start"><tspan x="-8" dy="0em">0%</tspan></text></svg></g><g class="visx-group visx-axis-tick" transform="translate(0, 0)"><line class="visx-line" x1="0" y1="51.11111111111111" x2="-8" y2="51.11111111111111" fill="transparent" shape-rendering="crispEdges" stroke="#222" stroke-width="0" stroke-linecap="square"></line><svg x="-30" y="0" font-size="8" style="overflow:visible"><text transform="" x="-8" y="51.11111111111111" fill="#000" font-size="8" text-anchor="start"><tspan x="-8" dy="0em">50%</tspan></text></svg></g><line class="visx-line visx-axis-line" x1="0" y1="115.5" x2="0" y2="0.5" fill="transparent" shape-rendering="crispEdges" stroke="#222" stroke-width="0"></line></g><rect class="visx-bar" width="1450" height="115" fill="transparent"></rect><line class="visx-line" x1="1160" y1="28" x2="1160" y2="115" fill="transparent" shape-rendering="crispEdges" stroke="#0062D2" stroke-width="1" pointer-events="none" stroke-dasharray="5,2"></line><svg x="0" y="0" font-size="10px" style="overflow:visible"><text transform="" x="1160" y="20" font-size="10px" fill="#fff" stroke="#fff" stroke-width="0.8em" text-anchor="middle"><tspan x="1160" dy="0.355em">Optimal 80%</tspan></text></svg><svg x="0" y="0" font-size="10px" style="overflow:visible"><text transform="" x="1160" y="20" font-size="10px" fill="#62677B" text-anchor="middle"><tspan x="1160" dy="0.355em">Optimal 80%</tspan></text></svg></g></svg>