<?xml version="1.0"?><svg xmlns="http://www.w3.org/2000/svg" xmlns:xlink= "http://www.w3.org/1999/xlink" style="background: white;" width="1500" height="300"> <g style="color: black; font-size: 13px; font-family: sans-serif; transform: translate(18px, 25px);"><g><circle r="3" cx="-6" cy="-5" style="fill: #1AD4B3" /><text>Borrow APR, variable</text></g><g style="transform: translateX(150px);"><circle r="3" cx="-6" cy="-5" style="fill: #101423" /><text>Borrow APR, stable</text></g></g><g class="visx-group" transform="translate(45, 50)"><g class="visx-group visx-rows" transform="translate(0, 0)"><line class="visx-line" x1="0" y1="77.5" x2="1425" y2="77.5" fill="transparent" shape-rendering="crispEdges" stroke="#F2F0F9" stroke-width="1" pointer-events="none"></line></g><path class="visx-linepath" d="M0,77.5C2.375,77.5,4.75,77.5,7.125,77.5C9.5,77.5,11.875,77.5,14.25,77.5C16.625,77.5,19,77.5,21.375,77.5C23.75,77.5,26.125,77.5,28.5,77.5C30.875,77.5,33.25,77.5,35.625,77.5C38,77.5,40.375,77.5,42.75,77.5C45.125,77.5,47.50000000000001,77.5,49.87500000000001,77.5C52.25000000000001,77.5,54.625,77.5,57,77.5C59.375,77.5,61.75,77.5,64.125,77.5C66.5,77.5,68.875,77.5,71.25,77.5C73.625,77.5,76,77.5,78.375,77.5C80.75,77.5,83.125,77.5,85.5,77.5C87.875,77.5,90.25,77.5,92.625,77.5C95,77.5,97.37500000000001,77.5,99.75000000000001,77.5C102.12500000000001,77.5,104.5,77.5,106.875,77.5C109.25,77.5,111.625,77.5,114,77.5C116.375,77.5,118.75000000000001,77.5,121.12500000000001,77.5C123.50000000000001,77.5,125.875,77.5,128.25,77.5C130.625,77.5,133,77.5,135.375,77.5C137.75,77.5,140.125,77.5,142.5,77.5C144.875,77.5,147.25,77.5,149.625,77.5C152,77.5,154.375,77.5,156.75,77.5C159.125,77.5,161.5,77.5,163.875,77.5C166.25,77.5,168.625,77.5,171,77.5C173.375,77.5,175.75,77.5,178.125,77.5C180.5,77.5,182.875,77.5,185.25,77.5C187.625,77.5,190,77.5,192.375,77.5C194.75,77.5,197.12500000000003,77.5,199.50000000000003,77.5C201.875,77.5,204.25,77.5,206.62499999999997,77.5C208.99999999999997,77.5,211.375,77.5,213.75,77.5C216.125,77.5,218.5,77.5,220.875,77.5C223.25,77.5,225.625,77.5,228,77.5C230.375,77.5,232.75,77.5,235.125,77.5C237.5,77.5,239.87500000000003,77.5,242.25000000000003,77.5C244.625,77.5,247,77.5,249.37499999999997,77.5C251.74999999999997,77.5,254.125,77.5,256.5,77.5C258.875,77.5,261.25,77.5,263.625,77.5C266,77.5,268.375,77.5,270.75,77.5C273.125,77.5,275.5,77.5,277.875,77.5C280.25,77.5,282.625,77.5,285,77.5C287.375,77.5,289.75,77.5,292.125,77.5C294.5,77.5,296.875,77.5,299.25,77.5C301.625,77.5,304,77.5,306.375,77.5C308.75,77.5,311.125,77.5,313.5,77.5C315.875,77.5,318.25,77.5,320.625,77.5C323,77.5,325.375,77.5,327.75,77.5C330.125,77.5,332.5,77.5,334.875,77.5C337.25,77.5,339.625,77.5,342,77.5C344.375,77.5,346.75,77.5,349.125,77.5C351.5,77.5,353.875,77.5,356.25,77.5C358.625,77.5,361,77.5,363.375,77.5C365.75,77.5,368.125,77.5,370.5,77.5C372.875,77.5,375.25,77.5,377.625,77.5C380,77.5,382.375,77.5,384.75,77.5C387.125,77.5,389.50000000000006,77.5,391.87500000000006,77.5C394.25000000000006,77.5,396.62500000000006,77.5,399.00000000000006,77.5C401.375,77.5,403.75,77.5,406.12499999999994,77.5C408.49999999999994,77.5,410.87499999999994,77.5,413.24999999999994,77.5C415.62499999999994,77.5,418,77.5,420.375,77.5C422.75,77.5,425.125,77.5,427.5,77.5C429.875,77.5,432.25,77.5,434.625,77.5C437,77.5,439.375,77.5,441.75,77.5C444.125,77.5,446.5,77.5,448.875,77.5C451.25,77.5,453.625,77.5,456,77.5C458.375,77.5,460.75,77.5,463.125,77.5C465.5,77.5,467.875,77.5,470.25,77.5C472.625,77.5,475.00000000000006,77.5,477.37500000000006,77.5C479.75000000000006,77.5,482.12500000000006,77.5,484.50000000000006,77.5C486.875,77.5,489.25,77.5,491.62499999999994,77.5C493.99999999999994,77.5,496.37499999999994,77.5,498.74999999999994,77.5C501.12499999999994,77.5,503.5,77.5,505.875,77.5C508.25,77.5,510.625,77.5,513,77.5C515.375,77.5,517.75,77.5,520.125,77.5C522.5,77.5,524.875,77.5,527.25,77.5C529.625,77.5,532,77.5,534.375,77.5C536.75,77.5,539.125,77.5,541.5,77.5C543.875,77.5,546.25,77.5,548.625,77.5C551,77.5,553.375,77.5,555.75,77.5C558.125,77.5,560.5,77.5,562.875,77.5C565.25,77.5,567.625,77.5,570,77.5C572.375,77.5,574.75,77.5,577.125,77.5C579.5,77.5,581.875,77.5,584.25,77.5C586.625,77.5,589,77.5,591.375,77.5C593.75,77.5,596.125,77.5,598.5,77.5C600.875,77.5,603.25,77.5,605.625,77.5C608,77.5,610.375,77.5,612.75,77.5C615.125,77.5,617.5,77.5,619.875,77.5C622.25,77.5,624.625,77.5,627,77.5C629.375,77.5,631.75,77.5,634.125,77.5C636.5,77.5,638.875,77.5,641.25,77.5C643.625,77.5,646,77.5,648.375,77.5C650.75,77.5,653.125,77.5,655.5,77.5C657.875,77.5,660.25,77.5,662.625,77.5C665,77.5,667.375,77.5,669.75,77.5C672.125,77.5,674.5,77.5,676.875,77.5C679.25,77.5,681.625,77.5,684,77.5C686.375,77.5,688.75,77.5,691.125,77.5C693.5,77.5,695.875,77.5,698.25,77.5C700.625,77.5,703,77.5,705.375,77.5C707.75,77.5,710.125,77.5,712.5,77.5C714.875,77.5,717.25,77.5,719.625,77.5C722,77.5,724.375,77.5,726.75,77.5C729.125,77.5,731.5,77.5,733.875,77.5C736.25,77.5,738.625,77.5,741,77.5C743.375,77.5,745.75,77.5,748.125,77.5C750.5,77.5,752.875,77.5,755.25,77.5C757.625,77.5,760,77.5,762.375,77.5C764.75,77.5,767.125,77.5,769.5,77.5C771.875,77.5,774.2500000000001,77.5,776.6250000000001,77.5C779.0000000000001,77.5,781.3750000000001,77.5,783.7500000000001,77.5C786.1250000000001,77.5,788.5000000000001,77.5,790.8750000000001,77.5C793.2500000000001,77.5,795.6250000000001,77.5,798.0000000000001,77.5C800.375,77.5,802.75,77.5,805.1249999999999,77.5C807.4999999999999,77.5,809.8749999999999,77.5,812.2499999999999,77.5C814.6249999999999,77.5,816.9999999999999,77.5,819.3749999999999,77.5C821.7499999999999,77.5,824.1249999999999,77.5,826.4999999999999,77.5C828.8749999999999,77.5,831.25,77.5,833.625,77.5C836,77.5,838.375,77.5,840.75,77.5C843.125,77.5,845.5,77.5,847.875,77.5C850.25,77.5,852.625,77.5,855,77.5C857.375,77.5,859.75,77.5,862.125,77.5C864.5,77.5,866.875,77.5,869.25,77.5C871.625,77.5,874,77.5,876.375,77.5C878.75,77.5,881.125,77.5,883.5,77.5C885.875,77.5,888.25,77.5,890.625,77.5C893,77.5,895.375,77.5,897.75,77.5C900.125,77.5,902.5,77.5,904.875,77.5C907.25,77.5,909.625,77.5,912,77.5C914.375,77.5,916.75,77.5,919.125,77.5C921.5,77.5,923.875,77.5,926.25,77.5C928.625,77.5,931,77.5,933.375,77.5C935.75,77.5,938.125,77.5,940.5,77.5C942.875,77.5,945.25,77.5,947.625,77.5C950,77.5,952.3750000000001,77.5,954.7500000000001,77.5C957.1250000000001,77.5,959.5000000000001,77.5,961.8750000000001,77.5C964.2500000000001,77.5,966.6250000000001,77.5,969.0000000000001,77.5C971.3750000000001,77.5,973.7500000000001,77.5,976.1250000000001,77.5C978.5,77.5,980.875,77.5,983.2499999999999,77.5C985.6249999999999,77.5,987.9999999999999,77.5,990.3749999999999,77.5C992.7499999999999,77.5,995.1249999999999,77.5,997.4999999999999,77.5C999.8749999999999,77.5,1002.2499999999999,77.5,1004.6249999999999,77.5C1006.9999999999999,77.5,1009.375,77.5,1011.75,77.5C1014.125,77.5,1016.5,77.5,1018.875,77.5C1021.25,77.5,1023.625,77.5,1026,77.5C1028.375,77.5,1030.75,77.5,1033.125,77.5C1035.5,77.5,1037.875,77.5,1040.25,77.5C1042.625,77.5,1045,77.5,1047.375,77.5C1049.75,77.5,1052.125,77.5,1054.5,77.5C1056.875,77.5,1059.25,77.5,1061.625,77.5C1064,77.5,1066.375,77.5,1068.75,77.5C1071.125,77.5,1073.5,77.5,1075.875,77.5C1078.25,77.5,1080.625,77.5,1083,77.5C1085.375,77.5,1087.75,77.5,1090.125,77.5C1092.5,77.5,1094.875,77.5,1097.25,77.5C1099.625,77.5,1102,77.5,1104.375,77.5C1106.75,77.5,1109.125,77.5,1111.5,77.5C1113.875,77.5,1116.25,77.5,1118.625,77.5C1121,77.5,1123.375,77.5,1125.75,77.5C1128.125,77.5,1130.5,77.5,1132.875,77.5C1135.25,77.5,1137.625,77.5,1140,77.5C1142.375,77.5,1144.75,77.5,1147.125,77.5C1149.5,77.5,1151.875,77.5,1154.25,77.5C1156.625,77.5,1159,77.5,1161.375,77.5C1163.75,77.5,1166.125,77.5,1168.5,77.5C1170.875,77.5,1173.25,77.5,1175.625,77.5C1178,77.5,1180.375,77.5,1182.75,77.5C1185.125,77.5,1187.5,77.5,1189.875,77.5C1192.25,77.5,1194.625,77.5,1197,77.5C1199.375,77.5,1201.75,77.5,1204.125,77.5C1206.5,77.5,1208.875,77.5,1211.25,77.5C1213.625,77.5,1216,77.5,1218.375,77.5C1220.75,77.5,1223.125,77.5,1225.5,77.5C1227.875,77.5,1230.25,77.5,1232.625,77.5C1235,77.5,1237.375,77.5,1239.75,77.5C1242.125,77.5,1244.5,77.5,1246.875,77.5C1249.25,77.5,1251.625,77.5,1254,77.5C1256.375,77.5,1258.75,77.5,1261.125,77.5C1263.5,77.5,1265.875,77.5,1268.25,77.5C1270.625,77.5,1273,77.5,1275.375,77.5C1277.75,77.5,1280.125,77.5,1282.5,77.5C1284.875,77.5,1287.25,77.5,1289.625,77.5C1292,77.5,1294.375,77.5,1296.75,77.5C1299.125,77.5,1301.5,77.5,1303.875,77.5C1306.25,77.5,1308.625,77.5,1311,77.5C1313.375,77.5,1315.75,77.5,1318.125,77.5C1320.5,77.5,1322.875,77.5,1325.25,77.5C1327.625,77.5,1330,77.5,1332.375,77.5C1334.75,77.5,1337.125,77.5,1339.5,77.5C1341.875,77.5,1344.25,77.5,1346.625,77.5C1349,77.5,1351.375,77.5,1353.75,77.5C1356.125,77.5,1358.5,77.5,1360.875,77.5C1363.25,77.5,1365.625,77.5,1368,77.5C1370.375,77.5,1372.75,77.5,1375.125,77.5C1377.5,77.5,1379.875,77.5,1382.25,77.5C1384.625,77.5,1387,77.5,1389.375,77.5C1391.75,77.5,1394.125,77.5,1396.5,77.5C1398.875,77.5,1401.25,77.5,1403.625,77.5C1406,77.5,1408.375,77.5,1410.75,77.5C1413.125,77.5,1415.5,77.5,1417.875,77.5C1420.25,77.5,1422.625,77.5,1425,77.5" fill="transparent" stroke-linecap="round" stroke="#1AD4B3" stroke-width="2"></path><g class="visx-group visx-axis visx-axis-bottom" transform="translate(0, 155)"><g class="visx-group visx-axis-tick" transform="translate(0, 0)"><line class="visx-line" x1="0" y1="0" x2="0" y2="8" fill="transparent" shape-rendering="crispEdges" stroke="#F2F0F9" stroke-width="1" stroke-linecap="square"></line><svg x="0" y="0" font-size="11" style="overflow:visible"><text transform="" x="0" y="19" fill="#1B2030" font-size="11" text-anchor="middle"><tspan x="0" dy="0em">0%</tspan></text></svg></g><g class="visx-group visx-axis-tick" transform="translate(0, 0)"><line class="visx-line" x1="356.25" y1="0" x2="356.25" y2="8" fill="transparent" shape-rendering="crispEdges" stroke="#F2F0F9" stroke-width="1" stroke-linecap="square"></line><svg x="0" y="0" font-size="11" style="overflow:visible"><text transform="" x="356.25" y="19" fill="#1B2030" font-size="11" text-anchor="middle"><tspan x="356.25" dy="0em">25%</tspan></text></svg></g><g class="visx-group visx-axis-tick" transform="translate(0, 0)"><line class="visx-line" x1="712.5" y1="0" x2="712.5" y2="8" fill="transparent" shape-rendering="crispEdges" stroke="#F2F0F9" stroke-width="1" stroke-linecap="square"></line><svg x="0" y="0" font-size="11" style="overflow:visible"><text transform="" x="712.5" y="19" fill="#1B2030" font-size="11" text-anchor="middle"><tspan x="712.5" dy="0em">50%</tspan></text></svg></g><g class="visx-group visx-axis-tick" transform="translate(0, 0)"><line class="visx-line" x1="1068.75" y1="0" x2="1068.75" y2="8" fill="transparent" shape-rendering="crispEdges" stroke="#F2F0F9" stroke-width="1" stroke-linecap="square"></line><svg x="0" y="0" font-size="11" style="overflow:visible"><text transform="" x="1068.75" y="19" fill="#1B2030" font-size="11" text-anchor="middle"><tspan x="1068.75" dy="0em">75%</tspan></text></svg></g><g class="visx-group visx-axis-tick" transform="translate(0, 0)"><line class="visx-line" x1="1425" y1="0" x2="1425" y2="8" fill="transparent" shape-rendering="crispEdges" stroke="#F2F0F9" stroke-width="1" stroke-linecap="square"></line><svg x="0" y="0" font-size="11" style="overflow:visible"><text transform="" x="1425" y="19" fill="#1B2030" font-size="11" text-anchor="middle"><tspan x="1425" dy="0em">100%</tspan></text></svg></g></g><g class="visx-group visx-axis visx-axis-left" transform="translate(0, 0)"><g class="visx-group visx-axis-tick" transform="translate(0, 0)"><line class="visx-line" x1="0" y1="77.5" x2="-8" y2="77.5" fill="transparent" shape-rendering="crispEdges" stroke="#F2F0F9" stroke-width="1" stroke-linecap="square"></line><svg x="-30" y="0" font-size="11" style="overflow:visible"><text transform="" x="-8" y="77.5" fill="#1B2030" font-size="11" text-anchor="start"><tspan x="-8" dy="0em">0%</tspan></text></svg></g><line class="visx-line visx-axis-line" x1="0" y1="155.5" x2="0" y2="0.5" fill="transparent" shape-rendering="crispEdges" stroke="#F2F0F9" stroke-width="1"></line></g><rect class="visx-bar" width="1425" height="155" fill="transparent"></rect><line class="visx-line" x1="1282.5" y1="58" x2="1282.5" y2="155" fill="transparent" shape-rendering="crispEdges" stroke="#CDC8E1" stroke-width="1" pointer-events="none" stroke-dasharray="5"></line><svg x="0" y="0" font-size="11px" style="overflow:visible"><text transform="" x="1282.5" y="50" font-size="11px" fill="#555069" stroke="#FFFFFF" stroke-width="1px" text-anchor="middle"><tspan x="1282.5" dy="0.355em">Optimal utilization 90%</tspan></text></svg><svg x="0" y="0" font-size="11px" style="overflow:visible"><text transform="" x="1282.5" y="50" font-size="11px" fill="#CDC8E1" text-anchor="middle"><tspan x="1282.5" dy="0.355em">Optimal utilization 90%</tspan></text></svg></g></svg>