<?xml version="1.0"?><svg xmlns="http://www.w3.org/2000/svg" xmlns:xlink= "http://www.w3.org/1999/xlink" style="background: white;" width="1500" height="300"> <g style="color: black; font-size: 13px; font-family: sans-serif; transform: translate(18px, 25px);"><g><circle r="3" cx="-6" cy="-5" style="fill: #1AD4B3" /><text>Borrow APR, variable</text></g><g style="transform: translateX(150px);"><circle r="3" cx="-6" cy="-5" style="fill: #101423" /><text>Borrow APR, stable</text></g></g><g class="visx-group" transform="translate(45, 50)"><g class="visx-group visx-rows" transform="translate(0, 0)"><line class="visx-line" x1="0" y1="155" x2="1425" y2="155" fill="transparent" shape-rendering="crispEdges" stroke="#F2F0F9" stroke-width="1" pointer-events="none"></line><line class="visx-line" x1="0" y1="77.5" x2="1425" y2="77.5" fill="transparent" shape-rendering="crispEdges" stroke="#F2F0F9" stroke-width="1" pointer-events="none"></line><line class="visx-line" x1="0" y1="0" x2="1425" y2="0" fill="transparent" shape-rendering="crispEdges" stroke="#F2F0F9" stroke-width="1" pointer-events="none"></line></g><path class="visx-linepath" d="M0,154.9999999997675C2.375,154.96124999986438,4.75,154.92249999996125,7.125,154.88375C9.5,154.84500000003874,11.875,154.80625,14.25,154.7675C16.625,154.72875000000002,19,154.69,21.375,154.65125C23.75,154.6125,26.125,154.57375,28.5,154.535C30.875,154.49625,33.25,154.45749999999998,35.625,154.41875C38,154.38,40.375,154.34125,42.75,154.3025C45.125,154.26375000000002,47.50000000000001,154.225,49.87500000000001,154.18625C52.25000000000001,154.1475,54.625,154.10875,57,154.07C59.375,154.03125,61.75,153.99249999999998,64.125,153.95374999999999C66.5,153.915,68.875,153.87625,71.25,153.8375C73.625,153.79875,76,153.76,78.375,153.72125C80.75,153.6825,83.125,153.64374999999998,85.5,153.605C87.875,153.56625,90.25,153.52749999999997,92.625,153.48874999999998C95,153.45,97.37500000000001,153.41125,99.75000000000001,153.3725C102.12500000000001,153.33375,104.5,153.295,106.875,153.25625C109.25,153.2175,111.625,153.17874999999998,114,153.14C116.375,153.10125,118.75000000000001,153.0625,121.12500000000001,153.02375C123.50000000000001,152.985,125.875,152.94625,128.25,152.9075C130.625,152.86875,133,152.82999999999998,135.375,152.79125C137.75,152.7525,140.125,152.71375,142.5,152.675C144.875,152.63625000000002,147.25,152.5975,149.625,152.55875C152,152.52,154.375,152.48125,156.75,152.4425C159.125,152.40375,161.5,152.365,163.875,152.32625000000002C166.25,152.28750000000002,168.625,152.24875,171,152.21C173.375,152.17125000000001,175.75,152.1325,178.125,152.09375C180.5,152.055,182.875,152.01624999999999,185.25,151.9775C187.625,151.93875,190,151.9,192.375,151.86125C194.75,151.82250000000002,197.12500000000003,151.78375,199.50000000000003,151.745C201.875,151.70625,204.25,151.6675,206.62499999999997,151.62875C208.99999999999997,151.59,211.375,151.55125,213.75,151.51250000000002C216.125,151.47375000000002,218.5,151.435,220.875,151.39625C223.25,151.35750000000002,225.625,151.31875,228,151.28C230.375,151.24125,232.75,151.2025,235.125,151.16375C237.5,151.125,239.87500000000003,151.08625,242.25000000000003,151.0475C244.625,151.00875000000002,247,150.97,249.37499999999997,150.93125C251.74999999999997,150.8925,254.125,150.85375,256.5,150.815C258.875,150.77625,261.25,150.73749999999998,263.625,150.69875C266,150.66,268.375,150.62125,270.75,150.5825C273.125,150.54375000000002,275.5,150.505,277.875,150.46625C280.25,150.4275,282.625,150.38875,285,150.35C287.375,150.31125,289.75,150.27249999999998,292.125,150.23375C294.5,150.195,296.875,150.15625,299.25,150.1175C301.625,150.07875,304,150.04,306.375,150.00125C308.75,149.9625,311.125,149.92374999999998,313.5,149.885C315.875,149.84625,318.25,149.8075,320.625,149.76875C323,149.73000000000002,325.375,149.69125,327.75,149.6525C330.125,149.61375,332.5,149.575,334.875,149.53625C337.25,149.4975,339.625,149.45874999999998,342,149.42C344.375,149.38125,346.75,149.3425,349.125,149.30375C351.5,149.26500000000001,353.875,149.22625,356.25,149.1875C358.625,149.14875,361,149.10999999999999,363.375,149.07125C365.75,149.0325,368.125,148.99374999999998,370.5,148.95499999999998C372.875,148.91625,375.25,148.8775,377.625,148.83875C380,148.8,382.375,148.76125,384.75,148.7225C387.125,148.68375,389.50000000000006,148.64499999999998,391.87500000000006,148.60625C394.25000000000006,148.5675,396.62500000000006,148.52874999999997,399.00000000000006,148.48999999999998C401.375,148.45125,403.75,148.4125,406.12499999999994,148.37375C408.49999999999994,148.335,410.87499999999994,148.29625,413.24999999999994,148.2575C415.62499999999994,148.21875,418,148.17999999999998,420.375,148.14124999999999C422.75,148.1025,425.125,148.06375,427.5,148.025C429.875,147.98625,432.25,147.9475,434.625,147.90875C437,147.87,439.375,147.83124999999998,441.75,147.7925C444.125,147.75375,446.5,147.715,448.875,147.67625C451.25,147.63750000000002,453.625,147.59875,456,147.56C458.375,147.52125,460.75,147.4825,463.125,147.44375C465.5,147.405,467.875,147.36625,470.25,147.32750000000001C472.625,147.28875000000002,475.00000000000006,147.25,477.37500000000006,147.21125C479.75000000000006,147.1725,482.12500000000006,147.13375,484.50000000000006,147.095C486.875,147.05625,489.25,147.0175,491.62499999999994,146.97875000000002C493.99999999999994,146.94000000000003,496.37499999999994,146.90125,498.74999999999994,146.8625C501.12499999999994,146.82375000000002,503.5,146.785,505.875,146.74625C508.25,146.7075,510.625,146.66875,513,146.63C515.375,146.59125,517.75,146.5525,520.125,146.51375000000002C522.5,146.47500000000002,524.875,146.43625,527.25,146.3975C529.625,146.35875000000001,532,146.32,534.375,146.28125C536.75,146.2425,539.125,146.20374999999999,541.5,146.165C543.875,146.12625,546.25,146.0875,548.625,146.04875C551,146.01000000000002,553.375,145.97125,555.75,145.9325C558.125,145.89375,560.5,145.855,562.875,145.81625C565.25,145.7775,567.625,145.73874999999998,570,145.7C572.375,145.66125,574.75,145.6225,577.125,145.58375C579.5,145.54500000000002,581.875,145.50625,584.25,145.4675C586.625,145.42875,589,145.39,591.375,145.35125C593.75,145.3125,596.125,145.27375,598.5,145.235C600.875,145.19625000000002,603.25,145.1575,605.625,145.11875C608,145.08,610.375,145.04125,612.75,145.0025C615.125,144.96375,617.5,144.92499999999998,619.875,144.88625C622.25,144.8475,624.625,144.80874999999997,627,144.76999999999998C629.375,144.73125,631.75,144.6925,634.125,144.65375C636.5,144.615,638.875,144.57625,641.25,144.5375C643.625,144.49875,646,144.45999999999998,648.375,144.42125C650.75,144.3825,653.125,144.34375,655.5,144.305C657.875,144.26625,660.25,144.2275,662.625,144.18875C665,144.15,667.375,144.11124999999998,669.75,144.0725C672.125,144.03375,674.5,143.99499999999998,676.875,143.95624999999998C679.25,143.9175,681.625,143.87875,684,143.84C686.375,143.80125,688.75,143.7625,691.125,143.72375C693.5,143.685,695.875,143.64624999999998,698.25,143.6075C700.625,143.56875,703,143.53,705.375,143.49125C707.75,143.45250000000001,710.125,143.41375,712.5,143.375C714.875,143.33625,717.25,143.29749999999999,719.625,143.25875C722,143.22,724.375,143.18124999999998,726.75,143.14249999999998C729.125,143.10375,731.5,143.065,733.875,143.02625C736.25,142.9875,738.625,142.94875,741,142.91C743.375,142.87125,745.75,142.83249999999998,748.125,142.79375C750.5,142.755,752.875,142.71625,755.25,142.6775C757.625,142.63875000000002,760,142.6,762.375,142.56125C764.75,142.5225,767.125,142.48375,769.5,142.445C771.875,142.40625,774.2500000000001,142.3675,776.6250000000001,142.32875C779.0000000000001,142.29000000000002,781.3750000000001,142.25125,783.7500000000001,142.2125C786.1250000000001,142.17375,788.5000000000001,142.135,790.8750000000001,142.09625C793.2500000000001,142.0575,795.6250000000001,142.01875,798.0000000000001,141.98000000000002C800.375,141.94125000000003,802.75,141.9025,805.1249999999999,141.86375C807.4999999999999,141.82500000000002,809.8749999999999,141.78625,812.2499999999999,141.7475C814.6249999999999,141.70875,816.9999999999999,141.67000000000002,819.3749999999999,141.63125000000002C821.7499999999999,141.59250000000003,824.1249999999999,141.55375,826.4999999999999,141.51500000000001C828.8749999999999,141.47625000000002,831.25,141.4375,833.625,141.39875C836,141.36,838.375,141.32125,840.75,141.2825C843.125,141.24375,845.5,141.20499999999998,847.875,141.16625C850.25,141.1275,852.625,141.08875,855,141.05C857.375,141.01125000000002,859.75,140.9725,862.125,140.93375C864.5,140.895,866.875,140.85625,869.25,140.8175C871.625,140.77875,874,140.74,876.375,140.70125000000002C878.75,140.66250000000002,881.125,140.62375,883.5,140.585C885.875,140.54625000000001,888.25,140.5075,890.625,140.46875C893,140.43,895.375,140.39124999999999,897.75,140.3525C900.125,140.31375,902.5,140.27499999999998,904.875,140.23624999999998C907.25,140.1975,909.625,140.15875,912,140.12C914.375,140.08125,916.75,140.0425,919.125,140.00375C921.5,139.965,923.875,139.92624999999998,926.25,139.8875C928.625,139.84875,931,139.81,933.375,139.77125C935.75,139.73250000000002,938.125,139.69375,940.5,139.655C942.875,139.61625,945.25,139.5775,947.625,139.53875C950,139.5,952.3750000000001,139.46124999999998,954.7500000000001,139.42249999999999C957.1250000000001,139.38375,959.5000000000001,139.34499999999997,961.8750000000001,139.30624999999998C964.2500000000001,139.26749999999998,966.6250000000001,139.22875,969.0000000000001,139.19C971.3750000000001,139.15125,973.7500000000001,139.11249999999998,976.1250000000001,139.07375C978.5,139.035,980.875,138.99624999999997,983.2499999999999,138.95749999999998C985.6249999999999,138.91875,987.9999999999999,138.88,990.3749999999999,138.84125C992.7499999999999,138.8025,995.1249999999999,138.76375,997.4999999999999,138.725C999.8749999999999,138.68625,1002.2499999999999,138.64749999999998,1004.6249999999999,138.60875C1006.9999999999999,138.57,1009.375,138.53125,1011.75,138.4925C1014.125,138.45375,1016.5,138.415,1018.875,138.37625C1021.25,138.3375,1023.625,138.29874999999998,1026,138.26C1028.375,138.22125,1030.75,138.1825,1033.125,138.14375C1035.5,138.10500000000002,1037.875,138.06625,1040.25,138.0275C1042.625,137.98875,1045,137.95,1047.375,137.91125C1049.75,137.8725,1052.125,137.83375,1054.5,137.79500000000002C1056.875,137.75625000000002,1059.25,137.7175,1061.625,137.67875C1064,137.64000000000001,1066.375,137.60125,1068.75,137.5625C1071.125,137.52375,1073.5,137.48499999999999,1075.875,137.44625C1078.25,137.4075,1080.625,137.36875,1083,137.33C1085.375,137.29125000000002,1087.75,137.2525,1090.125,137.21375C1092.5,137.175,1094.875,137.13625,1097.25,137.0975C1099.625,137.05875,1102,137.02,1104.375,136.98125000000002C1106.75,136.94250000000002,1109.125,136.90375,1111.5,136.865C1113.875,136.82625000000002,1116.25,136.7875,1118.625,136.74875C1121,136.71,1123.375,136.67125,1125.75,136.6325C1128.125,136.59375,1130.5,136.555,1132.875,136.51625C1135.25,136.47750000000002,1137.625,136.47750000000002,1140,136.4C1142.375,136.3225,1144.75,134.4625,1147.125,133.49375C1149.5,132.525,1151.875,131.55625,1154.25,130.5875C1156.625,129.61875,1159,128.65,1161.375,127.68124999999999C1163.75,126.71249999999999,1166.125,125.74374999999999,1168.5,124.77499999999999C1170.875,123.80624999999999,1173.25,122.8375,1175.625,121.86875C1178,120.9,1180.375,119.93124999999999,1182.75,118.96249999999999C1185.125,117.99374999999999,1187.5,117.025,1189.875,116.05625C1192.25,115.0875,1194.625,114.11874999999999,1197,113.14999999999999C1199.375,112.18124999999999,1201.75,111.21249999999999,1204.125,110.24374999999999C1206.5,109.27499999999999,1208.875,108.30625,1211.25,107.3375C1213.625,106.36875,1216,105.4,1218.375,104.43125C1220.75,103.4625,1223.125,102.49375,1225.5,101.525C1227.875,100.55625,1230.25,99.58749999999999,1232.625,98.61874999999999C1235,97.64999999999999,1237.375,96.68124999999999,1239.75,95.71249999999999C1242.125,94.74374999999999,1244.5,93.775,1246.875,92.80625C1249.25,91.8375,1251.625,90.86875,1254,89.9C1256.375,88.93125,1258.75,87.9625,1261.125,86.99375C1263.5,86.025,1265.875,85.05624999999999,1268.25,84.08749999999999C1270.625,83.11874999999999,1273,82.14999999999999,1275.375,81.18124999999999C1277.75,80.21249999999999,1280.125,79.24375,1282.5,78.275C1284.875,77.30625,1287.25,76.33749999999999,1289.625,75.36874999999999C1292,74.39999999999999,1294.375,73.43125,1296.75,72.4625C1299.125,71.49375,1301.5,70.52499999999999,1303.875,69.55624999999999C1306.25,68.58749999999999,1308.625,67.61875,1311,66.65C1313.375,65.68125,1315.75,64.7125,1318.125,63.74375C1320.5,62.775,1322.875,61.80624999999999,1325.25,60.83749999999999C1327.625,59.86874999999999,1330,58.900000000000006,1332.375,57.931250000000006C1334.75,56.962500000000006,1337.125,55.99375,1339.5,55.025C1341.875,54.05625,1344.25,53.087500000000006,1346.625,52.118750000000006C1349,51.150000000000006,1351.375,50.18125,1353.75,49.2125C1356.125,48.24375,1358.5,47.27499999999999,1360.875,46.30624999999999C1363.25,45.33749999999999,1365.625,44.368750000000006,1368,43.400000000000006C1370.375,42.431250000000006,1372.75,41.4625,1375.125,40.49375C1377.5,39.525,1379.875,38.556250000000006,1382.25,37.587500000000006C1384.625,36.618750000000006,1387,35.65,1389.375,34.68125C1391.75,33.7125,1394.125,32.74374999999999,1396.5,31.774999999999995C1398.875,30.806249999999995,1401.25,29.837500000000006,1403.625,28.868750000000006C1406,27.900000000000006,1408.375,26.93125,1410.75,25.9625C1413.125,24.99375,1415.5,24.02500000000001,1417.875,23.05625000000001C1420.25,22.08750000000001,1422.625,21.118750000000006,1425,20.150000000000002" fill="transparent" stroke-linecap="round" stroke="#1AD4B3" stroke-width="2"></path><g class="visx-group visx-axis visx-axis-bottom" transform="translate(0, 155)"><g class="visx-group visx-axis-tick" transform="translate(0, 0)"><line class="visx-line" x1="0" y1="0" x2="0" y2="8" fill="transparent" shape-rendering="crispEdges" stroke="#F2F0F9" stroke-width="1" stroke-linecap="square"></line><svg x="0" y="0" font-size="11" style="overflow:visible"><text transform="" x="0" y="19" fill="#1B2030" font-size="11" text-anchor="middle"><tspan x="0" dy="0em">0%</tspan></text></svg></g><g class="visx-group visx-axis-tick" transform="translate(0, 0)"><line class="visx-line" x1="356.25" y1="0" x2="356.25" y2="8" fill="transparent" shape-rendering="crispEdges" stroke="#F2F0F9" stroke-width="1" stroke-linecap="square"></line><svg x="0" y="0" font-size="11" style="overflow:visible"><text transform="" x="356.25" y="19" fill="#1B2030" font-size="11" text-anchor="middle"><tspan x="356.25" dy="0em">25%</tspan></text></svg></g><g class="visx-group visx-axis-tick" transform="translate(0, 0)"><line class="visx-line" x1="712.5" y1="0" x2="712.5" y2="8" fill="transparent" shape-rendering="crispEdges" stroke="#F2F0F9" stroke-width="1" stroke-linecap="square"></line><svg x="0" y="0" font-size="11" style="overflow:visible"><text transform="" x="712.5" y="19" fill="#1B2030" font-size="11" text-anchor="middle"><tspan x="712.5" dy="0em">50%</tspan></text></svg></g><g class="visx-group visx-axis-tick" transform="translate(0, 0)"><line class="visx-line" x1="1068.75" y1="0" x2="1068.75" y2="8" fill="transparent" shape-rendering="crispEdges" stroke="#F2F0F9" stroke-width="1" stroke-linecap="square"></line><svg x="0" y="0" font-size="11" style="overflow:visible"><text transform="" x="1068.75" y="19" fill="#1B2030" font-size="11" text-anchor="middle"><tspan x="1068.75" dy="0em">75%</tspan></text></svg></g><g class="visx-group visx-axis-tick" transform="translate(0, 0)"><line class="visx-line" x1="1425" y1="0" x2="1425" y2="8" fill="transparent" shape-rendering="crispEdges" stroke="#F2F0F9" stroke-width="1" stroke-linecap="square"></line><svg x="0" y="0" font-size="11" style="overflow:visible"><text transform="" x="1425" y="19" fill="#1B2030" font-size="11" text-anchor="middle"><tspan x="1425" dy="0em">100%</tspan></text></svg></g></g><g class="visx-group visx-axis visx-axis-left" transform="translate(0, 0)"><g class="visx-group visx-axis-tick" transform="translate(0, 0)"><line class="visx-line" x1="0" y1="155" x2="-8" y2="155" fill="transparent" shape-rendering="crispEdges" stroke="#F2F0F9" stroke-width="1" stroke-linecap="square"></line><svg x="-30" y="0" font-size="11" style="overflow:visible"><text transform="" x="-8" y="155" fill="#1B2030" font-size="11" text-anchor="start"><tspan x="-8" dy="0em">0%</tspan></text></svg></g><g class="visx-group visx-axis-tick" transform="translate(0, 0)"><line class="visx-line" x1="0" y1="77.5" x2="-8" y2="77.5" fill="transparent" shape-rendering="crispEdges" stroke="#F2F0F9" stroke-width="1" stroke-linecap="square"></line><svg x="-30" y="0" font-size="11" style="overflow:visible"><text transform="" x="-8" y="77.5" fill="#1B2030" font-size="11" text-anchor="start"><tspan x="-8" dy="0em">50%</tspan></text></svg></g><g class="visx-group visx-axis-tick" transform="translate(0, 0)"><line class="visx-line" x1="0" y1="0" x2="-8" y2="0" fill="transparent" shape-rendering="crispEdges" stroke="#F2F0F9" stroke-width="1" stroke-linecap="square"></line><svg x="-30" y="0" font-size="11" style="overflow:visible"><text transform="" x="-8" y="0" fill="#1B2030" font-size="11" text-anchor="start"><tspan x="-8" dy="0em">100%</tspan></text></svg></g><line class="visx-line visx-axis-line" x1="0" y1="155.5" x2="0" y2="0.5" fill="transparent" shape-rendering="crispEdges" stroke="#F2F0F9" stroke-width="1"></line></g><rect class="visx-bar" width="1425" height="155" fill="transparent"></rect><line class="visx-line" x1="1140" y1="58" x2="1140" y2="155" fill="transparent" shape-rendering="crispEdges" stroke="#CDC8E1" stroke-width="1" pointer-events="none" stroke-dasharray="5"></line><svg x="0" y="0" font-size="11px" style="overflow:visible"><text transform="" x="1140" y="50" font-size="11px" fill="#555069" stroke="#FFFFFF" stroke-width="1px" text-anchor="middle"><tspan x="1140" dy="0.355em">uOptimal 80%</tspan></text></svg><svg x="0" y="0" font-size="11px" style="overflow:visible"><text transform="" x="1140" y="50" font-size="11px" fill="#CDC8E1" text-anchor="middle"><tspan x="1140" dy="0.355em">uOptimal 80%</tspan></text></svg></g></svg>