<?xml version="1.0"?><svg xmlns="http://www.w3.org/2000/svg" xmlns:xlink= "http://www.w3.org/1999/xlink" style="background: white;" width="1500" height="185"> <g style="color: black; font-size: 13px; font-family: sans-serif; transform: translate(18px, 25px);"><g><circle r="3" cx="-6" cy="-5" style="fill: #B6509E" /><text>Borrow APR, variable</text></g><g style="transform: translateX(150px);"><circle r="3" cx="-6" cy="-5" style="fill: rgb(231, 198, 223)" /><text>Borrow APR, stable</text></g><g style="transform: translateX(290px);"><circle r="3" cx="-6" cy="-5" style="fill: rgb(0, 98, 210)" /><text>Utilization Rate</text></g></g><g class="visx-group" transform="translate(40, 50)"><g class="visx-group visx-rows" transform="translate(0, 0)"><line class="visx-line" x1="0" y1="115" x2="1450" y2="115" fill="transparent" shape-rendering="crispEdges" stroke="#000" stroke-width="1" stroke-dasharray="3,3" pointer-events="none"></line><line class="visx-line" x1="0" y1="79.0625" x2="1450" y2="79.0625" fill="transparent" shape-rendering="crispEdges" stroke="#000" stroke-width="1" stroke-dasharray="3,3" pointer-events="none"></line><line class="visx-line" x1="0" y1="43.125" x2="1450" y2="43.125" fill="transparent" shape-rendering="crispEdges" stroke="#000" stroke-width="1" stroke-dasharray="3,3" pointer-events="none"></line><line class="visx-line" x1="0" y1="7.1875" x2="1450" y2="7.1875" fill="transparent" shape-rendering="crispEdges" stroke="#000" stroke-width="1" stroke-dasharray="3,3" pointer-events="none"></line></g><path class="visx-linepath" d="M0,114.99999999956249C2.4166666666666665,114.92708333307812,4.833333333333334,114.85416666659376,7.25,114.78125C9.666666666666666,114.70833333340624,12.083333333333334,114.63541666666667,14.5,114.5625C16.916666666666668,114.48958333333333,19.333333333333332,114.41666666666667,21.75,114.34375C24.166666666666668,114.27083333333333,26.583333333333332,114.19791666666667,29,114.125C31.416666666666668,114.05208333333333,33.833333333333336,113.97916666666667,36.25,113.90625C38.666666666666664,113.83333333333333,41.083333333333336,113.76041666666667,43.5,113.6875C45.91666666666667,113.61458333333333,48.333333333333336,113.54166666666667,50.75000000000001,113.46875C53.16666666666667,113.39583333333333,55.583333333333336,113.32291666666667,58,113.25C60.416666666666664,113.17708333333333,62.833333333333336,113.10416666666667,65.25,113.03125C67.66666666666667,112.95833333333333,70.08333333333333,112.88541666666667,72.5,112.8125C74.91666666666667,112.73958333333333,77.33333333333333,112.66666666666667,79.75,112.59375C82.16666666666667,112.52083333333333,84.58333333333333,112.44791666666667,87,112.375C89.41666666666667,112.30208333333333,91.83333333333333,112.22916666666667,94.25,112.15625C96.66666666666667,112.08333333333333,99.08333333333334,112.01041666666667,101.50000000000001,111.9375C103.91666666666667,111.86458333333333,106.33333333333334,111.79166666666667,108.75,111.71875C111.16666666666667,111.64583333333333,113.58333333333333,111.57291666666667,116,111.5C118.41666666666667,111.42708333333333,120.83333333333334,111.35416666666667,123.25000000000001,111.28125C125.66666666666667,111.20833333333333,128.08333333333334,111.13541666666667,130.5,111.0625C132.91666666666666,110.98958333333333,135.33333333333334,110.91666666666667,137.75,110.84375C140.16666666666666,110.77083333333333,142.58333333333334,110.69791666666667,145,110.625C147.41666666666666,110.55208333333333,149.83333333333334,110.47916666666667,152.25,110.40625C154.66666666666666,110.33333333333333,157.08333333333334,110.26041666666667,159.5,110.1875C161.91666666666666,110.11458333333333,164.33333333333334,110.04166666666667,166.75,109.96875C169.16666666666666,109.89583333333333,171.58333333333334,109.82291666666667,174,109.75C176.41666666666666,109.67708333333333,178.83333333333334,109.60416666666667,181.25,109.53125C183.66666666666666,109.45833333333333,186.08333333333334,109.38541666666667,188.5,109.3125C190.91666666666666,109.23958333333333,193.33333333333334,109.16666666666667,195.75,109.09375C198.16666666666669,109.02083333333333,200.58333333333334,108.94791666666667,203.00000000000003,108.875C205.41666666666669,108.80208333333333,207.83333333333331,108.72916666666667,210.24999999999997,108.65625C212.66666666666666,108.58333333333333,215.08333333333331,108.51041666666667,217.5,108.4375C219.91666666666666,108.36458333333333,222.33333333333334,108.29166666666667,224.75,108.21875C227.16666666666666,108.14583333333333,229.58333333333334,108.07291666666667,232,108C234.41666666666666,107.92708333333333,236.83333333333334,107.85416666666667,239.25,107.78125C241.66666666666669,107.70833333333333,244.08333333333334,107.63541666666667,246.50000000000003,107.5625C248.91666666666669,107.48958333333333,251.33333333333331,107.41666666666667,253.74999999999997,107.34375C256.16666666666663,107.27083333333333,258.5833333333333,107.19791666666667,261,107.125C263.4166666666667,107.05208333333333,265.8333333333333,106.97916666666667,268.25,106.90625C270.6666666666667,106.83333333333333,273.0833333333333,106.76041666666667,275.5,106.6875C277.9166666666667,106.61458333333333,280.3333333333333,106.54166666666667,282.75,106.46875C285.1666666666667,106.39583333333333,287.5833333333333,106.32291666666667,290,106.25C292.4166666666667,106.17708333333333,294.8333333333333,106.10416666666667,297.25,106.03125C299.6666666666667,105.95833333333333,302.0833333333333,105.88541666666667,304.5,105.8125C306.9166666666667,105.73958333333333,309.3333333333333,105.66666666666667,311.75,105.59375C314.1666666666667,105.52083333333333,316.5833333333333,105.44791666666667,319,105.375C321.4166666666667,105.30208333333333,323.8333333333333,105.22916666666667,326.25,105.15625C328.6666666666667,105.08333333333333,331.0833333333333,105.01041666666667,333.5,104.9375C335.9166666666667,104.86458333333333,338.3333333333333,104.79166666666667,340.75,104.71875C343.1666666666667,104.64583333333333,345.5833333333333,104.57291666666667,348,104.5C350.4166666666667,104.42708333333333,352.8333333333333,104.35416666666667,355.25,104.28125C357.6666666666667,104.20833333333333,360.0833333333333,104.13541666666667,362.5,104.0625C364.9166666666667,103.98958333333333,367.3333333333333,103.91666666666667,369.75,103.84375C372.1666666666667,103.77083333333333,374.5833333333333,103.69791666666667,377,103.625C379.4166666666667,103.55208333333333,381.8333333333333,103.47916666666667,384.25,103.40625C386.6666666666667,103.33333333333333,389.0833333333333,103.26041666666667,391.5,103.1875C393.9166666666667,103.11458333333333,396.33333333333337,103.04166666666667,398.75000000000006,102.96875C401.16666666666674,102.89583333333333,403.58333333333337,102.82291666666667,406.00000000000006,102.75C408.4166666666667,102.67708333333333,410.8333333333333,102.60416666666667,413.24999999999994,102.53125C415.66666666666663,102.45833333333333,418.08333333333326,102.38541666666667,420.49999999999994,102.3125C422.91666666666663,102.23958333333333,425.3333333333333,102.16666666666667,427.75,102.09375C430.1666666666667,102.02083333333333,432.5833333333333,101.94791666666667,435,101.875C437.4166666666667,101.80208333333333,439.8333333333333,101.72916666666667,442.25,101.65625C444.6666666666667,101.58333333333333,447.0833333333333,101.51041666666667,449.5,101.4375C451.9166666666667,101.36458333333333,454.3333333333333,101.29166666666667,456.75,101.21875C459.1666666666667,101.14583333333333,461.5833333333333,101.07291666666667,464,101C466.4166666666667,100.92708333333333,468.8333333333333,100.85416666666667,471.25,100.78125C473.6666666666667,100.70833333333333,476.0833333333333,100.63541666666667,478.5,100.5625C480.9166666666667,100.48958333333333,483.33333333333337,100.41666666666667,485.75000000000006,100.34375C488.16666666666674,100.27083333333333,490.58333333333337,100.19791666666667,493.00000000000006,100.125C495.4166666666667,100.05208333333333,497.8333333333333,99.97916666666667,500.24999999999994,99.90625C502.66666666666663,99.83333333333333,505.08333333333326,99.76041666666667,507.49999999999994,99.6875C509.91666666666663,99.61458333333333,512.3333333333333,99.54166666666667,514.75,99.46875C517.1666666666666,99.39583333333333,519.5833333333334,99.32291666666667,522,99.25C524.4166666666666,99.17708333333333,526.8333333333334,99.10416666666667,529.25,99.03125C531.6666666666666,98.95833333333333,534.0833333333334,98.88541666666667,536.5,98.8125C538.9166666666666,98.73958333333333,541.3333333333334,98.66666666666667,543.75,98.59375C546.1666666666666,98.52083333333333,548.5833333333334,98.44791666666667,551,98.375C553.4166666666666,98.30208333333333,555.8333333333334,98.22916666666667,558.25,98.15625C560.6666666666666,98.08333333333333,563.0833333333334,98.01041666666667,565.5,97.9375C567.9166666666666,97.86458333333333,570.3333333333334,97.79166666666667,572.75,97.71875C575.1666666666666,97.64583333333333,577.5833333333334,97.57291666666667,580,97.5C582.4166666666666,97.42708333333333,584.8333333333334,97.35416666666667,587.25,97.28125C589.6666666666666,97.20833333333333,592.0833333333334,97.13541666666667,594.5,97.0625C596.9166666666666,96.98958333333333,599.3333333333334,96.91666666666667,601.75,96.84375C604.1666666666666,96.77083333333333,606.5833333333334,96.69791666666667,609,96.625C611.4166666666666,96.55208333333333,613.8333333333334,96.47916666666667,616.25,96.40625C618.6666666666666,96.33333333333333,621.0833333333334,96.26041666666667,623.5,96.1875C625.9166666666666,96.11458333333333,628.3333333333334,96.04166666666667,630.75,95.96875C633.1666666666666,95.89583333333333,635.5833333333334,95.82291666666666,638,95.75C640.4166666666666,95.67708333333334,642.8333333333334,95.60416666666669,645.25,95.53125000000001C647.6666666666666,95.45833333333334,650.0833333333334,95.38541666666667,652.5,95.3125C654.9166666666666,95.23958333333333,657.3333333333334,95.16666666666669,659.75,95.09375000000001C662.1666666666666,95.02083333333334,664.5833333333334,94.94791666666667,667,94.875C669.4166666666666,94.80208333333333,671.8333333333334,94.72916666666669,674.25,94.65625000000001C676.6666666666666,94.58333333333334,679.0833333333334,94.51041666666667,681.5,94.4375C683.9166666666666,94.36458333333333,686.3333333333334,94.29166666666667,688.75,94.21875C691.1666666666666,94.14583333333333,693.5833333333334,94.07291666666667,696,94C698.4166666666666,93.92708333333333,700.8333333333334,93.85416666666667,703.25,93.78125C705.6666666666666,93.70833333333333,708.0833333333334,93.63541666666667,710.5,93.5625C712.9166666666666,93.48958333333333,715.3333333333334,93.41666666666667,717.75,93.34375C720.1666666666666,93.27083333333333,722.5833333333334,93.19791666666666,725,93.12499999999999C727.4166666666666,93.05208333333331,729.8333333333334,92.97916666666667,732.25,92.90625C734.6666666666666,92.83333333333333,737.0833333333334,92.76041666666666,739.5,92.68749999999999C741.9166666666666,92.61458333333331,744.3333333333334,92.54166666666667,746.75,92.46875C749.1666666666666,92.39583333333333,751.5833333333334,92.32291666666666,754,92.24999999999999C756.4166666666666,92.17708333333331,758.8333333333334,92.10416666666666,761.25,92.03125C763.6666666666666,91.95833333333334,766.0833333333334,91.88541666666667,768.5,91.8125C770.9166666666666,91.73958333333333,773.3333333333334,91.66666666666667,775.75,91.59375C778.1666666666666,91.52083333333333,780.5833333333334,91.44791666666667,783,91.375C785.4166666666667,91.30208333333333,787.8333333333334,91.22916666666667,790.2500000000001,91.15625C792.6666666666667,91.08333333333333,795.0833333333335,91.01041666666667,797.5000000000001,90.9375C799.9166666666667,90.86458333333333,802.3333333333335,90.79166666666667,804.7500000000001,90.71875C807.1666666666667,90.64583333333333,809.5833333333335,90.57291666666667,812.0000000000001,90.5C814.4166666666667,90.42708333333333,816.8333333333333,90.35416666666667,819.2499999999999,90.28125C821.6666666666665,90.20833333333333,824.0833333333333,90.13541666666667,826.4999999999999,90.0625C828.9166666666665,89.98958333333333,831.3333333333333,89.91666666666667,833.7499999999999,89.84375C836.1666666666665,89.77083333333333,838.5833333333333,89.69791666666667,840.9999999999999,89.625C843.4166666666666,89.55208333333333,845.8333333333333,89.47916666666667,848.25,89.40625C850.6666666666666,89.33333333333333,853.0833333333334,89.26041666666667,855.5,89.1875C857.9166666666666,89.11458333333333,860.3333333333334,89.04166666666667,862.75,88.96875C865.1666666666666,88.89583333333333,867.5833333333334,88.82291666666667,870,88.75C872.4166666666666,88.67708333333333,874.8333333333334,88.60416666666667,877.25,88.53125C879.6666666666666,88.45833333333333,882.0833333333334,88.38541666666667,884.5,88.3125C886.9166666666666,88.23958333333333,889.3333333333334,88.16666666666667,891.75,88.09375C894.1666666666666,88.02083333333333,896.5833333333334,87.94791666666667,899,87.875C901.4166666666666,87.80208333333333,903.8333333333334,87.72916666666667,906.25,87.65625C908.6666666666666,87.58333333333333,911.0833333333334,87.51041666666667,913.5,87.4375C915.9166666666666,87.36458333333333,918.3333333333334,87.29166666666667,920.75,87.21875C923.1666666666666,87.14583333333333,925.5833333333334,87.07291666666667,928,87C930.4166666666666,86.92708333333333,932.8333333333334,86.85416666666666,935.25,86.78125C937.6666666666666,86.70833333333334,940.0833333333334,86.63541666666669,942.5,86.56250000000001C944.9166666666666,86.48958333333334,947.3333333333334,86.41666666666667,949.75,86.34375C952.1666666666666,86.27083333333333,954.5833333333334,86.19791666666667,957,86.125C959.4166666666666,86.05208333333333,961.8333333333334,85.97916666666667,964.25,85.90625C966.6666666666667,85.83333333333333,969.0833333333334,85.76041666666667,971.5000000000001,85.6875C973.9166666666667,85.61458333333333,976.3333333333335,85.54166666666667,978.7500000000001,85.46875C981.1666666666667,85.39583333333333,983.5833333333335,85.32291666666667,986.0000000000001,85.25C988.4166666666667,85.17708333333333,990.8333333333335,85.10416666666666,993.2500000000001,85.03124999999999C995.6666666666667,84.95833333333331,998.0833333333333,84.95833333333333,1000.4999999999999,84.8125C1002.9166666666665,84.66666666666667,1005.3333333333333,84.34879032258064,1007.7499999999999,84.11693548387096C1010.1666666666665,83.88508064516128,1012.5833333333333,83.65322580645162,1014.9999999999999,83.42137096774194C1017.4166666666665,83.18951612903226,1019.8333333333333,82.95766129032258,1022.2499999999999,82.7258064516129C1024.6666666666665,82.49395161290322,1027.0833333333333,82.26209677419355,1029.5,82.03024193548387C1031.9166666666667,81.79838709677419,1034.3333333333333,81.56653225806453,1036.75,81.33467741935485C1039.1666666666667,81.10282258064517,1041.5833333333333,80.87096774193549,1044,80.63911290322581C1046.4166666666667,80.40725806451613,1048.8333333333333,80.17540322580646,1051.25,79.94354838709678C1053.6666666666667,79.7116935483871,1056.0833333333333,79.47983870967742,1058.5,79.24798387096774C1060.9166666666667,79.01612903225806,1063.3333333333333,78.7842741935484,1065.75,78.55241935483872C1068.1666666666667,78.32056451612904,1070.5833333333333,78.08870967741936,1073,77.85685483870968C1075.4166666666667,77.625,1077.8333333333333,77.39314516129032,1080.25,77.16129032258064C1082.6666666666667,76.92943548387096,1085.0833333333333,76.6975806451613,1087.5,76.46572580645162C1089.9166666666667,76.23387096774194,1092.3333333333333,76.00201612903227,1094.75,75.77016129032259C1097.1666666666667,75.53830645161291,1099.5833333333333,75.30645161290323,1102,75.07459677419355C1104.4166666666667,74.84274193548387,1106.8333333333333,74.61088709677419,1109.25,74.37903225806451C1111.6666666666667,74.14717741935483,1114.0833333333333,73.91532258064517,1116.5,73.68346774193549C1118.9166666666667,73.45161290322581,1121.3333333333333,73.21975806451614,1123.75,72.98790322580646C1126.1666666666667,72.75604838709678,1128.5833333333333,72.5241935483871,1131,72.29233870967742C1133.4166666666667,72.06048387096774,1135.8333333333333,71.82862903225806,1138.25,71.59677419354838C1140.6666666666667,71.3649193548387,1143.0833333333333,71.13306451612904,1145.5,70.90120967741936C1147.9166666666667,70.66935483870968,1150.3333333333333,70.4375,1152.75,70.20564516129032C1155.1666666666667,69.97379032258064,1157.5833333333333,69.74193548387096,1160,69.51008064516128C1162.4166666666667,69.2782258064516,1164.8333333333333,69.04637096774194,1167.25,68.81451612903226C1169.6666666666667,68.58266129032258,1172.0833333333333,68.35080645161291,1174.5,68.11895161290323C1176.9166666666667,67.88709677419355,1179.3333333333333,67.65524193548386,1181.75,67.42338709677418C1184.1666666666667,67.1915322580645,1186.5833333333333,66.95967741935485,1189,66.72782258064517C1191.4166666666667,66.49596774193549,1193.8333333333333,66.26411290322581,1196.25,66.03225806451613C1198.6666666666667,65.80040322580645,1201.0833333333333,65.56854838709677,1203.5,65.33669354838709C1205.9166666666667,65.10483870967741,1208.3333333333333,64.87298387096774,1210.75,64.64112903225806C1213.1666666666667,64.40927419354838,1215.5833333333333,64.1774193548387,1218,63.94556451612903C1220.4166666666667,63.71370967741936,1222.8333333333333,63.48185483870969,1225.25,63.25000000000001C1227.6666666666667,63.01814516129033,1230.0833333333333,62.78629032258065,1232.5,62.55443548387097C1234.9166666666667,62.32258064516129,1237.3333333333333,62.09072580645161,1239.75,61.85887096774193C1242.1666666666667,61.62701612903225,1244.5833333333333,61.39516129032258,1247,61.163306451612904C1249.4166666666667,60.93145161290323,1251.8333333333333,60.69959677419356,1254.25,60.46774193548388C1256.6666666666667,60.2358870967742,1259.0833333333333,60.00403225806452,1261.5,59.77217741935484C1263.9166666666667,59.54032258064516,1266.3333333333333,59.30846774193548,1268.75,59.0766129032258C1271.1666666666667,58.84475806451612,1273.5833333333333,58.61290322580645,1276,58.381048387096776C1278.4166666666667,58.1491935483871,1280.8333333333333,57.91733870967743,1283.25,57.68548387096775C1285.6666666666667,57.45362903225807,1288.0833333333333,57.221774193548384,1290.5,56.989919354838705C1292.9166666666667,56.758064516129025,1295.3333333333333,56.526209677419345,1297.75,56.29435483870967C1300.1666666666667,56.0625,1302.5833333333333,55.83064516129033,1305,55.59879032258065C1307.4166666666667,55.36693548387097,1309.8333333333333,55.135080645161274,1312.25,54.9032258064516C1314.6666666666667,54.67137096774193,1317.0833333333333,54.43951612903226,1319.5,54.20766129032259C1321.9166666666667,53.97580645161292,1324.3333333333333,53.74395161290323,1326.75,53.51209677419355C1329.1666666666667,53.28024193548387,1331.5833333333333,53.04838709677419,1334,52.81653225806451C1336.4166666666667,52.58467741935483,1338.8333333333333,52.35282258064517,1341.25,52.12096774193549C1343.6666666666667,51.88911290322581,1346.0833333333333,51.65725806451613,1348.5,51.42540322580645C1350.9166666666667,51.19354838709677,1353.3333333333333,50.9616935483871,1355.75,50.72983870967742C1358.1666666666667,50.497983870967744,1360.5833333333333,50.266129032258064,1363,50.034274193548384C1365.4166666666667,49.802419354838705,1367.8333333333333,49.570564516129025,1370.25,49.338709677419345C1372.6666666666667,49.106854838709666,1375.0833333333333,48.87499999999999,1377.5,48.64314516129032C1379.9166666666667,48.41129032258065,1382.3333333333333,48.179435483870975,1384.75,47.947580645161295C1387.1666666666667,47.715725806451616,1389.5833333333333,47.483870967741936,1392,47.252016129032256C1394.4166666666667,47.02016129032258,1396.8333333333333,46.7883064516129,1399.25,46.55645161290322C1401.6666666666667,46.32459677419354,1404.0833333333333,46.092741935483865,1406.5,45.86088709677419C1408.9166666666667,45.62903225806452,1411.3333333333333,45.39717741935485,1413.75,45.16532258064517C1416.1666666666667,44.93346774193549,1418.5833333333333,44.70161290322581,1421,44.46975806451613C1423.4166666666667,44.23790322580645,1425.8333333333333,44.006048387096776,1428.25,43.774193548387096C1430.6666666666667,43.542338709677416,1433.0833333333333,43.31048387096774,1435.5,43.07862903225806C1437.9166666666667,42.84677419354838,1440.3333333333333,42.614919354838705,1442.75,42.38306451612903C1445.1666666666667,42.15120967741936,1447.5833333333333,41.91935483870968,1450,41.68750000000001" fill="transparent" stroke-linecap="round" stroke="#B6509E" stroke-width="2"></path><path class="visx-linepath" d="M0,107.81249999928124C2.4166666666666665,107.69270833291407,4.833333333333334,107.57291666654687,7.25,107.453125C9.666666666666666,107.33333333345313,12.083333333333334,107.21354166666667,14.5,107.09375C16.916666666666668,106.97395833333333,19.333333333333332,106.85416666666667,21.75,106.734375C24.166666666666668,106.61458333333333,26.583333333333332,106.49479166666667,29,106.375C31.416666666666668,106.25520833333333,33.833333333333336,106.13541666666667,36.25,106.015625C38.666666666666664,105.89583333333333,41.083333333333336,105.77604166666667,43.5,105.65625C45.91666666666667,105.53645833333333,48.333333333333336,105.41666666666667,50.75000000000001,105.296875C53.16666666666667,105.17708333333333,55.583333333333336,105.05729166666667,58,104.9375C60.416666666666664,104.81770833333333,62.833333333333336,104.69791666666667,65.25,104.578125C67.66666666666667,104.45833333333333,70.08333333333333,104.33854166666667,72.5,104.21875C74.91666666666667,104.09895833333333,77.33333333333333,103.97916666666667,79.75,103.859375C82.16666666666667,103.73958333333333,84.58333333333333,103.61979166666667,87,103.5C89.41666666666667,103.38020833333333,91.83333333333333,103.26041666666667,94.25,103.140625C96.66666666666667,103.02083333333333,99.08333333333334,102.90104166666667,101.50000000000001,102.78125C103.91666666666667,102.66145833333333,106.33333333333334,102.54166666666667,108.75,102.421875C111.16666666666667,102.30208333333333,113.58333333333333,102.18229166666667,116,102.0625C118.41666666666667,101.94270833333333,120.83333333333334,101.82291666666667,123.25000000000001,101.703125C125.66666666666667,101.58333333333333,128.08333333333334,101.46354166666667,130.5,101.34375C132.91666666666666,101.22395833333333,135.33333333333334,101.10416666666667,137.75,100.984375C140.16666666666666,100.86458333333333,142.58333333333334,100.74479166666667,145,100.625C147.41666666666666,100.50520833333333,149.83333333333334,100.38541666666667,152.25,100.265625C154.66666666666666,100.14583333333333,157.08333333333334,100.02604166666667,159.5,99.90625C161.91666666666666,99.78645833333333,164.33333333333334,99.66666666666667,166.75,99.546875C169.16666666666666,99.42708333333333,171.58333333333334,99.30729166666667,174,99.1875C176.41666666666666,99.06770833333333,178.83333333333334,98.94791666666667,181.25,98.828125C183.66666666666666,98.70833333333333,186.08333333333334,98.58854166666667,188.5,98.46875C190.91666666666666,98.34895833333333,193.33333333333334,98.22916666666667,195.75,98.109375C198.16666666666669,97.98958333333333,200.58333333333334,97.86979166666667,203.00000000000003,97.75C205.41666666666669,97.63020833333333,207.83333333333331,97.51041666666667,210.24999999999997,97.390625C212.66666666666666,97.27083333333333,215.08333333333331,97.15104166666667,217.5,97.03125C219.91666666666666,96.91145833333333,222.33333333333334,96.79166666666667,224.75,96.671875C227.16666666666666,96.55208333333333,229.58333333333334,96.43229166666667,232,96.3125C234.41666666666666,96.19270833333333,236.83333333333334,96.07291666666667,239.25,95.953125C241.66666666666669,95.83333333333333,244.08333333333334,95.71354166666667,246.50000000000003,95.59375C248.91666666666669,95.47395833333333,251.33333333333331,95.35416666666667,253.74999999999997,95.234375C256.16666666666663,95.11458333333333,258.5833333333333,94.99479166666667,261,94.875C263.4166666666667,94.75520833333333,265.8333333333333,94.63541666666666,268.25,94.515625C270.6666666666667,94.39583333333334,273.0833333333333,94.27604166666669,275.5,94.15625000000001C277.9166666666667,94.03645833333334,280.3333333333333,93.91666666666667,282.75,93.796875C285.1666666666667,93.67708333333333,287.5833333333333,93.55729166666667,290,93.4375C292.4166666666667,93.31770833333333,294.8333333333333,93.19791666666667,297.25,93.078125C299.6666666666667,92.95833333333333,302.0833333333333,92.83854166666667,304.5,92.71875C306.9166666666667,92.59895833333333,309.3333333333333,92.47916666666667,311.75,92.359375C314.1666666666667,92.23958333333333,316.5833333333333,92.11979166666667,319,92C321.4166666666667,91.88020833333333,323.8333333333333,91.76041666666667,326.25,91.640625C328.6666666666667,91.52083333333333,331.0833333333333,91.40104166666667,333.5,91.28125C335.9166666666667,91.16145833333333,338.3333333333333,91.04166666666667,340.75,90.921875C343.1666666666667,90.80208333333333,345.5833333333333,90.68229166666667,348,90.5625C350.4166666666667,90.44270833333333,352.8333333333333,90.32291666666667,355.25,90.203125C357.6666666666667,90.08333333333333,360.0833333333333,89.96354166666667,362.5,89.84375C364.9166666666667,89.72395833333333,367.3333333333333,89.60416666666667,369.75,89.484375C372.1666666666667,89.36458333333333,374.5833333333333,89.24479166666667,377,89.125C379.4166666666667,89.00520833333333,381.8333333333333,88.88541666666667,384.25,88.765625C386.6666666666667,88.64583333333333,389.0833333333333,88.52604166666667,391.5,88.40625C393.9166666666667,88.28645833333333,396.33333333333337,88.16666666666667,398.75000000000006,88.046875C401.16666666666674,87.92708333333333,403.58333333333337,87.80729166666667,406.00000000000006,87.6875C408.4166666666667,87.56770833333333,410.8333333333333,87.44791666666667,413.24999999999994,87.328125C415.66666666666663,87.20833333333333,418.08333333333326,87.08854166666667,420.49999999999994,86.96875C422.91666666666663,86.84895833333333,425.3333333333333,86.72916666666667,427.75,86.609375C430.1666666666667,86.48958333333333,432.5833333333333,86.36979166666667,435,86.25C437.4166666666667,86.13020833333333,439.8333333333333,86.01041666666667,442.25,85.890625C444.6666666666667,85.77083333333333,447.0833333333333,85.65104166666667,449.5,85.53125C451.9166666666667,85.41145833333333,454.3333333333333,85.29166666666667,456.75,85.171875C459.1666666666667,85.05208333333333,461.5833333333333,84.93229166666667,464,84.8125C466.4166666666667,84.69270833333333,468.8333333333333,84.57291666666667,471.25,84.453125C473.6666666666667,84.33333333333333,476.0833333333333,84.21354166666667,478.5,84.09375C480.9166666666667,83.97395833333333,483.33333333333337,83.85416666666667,485.75000000000006,83.734375C488.16666666666674,83.61458333333333,490.58333333333337,83.49479166666667,493.00000000000006,83.375C495.4166666666667,83.25520833333333,497.8333333333333,83.13541666666667,500.24999999999994,83.015625C502.66666666666663,82.89583333333333,505.08333333333326,82.77604166666667,507.49999999999994,82.65625C509.91666666666663,82.53645833333333,512.3333333333333,82.41666666666667,514.75,82.296875C517.1666666666666,82.17708333333333,519.5833333333334,82.05729166666667,522,81.9375C524.4166666666666,81.81770833333333,526.8333333333334,81.69791666666667,529.25,81.578125C531.6666666666666,81.45833333333333,534.0833333333334,81.33854166666667,536.5,81.21875C538.9166666666666,81.09895833333333,541.3333333333334,80.97916666666667,543.75,80.859375C546.1666666666666,80.73958333333333,548.5833333333334,80.61979166666667,551,80.5C553.4166666666666,80.38020833333333,555.8333333333334,80.26041666666667,558.25,80.140625C560.6666666666666,80.02083333333333,563.0833333333334,79.90104166666667,565.5,79.78125C567.9166666666666,79.66145833333333,570.3333333333334,79.54166666666667,572.75,79.421875C575.1666666666666,79.30208333333333,577.5833333333334,79.18229166666667,580,79.0625C582.4166666666666,78.94270833333333,584.8333333333334,78.82291666666667,587.25,78.703125C589.6666666666666,78.58333333333333,592.0833333333334,78.46354166666667,594.5,78.34375C596.9166666666666,78.22395833333333,599.3333333333334,78.10416666666667,601.75,77.984375C604.1666666666666,77.86458333333333,606.5833333333334,77.74479166666667,609,77.625C611.4166666666666,77.50520833333333,613.8333333333334,77.38541666666667,616.25,77.265625C618.6666666666666,77.14583333333333,621.0833333333334,77.02604166666667,623.5,76.90625C625.9166666666666,76.78645833333333,628.3333333333334,76.66666666666667,630.75,76.546875C633.1666666666666,76.42708333333333,635.5833333333334,76.30729166666667,638,76.1875C640.4166666666666,76.06770833333333,642.8333333333334,75.94791666666666,645.25,75.82812499999999C647.6666666666666,75.70833333333331,650.0833333333334,75.58854166666666,652.5,75.46875C654.9166666666666,75.34895833333334,657.3333333333334,75.22916666666667,659.75,75.109375C662.1666666666666,74.98958333333333,664.5833333333334,74.86979166666664,667,74.74999999999999C669.4166666666666,74.63020833333333,671.8333333333334,74.51041666666667,674.25,74.39062500000001C676.6666666666666,74.27083333333336,679.0833333333334,74.15104166666667,681.5,74.03125C683.9166666666666,73.91145833333333,686.3333333333334,73.79166666666666,688.75,73.671875C691.1666666666666,73.55208333333334,693.5833333333334,73.43229166666669,696,73.31250000000001C698.4166666666666,73.19270833333334,700.8333333333334,73.07291666666667,703.25,72.953125C705.6666666666666,72.83333333333333,708.0833333333334,72.71354166666667,710.5,72.59375C712.9166666666666,72.47395833333333,715.3333333333334,72.35416666666667,717.75,72.234375C720.1666666666666,72.11458333333333,722.5833333333334,71.99479166666667,725,71.875C727.4166666666666,71.75520833333333,729.8333333333334,71.63541666666667,732.25,71.515625C734.6666666666666,71.39583333333333,737.0833333333334,71.27604166666667,739.5,71.15625C741.9166666666666,71.03645833333333,744.3333333333334,70.91666666666667,746.75,70.796875C749.1666666666666,70.67708333333333,751.5833333333334,70.55729166666667,754,70.4375C756.4166666666666,70.31770833333333,758.8333333333334,70.19791666666667,761.25,70.078125C763.6666666666666,69.95833333333333,766.0833333333334,69.83854166666667,768.5,69.71875C770.9166666666666,69.59895833333333,773.3333333333334,69.47916666666667,775.75,69.359375C778.1666666666666,69.23958333333333,780.5833333333334,69.11979166666667,783,69C785.4166666666667,68.88020833333333,787.8333333333334,68.76041666666667,790.2500000000001,68.640625C792.6666666666667,68.52083333333333,795.0833333333335,68.40104166666667,797.5000000000001,68.28125C799.9166666666667,68.16145833333333,802.3333333333335,68.04166666666667,804.7500000000001,67.921875C807.1666666666667,67.80208333333333,809.5833333333335,67.68229166666667,812.0000000000001,67.5625C814.4166666666667,67.44270833333333,816.8333333333333,67.32291666666667,819.2499999999999,67.203125C821.6666666666665,67.08333333333333,824.0833333333333,66.96354166666667,826.4999999999999,66.84375C828.9166666666665,66.72395833333333,831.3333333333333,66.60416666666667,833.7499999999999,66.484375C836.1666666666665,66.36458333333333,838.5833333333333,66.24479166666667,840.9999999999999,66.125C843.4166666666666,66.00520833333333,845.8333333333333,65.88541666666667,848.25,65.765625C850.6666666666666,65.64583333333333,853.0833333333334,65.52604166666667,855.5,65.40625C857.9166666666666,65.28645833333333,860.3333333333334,65.16666666666667,862.75,65.046875C865.1666666666666,64.92708333333333,867.5833333333334,64.80729166666667,870,64.6875C872.4166666666666,64.56770833333333,874.8333333333334,64.44791666666667,877.25,64.328125C879.6666666666666,64.20833333333333,882.0833333333334,64.08854166666667,884.5,63.96875C886.9166666666666,63.848958333333336,889.3333333333334,63.729166666666664,891.75,63.609375C894.1666666666666,63.489583333333336,896.5833333333334,63.36979166666667,899,63.25000000000001C901.4166666666666,63.13020833333334,903.8333333333334,63.01041666666667,906.25,62.890625C908.6666666666666,62.77083333333333,911.0833333333334,62.65104166666666,913.5,62.53124999999999C915.9166666666666,62.41145833333333,918.3333333333334,62.291666666666664,920.75,62.171875C923.1666666666666,62.052083333333336,925.5833333333334,61.932291666666664,928,61.8125C930.4166666666666,61.692708333333336,932.8333333333334,61.57291666666667,935.25,61.45312500000001C937.6666666666666,61.33333333333334,940.0833333333334,61.21354166666667,942.5,61.09375C944.9166666666666,60.97395833333333,947.3333333333334,60.85416666666666,949.75,60.73437499999999C952.1666666666666,60.61458333333333,954.5833333333334,60.494791666666664,957,60.375C959.4166666666666,60.255208333333336,961.8333333333334,60.135416666666664,964.25,60.015625C966.6666666666667,59.895833333333336,969.0833333333334,59.77604166666667,971.5000000000001,59.65625000000001C973.9166666666667,59.53645833333334,976.3333333333335,59.41666666666667,978.7500000000001,59.296875C981.1666666666667,59.17708333333333,983.5833333333335,59.05729166666666,986.0000000000001,58.93749999999999C988.4166666666667,58.81770833333333,990.8333333333335,58.697916666666664,993.2500000000001,58.578125C995.6666666666667,58.458333333333336,998.0833333333333,58.39457325268817,1000.4999999999999,58.21875C1002.9166666666665,58.04292674731183,1005.3333333333333,57.755040322580655,1007.7499999999999,57.523185483870975C1010.1666666666665,57.291330645161295,1012.5833333333333,57.059475806451616,1014.9999999999999,56.827620967741936C1017.4166666666665,56.595766129032256,1019.8333333333333,56.36391129032257,1022.2499999999999,56.1320564516129C1024.6666666666665,55.90020161290322,1027.0833333333333,55.66834677419355,1029.5,55.43649193548387C1031.9166666666667,55.2046370967742,1034.3333333333333,54.97278225806451,1036.75,54.74092741935483C1039.1666666666667,54.50907258064515,1041.5833333333333,54.27721774193549,1044,54.04536290322581C1046.4166666666667,53.81350806451613,1048.8333333333333,53.58165322580645,1051.25,53.34979838709677C1053.6666666666667,53.11794354838709,1056.0833333333333,52.8860887096774,1058.5,52.65423387096773C1060.9166666666667,52.42237903225806,1063.3333333333333,52.19052419354839,1065.75,51.95866935483872C1068.1666666666667,51.726814516129046,1070.5833333333333,51.49495967741936,1073,51.26310483870968C1075.4166666666667,51.03125,1077.8333333333333,50.79939516129032,1080.25,50.56754032258064C1082.6666666666667,50.33568548387096,1085.0833333333333,50.103830645161295,1087.5,49.871975806451616C1089.9166666666667,49.640120967741936,1092.3333333333333,49.408266129032256,1094.75,49.17641129032258C1097.1666666666667,48.9445564516129,1099.5833333333333,48.712701612903224,1102,48.48084677419355C1104.4166666666667,48.24899193548388,1106.8333333333333,48.0171370967742,1109.25,47.78528225806452C1111.6666666666667,47.55342741935484,1114.0833333333333,47.32157258064516,1116.5,47.08971774193548C1118.9166666666667,46.8578629032258,1121.3333333333333,46.626008064516135,1123.75,46.394153225806456C1126.1666666666667,46.162298387096776,1128.5833333333333,45.930443548387096,1131,45.698588709677416C1133.4166666666667,45.46673387096774,1135.8333333333333,45.23487903225807,1138.25,45.00302419354839C1140.6666666666667,44.77116935483871,1143.0833333333333,44.53931451612903,1145.5,44.30745967741935C1147.9166666666667,44.07560483870967,1150.3333333333333,43.84374999999999,1152.75,43.61189516129031C1155.1666666666667,43.38004032258063,1157.5833333333333,43.14818548387097,1160,42.91633064516129C1162.4166666666667,42.68447580645161,1164.8333333333333,42.45262096774193,1167.25,42.22076612903225C1169.6666666666667,41.98891129032257,1172.0833333333333,41.757056451612904,1174.5,41.525201612903224C1176.9166666666667,41.293346774193544,1179.3333333333333,41.061491935483865,1181.75,40.829637096774185C1184.1666666666667,40.597782258064505,1186.5833333333333,40.36592741935483,1189,40.13407258064516C1191.4166666666667,39.90221774193549,1193.8333333333333,39.670362903225815,1196.25,39.438508064516135C1198.6666666666667,39.206653225806456,1201.0833333333333,38.97479838709677,1203.5,38.74294354838709C1205.9166666666667,38.51108870967741,1208.3333333333333,38.27923387096774,1210.75,38.047379032258064C1213.1666666666667,37.81552419354839,1215.5833333333333,37.58366935483871,1218,37.35181451612903C1220.4166666666667,37.11995967741935,1222.8333333333333,36.88810483870966,1225.25,36.656249999999986C1227.6666666666667,36.42439516129031,1230.0833333333333,36.19254032258065,1232.5,35.960685483870975C1234.9166666666667,35.7288306451613,1237.3333333333333,35.496975806451616,1239.75,35.265120967741936C1242.1666666666667,35.033266129032256,1244.5833333333333,34.80141129032257,1247,34.5695564516129C1249.4166666666667,34.337701612903224,1251.8333333333333,34.105846774193566,1254.25,33.873991935483886C1256.6666666666667,33.642137096774206,1259.0833333333333,33.41028225806451,1261.5,33.17842741935483C1263.9166666666667,32.94657258064515,1266.3333333333333,32.71471774193548,1268.75,32.48286290322581C1271.1666666666667,32.251008064516135,1273.5833333333333,32.01915322580646,1276,31.787298387096783C1278.4166666666667,31.555443548387103,1280.8333333333333,31.32358870967741,1283.25,31.091733870967733C1285.6666666666667,30.859879032258057,1288.0833333333333,30.628024193548395,1290.5,30.39616935483872C1292.9166666666667,30.164314516129043,1295.3333333333333,29.93245967741936,1297.75,29.70060483870968C1300.1666666666667,29.46875,1302.5833333333333,29.23689516129032,1305,29.005040322580644C1307.4166666666667,28.773185483870968,1309.8333333333333,28.541330645161295,1312.25,28.30947580645162C1314.6666666666667,28.077620967741943,1317.0833333333333,27.84576612903226,1319.5,27.61391129032258C1321.9166666666667,27.3820564516129,1324.3333333333333,27.150201612903217,1326.75,26.91834677419354C1329.1666666666667,26.686491935483865,1331.5833333333333,26.454637096774192,1334,26.222782258064516C1336.4166666666667,25.99092741935484,1338.8333333333333,25.759072580645153,1341.25,25.527217741935477C1343.6666666666667,25.2953629032258,1346.0833333333333,25.063508064516142,1348.5,24.831653225806466C1350.9166666666667,24.59979838709679,1353.3333333333333,24.367943548387096,1355.75,24.136088709677416C1358.1666666666667,23.904233870967737,1360.5833333333333,23.672379032258068,1363,23.44052419354839C1365.4166666666667,23.208669354838715,1367.8333333333333,22.97681451612904,1370.25,22.744959677419363C1372.6666666666667,22.513104838709687,1375.0833333333333,22.281250000000007,1377.5,22.049395161290327C1379.9166666666667,21.817540322580648,1382.3333333333333,21.58568548387095,1384.75,21.353830645161274C1387.1666666666667,21.121975806451598,1389.5833333333333,20.89012096774194,1392,20.658266129032263C1394.4166666666667,20.426411290322587,1396.8333333333333,20.1945564516129,1399.25,19.962701612903224C1401.6666666666667,19.730846774193548,1404.0833333333333,19.498991935483875,1406.5,19.2671370967742C1408.9166666666667,19.035282258064523,1411.3333333333333,18.80342741935484,1413.75,18.571572580645164C1416.1666666666667,18.339717741935488,1418.5833333333333,18.10786290322581,1421,17.876008064516135C1423.4166666666667,17.64415322580646,1425.8333333333333,17.41229838709678,1428.25,17.1804435483871C1430.6666666666667,16.94858870967742,1433.0833333333333,16.716733870967737,1435.5,16.48487903225806C1437.9166666666667,16.253024193548384,1440.3333333333333,16.02116935483871,1442.75,15.789314516129036C1445.1666666666667,15.55745967741936,1447.5833333333333,15.325604838709678,1450,15.093749999999998" fill="transparent" stroke-linecap="round" stroke="#E7C6DF" stroke-width="2"></path><g class="visx-group visx-axis visx-axis-bottom" transform="translate(0, 115)"><g class="visx-group visx-axis-tick" transform="translate(0, 0)"><line class="visx-line" x1="0" y1="0" x2="0" y2="8" fill="transparent" shape-rendering="crispEdges" stroke="#000" stroke-width="0" stroke-linecap="square"></line><svg x="0" y="0" font-size="10" style="overflow:visible"><text transform="" x="0" y="18" fill="#000" font-size="10" text-anchor="middle"><tspan x="0" dy="0em">0%</tspan></text></svg></g><g class="visx-group visx-axis-tick" transform="translate(0, 0)"><line class="visx-line" x1="362.5" y1="0" x2="362.5" y2="8" fill="transparent" shape-rendering="crispEdges" stroke="#000" stroke-width="0" stroke-linecap="square"></line><svg x="0" y="0" font-size="10" style="overflow:visible"><text transform="" x="362.5" y="18" fill="#000" font-size="10" text-anchor="middle"><tspan x="362.5" dy="0em">25%</tspan></text></svg></g><g class="visx-group visx-axis-tick" transform="translate(0, 0)"><line class="visx-line" x1="725" y1="0" x2="725" y2="8" fill="transparent" shape-rendering="crispEdges" stroke="#000" stroke-width="0" stroke-linecap="square"></line><svg x="0" y="0" font-size="10" style="overflow:visible"><text transform="" x="725" y="18" fill="#000" font-size="10" text-anchor="middle"><tspan x="725" dy="0em">50%</tspan></text></svg></g><g class="visx-group visx-axis-tick" transform="translate(0, 0)"><line class="visx-line" x1="1087.5" y1="0" x2="1087.5" y2="8" fill="transparent" shape-rendering="crispEdges" stroke="#000" stroke-width="0" stroke-linecap="square"></line><svg x="0" y="0" font-size="10" style="overflow:visible"><text transform="" x="1087.5" y="18" fill="#000" font-size="10" text-anchor="middle"><tspan x="1087.5" dy="0em">75%</tspan></text></svg></g><g class="visx-group visx-axis-tick" transform="translate(0, 0)"><line class="visx-line" x1="1450" y1="0" x2="1450" y2="8" fill="transparent" shape-rendering="crispEdges" stroke="#000" stroke-width="0" stroke-linecap="square"></line><svg x="0" y="0" font-size="10" style="overflow:visible"><text transform="" x="1450" y="18" fill="#000" font-size="10" text-anchor="middle"><tspan x="1450" dy="0em">100%</tspan></text></svg></g><line class="visx-line visx-axis-line" x1="0.5" y1="0" x2="1450.5" y2="0" fill="transparent" shape-rendering="crispEdges" stroke="#222" stroke-width="0"></line></g><g class="visx-group visx-axis visx-axis-left" transform="translate(0, 0)"><g class="visx-group visx-axis-tick" transform="translate(0, 0)"><line class="visx-line" x1="0" y1="115" x2="-8" y2="115" fill="transparent" shape-rendering="crispEdges" stroke="#222" stroke-width="0" stroke-linecap="square"></line><svg x="-30" y="0" font-size="8" style="overflow:visible"><text transform="" x="-8" y="115" fill="#000" font-size="8" text-anchor="start"><tspan x="-8" dy="0em">0%</tspan></text></svg></g><g class="visx-group visx-axis-tick" transform="translate(0, 0)"><line class="visx-line" x1="0" y1="43.125" x2="-8" y2="43.125" fill="transparent" shape-rendering="crispEdges" stroke="#222" stroke-width="0" stroke-linecap="square"></line><svg x="-30" y="0" font-size="8" style="overflow:visible"><text transform="" x="-8" y="43.125" fill="#000" font-size="8" text-anchor="start"><tspan x="-8" dy="0em">100%</tspan></text></svg></g><line class="visx-line visx-axis-line" x1="0" y1="115.5" x2="0" y2="0.5" fill="transparent" shape-rendering="crispEdges" stroke="#222" stroke-width="0"></line></g><rect class="visx-bar" width="1450" height="115" fill="transparent"></rect><line class="visx-line" x1="1000.4999999999999" y1="28" x2="1000.4999999999999" y2="115" fill="transparent" shape-rendering="crispEdges" stroke="#0062D2" stroke-width="1" pointer-events="none" stroke-dasharray="5,2"></line><svg x="0" y="0" font-size="10px" style="overflow:visible"><text transform="" x="1000.4999999999999" y="20" font-size="10px" fill="#fff" stroke="#fff" stroke-width="0.8em" text-anchor="middle"><tspan x="1000.4999999999999" dy="0.355em">Optimal 69%</tspan></text></svg><svg x="0" y="0" font-size="10px" style="overflow:visible"><text transform="" x="1000.4999999999999" y="20" font-size="10px" fill="#62677B" text-anchor="middle"><tspan x="1000.4999999999999" dy="0.355em">Optimal 69%</tspan></text></svg></g></svg>