<?xml version="1.0"?><svg xmlns="http://www.w3.org/2000/svg" xmlns:xlink= "http://www.w3.org/1999/xlink" style="background: white;" width="1500" height="185"> <g style="color: black; font-size: 13px; font-family: sans-serif; transform: translate(18px, 25px);"><g><circle r="3" cx="-6" cy="-5" style="fill: #B6509E" /><text>Borrow APR, variable</text></g><g style="transform: translateX(150px);"><circle r="3" cx="-6" cy="-5" style="fill: rgb(231, 198, 223)" /><text>Borrow APR, stable</text></g><g style="transform: translateX(290px);"><circle r="3" cx="-6" cy="-5" style="fill: rgb(0, 98, 210)" /><text>Utilization Rate</text></g></g><g class="visx-group" transform="translate(40, 50)"><g class="visx-group visx-rows" transform="translate(0, 0)"><line class="visx-line" x1="0" y1="115" x2="1450" y2="115" fill="transparent" shape-rendering="crispEdges" stroke="#000" stroke-width="1" stroke-dasharray="3,3" pointer-events="none"></line><line class="visx-line" x1="0" y1="83.05555555555556" x2="1450" y2="83.05555555555556" fill="transparent" shape-rendering="crispEdges" stroke="#000" stroke-width="1" stroke-dasharray="3,3" pointer-events="none"></line><line class="visx-line" x1="0" y1="51.11111111111111" x2="1450" y2="51.11111111111111" fill="transparent" shape-rendering="crispEdges" stroke="#000" stroke-width="1" stroke-dasharray="3,3" pointer-events="none"></line><line class="visx-line" x1="0" y1="19.16666666666666" x2="1450" y2="19.16666666666666" fill="transparent" shape-rendering="crispEdges" stroke="#000" stroke-width="1" stroke-dasharray="3,3" pointer-events="none"></line></g><path class="visx-linepath" d="M0,114.36111111106472C2.4166666666666665,114.35337891735185,4.833333333333334,114.34564672363899,7.25,114.33791452991453C9.666666666666666,114.33018233619006,12.083333333333334,114.32245014245014,14.5,114.31471794871794C16.916666666666668,114.30698575498575,19.333333333333332,114.29925356125356,21.75,114.29152136752137C24.166666666666668,114.28378917378917,26.583333333333332,114.27605698005698,29,114.26832478632478C31.416666666666668,114.26059259259259,33.833333333333336,114.2528603988604,36.25,114.24512820512821C38.666666666666664,114.23739601139602,41.083333333333336,114.22966381766382,43.5,114.22193162393162C45.91666666666667,114.21419943019943,48.333333333333336,114.20646723646725,50.75000000000001,114.19873504273505C53.16666666666667,114.19100284900286,55.583333333333336,114.18327065527065,58,114.17553846153845C60.416666666666664,114.16780626780626,62.833333333333336,114.16007407407407,65.25,114.15234188034188C67.66666666666667,114.14460968660968,70.08333333333333,114.13687749287749,72.5,114.12914529914529C74.91666666666667,114.1214131054131,77.33333333333333,114.11368091168092,79.75,114.10594871794872C82.16666666666667,114.09821652421653,84.58333333333333,114.09048433048433,87,114.08275213675213C89.41666666666667,114.07501994301994,91.83333333333333,114.06728774928776,94.25,114.05955555555556C96.66666666666667,114.05182336182337,99.08333333333334,114.04409116809117,101.50000000000001,114.03635897435898C103.91666666666667,114.02862678062678,106.33333333333334,114.02089458689458,108.75,114.01316239316239C111.16666666666667,114.0054301994302,113.58333333333333,113.99769800569801,116,113.98996581196582C118.41666666666667,113.98223361823362,120.83333333333334,113.97450142450143,123.25000000000001,113.96676923076923C125.66666666666667,113.95903703703704,128.08333333333334,113.95130484330485,130.5,113.94357264957266C132.91666666666666,113.93584045584046,135.33333333333334,113.92810826210827,137.75,113.92037606837607C140.16666666666666,113.91264387464388,142.58333333333334,113.90491168091168,145,113.89717948717949C147.41666666666666,113.88944729344729,149.83333333333334,113.8817150997151,152.25,113.8739829059829C154.66666666666666,113.8662507122507,157.08333333333334,113.85851851851852,159.5,113.85078632478633C161.91666666666666,113.84305413105413,164.33333333333334,113.83532193732194,166.75,113.82758974358974C169.16666666666666,113.81985754985755,171.58333333333334,113.81212535612536,174,113.80439316239317C176.41666666666666,113.79666096866097,178.83333333333334,113.78892877492878,181.25,113.78119658119658C183.66666666666666,113.77346438746439,186.08333333333334,113.76573219373219,188.5,113.758C190.91666666666666,113.7502678062678,193.33333333333334,113.74253561253562,195.75,113.73480341880342C198.16666666666669,113.72707122507123,200.58333333333334,113.71933903133903,203.00000000000003,113.71160683760684C205.41666666666669,113.70387464387464,207.83333333333331,113.69614245014246,210.24999999999997,113.68841025641026C212.66666666666666,113.68067806267807,215.08333333333331,113.67294586894587,217.5,113.66521367521368C219.91666666666666,113.65748148148148,222.33333333333334,113.64974928774929,224.75,113.64201709401709C227.16666666666666,113.6342849002849,229.58333333333334,113.6265527065527,232,113.6188205128205C234.41666666666666,113.61108831908831,236.83333333333334,113.60335612535613,239.25,113.59562393162393C241.66666666666669,113.58789173789174,244.08333333333334,113.58015954415954,246.50000000000003,113.57242735042735C248.91666666666669,113.56469515669515,251.33333333333331,113.55696296296297,253.74999999999997,113.54923076923077C256.16666666666663,113.54149857549858,258.5833333333333,113.53376638176638,261,113.52603418803419C263.4166666666667,113.51830199430199,265.8333333333333,113.5105698005698,268.25,113.5028376068376C270.6666666666667,113.4951054131054,273.0833333333333,113.48737321937323,275.5,113.47964102564103C277.9166666666667,113.47190883190883,280.3333333333333,113.46417663817664,282.75,113.45644444444444C285.1666666666667,113.44871225071225,287.5833333333333,113.44098005698007,290,113.43324786324787C292.4166666666667,113.42551566951568,294.8333333333333,113.41778347578348,297.25,113.41005128205128C299.6666666666667,113.40231908831909,302.0833333333333,113.3945868945869,304.5,113.3868547008547C306.9166666666667,113.3791225071225,309.3333333333333,113.37139031339031,311.75,113.36365811965811C314.1666666666667,113.35592592592592,316.5833333333333,113.34819373219374,319,113.34046153846154C321.4166666666667,113.33272934472934,323.8333333333333,113.32499715099715,326.25,113.31726495726495C328.6666666666667,113.30953276353276,331.0833333333333,113.30180056980058,333.5,113.29406837606838C335.9166666666667,113.28633618233619,338.3333333333333,113.27860398860399,340.75,113.2708717948718C343.1666666666667,113.2631396011396,345.5833333333333,113.2554074074074,348,113.24767521367521C350.4166666666667,113.23994301994301,352.8333333333333,113.23221082621082,355.25,113.22447863247862C357.6666666666667,113.21674643874643,360.0833333333333,113.20901424501425,362.5,113.20128205128205C364.9166666666667,113.19354985754985,367.3333333333333,113.18581766381767,369.75,113.17808547008548C372.1666666666667,113.17035327635328,374.5833333333333,113.16262108262109,377,113.15488888888889C379.4166666666667,113.1471566951567,381.8333333333333,113.13942450142451,384.25,113.13169230769232C386.6666666666667,113.12396011396012,389.0833333333333,113.11622792022791,391.5,113.10849572649572C393.9166666666667,113.10076353276352,396.33333333333337,113.09303133903134,398.75000000000006,113.08529914529915C401.16666666666674,113.07756695156695,403.58333333333337,113.06983475783476,406.00000000000006,113.06210256410256C408.4166666666667,113.05437037037036,410.8333333333333,113.04663817663818,413.24999999999994,113.03890598290599C415.66666666666663,113.03117378917379,418.08333333333326,113.0234415954416,420.49999999999994,113.0157094017094C422.91666666666663,113.0079772079772,425.3333333333333,113.00024501424502,427.75,112.99251282051283C430.1666666666667,112.98478062678063,432.5833333333333,112.97704843304842,435,112.96931623931623C437.4166666666667,112.96158404558403,439.8333333333333,112.95385185185185,442.25,112.94611965811966C444.6666666666667,112.93838746438746,447.0833333333333,112.93065527065528,449.5,112.92292307692308C451.9166666666667,112.91519088319089,454.3333333333333,112.9074586894587,456.75,112.8997264957265C459.1666666666667,112.8919943019943,461.5833333333333,112.88426210826212,464,112.87652991452993C466.4166666666667,112.86879772079773,468.8333333333333,112.86106552706553,471.25,112.85333333333334C473.6666666666667,112.84560113960114,476.0833333333333,112.83786894586895,478.5,112.83013675213675C480.9166666666667,112.82240455840456,483.33333333333337,112.81467236467236,485.75000000000006,112.80694017094017C488.16666666666674,112.79920797720797,490.58333333333337,112.79147578347579,493.00000000000006,112.7837435897436C495.4166666666667,112.7760113960114,497.8333333333333,112.7682792022792,500.24999999999994,112.76054700854701C502.66666666666663,112.75281481481481,505.08333333333326,112.74508262108263,507.49999999999994,112.73735042735044C509.91666666666663,112.72961823361824,512.3333333333333,112.72188603988603,514.75,112.71415384615383C517.1666666666666,112.70642165242164,519.5833333333334,112.69868945868946,522,112.69095726495726C524.4166666666666,112.68322507122507,526.8333333333334,112.67549287749287,529.25,112.66776068376068C531.6666666666666,112.66002849002848,534.0833333333334,112.6522962962963,536.5,112.6445641025641C538.9166666666666,112.63683190883191,541.3333333333334,112.62909971509973,543.75,112.62136752136753C546.1666666666666,112.61363532763534,548.5833333333334,112.60590313390314,551,112.59817094017095C553.4166666666666,112.59043874643875,555.8333333333334,112.58270655270655,558.25,112.57497435897436C560.6666666666666,112.56724216524216,563.0833333333334,112.55950997150997,565.5,112.55177777777777C567.9166666666666,112.54404558404558,570.3333333333334,112.5363133903134,572.75,112.5285811965812C575.1666666666666,112.520849002849,577.5833333333334,112.51311680911681,580,112.50538461538461C582.4166666666666,112.49765242165242,584.8333333333334,112.48992022792024,587.25,112.48218803418804C589.6666666666666,112.47445584045585,592.0833333333334,112.46672364672365,594.5,112.45899145299146C596.9166666666666,112.45125925925926,599.3333333333334,112.44352706552706,601.75,112.43579487179487C604.1666666666666,112.42806267806267,606.5833333333334,112.42033048433048,609,112.41259829059828C611.4166666666666,112.40486609686609,613.8333333333334,112.3971339031339,616.25,112.38940170940171C618.6666666666666,112.38166951566951,621.0833333333334,112.37393732193732,623.5,112.36620512820512C625.9166666666666,112.35847293447293,628.3333333333334,112.35074074074075,630.75,112.34300854700855C633.1666666666666,112.33527635327636,635.5833333333334,112.32754415954416,638,112.31981196581197C640.4166666666666,112.31207977207977,642.8333333333334,112.30434757834757,645.25,112.29661538461538C647.6666666666666,112.28888319088318,650.0833333333334,112.281150997151,652.5,112.2734188034188C654.9166666666666,112.26568660968661,657.3333333333334,112.25795441595442,659.75,112.25022222222222C662.1666666666666,112.24249002849002,664.5833333333334,112.23475783475784,667,112.22702564102565C669.4166666666666,112.21929344729345,671.8333333333334,112.21156125356126,674.25,112.20382905982906C676.6666666666666,112.19609686609687,679.0833333333334,112.18836467236467,681.5,112.18063247863248C683.9166666666666,112.17290028490028,686.3333333333334,112.16516809116808,688.75,112.15743589743589C691.1666666666666,112.1497037037037,693.5833333333334,112.14197150997151,696,112.13423931623932C698.4166666666666,112.12650712250712,700.8333333333334,112.11877492877493,703.25,112.11104273504273C705.6666666666666,112.10331054131053,708.0833333333334,112.09557834757835,710.5,112.08784615384616C712.9166666666666,112.08011396011396,715.3333333333334,112.07238176638177,717.75,112.06464957264957C720.1666666666666,112.05691737891738,722.5833333333334,112.04918518518518,725,112.04145299145299C727.4166666666666,112.03372079772079,729.8333333333334,112.02598860398861,732.25,112.01825641025641C734.6666666666666,112.01052421652422,737.0833333333334,112.00279202279202,739.5,111.99505982905983C741.9166666666666,111.98732763532763,744.3333333333334,111.97959544159545,746.75,111.97186324786325C749.1666666666666,111.96413105413106,751.5833333333334,111.95639886039886,754,111.94866666666667C756.4166666666666,111.94093447293447,758.8333333333334,111.93320227920229,761.25,111.9254700854701C763.6666666666666,111.9177378917379,766.0833333333334,111.91000569800569,768.5,111.9022735042735C770.9166666666666,111.8945413105413,773.3333333333334,111.88680911680912,775.75,111.87907692307692C778.1666666666666,111.87134472934473,780.5833333333334,111.86361253561253,783,111.85588034188034C785.4166666666667,111.84814814814814,787.8333333333334,111.84041595441596,790.2500000000001,111.83268376068376C792.6666666666667,111.82495156695157,795.0833333333335,111.81721937321937,797.5000000000001,111.80948717948718C799.9166666666667,111.80175498575498,802.3333333333335,111.79402279202279,804.7500000000001,111.78629059829059C807.1666666666667,111.7785584045584,809.5833333333335,111.77082621082621,812.0000000000001,111.76309401709402C814.4166666666667,111.75536182336182,816.8333333333333,111.74762962962963,819.2499999999999,111.73989743589743C821.6666666666665,111.73216524216524,824.0833333333333,111.72443304843306,826.4999999999999,111.71670085470086C828.9166666666665,111.70896866096867,831.3333333333333,111.70123646723647,833.7499999999999,111.69350427350427C836.1666666666665,111.68577207977208,838.5833333333333,111.6780398860399,840.9999999999999,111.6703076923077C843.4166666666666,111.6625754985755,845.8333333333333,111.6548433048433,848.25,111.6471111111111C850.6666666666666,111.6393789173789,853.0833333333334,111.63164672364672,855.5,111.62391452991453C857.9166666666666,111.61618233618233,860.3333333333334,111.60845014245014,862.75,111.60071794871794C865.1666666666666,111.59298575498575,867.5833333333334,111.58525356125357,870,111.57752136752137C872.4166666666666,111.56978917378918,874.8333333333334,111.56205698005698,877.25,111.55432478632478C879.6666666666666,111.54659259259259,882.0833333333334,111.53886039886041,884.5,111.53112820512821C886.9166666666666,111.52339601139602,889.3333333333334,111.51566381766382,891.75,111.50793162393163C894.1666666666666,111.50019943019943,896.5833333333334,111.49246723646723,899,111.48473504273504C901.4166666666666,111.47700284900284,903.8333333333334,111.46927065527066,906.25,111.46153846153847C908.6666666666666,111.45380626780627,911.0833333333334,111.44607407407408,913.5,111.43834188034188C915.9166666666666,111.43060968660969,918.3333333333334,111.4228774928775,920.75,111.41514529914531C923.1666666666666,111.40741310541311,925.5833333333334,111.39968091168092,928,111.39194871794872C930.4166666666666,111.38421652421653,932.8333333333334,111.37648433048433,935.25,111.36875213675214C937.6666666666666,111.36101994301994,940.0833333333334,111.36101994301994,942.5,111.34555555555555C944.9166666666666,111.33009116809116,947.3333333333334,110.46766137566138,949.75,110.02871428571429C952.1666666666666,109.5897671957672,954.5833333333334,109.1508201058201,957,108.71187301587301C959.4166666666666,108.27292592592592,961.8333333333334,107.83397883597884,964.25,107.39503174603175C966.6666666666667,106.95608465608466,969.0833333333334,106.51713756613756,971.5000000000001,106.07819047619047C973.9166666666667,105.63924338624338,976.3333333333335,105.2002962962963,978.7500000000001,104.76134920634921C981.1666666666667,104.32240211640212,983.5833333333335,103.88345502645502,986.0000000000001,103.44450793650793C988.4166666666667,103.00556084656084,990.8333333333335,102.56661375661376,993.2500000000001,102.12766666666667C995.6666666666667,101.68871957671959,998.0833333333333,101.24977248677249,1000.4999999999999,100.81082539682541C1002.9166666666665,100.37187830687832,1005.3333333333333,99.93293121693122,1007.7499999999999,99.49398412698413C1010.1666666666665,99.05503703703704,1012.5833333333333,98.61608994708995,1014.9999999999999,98.17714285714285C1017.4166666666665,97.73819576719576,1019.8333333333333,97.29924867724868,1022.2499999999999,96.86030158730159C1024.6666666666665,96.4213544973545,1027.0833333333333,95.98240740740741,1029.5,95.54346031746032C1031.9166666666667,95.10451322751322,1034.3333333333333,94.66556613756613,1036.75,94.22661904761904C1039.1666666666667,93.78767195767195,1041.5833333333333,93.34872486772487,1044,92.90977777777778C1046.4166666666667,92.47083068783068,1048.8333333333333,92.0318835978836,1051.25,91.59293650793651C1053.6666666666667,91.15398941798942,1056.0833333333333,90.71504232804233,1058.5,90.27609523809524C1060.9166666666667,89.83714814814815,1063.3333333333333,89.39820105820105,1065.75,88.95925396825396C1068.1666666666667,88.52030687830687,1070.5833333333333,88.08135978835979,1073,87.6424126984127C1075.4166666666667,87.2034656084656,1077.8333333333333,86.76451851851853,1080.25,86.32557142857144C1082.6666666666667,85.88662433862434,1085.0833333333333,85.44767724867725,1087.5,85.00873015873016C1089.9166666666667,84.56978306878307,1092.3333333333333,84.13083597883598,1094.75,83.69188888888888C1097.1666666666667,83.25294179894179,1099.5833333333333,82.81399470899473,1102,82.37504761904763C1104.4166666666667,81.93610052910054,1106.8333333333333,81.49715343915345,1109.25,81.05820634920636C1111.6666666666667,80.61925925925927,1114.0833333333333,80.18031216931217,1116.5,79.74136507936508C1118.9166666666667,79.30241798941799,1121.3333333333333,78.86347089947091,1123.75,78.42452380952382C1126.1666666666667,77.98557671957673,1128.5833333333333,77.54662962962963,1131,77.10768253968254C1133.4166666666667,76.66873544973545,1135.8333333333333,76.22978835978836,1138.25,75.79084126984127C1140.6666666666667,75.35189417989417,1143.0833333333333,74.91294708994708,1145.5,74.47399999999999C1147.9166666666667,74.0350529100529,1150.3333333333333,73.59610582010582,1152.75,73.15715873015873C1155.1666666666667,72.71821164021163,1157.5833333333333,72.27926455026456,1160,71.84031746031746C1162.4166666666667,71.40137037037037,1164.8333333333333,70.96242328042328,1167.25,70.52347619047619C1169.6666666666667,70.0845291005291,1172.0833333333333,69.645582010582,1174.5,69.20663492063491C1176.9166666666667,68.76768783068782,1179.3333333333333,68.32874074074074,1181.75,67.88979365079365C1184.1666666666667,67.45084656084656,1186.5833333333333,67.01189947089948,1189,66.57295238095239C1191.4166666666667,66.1340052910053,1193.8333333333333,65.6950582010582,1196.25,65.25611111111111C1198.6666666666667,64.81716402116402,1201.0833333333333,64.37821693121693,1203.5,63.93926984126984C1205.9166666666667,63.50032275132275,1208.3333333333333,63.061375661375656,1210.75,62.622428571428564C1213.1666666666667,62.18348148148147,1215.5833333333333,61.744534391534394,1218,61.3055873015873C1220.4166666666667,60.86664021164021,1222.8333333333333,60.42769312169312,1225.25,59.988746031746025C1227.6666666666667,59.54979894179893,1230.0833333333333,59.11085185185185,1232.5,58.67190476190476C1234.9166666666667,58.23295767195768,1237.3333333333333,57.79401058201059,1239.75,57.3550634920635C1242.1666666666667,56.91611640211641,1244.5833333333333,56.477169312169316,1247,56.038222222222224C1249.4166666666667,55.59927513227513,1251.8333333333333,55.16032804232805,1254.25,54.721380952380954C1256.6666666666667,54.28243386243386,1259.0833333333333,53.84348677248677,1261.5,53.40453968253968C1263.9166666666667,52.965592592592586,1266.3333333333333,52.52664550264551,1268.75,52.087698412698415C1271.1666666666667,51.64875132275132,1273.5833333333333,51.20980423280422,1276,50.770857142857125C1278.4166666666667,50.33191005291003,1280.8333333333333,49.89296296296296,1283.25,49.45401587301588C1285.6666666666667,49.01506878306879,1288.0833333333333,48.576121693121706,1290.5,48.137174603174614C1292.9166666666667,47.69822751322752,1295.3333333333333,47.259280423280416,1297.75,46.82033333333332C1300.1666666666667,46.38138624338623,1302.5833333333333,45.94243915343915,1305,45.50349206349206C1307.4166666666667,45.06454497354497,1309.8333333333333,44.62559788359788,1312.25,44.18665079365079C1314.6666666666667,43.747703703703706,1317.0833333333333,43.30875661375662,1319.5,42.86980952380953C1321.9166666666667,42.43086243386244,1324.3333333333333,41.991915343915345,1326.75,41.55296825396825C1329.1666666666667,41.11402116402116,1331.5833333333333,40.67507407407408,1334,40.23612698412699C1336.4166666666667,39.7971798941799,1338.8333333333333,39.358232804232806,1341.25,38.919285714285714C1343.6666666666667,38.48033862433862,1346.0833333333333,38.04139153439153,1348.5,37.60244444444444C1350.9166666666667,37.163497354497345,1353.3333333333333,36.72455026455026,1355.75,36.285603174603175C1358.1666666666667,35.84665608465609,1360.5833333333333,35.407708994709,1363,34.968761904761905C1365.4166666666667,34.52981481481481,1367.8333333333333,34.09086772486772,1370.25,33.65192063492063C1372.6666666666667,33.212973544973536,1375.0833333333333,32.77402645502646,1377.5,32.335079365079366C1379.9166666666667,31.896132275132278,1382.3333333333333,31.457185185185182,1384.75,31.01823809523809C1387.1666666666667,30.579291005290997,1389.5833333333333,30.1403439153439,1392,29.701396825396813C1394.4166666666667,29.262449735449724,1396.8333333333333,28.823502645502636,1399.25,28.38455555555555C1401.6666666666667,27.945608465608466,1404.0833333333333,27.506661375661388,1406.5,27.0677142857143C1408.9166666666667,26.62876719576721,1411.3333333333333,26.189820105820115,1413.75,25.750873015873022C1416.1666666666667,25.31192592592593,1418.5833333333333,24.872978835978834,1421,24.434031746031746C1423.4166666666667,23.995084656084657,1425.8333333333333,23.55613756613757,1428.25,23.11719047619048C1430.6666666666667,22.67824338624339,1433.0833333333333,22.239296296296295,1435.5,21.800349206349203C1437.9166666666667,21.36140211640211,1440.3333333333333,20.922455026455015,1442.75,20.483507936507927C1445.1666666666667,20.044560846560838,1447.5833333333333,19.60561375661375,1450,19.16666666666666" fill="transparent" stroke-linecap="round" stroke="#B6509E" stroke-width="2"></path><path class="visx-linepath" d="M0,109.4288888888425C2.4166666666666665,109.42115669512962,4.833333333333334,109.41342450141677,7.25,109.4056923076923C9.666666666666666,109.39796011396784,12.083333333333334,109.39022792022791,14.5,109.38249572649572C16.916666666666668,109.37476353276352,19.333333333333332,109.36703133903134,21.75,109.35929914529915C24.166666666666668,109.35156695156695,26.583333333333332,109.34383475783476,29,109.33610256410256C31.416666666666668,109.32837037037037,33.833333333333336,109.32063817663818,36.25,109.31290598290599C38.666666666666664,109.3051737891738,41.083333333333336,109.2974415954416,43.5,109.2897094017094C45.91666666666667,109.2819772079772,48.333333333333336,109.27424501424501,50.75000000000001,109.26651282051282C53.16666666666667,109.25878062678062,55.583333333333336,109.25104843304844,58,109.24331623931624C60.416666666666664,109.23558404558405,62.833333333333336,109.22785185185185,65.25,109.22011965811966C67.66666666666667,109.21238746438746,70.08333333333333,109.20465527065528,72.5,109.19692307692308C74.91666666666667,109.18919088319089,77.33333333333333,109.1814586894587,79.75,109.1737264957265C82.16666666666667,109.1659943019943,84.58333333333333,109.15826210826212,87,109.15052991452993C89.41666666666667,109.14279772079773,91.83333333333333,109.13506552706552,94.25,109.12733333333333C96.66666666666667,109.11960113960113,99.08333333333334,109.11186894586895,101.50000000000001,109.10413675213675C103.91666666666667,109.09640455840456,106.33333333333334,109.08867236467236,108.75,109.08094017094017C111.16666666666667,109.07320797720797,113.58333333333333,109.06547578347579,116,109.0577435897436C118.41666666666667,109.0500113960114,120.83333333333334,109.0422792022792,123.25000000000001,109.03454700854701C125.66666666666667,109.02681481481481,128.08333333333334,109.01908262108263,130.5,109.01135042735044C132.91666666666666,109.00361823361824,135.33333333333334,108.99588603988603,137.75,108.98815384615384C140.16666666666666,108.98042165242164,142.58333333333334,108.97268945868946,145,108.96495726495726C147.41666666666666,108.95722507122507,149.83333333333334,108.94949287749289,152.25,108.94176068376069C154.66666666666666,108.9340284900285,157.08333333333334,108.9262962962963,159.5,108.9185641025641C161.91666666666666,108.91083190883191,164.33333333333334,108.90309971509973,166.75,108.89536752136753C169.16666666666666,108.88763532763534,171.58333333333334,108.87990313390313,174,108.87217094017093C176.41666666666666,108.86443874643874,178.83333333333334,108.85670655270656,181.25,108.84897435897436C183.66666666666666,108.84124216524216,186.08333333333334,108.83350997150997,188.5,108.82577777777777C190.91666666666666,108.81804558404558,193.33333333333334,108.8103133903134,195.75,108.8025811965812C198.16666666666669,108.794849002849,200.58333333333334,108.78711680911681,203.00000000000003,108.77938461538461C205.41666666666669,108.77165242165242,207.83333333333331,108.76392022792024,210.24999999999997,108.75618803418804C212.66666666666666,108.74845584045585,215.08333333333331,108.74072364672364,217.5,108.73299145299144C219.91666666666666,108.72525925925925,222.33333333333334,108.71752706552707,224.75,108.70979487179487C227.16666666666666,108.70206267806267,229.58333333333334,108.69433048433048,232,108.68659829059828C234.41666666666666,108.67886609686609,236.83333333333334,108.6711339031339,239.25,108.66340170940171C241.66666666666669,108.65566951566952,244.08333333333334,108.64793732193733,246.50000000000003,108.64020512820514C248.91666666666669,108.63247293447294,251.33333333333331,108.62474074074073,253.74999999999997,108.61700854700854C256.16666666666663,108.60927635327634,258.5833333333333,108.60154415954416,261,108.59381196581197C263.4166666666667,108.58607977207977,265.8333333333333,108.57834757834758,268.25,108.57061538461538C270.6666666666667,108.56288319088318,273.0833333333333,108.555150997151,275.5,108.54741880341881C277.9166666666667,108.53968660968661,280.3333333333333,108.53195441595442,282.75,108.52422222222222C285.1666666666667,108.51649002849003,287.5833333333333,108.50875783475784,290,108.50102564102565C292.4166666666667,108.49329344729345,294.8333333333333,108.48556125356124,297.25,108.47782905982905C299.6666666666667,108.47009686609685,302.0833333333333,108.46236467236467,304.5,108.45463247863248C306.9166666666667,108.44690028490028,309.3333333333333,108.43916809116809,311.75,108.43143589743589C314.1666666666667,108.4237037037037,316.5833333333333,108.41597150997151,319,108.40823931623932C321.4166666666667,108.40050712250712,323.8333333333333,108.39277492877493,326.25,108.38504273504273C328.6666666666667,108.37731054131054,331.0833333333333,108.36957834757835,333.5,108.36184615384616C335.9166666666667,108.35411396011396,338.3333333333333,108.34638176638177,340.75,108.33864957264957C343.1666666666667,108.33091737891738,345.5833333333333,108.32318518518518,348,108.31545299145299C350.4166666666667,108.30772079772079,352.8333333333333,108.29998860398861,355.25,108.29225641025641C357.6666666666667,108.28452421652422,360.0833333333333,108.27679202279202,362.5,108.26905982905983C364.9166666666667,108.26132763532763,367.3333333333333,108.25359544159545,369.75,108.24586324786326C372.1666666666667,108.23813105413106,374.5833333333333,108.23039886039886,377,108.22266666666667C379.4166666666667,108.21493447293447,381.8333333333333,108.20720227920228,384.25,108.19947008547008C386.6666666666667,108.19173789173789,389.0833333333333,108.18400569800569,391.5,108.1762735042735C393.9166666666667,108.1685413105413,396.33333333333337,108.16080911680912,398.75000000000006,108.15307692307692C401.16666666666674,108.14534472934473,403.58333333333337,108.13761253561253,406.00000000000006,108.12988034188034C408.4166666666667,108.12214814814814,410.8333333333333,108.11441595441596,413.24999999999994,108.10668376068377C415.66666666666663,108.09895156695157,418.08333333333326,108.09121937321937,420.49999999999994,108.08348717948718C422.91666666666663,108.07575498575498,425.3333333333333,108.06802279202279,427.75,108.06029059829059C430.1666666666667,108.0525584045584,432.5833333333333,108.04482621082622,435,108.03709401709402C437.4166666666667,108.02936182336182,439.8333333333333,108.02162962962963,442.25,108.01389743589743C444.6666666666667,108.00616524216524,447.0833333333333,107.99843304843306,449.5,107.99070085470086C451.9166666666667,107.98296866096867,454.3333333333333,107.97523646723647,456.75,107.96750427350428C459.1666666666667,107.95977207977208,461.5833333333333,107.95203988603988,464,107.94430769230769C466.4166666666667,107.9365754985755,468.8333333333333,107.9288433048433,471.25,107.9211111111111C473.6666666666667,107.9133789173789,476.0833333333333,107.90564672364673,478.5,107.89791452991453C480.9166666666667,107.89018233618233,483.33333333333337,107.88245014245014,485.75000000000006,107.87471794871794C488.16666666666674,107.86698575498575,490.58333333333337,107.85925356125357,493.00000000000006,107.85152136752137C495.4166666666667,107.84378917378918,497.8333333333333,107.83605698005698,500.24999999999994,107.82832478632479C502.66666666666663,107.82059259259259,505.08333333333326,107.8128603988604,507.49999999999994,107.8051282051282C509.91666666666663,107.797396011396,512.3333333333333,107.78966381766382,514.75,107.78193162393163C517.1666666666666,107.77419943019943,519.5833333333334,107.76646723646724,522,107.75873504273504C524.4166666666666,107.75100284900284,526.8333333333334,107.74327065527066,529.25,107.73553846153847C531.6666666666666,107.72780626780627,534.0833333333334,107.72007407407408,536.5,107.71234188034188C538.9166666666666,107.70460968660969,541.3333333333334,107.69687749287749,543.75,107.6891452991453C546.1666666666666,107.6814131054131,548.5833333333334,107.6736809116809,551,107.66594871794871C553.4166666666666,107.65821652421651,555.8333333333334,107.65048433048433,558.25,107.64275213675214C560.6666666666666,107.63501994301994,563.0833333333334,107.62728774928775,565.5,107.61955555555555C567.9166666666666,107.61182336182335,570.3333333333334,107.60409116809117,572.75,107.59635897435898C575.1666666666666,107.58862678062678,577.5833333333334,107.58089458689459,580,107.57316239316239C582.4166666666666,107.5654301994302,584.8333333333334,107.55769800569801,587.25,107.54996581196582C589.6666666666666,107.54223361823362,592.0833333333334,107.53450142450143,594.5,107.52676923076923C596.9166666666666,107.51903703703704,599.3333333333334,107.51130484330484,601.75,107.50357264957265C604.1666666666666,107.49584045584045,606.5833333333334,107.48810826210827,609,107.48037606837607C611.4166666666666,107.47264387464388,613.8333333333334,107.46491168091168,616.25,107.45717948717949C618.6666666666666,107.44944729344729,621.0833333333334,107.44171509971511,623.5,107.43398290598292C625.9166666666666,107.42625071225072,628.3333333333334,107.41851851851851,630.75,107.41078632478632C633.1666666666666,107.40305413105412,635.5833333333334,107.39532193732194,638,107.38758974358974C640.4166666666666,107.37985754985755,642.8333333333334,107.37212535612535,645.25,107.36439316239316C647.6666666666666,107.35666096866096,650.0833333333334,107.34892877492878,652.5,107.34119658119658C654.9166666666666,107.33346438746439,657.3333333333334,107.3257321937322,659.75,107.318C662.1666666666666,107.3102678062678,664.5833333333334,107.30253561253562,667,107.29480341880343C669.4166666666666,107.28707122507123,671.8333333333334,107.27933903133903,674.25,107.27160683760684C676.6666666666666,107.26387464387464,679.0833333333334,107.25614245014245,681.5,107.24841025641025C683.9166666666666,107.24067806267806,686.3333333333334,107.23294586894588,688.75,107.22521367521368C691.1666666666666,107.21748148148149,693.5833333333334,107.20974928774929,696,107.2020170940171C698.4166666666666,107.1942849002849,700.8333333333334,107.18655270655272,703.25,107.17882051282052C705.6666666666666,107.17108831908833,708.0833333333334,107.16335612535613,710.5,107.15562393162394C712.9166666666666,107.14789173789174,715.3333333333334,107.14015954415954,717.75,107.13242735042735C720.1666666666666,107.12469515669515,722.5833333333334,107.11696296296296,725,107.10923076923076C727.4166666666666,107.10149857549857,729.8333333333334,107.09376638176639,732.25,107.08603418803419C734.6666666666666,107.078301994302,737.0833333333334,107.0705698005698,739.5,107.0628376068376C741.9166666666666,107.05510541310541,744.3333333333334,107.04737321937323,746.75,107.03964102564103C749.1666666666666,107.03190883190884,751.5833333333334,107.02417663817663,754,107.01644444444443C756.4166666666666,107.00871225071224,758.8333333333334,107.00098005698005,761.25,106.99324786324786C763.6666666666666,106.98551566951566,766.0833333333334,106.97778347578348,768.5,106.97005128205129C770.9166666666666,106.96231908831909,773.3333333333334,106.9545868945869,775.75,106.9468547008547C778.1666666666666,106.9391225071225,780.5833333333334,106.93139031339032,783,106.92365811965813C785.4166666666667,106.91592592592593,787.8333333333334,106.90819373219372,790.2500000000001,106.90046153846153C792.6666666666667,106.89272934472933,795.0833333333335,106.88499715099715,797.5000000000001,106.87726495726496C799.9166666666667,106.86953276353276,802.3333333333335,106.86180056980056,804.7500000000001,106.85406837606837C807.1666666666667,106.84633618233617,809.5833333333335,106.83860398860399,812.0000000000001,106.8308717948718C814.4166666666667,106.8231396011396,816.8333333333333,106.8154074074074,819.2499999999999,106.80767521367521C821.6666666666665,106.79994301994302,824.0833333333333,106.79221082621083,826.4999999999999,106.78447863247864C828.9166666666665,106.77674643874644,831.3333333333333,106.76901424501425,833.7499999999999,106.76128205128205C836.1666666666665,106.75354985754986,838.5833333333333,106.74581766381766,840.9999999999999,106.73808547008547C843.4166666666666,106.73035327635327,845.8333333333333,106.72262108262109,848.25,106.7148888888889C850.6666666666666,106.7071566951567,853.0833333333334,106.6994245014245,855.5,106.6916923076923C857.9166666666666,106.68396011396011,860.3333333333334,106.67622792022793,862.75,106.66849572649573C865.1666666666666,106.66076353276354,867.5833333333334,106.65303133903134,870,106.64529914529915C872.4166666666666,106.63756695156695,874.8333333333334,106.62983475783476,877.25,106.62210256410256C879.6666666666666,106.61437037037037,882.0833333333334,106.60663817663817,884.5,106.59890598290598C886.9166666666666,106.59117378917378,889.3333333333334,106.5834415954416,891.75,106.5757094017094C894.1666666666666,106.56797720797721,896.5833333333334,106.56024501424501,899,106.55251282051282C901.4166666666666,106.54478062678062,903.8333333333334,106.53704843304844,906.25,106.52931623931624C908.6666666666666,106.52158404558405,911.0833333333334,106.51385185185185,913.5,106.50611965811966C915.9166666666666,106.49838746438746,918.3333333333334,106.49065527065528,920.75,106.48292307692309C923.1666666666666,106.47519088319089,925.5833333333334,106.46745868945868,928,106.45972649572649C930.4166666666666,106.45199430199429,932.8333333333334,106.44426210826211,935.25,106.43652991452991C937.6666666666666,106.42879772079772,940.0833333333334,106.42879772079772,942.5,106.41333333333334C944.9166666666666,106.39786894586896,947.3333333333334,105.53543915343916,949.75,105.09649206349206C952.1666666666666,104.65754497354497,954.5833333333334,104.21859788359788,957,103.77965079365079C959.4166666666666,103.3407037037037,961.8333333333334,102.90175661375662,964.25,102.46280952380953C966.6666666666667,102.02386243386243,969.0833333333334,101.58491534391534,971.5000000000001,101.14596825396825C973.9166666666667,100.70702116402116,976.3333333333335,100.26807407407408,978.7500000000001,99.82912698412699C981.1666666666667,99.3901798941799,983.5833333333335,98.9512328042328,986.0000000000001,98.51228571428571C988.4166666666667,98.07333862433862,990.8333333333335,97.63439153439154,993.2500000000001,97.19544444444445C995.6666666666667,96.75649735449737,998.0833333333333,96.31755026455025,1000.4999999999999,95.87860317460317C1002.9166666666665,95.43965608465608,1005.3333333333333,95.000708994709,1007.7499999999999,94.56176190476191C1010.1666666666665,94.12281481481482,1012.5833333333333,93.68386772486772,1014.9999999999999,93.24492063492063C1017.4166666666665,92.80597354497354,1019.8333333333333,92.36702645502646,1022.2499999999999,91.92807936507937C1024.6666666666665,91.48913227513228,1027.0833333333333,91.05018518518519,1029.5,90.6112380952381C1031.9166666666667,90.172291005291,1034.3333333333333,89.73334391534392,1036.75,89.29439682539683C1039.1666666666667,88.85544973544974,1041.5833333333333,88.41650264550265,1044,87.97755555555555C1046.4166666666667,87.53860846560846,1048.8333333333333,87.09966137566137,1051.25,86.66071428571428C1053.6666666666667,86.22176719576719,1056.0833333333333,85.78282010582011,1058.5,85.34387301587302C1060.9166666666667,84.90492592592592,1063.3333333333333,84.46597883597883,1065.75,84.02703174603174C1068.1666666666667,83.58808465608465,1070.5833333333333,83.14913756613757,1073,82.71019047619048C1075.4166666666667,82.27124338624338,1077.8333333333333,81.83229629629629,1080.25,81.3933492063492C1082.6666666666667,80.95440211640211,1085.0833333333333,80.51545502645502,1087.5,80.07650793650792C1089.9166666666667,79.63756084656083,1092.3333333333333,79.19861375661377,1094.75,78.75966666666667C1097.1666666666667,78.32071957671958,1099.5833333333333,77.88177248677249,1102,77.4428253968254C1104.4166666666667,77.0038783068783,1106.8333333333333,76.56493121693121,1109.25,76.12598412698412C1111.6666666666667,75.68703703703703,1114.0833333333333,75.24808994708995,1116.5,74.80914285714286C1118.9166666666667,74.37019576719577,1121.3333333333333,73.93124867724867,1123.75,73.49230158730158C1126.1666666666667,73.05335449735449,1128.5833333333333,72.61440740740741,1131,72.17546031746032C1133.4166666666667,71.73651322751323,1135.8333333333333,71.29756613756614,1138.25,70.85861904761904C1140.6666666666667,70.41967195767195,1143.0833333333333,69.98072486772487,1145.5,69.54177777777778C1147.9166666666667,69.10283068783069,1150.3333333333333,68.6638835978836,1152.75,68.2249365079365C1155.1666666666667,67.78598941798941,1157.5833333333333,67.34704232804232,1160,66.90809523809523C1162.4166666666667,66.46914814814814,1164.8333333333333,66.03020105820106,1167.25,65.59125396825397C1169.6666666666667,65.15230687830687,1172.0833333333333,64.71335978835978,1174.5,64.27441269841269C1176.9166666666667,63.8354656084656,1179.3333333333333,63.39651851851852,1181.75,62.95757142857143C1184.1666666666667,62.518624338624335,1186.5833333333333,62.07967724867724,1189,61.64073015873015C1191.4166666666667,61.20178306878306,1193.8333333333333,60.76283597883598,1196.25,60.32388888888889C1198.6666666666667,59.884941798941796,1201.0833333333333,59.445994708994704,1203.5,59.00704761904761C1205.9166666666667,58.56810052910052,1208.3333333333333,58.12915343915344,1210.75,57.69020634920635C1213.1666666666667,57.25125925925926,1215.5833333333333,56.812312169312165,1218,56.37336507936507C1220.4166666666667,55.93441798941798,1222.8333333333333,55.4954708994709,1225.25,55.05652380952382C1227.6666666666667,54.61757671957673,1230.0833333333333,54.17862962962963,1232.5,53.73968253968254C1234.9166666666667,53.30073544973545,1237.3333333333333,52.861788359788356,1239.75,52.422841269841264C1242.1666666666667,51.98389417989417,1244.5833333333333,51.54494708994708,1247,51.10599999999999C1249.4166666666667,50.667052910052895,1251.8333333333333,50.22810582010581,1254.25,49.789158730158725C1256.6666666666667,49.35021164021164,1259.0833333333333,48.911264550264555,1261.5,48.47231746031746C1263.9166666666667,48.03337037037037,1266.3333333333333,47.59442328042328,1268.75,47.155476190476186C1271.1666666666667,46.716529100529094,1273.5833333333333,46.27758201058201,1276,45.838634920634924C1278.4166666666667,45.39968783068784,1280.8333333333333,44.960740740740746,1283.25,44.521793650793654C1285.6666666666667,44.08284656084656,1288.0833333333333,43.64389947089947,1290.5,43.20495238095238C1292.9166666666667,42.766005291005285,1295.3333333333333,42.327058201058186,1297.75,41.8881111111111C1300.1666666666667,41.449164021164016,1302.5833333333333,41.01021693121694,1305,40.57126984126985C1307.4166666666667,40.13232275132277,1309.8333333333333,39.69337566137567,1312.25,39.254428571428576C1314.6666666666667,38.815481481481484,1317.0833333333333,38.37653439153439,1319.5,37.9375873015873C1321.9166666666667,37.49864021164021,1324.3333333333333,37.059693121693115,1326.75,36.62074603174603C1329.1666666666667,36.181798941798945,1331.5833333333333,35.74285185185186,1334,35.30390476190477C1336.4166666666667,34.864957671957676,1338.8333333333333,34.42601058201058,1341.25,33.98706349206349C1343.6666666666667,33.5481164021164,1346.0833333333333,33.1091693121693,1348.5,32.670222222222215C1350.9166666666667,32.23127513227513,1353.3333333333333,31.792328042328055,1355.75,31.353380952380967C1358.1666666666667,30.914433862433878,1360.5833333333333,30.47548677248678,1363,30.036539682539686C1365.4166666666667,29.597592592592594,1367.8333333333333,29.1586455026455,1370.25,28.71969841269841C1372.6666666666667,28.28075132275132,1375.0833333333333,27.841804232804236,1377.5,27.402857142857147C1379.9166666666667,26.96391005291006,1382.3333333333333,26.52496296296296,1384.75,26.08601587301587C1387.1666666666667,25.647068783068782,1389.5833333333333,25.208121693121694,1392,24.769174603174605C1394.4166666666667,24.330227513227516,1396.8333333333333,23.891280423280417,1399.25,23.45233333333333C1401.6666666666667,23.01338624338624,1404.0833333333333,22.574439153439165,1406.5,22.135492063492077C1408.9166666666667,21.696544973544988,1411.3333333333333,21.257597883597892,1413.75,20.8186507936508C1416.1666666666667,20.379703703703708,1418.5833333333333,19.940756613756612,1421,19.501809523809523C1423.4166666666667,19.062862433862435,1425.8333333333333,18.62391534391535,1428.25,18.18496825396826C1430.6666666666667,17.746021164021172,1433.0833333333333,17.307074074074073,1435.5,16.868126984126985C1437.9166666666667,16.429179894179896,1440.3333333333333,15.99023280423281,1442.75,15.55128571428572C1445.1666666666667,15.11233862433863,1447.5833333333333,14.673391534391536,1450,14.234444444444442" fill="transparent" stroke-linecap="round" stroke="#E7C6DF" stroke-width="2"></path><g class="visx-group visx-axis visx-axis-bottom" transform="translate(0, 115)"><g class="visx-group visx-axis-tick" transform="translate(0, 0)"><line class="visx-line" x1="0" y1="0" x2="0" y2="8" fill="transparent" shape-rendering="crispEdges" stroke="#000" stroke-width="0" stroke-linecap="square"></line><svg x="0" y="0" font-size="10" style="overflow:visible"><text transform="" x="0" y="18" fill="#000" font-size="10" text-anchor="middle"><tspan x="0" dy="0em">0%</tspan></text></svg></g><g class="visx-group visx-axis-tick" transform="translate(0, 0)"><line class="visx-line" x1="362.5" y1="0" x2="362.5" y2="8" fill="transparent" shape-rendering="crispEdges" stroke="#000" stroke-width="0" stroke-linecap="square"></line><svg x="0" y="0" font-size="10" style="overflow:visible"><text transform="" x="362.5" y="18" fill="#000" font-size="10" text-anchor="middle"><tspan x="362.5" dy="0em">25%</tspan></text></svg></g><g class="visx-group visx-axis-tick" transform="translate(0, 0)"><line class="visx-line" x1="725" y1="0" x2="725" y2="8" fill="transparent" shape-rendering="crispEdges" stroke="#000" stroke-width="0" stroke-linecap="square"></line><svg x="0" y="0" font-size="10" style="overflow:visible"><text transform="" x="725" y="18" fill="#000" font-size="10" text-anchor="middle"><tspan x="725" dy="0em">50%</tspan></text></svg></g><g class="visx-group visx-axis-tick" transform="translate(0, 0)"><line class="visx-line" x1="1087.5" y1="0" x2="1087.5" y2="8" fill="transparent" shape-rendering="crispEdges" stroke="#000" stroke-width="0" stroke-linecap="square"></line><svg x="0" y="0" font-size="10" style="overflow:visible"><text transform="" x="1087.5" y="18" fill="#000" font-size="10" text-anchor="middle"><tspan x="1087.5" dy="0em">75%</tspan></text></svg></g><g class="visx-group visx-axis-tick" transform="translate(0, 0)"><line class="visx-line" x1="1450" y1="0" x2="1450" y2="8" fill="transparent" shape-rendering="crispEdges" stroke="#000" stroke-width="0" stroke-linecap="square"></line><svg x="0" y="0" font-size="10" style="overflow:visible"><text transform="" x="1450" y="18" fill="#000" font-size="10" text-anchor="middle"><tspan x="1450" dy="0em">100%</tspan></text></svg></g><line class="visx-line visx-axis-line" x1="0.5" y1="0" x2="1450.5" y2="0" fill="transparent" shape-rendering="crispEdges" stroke="#222" stroke-width="0"></line></g><g class="visx-group visx-axis visx-axis-left" transform="translate(0, 0)"><g class="visx-group visx-axis-tick" transform="translate(0, 0)"><line class="visx-line" x1="0" y1="115" x2="-8" y2="115" fill="transparent" shape-rendering="crispEdges" stroke="#222" stroke-width="0" stroke-linecap="square"></line><svg x="-30" y="0" font-size="8" style="overflow:visible"><text transform="" x="-8" y="115" fill="#000" font-size="8" text-anchor="start"><tspan x="-8" dy="0em">0%</tspan></text></svg></g><g class="visx-group visx-axis-tick" transform="translate(0, 0)"><line class="visx-line" x1="0" y1="51.11111111111111" x2="-8" y2="51.11111111111111" fill="transparent" shape-rendering="crispEdges" stroke="#222" stroke-width="0" stroke-linecap="square"></line><svg x="-30" y="0" font-size="8" style="overflow:visible"><text transform="" x="-8" y="51.11111111111111" fill="#000" font-size="8" text-anchor="start"><tspan x="-8" dy="0em">100%</tspan></text></svg></g><line class="visx-line visx-axis-line" x1="0" y1="115.5" x2="0" y2="0.5" fill="transparent" shape-rendering="crispEdges" stroke="#222" stroke-width="0"></line></g><rect class="visx-bar" width="1450" height="115" fill="transparent"></rect><line class="visx-line" x1="942.5" y1="28" x2="942.5" y2="115" fill="transparent" shape-rendering="crispEdges" stroke="#0062D2" stroke-width="1" pointer-events="none" stroke-dasharray="5,2"></line><svg x="0" y="0" font-size="10px" style="overflow:visible"><text transform="" x="942.5" y="20" font-size="10px" fill="#fff" stroke="#fff" stroke-width="0.8em" text-anchor="middle"><tspan x="942.5" dy="0.355em">Optimal 65%</tspan></text></svg><svg x="0" y="0" font-size="10px" style="overflow:visible"><text transform="" x="942.5" y="20" font-size="10px" fill="#62677B" text-anchor="middle"><tspan x="942.5" dy="0.355em">Optimal 65%</tspan></text></svg></g></svg>