<?xml version="1.0"?><svg xmlns="http://www.w3.org/2000/svg" xmlns:xlink= "http://www.w3.org/1999/xlink" style="background: white;" width="1500" height="300"> <g style="color: black; font-size: 13px; font-family: sans-serif; transform: translate(18px, 25px);"><g><circle r="3" cx="-6" cy="-5" style="fill: #1AD4B3" /><text>Borrow APR, variable</text></g><g style="transform: translateX(150px);"><circle r="3" cx="-6" cy="-5" style="fill: #101423" /><text>Borrow APR, stable</text></g></g><g class="visx-group" transform="translate(45, 50)"><g class="visx-group visx-rows" transform="translate(0, 0)"><line class="visx-line" x1="0" y1="155" x2="1425" y2="155" fill="transparent" shape-rendering="crispEdges" stroke="#F2F0F9" stroke-width="1" pointer-events="none"></line><line class="visx-line" x1="0" y1="116.25" x2="1425" y2="116.25" fill="transparent" shape-rendering="crispEdges" stroke="#F2F0F9" stroke-width="1" pointer-events="none"></line><line class="visx-line" x1="0" y1="77.5" x2="1425" y2="77.5" fill="transparent" shape-rendering="crispEdges" stroke="#F2F0F9" stroke-width="1" pointer-events="none"></line><line class="visx-line" x1="0" y1="38.75" x2="1425" y2="38.75" fill="transparent" shape-rendering="crispEdges" stroke="#F2F0F9" stroke-width="1" pointer-events="none"></line><line class="visx-line" x1="0" y1="0" x2="1425" y2="0" fill="transparent" shape-rendering="crispEdges" stroke="#F2F0F9" stroke-width="1" pointer-events="none"></line></g><path class="visx-linepath" d="M0,154.99999999981046C2.375,154.96841032597638,4.75,154.93682065214233,7.125,154.90523097826087C9.5,154.87364130437942,11.875,154.84205163043475,14.25,154.81046195652172C16.625,154.7788722826087,19,154.74728260869563,21.375,154.7156929347826C23.75,154.68410326086956,26.125,154.6525135869565,28.5,154.62092391304347C30.875,154.58933423913044,33.25,154.55774456521738,35.625,154.52615489130434C38,154.4945652173913,40.375,154.46297554347825,42.75,154.43138586956522C45.125,154.3997961956522,47.50000000000001,154.36820652173915,49.87500000000001,154.3366168478261C52.25000000000001,154.30502717391306,54.625,154.27343749999997,57,154.24184782608694C59.375,154.21025815217388,61.75,154.17866847826085,64.125,154.1470788043478C66.5,154.11548913043478,68.875,154.08389945652172,71.25,154.0523097826087C73.625,154.02072010869566,76,153.9891304347826,78.375,153.95754076086956C80.75,153.92595108695653,83.125,153.89436141304347,85.5,153.86277173913044C87.875,153.8311820652174,90.25,153.79959239130434,92.625,153.7680027173913C95,153.73641304347828,97.37500000000001,153.70482336956525,99.75000000000001,153.6732336956522C102.12500000000001,153.64164402173915,104.5,153.61005434782606,106.875,153.57846467391303C109.25,153.54687499999997,111.625,153.51528532608694,114,153.4836956521739C116.375,153.45210597826087,118.75000000000001,153.4205163043478,121.12500000000001,153.38892663043478C123.50000000000001,153.35733695652175,125.875,153.3257472826087,128.25,153.29415760869566C130.625,153.26256793478262,133,153.23097826086956,135.375,153.19938858695653C137.75,153.1677989130435,140.125,153.13620923913044,142.5,153.1046195652174C144.875,153.07302989130437,147.25,153.0414402173913,149.625,153.00985054347825C152,152.9782608695652,154.375,152.94667119565216,156.75,152.91508152173913C159.125,152.8834918478261,161.5,152.85190217391303,163.875,152.8203125C166.25,152.78872282608697,168.625,152.7571331521739,171,152.72554347826087C173.375,152.69395380434784,175.75,152.66236413043478,178.125,152.63077445652175C180.5,152.59918478260872,182.875,152.56759510869566,185.25,152.53600543478262C187.625,152.5044157608696,190,152.47282608695653,192.375,152.4412364130435C194.75,152.40964673913044,197.12500000000003,152.3780570652174,199.50000000000003,152.34646739130434C201.875,152.3148777173913,204.25,152.28328804347825,206.62499999999997,152.25169836956522C208.99999999999997,152.2201086956522,211.375,152.18851902173915,213.75,152.1569293478261C216.125,152.12533967391306,218.5,152.09375,220.875,152.06216032608694C223.25,152.03057065217388,225.625,151.99898097826085,228,151.9673913043478C230.375,151.93580163043478,232.75,151.90421195652172,235.125,151.8726222826087C237.5,151.84103260869566,239.87500000000003,151.8094429347826,242.25000000000003,151.77785326086956C244.625,151.74626358695653,247,151.71467391304347,249.37499999999997,151.68308423913044C251.74999999999997,151.6514945652174,254.125,151.61990489130437,256.5,151.5883152173913C258.875,151.55672554347828,261.25,151.5251358695652,263.625,151.49354619565216C266,151.46195652173913,268.375,151.43036684782606,270.75,151.39877717391303C273.125,151.3671875,275.5,151.33559782608694,277.875,151.3040081521739C280.25,151.27241847826087,282.625,151.2408288043478,285,151.20923913043478C287.375,151.17764945652175,289.75,151.1460597826087,292.125,151.11447010869566C294.5,151.08288043478262,296.875,151.05129076086956,299.25,151.01970108695653C301.625,150.9881114130435,304,150.95652173913044,306.375,150.9249320652174C308.75,150.89334239130437,311.125,150.8617527173913,313.5,150.83016304347825C315.875,150.7985733695652,318.25,150.76698369565216,320.625,150.73539402173913C323,150.7038043478261,325.375,150.67221467391303,327.75,150.640625C330.125,150.60903532608697,332.5,150.5774456521739,334.875,150.54585597826087C337.25,150.51426630434784,339.625,150.48267663043478,342,150.45108695652175C344.375,150.41949728260872,346.75,150.38790760869568,349.125,150.35631793478262C351.5,150.32472826086956,353.875,150.2931385869565,356.25,150.26154891304347C358.625,150.22995923913044,361,150.19836956521738,363.375,150.16677989130434C365.75,150.1351902173913,368.125,150.10360054347825,370.5,150.07201086956522C372.875,150.0404211956522,375.25,150.00883152173913,377.625,149.9772418478261C380,149.94565217391306,382.375,149.9140625,384.75,149.88247282608697C387.125,149.85088315217394,389.50000000000006,149.8192934782609,391.87500000000006,149.78770380434784C394.25000000000006,149.7561141304348,396.62500000000006,149.72452445652175,399.00000000000006,149.6929347826087C401.375,149.66134510869566,403.75,149.6297554347826,406.12499999999994,149.59816576086956C408.49999999999994,149.56657608695653,410.87499999999994,149.53498641304347,413.24999999999994,149.50339673913044C415.62499999999994,149.4718070652174,418,149.44021739130437,420.375,149.4086277173913C422.75,149.37703804347828,425.125,149.3454483695652,427.5,149.31385869565216C429.875,149.28226902173913,432.25,149.25067934782606,434.625,149.21908967391303C437,149.1875,439.375,149.15591032608694,441.75,149.1243206521739C444.125,149.09273097826087,446.5,149.0611413043478,448.875,149.02955163043478C451.25,148.99796195652175,453.625,148.9663722826087,456,148.93478260869566C458.375,148.90319293478262,460.75,148.87160326086956,463.125,148.84001358695653C465.5,148.8084239130435,467.875,148.7768342391304,470.25,148.74524456521738C472.625,148.71365489130432,475.00000000000006,148.68206521739128,477.37500000000006,148.65047554347825C479.75000000000006,148.61888586956522,482.12500000000006,148.58729619565216,484.50000000000006,148.55570652173913C486.875,148.5241168478261,489.25,148.49252717391303,491.62499999999994,148.4609375C493.99999999999994,148.42934782608697,496.37499999999994,148.3977581521739,498.74999999999994,148.36616847826087C501.12499999999994,148.33457880434784,503.5,148.3029891304348,505.875,148.27139945652175C508.25,148.23980978260872,510.625,148.20822010869563,513,148.1766304347826C515.375,148.14504076086956,517.75,148.1134510869565,520.125,148.08186141304347C522.5,148.05027173913044,524.875,148.01868206521738,527.25,147.98709239130434C529.625,147.9555027173913,532,147.92391304347825,534.375,147.89232336956522C536.75,147.8607336956522,539.125,147.82914402173913,541.5,147.7975543478261C543.875,147.76596467391306,546.25,147.734375,548.625,147.70278532608697C551,147.67119565217394,553.375,147.63960597826087,555.75,147.60801630434784C558.125,147.5764266304348,560.5,147.54483695652175,562.875,147.5132472826087C565.25,147.48165760869563,567.625,147.4500679347826,570,147.41847826086956C572.375,147.38688858695653,574.75,147.35529891304347,577.125,147.32370923913044C579.5,147.2921195652174,581.875,147.26052989130434,584.25,147.2289402173913C586.625,147.19735054347828,589,147.16576086956522,591.375,147.1341711956522C593.75,147.10258152173915,596.125,147.07099184782612,598.5,147.03940217391306C600.875,147.0078125,603.25,146.97622282608694,605.625,146.9446331521739C608,146.91304347826087,610.375,146.8814538043478,612.75,146.84986413043478C615.125,146.81827445652175,617.5,146.7866847826087,619.875,146.75509510869566C622.25,146.72350543478262,624.625,146.69191576086956,627,146.6603260869565C629.375,146.62873641304344,631.75,146.5971467391304,634.125,146.56555706521738C636.5,146.53396739130434,638.875,146.50237771739128,641.25,146.47078804347825C643.625,146.43919836956522,646,146.40760869565216,648.375,146.37601902173913C650.75,146.3444293478261,653.125,146.31283967391303,655.5,146.28125C657.875,146.24966032608697,660.25,146.2180706521739,662.625,146.18648097826087C665,146.15489130434784,667.375,146.1233016304348,669.75,146.09171195652175C672.125,146.0601222826087,674.5,146.02853260869563,676.875,145.9969429347826C679.25,145.96535326086956,681.625,145.9337635869565,684,145.90217391304347C686.375,145.87058423913044,688.75,145.83899456521738,691.125,145.80740489130434C693.5,145.7758152173913,695.875,145.74422554347825,698.25,145.71263586956522C700.625,145.6810461956522,703,145.64945652173913,705.375,145.6178668478261C707.75,145.58627717391306,710.125,145.5546875,712.5,145.52309782608697C714.875,145.49150815217394,717.25,145.45991847826087,719.625,145.4283288043478C722,145.39673913043475,724.375,145.36514945652172,726.75,145.3335597826087C729.125,145.30197010869566,731.5,145.2703804347826,733.875,145.23879076086956C736.25,145.20720108695653,738.625,145.17561141304347,741,145.14402173913044C743.375,145.1124320652174,745.75,145.08084239130434,748.125,145.0492527173913C750.5,145.01766304347828,752.875,144.98607336956525,755.25,144.9544836956522C757.625,144.92289402173913,760,144.89130434782606,762.375,144.85971467391303C764.75,144.828125,767.125,144.79653532608694,769.5,144.7649456521739C771.875,144.73335597826087,774.2500000000001,144.7017663043478,776.6250000000001,144.67017663043478C779.0000000000001,144.63858695652175,781.3750000000001,144.6069972826087,783.7500000000001,144.57540760869566C786.1250000000001,144.54381793478262,788.5000000000001,144.51222826086956,790.8750000000001,144.48063858695653C793.2500000000001,144.4490489130435,795.6250000000001,144.41745923913044,798.0000000000001,144.3858695652174C800.375,144.35427989130437,802.75,144.3226902173913,805.1249999999999,144.29110054347828C807.4999999999999,144.25951086956522,809.8749999999999,144.2279211956522,812.2499999999999,144.19633152173913C814.6249999999999,144.16474184782606,816.9999999999999,144.13315217391303,819.3749999999999,144.1015625C821.7499999999999,144.06997282608697,824.1249999999999,144.0383831521739,826.4999999999999,144.00679347826087C828.8749999999999,143.9752038043478,831.25,143.94361413043478,833.625,143.91202445652172C836,143.8804347826087,838.375,143.84884510869563,840.75,143.8172554347826C843.125,143.78566576086956,845.5,143.7540760869565,847.875,143.72248641304347C850.25,143.69089673913044,852.625,143.65930706521738,855,143.62771739130434C857.375,143.5961277173913,859.75,143.56453804347825,862.125,143.53294836956522C864.5,143.5013586956522,866.875,143.46976902173913,869.25,143.4381793478261C871.625,143.40658967391306,874,143.375,876.375,143.34341032608697C878.75,143.31182065217394,881.125,143.28023097826087,883.5,143.2486413043478C885.875,143.21705163043475,888.25,143.18546195652172,890.625,143.1538722826087C893,143.12228260869566,895.375,143.0906929347826,897.75,143.05910326086956C900.125,143.02751358695653,902.5,142.99592391304347,904.875,142.96433423913044C907.25,142.9327445652174,909.625,142.90115489130434,912,142.8695652173913C914.375,142.83797554347828,916.75,142.80638586956525,919.125,142.7747961956522C921.5,142.74320652173913,923.875,142.71161684782606,926.25,142.68002717391303C928.625,142.6484375,931,142.61684782608694,933.375,142.5852581521739C935.75,142.55366847826087,938.125,142.5220788043478,940.5,142.49048913043478C942.875,142.45889945652175,945.25,142.4273097826087,947.625,142.39572010869566C950,142.36413043478262,952.3750000000001,142.33254076086956,954.7500000000001,142.30095108695653C957.1250000000001,142.2693614130435,959.5000000000001,142.23777173913044,961.8750000000001,142.2061820652174C964.2500000000001,142.17459239130437,966.6250000000001,142.1430027173913,969.0000000000001,142.11141304347825C971.3750000000001,142.0798233695652,973.7500000000001,142.04823369565216,976.1250000000001,142.01664402173913C978.5,141.9850543478261,980.875,141.95346467391303,983.2499999999999,141.921875C985.6249999999999,141.89028532608697,987.9999999999999,141.8586956521739,990.3749999999999,141.82710597826087C992.7499999999999,141.79551630434784,995.1249999999999,141.76392663043478,997.4999999999999,141.73233695652175C999.8749999999999,141.70074728260872,1002.2499999999999,141.66915760869566,1004.6249999999999,141.63756793478262C1006.9999999999999,141.6059782608696,1009.375,141.57438858695656,1011.75,141.5427989130435C1014.125,141.51120923913047,1016.5,141.47961956521738,1018.875,141.44802989130434C1021.25,141.4164402173913,1023.625,141.38485054347825,1026,141.35326086956522C1028.375,141.3216711956522,1030.75,141.29008152173913,1033.125,141.25849184782606C1035.5,141.226902173913,1037.875,141.19531249999997,1040.25,141.16372282608694C1042.625,141.1321331521739,1045,141.10054347826085,1047.375,141.0689538043478C1049.75,141.03736413043478,1052.125,141.00577445652172,1054.5,140.9741847826087C1056.875,140.94259510869566,1059.25,140.9110054347826,1061.625,140.87941576086956C1064,140.84782608695653,1066.375,140.81623641304347,1068.75,140.78464673913044C1071.125,140.7530570652174,1073.5,140.72146739130437,1075.875,140.6898777173913C1078.25,140.65828804347825,1080.625,140.6266983695652,1083,140.59510869565216C1085.375,140.56351902173913,1087.75,140.53192934782606,1090.125,140.50033967391303C1092.5,140.46875,1094.875,140.43716032608694,1097.25,140.4055706521739C1099.625,140.37398097826087,1102,140.3423913043478,1104.375,140.31080163043478C1106.75,140.27921195652175,1109.125,140.2476222826087,1111.5,140.21603260869566C1113.875,140.18444293478262,1116.25,140.15285326086956,1118.625,140.12126358695653C1121,140.0896739130435,1123.375,140.05808423913044,1125.75,140.02649456521738C1128.125,139.99490489130432,1130.5,139.96331521739128,1132.875,139.93172554347825C1135.25,139.90013586956522,1137.625,139.86854619565216,1140,139.83695652173913C1142.375,139.8053668478261,1144.75,139.77377717391303,1147.125,139.7421875C1149.5,139.71059782608697,1151.875,139.6790081521739,1154.25,139.64741847826087C1156.625,139.61582880434784,1159,139.58423913043478,1161.375,139.55264945652175C1163.75,139.52105978260872,1166.125,139.48947010869568,1168.5,139.45788043478262C1170.875,139.42629076086956,1173.25,139.3947010869565,1175.625,139.36311141304347C1178,139.33152173913044,1180.375,139.29993206521738,1182.75,139.26834239130434C1185.125,139.2367527173913,1187.5,139.20516304347825,1189.875,139.17357336956522C1192.25,139.1419836956522,1194.625,139.11039402173913,1197,139.0788043478261C1199.375,139.04721467391306,1201.75,139.015625,1204.125,138.98403532608697C1206.5,138.95244565217394,1208.875,138.92085597826087,1211.25,138.88926630434784C1213.625,138.8576766304348,1216,138.82608695652175,1218.375,138.7944972826087C1220.75,138.76290760869563,1223.125,138.7313179347826,1225.5,138.69972826086956C1227.875,138.66813858695653,1230.25,138.63654891304347,1232.625,138.60495923913044C1235,138.5733695652174,1237.375,138.54177989130437,1239.75,138.5101902173913C1242.125,138.47860054347825,1244.5,138.4470108695652,1246.875,138.41542119565216C1249.25,138.38383152173913,1251.625,138.35224184782606,1254,138.32065217391303C1256.375,138.2890625,1258.75,138.25747282608694,1261.125,138.2258831521739C1263.5,138.19429347826087,1265.875,138.1627038043478,1268.25,138.13111413043478C1270.625,138.09952445652175,1273,138.0679347826087,1275.375,138.03634510869566C1277.75,138.00475543478262,1280.125,137.97316576086956,1282.5,137.94157608695653C1284.875,137.9099864130435,1287.25,137.87839673913044,1289.625,137.84680706521738C1292,137.81521739130432,1294.375,137.78362771739128,1296.75,137.75203804347825C1299.125,137.72044836956522,1301.5,137.68885869565216,1303.875,137.65726902173913C1306.25,137.6256793478261,1308.625,137.6256793478261,1311,137.5625C1313.375,137.4993206521739,1315.75,132.71875,1318.125,130.296875C1320.5,127.875,1322.875,125.453125,1325.25,123.03125C1327.625,120.609375,1330,118.1875,1332.375,115.765625C1334.75,113.34375,1337.125,110.921875,1339.5,108.5C1341.875,106.078125,1344.25,103.65625,1346.625,101.234375C1349,98.8125,1351.375,96.390625,1353.75,93.96875C1356.125,91.546875,1358.5,89.125,1360.875,86.703125C1363.25,84.28125,1365.625,81.859375,1368,79.4375C1370.375,77.015625,1372.75,74.59375,1375.125,72.171875C1377.5,69.75,1379.875,67.328125,1382.25,64.90625C1384.625,62.484375,1387,60.06250000000001,1389.375,57.64062500000001C1391.75,55.21875000000001,1394.125,52.79687499999999,1396.5,50.37499999999999C1398.875,47.95312499999999,1401.25,45.53124999999999,1403.625,43.10937499999999C1406,40.68749999999999,1408.375,38.26562499999999,1410.75,35.84374999999999C1413.125,33.42187499999999,1415.5,30.999999999999993,1417.875,28.578124999999993C1420.25,26.156249999999993,1422.625,23.734374999999993,1425,21.312499999999993" fill="transparent" stroke-linecap="round" stroke="#1AD4B3" stroke-width="2"></path><g class="visx-group visx-axis visx-axis-bottom" transform="translate(0, 155)"><g class="visx-group visx-axis-tick" transform="translate(0, 0)"><line class="visx-line" x1="0" y1="0" x2="0" y2="8" fill="transparent" shape-rendering="crispEdges" stroke="#F2F0F9" stroke-width="1" stroke-linecap="square"></line><svg x="0" y="0" font-size="11" style="overflow:visible"><text transform="" x="0" y="19" fill="#1B2030" font-size="11" text-anchor="middle"><tspan x="0" dy="0em">0%</tspan></text></svg></g><g class="visx-group visx-axis-tick" transform="translate(0, 0)"><line class="visx-line" x1="356.25" y1="0" x2="356.25" y2="8" fill="transparent" shape-rendering="crispEdges" stroke="#F2F0F9" stroke-width="1" stroke-linecap="square"></line><svg x="0" y="0" font-size="11" style="overflow:visible"><text transform="" x="356.25" y="19" fill="#1B2030" font-size="11" text-anchor="middle"><tspan x="356.25" dy="0em">25%</tspan></text></svg></g><g class="visx-group visx-axis-tick" transform="translate(0, 0)"><line class="visx-line" x1="712.5" y1="0" x2="712.5" y2="8" fill="transparent" shape-rendering="crispEdges" stroke="#F2F0F9" stroke-width="1" stroke-linecap="square"></line><svg x="0" y="0" font-size="11" style="overflow:visible"><text transform="" x="712.5" y="19" fill="#1B2030" font-size="11" text-anchor="middle"><tspan x="712.5" dy="0em">50%</tspan></text></svg></g><g class="visx-group visx-axis-tick" transform="translate(0, 0)"><line class="visx-line" x1="1068.75" y1="0" x2="1068.75" y2="8" fill="transparent" shape-rendering="crispEdges" stroke="#F2F0F9" stroke-width="1" stroke-linecap="square"></line><svg x="0" y="0" font-size="11" style="overflow:visible"><text transform="" x="1068.75" y="19" fill="#1B2030" font-size="11" text-anchor="middle"><tspan x="1068.75" dy="0em">75%</tspan></text></svg></g><g class="visx-group visx-axis-tick" transform="translate(0, 0)"><line class="visx-line" x1="1425" y1="0" x2="1425" y2="8" fill="transparent" shape-rendering="crispEdges" stroke="#F2F0F9" stroke-width="1" stroke-linecap="square"></line><svg x="0" y="0" font-size="11" style="overflow:visible"><text transform="" x="1425" y="19" fill="#1B2030" font-size="11" text-anchor="middle"><tspan x="1425" dy="0em">100%</tspan></text></svg></g></g><g class="visx-group visx-axis visx-axis-left" transform="translate(0, 0)"><g class="visx-group visx-axis-tick" transform="translate(0, 0)"><line class="visx-line" x1="0" y1="155" x2="-8" y2="155" fill="transparent" shape-rendering="crispEdges" stroke="#F2F0F9" stroke-width="1" stroke-linecap="square"></line><svg x="-30" y="0" font-size="11" style="overflow:visible"><text transform="" x="-8" y="155" fill="#1B2030" font-size="11" text-anchor="start"><tspan x="-8" dy="0em">0%</tspan></text></svg></g><g class="visx-group visx-axis-tick" transform="translate(0, 0)"><line class="visx-line" x1="0" y1="116.25" x2="-8" y2="116.25" fill="transparent" shape-rendering="crispEdges" stroke="#F2F0F9" stroke-width="1" stroke-linecap="square"></line><svg x="-30" y="0" font-size="11" style="overflow:visible"><text transform="" x="-8" y="116.25" fill="#1B2030" font-size="11" text-anchor="start"><tspan x="-8" dy="0em">20%</tspan></text></svg></g><g class="visx-group visx-axis-tick" transform="translate(0, 0)"><line class="visx-line" x1="0" y1="77.5" x2="-8" y2="77.5" fill="transparent" shape-rendering="crispEdges" stroke="#F2F0F9" stroke-width="1" stroke-linecap="square"></line><svg x="-30" y="0" font-size="11" style="overflow:visible"><text transform="" x="-8" y="77.5" fill="#1B2030" font-size="11" text-anchor="start"><tspan x="-8" dy="0em">40%</tspan></text></svg></g><g class="visx-group visx-axis-tick" transform="translate(0, 0)"><line class="visx-line" x1="0" y1="38.75" x2="-8" y2="38.75" fill="transparent" shape-rendering="crispEdges" stroke="#F2F0F9" stroke-width="1" stroke-linecap="square"></line><svg x="-30" y="0" font-size="11" style="overflow:visible"><text transform="" x="-8" y="38.75" fill="#1B2030" font-size="11" text-anchor="start"><tspan x="-8" dy="0em">60%</tspan></text></svg></g><g class="visx-group visx-axis-tick" transform="translate(0, 0)"><line class="visx-line" x1="0" y1="0" x2="-8" y2="0" fill="transparent" shape-rendering="crispEdges" stroke="#F2F0F9" stroke-width="1" stroke-linecap="square"></line><svg x="-30" y="0" font-size="11" style="overflow:visible"><text transform="" x="-8" y="0" fill="#1B2030" font-size="11" text-anchor="start"><tspan x="-8" dy="0em">80%</tspan></text></svg></g><line class="visx-line visx-axis-line" x1="0" y1="155.5" x2="0" y2="0.5" fill="transparent" shape-rendering="crispEdges" stroke="#F2F0F9" stroke-width="1"></line></g><rect class="visx-bar" width="1425" height="155" fill="transparent"></rect><line class="visx-line" x1="1311" y1="58" x2="1311" y2="155" fill="transparent" shape-rendering="crispEdges" stroke="#CDC8E1" stroke-width="1" pointer-events="none" stroke-dasharray="5"></line><svg x="0" y="0" font-size="11px" style="overflow:visible"><text transform="" x="1311" y="50" font-size="11px" fill="#555069" stroke="#FFFFFF" stroke-width="1px" text-anchor="middle"><tspan x="1311" dy="0.355em">Optimal utilization 92%</tspan></text></svg><svg x="0" y="0" font-size="11px" style="overflow:visible"><text transform="" x="1311" y="50" font-size="11px" fill="#CDC8E1" text-anchor="middle"><tspan x="1311" dy="0.355em">Optimal utilization 92%</tspan></text></svg></g></svg>