<?xml version="1.0"?><svg xmlns="http://www.w3.org/2000/svg" xmlns:xlink= "http://www.w3.org/1999/xlink" style="background: white;" width="1500" height="185"> <g style="color: black; font-size: 13px; font-family: sans-serif; transform: translate(18px, 25px);"><g><circle r="3" cx="-6" cy="-5" style="fill: #B6509E" /><text>Borrow APR, variable</text></g><g style="transform: translateX(150px);"><circle r="3" cx="-6" cy="-5" style="fill: rgb(231, 198, 223)" /><text>Borrow APR, stable</text></g><g style="transform: translateX(290px);"><circle r="3" cx="-6" cy="-5" style="fill: rgb(0, 98, 210)" /><text>Utilization Rate</text></g></g><g class="visx-group" transform="translate(40, 50)"><g class="visx-group visx-rows" transform="translate(0, 0)"><line class="visx-line" x1="0" y1="115" x2="1450" y2="115" fill="transparent" shape-rendering="crispEdges" stroke="#000" stroke-width="1" stroke-dasharray="3,3" pointer-events="none"></line><line class="visx-line" x1="0" y1="73.92857142857142" x2="1450" y2="73.92857142857142" fill="transparent" shape-rendering="crispEdges" stroke="#000" stroke-width="1" stroke-dasharray="3,3" pointer-events="none"></line><line class="visx-line" x1="0" y1="32.857142857142854" x2="1450" y2="32.857142857142854" fill="transparent" shape-rendering="crispEdges" stroke="#000" stroke-width="1" stroke-dasharray="3,3" pointer-events="none"></line></g><path class="visx-linepath" d="M0,0C2.4166666666666665,6.160714285714281,4.833333333333334,12.321428571428566,7.25,12.321428571428566C9.666666666666666,12.321428571428566,12.083333333333334,12.321428571428566,14.5,12.321428571428566C16.916666666666668,12.321428571428566,19.333333333333332,12.321428571428566,21.75,12.321428571428566C24.166666666666668,12.321428571428566,26.583333333333332,12.321428571428566,29,12.321428571428566C31.416666666666668,12.321428571428566,33.833333333333336,12.321428571428566,36.25,12.321428571428566C38.666666666666664,12.321428571428566,41.083333333333336,12.321428571428566,43.5,12.321428571428566C45.91666666666667,12.321428571428566,48.333333333333336,12.321428571428566,50.75000000000001,12.321428571428566C53.16666666666667,12.321428571428566,55.583333333333336,12.321428571428566,58,12.321428571428566C60.416666666666664,12.321428571428566,62.833333333333336,12.321428571428566,65.25,12.321428571428566C67.66666666666667,12.321428571428566,70.08333333333333,12.321428571428566,72.5,12.321428571428566C74.91666666666667,12.321428571428566,77.33333333333333,12.321428571428566,79.75,12.321428571428566C82.16666666666667,12.321428571428566,84.58333333333333,12.321428571428566,87,12.321428571428566C89.41666666666667,12.321428571428566,91.83333333333333,12.321428571428566,94.25,12.321428571428566C96.66666666666667,12.321428571428566,99.08333333333334,12.321428571428566,101.50000000000001,12.321428571428566C103.91666666666667,12.321428571428566,106.33333333333334,12.321428571428566,108.75,12.321428571428566C111.16666666666667,12.321428571428566,113.58333333333333,12.321428571428566,116,12.321428571428566C118.41666666666667,12.321428571428566,120.83333333333334,12.321428571428566,123.25000000000001,12.321428571428566C125.66666666666667,12.321428571428566,128.08333333333334,12.321428571428566,130.5,12.321428571428566C132.91666666666666,12.321428571428566,135.33333333333334,12.321428571428566,137.75,12.321428571428566C140.16666666666666,12.321428571428566,142.58333333333334,12.321428571428566,145,12.321428571428566C147.41666666666666,12.321428571428566,149.83333333333334,12.321428571428566,152.25,12.321428571428566C154.66666666666666,12.321428571428566,157.08333333333334,12.321428571428566,159.5,12.321428571428566C161.91666666666666,12.321428571428566,164.33333333333334,12.321428571428566,166.75,12.321428571428566C169.16666666666666,12.321428571428566,171.58333333333334,12.321428571428566,174,12.321428571428566C176.41666666666666,12.321428571428566,178.83333333333334,12.321428571428566,181.25,12.321428571428566C183.66666666666666,12.321428571428566,186.08333333333334,12.321428571428566,188.5,12.321428571428566C190.91666666666666,12.321428571428566,193.33333333333334,12.321428571428566,195.75,12.321428571428566C198.16666666666669,12.321428571428566,200.58333333333334,12.321428571428566,203.00000000000003,12.321428571428566C205.41666666666669,12.321428571428566,207.83333333333331,12.321428571428566,210.24999999999997,12.321428571428566C212.66666666666666,12.321428571428566,215.08333333333331,12.321428571428566,217.5,12.321428571428566C219.91666666666666,12.321428571428566,222.33333333333334,12.321428571428566,224.75,12.321428571428566C227.16666666666666,12.321428571428566,229.58333333333334,12.321428571428566,232,12.321428571428566C234.41666666666666,12.321428571428566,236.83333333333334,12.321428571428566,239.25,12.321428571428566C241.66666666666669,12.321428571428566,244.08333333333334,12.321428571428566,246.50000000000003,12.321428571428566C248.91666666666669,12.321428571428566,251.33333333333331,12.321428571428566,253.74999999999997,12.321428571428566C256.16666666666663,12.321428571428566,258.5833333333333,12.321428571428566,261,12.321428571428566C263.4166666666667,12.321428571428566,265.8333333333333,12.321428571428566,268.25,12.321428571428566C270.6666666666667,12.321428571428566,273.0833333333333,12.321428571428566,275.5,12.321428571428566C277.9166666666667,12.321428571428566,280.3333333333333,12.321428571428566,282.75,12.321428571428566C285.1666666666667,12.321428571428566,287.5833333333333,12.321428571428566,290,12.321428571428566C292.4166666666667,12.321428571428566,294.8333333333333,12.321428571428566,297.25,12.321428571428566C299.6666666666667,12.321428571428566,302.0833333333333,12.321428571428566,304.5,12.321428571428566C306.9166666666667,12.321428571428566,309.3333333333333,12.321428571428566,311.75,12.321428571428566C314.1666666666667,12.321428571428566,316.5833333333333,12.321428571428566,319,12.321428571428566C321.4166666666667,12.321428571428566,323.8333333333333,12.321428571428566,326.25,12.321428571428566C328.6666666666667,12.321428571428566,331.0833333333333,12.321428571428566,333.5,12.321428571428566C335.9166666666667,12.321428571428566,338.3333333333333,12.321428571428566,340.75,12.321428571428566C343.1666666666667,12.321428571428566,345.5833333333333,12.321428571428566,348,12.321428571428566C350.4166666666667,12.321428571428566,352.8333333333333,12.321428571428566,355.25,12.321428571428566C357.6666666666667,12.321428571428566,360.0833333333333,12.321428571428566,362.5,12.321428571428566C364.9166666666667,12.321428571428566,367.3333333333333,12.321428571428566,369.75,12.321428571428566C372.1666666666667,12.321428571428566,374.5833333333333,12.321428571428566,377,12.321428571428566C379.4166666666667,12.321428571428566,381.8333333333333,12.321428571428566,384.25,12.321428571428566C386.6666666666667,12.321428571428566,389.0833333333333,12.321428571428566,391.5,12.321428571428566C393.9166666666667,12.321428571428566,396.33333333333337,12.321428571428566,398.75000000000006,12.321428571428566C401.16666666666674,12.321428571428566,403.58333333333337,12.321428571428566,406.00000000000006,12.321428571428566C408.4166666666667,12.321428571428566,410.8333333333333,12.321428571428566,413.24999999999994,12.321428571428566C415.66666666666663,12.321428571428566,418.08333333333326,12.321428571428566,420.49999999999994,12.321428571428566C422.91666666666663,12.321428571428566,425.3333333333333,12.321428571428566,427.75,12.321428571428566C430.1666666666667,12.321428571428566,432.5833333333333,12.321428571428566,435,12.321428571428566C437.4166666666667,12.321428571428566,439.8333333333333,12.321428571428566,442.25,12.321428571428566C444.6666666666667,12.321428571428566,447.0833333333333,12.321428571428566,449.5,12.321428571428566C451.9166666666667,12.321428571428566,454.3333333333333,12.321428571428566,456.75,12.321428571428566C459.1666666666667,12.321428571428566,461.5833333333333,12.321428571428566,464,12.321428571428566C466.4166666666667,12.321428571428566,468.8333333333333,12.321428571428566,471.25,12.321428571428566C473.6666666666667,12.321428571428566,476.0833333333333,12.321428571428566,478.5,12.321428571428566C480.9166666666667,12.321428571428566,483.33333333333337,12.321428571428566,485.75000000000006,12.321428571428566C488.16666666666674,12.321428571428566,490.58333333333337,12.321428571428566,493.00000000000006,12.321428571428566C495.4166666666667,12.321428571428566,497.8333333333333,12.321428571428566,500.24999999999994,12.321428571428566C502.66666666666663,12.321428571428566,505.08333333333326,12.321428571428566,507.49999999999994,12.321428571428566C509.91666666666663,12.321428571428566,512.3333333333333,12.321428571428566,514.75,12.321428571428566C517.1666666666666,12.321428571428566,519.5833333333334,12.321428571428566,522,12.321428571428566C524.4166666666666,12.321428571428566,526.8333333333334,12.321428571428566,529.25,12.321428571428566C531.6666666666666,12.321428571428566,534.0833333333334,12.321428571428566,536.5,12.321428571428566C538.9166666666666,12.321428571428566,541.3333333333334,12.321428571428566,543.75,12.321428571428566C546.1666666666666,12.321428571428566,548.5833333333334,12.321428571428566,551,12.321428571428566C553.4166666666666,12.321428571428566,555.8333333333334,12.321428571428566,558.25,12.321428571428566C560.6666666666666,12.321428571428566,563.0833333333334,12.321428571428566,565.5,12.321428571428566C567.9166666666666,12.321428571428566,570.3333333333334,12.321428571428566,572.75,12.321428571428566C575.1666666666666,12.321428571428566,577.5833333333334,12.321428571428566,580,12.321428571428566C582.4166666666666,12.321428571428566,584.8333333333334,12.321428571428566,587.25,12.321428571428566C589.6666666666666,12.321428571428566,592.0833333333334,12.321428571428566,594.5,12.321428571428566C596.9166666666666,12.321428571428566,599.3333333333334,12.321428571428566,601.75,12.321428571428566C604.1666666666666,12.321428571428566,606.5833333333334,12.321428571428566,609,12.321428571428566C611.4166666666666,12.321428571428566,613.8333333333334,12.321428571428566,616.25,12.321428571428566C618.6666666666666,12.321428571428566,621.0833333333334,12.321428571428566,623.5,12.321428571428566C625.9166666666666,12.321428571428566,628.3333333333334,12.321428571428566,630.75,12.321428571428566C633.1666666666666,12.321428571428566,635.5833333333334,12.321428571428566,638,12.321428571428566C640.4166666666666,12.321428571428566,642.8333333333334,12.321428571428566,645.25,12.321428571428566C647.6666666666666,12.321428571428566,650.0833333333334,12.321428571428566,652.5,12.321428571428566C654.9166666666666,12.321428571428566,657.3333333333334,12.321428571428566,659.75,12.321428571428566C662.1666666666666,12.321428571428566,664.5833333333334,12.321428571428566,667,12.321428571428566C669.4166666666666,12.321428571428566,671.8333333333334,12.321428571428566,674.25,12.321428571428566C676.6666666666666,12.321428571428566,679.0833333333334,12.321428571428566,681.5,12.321428571428566C683.9166666666666,12.321428571428566,686.3333333333334,12.321428571428566,688.75,12.321428571428566C691.1666666666666,12.321428571428566,693.5833333333334,12.321428571428566,696,12.321428571428566C698.4166666666666,12.321428571428566,700.8333333333334,12.321428571428566,703.25,12.321428571428566C705.6666666666666,12.321428571428566,708.0833333333334,12.321428571428566,710.5,12.321428571428566C712.9166666666666,12.321428571428566,715.3333333333334,12.321428571428566,717.75,12.321428571428566C720.1666666666666,12.321428571428566,722.5833333333334,12.321428571428566,725,12.321428571428566C727.4166666666666,12.321428571428566,729.8333333333334,12.321428571428566,732.25,12.321428571428566C734.6666666666666,12.321428571428566,737.0833333333334,12.321428571428566,739.5,12.321428571428566C741.9166666666666,12.321428571428566,744.3333333333334,12.321428571428566,746.75,12.321428571428566C749.1666666666666,12.321428571428566,751.5833333333334,12.321428571428566,754,12.321428571428566C756.4166666666666,12.321428571428566,758.8333333333334,12.321428571428566,761.25,12.321428571428566C763.6666666666666,12.321428571428566,766.0833333333334,12.321428571428566,768.5,12.321428571428566C770.9166666666666,12.321428571428566,773.3333333333334,12.321428571428566,775.75,12.321428571428566C778.1666666666666,12.321428571428566,780.5833333333334,12.321428571428566,783,12.321428571428566C785.4166666666667,12.321428571428566,787.8333333333334,12.321428571428566,790.2500000000001,12.321428571428566C792.6666666666667,12.321428571428566,795.0833333333335,12.321428571428566,797.5000000000001,12.321428571428566C799.9166666666667,12.321428571428566,802.3333333333335,12.321428571428566,804.7500000000001,12.321428571428566C807.1666666666667,12.321428571428566,809.5833333333335,12.321428571428566,812.0000000000001,12.321428571428566C814.4166666666667,12.321428571428566,816.8333333333333,12.321428571428566,819.2499999999999,12.321428571428566C821.6666666666665,12.321428571428566,824.0833333333333,12.321428571428566,826.4999999999999,12.321428571428566C828.9166666666665,12.321428571428566,831.3333333333333,12.321428571428566,833.7499999999999,12.321428571428566C836.1666666666665,12.321428571428566,838.5833333333333,12.321428571428566,840.9999999999999,12.321428571428566C843.4166666666666,12.321428571428566,845.8333333333333,12.321428571428566,848.25,12.321428571428566C850.6666666666666,12.321428571428566,853.0833333333334,12.321428571428566,855.5,12.321428571428566C857.9166666666666,12.321428571428566,860.3333333333334,12.321428571428566,862.75,12.321428571428566C865.1666666666666,12.321428571428566,867.5833333333334,12.321428571428566,870,12.321428571428566C872.4166666666666,12.321428571428566,874.8333333333334,12.321428571428566,877.25,12.321428571428566C879.6666666666666,12.321428571428566,882.0833333333334,12.321428571428566,884.5,12.321428571428566C886.9166666666666,12.321428571428566,889.3333333333334,12.321428571428566,891.75,12.321428571428566C894.1666666666666,12.321428571428566,896.5833333333334,12.321428571428566,899,12.321428571428566C901.4166666666666,12.321428571428566,903.8333333333334,12.321428571428566,906.25,12.321428571428566C908.6666666666666,12.321428571428566,911.0833333333334,12.321428571428566,913.5,12.321428571428566C915.9166666666666,12.321428571428566,918.3333333333334,12.321428571428566,920.75,12.321428571428566C923.1666666666666,12.321428571428566,925.5833333333334,12.321428571428566,928,12.321428571428566C930.4166666666666,12.321428571428566,932.8333333333334,12.321428571428566,935.25,12.321428571428566C937.6666666666666,12.321428571428566,940.0833333333334,12.321428571428566,942.5,12.321428571428566C944.9166666666666,12.321428571428566,947.3333333333334,12.321428571428566,949.75,12.321428571428566C952.1666666666666,12.321428571428566,954.5833333333334,12.321428571428566,957,12.321428571428566C959.4166666666666,12.321428571428566,961.8333333333334,12.321428571428566,964.25,12.321428571428566C966.6666666666667,12.321428571428566,969.0833333333334,12.321428571428566,971.5000000000001,12.321428571428566C973.9166666666667,12.321428571428566,976.3333333333335,12.321428571428566,978.7500000000001,12.321428571428566C981.1666666666667,12.321428571428566,983.5833333333335,12.321428571428566,986.0000000000001,12.321428571428566C988.4166666666667,12.321428571428566,990.8333333333335,12.321428571428566,993.2500000000001,12.321428571428566C995.6666666666667,12.321428571428566,998.0833333333333,12.321428571428566,1000.4999999999999,12.321428571428566C1002.9166666666665,12.321428571428566,1005.3333333333333,12.321428571428566,1007.7499999999999,12.321428571428566C1010.1666666666665,12.321428571428566,1012.5833333333333,12.321428571428566,1014.9999999999999,12.321428571428566C1017.4166666666665,12.321428571428566,1019.8333333333333,12.321428571428566,1022.2499999999999,12.321428571428566C1024.6666666666665,12.321428571428566,1027.0833333333333,12.321428571428566,1029.5,12.321428571428566C1031.9166666666667,12.321428571428566,1034.3333333333333,12.321428571428566,1036.75,12.321428571428566C1039.1666666666667,12.321428571428566,1041.5833333333333,12.321428571428566,1044,12.321428571428566C1046.4166666666667,12.321428571428566,1048.8333333333333,12.321428571428566,1051.25,12.321428571428566C1053.6666666666667,12.321428571428566,1056.0833333333333,12.321428571428566,1058.5,12.321428571428566C1060.9166666666667,12.321428571428566,1063.3333333333333,12.321428571428566,1065.75,12.321428571428566C1068.1666666666667,12.321428571428566,1070.5833333333333,12.321428571428566,1073,12.321428571428566C1075.4166666666667,12.321428571428566,1077.8333333333333,12.321428571428566,1080.25,12.321428571428566C1082.6666666666667,12.321428571428566,1085.0833333333333,12.321428571428566,1087.5,12.321428571428566C1089.9166666666667,12.321428571428566,1092.3333333333333,12.321428571428566,1094.75,12.321428571428566C1097.1666666666667,12.321428571428566,1099.5833333333333,12.321428571428566,1102,12.321428571428566C1104.4166666666667,12.321428571428566,1106.8333333333333,12.321428571428566,1109.25,12.321428571428566C1111.6666666666667,12.321428571428566,1114.0833333333333,12.321428571428566,1116.5,12.321428571428566C1118.9166666666667,12.321428571428566,1121.3333333333333,12.321428571428566,1123.75,12.321428571428566C1126.1666666666667,12.321428571428566,1128.5833333333333,12.321428571428566,1131,12.321428571428566C1133.4166666666667,12.321428571428566,1135.8333333333333,12.321428571428566,1138.25,12.321428571428566C1140.6666666666667,12.321428571428566,1143.0833333333333,12.321428571428566,1145.5,12.321428571428566C1147.9166666666667,12.321428571428566,1150.3333333333333,12.321428571428566,1152.75,12.321428571428566C1155.1666666666667,12.321428571428566,1157.5833333333333,12.321428571428566,1160,12.321428571428566C1162.4166666666667,12.321428571428566,1164.8333333333333,12.321428571428566,1167.25,12.321428571428566C1169.6666666666667,12.321428571428566,1172.0833333333333,12.321428571428566,1174.5,12.321428571428566C1176.9166666666667,12.321428571428566,1179.3333333333333,12.321428571428566,1181.75,12.321428571428566C1184.1666666666667,12.321428571428566,1186.5833333333333,12.321428571428566,1189,12.321428571428566C1191.4166666666667,12.321428571428566,1193.8333333333333,12.321428571428566,1196.25,12.321428571428566C1198.6666666666667,12.321428571428566,1201.0833333333333,12.321428571428566,1203.5,12.321428571428566C1205.9166666666667,12.321428571428566,1208.3333333333333,12.321428571428566,1210.75,12.321428571428566C1213.1666666666667,12.321428571428566,1215.5833333333333,12.321428571428566,1218,12.321428571428566C1220.4166666666667,12.321428571428566,1222.8333333333333,12.321428571428566,1225.25,12.321428571428566C1227.6666666666667,12.321428571428566,1230.0833333333333,12.321428571428566,1232.5,12.321428571428566C1234.9166666666667,12.321428571428566,1237.3333333333333,12.321428571428566,1239.75,12.321428571428566C1242.1666666666667,12.321428571428566,1244.5833333333333,12.321428571428566,1247,12.321428571428566C1249.4166666666667,12.321428571428566,1251.8333333333333,12.321428571428566,1254.25,12.321428571428566C1256.6666666666667,12.321428571428566,1259.0833333333333,12.321428571428566,1261.5,12.321428571428566C1263.9166666666667,12.321428571428566,1266.3333333333333,12.321428571428566,1268.75,12.321428571428566C1271.1666666666667,12.321428571428566,1273.5833333333333,12.321428571428566,1276,12.321428571428566C1278.4166666666667,12.321428571428566,1280.8333333333333,12.321428571428566,1283.25,12.321428571428566C1285.6666666666667,12.321428571428566,1288.0833333333333,12.321428571428566,1290.5,12.321428571428566C1292.9166666666667,12.321428571428566,1295.3333333333333,12.321428571428566,1297.75,12.321428571428566C1300.1666666666667,12.321428571428566,1302.5833333333333,12.321428571428566,1305,12.321428571428566C1307.4166666666667,12.321428571428566,1309.8333333333333,12.321428571428566,1312.25,12.321428571428566C1314.6666666666667,12.321428571428566,1317.0833333333333,12.321428571428566,1319.5,12.321428571428566C1321.9166666666667,12.321428571428566,1324.3333333333333,12.321428571428566,1326.75,12.321428571428566C1329.1666666666667,12.321428571428566,1331.5833333333333,12.321428571428566,1334,12.321428571428566C1336.4166666666667,12.321428571428566,1338.8333333333333,12.321428571428566,1341.25,12.321428571428566C1343.6666666666667,12.321428571428566,1346.0833333333333,12.321428571428566,1348.5,12.321428571428566C1350.9166666666667,12.321428571428566,1353.3333333333333,12.321428571428566,1355.75,12.321428571428566C1358.1666666666667,12.321428571428566,1360.5833333333333,12.321428571428566,1363,12.321428571428566C1365.4166666666667,12.321428571428566,1367.8333333333333,12.321428571428566,1370.25,12.321428571428566C1372.6666666666667,12.321428571428566,1375.0833333333333,12.321428571428566,1377.5,12.321428571428566C1379.9166666666667,12.321428571428566,1382.3333333333333,12.321428571428566,1384.75,12.321428571428566C1387.1666666666667,12.321428571428566,1389.5833333333333,12.321428571428566,1392,12.321428571428566C1394.4166666666667,12.321428571428566,1396.8333333333333,12.321428571428566,1399.25,12.321428571428566C1401.6666666666667,12.321428571428566,1404.0833333333333,12.321428571428566,1406.5,12.321428571428566C1408.9166666666667,12.321428571428566,1411.3333333333333,12.321428571428566,1413.75,12.321428571428566C1416.1666666666667,12.321428571428566,1418.5833333333333,12.321428571428566,1421,12.321428571428566C1423.4166666666667,12.321428571428566,1425.8333333333333,12.321428571428566,1428.25,12.321428571428566C1430.6666666666667,12.321428571428566,1433.0833333333333,12.321428571428566,1435.5,12.321428571428566C1437.9166666666667,12.321428571428566,1440.3333333333333,12.321428571428566,1442.75,12.321428571428566C1445.1666666666667,12.321428571428566,1447.5833333333333,12.321428571428566,1450,12.321428571428566" fill="transparent" stroke-linecap="round" stroke="#B6509E" stroke-width="2"></path><path class="visx-linepath" d="M0,0C2.4166666666666665,57.49999999999999,4.833333333333334,115,7.25,115C9.666666666666666,115,12.083333333333334,115,14.5,115C16.916666666666668,115,19.333333333333332,115,21.75,115C24.166666666666668,115,26.583333333333332,115,29,115C31.416666666666668,115,33.833333333333336,115,36.25,115C38.666666666666664,115,41.083333333333336,115,43.5,115C45.91666666666667,115,48.333333333333336,115,50.75000000000001,115C53.16666666666667,115,55.583333333333336,115,58,115C60.416666666666664,115,62.833333333333336,115,65.25,115C67.66666666666667,115,70.08333333333333,115,72.5,115C74.91666666666667,115,77.33333333333333,115,79.75,115C82.16666666666667,115,84.58333333333333,115,87,115C89.41666666666667,115,91.83333333333333,115,94.25,115C96.66666666666667,115,99.08333333333334,115,101.50000000000001,115C103.91666666666667,115,106.33333333333334,115,108.75,115C111.16666666666667,115,113.58333333333333,115,116,115C118.41666666666667,115,120.83333333333334,115,123.25000000000001,115C125.66666666666667,115,128.08333333333334,115,130.5,115C132.91666666666666,115,135.33333333333334,115,137.75,115C140.16666666666666,115,142.58333333333334,115,145,115C147.41666666666666,115,149.83333333333334,115,152.25,115C154.66666666666666,115,157.08333333333334,115,159.5,115C161.91666666666666,115,164.33333333333334,115,166.75,115C169.16666666666666,115,171.58333333333334,115,174,115C176.41666666666666,115,178.83333333333334,115,181.25,115C183.66666666666666,115,186.08333333333334,115,188.5,115C190.91666666666666,115,193.33333333333334,115,195.75,115C198.16666666666669,115,200.58333333333334,115,203.00000000000003,115C205.41666666666669,115,207.83333333333331,115,210.24999999999997,115C212.66666666666666,115,215.08333333333331,115,217.5,115C219.91666666666666,115,222.33333333333334,115,224.75,115C227.16666666666666,115,229.58333333333334,115,232,115C234.41666666666666,115,236.83333333333334,115,239.25,115C241.66666666666669,115,244.08333333333334,115,246.50000000000003,115C248.91666666666669,115,251.33333333333331,115,253.74999999999997,115C256.16666666666663,115,258.5833333333333,115,261,115C263.4166666666667,115,265.8333333333333,115,268.25,115C270.6666666666667,115,273.0833333333333,115,275.5,115C277.9166666666667,115,280.3333333333333,115,282.75,115C285.1666666666667,115,287.5833333333333,115,290,115C292.4166666666667,115,294.8333333333333,115,297.25,115C299.6666666666667,115,302.0833333333333,115,304.5,115C306.9166666666667,115,309.3333333333333,115,311.75,115C314.1666666666667,115,316.5833333333333,115,319,115C321.4166666666667,115,323.8333333333333,115,326.25,115C328.6666666666667,115,331.0833333333333,115,333.5,115C335.9166666666667,115,338.3333333333333,115,340.75,115C343.1666666666667,115,345.5833333333333,115,348,115C350.4166666666667,115,352.8333333333333,115,355.25,115C357.6666666666667,115,360.0833333333333,115,362.5,115C364.9166666666667,115,367.3333333333333,115,369.75,115C372.1666666666667,115,374.5833333333333,115,377,115C379.4166666666667,115,381.8333333333333,115,384.25,115C386.6666666666667,115,389.0833333333333,115,391.5,115C393.9166666666667,115,396.33333333333337,115,398.75000000000006,115C401.16666666666674,115,403.58333333333337,115,406.00000000000006,115C408.4166666666667,115,410.8333333333333,115,413.24999999999994,115C415.66666666666663,115,418.08333333333326,115,420.49999999999994,115C422.91666666666663,115,425.3333333333333,115,427.75,115C430.1666666666667,115,432.5833333333333,115,435,115C437.4166666666667,115,439.8333333333333,115,442.25,115C444.6666666666667,115,447.0833333333333,115,449.5,115C451.9166666666667,115,454.3333333333333,115,456.75,115C459.1666666666667,115,461.5833333333333,115,464,115C466.4166666666667,115,468.8333333333333,115,471.25,115C473.6666666666667,115,476.0833333333333,115,478.5,115C480.9166666666667,115,483.33333333333337,115,485.75000000000006,115C488.16666666666674,115,490.58333333333337,115,493.00000000000006,115C495.4166666666667,115,497.8333333333333,115,500.24999999999994,115C502.66666666666663,115,505.08333333333326,115,507.49999999999994,115C509.91666666666663,115,512.3333333333333,115,514.75,115C517.1666666666666,115,519.5833333333334,115,522,115C524.4166666666666,115,526.8333333333334,115,529.25,115C531.6666666666666,115,534.0833333333334,115,536.5,115C538.9166666666666,115,541.3333333333334,115,543.75,115C546.1666666666666,115,548.5833333333334,115,551,115C553.4166666666666,115,555.8333333333334,115,558.25,115C560.6666666666666,115,563.0833333333334,115,565.5,115C567.9166666666666,115,570.3333333333334,115,572.75,115C575.1666666666666,115,577.5833333333334,115,580,115C582.4166666666666,115,584.8333333333334,115,587.25,115C589.6666666666666,115,592.0833333333334,115,594.5,115C596.9166666666666,115,599.3333333333334,115,601.75,115C604.1666666666666,115,606.5833333333334,115,609,115C611.4166666666666,115,613.8333333333334,115,616.25,115C618.6666666666666,115,621.0833333333334,115,623.5,115C625.9166666666666,115,628.3333333333334,115,630.75,115C633.1666666666666,115,635.5833333333334,115,638,115C640.4166666666666,115,642.8333333333334,115,645.25,115C647.6666666666666,115,650.0833333333334,115,652.5,115C654.9166666666666,115,657.3333333333334,115,659.75,115C662.1666666666666,115,664.5833333333334,115,667,115C669.4166666666666,115,671.8333333333334,115,674.25,115C676.6666666666666,115,679.0833333333334,115,681.5,115C683.9166666666666,115,686.3333333333334,115,688.75,115C691.1666666666666,115,693.5833333333334,115,696,115C698.4166666666666,115,700.8333333333334,115,703.25,115C705.6666666666666,115,708.0833333333334,115,710.5,115C712.9166666666666,115,715.3333333333334,115,717.75,115C720.1666666666666,115,722.5833333333334,115,725,115C727.4166666666666,115,729.8333333333334,115,732.25,115C734.6666666666666,115,737.0833333333334,115,739.5,115C741.9166666666666,115,744.3333333333334,115,746.75,115C749.1666666666666,115,751.5833333333334,115,754,115C756.4166666666666,115,758.8333333333334,115,761.25,115C763.6666666666666,115,766.0833333333334,115,768.5,115C770.9166666666666,115,773.3333333333334,115,775.75,115C778.1666666666666,115,780.5833333333334,115,783,115C785.4166666666667,115,787.8333333333334,115,790.2500000000001,115C792.6666666666667,115,795.0833333333335,115,797.5000000000001,115C799.9166666666667,115,802.3333333333335,115,804.7500000000001,115C807.1666666666667,115,809.5833333333335,115,812.0000000000001,115C814.4166666666667,115,816.8333333333333,115,819.2499999999999,115C821.6666666666665,115,824.0833333333333,115,826.4999999999999,115C828.9166666666665,115,831.3333333333333,115,833.7499999999999,115C836.1666666666665,115,838.5833333333333,115,840.9999999999999,115C843.4166666666666,115,845.8333333333333,115,848.25,115C850.6666666666666,115,853.0833333333334,115,855.5,115C857.9166666666666,115,860.3333333333334,115,862.75,115C865.1666666666666,115,867.5833333333334,115,870,115C872.4166666666666,115,874.8333333333334,115,877.25,115C879.6666666666666,115,882.0833333333334,115,884.5,115C886.9166666666666,115,889.3333333333334,115,891.75,115C894.1666666666666,115,896.5833333333334,115,899,115C901.4166666666666,115,903.8333333333334,115,906.25,115C908.6666666666666,115,911.0833333333334,115,913.5,115C915.9166666666666,115,918.3333333333334,115,920.75,115C923.1666666666666,115,925.5833333333334,115,928,115C930.4166666666666,115,932.8333333333334,115,935.25,115C937.6666666666666,115,940.0833333333334,115,942.5,115C944.9166666666666,115,947.3333333333334,115,949.75,115C952.1666666666666,115,954.5833333333334,115,957,115C959.4166666666666,115,961.8333333333334,115,964.25,115C966.6666666666667,115,969.0833333333334,115,971.5000000000001,115C973.9166666666667,115,976.3333333333335,115,978.7500000000001,115C981.1666666666667,115,983.5833333333335,115,986.0000000000001,115C988.4166666666667,115,990.8333333333335,115,993.2500000000001,115C995.6666666666667,115,998.0833333333333,115,1000.4999999999999,115C1002.9166666666665,115,1005.3333333333333,115,1007.7499999999999,115C1010.1666666666665,115,1012.5833333333333,115,1014.9999999999999,115C1017.4166666666665,115,1019.8333333333333,115,1022.2499999999999,115C1024.6666666666665,115,1027.0833333333333,115,1029.5,115C1031.9166666666667,115,1034.3333333333333,115,1036.75,115C1039.1666666666667,115,1041.5833333333333,115,1044,115C1046.4166666666667,115,1048.8333333333333,115,1051.25,115C1053.6666666666667,115,1056.0833333333333,115,1058.5,115C1060.9166666666667,115,1063.3333333333333,115,1065.75,115C1068.1666666666667,115,1070.5833333333333,115,1073,115C1075.4166666666667,115,1077.8333333333333,115,1080.25,115C1082.6666666666667,115,1085.0833333333333,115,1087.5,115C1089.9166666666667,115,1092.3333333333333,115,1094.75,115C1097.1666666666667,115,1099.5833333333333,115,1102,115C1104.4166666666667,115,1106.8333333333333,115,1109.25,115C1111.6666666666667,115,1114.0833333333333,115,1116.5,115C1118.9166666666667,115,1121.3333333333333,115,1123.75,115C1126.1666666666667,115,1128.5833333333333,115,1131,115C1133.4166666666667,115,1135.8333333333333,115,1138.25,115C1140.6666666666667,115,1143.0833333333333,115,1145.5,115C1147.9166666666667,115,1150.3333333333333,115,1152.75,115C1155.1666666666667,115,1157.5833333333333,115,1160,115C1162.4166666666667,115,1164.8333333333333,115,1167.25,115C1169.6666666666667,115,1172.0833333333333,115,1174.5,115C1176.9166666666667,115,1179.3333333333333,115,1181.75,115C1184.1666666666667,115,1186.5833333333333,115,1189,115C1191.4166666666667,115,1193.8333333333333,115,1196.25,115C1198.6666666666667,115,1201.0833333333333,115,1203.5,115C1205.9166666666667,115,1208.3333333333333,115,1210.75,115C1213.1666666666667,115,1215.5833333333333,115,1218,115C1220.4166666666667,115,1222.8333333333333,115,1225.25,115C1227.6666666666667,115,1230.0833333333333,115,1232.5,115C1234.9166666666667,115,1237.3333333333333,115,1239.75,115C1242.1666666666667,115,1244.5833333333333,115,1247,115C1249.4166666666667,115,1251.8333333333333,115,1254.25,115C1256.6666666666667,115,1259.0833333333333,115,1261.5,115C1263.9166666666667,115,1266.3333333333333,115,1268.75,115C1271.1666666666667,115,1273.5833333333333,115,1276,115C1278.4166666666667,115,1280.8333333333333,115,1283.25,115C1285.6666666666667,115,1288.0833333333333,115,1290.5,115C1292.9166666666667,115,1295.3333333333333,115,1297.75,115C1300.1666666666667,115,1302.5833333333333,115,1305,115C1307.4166666666667,115,1309.8333333333333,115,1312.25,115C1314.6666666666667,115,1317.0833333333333,115,1319.5,115C1321.9166666666667,115,1324.3333333333333,115,1326.75,115C1329.1666666666667,115,1331.5833333333333,115,1334,115C1336.4166666666667,115,1338.8333333333333,115,1341.25,115C1343.6666666666667,115,1346.0833333333333,115,1348.5,115C1350.9166666666667,115,1353.3333333333333,115,1355.75,115C1358.1666666666667,115,1360.5833333333333,115,1363,115C1365.4166666666667,115,1367.8333333333333,115,1370.25,115C1372.6666666666667,115,1375.0833333333333,115,1377.5,115C1379.9166666666667,115,1382.3333333333333,115,1384.75,115C1387.1666666666667,115,1389.5833333333333,115,1392,115C1394.4166666666667,115,1396.8333333333333,115,1399.25,115C1401.6666666666667,115,1404.0833333333333,115,1406.5,115C1408.9166666666667,115,1411.3333333333333,115,1413.75,115C1416.1666666666667,115,1418.5833333333333,115,1421,115C1423.4166666666667,115,1425.8333333333333,115,1428.25,115C1430.6666666666667,115,1433.0833333333333,115,1435.5,115C1437.9166666666667,115,1440.3333333333333,115,1442.75,115C1445.1666666666667,115,1447.5833333333333,115,1450,115" fill="transparent" stroke-linecap="round" stroke="#E7C6DF" stroke-width="2"></path><g class="visx-group visx-axis visx-axis-bottom" transform="translate(0, 115)"><g class="visx-group visx-axis-tick" transform="translate(0, 0)"><line class="visx-line" x1="0" y1="0" x2="0" y2="8" fill="transparent" shape-rendering="crispEdges" stroke="#000" stroke-width="0" stroke-linecap="square"></line><svg x="0" y="0" font-size="10" style="overflow:visible"><text transform="" x="0" y="18" fill="#000" font-size="10" text-anchor="middle"><tspan x="0" dy="0em">0%</tspan></text></svg></g><g class="visx-group visx-axis-tick" transform="translate(0, 0)"><line class="visx-line" x1="362.5" y1="0" x2="362.5" y2="8" fill="transparent" shape-rendering="crispEdges" stroke="#000" stroke-width="0" stroke-linecap="square"></line><svg x="0" y="0" font-size="10" style="overflow:visible"><text transform="" x="362.5" y="18" fill="#000" font-size="10" text-anchor="middle"><tspan x="362.5" dy="0em">25%</tspan></text></svg></g><g class="visx-group visx-axis-tick" transform="translate(0, 0)"><line class="visx-line" x1="725" y1="0" x2="725" y2="8" fill="transparent" shape-rendering="crispEdges" stroke="#000" stroke-width="0" stroke-linecap="square"></line><svg x="0" y="0" font-size="10" style="overflow:visible"><text transform="" x="725" y="18" fill="#000" font-size="10" text-anchor="middle"><tspan x="725" dy="0em">50%</tspan></text></svg></g><g class="visx-group visx-axis-tick" transform="translate(0, 0)"><line class="visx-line" x1="1087.5" y1="0" x2="1087.5" y2="8" fill="transparent" shape-rendering="crispEdges" stroke="#000" stroke-width="0" stroke-linecap="square"></line><svg x="0" y="0" font-size="10" style="overflow:visible"><text transform="" x="1087.5" y="18" fill="#000" font-size="10" text-anchor="middle"><tspan x="1087.5" dy="0em">75%</tspan></text></svg></g><g class="visx-group visx-axis-tick" transform="translate(0, 0)"><line class="visx-line" x1="1450" y1="0" x2="1450" y2="8" fill="transparent" shape-rendering="crispEdges" stroke="#000" stroke-width="0" stroke-linecap="square"></line><svg x="0" y="0" font-size="10" style="overflow:visible"><text transform="" x="1450" y="18" fill="#000" font-size="10" text-anchor="middle"><tspan x="1450" dy="0em">100%</tspan></text></svg></g><line class="visx-line visx-axis-line" x1="0.5" y1="0" x2="1450.5" y2="0" fill="transparent" shape-rendering="crispEdges" stroke="#222" stroke-width="0"></line></g><g class="visx-group visx-axis visx-axis-left" transform="translate(0, 0)"><g class="visx-group visx-axis-tick" transform="translate(0, 0)"><line class="visx-line" x1="0" y1="115" x2="-8" y2="115" fill="transparent" shape-rendering="crispEdges" stroke="#222" stroke-width="0" stroke-linecap="square"></line><svg x="-30" y="0" font-size="8" style="overflow:visible"><text transform="" x="-8" y="115" fill="#000" font-size="8" text-anchor="start"><tspan x="-8" dy="0em">0%</tspan></text></svg></g><g class="visx-group visx-axis-tick" transform="translate(0, 0)"><line class="visx-line" x1="0" y1="73.92857142857142" x2="-8" y2="73.92857142857142" fill="transparent" shape-rendering="crispEdges" stroke="#222" stroke-width="0" stroke-linecap="square"></line><svg x="-30" y="0" font-size="8" style="overflow:visible"><text transform="" x="-8" y="73.92857142857142" fill="#000" font-size="8" text-anchor="start"><tspan x="-8" dy="0em">1%</tspan></text></svg></g><g class="visx-group visx-axis-tick" transform="translate(0, 0)"><line class="visx-line" x1="0" y1="32.857142857142854" x2="-8" y2="32.857142857142854" fill="transparent" shape-rendering="crispEdges" stroke="#222" stroke-width="0" stroke-linecap="square"></line><svg x="-30" y="0" font-size="8" style="overflow:visible"><text transform="" x="-8" y="32.857142857142854" fill="#000" font-size="8" text-anchor="start"><tspan x="-8" dy="0em">2%</tspan></text></svg></g><line class="visx-line visx-axis-line" x1="0" y1="115.5" x2="0" y2="0.5" fill="transparent" shape-rendering="crispEdges" stroke="#222" stroke-width="0"></line></g><rect class="visx-bar" width="1450" height="115" fill="transparent"></rect><line class="visx-line" x1="0" y1="28" x2="0" y2="115" fill="transparent" shape-rendering="crispEdges" stroke="#0062D2" stroke-width="1" pointer-events="none" stroke-dasharray="5,2"></line><svg x="0" y="0" font-size="10px" style="overflow:visible"><text transform="" x="0" y="20" font-size="10px" fill="#fff" stroke="#fff" stroke-width="0.8em" text-anchor="middle"><tspan x="0" dy="0.355em">Optimal 0%</tspan></text></svg><svg x="0" y="0" font-size="10px" style="overflow:visible"><text transform="" x="0" y="20" font-size="10px" fill="#62677B" text-anchor="middle"><tspan x="0" dy="0.355em">Optimal 0%</tspan></text></svg></g></svg>