<?xml version="1.0"?><svg xmlns="http://www.w3.org/2000/svg" xmlns:xlink= "http://www.w3.org/1999/xlink" style="background: white;" width="1500" height="185"> <g style="color: black; font-size: 13px; font-family: sans-serif; transform: translate(18px, 25px);"><g><circle r="3" cx="-6" cy="-5" style="fill: #B6509E" /><text>Borrow APR, variable</text></g><g style="transform: translateX(150px);"><circle r="3" cx="-6" cy="-5" style="fill: rgb(231, 198, 223)" /><text>Borrow APR, stable</text></g><g style="transform: translateX(290px);"><circle r="3" cx="-6" cy="-5" style="fill: rgb(0, 98, 210)" /><text>Utilization Rate</text></g></g><g class="visx-group" transform="translate(40, 50)"><g class="visx-group visx-rows" transform="translate(0, 0)"><line class="visx-line" x1="0" y1="115" x2="1450" y2="115" fill="transparent" shape-rendering="crispEdges" stroke="#000" stroke-width="1" stroke-dasharray="3,3" pointer-events="none"></line><line class="visx-line" x1="0" y1="62.72727272727272" x2="1450" y2="62.72727272727272" fill="transparent" shape-rendering="crispEdges" stroke="#000" stroke-width="1" stroke-dasharray="3,3" pointer-events="none"></line><line class="visx-line" x1="0" y1="10.454545454545459" x2="1450" y2="10.454545454545459" fill="transparent" shape-rendering="crispEdges" stroke="#000" stroke-width="1" stroke-dasharray="3,3" pointer-events="none"></line></g><path class="visx-linepath" d="M0,114.73863636353182C2.4166666666666665,114.72121212115114,4.833333333333334,114.70378787877046,7.25,114.68636363636364C9.666666666666666,114.66893939395682,12.083333333333334,114.65151515151516,14.5,114.63409090909092C16.916666666666668,114.61666666666667,19.333333333333332,114.59924242424242,21.75,114.58181818181818C24.166666666666668,114.56439393939394,26.583333333333332,114.54696969696968,29,114.52954545454544C31.416666666666668,114.5121212121212,33.833333333333336,114.49469696969697,36.25,114.47727272727273C38.666666666666664,114.4598484848485,41.083333333333336,114.44242424242424,43.5,114.425C45.91666666666667,114.40757575757576,48.333333333333336,114.39015151515152,50.75000000000001,114.37272727272727C53.16666666666667,114.35530303030303,55.583333333333336,114.3378787878788,58,114.32045454545455C60.416666666666664,114.30303030303031,62.833333333333336,114.28560606060606,65.25,114.26818181818182C67.66666666666667,114.25075757575758,70.08333333333333,114.23333333333333,72.5,114.2159090909091C74.91666666666667,114.19848484848485,77.33333333333333,114.1810606060606,79.75,114.16363636363636C82.16666666666667,114.14621212121212,84.58333333333333,114.12878787878788,87,114.11136363636363C89.41666666666667,114.0939393939394,91.83333333333333,114.07651515151515,94.25,114.05909090909091C96.66666666666667,114.04166666666667,99.08333333333334,114.02424242424242,101.50000000000001,114.00681818181818C103.91666666666667,113.98939393939393,106.33333333333334,113.97196969696971,108.75,113.95454545454547C111.16666666666667,113.93712121212123,113.58333333333333,113.91969696969697,116,113.90227272727273C118.41666666666667,113.88484848484849,120.83333333333334,113.86742424242424,123.25000000000001,113.85C125.66666666666667,113.83257575757575,128.08333333333334,113.81515151515151,130.5,113.79772727272727C132.91666666666666,113.78030303030303,135.33333333333334,113.76287878787879,137.75,113.74545454545455C140.16666666666666,113.72803030303031,142.58333333333334,113.71060606060605,145,113.69318181818181C147.41666666666666,113.67575757575757,149.83333333333334,113.65833333333333,152.25,113.64090909090909C154.66666666666666,113.62348484848485,157.08333333333334,113.6060606060606,159.5,113.58863636363635C161.91666666666666,113.57121212121211,164.33333333333334,113.55378787878789,166.75,113.53636363636365C169.16666666666666,113.5189393939394,171.58333333333334,113.50151515151515,174,113.48409090909091C176.41666666666666,113.46666666666667,178.83333333333334,113.44924242424241,181.25,113.43181818181817C183.66666666666666,113.41439393939393,186.08333333333334,113.3969696969697,188.5,113.37954545454546C190.91666666666666,113.36212121212122,193.33333333333334,113.34469696969697,195.75,113.32727272727273C198.16666666666669,113.30984848484849,200.58333333333334,113.29242424242423,203.00000000000003,113.27499999999999C205.41666666666669,113.25757575757575,207.83333333333331,113.24015151515151,210.24999999999997,113.22272727272727C212.66666666666666,113.20530303030303,215.08333333333331,113.18787878787879,217.5,113.17045454545455C219.91666666666666,113.1530303030303,222.33333333333334,113.13560606060607,224.75,113.11818181818182C227.16666666666666,113.10075757575758,229.58333333333334,113.08333333333333,232,113.06590909090909C234.41666666666666,113.04848484848485,236.83333333333334,113.03106060606059,239.25,113.01363636363635C241.66666666666669,112.99621212121211,244.08333333333334,112.97878787878788,246.50000000000003,112.96136363636364C248.91666666666669,112.9439393939394,251.33333333333331,112.92651515151515,253.74999999999997,112.9090909090909C256.16666666666663,112.89166666666667,258.5833333333333,112.87424242424242,261,112.85681818181818C263.4166666666667,112.83939393939394,265.8333333333333,112.8219696969697,268.25,112.80454545454546C270.6666666666667,112.78712121212122,273.0833333333333,112.76969696969697,275.5,112.75227272727273C277.9166666666667,112.73484848484848,280.3333333333333,112.71742424242424,282.75,112.7C285.1666666666667,112.68257575757576,287.5833333333333,112.6651515151515,290,112.64772727272727C292.4166666666667,112.63030303030303,294.8333333333333,112.61287878787878,297.25,112.59545454545454C299.6666666666667,112.5780303030303,302.0833333333333,112.56060606060606,304.5,112.54318181818182C306.9166666666667,112.52575757575758,309.3333333333333,112.50833333333333,311.75,112.49090909090908C314.1666666666667,112.47348484848484,316.5833333333333,112.4560606060606,319,112.43863636363636C321.4166666666667,112.42121212121212,323.8333333333333,112.40378787878788,326.25,112.38636363636364C328.6666666666667,112.3689393939394,331.0833333333333,112.35151515151514,333.5,112.3340909090909C335.9166666666667,112.31666666666666,338.3333333333333,112.29924242424242,340.75,112.28181818181818C343.1666666666667,112.26439393939394,345.5833333333333,112.2469696969697,348,112.22954545454546C350.4166666666667,112.21212121212122,352.8333333333333,112.19469696969696,355.25,112.17727272727272C357.6666666666667,112.15984848484848,360.0833333333333,112.14242424242424,362.5,112.125C364.9166666666667,112.10757575757576,367.3333333333333,112.0901515151515,369.75,112.07272727272726C372.1666666666667,112.05530303030302,374.5833333333333,112.0378787878788,377,112.02045454545456C379.4166666666667,112.00303030303031,381.8333333333333,111.98560606060606,384.25,111.96818181818182C386.6666666666667,111.95075757575758,389.0833333333333,111.93333333333332,391.5,111.91590909090908C393.9166666666667,111.89848484848484,396.33333333333337,111.88106060606061,398.75000000000006,111.86363636363637C401.16666666666674,111.84621212121213,403.58333333333337,111.82878787878788,406.00000000000006,111.81136363636364C408.4166666666667,111.7939393939394,410.8333333333333,111.77651515151514,413.24999999999994,111.7590909090909C415.66666666666663,111.74166666666666,418.08333333333326,111.72424242424242,420.49999999999994,111.70681818181818C422.91666666666663,111.68939393939394,425.3333333333333,111.6719696969697,427.75,111.65454545454546C430.1666666666667,111.63712121212122,432.5833333333333,111.61969696969697,435,111.60227272727273C437.4166666666667,111.5848484848485,439.8333333333333,111.56742424242424,442.25,111.55C444.6666666666667,111.53257575757576,447.0833333333333,111.5151515151515,449.5,111.49772727272726C451.9166666666667,111.48030303030302,454.3333333333333,111.4628787878788,456.75,111.44545454545455C459.1666666666667,111.42803030303031,461.5833333333333,111.41060606060606,464,111.39318181818182C466.4166666666667,111.37575757575758,468.8333333333333,111.35833333333333,471.25,111.3409090909091C473.6666666666667,111.32348484848485,476.0833333333333,111.30606060606061,478.5,111.28863636363637C480.9166666666667,111.27121212121213,483.33333333333337,111.25378787878788,485.75000000000006,111.23636363636363C488.16666666666674,111.2189393939394,490.58333333333337,111.20151515151515,493.00000000000006,111.18409090909091C495.4166666666667,111.16666666666667,497.8333333333333,111.14924242424242,500.24999999999994,111.13181818181818C502.66666666666663,111.11439393939393,505.08333333333326,111.0969696969697,507.49999999999994,111.07954545454545C509.91666666666663,111.06212121212121,512.3333333333333,111.04469696969697,514.75,111.02727272727273C517.1666666666666,111.00984848484849,519.5833333333334,110.99242424242424,522,110.975C524.4166666666666,110.95757575757575,526.8333333333334,110.94015151515151,529.25,110.92272727272727C531.6666666666666,110.90530303030303,534.0833333333334,110.88787878787879,536.5,110.87045454545455C538.9166666666666,110.85303030303031,541.3333333333334,110.83560606060605,543.75,110.81818181818181C546.1666666666666,110.80075757575757,548.5833333333334,110.78333333333333,551,110.76590909090909C553.4166666666666,110.74848484848485,555.8333333333334,110.73106060606061,558.25,110.71363636363637C560.6666666666666,110.69621212121213,563.0833333333334,110.67878787878787,565.5,110.66136363636363C567.9166666666666,110.64393939393939,570.3333333333334,110.62651515151515,572.75,110.60909090909091C575.1666666666666,110.59166666666667,577.5833333333334,110.57424242424243,580,110.55681818181819C582.4166666666666,110.53939393939395,584.8333333333334,110.52196969696969,587.25,110.50454545454545C589.6666666666666,110.48712121212121,592.0833333333334,110.46969696969697,594.5,110.45227272727273C596.9166666666666,110.43484848484849,599.3333333333334,110.41742424242423,601.75,110.39999999999999C604.1666666666666,110.38257575757575,606.5833333333334,110.36515151515152,609,110.34772727272728C611.4166666666666,110.33030303030304,613.8333333333334,110.31287878787879,616.25,110.29545454545455C618.6666666666666,110.2780303030303,621.0833333333334,110.26060606060605,623.5,110.24318181818181C625.9166666666666,110.22575757575757,628.3333333333334,110.20833333333333,630.75,110.19090909090909C633.1666666666666,110.17348484848485,635.5833333333334,110.1560606060606,638,110.13863636363637C640.4166666666666,110.12121212121212,642.8333333333334,110.10378787878788,645.25,110.08636363636364C647.6666666666666,110.0689393939394,650.0833333333334,110.0689393939394,652.5,110.0340909090909C654.9166666666666,109.99924242424241,657.3333333333334,109.52720385674931,659.75,109.27376033057851C662.1666666666666,109.02031680440771,664.5833333333334,108.76687327823691,667,108.51342975206612C669.4166666666666,108.25998622589532,671.8333333333334,108.00654269972452,674.25,107.75309917355372C676.6666666666666,107.49965564738292,679.0833333333334,107.24621212121212,681.5,106.99276859504133C683.9166666666666,106.73932506887053,686.3333333333334,106.48588154269972,688.75,106.23243801652892C691.1666666666666,105.97899449035812,693.5833333333334,105.72555096418733,696,105.47210743801654C698.4166666666666,105.21866391184574,700.8333333333334,104.96522038567494,703.25,104.71177685950414C705.6666666666666,104.45833333333334,708.0833333333334,104.20488980716253,710.5,103.95144628099173C712.9166666666666,103.69800275482093,715.3333333333334,103.44455922865014,717.75,103.19111570247934C720.1666666666666,102.93767217630854,722.5833333333334,102.68422865013774,725,102.43078512396694C727.4166666666666,102.17734159779614,729.8333333333334,101.92389807162533,732.25,101.67045454545453C734.6666666666666,101.41701101928373,737.0833333333334,101.16356749311295,739.5,100.91012396694215C741.9166666666666,100.65668044077135,744.3333333333334,100.40323691460055,746.75,100.14979338842976C749.1666666666666,99.89634986225896,751.5833333333334,99.64290633608815,754,99.38946280991735C756.4166666666666,99.13601928374655,758.8333333333334,98.88257575757575,761.25,98.62913223140495C763.6666666666666,98.37568870523415,766.0833333333334,98.12224517906337,768.5,97.86880165289257C770.9166666666666,97.61535812672177,773.3333333333334,97.36191460055096,775.75,97.10847107438016C778.1666666666666,96.85502754820936,780.5833333333334,96.60158402203857,783,96.34814049586777C785.4166666666667,96.09469696969697,787.8333333333334,95.84125344352617,790.2500000000001,95.58780991735537C792.6666666666667,95.33436639118457,795.0833333333335,95.08092286501378,797.5000000000001,94.82747933884298C799.9166666666667,94.57403581267218,802.3333333333335,94.32059228650137,804.7500000000001,94.06714876033057C807.1666666666667,93.81370523415977,809.5833333333335,93.56026170798899,812.0000000000001,93.30681818181819C814.4166666666667,93.05337465564739,816.8333333333333,92.79993112947659,819.2499999999999,92.54648760330579C821.6666666666665,92.293044077135,824.0833333333333,92.03960055096418,826.4999999999999,91.78615702479338C828.9166666666665,91.53271349862258,831.3333333333333,91.2792699724518,833.7499999999999,91.025826446281C836.1666666666665,90.7723829201102,838.5833333333333,90.5189393939394,840.9999999999999,90.2654958677686C843.4166666666666,90.01205234159781,845.8333333333333,89.758608815427,848.25,89.5051652892562C850.6666666666666,89.2517217630854,853.0833333333334,88.9982782369146,855.5,88.7448347107438C857.9166666666666,88.491391184573,860.3333333333334,88.2379476584022,862.75,87.98450413223141C865.1666666666666,87.73106060606061,867.5833333333334,87.4776170798898,870,87.224173553719C872.4166666666666,86.9707300275482,874.8333333333334,86.7172865013774,877.25,86.4638429752066C879.6666666666666,86.2103994490358,882.0833333333334,85.95695592286502,884.5,85.70351239669422C886.9166666666666,85.45006887052342,889.3333333333334,85.19662534435261,891.75,84.94318181818181C894.1666666666666,84.68973829201101,896.5833333333334,84.43629476584022,899,84.18285123966942C901.4166666666666,83.92940771349862,903.8333333333334,83.67596418732782,906.25,83.42252066115702C908.6666666666666,83.16907713498622,911.0833333333334,82.91563360881543,913.5,82.66219008264463C915.9166666666666,82.40874655647383,918.3333333333334,82.15530303030303,920.75,81.90185950413223C923.1666666666666,81.64841597796143,925.5833333333334,81.39497245179064,928,81.14152892561984C930.4166666666666,80.88808539944904,932.8333333333334,80.63464187327824,935.25,80.38119834710744C937.6666666666666,80.12775482093664,940.0833333333334,79.87431129476583,942.5,79.62086776859503C944.9166666666666,79.36742424242424,947.3333333333334,79.11398071625344,949.75,78.86053719008264C952.1666666666666,78.60709366391184,954.5833333333334,78.35365013774104,957,78.10020661157024C959.4166666666666,77.84676308539945,961.8333333333334,77.59331955922865,964.25,77.33987603305785C966.6666666666667,77.08643250688705,969.0833333333334,76.83298898071625,971.5000000000001,76.57954545454545C973.9166666666667,76.32610192837465,976.3333333333335,76.07265840220387,978.7500000000001,75.81921487603307C981.1666666666667,75.56577134986227,983.5833333333335,75.31232782369146,986.0000000000001,75.05888429752066C988.4166666666667,74.80544077134986,990.8333333333335,74.55199724517907,993.2500000000001,74.29855371900827C995.6666666666667,74.04511019283747,998.0833333333333,73.79166666666667,1000.4999999999999,73.53822314049587C1002.9166666666665,73.28477961432507,1005.3333333333333,73.03133608815426,1007.7499999999999,72.77789256198346C1010.1666666666665,72.52444903581267,1012.5833333333333,72.27100550964187,1014.9999999999999,72.01756198347107C1017.4166666666665,71.76411845730027,1019.8333333333333,71.51067493112949,1022.2499999999999,71.25723140495869C1024.6666666666665,71.00378787878789,1027.0833333333333,70.75034435261708,1029.5,70.49690082644628C1031.9166666666667,70.24345730027548,1034.3333333333333,69.99001377410468,1036.75,69.73657024793388C1039.1666666666667,69.48312672176309,1041.5833333333333,69.22968319559229,1044,68.97623966942149C1046.4166666666667,68.72279614325069,1048.8333333333333,68.46935261707989,1051.25,68.2159090909091C1053.6666666666667,67.9624655647383,1056.0833333333333,67.7090220385675,1058.5,67.4555785123967C1060.9166666666667,67.2021349862259,1063.3333333333333,66.9486914600551,1065.75,66.6952479338843C1068.1666666666667,66.4418044077135,1070.5833333333333,66.1883608815427,1073,65.93491735537191C1075.4166666666667,65.68147382920111,1077.8333333333333,65.4280303030303,1080.25,65.1745867768595C1082.6666666666667,64.9211432506887,1085.0833333333333,64.6676997245179,1087.5,64.4142561983471C1089.9166666666667,64.1608126721763,1092.3333333333333,63.9073691460055,1094.75,63.6539256198347C1097.1666666666667,63.4004820936639,1099.5833333333333,63.147038567493105,1102,62.89359504132231C1104.4166666666667,62.64015151515151,1106.8333333333333,62.38670798898072,1109.25,62.13326446280992C1111.6666666666667,61.87982093663912,1114.0833333333333,61.626377410468315,1116.5,61.37293388429752C1118.9166666666667,61.11949035812672,1121.3333333333333,60.86604683195593,1123.75,60.61260330578513C1126.1666666666667,60.35915977961433,1128.5833333333333,60.10571625344353,1131,59.852272727272734C1133.4166666666667,59.598829201101935,1135.8333333333333,59.34538567493113,1138.25,59.09194214876033C1140.6666666666667,58.83849862258953,1143.0833333333333,58.585055096418735,1145.5,58.33161157024794C1147.9166666666667,58.07816804407714,1150.3333333333333,57.82472451790633,1152.75,57.571280991735534C1155.1666666666667,57.317837465564736,1157.5833333333333,57.06439393939394,1160,56.81095041322314C1162.4166666666667,56.55750688705234,1164.8333333333333,56.30406336088155,1167.25,56.05061983471075C1169.6666666666667,55.79717630853995,1172.0833333333333,55.54373278236915,1174.5,55.29028925619835C1176.9166666666667,55.03684573002755,1179.3333333333333,54.78340220385675,1181.75,54.529958677685954C1184.1666666666667,54.276515151515156,1186.5833333333333,54.02307162534435,1189,53.76962809917355C1191.4166666666667,53.516184573002754,1193.8333333333333,53.26274104683196,1196.25,53.009297520661164C1198.6666666666667,52.755853994490366,1201.0833333333333,52.50241046831957,1203.5,52.24896694214877C1205.9166666666667,51.99552341597797,1208.3333333333333,51.74207988980715,1210.75,51.48863636363635C1213.1666666666667,51.235192837465554,1215.5833333333333,50.98174931129476,1218,50.728305785123965C1220.4166666666667,50.474862258953166,1222.8333333333333,50.22141873278237,1225.25,49.96797520661157C1227.6666666666667,49.71453168044077,1230.0833333333333,49.46108815426998,1232.5,49.20764462809918C1234.9166666666667,48.95420110192838,1237.3333333333333,48.70075757575758,1239.75,48.44731404958678C1242.1666666666667,48.19387052341598,1244.5833333333333,47.94042699724517,1247,47.68698347107437C1249.4166666666667,47.43353994490357,1251.8333333333333,47.18009641873278,1254.25,46.92665289256198C1256.6666666666667,46.673209366391184,1259.0833333333333,46.419765840220386,1261.5,46.16632231404959C1263.9166666666667,45.91287878787879,1266.3333333333333,45.659435261708,1268.75,45.4059917355372C1271.1666666666667,45.1525482093664,1273.5833333333333,44.89910468319558,1276,44.64566115702478C1278.4166666666667,44.392217630853985,1280.8333333333333,44.1387741046832,1283.25,43.8853305785124C1285.6666666666667,43.631887052341604,1288.0833333333333,43.3784435261708,1290.5,43.125C1292.9166666666667,42.8715564738292,1295.3333333333333,42.618112947658396,1297.75,42.3646694214876C1300.1666666666667,42.1112258953168,1302.5833333333333,41.857782369146015,1305,41.60433884297522C1307.4166666666667,41.35089531680442,1309.8333333333333,41.0974517906336,1312.25,40.8440082644628C1314.6666666666667,40.590564738292,1317.0833333333333,40.33712121212121,1319.5,40.08367768595041C1321.9166666666667,39.830234159779614,1324.3333333333333,39.576790633608816,1326.75,39.32334710743802C1329.1666666666667,39.06990358126722,1331.5833333333333,38.81646005509643,1334,38.56301652892563C1336.4166666666667,38.30957300275483,1338.8333333333333,38.05612947658402,1341.25,37.80268595041322C1343.6666666666667,37.54924242424242,1346.0833333333333,37.29579889807162,1348.5,37.04235537190082C1350.9166666666667,36.78891184573002,1353.3333333333333,36.53546831955923,1355.75,36.28202479338843C1358.1666666666667,36.02858126721763,1360.5833333333333,35.77513774104682,1363,35.52169421487602C1365.4166666666667,35.26825068870522,1367.8333333333333,35.01480716253443,1370.25,34.76136363636363C1372.6666666666667,34.507920110192835,1375.0833333333333,34.25447658402203,1377.5,34.00103305785123C1379.9166666666667,33.74758953168043,1382.3333333333333,33.49414600550965,1384.75,33.24070247933885C1387.1666666666667,32.98725895316805,1389.5833333333333,32.73381542699723,1392,32.480371900826434C1394.4166666666667,32.226928374655635,1396.8333333333333,31.973484848484848,1399.25,31.72004132231405C1401.6666666666667,31.46659779614325,1404.0833333333333,31.21315426997245,1406.5,30.95971074380165C1408.9166666666667,30.706267217630852,1411.3333333333333,30.45282369146006,1413.75,30.199380165289263C1416.1666666666667,29.945936639118464,1418.5833333333333,29.69249311294765,1421,29.43904958677685C1423.4166666666667,29.18560606060605,1425.8333333333333,28.932162534435264,1428.25,28.678719008264466C1430.6666666666667,28.425275482093667,1433.0833333333333,28.171831955922865,1435.5,27.918388429752067C1437.9166666666667,27.66494490358127,1440.3333333333333,27.41150137741048,1442.75,27.15805785123968C1445.1666666666667,26.904614325068877,1447.5833333333333,26.65117079889807,1450,26.397727272727266" fill="transparent" stroke-linecap="round" stroke="#B6509E" stroke-width="2"></path><path class="visx-linepath" d="M0,107.15909090899798C2.4166666666666665,107.14360269354849,4.833333333333334,107.128114478099,7.25,107.11262626262626C9.666666666666666,107.09713804715354,12.083333333333334,107.08164983164984,14.5,107.06616161616162C16.916666666666668,107.0506734006734,19.333333333333332,107.0351851851852,21.75,107.01969696969698C24.166666666666668,107.00420875420876,26.583333333333332,106.98872053872054,29,106.97323232323232C31.416666666666668,106.9577441077441,33.833333333333336,106.9422558922559,36.25,106.92676767676768C38.666666666666664,106.91127946127946,41.083333333333336,106.89579124579126,43.5,106.88030303030304C45.91666666666667,106.86481481481482,48.333333333333336,106.8493265993266,50.75000000000001,106.83383838383838C53.16666666666667,106.81835016835016,55.583333333333336,106.80286195286196,58,106.78737373737374C60.416666666666664,106.77188552188552,62.833333333333336,106.75639730639732,65.25,106.7409090909091C67.66666666666667,106.72542087542088,70.08333333333333,106.70993265993266,72.5,106.69444444444444C74.91666666666667,106.67895622895622,77.33333333333333,106.66346801346802,79.75,106.6479797979798C82.16666666666667,106.63249158249158,84.58333333333333,106.61700336700338,87,106.60151515151516C89.41666666666667,106.58602693602694,91.83333333333333,106.57053872053872,94.25,106.5550505050505C96.66666666666667,106.53956228956228,99.08333333333334,106.52407407407408,101.50000000000001,106.50858585858586C103.91666666666667,106.49309764309764,106.33333333333334,106.47760942760944,108.75,106.46212121212122C111.16666666666667,106.446632996633,113.58333333333333,106.43114478114478,116,106.41565656565656C118.41666666666667,106.40016835016834,120.83333333333334,106.38468013468014,123.25000000000001,106.36919191919192C125.66666666666667,106.3537037037037,128.08333333333334,106.3382154882155,130.5,106.32272727272728C132.91666666666666,106.30723905723906,135.33333333333334,106.29175084175084,137.75,106.27626262626262C140.16666666666666,106.2607744107744,142.58333333333334,106.2452861952862,145,106.22979797979798C147.41666666666666,106.21430976430976,149.83333333333334,106.19882154882156,152.25,106.18333333333334C154.66666666666666,106.16784511784512,157.08333333333334,106.1523569023569,159.5,106.13686868686868C161.91666666666666,106.12138047138046,164.33333333333334,106.10589225589226,166.75,106.09040404040404C169.16666666666666,106.07491582491582,171.58333333333334,106.05942760942762,174,106.0439393939394C176.41666666666666,106.02845117845118,178.83333333333334,106.01296296296296,181.25,105.99747474747474C183.66666666666666,105.98198653198652,186.08333333333334,105.96649831649832,188.5,105.9510101010101C190.91666666666666,105.93552188552188,193.33333333333334,105.92003367003367,195.75,105.90454545454546C198.16666666666669,105.88905723905724,200.58333333333334,105.87356902356902,203.00000000000003,105.8580808080808C205.41666666666669,105.84259259259258,207.83333333333331,105.82710437710438,210.24999999999997,105.81161616161616C212.66666666666666,105.79612794612794,215.08333333333331,105.78063973063973,217.5,105.76515151515152C219.91666666666666,105.7496632996633,222.33333333333334,105.73417508417508,224.75,105.71868686868686C227.16666666666666,105.70319865319864,229.58333333333334,105.68771043771044,232,105.67222222222222C234.41666666666666,105.656734006734,236.83333333333334,105.6412457912458,239.25,105.62575757575758C241.66666666666669,105.61026936026936,244.08333333333334,105.59478114478115,246.50000000000003,105.57929292929293C248.91666666666669,105.56380471380471,251.33333333333331,105.5483164983165,253.74999999999997,105.53282828282828C256.16666666666663,105.51734006734006,258.5833333333333,105.50185185185185,261,105.48636363636363C263.4166666666667,105.47087542087542,265.8333333333333,105.45538720538721,268.25,105.43989898989899C270.6666666666667,105.42441077441077,273.0833333333333,105.40892255892255,275.5,105.39343434343434C277.9166666666667,105.37794612794612,280.3333333333333,105.36245791245791,282.75,105.3469696969697C285.1666666666667,105.33148148148148,287.5833333333333,105.31599326599327,290,105.30050505050505C292.4166666666667,105.28501683501683,294.8333333333333,105.26952861952861,297.25,105.2540404040404C299.6666666666667,105.23855218855218,302.0833333333333,105.22306397306397,304.5,105.20757575757575C306.9166666666667,105.19208754208753,309.3333333333333,105.17659932659933,311.75,105.16111111111111C314.1666666666667,105.14562289562289,316.5833333333333,105.13013468013467,319,105.11464646464646C321.4166666666667,105.09915824915824,323.8333333333333,105.08367003367003,326.25,105.06818181818181C328.6666666666667,105.0526936026936,331.0833333333333,105.03720538720539,333.5,105.02171717171717C335.9166666666667,105.00622895622895,338.3333333333333,104.99074074074075,340.75,104.97525252525253C343.1666666666667,104.95976430976431,345.5833333333333,104.94427609427609,348,104.92878787878787C350.4166666666667,104.91329966329965,352.8333333333333,104.89781144781145,355.25,104.88232323232323C357.6666666666667,104.86683501683501,360.0833333333333,104.85134680134679,362.5,104.83585858585857C364.9166666666667,104.82037037037036,367.3333333333333,104.80488215488216,369.75,104.78939393939395C372.1666666666667,104.77390572390573,374.5833333333333,104.75841750841752,377,104.7429292929293C379.4166666666667,104.72744107744109,381.8333333333333,104.71195286195287,384.25,104.69646464646465C386.6666666666667,104.68097643097643,389.0833333333333,104.66548821548822,391.5,104.65C393.9166666666667,104.63451178451179,396.33333333333337,104.61902356902358,398.75000000000006,104.60353535353536C401.16666666666674,104.58804713804714,403.58333333333337,104.57255892255893,406.00000000000006,104.55707070707071C408.4166666666667,104.54158249158249,410.8333333333333,104.52609427609428,413.24999999999994,104.51060606060607C415.66666666666663,104.49511784511785,418.08333333333326,104.47962962962964,420.49999999999994,104.46414141414142C422.91666666666663,104.4486531986532,425.3333333333333,104.43316498316499,427.75,104.41767676767677C430.1666666666667,104.40218855218855,432.5833333333333,104.38670033670034,435,104.37121212121212C437.4166666666667,104.3557239057239,439.8333333333333,104.3402356902357,442.25,104.32474747474748C444.6666666666667,104.30925925925926,447.0833333333333,104.29377104377105,449.5,104.27828282828283C451.9166666666667,104.26279461279461,454.3333333333333,104.2473063973064,456.75,104.23181818181818C459.1666666666667,104.21632996632997,461.5833333333333,104.20084175084176,464,104.18535353535354C466.4166666666667,104.16986531986532,468.8333333333333,104.1543771043771,471.25,104.13888888888889C473.6666666666667,104.12340067340067,476.0833333333333,104.10791245791246,478.5,104.09242424242424C480.9166666666667,104.07693602693602,483.33333333333337,104.06144781144782,485.75000000000006,104.0459595959596C488.16666666666674,104.03047138047138,490.58333333333337,104.01498316498316,493.00000000000006,103.99949494949495C495.4166666666667,103.98400673400673,497.8333333333333,103.96851851851852,500.24999999999994,103.9530303030303C502.66666666666663,103.93754208754208,505.08333333333326,103.92205387205388,507.49999999999994,103.90656565656566C509.91666666666663,103.89107744107744,512.3333333333333,103.87558922558922,514.75,103.860101010101C517.1666666666666,103.84461279461279,519.5833333333334,103.82912457912458,522,103.81363636363636C524.4166666666666,103.79814814814814,526.8333333333334,103.78265993265994,529.25,103.76717171717172C531.6666666666666,103.7516835016835,534.0833333333334,103.73619528619528,536.5,103.72070707070706C538.9166666666666,103.70521885521885,541.3333333333334,103.68973063973064,543.75,103.67424242424242C546.1666666666666,103.6587542087542,548.5833333333334,103.643265993266,551,103.62777777777778C553.4166666666666,103.61228956228956,555.8333333333334,103.59680134680134,558.25,103.58131313131312C560.6666666666666,103.5658249158249,563.0833333333334,103.5503367003367,565.5,103.53484848484848C567.9166666666666,103.51936026936026,570.3333333333334,103.50387205387206,572.75,103.48838383838384C575.1666666666666,103.47289562289562,577.5833333333334,103.4574074074074,580,103.44191919191918C582.4166666666666,103.42643097643096,584.8333333333334,103.41094276094276,587.25,103.39545454545454C589.6666666666666,103.37996632996632,592.0833333333334,103.36447811447812,594.5,103.3489898989899C596.9166666666666,103.33350168350168,599.3333333333334,103.31801346801348,601.75,103.30252525252526C604.1666666666666,103.28703703703704,606.5833333333334,103.27154882154883,609,103.25606060606061C611.4166666666666,103.2405723905724,613.8333333333334,103.22508417508418,616.25,103.20959595959596C618.6666666666666,103.19410774410774,621.0833333333334,103.17861952861952,623.5,103.1631313131313C625.9166666666666,103.14764309764308,628.3333333333334,103.13215488215488,630.75,103.11666666666667C633.1666666666666,103.10117845117847,635.5833333333334,103.08569023569025,638,103.07020202020203C640.4166666666666,103.05471380471381,642.8333333333334,103.0392255892256,645.25,103.02373737373738C647.6666666666666,103.00824915824916,650.0833333333334,103.00824915824916,652.5,102.97727272727273C654.9166666666666,102.94629629629631,657.3333333333334,102.47038567493114,659.75,102.21694214876034C662.1666666666666,101.96349862258954,664.5833333333334,101.71005509641873,667,101.45661157024793C669.4166666666666,101.20316804407713,671.8333333333334,100.94972451790633,674.25,100.69628099173553C676.6666666666666,100.44283746556474,679.0833333333334,100.18939393939394,681.5,99.93595041322314C683.9166666666666,99.68250688705234,686.3333333333334,99.42906336088153,688.75,99.17561983471073C691.1666666666666,98.92217630853993,693.5833333333334,98.66873278236915,696,98.41528925619835C698.4166666666666,98.16184573002755,700.8333333333334,97.90840220385675,703.25,97.65495867768595C705.6666666666666,97.40151515151516,708.0833333333334,97.14807162534434,710.5,96.89462809917354C712.9166666666666,96.64118457300275,715.3333333333334,96.38774104683195,717.75,96.13429752066115C720.1666666666666,95.88085399449035,722.5833333333334,95.62741046831957,725,95.37396694214877C727.4166666666666,95.12052341597797,729.8333333333334,94.86707988980716,732.25,94.61363636363636C734.6666666666666,94.36019283746556,737.0833333333334,94.10674931129476,739.5,93.85330578512396C741.9166666666666,93.59986225895317,744.3333333333334,93.34641873278237,746.75,93.09297520661157C749.1666666666666,92.83953168044077,751.5833333333334,92.58608815426997,754,92.33264462809917C756.4166666666666,92.07920110192838,758.8333333333334,91.82575757575756,761.25,91.57231404958677C763.6666666666666,91.31887052341597,766.0833333333334,91.06542699724518,768.5,90.81198347107438C770.9166666666666,90.55853994490359,773.3333333333334,90.30509641873279,775.75,90.05165289256199C778.1666666666666,89.79820936639119,780.5833333333334,89.54476584022038,783,89.29132231404958C785.4166666666667,89.03787878787878,787.8333333333334,88.784435261708,790.2500000000001,88.5309917355372C792.6666666666667,88.2775482093664,795.0833333333335,88.0241046831956,797.5000000000001,87.7706611570248C799.9166666666667,87.517217630854,802.3333333333335,87.2637741046832,804.7500000000001,87.0103305785124C807.1666666666667,86.7568870523416,809.5833333333335,86.5034435261708,812.0000000000001,86.25C814.4166666666667,85.9965564738292,816.8333333333333,85.7431129476584,819.2499999999999,85.4896694214876C821.6666666666665,85.2362258953168,824.0833333333333,84.982782369146,826.4999999999999,84.7293388429752C828.9166666666665,84.4758953168044,831.3333333333333,84.22245179063361,833.7499999999999,83.96900826446281C836.1666666666665,83.71556473829202,838.5833333333333,83.46212121212122,840.9999999999999,83.20867768595042C843.4166666666666,82.95523415977962,845.8333333333333,82.70179063360882,848.25,82.44834710743802C850.6666666666666,82.19490358126723,853.0833333333334,81.94146005509641,855.5,81.68801652892562C857.9166666666666,81.43457300275482,860.3333333333334,81.18112947658402,862.75,80.92768595041322C865.1666666666666,80.67424242424242,867.5833333333334,80.42079889807162,870,80.16735537190083C872.4166666666666,79.91391184573003,874.8333333333334,79.66046831955923,877.25,79.40702479338843C879.6666666666666,79.15358126721763,882.0833333333334,78.90013774104683,884.5,78.64669421487604C886.9166666666666,78.39325068870524,889.3333333333334,78.13980716253444,891.75,77.88636363636364C894.1666666666666,77.63292011019284,896.5833333333334,77.37947658402203,899,77.12603305785123C901.4166666666666,76.87258953168043,903.8333333333334,76.61914600550963,906.25,76.36570247933884C908.6666666666666,76.11225895316804,911.0833333333334,75.85881542699725,913.5,75.60537190082646C915.9166666666666,75.35192837465566,918.3333333333334,75.09848484848484,920.75,74.84504132231405C923.1666666666666,74.59159779614325,925.5833333333334,74.33815426997246,928,74.08471074380166C930.4166666666666,73.83126721763087,932.8333333333334,73.57782369146007,935.25,73.32438016528927C937.6666666666666,73.07093663911847,940.0833333333334,72.81749311294766,942.5,72.56404958677686C944.9166666666666,72.31060606060606,947.3333333333334,72.05716253443526,949.75,71.80371900826447C952.1666666666666,71.55027548209367,954.5833333333334,71.29683195592287,957,71.04338842975207C959.4166666666666,70.78994490358127,961.8333333333334,70.53650137741046,964.25,70.28305785123966C966.6666666666667,70.02961432506886,969.0833333333334,69.77617079889806,971.5000000000001,69.52272727272727C973.9166666666667,69.26928374655647,976.3333333333335,69.01584022038567,978.7500000000001,68.76239669421487C981.1666666666667,68.50895316804407,983.5833333333335,68.25550964187327,986.0000000000001,68.00206611570248C988.4166666666667,67.74862258953168,990.8333333333335,67.49517906336087,993.2500000000001,67.24173553719007C995.6666666666667,66.98829201101927,998.0833333333333,66.73484848484848,1000.4999999999999,66.48140495867769C1002.9166666666665,66.22796143250689,1005.3333333333333,65.97451790633608,1007.7499999999999,65.72107438016528C1010.1666666666665,65.46763085399448,1012.5833333333333,65.2141873278237,1014.9999999999999,64.9607438016529C1017.4166666666665,64.7073002754821,1019.8333333333333,64.4538567493113,1022.2499999999999,64.2004132231405C1024.6666666666665,63.9469696969697,1027.0833333333333,63.693526170798904,1029.5,63.4400826446281C1031.9166666666667,63.1866391184573,1034.3333333333333,62.933195592286495,1036.75,62.6797520661157C1039.1666666666667,62.4263085399449,1041.5833333333333,62.172865013774114,1044,61.919421487603316C1046.4166666666667,61.66597796143252,1048.8333333333333,61.4125344352617,1051.25,61.1590909090909C1053.6666666666667,60.9056473829201,1056.0833333333333,60.652203856749324,1058.5,60.398760330578526C1060.9166666666667,60.14531680440773,1063.3333333333333,59.891873278236915,1065.75,59.638429752066116C1068.1666666666667,59.38498622589532,1070.5833333333333,59.13154269972451,1073,58.878099173553714C1075.4166666666667,58.624655647382916,1077.8333333333333,58.371212121212125,1080.25,58.117768595041326C1082.6666666666667,57.86432506887053,1085.0833333333333,57.610881542699715,1087.5,57.35743801652892C1089.9166666666667,57.10399449035812,1092.3333333333333,56.85055096418733,1094.75,56.59710743801653C1097.1666666666667,56.34366391184573,1099.5833333333333,56.09022038567493,1102,55.836776859504134C1104.4166666666667,55.583333333333336,1106.8333333333333,55.32988980716253,1109.25,55.07644628099173C1111.6666666666667,54.82300275482093,1114.0833333333333,54.56955922865013,1116.5,54.31611570247933C1118.9166666666667,54.06267217630853,1121.3333333333333,53.80922865013775,1123.75,53.55578512396695C1126.1666666666667,53.30234159779615,1128.5833333333333,53.048898071625345,1131,52.79545454545455C1133.4166666666667,52.54201101928375,1135.8333333333333,52.28856749311294,1138.25,52.035123966942145C1140.6666666666667,51.781680440771346,1143.0833333333333,51.52823691460055,1145.5,51.27479338842975C1147.9166666666667,51.02134986225895,1150.3333333333333,50.76790633608816,1152.75,50.51446280991736C1155.1666666666667,50.26101928374656,1157.5833333333333,50.00757575757575,1160,49.75413223140495C1162.4166666666667,49.500688705234154,1164.8333333333333,49.24724517906336,1167.25,48.993801652892564C1169.6666666666667,48.740358126721766,1172.0833333333333,48.48691460055096,1174.5,48.23347107438016C1176.9166666666667,47.980027548209364,1179.3333333333333,47.726584022038566,1181.75,47.47314049586777C1184.1666666666667,47.21969696969697,1186.5833333333333,46.96625344352618,1189,46.71280991735538C1191.4166666666667,46.45936639118458,1193.8333333333333,46.205922865013775,1196.25,45.95247933884298C1198.6666666666667,45.69903581267218,1201.0833333333333,45.44559228650138,1203.5,45.19214876033058C1205.9166666666667,44.938705234159784,1208.3333333333333,44.68526170798898,1210.75,44.43181818181818C1213.1666666666667,44.17837465564738,1215.5833333333333,43.92493112947659,1218,43.67148760330579C1220.4166666666667,43.418044077134994,1222.8333333333333,43.164600550964195,1225.25,42.9111570247934C1227.6666666666667,42.6577134986226,1230.0833333333333,42.40426997245179,1232.5,42.150826446280995C1234.9166666666667,41.897382920110196,1237.3333333333333,41.6439393939394,1239.75,41.3904958677686C1242.1666666666667,41.1370523415978,1244.5833333333333,40.88360881542701,1247,40.63016528925621C1249.4166666666667,40.37672176308541,1251.8333333333333,40.123278236914615,1254.25,39.86983471074381C1256.6666666666667,39.616391184573004,1259.0833333333333,39.3629476584022,1261.5,39.1095041322314C1263.9166666666667,38.8560606060606,1266.3333333333333,38.60261707988981,1268.75,38.34917355371901C1271.1666666666667,38.095730027548214,1273.5833333333333,37.84228650137741,1276,37.58884297520661C1278.4166666666667,37.33539944903581,1280.8333333333333,37.08195592286503,1283.25,36.82851239669423C1285.6666666666667,36.57506887052343,1288.0833333333333,36.32162534435261,1290.5,36.06818181818181C1292.9166666666667,35.814738292011015,1295.3333333333333,35.561294765840216,1297.75,35.30785123966942C1300.1666666666667,35.05440771349862,1302.5833333333333,34.80096418732783,1305,34.54752066115703C1307.4166666666667,34.29407713498623,1309.8333333333333,34.04063360881541,1312.25,33.787190082644614C1314.6666666666667,33.533746556473815,1317.0833333333333,33.28030303030303,1319.5,33.02685950413223C1321.9166666666667,32.773415977961434,1324.3333333333333,32.51997245179063,1326.75,32.26652892561983C1329.1666666666667,32.01308539944903,1331.5833333333333,31.75964187327824,1334,31.506198347107443C1336.4166666666667,31.252754820936644,1338.8333333333333,30.999311294765846,1341.25,30.745867768595044C1343.6666666666667,30.492424242424242,1346.0833333333333,30.23898071625343,1348.5,29.98553719008263C1350.9166666666667,29.732093663911833,1353.3333333333333,29.478650137741045,1355.75,29.225206611570247C1358.1666666666667,28.97176308539945,1360.5833333333333,28.718319559228647,1363,28.46487603305785C1365.4166666666667,28.21143250688705,1367.8333333333333,27.95798898071626,1370.25,27.70454545454546C1372.6666666666667,27.451101928374662,1375.0833333333333,27.197658402203846,1377.5,26.944214876033048C1379.9166666666667,26.69077134986225,1382.3333333333333,26.43732782369146,1384.75,26.183884297520663C1387.1666666666667,25.930440771349865,1389.5833333333333,25.67699724517906,1392,25.42355371900826C1394.4166666666667,25.170110192837463,1396.8333333333333,24.916666666666675,1399.25,24.663223140495877C1401.6666666666667,24.40977961432508,1404.0833333333333,24.156336088154262,1406.5,23.902892561983464C1408.9166666666667,23.649449035812665,1411.3333333333333,23.396005509641878,1413.75,23.14256198347108C1416.1666666666667,22.88911845730028,1418.5833333333333,22.635674931129476,1421,22.382231404958677C1423.4166666666667,22.12878787878788,1425.8333333333333,21.87534435261709,1428.25,21.621900826446293C1430.6666666666667,21.368457300275495,1433.0833333333333,21.115013774104682,1435.5,20.86157024793388C1437.9166666666667,20.608126721763078,1440.3333333333333,20.35468319559229,1442.75,20.101239669421492C1445.1666666666667,19.847796143250694,1447.5833333333333,19.594352617079895,1450,19.340909090909093" fill="transparent" stroke-linecap="round" stroke="#E7C6DF" stroke-width="2"></path><g class="visx-group visx-axis visx-axis-bottom" transform="translate(0, 115)"><g class="visx-group visx-axis-tick" transform="translate(0, 0)"><line class="visx-line" x1="0" y1="0" x2="0" y2="8" fill="transparent" shape-rendering="crispEdges" stroke="#000" stroke-width="0" stroke-linecap="square"></line><svg x="0" y="0" font-size="10" style="overflow:visible"><text transform="" x="0" y="18" fill="#000" font-size="10" text-anchor="middle"><tspan x="0" dy="0em">0%</tspan></text></svg></g><g class="visx-group visx-axis-tick" transform="translate(0, 0)"><line class="visx-line" x1="362.5" y1="0" x2="362.5" y2="8" fill="transparent" shape-rendering="crispEdges" stroke="#000" stroke-width="0" stroke-linecap="square"></line><svg x="0" y="0" font-size="10" style="overflow:visible"><text transform="" x="362.5" y="18" fill="#000" font-size="10" text-anchor="middle"><tspan x="362.5" dy="0em">25%</tspan></text></svg></g><g class="visx-group visx-axis-tick" transform="translate(0, 0)"><line class="visx-line" x1="725" y1="0" x2="725" y2="8" fill="transparent" shape-rendering="crispEdges" stroke="#000" stroke-width="0" stroke-linecap="square"></line><svg x="0" y="0" font-size="10" style="overflow:visible"><text transform="" x="725" y="18" fill="#000" font-size="10" text-anchor="middle"><tspan x="725" dy="0em">50%</tspan></text></svg></g><g class="visx-group visx-axis-tick" transform="translate(0, 0)"><line class="visx-line" x1="1087.5" y1="0" x2="1087.5" y2="8" fill="transparent" shape-rendering="crispEdges" stroke="#000" stroke-width="0" stroke-linecap="square"></line><svg x="0" y="0" font-size="10" style="overflow:visible"><text transform="" x="1087.5" y="18" fill="#000" font-size="10" text-anchor="middle"><tspan x="1087.5" dy="0em">75%</tspan></text></svg></g><g class="visx-group visx-axis-tick" transform="translate(0, 0)"><line class="visx-line" x1="1450" y1="0" x2="1450" y2="8" fill="transparent" shape-rendering="crispEdges" stroke="#000" stroke-width="0" stroke-linecap="square"></line><svg x="0" y="0" font-size="10" style="overflow:visible"><text transform="" x="1450" y="18" fill="#000" font-size="10" text-anchor="middle"><tspan x="1450" dy="0em">100%</tspan></text></svg></g><line class="visx-line visx-axis-line" x1="0.5" y1="0" x2="1450.5" y2="0" fill="transparent" shape-rendering="crispEdges" stroke="#222" stroke-width="0"></line></g><g class="visx-group visx-axis visx-axis-left" transform="translate(0, 0)"><g class="visx-group visx-axis-tick" transform="translate(0, 0)"><line class="visx-line" x1="0" y1="115" x2="-8" y2="115" fill="transparent" shape-rendering="crispEdges" stroke="#222" stroke-width="0" stroke-linecap="square"></line><svg x="-30" y="0" font-size="8" style="overflow:visible"><text transform="" x="-8" y="115" fill="#000" font-size="8" text-anchor="start"><tspan x="-8" dy="0em">0%</tspan></text></svg></g><g class="visx-group visx-axis-tick" transform="translate(0, 0)"><line class="visx-line" x1="0" y1="62.72727272727272" x2="-8" y2="62.72727272727272" fill="transparent" shape-rendering="crispEdges" stroke="#222" stroke-width="0" stroke-linecap="square"></line><svg x="-30" y="0" font-size="8" style="overflow:visible"><text transform="" x="-8" y="62.72727272727272" fill="#000" font-size="8" text-anchor="start"><tspan x="-8" dy="0em">50%</tspan></text></svg></g><g class="visx-group visx-axis-tick" transform="translate(0, 0)"><line class="visx-line" x1="0" y1="10.454545454545459" x2="-8" y2="10.454545454545459" fill="transparent" shape-rendering="crispEdges" stroke="#222" stroke-width="0" stroke-linecap="square"></line><svg x="-30" y="0" font-size="8" style="overflow:visible"><text transform="" x="-8" y="10.454545454545459" fill="#000" font-size="8" text-anchor="start"><tspan x="-8" dy="0em">100%</tspan></text></svg></g><line class="visx-line visx-axis-line" x1="0" y1="115.5" x2="0" y2="0.5" fill="transparent" shape-rendering="crispEdges" stroke="#222" stroke-width="0"></line></g><rect class="visx-bar" width="1450" height="115" fill="transparent"></rect><line class="visx-line" x1="652.5" y1="28" x2="652.5" y2="115" fill="transparent" shape-rendering="crispEdges" stroke="#0062D2" stroke-width="1" pointer-events="none" stroke-dasharray="5,2"></line><svg x="0" y="0" font-size="10px" style="overflow:visible"><text transform="" x="652.5" y="20" font-size="10px" fill="#fff" stroke="#fff" stroke-width="0.8em" text-anchor="middle"><tspan x="652.5" dy="0.355em">Optimal 45%</tspan></text></svg><svg x="0" y="0" font-size="10px" style="overflow:visible"><text transform="" x="652.5" y="20" font-size="10px" fill="#62677B" text-anchor="middle"><tspan x="652.5" dy="0.355em">Optimal 45%</tspan></text></svg></g></svg>