<?xml version="1.0"?><svg xmlns="http://www.w3.org/2000/svg" xmlns:xlink= "http://www.w3.org/1999/xlink" style="background: white;" width="1500" height="300"> <g style="color: black; font-size: 13px; font-family: sans-serif; transform: translate(18px, 25px);"><g><circle r="3" cx="-6" cy="-5" style="fill: #1AD4B3" /><text>Borrow APR, variable</text></g><g style="transform: translateX(150px);"><circle r="3" cx="-6" cy="-5" style="fill: #101423" /><text>Borrow APR, stable</text></g></g><g class="visx-group" transform="translate(45, 50)"><g class="visx-group visx-rows" transform="translate(0, 0)"><line class="visx-line" x1="0" y1="155" x2="1425" y2="155" fill="transparent" shape-rendering="crispEdges" stroke="#F2F0F9" stroke-width="1" pointer-events="none"></line><line class="visx-line" x1="0" y1="110.71428571428572" x2="1425" y2="110.71428571428572" fill="transparent" shape-rendering="crispEdges" stroke="#F2F0F9" stroke-width="1" pointer-events="none"></line><line class="visx-line" x1="0" y1="66.42857142857143" x2="1425" y2="66.42857142857143" fill="transparent" shape-rendering="crispEdges" stroke="#F2F0F9" stroke-width="1" pointer-events="none"></line><line class="visx-line" x1="0" y1="22.14285714285715" x2="1425" y2="22.14285714285715" fill="transparent" shape-rendering="crispEdges" stroke="#F2F0F9" stroke-width="1" pointer-events="none"></line></g><path class="visx-linepath" d="M0,153.67142857134C2.375,153.656666666615,4.75,153.64190476188998,7.125,153.62714285714284C9.5,153.6123809523957,11.875,153.59761904761905,14.25,153.58285714285714C16.625,153.56809523809522,19,153.55333333333334,21.375,153.53857142857143C23.75,153.52380952380952,26.125,153.50904761904764,28.5,153.49428571428572C30.875,153.4795238095238,33.25,153.4647619047619,35.625,153.45C38,153.43523809523808,40.375,153.4204761904762,42.75,153.40571428571428C45.125,153.39095238095237,47.50000000000001,153.3761904761905,49.87500000000001,153.36142857142858C52.25000000000001,153.34666666666666,54.625,153.33190476190475,57,153.31714285714284C59.375,153.30238095238093,61.75,153.28761904761905,64.125,153.27285714285713C66.5,153.25809523809522,68.875,153.24333333333334,71.25,153.22857142857143C73.625,153.21380952380952,76,153.19904761904763,78.375,153.18428571428572C80.75,153.1695238095238,83.125,153.1547619047619,85.5,153.14C87.875,153.12523809523807,90.25,153.1104761904762,92.625,153.09571428571428C95,153.08095238095237,97.37500000000001,153.06619047619049,99.75000000000001,153.05142857142857C102.12500000000001,153.03666666666666,104.5,153.02190476190475,106.875,153.00714285714284C109.25,152.99238095238093,111.625,152.97761904761904,114,152.96285714285713C116.375,152.94809523809522,118.75000000000001,152.93333333333334,121.12500000000001,152.91857142857143C123.50000000000001,152.9038095238095,125.875,152.88904761904763,128.25,152.87428571428572C130.625,152.8595238095238,133,152.8447619047619,135.375,152.82999999999998C137.75,152.81523809523807,140.125,152.80047619047622,142.5,152.7857142857143C144.875,152.7709523809524,147.25,152.75619047619048,149.625,152.74142857142857C152,152.72666666666666,154.375,152.71190476190475,156.75,152.69714285714284C159.125,152.68238095238092,161.5,152.66761904761907,163.875,152.65285714285716C166.25,152.63809523809525,168.625,152.62333333333333,171,152.60857142857142C173.375,152.5938095238095,175.75,152.57904761904763,178.125,152.56428571428572C180.5,152.5495238095238,182.875,152.53476190476192,185.25,152.52C187.625,152.5052380952381,190,152.49047619047622,192.375,152.4757142857143C194.75,152.4609523809524,197.12500000000003,152.44619047619048,199.50000000000003,152.43142857142857C201.875,152.41666666666666,204.25,152.40190476190477,206.62499999999997,152.38714285714286C208.99999999999997,152.37238095238095,211.375,152.35761904761907,213.75,152.34285714285716C216.125,152.32809523809524,218.5,152.31333333333333,220.875,152.29857142857142C223.25,152.2838095238095,225.625,152.26904761904763,228,152.25428571428571C230.375,152.2395238095238,232.75,152.22476190476192,235.125,152.21C237.5,152.1952380952381,239.87500000000003,152.1804761904762,242.25000000000003,152.1657142857143C244.625,152.1509523809524,247,152.13619047619048,249.37499999999997,152.12142857142857C251.74999999999997,152.10666666666665,254.125,152.09190476190477,256.5,152.07714285714286C258.875,152.06238095238095,261.25,152.04761904761907,263.625,152.03285714285715C266,152.01809523809524,268.375,152.00333333333333,270.75,151.98857142857142C273.125,151.9738095238095,275.5,151.95904761904762,277.875,151.9442857142857C280.25,151.9295238095238,282.625,151.91476190476192,285,151.9C287.375,151.8852380952381,289.75,151.8704761904762,292.125,151.8557142857143C294.5,151.8409523809524,296.875,151.82619047619048,299.25,151.81142857142856C301.625,151.79666666666665,304,151.78190476190477,306.375,151.76714285714286C308.75,151.75238095238095,311.125,151.73761904761906,313.5,151.72285714285715C315.875,151.70809523809524,318.25,151.69333333333333,320.625,151.67857142857142C323,151.6638095238095,325.375,151.64904761904762,327.75,151.6342857142857C330.125,151.6195238095238,332.5,151.60476190476192,334.875,151.59C337.25,151.5752380952381,339.625,151.5604761904762,342,151.5457142857143C344.375,151.53095238095239,346.75,151.51619047619047,349.125,151.50142857142856C351.5,151.48666666666665,353.875,151.47190476190477,356.25,151.45714285714286C358.625,151.44238095238094,361,151.42761904761906,363.375,151.41285714285715C365.75,151.39809523809524,368.125,151.38333333333333,370.5,151.3685714285714C372.875,151.3538095238095,375.25,151.33904761904762,377.625,151.3242857142857C380,151.3095238095238,382.375,151.2947619047619,384.75,151.28C387.125,151.2652380952381,389.50000000000006,151.2504761904762,391.87500000000006,151.2357142857143C394.25000000000006,151.22095238095238,396.62500000000006,151.20619047619047,399.00000000000006,151.19142857142856C401.375,151.17666666666665,403.75,151.16190476190476,406.12499999999994,151.14714285714285C408.49999999999994,151.13238095238094,410.87499999999994,151.11761904761906,413.24999999999994,151.10285714285715C415.62499999999994,151.08809523809524,418,151.07333333333332,420.375,151.0585714285714C422.75,151.0438095238095,425.125,151.02904761904762,427.5,151.0142857142857C429.875,150.9995238095238,432.25,150.9847619047619,434.625,150.97C437,150.9552380952381,439.375,150.9404761904762,441.75,150.9257142857143C444.125,150.91095238095238,446.5,150.89619047619047,448.875,150.88142857142856C451.25,150.86666666666665,453.625,150.85190476190476,456,150.83714285714285C458.375,150.82238095238094,460.75,150.80761904761906,463.125,150.79285714285714C465.5,150.77809523809523,467.875,150.76333333333332,470.25,150.7485714285714C472.625,150.7338095238095,475.00000000000006,150.71904761904764,477.37500000000006,150.70428571428573C479.75000000000006,150.68952380952382,482.12500000000006,150.6747619047619,484.50000000000006,150.66C486.875,150.64523809523808,489.25,150.6304761904762,491.62499999999994,150.6157142857143C493.99999999999994,150.60095238095238,496.37499999999994,150.5861904761905,498.74999999999994,150.57142857142858C501.12499999999994,150.55666666666667,503.5,150.54190476190476,505.875,150.52714285714285C508.25,150.51238095238094,510.625,150.49761904761905,513,150.48285714285714C515.375,150.46809523809523,517.75,150.45333333333335,520.125,150.43857142857144C522.5,150.42380952380952,524.875,150.40904761904764,527.25,150.39428571428573C529.625,150.37952380952382,532,150.3647619047619,534.375,150.35C536.75,150.33523809523808,539.125,150.3204761904762,541.5,150.3057142857143C543.875,150.29095238095238,546.25,150.2761904761905,548.625,150.26142857142858C551,150.24666666666667,553.375,150.23190476190476,555.75,150.21714285714285C558.125,150.20238095238093,560.5,150.18761904761905,562.875,150.17285714285714C565.25,150.15809523809523,567.625,150.14333333333335,570,150.12857142857143C572.375,150.11380952380952,574.75,150.09904761904764,577.125,150.08428571428573C579.5,150.06952380952382,581.875,150.0547619047619,584.25,150.04C586.625,150.02523809523808,589,150.0104761904762,591.375,149.99571428571429C593.75,149.98095238095237,596.125,149.9661904761905,598.5,149.95142857142858C600.875,149.93666666666667,603.25,149.92190476190478,605.625,149.90714285714287C608,149.89238095238096,610.375,149.87761904761905,612.75,149.86285714285714C615.125,149.84809523809523,617.5,149.83333333333334,619.875,149.81857142857143C622.25,149.80380952380952,624.625,149.78904761904764,627,149.77428571428572C629.375,149.7595238095238,631.75,149.7447619047619,634.125,149.73C636.5,149.71523809523808,638.875,149.7004761904762,641.25,149.68571428571428C643.625,149.67095238095237,646,149.6561904761905,648.375,149.64142857142858C650.75,149.62666666666667,653.125,149.61190476190478,655.5,149.59714285714287C657.875,149.58238095238096,660.25,149.56761904761905,662.625,149.55285714285714C665,149.53809523809522,667.375,149.52333333333334,669.75,149.50857142857143C672.125,149.49380952380952,674.5,149.47904761904763,676.875,149.46428571428572C679.25,149.4495238095238,681.625,149.4347619047619,684,149.42C686.375,149.40523809523808,688.75,149.3904761904762,691.125,149.37571428571428C693.5,149.36095238095237,695.875,149.3461904761905,698.25,149.33142857142857C700.625,149.31666666666666,703,149.30190476190478,705.375,149.28714285714287C707.75,149.27238095238096,710.125,149.25761904761904,712.5,149.24285714285713C714.875,149.22809523809522,717.25,149.21333333333334,719.625,149.19857142857143C722,149.18380952380951,724.375,149.16904761904763,726.75,149.15428571428572C729.125,149.1395238095238,731.5,149.1247619047619,733.875,149.10999999999999C736.25,149.09523809523807,738.625,149.0804761904762,741,149.06571428571428C743.375,149.05095238095237,745.75,149.03619047619048,748.125,149.02142857142857C750.5,149.00666666666666,752.875,148.99190476190478,755.25,148.97714285714287C757.625,148.96238095238095,760,148.94761904761904,762.375,148.93285714285713C764.75,148.91809523809522,767.125,148.90333333333334,769.5,148.88857142857142C771.875,148.8738095238095,774.2500000000001,148.85904761904763,776.6250000000001,148.84428571428572C779.0000000000001,148.8295238095238,781.3750000000001,148.8147619047619,783.7500000000001,148.79999999999998C786.1250000000001,148.78523809523807,788.5000000000001,148.7704761904762,790.8750000000001,148.75571428571428C793.2500000000001,148.74095238095236,795.6250000000001,148.72619047619048,798.0000000000001,148.71142857142857C800.375,148.69666666666666,802.75,148.68190476190478,805.1249999999999,148.66714285714286C807.4999999999999,148.65238095238095,809.8749999999999,148.63761904761904,812.2499999999999,148.62285714285713C814.6249999999999,148.60809523809522,816.9999999999999,148.59333333333336,819.3749999999999,148.57857142857145C821.7499999999999,148.56380952380954,824.1249999999999,148.54904761904763,826.4999999999999,148.53428571428572C828.8749999999999,148.5195238095238,831.25,148.5047619047619,833.625,148.48999999999998C836,148.47523809523807,838.375,148.46047619047621,840.75,148.4457142857143C843.125,148.4309523809524,845.5,148.41619047619048,847.875,148.40142857142857C850.25,148.38666666666666,852.625,148.37190476190477,855,148.35714285714286C857.375,148.34238095238095,859.75,148.32761904761907,862.125,148.31285714285715C864.5,148.29809523809524,866.875,148.28333333333336,869.25,148.26857142857145C871.625,148.25380952380954,874,148.23904761904762,876.375,148.2242857142857C878.75,148.2095238095238,881.125,148.19476190476192,883.5,148.18C885.875,148.1652380952381,888.25,148.1504761904762,890.625,148.1357142857143C893,148.1209523809524,895.375,148.10619047619048,897.75,148.09142857142857C900.125,148.07666666666665,902.5,148.06190476190477,904.875,148.04714285714286C907.25,148.03238095238095,909.625,148.01761904761906,912,148.00285714285715C914.375,147.98809523809524,916.75,147.97333333333336,919.125,147.95857142857145C921.5,147.94380952380953,923.875,147.92904761904762,926.25,147.9142857142857C928.625,147.8995238095238,931,147.88476190476192,933.375,147.87C935.75,147.8552380952381,938.125,147.8404761904762,940.5,147.8257142857143C942.875,147.8109523809524,945.25,147.79619047619047,947.625,147.78142857142856C950,147.76666666666665,952.3750000000001,147.75190476190477,954.7500000000001,147.73714285714286C957.1250000000001,147.72238095238095,959.5000000000001,147.70761904761906,961.8750000000001,147.69285714285715C964.2500000000001,147.67809523809524,966.6250000000001,147.66333333333336,969.0000000000001,147.64857142857144C971.3750000000001,147.63380952380953,973.7500000000001,147.61904761904762,976.1250000000001,147.6042857142857C978.5,147.5895238095238,980.875,147.5747619047619,983.2499999999999,147.56C985.6249999999999,147.5452380952381,987.9999999999999,147.5304761904762,990.3749999999999,147.5157142857143C992.7499999999999,147.50095238095238,995.1249999999999,147.50095238095238,997.4999999999999,147.47142857142856C999.8749999999999,147.44190476190474,1002.2499999999999,145.9952380952381,1004.6249999999999,145.25714285714287C1006.9999999999999,144.51904761904763,1009.375,143.78095238095239,1011.75,143.04285714285714C1014.125,142.3047619047619,1016.5,141.56666666666666,1018.875,140.82857142857142C1021.25,140.09047619047618,1023.625,139.35238095238094,1026,138.6142857142857C1028.375,137.87619047619046,1030.75,137.13809523809525,1033.125,136.4C1035.5,135.66190476190476,1037.875,134.92380952380952,1040.25,134.18571428571428C1042.625,133.44761904761904,1045,132.7095238095238,1047.375,131.97142857142856C1049.75,131.23333333333332,1052.125,130.4952380952381,1054.5,129.75714285714287C1056.875,129.01904761904763,1059.25,128.28095238095239,1061.625,127.54285714285714C1064,126.8047619047619,1066.375,126.06666666666668,1068.75,125.32857142857144C1071.125,124.5904761904762,1073.5,123.85238095238095,1075.875,123.11428571428571C1078.25,122.37619047619047,1080.625,121.63809523809525,1083,120.9C1085.375,120.16190476190476,1087.75,119.42380952380952,1090.125,118.68571428571428C1092.5,117.94761904761904,1094.875,117.20952380952382,1097.25,116.47142857142858C1099.625,115.73333333333333,1102,114.9952380952381,1104.375,114.25714285714285C1106.75,113.51904761904761,1109.125,112.78095238095239,1111.5,112.04285714285714C1113.875,111.3047619047619,1116.25,110.56666666666668,1118.625,109.82857142857144C1121,109.0904761904762,1123.375,108.35238095238095,1125.75,107.61428571428571C1128.125,106.87619047619047,1130.5,106.13809523809523,1132.875,105.39999999999999C1135.25,104.66190476190475,1137.625,103.92380952380952,1140,103.18571428571428C1142.375,102.44761904761904,1144.75,101.70952380952382,1147.125,100.97142857142858C1149.5,100.23333333333333,1151.875,99.4952380952381,1154.25,98.75714285714285C1156.625,98.01904761904761,1159,97.28095238095237,1161.375,96.54285714285713C1163.75,95.80476190476189,1166.125,95.06666666666666,1168.5,94.32857142857142C1170.875,93.59047619047618,1173.25,92.85238095238095,1175.625,92.11428571428571C1178,91.37619047619047,1180.375,90.63809523809525,1182.75,89.9C1185.125,89.16190476190476,1187.5,88.42380952380952,1189.875,87.68571428571428C1192.25,86.94761904761904,1194.625,86.2095238095238,1197,85.47142857142856C1199.375,84.73333333333332,1201.75,83.9952380952381,1204.125,83.25714285714285C1206.5,82.51904761904761,1208.875,81.78095238095239,1211.25,81.04285714285714C1213.625,80.3047619047619,1216,79.56666666666666,1218.375,78.82857142857142C1220.75,78.09047619047618,1223.125,77.35238095238095,1225.5,76.61428571428571C1227.875,75.87619047619047,1230.25,75.13809523809523,1232.625,74.39999999999999C1235,73.66190476190475,1237.375,72.92380952380954,1239.75,72.1857142857143C1242.125,71.44761904761906,1244.5,70.7095238095238,1246.875,69.97142857142856C1249.25,69.23333333333332,1251.625,68.49523809523811,1254,67.75714285714287C1256.375,67.01904761904763,1258.75,66.28095238095237,1261.125,65.54285714285713C1263.5,64.80476190476189,1265.875,64.06666666666669,1268.25,63.32857142857145C1270.625,62.59047619047621,1273,61.85238095238095,1275.375,61.11428571428571C1277.75,60.376190476190466,1280.125,59.63809523809524,1282.5,58.9C1284.875,58.16190476190476,1287.25,57.42380952380952,1289.625,56.685714285714276C1292,55.947619047619035,1294.375,55.2095238095238,1296.75,54.47142857142857C1299.125,53.733333333333334,1301.5,52.99523809523811,1303.875,52.25714285714287C1306.25,51.519047619047626,1308.625,50.78095238095238,1311,50.04285714285714C1313.375,49.3047619047619,1315.75,48.56666666666668,1318.125,47.828571428571436C1320.5,47.090476190476195,1322.875,46.35238095238093,1325.25,45.61428571428569C1327.625,44.87619047619045,1330,44.13809523809524,1332.375,43.400000000000006C1334.75,42.66190476190477,1337.125,41.923809523809524,1339.5,41.18571428571428C1341.875,40.44761904761904,1344.25,39.709523809523816,1346.625,38.971428571428575C1349,38.233333333333334,1351.375,37.49523809523809,1353.75,36.75714285714285C1356.125,36.01904761904761,1358.5,35.280952380952385,1360.875,34.542857142857144C1363.25,33.804761904761904,1365.625,33.06666666666666,1368,32.32857142857142C1370.375,31.590476190476185,1372.75,30.852380952380948,1375.125,30.114285714285714C1377.5,29.37619047619048,1379.875,28.638095238095246,1382.25,27.90000000000001C1384.625,27.161904761904772,1387,26.42380952380952,1389.375,25.685714285714283C1391.75,24.947619047619046,1394.125,24.209523809523816,1396.5,23.47142857142858C1398.875,22.73333333333334,1401.25,21.99523809523809,1403.625,21.257142857142853C1406,20.519047619047615,1408.375,19.780952380952385,1410.75,19.042857142857148C1413.125,18.30476190476191,1415.5,17.56666666666666,1417.875,16.828571428571422C1420.25,16.090476190476185,1422.625,15.352380952380951,1425,14.614285714285717" fill="transparent" stroke-linecap="round" stroke="#1AD4B3" stroke-width="2"></path><g class="visx-group visx-axis visx-axis-bottom" transform="translate(0, 155)"><g class="visx-group visx-axis-tick" transform="translate(0, 0)"><line class="visx-line" x1="0" y1="0" x2="0" y2="8" fill="transparent" shape-rendering="crispEdges" stroke="#F2F0F9" stroke-width="1" stroke-linecap="square"></line><svg x="0" y="0" font-size="11" style="overflow:visible"><text transform="" x="0" y="19" fill="#1B2030" font-size="11" text-anchor="middle"><tspan x="0" dy="0em">0%</tspan></text></svg></g><g class="visx-group visx-axis-tick" transform="translate(0, 0)"><line class="visx-line" x1="356.25" y1="0" x2="356.25" y2="8" fill="transparent" shape-rendering="crispEdges" stroke="#F2F0F9" stroke-width="1" stroke-linecap="square"></line><svg x="0" y="0" font-size="11" style="overflow:visible"><text transform="" x="356.25" y="19" fill="#1B2030" font-size="11" text-anchor="middle"><tspan x="356.25" dy="0em">25%</tspan></text></svg></g><g class="visx-group visx-axis-tick" transform="translate(0, 0)"><line class="visx-line" x1="712.5" y1="0" x2="712.5" y2="8" fill="transparent" shape-rendering="crispEdges" stroke="#F2F0F9" stroke-width="1" stroke-linecap="square"></line><svg x="0" y="0" font-size="11" style="overflow:visible"><text transform="" x="712.5" y="19" fill="#1B2030" font-size="11" text-anchor="middle"><tspan x="712.5" dy="0em">50%</tspan></text></svg></g><g class="visx-group visx-axis-tick" transform="translate(0, 0)"><line class="visx-line" x1="1068.75" y1="0" x2="1068.75" y2="8" fill="transparent" shape-rendering="crispEdges" stroke="#F2F0F9" stroke-width="1" stroke-linecap="square"></line><svg x="0" y="0" font-size="11" style="overflow:visible"><text transform="" x="1068.75" y="19" fill="#1B2030" font-size="11" text-anchor="middle"><tspan x="1068.75" dy="0em">75%</tspan></text></svg></g><g class="visx-group visx-axis-tick" transform="translate(0, 0)"><line class="visx-line" x1="1425" y1="0" x2="1425" y2="8" fill="transparent" shape-rendering="crispEdges" stroke="#F2F0F9" stroke-width="1" stroke-linecap="square"></line><svg x="0" y="0" font-size="11" style="overflow:visible"><text transform="" x="1425" y="19" fill="#1B2030" font-size="11" text-anchor="middle"><tspan x="1425" dy="0em">100%</tspan></text></svg></g></g><g class="visx-group visx-axis visx-axis-left" transform="translate(0, 0)"><g class="visx-group visx-axis-tick" transform="translate(0, 0)"><line class="visx-line" x1="0" y1="155" x2="-8" y2="155" fill="transparent" shape-rendering="crispEdges" stroke="#F2F0F9" stroke-width="1" stroke-linecap="square"></line><svg x="-30" y="0" font-size="11" style="overflow:visible"><text transform="" x="-8" y="155" fill="#1B2030" font-size="11" text-anchor="start"><tspan x="-8" dy="0em">0%</tspan></text></svg></g><g class="visx-group visx-axis-tick" transform="translate(0, 0)"><line class="visx-line" x1="0" y1="110.71428571428572" x2="-8" y2="110.71428571428572" fill="transparent" shape-rendering="crispEdges" stroke="#F2F0F9" stroke-width="1" stroke-linecap="square"></line><svg x="-30" y="0" font-size="11" style="overflow:visible"><text transform="" x="-8" y="110.71428571428572" fill="#1B2030" font-size="11" text-anchor="start"><tspan x="-8" dy="0em">100%</tspan></text></svg></g><g class="visx-group visx-axis-tick" transform="translate(0, 0)"><line class="visx-line" x1="0" y1="66.42857142857143" x2="-8" y2="66.42857142857143" fill="transparent" shape-rendering="crispEdges" stroke="#F2F0F9" stroke-width="1" stroke-linecap="square"></line><svg x="-30" y="0" font-size="11" style="overflow:visible"><text transform="" x="-8" y="66.42857142857143" fill="#1B2030" font-size="11" text-anchor="start"><tspan x="-8" dy="0em">200%</tspan></text></svg></g><g class="visx-group visx-axis-tick" transform="translate(0, 0)"><line class="visx-line" x1="0" y1="22.14285714285715" x2="-8" y2="22.14285714285715" fill="transparent" shape-rendering="crispEdges" stroke="#F2F0F9" stroke-width="1" stroke-linecap="square"></line><svg x="-30" y="0" font-size="11" style="overflow:visible"><text transform="" x="-8" y="22.14285714285715" fill="#1B2030" font-size="11" text-anchor="start"><tspan x="-8" dy="0em">300%</tspan></text></svg></g><line class="visx-line visx-axis-line" x1="0" y1="155.5" x2="0" y2="0.5" fill="transparent" shape-rendering="crispEdges" stroke="#F2F0F9" stroke-width="1"></line></g><rect class="visx-bar" width="1425" height="155" fill="transparent"></rect><line class="visx-line" x1="997.4999999999999" y1="58" x2="997.4999999999999" y2="155" fill="transparent" shape-rendering="crispEdges" stroke="#CDC8E1" stroke-width="1" pointer-events="none" stroke-dasharray="5"></line><svg x="0" y="0" font-size="11px" style="overflow:visible"><text transform="" x="997.4999999999999" y="50" font-size="11px" fill="#555069" stroke="#FFFFFF" stroke-width="1px" text-anchor="middle"><tspan x="997.4999999999999" dy="0.355em">Optimal utilization 70%</tspan></text></svg><svg x="0" y="0" font-size="11px" style="overflow:visible"><text transform="" x="997.4999999999999" y="50" font-size="11px" fill="#CDC8E1" text-anchor="middle"><tspan x="997.4999999999999" dy="0.355em">Optimal utilization 70%</tspan></text></svg></g></svg>