<?xml version="1.0"?><svg xmlns="http://www.w3.org/2000/svg" xmlns:xlink= "http://www.w3.org/1999/xlink" style="background: white;" width="1500" height="185"> <g style="color: black; font-size: 13px; font-family: sans-serif; transform: translate(18px, 25px);"><g><circle r="3" cx="-6" cy="-5" style="fill: #B6509E" /><text>Borrow APR, variable</text></g><g style="transform: translateX(150px);"><circle r="3" cx="-6" cy="-5" style="fill: rgb(231, 198, 223)" /><text>Borrow APR, stable</text></g><g style="transform: translateX(290px);"><circle r="3" cx="-6" cy="-5" style="fill: rgb(0, 98, 210)" /><text>Utilization Rate</text></g></g><g class="visx-group" transform="translate(40, 50)"><g class="visx-group visx-rows" transform="translate(0, 0)"><line class="visx-line" x1="0" y1="115" x2="1450" y2="115" fill="transparent" shape-rendering="crispEdges" stroke="#000" stroke-width="1" stroke-dasharray="3,3" pointer-events="none"></line><line class="visx-line" x1="0" y1="82.14285714285714" x2="1450" y2="82.14285714285714" fill="transparent" shape-rendering="crispEdges" stroke="#000" stroke-width="1" stroke-dasharray="3,3" pointer-events="none"></line><line class="visx-line" x1="0" y1="49.28571428571429" x2="1450" y2="49.28571428571429" fill="transparent" shape-rendering="crispEdges" stroke="#000" stroke-width="1" stroke-dasharray="3,3" pointer-events="none"></line><line class="visx-line" x1="0" y1="16.428571428571434" x2="1450" y2="16.428571428571434" fill="transparent" shape-rendering="crispEdges" stroke="#000" stroke-width="1" stroke-dasharray="3,3" pointer-events="none"></line></g><path class="visx-linepath" d="M0,114.99999999996349C2.4166666666666665,114.99391534389405,4.833333333333334,114.9878306878246,7.25,114.98174603174603C9.666666666666666,114.97566137566746,12.083333333333334,114.96957671957672,14.5,114.96349206349207C16.916666666666668,114.95740740740742,19.333333333333332,114.95132275132275,21.75,114.9452380952381C24.166666666666668,114.93915343915344,26.583333333333332,114.93306878306878,29,114.92698412698412C31.416666666666668,114.92089947089947,33.833333333333336,114.91481481481482,36.25,114.90873015873017C38.666666666666664,114.90264550264551,41.083333333333336,114.89656084656085,43.5,114.89047619047619C45.91666666666667,114.88439153439154,48.333333333333336,114.87830687830689,50.75000000000001,114.87222222222223C53.16666666666667,114.86613756613758,55.583333333333336,114.8600529100529,58,114.85396825396825C60.416666666666664,114.8478835978836,62.833333333333336,114.84179894179894,65.25,114.83571428571429C67.66666666666667,114.82962962962964,70.08333333333333,114.82354497354497,72.5,114.81746031746032C74.91666666666667,114.81137566137566,77.33333333333333,114.80529100529101,79.75,114.79920634920636C82.16666666666667,114.7931216931217,84.58333333333333,114.78703703703704,87,114.78095238095239C89.41666666666667,114.77486772486773,91.83333333333333,114.76878306878307,94.25,114.76269841269841C96.66666666666667,114.75661375661376,99.08333333333334,114.75052910052909,101.50000000000001,114.74444444444444C103.91666666666667,114.73835978835979,106.33333333333334,114.73227513227513,108.75,114.72619047619048C111.16666666666667,114.72010582010583,113.58333333333333,114.71402116402116,116,114.70793650793651C118.41666666666667,114.70185185185186,120.83333333333334,114.6957671957672,123.25000000000001,114.68968253968255C125.66666666666667,114.6835978835979,128.08333333333334,114.67751322751322,130.5,114.67142857142856C132.91666666666666,114.66534391534391,135.33333333333334,114.65925925925926,137.75,114.6531746031746C140.16666666666666,114.64708994708995,142.58333333333334,114.64100529100529,145,114.63492063492063C147.41666666666666,114.62883597883598,149.83333333333334,114.62275132275133,152.25,114.61666666666667C154.66666666666666,114.61058201058202,157.08333333333334,114.60449735449734,159.5,114.59841269841269C161.91666666666666,114.59232804232803,164.33333333333334,114.58624338624338,166.75,114.58015873015873C169.16666666666666,114.57407407407408,171.58333333333334,114.56798941798941,174,114.56190476190476C176.41666666666666,114.5558201058201,178.83333333333334,114.54973544973545,181.25,114.5436507936508C183.66666666666666,114.53756613756615,186.08333333333334,114.53148148148148,188.5,114.52539682539683C190.91666666666666,114.51931216931217,193.33333333333334,114.5132275132275,195.75,114.50714285714285C198.16666666666669,114.5010582010582,200.58333333333334,114.49497354497353,203.00000000000003,114.48888888888888C205.41666666666669,114.48280423280423,207.83333333333331,114.47671957671957,210.24999999999997,114.47063492063492C212.66666666666666,114.46455026455027,215.08333333333331,114.4584656084656,217.5,114.45238095238095C219.91666666666666,114.4462962962963,222.33333333333334,114.44021164021164,224.75,114.43412698412699C227.16666666666666,114.42804232804234,229.58333333333334,114.42195767195766,232,114.415873015873C234.41666666666666,114.40978835978835,236.83333333333334,114.4037037037037,239.25,114.39761904761905C241.66666666666669,114.39153439153439,244.08333333333334,114.38544973544973,246.50000000000003,114.37936507936507C248.91666666666669,114.37328042328042,251.33333333333331,114.36719576719577,253.74999999999997,114.36111111111111C256.16666666666663,114.35502645502646,258.5833333333333,114.3489417989418,261,114.34285714285714C263.4166666666667,114.33677248677249,265.8333333333333,114.33068783068782,268.25,114.32460317460317C270.6666666666667,114.31851851851852,273.0833333333333,114.31243386243386,275.5,114.30634920634921C277.9166666666667,114.30026455026456,280.3333333333333,114.29417989417989,282.75,114.28809523809524C285.1666666666667,114.28201058201059,287.5833333333333,114.27592592592592,290,114.26984126984127C292.4166666666667,114.26375661375661,294.8333333333333,114.25767195767196,297.25,114.2515873015873C299.6666666666667,114.24550264550265,302.0833333333333,114.23941798941799,304.5,114.23333333333333C306.9166666666667,114.22724867724868,309.3333333333333,114.22116402116401,311.75,114.21507936507936C314.1666666666667,114.20899470899471,316.5833333333333,114.20291005291006,319,114.1968253968254C321.4166666666667,114.19074074074075,323.8333333333333,114.18465608465608,326.25,114.17857142857143C328.6666666666667,114.17248677248678,331.0833333333333,114.16640211640212,333.5,114.16031746031747C335.9166666666667,114.15423280423282,338.3333333333333,114.14814814814814,340.75,114.14206349206349C343.1666666666667,114.13597883597883,345.5833333333333,114.12989417989418,348,114.12380952380953C350.4166666666667,114.11772486772487,352.8333333333333,114.1116402116402,355.25,114.10555555555555C357.6666666666667,114.0994708994709,360.0833333333333,114.09338624338625,362.5,114.0873015873016C364.9166666666667,114.08121693121694,367.3333333333333,114.07513227513228,369.75,114.06904761904762C372.1666666666667,114.06296296296297,374.5833333333333,114.0568783068783,377,114.05079365079365C379.4166666666667,114.044708994709,381.8333333333333,114.03862433862433,384.25,114.03253968253968C386.6666666666667,114.02645502645503,389.0833333333333,114.02037037037037,391.5,114.01428571428572C393.9166666666667,114.00820105820107,396.33333333333337,114.0021164021164,398.75000000000006,113.99603174603175C401.16666666666674,113.9899470899471,403.58333333333337,113.98386243386244,406.00000000000006,113.97777777777779C408.4166666666667,113.97169312169314,410.8333333333333,113.96560846560845,413.24999999999994,113.9595238095238C415.66666666666663,113.95343915343915,418.08333333333326,113.9473544973545,420.49999999999994,113.94126984126984C422.91666666666663,113.93518518518519,425.3333333333333,113.92910052910052,427.75,113.92301587301587C430.1666666666667,113.91693121693122,432.5833333333333,113.91084656084657,435,113.90476190476191C437.4166666666667,113.89867724867726,439.8333333333333,113.89259259259258,442.25,113.88650793650793C444.6666666666667,113.88042328042327,447.0833333333333,113.87433862433862,449.5,113.86825396825397C451.9166666666667,113.86216931216931,454.3333333333333,113.85608465608465,456.75,113.85C459.1666666666667,113.84391534391534,461.5833333333333,113.83783068783069,464,113.83174603174604C466.4166666666667,113.82566137566138,468.8333333333333,113.81957671957672,471.25,113.81349206349206C473.6666666666667,113.80740740740741,476.0833333333333,113.80132275132274,478.5,113.79523809523809C480.9166666666667,113.78915343915344,483.33333333333337,113.78306878306877,485.75000000000006,113.77698412698412C488.16666666666674,113.77089947089947,490.58333333333337,113.76481481481481,493.00000000000006,113.75873015873016C495.4166666666667,113.7526455026455,497.8333333333333,113.74656084656084,500.24999999999994,113.74047619047619C502.66666666666663,113.73439153439153,505.08333333333326,113.72830687830688,507.49999999999994,113.72222222222223C509.91666666666663,113.71613756613758,512.3333333333333,113.7100529100529,514.75,113.70396825396824C517.1666666666666,113.69788359788359,519.5833333333334,113.69179894179894,522,113.68571428571428C524.4166666666666,113.67962962962963,526.8333333333334,113.67354497354496,529.25,113.66746031746031C531.6666666666666,113.66137566137566,534.0833333333334,113.655291005291,536.5,113.64920634920635C538.9166666666666,113.6431216931217,541.3333333333334,113.63703703703703,543.75,113.63095238095238C546.1666666666666,113.62486772486773,548.5833333333334,113.61878306878306,551,113.6126984126984C553.4166666666666,113.60661375661375,555.8333333333334,113.6005291005291,558.25,113.59444444444445C560.6666666666666,113.5883597883598,563.0833333333334,113.58227513227513,565.5,113.57619047619048C567.9166666666666,113.57010582010582,570.3333333333334,113.56402116402117,572.75,113.55793650793652C575.1666666666666,113.55185185185186,577.5833333333334,113.5457671957672,580,113.53968253968254C582.4166666666666,113.53359788359789,584.8333333333334,113.52751322751323,587.25,113.52142857142857C589.6666666666666,113.51534391534392,592.0833333333334,113.50925925925925,594.5,113.5031746031746C596.9166666666666,113.49708994708995,599.3333333333334,113.4910052910053,601.75,113.48492063492064C604.1666666666666,113.47883597883599,606.5833333333334,113.47275132275132,609,113.46666666666667C611.4166666666666,113.46058201058202,613.8333333333334,113.45449735449736,616.25,113.44841269841271C618.6666666666666,113.44232804232806,621.0833333333334,113.43624338624338,623.5,113.43015873015872C625.9166666666666,113.42407407407407,628.3333333333334,113.41798941798942,630.75,113.41190476190476C633.1666666666666,113.40582010582011,635.5833333333334,113.39973544973545,638,113.39365079365079C640.4166666666666,113.38756613756614,642.8333333333334,113.38148148148149,645.25,113.37539682539683C647.6666666666666,113.36931216931218,650.0833333333334,113.36931216931218,652.5,113.35714285714286C654.9166666666666,113.34497354497354,657.3333333333334,112.75974025974027,659.75,112.46103896103897C662.1666666666666,112.16233766233766,664.5833333333334,111.86363636363637,667,111.56493506493507C669.4166666666666,111.26623376623377,671.8333333333334,110.96753246753248,674.25,110.66883116883118C676.6666666666666,110.37012987012987,679.0833333333334,110.07142857142858,681.5,109.77272727272728C683.9166666666666,109.47402597402598,686.3333333333334,109.17532467532469,688.75,108.87662337662339C691.1666666666666,108.57792207792208,693.5833333333334,108.2792207792208,696,107.98051948051949C698.4166666666666,107.68181818181819,700.8333333333334,107.3831168831169,703.25,107.0844155844156C705.6666666666666,106.78571428571429,708.0833333333334,106.48701298701299,710.5,106.18831168831169C712.9166666666666,105.88961038961038,715.3333333333334,105.5909090909091,717.75,105.29220779220779C720.1666666666666,104.99350649350649,722.5833333333334,104.6948051948052,725,104.3961038961039C727.4166666666666,104.09740259740259,729.8333333333334,103.7987012987013,732.25,103.5C734.6666666666666,103.2012987012987,737.0833333333334,102.90259740259741,739.5,102.6038961038961C741.9166666666666,102.3051948051948,744.3333333333334,102.00649350649351,746.75,101.70779220779221C749.1666666666666,101.4090909090909,751.5833333333334,101.11038961038962,754,100.81168831168831C756.4166666666666,100.51298701298701,758.8333333333334,100.21428571428572,761.25,99.91558441558442C763.6666666666666,99.61688311688312,766.0833333333334,99.31818181818183,768.5,99.01948051948052C770.9166666666666,98.72077922077922,773.3333333333334,98.42207792207793,775.75,98.12337662337663C778.1666666666666,97.82467532467533,780.5833333333334,97.52597402597404,783,97.22727272727273C785.4166666666667,96.92857142857143,787.8333333333334,96.62987012987013,790.2500000000001,96.33116883116882C792.6666666666667,96.03246753246752,795.0833333333335,95.73376623376623,797.5000000000001,95.43506493506493C799.9166666666667,95.13636363636363,802.3333333333335,94.83766233766234,804.7500000000001,94.53896103896103C807.1666666666667,94.24025974025973,809.5833333333335,93.94155844155844,812.0000000000001,93.64285714285714C814.4166666666667,93.34415584415585,816.8333333333333,93.04545454545453,819.2499999999999,92.74675324675324C821.6666666666665,92.44805194805194,824.0833333333333,92.14935064935065,826.4999999999999,91.85064935064935C828.9166666666665,91.55194805194805,831.3333333333333,91.25324675324676,833.7499999999999,90.95454545454545C836.1666666666665,90.65584415584415,838.5833333333333,90.35714285714286,840.9999999999999,90.05844155844156C843.4166666666666,89.75974025974025,845.8333333333333,89.46103896103897,848.25,89.16233766233766C850.6666666666666,88.86363636363637,853.0833333333334,88.56493506493507,855.5,88.26623376623377C857.9166666666666,87.96753246753246,860.3333333333334,87.66883116883118,862.75,87.37012987012987C865.1666666666666,87.07142857142857,867.5833333333334,86.77272727272728,870,86.47402597402598C872.4166666666666,86.17532467532467,874.8333333333334,85.87662337662337,877.25,85.57792207792207C879.6666666666666,85.27922077922076,882.0833333333334,84.98051948051946,884.5,84.68181818181817C886.9166666666666,84.38311688311688,889.3333333333334,84.0844155844156,891.75,83.78571428571429C894.1666666666666,83.48701298701299,896.5833333333334,83.18831168831169,899,82.88961038961038C901.4166666666666,82.59090909090908,903.8333333333334,82.29220779220779,906.25,81.99350649350649C908.6666666666666,81.69480519480518,911.0833333333334,81.39610389610388,913.5,81.09740259740259C915.9166666666666,80.7987012987013,918.3333333333334,80.50000000000001,920.75,80.20129870129871C923.1666666666666,79.90259740259741,925.5833333333334,79.6038961038961,928,79.3051948051948C930.4166666666666,79.0064935064935,932.8333333333334,78.70779220779222,935.25,78.40909090909092C937.6666666666666,78.11038961038962,940.0833333333334,77.81168831168831,942.5,77.51298701298701C944.9166666666666,77.21428571428571,947.3333333333334,76.91558441558442,949.75,76.61688311688312C952.1666666666666,76.31818181818181,954.5833333333334,76.01948051948052,957,75.72077922077922C959.4166666666666,75.42207792207792,961.8333333333334,75.12337662337663,964.25,74.82467532467533C966.6666666666667,74.52597402597402,969.0833333333334,74.22727272727272,971.5000000000001,73.92857142857142C973.9166666666667,73.62987012987011,976.3333333333335,73.33116883116882,978.7500000000001,73.03246753246754C981.1666666666667,72.73376623376625,983.5833333333335,72.43506493506494,986.0000000000001,72.13636363636364C988.4166666666667,71.83766233766234,990.8333333333335,71.53896103896105,993.2500000000001,71.24025974025975C995.6666666666667,70.94155844155844,998.0833333333333,70.64285714285714,1000.4999999999999,70.34415584415584C1002.9166666666665,70.04545454545453,1005.3333333333333,69.74675324675323,1007.7499999999999,69.44805194805194C1010.1666666666665,69.14935064935065,1012.5833333333333,68.85064935064935,1014.9999999999999,68.55194805194806C1017.4166666666665,68.25324675324677,1019.8333333333333,67.95454545454547,1022.2499999999999,67.65584415584416C1024.6666666666665,67.35714285714286,1027.0833333333333,67.05844155844157,1029.5,66.75974025974027C1031.9166666666667,66.46103896103897,1034.3333333333333,66.16233766233766,1036.75,65.86363636363636C1039.1666666666667,65.56493506493506,1041.5833333333333,65.26623376623375,1044,64.96753246753245C1046.4166666666667,64.66883116883115,1048.8333333333333,64.37012987012987,1051.25,64.07142857142857C1053.6666666666667,63.77272727272727,1056.0833333333333,63.47402597402596,1058.5,63.17532467532467C1060.9166666666667,62.87662337662337,1063.3333333333333,62.577922077922075,1065.75,62.27922077922078C1068.1666666666667,61.98051948051948,1070.5833333333333,61.68181818181818,1073,61.383116883116884C1075.4166666666667,61.08441558441559,1077.8333333333333,60.785714285714285,1080.25,60.48701298701299C1082.6666666666667,60.18831168831169,1085.0833333333333,59.88961038961039,1087.5,59.59090909090909C1089.9166666666667,59.2922077922078,1092.3333333333333,58.993506493506494,1094.75,58.6948051948052C1097.1666666666667,58.3961038961039,1099.5833333333333,58.09740259740259,1102,57.798701298701296C1104.4166666666667,57.5,1106.8333333333333,57.2012987012987,1109.25,56.9025974025974C1111.6666666666667,56.603896103896105,1114.0833333333333,56.3051948051948,1116.5,56.006493506493506C1118.9166666666667,55.70779220779221,1121.3333333333333,55.40909090909091,1123.75,55.11038961038961C1126.1666666666667,54.811688311688314,1128.5833333333333,54.51298701298701,1131,54.214285714285715C1133.4166666666667,53.91558441558442,1135.8333333333333,53.616883116883116,1138.25,53.31818181818182C1140.6666666666667,53.019480519480524,1143.0833333333333,52.720779220779214,1145.5,52.42207792207792C1147.9166666666667,52.12337662337662,1150.3333333333333,51.82467532467532,1152.75,51.52597402597402C1155.1666666666667,51.22727272727273,1157.5833333333333,50.92857142857142,1160,50.62987012987013C1162.4166666666667,50.33116883116883,1164.8333333333333,50.03246753246753,1167.25,49.73376623376623C1169.6666666666667,49.435064935064936,1172.0833333333333,49.13636363636363,1174.5,48.83766233766234C1176.9166666666667,48.53896103896104,1179.3333333333333,48.24025974025974,1181.75,47.94155844155844C1184.1666666666667,47.642857142857146,1186.5833333333333,47.344155844155836,1189,47.04545454545454C1191.4166666666667,46.746753246753244,1193.8333333333333,46.448051948051955,1196.25,46.14935064935066C1198.6666666666667,45.85064935064936,1201.0833333333333,45.55194805194807,1203.5,45.25324675324676C1205.9166666666667,44.95454545454546,1208.3333333333333,44.65584415584415,1210.75,44.357142857142854C1213.1666666666667,44.05844155844156,1215.5833333333333,43.75974025974026,1218,43.461038961038966C1220.4166666666667,43.16233766233767,1222.8333333333333,42.86363636363636,1225.25,42.56493506493506C1227.6666666666667,42.26623376623375,1230.0833333333333,41.96753246753246,1232.5,41.66883116883116C1234.9166666666667,41.370129870129865,1237.3333333333333,41.07142857142856,1239.75,40.772727272727266C1242.1666666666667,40.47402597402597,1244.5833333333333,40.17532467532468,1247,39.876623376623385C1249.4166666666667,39.57792207792209,1251.8333333333333,39.27922077922079,1254.25,38.98051948051949C1256.6666666666667,38.68181818181819,1259.0833333333333,38.38311688311688,1261.5,38.08441558441558C1263.9166666666667,37.785714285714285,1266.3333333333333,37.48701298701299,1268.75,37.18831168831169C1271.1666666666667,36.8896103896104,1273.5833333333333,36.590909090909086,1276,36.29220779220778C1278.4166666666667,35.99350649350648,1280.8333333333333,35.694805194805184,1283.25,35.39610389610389C1285.6666666666667,35.09740259740259,1288.0833333333333,34.79870129870129,1290.5,34.49999999999999C1292.9166666666667,34.2012987012987,1295.3333333333333,33.90259740259741,1297.75,33.60389610389611C1300.1666666666667,33.305194805194816,1302.5833333333333,33.006493506493506,1305,32.70779220779221C1307.4166666666667,32.409090909090914,1309.8333333333333,32.11038961038961,1312.25,31.811688311688314C1314.6666666666667,31.512987012987015,1317.0833333333333,31.21428571428572,1319.5,30.91558441558442C1321.9166666666667,30.61688311688312,1324.3333333333333,30.318181818181824,1326.75,30.019480519480524C1329.1666666666667,29.720779220779225,1331.5833333333333,29.422077922077914,1334,29.123376623376615C1336.4166666666667,28.824675324675315,1338.8333333333333,28.525974025974012,1341.25,28.227272727272716C1343.6666666666667,27.92857142857142,1346.0833333333333,27.629870129870127,1348.5,27.331168831168835C1350.9166666666667,27.032467532467543,1353.3333333333333,26.73376623376625,1355.75,26.43506493506495C1358.1666666666667,26.13636363636365,1360.5833333333333,25.83766233766234,1363,25.53896103896104C1365.4166666666667,25.24025974025974,1367.8333333333333,24.941558441558445,1370.25,24.642857142857146C1372.6666666666667,24.344155844155846,1375.0833333333333,24.045454545454536,1377.5,23.746753246753237C1379.9166666666667,23.448051948051937,1382.3333333333333,23.149350649350634,1384.75,22.850649350649338C1387.1666666666667,22.55194805194804,1389.5833333333333,22.25324675324675,1392,21.954545454545457C1394.4166666666667,21.655844155844164,1396.8333333333333,21.357142857142872,1399.25,21.058441558441572C1401.6666666666667,20.759740259740273,1404.0833333333333,20.461038961038962,1406.5,20.162337662337663C1408.9166666666667,19.863636363636363,1411.3333333333333,19.564935064935064,1413.75,19.266233766233768C1416.1666666666667,18.96753246753247,1418.5833333333333,18.668831168831183,1421,18.370129870129883C1423.4166666666667,18.071428571428584,1425.8333333333333,17.772727272727273,1428.25,17.474025974025974C1430.6666666666667,17.175324675324674,1433.0833333333333,16.876623376623378,1435.5,16.57792207792208C1437.9166666666667,16.27922077922078,1440.3333333333333,15.980519480519467,1442.75,15.681818181818167C1445.1666666666667,15.383116883116868,1447.5833333333333,15.084415584415577,1450,14.785714285714285" fill="transparent" stroke-linecap="round" stroke="#B6509E" stroke-width="2"></path><path class="visx-linepath" d="M0,113.02857142854222C2.4166666666666665,113.02370370368666,4.833333333333334,113.0188359788311,7.25,113.01396825396824C9.666666666666666,113.00910052910538,12.083333333333334,113.0042328042328,14.5,112.99936507936508C16.916666666666668,112.99449735449735,19.333333333333332,112.98962962962963,21.75,112.98476190476191C24.166666666666668,112.97989417989419,26.583333333333332,112.97502645502645,29,112.97015873015873C31.416666666666668,112.96529100529101,33.833333333333336,112.96042328042327,36.25,112.95555555555555C38.666666666666664,112.95068783068783,41.083333333333336,112.9458201058201,43.5,112.94095238095238C45.91666666666667,112.93608465608466,48.333333333333336,112.93121693121692,50.75000000000001,112.9263492063492C53.16666666666667,112.92148148148148,55.583333333333336,112.91661375661376,58,112.91174603174603C60.416666666666664,112.90687830687831,62.833333333333336,112.90201058201059,65.25,112.89714285714287C67.66666666666667,112.89227513227515,70.08333333333333,112.88740740740741,72.5,112.88253968253969C74.91666666666667,112.87767195767196,77.33333333333333,112.87280423280423,79.75,112.8679365079365C82.16666666666667,112.86306878306878,84.58333333333333,112.85820105820106,87,112.85333333333334C89.41666666666667,112.84846560846562,91.83333333333333,112.84359788359788,94.25,112.83873015873016C96.66666666666667,112.83386243386244,99.08333333333334,112.82899470899471,101.50000000000001,112.82412698412699C103.91666666666667,112.81925925925927,106.33333333333334,112.81439153439153,108.75,112.80952380952381C111.16666666666667,112.80465608465609,113.58333333333333,112.79978835978835,116,112.79492063492063C118.41666666666667,112.7900529100529,120.83333333333334,112.78518518518518,123.25000000000001,112.78031746031746C125.66666666666667,112.77544973544974,128.08333333333334,112.770582010582,130.5,112.76571428571428C132.91666666666666,112.76084656084656,135.33333333333334,112.75597883597884,137.75,112.75111111111111C140.16666666666666,112.74624338624339,142.58333333333334,112.74137566137567,145,112.73650793650795C147.41666666666666,112.73164021164023,149.83333333333334,112.72677248677248,152.25,112.72190476190475C154.66666666666666,112.71703703703703,157.08333333333334,112.71216931216931,159.5,112.70730158730159C161.91666666666666,112.70243386243386,164.33333333333334,112.69756613756613,166.75,112.6926984126984C169.16666666666666,112.68783068783068,171.58333333333334,112.68296296296296,174,112.67809523809524C176.41666666666666,112.67322751322752,178.83333333333334,112.6683597883598,181.25,112.66349206349207C183.66666666666666,112.65862433862435,186.08333333333334,112.65375661375661,188.5,112.64888888888889C190.91666666666666,112.64402116402117,193.33333333333334,112.63915343915343,195.75,112.63428571428571C198.16666666666669,112.62941798941799,200.58333333333334,112.62455026455027,203.00000000000003,112.61968253968254C205.41666666666669,112.61481481481482,207.83333333333331,112.60994708994708,210.24999999999997,112.60507936507936C212.66666666666666,112.60021164021164,215.08333333333331,112.59534391534392,217.5,112.5904761904762C219.91666666666666,112.58560846560847,222.33333333333334,112.58074074074074,224.75,112.57587301587301C227.16666666666666,112.57100529100529,229.58333333333334,112.56613756613756,232,112.56126984126983C234.41666666666666,112.55640211640211,236.83333333333334,112.55153439153439,239.25,112.54666666666667C241.66666666666669,112.54179894179894,244.08333333333334,112.53693121693121,246.50000000000003,112.53206349206349C248.91666666666669,112.52719576719576,251.33333333333331,112.52232804232804,253.74999999999997,112.51746031746032C256.16666666666663,112.5125925925926,258.5833333333333,112.50772486772487,261,112.50285714285715C263.4166666666667,112.49798941798943,265.8333333333333,112.49312169312168,268.25,112.48825396825396C270.6666666666667,112.48338624338624,273.0833333333333,112.47851851851851,275.5,112.47365079365079C277.9166666666667,112.46878306878307,280.3333333333333,112.46391534391535,282.75,112.45904761904762C285.1666666666667,112.4541798941799,287.5833333333333,112.44931216931217,290,112.44444444444444C292.4166666666667,112.43957671957672,294.8333333333333,112.434708994709,297.25,112.42984126984128C299.6666666666667,112.42497354497355,302.0833333333333,112.42010582010582,304.5,112.4152380952381C306.9166666666667,112.41037037037037,309.3333333333333,112.40550264550264,311.75,112.40063492063491C314.1666666666667,112.39576719576719,316.5833333333333,112.39089947089947,319,112.38603174603175C321.4166666666667,112.38116402116403,323.8333333333333,112.37629629629629,326.25,112.37142857142857C328.6666666666667,112.36656084656084,331.0833333333333,112.36169312169312,333.5,112.3568253968254C335.9166666666667,112.35195767195768,338.3333333333333,112.34708994708994,340.75,112.34222222222222C343.1666666666667,112.3373544973545,345.5833333333333,112.33248677248676,348,112.32761904761904C350.4166666666667,112.32275132275132,352.8333333333333,112.3178835978836,355.25,112.31301587301587C357.6666666666667,112.30814814814815,360.0833333333333,112.30328042328043,362.5,112.2984126984127C364.9166666666667,112.29354497354498,367.3333333333333,112.28867724867725,369.75,112.28380952380952C372.1666666666667,112.2789417989418,374.5833333333333,112.27407407407408,377,112.26920634920636C379.4166666666667,112.26433862433863,381.8333333333333,112.2594708994709,384.25,112.25460317460318C386.6666666666667,112.24973544973545,389.0833333333333,112.24486772486772,391.5,112.24C393.9166666666667,112.23513227513227,396.33333333333337,112.23026455026455,398.75000000000006,112.22539682539683C401.16666666666674,112.2205291005291,403.58333333333337,112.21566137566137,406.00000000000006,112.21079365079365C408.4166666666667,112.20592592592592,410.8333333333333,112.2010582010582,413.24999999999994,112.19619047619048C415.66666666666663,112.19132275132276,418.08333333333326,112.18645502645502,420.49999999999994,112.1815873015873C422.91666666666663,112.17671957671958,425.3333333333333,112.17185185185184,427.75,112.16698412698412C430.1666666666667,112.1621164021164,432.5833333333333,112.15724867724867,435,112.15238095238095C437.4166666666667,112.14751322751323,439.8333333333333,112.14264550264551,442.25,112.13777777777779C444.6666666666667,112.13291005291006,447.0833333333333,112.12804232804233,449.5,112.1231746031746C451.9166666666667,112.11830687830688,454.3333333333333,112.11343915343915,456.75,112.10857142857142C459.1666666666667,112.1037037037037,461.5833333333333,112.09883597883598,464,112.09396825396826C466.4166666666667,112.08910052910053,468.8333333333333,112.0842328042328,471.25,112.07936507936508C473.6666666666667,112.07449735449735,476.0833333333333,112.06962962962963,478.5,112.06476190476191C480.9166666666667,112.05989417989419,483.33333333333337,112.05502645502645,485.75000000000006,112.05015873015873C488.16666666666674,112.045291005291,490.58333333333337,112.04042328042328,493.00000000000006,112.03555555555556C495.4166666666667,112.03068783068784,497.8333333333333,112.0258201058201,500.24999999999994,112.02095238095238C502.66666666666663,112.01608465608466,505.08333333333326,112.01121693121692,507.49999999999994,112.0063492063492C509.91666666666663,112.00148148148148,512.3333333333333,111.99661375661375,514.75,111.99174603174603C517.1666666666666,111.98687830687831,519.5833333333334,111.98201058201059,522,111.97714285714287C524.4166666666666,111.97227513227514,526.8333333333334,111.9674074074074,529.25,111.96253968253968C531.6666666666666,111.95767195767196,534.0833333333334,111.95280423280423,536.5,111.9479365079365C538.9166666666666,111.94306878306878,541.3333333333334,111.93820105820106,543.75,111.93333333333334C546.1666666666666,111.92846560846561,548.5833333333334,111.92359788359788,551,111.91873015873016C553.4166666666666,111.91386243386243,555.8333333333334,111.90899470899471,558.25,111.90412698412699C560.6666666666666,111.89925925925927,563.0833333333334,111.89439153439153,565.5,111.88952380952381C567.9166666666666,111.88465608465609,570.3333333333334,111.87978835978835,572.75,111.87492063492063C575.1666666666666,111.8700529100529,577.5833333333334,111.86518518518518,580,111.86031746031746C582.4166666666666,111.85544973544974,584.8333333333334,111.850582010582,587.25,111.84571428571428C589.6666666666666,111.84084656084656,592.0833333333334,111.83597883597884,594.5,111.83111111111111C596.9166666666666,111.82624338624339,599.3333333333334,111.82137566137567,601.75,111.81650793650795C604.1666666666666,111.81164021164022,606.5833333333334,111.80677248677249,609,111.80190476190477C611.4166666666666,111.79703703703704,613.8333333333334,111.7921693121693,616.25,111.78730158730158C618.6666666666666,111.78243386243386,621.0833333333334,111.77756613756614,623.5,111.77269841269842C625.9166666666666,111.7678306878307,628.3333333333334,111.76296296296296,630.75,111.75809523809524C633.1666666666666,111.75322751322751,635.5833333333334,111.74835978835979,638,111.74349206349207C640.4166666666666,111.73862433862435,642.8333333333334,111.73375661375661,645.25,111.72888888888889C647.6666666666666,111.72402116402117,650.0833333333334,111.72402116402117,652.5,111.71428571428571C654.9166666666666,111.70455026455025,657.3333333333334,111.56493506493507,659.75,111.49025974025975C662.1666666666666,111.41558441558442,664.5833333333334,111.3409090909091,667,111.26623376623377C669.4166666666666,111.19155844155844,671.8333333333334,111.11688311688312,674.25,111.04220779220779C676.6666666666666,110.96753246753246,679.0833333333334,110.89285714285714,681.5,110.81818181818181C683.9166666666666,110.74350649350649,686.3333333333334,110.66883116883118,688.75,110.59415584415585C691.1666666666666,110.51948051948052,693.5833333333334,110.4448051948052,696,110.37012987012987C698.4166666666666,110.29545454545455,700.8333333333334,110.22077922077922,703.25,110.1461038961039C705.6666666666666,110.07142857142857,708.0833333333334,109.99675324675324,710.5,109.92207792207792C712.9166666666666,109.84740259740259,715.3333333333334,109.77272727272728,717.75,109.69805194805195C720.1666666666666,109.62337662337663,722.5833333333334,109.5487012987013,725,109.47402597402598C727.4166666666666,109.39935064935065,729.8333333333334,109.32467532467533,732.25,109.25C734.6666666666666,109.17532467532467,737.0833333333334,109.10064935064935,739.5,109.02597402597402C741.9166666666666,108.9512987012987,744.3333333333334,108.87662337662339,746.75,108.80194805194806C749.1666666666666,108.72727272727273,751.5833333333334,108.65259740259741,754,108.57792207792208C756.4166666666666,108.50324675324676,758.8333333333334,108.42857142857143,761.25,108.3538961038961C763.6666666666666,108.27922077922078,766.0833333333334,108.20454545454545,768.5,108.12987012987013C770.9166666666666,108.0551948051948,773.3333333333334,107.98051948051948,775.75,107.90584415584415C778.1666666666666,107.83116883116882,780.5833333333334,107.75649350649351,783,107.68181818181819C785.4166666666667,107.60714285714286,787.8333333333334,107.53246753246752,790.2500000000001,107.4577922077922C792.6666666666667,107.38311688311687,795.0833333333335,107.30844155844156,797.5000000000001,107.23376623376623C799.9166666666667,107.1590909090909,802.3333333333335,107.08441558441558,804.7500000000001,107.00974025974025C807.1666666666667,106.93506493506493,809.5833333333335,106.86038961038962,812.0000000000001,106.78571428571429C814.4166666666667,106.71103896103897,816.8333333333333,106.63636363636363,819.2499999999999,106.5616883116883C821.6666666666665,106.48701298701297,824.0833333333333,106.41233766233766,826.4999999999999,106.33766233766234C828.9166666666665,106.26298701298701,831.3333333333333,106.18831168831169,833.7499999999999,106.11363636363636C836.1666666666665,106.03896103896103,838.5833333333333,105.96428571428572,840.9999999999999,105.8896103896104C843.4166666666666,105.81493506493507,845.8333333333333,105.74025974025973,848.25,105.6655844155844C850.6666666666666,105.59090909090908,853.0833333333334,105.51623376623377,855.5,105.44155844155844C857.9166666666666,105.36688311688312,860.3333333333334,105.29220779220779,862.75,105.21753246753246C865.1666666666666,105.14285714285714,867.5833333333334,105.06818181818183,870,104.9935064935065C872.4166666666666,104.91883116883118,874.8333333333334,104.84415584415585,877.25,104.76948051948052C879.6666666666666,104.6948051948052,882.0833333333334,104.62012987012987,884.5,104.54545454545455C886.9166666666666,104.47077922077922,889.3333333333334,104.3961038961039,891.75,104.32142857142857C894.1666666666666,104.24675324675324,896.5833333333334,104.17207792207793,899,104.0974025974026C901.4166666666666,104.02272727272728,903.8333333333334,103.94805194805195,906.25,103.87337662337663C908.6666666666666,103.7987012987013,911.0833333333334,103.72402597402598,913.5,103.64935064935065C915.9166666666666,103.57467532467533,918.3333333333334,103.5,920.75,103.42532467532467C923.1666666666666,103.35064935064935,925.5833333333334,103.27597402597402,928,103.2012987012987C930.4166666666666,103.12662337662337,932.8333333333334,103.05194805194806,935.25,102.97727272727273C937.6666666666666,102.90259740259741,940.0833333333334,102.82792207792207,942.5,102.75324675324674C944.9166666666666,102.67857142857142,947.3333333333334,102.6038961038961,949.75,102.52922077922078C952.1666666666666,102.45454545454545,954.5833333333334,102.37987012987013,957,102.3051948051948C959.4166666666666,102.23051948051948,961.8333333333334,102.15584415584415,964.25,102.08116883116882C966.6666666666667,102.0064935064935,969.0833333333334,101.93181818181817,971.5000000000001,101.85714285714285C973.9166666666667,101.78246753246752,976.3333333333335,101.70779220779221,978.7500000000001,101.63311688311688C981.1666666666667,101.55844155844156,983.5833333333335,101.48376623376623,986.0000000000001,101.4090909090909C988.4166666666667,101.33441558441558,990.8333333333335,101.25974025974027,993.2500000000001,101.18506493506494C995.6666666666667,101.11038961038962,998.0833333333333,101.03571428571428,1000.4999999999999,100.96103896103895C1002.9166666666665,100.88636363636363,1005.3333333333333,100.81168831168831,1007.7499999999999,100.73701298701299C1010.1666666666665,100.66233766233766,1012.5833333333333,100.58766233766234,1014.9999999999999,100.51298701298701C1017.4166666666665,100.43831168831169,1019.8333333333333,100.36363636363636,1022.2499999999999,100.28896103896103C1024.6666666666665,100.21428571428571,1027.0833333333333,100.13961038961038,1029.5,100.06493506493506C1031.9166666666667,99.99025974025973,1034.3333333333333,99.91558441558442,1036.75,99.8409090909091C1039.1666666666667,99.76623376623377,1041.5833333333333,99.69155844155844,1044,99.61688311688312C1046.4166666666667,99.54220779220779,1048.8333333333333,99.46753246753248,1051.25,99.39285714285715C1053.6666666666667,99.31818181818183,1056.0833333333333,99.2435064935065,1058.5,99.16883116883118C1060.9166666666667,99.09415584415585,1063.3333333333333,99.01948051948052,1065.75,98.9448051948052C1068.1666666666667,98.87012987012987,1070.5833333333333,98.79545454545455,1073,98.72077922077922C1075.4166666666667,98.6461038961039,1077.8333333333333,98.57142857142857,1080.25,98.49675324675324C1082.6666666666667,98.42207792207792,1085.0833333333333,98.34740259740259,1087.5,98.27272727272727C1089.9166666666667,98.19805194805194,1092.3333333333333,98.12337662337663,1094.75,98.0487012987013C1097.1666666666667,97.97402597402598,1099.5833333333333,97.89935064935065,1102,97.82467532467533C1104.4166666666667,97.75,1106.8333333333333,97.67532467532467,1109.25,97.60064935064935C1111.6666666666667,97.52597402597402,1114.0833333333333,97.4512987012987,1116.5,97.37662337662337C1118.9166666666667,97.30194805194805,1121.3333333333333,97.22727272727272,1123.75,97.1525974025974C1126.1666666666667,97.07792207792207,1128.5833333333333,97.00324675324676,1131,96.92857142857143C1133.4166666666667,96.8538961038961,1135.8333333333333,96.77922077922078,1138.25,96.70454545454545C1140.6666666666667,96.62987012987013,1143.0833333333333,96.5551948051948,1145.5,96.48051948051948C1147.9166666666667,96.40584415584415,1150.3333333333333,96.33116883116882,1152.75,96.2564935064935C1155.1666666666667,96.18181818181817,1157.5833333333333,96.10714285714286,1160,96.03246753246754C1162.4166666666667,95.95779220779221,1164.8333333333333,95.88311688311688,1167.25,95.80844155844156C1169.6666666666667,95.73376623376623,1172.0833333333333,95.65909090909092,1174.5,95.5844155844156C1176.9166666666667,95.50974025974027,1179.3333333333333,95.43506493506493,1181.75,95.3603896103896C1184.1666666666667,95.28571428571428,1186.5833333333333,95.21103896103897,1189,95.13636363636364C1191.4166666666667,95.06168831168831,1193.8333333333333,94.98701298701299,1196.25,94.91233766233766C1198.6666666666667,94.83766233766234,1201.0833333333333,94.76298701298703,1203.5,94.6883116883117C1205.9166666666667,94.61363636363637,1208.3333333333333,94.53896103896103,1210.75,94.46428571428571C1213.1666666666667,94.38961038961038,1215.5833333333333,94.31493506493507,1218,94.24025974025975C1220.4166666666667,94.16558441558442,1222.8333333333333,94.0909090909091,1225.25,94.01623376623377C1227.6666666666667,93.94155844155844,1230.0833333333333,93.86688311688313,1232.5,93.7922077922078C1234.9166666666667,93.71753246753248,1237.3333333333333,93.64285714285715,1239.75,93.56818181818183C1242.1666666666667,93.4935064935065,1244.5833333333333,93.41883116883118,1247,93.34415584415585C1249.4166666666667,93.26948051948052,1251.8333333333333,93.1948051948052,1254.25,93.12012987012987C1256.6666666666667,93.04545454545455,1259.0833333333333,92.97077922077922,1261.5,92.8961038961039C1263.9166666666667,92.82142857142857,1266.3333333333333,92.74675324675324,1268.75,92.67207792207792C1271.1666666666667,92.59740259740259,1273.5833333333333,92.52272727272727,1276,92.44805194805194C1278.4166666666667,92.37337662337661,1280.8333333333333,92.2987012987013,1283.25,92.22402597402598C1285.6666666666667,92.14935064935065,1288.0833333333333,92.07467532467533,1290.5,92C1292.9166666666667,91.92532467532467,1295.3333333333333,91.85064935064936,1297.75,91.77597402597404C1300.1666666666667,91.70129870129871,1302.5833333333333,91.62662337662337,1305,91.55194805194805C1307.4166666666667,91.47727272727272,1309.8333333333333,91.40259740259741,1312.25,91.32792207792208C1314.6666666666667,91.25324675324676,1317.0833333333333,91.17857142857142,1319.5,91.10389610389609C1321.9166666666667,91.02922077922076,1324.3333333333333,90.95454545454545,1326.75,90.87987012987013C1329.1666666666667,90.8051948051948,1331.5833333333333,90.73051948051948,1334,90.65584415584415C1336.4166666666667,90.58116883116882,1338.8333333333333,90.50649350649351,1341.25,90.43181818181819C1343.6666666666667,90.35714285714286,1346.0833333333333,90.28246753246754,1348.5,90.20779220779221C1350.9166666666667,90.13311688311688,1353.3333333333333,90.05844155844156,1355.75,89.98376623376623C1358.1666666666667,89.9090909090909,1360.5833333333333,89.83441558441558,1363,89.75974025974025C1365.4166666666667,89.68506493506493,1367.8333333333333,89.61038961038962,1370.25,89.53571428571429C1372.6666666666667,89.46103896103897,1375.0833333333333,89.38636363636363,1377.5,89.3116883116883C1379.9166666666667,89.23701298701297,1382.3333333333333,89.16233766233766,1384.75,89.08766233766234C1387.1666666666667,89.01298701298701,1389.5833333333333,88.93831168831169,1392,88.86363636363636C1394.4166666666667,88.78896103896103,1396.8333333333333,88.71428571428572,1399.25,88.6396103896104C1401.6666666666667,88.56493506493507,1404.0833333333333,88.49025974025975,1406.5,88.41558441558442C1408.9166666666667,88.3409090909091,1411.3333333333333,88.26623376623377,1413.75,88.19155844155844C1416.1666666666667,88.11688311688312,1418.5833333333333,88.04220779220779,1421,87.96753246753246C1423.4166666666667,87.89285714285714,1425.8333333333333,87.81818181818181,1428.25,87.74350649350649C1430.6666666666667,87.66883116883116,1433.0833333333333,87.59415584415585,1435.5,87.51948051948052C1437.9166666666667,87.4448051948052,1440.3333333333333,87.37012987012986,1442.75,87.29545454545453C1445.1666666666667,87.2207792207792,1447.5833333333333,87.14610389610388,1450,87.07142857142857" fill="transparent" stroke-linecap="round" stroke="#E7C6DF" stroke-width="2"></path><g class="visx-group visx-axis visx-axis-bottom" transform="translate(0, 115)"><g class="visx-group visx-axis-tick" transform="translate(0, 0)"><line class="visx-line" x1="0" y1="0" x2="0" y2="8" fill="transparent" shape-rendering="crispEdges" stroke="#000" stroke-width="0" stroke-linecap="square"></line><svg x="0" y="0" font-size="10" style="overflow:visible"><text transform="" x="0" y="18" fill="#000" font-size="10" text-anchor="middle"><tspan x="0" dy="0em">0%</tspan></text></svg></g><g class="visx-group visx-axis-tick" transform="translate(0, 0)"><line class="visx-line" x1="362.5" y1="0" x2="362.5" y2="8" fill="transparent" shape-rendering="crispEdges" stroke="#000" stroke-width="0" stroke-linecap="square"></line><svg x="0" y="0" font-size="10" style="overflow:visible"><text transform="" x="362.5" y="18" fill="#000" font-size="10" text-anchor="middle"><tspan x="362.5" dy="0em">25%</tspan></text></svg></g><g class="visx-group visx-axis-tick" transform="translate(0, 0)"><line class="visx-line" x1="725" y1="0" x2="725" y2="8" fill="transparent" shape-rendering="crispEdges" stroke="#000" stroke-width="0" stroke-linecap="square"></line><svg x="0" y="0" font-size="10" style="overflow:visible"><text transform="" x="725" y="18" fill="#000" font-size="10" text-anchor="middle"><tspan x="725" dy="0em">50%</tspan></text></svg></g><g class="visx-group visx-axis-tick" transform="translate(0, 0)"><line class="visx-line" x1="1087.5" y1="0" x2="1087.5" y2="8" fill="transparent" shape-rendering="crispEdges" stroke="#000" stroke-width="0" stroke-linecap="square"></line><svg x="0" y="0" font-size="10" style="overflow:visible"><text transform="" x="1087.5" y="18" fill="#000" font-size="10" text-anchor="middle"><tspan x="1087.5" dy="0em">75%</tspan></text></svg></g><g class="visx-group visx-axis-tick" transform="translate(0, 0)"><line class="visx-line" x1="1450" y1="0" x2="1450" y2="8" fill="transparent" shape-rendering="crispEdges" stroke="#000" stroke-width="0" stroke-linecap="square"></line><svg x="0" y="0" font-size="10" style="overflow:visible"><text transform="" x="1450" y="18" fill="#000" font-size="10" text-anchor="middle"><tspan x="1450" dy="0em">100%</tspan></text></svg></g><line class="visx-line visx-axis-line" x1="0.5" y1="0" x2="1450.5" y2="0" fill="transparent" shape-rendering="crispEdges" stroke="#222" stroke-width="0"></line></g><g class="visx-group visx-axis visx-axis-left" transform="translate(0, 0)"><g class="visx-group visx-axis-tick" transform="translate(0, 0)"><line class="visx-line" x1="0" y1="115" x2="-8" y2="115" fill="transparent" shape-rendering="crispEdges" stroke="#222" stroke-width="0" stroke-linecap="square"></line><svg x="-30" y="0" font-size="8" style="overflow:visible"><text transform="" x="-8" y="115" fill="#000" font-size="8" text-anchor="start"><tspan x="-8" dy="0em">0%</tspan></text></svg></g><g class="visx-group visx-axis-tick" transform="translate(0, 0)"><line class="visx-line" x1="0" y1="49.28571428571429" x2="-8" y2="49.28571428571429" fill="transparent" shape-rendering="crispEdges" stroke="#222" stroke-width="0" stroke-linecap="square"></line><svg x="-30" y="0" font-size="8" style="overflow:visible"><text transform="" x="-8" y="49.28571428571429" fill="#000" font-size="8" text-anchor="start"><tspan x="-8" dy="0em">200%</tspan></text></svg></g><line class="visx-line visx-axis-line" x1="0" y1="115.5" x2="0" y2="0.5" fill="transparent" shape-rendering="crispEdges" stroke="#222" stroke-width="0"></line></g><rect class="visx-bar" width="1450" height="115" fill="transparent"></rect><line class="visx-line" x1="652.5" y1="28" x2="652.5" y2="115" fill="transparent" shape-rendering="crispEdges" stroke="#0062D2" stroke-width="1" pointer-events="none" stroke-dasharray="5,2"></line><svg x="0" y="0" font-size="10px" style="overflow:visible"><text transform="" x="652.5" y="20" font-size="10px" fill="#fff" stroke="#fff" stroke-width="0.8em" text-anchor="middle"><tspan x="652.5" dy="0.355em">Optimal 45%</tspan></text></svg><svg x="0" y="0" font-size="10px" style="overflow:visible"><text transform="" x="652.5" y="20" font-size="10px" fill="#62677B" text-anchor="middle"><tspan x="652.5" dy="0.355em">Optimal 45%</tspan></text></svg></g></svg>