<?xml version="1.0"?><svg xmlns="http://www.w3.org/2000/svg" xmlns:xlink= "http://www.w3.org/1999/xlink" style="background: white;" width="1500" height="185"> <g style="color: black; font-size: 13px; font-family: sans-serif; transform: translate(18px, 25px);"><g><circle r="3" cx="-6" cy="-5" style="fill: #B6509E" /><text>Borrow APR, variable</text></g><g style="transform: translateX(150px);"><circle r="3" cx="-6" cy="-5" style="fill: rgb(231, 198, 223)" /><text>Borrow APR, stable</text></g><g style="transform: translateX(290px);"><circle r="3" cx="-6" cy="-5" style="fill: rgb(0, 98, 210)" /><text>Utilization Rate</text></g></g><g class="visx-group" transform="translate(40, 50)"><g class="visx-group visx-rows" transform="translate(0, 0)"><line class="visx-line" x1="0" y1="115" x2="1450" y2="115" fill="transparent" shape-rendering="crispEdges" stroke="#000" stroke-width="1" stroke-dasharray="3,3" pointer-events="none"></line><line class="visx-line" x1="0" y1="57.5" x2="1450" y2="57.5" fill="transparent" shape-rendering="crispEdges" stroke="#000" stroke-width="1" stroke-dasharray="3,3" pointer-events="none"></line><line class="visx-line" x1="0" y1="0" x2="1450" y2="0" fill="transparent" shape-rendering="crispEdges" stroke="#000" stroke-width="1" stroke-dasharray="3,3" pointer-events="none"></line></g><path class="visx-linepath" d="M0,114.99999999992333C2.4166666666666665,114.98722222217751,4.833333333333334,114.97444444443167,7.25,114.96166666666667C9.666666666666666,114.94888888890168,12.083333333333334,114.9361111111111,14.5,114.92333333333333C16.916666666666668,114.91055555555556,19.333333333333332,114.89777777777778,21.75,114.885C24.166666666666668,114.87222222222223,26.583333333333332,114.85944444444445,29,114.84666666666666C31.416666666666668,114.83388888888888,33.833333333333336,114.8211111111111,36.25,114.80833333333332C38.666666666666664,114.79555555555555,41.083333333333336,114.78277777777777,43.5,114.77C45.91666666666667,114.75722222222223,48.333333333333336,114.74444444444445,50.75000000000001,114.73166666666667C53.16666666666667,114.7188888888889,55.583333333333336,114.7061111111111,58,114.69333333333333C60.416666666666664,114.68055555555554,62.833333333333336,114.66777777777777,65.25,114.655C67.66666666666667,114.64222222222223,70.08333333333333,114.62944444444445,72.5,114.61666666666667C74.91666666666667,114.6038888888889,77.33333333333333,114.5911111111111,79.75,114.57833333333333C82.16666666666667,114.56555555555556,84.58333333333333,114.55277777777778,87,114.54C89.41666666666667,114.52722222222224,91.83333333333333,114.51444444444445,94.25,114.50166666666667C96.66666666666667,114.48888888888888,99.08333333333334,114.47611111111111,101.50000000000001,114.46333333333332C103.91666666666667,114.45055555555555,106.33333333333334,114.43777777777777,108.75,114.425C111.16666666666667,114.41222222222223,113.58333333333333,114.39944444444444,116,114.38666666666667C118.41666666666667,114.37388888888889,120.83333333333334,114.36111111111111,123.25000000000001,114.34833333333333C125.66666666666667,114.33555555555556,128.08333333333334,114.32277777777777,130.5,114.31C132.91666666666666,114.29722222222223,135.33333333333334,114.28444444444445,137.75,114.27166666666668C140.16666666666666,114.2588888888889,142.58333333333334,114.24611111111112,145,114.23333333333333C147.41666666666666,114.22055555555555,149.83333333333334,114.20777777777776,152.25,114.195C154.66666666666666,114.18222222222222,157.08333333333334,114.16944444444444,159.5,114.15666666666667C161.91666666666666,114.1438888888889,164.33333333333334,114.1311111111111,166.75,114.11833333333333C169.16666666666666,114.10555555555555,171.58333333333334,114.09277777777777,174,114.08C176.41666666666666,114.06722222222223,178.83333333333334,114.05444444444444,181.25,114.04166666666667C183.66666666666666,114.0288888888889,186.08333333333334,114.0161111111111,188.5,114.00333333333333C190.91666666666666,113.99055555555556,193.33333333333334,113.97777777777777,195.75,113.965C198.16666666666669,113.95222222222223,200.58333333333334,113.93944444444446,203.00000000000003,113.92666666666668C205.41666666666669,113.91388888888889,207.83333333333331,113.9011111111111,210.24999999999997,113.88833333333332C212.66666666666666,113.87555555555554,215.08333333333331,113.86277777777777,217.5,113.85C219.91666666666666,113.83722222222222,222.33333333333334,113.82444444444444,224.75,113.81166666666667C227.16666666666666,113.7988888888889,229.58333333333334,113.7861111111111,232,113.77333333333333C234.41666666666666,113.76055555555556,236.83333333333334,113.74777777777777,239.25,113.735C241.66666666666669,113.72222222222223,244.08333333333334,113.70944444444446,246.50000000000003,113.69666666666667C248.91666666666669,113.6838888888889,251.33333333333331,113.6711111111111,253.74999999999997,113.65833333333333C256.16666666666663,113.64555555555555,258.5833333333333,113.63277777777779,261,113.62C263.4166666666667,113.60722222222223,265.8333333333333,113.59444444444445,268.25,113.58166666666666C270.6666666666667,113.56888888888888,273.0833333333333,113.5561111111111,275.5,113.54333333333332C277.9166666666667,113.53055555555555,280.3333333333333,113.51777777777777,282.75,113.505C285.1666666666667,113.49222222222222,287.5833333333333,113.47944444444444,290,113.46666666666667C292.4166666666667,113.4538888888889,294.8333333333333,113.4411111111111,297.25,113.42833333333333C299.6666666666667,113.41555555555556,302.0833333333333,113.40277777777777,304.5,113.39C306.9166666666667,113.37722222222223,309.3333333333333,113.36444444444444,311.75,113.35166666666667C314.1666666666667,113.3388888888889,316.5833333333333,113.32611111111112,319,113.31333333333333C321.4166666666667,113.30055555555555,323.8333333333333,113.28777777777776,326.25,113.27499999999999C328.6666666666667,113.26222222222222,331.0833333333333,113.24944444444444,333.5,113.23666666666666C335.9166666666667,113.2238888888889,338.3333333333333,113.2111111111111,340.75,113.19833333333332C343.1666666666667,113.18555555555555,345.5833333333333,113.17277777777777,348,113.16C350.4166666666667,113.14722222222223,352.8333333333333,113.13444444444444,355.25,113.12166666666667C357.6666666666667,113.1088888888889,360.0833333333333,113.0961111111111,362.5,113.08333333333333C364.9166666666667,113.07055555555556,367.3333333333333,113.05777777777777,369.75,113.045C372.1666666666667,113.03222222222223,374.5833333333333,113.01944444444445,377,113.00666666666667C379.4166666666667,112.9938888888889,381.8333333333333,112.98111111111112,384.25,112.96833333333333C386.6666666666667,112.95555555555555,389.0833333333333,112.94277777777776,391.5,112.92999999999999C393.9166666666667,112.91722222222221,396.33333333333337,112.90444444444445,398.75000000000006,112.89166666666667C401.16666666666674,112.8788888888889,403.58333333333337,112.86611111111111,406.00000000000006,112.85333333333332C408.4166666666667,112.84055555555555,410.8333333333333,112.82777777777777,413.24999999999994,112.815C415.66666666666663,112.80222222222223,418.08333333333326,112.78944444444444,420.49999999999994,112.77666666666667C422.91666666666663,112.76388888888889,425.3333333333333,112.75111111111111,427.75,112.73833333333333C430.1666666666667,112.72555555555556,432.5833333333333,112.71277777777777,435,112.7C437.4166666666667,112.68722222222223,439.8333333333333,112.67444444444443,442.25,112.66166666666666C444.6666666666667,112.64888888888889,447.0833333333333,112.6361111111111,449.5,112.62333333333333C451.9166666666667,112.61055555555556,454.3333333333333,112.59777777777776,456.75,112.585C459.1666666666667,112.57222222222222,461.5833333333333,112.55944444444444,464,112.54666666666667C466.4166666666667,112.5338888888889,468.8333333333333,112.5211111111111,471.25,112.50833333333333C473.6666666666667,112.49555555555555,476.0833333333333,112.48277777777777,478.5,112.47C480.9166666666667,112.45722222222223,483.33333333333337,112.44444444444444,485.75000000000006,112.43166666666667C488.16666666666674,112.4188888888889,490.58333333333337,112.40611111111113,493.00000000000006,112.39333333333335C495.4166666666667,112.38055555555557,497.8333333333333,112.36777777777779,500.24999999999994,112.355C502.66666666666663,112.34222222222222,505.08333333333326,112.32944444444443,507.49999999999994,112.31666666666666C509.91666666666663,112.30388888888888,512.3333333333333,112.29111111111112,514.75,112.27833333333334C517.1666666666666,112.26555555555557,519.5833333333334,112.25277777777777,522,112.24C524.4166666666666,112.22722222222222,526.8333333333334,112.21444444444444,529.25,112.20166666666667C531.6666666666666,112.1888888888889,534.0833333333334,112.17611111111111,536.5,112.16333333333334C538.9166666666666,112.15055555555557,541.3333333333334,112.13777777777777,543.75,112.125C546.1666666666666,112.11222222222223,548.5833333333334,112.09944444444444,551,112.08666666666667C553.4166666666666,112.0738888888889,555.8333333333334,112.06111111111113,558.25,112.04833333333335C560.6666666666666,112.03555555555556,563.0833333333334,112.02277777777778,565.5,112.00999999999999C567.9166666666666,111.9972222222222,570.3333333333334,111.98444444444443,572.75,111.97166666666666C575.1666666666666,111.9588888888889,577.5833333333334,111.94611111111111,580,111.93333333333334C582.4166666666666,111.92055555555557,584.8333333333334,111.90777777777777,587.25,111.895C589.6666666666666,111.88222222222223,592.0833333333334,111.86944444444444,594.5,111.85666666666667C596.9166666666666,111.8438888888889,599.3333333333334,111.83111111111111,601.75,111.81833333333334C604.1666666666666,111.80555555555557,606.5833333333334,111.79277777777777,609,111.78C611.4166666666666,111.76722222222223,613.8333333333334,111.75444444444445,616.25,111.74166666666667C618.6666666666666,111.7288888888889,621.0833333333334,111.71611111111112,623.5,111.70333333333333C625.9166666666666,111.69055555555555,628.3333333333334,111.67777777777776,630.75,111.66499999999999C633.1666666666666,111.65222222222222,635.5833333333334,111.63944444444444,638,111.62666666666667C640.4166666666666,111.6138888888889,642.8333333333334,111.60111111111111,645.25,111.58833333333334C647.6666666666666,111.57555555555557,650.0833333333334,111.56277777777777,652.5,111.55C654.9166666666666,111.53722222222223,657.3333333333334,111.52444444444444,659.75,111.51166666666667C662.1666666666666,111.4988888888889,664.5833333333334,111.48611111111111,667,111.47333333333334C669.4166666666666,111.46055555555557,671.8333333333334,111.44777777777779,674.25,111.435C676.6666666666666,111.42222222222222,679.0833333333334,111.40944444444443,681.5,111.39666666666666C683.9166666666666,111.38388888888889,686.3333333333334,111.3711111111111,688.75,111.35833333333333C691.1666666666666,111.34555555555556,693.5833333333334,111.33277777777776,696,111.32C698.4166666666666,111.30722222222222,700.8333333333334,111.29444444444444,703.25,111.28166666666667C705.6666666666666,111.2688888888889,708.0833333333334,111.25611111111111,710.5,111.24333333333334C712.9166666666666,111.23055555555557,715.3333333333334,111.21777777777777,717.75,111.205C720.1666666666666,111.19222222222223,722.5833333333334,111.17944444444444,725,111.16666666666667C727.4166666666666,111.1538888888889,729.8333333333334,111.14111111111112,732.25,111.12833333333334C734.6666666666666,111.11555555555557,737.0833333333334,111.10277777777779,739.5,111.09C741.9166666666666,111.07722222222222,744.3333333333334,111.06444444444443,746.75,111.05166666666666C749.1666666666666,111.03888888888889,751.5833333333334,111.0261111111111,754,111.01333333333334C756.4166666666666,111.00055555555556,758.8333333333334,110.98777777777777,761.25,110.975C763.6666666666666,110.96222222222222,766.0833333333334,110.94944444444444,768.5,110.93666666666667C770.9166666666666,110.9238888888889,773.3333333333334,110.91111111111111,775.75,110.89833333333334C778.1666666666666,110.88555555555557,780.5833333333334,110.87277777777777,783,110.86C785.4166666666667,110.84722222222221,787.8333333333334,110.83444444444446,790.2500000000001,110.82166666666667C792.6666666666667,110.8088888888889,795.0833333333335,110.79611111111112,797.5000000000001,110.78333333333333C799.9166666666667,110.77055555555555,802.3333333333335,110.75777777777776,804.7500000000001,110.74499999999999C807.1666666666667,110.73222222222222,809.5833333333335,110.71944444444443,812.0000000000001,110.70666666666666C814.4166666666667,110.69388888888889,816.8333333333333,110.68111111111111,819.2499999999999,110.66833333333334C821.6666666666665,110.65555555555555,824.0833333333333,110.64277777777777,826.4999999999999,110.63C828.9166666666665,110.61722222222222,831.3333333333333,110.60444444444444,833.7499999999999,110.59166666666667C836.1666666666665,110.5788888888889,838.5833333333333,110.56611111111111,840.9999999999999,110.55333333333334C843.4166666666666,110.54055555555556,845.8333333333333,110.52777777777779,848.25,110.515C850.6666666666666,110.50222222222223,853.0833333333334,110.48944444444444,855.5,110.47666666666667C857.9166666666666,110.4638888888889,860.3333333333334,110.45111111111112,862.75,110.43833333333333C865.1666666666666,110.42555555555555,867.5833333333334,110.41277777777776,870,110.39999999999999C872.4166666666666,110.38722222222222,874.8333333333334,110.37444444444444,877.25,110.36166666666666C879.6666666666666,110.3488888888889,882.0833333333334,110.33611111111111,884.5,110.32333333333334C886.9166666666666,110.31055555555557,889.3333333333334,110.29777777777777,891.75,110.285C894.1666666666666,110.27222222222223,896.5833333333334,110.25944444444444,899,110.24666666666667C901.4166666666666,110.2338888888889,903.8333333333334,110.22111111111111,906.25,110.20833333333334C908.6666666666666,110.19555555555557,911.0833333333334,110.18277777777779,913.5,110.17C915.9166666666666,110.15722222222222,918.3333333333334,110.14444444444443,920.75,110.13166666666666C923.1666666666666,110.11888888888889,925.5833333333334,110.1061111111111,928,110.09333333333333C930.4166666666666,110.08055555555556,932.8333333333334,110.06777777777776,935.25,110.05499999999999C937.6666666666666,110.04222222222222,940.0833333333334,110.02944444444444,942.5,110.01666666666667C944.9166666666666,110.0038888888889,947.3333333333334,109.99111111111111,949.75,109.97833333333334C952.1666666666666,109.96555555555557,954.5833333333334,109.95277777777777,957,109.94C959.4166666666666,109.92722222222223,961.8333333333334,109.91444444444444,964.25,109.90166666666667C966.6666666666667,109.8888888888889,969.0833333333334,109.87611111111113,971.5000000000001,109.86333333333334C973.9166666666667,109.85055555555556,976.3333333333335,109.83777777777777,978.7500000000001,109.82499999999999C981.1666666666667,109.8122222222222,983.5833333333335,109.79944444444443,986.0000000000001,109.78666666666666C988.4166666666667,109.77388888888889,990.8333333333335,109.76111111111112,993.2500000000001,109.74833333333333C995.6666666666667,109.73555555555556,998.0833333333333,109.72277777777776,1000.4999999999999,109.71C1002.9166666666665,109.69722222222221,1005.3333333333333,109.68444444444444,1007.7499999999999,109.67166666666667C1010.1666666666665,109.6588888888889,1012.5833333333333,109.64611111111111,1014.9999999999999,109.63333333333334C1017.4166666666665,109.62055555555557,1019.8333333333333,109.60777777777777,1022.2499999999999,109.595C1024.6666666666665,109.58222222222221,1027.0833333333333,109.56944444444446,1029.5,109.55666666666667C1031.9166666666667,109.5438888888889,1034.3333333333333,109.53111111111112,1036.75,109.51833333333333C1039.1666666666667,109.50555555555555,1041.5833333333333,109.49277777777776,1044,109.47999999999999C1046.4166666666667,109.46722222222222,1048.8333333333333,109.45444444444443,1051.25,109.44166666666666C1053.6666666666667,109.42888888888889,1056.0833333333333,109.4161111111111,1058.5,109.40333333333334C1060.9166666666667,109.39055555555557,1063.3333333333333,109.37777777777777,1065.75,109.365C1068.1666666666667,109.35222222222222,1070.5833333333333,109.33944444444444,1073,109.32666666666667C1075.4166666666667,109.3138888888889,1077.8333333333333,109.30111111111111,1080.25,109.28833333333334C1082.6666666666667,109.27555555555557,1085.0833333333333,109.26277777777779,1087.5,109.25C1089.9166666666667,109.23722222222221,1092.3333333333333,109.22444444444443,1094.75,109.21166666666666C1097.1666666666667,109.19888888888889,1099.5833333333333,109.1861111111111,1102,109.17333333333333C1104.4166666666667,109.16055555555556,1106.8333333333333,109.14777777777776,1109.25,109.13499999999999C1111.6666666666667,109.12222222222222,1114.0833333333333,109.10944444444443,1116.5,109.09666666666666C1118.9166666666667,109.0838888888889,1121.3333333333333,109.07111111111111,1123.75,109.05833333333334C1126.1666666666667,109.04555555555557,1128.5833333333333,109.03277777777777,1131,109.02C1133.4166666666667,109.00722222222223,1135.8333333333333,108.99444444444444,1138.25,108.98166666666667C1140.6666666666667,108.9688888888889,1143.0833333333333,108.95611111111111,1145.5,108.94333333333334C1147.9166666666667,108.93055555555557,1150.3333333333333,108.91777777777779,1152.75,108.905C1155.1666666666667,108.89222222222222,1157.5833333333333,108.87944444444443,1160,108.86666666666666C1162.4166666666667,108.85388888888889,1164.8333333333333,108.8411111111111,1167.25,108.82833333333333C1169.6666666666667,108.81555555555556,1172.0833333333333,108.80277777777776,1174.5,108.78999999999999C1176.9166666666667,108.77722222222222,1179.3333333333333,108.76444444444444,1181.75,108.75166666666667C1184.1666666666667,108.7388888888889,1186.5833333333333,108.72611111111111,1189,108.71333333333334C1191.4166666666667,108.70055555555557,1193.8333333333333,108.68777777777777,1196.25,108.675C1198.6666666666667,108.66222222222223,1201.0833333333333,108.64944444444444,1203.5,108.63666666666667C1205.9166666666667,108.6238888888889,1208.3333333333333,108.61111111111111,1210.75,108.59833333333333C1213.1666666666667,108.58555555555554,1215.5833333333333,108.57277777777776,1218,108.55999999999999C1220.4166666666667,108.54722222222222,1222.8333333333333,108.53444444444443,1225.25,108.52166666666666C1227.6666666666667,108.50888888888889,1230.0833333333333,108.4961111111111,1232.5,108.48333333333333C1234.9166666666667,108.47055555555556,1237.3333333333333,108.45777777777776,1239.75,108.445C1242.1666666666667,108.43222222222222,1244.5833333333333,108.41944444444444,1247,108.40666666666667C1249.4166666666667,108.3938888888889,1251.8333333333333,108.38111111111111,1254.25,108.36833333333334C1256.6666666666667,108.35555555555557,1259.0833333333333,108.34277777777777,1261.5,108.33C1263.9166666666667,108.31722222222223,1266.3333333333333,108.30444444444444,1268.75,108.29166666666667C1271.1666666666667,108.2788888888889,1273.5833333333333,108.2661111111111,1276,108.25333333333333C1278.4166666666667,108.24055555555556,1280.8333333333333,108.22777777777777,1283.25,108.215C1285.6666666666667,108.20222222222223,1288.0833333333333,108.18944444444443,1290.5,108.17666666666666C1292.9166666666667,108.16388888888889,1295.3333333333333,108.1511111111111,1297.75,108.13833333333334C1300.1666666666667,108.12555555555556,1302.5833333333333,108.12555555555555,1305,108.1C1307.4166666666667,108.07444444444444,1309.8333333333333,105.225,1312.25,103.7875C1314.6666666666667,102.35,1317.0833333333333,100.9125,1319.5,99.475C1321.9166666666667,98.0375,1324.3333333333333,96.60000000000001,1326.75,95.16250000000001C1329.1666666666667,93.72500000000001,1331.5833333333333,92.28750000000001,1334,90.85000000000001C1336.4166666666667,89.41250000000001,1338.8333333333333,87.975,1341.25,86.5375C1343.6666666666667,85.1,1346.0833333333333,83.66250000000001,1348.5,82.22500000000001C1350.9166666666667,80.78750000000001,1353.3333333333333,79.35,1355.75,77.9125C1358.1666666666667,76.475,1360.5833333333333,75.03750000000001,1363,73.60000000000001C1365.4166666666667,72.16250000000001,1367.8333333333333,70.72500000000001,1370.25,69.28750000000001C1372.6666666666667,67.85000000000001,1375.0833333333333,66.4125,1377.5,64.975C1379.9166666666667,63.537499999999994,1382.3333333333333,62.10000000000001,1384.75,60.66250000000001C1387.1666666666667,59.22500000000001,1389.5833333333333,57.7875,1392,56.35C1394.4166666666667,54.9125,1396.8333333333333,53.475,1399.25,52.0375C1401.6666666666667,50.6,1404.0833333333333,49.1625,1406.5,47.725C1408.9166666666667,46.2875,1411.3333333333333,44.849999999999994,1413.75,43.412499999999994C1416.1666666666667,41.974999999999994,1418.5833333333333,40.537499999999994,1421,39.099999999999994C1423.4166666666667,37.662499999999994,1425.8333333333333,36.225,1428.25,34.7875C1430.6666666666667,33.35,1433.0833333333333,31.9125,1435.5,30.475C1437.9166666666667,29.0375,1440.3333333333333,27.600000000000005,1442.75,26.162500000000005C1445.1666666666667,24.725000000000005,1447.5833333333333,23.287499999999998,1450,21.849999999999994" fill="transparent" stroke-linecap="round" stroke="#B6509E" stroke-width="2"></path><path class="visx-linepath" d="M0,106.94999999999361C2.4166666666666665,106.94893518518145,4.833333333333334,106.9478703703693,7.25,106.94680555555556C9.666666666666666,106.94574074074181,12.083333333333334,106.94467592592592,14.5,106.94361111111111C16.916666666666668,106.9425462962963,19.333333333333332,106.94148148148149,21.75,106.94041666666668C24.166666666666668,106.93935185185187,26.583333333333332,106.93828703703703,29,106.93722222222222C31.416666666666668,106.9361574074074,33.833333333333336,106.9350925925926,36.25,106.93402777777779C38.666666666666664,106.93296296296297,41.083333333333336,106.93189814814814,43.5,106.93083333333333C45.91666666666667,106.92976851851851,48.333333333333336,106.9287037037037,50.75000000000001,106.9276388888889C53.16666666666667,106.92657407407408,55.583333333333336,106.92550925925926,58,106.92444444444445C60.416666666666664,106.92337962962964,62.833333333333336,106.92231481481481,65.25,106.92125C67.66666666666667,106.92018518518519,70.08333333333333,106.91912037037036,72.5,106.91805555555555C74.91666666666667,106.91699074074074,77.33333333333333,106.91592592592593,79.75,106.91486111111112C82.16666666666667,106.91379629629631,84.58333333333333,106.91273148148147,87,106.91166666666666C89.41666666666667,106.91060185185185,91.83333333333333,106.90953703703704,94.25,106.90847222222223C96.66666666666667,106.90740740740742,99.08333333333334,106.9063425925926,101.50000000000001,106.90527777777778C103.91666666666667,106.90421296296297,106.33333333333334,106.90314814814815,108.75,106.90208333333334C111.16666666666667,106.90101851851853,113.58333333333333,106.8999537037037,116,106.89888888888889C118.41666666666667,106.89782407407408,120.83333333333334,106.89675925925926,123.25000000000001,106.89569444444444C125.66666666666667,106.89462962962963,128.08333333333334,106.89356481481481,130.5,106.8925C132.91666666666666,106.89143518518519,135.33333333333334,106.89037037037038,137.75,106.88930555555557C140.16666666666666,106.88824074074076,142.58333333333334,106.88717592592592,145,106.8861111111111C147.41666666666666,106.8850462962963,149.83333333333334,106.88398148148148,152.25,106.88291666666667C154.66666666666666,106.88185185185186,157.08333333333334,106.88078703703704,159.5,106.87972222222223C161.91666666666666,106.87865740740742,164.33333333333334,106.87759259259259,166.75,106.87652777777778C169.16666666666666,106.87546296296297,171.58333333333334,106.87439814814815,174,106.87333333333333C176.41666666666666,106.87226851851852,178.83333333333334,106.8712037037037,181.25,106.87013888888889C183.66666666666666,106.86907407407408,186.08333333333334,106.86800925925925,188.5,106.86694444444444C190.91666666666666,106.86587962962963,193.33333333333334,106.8648148148148,195.75,106.86375C198.16666666666669,106.86268518518519,200.58333333333334,106.86162037037036,203.00000000000003,106.86055555555555C205.41666666666669,106.85949074074074,207.83333333333331,106.85842592592591,210.24999999999997,106.8573611111111C212.66666666666666,106.85629629629629,215.08333333333331,106.85523148148148,217.5,106.85416666666667C219.91666666666666,106.85310185185186,222.33333333333334,106.85203703703702,224.75,106.85097222222221C227.16666666666666,106.8499074074074,229.58333333333334,106.84884259259259,232,106.84777777777778C234.41666666666666,106.84671296296297,236.83333333333334,106.84564814814814,239.25,106.84458333333333C241.66666666666669,106.84351851851852,244.08333333333334,106.8424537037037,246.50000000000003,106.84138888888889C248.91666666666669,106.84032407407408,251.33333333333331,106.83925925925925,253.74999999999997,106.83819444444444C256.16666666666663,106.83712962962963,258.5833333333333,106.83606481481482,261,106.83500000000001C263.4166666666667,106.8339351851852,265.8333333333333,106.83287037037036,268.25,106.83180555555555C270.6666666666667,106.83074074074074,273.0833333333333,106.82967592592593,275.5,106.82861111111112C277.9166666666667,106.8275462962963,280.3333333333333,106.82648148148147,282.75,106.82541666666665C285.1666666666667,106.82435185185184,287.5833333333333,106.82328703703703,290,106.82222222222222C292.4166666666667,106.82115740740741,294.8333333333333,106.82009259259259,297.25,106.81902777777778C299.6666666666667,106.81796296296297,302.0833333333333,106.81689814814814,304.5,106.81583333333333C306.9166666666667,106.81476851851852,309.3333333333333,106.8137037037037,311.75,106.81263888888888C314.1666666666667,106.81157407407407,316.5833333333333,106.81050925925926,319,106.80944444444445C321.4166666666667,106.80837962962964,323.8333333333333,106.8073148148148,326.25,106.80624999999999C328.6666666666667,106.80518518518518,331.0833333333333,106.80412037037037,333.5,106.80305555555556C335.9166666666667,106.80199074074075,338.3333333333333,106.80092592592592,340.75,106.79986111111111C343.1666666666667,106.7987962962963,345.5833333333333,106.79773148148148,348,106.79666666666667C350.4166666666667,106.79560185185186,352.8333333333333,106.79453703703703,355.25,106.79347222222222C357.6666666666667,106.79240740740741,360.0833333333333,106.79134259259258,362.5,106.79027777777777C364.9166666666667,106.78921296296296,367.3333333333333,106.78814814814814,369.75,106.78708333333333C372.1666666666667,106.78601851851852,374.5833333333333,106.7849537037037,377,106.7838888888889C379.4166666666667,106.78282407407409,381.8333333333333,106.78175925925925,384.25,106.78069444444444C386.6666666666667,106.77962962962962,389.0833333333333,106.77856481481481,391.5,106.7775C393.9166666666667,106.77643518518519,396.33333333333337,106.77537037037037,398.75000000000006,106.77430555555556C401.16666666666674,106.77324074074075,403.58333333333337,106.77217592592592,406.00000000000006,106.77111111111111C408.4166666666667,106.7700462962963,410.8333333333333,106.76898148148148,413.24999999999994,106.76791666666666C415.66666666666663,106.76685185185185,418.08333333333326,106.76578703703704,420.49999999999994,106.76472222222223C422.91666666666663,106.76365740740742,425.3333333333333,106.76259259259258,427.75,106.76152777777777C430.1666666666667,106.76046296296296,432.5833333333333,106.75939814814815,435,106.75833333333334C437.4166666666667,106.75726851851853,439.8333333333333,106.75620370370369,442.25,106.75513888888888C444.6666666666667,106.75407407407407,447.0833333333333,106.75300925925926,449.5,106.75194444444445C451.9166666666667,106.75087962962964,454.3333333333333,106.74981481481481,456.75,106.74875C459.1666666666667,106.74768518518519,461.5833333333333,106.74662037037038,464,106.74555555555557C466.4166666666667,106.74449074074076,468.8333333333333,106.74342592592592,471.25,106.74236111111111C473.6666666666667,106.7412962962963,476.0833333333333,106.74023148148149,478.5,106.73916666666668C480.9166666666667,106.73810185185187,483.33333333333337,106.73703703703703,485.75000000000006,106.73597222222222C488.16666666666674,106.7349074074074,490.58333333333337,106.7338425925926,493.00000000000006,106.73277777777778C495.4166666666667,106.73171296296297,497.8333333333333,106.73064814814815,500.24999999999994,106.72958333333334C502.66666666666663,106.72851851851853,505.08333333333326,106.7274537037037,507.49999999999994,106.72638888888889C509.91666666666663,106.72532407407408,512.3333333333333,106.72425925925926,514.75,106.72319444444445C517.1666666666666,106.72212962962963,519.5833333333334,106.72106481481481,522,106.72C524.4166666666666,106.71893518518519,526.8333333333334,106.71787037037036,529.25,106.71680555555555C531.6666666666666,106.71574074074074,534.0833333333334,106.71467592592592,536.5,106.7136111111111C538.9166666666666,106.7125462962963,541.3333333333334,106.71148148148148,543.75,106.71041666666667C546.1666666666666,106.70935185185186,548.5833333333334,106.70828703703702,551,106.70722222222221C553.4166666666666,106.7061574074074,555.8333333333334,106.70509259259259,558.25,106.70402777777778C560.6666666666666,106.70296296296297,563.0833333333334,106.70189814814813,565.5,106.70083333333332C567.9166666666666,106.69976851851851,570.3333333333334,106.6987037037037,572.75,106.69763888888889C575.1666666666666,106.69657407407408,577.5833333333334,106.69550925925925,580,106.69444444444444C582.4166666666666,106.69337962962963,584.8333333333334,106.69231481481481,587.25,106.69125C589.6666666666666,106.69018518518519,592.0833333333334,106.68912037037036,594.5,106.68805555555555C596.9166666666666,106.68699074074074,599.3333333333334,106.68592592592593,601.75,106.68486111111112C604.1666666666666,106.68379629629631,606.5833333333334,106.68273148148147,609,106.68166666666666C611.4166666666666,106.68060185185185,613.8333333333334,106.67953703703704,616.25,106.67847222222223C618.6666666666666,106.67740740740742,621.0833333333334,106.67634259259259,623.5,106.67527777777778C625.9166666666666,106.67421296296297,628.3333333333334,106.67314814814814,630.75,106.67208333333333C633.1666666666666,106.67101851851852,635.5833333333334,106.6699537037037,638,106.66888888888889C640.4166666666666,106.66782407407408,642.8333333333334,106.66675925925925,645.25,106.66569444444444C647.6666666666666,106.66462962962963,650.0833333333334,106.6635648148148,652.5,106.6625C654.9166666666666,106.66143518518518,657.3333333333334,106.66037037037037,659.75,106.65930555555556C662.1666666666666,106.65824074074075,664.5833333333334,106.65717592592591,667,106.6561111111111C669.4166666666666,106.65504629629629,671.8333333333334,106.65398148148148,674.25,106.65291666666667C676.6666666666666,106.65185185185186,679.0833333333334,106.65078703703703,681.5,106.64972222222222C683.9166666666666,106.64865740740741,686.3333333333334,106.64759259259259,688.75,106.64652777777778C691.1666666666666,106.64546296296297,693.5833333333334,106.64439814814814,696,106.64333333333333C698.4166666666666,106.64226851851852,700.8333333333334,106.64120370370371,703.25,106.6401388888889C705.6666666666666,106.63907407407409,708.0833333333334,106.63800925925925,710.5,106.63694444444444C712.9166666666666,106.63587962962963,715.3333333333334,106.63481481481482,717.75,106.63375C720.1666666666666,106.6326851851852,722.5833333333334,106.63162037037036,725,106.63055555555555C727.4166666666666,106.62949074074074,729.8333333333334,106.62842592592592,732.25,106.62736111111111C734.6666666666666,106.6262962962963,737.0833333333334,106.62523148148148,739.5,106.62416666666667C741.9166666666666,106.62310185185186,744.3333333333334,106.62203703703703,746.75,106.62097222222222C749.1666666666666,106.61990740740741,751.5833333333334,106.61884259259259,754,106.61777777777777C756.4166666666666,106.61671296296296,758.8333333333334,106.61564814814815,761.25,106.61458333333334C763.6666666666666,106.61351851851853,766.0833333333334,106.6124537037037,768.5,106.61138888888888C770.9166666666666,106.61032407407407,773.3333333333334,106.60925925925926,775.75,106.60819444444445C778.1666666666666,106.60712962962964,780.5833333333334,106.60606481481481,783,106.605C785.4166666666667,106.6039351851852,787.8333333333334,106.60287037037037,790.2500000000001,106.60180555555556C792.6666666666667,106.60074074074075,795.0833333333335,106.59967592592592,797.5000000000001,106.59861111111111C799.9166666666667,106.5975462962963,802.3333333333335,106.59648148148148,804.7500000000001,106.59541666666667C807.1666666666667,106.59435185185185,809.5833333333335,106.59328703703703,812.0000000000001,106.59222222222222C814.4166666666667,106.59115740740741,816.8333333333333,106.5900925925926,819.2499999999999,106.58902777777779C821.6666666666665,106.58796296296298,824.0833333333333,106.58689814814814,826.4999999999999,106.58583333333333C828.9166666666665,106.58476851851852,831.3333333333333,106.5837037037037,833.7499999999999,106.5826388888889C836.1666666666665,106.58157407407408,838.5833333333333,106.58050925925926,840.9999999999999,106.57944444444445C843.4166666666666,106.57837962962964,845.8333333333333,106.57731481481481,848.25,106.57625C850.6666666666666,106.57518518518519,853.0833333333334,106.57412037037037,855.5,106.57305555555556C857.9166666666666,106.57199074074074,860.3333333333334,106.57092592592592,862.75,106.56986111111111C865.1666666666666,106.5687962962963,867.5833333333334,106.56773148148147,870,106.56666666666666C872.4166666666666,106.56560185185185,874.8333333333334,106.56453703703703,877.25,106.56347222222222C879.6666666666666,106.5624074074074,882.0833333333334,106.56134259259258,884.5,106.56027777777777C886.9166666666666,106.55921296296296,889.3333333333334,106.55814814814815,891.75,106.55708333333334C894.1666666666666,106.55601851851853,896.5833333333334,106.5549537037037,899,106.55388888888889C901.4166666666666,106.55282407407408,903.8333333333334,106.55175925925926,906.25,106.55069444444445C908.6666666666666,106.54962962962964,911.0833333333334,106.54856481481481,913.5,106.5475C915.9166666666666,106.54643518518519,918.3333333333334,106.54537037037036,920.75,106.54430555555555C923.1666666666666,106.54324074074074,925.5833333333334,106.54217592592592,928,106.5411111111111C930.4166666666666,106.5400462962963,932.8333333333334,106.53898148148147,935.25,106.53791666666666C937.6666666666666,106.53685185185185,940.0833333333334,106.53578703703704,942.5,106.53472222222223C944.9166666666666,106.53365740740742,947.3333333333334,106.53259259259258,949.75,106.53152777777777C952.1666666666666,106.53046296296296,954.5833333333334,106.52939814814815,957,106.52833333333334C959.4166666666666,106.52726851851853,961.8333333333334,106.52620370370369,964.25,106.52513888888888C966.6666666666667,106.52407407407406,969.0833333333334,106.52300925925925,971.5000000000001,106.52194444444444C973.9166666666667,106.52087962962963,976.3333333333335,106.51981481481481,978.7500000000001,106.51875C981.1666666666667,106.51768518518519,983.5833333333335,106.51662037037038,986.0000000000001,106.51555555555557C988.4166666666667,106.51449074074075,990.8333333333335,106.51342592592592,993.2500000000001,106.5123611111111C995.6666666666667,106.5112962962963,998.0833333333333,106.51023148148148,1000.4999999999999,106.50916666666667C1002.9166666666665,106.50810185185186,1005.3333333333333,106.50703703703702,1007.7499999999999,106.50597222222221C1010.1666666666665,106.5049074074074,1012.5833333333333,106.50384259259259,1014.9999999999999,106.50277777777778C1017.4166666666665,106.50171296296297,1019.8333333333333,106.50064814814814,1022.2499999999999,106.49958333333333C1024.6666666666665,106.49851851851852,1027.0833333333333,106.4974537037037,1029.5,106.49638888888889C1031.9166666666667,106.49532407407408,1034.3333333333333,106.49425925925925,1036.75,106.49319444444444C1039.1666666666667,106.49212962962963,1041.5833333333333,106.49106481481482,1044,106.49000000000001C1046.4166666666667,106.4889351851852,1048.8333333333333,106.48787037037036,1051.25,106.48680555555555C1053.6666666666667,106.48574074074074,1056.0833333333333,106.48467592592593,1058.5,106.48361111111112C1060.9166666666667,106.4825462962963,1063.3333333333333,106.48148148148148,1065.75,106.48041666666667C1068.1666666666667,106.47935185185186,1070.5833333333333,106.47828703703703,1073,106.47722222222222C1075.4166666666667,106.47615740740741,1077.8333333333333,106.47509259259259,1080.25,106.47402777777778C1082.6666666666667,106.47296296296297,1085.0833333333333,106.47189814814814,1087.5,106.47083333333333C1089.9166666666667,106.46976851851852,1092.3333333333333,106.4687037037037,1094.75,106.46763888888889C1097.1666666666667,106.46657407407407,1099.5833333333333,106.46550925925926,1102,106.46444444444445C1104.4166666666667,106.46337962962964,1106.8333333333333,106.4623148148148,1109.25,106.46124999999999C1111.6666666666667,106.46018518518518,1114.0833333333333,106.45912037037037,1116.5,106.45805555555556C1118.9166666666667,106.45699074074075,1121.3333333333333,106.45592592592592,1123.75,106.45486111111111C1126.1666666666667,106.4537962962963,1128.5833333333333,106.45273148148148,1131,106.45166666666667C1133.4166666666667,106.45060185185186,1135.8333333333333,106.44953703703703,1138.25,106.44847222222222C1140.6666666666667,106.44740740740741,1143.0833333333333,106.4463425925926,1145.5,106.44527777777779C1147.9166666666667,106.44421296296298,1150.3333333333333,106.44314814814814,1152.75,106.44208333333333C1155.1666666666667,106.44101851851852,1157.5833333333333,106.43995370370371,1160,106.4388888888889C1162.4166666666667,106.43782407407409,1164.8333333333333,106.43675925925925,1167.25,106.43569444444444C1169.6666666666667,106.43462962962963,1172.0833333333333,106.43356481481482,1174.5,106.4325C1176.9166666666667,106.4314351851852,1179.3333333333333,106.43037037037037,1181.75,106.42930555555556C1184.1666666666667,106.42824074074075,1186.5833333333333,106.42717592592592,1189,106.42611111111111C1191.4166666666667,106.4250462962963,1193.8333333333333,106.42398148148148,1196.25,106.42291666666667C1198.6666666666667,106.42185185185186,1201.0833333333333,106.42078703703704,1203.5,106.41972222222223C1205.9166666666667,106.41865740740742,1208.3333333333333,106.41759259259258,1210.75,106.41652777777777C1213.1666666666667,106.41546296296296,1215.5833333333333,106.41439814814815,1218,106.41333333333334C1220.4166666666667,106.41226851851853,1222.8333333333333,106.4112037037037,1225.25,106.4101388888889C1227.6666666666667,106.40907407407408,1230.0833333333333,106.40800925925926,1232.5,106.40694444444445C1234.9166666666667,106.40587962962964,1237.3333333333333,106.40481481481481,1239.75,106.40375C1242.1666666666667,106.40268518518519,1244.5833333333333,106.40162037037037,1247,106.40055555555556C1249.4166666666667,106.39949074074075,1251.8333333333333,106.39842592592592,1254.25,106.39736111111111C1256.6666666666667,106.3962962962963,1259.0833333333333,106.39523148148147,1261.5,106.39416666666666C1263.9166666666667,106.39310185185185,1266.3333333333333,106.39203703703703,1268.75,106.39097222222222C1271.1666666666667,106.3899074074074,1273.5833333333333,106.38884259259258,1276,106.38777777777777C1278.4166666666667,106.38671296296296,1280.8333333333333,106.38564814814815,1283.25,106.38458333333334C1285.6666666666667,106.38351851851853,1288.0833333333333,106.38245370370369,1290.5,106.38138888888888C1292.9166666666667,106.38032407407407,1295.3333333333333,106.37925925925926,1297.75,106.37819444444445C1300.1666666666667,106.37712962962964,1302.5833333333333,106.37712962962964,1305,106.375C1307.4166666666667,106.37287037037036,1309.8333333333333,103.5,1312.25,102.0625C1314.6666666666667,100.625,1317.0833333333333,99.1875,1319.5,97.75C1321.9166666666667,96.3125,1324.3333333333333,94.875,1326.75,93.4375C1329.1666666666667,92,1331.5833333333333,90.5625,1334,89.125C1336.4166666666667,87.6875,1338.8333333333333,86.25,1341.25,84.8125C1343.6666666666667,83.375,1346.0833333333333,81.9375,1348.5,80.5C1350.9166666666667,79.0625,1353.3333333333333,77.625,1355.75,76.1875C1358.1666666666667,74.75,1360.5833333333333,73.3125,1363,71.875C1365.4166666666667,70.4375,1367.8333333333333,69,1370.25,67.5625C1372.6666666666667,66.125,1375.0833333333333,64.68750000000001,1377.5,63.25000000000001C1379.9166666666667,61.81250000000001,1382.3333333333333,60.37499999999999,1384.75,58.93749999999999C1387.1666666666667,57.49999999999999,1389.5833333333333,56.0625,1392,54.625C1394.4166666666667,53.1875,1396.8333333333333,51.75,1399.25,50.3125C1401.6666666666667,48.875,1404.0833333333333,47.4375,1406.5,46C1408.9166666666667,44.5625,1411.3333333333333,43.12500000000001,1413.75,41.68750000000001C1416.1666666666667,40.25000000000001,1418.5833333333333,38.81249999999999,1421,37.37499999999999C1423.4166666666667,35.93749999999999,1425.8333333333333,34.5,1428.25,33.0625C1430.6666666666667,31.625,1433.0833333333333,30.1875,1435.5,28.75C1437.9166666666667,27.3125,1440.3333333333333,25.875000000000004,1442.75,24.437500000000004C1445.1666666666667,23.000000000000004,1447.5833333333333,21.562500000000004,1450,20.125000000000004" fill="transparent" stroke-linecap="round" stroke="#E7C6DF" stroke-width="2"></path><g class="visx-group visx-axis visx-axis-bottom" transform="translate(0, 115)"><g class="visx-group visx-axis-tick" transform="translate(0, 0)"><line class="visx-line" x1="0" y1="0" x2="0" y2="8" fill="transparent" shape-rendering="crispEdges" stroke="#000" stroke-width="0" stroke-linecap="square"></line><svg x="0" y="0" font-size="10" style="overflow:visible"><text transform="" x="0" y="18" fill="#000" font-size="10" text-anchor="middle"><tspan x="0" dy="0em">0%</tspan></text></svg></g><g class="visx-group visx-axis-tick" transform="translate(0, 0)"><line class="visx-line" x1="362.5" y1="0" x2="362.5" y2="8" fill="transparent" shape-rendering="crispEdges" stroke="#000" stroke-width="0" stroke-linecap="square"></line><svg x="0" y="0" font-size="10" style="overflow:visible"><text transform="" x="362.5" y="18" fill="#000" font-size="10" text-anchor="middle"><tspan x="362.5" dy="0em">25%</tspan></text></svg></g><g class="visx-group visx-axis-tick" transform="translate(0, 0)"><line class="visx-line" x1="725" y1="0" x2="725" y2="8" fill="transparent" shape-rendering="crispEdges" stroke="#000" stroke-width="0" stroke-linecap="square"></line><svg x="0" y="0" font-size="10" style="overflow:visible"><text transform="" x="725" y="18" fill="#000" font-size="10" text-anchor="middle"><tspan x="725" dy="0em">50%</tspan></text></svg></g><g class="visx-group visx-axis-tick" transform="translate(0, 0)"><line class="visx-line" x1="1087.5" y1="0" x2="1087.5" y2="8" fill="transparent" shape-rendering="crispEdges" stroke="#000" stroke-width="0" stroke-linecap="square"></line><svg x="0" y="0" font-size="10" style="overflow:visible"><text transform="" x="1087.5" y="18" fill="#000" font-size="10" text-anchor="middle"><tspan x="1087.5" dy="0em">75%</tspan></text></svg></g><g class="visx-group visx-axis-tick" transform="translate(0, 0)"><line class="visx-line" x1="1450" y1="0" x2="1450" y2="8" fill="transparent" shape-rendering="crispEdges" stroke="#000" stroke-width="0" stroke-linecap="square"></line><svg x="0" y="0" font-size="10" style="overflow:visible"><text transform="" x="1450" y="18" fill="#000" font-size="10" text-anchor="middle"><tspan x="1450" dy="0em">100%</tspan></text></svg></g><line class="visx-line visx-axis-line" x1="0.5" y1="0" x2="1450.5" y2="0" fill="transparent" shape-rendering="crispEdges" stroke="#222" stroke-width="0"></line></g><g class="visx-group visx-axis visx-axis-left" transform="translate(0, 0)"><g class="visx-group visx-axis-tick" transform="translate(0, 0)"><line class="visx-line" x1="0" y1="115" x2="-8" y2="115" fill="transparent" shape-rendering="crispEdges" stroke="#222" stroke-width="0" stroke-linecap="square"></line><svg x="-30" y="0" font-size="8" style="overflow:visible"><text transform="" x="-8" y="115" fill="#000" font-size="8" text-anchor="start"><tspan x="-8" dy="0em">0%</tspan></text></svg></g><g class="visx-group visx-axis-tick" transform="translate(0, 0)"><line class="visx-line" x1="0" y1="57.5" x2="-8" y2="57.5" fill="transparent" shape-rendering="crispEdges" stroke="#222" stroke-width="0" stroke-linecap="square"></line><svg x="-30" y="0" font-size="8" style="overflow:visible"><text transform="" x="-8" y="57.5" fill="#000" font-size="8" text-anchor="start"><tspan x="-8" dy="0em">50%</tspan></text></svg></g><g class="visx-group visx-axis-tick" transform="translate(0, 0)"><line class="visx-line" x1="0" y1="0" x2="-8" y2="0" fill="transparent" shape-rendering="crispEdges" stroke="#222" stroke-width="0" stroke-linecap="square"></line><svg x="-30" y="0" font-size="8" style="overflow:visible"><text transform="" x="-8" y="0" fill="#000" font-size="8" text-anchor="start"><tspan x="-8" dy="0em">100%</tspan></text></svg></g><line class="visx-line visx-axis-line" x1="0" y1="115.5" x2="0" y2="0.5" fill="transparent" shape-rendering="crispEdges" stroke="#222" stroke-width="0"></line></g><rect class="visx-bar" width="1450" height="115" fill="transparent"></rect><line class="visx-line" x1="1305" y1="28" x2="1305" y2="115" fill="transparent" shape-rendering="crispEdges" stroke="#0062D2" stroke-width="1" pointer-events="none" stroke-dasharray="5,2"></line><svg x="0" y="0" font-size="10px" style="overflow:visible"><text transform="" x="1305" y="20" font-size="10px" fill="#fff" stroke="#fff" stroke-width="0.8em" text-anchor="middle"><tspan x="1305" dy="0.355em">Optimal 90%</tspan></text></svg><svg x="0" y="0" font-size="10px" style="overflow:visible"><text transform="" x="1305" y="20" font-size="10px" fill="#62677B" text-anchor="middle"><tspan x="1305" dy="0.355em">Optimal 90%</tspan></text></svg></g></svg>