<?xml version="1.0"?><svg xmlns="http://www.w3.org/2000/svg" xmlns:xlink= "http://www.w3.org/1999/xlink" style="background: white;" width="1500" height="185"> <g style="color: black; font-size: 13px; font-family: sans-serif; transform: translate(18px, 25px);"><g><circle r="3" cx="-6" cy="-5" style="fill: #B6509E" /><text>Borrow APR, variable</text></g><g style="transform: translateX(150px);"><circle r="3" cx="-6" cy="-5" style="fill: rgb(231, 198, 223)" /><text>Borrow APR, stable</text></g><g style="transform: translateX(290px);"><circle r="3" cx="-6" cy="-5" style="fill: rgb(0, 98, 210)" /><text>Utilization Rate</text></g></g><g class="visx-group" transform="translate(40, 50)"><g class="visx-group visx-rows" transform="translate(0, 0)"><line class="visx-line" x1="0" y1="115" x2="1450" y2="115" fill="transparent" shape-rendering="crispEdges" stroke="#000" stroke-width="1" stroke-dasharray="3,3" pointer-events="none"></line><line class="visx-line" x1="0" y1="67.08333333333333" x2="1450" y2="67.08333333333333" fill="transparent" shape-rendering="crispEdges" stroke="#000" stroke-width="1" stroke-dasharray="3,3" pointer-events="none"></line><line class="visx-line" x1="0" y1="19.16666666666666" x2="1450" y2="19.16666666666666" fill="transparent" shape-rendering="crispEdges" stroke="#000" stroke-width="1" stroke-dasharray="3,3" pointer-events="none"></line></g><path class="visx-linepath" d="M0,114.99999999995208C2.4166666666666665,114.99201388886094,4.833333333333334,114.98402777776978,7.25,114.97604166666666C9.666666666666666,114.96805555556354,12.083333333333334,114.96006944444444,14.5,114.95208333333333C16.916666666666668,114.94409722222223,19.333333333333332,114.93611111111112,21.75,114.92812500000001C24.166666666666668,114.9201388888889,26.583333333333332,114.91215277777778,29,114.90416666666667C31.416666666666668,114.89618055555556,33.833333333333336,114.88819444444444,36.25,114.88020833333333C38.666666666666664,114.87222222222222,41.083333333333336,114.86423611111111,43.5,114.85625C45.91666666666667,114.8482638888889,48.333333333333336,114.84027777777777,50.75000000000001,114.83229166666666C53.16666666666667,114.82430555555555,55.583333333333336,114.81631944444443,58,114.80833333333332C60.416666666666664,114.80034722222221,62.833333333333336,114.79236111111112,65.25,114.78437500000001C67.66666666666667,114.7763888888889,70.08333333333333,114.76840277777778,72.5,114.76041666666667C74.91666666666667,114.75243055555556,77.33333333333333,114.74444444444444,79.75,114.73645833333333C82.16666666666667,114.72847222222222,84.58333333333333,114.72048611111111,87,114.7125C89.41666666666667,114.7045138888889,91.83333333333333,114.69652777777777,94.25,114.68854166666667C96.66666666666667,114.68055555555556,99.08333333333334,114.67256944444443,101.50000000000001,114.66458333333333C103.91666666666667,114.65659722222222,106.33333333333334,114.64861111111111,108.75,114.640625C111.16666666666667,114.63263888888889,113.58333333333333,114.62465277777778,116,114.61666666666667C118.41666666666667,114.60868055555557,120.83333333333334,114.60069444444444,123.25000000000001,114.59270833333333C125.66666666666667,114.58472222222223,128.08333333333334,114.5767361111111,130.5,114.56875C132.91666666666666,114.56076388888889,135.33333333333334,114.55277777777778,137.75,114.54479166666667C140.16666666666666,114.53680555555556,142.58333333333334,114.52881944444444,145,114.52083333333333C147.41666666666666,114.51284722222222,149.83333333333334,114.50486111111111,152.25,114.496875C154.66666666666666,114.4888888888889,157.08333333333334,114.48090277777777,159.5,114.47291666666666C161.91666666666666,114.46493055555555,164.33333333333334,114.45694444444445,166.75,114.44895833333334C169.16666666666666,114.44097222222223,171.58333333333334,114.4329861111111,174,114.425C176.41666666666666,114.41701388888889,178.83333333333334,114.40902777777777,181.25,114.40104166666666C183.66666666666666,114.39305555555555,186.08333333333334,114.38506944444444,188.5,114.37708333333333C190.91666666666666,114.36909722222222,193.33333333333334,114.36111111111111,195.75,114.353125C198.16666666666669,114.3451388888889,200.58333333333334,114.33715277777777,203.00000000000003,114.32916666666667C205.41666666666669,114.32118055555556,207.83333333333331,114.31319444444443,210.24999999999997,114.30520833333333C212.66666666666666,114.29722222222222,215.08333333333331,114.28923611111111,217.5,114.28125C219.91666666666666,114.27326388888889,222.33333333333334,114.26527777777777,224.75,114.25729166666666C227.16666666666666,114.24930555555555,229.58333333333334,114.24131944444444,232,114.23333333333333C234.41666666666666,114.22534722222223,236.83333333333334,114.21736111111112,239.25,114.20937500000001C241.66666666666669,114.2013888888889,244.08333333333334,114.19340277777778,246.50000000000003,114.18541666666667C248.91666666666669,114.17743055555556,251.33333333333331,114.16944444444444,253.74999999999997,114.16145833333333C256.16666666666663,114.15347222222222,258.5833333333333,114.14548611111111,261,114.1375C263.4166666666667,114.1295138888889,265.8333333333333,114.12152777777777,268.25,114.11354166666666C270.6666666666667,114.10555555555555,273.0833333333333,114.09756944444445,275.5,114.08958333333334C277.9166666666667,114.08159722222223,280.3333333333333,114.0736111111111,282.75,114.065625C285.1666666666667,114.05763888888889,287.5833333333333,114.04965277777778,290,114.04166666666667C292.4166666666667,114.03368055555556,294.8333333333333,114.02569444444444,297.25,114.01770833333333C299.6666666666667,114.00972222222222,302.0833333333333,114.0017361111111,304.5,113.99374999999999C306.9166666666667,113.98576388888888,309.3333333333333,113.97777777777777,311.75,113.96979166666667C314.1666666666667,113.96180555555556,316.5833333333333,113.95381944444445,319,113.94583333333334C321.4166666666667,113.93784722222223,323.8333333333333,113.92986111111111,326.25,113.921875C328.6666666666667,113.91388888888889,331.0833333333333,113.90590277777778,333.5,113.89791666666667C335.9166666666667,113.88993055555557,338.3333333333333,113.88194444444444,340.75,113.87395833333333C343.1666666666667,113.86597222222223,345.5833333333333,113.8579861111111,348,113.85C350.4166666666667,113.84201388888889,352.8333333333333,113.83402777777778,355.25,113.82604166666667C357.6666666666667,113.81805555555556,360.0833333333333,113.81006944444445,362.5,113.80208333333334C364.9166666666667,113.79409722222223,367.3333333333333,113.78611111111111,369.75,113.778125C372.1666666666667,113.7701388888889,374.5833333333333,113.76215277777777,377,113.75416666666666C379.4166666666667,113.74618055555555,381.8333333333333,113.73819444444445,384.25,113.73020833333334C386.6666666666667,113.72222222222223,389.0833333333333,113.7142361111111,391.5,113.70625C393.9166666666667,113.69826388888889,396.33333333333337,113.69027777777778,398.75000000000006,113.68229166666667C401.16666666666674,113.67430555555556,403.58333333333337,113.66631944444444,406.00000000000006,113.65833333333333C408.4166666666667,113.65034722222222,410.8333333333333,113.64236111111111,413.24999999999994,113.634375C415.66666666666663,113.6263888888889,418.08333333333326,113.61840277777777,420.49999999999994,113.61041666666667C422.91666666666663,113.60243055555556,425.3333333333333,113.59444444444443,427.75,113.58645833333333C430.1666666666667,113.57847222222222,432.5833333333333,113.57048611111111,435,113.5625C437.4166666666667,113.55451388888889,439.8333333333333,113.54652777777778,442.25,113.53854166666667C444.6666666666667,113.53055555555557,447.0833333333333,113.52256944444444,449.5,113.51458333333333C451.9166666666667,113.50659722222223,454.3333333333333,113.4986111111111,456.75,113.490625C459.1666666666667,113.48263888888889,461.5833333333333,113.47465277777778,464,113.46666666666667C466.4166666666667,113.45868055555556,468.8333333333333,113.45069444444444,471.25,113.44270833333333C473.6666666666667,113.43472222222222,476.0833333333333,113.4267361111111,478.5,113.41874999999999C480.9166666666667,113.41076388888888,483.33333333333337,113.40277777777779,485.75000000000006,113.39479166666668C488.16666666666674,113.38680555555557,490.58333333333337,113.37881944444445,493.00000000000006,113.37083333333334C495.4166666666667,113.36284722222223,497.8333333333333,113.3548611111111,500.24999999999994,113.346875C502.66666666666663,113.33888888888889,505.08333333333326,113.33090277777778,507.49999999999994,113.32291666666667C509.91666666666663,113.31493055555556,512.3333333333333,113.30694444444444,514.75,113.29895833333333C517.1666666666666,113.29097222222222,519.5833333333334,113.2829861111111,522,113.27499999999999C524.4166666666666,113.26701388888888,526.8333333333334,113.25902777777777,529.25,113.25104166666667C531.6666666666666,113.24305555555556,534.0833333333334,113.23506944444445,536.5,113.22708333333334C538.9166666666666,113.21909722222223,541.3333333333334,113.21111111111111,543.75,113.203125C546.1666666666666,113.19513888888889,548.5833333333334,113.18715277777777,551,113.17916666666666C553.4166666666666,113.17118055555555,555.8333333333334,113.16319444444444,558.25,113.15520833333333C560.6666666666666,113.14722222222223,563.0833333333334,113.13923611111112,565.5,113.13125000000001C567.9166666666666,113.1232638888889,570.3333333333334,113.11527777777778,572.75,113.10729166666667C575.1666666666666,113.09930555555556,577.5833333333334,113.09131944444444,580,113.08333333333333C582.4166666666666,113.07534722222222,584.8333333333334,113.06736111111111,587.25,113.059375C589.6666666666666,113.0513888888889,592.0833333333334,113.04340277777777,594.5,113.03541666666666C596.9166666666666,113.02743055555555,599.3333333333334,113.01944444444443,601.75,113.01145833333332C604.1666666666666,113.00347222222221,606.5833333333334,112.99548611111112,609,112.98750000000001C611.4166666666666,112.9795138888889,613.8333333333334,112.97152777777778,616.25,112.96354166666667C618.6666666666666,112.95555555555556,621.0833333333334,112.94756944444444,623.5,112.93958333333333C625.9166666666666,112.93159722222222,628.3333333333334,112.92361111111111,630.75,112.915625C633.1666666666666,112.9076388888889,635.5833333333334,112.89965277777777,638,112.89166666666667C640.4166666666666,112.88368055555556,642.8333333333334,112.87569444444443,645.25,112.86770833333333C647.6666666666666,112.85972222222222,650.0833333333334,112.85173611111111,652.5,112.84375C654.9166666666666,112.83576388888889,657.3333333333334,112.82777777777778,659.75,112.81979166666667C662.1666666666666,112.81180555555557,664.5833333333334,112.80381944444444,667,112.79583333333333C669.4166666666666,112.78784722222223,671.8333333333334,112.7798611111111,674.25,112.771875C676.6666666666666,112.76388888888889,679.0833333333334,112.75590277777778,681.5,112.74791666666667C683.9166666666666,112.73993055555556,686.3333333333334,112.73194444444444,688.75,112.72395833333333C691.1666666666666,112.71597222222222,693.5833333333334,112.70798611111111,696,112.7C698.4166666666666,112.6920138888889,700.8333333333334,112.68402777777777,703.25,112.67604166666666C705.6666666666666,112.66805555555555,708.0833333333334,112.66006944444445,710.5,112.65208333333334C712.9166666666666,112.64409722222223,715.3333333333334,112.6361111111111,717.75,112.628125C720.1666666666666,112.62013888888889,722.5833333333334,112.61215277777777,725,112.60416666666666C727.4166666666666,112.59618055555555,729.8333333333334,112.58819444444444,732.25,112.58020833333333C734.6666666666666,112.57222222222222,737.0833333333334,112.56423611111111,739.5,112.55625C741.9166666666666,112.5482638888889,744.3333333333334,112.54027777777777,746.75,112.53229166666667C749.1666666666666,112.52430555555556,751.5833333333334,112.51631944444443,754,112.50833333333333C756.4166666666666,112.50034722222222,758.8333333333334,112.49236111111111,761.25,112.484375C763.6666666666666,112.47638888888889,766.0833333333334,112.46840277777777,768.5,112.46041666666666C770.9166666666666,112.45243055555555,773.3333333333334,112.44444444444444,775.75,112.43645833333333C778.1666666666666,112.42847222222223,780.5833333333334,112.42048611111112,783,112.41250000000001C785.4166666666667,112.4045138888889,787.8333333333334,112.39652777777778,790.2500000000001,112.38854166666667C792.6666666666667,112.38055555555556,795.0833333333335,112.37256944444444,797.5000000000001,112.36458333333333C799.9166666666667,112.35659722222222,802.3333333333335,112.34861111111111,804.7500000000001,112.340625C807.1666666666667,112.3326388888889,809.5833333333335,112.32465277777777,812.0000000000001,112.31666666666666C814.4166666666667,112.30868055555555,816.8333333333333,112.30069444444445,819.2499999999999,112.29270833333334C821.6666666666665,112.28472222222223,824.0833333333333,112.2767361111111,826.4999999999999,112.26875C828.9166666666665,112.26076388888889,831.3333333333333,112.25277777777778,833.7499999999999,112.24479166666667C836.1666666666665,112.23680555555556,838.5833333333333,112.22881944444444,840.9999999999999,112.22083333333333C843.4166666666666,112.21284722222222,845.8333333333333,112.2048611111111,848.25,112.19687499999999C850.6666666666666,112.18888888888888,853.0833333333334,112.18090277777777,855.5,112.17291666666667C857.9166666666666,112.16493055555556,860.3333333333334,112.15694444444445,862.75,112.14895833333334C865.1666666666666,112.14097222222223,867.5833333333334,112.13298611111111,870,112.125C872.4166666666666,112.11701388888889,874.8333333333334,112.10902777777778,877.25,112.10104166666667C879.6666666666666,112.09305555555557,882.0833333333334,112.08506944444444,884.5,112.07708333333333C886.9166666666666,112.06909722222223,889.3333333333334,112.0611111111111,891.75,112.053125C894.1666666666666,112.04513888888889,896.5833333333334,112.03715277777778,899,112.02916666666667C901.4166666666666,112.02118055555556,903.8333333333334,112.01319444444445,906.25,112.00520833333334C908.6666666666666,111.99722222222223,911.0833333333334,111.98923611111111,913.5,111.98125C915.9166666666666,111.9732638888889,918.3333333333334,111.96527777777777,920.75,111.95729166666666C923.1666666666666,111.94930555555555,925.5833333333334,111.94131944444445,928,111.93333333333334C930.4166666666666,111.92534722222223,932.8333333333334,111.9173611111111,935.25,111.909375C937.6666666666666,111.90138888888889,940.0833333333334,111.89340277777778,942.5,111.88541666666667C944.9166666666666,111.87743055555556,947.3333333333334,111.86944444444444,949.75,111.86145833333333C952.1666666666666,111.85347222222222,954.5833333333334,111.84548611111111,957,111.8375C959.4166666666666,111.8295138888889,961.8333333333334,111.82152777777777,964.25,111.81354166666667C966.6666666666667,111.80555555555556,969.0833333333334,111.79756944444443,971.5000000000001,111.78958333333333C973.9166666666667,111.78159722222222,976.3333333333335,111.77361111111111,978.7500000000001,111.765625C981.1666666666667,111.75763888888889,983.5833333333335,111.74965277777778,986.0000000000001,111.74166666666667C988.4166666666667,111.73368055555557,990.8333333333335,111.72569444444444,993.2500000000001,111.71770833333333C995.6666666666667,111.70972222222223,998.0833333333333,111.7017361111111,1000.4999999999999,111.69375C1002.9166666666665,111.68576388888889,1005.3333333333333,111.67777777777778,1007.7499999999999,111.66979166666667C1010.1666666666665,111.66180555555556,1012.5833333333333,111.65381944444444,1014.9999999999999,111.64583333333333C1017.4166666666665,111.63784722222222,1019.8333333333333,111.6298611111111,1022.2499999999999,111.62187499999999C1024.6666666666665,111.61388888888888,1027.0833333333333,111.60590277777779,1029.5,111.59791666666668C1031.9166666666667,111.58993055555557,1034.3333333333333,111.58194444444445,1036.75,111.57395833333334C1039.1666666666667,111.56597222222223,1041.5833333333333,111.5579861111111,1044,111.55C1046.4166666666667,111.54201388888889,1048.8333333333333,111.53402777777778,1051.25,111.52604166666667C1053.6666666666667,111.51805555555556,1056.0833333333333,111.51006944444444,1058.5,111.50208333333333C1060.9166666666667,111.49409722222222,1063.3333333333333,111.4861111111111,1065.75,111.47812499999999C1068.1666666666667,111.47013888888888,1070.5833333333333,111.46215277777777,1073,111.45416666666667C1075.4166666666667,111.44618055555556,1077.8333333333333,111.43819444444445,1080.25,111.43020833333334C1082.6666666666667,111.42222222222223,1085.0833333333333,111.41423611111111,1087.5,111.40625C1089.9166666666667,111.39826388888889,1092.3333333333333,111.39027777777777,1094.75,111.38229166666666C1097.1666666666667,111.37430555555555,1099.5833333333333,111.36631944444444,1102,111.35833333333333C1104.4166666666667,111.35034722222223,1106.8333333333333,111.34236111111112,1109.25,111.33437500000001C1111.6666666666667,111.3263888888889,1114.0833333333333,111.31840277777778,1116.5,111.31041666666667C1118.9166666666667,111.30243055555556,1121.3333333333333,111.29444444444444,1123.75,111.28645833333333C1126.1666666666667,111.27847222222222,1128.5833333333333,111.27048611111111,1131,111.2625C1133.4166666666667,111.2545138888889,1135.8333333333333,111.24652777777777,1138.25,111.23854166666666C1140.6666666666667,111.23055555555555,1143.0833333333333,111.22256944444443,1145.5,111.21458333333332C1147.9166666666667,111.20659722222221,1150.3333333333333,111.19861111111112,1152.75,111.19062500000001C1155.1666666666667,111.1826388888889,1157.5833333333333,111.1826388888889,1160,111.16666666666667C1162.4166666666667,111.15069444444444,1164.8333333333333,109.56944444444444,1167.25,108.77083333333333C1169.6666666666667,107.97222222222221,1172.0833333333333,107.17361111111111,1174.5,106.375C1176.9166666666667,105.57638888888889,1179.3333333333333,104.77777777777779,1181.75,103.97916666666667C1184.1666666666667,103.18055555555556,1186.5833333333333,102.38194444444444,1189,101.58333333333333C1191.4166666666667,100.78472222222221,1193.8333333333333,99.98611111111111,1196.25,99.1875C1198.6666666666667,98.38888888888889,1201.0833333333333,97.59027777777779,1203.5,96.79166666666667C1205.9166666666667,95.99305555555556,1208.3333333333333,95.19444444444444,1210.75,94.39583333333333C1213.1666666666667,93.59722222222221,1215.5833333333333,92.79861111111111,1218,92C1220.4166666666667,91.20138888888889,1222.8333333333333,90.40277777777779,1225.25,89.60416666666667C1227.6666666666667,88.80555555555556,1230.0833333333333,88.00694444444444,1232.5,87.20833333333333C1234.9166666666667,86.40972222222221,1237.3333333333333,85.61111111111111,1239.75,84.8125C1242.1666666666667,84.01388888888889,1244.5833333333333,83.21527777777779,1247,82.41666666666667C1249.4166666666667,81.61805555555556,1251.8333333333333,80.81944444444444,1254.25,80.02083333333333C1256.6666666666667,79.22222222222221,1259.0833333333333,78.42361111111111,1261.5,77.625C1263.9166666666667,76.82638888888889,1266.3333333333333,76.02777777777779,1268.75,75.22916666666667C1271.1666666666667,74.43055555555556,1273.5833333333333,73.63194444444444,1276,72.83333333333333C1278.4166666666667,72.03472222222221,1280.8333333333333,71.23611111111111,1283.25,70.4375C1285.6666666666667,69.63888888888889,1288.0833333333333,68.84027777777779,1290.5,68.04166666666667C1292.9166666666667,67.24305555555556,1295.3333333333333,66.44444444444444,1297.75,65.64583333333333C1300.1666666666667,64.84722222222221,1302.5833333333333,64.04861111111111,1305,63.25000000000001C1307.4166666666667,62.4513888888889,1309.8333333333333,61.65277777777779,1312.25,60.85416666666668C1314.6666666666667,60.055555555555564,1317.0833333333333,59.25694444444444,1319.5,58.45833333333333C1321.9166666666667,57.659722222222214,1324.3333333333333,56.861111111111114,1326.75,56.06250000000001C1329.1666666666667,55.2638888888889,1331.5833333333333,54.46527777777778,1334,53.666666666666664C1336.4166666666667,52.86805555555555,1338.8333333333333,52.069444444444436,1341.25,51.27083333333333C1343.6666666666667,50.47222222222222,1346.0833333333333,49.673611111111114,1348.5,48.87500000000001C1350.9166666666667,48.0763888888889,1353.3333333333333,47.27777777777778,1355.75,46.479166666666664C1358.1666666666667,45.68055555555555,1360.5833333333333,44.881944444444436,1363,44.08333333333333C1365.4166666666667,43.28472222222222,1367.8333333333333,42.486111111111114,1370.25,41.68750000000001C1372.6666666666667,40.8888888888889,1375.0833333333333,40.09027777777778,1377.5,39.291666666666664C1379.9166666666667,38.49305555555555,1382.3333333333333,37.694444444444436,1384.75,36.89583333333333C1387.1666666666667,36.09722222222222,1389.5833333333333,35.298611111111114,1392,34.50000000000001C1394.4166666666667,33.7013888888889,1396.8333333333333,32.90277777777778,1399.25,32.104166666666664C1401.6666666666667,31.30555555555555,1404.0833333333333,30.50694444444444,1406.5,29.70833333333333C1408.9166666666667,28.909722222222218,1411.3333333333333,28.111111111111114,1413.75,27.312500000000004C1416.1666666666667,26.513888888888893,1418.5833333333333,25.71527777777778,1421,24.916666666666668C1423.4166666666667,24.118055555555557,1425.8333333333333,23.31944444444444,1428.25,22.52083333333333C1430.6666666666667,21.722222222222218,1433.0833333333333,20.92361111111111,1435.5,20.125000000000004C1437.9166666666667,19.326388888888896,1440.3333333333333,18.52777777777779,1442.75,17.72916666666668C1445.1666666666667,16.930555555555568,1447.5833333333333,16.13194444444445,1450,15.33333333333333" fill="transparent" stroke-linecap="round" stroke="#B6509E" stroke-width="2"></path><path class="visx-linepath" d="M0,105.41666666666666C2.4166666666666665,105.41666666666666,4.833333333333334,105.41666666666666,7.25,105.41666666666666C9.666666666666666,105.41666666666666,12.083333333333334,105.41666666666666,14.5,105.41666666666666C16.916666666666668,105.41666666666666,19.333333333333332,105.41666666666666,21.75,105.41666666666666C24.166666666666668,105.41666666666666,26.583333333333332,105.41666666666666,29,105.41666666666666C31.416666666666668,105.41666666666666,33.833333333333336,105.41666666666666,36.25,105.41666666666666C38.666666666666664,105.41666666666666,41.083333333333336,105.41666666666666,43.5,105.41666666666666C45.91666666666667,105.41666666666666,48.333333333333336,105.41666666666666,50.75000000000001,105.41666666666666C53.16666666666667,105.41666666666666,55.583333333333336,105.41666666666666,58,105.41666666666666C60.416666666666664,105.41666666666666,62.833333333333336,105.41666666666666,65.25,105.41666666666666C67.66666666666667,105.41666666666666,70.08333333333333,105.41666666666666,72.5,105.41666666666666C74.91666666666667,105.41666666666666,77.33333333333333,105.41666666666666,79.75,105.41666666666666C82.16666666666667,105.41666666666666,84.58333333333333,105.41666666666666,87,105.41666666666666C89.41666666666667,105.41666666666666,91.83333333333333,105.41666666666666,94.25,105.41666666666666C96.66666666666667,105.41666666666666,99.08333333333334,105.41666666666666,101.50000000000001,105.41666666666666C103.91666666666667,105.41666666666666,106.33333333333334,105.41666666666666,108.75,105.41666666666666C111.16666666666667,105.41666666666666,113.58333333333333,105.41666666666666,116,105.41666666666666C118.41666666666667,105.41666666666666,120.83333333333334,105.41666666666666,123.25000000000001,105.41666666666666C125.66666666666667,105.41666666666666,128.08333333333334,105.41666666666666,130.5,105.41666666666666C132.91666666666666,105.41666666666666,135.33333333333334,105.41666666666666,137.75,105.41666666666666C140.16666666666666,105.41666666666666,142.58333333333334,105.41666666666666,145,105.41666666666666C147.41666666666666,105.41666666666666,149.83333333333334,105.41666666666666,152.25,105.41666666666666C154.66666666666666,105.41666666666666,157.08333333333334,105.41666666666666,159.5,105.41666666666666C161.91666666666666,105.41666666666666,164.33333333333334,105.41666666666666,166.75,105.41666666666666C169.16666666666666,105.41666666666666,171.58333333333334,105.41666666666666,174,105.41666666666666C176.41666666666666,105.41666666666666,178.83333333333334,105.41666666666666,181.25,105.41666666666666C183.66666666666666,105.41666666666666,186.08333333333334,105.41666666666666,188.5,105.41666666666666C190.91666666666666,105.41666666666666,193.33333333333334,105.41666666666666,195.75,105.41666666666666C198.16666666666669,105.41666666666666,200.58333333333334,105.41666666666666,203.00000000000003,105.41666666666666C205.41666666666669,105.41666666666666,207.83333333333331,105.41666666666666,210.24999999999997,105.41666666666666C212.66666666666666,105.41666666666666,215.08333333333331,105.41666666666666,217.5,105.41666666666666C219.91666666666666,105.41666666666666,222.33333333333334,105.41666666666666,224.75,105.41666666666666C227.16666666666666,105.41666666666666,229.58333333333334,105.41666666666666,232,105.41666666666666C234.41666666666666,105.41666666666666,236.83333333333334,105.41666666666666,239.25,105.41666666666666C241.66666666666669,105.41666666666666,244.08333333333334,105.41666666666666,246.50000000000003,105.41666666666666C248.91666666666669,105.41666666666666,251.33333333333331,105.41666666666666,253.74999999999997,105.41666666666666C256.16666666666663,105.41666666666666,258.5833333333333,105.41666666666666,261,105.41666666666666C263.4166666666667,105.41666666666666,265.8333333333333,105.41666666666666,268.25,105.41666666666666C270.6666666666667,105.41666666666666,273.0833333333333,105.41666666666666,275.5,105.41666666666666C277.9166666666667,105.41666666666666,280.3333333333333,105.41666666666666,282.75,105.41666666666666C285.1666666666667,105.41666666666666,287.5833333333333,105.41666666666666,290,105.41666666666666C292.4166666666667,105.41666666666666,294.8333333333333,105.41666666666666,297.25,105.41666666666666C299.6666666666667,105.41666666666666,302.0833333333333,105.41666666666666,304.5,105.41666666666666C306.9166666666667,105.41666666666666,309.3333333333333,105.41666666666666,311.75,105.41666666666666C314.1666666666667,105.41666666666666,316.5833333333333,105.41666666666666,319,105.41666666666666C321.4166666666667,105.41666666666666,323.8333333333333,105.41666666666666,326.25,105.41666666666666C328.6666666666667,105.41666666666666,331.0833333333333,105.41666666666666,333.5,105.41666666666666C335.9166666666667,105.41666666666666,338.3333333333333,105.41666666666666,340.75,105.41666666666666C343.1666666666667,105.41666666666666,345.5833333333333,105.41666666666666,348,105.41666666666666C350.4166666666667,105.41666666666666,352.8333333333333,105.41666666666666,355.25,105.41666666666666C357.6666666666667,105.41666666666666,360.0833333333333,105.41666666666666,362.5,105.41666666666666C364.9166666666667,105.41666666666666,367.3333333333333,105.41666666666666,369.75,105.41666666666666C372.1666666666667,105.41666666666666,374.5833333333333,105.41666666666666,377,105.41666666666666C379.4166666666667,105.41666666666666,381.8333333333333,105.41666666666666,384.25,105.41666666666666C386.6666666666667,105.41666666666666,389.0833333333333,105.41666666666666,391.5,105.41666666666666C393.9166666666667,105.41666666666666,396.33333333333337,105.41666666666666,398.75000000000006,105.41666666666666C401.16666666666674,105.41666666666666,403.58333333333337,105.41666666666666,406.00000000000006,105.41666666666666C408.4166666666667,105.41666666666666,410.8333333333333,105.41666666666666,413.24999999999994,105.41666666666666C415.66666666666663,105.41666666666666,418.08333333333326,105.41666666666666,420.49999999999994,105.41666666666666C422.91666666666663,105.41666666666666,425.3333333333333,105.41666666666666,427.75,105.41666666666666C430.1666666666667,105.41666666666666,432.5833333333333,105.41666666666666,435,105.41666666666666C437.4166666666667,105.41666666666666,439.8333333333333,105.41666666666666,442.25,105.41666666666666C444.6666666666667,105.41666666666666,447.0833333333333,105.41666666666666,449.5,105.41666666666666C451.9166666666667,105.41666666666666,454.3333333333333,105.41666666666666,456.75,105.41666666666666C459.1666666666667,105.41666666666666,461.5833333333333,105.41666666666666,464,105.41666666666666C466.4166666666667,105.41666666666666,468.8333333333333,105.41666666666666,471.25,105.41666666666666C473.6666666666667,105.41666666666666,476.0833333333333,105.41666666666666,478.5,105.41666666666666C480.9166666666667,105.41666666666666,483.33333333333337,105.41666666666666,485.75000000000006,105.41666666666666C488.16666666666674,105.41666666666666,490.58333333333337,105.41666666666666,493.00000000000006,105.41666666666666C495.4166666666667,105.41666666666666,497.8333333333333,105.41666666666666,500.24999999999994,105.41666666666666C502.66666666666663,105.41666666666666,505.08333333333326,105.41666666666666,507.49999999999994,105.41666666666666C509.91666666666663,105.41666666666666,512.3333333333333,105.41666666666666,514.75,105.41666666666666C517.1666666666666,105.41666666666666,519.5833333333334,105.41666666666666,522,105.41666666666666C524.4166666666666,105.41666666666666,526.8333333333334,105.41666666666666,529.25,105.41666666666666C531.6666666666666,105.41666666666666,534.0833333333334,105.41666666666666,536.5,105.41666666666666C538.9166666666666,105.41666666666666,541.3333333333334,105.41666666666666,543.75,105.41666666666666C546.1666666666666,105.41666666666666,548.5833333333334,105.41666666666666,551,105.41666666666666C553.4166666666666,105.41666666666666,555.8333333333334,105.41666666666666,558.25,105.41666666666666C560.6666666666666,105.41666666666666,563.0833333333334,105.41666666666666,565.5,105.41666666666666C567.9166666666666,105.41666666666666,570.3333333333334,105.41666666666666,572.75,105.41666666666666C575.1666666666666,105.41666666666666,577.5833333333334,105.41666666666666,580,105.41666666666666C582.4166666666666,105.41666666666666,584.8333333333334,105.41666666666666,587.25,105.41666666666666C589.6666666666666,105.41666666666666,592.0833333333334,105.41666666666666,594.5,105.41666666666666C596.9166666666666,105.41666666666666,599.3333333333334,105.41666666666666,601.75,105.41666666666666C604.1666666666666,105.41666666666666,606.5833333333334,105.41666666666666,609,105.41666666666666C611.4166666666666,105.41666666666666,613.8333333333334,105.41666666666666,616.25,105.41666666666666C618.6666666666666,105.41666666666666,621.0833333333334,105.41666666666666,623.5,105.41666666666666C625.9166666666666,105.41666666666666,628.3333333333334,105.41666666666666,630.75,105.41666666666666C633.1666666666666,105.41666666666666,635.5833333333334,105.41666666666666,638,105.41666666666666C640.4166666666666,105.41666666666666,642.8333333333334,105.41666666666666,645.25,105.41666666666666C647.6666666666666,105.41666666666666,650.0833333333334,105.41666666666666,652.5,105.41666666666666C654.9166666666666,105.41666666666666,657.3333333333334,105.41666666666666,659.75,105.41666666666666C662.1666666666666,105.41666666666666,664.5833333333334,105.41666666666666,667,105.41666666666666C669.4166666666666,105.41666666666666,671.8333333333334,105.41666666666666,674.25,105.41666666666666C676.6666666666666,105.41666666666666,679.0833333333334,105.41666666666666,681.5,105.41666666666666C683.9166666666666,105.41666666666666,686.3333333333334,105.41666666666666,688.75,105.41666666666666C691.1666666666666,105.41666666666666,693.5833333333334,105.41666666666666,696,105.41666666666666C698.4166666666666,105.41666666666666,700.8333333333334,105.41666666666666,703.25,105.41666666666666C705.6666666666666,105.41666666666666,708.0833333333334,105.41666666666666,710.5,105.41666666666666C712.9166666666666,105.41666666666666,715.3333333333334,105.41666666666666,717.75,105.41666666666666C720.1666666666666,105.41666666666666,722.5833333333334,105.41666666666666,725,105.41666666666666C727.4166666666666,105.41666666666666,729.8333333333334,105.41666666666666,732.25,105.41666666666666C734.6666666666666,105.41666666666666,737.0833333333334,105.41666666666666,739.5,105.41666666666666C741.9166666666666,105.41666666666666,744.3333333333334,105.41666666666666,746.75,105.41666666666666C749.1666666666666,105.41666666666666,751.5833333333334,105.41666666666666,754,105.41666666666666C756.4166666666666,105.41666666666666,758.8333333333334,105.41666666666666,761.25,105.41666666666666C763.6666666666666,105.41666666666666,766.0833333333334,105.41666666666666,768.5,105.41666666666666C770.9166666666666,105.41666666666666,773.3333333333334,105.41666666666666,775.75,105.41666666666666C778.1666666666666,105.41666666666666,780.5833333333334,105.41666666666666,783,105.41666666666666C785.4166666666667,105.41666666666666,787.8333333333334,105.41666666666666,790.2500000000001,105.41666666666666C792.6666666666667,105.41666666666666,795.0833333333335,105.41666666666666,797.5000000000001,105.41666666666666C799.9166666666667,105.41666666666666,802.3333333333335,105.41666666666666,804.7500000000001,105.41666666666666C807.1666666666667,105.41666666666666,809.5833333333335,105.41666666666666,812.0000000000001,105.41666666666666C814.4166666666667,105.41666666666666,816.8333333333333,105.41666666666666,819.2499999999999,105.41666666666666C821.6666666666665,105.41666666666666,824.0833333333333,105.41666666666666,826.4999999999999,105.41666666666666C828.9166666666665,105.41666666666666,831.3333333333333,105.41666666666666,833.7499999999999,105.41666666666666C836.1666666666665,105.41666666666666,838.5833333333333,105.41666666666666,840.9999999999999,105.41666666666666C843.4166666666666,105.41666666666666,845.8333333333333,105.41666666666666,848.25,105.41666666666666C850.6666666666666,105.41666666666666,853.0833333333334,105.41666666666666,855.5,105.41666666666666C857.9166666666666,105.41666666666666,860.3333333333334,105.41666666666666,862.75,105.41666666666666C865.1666666666666,105.41666666666666,867.5833333333334,105.41666666666666,870,105.41666666666666C872.4166666666666,105.41666666666666,874.8333333333334,105.41666666666666,877.25,105.41666666666666C879.6666666666666,105.41666666666666,882.0833333333334,105.41666666666666,884.5,105.41666666666666C886.9166666666666,105.41666666666666,889.3333333333334,105.41666666666666,891.75,105.41666666666666C894.1666666666666,105.41666666666666,896.5833333333334,105.41666666666666,899,105.41666666666666C901.4166666666666,105.41666666666666,903.8333333333334,105.41666666666666,906.25,105.41666666666666C908.6666666666666,105.41666666666666,911.0833333333334,105.41666666666666,913.5,105.41666666666666C915.9166666666666,105.41666666666666,918.3333333333334,105.41666666666666,920.75,105.41666666666666C923.1666666666666,105.41666666666666,925.5833333333334,105.41666666666666,928,105.41666666666666C930.4166666666666,105.41666666666666,932.8333333333334,105.41666666666666,935.25,105.41666666666666C937.6666666666666,105.41666666666666,940.0833333333334,105.41666666666666,942.5,105.41666666666666C944.9166666666666,105.41666666666666,947.3333333333334,105.41666666666666,949.75,105.41666666666666C952.1666666666666,105.41666666666666,954.5833333333334,105.41666666666666,957,105.41666666666666C959.4166666666666,105.41666666666666,961.8333333333334,105.41666666666666,964.25,105.41666666666666C966.6666666666667,105.41666666666666,969.0833333333334,105.41666666666666,971.5000000000001,105.41666666666666C973.9166666666667,105.41666666666666,976.3333333333335,105.41666666666666,978.7500000000001,105.41666666666666C981.1666666666667,105.41666666666666,983.5833333333335,105.41666666666666,986.0000000000001,105.41666666666666C988.4166666666667,105.41666666666666,990.8333333333335,105.41666666666666,993.2500000000001,105.41666666666666C995.6666666666667,105.41666666666666,998.0833333333333,105.41666666666666,1000.4999999999999,105.41666666666666C1002.9166666666665,105.41666666666666,1005.3333333333333,105.41666666666666,1007.7499999999999,105.41666666666666C1010.1666666666665,105.41666666666666,1012.5833333333333,105.41666666666666,1014.9999999999999,105.41666666666666C1017.4166666666665,105.41666666666666,1019.8333333333333,105.41666666666666,1022.2499999999999,105.41666666666666C1024.6666666666665,105.41666666666666,1027.0833333333333,105.41666666666666,1029.5,105.41666666666666C1031.9166666666667,105.41666666666666,1034.3333333333333,105.41666666666666,1036.75,105.41666666666666C1039.1666666666667,105.41666666666666,1041.5833333333333,105.41666666666666,1044,105.41666666666666C1046.4166666666667,105.41666666666666,1048.8333333333333,105.41666666666666,1051.25,105.41666666666666C1053.6666666666667,105.41666666666666,1056.0833333333333,105.41666666666666,1058.5,105.41666666666666C1060.9166666666667,105.41666666666666,1063.3333333333333,105.41666666666666,1065.75,105.41666666666666C1068.1666666666667,105.41666666666666,1070.5833333333333,105.41666666666666,1073,105.41666666666666C1075.4166666666667,105.41666666666666,1077.8333333333333,105.41666666666666,1080.25,105.41666666666666C1082.6666666666667,105.41666666666666,1085.0833333333333,105.41666666666666,1087.5,105.41666666666666C1089.9166666666667,105.41666666666666,1092.3333333333333,105.41666666666666,1094.75,105.41666666666666C1097.1666666666667,105.41666666666666,1099.5833333333333,105.41666666666666,1102,105.41666666666666C1104.4166666666667,105.41666666666666,1106.8333333333333,105.41666666666666,1109.25,105.41666666666666C1111.6666666666667,105.41666666666666,1114.0833333333333,105.41666666666666,1116.5,105.41666666666666C1118.9166666666667,105.41666666666666,1121.3333333333333,105.41666666666666,1123.75,105.41666666666666C1126.1666666666667,105.41666666666666,1128.5833333333333,105.41666666666666,1131,105.41666666666666C1133.4166666666667,105.41666666666666,1135.8333333333333,105.41666666666666,1138.25,105.41666666666666C1140.6666666666667,105.41666666666666,1143.0833333333333,105.41666666666666,1145.5,105.41666666666666C1147.9166666666667,105.41666666666666,1150.3333333333333,105.41666666666666,1152.75,105.41666666666666C1155.1666666666667,105.41666666666666,1157.5833333333333,105.41666666666666,1160,105.41666666666666C1162.4166666666667,105.41666666666666,1164.8333333333333,105.41666666666666,1167.25,105.41666666666666C1169.6666666666667,105.41666666666666,1172.0833333333333,105.41666666666666,1174.5,105.41666666666666C1176.9166666666667,105.41666666666666,1179.3333333333333,105.41666666666666,1181.75,105.41666666666666C1184.1666666666667,105.41666666666666,1186.5833333333333,105.41666666666666,1189,105.41666666666666C1191.4166666666667,105.41666666666666,1193.8333333333333,105.41666666666666,1196.25,105.41666666666666C1198.6666666666667,105.41666666666666,1201.0833333333333,105.41666666666666,1203.5,105.41666666666666C1205.9166666666667,105.41666666666666,1208.3333333333333,105.41666666666666,1210.75,105.41666666666666C1213.1666666666667,105.41666666666666,1215.5833333333333,105.41666666666666,1218,105.41666666666666C1220.4166666666667,105.41666666666666,1222.8333333333333,105.41666666666666,1225.25,105.41666666666666C1227.6666666666667,105.41666666666666,1230.0833333333333,105.41666666666666,1232.5,105.41666666666666C1234.9166666666667,105.41666666666666,1237.3333333333333,105.41666666666666,1239.75,105.41666666666666C1242.1666666666667,105.41666666666666,1244.5833333333333,105.41666666666666,1247,105.41666666666666C1249.4166666666667,105.41666666666666,1251.8333333333333,105.41666666666666,1254.25,105.41666666666666C1256.6666666666667,105.41666666666666,1259.0833333333333,105.41666666666666,1261.5,105.41666666666666C1263.9166666666667,105.41666666666666,1266.3333333333333,105.41666666666666,1268.75,105.41666666666666C1271.1666666666667,105.41666666666666,1273.5833333333333,105.41666666666666,1276,105.41666666666666C1278.4166666666667,105.41666666666666,1280.8333333333333,105.41666666666666,1283.25,105.41666666666666C1285.6666666666667,105.41666666666666,1288.0833333333333,105.41666666666666,1290.5,105.41666666666666C1292.9166666666667,105.41666666666666,1295.3333333333333,105.41666666666666,1297.75,105.41666666666666C1300.1666666666667,105.41666666666666,1302.5833333333333,105.41666666666666,1305,105.41666666666666C1307.4166666666667,105.41666666666666,1309.8333333333333,105.41666666666666,1312.25,105.41666666666666C1314.6666666666667,105.41666666666666,1317.0833333333333,105.41666666666666,1319.5,105.41666666666666C1321.9166666666667,105.41666666666666,1324.3333333333333,105.41666666666666,1326.75,105.41666666666666C1329.1666666666667,105.41666666666666,1331.5833333333333,105.41666666666666,1334,105.41666666666666C1336.4166666666667,105.41666666666666,1338.8333333333333,105.41666666666666,1341.25,105.41666666666666C1343.6666666666667,105.41666666666666,1346.0833333333333,105.41666666666666,1348.5,105.41666666666666C1350.9166666666667,105.41666666666666,1353.3333333333333,105.41666666666666,1355.75,105.41666666666666C1358.1666666666667,105.41666666666666,1360.5833333333333,105.41666666666666,1363,105.41666666666666C1365.4166666666667,105.41666666666666,1367.8333333333333,105.41666666666666,1370.25,105.41666666666666C1372.6666666666667,105.41666666666666,1375.0833333333333,105.41666666666666,1377.5,105.41666666666666C1379.9166666666667,105.41666666666666,1382.3333333333333,105.41666666666666,1384.75,105.41666666666666C1387.1666666666667,105.41666666666666,1389.5833333333333,105.41666666666666,1392,105.41666666666666C1394.4166666666667,105.41666666666666,1396.8333333333333,105.41666666666666,1399.25,105.41666666666666C1401.6666666666667,105.41666666666666,1404.0833333333333,105.41666666666666,1406.5,105.41666666666666C1408.9166666666667,105.41666666666666,1411.3333333333333,105.41666666666666,1413.75,105.41666666666666C1416.1666666666667,105.41666666666666,1418.5833333333333,105.41666666666666,1421,105.41666666666666C1423.4166666666667,105.41666666666666,1425.8333333333333,105.41666666666666,1428.25,105.41666666666666C1430.6666666666667,105.41666666666666,1433.0833333333333,105.41666666666666,1435.5,105.41666666666666C1437.9166666666667,105.41666666666666,1440.3333333333333,105.41666666666666,1442.75,105.41666666666666C1445.1666666666667,105.41666666666666,1447.5833333333333,105.41666666666666,1450,105.41666666666666" fill="transparent" stroke-linecap="round" stroke="#E7C6DF" stroke-width="2"></path><g class="visx-group visx-axis visx-axis-bottom" transform="translate(0, 115)"><g class="visx-group visx-axis-tick" transform="translate(0, 0)"><line class="visx-line" x1="0" y1="0" x2="0" y2="8" fill="transparent" shape-rendering="crispEdges" stroke="#000" stroke-width="0" stroke-linecap="square"></line><svg x="0" y="0" font-size="10" style="overflow:visible"><text transform="" x="0" y="18" fill="#000" font-size="10" text-anchor="middle"><tspan x="0" dy="0em">0%</tspan></text></svg></g><g class="visx-group visx-axis-tick" transform="translate(0, 0)"><line class="visx-line" x1="362.5" y1="0" x2="362.5" y2="8" fill="transparent" shape-rendering="crispEdges" stroke="#000" stroke-width="0" stroke-linecap="square"></line><svg x="0" y="0" font-size="10" style="overflow:visible"><text transform="" x="362.5" y="18" fill="#000" font-size="10" text-anchor="middle"><tspan x="362.5" dy="0em">25%</tspan></text></svg></g><g class="visx-group visx-axis-tick" transform="translate(0, 0)"><line class="visx-line" x1="725" y1="0" x2="725" y2="8" fill="transparent" shape-rendering="crispEdges" stroke="#000" stroke-width="0" stroke-linecap="square"></line><svg x="0" y="0" font-size="10" style="overflow:visible"><text transform="" x="725" y="18" fill="#000" font-size="10" text-anchor="middle"><tspan x="725" dy="0em">50%</tspan></text></svg></g><g class="visx-group visx-axis-tick" transform="translate(0, 0)"><line class="visx-line" x1="1087.5" y1="0" x2="1087.5" y2="8" fill="transparent" shape-rendering="crispEdges" stroke="#000" stroke-width="0" stroke-linecap="square"></line><svg x="0" y="0" font-size="10" style="overflow:visible"><text transform="" x="1087.5" y="18" fill="#000" font-size="10" text-anchor="middle"><tspan x="1087.5" dy="0em">75%</tspan></text></svg></g><g class="visx-group visx-axis-tick" transform="translate(0, 0)"><line class="visx-line" x1="1450" y1="0" x2="1450" y2="8" fill="transparent" shape-rendering="crispEdges" stroke="#000" stroke-width="0" stroke-linecap="square"></line><svg x="0" y="0" font-size="10" style="overflow:visible"><text transform="" x="1450" y="18" fill="#000" font-size="10" text-anchor="middle"><tspan x="1450" dy="0em">100%</tspan></text></svg></g><line class="visx-line visx-axis-line" x1="0.5" y1="0" x2="1450.5" y2="0" fill="transparent" shape-rendering="crispEdges" stroke="#222" stroke-width="0"></line></g><g class="visx-group visx-axis visx-axis-left" transform="translate(0, 0)"><g class="visx-group visx-axis-tick" transform="translate(0, 0)"><line class="visx-line" x1="0" y1="115" x2="-8" y2="115" fill="transparent" shape-rendering="crispEdges" stroke="#222" stroke-width="0" stroke-linecap="square"></line><svg x="-30" y="0" font-size="8" style="overflow:visible"><text transform="" x="-8" y="115" fill="#000" font-size="8" text-anchor="start"><tspan x="-8" dy="0em">0%</tspan></text></svg></g><g class="visx-group visx-axis-tick" transform="translate(0, 0)"><line class="visx-line" x1="0" y1="67.08333333333333" x2="-8" y2="67.08333333333333" fill="transparent" shape-rendering="crispEdges" stroke="#222" stroke-width="0" stroke-linecap="square"></line><svg x="-30" y="0" font-size="8" style="overflow:visible"><text transform="" x="-8" y="67.08333333333333" fill="#000" font-size="8" text-anchor="start"><tspan x="-8" dy="0em">50%</tspan></text></svg></g><g class="visx-group visx-axis-tick" transform="translate(0, 0)"><line class="visx-line" x1="0" y1="19.16666666666666" x2="-8" y2="19.16666666666666" fill="transparent" shape-rendering="crispEdges" stroke="#222" stroke-width="0" stroke-linecap="square"></line><svg x="-30" y="0" font-size="8" style="overflow:visible"><text transform="" x="-8" y="19.16666666666666" fill="#000" font-size="8" text-anchor="start"><tspan x="-8" dy="0em">100%</tspan></text></svg></g><line class="visx-line visx-axis-line" x1="0" y1="115.5" x2="0" y2="0.5" fill="transparent" shape-rendering="crispEdges" stroke="#222" stroke-width="0"></line></g><rect class="visx-bar" width="1450" height="115" fill="transparent"></rect><line class="visx-line" x1="1160" y1="28" x2="1160" y2="115" fill="transparent" shape-rendering="crispEdges" stroke="#0062D2" stroke-width="1" pointer-events="none" stroke-dasharray="5,2"></line><svg x="0" y="0" font-size="10px" style="overflow:visible"><text transform="" x="1160" y="20" font-size="10px" fill="#fff" stroke="#fff" stroke-width="0.8em" text-anchor="middle"><tspan x="1160" dy="0.355em">Optimal 80%</tspan></text></svg><svg x="0" y="0" font-size="10px" style="overflow:visible"><text transform="" x="1160" y="20" font-size="10px" fill="#62677B" text-anchor="middle"><tspan x="1160" dy="0.355em">Optimal 80%</tspan></text></svg></g></svg>