<?xml version="1.0"?><svg xmlns="http://www.w3.org/2000/svg" xmlns:xlink= "http://www.w3.org/1999/xlink" style="background: white;" width="1500" height="185"> <g style="color: black; font-size: 13px; font-family: sans-serif; transform: translate(18px, 25px);"><g><circle r="3" cx="-6" cy="-5" style="fill: #B6509E" /><text>Borrow APR, variable</text></g><g style="transform: translateX(150px);"><circle r="3" cx="-6" cy="-5" style="fill: rgb(231, 198, 223)" /><text>Borrow APR, stable</text></g><g style="transform: translateX(290px);"><circle r="3" cx="-6" cy="-5" style="fill: rgb(0, 98, 210)" /><text>Utilization Rate</text></g></g><g class="visx-group" transform="translate(40, 50)"><g class="visx-group visx-rows" transform="translate(0, 0)"><line class="visx-line" x1="0" y1="115" x2="1450" y2="115" fill="transparent" shape-rendering="crispEdges" stroke="#000" stroke-width="1" stroke-dasharray="3,3" pointer-events="none"></line><line class="visx-line" x1="0" y1="82.14285714285714" x2="1450" y2="82.14285714285714" fill="transparent" shape-rendering="crispEdges" stroke="#000" stroke-width="1" stroke-dasharray="3,3" pointer-events="none"></line><line class="visx-line" x1="0" y1="49.28571428571429" x2="1450" y2="49.28571428571429" fill="transparent" shape-rendering="crispEdges" stroke="#000" stroke-width="1" stroke-dasharray="3,3" pointer-events="none"></line><line class="visx-line" x1="0" y1="16.428571428571434" x2="1450" y2="16.428571428571434" fill="transparent" shape-rendering="crispEdges" stroke="#000" stroke-width="1" stroke-dasharray="3,3" pointer-events="none"></line></g><path class="visx-linepath" d="M0,114.9999999999489C2.4166666666666665,114.99148148145167,4.833333333333334,114.98296296295445,7.25,114.97444444444444C9.666666666666666,114.96592592593444,12.083333333333334,114.9574074074074,14.5,114.94888888888889C16.916666666666668,114.94037037037037,19.333333333333332,114.93185185185185,21.75,114.92333333333333C24.166666666666668,114.91481481481482,26.583333333333332,114.90629629629629,29,114.89777777777778C31.416666666666668,114.88925925925926,33.833333333333336,114.88074074074075,36.25,114.87222222222223C38.666666666666664,114.86370370370372,41.083333333333336,114.85518518518518,43.5,114.84666666666666C45.91666666666667,114.83814814814814,48.333333333333336,114.82962962962962,50.75000000000001,114.82111111111111C53.16666666666667,114.8125925925926,55.583333333333336,114.80407407407407,58,114.79555555555555C60.416666666666664,114.78703703703704,62.833333333333336,114.77851851851851,65.25,114.77C67.66666666666667,114.76148148148148,70.08333333333333,114.75296296296295,72.5,114.74444444444444C74.91666666666667,114.73592592592593,77.33333333333333,114.7274074074074,79.75,114.71888888888888C82.16666666666667,114.71037037037037,84.58333333333333,114.70185185185184,87,114.69333333333333C89.41666666666667,114.68481481481481,91.83333333333333,114.67629629629629,94.25,114.66777777777777C96.66666666666667,114.65925925925926,99.08333333333334,114.65074074074074,101.50000000000001,114.64222222222223C103.91666666666667,114.63370370370372,106.33333333333334,114.62518518518519,108.75,114.61666666666667C111.16666666666667,114.60814814814816,113.58333333333333,114.59962962962963,116,114.59111111111112C118.41666666666667,114.5825925925926,120.83333333333334,114.57407407407408,123.25000000000001,114.56555555555556C125.66666666666667,114.55703703703705,128.08333333333334,114.54851851851852,130.5,114.54C132.91666666666666,114.53148148148148,135.33333333333334,114.52296296296296,137.75,114.51444444444444C140.16666666666666,114.50592592592591,142.58333333333334,114.4974074074074,145,114.48888888888888C147.41666666666666,114.48037037037037,149.83333333333334,114.47185185185184,152.25,114.46333333333332C154.66666666666666,114.45481481481481,157.08333333333334,114.44629629629628,159.5,114.43777777777777C161.91666666666666,114.42925925925925,164.33333333333334,114.42074074074074,166.75,114.41222222222223C169.16666666666666,114.40370370370371,171.58333333333334,114.39518518518518,174,114.38666666666667C176.41666666666666,114.37814814814816,178.83333333333334,114.36962962962963,181.25,114.36111111111111C183.66666666666666,114.3525925925926,186.08333333333334,114.34407407407407,188.5,114.33555555555556C190.91666666666666,114.32703703703704,193.33333333333334,114.31851851851852,195.75,114.31C198.16666666666669,114.30148148148149,200.58333333333334,114.29296296296296,203.00000000000003,114.28444444444445C205.41666666666669,114.27592592592593,207.83333333333331,114.2674074074074,210.24999999999997,114.25888888888889C212.66666666666666,114.25037037037038,215.08333333333331,114.24185185185185,217.5,114.23333333333333C219.91666666666666,114.22481481481482,222.33333333333334,114.21629629629629,224.75,114.20777777777778C227.16666666666666,114.19925925925926,229.58333333333334,114.19074074074074,232,114.18222222222222C234.41666666666666,114.17370370370371,236.83333333333334,114.16518518518518,239.25,114.15666666666667C241.66666666666669,114.14814814814815,244.08333333333334,114.13962962962962,246.50000000000003,114.13111111111111C248.91666666666669,114.1225925925926,251.33333333333331,114.11407407407407,253.74999999999997,114.10555555555555C256.16666666666663,114.09703703703704,258.5833333333333,114.08851851851851,261,114.08C263.4166666666667,114.07148148148148,265.8333333333333,114.06296296296296,268.25,114.05444444444444C270.6666666666667,114.04592592592593,273.0833333333333,114.0374074074074,275.5,114.02888888888889C277.9166666666667,114.02037037037037,280.3333333333333,114.01185185185184,282.75,114.00333333333333C285.1666666666667,113.99481481481482,287.5833333333333,113.9862962962963,290,113.97777777777779C292.4166666666667,113.96925925925927,294.8333333333333,113.96074074074075,297.25,113.95222222222223C299.6666666666667,113.94370370370372,302.0833333333333,113.93518518518519,304.5,113.92666666666668C306.9166666666667,113.91814814814816,309.3333333333333,113.90962962962962,311.75,113.9011111111111C314.1666666666667,113.89259259259259,316.5833333333333,113.88407407407406,319,113.87555555555555C321.4166666666667,113.86703703703704,323.8333333333333,113.85851851851851,326.25,113.85C328.6666666666667,113.84148148148148,331.0833333333333,113.83296296296295,333.5,113.82444444444444C335.9166666666667,113.81592592592592,338.3333333333333,113.8074074074074,340.75,113.79888888888888C343.1666666666667,113.79037037037037,345.5833333333333,113.78185185185184,348,113.77333333333333C350.4166666666667,113.76481481481481,352.8333333333333,113.7562962962963,355.25,113.74777777777778C357.6666666666667,113.73925925925927,360.0833333333333,113.73074074074074,362.5,113.72222222222223C364.9166666666667,113.71370370370371,367.3333333333333,113.70518518518519,369.75,113.69666666666667C372.1666666666667,113.68814814814816,374.5833333333333,113.67962962962963,377,113.67111111111112C379.4166666666667,113.6625925925926,381.8333333333333,113.65407407407407,384.25,113.64555555555556C386.6666666666667,113.63703703703705,389.0833333333333,113.62851851851852,391.5,113.62C393.9166666666667,113.61148148148149,396.33333333333337,113.60296296296298,398.75000000000006,113.59444444444445C401.16666666666674,113.58592592592593,403.58333333333337,113.5774074074074,406.00000000000006,113.56888888888888C408.4166666666667,113.56037037037036,410.8333333333333,113.55185185185184,413.24999999999994,113.54333333333332C415.66666666666663,113.53481481481481,418.08333333333326,113.5262962962963,420.49999999999994,113.51777777777778C422.91666666666663,113.50925925925927,425.3333333333333,113.50074074074074,427.75,113.49222222222222C430.1666666666667,113.48370370370371,432.5833333333333,113.47518518518518,435,113.46666666666667C437.4166666666667,113.45814814814815,439.8333333333333,113.44962962962963,442.25,113.44111111111111C444.6666666666667,113.4325925925926,447.0833333333333,113.42407407407407,449.5,113.41555555555556C451.9166666666667,113.40703703703704,454.3333333333333,113.39851851851851,456.75,113.39C459.1666666666667,113.38148148148149,461.5833333333333,113.37296296296296,464,113.36444444444444C466.4166666666667,113.35592592592593,468.8333333333333,113.3474074074074,471.25,113.33888888888889C473.6666666666667,113.33037037037037,476.0833333333333,113.32185185185185,478.5,113.31333333333333C480.9166666666667,113.30481481481482,483.33333333333337,113.29629629629629,485.75000000000006,113.28777777777778C488.16666666666674,113.27925925925926,490.58333333333337,113.27074074074073,493.00000000000006,113.26222222222222C495.4166666666667,113.2537037037037,497.8333333333333,113.24518518518518,500.24999999999994,113.23666666666666C502.66666666666663,113.22814814814815,505.08333333333326,113.21962962962962,507.49999999999994,113.21111111111111C509.91666666666663,113.2025925925926,512.3333333333333,113.19407407407407,514.75,113.18555555555555C517.1666666666666,113.17703703703704,519.5833333333334,113.16851851851851,522,113.16C524.4166666666666,113.15148148148148,526.8333333333334,113.14296296296295,529.25,113.13444444444444C531.6666666666666,113.12592592592593,534.0833333333334,113.1174074074074,536.5,113.10888888888888C538.9166666666666,113.10037037037037,541.3333333333334,113.09185185185184,543.75,113.08333333333333C546.1666666666666,113.07481481481481,548.5833333333334,113.0662962962963,551,113.05777777777779C553.4166666666666,113.04925925925927,555.8333333333334,113.04074074074074,558.25,113.03222222222223C560.6666666666666,113.02370370370372,563.0833333333334,113.01518518518519,565.5,113.00666666666667C567.9166666666666,112.99814814814816,570.3333333333334,112.98962962962963,572.75,112.98111111111112C575.1666666666666,112.9725925925926,577.5833333333334,112.96407407407406,580,112.95555555555555C582.4166666666666,112.94703703703703,584.8333333333334,112.9385185185185,587.25,112.92999999999999C589.6666666666666,112.92148148148148,592.0833333333334,112.91296296296295,594.5,112.90444444444444C596.9166666666666,112.89592592592592,599.3333333333334,112.8874074074074,601.75,112.87888888888888C604.1666666666666,112.87037037037037,606.5833333333334,112.86185185185185,609,112.85333333333334C611.4166666666666,112.84481481481482,613.8333333333334,112.8362962962963,616.25,112.82777777777778C618.6666666666666,112.81925925925927,621.0833333333334,112.81074074074074,623.5,112.80222222222223C625.9166666666666,112.79370370370371,628.3333333333334,112.78518518518518,630.75,112.77666666666667C633.1666666666666,112.76814814814816,635.5833333333334,112.75962962962963,638,112.75111111111111C640.4166666666666,112.7425925925926,642.8333333333334,112.73407407407407,645.25,112.72555555555556C647.6666666666666,112.71703703703704,650.0833333333334,112.71703703703704,652.5,112.7C654.9166666666666,112.68296296296296,657.3333333333334,112.10259740259741,659.75,111.80389610389611C662.1666666666666,111.5051948051948,664.5833333333334,111.2064935064935,667,110.9077922077922C669.4166666666666,110.6090909090909,671.8333333333334,110.3103896103896,674.25,110.0116883116883C676.6666666666666,109.712987012987,679.0833333333334,109.41428571428571,681.5,109.11558441558441C683.9166666666666,108.8168831168831,686.3333333333334,108.51818181818182,688.75,108.21948051948051C691.1666666666666,107.92077922077921,693.5833333333334,107.62207792207792,696,107.32337662337662C698.4166666666666,107.02467532467531,700.8333333333334,106.72597402597403,703.25,106.42727272727272C705.6666666666666,106.12857142857142,708.0833333333334,105.82987012987013,710.5,105.53116883116883C712.9166666666666,105.23246753246752,715.3333333333334,104.93376623376624,717.75,104.63506493506493C720.1666666666666,104.33636363636363,722.5833333333334,104.03766233766234,725,103.73896103896104C727.4166666666666,103.44025974025973,729.8333333333334,103.14155844155844,732.25,102.84285714285714C734.6666666666666,102.54415584415584,737.0833333333334,102.24545454545455,739.5,101.94675324675325C741.9166666666666,101.64805194805194,744.3333333333334,101.34935064935065,746.75,101.05064935064935C749.1666666666666,100.75194805194805,751.5833333333334,100.45324675324675,754,100.15454545454544C756.4166666666666,99.85584415584414,758.8333333333334,99.55714285714286,761.25,99.25844155844156C763.6666666666666,98.95974025974026,766.0833333333334,98.66103896103895,768.5,98.36233766233765C770.9166666666666,98.06363636363635,773.3333333333334,97.76493506493507,775.75,97.46623376623377C778.1666666666666,97.16753246753247,780.5833333333334,96.86883116883115,783,96.57012987012986C785.4166666666667,96.27142857142856,787.8333333333334,95.97272727272728,790.2500000000001,95.67402597402598C792.6666666666667,95.37532467532469,795.0833333333335,95.07662337662337,797.5000000000001,94.77792207792207C799.9166666666667,94.47922077922077,802.3333333333335,94.18051948051948,804.7500000000001,93.88181818181819C807.1666666666667,93.5831168831169,809.5833333333335,93.2844155844156,812.0000000000001,92.9857142857143C814.4166666666667,92.687012987013,816.8333333333333,92.3883116883117,819.2499999999999,92.0896103896104C821.6666666666665,91.7909090909091,824.0833333333333,91.4922077922078,826.4999999999999,91.19350649350649C828.9166666666665,90.89480519480519,831.3333333333333,90.5961038961039,833.7499999999999,90.2974025974026C836.1666666666665,89.99870129870129,838.5833333333333,89.69999999999999,840.9999999999999,89.4012987012987C843.4166666666666,89.1025974025974,845.8333333333333,88.80389610389611,848.25,88.5051948051948C850.6666666666666,88.2064935064935,853.0833333333334,87.90779220779221,855.5,87.60909090909091C857.9166666666666,87.3103896103896,860.3333333333334,87.01168831168832,862.75,86.71298701298701C865.1666666666666,86.41428571428571,867.5833333333334,86.11558441558442,870,85.81688311688312C872.4166666666666,85.51818181818182,874.8333333333334,85.21948051948053,877.25,84.92077922077922C879.6666666666666,84.62207792207792,882.0833333333334,84.32337662337662,884.5,84.02467532467531C886.9166666666666,83.72597402597401,889.3333333333334,83.42727272727272,891.75,83.12857142857143C894.1666666666666,82.82987012987014,896.5833333333334,82.53116883116884,899,82.23246753246754C901.4166666666666,81.93376623376624,903.8333333333334,81.63506493506495,906.25,81.33636363636364C908.6666666666666,81.03766233766234,911.0833333333334,80.73896103896104,913.5,80.44025974025973C915.9166666666666,80.14155844155843,918.3333333333334,79.84285714285714,920.75,79.54415584415584C923.1666666666666,79.24545454545454,925.5833333333334,78.94675324675325,928,78.64805194805194C930.4166666666666,78.34935064935064,932.8333333333334,78.05064935064935,935.25,77.75194805194805C937.6666666666666,77.45324675324675,940.0833333333334,77.15454545454546,942.5,76.85584415584415C944.9166666666666,76.55714285714285,947.3333333333334,76.25844155844156,949.75,75.95974025974026C952.1666666666666,75.66103896103895,954.5833333333334,75.36233766233765,957,75.06363636363635C959.4166666666666,74.76493506493505,961.8333333333334,74.46623376623376,964.25,74.16753246753247C966.6666666666667,73.86883116883116,969.0833333333334,73.57012987012988,971.5000000000001,73.27142857142857C973.9166666666667,72.97272727272727,976.3333333333335,72.67402597402598,978.7500000000001,72.37532467532468C981.1666666666667,72.07662337662337,983.5833333333335,71.77792207792209,986.0000000000001,71.47922077922078C988.4166666666667,71.18051948051948,990.8333333333335,70.88181818181819,993.2500000000001,70.58311688311689C995.6666666666667,70.2844155844156,998.0833333333333,69.9857142857143,1000.4999999999999,69.68701298701299C1002.9166666666665,69.38831168831169,1005.3333333333333,69.08961038961039,1007.7499999999999,68.79090909090908C1010.1666666666665,68.49220779220778,1012.5833333333333,68.19350649350649,1014.9999999999999,67.89480519480519C1017.4166666666665,67.59610389610388,1019.8333333333333,67.29740259740258,1022.2499999999999,66.99870129870129C1024.6666666666665,66.69999999999999,1027.0833333333333,66.40129870129871,1029.5,66.10259740259741C1031.9166666666667,65.80389610389611,1034.3333333333333,65.5051948051948,1036.75,65.2064935064935C1039.1666666666667,64.9077922077922,1041.5833333333333,64.60909090909091,1044,64.3103896103896C1046.4166666666667,64.0116883116883,1048.8333333333333,63.71298701298701,1051.25,63.41428571428571C1053.6666666666667,63.115584415584415,1056.0833333333333,62.81688311688312,1058.5,62.51818181818182C1060.9166666666667,62.21948051948053,1063.3333333333333,61.920779220779224,1065.75,61.62207792207793C1068.1666666666667,61.32337662337663,1070.5833333333333,61.024675324675336,1073,60.72597402597403C1075.4166666666667,60.42727272727273,1077.8333333333333,60.12857142857142,1080.25,59.82987012987012C1082.6666666666667,59.53116883116883,1085.0833333333333,59.23246753246754,1087.5,58.93376623376624C1089.9166666666667,58.635064935064946,1092.3333333333333,58.33636363636363,1094.75,58.03766233766233C1097.1666666666667,57.73896103896104,1099.5833333333333,57.44025974025974,1102,57.141558441558445C1104.4166666666667,56.84285714285715,1106.8333333333333,56.544155844155846,1109.25,56.24545454545455C1111.6666666666667,55.946753246753254,1114.0833333333333,55.64805194805196,1116.5,55.349350649350654C1118.9166666666667,55.05064935064935,1121.3333333333333,54.75194805194804,1123.75,54.453246753246745C1126.1666666666667,54.15454545454545,1128.5833333333333,53.85584415584416,1131,53.557142857142864C1133.4166666666667,53.25844155844157,1135.8333333333333,52.959740259740265,1138.25,52.66103896103896C1140.6666666666667,52.36233766233766,1143.0833333333333,52.06363636363635,1145.5,51.76493506493505C1147.9166666666667,51.466233766233756,1150.3333333333333,51.16753246753247,1152.75,50.86883116883117C1155.1666666666667,50.570129870129875,1157.5833333333333,50.27142857142857,1160,49.972727272727276C1162.4166666666667,49.67402597402598,1164.8333333333333,49.37532467532468,1167.25,49.07662337662338C1169.6666666666667,48.777922077922085,1172.0833333333333,48.47922077922078,1174.5,48.180519480519486C1176.9166666666667,47.88181818181819,1179.3333333333333,47.58311688311689,1181.75,47.284415584415584C1184.1666666666667,46.98571428571428,1186.5833333333333,46.68701298701297,1189,46.388311688311674C1191.4166666666667,46.08961038961038,1193.8333333333333,45.79090909090909,1196.25,45.49220779220779C1198.6666666666667,45.1935064935065,1201.0833333333333,44.894805194805194,1203.5,44.5961038961039C1205.9166666666667,44.2974025974026,1208.3333333333333,43.9987012987013,1210.75,43.7C1213.1666666666667,43.40129870129871,1215.5833333333333,43.102597402597404,1218,42.80389610389611C1220.4166666666667,42.50519480519481,1222.8333333333333,42.2064935064935,1225.25,41.907792207792205C1227.6666666666667,41.60909090909091,1230.0833333333333,41.31038961038961,1232.5,41.01168831168831C1234.9166666666667,40.71298701298701,1237.3333333333333,40.4142857142857,1239.75,40.1155844155844C1242.1666666666667,39.816883116883105,1244.5833333333333,39.518181818181816,1247,39.21948051948052C1249.4166666666667,38.920779220779224,1251.8333333333333,38.62207792207793,1254.25,38.32337662337663C1256.6666666666667,38.024675324675336,1259.0833333333333,37.725974025974025,1261.5,37.42727272727272C1263.9166666666667,37.12857142857142,1266.3333333333333,36.82987012987012,1268.75,36.53116883116883C1271.1666666666667,36.23246753246753,1273.5833333333333,35.93376623376623,1276,35.63506493506493C1278.4166666666667,35.336363636363636,1280.8333333333333,35.03766233766234,1283.25,34.73896103896104C1285.6666666666667,34.440259740259734,1288.0833333333333,34.14155844155842,1290.5,33.84285714285713C1292.9166666666667,33.54415584415583,1295.3333333333333,33.24545454545454,1297.75,32.94675324675325C1300.1666666666667,32.64805194805195,1302.5833333333333,32.349350649350654,1305,32.05064935064936C1307.4166666666667,31.75194805194806,1309.8333333333333,31.453246753246752,1312.25,31.154545454545453C1314.6666666666667,30.855844155844153,1317.0833333333333,30.55714285714285,1319.5,30.258441558441554C1321.9166666666667,29.959740259740258,1324.3333333333333,29.66103896103897,1326.75,29.36233766233767C1329.1666666666667,29.06363636363637,1331.5833333333333,28.764935064935063,1334,28.466233766233763C1336.4166666666667,28.167532467532464,1338.8333333333333,27.86883116883116,1341.25,27.570129870129865C1343.6666666666667,27.27142857142857,1346.0833333333333,26.97272727272728,1348.5,26.67402597402598C1350.9166666666667,26.37532467532468,1353.3333333333333,26.07662337662337,1355.75,25.77792207792207C1358.1666666666667,25.47922077922077,1360.5833333333333,25.18051948051949,1363,24.88181818181819C1365.4166666666667,24.58311688311689,1367.8333333333333,24.28441558441558,1370.25,23.98571428571428C1372.6666666666667,23.68701298701298,1375.0833333333333,23.38831168831168,1377.5,23.08961038961038C1379.9166666666667,22.790909090909082,1382.3333333333333,22.492207792207775,1384.75,22.193506493506476C1387.1666666666667,21.894805194805176,1389.5833333333333,21.596103896103887,1392,21.29740259740259C1394.4166666666667,20.998701298701295,1396.8333333333333,20.700000000000003,1399.25,20.401298701298707C1401.6666666666667,20.10259740259741,1404.0833333333333,19.80389610389611,1406.5,19.50519480519481C1408.9166666666667,19.206493506493512,1411.3333333333333,18.907792207792202,1413.75,18.609090909090902C1416.1666666666667,18.310389610389603,1418.5833333333333,18.0116883116883,1421,17.712987012987004C1423.4166666666667,17.414285714285707,1425.8333333333333,17.115584415584422,1428.25,16.816883116883123C1430.6666666666667,16.518181818181823,1433.0833333333333,16.219480519480513,1435.5,15.920779220779211C1437.9166666666667,15.62207792207791,1440.3333333333333,15.323376623376612,1442.75,15.024675324675316C1445.1666666666667,14.72597402597402,1447.5833333333333,14.427272727272726,1450,14.128571428571432" fill="transparent" stroke-linecap="round" stroke="#B6509E" stroke-width="2"></path><path class="visx-linepath" d="M0,112.37142857137745C2.4166666666666665,112.36291005288024,4.833333333333334,112.35439153438303,7.25,112.34587301587302C9.666666666666666,112.33735449736302,12.083333333333334,112.32883597883598,14.5,112.32031746031747C16.916666666666668,112.31179894179895,19.333333333333332,112.30328042328043,21.75,112.29476190476191C24.166666666666668,112.2862433862434,26.583333333333332,112.27772486772488,29,112.26920634920636C31.416666666666668,112.26068783068783,33.833333333333336,112.25216931216931,36.25,112.24365079365079C38.666666666666664,112.23513227513226,41.083333333333336,112.22661375661374,43.5,112.21809523809523C45.91666666666667,112.20957671957672,48.333333333333336,112.20105820105819,50.75000000000001,112.19253968253967C53.16666666666667,112.18402116402116,55.583333333333336,112.17550264550263,58,112.16698412698412C60.416666666666664,112.1584656084656,62.833333333333336,112.14994708994708,65.25,112.14142857142856C67.66666666666667,112.13291005291005,70.08333333333333,112.12439153439153,72.5,112.11587301587302C74.91666666666667,112.1073544973545,77.33333333333333,112.09883597883598,79.75,112.09031746031746C82.16666666666667,112.08179894179895,84.58333333333333,112.07328042328042,87,112.06476190476191C89.41666666666667,112.0562433862434,91.83333333333333,112.04772486772487,94.25,112.03920634920635C96.66666666666667,112.03068783068784,99.08333333333334,112.02216931216931,101.50000000000001,112.0136507936508C103.91666666666667,112.00513227513228,106.33333333333334,111.99661375661375,108.75,111.98809523809524C111.16666666666667,111.97957671957673,113.58333333333333,111.9710582010582,116,111.96253968253968C118.41666666666667,111.95402116402117,120.83333333333334,111.94550264550266,123.25000000000001,111.93698412698413C125.66666666666667,111.92846560846561,128.08333333333334,111.91994708994707,130.5,111.91142857142856C132.91666666666666,111.90291005291004,135.33333333333334,111.89439153439153,137.75,111.88587301587302C140.16666666666666,111.8773544973545,142.58333333333334,111.86883597883597,145,111.86031746031746C147.41666666666666,111.85179894179895,149.83333333333334,111.84328042328042,152.25,111.8347619047619C154.66666666666666,111.82624338624339,157.08333333333334,111.81772486772486,159.5,111.80920634920635C161.91666666666666,111.80068783068783,164.33333333333334,111.7921693121693,166.75,111.78365079365079C169.16666666666666,111.77513227513228,171.58333333333334,111.76661375661375,174,111.75809523809524C176.41666666666666,111.74957671957672,178.83333333333334,111.7410582010582,181.25,111.73253968253968C183.66666666666666,111.72402116402117,186.08333333333334,111.71550264550264,188.5,111.70698412698412C190.91666666666666,111.69846560846561,193.33333333333334,111.68994708994708,195.75,111.68142857142857C198.16666666666669,111.67291005291005,200.58333333333334,111.66439153439154,203.00000000000003,111.65587301587303C205.41666666666669,111.64735449735451,207.83333333333331,111.63883597883597,210.24999999999997,111.63031746031746C212.66666666666666,111.62179894179893,215.08333333333331,111.61328042328041,217.5,111.6047619047619C219.91666666666666,111.59624338624339,222.33333333333334,111.58772486772486,224.75,111.57920634920634C227.16666666666666,111.57068783068783,229.58333333333334,111.5621693121693,232,111.55365079365079C234.41666666666666,111.54513227513227,236.83333333333334,111.53661375661375,239.25,111.52809523809523C241.66666666666669,111.51957671957672,244.08333333333334,111.51105820105819,246.50000000000003,111.50253968253968C248.91666666666669,111.49402116402116,251.33333333333331,111.48550264550263,253.74999999999997,111.47698412698412C256.16666666666663,111.4684656084656,258.5833333333333,111.45994708994708,261,111.45142857142856C263.4166666666667,111.44291005291005,265.8333333333333,111.43439153439154,268.25,111.42587301587302C270.6666666666667,111.41735449735451,273.0833333333333,111.40883597883598,275.5,111.40031746031747C277.9166666666667,111.39179894179895,280.3333333333333,111.38328042328042,282.75,111.37476190476191C285.1666666666667,111.3662433862434,287.5833333333333,111.35772486772487,290,111.34920634920636C292.4166666666667,111.34068783068784,294.8333333333333,111.33216931216933,297.25,111.3236507936508C299.6666666666667,111.31513227513227,302.0833333333333,111.30661375661376,304.5,111.29809523809523C306.9166666666667,111.2895767195767,309.3333333333333,111.28105820105819,311.75,111.27253968253967C314.1666666666667,111.26402116402116,316.5833333333333,111.25550264550263,319,111.24698412698412C321.4166666666667,111.2384656084656,323.8333333333333,111.22994708994709,326.25,111.22142857142858C328.6666666666667,111.21291005291006,331.0833333333333,111.20439153439153,333.5,111.19587301587302C335.9166666666667,111.1873544973545,338.3333333333333,111.17883597883598,340.75,111.17031746031746C343.1666666666667,111.16179894179895,345.5833333333333,111.15328042328042,348,111.1447619047619C350.4166666666667,111.1362433862434,352.8333333333333,111.12772486772487,355.25,111.11920634920635C357.6666666666667,111.11068783068784,360.0833333333333,111.10216931216931,362.5,111.0936507936508C364.9166666666667,111.08513227513228,367.3333333333333,111.07661375661375,369.75,111.06809523809524C372.1666666666667,111.05957671957673,374.5833333333333,111.0510582010582,377,111.04253968253968C379.4166666666667,111.03402116402117,381.8333333333333,111.02550264550264,384.25,111.01698412698413C386.6666666666667,111.00846560846561,389.0833333333333,110.99994708994709,391.5,110.99142857142857C393.9166666666667,110.98291005291006,396.33333333333337,110.97439153439153,398.75000000000006,110.96587301587302C401.16666666666674,110.9573544973545,403.58333333333337,110.94883597883597,406.00000000000006,110.94031746031746C408.4166666666667,110.93179894179895,410.8333333333333,110.92328042328042,413.24999999999994,110.9147619047619C415.66666666666663,110.90624338624339,418.08333333333326,110.89772486772486,420.49999999999994,110.88920634920635C422.91666666666663,110.88068783068783,425.3333333333333,110.8721693121693,427.75,110.86365079365079C430.1666666666667,110.85513227513228,432.5833333333333,110.84661375661375,435,110.83809523809524C437.4166666666667,110.82957671957672,439.8333333333333,110.8210582010582,442.25,110.81253968253968C444.6666666666667,110.80402116402117,447.0833333333333,110.79550264550265,449.5,110.78698412698414C451.9166666666667,110.77846560846562,454.3333333333333,110.7699470899471,456.75,110.76142857142858C459.1666666666667,110.75291005291007,461.5833333333333,110.74439153439154,464,110.73587301587303C466.4166666666667,110.72735449735451,468.8333333333333,110.71883597883598,471.25,110.71031746031747C473.6666666666667,110.70179894179896,476.0833333333333,110.69328042328041,478.5,110.6847619047619C480.9166666666667,110.67624338624337,483.33333333333337,110.66772486772486,485.75000000000006,110.65920634920634C488.16666666666674,110.65068783068783,490.58333333333337,110.6421693121693,493.00000000000006,110.63365079365079C495.4166666666667,110.62513227513227,497.8333333333333,110.61661375661375,500.24999999999994,110.60809523809523C502.66666666666663,110.59957671957672,505.08333333333326,110.59105820105819,507.49999999999994,110.58253968253968C509.91666666666663,110.57402116402116,512.3333333333333,110.56550264550265,514.75,110.55698412698413C517.1666666666666,110.54846560846562,519.5833333333334,110.53994708994709,522,110.53142857142858C524.4166666666666,110.52291005291006,526.8333333333334,110.51439153439154,529.25,110.50587301587302C531.6666666666666,110.49735449735451,534.0833333333334,110.48883597883598,536.5,110.48031746031747C538.9166666666666,110.47179894179895,541.3333333333334,110.46328042328042,543.75,110.45476190476191C546.1666666666666,110.4462433862434,548.5833333333334,110.43772486772487,551,110.42920634920635C553.4166666666666,110.42068783068784,555.8333333333334,110.41216931216931,558.25,110.4036507936508C560.6666666666666,110.39513227513228,563.0833333333334,110.38661375661377,565.5,110.37809523809524C567.9166666666666,110.36957671957671,570.3333333333334,110.36105820105819,572.75,110.35253968253967C575.1666666666666,110.34402116402116,577.5833333333334,110.33550264550264,580,110.32698412698413C582.4166666666666,110.31846560846562,584.8333333333334,110.30994708994709,587.25,110.30142857142857C589.6666666666666,110.29291005291006,592.0833333333334,110.28439153439153,594.5,110.27587301587302C596.9166666666666,110.2673544973545,599.3333333333334,110.25883597883598,601.75,110.25031746031746C604.1666666666666,110.24179894179895,606.5833333333334,110.23328042328042,609,110.2247619047619C611.4166666666666,110.21624338624339,613.8333333333334,110.20772486772486,616.25,110.19920634920635C618.6666666666666,110.19068783068784,621.0833333333334,110.18216931216931,623.5,110.1736507936508C625.9166666666666,110.16513227513228,628.3333333333334,110.15661375661375,630.75,110.14809523809524C633.1666666666666,110.13957671957672,635.5833333333334,110.1310582010582,638,110.12253968253968C640.4166666666666,110.11402116402117,642.8333333333334,110.10550264550265,645.25,110.09698412698414C647.6666666666666,110.08846560846563,650.0833333333334,110.08846560846561,652.5,110.07142857142857C654.9166666666666,110.05439153439153,657.3333333333334,109.47402597402598,659.75,109.17532467532467C662.1666666666666,108.87662337662337,664.5833333333334,108.57792207792208,667,108.27922077922078C669.4166666666666,107.98051948051948,671.8333333333334,107.68181818181819,674.25,107.38311688311688C676.6666666666666,107.08441558441558,679.0833333333334,106.78571428571429,681.5,106.48701298701299C683.9166666666666,106.18831168831169,686.3333333333334,105.8896103896104,688.75,105.5909090909091C691.1666666666666,105.29220779220779,693.5833333333334,104.9935064935065,696,104.6948051948052C698.4166666666666,104.3961038961039,700.8333333333334,104.0974025974026,703.25,103.7987012987013C705.6666666666666,103.5,708.0833333333334,103.20129870129871,710.5,102.90259740259741C712.9166666666666,102.6038961038961,715.3333333333334,102.30519480519482,717.75,102.00649350649351C720.1666666666666,101.70779220779221,722.5833333333334,101.40909090909092,725,101.11038961038962C727.4166666666666,100.81168831168831,729.8333333333334,100.51298701298703,732.25,100.21428571428572C734.6666666666666,99.91558441558442,737.0833333333334,99.61688311688312,739.5,99.31818181818181C741.9166666666666,99.01948051948051,744.3333333333334,98.72077922077922,746.75,98.42207792207792C749.1666666666666,98.12337662337661,751.5833333333334,97.82467532467533,754,97.52597402597402C756.4166666666666,97.22727272727272,758.8333333333334,96.92857142857143,761.25,96.62987012987013C763.6666666666666,96.33116883116882,766.0833333333334,96.03246753246754,768.5,95.73376623376623C770.9166666666666,95.43506493506493,773.3333333333334,95.13636363636364,775.75,94.83766233766234C778.1666666666666,94.53896103896103,780.5833333333334,94.24025974025975,783,93.94155844155844C785.4166666666667,93.64285714285714,787.8333333333334,93.34415584415585,790.2500000000001,93.04545454545455C792.6666666666667,92.74675324675326,795.0833333333335,92.44805194805195,797.5000000000001,92.14935064935065C799.9166666666667,91.85064935064935,802.3333333333335,91.55194805194806,804.7500000000001,91.25324675324676C807.1666666666667,90.95454545454545,809.5833333333335,90.65584415584416,812.0000000000001,90.35714285714286C814.4166666666667,90.05844155844156,816.8333333333333,89.75974025974025,819.2499999999999,89.46103896103895C821.6666666666665,89.16233766233765,824.0833333333333,88.86363636363636,826.4999999999999,88.56493506493506C828.9166666666665,88.26623376623375,831.3333333333333,87.96753246753246,833.7499999999999,87.66883116883116C836.1666666666665,87.37012987012986,838.5833333333333,87.07142857142856,840.9999999999999,86.77272727272727C843.4166666666666,86.47402597402596,845.8333333333333,86.17532467532467,848.25,85.87662337662337C850.6666666666666,85.57792207792207,853.0833333333334,85.27922077922078,855.5,84.98051948051948C857.9166666666666,84.68181818181817,860.3333333333334,84.38311688311687,862.75,84.08441558441558C865.1666666666666,83.78571428571429,867.5833333333334,83.487012987013,870,83.1883116883117C872.4166666666666,82.8896103896104,874.8333333333334,82.5909090909091,877.25,82.29220779220779C879.6666666666666,81.99350649350649,882.0833333333334,81.69480519480521,884.5,81.39610389610391C886.9166666666666,81.0974025974026,889.3333333333334,80.7987012987013,891.75,80.5C894.1666666666666,80.2012987012987,896.5833333333334,79.90259740259741,899,79.6038961038961C901.4166666666666,79.3051948051948,903.8333333333334,79.0064935064935,906.25,78.7077922077922C908.6666666666666,78.40909090909089,911.0833333333334,78.11038961038962,913.5,77.81168831168831C915.9166666666666,77.51298701298701,918.3333333333334,77.21428571428571,920.75,76.9155844155844C923.1666666666666,76.6168831168831,925.5833333333334,76.31818181818183,928,76.01948051948052C930.4166666666666,75.72077922077922,932.8333333333334,75.42207792207792,935.25,75.12337662337661C937.6666666666666,74.82467532467531,940.0833333333334,74.52597402597404,942.5,74.22727272727273C944.9166666666666,73.92857142857143,947.3333333333334,73.62987012987013,949.75,73.33116883116882C952.1666666666666,73.03246753246752,954.5833333333334,72.73376623376625,957,72.43506493506494C959.4166666666666,72.13636363636364,961.8333333333334,71.83766233766232,964.25,71.53896103896103C966.6666666666667,71.24025974025973,969.0833333333334,70.94155844155846,971.5000000000001,70.64285714285715C973.9166666666667,70.34415584415586,976.3333333333335,70.04545454545456,978.7500000000001,69.74675324675326C981.1666666666667,69.44805194805195,983.5833333333335,69.14935064935065,986.0000000000001,68.85064935064935C988.4166666666667,68.55194805194805,990.8333333333335,68.25324675324674,993.2500000000001,67.95454545454544C995.6666666666667,67.65584415584415,998.0833333333333,67.35714285714285,1000.4999999999999,67.05844155844156C1002.9166666666665,66.75974025974025,1005.3333333333333,66.46103896103897,1007.7499999999999,66.16233766233766C1010.1666666666665,65.86363636363636,1012.5833333333333,65.56493506493507,1014.9999999999999,65.26623376623377C1017.4166666666665,64.96753246753246,1019.8333333333333,64.66883116883116,1022.2499999999999,64.37012987012987C1024.6666666666665,64.07142857142857,1027.0833333333333,63.77272727272728,1029.5,63.47402597402598C1031.9166666666667,63.17532467532468,1034.3333333333333,62.87662337662338,1036.75,62.57792207792208C1039.1666666666667,62.279220779220786,1041.5833333333333,61.980519480519476,1044,61.68181818181818C1046.4166666666667,61.383116883116884,1048.8333333333333,61.08441558441558,1051.25,60.785714285714285C1053.6666666666667,60.48701298701299,1056.0833333333333,60.18831168831169,1058.5,59.88961038961039C1060.9166666666667,59.590909090909086,1063.3333333333333,59.292207792207776,1065.75,58.99350649350648C1068.1666666666667,58.694805194805184,1070.5833333333333,58.396103896103895,1073,58.0974025974026C1075.4166666666667,57.7987012987013,1077.8333333333333,57.5,1080.25,57.201298701298704C1082.6666666666667,56.90259740259741,1085.0833333333333,56.6038961038961,1087.5,56.3051948051948C1089.9166666666667,56.006493506493506,1092.3333333333333,55.7077922077922,1094.75,55.40909090909091C1097.1666666666667,55.11038961038961,1099.5833333333333,54.81168831168831,1102,54.51298701298701C1104.4166666666667,54.214285714285715,1106.8333333333333,53.91558441558441,1109.25,53.616883116883116C1111.6666666666667,53.31818181818182,1114.0833333333333,53.01948051948052,1116.5,52.72077922077922C1118.9166666666667,52.422077922077925,1121.3333333333333,52.12337662337663,1123.75,51.82467532467533C1126.1666666666667,51.52597402597404,1128.5833333333333,51.22727272727273,1131,50.92857142857142C1133.4166666666667,50.62987012987012,1135.8333333333333,50.331168831168824,1138.25,50.03246753246753C1140.6666666666667,49.73376623376623,1143.0833333333333,49.43506493506494,1145.5,49.13636363636365C1147.9166666666667,48.83766233766235,1150.3333333333333,48.53896103896104,1152.75,48.24025974025974C1155.1666666666667,47.941558441558435,1157.5833333333333,47.64285714285714,1160,47.34415584415584C1162.4166666666667,47.04545454545455,1164.8333333333333,46.746753246753244,1167.25,46.44805194805195C1169.6666666666667,46.14935064935065,1172.0833333333333,45.85064935064934,1174.5,45.551948051948045C1176.9166666666667,45.25324675324675,1179.3333333333333,44.954545454545446,1181.75,44.65584415584415C1184.1666666666667,44.357142857142854,1186.5833333333333,44.05844155844155,1189,43.759740259740255C1191.4166666666667,43.46103896103896,1193.8333333333333,43.16233766233767,1196.25,42.863636363636374C1198.6666666666667,42.56493506493508,1201.0833333333333,42.266233766233775,1203.5,41.96753246753247C1205.9166666666667,41.66883116883117,1208.3333333333333,41.37012987012987,1210.75,41.07142857142857C1213.1666666666667,40.772727272727266,1215.5833333333333,40.47402597402596,1218,40.17532467532467C1220.4166666666667,39.87662337662337,1222.8333333333333,39.57792207792207,1225.25,39.27922077922077C1227.6666666666667,38.980519480519476,1230.0833333333333,38.68181818181817,1232.5,38.38311688311688C1234.9166666666667,38.08441558441558,1237.3333333333333,37.78571428571429,1239.75,37.487012987012996C1242.1666666666667,37.1883116883117,1244.5833333333333,36.88961038961039,1247,36.59090909090909C1249.4166666666667,36.2922077922078,1251.8333333333333,35.993506493506494,1254.25,35.6948051948052C1256.6666666666667,35.3961038961039,1259.0833333333333,35.0974025974026,1261.5,34.7987012987013C1263.9166666666667,34.50000000000001,1266.3333333333333,34.20129870129871,1268.75,33.90259740259741C1271.1666666666667,33.603896103896105,1273.5833333333333,33.3051948051948,1276,33.0064935064935C1278.4166666666667,32.707792207792195,1280.8333333333333,32.4090909090909,1283.25,32.1103896103896C1285.6666666666667,31.811688311688307,1288.0833333333333,31.512987012987015,1290.5,31.21428571428572C1292.9166666666667,30.915584415584423,1295.3333333333333,30.616883116883134,1297.75,30.318181818181834C1300.1666666666667,30.019480519480535,1302.5833333333333,29.720779220779225,1305,29.422077922077925C1307.4166666666667,29.123376623376625,1309.8333333333333,28.82467532467533,1312.25,28.52597402597403C1314.6666666666667,28.22727272727273,1317.0833333333333,27.92857142857142,1319.5,27.62987012987012C1321.9166666666667,27.33116883116882,1324.3333333333333,27.032467532467532,1326.75,26.733766233766236C1329.1666666666667,26.43506493506494,1331.5833333333333,26.136363636363637,1334,25.83766233766234C1336.4166666666667,25.538961038961045,1338.8333333333333,25.240259740259756,1341.25,24.941558441558456C1343.6666666666667,24.642857142857157,1346.0833333333333,24.34415584415585,1348.5,24.045454545454547C1350.9166666666667,23.746753246753244,1353.3333333333333,23.448051948051937,1355.75,23.149350649350637C1358.1666666666667,22.850649350649338,1360.5833333333333,22.55194805194805,1363,22.253246753246753C1365.4166666666667,21.954545454545457,1367.8333333333333,21.655844155844157,1370.25,21.357142857142858C1372.6666666666667,21.058441558441558,1375.0833333333333,20.759740259740248,1377.5,20.46103896103895C1379.9166666666667,20.16233766233765,1382.3333333333333,19.86363636363635,1384.75,19.564935064935053C1387.1666666666667,19.266233766233757,1389.5833333333333,18.967532467532465,1392,18.66883116883117C1394.4166666666667,18.370129870129873,1396.8333333333333,18.071428571428584,1399.25,17.772727272727284C1401.6666666666667,17.474025974025984,1404.0833333333333,17.175324675324674,1406.5,16.876623376623375C1408.9166666666667,16.577922077922075,1411.3333333333333,16.27922077922078,1413.75,15.98051948051948C1416.1666666666667,15.681818181818178,1418.5833333333333,15.38311688311687,1421,15.08441558441557C1423.4166666666667,14.78571428571427,1425.8333333333333,14.487012987012982,1428.25,14.188311688311687C1430.6666666666667,13.889610389610393,1433.0833333333333,13.5909090909091,1435.5,13.292207792207803C1437.9166666666667,12.993506493506505,1440.3333333333333,12.694805194805207,1442.75,12.396103896103906C1445.1666666666667,12.097402597402604,1447.5833333333333,11.798701298701301,1450,11.499999999999998" fill="transparent" stroke-linecap="round" stroke="#E7C6DF" stroke-width="2"></path><g class="visx-group visx-axis visx-axis-bottom" transform="translate(0, 115)"><g class="visx-group visx-axis-tick" transform="translate(0, 0)"><line class="visx-line" x1="0" y1="0" x2="0" y2="8" fill="transparent" shape-rendering="crispEdges" stroke="#000" stroke-width="0" stroke-linecap="square"></line><svg x="0" y="0" font-size="10" style="overflow:visible"><text transform="" x="0" y="18" fill="#000" font-size="10" text-anchor="middle"><tspan x="0" dy="0em">0%</tspan></text></svg></g><g class="visx-group visx-axis-tick" transform="translate(0, 0)"><line class="visx-line" x1="362.5" y1="0" x2="362.5" y2="8" fill="transparent" shape-rendering="crispEdges" stroke="#000" stroke-width="0" stroke-linecap="square"></line><svg x="0" y="0" font-size="10" style="overflow:visible"><text transform="" x="362.5" y="18" fill="#000" font-size="10" text-anchor="middle"><tspan x="362.5" dy="0em">25%</tspan></text></svg></g><g class="visx-group visx-axis-tick" transform="translate(0, 0)"><line class="visx-line" x1="725" y1="0" x2="725" y2="8" fill="transparent" shape-rendering="crispEdges" stroke="#000" stroke-width="0" stroke-linecap="square"></line><svg x="0" y="0" font-size="10" style="overflow:visible"><text transform="" x="725" y="18" fill="#000" font-size="10" text-anchor="middle"><tspan x="725" dy="0em">50%</tspan></text></svg></g><g class="visx-group visx-axis-tick" transform="translate(0, 0)"><line class="visx-line" x1="1087.5" y1="0" x2="1087.5" y2="8" fill="transparent" shape-rendering="crispEdges" stroke="#000" stroke-width="0" stroke-linecap="square"></line><svg x="0" y="0" font-size="10" style="overflow:visible"><text transform="" x="1087.5" y="18" fill="#000" font-size="10" text-anchor="middle"><tspan x="1087.5" dy="0em">75%</tspan></text></svg></g><g class="visx-group visx-axis-tick" transform="translate(0, 0)"><line class="visx-line" x1="1450" y1="0" x2="1450" y2="8" fill="transparent" shape-rendering="crispEdges" stroke="#000" stroke-width="0" stroke-linecap="square"></line><svg x="0" y="0" font-size="10" style="overflow:visible"><text transform="" x="1450" y="18" fill="#000" font-size="10" text-anchor="middle"><tspan x="1450" dy="0em">100%</tspan></text></svg></g><line class="visx-line visx-axis-line" x1="0.5" y1="0" x2="1450.5" y2="0" fill="transparent" shape-rendering="crispEdges" stroke="#222" stroke-width="0"></line></g><g class="visx-group visx-axis visx-axis-left" transform="translate(0, 0)"><g class="visx-group visx-axis-tick" transform="translate(0, 0)"><line class="visx-line" x1="0" y1="115" x2="-8" y2="115" fill="transparent" shape-rendering="crispEdges" stroke="#222" stroke-width="0" stroke-linecap="square"></line><svg x="-30" y="0" font-size="8" style="overflow:visible"><text transform="" x="-8" y="115" fill="#000" font-size="8" text-anchor="start"><tspan x="-8" dy="0em">0%</tspan></text></svg></g><g class="visx-group visx-axis-tick" transform="translate(0, 0)"><line class="visx-line" x1="0" y1="49.28571428571429" x2="-8" y2="49.28571428571429" fill="transparent" shape-rendering="crispEdges" stroke="#222" stroke-width="0" stroke-linecap="square"></line><svg x="-30" y="0" font-size="8" style="overflow:visible"><text transform="" x="-8" y="49.28571428571429" fill="#000" font-size="8" text-anchor="start"><tspan x="-8" dy="0em">200%</tspan></text></svg></g><line class="visx-line visx-axis-line" x1="0" y1="115.5" x2="0" y2="0.5" fill="transparent" shape-rendering="crispEdges" stroke="#222" stroke-width="0"></line></g><rect class="visx-bar" width="1450" height="115" fill="transparent"></rect><line class="visx-line" x1="652.5" y1="28" x2="652.5" y2="115" fill="transparent" shape-rendering="crispEdges" stroke="#0062D2" stroke-width="1" pointer-events="none" stroke-dasharray="5,2"></line><svg x="0" y="0" font-size="10px" style="overflow:visible"><text transform="" x="652.5" y="20" font-size="10px" fill="#fff" stroke="#fff" stroke-width="0.8em" text-anchor="middle"><tspan x="652.5" dy="0.355em">Optimal 45%</tspan></text></svg><svg x="0" y="0" font-size="10px" style="overflow:visible"><text transform="" x="652.5" y="20" font-size="10px" fill="#62677B" text-anchor="middle"><tspan x="652.5" dy="0.355em">Optimal 45%</tspan></text></svg></g></svg>