<?xml version="1.0"?><svg xmlns="http://www.w3.org/2000/svg" xmlns:xlink= "http://www.w3.org/1999/xlink" style="background: white;" width="1500" height="185"> <g style="color: black; font-size: 13px; font-family: sans-serif; transform: translate(18px, 25px);"><g><circle r="3" cx="-6" cy="-5" style="fill: #B6509E" /><text>Borrow APR, variable</text></g><g style="transform: translateX(150px);"><circle r="3" cx="-6" cy="-5" style="fill: rgb(231, 198, 223)" /><text>Borrow APR, stable</text></g><g style="transform: translateX(290px);"><circle r="3" cx="-6" cy="-5" style="fill: rgb(0, 98, 210)" /><text>Utilization Rate</text></g></g><g class="visx-group" transform="translate(40, 50)"><g class="visx-group visx-rows" transform="translate(0, 0)"><line class="visx-line" x1="0" y1="115" x2="1450" y2="115" fill="transparent" shape-rendering="crispEdges" stroke="#000" stroke-width="1" stroke-dasharray="3,3" pointer-events="none"></line><line class="visx-line" x1="0" y1="70.76923076923077" x2="1450" y2="70.76923076923077" fill="transparent" shape-rendering="crispEdges" stroke="#000" stroke-width="1" stroke-dasharray="3,3" pointer-events="none"></line><line class="visx-line" x1="0" y1="26.538461538461533" x2="1450" y2="26.538461538461533" fill="transparent" shape-rendering="crispEdges" stroke="#000" stroke-width="1" stroke-dasharray="3,3" pointer-events="none"></line></g><path class="visx-linepath" d="M0,112.34615384602115C2.4166666666666665,112.32403846146106,4.833333333333334,112.30192307690098,7.25,112.2798076923077C9.666666666666666,112.25769230771442,12.083333333333334,112.23557692307692,14.5,112.21346153846153C16.916666666666668,112.19134615384614,19.333333333333332,112.16923076923077,21.75,112.14711538461539C24.166666666666668,112.12500000000001,26.583333333333332,112.10288461538462,29,112.08076923076923C31.416666666666668,112.05865384615385,33.833333333333336,112.03653846153847,36.25,112.01442307692308C38.666666666666664,111.99230769230769,41.083333333333336,111.97019230769232,43.5,111.94807692307693C45.91666666666667,111.92596153846154,48.333333333333336,111.90384615384616,50.75000000000001,111.88173076923077C53.16666666666667,111.85961538461538,55.583333333333336,111.8375,58,111.81538461538462C60.416666666666664,111.79326923076923,62.833333333333336,111.77115384615385,65.25,111.74903846153846C67.66666666666667,111.72692307692307,70.08333333333333,111.7048076923077,72.5,111.6826923076923C74.91666666666667,111.66057692307692,77.33333333333333,111.63846153846154,79.75,111.61634615384615C82.16666666666667,111.59423076923076,84.58333333333333,111.57211538461539,87,111.55C89.41666666666667,111.52788461538461,91.83333333333333,111.50576923076923,94.25,111.48365384615384C96.66666666666667,111.46153846153845,99.08333333333334,111.43942307692308,101.50000000000001,111.41730769230769C103.91666666666667,111.3951923076923,106.33333333333334,111.37307692307691,108.75,111.35096153846153C111.16666666666667,111.32884615384614,113.58333333333333,111.30673076923078,116,111.28461538461539C118.41666666666667,111.2625,120.83333333333334,111.24038461538461,123.25000000000001,111.21826923076922C125.66666666666667,111.19615384615383,128.08333333333334,111.17403846153847,130.5,111.15192307692308C132.91666666666666,111.1298076923077,135.33333333333334,111.1076923076923,137.75,111.08557692307691C140.16666666666666,111.06346153846152,142.58333333333334,111.04134615384616,145,111.01923076923077C147.41666666666666,110.99711538461538,149.83333333333334,110.975,152.25,110.9528846153846C154.66666666666666,110.93076923076922,157.08333333333334,110.90865384615384,159.5,110.88653846153846C161.91666666666666,110.86442307692309,164.33333333333334,110.8423076923077,166.75,110.82019230769231C169.16666666666666,110.79807692307692,171.58333333333334,110.77596153846154,174,110.75384615384615C176.41666666666666,110.73173076923077,178.83333333333334,110.70961538461539,181.25,110.6875C183.66666666666666,110.66538461538461,186.08333333333334,110.64326923076923,188.5,110.62115384615385C190.91666666666666,110.59903846153846,193.33333333333334,110.57692307692307,195.75,110.55480769230769C198.16666666666669,110.5326923076923,200.58333333333334,110.51057692307694,203.00000000000003,110.48846153846155C205.41666666666669,110.46634615384616,207.83333333333331,110.44423076923077,210.24999999999997,110.42211538461538C212.66666666666666,110.39999999999999,215.08333333333331,110.37788461538463,217.5,110.35576923076924C219.91666666666666,110.33365384615385,222.33333333333334,110.31153846153846,224.75,110.28942307692307C227.16666666666666,110.26730769230768,229.58333333333334,110.2451923076923,232,110.22307692307693C234.41666666666666,110.20096153846156,236.83333333333334,110.17884615384617,239.25,110.15673076923078C241.66666666666669,110.13461538461539,244.08333333333334,110.11250000000001,246.50000000000003,110.09038461538462C248.91666666666669,110.06826923076923,251.33333333333331,110.04615384615386,253.74999999999997,110.02403846153847C256.16666666666663,110.00192307692308,258.5833333333333,109.97980769230769,261,109.9576923076923C263.4166666666667,109.93557692307691,265.8333333333333,109.91346153846155,268.25,109.89134615384616C270.6666666666667,109.86923076923077,273.0833333333333,109.84711538461538,275.5,109.82499999999999C277.9166666666667,109.8028846153846,280.3333333333333,109.78076923076924,282.75,109.75865384615385C285.1666666666667,109.73653846153846,287.5833333333333,109.71442307692307,290,109.69230769230768C292.4166666666667,109.67019230769229,294.8333333333333,109.64807692307691,297.25,109.62596153846154C299.6666666666667,109.60384615384616,302.0833333333333,109.58173076923077,304.5,109.55961538461538C306.9166666666667,109.5375,309.3333333333333,109.51538461538462,311.75,109.49326923076923C314.1666666666667,109.47115384615384,316.5833333333333,109.44903846153846,319,109.42692307692307C321.4166666666667,109.40480769230768,323.8333333333333,109.38269230769231,326.25,109.36057692307692C328.6666666666667,109.33846153846153,331.0833333333333,109.31634615384614,333.5,109.29423076923077C335.9166666666667,109.27211538461539,338.3333333333333,109.25000000000001,340.75,109.22788461538462C343.1666666666667,109.20576923076923,345.5833333333333,109.18365384615385,348,109.16153846153846C350.4166666666667,109.13942307692307,352.8333333333333,109.1173076923077,355.25,109.09519230769232C357.6666666666667,109.07307692307693,360.0833333333333,109.05096153846154,362.5,109.02884615384615C364.9166666666667,109.00673076923076,367.3333333333333,108.98461538461538,369.75,108.9625C372.1666666666667,108.94038461538463,374.5833333333333,108.91826923076924,377,108.89615384615385C379.4166666666667,108.87403846153846,381.8333333333333,108.85192307692309,384.25,108.8298076923077C386.6666666666667,108.8076923076923,389.0833333333333,108.78557692307693,391.5,108.76346153846154C393.9166666666667,108.74134615384615,396.33333333333337,108.71923076923078,398.75000000000006,108.69711538461539C401.16666666666674,108.675,403.58333333333337,108.65288461538462,406.00000000000006,108.63076923076923C408.4166666666667,108.60865384615384,410.8333333333333,108.58653846153847,413.24999999999994,108.56442307692308C415.66666666666663,108.54230769230769,418.08333333333326,108.52019230769231,420.49999999999994,108.49807692307692C422.91666666666663,108.47596153846153,425.3333333333333,108.45384615384616,427.75,108.43173076923077C430.1666666666667,108.40961538461538,432.5833333333333,108.3875,435,108.36538461538461C437.4166666666667,108.34326923076922,439.8333333333333,108.32115384615385,442.25,108.29903846153846C444.6666666666667,108.27692307692307,447.0833333333333,108.2548076923077,449.5,108.2326923076923C451.9166666666667,108.21057692307691,454.3333333333333,108.18846153846154,456.75,108.16634615384615C459.1666666666667,108.14423076923076,461.5833333333333,108.12211538461538,464,108.1C466.4166666666667,108.0778846153846,468.8333333333333,108.05576923076922,471.25,108.03365384615384C473.6666666666667,108.01153846153846,476.0833333333333,107.98942307692309,478.5,107.9673076923077C480.9166666666667,107.94519230769231,483.33333333333337,107.92307692307692,485.75000000000006,107.90096153846153C488.16666666666674,107.87884615384614,490.58333333333337,107.85673076923078,493.00000000000006,107.83461538461539C495.4166666666667,107.8125,497.8333333333333,107.79038461538461,500.24999999999994,107.76826923076922C502.66666666666663,107.74615384615383,505.08333333333326,107.72403846153846,507.49999999999994,107.70192307692308C509.91666666666663,107.67980769230769,512.3333333333333,107.65769230769232,514.75,107.63557692307693C517.1666666666666,107.61346153846154,519.5833333333334,107.59134615384616,522,107.56923076923077C524.4166666666666,107.54711538461538,526.8333333333334,107.525,529.25,107.50288461538462C531.6666666666666,107.48076923076923,534.0833333333334,107.45865384615385,536.5,107.43653846153846C538.9166666666666,107.41442307692307,541.3333333333334,107.39230769230768,543.75,107.3701923076923C546.1666666666666,107.34807692307693,548.5833333333334,107.32596153846156,551,107.30384615384617C553.4166666666666,107.28173076923078,555.8333333333334,107.25961538461539,558.25,107.2375C560.6666666666666,107.21538461538461,563.0833333333334,107.19326923076925,565.5,107.17115384615386C567.9166666666666,107.14903846153847,570.3333333333334,107.12692307692308,572.75,107.10480769230769C575.1666666666666,107.0826923076923,577.5833333333334,107.06057692307694,580,107.03846153846155C582.4166666666666,107.01634615384616,584.8333333333334,106.99423076923077,587.25,106.97211538461538C589.6666666666666,106.94999999999999,592.0833333333334,106.92788461538463,594.5,106.90576923076924C596.9166666666666,106.88365384615385,599.3333333333334,106.86153846153846,601.75,106.83942307692307C604.1666666666666,106.81730769230768,606.5833333333334,106.7951923076923,609,106.77307692307693C611.4166666666666,106.75096153846155,613.8333333333334,106.72884615384616,616.25,106.70673076923077C618.6666666666666,106.68461538461538,621.0833333333334,106.66250000000001,623.5,106.64038461538462C625.9166666666666,106.61826923076923,628.3333333333334,106.59615384615385,630.75,106.57403846153846C633.1666666666666,106.55192307692307,635.5833333333334,106.52980769230768,638,106.5076923076923C640.4166666666666,106.4855769230769,642.8333333333334,106.46346153846153,645.25,106.44134615384615C647.6666666666666,106.41923076923078,650.0833333333334,106.39711538461539,652.5,106.375C654.9166666666666,106.35288461538461,657.3333333333334,106.33076923076923,659.75,106.30865384615385C662.1666666666666,106.28653846153846,664.5833333333334,106.26442307692308,667,106.24230769230769C669.4166666666666,106.2201923076923,671.8333333333334,106.19807692307693,674.25,106.17596153846154C676.6666666666666,106.15384615384615,679.0833333333334,106.13173076923076,681.5,106.10961538461538C683.9166666666666,106.0875,686.3333333333334,106.06538461538463,688.75,106.04326923076924C691.1666666666666,106.02115384615385,693.5833333333334,105.99903846153846,696,105.97692307692307C698.4166666666666,105.95480769230768,700.8333333333334,105.93269230769232,703.25,105.91057692307693C705.6666666666666,105.88846153846154,708.0833333333334,105.86634615384615,710.5,105.84423076923076C712.9166666666666,105.82211538461537,715.3333333333334,105.80000000000001,717.75,105.77788461538462C720.1666666666666,105.75576923076923,722.5833333333334,105.73365384615384,725,105.71153846153845C727.4166666666666,105.68942307692306,729.8333333333334,105.6673076923077,732.25,105.64519230769231C734.6666666666666,105.62307692307692,737.0833333333334,105.60096153846153,739.5,105.57884615384614C741.9166666666666,105.55673076923075,744.3333333333334,105.53461538461538,746.75,105.5125C749.1666666666666,105.49038461538463,751.5833333333334,105.46826923076924,754,105.44615384615385C756.4166666666666,105.42403846153846,758.8333333333334,105.40192307692308,761.25,105.3798076923077C763.6666666666666,105.3576923076923,766.0833333333334,105.33557692307693,768.5,105.31346153846154C770.9166666666666,105.29134615384615,773.3333333333334,105.26923076923077,775.75,105.24711538461538C778.1666666666666,105.225,780.5833333333334,105.20288461538462,783,105.18076923076923C785.4166666666667,105.15865384615384,787.8333333333334,105.13653846153846,790.2500000000001,105.11442307692307C792.6666666666667,105.09230769230768,795.0833333333335,105.07019230769231,797.5000000000001,105.04807692307692C799.9166666666667,105.02596153846153,802.3333333333335,105.00384615384615,804.7500000000001,104.98173076923077C807.1666666666667,104.95961538461538,809.5833333333335,104.9375,812.0000000000001,104.91538461538461C814.4166666666667,104.89326923076922,816.8333333333333,104.87115384615383,819.2499999999999,104.84903846153846C821.6666666666665,104.82692307692307,824.0833333333333,104.8048076923077,826.4999999999999,104.78269230769232C828.9166666666665,104.76057692307693,831.3333333333333,104.73846153846154,833.7499999999999,104.71634615384615C836.1666666666665,104.69423076923076,838.5833333333333,104.6721153846154,840.9999999999999,104.65C843.4166666666666,104.62788461538462,845.8333333333333,104.60576923076923,848.25,104.58365384615384C850.6666666666666,104.56153846153845,853.0833333333334,104.53942307692307,855.5,104.5173076923077C857.9166666666666,104.49519230769232,860.3333333333334,104.47307692307693,862.75,104.45096153846154C865.1666666666666,104.42884615384615,867.5833333333334,104.40673076923078,870,104.38461538461539C872.4166666666666,104.3625,874.8333333333334,104.34038461538462,877.25,104.31826923076923C879.6666666666666,104.29615384615384,882.0833333333334,104.27403846153847,884.5,104.25192307692308C886.9166666666666,104.22980769230769,889.3333333333334,104.20769230769231,891.75,104.18557692307692C894.1666666666666,104.16346153846153,896.5833333333334,104.14134615384616,899,104.11923076923077C901.4166666666666,104.09711538461538,903.8333333333334,104.07499999999999,906.25,104.05288461538461C908.6666666666666,104.03076923076924,911.0833333333334,104.00865384615386,913.5,103.98653846153847C915.9166666666666,103.96442307692308,918.3333333333334,103.9423076923077,920.75,103.9201923076923C923.1666666666666,103.89807692307691,925.5833333333334,103.87596153846155,928,103.85384615384616C930.4166666666666,103.83173076923077,932.8333333333334,103.80961538461538,935.25,103.7875C937.6666666666666,103.7653846153846,940.0833333333334,103.74326923076924,942.5,103.72115384615385C944.9166666666666,103.69903846153846,947.3333333333334,103.67692307692307,949.75,103.65480769230768C952.1666666666666,103.6326923076923,954.5833333333334,103.61057692307692,957,103.58846153846154C959.4166666666666,103.56634615384617,961.8333333333334,103.54423076923078,964.25,103.52211538461539C966.6666666666667,103.5,969.0833333333334,103.47788461538462,971.5000000000001,103.45576923076923C973.9166666666667,103.43365384615385,976.3333333333335,103.41153846153847,978.7500000000001,103.38942307692308C981.1666666666667,103.36730769230769,983.5833333333335,103.34519230769232,986.0000000000001,103.32307692307693C988.4166666666667,103.30096153846154,990.8333333333335,103.27884615384616,993.2500000000001,103.25673076923077C995.6666666666667,103.23461538461538,998.0833333333333,103.21249999999999,1000.4999999999999,103.1903846153846C1002.9166666666665,103.16826923076921,1005.3333333333333,103.14615384615384,1007.7499999999999,103.12403846153846C1010.1666666666665,103.10192307692309,1012.5833333333333,103.0798076923077,1014.9999999999999,103.0576923076923C1017.4166666666665,103.03557692307692,1019.8333333333333,103.01346153846154,1022.2499999999999,102.99134615384615C1024.6666666666665,102.96923076923076,1027.0833333333333,102.94711538461539,1029.5,102.925C1031.9166666666667,102.90288461538461,1034.3333333333333,102.88076923076923,1036.75,102.85865384615384C1039.1666666666667,102.83653846153845,1041.5833333333333,102.81442307692308,1044,102.79230769230769C1046.4166666666667,102.7701923076923,1048.8333333333333,102.74807692307692,1051.25,102.72596153846153C1053.6666666666667,102.70384615384614,1056.0833333333333,102.68173076923075,1058.5,102.65961538461538C1060.9166666666667,102.6375,1063.3333333333333,102.61538461538461,1065.75,102.59326923076924C1068.1666666666667,102.57115384615386,1070.5833333333333,102.54903846153847,1073,102.52692307692308C1075.4166666666667,102.5048076923077,1077.8333333333333,102.48269230769232,1080.25,102.46057692307693C1082.6666666666667,102.43846153846154,1085.0833333333333,102.41634615384616,1087.5,102.39423076923077C1089.9166666666667,102.37211538461538,1092.3333333333333,102.35000000000001,1094.75,102.32788461538462C1097.1666666666667,102.30576923076923,1099.5833333333333,102.28365384615385,1102,102.26153846153846C1104.4166666666667,102.23942307692307,1106.8333333333333,102.2173076923077,1109.25,102.19519230769231C1111.6666666666667,102.17307692307692,1114.0833333333333,102.15096153846154,1116.5,102.12884615384615C1118.9166666666667,102.10673076923077,1121.3333333333333,102.08461538461539,1123.75,102.0625C1126.1666666666667,102.04038461538461,1128.5833333333333,102.01826923076922,1131,101.99615384615385C1133.4166666666667,101.97403846153847,1135.8333333333333,101.9519230769231,1138.25,101.9298076923077C1140.6666666666667,101.90769230769232,1143.0833333333333,101.88557692307693,1145.5,101.86346153846154C1147.9166666666667,101.84134615384615,1150.3333333333333,101.81923076923077,1152.75,101.79711538461538C1155.1666666666667,101.77499999999999,1157.5833333333333,101.77499999999999,1160,101.73076923076923C1162.4166666666667,101.68653846153846,1164.8333333333333,100.25641025641026,1167.25,99.51923076923077C1169.6666666666667,98.78205128205128,1172.0833333333333,98.0448717948718,1174.5,97.3076923076923C1176.9166666666667,96.57051282051282,1179.3333333333333,95.83333333333333,1181.75,95.09615384615384C1184.1666666666667,94.35897435897435,1186.5833333333333,93.62179487179488,1189,92.88461538461539C1191.4166666666667,92.1474358974359,1193.8333333333333,91.41025641025641,1196.25,90.67307692307692C1198.6666666666667,89.93589743589743,1201.0833333333333,89.19871794871794,1203.5,88.46153846153845C1205.9166666666667,87.72435897435896,1208.3333333333333,86.98717948717949,1210.75,86.25C1213.1666666666667,85.51282051282051,1215.5833333333333,84.77564102564104,1218,84.03846153846155C1220.4166666666667,83.30128205128206,1222.8333333333333,82.56410256410257,1225.25,81.82692307692308C1227.6666666666667,81.08974358974359,1230.0833333333333,80.3525641025641,1232.5,79.61538461538461C1234.9166666666667,78.87820512820512,1237.3333333333333,78.14102564102565,1239.75,77.40384615384616C1242.1666666666667,76.66666666666667,1244.5833333333333,75.92948717948718,1247,75.1923076923077C1249.4166666666667,74.4551282051282,1251.8333333333333,73.71794871794872,1254.25,72.98076923076923C1256.6666666666667,72.24358974358974,1259.0833333333333,71.50641025641026,1261.5,70.76923076923077C1263.9166666666667,70.03205128205128,1266.3333333333333,69.2948717948718,1268.75,68.5576923076923C1271.1666666666667,67.82051282051282,1273.5833333333333,67.08333333333333,1276,66.34615384615384C1278.4166666666667,65.60897435897435,1280.8333333333333,64.87179487179488,1283.25,64.13461538461539C1285.6666666666667,63.3974358974359,1288.0833333333333,62.66025641025641,1290.5,61.92307692307692C1292.9166666666667,61.18589743589743,1295.3333333333333,60.44871794871794,1297.75,59.71153846153845C1300.1666666666667,58.974358974358964,1302.5833333333333,58.23717948717949,1305,57.5C1307.4166666666667,56.76282051282051,1309.8333333333333,56.02564102564102,1312.25,55.28846153846153C1314.6666666666667,54.551282051282044,1317.0833333333333,53.81410256410257,1319.5,53.07692307692308C1321.9166666666667,52.33974358974359,1324.3333333333333,51.6025641025641,1326.75,50.86538461538461C1329.1666666666667,50.128205128205124,1331.5833333333333,49.39102564102565,1334,48.65384615384616C1336.4166666666667,47.91666666666667,1338.8333333333333,47.17948717948718,1341.25,46.44230769230769C1343.6666666666667,45.705128205128204,1346.0833333333333,44.967948717948715,1348.5,44.230769230769226C1350.9166666666667,43.49358974358974,1353.3333333333333,42.75641025641026,1355.75,42.019230769230774C1358.1666666666667,41.282051282051285,1360.5833333333333,40.544871794871796,1363,39.80769230769231C1365.4166666666667,39.07051282051282,1367.8333333333333,38.33333333333333,1370.25,37.59615384615384C1372.6666666666667,36.85897435897435,1375.0833333333333,36.121794871794876,1377.5,35.38461538461539C1379.9166666666667,34.6474358974359,1382.3333333333333,33.91025641025641,1384.75,33.17307692307692C1387.1666666666667,32.43589743589743,1389.5833333333333,31.698717948717952,1392,30.961538461538467C1394.4166666666667,30.22435897435898,1396.8333333333333,29.48717948717949,1399.25,28.75C1401.6666666666667,28.01282051282051,1404.0833333333333,27.27564102564102,1406.5,26.538461538461533C1408.9166666666667,25.801282051282048,1411.3333333333333,25.06410256410258,1413.75,24.326923076923094C1416.1666666666667,23.58974358974361,1418.5833333333333,22.852564102564102,1421,22.115384615384613C1423.4166666666667,21.378205128205124,1425.8333333333333,20.64102564102565,1428.25,19.90384615384616C1430.6666666666667,19.16666666666667,1433.0833333333333,18.429487179487168,1435.5,17.69230769230768C1437.9166666666667,16.95512820512819,1440.3333333333333,16.21794871794871,1442.75,15.480769230769226C1445.1666666666667,14.743589743589745,1447.5833333333333,14.006410256410264,1450,13.269230769230786" fill="transparent" stroke-linecap="round" stroke="#B6509E" stroke-width="2"></path><path class="visx-linepath" d="M0,106.15384615384616C2.4166666666666665,106.15384615384616,4.833333333333334,106.15384615384616,7.25,106.15384615384616C9.666666666666666,106.15384615384616,12.083333333333334,106.15384615384616,14.5,106.15384615384616C16.916666666666668,106.15384615384616,19.333333333333332,106.15384615384616,21.75,106.15384615384616C24.166666666666668,106.15384615384616,26.583333333333332,106.15384615384616,29,106.15384615384616C31.416666666666668,106.15384615384616,33.833333333333336,106.15384615384616,36.25,106.15384615384616C38.666666666666664,106.15384615384616,41.083333333333336,106.15384615384616,43.5,106.15384615384616C45.91666666666667,106.15384615384616,48.333333333333336,106.15384615384616,50.75000000000001,106.15384615384616C53.16666666666667,106.15384615384616,55.583333333333336,106.15384615384616,58,106.15384615384616C60.416666666666664,106.15384615384616,62.833333333333336,106.15384615384616,65.25,106.15384615384616C67.66666666666667,106.15384615384616,70.08333333333333,106.15384615384616,72.5,106.15384615384616C74.91666666666667,106.15384615384616,77.33333333333333,106.15384615384616,79.75,106.15384615384616C82.16666666666667,106.15384615384616,84.58333333333333,106.15384615384616,87,106.15384615384616C89.41666666666667,106.15384615384616,91.83333333333333,106.15384615384616,94.25,106.15384615384616C96.66666666666667,106.15384615384616,99.08333333333334,106.15384615384616,101.50000000000001,106.15384615384616C103.91666666666667,106.15384615384616,106.33333333333334,106.15384615384616,108.75,106.15384615384616C111.16666666666667,106.15384615384616,113.58333333333333,106.15384615384616,116,106.15384615384616C118.41666666666667,106.15384615384616,120.83333333333334,106.15384615384616,123.25000000000001,106.15384615384616C125.66666666666667,106.15384615384616,128.08333333333334,106.15384615384616,130.5,106.15384615384616C132.91666666666666,106.15384615384616,135.33333333333334,106.15384615384616,137.75,106.15384615384616C140.16666666666666,106.15384615384616,142.58333333333334,106.15384615384616,145,106.15384615384616C147.41666666666666,106.15384615384616,149.83333333333334,106.15384615384616,152.25,106.15384615384616C154.66666666666666,106.15384615384616,157.08333333333334,106.15384615384616,159.5,106.15384615384616C161.91666666666666,106.15384615384616,164.33333333333334,106.15384615384616,166.75,106.15384615384616C169.16666666666666,106.15384615384616,171.58333333333334,106.15384615384616,174,106.15384615384616C176.41666666666666,106.15384615384616,178.83333333333334,106.15384615384616,181.25,106.15384615384616C183.66666666666666,106.15384615384616,186.08333333333334,106.15384615384616,188.5,106.15384615384616C190.91666666666666,106.15384615384616,193.33333333333334,106.15384615384616,195.75,106.15384615384616C198.16666666666669,106.15384615384616,200.58333333333334,106.15384615384616,203.00000000000003,106.15384615384616C205.41666666666669,106.15384615384616,207.83333333333331,106.15384615384616,210.24999999999997,106.15384615384616C212.66666666666666,106.15384615384616,215.08333333333331,106.15384615384616,217.5,106.15384615384616C219.91666666666666,106.15384615384616,222.33333333333334,106.15384615384616,224.75,106.15384615384616C227.16666666666666,106.15384615384616,229.58333333333334,106.15384615384616,232,106.15384615384616C234.41666666666666,106.15384615384616,236.83333333333334,106.15384615384616,239.25,106.15384615384616C241.66666666666669,106.15384615384616,244.08333333333334,106.15384615384616,246.50000000000003,106.15384615384616C248.91666666666669,106.15384615384616,251.33333333333331,106.15384615384616,253.74999999999997,106.15384615384616C256.16666666666663,106.15384615384616,258.5833333333333,106.15384615384616,261,106.15384615384616C263.4166666666667,106.15384615384616,265.8333333333333,106.15384615384616,268.25,106.15384615384616C270.6666666666667,106.15384615384616,273.0833333333333,106.15384615384616,275.5,106.15384615384616C277.9166666666667,106.15384615384616,280.3333333333333,106.15384615384616,282.75,106.15384615384616C285.1666666666667,106.15384615384616,287.5833333333333,106.15384615384616,290,106.15384615384616C292.4166666666667,106.15384615384616,294.8333333333333,106.15384615384616,297.25,106.15384615384616C299.6666666666667,106.15384615384616,302.0833333333333,106.15384615384616,304.5,106.15384615384616C306.9166666666667,106.15384615384616,309.3333333333333,106.15384615384616,311.75,106.15384615384616C314.1666666666667,106.15384615384616,316.5833333333333,106.15384615384616,319,106.15384615384616C321.4166666666667,106.15384615384616,323.8333333333333,106.15384615384616,326.25,106.15384615384616C328.6666666666667,106.15384615384616,331.0833333333333,106.15384615384616,333.5,106.15384615384616C335.9166666666667,106.15384615384616,338.3333333333333,106.15384615384616,340.75,106.15384615384616C343.1666666666667,106.15384615384616,345.5833333333333,106.15384615384616,348,106.15384615384616C350.4166666666667,106.15384615384616,352.8333333333333,106.15384615384616,355.25,106.15384615384616C357.6666666666667,106.15384615384616,360.0833333333333,106.15384615384616,362.5,106.15384615384616C364.9166666666667,106.15384615384616,367.3333333333333,106.15384615384616,369.75,106.15384615384616C372.1666666666667,106.15384615384616,374.5833333333333,106.15384615384616,377,106.15384615384616C379.4166666666667,106.15384615384616,381.8333333333333,106.15384615384616,384.25,106.15384615384616C386.6666666666667,106.15384615384616,389.0833333333333,106.15384615384616,391.5,106.15384615384616C393.9166666666667,106.15384615384616,396.33333333333337,106.15384615384616,398.75000000000006,106.15384615384616C401.16666666666674,106.15384615384616,403.58333333333337,106.15384615384616,406.00000000000006,106.15384615384616C408.4166666666667,106.15384615384616,410.8333333333333,106.15384615384616,413.24999999999994,106.15384615384616C415.66666666666663,106.15384615384616,418.08333333333326,106.15384615384616,420.49999999999994,106.15384615384616C422.91666666666663,106.15384615384616,425.3333333333333,106.15384615384616,427.75,106.15384615384616C430.1666666666667,106.15384615384616,432.5833333333333,106.15384615384616,435,106.15384615384616C437.4166666666667,106.15384615384616,439.8333333333333,106.15384615384616,442.25,106.15384615384616C444.6666666666667,106.15384615384616,447.0833333333333,106.15384615384616,449.5,106.15384615384616C451.9166666666667,106.15384615384616,454.3333333333333,106.15384615384616,456.75,106.15384615384616C459.1666666666667,106.15384615384616,461.5833333333333,106.15384615384616,464,106.15384615384616C466.4166666666667,106.15384615384616,468.8333333333333,106.15384615384616,471.25,106.15384615384616C473.6666666666667,106.15384615384616,476.0833333333333,106.15384615384616,478.5,106.15384615384616C480.9166666666667,106.15384615384616,483.33333333333337,106.15384615384616,485.75000000000006,106.15384615384616C488.16666666666674,106.15384615384616,490.58333333333337,106.15384615384616,493.00000000000006,106.15384615384616C495.4166666666667,106.15384615384616,497.8333333333333,106.15384615384616,500.24999999999994,106.15384615384616C502.66666666666663,106.15384615384616,505.08333333333326,106.15384615384616,507.49999999999994,106.15384615384616C509.91666666666663,106.15384615384616,512.3333333333333,106.15384615384616,514.75,106.15384615384616C517.1666666666666,106.15384615384616,519.5833333333334,106.15384615384616,522,106.15384615384616C524.4166666666666,106.15384615384616,526.8333333333334,106.15384615384616,529.25,106.15384615384616C531.6666666666666,106.15384615384616,534.0833333333334,106.15384615384616,536.5,106.15384615384616C538.9166666666666,106.15384615384616,541.3333333333334,106.15384615384616,543.75,106.15384615384616C546.1666666666666,106.15384615384616,548.5833333333334,106.15384615384616,551,106.15384615384616C553.4166666666666,106.15384615384616,555.8333333333334,106.15384615384616,558.25,106.15384615384616C560.6666666666666,106.15384615384616,563.0833333333334,106.15384615384616,565.5,106.15384615384616C567.9166666666666,106.15384615384616,570.3333333333334,106.15384615384616,572.75,106.15384615384616C575.1666666666666,106.15384615384616,577.5833333333334,106.15384615384616,580,106.15384615384616C582.4166666666666,106.15384615384616,584.8333333333334,106.15384615384616,587.25,106.15384615384616C589.6666666666666,106.15384615384616,592.0833333333334,106.15384615384616,594.5,106.15384615384616C596.9166666666666,106.15384615384616,599.3333333333334,106.15384615384616,601.75,106.15384615384616C604.1666666666666,106.15384615384616,606.5833333333334,106.15384615384616,609,106.15384615384616C611.4166666666666,106.15384615384616,613.8333333333334,106.15384615384616,616.25,106.15384615384616C618.6666666666666,106.15384615384616,621.0833333333334,106.15384615384616,623.5,106.15384615384616C625.9166666666666,106.15384615384616,628.3333333333334,106.15384615384616,630.75,106.15384615384616C633.1666666666666,106.15384615384616,635.5833333333334,106.15384615384616,638,106.15384615384616C640.4166666666666,106.15384615384616,642.8333333333334,106.15384615384616,645.25,106.15384615384616C647.6666666666666,106.15384615384616,650.0833333333334,106.15384615384616,652.5,106.15384615384616C654.9166666666666,106.15384615384616,657.3333333333334,106.15384615384616,659.75,106.15384615384616C662.1666666666666,106.15384615384616,664.5833333333334,106.15384615384616,667,106.15384615384616C669.4166666666666,106.15384615384616,671.8333333333334,106.15384615384616,674.25,106.15384615384616C676.6666666666666,106.15384615384616,679.0833333333334,106.15384615384616,681.5,106.15384615384616C683.9166666666666,106.15384615384616,686.3333333333334,106.15384615384616,688.75,106.15384615384616C691.1666666666666,106.15384615384616,693.5833333333334,106.15384615384616,696,106.15384615384616C698.4166666666666,106.15384615384616,700.8333333333334,106.15384615384616,703.25,106.15384615384616C705.6666666666666,106.15384615384616,708.0833333333334,106.15384615384616,710.5,106.15384615384616C712.9166666666666,106.15384615384616,715.3333333333334,106.15384615384616,717.75,106.15384615384616C720.1666666666666,106.15384615384616,722.5833333333334,106.15384615384616,725,106.15384615384616C727.4166666666666,106.15384615384616,729.8333333333334,106.15384615384616,732.25,106.15384615384616C734.6666666666666,106.15384615384616,737.0833333333334,106.15384615384616,739.5,106.15384615384616C741.9166666666666,106.15384615384616,744.3333333333334,106.15384615384616,746.75,106.15384615384616C749.1666666666666,106.15384615384616,751.5833333333334,106.15384615384616,754,106.15384615384616C756.4166666666666,106.15384615384616,758.8333333333334,106.15384615384616,761.25,106.15384615384616C763.6666666666666,106.15384615384616,766.0833333333334,106.15384615384616,768.5,106.15384615384616C770.9166666666666,106.15384615384616,773.3333333333334,106.15384615384616,775.75,106.15384615384616C778.1666666666666,106.15384615384616,780.5833333333334,106.15384615384616,783,106.15384615384616C785.4166666666667,106.15384615384616,787.8333333333334,106.15384615384616,790.2500000000001,106.15384615384616C792.6666666666667,106.15384615384616,795.0833333333335,106.15384615384616,797.5000000000001,106.15384615384616C799.9166666666667,106.15384615384616,802.3333333333335,106.15384615384616,804.7500000000001,106.15384615384616C807.1666666666667,106.15384615384616,809.5833333333335,106.15384615384616,812.0000000000001,106.15384615384616C814.4166666666667,106.15384615384616,816.8333333333333,106.15384615384616,819.2499999999999,106.15384615384616C821.6666666666665,106.15384615384616,824.0833333333333,106.15384615384616,826.4999999999999,106.15384615384616C828.9166666666665,106.15384615384616,831.3333333333333,106.15384615384616,833.7499999999999,106.15384615384616C836.1666666666665,106.15384615384616,838.5833333333333,106.15384615384616,840.9999999999999,106.15384615384616C843.4166666666666,106.15384615384616,845.8333333333333,106.15384615384616,848.25,106.15384615384616C850.6666666666666,106.15384615384616,853.0833333333334,106.15384615384616,855.5,106.15384615384616C857.9166666666666,106.15384615384616,860.3333333333334,106.15384615384616,862.75,106.15384615384616C865.1666666666666,106.15384615384616,867.5833333333334,106.15384615384616,870,106.15384615384616C872.4166666666666,106.15384615384616,874.8333333333334,106.15384615384616,877.25,106.15384615384616C879.6666666666666,106.15384615384616,882.0833333333334,106.15384615384616,884.5,106.15384615384616C886.9166666666666,106.15384615384616,889.3333333333334,106.15384615384616,891.75,106.15384615384616C894.1666666666666,106.15384615384616,896.5833333333334,106.15384615384616,899,106.15384615384616C901.4166666666666,106.15384615384616,903.8333333333334,106.15384615384616,906.25,106.15384615384616C908.6666666666666,106.15384615384616,911.0833333333334,106.15384615384616,913.5,106.15384615384616C915.9166666666666,106.15384615384616,918.3333333333334,106.15384615384616,920.75,106.15384615384616C923.1666666666666,106.15384615384616,925.5833333333334,106.15384615384616,928,106.15384615384616C930.4166666666666,106.15384615384616,932.8333333333334,106.15384615384616,935.25,106.15384615384616C937.6666666666666,106.15384615384616,940.0833333333334,106.15384615384616,942.5,106.15384615384616C944.9166666666666,106.15384615384616,947.3333333333334,106.15384615384616,949.75,106.15384615384616C952.1666666666666,106.15384615384616,954.5833333333334,106.15384615384616,957,106.15384615384616C959.4166666666666,106.15384615384616,961.8333333333334,106.15384615384616,964.25,106.15384615384616C966.6666666666667,106.15384615384616,969.0833333333334,106.15384615384616,971.5000000000001,106.15384615384616C973.9166666666667,106.15384615384616,976.3333333333335,106.15384615384616,978.7500000000001,106.15384615384616C981.1666666666667,106.15384615384616,983.5833333333335,106.15384615384616,986.0000000000001,106.15384615384616C988.4166666666667,106.15384615384616,990.8333333333335,106.15384615384616,993.2500000000001,106.15384615384616C995.6666666666667,106.15384615384616,998.0833333333333,106.15384615384616,1000.4999999999999,106.15384615384616C1002.9166666666665,106.15384615384616,1005.3333333333333,106.15384615384616,1007.7499999999999,106.15384615384616C1010.1666666666665,106.15384615384616,1012.5833333333333,106.15384615384616,1014.9999999999999,106.15384615384616C1017.4166666666665,106.15384615384616,1019.8333333333333,106.15384615384616,1022.2499999999999,106.15384615384616C1024.6666666666665,106.15384615384616,1027.0833333333333,106.15384615384616,1029.5,106.15384615384616C1031.9166666666667,106.15384615384616,1034.3333333333333,106.15384615384616,1036.75,106.15384615384616C1039.1666666666667,106.15384615384616,1041.5833333333333,106.15384615384616,1044,106.15384615384616C1046.4166666666667,106.15384615384616,1048.8333333333333,106.15384615384616,1051.25,106.15384615384616C1053.6666666666667,106.15384615384616,1056.0833333333333,106.15384615384616,1058.5,106.15384615384616C1060.9166666666667,106.15384615384616,1063.3333333333333,106.15384615384616,1065.75,106.15384615384616C1068.1666666666667,106.15384615384616,1070.5833333333333,106.15384615384616,1073,106.15384615384616C1075.4166666666667,106.15384615384616,1077.8333333333333,106.15384615384616,1080.25,106.15384615384616C1082.6666666666667,106.15384615384616,1085.0833333333333,106.15384615384616,1087.5,106.15384615384616C1089.9166666666667,106.15384615384616,1092.3333333333333,106.15384615384616,1094.75,106.15384615384616C1097.1666666666667,106.15384615384616,1099.5833333333333,106.15384615384616,1102,106.15384615384616C1104.4166666666667,106.15384615384616,1106.8333333333333,106.15384615384616,1109.25,106.15384615384616C1111.6666666666667,106.15384615384616,1114.0833333333333,106.15384615384616,1116.5,106.15384615384616C1118.9166666666667,106.15384615384616,1121.3333333333333,106.15384615384616,1123.75,106.15384615384616C1126.1666666666667,106.15384615384616,1128.5833333333333,106.15384615384616,1131,106.15384615384616C1133.4166666666667,106.15384615384616,1135.8333333333333,106.15384615384616,1138.25,106.15384615384616C1140.6666666666667,106.15384615384616,1143.0833333333333,106.15384615384616,1145.5,106.15384615384616C1147.9166666666667,106.15384615384616,1150.3333333333333,106.15384615384616,1152.75,106.15384615384616C1155.1666666666667,106.15384615384616,1157.5833333333333,106.15384615384616,1160,106.15384615384616C1162.4166666666667,106.15384615384616,1164.8333333333333,106.15384615384616,1167.25,106.15384615384616C1169.6666666666667,106.15384615384616,1172.0833333333333,106.15384615384616,1174.5,106.15384615384616C1176.9166666666667,106.15384615384616,1179.3333333333333,106.15384615384616,1181.75,106.15384615384616C1184.1666666666667,106.15384615384616,1186.5833333333333,106.15384615384616,1189,106.15384615384616C1191.4166666666667,106.15384615384616,1193.8333333333333,106.15384615384616,1196.25,106.15384615384616C1198.6666666666667,106.15384615384616,1201.0833333333333,106.15384615384616,1203.5,106.15384615384616C1205.9166666666667,106.15384615384616,1208.3333333333333,106.15384615384616,1210.75,106.15384615384616C1213.1666666666667,106.15384615384616,1215.5833333333333,106.15384615384616,1218,106.15384615384616C1220.4166666666667,106.15384615384616,1222.8333333333333,106.15384615384616,1225.25,106.15384615384616C1227.6666666666667,106.15384615384616,1230.0833333333333,106.15384615384616,1232.5,106.15384615384616C1234.9166666666667,106.15384615384616,1237.3333333333333,106.15384615384616,1239.75,106.15384615384616C1242.1666666666667,106.15384615384616,1244.5833333333333,106.15384615384616,1247,106.15384615384616C1249.4166666666667,106.15384615384616,1251.8333333333333,106.15384615384616,1254.25,106.15384615384616C1256.6666666666667,106.15384615384616,1259.0833333333333,106.15384615384616,1261.5,106.15384615384616C1263.9166666666667,106.15384615384616,1266.3333333333333,106.15384615384616,1268.75,106.15384615384616C1271.1666666666667,106.15384615384616,1273.5833333333333,106.15384615384616,1276,106.15384615384616C1278.4166666666667,106.15384615384616,1280.8333333333333,106.15384615384616,1283.25,106.15384615384616C1285.6666666666667,106.15384615384616,1288.0833333333333,106.15384615384616,1290.5,106.15384615384616C1292.9166666666667,106.15384615384616,1295.3333333333333,106.15384615384616,1297.75,106.15384615384616C1300.1666666666667,106.15384615384616,1302.5833333333333,106.15384615384616,1305,106.15384615384616C1307.4166666666667,106.15384615384616,1309.8333333333333,106.15384615384616,1312.25,106.15384615384616C1314.6666666666667,106.15384615384616,1317.0833333333333,106.15384615384616,1319.5,106.15384615384616C1321.9166666666667,106.15384615384616,1324.3333333333333,106.15384615384616,1326.75,106.15384615384616C1329.1666666666667,106.15384615384616,1331.5833333333333,106.15384615384616,1334,106.15384615384616C1336.4166666666667,106.15384615384616,1338.8333333333333,106.15384615384616,1341.25,106.15384615384616C1343.6666666666667,106.15384615384616,1346.0833333333333,106.15384615384616,1348.5,106.15384615384616C1350.9166666666667,106.15384615384616,1353.3333333333333,106.15384615384616,1355.75,106.15384615384616C1358.1666666666667,106.15384615384616,1360.5833333333333,106.15384615384616,1363,106.15384615384616C1365.4166666666667,106.15384615384616,1367.8333333333333,106.15384615384616,1370.25,106.15384615384616C1372.6666666666667,106.15384615384616,1375.0833333333333,106.15384615384616,1377.5,106.15384615384616C1379.9166666666667,106.15384615384616,1382.3333333333333,106.15384615384616,1384.75,106.15384615384616C1387.1666666666667,106.15384615384616,1389.5833333333333,106.15384615384616,1392,106.15384615384616C1394.4166666666667,106.15384615384616,1396.8333333333333,106.15384615384616,1399.25,106.15384615384616C1401.6666666666667,106.15384615384616,1404.0833333333333,106.15384615384616,1406.5,106.15384615384616C1408.9166666666667,106.15384615384616,1411.3333333333333,106.15384615384616,1413.75,106.15384615384616C1416.1666666666667,106.15384615384616,1418.5833333333333,106.15384615384616,1421,106.15384615384616C1423.4166666666667,106.15384615384616,1425.8333333333333,106.15384615384616,1428.25,106.15384615384616C1430.6666666666667,106.15384615384616,1433.0833333333333,106.15384615384616,1435.5,106.15384615384616C1437.9166666666667,106.15384615384616,1440.3333333333333,106.15384615384616,1442.75,106.15384615384616C1445.1666666666667,106.15384615384616,1447.5833333333333,106.15384615384616,1450,106.15384615384616" fill="transparent" stroke-linecap="round" stroke="#E7C6DF" stroke-width="2"></path><g class="visx-group visx-axis visx-axis-bottom" transform="translate(0, 115)"><g class="visx-group visx-axis-tick" transform="translate(0, 0)"><line class="visx-line" x1="0" y1="0" x2="0" y2="8" fill="transparent" shape-rendering="crispEdges" stroke="#000" stroke-width="0" stroke-linecap="square"></line><svg x="0" y="0" font-size="10" style="overflow:visible"><text transform="" x="0" y="18" fill="#000" font-size="10" text-anchor="middle"><tspan x="0" dy="0em">0%</tspan></text></svg></g><g class="visx-group visx-axis-tick" transform="translate(0, 0)"><line class="visx-line" x1="362.5" y1="0" x2="362.5" y2="8" fill="transparent" shape-rendering="crispEdges" stroke="#000" stroke-width="0" stroke-linecap="square"></line><svg x="0" y="0" font-size="10" style="overflow:visible"><text transform="" x="362.5" y="18" fill="#000" font-size="10" text-anchor="middle"><tspan x="362.5" dy="0em">25%</tspan></text></svg></g><g class="visx-group visx-axis-tick" transform="translate(0, 0)"><line class="visx-line" x1="725" y1="0" x2="725" y2="8" fill="transparent" shape-rendering="crispEdges" stroke="#000" stroke-width="0" stroke-linecap="square"></line><svg x="0" y="0" font-size="10" style="overflow:visible"><text transform="" x="725" y="18" fill="#000" font-size="10" text-anchor="middle"><tspan x="725" dy="0em">50%</tspan></text></svg></g><g class="visx-group visx-axis-tick" transform="translate(0, 0)"><line class="visx-line" x1="1087.5" y1="0" x2="1087.5" y2="8" fill="transparent" shape-rendering="crispEdges" stroke="#000" stroke-width="0" stroke-linecap="square"></line><svg x="0" y="0" font-size="10" style="overflow:visible"><text transform="" x="1087.5" y="18" fill="#000" font-size="10" text-anchor="middle"><tspan x="1087.5" dy="0em">75%</tspan></text></svg></g><g class="visx-group visx-axis-tick" transform="translate(0, 0)"><line class="visx-line" x1="1450" y1="0" x2="1450" y2="8" fill="transparent" shape-rendering="crispEdges" stroke="#000" stroke-width="0" stroke-linecap="square"></line><svg x="0" y="0" font-size="10" style="overflow:visible"><text transform="" x="1450" y="18" fill="#000" font-size="10" text-anchor="middle"><tspan x="1450" dy="0em">100%</tspan></text></svg></g><line class="visx-line visx-axis-line" x1="0.5" y1="0" x2="1450.5" y2="0" fill="transparent" shape-rendering="crispEdges" stroke="#222" stroke-width="0"></line></g><g class="visx-group visx-axis visx-axis-left" transform="translate(0, 0)"><g class="visx-group visx-axis-tick" transform="translate(0, 0)"><line class="visx-line" x1="0" y1="115" x2="-8" y2="115" fill="transparent" shape-rendering="crispEdges" stroke="#222" stroke-width="0" stroke-linecap="square"></line><svg x="-30" y="0" font-size="8" style="overflow:visible"><text transform="" x="-8" y="115" fill="#000" font-size="8" text-anchor="start"><tspan x="-8" dy="0em">0%</tspan></text></svg></g><g class="visx-group visx-axis-tick" transform="translate(0, 0)"><line class="visx-line" x1="0" y1="70.76923076923077" x2="-8" y2="70.76923076923077" fill="transparent" shape-rendering="crispEdges" stroke="#222" stroke-width="0" stroke-linecap="square"></line><svg x="-30" y="0" font-size="8" style="overflow:visible"><text transform="" x="-8" y="70.76923076923077" fill="#000" font-size="8" text-anchor="start"><tspan x="-8" dy="0em">50%</tspan></text></svg></g><g class="visx-group visx-axis-tick" transform="translate(0, 0)"><line class="visx-line" x1="0" y1="26.538461538461533" x2="-8" y2="26.538461538461533" fill="transparent" shape-rendering="crispEdges" stroke="#222" stroke-width="0" stroke-linecap="square"></line><svg x="-30" y="0" font-size="8" style="overflow:visible"><text transform="" x="-8" y="26.538461538461533" fill="#000" font-size="8" text-anchor="start"><tspan x="-8" dy="0em">100%</tspan></text></svg></g><line class="visx-line visx-axis-line" x1="0" y1="115.5" x2="0" y2="0.5" fill="transparent" shape-rendering="crispEdges" stroke="#222" stroke-width="0"></line></g><rect class="visx-bar" width="1450" height="115" fill="transparent"></rect><line class="visx-line" x1="1160" y1="28" x2="1160" y2="115" fill="transparent" shape-rendering="crispEdges" stroke="#0062D2" stroke-width="1" pointer-events="none" stroke-dasharray="5,2"></line><svg x="0" y="0" font-size="10px" style="overflow:visible"><text transform="" x="1160" y="20" font-size="10px" fill="#fff" stroke="#fff" stroke-width="0.8em" text-anchor="middle"><tspan x="1160" dy="0.355em">Optimal 80%</tspan></text></svg><svg x="0" y="0" font-size="10px" style="overflow:visible"><text transform="" x="1160" y="20" font-size="10px" fill="#62677B" text-anchor="middle"><tspan x="1160" dy="0.355em">Optimal 80%</tspan></text></svg></g></svg>