<?xml version="1.0"?><svg xmlns="http://www.w3.org/2000/svg" xmlns:xlink= "http://www.w3.org/1999/xlink" style="background: white;" width="1500" height="185"> <g style="color: black; font-size: 13px; font-family: sans-serif; transform: translate(18px, 25px);"><g><circle r="3" cx="-6" cy="-5" style="fill: #B6509E" /><text>Borrow APR, variable</text></g><g style="transform: translateX(150px);"><circle r="3" cx="-6" cy="-5" style="fill: rgb(231, 198, 223)" /><text>Borrow APR, stable</text></g><g style="transform: translateX(290px);"><circle r="3" cx="-6" cy="-5" style="fill: rgb(0, 98, 210)" /><text>Utilization Rate</text></g></g><g class="visx-group" transform="translate(40, 50)"><g class="visx-group visx-rows" transform="translate(0, 0)"><line class="visx-line" x1="0" y1="115" x2="1450" y2="115" fill="transparent" shape-rendering="crispEdges" stroke="#000" stroke-width="1" stroke-dasharray="3,3" pointer-events="none"></line><line class="visx-line" x1="0" y1="57.5" x2="1450" y2="57.5" fill="transparent" shape-rendering="crispEdges" stroke="#000" stroke-width="1" stroke-dasharray="3,3" pointer-events="none"></line><line class="visx-line" x1="0" y1="0" x2="1450" y2="0" fill="transparent" shape-rendering="crispEdges" stroke="#000" stroke-width="1" stroke-dasharray="3,3" pointer-events="none"></line></g><path class="visx-linepath" d="M0,114.99999999995144C2.4166666666666665,114.99190740737907,4.833333333333334,114.98381481480672,7.25,114.97572222222222C9.666666666666666,114.96762962963771,12.083333333333334,114.95953703703704,14.5,114.95144444444445C16.916666666666668,114.94335185185186,19.333333333333332,114.93525925925925,21.75,114.92716666666666C24.166666666666668,114.91907407407408,26.583333333333332,114.91098148148149,29,114.9028888888889C31.416666666666668,114.8947962962963,33.833333333333336,114.8867037037037,36.25,114.87861111111111C38.666666666666664,114.87051851851852,41.083333333333336,114.86242592592593,43.5,114.85433333333334C45.91666666666667,114.84624074074075,48.333333333333336,114.83814814814814,50.75000000000001,114.83005555555555C53.16666666666667,114.82196296296296,55.583333333333336,114.81387037037037,58,114.80577777777778C60.416666666666664,114.79768518518519,62.833333333333336,114.78959259259258,65.25,114.7815C67.66666666666667,114.7734074074074,70.08333333333333,114.76531481481481,72.5,114.75722222222223C74.91666666666667,114.74912962962964,77.33333333333333,114.74103703703703,79.75,114.73294444444444C82.16666666666667,114.72485185185185,84.58333333333333,114.71675925925925,87,114.70866666666666C89.41666666666667,114.70057407407407,91.83333333333333,114.69248148148148,94.25,114.68438888888889C96.66666666666667,114.6762962962963,99.08333333333334,114.6682037037037,101.50000000000001,114.6601111111111C103.91666666666667,114.65201851851852,106.33333333333334,114.64392592592593,108.75,114.63583333333334C111.16666666666667,114.62774074074075,113.58333333333333,114.61964814814814,116,114.61155555555555C118.41666666666667,114.60346296296296,120.83333333333334,114.59537037037038,123.25000000000001,114.58727777777779C125.66666666666667,114.5791851851852,128.08333333333334,114.57109259259259,130.5,114.563C132.91666666666666,114.55490740740741,135.33333333333334,114.54681481481481,137.75,114.53872222222222C140.16666666666666,114.53062962962963,142.58333333333334,114.52253703703703,145,114.51444444444444C147.41666666666666,114.50635185185185,149.83333333333334,114.49825925925926,152.25,114.49016666666667C154.66666666666666,114.48207407407408,157.08333333333334,114.47398148148147,159.5,114.46588888888888C161.91666666666666,114.4577962962963,164.33333333333334,114.4497037037037,166.75,114.44161111111111C169.16666666666666,114.43351851851853,171.58333333333334,114.42542592592592,174,114.41733333333333C176.41666666666666,114.40924074074074,178.83333333333334,114.40114814814814,181.25,114.39305555555555C183.66666666666666,114.38496296296296,186.08333333333334,114.37687037037037,188.5,114.36877777777778C190.91666666666666,114.36068518518519,193.33333333333334,114.35259259259259,195.75,114.3445C198.16666666666669,114.3364074074074,200.58333333333334,114.32831481481482,203.00000000000003,114.32022222222223C205.41666666666669,114.31212962962964,207.83333333333331,114.30403703703703,210.24999999999997,114.29594444444444C212.66666666666666,114.28785185185185,215.08333333333331,114.27975925925927,217.5,114.27166666666668C219.91666666666666,114.26357407407409,222.33333333333334,114.25548148148148,224.75,114.24738888888889C227.16666666666666,114.2392962962963,229.58333333333334,114.2312037037037,232,114.22311111111111C234.41666666666666,114.21501851851852,236.83333333333334,114.20692592592592,239.25,114.19883333333333C241.66666666666669,114.19074074074074,244.08333333333334,114.18264814814815,246.50000000000003,114.17455555555556C248.91666666666669,114.16646296296297,251.33333333333331,114.15837037037036,253.74999999999997,114.15027777777777C256.16666666666663,114.14218518518518,258.5833333333333,114.13409259259258,261,114.12599999999999C263.4166666666667,114.1179074074074,265.8333333333333,114.10981481481481,268.25,114.10172222222222C270.6666666666667,114.09362962962963,273.0833333333333,114.08553703703703,275.5,114.07744444444444C277.9166666666667,114.06935185185185,280.3333333333333,114.06125925925926,282.75,114.05316666666667C285.1666666666667,114.04507407407408,287.5833333333333,114.03698148148148,290,114.02888888888889C292.4166666666667,114.0207962962963,294.8333333333333,114.0127037037037,297.25,114.00461111111112C299.6666666666667,113.99651851851853,302.0833333333333,113.98842592592592,304.5,113.98033333333333C306.9166666666667,113.97224074074074,309.3333333333333,113.96414814814815,311.75,113.95605555555557C314.1666666666667,113.94796296296298,316.5833333333333,113.93987037037037,319,113.93177777777778C321.4166666666667,113.92368518518519,323.8333333333333,113.91559259259259,326.25,113.9075C328.6666666666667,113.89940740740741,331.0833333333333,113.8913148148148,333.5,113.88322222222222C335.9166666666667,113.87512962962963,338.3333333333333,113.86703703703702,340.75,113.85894444444443C343.1666666666667,113.85085185185184,345.5833333333333,113.84275925925925,348,113.83466666666666C350.4166666666667,113.82657407407407,352.8333333333333,113.81848148148147,355.25,113.81038888888888C357.6666666666667,113.80229629629629,360.0833333333333,113.7942037037037,362.5,113.78611111111111C364.9166666666667,113.77801851851852,367.3333333333333,113.76992592592592,369.75,113.76183333333333C372.1666666666667,113.75374074074074,374.5833333333333,113.74564814814815,377,113.73755555555556C379.4166666666667,113.72946296296297,381.8333333333333,113.72137037037037,384.25,113.71327777777778C386.6666666666667,113.70518518518519,389.0833333333333,113.6970925925926,391.5,113.68900000000001C393.9166666666667,113.68090740740742,396.33333333333337,113.67281481481481,398.75000000000006,113.66472222222222C401.16666666666674,113.65662962962963,403.58333333333337,113.64853703703704,406.00000000000006,113.64044444444446C408.4166666666667,113.63235185185187,410.8333333333333,113.62425925925926,413.24999999999994,113.61616666666667C415.66666666666663,113.60807407407408,418.08333333333326,113.59998148148148,420.49999999999994,113.59188888888889C422.91666666666663,113.5837962962963,425.3333333333333,113.5757037037037,427.75,113.5676111111111C430.1666666666667,113.55951851851852,432.5833333333333,113.55142592592591,435,113.54333333333332C437.4166666666667,113.53524074074073,439.8333333333333,113.52714814814814,442.25,113.51905555555555C444.6666666666667,113.51096296296296,447.0833333333333,113.50287037037036,449.5,113.49477777777777C451.9166666666667,113.48668518518518,454.3333333333333,113.47859259259259,456.75,113.4705C459.1666666666667,113.46240740740741,461.5833333333333,113.45431481481481,464,113.44622222222222C466.4166666666667,113.43812962962963,468.8333333333333,113.43003703703704,471.25,113.42194444444445C473.6666666666667,113.41385185185186,476.0833333333333,113.40575925925926,478.5,113.39766666666667C480.9166666666667,113.38957407407408,483.33333333333337,113.38148148148149,485.75000000000006,113.3733888888889C488.16666666666674,113.36529629629631,490.58333333333337,113.3572037037037,493.00000000000006,113.34911111111111C495.4166666666667,113.34101851851852,497.8333333333333,113.33292592592593,500.24999999999994,113.32483333333334C502.66666666666663,113.31674074074076,505.08333333333326,113.30864814814815,507.49999999999994,113.30055555555556C509.91666666666663,113.29246296296297,512.3333333333333,113.28437037037037,514.75,113.27627777777778C517.1666666666666,113.26818518518519,519.5833333333334,113.26009259259258,522,113.252C524.4166666666666,113.2439074074074,526.8333333333334,113.2358148148148,529.25,113.22772222222221C531.6666666666666,113.21962962962962,534.0833333333334,113.21153703703703,536.5,113.20344444444444C538.9166666666666,113.19535185185185,541.3333333333334,113.18725925925925,543.75,113.17916666666666C546.1666666666666,113.17107407407407,548.5833333333334,113.16298148148148,551,113.15488888888889C553.4166666666666,113.1467962962963,555.8333333333334,113.1387037037037,558.25,113.13061111111111C560.6666666666666,113.12251851851852,563.0833333333334,113.11442592592593,565.5,113.10633333333334C567.9166666666666,113.09824074074075,570.3333333333334,113.09014814814815,572.75,113.08205555555556C575.1666666666666,113.07396296296297,577.5833333333334,113.06587037037038,580,113.05777777777779C582.4166666666666,113.0496851851852,584.8333333333334,113.0415925925926,587.25,113.0335C589.6666666666666,113.02540740740741,592.0833333333334,113.01731481481482,594.5,113.00922222222223C596.9166666666666,113.00112962962965,599.3333333333334,112.99303703703704,601.75,112.98494444444445C604.1666666666666,112.97685185185186,606.5833333333334,112.96875925925926,609,112.96066666666667C611.4166666666666,112.95257407407408,613.8333333333334,112.94448148148147,616.25,112.93638888888889C618.6666666666666,112.9282962962963,621.0833333333334,112.92020370370369,623.5,112.9121111111111C625.9166666666666,112.90401851851851,628.3333333333334,112.89592592592592,630.75,112.88783333333333C633.1666666666666,112.87974074074074,635.5833333333334,112.87164814814814,638,112.86355555555555C640.4166666666666,112.85546296296296,642.8333333333334,112.84737037037037,645.25,112.83927777777778C647.6666666666666,112.83118518518519,650.0833333333334,112.82309259259259,652.5,112.815C654.9166666666666,112.80690740740741,657.3333333333334,112.79881481481482,659.75,112.79072222222223C662.1666666666666,112.78262962962964,664.5833333333334,112.77453703703704,667,112.76644444444445C669.4166666666666,112.75835185185186,671.8333333333334,112.75025925925927,674.25,112.74216666666668C676.6666666666666,112.73407407407409,679.0833333333334,112.72598148148148,681.5,112.7178888888889C683.9166666666666,112.7097962962963,686.3333333333334,112.7017037037037,688.75,112.69361111111111C691.1666666666666,112.68551851851852,693.5833333333334,112.67742592592593,696,112.66933333333334C698.4166666666666,112.66124074074075,700.8333333333334,112.65314814814815,703.25,112.64505555555556C705.6666666666666,112.63696296296297,708.0833333333334,112.62887037037036,710.5,112.62077777777777C712.9166666666666,112.61268518518519,715.3333333333334,112.60459259259258,717.75,112.59649999999999C720.1666666666666,112.5884074074074,722.5833333333334,112.58031481481481,725,112.57222222222222C727.4166666666666,112.56412962962963,729.8333333333334,112.55603703703703,732.25,112.54794444444444C734.6666666666666,112.53985185185185,737.0833333333334,112.53175925925926,739.5,112.52366666666667C741.9166666666666,112.51557407407408,744.3333333333334,112.50748148148148,746.75,112.49938888888889C749.1666666666666,112.4912962962963,751.5833333333334,112.48320370370371,754,112.47511111111112C756.4166666666666,112.46701851851853,758.8333333333334,112.45892592592593,761.25,112.45083333333334C763.6666666666666,112.44274074074075,766.0833333333334,112.43464814814814,768.5,112.42655555555555C770.9166666666666,112.41846296296296,773.3333333333334,112.41037037037037,775.75,112.40227777777778C778.1666666666666,112.3941851851852,780.5833333333334,112.38609259259259,783,112.378C785.4166666666667,112.36990740740741,787.8333333333334,112.36181481481482,790.2500000000001,112.35372222222223C792.6666666666667,112.34562962962964,795.0833333333335,112.33753703703702,797.5000000000001,112.32944444444443C799.9166666666667,112.32135185185184,802.3333333333335,112.31325925925925,804.7500000000001,112.30516666666666C807.1666666666667,112.29707407407408,809.5833333333335,112.28898148148147,812.0000000000001,112.28088888888888C814.4166666666667,112.27279629629629,816.8333333333333,112.2647037037037,819.2499999999999,112.25661111111111C821.6666666666665,112.24851851851852,824.0833333333333,112.24042592592592,826.4999999999999,112.23233333333333C828.9166666666665,112.22424074074074,831.3333333333333,112.21614814814815,833.7499999999999,112.20805555555556C836.1666666666665,112.19996296296297,838.5833333333333,112.19187037037037,840.9999999999999,112.18377777777778C843.4166666666666,112.17568518518519,845.8333333333333,112.1675925925926,848.25,112.15950000000001C850.6666666666666,112.15140740740742,853.0833333333334,112.14331481481481,855.5,112.13522222222223C857.9166666666666,112.12712962962964,860.3333333333334,112.11903703703703,862.75,112.11094444444444C865.1666666666666,112.10285185185185,867.5833333333334,112.09475925925926,870,112.08666666666667C872.4166666666666,112.07857407407408,874.8333333333334,112.07048148148148,877.25,112.06238888888889C879.6666666666666,112.0542962962963,882.0833333333334,112.0462037037037,884.5,112.0381111111111C886.9166666666666,112.03001851851852,889.3333333333334,112.02192592592591,891.75,112.01383333333332C894.1666666666666,112.00574074074073,896.5833333333334,111.99764814814814,899,111.98955555555555C901.4166666666666,111.98146296296296,903.8333333333334,111.97337037037036,906.25,111.96527777777777C908.6666666666666,111.95718518518518,911.0833333333334,111.94909259259259,913.5,111.941C915.9166666666666,111.93290740740741,918.3333333333334,111.92481481481481,920.75,111.91672222222222C923.1666666666666,111.90862962962963,925.5833333333334,111.90053703703704,928,111.89244444444445C930.4166666666666,111.88435185185186,932.8333333333334,111.87625925925926,935.25,111.86816666666667C937.6666666666666,111.86007407407408,940.0833333333334,111.85198148148147,942.5,111.84388888888888C944.9166666666666,111.8357962962963,947.3333333333334,111.8277037037037,949.75,111.81961111111112C952.1666666666666,111.81151851851853,954.5833333333334,111.80342592592592,957,111.79533333333333C959.4166666666666,111.78724074074074,961.8333333333334,111.77914814814815,964.25,111.77105555555556C966.6666666666667,111.76296296296297,969.0833333333334,111.75487037037037,971.5000000000001,111.74677777777778C973.9166666666667,111.73868518518519,976.3333333333335,111.73059259259259,978.7500000000001,111.7225C981.1666666666667,111.7144074074074,983.5833333333335,111.7063148148148,986.0000000000001,111.69822222222221C988.4166666666667,111.69012962962962,990.8333333333335,111.68203703703703,993.2500000000001,111.67394444444444C995.6666666666667,111.66585185185185,998.0833333333333,111.65775925925925,1000.4999999999999,111.64966666666666C1002.9166666666665,111.64157407407407,1005.3333333333333,111.63348148148148,1007.7499999999999,111.62538888888889C1010.1666666666665,111.6172962962963,1012.5833333333333,111.6092037037037,1014.9999999999999,111.60111111111111C1017.4166666666665,111.59301851851852,1019.8333333333333,111.58492592592592,1022.2499999999999,111.57683333333333C1024.6666666666665,111.56874074074074,1027.0833333333333,111.56064814814815,1029.5,111.55255555555556C1031.9166666666667,111.54446296296297,1034.3333333333333,111.53637037037036,1036.75,111.52827777777777C1039.1666666666667,111.52018518518518,1041.5833333333333,111.5120925925926,1044,111.504C1046.4166666666667,111.49590740740742,1048.8333333333333,111.48781481481481,1051.25,111.47972222222222C1053.6666666666667,111.47162962962963,1056.0833333333333,111.46353703703704,1058.5,111.45544444444445C1060.9166666666667,111.44735185185186,1063.3333333333333,111.43925925925926,1065.75,111.43116666666667C1068.1666666666667,111.42307407407408,1070.5833333333333,111.41498148148148,1073,111.40688888888889C1075.4166666666667,111.3987962962963,1077.8333333333333,111.3907037037037,1080.25,111.3826111111111C1082.6666666666667,111.37451851851851,1085.0833333333333,111.36642592592592,1087.5,111.35833333333333C1089.9166666666667,111.35024074074074,1092.3333333333333,111.34214814814814,1094.75,111.33405555555555C1097.1666666666667,111.32596296296296,1099.5833333333333,111.31787037037037,1102,111.30977777777778C1104.4166666666667,111.30168518518519,1106.8333333333333,111.29359259259259,1109.25,111.2855C1111.6666666666667,111.27740740740741,1114.0833333333333,111.2693148148148,1116.5,111.26122222222222C1118.9166666666667,111.25312962962963,1121.3333333333333,111.24503703703704,1123.75,111.23694444444445C1126.1666666666667,111.22885185185186,1128.5833333333333,111.22075925925925,1131,111.21266666666666C1133.4166666666667,111.20457407407407,1135.8333333333333,111.19648148148148,1138.25,111.1883888888889C1140.6666666666667,111.1802962962963,1143.0833333333333,111.1722037037037,1145.5,111.16411111111111C1147.9166666666667,111.15601851851852,1150.3333333333333,111.14792592592593,1152.75,111.13983333333334C1155.1666666666667,111.13174074074075,1157.5833333333333,111.12364814814815,1160,111.11555555555556C1162.4166666666667,111.10746296296297,1164.8333333333333,111.09937037037037,1167.25,111.09127777777778C1169.6666666666667,111.08318518518519,1172.0833333333333,111.07509259259258,1174.5,111.067C1176.9166666666667,111.0589074074074,1179.3333333333333,111.0508148148148,1181.75,111.04272222222221C1184.1666666666667,111.03462962962962,1186.5833333333333,111.02653703703703,1189,111.01844444444444C1191.4166666666667,111.01035185185185,1193.8333333333333,111.00225925925925,1196.25,110.99416666666666C1198.6666666666667,110.98607407407407,1201.0833333333333,110.97798148148148,1203.5,110.96988888888889C1205.9166666666667,110.9617962962963,1208.3333333333333,110.9537037037037,1210.75,110.9456111111111C1213.1666666666667,110.93751851851852,1215.5833333333333,110.92942592592593,1218,110.92133333333334C1220.4166666666667,110.91324074074075,1222.8333333333333,110.90514814814814,1225.25,110.89705555555555C1227.6666666666667,110.88896296296296,1230.0833333333333,110.88087037037037,1232.5,110.87277777777778C1234.9166666666667,110.8646851851852,1237.3333333333333,110.85659259259259,1239.75,110.8485C1242.1666666666667,110.84040740740741,1244.5833333333333,110.83231481481482,1247,110.82422222222223C1249.4166666666667,110.81612962962964,1251.8333333333333,110.80803703703704,1254.25,110.79994444444445C1256.6666666666667,110.79185185185186,1259.0833333333333,110.78375925925926,1261.5,110.77566666666667C1263.9166666666667,110.76757407407408,1266.3333333333333,110.75948148148147,1268.75,110.75138888888888C1271.1666666666667,110.7432962962963,1273.5833333333333,110.73520370370369,1276,110.7271111111111C1278.4166666666667,110.71901851851851,1280.8333333333333,110.71092592592592,1283.25,110.70283333333333C1285.6666666666667,110.69474074074074,1288.0833333333333,110.68664814814814,1290.5,110.67855555555555C1292.9166666666667,110.67046296296296,1295.3333333333333,110.66237037037037,1297.75,110.65427777777778C1300.1666666666667,110.64618518518519,1302.5833333333333,110.64618518518519,1305,110.63C1307.4166666666667,110.6138148148148,1309.8333333333333,107.56333333333333,1312.25,106.03C1314.6666666666667,104.49666666666667,1317.0833333333333,102.96333333333334,1319.5,101.43C1321.9166666666667,99.89666666666668,1324.3333333333333,98.36333333333333,1326.75,96.83C1329.1666666666667,95.29666666666667,1331.5833333333333,93.76333333333334,1334,92.23C1336.4166666666667,90.69666666666667,1338.8333333333333,89.16333333333333,1341.25,87.63C1343.6666666666667,86.09666666666666,1346.0833333333333,84.56333333333333,1348.5,83.03C1350.9166666666667,81.49666666666667,1353.3333333333333,79.96333333333332,1355.75,78.42999999999999C1358.1666666666667,76.89666666666666,1360.5833333333333,75.36333333333333,1363,73.83C1365.4166666666667,72.29666666666667,1367.8333333333333,70.76333333333334,1370.25,69.23C1372.6666666666667,67.69666666666667,1375.0833333333333,66.16333333333334,1377.5,64.63000000000001C1379.9166666666667,63.09666666666668,1382.3333333333333,61.56333333333333,1384.75,60.03C1387.1666666666667,58.49666666666667,1389.5833333333333,56.96333333333334,1392,55.43C1394.4166666666667,53.89666666666666,1396.8333333333333,52.36333333333332,1399.25,50.82999999999999C1401.6666666666667,49.29666666666666,1404.0833333333333,47.763333333333335,1406.5,46.230000000000004C1408.9166666666667,44.69666666666667,1411.3333333333333,43.163333333333334,1413.75,41.629999999999995C1416.1666666666667,40.09666666666666,1418.5833333333333,38.56333333333331,1421,37.02999999999998C1423.4166666666667,35.49666666666665,1425.8333333333333,33.96333333333334,1428.25,32.43000000000001C1430.6666666666667,30.896666666666675,1433.0833333333333,29.363333333333337,1435.5,27.83C1437.9166666666667,26.29666666666666,1440.3333333333333,24.763333333333314,1442.75,23.229999999999983C1445.1666666666667,21.69666666666665,1447.5833333333333,20.163333333333327,1450,18.630000000000003" fill="transparent" stroke-linecap="round" stroke="#B6509E" stroke-width="2"></path><path class="visx-linepath" d="M0,107.17999999994889C2.4166666666666665,107.17148148145166,4.833333333333334,107.16296296295445,7.25,107.15444444444445C9.666666666666666,107.14592592593445,12.083333333333334,107.13740740740741,14.5,107.1288888888889C16.916666666666668,107.12037037037038,19.333333333333332,107.11185185185185,21.75,107.10333333333334C24.166666666666668,107.09481481481482,26.583333333333332,107.0862962962963,29,107.07777777777778C31.416666666666668,107.06925925925927,33.833333333333336,107.06074074074074,36.25,107.05222222222223C38.666666666666664,107.04370370370371,41.083333333333336,107.03518518518518,43.5,107.02666666666667C45.91666666666667,107.01814814814814,48.333333333333336,107.00962962962961,50.75000000000001,107.0011111111111C53.16666666666667,106.99259259259259,55.583333333333336,106.98407407407407,58,106.97555555555556C60.416666666666664,106.96703703703704,62.833333333333336,106.9585185185185,65.25,106.94999999999999C67.66666666666667,106.94148148148147,70.08333333333333,106.93296296296296,72.5,106.92444444444445C74.91666666666667,106.91592592592593,77.33333333333333,106.9074074074074,79.75,106.89888888888889C82.16666666666667,106.89037037037038,84.58333333333333,106.88185185185185,87,106.87333333333333C89.41666666666667,106.86481481481482,91.83333333333333,106.85629629629629,94.25,106.84777777777778C96.66666666666667,106.83925925925926,99.08333333333334,106.83074074074074,101.50000000000001,106.82222222222222C103.91666666666667,106.81370370370371,106.33333333333334,106.80518518518518,108.75,106.79666666666667C111.16666666666667,106.78814814814815,113.58333333333333,106.77962962962962,116,106.77111111111111C118.41666666666667,106.7625925925926,120.83333333333334,106.75407407407408,123.25000000000001,106.74555555555557C125.66666666666667,106.73703703703706,128.08333333333334,106.72851851851851,130.5,106.72C132.91666666666666,106.71148148148147,135.33333333333334,106.70296296296296,137.75,106.69444444444444C140.16666666666666,106.68592592592593,142.58333333333334,106.6774074074074,145,106.66888888888889C147.41666666666666,106.66037037037037,149.83333333333334,106.65185185185184,152.25,106.64333333333333C154.66666666666666,106.63481481481482,157.08333333333334,106.62629629629629,159.5,106.61777777777777C161.91666666666666,106.60925925925926,164.33333333333334,106.60074074074073,166.75,106.59222222222222C169.16666666666666,106.5837037037037,171.58333333333334,106.57518518518518,174,106.56666666666666C176.41666666666666,106.55814814814815,178.83333333333334,106.54962962962962,181.25,106.5411111111111C183.66666666666666,106.5325925925926,186.08333333333334,106.52407407407408,188.5,106.51555555555557C190.91666666666666,106.50703703703705,193.33333333333334,106.49851851851852,195.75,106.49000000000001C198.16666666666669,106.4814814814815,200.58333333333334,106.47296296296297,203.00000000000003,106.46444444444445C205.41666666666669,106.45592592592594,207.83333333333331,106.44740740740741,210.24999999999997,106.4388888888889C212.66666666666666,106.43037037037038,215.08333333333331,106.42185185185187,217.5,106.41333333333334C219.91666666666666,106.40481481481483,222.33333333333334,106.3962962962963,224.75,106.38777777777777C227.16666666666666,106.37925925925924,229.58333333333334,106.37074074074073,232,106.36222222222221C234.41666666666666,106.3537037037037,236.83333333333334,106.34518518518517,239.25,106.33666666666666C241.66666666666669,106.32814814814814,244.08333333333334,106.31962962962962,246.50000000000003,106.3111111111111C248.91666666666669,106.30259259259259,251.33333333333331,106.29407407407408,253.74999999999997,106.28555555555556C256.16666666666663,106.27703703703705,258.5833333333333,106.26851851851852,261,106.26C263.4166666666667,106.25148148148149,265.8333333333333,106.24296296296296,268.25,106.23444444444445C270.6666666666667,106.22592592592594,273.0833333333333,106.2174074074074,275.5,106.2088888888889C277.9166666666667,106.20037037037038,280.3333333333333,106.19185185185185,282.75,106.18333333333334C285.1666666666667,106.17481481481482,287.5833333333333,106.1662962962963,290,106.15777777777778C292.4166666666667,106.14925925925927,294.8333333333333,106.14074074074074,297.25,106.13222222222223C299.6666666666667,106.12370370370371,302.0833333333333,106.11518518518518,304.5,106.10666666666667C306.9166666666667,106.09814814814816,309.3333333333333,106.08962962962963,311.75,106.08111111111111C314.1666666666667,106.0725925925926,316.5833333333333,106.06407407407407,319,106.05555555555556C321.4166666666667,106.04703703703704,323.8333333333333,106.03851851851852,326.25,106.03C328.6666666666667,106.02148148148149,331.0833333333333,106.01296296296296,333.5,106.00444444444445C335.9166666666667,105.99592592592593,338.3333333333333,105.9874074074074,340.75,105.97888888888889C343.1666666666667,105.97037037037038,345.5833333333333,105.96185185185185,348,105.95333333333333C350.4166666666667,105.94481481481482,352.8333333333333,105.93629629629629,355.25,105.92777777777778C357.6666666666667,105.91925925925926,360.0833333333333,105.91074074074074,362.5,105.90222222222222C364.9166666666667,105.89370370370371,367.3333333333333,105.88518518518518,369.75,105.87666666666667C372.1666666666667,105.86814814814815,374.5833333333333,105.85962962962962,377,105.85111111111111C379.4166666666667,105.8425925925926,381.8333333333333,105.83407407407408,384.25,105.82555555555557C386.6666666666667,105.81703703703705,389.0833333333333,105.80851851851853,391.5,105.80000000000001C393.9166666666667,105.79148148148148,396.33333333333337,105.78296296296297,398.75000000000006,105.77444444444444C401.16666666666674,105.76592592592593,403.58333333333337,105.7574074074074,406.00000000000006,105.74888888888889C408.4166666666667,105.74037037037037,410.8333333333333,105.73185185185184,413.24999999999994,105.72333333333333C415.66666666666663,105.71481481481482,418.08333333333326,105.70629629629629,420.49999999999994,105.69777777777777C422.91666666666663,105.68925925925926,425.3333333333333,105.68074074074073,427.75,105.67222222222222C430.1666666666667,105.6637037037037,432.5833333333333,105.65518518518518,435,105.64666666666666C437.4166666666667,105.63814814814815,439.8333333333333,105.62962962962962,442.25,105.6211111111111C444.6666666666667,105.61259259259259,447.0833333333333,105.60407407407408,449.5,105.59555555555556C451.9166666666667,105.58703703703705,454.3333333333333,105.57851851851851,456.75,105.57C459.1666666666667,105.56148148148148,461.5833333333333,105.55296296296297,464,105.54444444444445C466.4166666666667,105.53592592592594,468.8333333333333,105.52740740740741,471.25,105.5188888888889C473.6666666666667,105.51037037037038,476.0833333333333,105.50185185185185,478.5,105.49333333333334C480.9166666666667,105.48481481481483,483.33333333333337,105.47629629629631,485.75000000000006,105.46777777777778C488.16666666666674,105.45925925925927,490.58333333333337,105.45074074074073,493.00000000000006,105.44222222222221C495.4166666666667,105.4337037037037,497.8333333333333,105.42518518518519,500.24999999999994,105.41666666666667C502.66666666666663,105.40814814814816,505.08333333333326,105.39962962962962,507.49999999999994,105.3911111111111C509.91666666666663,105.38259259259259,512.3333333333333,105.37407407407407,514.75,105.36555555555556C517.1666666666666,105.35703703703705,519.5833333333334,105.34851851851852,522,105.34C524.4166666666666,105.33148148148149,526.8333333333334,105.32296296296296,529.25,105.31444444444445C531.6666666666666,105.30592592592593,534.0833333333334,105.2974074074074,536.5,105.28888888888889C538.9166666666666,105.28037037037038,541.3333333333334,105.27185185185185,543.75,105.26333333333334C546.1666666666666,105.25481481481482,548.5833333333334,105.2462962962963,551,105.23777777777778C553.4166666666666,105.22925925925927,555.8333333333334,105.22074074074074,558.25,105.21222222222222C560.6666666666666,105.20370370370371,563.0833333333334,105.19518518518518,565.5,105.18666666666667C567.9166666666666,105.17814814814815,570.3333333333334,105.16962962962963,572.75,105.16111111111111C575.1666666666666,105.1525925925926,577.5833333333334,105.14407407407407,580,105.13555555555556C582.4166666666666,105.12703703703704,584.8333333333334,105.11851851851851,587.25,105.11C589.6666666666666,105.10148148148149,592.0833333333334,105.09296296296296,594.5,105.08444444444444C596.9166666666666,105.07592592592593,599.3333333333334,105.0674074074074,601.75,105.05888888888889C604.1666666666666,105.05037037037037,606.5833333333334,105.04185185185185,609,105.03333333333333C611.4166666666666,105.02481481481482,613.8333333333334,105.01629629629629,616.25,105.00777777777778C618.6666666666666,104.99925925925926,621.0833333333334,104.99074074074073,623.5,104.98222222222222C625.9166666666666,104.9737037037037,628.3333333333334,104.96518518518519,630.75,104.95666666666668C633.1666666666666,104.94814814814816,635.5833333333334,104.93962962962962,638,104.93111111111111C640.4166666666666,104.9225925925926,642.8333333333334,104.91407407407408,645.25,104.90555555555557C647.6666666666666,104.89703703703705,650.0833333333334,104.88851851851852,652.5,104.88000000000001C654.9166666666666,104.8714814814815,657.3333333333334,104.86296296296297,659.75,104.85444444444445C662.1666666666666,104.84592592592594,664.5833333333334,104.8374074074074,667,104.82888888888888C669.4166666666666,104.82037037037037,671.8333333333334,104.81185185185184,674.25,104.80333333333333C676.6666666666666,104.79481481481481,679.0833333333334,104.78629629629629,681.5,104.77777777777777C683.9166666666666,104.76925925925926,686.3333333333334,104.76074074074073,688.75,104.75222222222222C691.1666666666666,104.7437037037037,693.5833333333334,104.73518518518517,696,104.72666666666666C698.4166666666666,104.71814814814815,700.8333333333334,104.70962962962962,703.25,104.7011111111111C705.6666666666666,104.69259259259259,708.0833333333334,104.68407407407408,710.5,104.67555555555556C712.9166666666666,104.66703703703705,715.3333333333334,104.65851851851852,717.75,104.65C720.1666666666666,104.64148148148149,722.5833333333334,104.63296296296296,725,104.62444444444445C727.4166666666666,104.61592592592594,729.8333333333334,104.60740740740741,732.25,104.5988888888889C734.6666666666666,104.59037037037038,737.0833333333334,104.58185185185185,739.5,104.57333333333334C741.9166666666666,104.56481481481482,744.3333333333334,104.5562962962963,746.75,104.54777777777778C749.1666666666666,104.53925925925927,751.5833333333334,104.53074074074073,754,104.52222222222221C756.4166666666666,104.5137037037037,758.8333333333334,104.50518518518518,761.25,104.49666666666667C763.6666666666666,104.48814814814816,766.0833333333334,104.47962962962961,768.5,104.4711111111111C770.9166666666666,104.46259259259259,773.3333333333334,104.45407407407407,775.75,104.44555555555556C778.1666666666666,104.43703703703704,780.5833333333334,104.42851851851852,783,104.42C785.4166666666667,104.41148148148149,787.8333333333334,104.40296296296296,790.2500000000001,104.39444444444445C792.6666666666667,104.38592592592593,795.0833333333335,104.3774074074074,797.5000000000001,104.36888888888889C799.9166666666667,104.36037037037038,802.3333333333335,104.35185185185185,804.7500000000001,104.34333333333333C807.1666666666667,104.33481481481482,809.5833333333335,104.32629629629629,812.0000000000001,104.31777777777778C814.4166666666667,104.30925925925926,816.8333333333333,104.30074074074074,819.2499999999999,104.29222222222222C821.6666666666665,104.28370370370371,824.0833333333333,104.27518518518518,826.4999999999999,104.26666666666667C828.9166666666665,104.25814814814815,831.3333333333333,104.24962962962962,833.7499999999999,104.24111111111111C836.1666666666665,104.2325925925926,838.5833333333333,104.22407407407407,840.9999999999999,104.21555555555555C843.4166666666666,104.20703703703704,845.8333333333333,104.19851851851851,848.25,104.19C850.6666666666666,104.18148148148148,853.0833333333334,104.17296296296296,855.5,104.16444444444444C857.9166666666666,104.15592592592593,860.3333333333334,104.1474074074074,862.75,104.13888888888889C865.1666666666666,104.13037037037037,867.5833333333334,104.12185185185184,870,104.11333333333333C872.4166666666666,104.10481481481482,874.8333333333334,104.09629629629629,877.25,104.08777777777777C879.6666666666666,104.07925925925926,882.0833333333334,104.07074074074073,884.5,104.06222222222222C886.9166666666666,104.0537037037037,889.3333333333334,104.04518518518519,891.75,104.03666666666668C894.1666666666666,104.02814814814816,896.5833333333334,104.01962962962962,899,104.0111111111111C901.4166666666666,104.00259259259259,903.8333333333334,103.99407407407408,906.25,103.98555555555556C908.6666666666666,103.97703703703705,911.0833333333334,103.96851851851852,913.5,103.96000000000001C915.9166666666666,103.9514814814815,918.3333333333334,103.94296296296297,920.75,103.93444444444445C923.1666666666666,103.92592592592594,925.5833333333334,103.91740740740741,928,103.9088888888889C930.4166666666666,103.90037037037038,932.8333333333334,103.89185185185184,935.25,103.88333333333333C937.6666666666666,103.87481481481481,940.0833333333334,103.86629629629628,942.5,103.85777777777777C944.9166666666666,103.84925925925926,947.3333333333334,103.84074074074073,949.75,103.83222222222221C952.1666666666666,103.8237037037037,954.5833333333334,103.81518518518519,957,103.80666666666667C959.4166666666666,103.79814814814816,961.8333333333334,103.78962962962962,964.25,103.7811111111111C966.6666666666667,103.77259259259259,969.0833333333334,103.76407407407407,971.5000000000001,103.75555555555556C973.9166666666667,103.74703703703705,976.3333333333335,103.73851851851852,978.7500000000001,103.73C981.1666666666667,103.72148148148149,983.5833333333335,103.71296296296296,986.0000000000001,103.70444444444445C988.4166666666667,103.69592592592593,990.8333333333335,103.6874074074074,993.2500000000001,103.67888888888889C995.6666666666667,103.67037037037038,998.0833333333333,103.66185185185185,1000.4999999999999,103.65333333333334C1002.9166666666665,103.64481481481482,1005.3333333333333,103.6362962962963,1007.7499999999999,103.62777777777778C1010.1666666666665,103.61925925925927,1012.5833333333333,103.61074074074074,1014.9999999999999,103.60222222222222C1017.4166666666665,103.59370370370371,1019.8333333333333,103.58518518518518,1022.2499999999999,103.57666666666667C1024.6666666666665,103.56814814814814,1027.0833333333333,103.55962962962961,1029.5,103.5511111111111C1031.9166666666667,103.54259259259258,1034.3333333333333,103.53407407407407,1036.75,103.52555555555556C1039.1666666666667,103.51703703703704,1041.5833333333333,103.50851851851851,1044,103.5C1046.4166666666667,103.49148148148149,1048.8333333333333,103.48296296296296,1051.25,103.47444444444444C1053.6666666666667,103.46592592592593,1056.0833333333333,103.4574074074074,1058.5,103.44888888888889C1060.9166666666667,103.44037037037037,1063.3333333333333,103.43185185185185,1065.75,103.42333333333333C1068.1666666666667,103.41481481481482,1070.5833333333333,103.40629629629629,1073,103.39777777777778C1075.4166666666667,103.38925925925926,1077.8333333333333,103.38074074074073,1080.25,103.37222222222222C1082.6666666666667,103.3637037037037,1085.0833333333333,103.35518518518519,1087.5,103.34666666666668C1089.9166666666667,103.33814814814816,1092.3333333333333,103.32962962962964,1094.75,103.32111111111112C1097.1666666666667,103.31259259259261,1099.5833333333333,103.3040740740741,1102,103.29555555555557C1104.4166666666667,103.28703703703704,1106.8333333333333,103.27851851851852,1109.25,103.27C1111.6666666666667,103.26148148148147,1114.0833333333333,103.25296296296295,1116.5,103.24444444444444C1118.9166666666667,103.23592592592593,1121.3333333333333,103.2274074074074,1123.75,103.21888888888888C1126.1666666666667,103.21037037037037,1128.5833333333333,103.20185185185184,1131,103.19333333333333C1133.4166666666667,103.18481481481481,1135.8333333333333,103.17629629629629,1138.25,103.16777777777777C1140.6666666666667,103.15925925925926,1143.0833333333333,103.15074074074073,1145.5,103.14222222222222C1147.9166666666667,103.1337037037037,1150.3333333333333,103.12518518518519,1152.75,103.11666666666667C1155.1666666666667,103.10814814814816,1157.5833333333333,103.09962962962962,1160,103.0911111111111C1162.4166666666667,103.08259259259259,1164.8333333333333,103.07407407407408,1167.25,103.06555555555556C1169.6666666666667,103.05703703703705,1172.0833333333333,103.04851851851852,1174.5,103.04C1176.9166666666667,103.03148148148149,1179.3333333333333,103.02296296296296,1181.75,103.01444444444445C1184.1666666666667,103.00592592592594,1186.5833333333333,102.99740740740741,1189,102.9888888888889C1191.4166666666667,102.98037037037038,1193.8333333333333,102.97185185185185,1196.25,102.96333333333334C1198.6666666666667,102.95481481481482,1201.0833333333333,102.94629629629628,1203.5,102.93777777777777C1205.9166666666667,102.92925925925925,1208.3333333333333,102.92074074074073,1210.75,102.91222222222221C1213.1666666666667,102.9037037037037,1215.5833333333333,102.89518518518518,1218,102.88666666666667C1220.4166666666667,102.87814814814816,1222.8333333333333,102.86962962962963,1225.25,102.86111111111111C1227.6666666666667,102.8525925925926,1230.0833333333333,102.84407407407407,1232.5,102.83555555555556C1234.9166666666667,102.82703703703704,1237.3333333333333,102.81851851851852,1239.75,102.81C1242.1666666666667,102.80148148148149,1244.5833333333333,102.79296296296296,1247,102.78444444444445C1249.4166666666667,102.77592592592593,1251.8333333333333,102.7674074074074,1254.25,102.75888888888889C1256.6666666666667,102.75037037037038,1259.0833333333333,102.74185185185185,1261.5,102.73333333333333C1263.9166666666667,102.72481481481482,1266.3333333333333,102.71629629629629,1268.75,102.70777777777778C1271.1666666666667,102.69925925925926,1273.5833333333333,102.69074074074074,1276,102.68222222222222C1278.4166666666667,102.67370370370371,1280.8333333333333,102.66518518518518,1283.25,102.65666666666667C1285.6666666666667,102.64814814814815,1288.0833333333333,102.63962962962961,1290.5,102.6311111111111C1292.9166666666667,102.62259259259258,1295.3333333333333,102.61407407407407,1297.75,102.60555555555555C1300.1666666666667,102.59703703703704,1302.5833333333333,102.59703703703704,1305,102.58C1307.4166666666667,102.56296296296296,1309.8333333333333,99.51333333333334,1312.25,97.98C1314.6666666666667,96.44666666666667,1317.0833333333333,94.91333333333334,1319.5,93.38000000000001C1321.9166666666667,91.84666666666668,1324.3333333333333,90.31333333333333,1326.75,88.78C1329.1666666666667,87.24666666666667,1331.5833333333333,85.71333333333332,1334,84.17999999999999C1336.4166666666667,82.64666666666666,1338.8333333333333,81.11333333333333,1341.25,79.58C1343.6666666666667,78.04666666666667,1346.0833333333333,76.51333333333334,1348.5,74.98C1350.9166666666667,73.44666666666667,1353.3333333333333,71.91333333333331,1355.75,70.37999999999998C1358.1666666666667,68.84666666666665,1360.5833333333333,67.31333333333333,1363,65.78C1365.4166666666667,64.24666666666667,1367.8333333333333,62.71333333333334,1370.25,61.18000000000001C1372.6666666666667,59.646666666666675,1375.0833333333333,58.11333333333333,1377.5,56.58C1379.9166666666667,55.04666666666667,1382.3333333333333,53.51333333333333,1384.75,51.98C1387.1666666666667,50.446666666666665,1389.5833333333333,48.913333333333334,1392,47.38C1394.4166666666667,45.84666666666667,1396.8333333333333,44.31333333333333,1399.25,42.78C1401.6666666666667,41.24666666666667,1404.0833333333333,39.71333333333334,1406.5,38.18000000000001C1408.9166666666667,36.646666666666675,1411.3333333333333,35.11333333333334,1413.75,33.580000000000005C1416.1666666666667,32.046666666666674,1418.5833333333333,30.513333333333332,1421,28.98C1423.4166666666667,27.44666666666667,1425.8333333333333,25.91333333333334,1428.25,24.38000000000001C1430.6666666666667,22.84666666666668,1433.0833333333333,21.31333333333334,1435.5,19.780000000000005C1437.9166666666667,18.24666666666667,1440.3333333333333,16.713333333333335,1442.75,15.180000000000001C1445.1666666666667,13.646666666666668,1447.5833333333333,12.113333333333339,1450,10.580000000000009" fill="transparent" stroke-linecap="round" stroke="#E7C6DF" stroke-width="2"></path><g class="visx-group visx-axis visx-axis-bottom" transform="translate(0, 115)"><g class="visx-group visx-axis-tick" transform="translate(0, 0)"><line class="visx-line" x1="0" y1="0" x2="0" y2="8" fill="transparent" shape-rendering="crispEdges" stroke="#000" stroke-width="0" stroke-linecap="square"></line><svg x="0" y="0" font-size="10" style="overflow:visible"><text transform="" x="0" y="18" fill="#000" font-size="10" text-anchor="middle"><tspan x="0" dy="0em">0%</tspan></text></svg></g><g class="visx-group visx-axis-tick" transform="translate(0, 0)"><line class="visx-line" x1="362.5" y1="0" x2="362.5" y2="8" fill="transparent" shape-rendering="crispEdges" stroke="#000" stroke-width="0" stroke-linecap="square"></line><svg x="0" y="0" font-size="10" style="overflow:visible"><text transform="" x="362.5" y="18" fill="#000" font-size="10" text-anchor="middle"><tspan x="362.5" dy="0em">25%</tspan></text></svg></g><g class="visx-group visx-axis-tick" transform="translate(0, 0)"><line class="visx-line" x1="725" y1="0" x2="725" y2="8" fill="transparent" shape-rendering="crispEdges" stroke="#000" stroke-width="0" stroke-linecap="square"></line><svg x="0" y="0" font-size="10" style="overflow:visible"><text transform="" x="725" y="18" fill="#000" font-size="10" text-anchor="middle"><tspan x="725" dy="0em">50%</tspan></text></svg></g><g class="visx-group visx-axis-tick" transform="translate(0, 0)"><line class="visx-line" x1="1087.5" y1="0" x2="1087.5" y2="8" fill="transparent" shape-rendering="crispEdges" stroke="#000" stroke-width="0" stroke-linecap="square"></line><svg x="0" y="0" font-size="10" style="overflow:visible"><text transform="" x="1087.5" y="18" fill="#000" font-size="10" text-anchor="middle"><tspan x="1087.5" dy="0em">75%</tspan></text></svg></g><g class="visx-group visx-axis-tick" transform="translate(0, 0)"><line class="visx-line" x1="1450" y1="0" x2="1450" y2="8" fill="transparent" shape-rendering="crispEdges" stroke="#000" stroke-width="0" stroke-linecap="square"></line><svg x="0" y="0" font-size="10" style="overflow:visible"><text transform="" x="1450" y="18" fill="#000" font-size="10" text-anchor="middle"><tspan x="1450" dy="0em">100%</tspan></text></svg></g><line class="visx-line visx-axis-line" x1="0.5" y1="0" x2="1450.5" y2="0" fill="transparent" shape-rendering="crispEdges" stroke="#222" stroke-width="0"></line></g><g class="visx-group visx-axis visx-axis-left" transform="translate(0, 0)"><g class="visx-group visx-axis-tick" transform="translate(0, 0)"><line class="visx-line" x1="0" y1="115" x2="-8" y2="115" fill="transparent" shape-rendering="crispEdges" stroke="#222" stroke-width="0" stroke-linecap="square"></line><svg x="-30" y="0" font-size="8" style="overflow:visible"><text transform="" x="-8" y="115" fill="#000" font-size="8" text-anchor="start"><tspan x="-8" dy="0em">0%</tspan></text></svg></g><g class="visx-group visx-axis-tick" transform="translate(0, 0)"><line class="visx-line" x1="0" y1="57.5" x2="-8" y2="57.5" fill="transparent" shape-rendering="crispEdges" stroke="#222" stroke-width="0" stroke-linecap="square"></line><svg x="-30" y="0" font-size="8" style="overflow:visible"><text transform="" x="-8" y="57.5" fill="#000" font-size="8" text-anchor="start"><tspan x="-8" dy="0em">50%</tspan></text></svg></g><g class="visx-group visx-axis-tick" transform="translate(0, 0)"><line class="visx-line" x1="0" y1="0" x2="-8" y2="0" fill="transparent" shape-rendering="crispEdges" stroke="#222" stroke-width="0" stroke-linecap="square"></line><svg x="-30" y="0" font-size="8" style="overflow:visible"><text transform="" x="-8" y="0" fill="#000" font-size="8" text-anchor="start"><tspan x="-8" dy="0em">100%</tspan></text></svg></g><line class="visx-line visx-axis-line" x1="0" y1="115.5" x2="0" y2="0.5" fill="transparent" shape-rendering="crispEdges" stroke="#222" stroke-width="0"></line></g><rect class="visx-bar" width="1450" height="115" fill="transparent"></rect><line class="visx-line" x1="1305" y1="28" x2="1305" y2="115" fill="transparent" shape-rendering="crispEdges" stroke="#0062D2" stroke-width="1" pointer-events="none" stroke-dasharray="5,2"></line><svg x="0" y="0" font-size="10px" style="overflow:visible"><text transform="" x="1305" y="20" font-size="10px" fill="#fff" stroke="#fff" stroke-width="0.8em" text-anchor="middle"><tspan x="1305" dy="0.355em">Optimal 90%</tspan></text></svg><svg x="0" y="0" font-size="10px" style="overflow:visible"><text transform="" x="1305" y="20" font-size="10px" fill="#62677B" text-anchor="middle"><tspan x="1305" dy="0.355em">Optimal 90%</tspan></text></svg></g></svg>