<?xml version="1.0"?><svg xmlns="http://www.w3.org/2000/svg" xmlns:xlink= "http://www.w3.org/1999/xlink" style="background: white;" width="1500" height="300"> <g style="color: black; font-size: 13px; font-family: sans-serif; transform: translate(18px, 25px);"><g><circle r="3" cx="-6" cy="-5" style="fill: #1AD4B3" /><text>Borrow APR, variable</text></g><g style="transform: translateX(150px);"><circle r="3" cx="-6" cy="-5" style="fill: #101423" /><text>Borrow APR, stable</text></g></g><g class="visx-group" transform="translate(45, 50)"><g class="visx-group visx-rows" transform="translate(0, 0)"><line class="visx-line" x1="0" y1="155" x2="1425" y2="155" fill="transparent" shape-rendering="crispEdges" stroke="#F2F0F9" stroke-width="1" pointer-events="none"></line><line class="visx-line" x1="0" y1="110.71428571428572" x2="1425" y2="110.71428571428572" fill="transparent" shape-rendering="crispEdges" stroke="#F2F0F9" stroke-width="1" pointer-events="none"></line><line class="visx-line" x1="0" y1="66.42857142857143" x2="1425" y2="66.42857142857143" fill="transparent" shape-rendering="crispEdges" stroke="#F2F0F9" stroke-width="1" pointer-events="none"></line><line class="visx-line" x1="0" y1="22.14285714285715" x2="1425" y2="22.14285714285715" fill="transparent" shape-rendering="crispEdges" stroke="#F2F0F9" stroke-width="1" pointer-events="none"></line></g><path class="visx-linepath" d="M0,154.99999999991144C2.375,154.98523809518642,4.75,154.9704761904614,7.125,154.95571428571427C9.5,154.94095238096713,11.875,154.9261904761905,14.25,154.9114285714286C16.625,154.89666666666668,19,154.88190476190476,21.375,154.86714285714285C23.75,154.85238095238094,26.125,154.83761904761906,28.5,154.82285714285715C30.875,154.80809523809523,33.25,154.79333333333335,35.625,154.77857142857144C38,154.76380952380953,40.375,154.74904761904764,42.75,154.73428571428573C45.125,154.71952380952382,47.50000000000001,154.7047619047619,49.87500000000001,154.69C52.25000000000001,154.6752380952381,54.625,154.6604761904762,57,154.6457142857143C59.375,154.63095238095238,61.75,154.6161904761905,64.125,154.60142857142858C66.5,154.58666666666667,68.875,154.57190476190476,71.25,154.55714285714285C73.625,154.54238095238094,76,154.52761904761905,78.375,154.51285714285714C80.75,154.49809523809523,83.125,154.48333333333335,85.5,154.46857142857144C87.875,154.45380952380953,90.25,154.43904761904764,92.625,154.42428571428573C95,154.40952380952382,97.37500000000001,154.3947619047619,99.75000000000001,154.38C102.12500000000001,154.36523809523808,104.5,154.3504761904762,106.875,154.3357142857143C109.25,154.32095238095238,111.625,154.3061904761905,114,154.29142857142858C116.375,154.27666666666667,118.75000000000001,154.26190476190476,121.12500000000001,154.24714285714285C123.50000000000001,154.23238095238094,125.875,154.21761904761905,128.25,154.20285714285714C130.625,154.18809523809523,133,154.17333333333335,135.375,154.15857142857143C137.75,154.14380952380952,140.125,154.12904761904764,142.5,154.11428571428573C144.875,154.09952380952382,147.25,154.0847619047619,149.625,154.07C152,154.05523809523808,154.375,154.0404761904762,156.75,154.0257142857143C159.125,154.01095238095238,161.5,153.9961904761905,163.875,153.98142857142858C166.25,153.96666666666667,168.625,153.95190476190476,171,153.93714285714285C173.375,153.92238095238093,175.75,153.90761904761905,178.125,153.89285714285714C180.5,153.87809523809523,182.875,153.86333333333334,185.25,153.84857142857143C187.625,153.83380952380952,190,153.81904761904764,192.375,153.80428571428573C194.75,153.7895238095238,197.12500000000003,153.7747619047619,199.50000000000003,153.76C201.875,153.74523809523808,204.25,153.7304761904762,206.62499999999997,153.71571428571428C208.99999999999997,153.70095238095237,211.375,153.6861904761905,213.75,153.67142857142858C216.125,153.65666666666667,218.5,153.64190476190475,220.875,153.62714285714284C223.25,153.61238095238093,225.625,153.59761904761905,228,153.58285714285714C230.375,153.56809523809522,232.75,153.55333333333334,235.125,153.53857142857143C237.5,153.52380952380952,239.87500000000003,153.50904761904764,242.25000000000003,153.49428571428572C244.625,153.4795238095238,247,153.4647619047619,249.37499999999997,153.45C251.74999999999997,153.43523809523808,254.125,153.4204761904762,256.5,153.40571428571428C258.875,153.39095238095237,261.25,153.3761904761905,263.625,153.36142857142858C266,153.34666666666666,268.375,153.33190476190475,270.75,153.31714285714284C273.125,153.30238095238093,275.5,153.28761904761905,277.875,153.27285714285713C280.25,153.25809523809522,282.625,153.24333333333334,285,153.22857142857143C287.375,153.21380952380952,289.75,153.19904761904763,292.125,153.18428571428572C294.5,153.1695238095238,296.875,153.1547619047619,299.25,153.14C301.625,153.12523809523807,304,153.1104761904762,306.375,153.09571428571428C308.75,153.08095238095237,311.125,153.06619047619049,313.5,153.05142857142857C315.875,153.03666666666666,318.25,153.02190476190475,320.625,153.00714285714284C323,152.99238095238093,325.375,152.97761904761904,327.75,152.96285714285713C330.125,152.94809523809522,332.5,152.93333333333334,334.875,152.91857142857143C337.25,152.9038095238095,339.625,152.88904761904763,342,152.87428571428572C344.375,152.8595238095238,346.75,152.8447619047619,349.125,152.82999999999998C351.5,152.81523809523807,353.875,152.80047619047622,356.25,152.7857142857143C358.625,152.7709523809524,361,152.75619047619048,363.375,152.74142857142857C365.75,152.72666666666666,368.125,152.71190476190475,370.5,152.69714285714284C372.875,152.68238095238092,375.25,152.66761904761907,377.625,152.65285714285716C380,152.63809523809525,382.375,152.62333333333333,384.75,152.60857142857142C387.125,152.5938095238095,389.50000000000006,152.57904761904763,391.87500000000006,152.56428571428572C394.25000000000006,152.5495238095238,396.62500000000006,152.53476190476192,399.00000000000006,152.52C401.375,152.5052380952381,403.75,152.49047619047622,406.12499999999994,152.4757142857143C408.49999999999994,152.4609523809524,410.87499999999994,152.44619047619048,413.24999999999994,152.43142857142857C415.62499999999994,152.41666666666666,418,152.40190476190477,420.375,152.38714285714286C422.75,152.37238095238095,425.125,152.35761904761907,427.5,152.34285714285716C429.875,152.32809523809524,432.25,152.31333333333333,434.625,152.29857142857142C437,152.2838095238095,439.375,152.26904761904763,441.75,152.25428571428571C444.125,152.2395238095238,446.5,152.22476190476192,448.875,152.21C451.25,152.1952380952381,453.625,152.1804761904762,456,152.1657142857143C458.375,152.1509523809524,460.75,152.13619047619048,463.125,152.12142857142857C465.5,152.10666666666665,467.875,152.09190476190477,470.25,152.07714285714286C472.625,152.06238095238095,475.00000000000006,152.04761904761907,477.37500000000006,152.03285714285715C479.75000000000006,152.01809523809524,482.12500000000006,152.00333333333333,484.50000000000006,151.98857142857142C486.875,151.9738095238095,489.25,151.95904761904762,491.62499999999994,151.9442857142857C493.99999999999994,151.9295238095238,496.37499999999994,151.91476190476192,498.74999999999994,151.9C501.12499999999994,151.8852380952381,503.5,151.8704761904762,505.875,151.8557142857143C508.25,151.8409523809524,510.625,151.82619047619048,513,151.81142857142856C515.375,151.79666666666665,517.75,151.78190476190477,520.125,151.76714285714286C522.5,151.75238095238095,524.875,151.73761904761906,527.25,151.72285714285715C529.625,151.70809523809524,532,151.69333333333333,534.375,151.67857142857142C536.75,151.6638095238095,539.125,151.64904761904762,541.5,151.6342857142857C543.875,151.6195238095238,546.25,151.60476190476192,548.625,151.59C551,151.5752380952381,553.375,151.5604761904762,555.75,151.5457142857143C558.125,151.53095238095239,560.5,151.51619047619047,562.875,151.50142857142856C565.25,151.48666666666665,567.625,151.47190476190477,570,151.45714285714286C572.375,151.44238095238094,574.75,151.42761904761906,577.125,151.41285714285715C579.5,151.39809523809524,581.875,151.38333333333333,584.25,151.3685714285714C586.625,151.3538095238095,589,151.33904761904762,591.375,151.3242857142857C593.75,151.3095238095238,596.125,151.2947619047619,598.5,151.28C600.875,151.2652380952381,603.25,151.2504761904762,605.625,151.2357142857143C608,151.22095238095238,610.375,151.20619047619047,612.75,151.19142857142856C615.125,151.17666666666665,617.5,151.16190476190476,619.875,151.14714285714285C622.25,151.13238095238094,624.625,151.11761904761906,627,151.10285714285715C629.375,151.08809523809524,631.75,151.07333333333332,634.125,151.0585714285714C636.5,151.0438095238095,638.875,151.0438095238095,641.25,151.0142857142857C643.625,150.9847619047619,646,150.2090909090909,648.375,149.8064935064935C650.75,149.4038961038961,653.125,149.0012987012987,655.5,148.59870129870131C657.875,148.19610389610392,660.25,147.7935064935065,662.625,147.3909090909091C665,146.9883116883117,667.375,146.5857142857143,669.75,146.1831168831169C672.125,145.7805194805195,674.5,145.37792207792208,676.875,144.97532467532469C679.25,144.5727272727273,681.625,144.17012987012987,684,143.76753246753248C686.375,143.36493506493508,688.75,142.96233766233766,691.125,142.55974025974027C693.5,142.15714285714287,695.875,141.75454545454545,698.25,141.35194805194806C700.625,140.94935064935066,703,140.54675324675324,705.375,140.14415584415585C707.75,139.74155844155845,710.125,139.33896103896103,712.5,138.93636363636364C714.875,138.53376623376624,717.25,138.13116883116882,719.625,137.72857142857143C722,137.32597402597403,724.375,136.9233766233766,726.75,136.52077922077922C729.125,136.11818181818182,731.5,135.7155844155844,733.875,135.312987012987C736.25,134.91038961038961,738.625,134.5077922077922,741,134.1051948051948C743.375,133.7025974025974,745.75,133.29999999999998,748.125,132.8974025974026C750.5,132.4948051948052,752.875,132.09220779220777,755.25,131.68961038961038C757.625,131.287012987013,760,130.88441558441556,762.375,130.48181818181817C764.75,130.07922077922078,767.125,129.67662337662335,769.5,129.27402597402596C771.875,128.87142857142857,774.2500000000001,128.46883116883114,776.6250000000001,128.06623376623375C779.0000000000001,127.66363636363636,781.3750000000001,127.26103896103896,783.7500000000001,126.85844155844156C786.1250000000001,126.45584415584415,788.5000000000001,126.05324675324675,790.8750000000001,125.65064935064935C793.2500000000001,125.24805194805194,795.6250000000001,124.84545454545454,798.0000000000001,124.44285714285714C800.375,124.04025974025974,802.75,123.63766233766232,805.1249999999999,123.23506493506493C807.4999999999999,122.83246753246752,809.8749999999999,122.42987012987012,812.2499999999999,122.02727272727272C814.6249999999999,121.62467532467531,816.9999999999999,121.2220779220779,819.3749999999999,120.8194805194805C821.7499999999999,120.41688311688311,824.1249999999999,120.01428571428572,826.4999999999999,119.61168831168833C828.8749999999999,119.20909090909092,831.25,118.80649350649351,833.625,118.4038961038961C836,118.00129870129871,838.375,117.59870129870131,840.75,117.1961038961039C843.125,116.7935064935065,845.5,116.39090909090909,847.875,115.98831168831168C850.25,115.58571428571427,852.625,115.1831168831169,855,114.78051948051949C857.375,114.37792207792208,859.75,113.97532467532467,862.125,113.57272727272726C864.5,113.17012987012986,866.875,112.76753246753248,869.25,112.36493506493507C871.625,111.96233766233766,874,111.55974025974024,876.375,111.15714285714284C878.75,110.75454545454545,881.125,110.35194805194806,883.5,109.94935064935066C885.875,109.54675324675327,888.25,109.14415584415586,890.625,108.74155844155845C893,108.33896103896105,895.375,107.93636363636365,897.75,107.53376623376624C900.125,107.13116883116884,902.5,106.72857142857143,904.875,106.32597402597402C907.25,105.92337662337661,909.625,105.52077922077922,912,105.11818181818182C914.375,104.71558441558443,916.75,104.31298701298702,919.125,103.91038961038961C921.5,103.5077922077922,923.875,103.10519480519481,926.25,102.7025974025974C928.625,102.3,931,101.89740259740259,933.375,101.49480519480518C935.75,101.09220779220777,938.125,100.68961038961038,940.5,100.28701298701299C942.875,99.88441558441559,945.25,99.48181818181817,947.625,99.07922077922078C950,98.67662337662337,952.3750000000001,98.27402597402599,954.7500000000001,97.87142857142858C957.1250000000001,97.46883116883117,959.5000000000001,97.06623376623375,961.8750000000001,96.66363636363634C964.2500000000001,96.26103896103893,966.6250000000001,95.85844155844157,969.0000000000001,95.45584415584416C971.3750000000001,95.05324675324675,973.7500000000001,94.65064935064935,976.1250000000001,94.24805194805194C978.5,93.84545454545454,980.875,93.44285714285714,983.2499999999999,93.04025974025974C985.6249999999999,92.63766233766233,987.9999999999999,92.23506493506494,990.3749999999999,91.83246753246753C992.7499999999999,91.42987012987012,995.1249999999999,91.02727272727273,997.4999999999999,90.62467532467532C999.8749999999999,90.22207792207791,1002.2499999999999,89.8194805194805,1004.6249999999999,89.41688311688311C1006.9999999999999,89.0142857142857,1009.375,88.61168831168831,1011.75,88.2090909090909C1014.125,87.80649350649351,1016.5,87.40389610389613,1018.875,87.00129870129872C1021.25,86.59870129870131,1023.625,86.1961038961039,1026,85.7935064935065C1028.375,85.39090909090909,1030.75,84.9883116883117,1033.125,84.58571428571429C1035.5,84.18311688311688,1037.875,83.78051948051947,1040.25,83.37792207792208C1042.625,82.97532467532469,1045,82.57272727272729,1047.375,82.17012987012988C1049.75,81.76753246753248,1052.125,81.36493506493507,1054.5,80.96233766233766C1056.875,80.55974025974025,1059.25,80.15714285714286,1061.625,79.75454545454545C1064,79.35194805194804,1066.375,78.94935064935065,1068.75,78.54675324675324C1071.125,78.14415584415583,1073.5,77.74155844155844,1075.875,77.33896103896103C1078.25,76.93636363636362,1080.625,76.53376623376622,1083,76.13116883116882C1085.375,75.72857142857143,1087.75,75.32597402597402,1090.125,74.92337662337663C1092.5,74.52077922077923,1094.875,74.11818181818184,1097.25,73.71558441558443C1099.625,73.31298701298702,1102,72.91038961038961,1104.375,72.5077922077922C1106.75,72.1051948051948,1109.125,71.7025974025974,1111.5,71.3C1113.875,70.89740259740259,1116.25,70.49480519480521,1118.625,70.0922077922078C1121,69.6896103896104,1123.375,69.28701298701299,1125.75,68.88441558441558C1128.125,68.48181818181817,1130.5,68.07922077922078,1132.875,67.67662337662337C1135.25,67.27402597402596,1137.625,66.87142857142855,1140,66.46883116883116C1142.375,66.06623376623376,1144.75,65.66363636363639,1147.125,65.26103896103898C1149.5,64.85844155844157,1151.875,64.45584415584415,1154.25,64.05324675324674C1156.625,63.65064935064933,1159,63.24805194805194,1161.375,62.84545454545454C1163.75,62.442857142857136,1166.125,62.04025974025973,1168.5,61.63766233766233C1170.875,61.235064935064926,1173.25,60.83246753246754,1175.625,60.42987012987014C1178,60.02727272727274,1180.375,59.62467532467533,1182.75,59.22207792207793C1185.125,58.81948051948053,1187.5,58.41688311688312,1189.875,58.01428571428572C1192.25,57.61168831168832,1194.625,57.20909090909092,1197,56.80649350649351C1199.375,56.4038961038961,1201.75,56.00129870129869,1204.125,55.598701298701286C1206.5,55.196103896103885,1208.875,54.7935064935065,1211.25,54.3909090909091C1213.625,53.9883116883117,1216,53.585714285714275,1218.375,53.183116883116874C1220.75,52.78051948051947,1223.125,52.37792207792208,1225.5,51.97532467532468C1227.875,51.57272727272728,1230.25,51.17012987012988,1232.625,50.767532467532476C1235,50.364935064935075,1237.375,49.96233766233767,1239.75,49.559740259740266C1242.125,49.157142857142865,1244.5,48.754545454545465,1246.875,48.35194805194806C1249.25,47.94935064935065,1251.625,47.546753246753234,1254,47.14415584415583C1256.375,46.74155844155843,1258.75,46.33896103896104,1261.125,45.93636363636364C1263.5,45.53376623376624,1265.875,45.131168831168814,1268.25,44.72857142857141C1270.625,44.32597402597401,1273,43.923376623376626,1275.375,43.520779220779225C1277.75,43.118181818181824,1280.125,42.715584415584416,1282.5,42.312987012987016C1284.875,41.910389610389615,1287.25,41.507792207792214,1289.625,41.105194805194806C1292,40.7025974025974,1294.375,40.29999999999998,1296.75,39.89740259740258C1299.125,39.49480519480518,1301.5,39.092207792207795,1303.875,38.689610389610394C1306.25,38.28701298701299,1308.625,37.88441558441559,1311,37.481818181818184C1313.375,37.079220779220776,1315.75,36.67662337662336,1318.125,36.27402597402596C1320.5,35.87142857142856,1322.875,35.468831168831166,1325.25,35.066233766233765C1327.625,34.663636363636364,1330,34.261038961038956,1332.375,33.858441558441555C1334.75,33.455844155844154,1337.125,33.05324675324677,1339.5,32.65064935064937C1341.875,32.248051948051966,1344.25,31.845454545454547,1346.625,31.442857142857143C1349,31.04025974025974,1351.375,30.63766233766234,1353.75,30.235064935064933C1356.125,29.832467532467525,1358.5,29.42987012987011,1360.875,29.027272727272706C1363.25,28.6246753246753,1365.625,28.222077922077915,1368,27.819480519480518C1370.375,27.41688311688312,1372.75,27.014285714285727,1375.125,26.611688311688326C1377.5,26.209090909090925,1379.875,25.806493506493506,1382.25,25.403896103896102C1384.625,25.001298701298698,1387,24.598701298701297,1389.375,24.196103896103892C1391.75,23.793506493506488,1394.125,23.39090909090907,1396.5,22.98831168831167C1398.875,22.585714285714268,1401.25,22.183116883116877,1403.625,21.780519480519477C1406,21.377922077922076,1408.375,20.975324675324668,1410.75,20.572727272727267C1413.125,20.170129870129866,1415.5,19.767532467532476,1417.875,19.364935064935075C1420.25,18.962337662337674,1422.625,18.559740259740263,1425,18.15714285714285" fill="transparent" stroke-linecap="round" stroke="#1AD4B3" stroke-width="2"></path><g class="visx-group visx-axis visx-axis-bottom" transform="translate(0, 155)"><g class="visx-group visx-axis-tick" transform="translate(0, 0)"><line class="visx-line" x1="0" y1="0" x2="0" y2="8" fill="transparent" shape-rendering="crispEdges" stroke="#F2F0F9" stroke-width="1" stroke-linecap="square"></line><svg x="0" y="0" font-size="11" style="overflow:visible"><text transform="" x="0" y="19" fill="#1B2030" font-size="11" text-anchor="middle"><tspan x="0" dy="0em">0%</tspan></text></svg></g><g class="visx-group visx-axis-tick" transform="translate(0, 0)"><line class="visx-line" x1="356.25" y1="0" x2="356.25" y2="8" fill="transparent" shape-rendering="crispEdges" stroke="#F2F0F9" stroke-width="1" stroke-linecap="square"></line><svg x="0" y="0" font-size="11" style="overflow:visible"><text transform="" x="356.25" y="19" fill="#1B2030" font-size="11" text-anchor="middle"><tspan x="356.25" dy="0em">25%</tspan></text></svg></g><g class="visx-group visx-axis-tick" transform="translate(0, 0)"><line class="visx-line" x1="712.5" y1="0" x2="712.5" y2="8" fill="transparent" shape-rendering="crispEdges" stroke="#F2F0F9" stroke-width="1" stroke-linecap="square"></line><svg x="0" y="0" font-size="11" style="overflow:visible"><text transform="" x="712.5" y="19" fill="#1B2030" font-size="11" text-anchor="middle"><tspan x="712.5" dy="0em">50%</tspan></text></svg></g><g class="visx-group visx-axis-tick" transform="translate(0, 0)"><line class="visx-line" x1="1068.75" y1="0" x2="1068.75" y2="8" fill="transparent" shape-rendering="crispEdges" stroke="#F2F0F9" stroke-width="1" stroke-linecap="square"></line><svg x="0" y="0" font-size="11" style="overflow:visible"><text transform="" x="1068.75" y="19" fill="#1B2030" font-size="11" text-anchor="middle"><tspan x="1068.75" dy="0em">75%</tspan></text></svg></g><g class="visx-group visx-axis-tick" transform="translate(0, 0)"><line class="visx-line" x1="1425" y1="0" x2="1425" y2="8" fill="transparent" shape-rendering="crispEdges" stroke="#F2F0F9" stroke-width="1" stroke-linecap="square"></line><svg x="0" y="0" font-size="11" style="overflow:visible"><text transform="" x="1425" y="19" fill="#1B2030" font-size="11" text-anchor="middle"><tspan x="1425" dy="0em">100%</tspan></text></svg></g></g><g class="visx-group visx-axis visx-axis-left" transform="translate(0, 0)"><g class="visx-group visx-axis-tick" transform="translate(0, 0)"><line class="visx-line" x1="0" y1="155" x2="-8" y2="155" fill="transparent" shape-rendering="crispEdges" stroke="#F2F0F9" stroke-width="1" stroke-linecap="square"></line><svg x="-30" y="0" font-size="11" style="overflow:visible"><text transform="" x="-8" y="155" fill="#1B2030" font-size="11" text-anchor="start"><tspan x="-8" dy="0em">0%</tspan></text></svg></g><g class="visx-group visx-axis-tick" transform="translate(0, 0)"><line class="visx-line" x1="0" y1="110.71428571428572" x2="-8" y2="110.71428571428572" fill="transparent" shape-rendering="crispEdges" stroke="#F2F0F9" stroke-width="1" stroke-linecap="square"></line><svg x="-30" y="0" font-size="11" style="overflow:visible"><text transform="" x="-8" y="110.71428571428572" fill="#1B2030" font-size="11" text-anchor="start"><tspan x="-8" dy="0em">100%</tspan></text></svg></g><g class="visx-group visx-axis-tick" transform="translate(0, 0)"><line class="visx-line" x1="0" y1="66.42857142857143" x2="-8" y2="66.42857142857143" fill="transparent" shape-rendering="crispEdges" stroke="#F2F0F9" stroke-width="1" stroke-linecap="square"></line><svg x="-30" y="0" font-size="11" style="overflow:visible"><text transform="" x="-8" y="66.42857142857143" fill="#1B2030" font-size="11" text-anchor="start"><tspan x="-8" dy="0em">200%</tspan></text></svg></g><g class="visx-group visx-axis-tick" transform="translate(0, 0)"><line class="visx-line" x1="0" y1="22.14285714285715" x2="-8" y2="22.14285714285715" fill="transparent" shape-rendering="crispEdges" stroke="#F2F0F9" stroke-width="1" stroke-linecap="square"></line><svg x="-30" y="0" font-size="11" style="overflow:visible"><text transform="" x="-8" y="22.14285714285715" fill="#1B2030" font-size="11" text-anchor="start"><tspan x="-8" dy="0em">300%</tspan></text></svg></g><line class="visx-line visx-axis-line" x1="0" y1="155.5" x2="0" y2="0.5" fill="transparent" shape-rendering="crispEdges" stroke="#F2F0F9" stroke-width="1"></line></g><rect class="visx-bar" width="1425" height="155" fill="transparent"></rect><line class="visx-line" x1="641.25" y1="58" x2="641.25" y2="155" fill="transparent" shape-rendering="crispEdges" stroke="#CDC8E1" stroke-width="1" pointer-events="none" stroke-dasharray="5"></line><svg x="0" y="0" font-size="11px" style="overflow:visible"><text transform="" x="641.25" y="50" font-size="11px" fill="#555069" stroke="#FFFFFF" stroke-width="1px" text-anchor="middle"><tspan x="641.25" dy="0.355em">Optimal utilization 45%</tspan></text></svg><svg x="0" y="0" font-size="11px" style="overflow:visible"><text transform="" x="641.25" y="50" font-size="11px" fill="#CDC8E1" text-anchor="middle"><tspan x="641.25" dy="0.355em">Optimal utilization 45%</tspan></text></svg></g></svg>