<?xml version="1.0"?><svg xmlns="http://www.w3.org/2000/svg" xmlns:xlink= "http://www.w3.org/1999/xlink" style="background: white;" width="1500" height="300"> <g style="color: black; font-size: 13px; font-family: sans-serif; transform: translate(18px, 25px);"><g><circle r="3" cx="-6" cy="-5" style="fill: #1AD4B3" /><text>Borrow APR, variable</text></g><g style="transform: translateX(150px);"><circle r="3" cx="-6" cy="-5" style="fill: #101423" /><text>Borrow APR, stable</text></g></g><g class="visx-group" transform="translate(45, 50)"><g class="visx-group visx-rows" transform="translate(0, 0)"><line class="visx-line" x1="0" y1="155" x2="1425" y2="155" fill="transparent" shape-rendering="crispEdges" stroke="#F2F0F9" stroke-width="1" pointer-events="none"></line><line class="visx-line" x1="0" y1="110.71428571428572" x2="1425" y2="110.71428571428572" fill="transparent" shape-rendering="crispEdges" stroke="#F2F0F9" stroke-width="1" pointer-events="none"></line><line class="visx-line" x1="0" y1="66.42857142857143" x2="1425" y2="66.42857142857143" fill="transparent" shape-rendering="crispEdges" stroke="#F2F0F9" stroke-width="1" pointer-events="none"></line><line class="visx-line" x1="0" y1="22.14285714285715" x2="1425" y2="22.14285714285715" fill="transparent" shape-rendering="crispEdges" stroke="#F2F0F9" stroke-width="1" pointer-events="none"></line></g><path class="visx-linepath" d="M0,154.9999999998819C2.375,154.98031746024859,4.75,154.96063492061523,7.125,154.94095238095238C9.5,154.92126984128953,11.875,154.9015873015873,14.25,154.88190476190476C16.625,154.86222222222221,19,154.8425396825397,21.375,154.82285714285715C23.75,154.8031746031746,26.125,154.78349206349208,28.5,154.76380952380953C30.875,154.74412698412698,33.25,154.72444444444446,35.625,154.7047619047619C38,154.68507936507936,40.375,154.66539682539684,42.75,154.6457142857143C45.125,154.62603174603174,47.50000000000001,154.60634920634922,49.87500000000001,154.58666666666667C52.25000000000001,154.56698412698412,54.625,154.5473015873016,57,154.52761904761905C59.375,154.5079365079365,61.75,154.48825396825399,64.125,154.46857142857144C66.5,154.4488888888889,68.875,154.42920634920637,71.25,154.40952380952382C73.625,154.38984126984127,76,154.37015873015875,78.375,154.3504761904762C80.75,154.33079365079365,83.125,154.31111111111113,85.5,154.29142857142858C87.875,154.27174603174603,90.25,154.2520634920635,92.625,154.23238095238096C95,154.21269841269842,97.37500000000001,154.1930158730159,99.75000000000001,154.17333333333335C102.12500000000001,154.1536507936508,104.5,154.13396825396828,106.875,154.11428571428573C109.25,154.09460317460318,111.625,154.07492063492066,114,154.0552380952381C116.375,154.03555555555556,118.75000000000001,154.015873015873,121.12500000000001,153.99619047619046C123.50000000000001,153.97650793650791,125.875,153.9568253968254,128.25,153.93714285714285C130.625,153.9174603174603,133,153.89777777777778,135.375,153.87809523809523C137.75,153.85841269841268,140.125,153.83873015873016,142.5,153.8190476190476C144.875,153.79936507936506,147.25,153.77968253968254,149.625,153.76C152,153.74031746031744,154.375,153.72063492063492,156.75,153.70095238095237C159.125,153.68126984126982,161.5,153.6615873015873,163.875,153.64190476190475C166.25,153.6222222222222,168.625,153.60253968253969,171,153.58285714285714C173.375,153.5631746031746,175.75,153.54349206349207,178.125,153.52380952380952C180.5,153.50412698412697,182.875,153.48444444444445,185.25,153.4647619047619C187.625,153.44507936507935,190,153.42539682539683,192.375,153.40571428571428C194.75,153.38603174603173,197.12500000000003,153.3663492063492,199.50000000000003,153.34666666666666C201.875,153.32698412698412,204.25,153.3073015873016,206.62499999999997,153.28761904761905C208.99999999999997,153.2679365079365,211.375,153.24825396825398,213.75,153.22857142857143C216.125,153.20888888888888,218.5,153.18920634920636,220.875,153.1695238095238C223.25,153.14984126984126,225.625,153.13015873015874,228,153.1104761904762C230.375,153.09079365079364,232.75,153.07111111111112,235.125,153.05142857142857C237.5,153.03174603174602,239.87500000000003,153.0120634920635,242.25000000000003,152.99238095238096C244.625,152.9726984126984,247,152.9530158730159,249.37499999999997,152.93333333333334C251.74999999999997,152.9136507936508,254.125,152.89396825396827,256.5,152.87428571428572C258.875,152.85460317460317,261.25,152.83492063492065,263.625,152.8152380952381C266,152.79555555555555,268.375,152.775873015873,270.75,152.75619047619045C273.125,152.7365079365079,275.5,152.71682539682536,277.875,152.69714285714284C280.25,152.67746031746032,282.625,152.65777777777777,285,152.63809523809525C287.375,152.61841269841273,289.75,152.59873015873018,292.125,152.57904761904763C294.5,152.55936507936508,296.875,152.53968253968256,299.25,152.52C301.625,152.50031746031746,304,152.48063492063494,306.375,152.4609523809524C308.75,152.44126984126984,311.125,152.42158730158732,313.5,152.40190476190477C315.875,152.38222222222223,318.25,152.3625396825397,320.625,152.34285714285716C323,152.3231746031746,325.375,152.3034920634921,327.75,152.28380952380954C330.125,152.264126984127,332.5,152.24444444444447,334.875,152.22476190476192C337.25,152.20507936507937,339.625,152.18539682539685,342,152.1657142857143C344.375,152.14603174603175,346.75,152.12634920634923,349.125,152.10666666666668C351.5,152.08698412698413,353.875,152.06730158730159,356.25,152.04761904761904C358.625,152.0279365079365,361,152.00825396825397,363.375,151.98857142857142C365.75,151.96888888888887,368.125,151.94920634920635,370.5,151.9295238095238C372.875,151.90984126984125,375.25,151.89015873015873,377.625,151.87047619047618C380,151.85079365079363,382.375,151.8311111111111,384.75,151.81142857142856C387.125,151.79174603174602,389.50000000000006,151.7720634920635,391.87500000000006,151.75238095238095C394.25000000000006,151.7326984126984,396.62500000000006,151.71301587301588,399.00000000000006,151.69333333333333C401.375,151.67365079365078,403.75,151.65396825396826,406.12499999999994,151.6342857142857C408.49999999999994,151.61460317460316,410.87499999999994,151.59492063492064,413.24999999999994,151.5752380952381C415.62499999999994,151.55555555555554,418,151.53587301587302,420.375,151.51619047619047C422.75,151.49650793650792,425.125,151.4768253968254,427.5,151.45714285714286C429.875,151.4374603174603,432.25,151.4177777777778,434.625,151.39809523809524C437,151.3784126984127,439.375,151.35873015873017,441.75,151.33904761904762C444.125,151.31936507936507,446.5,151.29968253968255,448.875,151.28C451.25,151.26031746031745,453.625,151.24063492063493,456,151.22095238095238C458.375,151.20126984126983,460.75,151.1815873015873,463.125,151.16190476190476C465.5,151.14222222222222,467.875,151.1225396825397,470.25,151.10285714285715C472.625,151.0831746031746,475.00000000000006,151.06349206349208,477.37500000000006,151.04380952380953C479.75000000000006,151.02412698412698,482.12500000000006,151.00444444444446,484.50000000000006,150.9847619047619C486.875,150.96507936507936,489.25,150.94539682539684,491.62499999999994,150.9257142857143C493.99999999999994,150.90603174603174,496.37499999999994,150.88634920634922,498.74999999999994,150.86666666666667C501.12499999999994,150.84698412698413,503.5,150.82730158730158,505.875,150.80761904761903C508.25,150.78793650793648,510.625,150.76825396825396,513,150.7485714285714C515.375,150.72888888888886,517.75,150.70920634920634,520.125,150.6895238095238C522.5,150.66984126984124,524.875,150.6501587301587,527.25,150.63047619047617C529.625,150.61079365079365,532,150.5911111111111,534.375,150.57142857142858C536.75,150.55174603174606,539.125,150.53206349206351,541.5,150.51238095238097C543.875,150.49269841269842,546.25,150.4730158730159,548.625,150.45333333333335C551,150.4336507936508,553.375,150.41396825396828,555.75,150.39428571428573C558.125,150.37460317460318,560.5,150.35492063492066,562.875,150.3352380952381C565.25,150.31555555555556,567.625,150.29587301587304,570,150.2761904761905C572.375,150.25650793650794,574.75,150.2368253968254,577.125,150.21714285714285C579.5,150.1974603174603,581.875,150.17777777777778,584.25,150.15809523809523C586.625,150.13841269841268,589,150.11873015873016,591.375,150.0990476190476C593.75,150.07936507936506,596.125,150.05968253968254,598.5,150.04C600.875,150.02031746031744,603.25,150.00063492063492,605.625,149.98095238095237C608,149.96126984126983,610.375,149.9415873015873,612.75,149.92190476190476C615.125,149.9022222222222,617.5,149.8825396825397,619.875,149.86285714285714C622.25,149.8431746031746,624.625,149.82349206349207,627,149.80380952380952C629.375,149.78412698412697,631.75,149.76444444444445,634.125,149.7447619047619C636.5,149.72507936507935,638.875,149.72507936507935,641.25,149.68571428571428C643.625,149.6463492063492,646,148.88051948051947,648.375,148.47792207792207C650.75,148.07532467532468,653.125,147.67272727272726,655.5,147.27012987012986C657.875,146.86753246753247,660.25,146.46493506493505,662.625,146.06233766233765C665,145.65974025974026,667.375,145.25714285714284,669.75,144.85454545454544C672.125,144.45194805194805,674.5,144.04935064935066,676.875,143.64675324675326C679.25,143.24415584415587,681.625,142.84155844155845,684,142.43896103896105C686.375,142.03636363636366,688.75,141.63376623376624,691.125,141.23116883116884C693.5,140.82857142857145,695.875,140.42597402597403,698.25,140.02337662337663C700.625,139.62077922077924,703,139.21818181818182,705.375,138.81558441558442C707.75,138.41298701298703,710.125,138.0103896103896,712.5,137.60779220779222C714.875,137.20519480519482,717.25,136.8025974025974,719.625,136.4C722,135.9974025974026,724.375,135.5948051948052,726.75,135.1922077922078C729.125,134.7896103896104,731.5,134.38701298701298,733.875,133.9844155844156C736.25,133.5818181818182,738.625,133.17922077922077,741,132.77662337662338C743.375,132.37402597402598,745.75,131.97142857142856,748.125,131.56883116883117C750.5,131.16623376623377,752.875,130.76363636363635,755.25,130.36103896103896C757.625,129.95844155844156,760,129.55584415584414,762.375,129.15324675324675C764.75,128.75064935064935,767.125,128.34805194805193,769.5,127.94545454545454C771.875,127.54285714285713,774.2500000000001,127.14025974025974,776.6250000000001,126.73766233766233C779.0000000000001,126.33506493506493,781.3750000000001,125.93246753246754,783.7500000000001,125.52987012987013C786.1250000000001,125.12727272727273,788.5000000000001,124.72467532467533,790.8750000000001,124.32207792207792C793.2500000000001,123.91948051948052,795.6250000000001,123.51688311688312,798.0000000000001,123.11428571428571C800.375,122.71168831168832,802.75,122.3090909090909,805.1249999999999,121.9064935064935C807.4999999999999,121.5038961038961,809.8749999999999,121.1012987012987,812.2499999999999,120.6987012987013C814.6249999999999,120.29610389610389,816.9999999999999,119.89350649350651,819.3749999999999,119.4909090909091C821.7499999999999,119.08831168831169,824.1249999999999,118.68571428571427,826.4999999999999,118.28311688311688C828.8749999999999,117.88051948051947,831.25,117.47792207792209,833.625,117.07532467532468C836,116.67272727272729,838.375,116.27012987012986,840.75,115.86753246753246C843.125,115.46493506493505,845.5,115.06233766233768,847.875,114.65974025974027C850.25,114.25714285714287,852.625,113.85454545454546,855,113.45194805194805C857.375,113.04935064935064,859.75,112.64675324675326,862.125,112.24415584415586C864.5,111.84155844155845,866.875,111.43896103896104,869.25,111.03636363636363C871.625,110.63376623376622,874,110.23116883116884,876.375,109.82857142857144C878.75,109.42597402597403,881.125,109.02337662337662,883.5,108.62077922077921C885.875,108.2181818181818,888.25,107.81558441558442,890.625,107.41298701298702C893,107.01038961038961,895.375,106.60779220779219,897.75,106.2051948051948C900.125,105.8025974025974,902.5,105.4,904.875,104.99740259740261C907.25,104.59480519480522,909.625,104.19220779220781,912,103.7896103896104C914.375,103.387012987013,916.75,102.9844155844156,919.125,102.58181818181819C921.5,102.17922077922078,923.875,101.77662337662338,926.25,101.37402597402597C928.625,100.97142857142856,931,100.56883116883117,933.375,100.16623376623377C935.75,99.76363636363638,938.125,99.36103896103897,940.5,98.95844155844156C942.875,98.55584415584416,945.25,98.15324675324676,947.625,97.75064935064935C950,97.34805194805195,952.3750000000001,96.94545454545454,954.7500000000001,96.54285714285713C957.1250000000001,96.14025974025974,959.5000000000001,95.73766233766233,961.8750000000001,95.33506493506493C964.2500000000001,94.93246753246754,966.6250000000001,94.52987012987012,969.0000000000001,94.12727272727273C971.3750000000001,93.72467532467533,973.7500000000001,93.32207792207794,976.1250000000001,92.91948051948053C978.5,92.51688311688314,980.875,92.11428571428571,983.2499999999999,91.71168831168832C985.6249999999999,91.30909090909091,987.9999999999999,90.90649350649352,990.3749999999999,90.50389610389611C992.7499999999999,90.1012987012987,995.1249999999999,89.6987012987013,997.4999999999999,89.29610389610389C999.8749999999999,88.89350649350648,1002.2499999999999,88.49090909090908,1004.6249999999999,88.08831168831169C1006.9999999999999,87.68571428571428,1009.375,87.28311688311689,1011.75,86.88051948051948C1014.125,86.47792207792209,1016.5,86.07532467532468,1018.875,85.67272727272727C1021.25,85.27012987012986,1023.625,84.86753246753247,1026,84.46493506493506C1028.375,84.06233766233765,1030.75,83.65974025974026,1033.125,83.25714285714285C1035.5,82.85454545454544,1037.875,82.45194805194805,1040.25,82.04935064935064C1042.625,81.64675324675324,1045,81.24415584415584,1047.375,80.84155844155845C1049.75,80.43896103896105,1052.125,80.03636363636365,1054.5,79.63376623376624C1056.875,79.23116883116883,1059.25,78.82857142857144,1061.625,78.42597402597403C1064,78.02337662337662,1066.375,77.62077922077923,1068.75,77.21818181818182C1071.125,76.81558441558441,1073.5,76.41298701298702,1075.875,76.01038961038961C1078.25,75.6077922077922,1080.625,75.20519480519481,1083,74.8025974025974C1085.375,74.39999999999999,1087.75,73.9974025974026,1090.125,73.59480519480519C1092.5,73.19220779220778,1094.875,72.78961038961039,1097.25,72.38701298701298C1099.625,71.98441558441557,1102,71.58181818181818,1104.375,71.17922077922077C1106.75,70.77662337662336,1109.125,70.37402597402595,1111.5,69.97142857142856C1113.875,69.56883116883117,1116.25,69.16623376623377,1118.625,68.76363636363637C1121,68.36103896103896,1123.375,67.95844155844156,1125.75,67.55584415584416C1128.125,67.15324675324675,1130.5,66.75064935064935,1132.875,66.34805194805195C1135.25,65.94545454545454,1137.625,65.54285714285714,1140,65.14025974025974C1142.375,64.73766233766233,1144.75,64.33506493506493,1147.125,63.93246753246754C1149.5,63.52987012987014,1151.875,63.12727272727275,1154.25,62.72467532467534C1156.625,62.32207792207793,1159,61.91948051948051,1161.375,61.51688311688311C1163.75,61.11428571428571,1166.125,60.71168831168832,1168.5,60.30909090909092C1170.875,59.90649350649352,1173.25,59.5038961038961,1175.625,59.101298701298695C1178,58.69870129870129,1180.375,58.29610389610389,1182.75,57.893506493506486C1185.125,57.490909090909085,1187.5,57.08831168831168,1189.875,56.685714285714276C1192.25,56.283116883116875,1194.625,55.88051948051949,1197,55.47792207792209C1199.375,55.07532467532469,1201.75,54.672727272727286,1204.125,54.27012987012988C1206.5,53.86753246753247,1208.875,53.464935064935055,1211.25,53.062337662337654C1213.625,52.65974025974025,1216,52.25714285714286,1218.375,51.85454545454546C1220.75,51.45194805194806,1223.125,51.04935064935064,1225.5,50.646753246753235C1227.875,50.24415584415583,1230.25,49.841558441558426,1232.625,49.438961038961025C1235,49.036363636363625,1237.375,48.633766233766224,1239.75,48.23116883116882C1242.125,47.82857142857142,1244.5,47.42597402597403,1246.875,47.02337662337663C1249.25,46.62077922077923,1251.625,46.21818181818182,1254,45.81558441558442C1256.375,45.41298701298702,1258.75,45.010389610389616,1261.125,44.607792207792215C1263.5,44.205194805194814,1265.875,43.802597402597414,1268.25,43.400000000000006C1270.625,42.9974025974026,1273,42.59480519480519,1275.375,42.19220779220778C1277.75,41.789610389610374,1280.125,41.38701298701297,1282.5,40.98441558441557C1284.875,40.58181818181817,1287.25,40.17922077922077,1289.625,39.77662337662338C1292,39.37402597402598,1294.375,38.97142857142859,1296.75,38.56883116883119C1299.125,38.16623376623379,1301.5,37.76363636363637,1303.875,37.361038961038965C1306.25,36.95844155844156,1308.625,36.55584415584416,1311,36.153246753246755C1313.375,35.75064935064935,1315.75,35.34805194805193,1318.125,34.94545454545453C1320.5,34.54285714285713,1322.875,34.14025974025974,1325.25,33.737662337662336C1327.625,33.335064935064935,1330,32.93246753246754,1332.375,32.52987012987013C1334.75,32.127272727272725,1337.125,31.72467532467531,1339.5,31.322077922077906C1341.875,30.9194805194805,1344.25,30.51688311688311,1346.625,30.114285714285714C1349,29.711688311688317,1351.375,29.309090909090926,1353.75,28.906493506493522C1356.125,28.503896103896118,1358.5,28.101298701298703,1360.875,27.698701298701298C1363.25,27.296103896103894,1365.625,26.893506493506493,1368,26.49090909090909C1370.375,26.088311688311684,1372.75,25.68571428571427,1375.125,25.283116883116865C1377.5,24.88051948051946,1379.875,24.47792207792207,1382.25,24.075324675324673C1384.625,23.672727272727276,1387,23.27012987012988,1389.375,22.86753246753248C1391.75,22.46493506493508,1394.125,22.06233766233768,1396.5,21.659740259740275C1398.875,21.25714285714287,1401.25,20.854545454545452,1403.625,20.451948051948047C1406,20.049350649350643,1408.375,19.646753246753242,1410.75,19.24415584415584C1413.125,18.84155844155844,1415.5,18.438961038961054,1417.875,18.03636363636365C1420.25,17.633766233766245,1422.625,17.231168831168834,1425,16.828571428571422" fill="transparent" stroke-linecap="round" stroke="#1AD4B3" stroke-width="2"></path><g class="visx-group visx-axis visx-axis-bottom" transform="translate(0, 155)"><g class="visx-group visx-axis-tick" transform="translate(0, 0)"><line class="visx-line" x1="0" y1="0" x2="0" y2="8" fill="transparent" shape-rendering="crispEdges" stroke="#F2F0F9" stroke-width="1" stroke-linecap="square"></line><svg x="0" y="0" font-size="11" style="overflow:visible"><text transform="" x="0" y="19" fill="#1B2030" font-size="11" text-anchor="middle"><tspan x="0" dy="0em">0%</tspan></text></svg></g><g class="visx-group visx-axis-tick" transform="translate(0, 0)"><line class="visx-line" x1="356.25" y1="0" x2="356.25" y2="8" fill="transparent" shape-rendering="crispEdges" stroke="#F2F0F9" stroke-width="1" stroke-linecap="square"></line><svg x="0" y="0" font-size="11" style="overflow:visible"><text transform="" x="356.25" y="19" fill="#1B2030" font-size="11" text-anchor="middle"><tspan x="356.25" dy="0em">25%</tspan></text></svg></g><g class="visx-group visx-axis-tick" transform="translate(0, 0)"><line class="visx-line" x1="712.5" y1="0" x2="712.5" y2="8" fill="transparent" shape-rendering="crispEdges" stroke="#F2F0F9" stroke-width="1" stroke-linecap="square"></line><svg x="0" y="0" font-size="11" style="overflow:visible"><text transform="" x="712.5" y="19" fill="#1B2030" font-size="11" text-anchor="middle"><tspan x="712.5" dy="0em">50%</tspan></text></svg></g><g class="visx-group visx-axis-tick" transform="translate(0, 0)"><line class="visx-line" x1="1068.75" y1="0" x2="1068.75" y2="8" fill="transparent" shape-rendering="crispEdges" stroke="#F2F0F9" stroke-width="1" stroke-linecap="square"></line><svg x="0" y="0" font-size="11" style="overflow:visible"><text transform="" x="1068.75" y="19" fill="#1B2030" font-size="11" text-anchor="middle"><tspan x="1068.75" dy="0em">75%</tspan></text></svg></g><g class="visx-group visx-axis-tick" transform="translate(0, 0)"><line class="visx-line" x1="1425" y1="0" x2="1425" y2="8" fill="transparent" shape-rendering="crispEdges" stroke="#F2F0F9" stroke-width="1" stroke-linecap="square"></line><svg x="0" y="0" font-size="11" style="overflow:visible"><text transform="" x="1425" y="19" fill="#1B2030" font-size="11" text-anchor="middle"><tspan x="1425" dy="0em">100%</tspan></text></svg></g></g><g class="visx-group visx-axis visx-axis-left" transform="translate(0, 0)"><g class="visx-group visx-axis-tick" transform="translate(0, 0)"><line class="visx-line" x1="0" y1="155" x2="-8" y2="155" fill="transparent" shape-rendering="crispEdges" stroke="#F2F0F9" stroke-width="1" stroke-linecap="square"></line><svg x="-30" y="0" font-size="11" style="overflow:visible"><text transform="" x="-8" y="155" fill="#1B2030" font-size="11" text-anchor="start"><tspan x="-8" dy="0em">0%</tspan></text></svg></g><g class="visx-group visx-axis-tick" transform="translate(0, 0)"><line class="visx-line" x1="0" y1="110.71428571428572" x2="-8" y2="110.71428571428572" fill="transparent" shape-rendering="crispEdges" stroke="#F2F0F9" stroke-width="1" stroke-linecap="square"></line><svg x="-30" y="0" font-size="11" style="overflow:visible"><text transform="" x="-8" y="110.71428571428572" fill="#1B2030" font-size="11" text-anchor="start"><tspan x="-8" dy="0em">100%</tspan></text></svg></g><g class="visx-group visx-axis-tick" transform="translate(0, 0)"><line class="visx-line" x1="0" y1="66.42857142857143" x2="-8" y2="66.42857142857143" fill="transparent" shape-rendering="crispEdges" stroke="#F2F0F9" stroke-width="1" stroke-linecap="square"></line><svg x="-30" y="0" font-size="11" style="overflow:visible"><text transform="" x="-8" y="66.42857142857143" fill="#1B2030" font-size="11" text-anchor="start"><tspan x="-8" dy="0em">200%</tspan></text></svg></g><g class="visx-group visx-axis-tick" transform="translate(0, 0)"><line class="visx-line" x1="0" y1="22.14285714285715" x2="-8" y2="22.14285714285715" fill="transparent" shape-rendering="crispEdges" stroke="#F2F0F9" stroke-width="1" stroke-linecap="square"></line><svg x="-30" y="0" font-size="11" style="overflow:visible"><text transform="" x="-8" y="22.14285714285715" fill="#1B2030" font-size="11" text-anchor="start"><tspan x="-8" dy="0em">300%</tspan></text></svg></g><line class="visx-line visx-axis-line" x1="0" y1="155.5" x2="0" y2="0.5" fill="transparent" shape-rendering="crispEdges" stroke="#F2F0F9" stroke-width="1"></line></g><rect class="visx-bar" width="1425" height="155" fill="transparent"></rect><line class="visx-line" x1="641.25" y1="58" x2="641.25" y2="155" fill="transparent" shape-rendering="crispEdges" stroke="#CDC8E1" stroke-width="1" pointer-events="none" stroke-dasharray="5"></line><svg x="0" y="0" font-size="11px" style="overflow:visible"><text transform="" x="641.25" y="50" font-size="11px" fill="#555069" stroke="#FFFFFF" stroke-width="1px" text-anchor="middle"><tspan x="641.25" dy="0.355em">uOptimal 45%</tspan></text></svg><svg x="0" y="0" font-size="11px" style="overflow:visible"><text transform="" x="641.25" y="50" font-size="11px" fill="#CDC8E1" text-anchor="middle"><tspan x="641.25" dy="0.355em">uOptimal 45%</tspan></text></svg></g></svg>