<?xml version="1.0"?><svg xmlns="http://www.w3.org/2000/svg" xmlns:xlink= "http://www.w3.org/1999/xlink" style="background: white;" width="1500" height="300"> <g style="color: black; font-size: 13px; font-family: sans-serif; transform: translate(18px, 25px);"><g><circle r="3" cx="-6" cy="-5" style="fill: #1AD4B3" /><text>Borrow APR, variable</text></g><g style="transform: translateX(150px);"><circle r="3" cx="-6" cy="-5" style="fill: #101423" /><text>Borrow APR, stable</text></g></g><g class="visx-group" transform="translate(45, 50)"><g class="visx-group visx-rows" transform="translate(0, 0)"><line class="visx-line" x1="0" y1="155" x2="1425" y2="155" fill="transparent" shape-rendering="crispEdges" stroke="#F2F0F9" stroke-width="1" pointer-events="none"></line><line class="visx-line" x1="0" y1="90.41666666666666" x2="1425" y2="90.41666666666666" fill="transparent" shape-rendering="crispEdges" stroke="#F2F0F9" stroke-width="1" pointer-events="none"></line><line class="visx-line" x1="0" y1="25.83333333333333" x2="1425" y2="25.83333333333333" fill="transparent" shape-rendering="crispEdges" stroke="#F2F0F9" stroke-width="1" pointer-events="none"></line></g><path class="visx-linepath" d="M0,154.99999999989504C2.375,154.98250868049433,4.75,154.9650173610936,7.125,154.94752604166666C9.5,154.93003472223972,11.875,154.91254340277777,14.25,154.89505208333333C16.625,154.87756076388888,19,154.86006944444446,21.375,154.84257812500002C23.75,154.82508680555557,26.125,154.80759548611113,28.5,154.79010416666668C30.875,154.77261284722223,33.25,154.7551215277778,35.625,154.73763020833334C38,154.7201388888889,40.375,154.70264756944445,42.75,154.68515625C45.125,154.66766493055556,47.50000000000001,154.65017361111111,49.87500000000001,154.63268229166667C52.25000000000001,154.61519097222222,54.625,154.59769965277778,57,154.58020833333333C59.375,154.56271701388889,61.75,154.54522569444444,64.125,154.527734375C66.5,154.51024305555555,68.875,154.4927517361111,71.25,154.47526041666666C73.625,154.4577690972222,76,154.44027777777777,78.375,154.42278645833332C80.75,154.40529513888887,83.125,154.38780381944446,85.5,154.3703125C87.875,154.35282118055557,90.25,154.33532986111112,92.625,154.31783854166667C95,154.30034722222223,97.37500000000001,154.28285590277778,99.75000000000001,154.26536458333334C102.12500000000001,154.2478732638889,104.5,154.23038194444445,106.875,154.212890625C109.25,154.19539930555555,111.625,154.1779079861111,114,154.16041666666666C116.375,154.14292534722222,118.75000000000001,154.12543402777777,121.12500000000001,154.10794270833333C123.50000000000001,154.09045138888888,125.875,154.07296006944443,128.25,154.05546875C130.625,154.03797743055554,133,154.0204861111111,135.375,154.00299479166665C137.75,153.9855034722222,140.125,153.9680121527778,142.5,153.95052083333334C144.875,153.9330295138889,147.25,153.91553819444445,149.625,153.898046875C152,153.88055555555556,154.375,153.86306423611111,156.75,153.84557291666667C159.125,153.82808159722222,161.5,153.81059027777778,163.875,153.79309895833333C166.25,153.77560763888889,168.625,153.75811631944444,171,153.740625C173.375,153.72313368055555,175.75,153.70564236111113,178.125,153.68815104166669C180.5,153.67065972222224,182.875,153.6531684027778,185.25,153.63567708333335C187.625,153.6181857638889,190,153.60069444444446,192.375,153.583203125C194.75,153.56571180555557,197.12500000000003,153.54822048611112,199.50000000000003,153.53072916666667C201.875,153.51323784722223,204.25,153.49574652777778,206.62499999999997,153.47825520833334C208.99999999999997,153.4607638888889,211.375,153.44327256944445,213.75,153.42578125C216.125,153.40828993055555,218.5,153.3907986111111,220.875,153.37330729166666C223.25,153.35581597222222,225.625,153.33832465277777,228,153.32083333333333C230.375,153.30334201388888,232.75,153.28585069444443,235.125,153.268359375C237.5,153.25086805555554,239.87500000000003,153.23337673611113,242.25000000000003,153.21588541666668C244.625,153.19839409722223,247,153.1809027777778,249.37499999999997,153.16341145833334C251.74999999999997,153.1459201388889,254.125,153.12842881944445,256.5,153.1109375C258.875,153.09344618055556,261.25,153.07595486111111,263.625,153.05846354166667C266,153.04097222222222,268.375,153.02348090277778,270.75,153.00598958333333C273.125,152.98849826388889,275.5,152.97100694444444,277.875,152.953515625C280.25,152.93602430555555,282.625,152.9185329861111,285,152.90104166666666C287.375,152.8835503472222,289.75,152.86605902777777,292.125,152.84856770833332C294.5,152.83107638888887,296.875,152.81358506944446,299.25,152.79609375C301.625,152.77860243055557,304,152.76111111111112,306.375,152.74361979166667C308.75,152.72612847222223,311.125,152.70863715277778,313.5,152.69114583333334C315.875,152.6736545138889,318.25,152.65616319444445,320.625,152.638671875C323,152.62118055555555,325.375,152.6036892361111,327.75,152.58619791666666C330.125,152.56870659722222,332.5,152.55121527777777,334.875,152.53372395833333C337.25,152.51623263888888,339.625,152.49874131944443,342,152.48125C344.375,152.46375868055554,346.75,152.4462673611111,349.125,152.42877604166665C351.5,152.4112847222222,353.875,152.39379340277776,356.25,152.37630208333331C358.625,152.35881076388887,361,152.34131944444445,363.375,152.323828125C365.75,152.30633680555556,368.125,152.28884548611111,370.5,152.27135416666667C372.875,152.25386284722222,375.25,152.23637152777778,377.625,152.21888020833333C380,152.20138888888889,382.375,152.18389756944444,384.75,152.16640625C387.125,152.14891493055555,389.50000000000006,152.1314236111111,391.87500000000006,152.11393229166666C394.25000000000006,152.0964409722222,396.62500000000006,152.0789496527778,399.00000000000006,152.06145833333335C401.375,152.0439670138889,403.75,152.02647569444446,406.12499999999994,152.008984375C408.49999999999994,151.99149305555557,410.87499999999994,151.97400173611112,413.24999999999994,151.95651041666667C415.62499999999994,151.93901909722223,418,151.92152777777778,420.375,151.90403645833334C422.75,151.8865451388889,425.125,151.86905381944445,427.5,151.8515625C429.875,151.83407118055555,432.25,151.8165798611111,434.625,151.79908854166666C437,151.78159722222222,439.375,151.76410590277777,441.75,151.74661458333333C444.125,151.72912326388888,446.5,151.71163194444443,448.875,151.694140625C451.25,151.67664930555554,453.625,151.6591579861111,456,151.64166666666665C458.375,151.6241753472222,460.75,151.6066840277778,463.125,151.58919270833334C465.5,151.5717013888889,467.875,151.55421006944445,470.25,151.53671875C472.625,151.51922743055556,475.00000000000006,151.50173611111111,477.37500000000006,151.48424479166667C479.75000000000006,151.46675347222222,482.12500000000006,151.44926215277778,484.50000000000006,151.43177083333333C486.875,151.41427951388889,489.25,151.39678819444444,491.62499999999994,151.379296875C493.99999999999994,151.36180555555555,496.37499999999994,151.3443142361111,498.74999999999994,151.32682291666666C501.12499999999994,151.3093315972222,503.5,151.29184027777777,505.875,151.27434895833332C508.25,151.25685763888887,510.625,151.23936631944443,513,151.22187499999998C515.375,151.20438368055554,517.75,151.18689236111112,520.125,151.16940104166667C522.5,151.15190972222223,524.875,151.13441840277778,527.25,151.11692708333334C529.625,151.0994357638889,532,151.08194444444445,534.375,151.064453125C536.75,151.04696180555555,539.125,151.0294704861111,541.5,151.01197916666666C543.875,150.99448784722222,546.25,150.97699652777777,548.625,150.95950520833333C551,150.94201388888888,553.375,150.92452256944446,555.75,150.90703125000002C558.125,150.88953993055557,560.5,150.87204861111113,562.875,150.85455729166668C565.25,150.83706597222223,567.625,150.8195746527778,570,150.80208333333334C572.375,150.7845920138889,574.75,150.76710069444445,577.125,150.749609375C579.5,150.73211805555556,581.875,150.71462673611111,584.25,150.69713541666667C586.625,150.67964409722222,589,150.66215277777778,591.375,150.64466145833333C593.75,150.62717013888889,596.125,150.60967881944444,598.5,150.5921875C600.875,150.57469618055555,603.25,150.5572048611111,605.625,150.53971354166666C608,150.5222222222222,610.375,150.50473090277777,612.75,150.48723958333332C615.125,150.46974826388887,617.5,150.45225694444446,619.875,150.434765625C622.25,150.41727430555557,624.625,150.39978298611112,627,150.38229166666667C629.375,150.36480034722223,631.75,150.34730902777778,634.125,150.32981770833334C636.5,150.3123263888889,638.875,150.29483506944445,641.25,150.27734375C643.625,150.25985243055555,646,150.2423611111111,648.375,150.22486979166666C650.75,150.20737847222222,653.125,150.18988715277777,655.5,150.17239583333333C657.875,150.15490451388888,660.25,150.13741319444443,662.625,150.119921875C665,150.10243055555554,667.375,150.0849392361111,669.75,150.06744791666665C672.125,150.0499565972222,674.5,150.03246527777776,676.875,150.01497395833331C679.25,149.99748263888887,681.625,149.97999131944445,684,149.9625C686.375,149.94500868055556,688.75,149.92751736111111,691.125,149.91002604166667C693.5,149.89253472222222,695.875,149.87504340277778,698.25,149.85755208333333C700.625,149.84006076388889,703,149.82256944444444,705.375,149.805078125C707.75,149.78758680555555,710.125,149.77009548611113,712.5,149.75260416666669C714.875,149.73511284722224,717.25,149.7176215277778,719.625,149.70013020833335C722,149.6826388888889,724.375,149.66514756944446,726.75,149.64765625C729.125,149.63016493055557,731.5,149.61267361111112,733.875,149.59518229166667C736.25,149.57769097222223,738.625,149.56019965277778,741,149.54270833333334C743.375,149.5252170138889,745.75,149.50772569444445,748.125,149.490234375C750.5,149.47274305555555,752.875,149.4552517361111,755.25,149.43776041666666C757.625,149.42026909722222,760,149.40277777777777,762.375,149.38528645833333C764.75,149.36779513888888,767.125,149.35030381944446,769.5,149.33281250000002C771.875,149.31532118055557,774.2500000000001,149.29782986111113,776.6250000000001,149.28033854166668C779.0000000000001,149.26284722222223,781.3750000000001,149.2453559027778,783.7500000000001,149.22786458333334C786.1250000000001,149.2103732638889,788.5000000000001,149.19288194444445,790.8750000000001,149.175390625C793.2500000000001,149.15789930555556,795.6250000000001,149.14040798611111,798.0000000000001,149.12291666666667C800.375,149.10542534722222,802.75,149.08793402777778,805.1249999999999,149.07044270833333C807.4999999999999,149.05295138888889,809.8749999999999,149.03546006944444,812.2499999999999,149.01796875C814.6249999999999,149.00047743055555,816.9999999999999,148.9829861111111,819.3749999999999,148.96549479166666C821.7499999999999,148.9480034722222,824.1249999999999,148.93051215277777,826.4999999999999,148.91302083333332C828.8749999999999,148.89552951388887,831.25,148.87803819444446,833.625,148.860546875C836,148.84305555555557,838.375,148.82556423611112,840.75,148.80807291666667C843.125,148.79058159722223,845.5,148.77309027777778,847.875,148.75559895833334C850.25,148.7381076388889,852.625,148.72061631944445,855,148.703125C857.375,148.68563368055555,859.75,148.6681423611111,862.125,148.65065104166666C864.5,148.63315972222222,866.875,148.61566840277777,869.25,148.59817708333333C871.625,148.58068576388888,874,148.56319444444443,876.375,148.545703125C878.75,148.52821180555554,881.125,148.5107204861111,883.5,148.49322916666665C885.875,148.4757378472222,888.25,148.45824652777776,890.625,148.44075520833331C893,148.42326388888887,895.375,148.40577256944445,897.75,148.38828125C900.125,148.37078993055556,902.5,148.35329861111111,904.875,148.33580729166667C907.25,148.31831597222222,909.625,148.30082465277778,912,148.28333333333333C914.375,148.26584201388889,916.75,148.24835069444444,919.125,148.230859375C921.5,148.21336805555555,923.875,148.1958767361111,926.25,148.17838541666666C928.625,148.1608940972222,931,148.1434027777778,933.375,148.12591145833335C935.75,148.1084201388889,938.125,148.09092881944446,940.5,148.0734375C942.875,148.05594618055557,945.25,148.03845486111112,947.625,148.02096354166667C950,148.00347222222223,952.3750000000001,147.98598090277778,954.7500000000001,147.96848958333334C957.1250000000001,147.9509982638889,959.5000000000001,147.93350694444445,961.8750000000001,147.916015625C964.2500000000001,147.89852430555555,966.6250000000001,147.8810329861111,969.0000000000001,147.86354166666666C971.3750000000001,147.84605034722222,973.7500000000001,147.82855902777777,976.1250000000001,147.81106770833333C978.5,147.79357638888888,980.875,147.77608506944443,983.2499999999999,147.75859375C985.6249999999999,147.74110243055554,987.9999999999999,147.72361111111113,990.3749999999999,147.70611979166668C992.7499999999999,147.68862847222223,995.1249999999999,147.6711371527778,997.4999999999999,147.65364583333334C999.8749999999999,147.6361545138889,1002.2499999999999,147.61866319444445,1004.6249999999999,147.601171875C1006.9999999999999,147.58368055555556,1009.375,147.56618923611111,1011.75,147.54869791666667C1014.125,147.53120659722222,1016.5,147.51371527777778,1018.875,147.49622395833333C1021.25,147.47873263888889,1023.625,147.46124131944444,1026,147.44375C1028.375,147.42625868055555,1030.75,147.4087673611111,1033.125,147.39127604166666C1035.5,147.3737847222222,1037.875,147.35629340277777,1040.25,147.33880208333332C1042.625,147.32131076388887,1045,147.30381944444443,1047.375,147.28632812499998C1049.75,147.26883680555554,1052.125,147.25134548611112,1054.5,147.23385416666667C1056.875,147.21636284722223,1059.25,147.19887152777778,1061.625,147.18138020833334C1064,147.1638888888889,1066.375,147.14639756944445,1068.75,147.12890625C1071.125,147.11141493055555,1073.5,147.0939236111111,1075.875,147.07643229166666C1078.25,147.05894097222222,1080.625,147.04144965277777,1083,147.02395833333333C1085.375,147.00646701388888,1087.75,146.98897569444446,1090.125,146.97148437500002C1092.5,146.95399305555557,1094.875,146.93650173611113,1097.25,146.91901041666668C1099.625,146.90151909722223,1102,146.8840277777778,1104.375,146.86653645833334C1106.75,146.8490451388889,1109.125,146.83155381944445,1111.5,146.8140625C1113.875,146.79657118055556,1116.25,146.77907986111111,1118.625,146.76158854166667C1121,146.74409722222222,1123.375,146.72660590277778,1125.75,146.70911458333333C1128.125,146.69162326388889,1130.5,146.67413194444444,1132.875,146.656640625C1135.25,146.63914930555555,1137.625,146.63914930555555,1140,146.60416666666666C1142.375,146.56918402777777,1144.75,144.45138888888889,1147.125,143.375C1149.5,142.29861111111111,1151.875,141.22222222222223,1154.25,140.14583333333334C1156.625,139.06944444444446,1159,137.99305555555554,1161.375,136.91666666666666C1163.75,135.84027777777777,1166.125,134.76388888888889,1168.5,133.6875C1170.875,132.61111111111111,1173.25,131.53472222222223,1175.625,130.45833333333334C1178,129.38194444444446,1180.375,128.30555555555554,1182.75,127.22916666666666C1185.125,126.15277777777777,1187.5,125.07638888888889,1189.875,124C1192.25,122.92361111111111,1194.625,121.84722222222221,1197,120.77083333333333C1199.375,119.69444444444444,1201.75,118.61805555555554,1204.125,117.54166666666666C1206.5,116.46527777777777,1208.875,115.38888888888889,1211.25,114.3125C1213.625,113.23611111111111,1216,112.15972222222221,1218.375,111.08333333333333C1220.75,110.00694444444444,1223.125,108.93055555555554,1225.5,107.85416666666666C1227.875,106.77777777777777,1230.25,105.70138888888889,1232.625,104.625C1235,103.54861111111111,1237.375,102.47222222222221,1239.75,101.39583333333333C1242.125,100.31944444444444,1244.5,99.24305555555554,1246.875,98.16666666666666C1249.25,97.09027777777777,1251.625,96.01388888888889,1254,94.9375C1256.375,93.86111111111111,1258.75,92.78472222222221,1261.125,91.70833333333333C1263.5,90.63194444444444,1265.875,89.55555555555554,1268.25,88.47916666666666C1270.625,87.40277777777777,1273,86.32638888888889,1275.375,85.25C1277.75,84.17361111111111,1280.125,83.09722222222224,1282.5,82.02083333333336C1284.875,80.94444444444447,1287.25,79.86805555555554,1289.625,78.79166666666666C1292,77.71527777777777,1294.375,76.63888888888889,1296.75,75.5625C1299.125,74.48611111111111,1301.5,73.40972222222221,1303.875,72.33333333333333C1306.25,71.25694444444444,1308.625,70.18055555555554,1311,69.10416666666666C1313.375,68.02777777777777,1315.75,66.95138888888889,1318.125,65.875C1320.5,64.79861111111111,1322.875,63.72222222222223,1325.25,62.645833333333336C1327.625,61.56944444444444,1330,60.49305555555555,1332.375,59.416666666666664C1334.75,58.34027777777778,1337.125,57.26388888888889,1339.5,56.18750000000001C1341.875,55.11111111111112,1344.25,54.03472222222223,1346.625,52.958333333333336C1349,51.88194444444444,1351.375,50.80555555555555,1353.75,49.729166666666664C1356.125,48.65277777777778,1358.5,47.57638888888889,1360.875,46.50000000000001C1363.25,45.42361111111112,1365.625,44.34722222222223,1368,43.270833333333336C1370.375,42.19444444444444,1372.75,41.11805555555555,1375.125,40.041666666666664C1377.5,38.96527777777778,1379.875,37.88888888888889,1382.25,36.81250000000001C1384.625,35.73611111111112,1387,34.65972222222223,1389.375,33.583333333333336C1391.75,32.50694444444444,1394.125,31.43055555555555,1396.5,30.35416666666666C1398.875,29.27777777777777,1401.25,28.201388888888893,1403.625,27.125000000000007C1406,26.04861111111112,1408.375,24.972222222222243,1410.75,23.89583333333335C1413.125,22.819444444444457,1415.5,21.74305555555555,1417.875,20.66666666666666C1420.25,19.59027777777777,1422.625,18.51388888888889,1425,17.437500000000007" fill="transparent" stroke-linecap="round" stroke="#1AD4B3" stroke-width="2"></path><g class="visx-group visx-axis visx-axis-bottom" transform="translate(0, 155)"><g class="visx-group visx-axis-tick" transform="translate(0, 0)"><line class="visx-line" x1="0" y1="0" x2="0" y2="8" fill="transparent" shape-rendering="crispEdges" stroke="#F2F0F9" stroke-width="1" stroke-linecap="square"></line><svg x="0" y="0" font-size="11" style="overflow:visible"><text transform="" x="0" y="19" fill="#1B2030" font-size="11" text-anchor="middle"><tspan x="0" dy="0em">0%</tspan></text></svg></g><g class="visx-group visx-axis-tick" transform="translate(0, 0)"><line class="visx-line" x1="356.25" y1="0" x2="356.25" y2="8" fill="transparent" shape-rendering="crispEdges" stroke="#F2F0F9" stroke-width="1" stroke-linecap="square"></line><svg x="0" y="0" font-size="11" style="overflow:visible"><text transform="" x="356.25" y="19" fill="#1B2030" font-size="11" text-anchor="middle"><tspan x="356.25" dy="0em">25%</tspan></text></svg></g><g class="visx-group visx-axis-tick" transform="translate(0, 0)"><line class="visx-line" x1="712.5" y1="0" x2="712.5" y2="8" fill="transparent" shape-rendering="crispEdges" stroke="#F2F0F9" stroke-width="1" stroke-linecap="square"></line><svg x="0" y="0" font-size="11" style="overflow:visible"><text transform="" x="712.5" y="19" fill="#1B2030" font-size="11" text-anchor="middle"><tspan x="712.5" dy="0em">50%</tspan></text></svg></g><g class="visx-group visx-axis-tick" transform="translate(0, 0)"><line class="visx-line" x1="1068.75" y1="0" x2="1068.75" y2="8" fill="transparent" shape-rendering="crispEdges" stroke="#F2F0F9" stroke-width="1" stroke-linecap="square"></line><svg x="0" y="0" font-size="11" style="overflow:visible"><text transform="" x="1068.75" y="19" fill="#1B2030" font-size="11" text-anchor="middle"><tspan x="1068.75" dy="0em">75%</tspan></text></svg></g><g class="visx-group visx-axis-tick" transform="translate(0, 0)"><line class="visx-line" x1="1425" y1="0" x2="1425" y2="8" fill="transparent" shape-rendering="crispEdges" stroke="#F2F0F9" stroke-width="1" stroke-linecap="square"></line><svg x="0" y="0" font-size="11" style="overflow:visible"><text transform="" x="1425" y="19" fill="#1B2030" font-size="11" text-anchor="middle"><tspan x="1425" dy="0em">100%</tspan></text></svg></g></g><g class="visx-group visx-axis visx-axis-left" transform="translate(0, 0)"><g class="visx-group visx-axis-tick" transform="translate(0, 0)"><line class="visx-line" x1="0" y1="155" x2="-8" y2="155" fill="transparent" shape-rendering="crispEdges" stroke="#F2F0F9" stroke-width="1" stroke-linecap="square"></line><svg x="-30" y="0" font-size="11" style="overflow:visible"><text transform="" x="-8" y="155" fill="#1B2030" font-size="11" text-anchor="start"><tspan x="-8" dy="0em">0%</tspan></text></svg></g><g class="visx-group visx-axis-tick" transform="translate(0, 0)"><line class="visx-line" x1="0" y1="90.41666666666666" x2="-8" y2="90.41666666666666" fill="transparent" shape-rendering="crispEdges" stroke="#F2F0F9" stroke-width="1" stroke-linecap="square"></line><svg x="-30" y="0" font-size="11" style="overflow:visible"><text transform="" x="-8" y="90.41666666666666" fill="#1B2030" font-size="11" text-anchor="start"><tspan x="-8" dy="0em">50%</tspan></text></svg></g><g class="visx-group visx-axis-tick" transform="translate(0, 0)"><line class="visx-line" x1="0" y1="25.83333333333333" x2="-8" y2="25.83333333333333" fill="transparent" shape-rendering="crispEdges" stroke="#F2F0F9" stroke-width="1" stroke-linecap="square"></line><svg x="-30" y="0" font-size="11" style="overflow:visible"><text transform="" x="-8" y="25.83333333333333" fill="#1B2030" font-size="11" text-anchor="start"><tspan x="-8" dy="0em">100%</tspan></text></svg></g><line class="visx-line visx-axis-line" x1="0" y1="155.5" x2="0" y2="0.5" fill="transparent" shape-rendering="crispEdges" stroke="#F2F0F9" stroke-width="1"></line></g><rect class="visx-bar" width="1425" height="155" fill="transparent"></rect><line class="visx-line" x1="1140" y1="58" x2="1140" y2="155" fill="transparent" shape-rendering="crispEdges" stroke="#CDC8E1" stroke-width="1" pointer-events="none" stroke-dasharray="5"></line><svg x="0" y="0" font-size="11px" style="overflow:visible"><text transform="" x="1140" y="50" font-size="11px" fill="#555069" stroke="#FFFFFF" stroke-width="1px" text-anchor="middle"><tspan x="1140" dy="0.355em">Optimal utilization 80%</tspan></text></svg><svg x="0" y="0" font-size="11px" style="overflow:visible"><text transform="" x="1140" y="50" font-size="11px" fill="#CDC8E1" text-anchor="middle"><tspan x="1140" dy="0.355em">Optimal utilization 80%</tspan></text></svg></g></svg>