<?xml version="1.0"?><svg xmlns="http://www.w3.org/2000/svg" xmlns:xlink= "http://www.w3.org/1999/xlink" style="background: white;" width="1500" height="300"> <g style="color: black; font-size: 13px; font-family: sans-serif; transform: translate(18px, 25px);"><g><circle r="3" cx="-6" cy="-5" style="fill: #1AD4B3" /><text>Borrow APR, variable</text></g><g style="transform: translateX(150px);"><circle r="3" cx="-6" cy="-5" style="fill: #101423" /><text>Borrow APR, stable</text></g></g><g class="visx-group" transform="translate(45, 50)"><g class="visx-group visx-rows" transform="translate(0, 0)"><line class="visx-line" x1="0" y1="155" x2="1425" y2="155" fill="transparent" shape-rendering="crispEdges" stroke="#F2F0F9" stroke-width="1" pointer-events="none"></line><line class="visx-line" x1="0" y1="120.55555555555556" x2="1425" y2="120.55555555555556" fill="transparent" shape-rendering="crispEdges" stroke="#F2F0F9" stroke-width="1" pointer-events="none"></line><line class="visx-line" x1="0" y1="86.11111111111111" x2="1425" y2="86.11111111111111" fill="transparent" shape-rendering="crispEdges" stroke="#F2F0F9" stroke-width="1" pointer-events="none"></line><line class="visx-line" x1="0" y1="51.66666666666667" x2="1425" y2="51.66666666666667" fill="transparent" shape-rendering="crispEdges" stroke="#F2F0F9" stroke-width="1" pointer-events="none"></line><line class="visx-line" x1="0" y1="17.22222222222223" x2="1425" y2="17.22222222222223" fill="transparent" shape-rendering="crispEdges" stroke="#F2F0F9" stroke-width="1" pointer-events="none"></line></g><path class="visx-linepath" d="M0,154.82777777777346C2.375,154.82706018518266,4.75,154.82634259259189,7.125,154.825625C9.5,154.82490740740812,11.875,154.82418981481482,14.25,154.82347222222222C16.625,154.82275462962963,19,154.82203703703703,21.375,154.82131944444444C23.75,154.82060185185185,26.125,154.81988425925925,28.5,154.81916666666666C30.875,154.81844907407407,33.25,154.8177314814815,35.625,154.8170138888889C38,154.81629629629631,40.375,154.8155787037037,42.75,154.8148611111111C45.125,154.8141435185185,47.50000000000001,154.8134259259259,49.87500000000001,154.81270833333332C52.25000000000001,154.81199074074073,54.625,154.81127314814816,57,154.81055555555557C59.375,154.80983796296297,61.75,154.80912037037038,64.125,154.8084027777778C66.5,154.8076851851852,68.875,154.8069675925926,71.25,154.80625C73.625,154.8055324074074,76,154.80481481481482,78.375,154.80409722222223C80.75,154.80337962962963,83.125,154.80266203703704,85.5,154.80194444444444C87.875,154.80122685185185,90.25,154.80050925925926,92.625,154.79979166666666C95,154.79907407407407,97.37500000000001,154.79835648148148,99.75000000000001,154.79763888888888C102.12500000000001,154.7969212962963,104.5,154.7962037037037,106.875,154.7954861111111C109.25,154.7947685185185,111.625,154.79405092592594,114,154.79333333333335C116.375,154.79261574074076,118.75000000000001,154.79189814814814,121.12500000000001,154.79118055555554C123.50000000000001,154.79046296296295,125.875,154.78974537037035,128.25,154.78902777777776C130.625,154.78831018518517,133,154.7875925925926,135.375,154.786875C137.75,154.78615740740742,140.125,154.78543981481482,142.5,154.78472222222223C144.875,154.78400462962964,147.25,154.78328703703704,149.625,154.78256944444445C152,154.78185185185185,154.375,154.78113425925926,156.75,154.78041666666667C159.125,154.77969907407407,161.5,154.77898148148148,163.875,154.7782638888889C166.25,154.7775462962963,168.625,154.7768287037037,171,154.7761111111111C173.375,154.7753935185185,175.75,154.77467592592592,178.125,154.77395833333333C180.5,154.77324074074073,182.875,154.77252314814814,185.25,154.77180555555555C187.625,154.77108796296295,190,154.7703703703704,192.375,154.7696527777778C194.75,154.7689351851852,197.12500000000003,154.7682175925926,199.50000000000003,154.7675C201.875,154.76678240740742,204.25,154.7660648148148,206.62499999999997,154.7653472222222C208.99999999999997,154.7646296296296,211.375,154.76391203703704,213.75,154.76319444444445C216.125,154.76247685185186,218.5,154.76175925925926,220.875,154.76104166666667C223.25,154.76032407407408,225.625,154.75960648148148,228,154.7588888888889C230.375,154.7581712962963,232.75,154.7574537037037,235.125,154.7567361111111C237.5,154.75601851851852,239.87500000000003,154.75530092592592,242.25000000000003,154.75458333333333C244.625,154.75386574074074,247,154.75314814814814,249.37499999999997,154.75243055555555C251.74999999999997,154.75171296296296,254.125,154.75099537037036,256.5,154.75027777777777C258.875,154.74956018518517,261.25,154.7488425925926,263.625,154.74812500000002C266,154.74740740740742,268.375,154.74668981481483,270.75,154.74597222222224C273.125,154.74525462962964,275.5,154.74453703703705,277.875,154.74381944444445C280.25,154.74310185185186,282.625,154.74238425925927,285,154.74166666666667C287.375,154.74094907407408,289.75,154.7402314814815,292.125,154.7395138888889C294.5,154.7387962962963,296.875,154.7380787037037,299.25,154.7373611111111C301.625,154.73664351851852,304,154.73592592592593,306.375,154.73520833333333C308.75,154.73449074074074,311.125,154.73377314814815,313.5,154.73305555555555C315.875,154.73233796296296,318.25,154.73162037037036,320.625,154.73090277777777C323,154.73018518518518,325.375,154.72946759259258,327.75,154.72875C330.125,154.7280324074074,332.5,154.7273148148148,334.875,154.7265972222222C337.25,154.72587962962962,339.625,154.72516203703705,342,154.72444444444446C344.375,154.72372685185186,346.75,154.72300925925927,349.125,154.72229166666668C351.5,154.72157407407408,353.875,154.7208564814815,356.25,154.7201388888889C358.625,154.7194212962963,361,154.7187037037037,363.375,154.71798611111112C365.75,154.71726851851852,368.125,154.71655092592593,370.5,154.71583333333334C372.875,154.71511574074074,375.25,154.71439814814815,377.625,154.71368055555556C380,154.71296296296296,382.375,154.71224537037037,384.75,154.71152777777777C387.125,154.71081018518518,389.50000000000006,154.7100925925926,391.87500000000006,154.709375C394.25000000000006,154.7086574074074,396.62500000000006,154.7079398148148,399.00000000000006,154.7072222222222C401.375,154.70650462962962,403.75,154.70578703703703,406.12499999999994,154.70506944444443C408.49999999999994,154.70435185185184,410.87499999999994,154.70363425925925,413.24999999999994,154.70291666666665C415.62499999999994,154.70219907407406,418,154.7014814814815,420.375,154.7007638888889C422.75,154.7000462962963,425.125,154.6993287037037,427.5,154.69861111111112C429.875,154.69789351851853,432.25,154.69717592592593,434.625,154.69645833333334C437,154.69574074074075,439.375,154.69502314814815,441.75,154.69430555555556C444.125,154.69358796296297,446.5,154.69287037037037,448.875,154.69215277777778C451.25,154.69143518518518,453.625,154.6907175925926,456,154.69C458.375,154.6892824074074,460.75,154.6885648148148,463.125,154.68784722222222C465.5,154.68712962962962,467.875,154.68641203703703,470.25,154.68569444444444C472.625,154.68497685185184,475.00000000000006,154.68425925925925,477.37500000000006,154.68354166666666C479.75000000000006,154.68282407407406,482.12500000000006,154.68210648148147,484.50000000000006,154.68138888888888C486.875,154.68067129629628,489.25,154.6799537037037,491.62499999999994,154.6792361111111C493.99999999999994,154.6785185185185,496.37499999999994,154.67780092592594,498.74999999999994,154.67708333333334C501.12499999999994,154.67636574074075,503.5,154.67564814814816,505.875,154.67493055555556C508.25,154.67421296296297,510.625,154.67349537037038,513,154.67277777777778C515.375,154.6720601851852,517.75,154.6713425925926,520.125,154.670625C522.5,154.6699074074074,524.875,154.6691898148148,527.25,154.66847222222222C529.625,154.66775462962963,532,154.66703703703703,534.375,154.66631944444444C536.75,154.66560185185185,539.125,154.66488425925925,541.5,154.66416666666666C543.875,154.66344907407407,546.25,154.6627314814815,548.625,154.6620138888889C551,154.6612962962963,553.375,154.6605787037037,555.75,154.6598611111111C558.125,154.6591435185185,560.5,154.6584259259259,562.875,154.65770833333332C565.25,154.65699074074072,567.625,154.65627314814816,570,154.65555555555557C572.375,154.65483796296297,574.75,154.65412037037038,577.125,154.65340277777779C579.5,154.6526851851852,581.875,154.6519675925926,584.25,154.65125C586.625,154.6505324074074,589,154.64981481481482,591.375,154.64909722222222C593.75,154.64837962962963,596.125,154.64766203703704,598.5,154.64694444444444C600.875,154.64622685185185,603.25,154.64550925925926,605.625,154.64479166666666C608,154.64407407407407,610.375,154.64335648148148,612.75,154.64263888888888C615.125,154.6419212962963,617.5,154.6412037037037,619.875,154.6404861111111C622.25,154.6397685185185,624.625,154.63905092592594,627,154.63833333333335C629.375,154.63761574074076,631.75,154.63689814814816,634.125,154.63618055555557C636.5,154.63546296296298,638.875,154.63474537037035,641.25,154.63402777777776C643.625,154.63331018518517,646,154.6325925925926,648.375,154.631875C650.75,154.63115740740741,653.125,154.63043981481482,655.5,154.62972222222223C657.875,154.62900462962963,660.25,154.62828703703704,662.625,154.62756944444445C665,154.62685185185185,667.375,154.62613425925926,669.75,154.62541666666667C672.125,154.62469907407407,674.5,154.62398148148148,676.875,154.62326388888889C679.25,154.6225462962963,681.625,154.6218287037037,684,154.6211111111111C686.375,154.6203935185185,688.75,154.61967592592592,691.125,154.61895833333332C693.5,154.61824074074073,695.875,154.61752314814814,698.25,154.61680555555554C700.625,154.61608796296295,703,154.61537037037039,705.375,154.6146527777778C707.75,154.6139351851852,710.125,154.6132175925926,712.5,154.6125C714.875,154.61178240740742,717.25,154.6110648148148,719.625,154.6103472222222C722,154.6096296296296,724.375,154.60891203703704,726.75,154.60819444444445C729.125,154.60747685185186,731.5,154.60675925925926,733.875,154.60604166666667C736.25,154.60532407407408,738.625,154.60460648148148,741,154.6038888888889C743.375,154.6031712962963,745.75,154.6024537037037,748.125,154.6017361111111C750.5,154.60101851851852,752.875,154.60030092592592,755.25,154.59958333333333C757.625,154.59886574074073,760,154.59814814814814,762.375,154.59743055555555C764.75,154.59671296296295,767.125,154.59599537037036,769.5,154.59527777777777C771.875,154.59456018518517,774.2500000000001,154.5938425925926,776.6250000000001,154.59312500000001C779.0000000000001,154.59240740740742,781.3750000000001,154.59168981481483,783.7500000000001,154.59097222222223C786.1250000000001,154.59025462962964,788.5000000000001,154.58953703703705,790.8750000000001,154.58881944444445C793.2500000000001,154.58810185185186,795.6250000000001,154.58738425925927,798.0000000000001,154.58666666666667C800.375,154.58594907407408,802.75,154.5852314814815,805.1249999999999,154.5845138888889C807.4999999999999,154.5837962962963,809.8749999999999,154.5830787037037,812.2499999999999,154.5823611111111C814.6249999999999,154.58164351851852,816.9999999999999,154.58092592592592,819.3749999999999,154.58020833333333C821.7499999999999,154.57949074074074,824.1249999999999,154.57877314814814,826.4999999999999,154.57805555555555C828.8749999999999,154.57733796296296,831.25,154.57662037037036,833.625,154.57590277777777C836,154.57518518518518,838.375,154.57446759259258,840.75,154.57375C843.125,154.5730324074074,845.5,154.5723148148148,847.875,154.5715972222222C850.25,154.57087962962962,852.625,154.57016203703705,855,154.56944444444446C857.375,154.56872685185186,859.75,154.56800925925927,862.125,154.56729166666668C864.5,154.56657407407408,866.875,154.5658564814815,869.25,154.5651388888889C871.625,154.5644212962963,874,154.5637037037037,876.375,154.56298611111112C878.75,154.56226851851852,881.125,154.56155092592593,883.5,154.56083333333333C885.875,154.56011574074074,888.25,154.55939814814815,890.625,154.55868055555555C893,154.55796296296296,895.375,154.55724537037037,897.75,154.55652777777777C900.125,154.55581018518518,902.5,154.5550925925926,904.875,154.554375C907.25,154.5536574074074,909.625,154.5529398148148,912,154.5522222222222C914.375,154.55150462962962,916.75,154.55078703703703,919.125,154.55006944444443C921.5,154.54935185185184,923.875,154.54863425925925,926.25,154.54791666666665C928.625,154.54719907407406,931,154.5464814814815,933.375,154.5457638888889C935.75,154.5450462962963,938.125,154.5443287037037,940.5,154.54361111111112C942.875,154.54289351851853,945.25,154.54217592592593,947.625,154.54145833333334C950,154.54074074074074,952.3750000000001,154.54002314814815,954.7500000000001,154.53930555555556C957.1250000000001,154.53858796296296,959.5000000000001,154.53787037037037,961.8750000000001,154.53715277777778C964.2500000000001,154.53643518518518,966.6250000000001,154.5357175925926,969.0000000000001,154.535C971.3750000000001,154.5342824074074,973.7500000000001,154.5335648148148,976.1250000000001,154.53284722222222C978.5,154.53212962962962,980.875,154.53141203703706,983.2499999999999,154.53069444444446C985.6249999999999,154.52997685185187,987.9999999999999,154.52925925925925,990.3749999999999,154.52854166666665C992.7499999999999,154.52782407407406,995.1249999999999,154.52710648148147,997.4999999999999,154.52638888888887C999.8749999999999,154.52567129629628,1002.2499999999999,154.52495370370372,1004.6249999999999,154.52423611111112C1006.9999999999999,154.52351851851853,1009.375,154.52280092592594,1011.75,154.52208333333334C1014.125,154.52136574074075,1016.5,154.52064814814815,1018.875,154.51993055555556C1021.25,154.51921296296297,1023.625,154.51849537037037,1026,154.51777777777778C1028.375,154.5170601851852,1030.75,154.5163425925926,1033.125,154.515625C1035.5,154.5149074074074,1037.875,154.5141898148148,1040.25,154.51347222222222C1042.625,154.51275462962963,1045,154.51203703703703,1047.375,154.51131944444444C1049.75,154.51060185185185,1052.125,154.50988425925925,1054.5,154.50916666666666C1056.875,154.50844907407406,1059.25,154.5077314814815,1061.625,154.5070138888889C1064,154.5062962962963,1066.375,154.5055787037037,1068.75,154.5048611111111C1071.125,154.5041435185185,1073.5,154.5034259259259,1075.875,154.50270833333332C1078.25,154.50199074074072,1080.625,154.50127314814816,1083,154.50055555555556C1085.375,154.49983796296297,1087.75,154.49912037037038,1090.125,154.49840277777778C1092.5,154.4976851851852,1094.875,154.4969675925926,1097.25,154.49625C1099.625,154.4955324074074,1102,154.49481481481482,1104.375,154.49409722222222C1106.75,154.49337962962963,1109.125,154.49266203703704,1111.5,154.49194444444444C1113.875,154.49122685185185,1116.25,154.49050925925926,1118.625,154.48979166666666C1121,154.48907407407407,1123.375,154.48835648148147,1125.75,154.48763888888888C1128.125,154.4869212962963,1130.5,154.4862037037037,1132.875,154.4854861111111C1135.25,154.4847685185185,1137.625,154.4847685185185,1140,154.48333333333335C1142.375,154.4818981481482,1144.75,152.33055555555555,1147.125,151.25416666666666C1149.5,150.17777777777778,1151.875,149.1013888888889,1154.25,148.025C1156.625,146.94861111111112,1159,145.87222222222223,1161.375,144.79583333333335C1163.75,143.71944444444446,1166.125,142.64305555555555,1168.5,141.56666666666666C1170.875,140.49027777777778,1173.25,139.4138888888889,1175.625,138.3375C1178,137.26111111111112,1180.375,136.18472222222223,1182.75,135.10833333333335C1185.125,134.03194444444446,1187.5,132.95555555555555,1189.875,131.87916666666666C1192.25,130.80277777777778,1194.625,129.7263888888889,1197,128.65C1199.375,127.57361111111112,1201.75,126.49722222222222,1204.125,125.42083333333333C1206.5,124.34444444444445,1208.875,123.26805555555555,1211.25,122.19166666666666C1213.625,121.11527777777778,1216,120.03888888888889,1218.375,118.9625C1220.75,117.88611111111112,1223.125,116.80972222222222,1225.5,115.73333333333333C1227.875,114.65694444444445,1230.25,113.58055555555555,1232.625,112.50416666666666C1235,111.42777777777778,1237.375,110.35138888888889,1239.75,109.275C1242.125,108.19861111111112,1244.5,107.1222222222222,1246.875,106.04583333333332C1249.25,104.96944444444443,1251.625,103.89305555555555,1254,102.81666666666666C1256.375,101.74027777777778,1258.75,100.66388888888889,1261.125,99.5875C1263.5,98.51111111111112,1265.875,97.4347222222222,1268.25,96.35833333333332C1270.625,95.28194444444443,1273,94.20555555555555,1275.375,93.12916666666666C1277.75,92.05277777777778,1280.125,90.97638888888889,1282.5,89.9C1284.875,88.82361111111112,1287.25,87.7472222222222,1289.625,86.67083333333332C1292,85.59444444444443,1294.375,84.51805555555555,1296.75,83.44166666666666C1299.125,82.36527777777778,1301.5,81.28888888888889,1303.875,80.2125C1306.25,79.13611111111112,1308.625,78.05972222222222,1311,76.98333333333333C1313.375,75.90694444444445,1315.75,74.83055555555555,1318.125,73.75416666666666C1320.5,72.67777777777778,1322.875,71.60138888888888,1325.25,70.52499999999999C1327.625,69.4486111111111,1330,68.37222222222222,1332.375,67.29583333333333C1334.75,66.21944444444445,1337.125,65.14305555555555,1339.5,64.06666666666666C1341.875,62.99027777777777,1344.25,61.91388888888888,1346.625,60.83749999999999C1349,59.761111111111106,1351.375,58.68472222222223,1353.75,57.60833333333334C1356.125,56.531944444444456,1358.5,55.455555555555556,1360.875,54.37916666666666C1363.25,53.30277777777777,1365.625,52.22638888888888,1368,51.14999999999999C1370.375,50.073611111111106,1372.75,48.99722222222223,1375.125,47.92083333333334C1377.5,46.844444444444456,1379.875,45.768055555555556,1382.25,44.69166666666666C1384.625,43.61527777777777,1387,42.53888888888888,1389.375,41.46249999999999C1391.75,40.386111111111106,1394.125,39.30972222222223,1396.5,38.23333333333334C1398.875,37.156944444444456,1401.25,36.080555555555556,1403.625,35.00416666666666C1406,33.92777777777777,1408.375,32.851388888888884,1410.75,31.774999999999995C1413.125,30.698611111111106,1415.5,29.622222222222227,1417.875,28.545833333333338C1420.25,27.46944444444445,1422.625,26.39305555555556,1425,25.316666666666666" fill="transparent" stroke-linecap="round" stroke="#1AD4B3" stroke-width="2"></path><g class="visx-group visx-axis visx-axis-bottom" transform="translate(0, 155)"><g class="visx-group visx-axis-tick" transform="translate(0, 0)"><line class="visx-line" x1="0" y1="0" x2="0" y2="8" fill="transparent" shape-rendering="crispEdges" stroke="#F2F0F9" stroke-width="1" stroke-linecap="square"></line><svg x="0" y="0" font-size="11" style="overflow:visible"><text transform="" x="0" y="19" fill="#1B2030" font-size="11" text-anchor="middle"><tspan x="0" dy="0em">0%</tspan></text></svg></g><g class="visx-group visx-axis-tick" transform="translate(0, 0)"><line class="visx-line" x1="356.25" y1="0" x2="356.25" y2="8" fill="transparent" shape-rendering="crispEdges" stroke="#F2F0F9" stroke-width="1" stroke-linecap="square"></line><svg x="0" y="0" font-size="11" style="overflow:visible"><text transform="" x="356.25" y="19" fill="#1B2030" font-size="11" text-anchor="middle"><tspan x="356.25" dy="0em">25%</tspan></text></svg></g><g class="visx-group visx-axis-tick" transform="translate(0, 0)"><line class="visx-line" x1="712.5" y1="0" x2="712.5" y2="8" fill="transparent" shape-rendering="crispEdges" stroke="#F2F0F9" stroke-width="1" stroke-linecap="square"></line><svg x="0" y="0" font-size="11" style="overflow:visible"><text transform="" x="712.5" y="19" fill="#1B2030" font-size="11" text-anchor="middle"><tspan x="712.5" dy="0em">50%</tspan></text></svg></g><g class="visx-group visx-axis-tick" transform="translate(0, 0)"><line class="visx-line" x1="1068.75" y1="0" x2="1068.75" y2="8" fill="transparent" shape-rendering="crispEdges" stroke="#F2F0F9" stroke-width="1" stroke-linecap="square"></line><svg x="0" y="0" font-size="11" style="overflow:visible"><text transform="" x="1068.75" y="19" fill="#1B2030" font-size="11" text-anchor="middle"><tspan x="1068.75" dy="0em">75%</tspan></text></svg></g><g class="visx-group visx-axis-tick" transform="translate(0, 0)"><line class="visx-line" x1="1425" y1="0" x2="1425" y2="8" fill="transparent" shape-rendering="crispEdges" stroke="#F2F0F9" stroke-width="1" stroke-linecap="square"></line><svg x="0" y="0" font-size="11" style="overflow:visible"><text transform="" x="1425" y="19" fill="#1B2030" font-size="11" text-anchor="middle"><tspan x="1425" dy="0em">100%</tspan></text></svg></g></g><g class="visx-group visx-axis visx-axis-left" transform="translate(0, 0)"><g class="visx-group visx-axis-tick" transform="translate(0, 0)"><line class="visx-line" x1="0" y1="155" x2="-8" y2="155" fill="transparent" shape-rendering="crispEdges" stroke="#F2F0F9" stroke-width="1" stroke-linecap="square"></line><svg x="-30" y="0" font-size="11" style="overflow:visible"><text transform="" x="-8" y="155" fill="#1B2030" font-size="11" text-anchor="start"><tspan x="-8" dy="0em">0%</tspan></text></svg></g><g class="visx-group visx-axis-tick" transform="translate(0, 0)"><line class="visx-line" x1="0" y1="120.55555555555556" x2="-8" y2="120.55555555555556" fill="transparent" shape-rendering="crispEdges" stroke="#F2F0F9" stroke-width="1" stroke-linecap="square"></line><svg x="-30" y="0" font-size="11" style="overflow:visible"><text transform="" x="-8" y="120.55555555555556" fill="#1B2030" font-size="11" text-anchor="start"><tspan x="-8" dy="0em">200%</tspan></text></svg></g><g class="visx-group visx-axis-tick" transform="translate(0, 0)"><line class="visx-line" x1="0" y1="86.11111111111111" x2="-8" y2="86.11111111111111" fill="transparent" shape-rendering="crispEdges" stroke="#F2F0F9" stroke-width="1" stroke-linecap="square"></line><svg x="-30" y="0" font-size="11" style="overflow:visible"><text transform="" x="-8" y="86.11111111111111" fill="#1B2030" font-size="11" text-anchor="start"><tspan x="-8" dy="0em">400%</tspan></text></svg></g><g class="visx-group visx-axis-tick" transform="translate(0, 0)"><line class="visx-line" x1="0" y1="51.66666666666667" x2="-8" y2="51.66666666666667" fill="transparent" shape-rendering="crispEdges" stroke="#F2F0F9" stroke-width="1" stroke-linecap="square"></line><svg x="-30" y="0" font-size="11" style="overflow:visible"><text transform="" x="-8" y="51.66666666666667" fill="#1B2030" font-size="11" text-anchor="start"><tspan x="-8" dy="0em">600%</tspan></text></svg></g><g class="visx-group visx-axis-tick" transform="translate(0, 0)"><line class="visx-line" x1="0" y1="17.22222222222223" x2="-8" y2="17.22222222222223" fill="transparent" shape-rendering="crispEdges" stroke="#F2F0F9" stroke-width="1" stroke-linecap="square"></line><svg x="-30" y="0" font-size="11" style="overflow:visible"><text transform="" x="-8" y="17.22222222222223" fill="#1B2030" font-size="11" text-anchor="start"><tspan x="-8" dy="0em">800%</tspan></text></svg></g><line class="visx-line visx-axis-line" x1="0" y1="155.5" x2="0" y2="0.5" fill="transparent" shape-rendering="crispEdges" stroke="#F2F0F9" stroke-width="1"></line></g><rect class="visx-bar" width="1425" height="155" fill="transparent"></rect><line class="visx-line" x1="1140" y1="58" x2="1140" y2="155" fill="transparent" shape-rendering="crispEdges" stroke="#CDC8E1" stroke-width="1" pointer-events="none" stroke-dasharray="5"></line><svg x="0" y="0" font-size="11px" style="overflow:visible"><text transform="" x="1140" y="50" font-size="11px" fill="#555069" stroke="#FFFFFF" stroke-width="1px" text-anchor="middle"><tspan x="1140" dy="0.355em">Optimal utilization 80%</tspan></text></svg><svg x="0" y="0" font-size="11px" style="overflow:visible"><text transform="" x="1140" y="50" font-size="11px" fill="#CDC8E1" text-anchor="middle"><tspan x="1140" dy="0.355em">Optimal utilization 80%</tspan></text></svg></g></svg>