<?xml version="1.0"?><svg xmlns="http://www.w3.org/2000/svg" xmlns:xlink= "http://www.w3.org/1999/xlink" style="background: white;" width="1500" height="300"> <g style="color: black; font-size: 13px; font-family: sans-serif; transform: translate(18px, 25px);"><g><circle r="3" cx="-6" cy="-5" style="fill: #1AD4B3" /><text>Borrow APR, variable</text></g><g style="transform: translateX(150px);"><circle r="3" cx="-6" cy="-5" style="fill: #101423" /><text>Borrow APR, stable</text></g></g><g class="visx-group" transform="translate(45, 50)"><g class="visx-group visx-rows" transform="translate(0, 0)"><line class="visx-line" x1="0" y1="155" x2="1425" y2="155" fill="transparent" shape-rendering="crispEdges" stroke="#F2F0F9" stroke-width="1" pointer-events="none"></line><line class="visx-line" x1="0" y1="77.5" x2="1425" y2="77.5" fill="transparent" shape-rendering="crispEdges" stroke="#F2F0F9" stroke-width="1" pointer-events="none"></line><line class="visx-line" x1="0" y1="0" x2="1425" y2="0" fill="transparent" shape-rendering="crispEdges" stroke="#F2F0F9" stroke-width="1" pointer-events="none"></line></g><path class="visx-linepath" d="M0,154.99999999984837C2.375,154.97472826078112,4.75,154.94945652171387,7.125,154.9241847826087C9.5,154.89891304350354,11.875,154.8736413043478,14.25,154.84836956521738C16.625,154.82309782608695,19,154.79782608695652,21.375,154.7725543478261C23.75,154.74728260869566,26.125,154.72201086956522,28.5,154.6967391304348C30.875,154.67146739130436,33.25,154.6461956521739,35.625,154.62092391304347C38,154.59565217391304,40.375,154.5703804347826,42.75,154.54510869565217C45.125,154.51983695652174,47.50000000000001,154.4945652173913,49.87500000000001,154.46929347826088C52.25000000000001,154.44402173913045,54.625,154.41875000000002,57,154.39347826086959C59.375,154.36820652173915,61.75,154.3429347826087,64.125,154.31766304347826C66.5,154.29239130434783,68.875,154.26711956521737,71.25,154.24184782608694C73.625,154.2165760869565,76,154.19130434782608,78.375,154.16603260869564C80.75,154.1407608695652,83.125,154.11548913043478,85.5,154.09021739130435C87.875,154.06494565217392,90.25,154.03967391304346,92.625,154.01440217391303C95,153.9891304347826,97.37500000000001,153.96385869565216,99.75000000000001,153.93858695652173C102.12500000000001,153.9133152173913,104.5,153.88804347826087,106.875,153.86277173913044C109.25,153.8375,111.625,153.81222826086955,114,153.7869565217391C116.375,153.76168478260868,118.75000000000001,153.73641304347825,121.12500000000001,153.71114130434782C123.50000000000001,153.6858695652174,125.875,153.66059782608696,128.25,153.63532608695652C130.625,153.6100543478261,133,153.58478260869566,135.375,153.55951086956523C137.75,153.5342391304348,140.125,153.50896739130434,142.5,153.4836956521739C144.875,153.45842391304348,147.25,153.43315217391304,149.625,153.4078804347826C152,153.38260869565218,154.375,153.35733695652175,156.75,153.33206521739132C159.125,153.3067934782609,161.5,153.28152173913043,163.875,153.25625C166.25,153.23097826086956,168.625,153.20570652173913,171,153.1804347826087C173.375,153.15516304347827,175.75,153.12989130434784,178.125,153.1046195652174C180.5,153.07934782608697,182.875,153.0540760869565,185.25,153.02880434782608C187.625,153.00353260869565,190,152.97826086956522,192.375,152.9529891304348C194.75,152.92771739130436,197.12500000000003,152.90244565217392,199.50000000000003,152.8771739130435C201.875,152.85190217391306,204.25,152.8266304347826,206.62499999999997,152.80135869565217C208.99999999999997,152.77608695652174,211.375,152.7508152173913,213.75,152.72554347826087C216.125,152.70027173913044,218.5,152.67499999999998,220.875,152.64972826086955C223.25,152.62445652173912,225.625,152.5991847826087,228,152.57391304347826C230.375,152.54864130434783,232.75,152.5233695652174,235.125,152.49809782608696C237.5,152.47282608695653,239.87500000000003,152.44755434782607,242.25000000000003,152.42228260869564C244.625,152.3970108695652,247,152.37173913043478,249.37499999999997,152.34646739130434C251.74999999999997,152.3211956521739,254.125,152.29592391304348,256.5,152.27065217391305C258.875,152.24538043478262,261.25,152.22010869565216,263.625,152.19483695652173C266,152.1695652173913,268.375,152.14429347826086,270.75,152.11902173913043C273.125,152.09375,275.5,152.06847826086957,277.875,152.04320652173914C280.25,152.0179347826087,282.625,151.99266304347825,285,151.9673913043478C287.375,151.94211956521738,289.75,151.91684782608695,292.125,151.89157608695652C294.5,151.8663043478261,296.875,151.84103260869566,299.25,151.81576086956522C301.625,151.7904891304348,304,151.76521739130436,306.375,151.73994565217393C308.75,151.7146739130435,311.125,151.68940217391304,313.5,151.6641304347826C315.875,151.63885869565217,318.25,151.61358695652174,320.625,151.5883152173913C323,151.56304347826088,325.375,151.53777173913045,327.75,151.51250000000002C330.125,151.48722826086959,332.5,151.46195652173913,334.875,151.4366847826087C337.25,151.41141304347826,339.625,151.38614130434783,342,151.3608695652174C344.375,151.33559782608697,346.75,151.31032608695654,349.125,151.2850543478261C351.5,151.25978260869567,353.875,151.2345108695652,356.25,151.20923913043478C358.625,151.18396739130435,361,151.1586956521739,363.375,151.13342391304346C365.75,151.10815217391303,368.125,151.0828804347826,370.5,151.05760869565216C372.875,151.03233695652173,375.25,151.0070652173913,377.625,150.98179347826087C380,150.95652173913044,382.375,150.93125,384.75,150.90597826086957C387.125,150.88070652173914,389.50000000000006,150.85543478260868,391.87500000000006,150.83016304347825C394.25000000000006,150.80489130434782,396.62500000000006,150.7796195652174,399.00000000000006,150.75434782608696C401.375,150.72907608695652,403.75,150.7038043478261,406.12499999999994,150.67853260869566C408.49999999999994,150.65326086956523,410.87499999999994,150.62798913043477,413.24999999999994,150.60271739130434C415.62499999999994,150.5774456521739,418,150.55217391304348,420.375,150.52690217391304C422.75,150.5016304347826,425.125,150.47635869565218,427.5,150.45108695652175C429.875,150.42581521739132,432.25,150.40054347826086,434.625,150.37527173913043C437,150.35,439.375,150.32472826086956,441.75,150.29945652173913C444.125,150.2741847826087,446.5,150.24891304347827,448.875,150.22364130434784C451.25,150.1983695652174,453.625,150.17309782608694,456,150.1478260869565C458.375,150.12255434782608,460.75,150.09728260869565,463.125,150.07201086956522C465.5,150.0467391304348,467.875,150.02146739130436,470.25,149.99619565217392C472.625,149.9709239130435,475.00000000000006,149.94565217391306,477.37500000000006,149.92038043478263C479.75000000000006,149.8951086956522,482.12500000000006,149.86983695652174,484.50000000000006,149.8445652173913C486.875,149.81929347826087,489.25,149.79402173913044,491.62499999999994,149.76875C493.99999999999994,149.74347826086958,496.37499999999994,149.71820652173912,498.74999999999994,149.6929347826087C501.12499999999994,149.66766304347826,503.5,149.64239130434783,505.875,149.6171195652174C508.25,149.59184782608696,510.625,149.5665760869565,513,149.54130434782607C515.375,149.51603260869564,517.75,149.4907608695652,520.125,149.46548913043478C522.5,149.44021739130434,524.875,149.4149456521739,527.25,149.38967391304348C529.625,149.36440217391305,532,149.3391304347826,534.375,149.31385869565216C536.75,149.28858695652173,539.125,149.2633152173913,541.5,149.23804347826086C543.875,149.21277173913043,546.25,149.1875,548.625,149.16222826086957C551,149.13695652173914,553.375,149.1116847826087,555.75,149.08641304347827C558.125,149.06114130434784,560.5,149.03586956521738,562.875,149.01059782608695C565.25,148.98532608695652,567.625,148.9600543478261,570,148.93478260869566C572.375,148.90951086956522,574.75,148.8842391304348,577.125,148.85896739130436C579.5,148.83369565217393,581.875,148.80842391304347,584.25,148.78315217391304C586.625,148.7578804347826,589,148.73260869565217,591.375,148.70733695652174C593.75,148.6820652173913,596.125,148.65679347826088,598.5,148.63152173913045C600.875,148.60625000000002,603.25,148.58097826086956,605.625,148.55570652173913C608,148.5304347826087,610.375,148.50516304347826,612.75,148.47989130434783C615.125,148.4546195652174,617.5,148.42934782608697,619.875,148.40407608695654C622.25,148.3788043478261,624.625,148.35353260869564,627,148.3282608695652C629.375,148.30298913043478,631.75,148.27771739130435,634.125,148.25244565217392C636.5,148.2271739130435,638.875,148.20190217391303,641.25,148.1766304347826C643.625,148.15135869565216,646,148.12608695652173,648.375,148.1008152173913C650.75,148.07554347826087,653.125,148.05027173913044,655.5,148.025C657.875,147.99972826086957,660.25,147.9744565217391,662.625,147.94918478260868C665,147.92391304347825,667.375,147.89864130434782,669.75,147.8733695652174C672.125,147.84809782608696,674.5,147.82282608695652,676.875,147.7975543478261C679.25,147.77228260869566,681.625,147.7470108695652,684,147.72173913043477C686.375,147.69646739130434,688.75,147.6711956521739,691.125,147.64592391304348C693.5,147.62065217391304,695.875,147.5953804347826,698.25,147.57010869565218C700.625,147.54483695652175,703,147.5195652173913,705.375,147.49429347826086C707.75,147.46902173913043,710.125,147.44375,712.5,147.41847826086956C714.875,147.39320652173913,717.25,147.3679347826087,719.625,147.34266304347827C722,147.31739130434784,724.375,147.29211956521738,726.75,147.26684782608694C729.125,147.2415760869565,731.5,147.21630434782608,733.875,147.19103260869565C736.25,147.16576086956522,738.625,147.1404891304348,741,147.11521739130436C743.375,147.08994565217392,745.75,147.0646739130435,748.125,147.03940217391306C750.5,147.01413043478263,752.875,146.98885869565217,755.25,146.96358695652174C757.625,146.9383152173913,760,146.91304347826087,762.375,146.88777173913044C764.75,146.8625,767.125,146.83722826086958,769.5,146.81195652173915C771.875,146.78668478260872,774.2500000000001,146.76141304347826,776.6250000000001,146.73614130434783C779.0000000000001,146.7108695652174,781.3750000000001,146.68559782608693,783.7500000000001,146.6603260869565C786.1250000000001,146.63505434782607,788.5000000000001,146.60978260869564,790.8750000000001,146.5845108695652C793.2500000000001,146.55923913043478,795.6250000000001,146.53396739130434,798.0000000000001,146.5086956521739C800.375,146.48342391304348,802.75,146.45815217391302,805.1249999999999,146.4328804347826C807.4999999999999,146.40760869565216,809.8749999999999,146.38233695652173,812.2499999999999,146.3570652173913C814.6249999999999,146.33179347826086,816.9999999999999,146.30652173913043,819.3749999999999,146.28125C821.7499999999999,146.25597826086957,824.1249999999999,146.23070652173914,826.4999999999999,146.2054347826087C828.8749999999999,146.18016304347827,831.25,146.1548913043478,833.625,146.12961956521738C836,146.10434782608695,838.375,146.07907608695652,840.75,146.0538043478261C843.125,146.02853260869566,845.5,146.00326086956522,847.875,145.9779891304348C850.25,145.95271739130436,852.625,145.9274456521739,855,145.90217391304347C857.375,145.87690217391304,859.75,145.8516304347826,862.125,145.82635869565217C864.5,145.80108695652174,866.875,145.7758152173913,869.25,145.75054347826088C871.625,145.72527173913045,874,145.7,876.375,145.67472826086956C878.75,145.64945652173913,881.125,145.6241847826087,883.5,145.59891304347826C885.875,145.57364130434783,888.25,145.5483695652174,890.625,145.52309782608697C893,145.49782608695654,895.375,145.47255434782608,897.75,145.44728260869564C900.125,145.4220108695652,902.5,145.39673913043478,904.875,145.37146739130435C907.25,145.34619565217392,909.625,145.3209239130435,912,145.29565217391306C914.375,145.27038043478262,916.75,145.24510869565216,919.125,145.21983695652173C921.5,145.1945652173913,923.875,145.16929347826087,926.25,145.14402173913044C928.625,145.11875,931,145.09347826086955,933.375,145.0682065217391C935.75,145.04293478260868,938.125,145.01766304347825,940.5,144.99239130434782C942.875,144.9671195652174,945.25,144.94184782608696,947.625,144.91657608695652C950,144.8913043478261,952.3750000000001,144.86603260869563,954.7500000000001,144.8407608695652C957.1250000000001,144.81548913043477,959.5000000000001,144.79021739130434,961.8750000000001,144.7649456521739C964.2500000000001,144.73967391304348,966.6250000000001,144.71440217391304,969.0000000000001,144.6891304347826C971.3750000000001,144.66385869565218,973.7500000000001,144.63858695652172,976.1250000000001,144.6133152173913C978.5,144.58804347826086,980.875,144.56277173913043,983.2499999999999,144.5375C985.6249999999999,144.51222826086956,987.9999999999999,144.48695652173913,990.3749999999999,144.4616847826087C992.7499999999999,144.43641304347827,995.1249999999999,144.41114130434784,997.4999999999999,144.3858695652174C999.8749999999999,144.36059782608697,1002.2499999999999,144.3353260869565,1004.6249999999999,144.31005434782608C1006.9999999999999,144.28478260869565,1009.375,144.25951086956522,1011.75,144.2342391304348C1014.125,144.20896739130436,1016.5,144.18369565217392,1018.875,144.1584239130435C1021.25,144.13315217391306,1023.625,144.1078804347826,1026,144.08260869565217C1028.375,144.05733695652174,1030.75,144.0320652173913,1033.125,144.00679347826087C1035.5,143.98152173913044,1037.875,143.95625,1040.25,143.93097826086958C1042.625,143.90570652173915,1045,143.8804347826087,1047.375,143.85516304347826C1049.75,143.82989130434783,1052.125,143.80461956521737,1054.5,143.77934782608693C1056.875,143.7540760869565,1059.25,143.7288043478261,1061.625,143.70353260869567C1064,143.67826086956524,1066.375,143.65298913043478,1068.75,143.62771739130434C1071.125,143.6024456521739,1073.5,143.57717391304348,1075.875,143.55190217391305C1078.25,143.52663043478262,1080.625,143.50135869565216,1083,143.47608695652173C1085.375,143.4508152173913,1087.75,143.42554347826086,1090.125,143.40027173913043C1092.5,143.375,1094.875,143.34972826086957,1097.25,143.32445652173914C1099.625,143.2991847826087,1102,143.27391304347825,1104.375,143.2486413043478C1106.75,143.22336956521738,1109.125,143.19809782608695,1111.5,143.17282608695652C1113.875,143.1475543478261,1116.25,143.12228260869566,1118.625,143.09701086956522C1121,143.0717391304348,1123.375,143.04646739130433,1125.75,143.0211956521739C1128.125,142.99592391304347,1130.5,142.97065217391304,1132.875,142.9453804347826C1135.25,142.92010869565217,1137.625,142.89483695652174,1140,142.8695652173913C1142.375,142.84429347826088,1144.75,142.81902173913042,1147.125,142.79375C1149.5,142.76847826086956,1151.875,142.74320652173913,1154.25,142.7179347826087C1156.625,142.69266304347826,1159,142.66739130434783,1161.375,142.6421195652174C1163.75,142.61684782608697,1166.125,142.59157608695654,1168.5,142.5663043478261C1170.875,142.54103260869567,1173.25,142.5157608695652,1175.625,142.49048913043478C1178,142.46521739130435,1180.375,142.43994565217392,1182.75,142.4146739130435C1185.125,142.38940217391306,1187.5,142.36413043478262,1189.875,142.3388586956522C1192.25,142.31358695652176,1194.625,142.2883152173913,1197,142.26304347826087C1199.375,142.23777173913044,1201.75,142.21249999999998,1204.125,142.18722826086955C1206.5,142.1619565217391,1208.875,142.1366847826087,1211.25,142.11141304347828C1213.625,142.08614130434785,1216,142.0608695652174,1218.375,142.03559782608696C1220.75,142.01032608695652,1223.125,141.98505434782606,1225.5,141.95978260869563C1227.875,141.9345108695652,1230.25,141.90923913043477,1232.625,141.88396739130434C1235,141.8586956521739,1237.375,141.83342391304348,1239.75,141.80815217391304C1242.125,141.7828804347826,1244.5,141.75760869565218,1246.875,141.73233695652175C1249.25,141.70706521739132,1251.625,141.68179347826086,1254,141.65652173913043C1256.375,141.63125,1258.75,141.60597826086956,1261.125,141.58070652173913C1263.5,141.5554347826087,1265.875,141.53016304347827,1268.25,141.50489130434784C1270.625,141.4796195652174,1273,141.45434782608694,1275.375,141.4290760869565C1277.75,141.40380434782608,1280.125,141.37853260869565,1282.5,141.35326086956522C1284.875,141.3279891304348,1287.25,141.30271739130436,1289.625,141.27744565217392C1292,141.2521739130435,1294.375,141.22690217391303,1296.75,141.2016304347826C1299.125,141.17635869565217,1301.5,141.15108695652174,1303.875,141.1258152173913C1306.25,141.10054347826087,1308.625,141.10054347826087,1311,141.05C1313.375,140.99945652173915,1315.75,136.20625,1318.125,133.784375C1320.5,131.3625,1322.875,128.940625,1325.25,126.51875000000001C1327.625,124.09687500000001,1330,121.67500000000001,1332.375,119.25312500000001C1334.75,116.83125000000001,1337.125,114.40937499999998,1339.5,111.98749999999998C1341.875,109.56562499999998,1344.25,107.14374999999998,1346.625,104.72187499999998C1349,102.29999999999998,1351.375,99.87812499999998,1353.75,97.45624999999998C1356.125,95.03437499999998,1358.5,92.61249999999998,1360.875,90.19062499999998C1363.25,87.76874999999998,1365.625,85.34687499999998,1368,82.92499999999998C1370.375,80.50312499999998,1372.75,78.08125000000001,1375.125,75.65937500000001C1377.5,73.23750000000001,1379.875,70.81562500000001,1382.25,68.39375000000001C1384.625,65.97187500000001,1387,63.550000000000004,1389.375,61.128125000000004C1391.75,58.706250000000004,1394.125,56.284375000000004,1396.5,53.862500000000004C1398.875,51.440625000000004,1401.25,49.018750000000004,1403.625,46.596875000000004C1406,44.175000000000004,1408.375,41.753125000000004,1410.75,39.331250000000004C1413.125,36.909375000000004,1415.5,34.487500000000004,1417.875,32.065625000000004C1420.25,29.643750000000004,1422.625,27.221875000000004,1425,24.800000000000004" fill="transparent" stroke-linecap="round" stroke="#1AD4B3" stroke-width="2"></path><g class="visx-group visx-axis visx-axis-bottom" transform="translate(0, 155)"><g class="visx-group visx-axis-tick" transform="translate(0, 0)"><line class="visx-line" x1="0" y1="0" x2="0" y2="8" fill="transparent" shape-rendering="crispEdges" stroke="#F2F0F9" stroke-width="1" stroke-linecap="square"></line><svg x="0" y="0" font-size="11" style="overflow:visible"><text transform="" x="0" y="19" fill="#1B2030" font-size="11" text-anchor="middle"><tspan x="0" dy="0em">0%</tspan></text></svg></g><g class="visx-group visx-axis-tick" transform="translate(0, 0)"><line class="visx-line" x1="356.25" y1="0" x2="356.25" y2="8" fill="transparent" shape-rendering="crispEdges" stroke="#F2F0F9" stroke-width="1" stroke-linecap="square"></line><svg x="0" y="0" font-size="11" style="overflow:visible"><text transform="" x="356.25" y="19" fill="#1B2030" font-size="11" text-anchor="middle"><tspan x="356.25" dy="0em">25%</tspan></text></svg></g><g class="visx-group visx-axis-tick" transform="translate(0, 0)"><line class="visx-line" x1="712.5" y1="0" x2="712.5" y2="8" fill="transparent" shape-rendering="crispEdges" stroke="#F2F0F9" stroke-width="1" stroke-linecap="square"></line><svg x="0" y="0" font-size="11" style="overflow:visible"><text transform="" x="712.5" y="19" fill="#1B2030" font-size="11" text-anchor="middle"><tspan x="712.5" dy="0em">50%</tspan></text></svg></g><g class="visx-group visx-axis-tick" transform="translate(0, 0)"><line class="visx-line" x1="1068.75" y1="0" x2="1068.75" y2="8" fill="transparent" shape-rendering="crispEdges" stroke="#F2F0F9" stroke-width="1" stroke-linecap="square"></line><svg x="0" y="0" font-size="11" style="overflow:visible"><text transform="" x="1068.75" y="19" fill="#1B2030" font-size="11" text-anchor="middle"><tspan x="1068.75" dy="0em">75%</tspan></text></svg></g><g class="visx-group visx-axis-tick" transform="translate(0, 0)"><line class="visx-line" x1="1425" y1="0" x2="1425" y2="8" fill="transparent" shape-rendering="crispEdges" stroke="#F2F0F9" stroke-width="1" stroke-linecap="square"></line><svg x="0" y="0" font-size="11" style="overflow:visible"><text transform="" x="1425" y="19" fill="#1B2030" font-size="11" text-anchor="middle"><tspan x="1425" dy="0em">100%</tspan></text></svg></g></g><g class="visx-group visx-axis visx-axis-left" transform="translate(0, 0)"><g class="visx-group visx-axis-tick" transform="translate(0, 0)"><line class="visx-line" x1="0" y1="155" x2="-8" y2="155" fill="transparent" shape-rendering="crispEdges" stroke="#F2F0F9" stroke-width="1" stroke-linecap="square"></line><svg x="-30" y="0" font-size="11" style="overflow:visible"><text transform="" x="-8" y="155" fill="#1B2030" font-size="11" text-anchor="start"><tspan x="-8" dy="0em">0%</tspan></text></svg></g><g class="visx-group visx-axis-tick" transform="translate(0, 0)"><line class="visx-line" x1="0" y1="77.5" x2="-8" y2="77.5" fill="transparent" shape-rendering="crispEdges" stroke="#F2F0F9" stroke-width="1" stroke-linecap="square"></line><svg x="-30" y="0" font-size="11" style="overflow:visible"><text transform="" x="-8" y="77.5" fill="#1B2030" font-size="11" text-anchor="start"><tspan x="-8" dy="0em">50%</tspan></text></svg></g><g class="visx-group visx-axis-tick" transform="translate(0, 0)"><line class="visx-line" x1="0" y1="0" x2="-8" y2="0" fill="transparent" shape-rendering="crispEdges" stroke="#F2F0F9" stroke-width="1" stroke-linecap="square"></line><svg x="-30" y="0" font-size="11" style="overflow:visible"><text transform="" x="-8" y="0" fill="#1B2030" font-size="11" text-anchor="start"><tspan x="-8" dy="0em">100%</tspan></text></svg></g><line class="visx-line visx-axis-line" x1="0" y1="155.5" x2="0" y2="0.5" fill="transparent" shape-rendering="crispEdges" stroke="#F2F0F9" stroke-width="1"></line></g><rect class="visx-bar" width="1425" height="155" fill="transparent"></rect><line class="visx-line" x1="1311" y1="58" x2="1311" y2="155" fill="transparent" shape-rendering="crispEdges" stroke="#CDC8E1" stroke-width="1" pointer-events="none" stroke-dasharray="5"></line><svg x="0" y="0" font-size="11px" style="overflow:visible"><text transform="" x="1311" y="50" font-size="11px" fill="#555069" stroke="#FFFFFF" stroke-width="1px" text-anchor="middle"><tspan x="1311" dy="0.355em">Optimal utilization 92%</tspan></text></svg><svg x="0" y="0" font-size="11px" style="overflow:visible"><text transform="" x="1311" y="50" font-size="11px" fill="#CDC8E1" text-anchor="middle"><tspan x="1311" dy="0.355em">Optimal utilization 92%</tspan></text></svg></g></svg>