<?xml version="1.0"?><svg xmlns="http://www.w3.org/2000/svg" xmlns:xlink= "http://www.w3.org/1999/xlink" style="background: white;" width="1500" height="185"> <g style="color: black; font-size: 13px; font-family: sans-serif; transform: translate(18px, 25px);"><g><circle r="3" cx="-6" cy="-5" style="fill: #B6509E" /><text>Borrow APR, variable</text></g><g style="transform: translateX(150px);"><circle r="3" cx="-6" cy="-5" style="fill: rgb(231, 198, 223)" /><text>Borrow APR, stable</text></g><g style="transform: translateX(290px);"><circle r="3" cx="-6" cy="-5" style="fill: rgb(0, 98, 210)" /><text>Utilization Rate</text></g></g><g class="visx-group" transform="translate(40, 50)"><g class="visx-group visx-rows" transform="translate(0, 0)"><line class="visx-line" x1="0" y1="115" x2="1450" y2="115" fill="transparent" shape-rendering="crispEdges" stroke="#000" stroke-width="1" stroke-dasharray="3,3" pointer-events="none"></line><line class="visx-line" x1="0" y1="89.44444444444444" x2="1450" y2="89.44444444444444" fill="transparent" shape-rendering="crispEdges" stroke="#000" stroke-width="1" stroke-dasharray="3,3" pointer-events="none"></line><line class="visx-line" x1="0" y1="63.88888888888889" x2="1450" y2="63.88888888888889" fill="transparent" shape-rendering="crispEdges" stroke="#000" stroke-width="1" stroke-dasharray="3,3" pointer-events="none"></line><line class="visx-line" x1="0" y1="38.333333333333336" x2="1450" y2="38.333333333333336" fill="transparent" shape-rendering="crispEdges" stroke="#000" stroke-width="1" stroke-dasharray="3,3" pointer-events="none"></line><line class="visx-line" x1="0" y1="12.777777777777784" x2="1450" y2="12.777777777777784" fill="transparent" shape-rendering="crispEdges" stroke="#000" stroke-width="1" stroke-dasharray="3,3" pointer-events="none"></line></g><path class="visx-linepath" d="M0,114.99999999993611C2.4166666666666665,114.98935185181458,4.833333333333334,114.97870370369304,7.25,114.96805555555555C9.666666666666666,114.95740740741806,12.083333333333334,114.94675925925927,14.5,114.93611111111112C16.916666666666668,114.92546296296297,19.333333333333332,114.91481481481482,21.75,114.90416666666667C24.166666666666668,114.89351851851852,26.583333333333332,114.88287037037038,29,114.87222222222223C31.416666666666668,114.86157407407408,33.833333333333336,114.85092592592592,36.25,114.84027777777777C38.666666666666664,114.82962962962962,41.083333333333336,114.81898148148147,43.5,114.80833333333332C45.91666666666667,114.79768518518517,48.333333333333336,114.78703703703704,50.75000000000001,114.77638888888889C53.16666666666667,114.76574074074074,55.583333333333336,114.75509259259259,58,114.74444444444444C60.416666666666664,114.73379629629629,62.833333333333336,114.72314814814816,65.25,114.7125C67.66666666666667,114.70185185185186,70.08333333333333,114.6912037037037,72.5,114.68055555555556C74.91666666666667,114.66990740740741,77.33333333333333,114.65925925925926,79.75,114.64861111111111C82.16666666666667,114.63796296296296,84.58333333333333,114.62731481481482,87,114.61666666666667C89.41666666666667,114.60601851851852,91.83333333333333,114.59537037037038,94.25,114.58472222222223C96.66666666666667,114.57407407407408,99.08333333333334,114.56342592592593,101.50000000000001,114.55277777777778C103.91666666666667,114.54212962962963,106.33333333333334,114.53148148148148,108.75,114.52083333333333C111.16666666666667,114.51018518518518,113.58333333333333,114.49953703703703,116,114.48888888888888C118.41666666666667,114.47824074074073,120.83333333333334,114.4675925925926,123.25000000000001,114.45694444444445C125.66666666666667,114.4462962962963,128.08333333333334,114.43564814814815,130.5,114.425C132.91666666666666,114.41435185185185,135.33333333333334,114.4037037037037,137.75,114.39305555555555C140.16666666666666,114.3824074074074,142.58333333333334,114.37175925925926,145,114.36111111111111C147.41666666666666,114.35046296296296,149.83333333333334,114.33981481481482,152.25,114.32916666666667C154.66666666666666,114.31851851851852,157.08333333333334,114.30787037037038,159.5,114.29722222222223C161.91666666666666,114.28657407407408,164.33333333333334,114.27592592592593,166.75,114.26527777777778C169.16666666666666,114.25462962962963,171.58333333333334,114.24398148148148,174,114.23333333333333C176.41666666666666,114.22268518518518,178.83333333333334,114.21203703703704,181.25,114.20138888888889C183.66666666666666,114.19074074074074,186.08333333333334,114.18009259259259,188.5,114.16944444444444C190.91666666666666,114.15879629629629,193.33333333333334,114.14814814814815,195.75,114.1375C198.16666666666669,114.12685185185185,200.58333333333334,114.1162037037037,203.00000000000003,114.10555555555555C205.41666666666669,114.0949074074074,207.83333333333331,114.08425925925926,210.24999999999997,114.0736111111111C212.66666666666666,114.06296296296296,215.08333333333331,114.05231481481482,217.5,114.04166666666667C219.91666666666666,114.03101851851852,222.33333333333334,114.02037037037037,224.75,114.00972222222222C227.16666666666666,113.99907407407407,229.58333333333334,113.98842592592594,232,113.97777777777779C234.41666666666666,113.96712962962964,236.83333333333334,113.95648148148149,239.25,113.94583333333334C241.66666666666669,113.93518518518519,244.08333333333334,113.92453703703704,246.50000000000003,113.91388888888889C248.91666666666669,113.90324074074074,251.33333333333331,113.89259259259259,253.74999999999997,113.88194444444444C256.16666666666663,113.8712962962963,258.5833333333333,113.86064814814814,261,113.85C263.4166666666667,113.83935185185184,265.8333333333333,113.8287037037037,268.25,113.81805555555555C270.6666666666667,113.8074074074074,273.0833333333333,113.79675925925926,275.5,113.78611111111111C277.9166666666667,113.77546296296296,280.3333333333333,113.76481481481481,282.75,113.75416666666666C285.1666666666667,113.74351851851851,287.5833333333333,113.73287037037038,290,113.72222222222223C292.4166666666667,113.71157407407408,294.8333333333333,113.70092592592593,297.25,113.69027777777778C299.6666666666667,113.67962962962963,302.0833333333333,113.66898148148148,304.5,113.65833333333333C306.9166666666667,113.64768518518518,309.3333333333333,113.63703703703705,311.75,113.6263888888889C314.1666666666667,113.61574074074075,316.5833333333333,113.6050925925926,319,113.59444444444445C321.4166666666667,113.5837962962963,323.8333333333333,113.57314814814815,326.25,113.5625C328.6666666666667,113.55185185185185,331.0833333333333,113.5412037037037,333.5,113.53055555555555C335.9166666666667,113.5199074074074,338.3333333333333,113.50925925925925,340.75,113.4986111111111C343.1666666666667,113.48796296296295,345.5833333333333,113.47731481481482,348,113.46666666666667C350.4166666666667,113.45601851851852,352.8333333333333,113.44537037037037,355.25,113.43472222222222C357.6666666666667,113.42407407407407,360.0833333333333,113.41342592592594,362.5,113.40277777777779C364.9166666666667,113.39212962962964,367.3333333333333,113.38148148148149,369.75,113.37083333333334C372.1666666666667,113.36018518518519,374.5833333333333,113.34953703703704,377,113.33888888888889C379.4166666666667,113.32824074074074,381.8333333333333,113.3175925925926,384.25,113.30694444444445C386.6666666666667,113.2962962962963,389.0833333333333,113.28564814814814,391.5,113.27499999999999C393.9166666666667,113.26435185185184,396.33333333333337,113.2537037037037,398.75000000000006,113.24305555555556C401.16666666666674,113.23240740740741,403.58333333333337,113.22175925925926,406.00000000000006,113.21111111111111C408.4166666666667,113.20046296296296,410.8333333333333,113.18981481481481,413.24999999999994,113.17916666666666C415.66666666666663,113.16851851851851,418.08333333333326,113.15787037037038,420.49999999999994,113.14722222222223C422.91666666666663,113.13657407407408,425.3333333333333,113.12592592592593,427.75,113.11527777777778C430.1666666666667,113.10462962962963,432.5833333333333,113.09398148148148,435,113.08333333333333C437.4166666666667,113.07268518518518,439.8333333333333,113.06203703703704,442.25,113.0513888888889C444.6666666666667,113.04074074074074,447.0833333333333,113.0300925925926,449.5,113.01944444444445C451.9166666666667,113.0087962962963,454.3333333333333,112.99814814814816,456.75,112.98750000000001C459.1666666666667,112.97685185185186,461.5833333333333,112.9662037037037,464,112.95555555555555C466.4166666666667,112.9449074074074,468.8333333333333,112.93425925925925,471.25,112.9236111111111C473.6666666666667,112.91296296296295,476.0833333333333,112.90231481481482,478.5,112.89166666666667C480.9166666666667,112.88101851851852,483.33333333333337,112.87037037037037,485.75000000000006,112.85972222222222C488.16666666666674,112.84907407407407,490.58333333333337,112.83842592592593,493.00000000000006,112.82777777777778C495.4166666666667,112.81712962962963,497.8333333333333,112.80648148148148,500.24999999999994,112.79583333333333C502.66666666666663,112.78518518518518,505.08333333333326,112.77453703703704,507.49999999999994,112.76388888888889C509.91666666666663,112.75324074074074,512.3333333333333,112.7425925925926,514.75,112.73194444444445C517.1666666666666,112.7212962962963,519.5833333333334,112.71064814814815,522,112.7C524.4166666666666,112.68935185185185,526.8333333333334,112.6787037037037,529.25,112.66805555555555C531.6666666666666,112.6574074074074,534.0833333333334,112.64675925925926,536.5,112.6361111111111C538.9166666666666,112.62546296296296,541.3333333333334,112.6148148148148,543.75,112.60416666666666C546.1666666666666,112.59351851851851,548.5833333333334,112.58287037037037,551,112.57222222222222C553.4166666666666,112.56157407407407,555.8333333333334,112.55092592592592,558.25,112.54027777777777C560.6666666666666,112.52962962962962,563.0833333333334,112.51898148148148,565.5,112.50833333333333C567.9166666666666,112.49768518518518,570.3333333333334,112.48703703703704,572.75,112.47638888888889C575.1666666666666,112.46574074074074,577.5833333333334,112.45509259259259,580,112.44444444444444C582.4166666666666,112.4337962962963,584.8333333333334,112.42314814814816,587.25,112.41250000000001C589.6666666666666,112.40185185185186,592.0833333333334,112.39120370370371,594.5,112.38055555555556C596.9166666666666,112.36990740740741,599.3333333333334,112.35925925925926,601.75,112.34861111111111C604.1666666666666,112.33796296296296,606.5833333333334,112.32731481481481,609,112.31666666666666C611.4166666666666,112.30601851851851,613.8333333333334,112.29537037037036,616.25,112.28472222222221C618.6666666666666,112.27407407407406,621.0833333333334,112.26342592592593,623.5,112.25277777777778C625.9166666666666,112.24212962962963,628.3333333333334,112.23148148148148,630.75,112.22083333333333C633.1666666666666,112.21018518518518,635.5833333333334,112.19953703703703,638,112.18888888888888C640.4166666666666,112.17824074074073,642.8333333333334,112.1675925925926,645.25,112.15694444444445C647.6666666666666,112.1462962962963,650.0833333333334,112.13564814814815,652.5,112.125C654.9166666666666,112.11435185185185,657.3333333333334,112.10370370370372,659.75,112.09305555555557C662.1666666666666,112.08240740740742,664.5833333333334,112.07175925925927,667,112.06111111111112C669.4166666666666,112.05046296296297,671.8333333333334,112.03981481481482,674.25,112.02916666666667C676.6666666666666,112.01851851851852,679.0833333333334,112.00787037037037,681.5,111.99722222222222C683.9166666666666,111.98657407407407,686.3333333333334,111.97592592592592,688.75,111.96527777777777C691.1666666666666,111.95462962962962,693.5833333333334,111.94398148148149,696,111.93333333333334C698.4166666666666,111.92268518518519,700.8333333333334,111.91203703703704,703.25,111.90138888888889C705.6666666666666,111.89074074074074,708.0833333333334,111.88009259259259,710.5,111.86944444444444C712.9166666666666,111.85879629629629,715.3333333333334,111.84814814814816,717.75,111.8375C720.1666666666666,111.82685185185186,722.5833333333334,111.8162037037037,725,111.80555555555556C727.4166666666666,111.79490740740741,729.8333333333334,111.78425925925926,732.25,111.77361111111111C734.6666666666666,111.76296296296296,737.0833333333334,111.75231481481482,739.5,111.74166666666667C741.9166666666666,111.73101851851852,744.3333333333334,111.72037037037036,746.75,111.70972222222221C749.1666666666666,111.69907407407406,751.5833333333334,111.68842592592593,754,111.67777777777778C756.4166666666666,111.66712962962963,758.8333333333334,111.65648148148148,761.25,111.64583333333333C763.6666666666666,111.63518518518518,766.0833333333334,111.62453703703703,768.5,111.61388888888888C770.9166666666666,111.60324074074073,773.3333333333334,111.5925925925926,775.75,111.58194444444445C778.1666666666666,111.5712962962963,780.5833333333334,111.56064814814815,783,111.55C785.4166666666667,111.53935185185185,787.8333333333334,111.52870370370371,790.2500000000001,111.51805555555556C792.6666666666667,111.50740740740741,795.0833333333335,111.49675925925926,797.5000000000001,111.48611111111111C799.9166666666667,111.47546296296296,802.3333333333335,111.46481481481482,804.7500000000001,111.45416666666667C807.1666666666667,111.44351851851852,809.5833333333335,111.43287037037038,812.0000000000001,111.42222222222223C814.4166666666667,111.41157407407408,816.8333333333333,111.40092592592592,819.2499999999999,111.39027777777777C821.6666666666665,111.37962962962962,824.0833333333333,111.36898148148148,826.4999999999999,111.35833333333333C828.9166666666665,111.34768518518518,831.3333333333333,111.33703703703704,833.7499999999999,111.32638888888889C836.1666666666665,111.31574074074074,838.5833333333333,111.30509259259259,840.9999999999999,111.29444444444444C843.4166666666666,111.28379629629629,845.8333333333333,111.27314814814815,848.25,111.2625C850.6666666666666,111.25185185185185,853.0833333333334,111.2412037037037,855.5,111.23055555555555C857.9166666666666,111.2199074074074,860.3333333333334,111.20925925925927,862.75,111.19861111111112C865.1666666666666,111.18796296296297,867.5833333333334,111.17731481481482,870,111.16666666666667C872.4166666666666,111.15601851851852,874.8333333333334,111.14537037037037,877.25,111.13472222222222C879.6666666666666,111.12407407407407,882.0833333333334,111.11342592592594,884.5,111.10277777777779C886.9166666666666,111.09212962962964,889.3333333333334,111.08148148148148,891.75,111.07083333333333C894.1666666666666,111.06018518518518,896.5833333333334,111.04953703703703,899,111.03888888888888C901.4166666666666,111.02824074074073,903.8333333333334,111.01759259259259,906.25,111.00694444444444C908.6666666666666,110.9962962962963,911.0833333333334,110.98564814814814,913.5,110.975C915.9166666666666,110.96435185185184,918.3333333333334,110.95370370370371,920.75,110.94305555555556C923.1666666666666,110.93240740740741,925.5833333333334,110.92175925925926,928,110.91111111111111C930.4166666666666,110.90046296296296,932.8333333333334,110.88981481481481,935.25,110.87916666666666C937.6666666666666,110.86851851851851,940.0833333333334,110.85787037037038,942.5,110.84722222222223C944.9166666666666,110.83657407407408,947.3333333333334,110.82592592592593,949.75,110.81527777777778C952.1666666666666,110.80462962962963,954.5833333333334,110.79398148148148,957,110.78333333333333C959.4166666666666,110.77268518518518,961.8333333333334,110.76203703703703,964.25,110.75138888888888C966.6666666666667,110.74074074074073,969.0833333333334,110.73009259259258,971.5000000000001,110.71944444444443C973.9166666666667,110.70879629629628,976.3333333333335,110.69814814814815,978.7500000000001,110.6875C981.1666666666667,110.67685185185185,983.5833333333335,110.6662037037037,986.0000000000001,110.65555555555555C988.4166666666667,110.6449074074074,990.8333333333335,110.63425925925927,993.2500000000001,110.62361111111112C995.6666666666667,110.61296296296297,998.0833333333333,110.60231481481482,1000.4999999999999,110.59166666666667C1002.9166666666665,110.58101851851852,1005.3333333333333,110.57037037037037,1007.7499999999999,110.55972222222222C1010.1666666666665,110.54907407407407,1012.5833333333333,110.53842592592594,1014.9999999999999,110.52777777777779C1017.4166666666665,110.51712962962964,1019.8333333333333,110.50648148148149,1022.2499999999999,110.49583333333334C1024.6666666666665,110.48518518518519,1027.0833333333333,110.47453703703704,1029.5,110.46388888888889C1031.9166666666667,110.45324074074074,1034.3333333333333,110.44259259259259,1036.75,110.43194444444444C1039.1666666666667,110.42129629629629,1041.5833333333333,110.41064814814814,1044,110.39999999999999C1046.4166666666667,110.38935185185184,1048.8333333333333,110.3787037037037,1051.25,110.36805555555556C1053.6666666666667,110.35740740740741,1056.0833333333333,110.34675925925926,1058.5,110.33611111111111C1060.9166666666667,110.32546296296296,1063.3333333333333,110.31481481481482,1065.75,110.30416666666667C1068.1666666666667,110.29351851851852,1070.5833333333333,110.28287037037038,1073,110.27222222222223C1075.4166666666667,110.26157407407408,1077.8333333333333,110.25092592592593,1080.25,110.24027777777778C1082.6666666666667,110.22962962962963,1085.0833333333333,110.21898148148149,1087.5,110.20833333333334C1089.9166666666667,110.1976851851852,1092.3333333333333,110.18703703703704,1094.75,110.1763888888889C1097.1666666666667,110.16574074074074,1099.5833333333333,110.1550925925926,1102,110.14444444444445C1104.4166666666667,110.1337962962963,1106.8333333333333,110.12314814814815,1109.25,110.1125C1111.6666666666667,110.10185185185185,1114.0833333333333,110.0912037037037,1116.5,110.08055555555555C1118.9166666666667,110.0699074074074,1121.3333333333333,110.05925925925926,1123.75,110.04861111111111C1126.1666666666667,110.03796296296296,1128.5833333333333,110.02731481481482,1131,110.01666666666667C1133.4166666666667,110.00601851851852,1135.8333333333333,109.99537037037037,1138.25,109.98472222222222C1140.6666666666667,109.97407407407407,1143.0833333333333,109.96342592592593,1145.5,109.95277777777778C1147.9166666666667,109.94212962962963,1150.3333333333333,109.93148148148148,1152.75,109.92083333333333C1155.1666666666667,109.91018518518518,1157.5833333333333,109.91018518518518,1160,109.8888888888889C1162.4166666666667,109.86759259259262,1164.8333333333333,108.29166666666667,1167.25,107.49305555555556C1169.6666666666667,106.69444444444444,1172.0833333333333,105.89583333333333,1174.5,105.09722222222221C1176.9166666666667,104.2986111111111,1179.3333333333333,103.50000000000001,1181.75,102.7013888888889C1184.1666666666667,101.90277777777779,1186.5833333333333,101.10416666666667,1189,100.30555555555556C1191.4166666666667,99.50694444444444,1193.8333333333333,98.70833333333333,1196.25,97.90972222222221C1198.6666666666667,97.1111111111111,1201.0833333333333,96.3125,1203.5,95.51388888888889C1205.9166666666667,94.71527777777777,1208.3333333333333,93.91666666666667,1210.75,93.11805555555556C1213.1666666666667,92.31944444444444,1215.5833333333333,91.52083333333333,1218,90.72222222222221C1220.4166666666667,89.9236111111111,1222.8333333333333,89.125,1225.25,88.32638888888889C1227.6666666666667,87.52777777777777,1230.0833333333333,86.72916666666667,1232.5,85.93055555555556C1234.9166666666667,85.13194444444444,1237.3333333333333,84.33333333333333,1239.75,83.53472222222221C1242.1666666666667,82.7361111111111,1244.5833333333333,81.9375,1247,81.13888888888889C1249.4166666666667,80.34027777777777,1251.8333333333333,79.54166666666667,1254.25,78.74305555555556C1256.6666666666667,77.94444444444444,1259.0833333333333,77.14583333333333,1261.5,76.34722222222221C1263.9166666666667,75.5486111111111,1266.3333333333333,74.75,1268.75,73.95138888888889C1271.1666666666667,73.15277777777777,1273.5833333333333,72.35416666666667,1276,71.55555555555556C1278.4166666666667,70.75694444444444,1280.8333333333333,69.95833333333333,1283.25,69.15972222222221C1285.6666666666667,68.3611111111111,1288.0833333333333,67.5625,1290.5,66.76388888888889C1292.9166666666667,65.96527777777777,1295.3333333333333,65.16666666666667,1297.75,64.36805555555556C1300.1666666666667,63.56944444444444,1302.5833333333333,62.770833333333336,1305,61.97222222222222C1307.4166666666667,61.17361111111111,1309.8333333333333,60.374999999999986,1312.25,59.57638888888888C1314.6666666666667,58.77777777777777,1317.0833333333333,57.979166666666664,1319.5,57.18055555555556C1321.9166666666667,56.38194444444445,1324.3333333333333,55.58333333333333,1326.75,54.78472222222222C1329.1666666666667,53.986111111111114,1331.5833333333333,53.1875,1334,52.38888888888889C1336.4166666666667,51.590277777777786,1338.8333333333333,50.79166666666667,1341.25,49.99305555555556C1343.6666666666667,49.19444444444444,1346.0833333333333,48.39583333333333,1348.5,47.59722222222222C1350.9166666666667,46.798611111111114,1353.3333333333333,46,1355.75,45.20138888888889C1358.1666666666667,44.402777777777786,1360.5833333333333,43.604166666666686,1363,42.80555555555557C1365.4166666666667,42.00694444444446,1367.8333333333333,41.208333333333336,1370.25,40.40972222222222C1372.6666666666667,39.61111111111111,1375.0833333333333,38.8125,1377.5,38.01388888888889C1379.9166666666667,37.215277777777786,1382.3333333333333,36.41666666666667,1384.75,35.61805555555556C1387.1666666666667,34.81944444444444,1389.5833333333333,34.02083333333333,1392,33.22222222222222C1394.4166666666667,32.423611111111114,1396.8333333333333,31.625000000000004,1399.25,30.826388888888893C1401.6666666666667,30.027777777777782,1404.0833333333333,29.229166666666668,1406.5,28.430555555555557C1408.9166666666667,27.631944444444446,1411.3333333333333,26.83333333333333,1413.75,26.034722222222218C1416.1666666666667,25.236111111111107,1418.5833333333333,24.437500000000004,1421,23.638888888888893C1423.4166666666667,22.840277777777782,1425.8333333333333,22.041666666666668,1428.25,21.243055555555557C1430.6666666666667,20.444444444444446,1433.0833333333333,19.64583333333333,1435.5,18.847222222222218C1437.9166666666667,18.048611111111107,1440.3333333333333,17.250000000000004,1442.75,16.451388888888893C1445.1666666666667,15.652777777777782,1447.5833333333333,14.85416666666667,1450,14.055555555555557" fill="transparent" stroke-linecap="round" stroke="#B6509E" stroke-width="2"></path><path class="visx-linepath" d="M0,102.22222222219027C2.4166666666666665,102.2168981481295,4.833333333333334,102.21157407406875,7.25,102.20625C9.666666666666666,102.20092592593124,12.083333333333334,102.19560185185185,14.5,102.19027777777778C16.916666666666668,102.18495370370371,19.333333333333332,102.17962962962963,21.75,102.17430555555555C24.166666666666668,102.16898148148147,26.583333333333332,102.16365740740741,29,102.15833333333333C31.416666666666668,102.15300925925925,33.833333333333336,102.14768518518517,36.25,102.1423611111111C38.666666666666664,102.13703703703703,41.083333333333336,102.13171296296296,43.5,102.1263888888889C45.91666666666667,102.12106481481483,48.333333333333336,102.11574074074075,50.75000000000001,102.11041666666667C53.16666666666667,102.1050925925926,55.583333333333336,102.09976851851852,58,102.09444444444445C60.416666666666664,102.08912037037037,62.833333333333336,102.0837962962963,65.25,102.07847222222222C67.66666666666667,102.07314814814814,70.08333333333333,102.06782407407408,72.5,102.0625C74.91666666666667,102.05717592592592,77.33333333333333,102.05185185185184,79.75,102.04652777777777C82.16666666666667,102.0412037037037,84.58333333333333,102.03587962962962,87,102.03055555555555C89.41666666666667,102.02523148148148,91.83333333333333,102.0199074074074,94.25,102.01458333333333C96.66666666666667,102.00925925925925,99.08333333333334,102.00393518518518,101.50000000000001,101.9986111111111C103.91666666666667,101.99328703703704,106.33333333333334,101.98796296296295,108.75,101.98263888888889C111.16666666666667,101.97731481481482,113.58333333333333,101.97199074074074,116,101.96666666666667C118.41666666666667,101.9613425925926,120.83333333333334,101.95601851851853,123.25000000000001,101.95069444444445C125.66666666666667,101.94537037037038,128.08333333333334,101.94004629629629,130.5,101.93472222222222C132.91666666666666,101.92939814814814,135.33333333333334,101.92407407407407,137.75,101.91875C140.16666666666666,101.91342592592594,142.58333333333334,101.90810185185185,145,101.90277777777777C147.41666666666666,101.89745370370369,149.83333333333334,101.89212962962962,152.25,101.88680555555555C154.66666666666666,101.88148148148149,157.08333333333334,101.87615740740742,159.5,101.87083333333334C161.91666666666666,101.86550925925926,164.33333333333334,101.86018518518517,166.75,101.8548611111111C169.16666666666666,101.84953703703704,171.58333333333334,101.84421296296296,174,101.83888888888889C176.41666666666666,101.83356481481482,178.83333333333334,101.82824074074072,181.25,101.82291666666666C183.66666666666666,101.81759259259259,186.08333333333334,101.81226851851852,188.5,101.80694444444445C190.91666666666666,101.80162037037039,193.33333333333334,101.79629629629629,195.75,101.79097222222222C198.16666666666669,101.78564814814814,200.58333333333334,101.78032407407409,203.00000000000003,101.775C205.41666666666669,101.76967592592594,207.83333333333331,101.76435185185184,210.24999999999997,101.75902777777777C212.66666666666666,101.75370370370369,215.08333333333331,101.74837962962962,217.5,101.74305555555556C219.91666666666666,101.73773148148149,222.33333333333334,101.73240740740741,224.75,101.72708333333334C227.16666666666666,101.72175925925927,229.58333333333334,101.71643518518519,232,101.71111111111111C234.41666666666666,101.70578703703703,236.83333333333334,101.70046296296296,239.25,101.69513888888889C241.66666666666669,101.68981481481481,244.08333333333334,101.68449074074074,246.50000000000003,101.67916666666666C248.91666666666669,101.67384259259259,251.33333333333331,101.66851851851851,253.74999999999997,101.66319444444444C256.16666666666663,101.65787037037038,258.5833333333333,101.6525462962963,261,101.64722222222223C263.4166666666667,101.64189814814816,265.8333333333333,101.63657407407408,268.25,101.63125000000001C270.6666666666667,101.62592592592594,273.0833333333333,101.62060185185186,275.5,101.61527777777778C277.9166666666667,101.6099537037037,280.3333333333333,101.60462962962964,282.75,101.59930555555556C285.1666666666667,101.59398148148148,287.5833333333333,101.5886574074074,290,101.58333333333333C292.4166666666667,101.57800925925926,294.8333333333333,101.57268518518518,297.25,101.56736111111111C299.6666666666667,101.56203703703704,302.0833333333333,101.55671296296296,304.5,101.5513888888889C306.9166666666667,101.54606481481483,309.3333333333333,101.54074074074074,311.75,101.53541666666666C314.1666666666667,101.53009259259258,316.5833333333333,101.52476851851853,319,101.51944444444445C321.4166666666667,101.51412037037036,323.8333333333333,101.50879629629628,326.25,101.50347222222221C328.6666666666667,101.49814814814815,331.0833333333333,101.49282407407408,333.5,101.48750000000001C335.9166666666667,101.48217592592594,338.3333333333333,101.47685185185185,340.75,101.47152777777778C343.1666666666667,101.46620370370371,345.5833333333333,101.46087962962963,348,101.45555555555556C350.4166666666667,101.4502314814815,352.8333333333333,101.44490740740741,355.25,101.43958333333333C357.6666666666667,101.43425925925925,360.0833333333333,101.4289351851852,362.5,101.42361111111111C364.9166666666667,101.41828703703703,367.3333333333333,101.41296296296295,369.75,101.40763888888888C372.1666666666667,101.40231481481482,374.5833333333333,101.39699074074073,377,101.39166666666667C379.4166666666667,101.3863425925926,381.8333333333333,101.38101851851852,384.25,101.37569444444445C386.6666666666667,101.37037037037038,389.0833333333333,101.36504629629628,391.5,101.35972222222222C393.9166666666667,101.35439814814814,396.33333333333337,101.34907407407407,398.75000000000006,101.34375C401.16666666666674,101.33842592592593,403.58333333333337,101.33310185185185,406.00000000000006,101.32777777777778C408.4166666666667,101.32245370370372,410.8333333333333,101.31712962962963,413.24999999999994,101.31180555555557C415.66666666666663,101.30648148148148,418.08333333333326,101.3011574074074,420.49999999999994,101.29583333333333C422.91666666666663,101.29050925925925,425.3333333333333,101.2851851851852,427.75,101.27986111111112C430.1666666666667,101.27453703703705,432.5833333333333,101.26921296296297,435,101.26388888888889C437.4166666666667,101.2585648148148,439.8333333333333,101.25324074074075,442.25,101.24791666666667C444.6666666666667,101.24259259259259,447.0833333333333,101.2372685185185,449.5,101.23194444444444C451.9166666666667,101.22662037037037,454.3333333333333,101.22129629629629,456.75,101.21597222222222C459.1666666666667,101.21064814814815,461.5833333333333,101.20532407407407,464,101.2C466.4166666666667,101.19467592592594,468.8333333333333,101.18935185185185,471.25,101.18402777777777C473.6666666666667,101.17870370370369,476.0833333333333,101.17337962962962,478.5,101.16805555555555C480.9166666666667,101.16273148148149,483.33333333333337,101.1574074074074,485.75000000000006,101.15208333333334C488.16666666666674,101.14675925925927,490.58333333333337,101.1414351851852,493.00000000000006,101.13611111111112C495.4166666666667,101.13078703703705,497.8333333333333,101.12546296296296,500.24999999999994,101.12013888888889C502.66666666666663,101.1148148148148,505.08333333333326,101.10949074074074,507.49999999999994,101.10416666666667C509.91666666666663,101.09884259259259,512.3333333333333,101.09351851851852,514.75,101.08819444444444C517.1666666666666,101.08287037037036,519.5833333333334,101.07754629629628,522,101.07222222222221C524.4166666666666,101.06689814814814,526.8333333333334,101.06157407407407,529.25,101.05625C531.6666666666666,101.05092592592594,534.0833333333334,101.04560185185184,536.5,101.04027777777777C538.9166666666666,101.0349537037037,541.3333333333334,101.02962962962962,543.75,101.02430555555556C546.1666666666666,101.01898148148149,548.5833333333334,101.0136574074074,551,101.00833333333333C553.4166666666666,101.00300925925926,555.8333333333334,100.99768518518519,558.25,100.99236111111112C560.6666666666666,100.98703703703706,563.0833333333334,100.98171296296297,565.5,100.97638888888889C567.9166666666666,100.97106481481481,570.3333333333334,100.96574074074076,572.75,100.96041666666667C575.1666666666666,100.95509259259259,577.5833333333334,100.94976851851852,580,100.94444444444444C582.4166666666666,100.93912037037036,584.8333333333334,100.9337962962963,587.25,100.92847222222221C589.6666666666666,100.92314814814813,592.0833333333334,100.91782407407406,594.5,100.9125C596.9166666666666,100.90717592592593,599.3333333333334,100.90185185185184,601.75,100.89652777777778C604.1666666666666,100.89120370370371,606.5833333333334,100.88587962962964,609,100.88055555555556C611.4166666666666,100.87523148148148,613.8333333333334,100.8699074074074,616.25,100.86458333333333C618.6666666666666,100.85925925925926,621.0833333333334,100.85393518518518,623.5,100.84861111111111C625.9166666666666,100.84328703703704,628.3333333333334,100.83796296296295,630.75,100.83263888888888C633.1666666666666,100.82731481481481,635.5833333333334,100.82199074074074,638,100.81666666666668C640.4166666666666,100.81134259259261,642.8333333333334,100.80601851851853,645.25,100.80069444444445C647.6666666666666,100.79537037037036,650.0833333333334,100.79004629629631,652.5,100.78472222222223C654.9166666666666,100.77939814814815,657.3333333333334,100.77407407407408,659.75,100.76875C662.1666666666666,100.76342592592592,664.5833333333334,100.75810185185183,667,100.75277777777777C669.4166666666666,100.7474537037037,671.8333333333334,100.74212962962963,674.25,100.73680555555556C676.6666666666666,100.7314814814815,679.0833333333334,100.72615740740741,681.5,100.72083333333333C683.9166666666666,100.71550925925925,686.3333333333334,100.7101851851852,688.75,100.70486111111111C691.1666666666666,100.69953703703703,693.5833333333334,100.69421296296295,696,100.68888888888888C698.4166666666666,100.68356481481482,700.8333333333334,100.67824074074073,703.25,100.67291666666667C705.6666666666666,100.6675925925926,708.0833333333334,100.66226851851852,710.5,100.65694444444445C712.9166666666666,100.65162037037038,715.3333333333334,100.6462962962963,717.75,100.64097222222223C720.1666666666666,100.63564814814816,722.5833333333334,100.63032407407408,725,100.625C727.4166666666666,100.61967592592592,729.8333333333334,100.61435185185184,732.25,100.60902777777777C734.6666666666666,100.6037037037037,737.0833333333334,100.59837962962962,739.5,100.59305555555555C741.9166666666666,100.58773148148148,744.3333333333334,100.58240740740739,746.75,100.57708333333332C749.1666666666666,100.57175925925925,751.5833333333334,100.56643518518518,754,100.56111111111112C756.4166666666666,100.55578703703705,758.8333333333334,100.55046296296297,761.25,100.54513888888889C763.6666666666666,100.5398148148148,766.0833333333334,100.53449074074075,768.5,100.52916666666667C770.9166666666666,100.52384259259259,773.3333333333334,100.5185185185185,775.75,100.51319444444444C778.1666666666666,100.50787037037037,780.5833333333334,100.5025462962963,783,100.49722222222223C785.4166666666667,100.49189814814817,787.8333333333334,100.48657407407408,790.2500000000001,100.48125C792.6666666666667,100.47592592592592,795.0833333333335,100.47060185185185,797.5000000000001,100.46527777777777C799.9166666666667,100.45995370370369,802.3333333333335,100.45462962962964,804.7500000000001,100.44930555555555C807.1666666666667,100.44398148148147,809.5833333333335,100.4386574074074,812.0000000000001,100.43333333333332C814.4166666666667,100.42800925925926,816.8333333333333,100.42268518518517,819.2499999999999,100.4173611111111C821.6666666666665,100.41203703703704,824.0833333333333,100.40671296296296,826.4999999999999,100.40138888888889C828.9166666666665,100.39606481481482,831.3333333333333,100.39074074074074,833.7499999999999,100.38541666666667C836.1666666666665,100.3800925925926,838.5833333333333,100.37476851851851,840.9999999999999,100.36944444444444C843.4166666666666,100.36412037037036,845.8333333333333,100.35879629629629,848.25,100.35347222222222C850.6666666666666,100.34814814814816,853.0833333333334,100.34282407407407,855.5,100.3375C857.9166666666666,100.33217592592594,860.3333333333334,100.32685185185187,862.75,100.32152777777779C865.1666666666666,100.3162037037037,867.5833333333334,100.31087962962964,870,100.30555555555556C872.4166666666666,100.30023148148148,874.8333333333334,100.29490740740741,877.25,100.28958333333333C879.6666666666666,100.28425925925924,882.0833333333334,100.27893518518519,884.5,100.27361111111111C886.9166666666666,100.26828703703703,889.3333333333334,100.26296296296294,891.75,100.25763888888888C894.1666666666666,100.25231481481481,896.5833333333334,100.24699074074073,899,100.24166666666666C901.4166666666666,100.23634259259259,903.8333333333334,100.23101851851851,906.25,100.22569444444444C908.6666666666666,100.22037037037038,911.0833333333334,100.2150462962963,913.5,100.20972222222223C915.9166666666666,100.20439814814816,918.3333333333334,100.19907407407408,920.75,100.19375C923.1666666666666,100.18842592592591,925.5833333333334,100.18310185185184,928,100.17777777777778C930.4166666666666,100.17245370370371,932.8333333333334,100.16712962962964,935.25,100.16180555555556C937.6666666666666,100.15648148148148,940.0833333333334,100.1511574074074,942.5,100.14583333333333C944.9166666666666,100.14050925925926,947.3333333333334,100.13518518518518,949.75,100.12986111111111C952.1666666666666,100.12453703703704,954.5833333333334,100.11921296296296,957,100.11388888888888C959.4166666666666,100.1085648148148,961.8333333333334,100.10324074074073,964.25,100.09791666666666C966.6666666666667,100.09259259259258,969.0833333333334,100.0872685185185,971.5000000000001,100.08194444444443C973.9166666666667,100.07662037037036,976.3333333333335,100.0712962962963,978.7500000000001,100.06597222222223C981.1666666666667,100.06064814814816,983.5833333333335,100.05532407407406,986.0000000000001,100.05C988.4166666666667,100.04467592592593,990.8333333333335,100.03935185185185,993.2500000000001,100.03402777777778C995.6666666666667,100.02870370370371,998.0833333333333,100.02337962962963,1000.4999999999999,100.01805555555556C1002.9166666666665,100.01273148148148,1005.3333333333333,100.00740740740741,1007.7499999999999,100.00208333333333C1010.1666666666665,99.99675925925925,1012.5833333333333,99.9914351851852,1014.9999999999999,99.98611111111111C1017.4166666666665,99.98078703703703,1019.8333333333333,99.97546296296295,1022.2499999999999,99.97013888888888C1024.6666666666665,99.9648148148148,1027.0833333333333,99.95949074074075,1029.5,99.95416666666667C1031.9166666666667,99.9488425925926,1034.3333333333333,99.9435185185185,1036.75,99.93819444444443C1039.1666666666667,99.93287037037037,1041.5833333333333,99.9275462962963,1044,99.92222222222223C1046.4166666666667,99.91689814814816,1048.8333333333333,99.91157407407408,1051.25,99.90625C1053.6666666666667,99.90092592592592,1056.0833333333333,99.89560185185186,1058.5,99.89027777777778C1060.9166666666667,99.8849537037037,1063.3333333333333,99.87962962962962,1065.75,99.87430555555555C1068.1666666666667,99.86898148148148,1070.5833333333333,99.8636574074074,1073,99.85833333333333C1075.4166666666667,99.85300925925927,1077.8333333333333,99.84768518518518,1080.25,99.84236111111112C1082.6666666666667,99.83703703703705,1085.0833333333333,99.83171296296297,1087.5,99.82638888888889C1089.9166666666667,99.8210648148148,1092.3333333333333,99.81574074074075,1094.75,99.81041666666667C1097.1666666666667,99.80509259259259,1099.5833333333333,99.7997685185185,1102,99.79444444444444C1104.4166666666667,99.78912037037037,1106.8333333333333,99.78379629629629,1109.25,99.77847222222222C1111.6666666666667,99.77314814814815,1114.0833333333333,99.76782407407407,1116.5,99.7625C1118.9166666666667,99.75717592592594,1121.3333333333333,99.75185185185185,1123.75,99.74652777777779C1126.1666666666667,99.74120370370372,1128.5833333333333,99.73587962962964,1131,99.73055555555555C1133.4166666666667,99.72523148148147,1135.8333333333333,99.7199074074074,1138.25,99.71458333333334C1140.6666666666667,99.70925925925927,1143.0833333333333,99.7039351851852,1145.5,99.69861111111112C1147.9166666666667,99.69328703703704,1150.3333333333333,99.68796296296296,1152.75,99.68263888888889C1155.1666666666667,99.67731481481482,1157.5833333333333,99.67731481481482,1160,99.66666666666667C1162.4166666666667,99.65601851851852,1164.8333333333333,98.38888888888889,1167.25,97.75C1169.6666666666667,97.11111111111111,1172.0833333333333,96.47222222222223,1174.5,95.83333333333334C1176.9166666666667,95.19444444444446,1179.3333333333333,94.55555555555556,1181.75,93.91666666666667C1184.1666666666667,93.27777777777779,1186.5833333333333,92.63888888888889,1189,92C1191.4166666666667,91.36111111111111,1193.8333333333333,90.72222222222221,1196.25,90.08333333333333C1198.6666666666667,89.44444444444444,1201.0833333333333,88.80555555555554,1203.5,88.16666666666666C1205.9166666666667,87.52777777777777,1208.3333333333333,86.88888888888889,1210.75,86.25C1213.1666666666667,85.61111111111111,1215.5833333333333,84.97222222222223,1218,84.33333333333334C1220.4166666666667,83.69444444444446,1222.8333333333333,83.05555555555556,1225.25,82.41666666666667C1227.6666666666667,81.77777777777779,1230.0833333333333,81.13888888888889,1232.5,80.5C1234.9166666666667,79.86111111111111,1237.3333333333333,79.22222222222221,1239.75,78.58333333333333C1242.1666666666667,77.94444444444444,1244.5833333333333,77.30555555555556,1247,76.66666666666667C1249.4166666666667,76.02777777777779,1251.8333333333333,75.38888888888889,1254.25,74.75C1256.6666666666667,74.11111111111111,1259.0833333333333,73.47222222222221,1261.5,72.83333333333333C1263.9166666666667,72.19444444444444,1266.3333333333333,71.55555555555556,1268.75,70.91666666666667C1271.1666666666667,70.27777777777779,1273.5833333333333,69.63888888888889,1276,69C1278.4166666666667,68.36111111111111,1280.8333333333333,67.72222222222221,1283.25,67.08333333333333C1285.6666666666667,66.44444444444444,1288.0833333333333,65.80555555555556,1290.5,65.16666666666667C1292.9166666666667,64.52777777777779,1295.3333333333333,63.8888888888889,1297.75,63.25000000000001C1300.1666666666667,62.611111111111114,1302.5833333333333,61.97222222222223,1305,61.333333333333336C1307.4166666666667,60.69444444444444,1309.8333333333333,60.05555555555554,1312.25,59.41666666666666C1314.6666666666667,58.77777777777777,1317.0833333333333,58.138888888888886,1319.5,57.5C1321.9166666666667,56.861111111111114,1324.3333333333333,56.222222222222214,1326.75,55.58333333333333C1329.1666666666667,54.94444444444444,1331.5833333333333,54.30555555555556,1334,53.666666666666664C1336.4166666666667,53.02777777777777,1338.8333333333333,52.38888888888888,1341.25,51.74999999999999C1343.6666666666667,51.11111111111111,1346.0833333333333,50.47222222222222,1348.5,49.833333333333336C1350.9166666666667,49.19444444444445,1353.3333333333333,48.55555555555556,1355.75,47.916666666666664C1358.1666666666667,47.27777777777777,1360.5833333333333,46.638888888888886,1363,46C1365.4166666666667,45.361111111111114,1367.8333333333333,44.722222222222214,1370.25,44.08333333333333C1372.6666666666667,43.44444444444444,1375.0833333333333,42.80555555555556,1377.5,42.16666666666667C1379.9166666666667,41.527777777777786,1382.3333333333333,40.888888888888886,1384.75,40.25C1387.1666666666667,39.611111111111114,1389.5833333333333,38.97222222222223,1392,38.333333333333336C1394.4166666666667,37.69444444444444,1396.8333333333333,37.05555555555555,1399.25,36.416666666666664C1401.6666666666667,35.77777777777778,1404.0833333333333,35.13888888888889,1406.5,34.50000000000001C1408.9166666666667,33.86111111111112,1411.3333333333333,33.22222222222223,1413.75,32.583333333333336C1416.1666666666667,31.944444444444446,1418.5833333333333,31.30555555555556,1421,30.66666666666667C1423.4166666666667,30.027777777777782,1425.8333333333333,29.38888888888889,1428.25,28.75C1430.6666666666667,28.11111111111111,1433.0833333333333,27.472222222222218,1435.5,26.83333333333333C1437.9166666666667,26.19444444444444,1440.3333333333333,25.555555555555557,1442.75,24.916666666666668C1445.1666666666667,24.27777777777778,1447.5833333333333,23.63888888888889,1450,22.999999999999996" fill="transparent" stroke-linecap="round" stroke="#E7C6DF" stroke-width="2"></path><g class="visx-group visx-axis visx-axis-bottom" transform="translate(0, 115)"><g class="visx-group visx-axis-tick" transform="translate(0, 0)"><line class="visx-line" x1="0" y1="0" x2="0" y2="8" fill="transparent" shape-rendering="crispEdges" stroke="#000" stroke-width="0" stroke-linecap="square"></line><svg x="0" y="0" font-size="10" style="overflow:visible"><text transform="" x="0" y="18" fill="#000" font-size="10" text-anchor="middle"><tspan x="0" dy="0em">0%</tspan></text></svg></g><g class="visx-group visx-axis-tick" transform="translate(0, 0)"><line class="visx-line" x1="362.5" y1="0" x2="362.5" y2="8" fill="transparent" shape-rendering="crispEdges" stroke="#000" stroke-width="0" stroke-linecap="square"></line><svg x="0" y="0" font-size="10" style="overflow:visible"><text transform="" x="362.5" y="18" fill="#000" font-size="10" text-anchor="middle"><tspan x="362.5" dy="0em">25%</tspan></text></svg></g><g class="visx-group visx-axis-tick" transform="translate(0, 0)"><line class="visx-line" x1="725" y1="0" x2="725" y2="8" fill="transparent" shape-rendering="crispEdges" stroke="#000" stroke-width="0" stroke-linecap="square"></line><svg x="0" y="0" font-size="10" style="overflow:visible"><text transform="" x="725" y="18" fill="#000" font-size="10" text-anchor="middle"><tspan x="725" dy="0em">50%</tspan></text></svg></g><g class="visx-group visx-axis-tick" transform="translate(0, 0)"><line class="visx-line" x1="1087.5" y1="0" x2="1087.5" y2="8" fill="transparent" shape-rendering="crispEdges" stroke="#000" stroke-width="0" stroke-linecap="square"></line><svg x="0" y="0" font-size="10" style="overflow:visible"><text transform="" x="1087.5" y="18" fill="#000" font-size="10" text-anchor="middle"><tspan x="1087.5" dy="0em">75%</tspan></text></svg></g><g class="visx-group visx-axis-tick" transform="translate(0, 0)"><line class="visx-line" x1="1450" y1="0" x2="1450" y2="8" fill="transparent" shape-rendering="crispEdges" stroke="#000" stroke-width="0" stroke-linecap="square"></line><svg x="0" y="0" font-size="10" style="overflow:visible"><text transform="" x="1450" y="18" fill="#000" font-size="10" text-anchor="middle"><tspan x="1450" dy="0em">100%</tspan></text></svg></g><line class="visx-line visx-axis-line" x1="0.5" y1="0" x2="1450.5" y2="0" fill="transparent" shape-rendering="crispEdges" stroke="#222" stroke-width="0"></line></g><g class="visx-group visx-axis visx-axis-left" transform="translate(0, 0)"><g class="visx-group visx-axis-tick" transform="translate(0, 0)"><line class="visx-line" x1="0" y1="115" x2="-8" y2="115" fill="transparent" shape-rendering="crispEdges" stroke="#222" stroke-width="0" stroke-linecap="square"></line><svg x="-30" y="0" font-size="8" style="overflow:visible"><text transform="" x="-8" y="115" fill="#000" font-size="8" text-anchor="start"><tspan x="-8" dy="0em">0%</tspan></text></svg></g><g class="visx-group visx-axis-tick" transform="translate(0, 0)"><line class="visx-line" x1="0" y1="51.11111111111111" x2="-8" y2="51.11111111111111" fill="transparent" shape-rendering="crispEdges" stroke="#222" stroke-width="0" stroke-linecap="square"></line><svg x="-30" y="0" font-size="8" style="overflow:visible"><text transform="" x="-8" y="51.11111111111111" fill="#000" font-size="8" text-anchor="start"><tspan x="-8" dy="0em">50%</tspan></text></svg></g><line class="visx-line visx-axis-line" x1="0" y1="115.5" x2="0" y2="0.5" fill="transparent" shape-rendering="crispEdges" stroke="#222" stroke-width="0"></line></g><rect class="visx-bar" width="1450" height="115" fill="transparent"></rect><line class="visx-line" x1="1160" y1="28" x2="1160" y2="115" fill="transparent" shape-rendering="crispEdges" stroke="#0062D2" stroke-width="1" pointer-events="none" stroke-dasharray="5,2"></line><svg x="0" y="0" font-size="10px" style="overflow:visible"><text transform="" x="1160" y="20" font-size="10px" fill="#fff" stroke="#fff" stroke-width="0.8em" text-anchor="middle"><tspan x="1160" dy="0.355em">Optimal 80%</tspan></text></svg><svg x="0" y="0" font-size="10px" style="overflow:visible"><text transform="" x="1160" y="20" font-size="10px" fill="#62677B" text-anchor="middle"><tspan x="1160" dy="0.355em">Optimal 80%</tspan></text></svg></g></svg>