<?xml version="1.0"?><svg xmlns="http://www.w3.org/2000/svg" xmlns:xlink= "http://www.w3.org/1999/xlink" style="background: white;" width="1500" height="300"> <g style="color: black; font-size: 13px; font-family: sans-serif; transform: translate(18px, 25px);"><g><circle r="3" cx="-6" cy="-5" style="fill: #1AD4B3" /><text>Borrow APR, variable</text></g><g style="transform: translateX(150px);"><circle r="3" cx="-6" cy="-5" style="fill: #101423" /><text>Borrow APR, stable</text></g></g><g class="visx-group" transform="translate(45, 50)"><g class="visx-group visx-rows" transform="translate(0, 0)"><line class="visx-line" x1="0" y1="155" x2="1425" y2="155" fill="transparent" shape-rendering="crispEdges" stroke="#F2F0F9" stroke-width="1" pointer-events="none"></line><line class="visx-line" x1="0" y1="84.54545454545453" x2="1425" y2="84.54545454545453" fill="transparent" shape-rendering="crispEdges" stroke="#F2F0F9" stroke-width="1" pointer-events="none"></line><line class="visx-line" x1="0" y1="14.090909090909095" x2="1425" y2="14.090909090909095" fill="transparent" shape-rendering="crispEdges" stroke="#F2F0F9" stroke-width="1" pointer-events="none"></line></g><path class="visx-linepath" d="M0,154.99999999979647C2.375,154.9660774409587,4.75,154.93215488212095,7.125,154.89823232323232C9.5,154.8643097643437,11.875,154.8303872053872,14.25,154.79646464646464C16.625,154.76254208754207,19,154.72861952861953,21.375,154.69469696969696C23.75,154.6607744107744,26.125,154.62685185185185,28.5,154.59292929292928C30.875,154.55900673400672,33.25,154.52508417508415,35.625,154.4911616161616C38,154.45723905723906,40.375,154.4233164983165,42.75,154.38939393939395C45.125,154.35547138047139,47.50000000000001,154.32154882154884,49.87500000000001,154.28762626262628C52.25000000000001,154.2537037037037,54.625,154.21978114478114,57,154.18585858585857C59.375,154.151936026936,61.75,154.1180134680135,64.125,154.08409090909092C66.5,154.05016835016835,68.875,154.0162457912458,71.25,153.98232323232324C73.625,153.94840067340067,76,153.91447811447813,78.375,153.88055555555556C80.75,153.846632996633,83.125,153.81271043771045,85.5,153.77878787878788C87.875,153.7448653198653,90.25,153.71094276094277,92.625,153.6770202020202C95,153.64309764309763,97.37500000000001,153.6091750841751,99.75000000000001,153.57525252525252C102.12500000000001,153.54132996632995,104.5,153.5074074074074,106.875,153.47348484848484C109.25,153.43956228956228,111.625,153.40563973063973,114,153.37171717171717C116.375,153.3377946127946,118.75000000000001,153.30387205387206,121.12500000000001,153.2699494949495C123.50000000000001,153.23602693602692,125.875,153.20210437710438,128.25,153.1681818181818C130.625,153.13425925925924,133,153.1003367003367,135.375,153.06641414141413C137.75,153.03249158249156,140.125,152.99856902356902,142.5,152.96464646464648C144.875,152.93072390572394,147.25,152.89680134680137,149.625,152.8628787878788C152,152.82895622895623,154.375,152.79503367003366,156.75,152.7611111111111C159.125,152.72718855218852,161.5,152.69326599326598,163.875,152.65934343434344C166.25,152.6254208754209,168.625,152.59149831649833,171,152.55757575757576C173.375,152.5236531986532,175.75,152.48973063973065,178.125,152.45580808080808C180.5,152.4218855218855,182.875,152.38796296296297,185.25,152.3540404040404C187.625,152.32011784511784,190,152.2861952861953,192.375,152.25227272727273C194.75,152.21835016835016,197.12500000000003,152.18442760942762,199.50000000000003,152.15050505050505C201.875,152.11658249158248,204.25,152.0826599326599,206.62499999999997,152.04873737373737C208.99999999999997,152.0148148148148,211.375,151.9808922558923,213.75,151.94696969696972C216.125,151.91304713804715,218.5,151.87912457912458,220.875,151.845202020202C223.25,151.81127946127944,225.625,151.7773569023569,228,151.74343434343433C230.375,151.70951178451176,232.75,151.6755892255892,235.125,151.64166666666665C237.5,151.60774410774408,239.87500000000003,151.57382154882157,242.25000000000003,151.539898989899C244.625,151.50597643097646,247,151.4720538720539,249.37499999999997,151.43813131313132C251.74999999999997,151.40420875420875,254.125,151.3702861952862,256.5,151.33636363636364C258.875,151.30244107744107,261.25,151.26851851851853,263.625,151.23459595959596C266,151.2006734006734,268.375,151.16675084175085,270.75,151.13282828282829C273.125,151.09890572390572,275.5,151.06498316498318,277.875,151.0310606060606C280.25,150.99713804713804,282.625,150.9632154882155,285,150.92929292929293C287.375,150.89537037037036,289.75,150.86144781144782,292.125,150.82752525252525C294.5,150.79360269360268,296.875,150.75968013468014,299.25,150.72575757575757C301.625,150.691835016835,304,150.65791245791246,306.375,150.6239898989899C308.75,150.59006734006732,311.125,150.5561447811448,313.5,150.52222222222224C315.875,150.48829966329967,318.25,150.4543771043771,320.625,150.42045454545453C323,150.38653198653196,325.375,150.35260942760942,327.75,150.31868686868685C330.125,150.28476430976428,332.5,150.25084175084174,334.875,150.2169191919192C337.25,150.18299663299666,339.625,150.1490740740741,342,150.11515151515152C344.375,150.08122895622895,346.75,150.04730639730641,349.125,150.01338383838385C351.5,149.97946127946128,353.875,149.94553872053874,356.25,149.91161616161617C358.625,149.8776936026936,361,149.84377104377106,363.375,149.8098484848485C365.75,149.77592592592592,368.125,149.74200336700338,370.5,149.7080808080808C372.875,149.67415824915824,375.25,149.6402356902357,377.625,149.60631313131313C380,149.57239057239056,382.375,149.53846801346802,384.75,149.50454545454545C387.125,149.47062289562288,389.50000000000006,149.43670033670034,391.87500000000006,149.40277777777777C394.25000000000006,149.3688552188552,396.62500000000006,149.33493265993266,399.00000000000006,149.3010101010101C401.375,149.26708754208752,403.75,149.23316498316495,406.12499999999994,149.1992424242424C408.49999999999994,149.16531986531984,410.87499999999994,149.1313973063973,413.24999999999994,149.09747474747476C415.62499999999994,149.0635521885522,418,149.02962962962965,420.375,148.99570707070708C422.75,148.96178451178451,425.125,148.92786195286195,427.5,148.89393939393938C429.875,148.8600168350168,432.25,148.8260942760943,434.625,148.79217171717173C437,148.75824915824916,439.375,148.72432659932662,441.75,148.69040404040405C444.125,148.65648148148148,446.5,148.62255892255894,448.875,148.58863636363637C451.25,148.5547138047138,453.625,148.52079124579126,456,148.4868686868687C458.375,148.45294612794612,460.75,148.41902356902358,463.125,148.385101010101C465.5,148.35117845117844,467.875,148.3172558922559,470.25,148.28333333333333C472.625,148.24941077441076,475.00000000000006,148.21548821548822,477.37500000000006,148.18156565656565C479.75000000000006,148.14764309764308,482.12500000000006,148.11372053872054,484.50000000000006,148.07979797979797C486.875,148.0458754208754,489.25,148.01195286195286,491.62499999999994,147.9780303030303C493.99999999999994,147.94410774410773,496.37499999999994,147.91018518518516,498.74999999999994,147.87626262626262C501.12499999999994,147.84234006734005,503.5,147.80841750841753,505.875,147.77449494949497C508.25,147.74057239057242,510.625,147.70664983164986,513,147.6727272727273C515.375,147.63880471380472,517.75,147.60488215488218,520.125,147.5709595959596C522.5,147.53703703703704,524.875,147.50311447811447,527.25,147.4691919191919C529.625,147.43526936026933,532,147.4013468013468,534.375,147.36742424242425C536.75,147.3335016835017,539.125,147.29957912457914,541.5,147.26565656565657C543.875,147.231734006734,546.25,147.19781144781146,548.625,147.1638888888889C551,147.12996632996632,553.375,147.09604377104378,555.75,147.0621212121212C558.125,147.02819865319864,560.5,146.9942760942761,562.875,146.96035353535353C565.25,146.92643097643096,567.625,146.89250841750842,570,146.85858585858585C572.375,146.82466329966329,574.75,146.79074074074072,577.125,146.75681818181818C579.5,146.72289562289563,581.875,146.6889730639731,584.25,146.65505050505053C586.625,146.62112794612796,589,146.5872053872054,591.375,146.55328282828282C593.75,146.51936026936025,596.125,146.4854377104377,598.5,146.45151515151514C600.875,146.41759259259257,603.25,146.38367003367,605.625,146.34974747474746C608,146.31582491582492,610.375,146.28190235690238,612.75,146.2479797979798C615.125,146.21405723905724,617.5,146.1801346801347,619.875,146.14621212121213C622.25,146.11228956228956,624.625,146.07836700336702,627,146.04444444444445C629.375,146.01052188552188,631.75,145.97659932659934,634.125,145.94267676767677C636.5,145.9087542087542,638.875,145.87483164983166,641.25,145.8409090909091C643.625,145.80698653198652,646,145.77306397306398,648.375,145.73914141414141C650.75,145.70521885521885,653.125,145.6712962962963,655.5,145.63737373737374C657.875,145.60345117845117,660.25,145.56952861952863,662.625,145.53560606060606C665,145.5016835016835,667.375,145.46776094276095,669.75,145.43383838383838C672.125,145.3999158249158,674.5,145.36599326599327,676.875,145.3320707070707C679.25,145.29814814814813,681.625,145.26422558922562,684,145.23030303030305C686.375,145.19638047138048,688.75,145.1624579124579,691.125,145.12853535353534C693.5,145.09461279461277,695.875,145.06069023569023,698.25,145.02676767676766C700.625,144.9928451178451,703,144.95892255892255,705.375,144.925C707.75,144.89107744107747,710.125,144.8571548821549,712.5,144.82323232323233C714.875,144.78930976430976,717.25,144.75538720538722,719.625,144.72146464646465C722,144.68754208754208,724.375,144.65361952861954,726.75,144.61969696969697C729.125,144.5857744107744,731.5,144.55185185185186,733.875,144.5179292929293C736.25,144.48400673400673,738.625,144.45008417508419,741,144.41616161616162C743.375,144.38223905723905,745.75,144.3483164983165,748.125,144.31439393939394C750.5,144.28047138047137,752.875,144.24654882154883,755.25,144.21262626262626C757.625,144.1787037037037,760,144.14478114478115,762.375,144.11085858585858C764.75,144.076936026936,767.125,144.04301346801347,769.5,144.0090909090909C771.875,143.97516835016833,774.2500000000001,143.9412457912458,776.6250000000001,143.90732323232322C779.0000000000001,143.87340067340068,781.3750000000001,143.83947811447814,783.7500000000001,143.80555555555557C786.1250000000001,143.771632996633,788.5000000000001,143.73771043771046,790.8750000000001,143.7037878787879C793.2500000000001,143.66986531986532,795.6250000000001,143.63594276094275,798.0000000000001,143.60202020202019C800.375,143.56809764309762,802.75,143.53417508417508,805.1249999999999,143.50025252525253C807.4999999999999,143.46632996632997,809.8749999999999,143.43240740740742,812.2499999999999,143.39848484848486C814.6249999999999,143.3645622895623,816.9999999999999,143.33063973063975,819.3749999999999,143.29671717171718C821.7499999999999,143.2627946127946,824.1249999999999,143.22887205387207,826.4999999999999,143.1949494949495C828.8749999999999,143.16102693602693,831.25,143.1271043771044,833.625,143.09318181818182C836,143.05925925925925,838.375,143.0253367003367,840.75,142.99141414141414C843.125,142.95749158249157,845.5,142.92356902356903,847.875,142.88964646464646C850.25,142.8557239057239,852.625,142.82180134680135,855,142.78787878787878C857.375,142.7539562289562,859.75,142.72003367003367,862.125,142.6861111111111C864.5,142.65218855218853,866.875,142.618265993266,869.25,142.58434343434342C871.625,142.55042087542085,874,142.5164983164983,876.375,142.48257575757575C878.75,142.44865319865318,881.125,142.41473063973064,883.5,142.3808080808081C885.875,142.34688552188555,888.25,142.31296296296298,890.625,142.27904040404042C893,142.24511784511785,895.375,142.21119528619528,897.75,142.1772727272727C900.125,142.14335016835014,902.5,142.1094276094276,904.875,142.07550505050506C907.25,142.04158249158252,909.625,142.00765993265995,912,141.97373737373738C914.375,141.9398148148148,916.75,141.90589225589227,919.125,141.8719696969697C921.5,141.83804713804713,923.875,141.8041245791246,926.25,141.77020202020202C928.625,141.73627946127945,931,141.7023569023569,933.375,141.66843434343434C935.75,141.63451178451177,938.125,141.60058922558923,940.5,141.56666666666666C942.875,141.5327441077441,945.25,141.49882154882155,947.625,141.46489898989898C950,141.43097643097641,952.3750000000001,141.39705387205387,954.7500000000001,141.3631313131313C957.1250000000001,141.32920875420874,959.5000000000001,141.2952861952862,961.8750000000001,141.26136363636363C964.2500000000001,141.22744107744106,966.6250000000001,141.19351851851852,969.0000000000001,141.15959595959595C971.3750000000001,141.12567340067338,973.7500000000001,141.09175084175084,976.1250000000001,141.05782828282827C978.5,141.02390572390573,980.875,140.98998316498316,983.2499999999999,140.95606060606062C985.6249999999999,140.92213804713805,987.9999999999999,140.8882154882155,990.3749999999999,140.85429292929294C992.7499999999999,140.82037037037037,995.1249999999999,140.78644781144783,997.4999999999999,140.75252525252526C999.8749999999999,140.7186026936027,1002.2499999999999,140.68468013468015,1004.6249999999999,140.65075757575758C1006.9999999999999,140.616835016835,1009.375,140.58291245791247,1011.75,140.5489898989899C1014.125,140.51506734006733,1016.5,140.4811447811448,1018.875,140.44722222222222C1021.25,140.41329966329965,1023.625,140.3793771043771,1026,140.34545454545454C1028.375,140.31153198653197,1030.75,140.27760942760943,1033.125,140.24368686868686C1035.5,140.2097643097643,1037.875,140.17584175084176,1040.25,140.1419191919192C1042.625,140.10799663299662,1045,140.07407407407408,1047.375,140.0401515151515C1049.75,140.00622895622894,1052.125,139.9723063973064,1054.5,139.93838383838383C1056.875,139.90446127946126,1059.25,139.87053872053872,1061.625,139.83661616161615C1064,139.80269360269358,1066.375,139.76877104377104,1068.75,139.73484848484847C1071.125,139.7009259259259,1073.5,139.66700336700336,1075.875,139.6330808080808C1078.25,139.59915824915822,1080.625,139.56523569023568,1083,139.53131313131314C1085.375,139.4973905723906,1087.75,139.46346801346803,1090.125,139.42954545454546C1092.5,139.3956228956229,1094.875,139.36170033670035,1097.25,139.32777777777778C1099.625,139.2938552188552,1102,139.25993265993267,1104.375,139.2260101010101C1106.75,139.19208754208753,1109.125,139.158164983165,1111.5,139.12424242424242C1113.875,139.09031986531986,1116.25,139.05639730639732,1118.625,139.02247474747475C1121,138.98855218855218,1123.375,138.95462962962964,1125.75,138.92070707070707C1128.125,138.8867845117845,1130.5,138.85286195286196,1132.875,138.8189393939394C1135.25,138.78501683501682,1137.625,138.75109427609425,1140,138.7171717171717C1142.375,138.68324915824917,1144.75,138.64932659932663,1147.125,138.61540404040406C1149.5,138.5814814814815,1151.875,138.54755892255895,1154.25,138.51363636363638C1156.625,138.4797138047138,1159,138.44579124579127,1161.375,138.4118686868687C1163.75,138.37794612794613,1166.125,138.34402356902356,1168.5,138.310101010101C1170.875,138.27617845117842,1173.25,138.24225589225586,1175.625,138.20833333333331C1178,138.17441077441077,1180.375,138.14048821548823,1182.75,138.10656565656566C1185.125,138.0726430976431,1187.5,138.03872053872055,1189.875,138.00479797979798C1192.25,137.97087542087542,1194.625,137.93695286195288,1197,137.9030303030303C1199.375,137.86910774410774,1201.75,137.8351851851852,1204.125,137.80126262626263C1206.5,137.76734006734006,1208.875,137.73341750841752,1211.25,137.69949494949495C1213.625,137.66557239057238,1216,137.63164983164984,1218.375,137.59772727272727C1220.75,137.5638047138047,1223.125,137.52988215488216,1225.5,137.4959595959596C1227.875,137.46203703703702,1230.25,137.42811447811448,1232.625,137.3941919191919C1235,137.36026936026934,1237.375,137.3263468013468,1239.75,137.29242424242423C1242.125,137.25850168350166,1244.5,137.22457912457912,1246.875,137.19065656565655C1249.25,137.15673400673398,1251.625,137.12281144781144,1254,137.0888888888889C1256.375,137.05496632996636,1258.75,137.0210437710438,1261.125,136.98712121212122C1263.5,136.95319865319865,1265.875,136.91927609427609,1268.25,136.88535353535352C1270.625,136.85143097643095,1273,136.8175084175084,1275.375,136.78358585858587C1277.75,136.74966329966333,1280.125,136.7496632996633,1282.5,136.6818181818182C1284.875,136.61397306397308,1287.25,132.9242424242424,1289.625,131.04545454545453C1292,129.16666666666666,1294.375,127.28787878787878,1296.75,125.4090909090909C1299.125,123.53030303030303,1301.5,121.65151515151514,1303.875,119.77272727272727C1306.25,117.89393939393939,1308.625,116.0151515151515,1311,114.13636363636363C1313.375,112.25757575757575,1315.75,110.37878787878788,1318.125,108.5C1320.5,106.62121212121212,1322.875,104.74242424242424,1325.25,102.86363636363636C1327.625,100.98484848484848,1330,99.1060606060606,1332.375,97.22727272727272C1334.75,95.34848484848484,1337.125,93.46969696969695,1339.5,91.59090909090908C1341.875,89.7121212121212,1344.25,87.83333333333333,1346.625,85.95454545454545C1349,84.07575757575758,1351.375,82.19696969696969,1353.75,80.31818181818181C1356.125,78.43939393939394,1358.5,76.56060606060608,1360.875,74.6818181818182C1363.25,72.80303030303033,1365.625,70.92424242424244,1368,69.04545454545455C1370.375,67.16666666666666,1372.75,65.28787878787878,1375.125,63.40909090909091C1377.5,61.530303030303024,1379.875,59.65151515151515,1382.25,57.772727272727266C1384.625,55.893939393939384,1387,54.0151515151515,1389.375,52.136363636363626C1391.75,50.25757575757575,1394.125,48.37878787878788,1396.5,46.50000000000001C1398.875,44.62121212121213,1401.25,42.74242424242425,1403.625,40.86363636363637C1406,38.984848484848484,1408.375,37.10606060606061,1410.75,35.227272727272734C1413.125,33.34848484848486,1415.5,31.469696969696972,1417.875,29.590909090909093C1420.25,27.712121212121215,1422.625,25.833333333333332,1425,23.954545454545453" fill="transparent" stroke-linecap="round" stroke="#1AD4B3" stroke-width="2"></path><g class="visx-group visx-axis visx-axis-bottom" transform="translate(0, 155)"><g class="visx-group visx-axis-tick" transform="translate(0, 0)"><line class="visx-line" x1="0" y1="0" x2="0" y2="8" fill="transparent" shape-rendering="crispEdges" stroke="#F2F0F9" stroke-width="1" stroke-linecap="square"></line><svg x="0" y="0" font-size="11" style="overflow:visible"><text transform="" x="0" y="19" fill="#1B2030" font-size="11" text-anchor="middle"><tspan x="0" dy="0em">0%</tspan></text></svg></g><g class="visx-group visx-axis-tick" transform="translate(0, 0)"><line class="visx-line" x1="356.25" y1="0" x2="356.25" y2="8" fill="transparent" shape-rendering="crispEdges" stroke="#F2F0F9" stroke-width="1" stroke-linecap="square"></line><svg x="0" y="0" font-size="11" style="overflow:visible"><text transform="" x="356.25" y="19" fill="#1B2030" font-size="11" text-anchor="middle"><tspan x="356.25" dy="0em">25%</tspan></text></svg></g><g class="visx-group visx-axis-tick" transform="translate(0, 0)"><line class="visx-line" x1="712.5" y1="0" x2="712.5" y2="8" fill="transparent" shape-rendering="crispEdges" stroke="#F2F0F9" stroke-width="1" stroke-linecap="square"></line><svg x="0" y="0" font-size="11" style="overflow:visible"><text transform="" x="712.5" y="19" fill="#1B2030" font-size="11" text-anchor="middle"><tspan x="712.5" dy="0em">50%</tspan></text></svg></g><g class="visx-group visx-axis-tick" transform="translate(0, 0)"><line class="visx-line" x1="1068.75" y1="0" x2="1068.75" y2="8" fill="transparent" shape-rendering="crispEdges" stroke="#F2F0F9" stroke-width="1" stroke-linecap="square"></line><svg x="0" y="0" font-size="11" style="overflow:visible"><text transform="" x="1068.75" y="19" fill="#1B2030" font-size="11" text-anchor="middle"><tspan x="1068.75" dy="0em">75%</tspan></text></svg></g><g class="visx-group visx-axis-tick" transform="translate(0, 0)"><line class="visx-line" x1="1425" y1="0" x2="1425" y2="8" fill="transparent" shape-rendering="crispEdges" stroke="#F2F0F9" stroke-width="1" stroke-linecap="square"></line><svg x="0" y="0" font-size="11" style="overflow:visible"><text transform="" x="1425" y="19" fill="#1B2030" font-size="11" text-anchor="middle"><tspan x="1425" dy="0em">100%</tspan></text></svg></g></g><g class="visx-group visx-axis visx-axis-left" transform="translate(0, 0)"><g class="visx-group visx-axis-tick" transform="translate(0, 0)"><line class="visx-line" x1="0" y1="155" x2="-8" y2="155" fill="transparent" shape-rendering="crispEdges" stroke="#F2F0F9" stroke-width="1" stroke-linecap="square"></line><svg x="-30" y="0" font-size="11" style="overflow:visible"><text transform="" x="-8" y="155" fill="#1B2030" font-size="11" text-anchor="start"><tspan x="-8" dy="0em">0%</tspan></text></svg></g><g class="visx-group visx-axis-tick" transform="translate(0, 0)"><line class="visx-line" x1="0" y1="84.54545454545453" x2="-8" y2="84.54545454545453" fill="transparent" shape-rendering="crispEdges" stroke="#F2F0F9" stroke-width="1" stroke-linecap="square"></line><svg x="-30" y="0" font-size="11" style="overflow:visible"><text transform="" x="-8" y="84.54545454545453" fill="#1B2030" font-size="11" text-anchor="start"><tspan x="-8" dy="0em">50%</tspan></text></svg></g><g class="visx-group visx-axis-tick" transform="translate(0, 0)"><line class="visx-line" x1="0" y1="14.090909090909095" x2="-8" y2="14.090909090909095" fill="transparent" shape-rendering="crispEdges" stroke="#F2F0F9" stroke-width="1" stroke-linecap="square"></line><svg x="-30" y="0" font-size="11" style="overflow:visible"><text transform="" x="-8" y="14.090909090909095" fill="#1B2030" font-size="11" text-anchor="start"><tspan x="-8" dy="0em">100%</tspan></text></svg></g><line class="visx-line visx-axis-line" x1="0" y1="155.5" x2="0" y2="0.5" fill="transparent" shape-rendering="crispEdges" stroke="#F2F0F9" stroke-width="1"></line></g><rect class="visx-bar" width="1425" height="155" fill="transparent"></rect><line class="visx-line" x1="1282.5" y1="58" x2="1282.5" y2="155" fill="transparent" shape-rendering="crispEdges" stroke="#CDC8E1" stroke-width="1" pointer-events="none" stroke-dasharray="5"></line><svg x="0" y="0" font-size="11px" style="overflow:visible"><text transform="" x="1282.5" y="50" font-size="11px" fill="#555069" stroke="#FFFFFF" stroke-width="1px" text-anchor="middle"><tspan x="1282.5" dy="0.355em">uOptimal 90%</tspan></text></svg><svg x="0" y="0" font-size="11px" style="overflow:visible"><text transform="" x="1282.5" y="50" font-size="11px" fill="#CDC8E1" text-anchor="middle"><tspan x="1282.5" dy="0.355em">uOptimal 90%</tspan></text></svg></g></svg>