<?xml version="1.0"?><svg xmlns="http://www.w3.org/2000/svg" xmlns:xlink= "http://www.w3.org/1999/xlink" style="background: white;" width="1500" height="185"> <g style="color: black; font-size: 13px; font-family: sans-serif; transform: translate(18px, 25px);"><g><circle r="3" cx="-6" cy="-5" style="fill: #B6509E" /><text>Borrow APR, variable</text></g><g style="transform: translateX(150px);"><circle r="3" cx="-6" cy="-5" style="fill: rgb(231, 198, 223)" /><text>Borrow APR, stable</text></g><g style="transform: translateX(290px);"><circle r="3" cx="-6" cy="-5" style="fill: rgb(0, 98, 210)" /><text>Utilization Rate</text></g></g><g class="visx-group" transform="translate(40, 50)"><g class="visx-group visx-rows" transform="translate(0, 0)"><line class="visx-line" x1="0" y1="115" x2="1450" y2="115" fill="transparent" shape-rendering="crispEdges" stroke="#000" stroke-width="1" stroke-dasharray="3,3" pointer-events="none"></line><line class="visx-line" x1="0" y1="86.25" x2="1450" y2="86.25" fill="transparent" shape-rendering="crispEdges" stroke="#000" stroke-width="1" stroke-dasharray="3,3" pointer-events="none"></line><line class="visx-line" x1="0" y1="57.5" x2="1450" y2="57.5" fill="transparent" shape-rendering="crispEdges" stroke="#000" stroke-width="1" stroke-dasharray="3,3" pointer-events="none"></line><line class="visx-line" x1="0" y1="28.75" x2="1450" y2="28.75" fill="transparent" shape-rendering="crispEdges" stroke="#000" stroke-width="1" stroke-dasharray="3,3" pointer-events="none"></line><line class="visx-line" x1="0" y1="0" x2="1450" y2="0" fill="transparent" shape-rendering="crispEdges" stroke="#000" stroke-width="1" stroke-dasharray="3,3" pointer-events="none"></line></g><path class="visx-linepath" d="M0,114.99999999998204C2.4166666666666665,114.99700520832285,4.833333333333334,114.99401041666366,7.25,114.99101562499999C9.666666666666666,114.98802083333632,12.083333333333334,114.98502604166667,14.5,114.98203125C16.916666666666668,114.97903645833334,19.333333333333332,114.97604166666666,21.75,114.973046875C24.166666666666668,114.97005208333333,26.583333333333332,114.96705729166666,29,114.9640625C31.416666666666668,114.96106770833333,33.833333333333336,114.95807291666667,36.25,114.955078125C38.666666666666664,114.95208333333333,41.083333333333336,114.94908854166667,43.5,114.94609375C45.91666666666667,114.94309895833334,48.333333333333336,114.94010416666667,50.75000000000001,114.937109375C53.16666666666667,114.93411458333334,55.583333333333336,114.93111979166667,58,114.92812500000001C60.416666666666664,114.92513020833334,62.833333333333336,114.92213541666666,65.25,114.919140625C67.66666666666667,114.91614583333333,70.08333333333333,114.91315104166667,72.5,114.91015625C74.91666666666667,114.90716145833333,77.33333333333333,114.90416666666667,79.75,114.901171875C82.16666666666667,114.89817708333334,84.58333333333333,114.89518229166666,87,114.89218749999999C89.41666666666667,114.88919270833333,91.83333333333333,114.88619791666667,94.25,114.88320312500001C96.66666666666667,114.88020833333334,99.08333333333334,114.87721354166666,101.50000000000001,114.87421875C103.91666666666667,114.87122395833333,106.33333333333334,114.86822916666667,108.75,114.865234375C111.16666666666667,114.86223958333333,113.58333333333333,114.85924479166667,116,114.85625C118.41666666666667,114.85325520833334,120.83333333333334,114.85026041666666,123.25000000000001,114.84726562499999C125.66666666666667,114.84427083333333,128.08333333333334,114.84127604166666,130.5,114.83828125C132.91666666666666,114.83528645833333,135.33333333333334,114.83229166666666,137.75,114.829296875C140.16666666666666,114.82630208333333,142.58333333333334,114.82330729166667,145,114.8203125C147.41666666666666,114.81731770833333,149.83333333333334,114.81432291666667,152.25,114.811328125C154.66666666666666,114.80833333333334,157.08333333333334,114.80533854166667,159.5,114.80234375C161.91666666666666,114.79934895833334,164.33333333333334,114.79635416666666,166.75,114.793359375C169.16666666666666,114.79036458333333,171.58333333333334,114.78736979166668,174,114.78437500000001C176.41666666666666,114.78138020833335,178.83333333333334,114.77838541666667,181.25,114.775390625C183.66666666666666,114.77239583333333,186.08333333333334,114.76940104166665,188.5,114.76640624999999C190.91666666666666,114.76341145833332,193.33333333333334,114.76041666666667,195.75,114.757421875C198.16666666666669,114.75442708333334,200.58333333333334,114.75143229166666,203.00000000000003,114.7484375C205.41666666666669,114.74544270833333,207.83333333333331,114.74244791666666,210.24999999999997,114.739453125C212.66666666666666,114.73645833333333,215.08333333333331,114.73346354166667,217.5,114.73046875C219.91666666666666,114.72747395833333,222.33333333333334,114.72447916666667,224.75,114.721484375C227.16666666666666,114.71848958333334,229.58333333333334,114.71549479166667,232,114.7125C234.41666666666666,114.70950520833334,236.83333333333334,114.70651041666667,239.25,114.70351562500001C241.66666666666669,114.70052083333334,244.08333333333334,114.69752604166666,246.50000000000003,114.69453125C248.91666666666669,114.69153645833333,251.33333333333331,114.68854166666667,253.74999999999997,114.685546875C256.16666666666663,114.68255208333333,258.5833333333333,114.67955729166667,261,114.6765625C263.4166666666667,114.67356770833334,265.8333333333333,114.67057291666666,268.25,114.66757812499999C270.6666666666667,114.66458333333333,273.0833333333333,114.66158854166667,275.5,114.65859375000001C277.9166666666667,114.65559895833334,280.3333333333333,114.65260416666666,282.75,114.649609375C285.1666666666667,114.64661458333333,287.5833333333333,114.64361979166667,290,114.640625C292.4166666666667,114.63763020833333,294.8333333333333,114.63463541666667,297.25,114.631640625C299.6666666666667,114.62864583333334,302.0833333333333,114.62565104166666,304.5,114.62265624999999C306.9166666666667,114.61966145833333,309.3333333333333,114.61666666666666,311.75,114.613671875C314.1666666666667,114.61067708333333,316.5833333333333,114.60768229166666,319,114.6046875C321.4166666666667,114.60169270833333,323.8333333333333,114.59869791666667,326.25,114.595703125C328.6666666666667,114.59270833333333,331.0833333333333,114.58971354166667,333.5,114.58671875C335.9166666666667,114.58372395833334,338.3333333333333,114.58072916666667,340.75,114.577734375C343.1666666666667,114.57473958333334,345.5833333333333,114.57174479166666,348,114.56875C350.4166666666667,114.56575520833333,352.8333333333333,114.56276041666668,355.25,114.55976562500001C357.6666666666667,114.55677083333335,360.0833333333333,114.55377604166667,362.5,114.55078125C364.9166666666667,114.54778645833333,367.3333333333333,114.54479166666665,369.75,114.54179687499999C372.1666666666667,114.53880208333332,374.5833333333333,114.53580729166667,377,114.5328125C379.4166666666667,114.52981770833334,381.8333333333333,114.52682291666666,384.25,114.523828125C386.6666666666667,114.52083333333333,389.0833333333333,114.51783854166666,391.5,114.51484375C393.9166666666667,114.51184895833333,396.33333333333337,114.50885416666667,398.75000000000006,114.505859375C401.16666666666674,114.50286458333333,403.58333333333337,114.49986979166667,406.00000000000006,114.496875C408.4166666666667,114.49388020833334,410.8333333333333,114.49088541666667,413.24999999999994,114.487890625C415.66666666666663,114.48489583333334,418.08333333333326,114.48190104166667,420.49999999999994,114.47890625000001C422.91666666666663,114.47591145833334,425.3333333333333,114.47291666666666,427.75,114.469921875C430.1666666666667,114.46692708333333,432.5833333333333,114.46393229166667,435,114.4609375C437.4166666666667,114.45794270833333,439.8333333333333,114.45494791666667,442.25,114.451953125C444.6666666666667,114.44895833333334,447.0833333333333,114.44596354166666,449.5,114.44296874999999C451.9166666666667,114.43997395833333,454.3333333333333,114.43697916666667,456.75,114.43398437500001C459.1666666666667,114.43098958333334,461.5833333333333,114.42799479166666,464,114.425C466.4166666666667,114.42200520833333,468.8333333333333,114.41901041666667,471.25,114.416015625C473.6666666666667,114.41302083333333,476.0833333333333,114.41002604166667,478.5,114.40703125C480.9166666666667,114.40403645833334,483.33333333333337,114.40104166666666,485.75000000000006,114.39804687499999C488.16666666666674,114.39505208333333,490.58333333333337,114.39205729166666,493.00000000000006,114.3890625C495.4166666666667,114.38606770833333,497.8333333333333,114.38307291666666,500.24999999999994,114.380078125C502.66666666666663,114.37708333333333,505.08333333333326,114.37408854166667,507.49999999999994,114.37109375C509.91666666666663,114.36809895833333,512.3333333333333,114.36510416666667,514.75,114.362109375C517.1666666666666,114.35911458333334,519.5833333333334,114.35611979166667,522,114.353125C524.4166666666666,114.35013020833334,526.8333333333334,114.34713541666666,529.25,114.344140625C531.6666666666666,114.34114583333333,534.0833333333334,114.33815104166668,536.5,114.33515625000001C538.9166666666666,114.33216145833335,541.3333333333334,114.32916666666667,543.75,114.326171875C546.1666666666666,114.32317708333333,548.5833333333334,114.32018229166665,551,114.31718749999999C553.4166666666666,114.31419270833332,555.8333333333334,114.31119791666667,558.25,114.308203125C560.6666666666666,114.30520833333334,563.0833333333334,114.30221354166666,565.5,114.29921875C567.9166666666666,114.29622395833333,570.3333333333334,114.29322916666666,572.75,114.290234375C575.1666666666666,114.28723958333333,577.5833333333334,114.28424479166667,580,114.28125C582.4166666666666,114.27825520833333,584.8333333333334,114.27526041666667,587.25,114.272265625C589.6666666666666,114.26927083333334,592.0833333333334,114.26627604166667,594.5,114.26328125C596.9166666666666,114.26028645833334,599.3333333333334,114.25729166666667,601.75,114.25429687500001C604.1666666666666,114.25130208333334,606.5833333333334,114.24830729166666,609,114.2453125C611.4166666666666,114.24231770833333,613.8333333333334,114.23932291666667,616.25,114.236328125C618.6666666666666,114.23333333333333,621.0833333333334,114.23033854166667,623.5,114.22734375C625.9166666666666,114.22434895833334,628.3333333333334,114.22135416666666,630.75,114.21835937499999C633.1666666666666,114.21536458333333,635.5833333333334,114.21236979166667,638,114.20937500000001C640.4166666666666,114.20638020833334,642.8333333333334,114.20338541666666,645.25,114.200390625C647.6666666666666,114.19739583333333,650.0833333333334,114.19440104166667,652.5,114.19140625C654.9166666666666,114.18841145833333,657.3333333333334,114.18541666666667,659.75,114.182421875C662.1666666666666,114.17942708333334,664.5833333333334,114.17643229166666,667,114.17343749999999C669.4166666666666,114.17044270833333,671.8333333333334,114.16744791666666,674.25,114.164453125C676.6666666666666,114.16145833333333,679.0833333333334,114.15846354166666,681.5,114.15546875C683.9166666666666,114.15247395833333,686.3333333333334,114.14947916666667,688.75,114.146484375C691.1666666666666,114.14348958333333,693.5833333333334,114.14049479166667,696,114.1375C698.4166666666666,114.13450520833334,700.8333333333334,114.13151041666667,703.25,114.128515625C705.6666666666666,114.12552083333334,708.0833333333334,114.12252604166666,710.5,114.11953125C712.9166666666666,114.11653645833333,715.3333333333334,114.11354166666668,717.75,114.11054687500001C720.1666666666666,114.10755208333335,722.5833333333334,114.10455729166667,725,114.1015625C727.4166666666666,114.09856770833333,729.8333333333334,114.09557291666665,732.25,114.09257812499999C734.6666666666666,114.08958333333332,737.0833333333334,114.08658854166667,739.5,114.08359375C741.9166666666666,114.08059895833334,744.3333333333334,114.07760416666666,746.75,114.074609375C749.1666666666666,114.07161458333333,751.5833333333334,114.06861979166666,754,114.065625C756.4166666666666,114.06263020833333,758.8333333333334,114.05963541666667,761.25,114.056640625C763.6666666666666,114.05364583333333,766.0833333333334,114.05065104166667,768.5,114.04765625C770.9166666666666,114.04466145833334,773.3333333333334,114.04166666666667,775.75,114.038671875C778.1666666666666,114.03567708333334,780.5833333333334,114.03268229166667,783,114.02968750000001C785.4166666666667,114.02669270833334,787.8333333333334,114.02369791666666,790.2500000000001,114.020703125C792.6666666666667,114.01770833333333,795.0833333333335,114.01471354166667,797.5000000000001,114.01171875C799.9166666666667,114.00872395833333,802.3333333333335,114.00572916666667,804.7500000000001,114.002734375C807.1666666666667,113.99973958333334,809.5833333333335,113.99674479166666,812.0000000000001,113.99374999999999C814.4166666666667,113.99075520833333,816.8333333333333,113.98776041666667,819.2499999999999,113.98476562500001C821.6666666666665,113.98177083333334,824.0833333333333,113.97877604166666,826.4999999999999,113.97578125C828.9166666666665,113.97278645833333,831.3333333333333,113.96979166666667,833.7499999999999,113.966796875C836.1666666666665,113.96380208333333,838.5833333333333,113.96080729166667,840.9999999999999,113.9578125C843.4166666666666,113.95481770833334,845.8333333333333,113.95182291666666,848.25,113.94882812499999C850.6666666666666,113.94583333333333,853.0833333333334,113.94283854166666,855.5,113.93984375C857.9166666666666,113.93684895833333,860.3333333333334,113.93385416666666,862.75,113.930859375C865.1666666666666,113.92786458333333,867.5833333333334,113.92486979166667,870,113.921875C872.4166666666666,113.91888020833333,874.8333333333334,113.91588541666667,877.25,113.912890625C879.6666666666666,113.90989583333334,882.0833333333334,113.90690104166667,884.5,113.90390625C886.9166666666666,113.90091145833334,889.3333333333334,113.89791666666666,891.75,113.894921875C894.1666666666666,113.89192708333333,896.5833333333334,113.88893229166668,899,113.88593750000001C901.4166666666666,113.88294270833335,903.8333333333334,113.87994791666667,906.25,113.876953125C908.6666666666666,113.87395833333333,911.0833333333334,113.87096354166665,913.5,113.86796874999999C915.9166666666666,113.86497395833332,918.3333333333334,113.86197916666667,920.75,113.858984375C923.1666666666666,113.85598958333334,925.5833333333334,113.85299479166666,928,113.85C930.4166666666666,113.84700520833333,932.8333333333334,113.84401041666666,935.25,113.841015625C937.6666666666666,113.83802083333333,940.0833333333334,113.83502604166667,942.5,113.83203125C944.9166666666666,113.82903645833333,947.3333333333334,113.82604166666667,949.75,113.823046875C952.1666666666666,113.82005208333334,954.5833333333334,113.81705729166667,957,113.8140625C959.4166666666666,113.81106770833334,961.8333333333334,113.80807291666667,964.25,113.80507812500001C966.6666666666667,113.80208333333334,969.0833333333334,113.79908854166666,971.5000000000001,113.79609375C973.9166666666667,113.79309895833333,976.3333333333335,113.79010416666667,978.7500000000001,113.787109375C981.1666666666667,113.78411458333333,983.5833333333335,113.78111979166667,986.0000000000001,113.778125C988.4166666666667,113.77513020833334,990.8333333333335,113.77213541666666,993.2500000000001,113.76914062499999C995.6666666666667,113.76614583333333,998.0833333333333,113.76315104166667,1000.4999999999999,113.76015625000001C1002.9166666666665,113.75716145833334,1005.3333333333333,113.75416666666666,1007.7499999999999,113.751171875C1010.1666666666665,113.74817708333333,1012.5833333333333,113.74518229166667,1014.9999999999999,113.7421875C1017.4166666666665,113.73919270833333,1019.8333333333333,113.73619791666667,1022.2499999999999,113.733203125C1024.6666666666665,113.73020833333334,1027.0833333333333,113.72721354166666,1029.5,113.72421874999999C1031.9166666666667,113.72122395833333,1034.3333333333333,113.71822916666666,1036.75,113.715234375C1039.1666666666667,113.71223958333333,1041.5833333333333,113.70924479166666,1044,113.70625C1046.4166666666667,113.70325520833333,1048.8333333333333,113.70026041666667,1051.25,113.697265625C1053.6666666666667,113.69427083333333,1056.0833333333333,113.69127604166667,1058.5,113.68828125C1060.9166666666667,113.68528645833334,1063.3333333333333,113.68229166666667,1065.75,113.679296875C1068.1666666666667,113.67630208333334,1070.5833333333333,113.67330729166666,1073,113.6703125C1075.4166666666667,113.66731770833333,1077.8333333333333,113.66432291666668,1080.25,113.66132812500001C1082.6666666666667,113.65833333333335,1085.0833333333333,113.65533854166667,1087.5,113.65234375C1089.9166666666667,113.64934895833333,1092.3333333333333,113.64635416666665,1094.75,113.64335937499999C1097.1666666666667,113.64036458333332,1099.5833333333333,113.63736979166667,1102,113.634375C1104.4166666666667,113.63138020833334,1106.8333333333333,113.62838541666666,1109.25,113.625390625C1111.6666666666667,113.62239583333333,1114.0833333333333,113.61940104166666,1116.5,113.61640625C1118.9166666666667,113.61341145833333,1121.3333333333333,113.61041666666667,1123.75,113.607421875C1126.1666666666667,113.60442708333333,1128.5833333333333,113.60143229166667,1131,113.5984375C1133.4166666666667,113.59544270833334,1135.8333333333333,113.59244791666667,1138.25,113.589453125C1140.6666666666667,113.58645833333334,1143.0833333333333,113.58346354166667,1145.5,113.58046875000001C1147.9166666666667,113.57747395833334,1150.3333333333333,113.57447916666666,1152.75,113.571484375C1155.1666666666667,113.56848958333333,1157.5833333333333,113.56848958333333,1160,113.5625C1162.4166666666667,113.55651041666667,1164.8333333333333,113.17916666666667,1167.25,112.98750000000001C1169.6666666666667,112.79583333333335,1172.0833333333333,112.60416666666667,1174.5,112.41250000000001C1176.9166666666667,112.22083333333335,1179.3333333333333,112.02916666666667,1181.75,111.8375C1184.1666666666667,111.64583333333334,1186.5833333333333,111.45416666666667,1189,111.2625C1191.4166666666667,111.07083333333334,1193.8333333333333,110.87916666666666,1196.25,110.6875C1198.6666666666667,110.49583333333334,1201.0833333333333,110.30416666666666,1203.5,110.1125C1205.9166666666667,109.92083333333333,1208.3333333333333,109.72916666666667,1210.75,109.53750000000001C1213.1666666666667,109.34583333333335,1215.5833333333333,109.15416666666667,1218,108.9625C1220.4166666666667,108.77083333333334,1222.8333333333333,108.57916666666667,1225.25,108.3875C1227.6666666666667,108.19583333333334,1230.0833333333333,108.00416666666666,1232.5,107.8125C1234.9166666666667,107.62083333333334,1237.3333333333333,107.42916666666666,1239.75,107.2375C1242.1666666666667,107.04583333333333,1244.5833333333333,106.85416666666666,1247,106.6625C1249.4166666666667,106.47083333333333,1251.8333333333333,106.27916666666665,1254.25,106.08749999999999C1256.6666666666667,105.89583333333333,1259.0833333333333,105.70416666666667,1261.5,105.5125C1263.9166666666667,105.32083333333334,1266.3333333333333,105.12916666666666,1268.75,104.9375C1271.1666666666667,104.74583333333334,1273.5833333333333,104.55416666666666,1276,104.3625C1278.4166666666667,104.17083333333333,1280.8333333333333,103.97916666666666,1283.25,103.7875C1285.6666666666667,103.59583333333333,1288.0833333333333,103.40416666666665,1290.5,103.21249999999999C1292.9166666666667,103.02083333333333,1295.3333333333333,102.82916666666665,1297.75,102.63749999999999C1300.1666666666667,102.44583333333333,1302.5833333333333,102.25416666666666,1305,102.0625C1307.4166666666667,101.87083333333334,1309.8333333333333,101.67916666666667,1312.25,101.48750000000001C1314.6666666666667,101.29583333333335,1317.0833333333333,101.10416666666666,1319.5,100.9125C1321.9166666666667,100.72083333333333,1324.3333333333333,100.52916666666667,1326.75,100.3375C1329.1666666666667,100.14583333333334,1331.5833333333333,99.95416666666665,1334,99.76249999999999C1336.4166666666667,99.57083333333333,1338.8333333333333,99.37916666666666,1341.25,99.1875C1343.6666666666667,98.99583333333334,1346.0833333333333,98.80416666666667,1348.5,98.61250000000001C1350.9166666666667,98.42083333333335,1353.3333333333333,98.22916666666667,1355.75,98.03750000000001C1358.1666666666667,97.84583333333335,1360.5833333333333,97.65416666666667,1363,97.4625C1365.4166666666667,97.27083333333334,1367.8333333333333,97.07916666666667,1370.25,96.8875C1372.6666666666667,96.69583333333334,1375.0833333333333,96.50416666666666,1377.5,96.3125C1379.9166666666667,96.12083333333334,1382.3333333333333,95.92916666666666,1384.75,95.7375C1387.1666666666667,95.54583333333333,1389.5833333333333,95.35416666666667,1392,95.16250000000001C1394.4166666666667,94.97083333333335,1396.8333333333333,94.77916666666667,1399.25,94.5875C1401.6666666666667,94.39583333333334,1404.0833333333333,94.20416666666667,1406.5,94.0125C1408.9166666666667,93.82083333333334,1411.3333333333333,93.62916666666666,1413.75,93.4375C1416.1666666666667,93.24583333333334,1418.5833333333333,93.05416666666666,1421,92.8625C1423.4166666666667,92.67083333333333,1425.8333333333333,92.47916666666666,1428.25,92.2875C1430.6666666666667,92.09583333333333,1433.0833333333333,91.90416666666665,1435.5,91.71249999999999C1437.9166666666667,91.52083333333333,1440.3333333333333,91.32916666666667,1442.75,91.1375C1445.1666666666667,90.94583333333334,1447.5833333333333,90.75416666666666,1450,90.5625" fill="transparent" stroke-linecap="round" stroke="#B6509E" stroke-width="2"></path><path class="visx-linepath" d="M0,112.69999999995328C2.4166666666666665,112.69221354163942,4.833333333333334,112.68442708332555,7.25,112.676640625C9.666666666666666,112.66885416667446,12.083333333333334,112.66106770833333,14.5,112.65328125C16.916666666666668,112.64549479166668,19.333333333333332,112.63770833333332,21.75,112.629921875C24.166666666666668,112.62213541666667,26.583333333333332,112.61434895833332,29,112.6065625C31.416666666666668,112.59877604166667,33.833333333333336,112.59098958333333,36.25,112.583203125C38.666666666666664,112.57541666666667,41.083333333333336,112.56763020833333,43.5,112.55984375C45.91666666666667,112.55205729166667,48.333333333333336,112.54427083333333,50.75000000000001,112.536484375C53.16666666666667,112.52869791666667,55.583333333333336,112.52091145833333,58,112.513125C60.416666666666664,112.50533854166667,62.833333333333336,112.49755208333333,65.25,112.489765625C67.66666666666667,112.48197916666668,70.08333333333333,112.47419270833333,72.5,112.46640625C74.91666666666667,112.45861979166668,77.33333333333333,112.45083333333332,79.75,112.443046875C82.16666666666667,112.43526041666667,84.58333333333333,112.42747395833332,87,112.4196875C89.41666666666667,112.41190104166667,91.83333333333333,112.40411458333332,94.25,112.396328125C96.66666666666667,112.38854166666667,99.08333333333334,112.38075520833333,101.50000000000001,112.37296875C103.91666666666667,112.36518229166667,106.33333333333334,112.35739583333333,108.75,112.349609375C111.16666666666667,112.34182291666667,113.58333333333333,112.33403645833333,116,112.32625C118.41666666666667,112.31846354166667,120.83333333333334,112.31067708333335,123.25000000000001,112.302890625C125.66666666666667,112.29510416666668,128.08333333333334,112.28731770833332,130.5,112.27953124999999C132.91666666666666,112.27174479166665,135.33333333333334,112.26395833333332,137.75,112.25617187499999C140.16666666666666,112.24838541666666,142.58333333333334,112.24059895833334,145,112.23281250000001C147.41666666666666,112.22502604166668,149.83333333333334,112.21723958333334,152.25,112.20945312500001C154.66666666666666,112.20166666666668,157.08333333333334,112.19388020833333,159.5,112.18609375C161.91666666666666,112.17830729166667,164.33333333333334,112.17052083333333,166.75,112.162734375C169.16666666666666,112.15494791666667,171.58333333333334,112.14716145833333,174,112.139375C176.41666666666666,112.13158854166667,178.83333333333334,112.12380208333333,181.25,112.116015625C183.66666666666666,112.10822916666667,186.08333333333334,112.10044270833332,188.5,112.09265624999999C190.91666666666666,112.08486979166666,193.33333333333334,112.07708333333333,195.75,112.069296875C198.16666666666669,112.06151041666668,200.58333333333334,112.05372395833334,203.00000000000003,112.04593750000001C205.41666666666669,112.03815104166668,207.83333333333331,112.03036458333334,210.24999999999997,112.02257812500001C212.66666666666666,112.01479166666667,215.08333333333331,112.00700520833334,217.5,111.99921875C219.91666666666666,111.99143229166667,222.33333333333334,111.98364583333333,224.75,111.975859375C227.16666666666666,111.96807291666667,229.58333333333334,111.96028645833333,232,111.9525C234.41666666666666,111.94471354166667,236.83333333333334,111.93692708333332,239.25,111.92914062499999C241.66666666666669,111.92135416666666,244.08333333333334,111.91356770833333,246.50000000000003,111.90578125C248.91666666666669,111.89799479166668,251.33333333333331,111.89020833333333,253.74999999999997,111.882421875C256.16666666666663,111.87463541666668,258.5833333333333,111.86684895833335,261,111.85906250000001C263.4166666666667,111.85127604166668,265.8333333333333,111.84348958333332,268.25,111.835703125C270.6666666666667,111.82791666666667,273.0833333333333,111.82013020833332,275.5,111.81234375C277.9166666666667,111.80455729166667,280.3333333333333,111.79677083333333,282.75,111.788984375C285.1666666666667,111.78119791666667,287.5833333333333,111.77341145833333,290,111.765625C292.4166666666667,111.75783854166667,294.8333333333333,111.75005208333333,297.25,111.742265625C299.6666666666667,111.73447916666667,302.0833333333333,111.72669270833333,304.5,111.71890625C306.9166666666667,111.71111979166668,309.3333333333333,111.70333333333333,311.75,111.695546875C314.1666666666667,111.68776041666668,316.5833333333333,111.67997395833333,319,111.6721875C321.4166666666667,111.66440104166668,323.8333333333333,111.65661458333332,326.25,111.648828125C328.6666666666667,111.64104166666667,331.0833333333333,111.63325520833332,333.5,111.62546875C335.9166666666667,111.61768229166667,338.3333333333333,111.60989583333333,340.75,111.602109375C343.1666666666667,111.59432291666667,345.5833333333333,111.58653645833334,348,111.57875000000001C350.4166666666667,111.57096354166669,352.8333333333333,111.56317708333333,355.25,111.555390625C357.6666666666667,111.54760416666667,360.0833333333333,111.53981770833333,362.5,111.53203125C364.9166666666667,111.52424479166667,367.3333333333333,111.51645833333333,369.75,111.508671875C372.1666666666667,111.50088541666668,374.5833333333333,111.49309895833332,377,111.48531249999999C379.4166666666667,111.47752604166666,381.8333333333333,111.46973958333332,384.25,111.461953125C386.6666666666667,111.45416666666667,389.0833333333333,111.44638020833332,391.5,111.43859375C393.9166666666667,111.43080729166667,396.33333333333337,111.42302083333334,398.75000000000006,111.41523437500001C401.16666666666674,111.40744791666668,403.58333333333337,111.39966145833334,406.00000000000006,111.391875C408.4166666666667,111.38408854166667,410.8333333333333,111.37630208333333,413.24999999999994,111.368515625C415.66666666666663,111.36072916666667,418.08333333333326,111.35294270833333,420.49999999999994,111.34515625C422.91666666666663,111.33736979166667,425.3333333333333,111.32958333333335,427.75,111.321796875C430.1666666666667,111.31401041666668,432.5833333333333,111.30622395833332,435,111.29843749999999C437.4166666666667,111.29065104166666,439.8333333333333,111.28286458333332,442.25,111.275078125C444.6666666666667,111.26729166666667,447.0833333333333,111.25950520833334,449.5,111.25171875000001C451.9166666666667,111.24393229166668,454.3333333333333,111.23614583333332,456.75,111.228359375C459.1666666666667,111.22057291666667,461.5833333333333,111.21278645833333,464,111.205C466.4166666666667,111.19721354166667,468.8333333333333,111.18942708333333,471.25,111.181640625C473.6666666666667,111.17385416666667,476.0833333333333,111.16606770833333,478.5,111.15828125C480.9166666666667,111.15049479166667,483.33333333333337,111.14270833333335,485.75000000000006,111.134921875C488.16666666666674,111.12713541666668,490.58333333333337,111.11934895833332,493.00000000000006,111.11156249999999C495.4166666666667,111.10377604166666,497.8333333333333,111.09598958333333,500.24999999999994,111.088203125C502.66666666666663,111.08041666666668,505.08333333333326,111.07263020833334,507.49999999999994,111.06484375000001C509.91666666666663,111.05705729166667,512.3333333333333,111.04927083333334,514.75,111.041484375C517.1666666666666,111.03369791666667,519.5833333333334,111.02591145833333,522,111.018125C524.4166666666666,111.01033854166667,526.8333333333334,111.00255208333333,529.25,110.994765625C531.6666666666666,110.98697916666667,534.0833333333334,110.97919270833333,536.5,110.97140625C538.9166666666666,110.96361979166667,541.3333333333334,110.95583333333332,543.75,110.94804687499999C546.1666666666666,110.94026041666666,548.5833333333334,110.93247395833333,551,110.9246875C553.4166666666666,110.91690104166668,555.8333333333334,110.90911458333333,558.25,110.901328125C560.6666666666666,110.89354166666668,563.0833333333334,110.88575520833334,565.5,110.87796875000001C567.9166666666666,110.87018229166668,570.3333333333334,110.86239583333332,572.75,110.854609375C575.1666666666666,110.84682291666667,577.5833333333334,110.83903645833333,580,110.83125C582.4166666666666,110.82346354166667,584.8333333333334,110.81567708333333,587.25,110.807890625C589.6666666666666,110.80010416666667,592.0833333333334,110.79231770833331,594.5,110.78453124999999C596.9166666666666,110.77674479166666,599.3333333333334,110.76895833333333,601.75,110.761171875C604.1666666666666,110.75338541666667,606.5833333333334,110.74559895833333,609,110.7378125C611.4166666666666,110.73002604166668,613.8333333333334,110.72223958333333,616.25,110.714453125C618.6666666666666,110.70666666666668,621.0833333333334,110.69888020833332,623.5,110.69109375C625.9166666666666,110.68330729166667,628.3333333333334,110.67552083333332,630.75,110.667734375C633.1666666666666,110.65994791666667,635.5833333333334,110.65216145833332,638,110.644375C640.4166666666666,110.63658854166667,642.8333333333334,110.62880208333333,645.25,110.621015625C647.6666666666666,110.61322916666667,650.0833333333334,110.60544270833333,652.5,110.59765625C654.9166666666666,110.58986979166667,657.3333333333334,110.58208333333333,659.75,110.574296875C662.1666666666666,110.56651041666667,664.5833333333334,110.55872395833333,667,110.5509375C669.4166666666666,110.54315104166668,671.8333333333334,110.53536458333333,674.25,110.527578125C676.6666666666666,110.51979166666668,679.0833333333334,110.51200520833332,681.5,110.50421874999999C683.9166666666666,110.49643229166666,686.3333333333334,110.48864583333332,688.75,110.480859375C691.1666666666666,110.47307291666667,693.5833333333334,110.46528645833332,696,110.4575C698.4166666666666,110.44971354166667,700.8333333333334,110.44192708333334,703.25,110.43414062500001C705.6666666666666,110.42635416666668,708.0833333333334,110.41856770833333,710.5,110.41078125C712.9166666666666,110.40299479166667,715.3333333333334,110.39520833333333,717.75,110.387421875C720.1666666666666,110.37963541666667,722.5833333333334,110.37184895833333,725,110.3640625C727.4166666666666,110.35627604166667,729.8333333333334,110.34848958333332,732.25,110.34070312499999C734.6666666666666,110.33291666666666,737.0833333333334,110.32513020833332,739.5,110.31734374999999C741.9166666666666,110.30955729166666,744.3333333333334,110.30177083333332,746.75,110.293984375C749.1666666666666,110.28619791666667,751.5833333333334,110.27841145833334,754,110.27062500000001C756.4166666666666,110.26283854166668,758.8333333333334,110.25505208333333,761.25,110.247265625C763.6666666666666,110.23947916666667,766.0833333333334,110.23169270833333,768.5,110.22390625C770.9166666666666,110.21611979166667,773.3333333333334,110.20833333333333,775.75,110.200546875C778.1666666666666,110.19276041666667,780.5833333333334,110.18497395833333,783,110.1771875C785.4166666666667,110.16940104166666,787.8333333333334,110.16161458333333,790.2500000000001,110.15382812499999C792.6666666666667,110.14604166666666,795.0833333333335,110.13825520833332,797.5000000000001,110.13046874999999C799.9166666666667,110.12268229166666,802.3333333333335,110.11489583333334,804.7500000000001,110.10710937500001C807.1666666666667,110.09932291666668,809.5833333333335,110.09153645833335,812.0000000000001,110.08375000000001C814.4166666666667,110.07596354166668,816.8333333333333,110.06817708333332,819.2499999999999,110.060390625C821.6666666666665,110.05260416666665,824.0833333333333,110.04481770833333,826.4999999999999,110.03703125C828.9166666666665,110.02924479166667,831.3333333333333,110.02145833333333,833.7499999999999,110.013671875C836.1666666666665,110.00588541666667,838.5833333333333,109.99809895833333,840.9999999999999,109.9903125C843.4166666666666,109.98252604166667,845.8333333333333,109.97473958333333,848.25,109.966953125C850.6666666666666,109.95916666666668,853.0833333333334,109.95138020833333,855.5,109.94359375C857.9166666666666,109.93580729166668,860.3333333333334,109.92802083333333,862.75,109.920234375C865.1666666666666,109.91244791666668,867.5833333333334,109.90466145833332,870,109.896875C872.4166666666666,109.88908854166667,874.8333333333334,109.88130208333332,877.25,109.873515625C879.6666666666666,109.86572916666667,882.0833333333334,109.85794270833333,884.5,109.85015625C886.9166666666666,109.84236979166667,889.3333333333334,109.83458333333333,891.75,109.826796875C894.1666666666666,109.81901041666667,896.5833333333334,109.81122395833333,899,109.8034375C901.4166666666666,109.79565104166667,903.8333333333334,109.78786458333333,906.25,109.780078125C908.6666666666666,109.77229166666667,911.0833333333334,109.76450520833333,913.5,109.75671875C915.9166666666666,109.74893229166668,918.3333333333334,109.74114583333333,920.75,109.733359375C923.1666666666666,109.72557291666668,925.5833333333334,109.71778645833332,928,109.71C930.4166666666666,109.70221354166667,932.8333333333334,109.69442708333332,935.25,109.686640625C937.6666666666666,109.67885416666667,940.0833333333334,109.67106770833333,942.5,109.66328125C944.9166666666666,109.65549479166667,947.3333333333334,109.64770833333333,949.75,109.639921875C952.1666666666666,109.63213541666667,954.5833333333334,109.62434895833333,957,109.6165625C959.4166666666666,109.60877604166667,961.8333333333334,109.60098958333333,964.25,109.593203125C966.6666666666667,109.58541666666667,969.0833333333334,109.57763020833333,971.5000000000001,109.56984375C973.9166666666667,109.56205729166668,976.3333333333335,109.55427083333333,978.7500000000001,109.546484375C981.1666666666667,109.53869791666668,983.5833333333335,109.53091145833332,986.0000000000001,109.523125C988.4166666666667,109.51533854166667,990.8333333333335,109.50755208333332,993.2500000000001,109.499765625C995.6666666666667,109.49197916666667,998.0833333333333,109.48419270833332,1000.4999999999999,109.47640625C1002.9166666666665,109.46861979166667,1005.3333333333333,109.46083333333333,1007.7499999999999,109.453046875C1010.1666666666665,109.44526041666667,1012.5833333333333,109.43747395833333,1014.9999999999999,109.4296875C1017.4166666666665,109.42190104166667,1019.8333333333333,109.41411458333333,1022.2499999999999,109.406328125C1024.6666666666665,109.39854166666667,1027.0833333333333,109.39075520833335,1029.5,109.38296875C1031.9166666666667,109.37518229166668,1034.3333333333333,109.36739583333332,1036.75,109.35960937499999C1039.1666666666667,109.35182291666666,1041.5833333333333,109.34403645833332,1044,109.33624999999999C1046.4166666666667,109.32846354166666,1048.8333333333333,109.32067708333334,1051.25,109.31289062500001C1053.6666666666667,109.30510416666668,1056.0833333333333,109.29731770833334,1058.5,109.28953125000001C1060.9166666666667,109.28174479166668,1063.3333333333333,109.27395833333333,1065.75,109.266171875C1068.1666666666667,109.25838541666667,1070.5833333333333,109.25059895833333,1073,109.2428125C1075.4166666666667,109.23502604166667,1077.8333333333333,109.22723958333333,1080.25,109.219453125C1082.6666666666667,109.21166666666667,1085.0833333333333,109.20388020833333,1087.5,109.19609375C1089.9166666666667,109.18830729166667,1092.3333333333333,109.18052083333332,1094.75,109.17273437499999C1097.1666666666667,109.16494791666666,1099.5833333333333,109.15716145833333,1102,109.149375C1104.4166666666667,109.14158854166668,1106.8333333333333,109.13380208333334,1109.25,109.12601562500001C1111.6666666666667,109.11822916666668,1114.0833333333333,109.11044270833334,1116.5,109.10265625000001C1118.9166666666667,109.09486979166668,1121.3333333333333,109.08708333333333,1123.75,109.079296875C1126.1666666666667,109.07151041666667,1128.5833333333333,109.06372395833333,1131,109.0559375C1133.4166666666667,109.04815104166667,1135.8333333333333,109.04036458333333,1138.25,109.032578125C1140.6666666666667,109.02479166666667,1143.0833333333333,109.01700520833332,1145.5,109.00921874999999C1147.9166666666667,109.00143229166666,1150.3333333333333,108.99364583333333,1152.75,108.985859375C1155.1666666666667,108.97807291666668,1157.5833333333333,108.97807291666668,1160,108.9625C1162.4166666666667,108.94692708333334,1164.8333333333333,107.52499999999999,1167.25,106.80624999999999C1169.6666666666667,106.08749999999999,1172.0833333333333,105.36875,1174.5,104.65C1176.9166666666667,103.93125,1179.3333333333333,103.21249999999999,1181.75,102.49374999999999C1184.1666666666667,101.77499999999999,1186.5833333333333,101.05625,1189,100.3375C1191.4166666666667,99.61875,1193.8333333333333,98.9,1196.25,98.18125C1198.6666666666667,97.4625,1201.0833333333333,96.74374999999999,1203.5,96.02499999999999C1205.9166666666667,95.30624999999999,1208.3333333333333,94.5875,1210.75,93.86875C1213.1666666666667,93.15,1215.5833333333333,92.43124999999999,1218,91.71249999999999C1220.4166666666667,90.99374999999999,1222.8333333333333,90.275,1225.25,89.55625C1227.6666666666667,88.8375,1230.0833333333333,88.11875,1232.5,87.4C1234.9166666666667,86.68125,1237.3333333333333,85.96249999999999,1239.75,85.24374999999999C1242.1666666666667,84.52499999999999,1244.5833333333333,83.80624999999999,1247,83.08749999999999C1249.4166666666667,82.36874999999999,1251.8333333333333,81.64999999999999,1254.25,80.93124999999999C1256.6666666666667,80.21249999999999,1259.0833333333333,79.49375,1261.5,78.775C1263.9166666666667,78.05625,1266.3333333333333,77.3375,1268.75,76.61875C1271.1666666666667,75.9,1273.5833333333333,75.18124999999999,1276,74.46249999999999C1278.4166666666667,73.74374999999999,1280.8333333333333,73.02499999999999,1283.25,72.30624999999999C1285.6666666666667,71.58749999999999,1288.0833333333333,70.86874999999999,1290.5,70.14999999999999C1292.9166666666667,69.43124999999999,1295.3333333333333,68.7125,1297.75,67.99375C1300.1666666666667,67.275,1302.5833333333333,66.55625,1305,65.8375C1307.4166666666667,65.11875,1309.8333333333333,64.4,1312.25,63.68125C1314.6666666666667,62.9625,1317.0833333333333,62.24374999999999,1319.5,61.52499999999999C1321.9166666666667,60.80624999999999,1324.3333333333333,60.0875,1326.75,59.36875C1329.1666666666667,58.65,1331.5833333333333,57.931250000000006,1334,57.212500000000006C1336.4166666666667,56.493750000000006,1338.8333333333333,55.775,1341.25,55.05625C1343.6666666666667,54.3375,1346.0833333333333,53.61875,1348.5,52.9C1350.9166666666667,52.18125,1353.3333333333333,51.462500000000006,1355.75,50.743750000000006C1358.1666666666667,50.025000000000006,1360.5833333333333,49.30625,1363,48.5875C1365.4166666666667,47.86875,1367.8333333333333,47.150000000000006,1370.25,46.431250000000006C1372.6666666666667,45.712500000000006,1375.0833333333333,44.99375,1377.5,44.275C1379.9166666666667,43.55625,1382.3333333333333,42.8375,1384.75,42.11875C1387.1666666666667,41.4,1389.5833333333333,40.681250000000006,1392,39.962500000000006C1394.4166666666667,39.243750000000006,1396.8333333333333,38.525,1399.25,37.80625C1401.6666666666667,37.0875,1404.0833333333333,36.368750000000006,1406.5,35.650000000000006C1408.9166666666667,34.931250000000006,1411.3333333333333,34.2125,1413.75,33.49375C1416.1666666666667,32.775,1418.5833333333333,32.05624999999999,1421,31.337499999999995C1423.4166666666667,30.618749999999995,1425.8333333333333,29.900000000000002,1428.25,29.181250000000002C1430.6666666666667,28.462500000000002,1433.0833333333333,27.74375,1435.5,27.025C1437.9166666666667,26.30625,1440.3333333333333,25.587500000000006,1442.75,24.868750000000006C1445.1666666666667,24.150000000000006,1447.5833333333333,23.431250000000006,1450,22.712500000000002" fill="transparent" stroke-linecap="round" stroke="#E7C6DF" stroke-width="2"></path><g class="visx-group visx-axis visx-axis-bottom" transform="translate(0, 115)"><g class="visx-group visx-axis-tick" transform="translate(0, 0)"><line class="visx-line" x1="0" y1="0" x2="0" y2="8" fill="transparent" shape-rendering="crispEdges" stroke="#000" stroke-width="0" stroke-linecap="square"></line><svg x="0" y="0" font-size="10" style="overflow:visible"><text transform="" x="0" y="18" fill="#000" font-size="10" text-anchor="middle"><tspan x="0" dy="0em">0%</tspan></text></svg></g><g class="visx-group visx-axis-tick" transform="translate(0, 0)"><line class="visx-line" x1="362.5" y1="0" x2="362.5" y2="8" fill="transparent" shape-rendering="crispEdges" stroke="#000" stroke-width="0" stroke-linecap="square"></line><svg x="0" y="0" font-size="10" style="overflow:visible"><text transform="" x="362.5" y="18" fill="#000" font-size="10" text-anchor="middle"><tspan x="362.5" dy="0em">25%</tspan></text></svg></g><g class="visx-group visx-axis-tick" transform="translate(0, 0)"><line class="visx-line" x1="725" y1="0" x2="725" y2="8" fill="transparent" shape-rendering="crispEdges" stroke="#000" stroke-width="0" stroke-linecap="square"></line><svg x="0" y="0" font-size="10" style="overflow:visible"><text transform="" x="725" y="18" fill="#000" font-size="10" text-anchor="middle"><tspan x="725" dy="0em">50%</tspan></text></svg></g><g class="visx-group visx-axis-tick" transform="translate(0, 0)"><line class="visx-line" x1="1087.5" y1="0" x2="1087.5" y2="8" fill="transparent" shape-rendering="crispEdges" stroke="#000" stroke-width="0" stroke-linecap="square"></line><svg x="0" y="0" font-size="10" style="overflow:visible"><text transform="" x="1087.5" y="18" fill="#000" font-size="10" text-anchor="middle"><tspan x="1087.5" dy="0em">75%</tspan></text></svg></g><g class="visx-group visx-axis-tick" transform="translate(0, 0)"><line class="visx-line" x1="1450" y1="0" x2="1450" y2="8" fill="transparent" shape-rendering="crispEdges" stroke="#000" stroke-width="0" stroke-linecap="square"></line><svg x="0" y="0" font-size="10" style="overflow:visible"><text transform="" x="1450" y="18" fill="#000" font-size="10" text-anchor="middle"><tspan x="1450" dy="0em">100%</tspan></text></svg></g><line class="visx-line visx-axis-line" x1="0.5" y1="0" x2="1450.5" y2="0" fill="transparent" shape-rendering="crispEdges" stroke="#222" stroke-width="0"></line></g><g class="visx-group visx-axis visx-axis-left" transform="translate(0, 0)"><g class="visx-group visx-axis-tick" transform="translate(0, 0)"><line class="visx-line" x1="0" y1="115" x2="-8" y2="115" fill="transparent" shape-rendering="crispEdges" stroke="#222" stroke-width="0" stroke-linecap="square"></line><svg x="-30" y="0" font-size="8" style="overflow:visible"><text transform="" x="-8" y="115" fill="#000" font-size="8" text-anchor="start"><tspan x="-8" dy="0em">0%</tspan></text></svg></g><g class="visx-group visx-axis-tick" transform="translate(0, 0)"><line class="visx-line" x1="0" y1="57.5" x2="-8" y2="57.5" fill="transparent" shape-rendering="crispEdges" stroke="#222" stroke-width="0" stroke-linecap="square"></line><svg x="-30" y="0" font-size="8" style="overflow:visible"><text transform="" x="-8" y="57.5" fill="#000" font-size="8" text-anchor="start"><tspan x="-8" dy="0em">200%</tspan></text></svg></g><g class="visx-group visx-axis-tick" transform="translate(0, 0)"><line class="visx-line" x1="0" y1="0" x2="-8" y2="0" fill="transparent" shape-rendering="crispEdges" stroke="#222" stroke-width="0" stroke-linecap="square"></line><svg x="-30" y="0" font-size="8" style="overflow:visible"><text transform="" x="-8" y="0" fill="#000" font-size="8" text-anchor="start"><tspan x="-8" dy="0em">400%</tspan></text></svg></g><line class="visx-line visx-axis-line" x1="0" y1="115.5" x2="0" y2="0.5" fill="transparent" shape-rendering="crispEdges" stroke="#222" stroke-width="0"></line></g><rect class="visx-bar" width="1450" height="115" fill="transparent"></rect><line class="visx-line" x1="1160" y1="28" x2="1160" y2="115" fill="transparent" shape-rendering="crispEdges" stroke="#0062D2" stroke-width="1" pointer-events="none" stroke-dasharray="5,2"></line><svg x="0" y="0" font-size="10px" style="overflow:visible"><text transform="" x="1160" y="20" font-size="10px" fill="#fff" stroke="#fff" stroke-width="0.8em" text-anchor="middle"><tspan x="1160" dy="0.355em">Optimal 80%</tspan></text></svg><svg x="0" y="0" font-size="10px" style="overflow:visible"><text transform="" x="1160" y="20" font-size="10px" fill="#62677B" text-anchor="middle"><tspan x="1160" dy="0.355em">Optimal 80%</tspan></text></svg></g></svg>