<?xml version="1.0"?><svg xmlns="http://www.w3.org/2000/svg" xmlns:xlink= "http://www.w3.org/1999/xlink" style="background: white;" width="1500" height="185"> <g style="color: black; font-size: 13px; font-family: sans-serif; transform: translate(18px, 25px);"><g><circle r="3" cx="-6" cy="-5" style="fill: #B6509E" /><text>Borrow APR, variable</text></g><g style="transform: translateX(150px);"><circle r="3" cx="-6" cy="-5" style="fill: rgb(231, 198, 223)" /><text>Borrow APR, stable</text></g><g style="transform: translateX(290px);"><circle r="3" cx="-6" cy="-5" style="fill: rgb(0, 98, 210)" /><text>Utilization Rate</text></g></g><g class="visx-group" transform="translate(40, 50)"><g class="visx-group visx-rows" transform="translate(0, 0)"><line class="visx-line" x1="0" y1="115" x2="1450" y2="115" fill="transparent" shape-rendering="crispEdges" stroke="#000" stroke-width="1" stroke-dasharray="3,3" pointer-events="none"></line><line class="visx-line" x1="0" y1="86.25" x2="1450" y2="86.25" fill="transparent" shape-rendering="crispEdges" stroke="#000" stroke-width="1" stroke-dasharray="3,3" pointer-events="none"></line><line class="visx-line" x1="0" y1="57.5" x2="1450" y2="57.5" fill="transparent" shape-rendering="crispEdges" stroke="#000" stroke-width="1" stroke-dasharray="3,3" pointer-events="none"></line><line class="visx-line" x1="0" y1="28.75" x2="1450" y2="28.75" fill="transparent" shape-rendering="crispEdges" stroke="#000" stroke-width="1" stroke-dasharray="3,3" pointer-events="none"></line><line class="visx-line" x1="0" y1="0" x2="1450" y2="0" fill="transparent" shape-rendering="crispEdges" stroke="#000" stroke-width="1" stroke-dasharray="3,3" pointer-events="none"></line></g><path class="visx-linepath" d="M0,114.99999999994411C2.4166666666666665,114.99068287033776,4.833333333333334,114.98136574073142,7.25,114.9720486111111C9.666666666666666,114.96273148149079,12.083333333333334,114.95341435185185,14.5,114.94409722222223C16.916666666666668,114.9347800925926,19.333333333333332,114.92546296296297,21.75,114.91614583333333C24.166666666666668,114.9068287037037,26.583333333333332,114.89751157407406,29,114.88819444444444C31.416666666666668,114.87887731481482,33.833333333333336,114.86956018518518,36.25,114.86024305555556C38.666666666666664,114.85092592592594,41.083333333333336,114.8416087962963,43.5,114.83229166666666C45.91666666666667,114.82297453703703,48.333333333333336,114.8136574074074,50.75000000000001,114.80434027777777C53.16666666666667,114.79502314814815,55.583333333333336,114.78570601851851,58,114.77638888888889C60.416666666666664,114.76707175925925,62.833333333333336,114.75775462962963,65.25,114.7484375C67.66666666666667,114.73912037037036,70.08333333333333,114.72980324074072,72.5,114.7204861111111C74.91666666666667,114.71116898148148,77.33333333333333,114.70185185185184,79.75,114.69253472222222C82.16666666666667,114.6832175925926,84.58333333333333,114.67390046296295,87,114.66458333333333C89.41666666666667,114.6552662037037,91.83333333333333,114.64594907407407,94.25,114.63663194444445C96.66666666666667,114.62731481481481,99.08333333333334,114.61799768518519,101.50000000000001,114.60868055555555C103.91666666666667,114.59936342592593,106.33333333333334,114.5900462962963,108.75,114.58072916666667C111.16666666666667,114.57141203703704,113.58333333333333,114.5620949074074,116,114.55277777777778C118.41666666666667,114.54346064814814,120.83333333333334,114.53414351851853,123.25000000000001,114.5248263888889C125.66666666666667,114.51550925925928,128.08333333333334,114.50619212962962,130.5,114.496875C132.91666666666666,114.48755787037037,135.33333333333334,114.47824074074074,137.75,114.46892361111112C140.16666666666666,114.4596064814815,142.58333333333334,114.45028935185186,145,114.44097222222223C147.41666666666666,114.43165509259259,149.83333333333334,114.42233796296296,152.25,114.41302083333333C154.66666666666666,114.40370370370371,157.08333333333334,114.39438657407408,159.5,114.38506944444445C161.91666666666666,114.37575231481483,164.33333333333334,114.3664351851852,166.75,114.35711805555556C169.16666666666666,114.34780092592592,171.58333333333334,114.33848379629629,174,114.32916666666667C176.41666666666666,114.31984953703704,178.83333333333334,114.31053240740741,181.25,114.30121527777779C183.66666666666666,114.29189814814816,186.08333333333334,114.28258101851853,188.5,114.27326388888889C190.91666666666666,114.26394675925926,193.33333333333334,114.25462962962962,195.75,114.2453125C198.16666666666669,114.23599537037036,200.58333333333334,114.22667824074075,203.00000000000003,114.21736111111112C205.41666666666669,114.2080439814815,207.83333333333331,114.19872685185186,210.24999999999997,114.18940972222222C212.66666666666666,114.18009259259259,215.08333333333331,114.17077546296296,217.5,114.16145833333333C219.91666666666666,114.1521412037037,222.33333333333334,114.14282407407407,224.75,114.13350694444445C227.16666666666666,114.12418981481483,229.58333333333334,114.11487268518519,232,114.10555555555555C234.41666666666666,114.09623842592592,236.83333333333334,114.08692129629628,239.25,114.07760416666666C241.66666666666669,114.06828703703702,244.08333333333334,114.05896990740742,246.50000000000003,114.04965277777778C248.91666666666669,114.04033564814816,251.33333333333331,114.03101851851852,253.74999999999997,114.02170138888889C256.16666666666663,114.01238425925925,258.5833333333333,114.00306712962963,261,113.99374999999999C263.4166666666667,113.98443287037037,265.8333333333333,113.97511574074073,268.25,113.96579861111111C270.6666666666667,113.95648148148149,273.0833333333333,113.94716435185185,275.5,113.93784722222222C277.9166666666667,113.92853009259258,280.3333333333333,113.91921296296294,282.75,113.90989583333332C285.1666666666667,113.9005787037037,287.5833333333333,113.89126157407406,290,113.88194444444444C292.4166666666667,113.87262731481482,294.8333333333333,113.86331018518517,297.25,113.85399305555555C299.6666666666667,113.84467592592593,302.0833333333333,113.83535879629629,304.5,113.82604166666667C306.9166666666667,113.81672453703705,309.3333333333333,113.80740740740741,311.75,113.79809027777779C314.1666666666667,113.78877314814817,316.5833333333333,113.77945601851853,319,113.7701388888889C321.4166666666667,113.76082175925926,323.8333333333333,113.75150462962962,326.25,113.7421875C328.6666666666667,113.73287037037038,331.0833333333333,113.72355324074074,333.5,113.71423611111112C335.9166666666667,113.7049189814815,338.3333333333333,113.69560185185186,340.75,113.68628472222223C343.1666666666667,113.67696759259259,345.5833333333333,113.66765046296295,348,113.65833333333333C350.4166666666667,113.64901620370371,352.8333333333333,113.63969907407407,355.25,113.63038194444445C357.6666666666667,113.62106481481483,360.0833333333333,113.6117476851852,362.5,113.60243055555556C364.9166666666667,113.59311342592592,367.3333333333333,113.58379629629628,369.75,113.57447916666666C372.1666666666667,113.56516203703704,374.5833333333333,113.5558449074074,377,113.54652777777778C379.4166666666667,113.53721064814816,381.8333333333333,113.52789351851852,384.25,113.51857638888889C386.6666666666667,113.50925925925925,389.0833333333333,113.49994212962962,391.5,113.490625C393.9166666666667,113.48130787037036,396.33333333333337,113.47199074074075,398.75000000000006,113.46267361111111C401.16666666666674,113.45335648148149,403.58333333333337,113.44403935185186,406.00000000000006,113.43472222222222C408.4166666666667,113.42540509259258,410.8333333333333,113.41608796296295,413.24999999999994,113.40677083333333C415.66666666666663,113.39745370370369,418.08333333333326,113.38813657407407,420.49999999999994,113.37881944444445C422.91666666666663,113.36950231481481,425.3333333333333,113.36018518518519,427.75,113.35086805555555C430.1666666666667,113.34155092592593,432.5833333333333,113.3322337962963,435,113.32291666666667C437.4166666666667,113.31359953703705,439.8333333333333,113.30428240740741,442.25,113.29496527777778C444.6666666666667,113.28564814814814,447.0833333333333,113.2763310185185,449.5,113.26701388888888C451.9166666666667,113.25769675925926,454.3333333333333,113.24837962962962,456.75,113.2390625C459.1666666666667,113.22974537037038,461.5833333333333,113.22042824074074,464,113.21111111111111C466.4166666666667,113.20179398148147,468.8333333333333,113.19247685185184,471.25,113.18315972222221C473.6666666666667,113.17384259259259,476.0833333333333,113.16452546296296,478.5,113.15520833333333C480.9166666666667,113.1458912037037,483.33333333333337,113.13657407407408,485.75000000000006,113.12725694444444C488.16666666666674,113.1179398148148,490.58333333333337,113.10862268518518,493.00000000000006,113.09930555555555C495.4166666666667,113.08998842592592,497.8333333333333,113.08067129629629,500.24999999999994,113.07135416666667C502.66666666666663,113.06203703703703,505.08333333333326,113.0527199074074,507.49999999999994,113.04340277777777C509.91666666666663,113.03408564814814,512.3333333333333,113.02476851851851,514.75,113.01545138888889C517.1666666666666,113.00613425925927,519.5833333333334,112.99681712962963,522,112.98750000000001C524.4166666666666,112.97818287037039,526.8333333333334,112.96886574074075,529.25,112.95954861111112C531.6666666666666,112.95023148148148,534.0833333333334,112.94091435185184,536.5,112.93159722222222C538.9166666666666,112.9222800925926,541.3333333333334,112.91296296296296,543.75,112.90364583333334C546.1666666666666,112.89432870370372,548.5833333333334,112.88501157407408,551,112.87569444444445C553.4166666666666,112.86637731481481,555.8333333333334,112.85706018518518,558.25,112.84774305555555C560.6666666666666,112.83842592592593,563.0833333333334,112.8291087962963,565.5,112.81979166666667C567.9166666666666,112.81047453703705,570.3333333333334,112.80115740740742,572.75,112.79184027777778C575.1666666666666,112.78252314814814,577.5833333333334,112.77320601851851,580,112.76388888888889C582.4166666666666,112.75457175925926,584.8333333333334,112.74525462962963,587.25,112.7359375C589.6666666666666,112.72662037037038,592.0833333333334,112.71730324074075,594.5,112.70798611111111C596.9166666666666,112.69866898148148,599.3333333333334,112.68935185185184,601.75,112.68003472222222C604.1666666666666,112.6707175925926,606.5833333333334,112.66140046296296,609,112.65208333333334C611.4166666666666,112.64276620370372,613.8333333333334,112.63344907407408,616.25,112.62413194444444C618.6666666666666,112.6148148148148,621.0833333333334,112.60549768518517,623.5,112.59618055555555C625.9166666666666,112.58686342592593,628.3333333333334,112.57754629629629,630.75,112.56822916666667C633.1666666666666,112.55891203703705,635.5833333333334,112.54959490740741,638,112.54027777777777C640.4166666666666,112.53096064814814,642.8333333333334,112.5216435185185,645.25,112.51232638888888C647.6666666666666,112.50300925925926,650.0833333333334,112.49369212962962,652.5,112.484375C654.9166666666666,112.47505787037038,657.3333333333334,112.46574074074073,659.75,112.4564236111111C662.1666666666666,112.44710648148148,664.5833333333334,112.43778935185185,667,112.42847222222223C669.4166666666666,112.4191550925926,671.8333333333334,112.40983796296297,674.25,112.40052083333333C676.6666666666666,112.3912037037037,679.0833333333334,112.38188657407406,681.5,112.37256944444444C683.9166666666666,112.36325231481482,686.3333333333334,112.35393518518518,688.75,112.34461805555556C691.1666666666666,112.33530092592594,693.5833333333334,112.3259837962963,696,112.31666666666666C698.4166666666666,112.30734953703703,700.8333333333334,112.29803240740739,703.25,112.28871527777777C705.6666666666666,112.27939814814815,708.0833333333334,112.27008101851851,710.5,112.26076388888889C712.9166666666666,112.25144675925927,715.3333333333334,112.24212962962963,717.75,112.23281250000001C720.1666666666666,112.22349537037039,722.5833333333334,112.21417824074074,725,112.20486111111111C727.4166666666666,112.19554398148149,729.8333333333334,112.18622685185186,732.25,112.17690972222223C734.6666666666666,112.16759259259261,737.0833333333334,112.15827546296298,739.5,112.14895833333334C741.9166666666666,112.1396412037037,744.3333333333334,112.13032407407407,746.75,112.12100694444445C749.1666666666666,112.11168981481482,751.5833333333334,112.10237268518519,754,112.09305555555557C756.4166666666666,112.08373842592594,758.8333333333334,112.07442129629631,761.25,112.06510416666667C763.6666666666666,112.05578703703704,766.0833333333334,112.0464699074074,768.5,112.03715277777778C770.9166666666666,112.02783564814816,773.3333333333334,112.01851851851852,775.75,112.0092013888889C778.1666666666666,111.99988425925928,780.5833333333334,111.99056712962964,783,111.98125C785.4166666666667,111.97193287037037,787.8333333333334,111.96261574074074,790.2500000000001,111.95329861111111C792.6666666666667,111.94398148148149,795.0833333333335,111.93466435185185,797.5000000000001,111.92534722222223C799.9166666666667,111.9160300925926,802.3333333333335,111.90671296296297,804.7500000000001,111.89739583333333C807.1666666666667,111.8880787037037,809.5833333333335,111.87876157407408,812.0000000000001,111.86944444444444C814.4166666666667,111.86012731481482,816.8333333333333,111.85081018518518,819.2499999999999,111.84149305555556C821.6666666666665,111.83217592592592,824.0833333333333,111.8228587962963,826.4999999999999,111.81354166666667C828.9166666666665,111.80422453703703,831.3333333333333,111.7949074074074,833.7499999999999,111.78559027777777C836.1666666666665,111.77627314814815,838.5833333333333,111.76695601851851,840.9999999999999,111.75763888888889C843.4166666666666,111.74832175925926,845.8333333333333,111.73900462962963,848.25,111.7296875C850.6666666666666,111.72037037037036,853.0833333333334,111.71105324074072,855.5,111.7017361111111C857.9166666666666,111.69241898148148,860.3333333333334,111.68310185185184,862.75,111.67378472222222C865.1666666666666,111.6644675925926,867.5833333333334,111.65515046296296,870,111.64583333333333C872.4166666666666,111.63651620370369,874.8333333333334,111.62719907407406,877.25,111.61788194444443C879.6666666666666,111.60856481481481,882.0833333333334,111.59924768518518,884.5,111.58993055555555C886.9166666666666,111.58061342592593,889.3333333333334,111.5712962962963,891.75,111.56197916666666C894.1666666666666,111.55266203703702,896.5833333333334,111.54334490740739,899,111.53402777777777C901.4166666666666,111.52471064814814,903.8333333333334,111.51539351851851,906.25,111.50607638888889C908.6666666666666,111.49675925925926,911.0833333333334,111.48744212962961,913.5,111.47812499999999C915.9166666666666,111.46880787037037,918.3333333333334,111.45949074074073,920.75,111.45017361111111C923.1666666666666,111.44085648148149,925.5833333333334,111.43153935185185,928,111.42222222222223C930.4166666666666,111.41290509259261,932.8333333333334,111.40358796296297,935.25,111.39427083333334C937.6666666666666,111.3849537037037,940.0833333333334,111.37563657407406,942.5,111.36631944444444C944.9166666666666,111.35700231481482,947.3333333333334,111.34768518518518,949.75,111.33836805555556C952.1666666666666,111.32905092592594,954.5833333333334,111.3197337962963,957,111.31041666666667C959.4166666666666,111.30109953703703,961.8333333333334,111.2917824074074,964.25,111.28246527777777C966.6666666666667,111.27314814814814,969.0833333333334,111.26383101851853,971.5000000000001,111.2545138888889C973.9166666666667,111.24519675925927,976.3333333333335,111.23587962962962,978.7500000000001,111.2265625C981.1666666666667,111.21724537037038,983.5833333333335,111.20792824074074,986.0000000000001,111.19861111111112C988.4166666666667,111.1892939814815,990.8333333333335,111.17997685185186,993.2500000000001,111.17065972222223C995.6666666666667,111.16134259259259,998.0833333333333,111.15202546296295,1000.4999999999999,111.14270833333333C1002.9166666666665,111.1333912037037,1005.3333333333333,111.12407407407407,1007.7499999999999,111.11475694444445C1010.1666666666665,111.10543981481483,1012.5833333333333,111.0961226851852,1014.9999999999999,111.08680555555556C1017.4166666666665,111.07748842592592,1019.8333333333333,111.06817129629628,1022.2499999999999,111.05885416666666C1024.6666666666665,111.04953703703703,1027.0833333333333,111.04021990740742,1029.5,111.03090277777778C1031.9166666666667,111.02158564814816,1034.3333333333333,111.01226851851852,1036.75,111.00295138888889C1039.1666666666667,110.99363425925925,1041.5833333333333,110.98431712962962,1044,110.975C1046.4166666666667,110.96568287037037,1048.8333333333333,110.95636574074074,1051.25,110.94704861111111C1053.6666666666667,110.93773148148149,1056.0833333333333,110.92841435185186,1058.5,110.91909722222222C1060.9166666666667,110.90978009259258,1063.3333333333333,110.90046296296295,1065.75,110.89114583333333C1068.1666666666667,110.8818287037037,1070.5833333333333,110.87251157407407,1073,110.86319444444445C1075.4166666666667,110.85387731481482,1077.8333333333333,110.84456018518519,1080.25,110.83524305555555C1082.6666666666667,110.82592592592592,1085.0833333333333,110.81660879629628,1087.5,110.80729166666666C1089.9166666666667,110.79797453703704,1092.3333333333333,110.7886574074074,1094.75,110.77934027777778C1097.1666666666667,110.77002314814816,1099.5833333333333,110.76070601851852,1102,110.75138888888888C1104.4166666666667,110.74207175925925,1106.8333333333333,110.73275462962961,1109.25,110.72343749999999C1111.6666666666667,110.71412037037037,1114.0833333333333,110.70480324074073,1116.5,110.69548611111111C1118.9166666666667,110.68616898148149,1121.3333333333333,110.67685185185185,1123.75,110.66753472222223C1126.1666666666667,110.6582175925926,1128.5833333333333,110.64890046296296,1131,110.63958333333333C1133.4166666666667,110.63026620370371,1135.8333333333333,110.62094907407408,1138.25,110.61163194444445C1140.6666666666667,110.60231481481483,1143.0833333333333,110.5929976851852,1145.5,110.58368055555556C1147.9166666666667,110.57436342592592,1150.3333333333333,110.56504629629629,1152.75,110.55572916666667C1155.1666666666667,110.54641203703704,1157.5833333333333,110.53709490740741,1160,110.52777777777779C1162.4166666666667,110.51846064814816,1164.8333333333333,110.50914351851853,1167.25,110.49982638888889C1169.6666666666667,110.49050925925926,1172.0833333333333,110.48119212962962,1174.5,110.471875C1176.9166666666667,110.46255787037038,1179.3333333333333,110.45324074074074,1181.75,110.44392361111112C1184.1666666666667,110.4346064814815,1186.5833333333333,110.42528935185184,1189,110.41597222222222C1191.4166666666667,110.4066550925926,1193.8333333333333,110.39733796296296,1196.25,110.38802083333334C1198.6666666666667,110.37870370370372,1201.0833333333333,110.36938657407408,1203.5,110.36006944444445C1205.9166666666667,110.35075231481481,1208.3333333333333,110.34143518518518,1210.75,110.33211805555555C1213.1666666666667,110.32280092592593,1215.5833333333333,110.3134837962963,1218,110.30416666666667C1220.4166666666667,110.29484953703705,1222.8333333333333,110.28553240740742,1225.25,110.27621527777778C1227.6666666666667,110.26689814814814,1230.0833333333333,110.25758101851851,1232.5,110.24826388888889C1234.9166666666667,110.23894675925926,1237.3333333333333,110.22962962962963,1239.75,110.2203125C1242.1666666666667,110.21099537037038,1244.5833333333333,110.20167824074075,1247,110.19236111111111C1249.4166666666667,110.18304398148148,1251.8333333333333,110.17372685185184,1254.25,110.16440972222222C1256.6666666666667,110.1550925925926,1259.0833333333333,110.14577546296296,1261.5,110.13645833333334C1263.9166666666667,110.12714120370372,1266.3333333333333,110.11782407407408,1268.75,110.10850694444444C1271.1666666666667,110.0991898148148,1273.5833333333333,110.08987268518517,1276,110.08055555555555C1278.4166666666667,110.07123842592593,1280.8333333333333,110.06192129629629,1283.25,110.05260416666667C1285.6666666666667,110.04328703703705,1288.0833333333333,110.03396990740741,1290.5,110.02465277777777C1292.9166666666667,110.01533564814814,1295.3333333333333,110.0060185185185,1297.75,109.99670138888888C1300.1666666666667,109.98738425925926,1302.5833333333333,109.98738425925926,1305,109.96875C1307.4166666666667,109.95011574074074,1309.8333333333333,107.09375,1312.25,105.65625C1314.6666666666667,104.21875,1317.0833333333333,102.78125,1319.5,101.34375C1321.9166666666667,99.90625,1324.3333333333333,98.46875,1326.75,97.03125C1329.1666666666667,95.59375,1331.5833333333333,94.15625,1334,92.71875C1336.4166666666667,91.28125,1338.8333333333333,89.84375,1341.25,88.40625C1343.6666666666667,86.96875,1346.0833333333333,85.53125,1348.5,84.09375C1350.9166666666667,82.65625,1353.3333333333333,81.21875,1355.75,79.78125C1358.1666666666667,78.34375,1360.5833333333333,76.90625,1363,75.46875C1365.4166666666667,74.03125,1367.8333333333333,72.59375,1370.25,71.15625C1372.6666666666667,69.71875,1375.0833333333333,68.28125,1377.5,66.84375C1379.9166666666667,65.40625,1382.3333333333333,63.96874999999999,1384.75,62.53124999999999C1387.1666666666667,61.09374999999999,1389.5833333333333,59.65625,1392,58.21875C1394.4166666666667,56.78125,1396.8333333333333,55.34375,1399.25,53.90625C1401.6666666666667,52.46875,1404.0833333333333,51.03125,1406.5,49.59375C1408.9166666666667,48.15625,1411.3333333333333,46.71875000000001,1413.75,45.28125000000001C1416.1666666666667,43.84375000000001,1418.5833333333333,42.40625,1421,40.96874999999999C1423.4166666666667,39.531249999999986,1425.8333333333333,38.093749999999986,1428.25,36.656249999999986C1430.6666666666667,35.218749999999986,1433.0833333333333,33.781250000000014,1435.5,32.343750000000014C1437.9166666666667,30.906250000000018,1440.3333333333333,29.468750000000004,1442.75,28.031250000000004C1445.1666666666667,26.593750000000004,1447.5833333333333,25.156250000000004,1450,23.718750000000004" fill="transparent" stroke-linecap="round" stroke="#B6509E" stroke-width="2"></path><path class="visx-linepath" d="M0,108.53124999992013C2.4166666666666665,108.51793981476823,4.833333333333334,108.50462962961632,7.25,108.49131944444444C9.666666666666666,108.47800925927257,12.083333333333334,108.46469907407408,14.5,108.45138888888889C16.916666666666668,108.4380787037037,19.333333333333332,108.42476851851853,21.75,108.41145833333334C24.166666666666668,108.39814814814815,26.583333333333332,108.38483796296296,29,108.37152777777777C31.416666666666668,108.35821759259258,33.833333333333336,108.34490740740742,36.25,108.33159722222223C38.666666666666664,108.31828703703704,41.083333333333336,108.30497685185186,43.5,108.29166666666667C45.91666666666667,108.27835648148148,48.333333333333336,108.2650462962963,50.75000000000001,108.25173611111111C53.16666666666667,108.23842592592592,55.583333333333336,108.22511574074075,58,108.21180555555556C60.416666666666664,108.19849537037037,62.833333333333336,108.18518518518519,65.25,108.171875C67.66666666666667,108.15856481481481,70.08333333333333,108.14525462962962,72.5,108.13194444444444C74.91666666666667,108.11863425925927,77.33333333333333,108.10532407407409,79.75,108.0920138888889C82.16666666666667,108.07870370370371,84.58333333333333,108.06539351851852,87,108.05208333333333C89.41666666666667,108.03877314814814,91.83333333333333,108.02546296296296,94.25,108.01215277777779C96.66666666666667,107.9988425925926,99.08333333333334,107.98553240740742,101.50000000000001,107.97222222222223C103.91666666666667,107.95891203703704,106.33333333333334,107.94560185185186,108.75,107.93229166666667C111.16666666666667,107.91898148148148,113.58333333333333,107.9056712962963,116,107.89236111111111C118.41666666666667,107.87905092592592,120.83333333333334,107.86574074074075,123.25000000000001,107.85243055555556C125.66666666666667,107.83912037037037,128.08333333333334,107.82581018518519,130.5,107.8125C132.91666666666666,107.79918981481481,135.33333333333334,107.78587962962963,137.75,107.77256944444444C140.16666666666666,107.75925925925925,142.58333333333334,107.74594907407408,145,107.73263888888889C147.41666666666666,107.7193287037037,149.83333333333334,107.70601851851853,152.25,107.69270833333334C154.66666666666666,107.67939814814815,157.08333333333334,107.66608796296296,159.5,107.65277777777777C161.91666666666666,107.63946759259258,164.33333333333334,107.62615740740739,166.75,107.61284722222221C169.16666666666666,107.59953703703704,171.58333333333334,107.58622685185186,174,107.57291666666667C176.41666666666666,107.55960648148148,178.83333333333334,107.54629629629629,181.25,107.5329861111111C183.66666666666666,107.51967592592591,186.08333333333334,107.50636574074073,188.5,107.49305555555556C190.91666666666666,107.47974537037038,193.33333333333334,107.46643518518519,195.75,107.453125C198.16666666666669,107.43981481481481,200.58333333333334,107.42650462962963,203.00000000000003,107.41319444444444C205.41666666666669,107.39988425925925,207.83333333333331,107.38657407407408,210.24999999999997,107.37326388888889C212.66666666666666,107.3599537037037,215.08333333333331,107.34664351851852,217.5,107.33333333333333C219.91666666666666,107.32002314814814,222.33333333333334,107.30671296296296,224.75,107.29340277777777C227.16666666666666,107.28009259259258,229.58333333333334,107.26678240740742,232,107.25347222222223C234.41666666666666,107.24016203703704,236.83333333333334,107.22685185185185,239.25,107.21354166666666C241.66666666666669,107.20023148148147,244.08333333333334,107.1869212962963,246.50000000000003,107.17361111111111C248.91666666666669,107.16030092592594,251.33333333333331,107.14699074074075,253.74999999999997,107.13368055555556C256.16666666666663,107.12037037037037,258.5833333333333,107.10706018518519,261,107.09375C263.4166666666667,107.08043981481481,265.8333333333333,107.06712962962963,268.25,107.05381944444444C270.6666666666667,107.04050925925925,273.0833333333333,107.02719907407408,275.5,107.01388888888889C277.9166666666667,107.0005787037037,280.3333333333333,106.9872685185185,282.75,106.97395833333333C285.1666666666667,106.96064814814815,287.5833333333333,106.94733796296298,290,106.93402777777779C292.4166666666667,106.9207175925926,294.8333333333333,106.9074074074074,297.25,106.89409722222221C299.6666666666667,106.88078703703702,302.0833333333333,106.86747685185185,304.5,106.85416666666667C306.9166666666667,106.8408564814815,309.3333333333333,106.8275462962963,311.75,106.81423611111111C314.1666666666667,106.80092592592592,316.5833333333333,106.78761574074075,319,106.77430555555556C321.4166666666667,106.76099537037037,323.8333333333333,106.74768518518519,326.25,106.734375C328.6666666666667,106.72106481481481,331.0833333333333,106.70775462962963,333.5,106.69444444444444C335.9166666666667,106.68113425925925,338.3333333333333,106.66782407407408,340.75,106.65451388888889C343.1666666666667,106.6412037037037,345.5833333333333,106.62789351851853,348,106.61458333333334C350.4166666666667,106.60127314814815,352.8333333333333,106.58796296296296,355.25,106.57465277777777C357.6666666666667,106.56134259259258,360.0833333333333,106.54803240740742,362.5,106.53472222222223C364.9166666666667,106.52141203703704,367.3333333333333,106.50810185185186,369.75,106.49479166666667C372.1666666666667,106.48148148148148,374.5833333333333,106.4681712962963,377,106.45486111111111C379.4166666666667,106.44155092592592,381.8333333333333,106.42824074074075,384.25,106.41493055555556C386.6666666666667,106.40162037037037,389.0833333333333,106.38831018518519,391.5,106.375C393.9166666666667,106.36168981481481,396.33333333333337,106.34837962962963,398.75000000000006,106.33506944444444C401.16666666666674,106.32175925925927,403.58333333333337,106.30844907407409,406.00000000000006,106.2951388888889C408.4166666666667,106.28182870370371,410.8333333333333,106.26851851851852,413.24999999999994,106.25520833333333C415.66666666666663,106.24189814814814,418.08333333333326,106.22858796296296,420.49999999999994,106.21527777777779C422.91666666666663,106.2019675925926,425.3333333333333,106.18865740740742,427.75,106.17534722222223C430.1666666666667,106.16203703703704,432.5833333333333,106.14872685185185,435,106.13541666666666C437.4166666666667,106.12210648148147,439.8333333333333,106.1087962962963,442.25,106.09548611111111C444.6666666666667,106.08217592592592,447.0833333333333,106.06886574074075,449.5,106.05555555555556C451.9166666666667,106.04224537037037,454.3333333333333,106.02893518518519,456.75,106.015625C459.1666666666667,106.00231481481481,461.5833333333333,105.98900462962963,464,105.97569444444444C466.4166666666667,105.96238425925925,468.8333333333333,105.94907407407408,471.25,105.93576388888889C473.6666666666667,105.9224537037037,476.0833333333333,105.90914351851852,478.5,105.89583333333333C480.9166666666667,105.88252314814814,483.33333333333337,105.86921296296296,485.75000000000006,105.85590277777777C488.16666666666674,105.84259259259258,490.58333333333337,105.8292824074074,493.00000000000006,105.81597222222221C495.4166666666667,105.80266203703704,497.8333333333333,105.78935185185186,500.24999999999994,105.77604166666667C502.66666666666663,105.76273148148148,505.08333333333326,105.74942129629629,507.49999999999994,105.7361111111111C509.91666666666663,105.72280092592591,512.3333333333333,105.70949074074075,514.75,105.69618055555556C517.1666666666666,105.68287037037038,519.5833333333334,105.66956018518519,522,105.65625C524.4166666666666,105.64293981481481,526.8333333333334,105.62962962962963,529.25,105.61631944444444C531.6666666666666,105.60300925925925,534.0833333333334,105.58969907407408,536.5,105.57638888888889C538.9166666666666,105.5630787037037,541.3333333333334,105.54976851851852,543.75,105.53645833333333C546.1666666666666,105.52314814814814,548.5833333333334,105.50983796296296,551,105.49652777777777C553.4166666666666,105.48321759259258,555.8333333333334,105.46990740740742,558.25,105.45659722222223C560.6666666666666,105.44328703703704,563.0833333333334,105.42997685185185,565.5,105.41666666666666C567.9166666666666,105.40335648148147,570.3333333333334,105.3900462962963,572.75,105.37673611111111C575.1666666666666,105.36342592592592,577.5833333333334,105.35011574074075,580,105.33680555555556C582.4166666666666,105.32349537037037,584.8333333333334,105.31018518518519,587.25,105.296875C589.6666666666666,105.28356481481481,592.0833333333334,105.27025462962963,594.5,105.25694444444444C596.9166666666666,105.24363425925925,599.3333333333334,105.23032407407408,601.75,105.21701388888889C604.1666666666666,105.2037037037037,606.5833333333334,105.1903935185185,609,105.17708333333333C611.4166666666666,105.16377314814815,613.8333333333334,105.15046296296298,616.25,105.13715277777779C618.6666666666666,105.1238425925926,621.0833333333334,105.1105324074074,623.5,105.09722222222221C625.9166666666666,105.08391203703702,628.3333333333334,105.07060185185185,630.75,105.05729166666667C633.1666666666666,105.0439814814815,635.5833333333334,105.0306712962963,638,105.01736111111111C640.4166666666666,105.00405092592592,642.8333333333334,104.99074074074075,645.25,104.97743055555556C647.6666666666666,104.96412037037037,650.0833333333334,104.95081018518519,652.5,104.9375C654.9166666666666,104.92418981481481,657.3333333333334,104.91087962962963,659.75,104.89756944444444C662.1666666666666,104.88425925925925,664.5833333333334,104.87094907407408,667,104.85763888888889C669.4166666666666,104.8443287037037,671.8333333333334,104.83101851851853,674.25,104.81770833333334C676.6666666666666,104.80439814814815,679.0833333333334,104.79108796296296,681.5,104.77777777777777C683.9166666666666,104.76446759259258,686.3333333333334,104.75115740740742,688.75,104.73784722222223C691.1666666666666,104.72453703703704,693.5833333333334,104.71122685185186,696,104.69791666666667C698.4166666666666,104.68460648148148,700.8333333333334,104.6712962962963,703.25,104.65798611111111C705.6666666666666,104.64467592592592,708.0833333333334,104.63136574074075,710.5,104.61805555555556C712.9166666666666,104.60474537037037,715.3333333333334,104.59143518518519,717.75,104.578125C720.1666666666666,104.56481481481481,722.5833333333334,104.55150462962962,725,104.53819444444444C727.4166666666666,104.52488425925927,729.8333333333334,104.51157407407409,732.25,104.4982638888889C734.6666666666666,104.48495370370371,737.0833333333334,104.47164351851852,739.5,104.45833333333333C741.9166666666666,104.44502314814814,744.3333333333334,104.43171296296296,746.75,104.41840277777779C749.1666666666666,104.40509259259261,751.5833333333334,104.39178240740742,754,104.37847222222223C756.4166666666666,104.36516203703704,758.8333333333334,104.35185185185185,761.25,104.33854166666666C763.6666666666666,104.32523148148147,766.0833333333334,104.3119212962963,768.5,104.29861111111111C770.9166666666666,104.28530092592592,773.3333333333334,104.27199074074075,775.75,104.25868055555556C778.1666666666666,104.24537037037037,780.5833333333334,104.23206018518519,783,104.21875C785.4166666666667,104.20543981481481,787.8333333333334,104.19212962962963,790.2500000000001,104.17881944444444C792.6666666666667,104.16550925925925,795.0833333333335,104.15219907407408,797.5000000000001,104.13888888888889C799.9166666666667,104.1255787037037,802.3333333333335,104.11226851851852,804.7500000000001,104.09895833333333C807.1666666666667,104.08564814814814,809.5833333333335,104.07233796296296,812.0000000000001,104.05902777777777C814.4166666666667,104.04571759259258,816.8333333333333,104.03240740740739,819.2499999999999,104.01909722222221C821.6666666666665,104.00578703703702,824.0833333333333,103.99247685185185,826.4999999999999,103.97916666666667C828.9166666666665,103.9658564814815,831.3333333333333,103.9525462962963,833.7499999999999,103.93923611111111C836.1666666666665,103.92592592592592,838.5833333333333,103.91261574074075,840.9999999999999,103.89930555555556C843.4166666666666,103.88599537037037,845.8333333333333,103.87268518518519,848.25,103.859375C850.6666666666666,103.84606481481481,853.0833333333334,103.83275462962963,855.5,103.81944444444444C857.9166666666666,103.80613425925925,860.3333333333334,103.79282407407408,862.75,103.77951388888889C865.1666666666666,103.7662037037037,867.5833333333334,103.75289351851852,870,103.73958333333333C872.4166666666666,103.72627314814814,874.8333333333334,103.71296296296296,877.25,103.69965277777777C879.6666666666666,103.68634259259258,882.0833333333334,103.67303240740742,884.5,103.65972222222223C886.9166666666666,103.64641203703704,889.3333333333334,103.63310185185185,891.75,103.61979166666666C894.1666666666666,103.60648148148147,896.5833333333334,103.5931712962963,899,103.57986111111111C901.4166666666666,103.56655092592592,903.8333333333334,103.55324074074075,906.25,103.53993055555556C908.6666666666666,103.52662037037037,911.0833333333334,103.51331018518519,913.5,103.5C915.9166666666666,103.48668981481481,918.3333333333334,103.47337962962963,920.75,103.46006944444444C923.1666666666666,103.44675925925925,925.5833333333334,103.43344907407408,928,103.42013888888889C930.4166666666666,103.4068287037037,932.8333333333334,103.3935185185185,935.25,103.38020833333333C937.6666666666666,103.36689814814815,940.0833333333334,103.35358796296298,942.5,103.34027777777779C944.9166666666666,103.3269675925926,947.3333333333334,103.3136574074074,949.75,103.30034722222221C952.1666666666666,103.28703703703702,954.5833333333334,103.27372685185185,957,103.26041666666667C959.4166666666666,103.2471064814815,961.8333333333334,103.2337962962963,964.25,103.22048611111111C966.6666666666667,103.20717592592592,969.0833333333334,103.19386574074075,971.5000000000001,103.18055555555556C973.9166666666667,103.16724537037037,976.3333333333335,103.15393518518519,978.7500000000001,103.140625C981.1666666666667,103.12731481481481,983.5833333333335,103.11400462962963,986.0000000000001,103.10069444444444C988.4166666666667,103.08738425925925,990.8333333333335,103.07407407407408,993.2500000000001,103.06076388888889C995.6666666666667,103.04745370370371,998.0833333333333,103.03414351851853,1000.4999999999999,103.02083333333334C1002.9166666666665,103.00752314814815,1005.3333333333333,102.99421296296296,1007.7499999999999,102.98090277777777C1010.1666666666665,102.96759259259258,1012.5833333333333,102.95428240740742,1014.9999999999999,102.94097222222223C1017.4166666666665,102.92766203703704,1019.8333333333333,102.91435185185186,1022.2499999999999,102.90104166666667C1024.6666666666665,102.88773148148148,1027.0833333333333,102.8744212962963,1029.5,102.86111111111111C1031.9166666666667,102.84780092592592,1034.3333333333333,102.83449074074075,1036.75,102.82118055555556C1039.1666666666667,102.80787037037037,1041.5833333333333,102.79456018518519,1044,102.78125C1046.4166666666667,102.76793981481481,1048.8333333333333,102.75462962962962,1051.25,102.74131944444444C1053.6666666666667,102.72800925925927,1056.0833333333333,102.71469907407409,1058.5,102.7013888888889C1060.9166666666667,102.68807870370371,1063.3333333333333,102.67476851851852,1065.75,102.66145833333333C1068.1666666666667,102.64814814814814,1070.5833333333333,102.63483796296296,1073,102.62152777777779C1075.4166666666667,102.60821759259261,1077.8333333333333,102.59490740740742,1080.25,102.58159722222223C1082.6666666666667,102.56828703703704,1085.0833333333333,102.55497685185185,1087.5,102.54166666666666C1089.9166666666667,102.52835648148147,1092.3333333333333,102.5150462962963,1094.75,102.50173611111111C1097.1666666666667,102.48842592592592,1099.5833333333333,102.47511574074073,1102,102.46180555555554C1104.4166666666667,102.44849537037035,1106.8333333333333,102.43518518518518,1109.25,102.421875C1111.6666666666667,102.40856481481482,1114.0833333333333,102.39525462962965,1116.5,102.38194444444446C1118.9166666666667,102.36863425925927,1121.3333333333333,102.35532407407408,1123.75,102.34201388888889C1126.1666666666667,102.3287037037037,1128.5833333333333,102.31539351851852,1131,102.30208333333333C1133.4166666666667,102.28877314814814,1135.8333333333333,102.27546296296296,1138.25,102.26215277777777C1140.6666666666667,102.24884259259258,1143.0833333333333,102.23553240740739,1145.5,102.22222222222221C1147.9166666666667,102.20891203703704,1150.3333333333333,102.19560185185185,1152.75,102.18229166666667C1155.1666666666667,102.1689814814815,1157.5833333333333,102.1556712962963,1160,102.14236111111111C1162.4166666666667,102.12905092592592,1164.8333333333333,102.11574074074075,1167.25,102.10243055555556C1169.6666666666667,102.08912037037037,1172.0833333333333,102.07581018518519,1174.5,102.0625C1176.9166666666667,102.04918981481481,1179.3333333333333,102.03587962962963,1181.75,102.02256944444444C1184.1666666666667,102.00925925925925,1186.5833333333333,101.99594907407408,1189,101.98263888888889C1191.4166666666667,101.9693287037037,1193.8333333333333,101.95601851851852,1196.25,101.94270833333333C1198.6666666666667,101.92939814814814,1201.0833333333333,101.91608796296296,1203.5,101.90277777777777C1205.9166666666667,101.88946759259258,1208.3333333333333,101.87615740740742,1210.75,101.86284722222223C1213.1666666666667,101.84953703703704,1215.5833333333333,101.83622685185185,1218,101.82291666666666C1220.4166666666667,101.80960648148147,1222.8333333333333,101.7962962962963,1225.25,101.78298611111111C1227.6666666666667,101.76967592592592,1230.0833333333333,101.75636574074075,1232.5,101.74305555555556C1234.9166666666667,101.72974537037037,1237.3333333333333,101.71643518518519,1239.75,101.703125C1242.1666666666667,101.68981481481481,1244.5833333333333,101.67650462962963,1247,101.66319444444444C1249.4166666666667,101.64988425925925,1251.8333333333333,101.63657407407408,1254.25,101.62326388888889C1256.6666666666667,101.6099537037037,1259.0833333333333,101.5966435185185,1261.5,101.58333333333333C1263.9166666666667,101.57002314814815,1266.3333333333333,101.55671296296298,1268.75,101.54340277777779C1271.1666666666667,101.5300925925926,1273.5833333333333,101.5167824074074,1276,101.50347222222221C1278.4166666666667,101.49016203703702,1280.8333333333333,101.47685185185185,1283.25,101.46354166666667C1285.6666666666667,101.4502314814815,1288.0833333333333,101.4369212962963,1290.5,101.42361111111111C1292.9166666666667,101.41030092592592,1295.3333333333333,101.39699074074075,1297.75,101.38368055555556C1300.1666666666667,101.37037037037037,1302.5833333333333,101.37037037037037,1305,101.34375C1307.4166666666667,101.31712962962963,1309.8333333333333,98.46875,1312.25,97.03125C1314.6666666666667,95.59375,1317.0833333333333,94.15625,1319.5,92.71875C1321.9166666666667,91.28125,1324.3333333333333,89.84375,1326.75,88.40625C1329.1666666666667,86.96875,1331.5833333333333,85.53125,1334,84.09375C1336.4166666666667,82.65625,1338.8333333333333,81.21875,1341.25,79.78125C1343.6666666666667,78.34375,1346.0833333333333,76.90625,1348.5,75.46875C1350.9166666666667,74.03125,1353.3333333333333,72.59375,1355.75,71.15625C1358.1666666666667,69.71875,1360.5833333333333,68.28125,1363,66.84375C1365.4166666666667,65.40625,1367.8333333333333,63.96874999999999,1370.25,62.53124999999999C1372.6666666666667,61.09374999999999,1375.0833333333333,59.65625,1377.5,58.21875C1379.9166666666667,56.78125,1382.3333333333333,55.34375,1384.75,53.90625C1387.1666666666667,52.46875,1389.5833333333333,51.03125,1392,49.59375C1394.4166666666667,48.15625,1396.8333333333333,46.71875000000001,1399.25,45.28125000000001C1401.6666666666667,43.84375000000001,1404.0833333333333,42.40625,1406.5,40.96874999999999C1408.9166666666667,39.531249999999986,1411.3333333333333,38.093749999999986,1413.75,36.656249999999986C1416.1666666666667,35.218749999999986,1418.5833333333333,33.781250000000014,1421,32.343750000000014C1423.4166666666667,30.906250000000018,1425.8333333333333,29.468750000000004,1428.25,28.031250000000004C1430.6666666666667,26.593750000000004,1433.0833333333333,25.156250000000004,1435.5,23.718750000000004C1437.9166666666667,22.281250000000004,1440.3333333333333,20.843749999999996,1442.75,19.406249999999996C1445.1666666666667,17.968749999999996,1447.5833333333333,16.531249999999996,1450,15.093749999999998" fill="transparent" stroke-linecap="round" stroke="#E7C6DF" stroke-width="2"></path><g class="visx-group visx-axis visx-axis-bottom" transform="translate(0, 115)"><g class="visx-group visx-axis-tick" transform="translate(0, 0)"><line class="visx-line" x1="0" y1="0" x2="0" y2="8" fill="transparent" shape-rendering="crispEdges" stroke="#000" stroke-width="0" stroke-linecap="square"></line><svg x="0" y="0" font-size="10" style="overflow:visible"><text transform="" x="0" y="18" fill="#000" font-size="10" text-anchor="middle"><tspan x="0" dy="0em">0%</tspan></text></svg></g><g class="visx-group visx-axis-tick" transform="translate(0, 0)"><line class="visx-line" x1="362.5" y1="0" x2="362.5" y2="8" fill="transparent" shape-rendering="crispEdges" stroke="#000" stroke-width="0" stroke-linecap="square"></line><svg x="0" y="0" font-size="10" style="overflow:visible"><text transform="" x="362.5" y="18" fill="#000" font-size="10" text-anchor="middle"><tspan x="362.5" dy="0em">25%</tspan></text></svg></g><g class="visx-group visx-axis-tick" transform="translate(0, 0)"><line class="visx-line" x1="725" y1="0" x2="725" y2="8" fill="transparent" shape-rendering="crispEdges" stroke="#000" stroke-width="0" stroke-linecap="square"></line><svg x="0" y="0" font-size="10" style="overflow:visible"><text transform="" x="725" y="18" fill="#000" font-size="10" text-anchor="middle"><tspan x="725" dy="0em">50%</tspan></text></svg></g><g class="visx-group visx-axis-tick" transform="translate(0, 0)"><line class="visx-line" x1="1087.5" y1="0" x2="1087.5" y2="8" fill="transparent" shape-rendering="crispEdges" stroke="#000" stroke-width="0" stroke-linecap="square"></line><svg x="0" y="0" font-size="10" style="overflow:visible"><text transform="" x="1087.5" y="18" fill="#000" font-size="10" text-anchor="middle"><tspan x="1087.5" dy="0em">75%</tspan></text></svg></g><g class="visx-group visx-axis-tick" transform="translate(0, 0)"><line class="visx-line" x1="1450" y1="0" x2="1450" y2="8" fill="transparent" shape-rendering="crispEdges" stroke="#000" stroke-width="0" stroke-linecap="square"></line><svg x="0" y="0" font-size="10" style="overflow:visible"><text transform="" x="1450" y="18" fill="#000" font-size="10" text-anchor="middle"><tspan x="1450" dy="0em">100%</tspan></text></svg></g><line class="visx-line visx-axis-line" x1="0.5" y1="0" x2="1450.5" y2="0" fill="transparent" shape-rendering="crispEdges" stroke="#222" stroke-width="0"></line></g><g class="visx-group visx-axis visx-axis-left" transform="translate(0, 0)"><g class="visx-group visx-axis-tick" transform="translate(0, 0)"><line class="visx-line" x1="0" y1="115" x2="-8" y2="115" fill="transparent" shape-rendering="crispEdges" stroke="#222" stroke-width="0" stroke-linecap="square"></line><svg x="-30" y="0" font-size="8" style="overflow:visible"><text transform="" x="-8" y="115" fill="#000" font-size="8" text-anchor="start"><tspan x="-8" dy="0em">0%</tspan></text></svg></g><g class="visx-group visx-axis-tick" transform="translate(0, 0)"><line class="visx-line" x1="0" y1="43.125" x2="-8" y2="43.125" fill="transparent" shape-rendering="crispEdges" stroke="#222" stroke-width="0" stroke-linecap="square"></line><svg x="-30" y="0" font-size="8" style="overflow:visible"><text transform="" x="-8" y="43.125" fill="#000" font-size="8" text-anchor="start"><tspan x="-8" dy="0em">50%</tspan></text></svg></g><line class="visx-line visx-axis-line" x1="0" y1="115.5" x2="0" y2="0.5" fill="transparent" shape-rendering="crispEdges" stroke="#222" stroke-width="0"></line></g><rect class="visx-bar" width="1450" height="115" fill="transparent"></rect><line class="visx-line" x1="1305" y1="28" x2="1305" y2="115" fill="transparent" shape-rendering="crispEdges" stroke="#0062D2" stroke-width="1" pointer-events="none" stroke-dasharray="5,2"></line><svg x="0" y="0" font-size="10px" style="overflow:visible"><text transform="" x="1305" y="20" font-size="10px" fill="#fff" stroke="#fff" stroke-width="0.8em" text-anchor="middle"><tspan x="1305" dy="0.355em">Optimal 90%</tspan></text></svg><svg x="0" y="0" font-size="10px" style="overflow:visible"><text transform="" x="1305" y="20" font-size="10px" fill="#62677B" text-anchor="middle"><tspan x="1305" dy="0.355em">Optimal 90%</tspan></text></svg></g></svg>