<?xml version="1.0"?><svg xmlns="http://www.w3.org/2000/svg" xmlns:xlink= "http://www.w3.org/1999/xlink" style="background: white;" width="1500" height="185"> <g style="color: black; font-size: 13px; font-family: sans-serif; transform: translate(18px, 25px);"><g><circle r="3" cx="-6" cy="-5" style="fill: #B6509E" /><text>Borrow APR, variable</text></g><g style="transform: translateX(150px);"><circle r="3" cx="-6" cy="-5" style="fill: rgb(231, 198, 223)" /><text>Borrow APR, stable</text></g><g style="transform: translateX(290px);"><circle r="3" cx="-6" cy="-5" style="fill: rgb(0, 98, 210)" /><text>Utilization Rate</text></g></g><g class="visx-group" transform="translate(40, 50)"><g class="visx-group visx-rows" transform="translate(0, 0)"><line class="visx-line" x1="0" y1="115" x2="1450" y2="115" fill="transparent" shape-rendering="crispEdges" stroke="#000" stroke-width="1" stroke-dasharray="3,3" pointer-events="none"></line><line class="visx-line" x1="0" y1="57.5" x2="1450" y2="57.5" fill="transparent" shape-rendering="crispEdges" stroke="#000" stroke-width="1" stroke-dasharray="3,3" pointer-events="none"></line><line class="visx-line" x1="0" y1="0" x2="1450" y2="0" fill="transparent" shape-rendering="crispEdges" stroke="#000" stroke-width="1" stroke-dasharray="3,3" pointer-events="none"></line></g><path class="visx-linepath" d="M0,114.99999999994249C2.4166666666666665,114.99041666663311,4.833333333333334,114.98083333332374,7.25,114.97125C9.666666666666666,114.96166666667625,12.083333333333334,114.95208333333335,14.5,114.94250000000001C16.916666666666668,114.93291666666667,19.333333333333332,114.92333333333333,21.75,114.91375C24.166666666666668,114.90416666666665,26.583333333333332,114.89458333333333,29,114.885C31.416666666666668,114.87541666666668,33.833333333333336,114.86583333333334,36.25,114.85625C38.666666666666664,114.84666666666666,41.083333333333336,114.83708333333334,43.5,114.8275C45.91666666666667,114.81791666666666,48.333333333333336,114.80833333333334,50.75000000000001,114.79875C53.16666666666667,114.78916666666666,55.583333333333336,114.77958333333332,58,114.77C60.416666666666664,114.76041666666666,62.833333333333336,114.75083333333333,65.25,114.74125000000001C67.66666666666667,114.73166666666668,70.08333333333333,114.72208333333334,72.5,114.7125C74.91666666666667,114.70291666666667,77.33333333333333,114.69333333333334,79.75,114.68375C82.16666666666667,114.67416666666666,84.58333333333333,114.66458333333334,87,114.655C89.41666666666667,114.64541666666666,91.83333333333333,114.63583333333332,94.25,114.62625C96.66666666666667,114.61666666666666,99.08333333333334,114.60708333333335,101.50000000000001,114.59750000000001C103.91666666666667,114.58791666666667,106.33333333333334,114.57833333333333,108.75,114.56875C111.16666666666667,114.55916666666666,113.58333333333333,114.54958333333333,116,114.54C118.41666666666667,114.53041666666667,120.83333333333334,114.52083333333334,123.25000000000001,114.51125C125.66666666666667,114.50166666666667,128.08333333333334,114.49208333333334,130.5,114.4825C132.91666666666666,114.47291666666666,135.33333333333334,114.46333333333334,137.75,114.45375C140.16666666666666,114.44416666666666,142.58333333333334,114.43458333333332,145,114.425C147.41666666666666,114.41541666666667,149.83333333333334,114.40583333333333,152.25,114.39625000000001C154.66666666666666,114.38666666666668,157.08333333333334,114.37708333333335,159.5,114.3675C161.91666666666666,114.35791666666667,164.33333333333334,114.34833333333333,166.75,114.33874999999999C169.16666666666666,114.32916666666665,171.58333333333334,114.31958333333333,174,114.31C176.41666666666666,114.30041666666668,178.83333333333334,114.29083333333332,181.25,114.28125C183.66666666666666,114.27166666666668,186.08333333333334,114.26208333333335,188.5,114.25250000000001C190.91666666666666,114.24291666666667,193.33333333333334,114.23333333333333,195.75,114.22375C198.16666666666669,114.21416666666666,200.58333333333334,114.20458333333333,203.00000000000003,114.195C205.41666666666669,114.18541666666667,207.83333333333331,114.17583333333333,210.24999999999997,114.16625C212.66666666666666,114.15666666666667,215.08333333333331,114.14708333333334,217.5,114.1375C219.91666666666666,114.12791666666666,222.33333333333334,114.11833333333334,224.75,114.10875C227.16666666666666,114.09916666666666,229.58333333333334,114.08958333333334,232,114.08C234.41666666666666,114.07041666666666,236.83333333333334,114.06083333333332,239.25,114.05125C241.66666666666669,114.04166666666666,244.08333333333334,114.03208333333335,246.50000000000003,114.02250000000001C248.91666666666669,114.01291666666667,251.33333333333331,114.00333333333333,253.74999999999997,113.99374999999999C256.16666666666663,113.98416666666665,258.5833333333333,113.97458333333334,261,113.965C263.4166666666667,113.95541666666668,265.8333333333333,113.94583333333334,268.25,113.93625C270.6666666666667,113.92666666666666,273.0833333333333,113.91708333333334,275.5,113.9075C277.9166666666667,113.89791666666666,280.3333333333333,113.88833333333334,282.75,113.87875C285.1666666666667,113.86916666666666,287.5833333333333,113.85958333333332,290,113.85C292.4166666666667,113.84041666666667,294.8333333333333,113.83083333333333,297.25,113.82125C299.6666666666667,113.81166666666668,302.0833333333333,113.80208333333334,304.5,113.7925C306.9166666666667,113.78291666666667,309.3333333333333,113.77333333333334,311.75,113.76375C314.1666666666667,113.75416666666666,316.5833333333333,113.74458333333334,319,113.735C321.4166666666667,113.72541666666666,323.8333333333333,113.71583333333332,326.25,113.70625C328.6666666666667,113.69666666666667,331.0833333333333,113.68708333333335,333.5,113.67750000000001C335.9166666666667,113.66791666666667,338.3333333333333,113.65833333333333,340.75,113.64874999999999C343.1666666666667,113.63916666666665,345.5833333333333,113.62958333333333,348,113.62C350.4166666666667,113.61041666666668,352.8333333333333,113.60083333333334,355.25,113.59125C357.6666666666667,113.58166666666666,360.0833333333333,113.57208333333334,362.5,113.5625C364.9166666666667,113.55291666666666,367.3333333333333,113.54333333333334,369.75,113.53375C372.1666666666667,113.52416666666666,374.5833333333333,113.51458333333332,377,113.505C379.4166666666667,113.49541666666667,381.8333333333333,113.48583333333333,384.25,113.47625000000001C386.6666666666667,113.46666666666668,389.0833333333333,113.45708333333334,391.5,113.4475C393.9166666666667,113.43791666666667,396.33333333333337,113.42833333333333,398.75000000000006,113.41874999999999C401.16666666666674,113.40916666666665,403.58333333333337,113.39958333333334,406.00000000000006,113.39C408.4166666666667,113.38041666666668,410.8333333333333,113.37083333333332,413.24999999999994,113.36125C415.66666666666663,113.35166666666666,418.08333333333326,113.34208333333335,420.49999999999994,113.33250000000001C422.91666666666663,113.32291666666667,425.3333333333333,113.31333333333333,427.75,113.30375C430.1666666666667,113.29416666666665,432.5833333333333,113.28458333333332,435,113.27499999999999C437.4166666666667,113.26541666666667,439.8333333333333,113.25583333333333,442.25,113.24625C444.6666666666667,113.23666666666668,447.0833333333333,113.22708333333334,449.5,113.2175C451.9166666666667,113.20791666666666,454.3333333333333,113.19833333333334,456.75,113.18875C459.1666666666667,113.17916666666666,461.5833333333333,113.16958333333332,464,113.16C466.4166666666667,113.15041666666667,468.8333333333333,113.14083333333333,471.25,113.13125000000001C473.6666666666667,113.12166666666668,476.0833333333333,113.11208333333335,478.5,113.1025C480.9166666666667,113.09291666666667,483.33333333333337,113.08333333333333,485.75000000000006,113.07374999999999C488.16666666666674,113.06416666666665,490.58333333333337,113.05458333333334,493.00000000000006,113.045C495.4166666666667,113.03541666666668,497.8333333333333,113.02583333333332,500.24999999999994,113.01625C502.66666666666663,113.00666666666666,505.08333333333326,112.99708333333335,507.49999999999994,112.98750000000001C509.91666666666663,112.97791666666667,512.3333333333333,112.96833333333333,514.75,112.95875C517.1666666666666,112.94916666666666,519.5833333333334,112.93958333333332,522,112.92999999999999C524.4166666666666,112.92041666666667,526.8333333333334,112.91083333333333,529.25,112.90125C531.6666666666666,112.89166666666668,534.0833333333334,112.88208333333334,536.5,112.8725C538.9166666666666,112.86291666666666,541.3333333333334,112.85333333333334,543.75,112.84375C546.1666666666666,112.83416666666666,548.5833333333334,112.82458333333334,551,112.815C553.4166666666666,112.80541666666666,555.8333333333334,112.79583333333332,558.25,112.78625C560.6666666666666,112.77666666666667,563.0833333333334,112.76708333333335,565.5,112.75750000000001C567.9166666666666,112.74791666666667,570.3333333333334,112.73833333333333,572.75,112.72874999999999C575.1666666666666,112.71916666666665,577.5833333333334,112.70958333333333,580,112.7C582.4166666666666,112.69041666666668,584.8333333333334,112.68083333333334,587.25,112.67125C589.6666666666666,112.66166666666666,592.0833333333334,112.65208333333334,594.5,112.6425C596.9166666666666,112.63291666666666,599.3333333333334,112.62333333333333,601.75,112.61375C604.1666666666666,112.60416666666666,606.5833333333334,112.59458333333332,609,112.585C611.4166666666666,112.57541666666667,613.8333333333334,112.56583333333333,616.25,112.55625C618.6666666666666,112.54666666666668,621.0833333333334,112.53708333333334,623.5,112.5275C625.9166666666666,112.51791666666666,628.3333333333334,112.50833333333334,630.75,112.49875C633.1666666666666,112.48916666666666,635.5833333333334,112.47958333333334,638,112.47C640.4166666666666,112.46041666666666,642.8333333333334,112.45083333333332,645.25,112.44125C647.6666666666666,112.43166666666667,650.0833333333334,112.42208333333335,652.5,112.41250000000001C654.9166666666666,112.40291666666667,657.3333333333334,112.39333333333333,659.75,112.38374999999999C662.1666666666666,112.37416666666665,664.5833333333334,112.36458333333333,667,112.355C669.4166666666666,112.34541666666668,671.8333333333334,112.33583333333334,674.25,112.32625C676.6666666666666,112.31666666666666,679.0833333333334,112.30708333333334,681.5,112.2975C683.9166666666666,112.28791666666666,686.3333333333334,112.27833333333334,688.75,112.26875C691.1666666666666,112.25916666666666,693.5833333333334,112.24958333333332,696,112.24C698.4166666666666,112.23041666666667,700.8333333333334,112.22083333333333,703.25,112.21125C705.6666666666666,112.20166666666668,708.0833333333334,112.19208333333334,710.5,112.1825C712.9166666666666,112.17291666666667,715.3333333333334,112.16333333333333,717.75,112.15374999999999C720.1666666666666,112.14416666666665,722.5833333333334,112.13458333333332,725,112.125C727.4166666666666,112.11541666666668,729.8333333333334,112.10583333333332,732.25,112.09625C734.6666666666666,112.08666666666667,737.0833333333334,112.07708333333335,739.5,112.06750000000001C741.9166666666666,112.05791666666667,744.3333333333334,112.04833333333333,746.75,112.03875C749.1666666666666,112.02916666666665,751.5833333333334,112.01958333333332,754,112.00999999999999C756.4166666666666,112.00041666666667,758.8333333333334,111.99083333333333,761.25,111.98125C763.6666666666666,111.97166666666668,766.0833333333334,111.96208333333334,768.5,111.9525C770.9166666666666,111.94291666666666,773.3333333333334,111.93333333333334,775.75,111.92375C778.1666666666666,111.91416666666666,780.5833333333334,111.90458333333333,783,111.895C785.4166666666667,111.88541666666666,787.8333333333334,111.87583333333333,790.2500000000001,111.86625C792.6666666666667,111.85666666666667,795.0833333333335,111.84708333333334,797.5000000000001,111.8375C799.9166666666667,111.82791666666667,802.3333333333335,111.81833333333333,804.7500000000001,111.80874999999999C807.1666666666667,111.79916666666665,809.5833333333335,111.78958333333334,812.0000000000001,111.78C814.4166666666667,111.77041666666668,816.8333333333333,111.76083333333334,819.2499999999999,111.75125C821.6666666666665,111.74166666666666,824.0833333333333,111.73208333333334,826.4999999999999,111.7225C828.9166666666665,111.71291666666666,831.3333333333333,111.70333333333333,833.7499999999999,111.69375C836.1666666666665,111.68416666666666,838.5833333333333,111.67458333333332,840.9999999999999,111.66499999999999C843.4166666666666,111.65541666666665,845.8333333333333,111.64583333333334,848.25,111.63625C850.6666666666666,111.62666666666668,853.0833333333334,111.61708333333333,855.5,111.6075C857.9166666666666,111.59791666666668,860.3333333333334,111.58833333333335,862.75,111.57875000000001C865.1666666666666,111.56916666666667,867.5833333333334,111.55958333333334,870,111.55C872.4166666666666,111.54041666666666,874.8333333333334,111.53083333333332,877.25,111.52125C879.6666666666666,111.51166666666667,882.0833333333334,111.50208333333335,884.5,111.4925C886.9166666666666,111.48291666666667,889.3333333333334,111.47333333333333,891.75,111.46374999999999C894.1666666666666,111.45416666666665,896.5833333333334,111.44458333333333,899,111.435C901.4166666666666,111.42541666666668,903.8333333333334,111.41583333333334,906.25,111.40625C908.6666666666666,111.39666666666666,911.0833333333334,111.38708333333332,913.5,111.3775C915.9166666666666,111.36791666666667,918.3333333333334,111.35833333333335,920.75,111.34875000000001C923.1666666666666,111.33916666666667,925.5833333333334,111.32958333333333,928,111.32C930.4166666666666,111.31041666666665,932.8333333333334,111.30083333333333,935.25,111.29125C937.6666666666666,111.28166666666668,940.0833333333334,111.27208333333334,942.5,111.2625C944.9166666666666,111.25291666666666,947.3333333333334,111.24333333333333,949.75,111.23374999999999C952.1666666666666,111.22416666666665,954.5833333333334,111.21458333333332,957,111.205C959.4166666666666,111.19541666666667,961.8333333333334,111.18583333333332,964.25,111.17625C966.6666666666667,111.16666666666666,969.0833333333334,111.15708333333335,971.5000000000001,111.14750000000001C973.9166666666667,111.13791666666668,976.3333333333335,111.12833333333334,978.7500000000001,111.11875C981.1666666666667,111.10916666666667,983.5833333333335,111.09958333333334,986.0000000000001,111.09C988.4166666666667,111.08041666666666,990.8333333333335,111.07083333333334,993.2500000000001,111.06125C995.6666666666667,111.05166666666666,998.0833333333333,111.04208333333334,1000.4999999999999,111.0325C1002.9166666666665,111.02291666666666,1005.3333333333333,111.01333333333334,1007.7499999999999,111.00375C1010.1666666666665,110.99416666666666,1012.5833333333333,110.98458333333332,1014.9999999999999,110.975C1017.4166666666665,110.96541666666667,1019.8333333333333,110.95583333333333,1022.2499999999999,110.94625C1024.6666666666665,110.93666666666667,1027.0833333333333,110.92708333333334,1029.5,110.9175C1031.9166666666667,110.90791666666667,1034.3333333333333,110.89833333333334,1036.75,110.88875C1039.1666666666667,110.87916666666666,1041.5833333333333,110.86958333333334,1044,110.86C1046.4166666666667,110.85041666666666,1048.8333333333333,110.84083333333332,1051.25,110.83125C1053.6666666666667,110.82166666666667,1056.0833333333333,110.81208333333333,1058.5,110.80250000000001C1060.9166666666667,110.79291666666668,1063.3333333333333,110.78333333333335,1065.75,110.77375C1068.1666666666667,110.76416666666667,1070.5833333333333,110.75458333333333,1073,110.74499999999999C1075.4166666666667,110.73541666666665,1077.8333333333333,110.72583333333333,1080.25,110.71625C1082.6666666666667,110.70666666666668,1085.0833333333333,110.69708333333332,1087.5,110.6875C1089.9166666666667,110.67791666666668,1092.3333333333333,110.66833333333335,1094.75,110.65875000000001C1097.1666666666667,110.64916666666667,1099.5833333333333,110.63958333333333,1102,110.63C1104.4166666666667,110.62041666666666,1106.8333333333333,110.61083333333332,1109.25,110.60125C1111.6666666666667,110.59166666666667,1114.0833333333333,110.58208333333333,1116.5,110.5725C1118.9166666666667,110.56291666666668,1121.3333333333333,110.55333333333334,1123.75,110.54375C1126.1666666666667,110.53416666666666,1128.5833333333333,110.52458333333334,1131,110.515C1133.4166666666667,110.50541666666666,1135.8333333333333,110.49583333333334,1138.25,110.48625C1140.6666666666667,110.47666666666666,1143.0833333333333,110.46708333333332,1145.5,110.4575C1147.9166666666667,110.44791666666667,1150.3333333333333,110.43833333333335,1152.75,110.42875000000001C1155.1666666666667,110.41916666666667,1157.5833333333333,110.41916666666667,1160,110.39999999999999C1162.4166666666667,110.38083333333331,1164.8333333333333,108.9625,1167.25,108.24375C1169.6666666666667,107.525,1172.0833333333333,106.80624999999999,1174.5,106.08749999999999C1176.9166666666667,105.36874999999999,1179.3333333333333,104.65,1181.75,103.93125C1184.1666666666667,103.2125,1186.5833333333333,102.49375,1189,101.775C1191.4166666666667,101.05625,1193.8333333333333,100.33749999999999,1196.25,99.61874999999999C1198.6666666666667,98.89999999999999,1201.0833333333333,98.18125,1203.5,97.4625C1205.9166666666667,96.74375,1208.3333333333333,96.02499999999999,1210.75,95.30624999999999C1213.1666666666667,94.58749999999999,1215.5833333333333,93.86875,1218,93.15C1220.4166666666667,92.43125,1222.8333333333333,91.7125,1225.25,90.99375C1227.6666666666667,90.275,1230.0833333333333,89.55624999999999,1232.5,88.83749999999999C1234.9166666666667,88.11874999999999,1237.3333333333333,87.4,1239.75,86.68125C1242.1666666666667,85.9625,1244.5833333333333,85.24374999999999,1247,84.52499999999999C1249.4166666666667,83.80624999999999,1251.8333333333333,83.0875,1254.25,82.36875C1256.6666666666667,81.65,1259.0833333333333,80.93125,1261.5,80.2125C1263.9166666666667,79.49375,1266.3333333333333,78.77499999999999,1268.75,78.05624999999999C1271.1666666666667,77.33749999999999,1273.5833333333333,76.61874999999999,1276,75.89999999999999C1278.4166666666667,75.18124999999999,1280.8333333333333,74.46249999999999,1283.25,73.74374999999999C1285.6666666666667,73.02499999999999,1288.0833333333333,72.30625,1290.5,71.5875C1292.9166666666667,70.86875,1295.3333333333333,70.15,1297.75,69.43125C1300.1666666666667,68.7125,1302.5833333333333,67.99374999999999,1305,67.27499999999999C1307.4166666666667,66.55624999999999,1309.8333333333333,65.83749999999999,1312.25,65.11874999999999C1314.6666666666667,64.39999999999999,1317.0833333333333,63.68125,1319.5,62.9625C1321.9166666666667,62.24375,1324.3333333333333,61.525000000000006,1326.75,60.806250000000006C1329.1666666666667,60.087500000000006,1331.5833333333333,59.36875,1334,58.65C1336.4166666666667,57.93125,1338.8333333333333,57.2125,1341.25,56.49375C1343.6666666666667,55.775,1346.0833333333333,55.056250000000006,1348.5,54.337500000000006C1350.9166666666667,53.618750000000006,1353.3333333333333,52.9,1355.75,52.18125C1358.1666666666667,51.4625,1360.5833333333333,50.743750000000006,1363,50.025000000000006C1365.4166666666667,49.306250000000006,1367.8333333333333,48.5875,1370.25,47.86875C1372.6666666666667,47.15,1375.0833333333333,46.43125,1377.5,45.7125C1379.9166666666667,44.99375,1382.3333333333333,44.275000000000006,1384.75,43.556250000000006C1387.1666666666667,42.837500000000006,1389.5833333333333,42.11875,1392,41.4C1394.4166666666667,40.68125,1396.8333333333333,39.962500000000006,1399.25,39.243750000000006C1401.6666666666667,38.525000000000006,1404.0833333333333,37.80625,1406.5,37.0875C1408.9166666666667,36.36875,1411.3333333333333,35.65,1413.75,34.93125C1416.1666666666667,34.2125,1418.5833333333333,33.493750000000006,1421,32.775000000000006C1423.4166666666667,32.056250000000006,1425.8333333333333,31.3375,1428.25,30.61875C1430.6666666666667,29.9,1433.0833333333333,29.181250000000006,1435.5,28.462500000000006C1437.9166666666667,27.743750000000006,1440.3333333333333,27.025000000000006,1442.75,26.306250000000002C1445.1666666666667,25.5875,1447.5833333333333,24.86875,1450,24.149999999999995" fill="transparent" stroke-linecap="round" stroke="#B6509E" stroke-width="2"></path><path class="visx-linepath" d="M0,103.49999999997125C2.4166666666666665,103.49520833331655,4.833333333333334,103.49041666666187,7.25,103.485625C9.666666666666666,103.48083333333813,12.083333333333334,103.47604166666667,14.5,103.47125000000001C16.916666666666668,103.46645833333335,19.333333333333332,103.46166666666667,21.75,103.456875C24.166666666666668,103.45208333333332,26.583333333333332,103.44729166666666,29,103.4425C31.416666666666668,103.43770833333333,33.833333333333336,103.43291666666667,36.25,103.42812500000001C38.666666666666664,103.42333333333335,41.083333333333336,103.41854166666666,43.5,103.41375C45.91666666666667,103.40895833333332,48.333333333333336,103.40416666666665,50.75000000000001,103.39937499999999C53.16666666666667,103.39458333333333,55.583333333333336,103.38979166666667,58,103.385C60.416666666666664,103.38020833333334,62.833333333333336,103.37541666666667,65.25,103.370625C67.66666666666667,103.36583333333334,70.08333333333333,103.36104166666665,72.5,103.35624999999999C74.91666666666667,103.35145833333333,77.33333333333333,103.34666666666666,79.75,103.341875C82.16666666666667,103.33708333333334,84.58333333333333,103.33229166666666,87,103.3275C89.41666666666667,103.32270833333334,91.83333333333333,103.31791666666666,94.25,103.313125C96.66666666666667,103.30833333333334,99.08333333333334,103.30354166666666,101.50000000000001,103.29875C103.91666666666667,103.29395833333334,106.33333333333334,103.28916666666667,108.75,103.28437500000001C111.16666666666667,103.27958333333335,113.58333333333333,103.27479166666666,116,103.27C118.41666666666667,103.26520833333332,120.83333333333334,103.26041666666666,123.25000000000001,103.255625C125.66666666666667,103.25083333333333,128.08333333333334,103.24604166666667,130.5,103.24125000000001C132.91666666666666,103.23645833333335,135.33333333333334,103.23166666666668,137.75,103.226875C140.16666666666666,103.22208333333333,142.58333333333334,103.21729166666665,145,103.21249999999999C147.41666666666666,103.20770833333333,149.83333333333334,103.20291666666667,152.25,103.198125C154.66666666666666,103.19333333333334,157.08333333333334,103.18854166666668,159.5,103.18375C161.91666666666666,103.17895833333333,164.33333333333334,103.17416666666665,166.75,103.16937499999999C169.16666666666666,103.16458333333333,171.58333333333334,103.15979166666666,174,103.155C176.41666666666666,103.15020833333334,178.83333333333334,103.14541666666666,181.25,103.140625C183.66666666666666,103.13583333333334,186.08333333333334,103.13104166666666,188.5,103.12625C190.91666666666666,103.12145833333334,193.33333333333334,103.11666666666666,195.75,103.111875C198.16666666666669,103.10708333333334,200.58333333333334,103.10229166666666,203.00000000000003,103.0975C205.41666666666669,103.09270833333333,207.83333333333331,103.08791666666667,210.24999999999997,103.08312500000001C212.66666666666666,103.07833333333335,215.08333333333331,103.07354166666666,217.5,103.06875C219.91666666666666,103.06395833333333,222.33333333333334,103.05916666666667,224.75,103.05437500000001C227.16666666666666,103.04958333333335,229.58333333333334,103.04479166666667,232,103.04C234.41666666666666,103.03520833333334,236.83333333333334,103.03041666666665,239.25,103.02562499999999C241.66666666666669,103.02083333333333,244.08333333333334,103.01604166666667,246.50000000000003,103.01125C248.91666666666669,103.00645833333334,251.33333333333331,103.00166666666667,253.74999999999997,102.996875C256.16666666666663,102.99208333333334,258.5833333333333,102.98729166666666,261,102.9825C263.4166666666667,102.97770833333334,265.8333333333333,102.97291666666666,268.25,102.968125C270.6666666666667,102.96333333333334,273.0833333333333,102.95854166666666,275.5,102.95375C277.9166666666667,102.94895833333334,280.3333333333333,102.94416666666666,282.75,102.939375C285.1666666666667,102.93458333333334,287.5833333333333,102.92979166666666,290,102.925C292.4166666666667,102.92020833333333,294.8333333333333,102.91541666666666,297.25,102.910625C299.6666666666667,102.90583333333333,302.0833333333333,102.90104166666666,304.5,102.89625C306.9166666666667,102.89145833333333,309.3333333333333,102.88666666666666,311.75,102.881875C314.1666666666667,102.87708333333333,316.5833333333333,102.87229166666667,319,102.8675C321.4166666666667,102.86270833333334,323.8333333333333,102.85791666666667,326.25,102.853125C328.6666666666667,102.84833333333334,331.0833333333333,102.84354166666667,333.5,102.83875C335.9166666666667,102.83395833333334,338.3333333333333,102.82916666666667,340.75,102.824375C343.1666666666667,102.81958333333334,345.5833333333333,102.81479166666666,348,102.81C350.4166666666667,102.80520833333334,352.8333333333333,102.80041666666666,355.25,102.795625C357.6666666666667,102.79083333333334,360.0833333333333,102.78604166666666,362.5,102.78125C364.9166666666667,102.77645833333334,367.3333333333333,102.77166666666666,369.75,102.766875C372.1666666666667,102.76208333333334,374.5833333333333,102.75729166666666,377,102.7525C379.4166666666667,102.74770833333334,381.8333333333333,102.74291666666666,384.25,102.738125C386.6666666666667,102.73333333333333,389.0833333333333,102.72854166666666,391.5,102.72375C393.9166666666667,102.71895833333333,396.33333333333337,102.71416666666666,398.75000000000006,102.709375C401.16666666666674,102.70458333333333,403.58333333333337,102.69979166666667,406.00000000000006,102.69500000000001C408.4166666666667,102.69020833333335,410.8333333333333,102.68541666666665,413.24999999999994,102.68062499999999C415.66666666666663,102.67583333333333,418.08333333333326,102.67104166666667,420.49999999999994,102.66625C422.91666666666663,102.66145833333334,425.3333333333333,102.65666666666668,427.75,102.651875C430.1666666666667,102.64708333333334,432.5833333333333,102.64229166666665,435,102.63749999999999C437.4166666666667,102.63270833333333,439.8333333333333,102.62791666666666,442.25,102.623125C444.6666666666667,102.61833333333334,447.0833333333333,102.61354166666666,449.5,102.60875C451.9166666666667,102.60395833333334,454.3333333333333,102.59916666666668,456.75,102.59437500000001C459.1666666666667,102.58958333333335,461.5833333333333,102.58479166666666,464,102.58C466.4166666666667,102.57520833333334,468.8333333333333,102.57041666666666,471.25,102.565625C473.6666666666667,102.56083333333333,476.0833333333333,102.55604166666667,478.5,102.55125000000001C480.9166666666667,102.54645833333335,483.33333333333337,102.54166666666667,485.75000000000006,102.536875C488.16666666666674,102.53208333333333,490.58333333333337,102.52729166666666,493.00000000000006,102.5225C495.4166666666667,102.51770833333333,497.8333333333333,102.51291666666667,500.24999999999994,102.508125C502.66666666666663,102.50333333333334,505.08333333333326,102.49854166666665,507.49999999999994,102.49374999999999C509.91666666666663,102.48895833333331,512.3333333333333,102.48416666666665,514.75,102.47937499999999C517.1666666666666,102.47458333333333,519.5833333333334,102.46979166666667,522,102.465C524.4166666666666,102.46020833333334,526.8333333333334,102.45541666666668,529.25,102.450625C531.6666666666666,102.44583333333333,534.0833333333334,102.44104166666665,536.5,102.43624999999999C538.9166666666666,102.43145833333332,541.3333333333334,102.42666666666666,543.75,102.421875C546.1666666666666,102.41708333333334,548.5833333333334,102.41229166666668,551,102.40750000000001C553.4166666666666,102.40270833333335,555.8333333333334,102.39791666666667,558.25,102.393125C560.6666666666666,102.38833333333332,563.0833333333334,102.38354166666666,565.5,102.37875C567.9166666666666,102.37395833333333,570.3333333333334,102.36916666666667,572.75,102.36437500000001C575.1666666666666,102.35958333333335,577.5833333333334,102.35479166666667,580,102.35000000000001C582.4166666666666,102.34520833333335,584.8333333333334,102.34041666666666,587.25,102.335625C589.6666666666666,102.33083333333333,592.0833333333334,102.32604166666667,594.5,102.32125C596.9166666666666,102.31645833333334,599.3333333333334,102.31166666666667,601.75,102.306875C604.1666666666666,102.30208333333334,606.5833333333334,102.29729166666665,609,102.29249999999999C611.4166666666666,102.28770833333333,613.8333333333334,102.28291666666667,616.25,102.278125C618.6666666666666,102.27333333333334,621.0833333333334,102.26854166666666,623.5,102.26375C625.9166666666666,102.25895833333334,628.3333333333334,102.25416666666665,630.75,102.24937499999999C633.1666666666666,102.24458333333332,635.5833333333334,102.23979166666666,638,102.235C640.4166666666666,102.23020833333334,642.8333333333334,102.22541666666666,645.25,102.220625C647.6666666666666,102.21583333333334,650.0833333333334,102.21104166666667,652.5,102.20625000000001C654.9166666666666,102.20145833333335,657.3333333333334,102.19666666666666,659.75,102.191875C662.1666666666666,102.18708333333333,664.5833333333334,102.18229166666666,667,102.1775C669.4166666666666,102.17270833333333,671.8333333333334,102.16791666666667,674.25,102.16312500000001C676.6666666666666,102.15833333333335,679.0833333333334,102.15354166666665,681.5,102.14874999999999C683.9166666666666,102.14395833333333,686.3333333333334,102.13916666666667,688.75,102.134375C691.1666666666666,102.12958333333334,693.5833333333334,102.12479166666667,696,102.12C698.4166666666666,102.11520833333334,700.8333333333334,102.11041666666667,703.25,102.105625C705.6666666666666,102.10083333333334,708.0833333333334,102.09604166666666,710.5,102.09125C712.9166666666666,102.08645833333334,715.3333333333334,102.08166666666666,717.75,102.076875C720.1666666666666,102.07208333333334,722.5833333333334,102.06729166666666,725,102.0625C727.4166666666666,102.05770833333334,729.8333333333334,102.05291666666666,732.25,102.048125C734.6666666666666,102.04333333333334,737.0833333333334,102.03854166666666,739.5,102.03375C741.9166666666666,102.02895833333334,744.3333333333334,102.02416666666666,746.75,102.019375C749.1666666666666,102.01458333333333,751.5833333333334,102.00979166666666,754,102.005C756.4166666666666,102.00020833333333,758.8333333333334,101.99541666666666,761.25,101.990625C763.6666666666666,101.98583333333333,766.0833333333334,101.98104166666666,768.5,101.97625C770.9166666666666,101.97145833333333,773.3333333333334,101.96666666666667,775.75,101.961875C778.1666666666666,101.95708333333334,780.5833333333334,101.95229166666667,783,101.9475C785.4166666666667,101.94270833333334,787.8333333333334,101.93791666666667,790.2500000000001,101.933125C792.6666666666667,101.92833333333334,795.0833333333335,101.92354166666667,797.5000000000001,101.91875C799.9166666666667,101.91395833333334,802.3333333333335,101.90916666666666,804.7500000000001,101.904375C807.1666666666667,101.89958333333334,809.5833333333335,101.89479166666666,812.0000000000001,101.89C814.4166666666667,101.88520833333334,816.8333333333333,101.88041666666666,819.2499999999999,101.875625C821.6666666666665,101.87083333333334,824.0833333333333,101.86604166666666,826.4999999999999,101.86125C828.9166666666665,101.85645833333334,831.3333333333333,101.85166666666666,833.7499999999999,101.846875C836.1666666666665,101.84208333333333,838.5833333333333,101.83729166666666,840.9999999999999,101.8325C843.4166666666666,101.82770833333333,845.8333333333333,101.82291666666667,848.25,101.81812500000001C850.6666666666666,101.81333333333335,853.0833333333334,101.80854166666666,855.5,101.80375C857.9166666666666,101.79895833333333,860.3333333333334,101.79416666666665,862.75,101.78937499999999C865.1666666666666,101.78458333333333,867.5833333333334,101.77979166666667,870,101.775C872.4166666666666,101.77020833333334,874.8333333333334,101.76541666666665,877.25,101.76062499999999C879.6666666666666,101.75583333333333,882.0833333333334,101.75104166666667,884.5,101.74625C886.9166666666666,101.74145833333334,889.3333333333334,101.73666666666666,891.75,101.731875C894.1666666666666,101.72708333333334,896.5833333333334,101.72229166666666,899,101.7175C901.4166666666666,101.71270833333334,903.8333333333334,101.70791666666666,906.25,101.703125C908.6666666666666,101.69833333333334,911.0833333333334,101.69354166666666,913.5,101.68875C915.9166666666666,101.68395833333334,918.3333333333334,101.67916666666667,920.75,101.67437500000001C923.1666666666666,101.66958333333335,925.5833333333334,101.66479166666667,928,101.66C930.4166666666666,101.65520833333332,932.8333333333334,101.65041666666666,935.25,101.645625C937.6666666666666,101.64083333333333,940.0833333333334,101.63604166666667,942.5,101.63125000000001C944.9166666666666,101.62645833333335,947.3333333333334,101.62166666666667,949.75,101.616875C952.1666666666666,101.61208333333332,954.5833333333334,101.60729166666665,957,101.60249999999999C959.4166666666666,101.59770833333333,961.8333333333334,101.59291666666667,964.25,101.588125C966.6666666666667,101.58333333333334,969.0833333333334,101.57854166666668,971.5000000000001,101.57375C973.9166666666667,101.56895833333334,976.3333333333335,101.56416666666665,978.7500000000001,101.55937499999999C981.1666666666667,101.55458333333333,983.5833333333335,101.54979166666666,986.0000000000001,101.545C988.4166666666667,101.54020833333334,990.8333333333335,101.53541666666666,993.2500000000001,101.530625C995.6666666666667,101.52583333333334,998.0833333333333,101.52104166666666,1000.4999999999999,101.51625C1002.9166666666665,101.51145833333334,1005.3333333333333,101.50666666666666,1007.7499999999999,101.501875C1010.1666666666665,101.49708333333334,1012.5833333333333,101.49229166666667,1014.9999999999999,101.48750000000001C1017.4166666666665,101.48270833333335,1019.8333333333333,101.47791666666666,1022.2499999999999,101.473125C1024.6666666666665,101.46833333333332,1027.0833333333333,101.46354166666666,1029.5,101.45875C1031.9166666666667,101.45395833333333,1034.3333333333333,101.44916666666667,1036.75,101.44437500000001C1039.1666666666667,101.43958333333335,1041.5833333333333,101.43479166666668,1044,101.43C1046.4166666666667,101.42520833333333,1048.8333333333333,101.42041666666665,1051.25,101.41562499999999C1053.6666666666667,101.41083333333333,1056.0833333333333,101.40604166666667,1058.5,101.40125C1060.9166666666667,101.39645833333334,1063.3333333333333,101.39166666666668,1065.75,101.386875C1068.1666666666667,101.38208333333333,1070.5833333333333,101.37729166666665,1073,101.37249999999999C1075.4166666666667,101.36770833333333,1077.8333333333333,101.36291666666666,1080.25,101.358125C1082.6666666666667,101.35333333333334,1085.0833333333333,101.34854166666666,1087.5,101.34375C1089.9166666666667,101.33895833333334,1092.3333333333333,101.33416666666666,1094.75,101.329375C1097.1666666666667,101.32458333333334,1099.5833333333333,101.31979166666666,1102,101.315C1104.4166666666667,101.31020833333334,1106.8333333333333,101.30541666666666,1109.25,101.300625C1111.6666666666667,101.29583333333333,1114.0833333333333,101.29104166666667,1116.5,101.28625000000001C1118.9166666666667,101.28145833333335,1121.3333333333333,101.27666666666666,1123.75,101.271875C1126.1666666666667,101.26708333333333,1128.5833333333333,101.26229166666667,1131,101.25750000000001C1133.4166666666667,101.25270833333335,1135.8333333333333,101.24791666666667,1138.25,101.243125C1140.6666666666667,101.23833333333334,1143.0833333333333,101.23354166666665,1145.5,101.22874999999999C1147.9166666666667,101.22395833333333,1150.3333333333333,101.21916666666667,1152.75,101.214375C1155.1666666666667,101.20958333333334,1157.5833333333333,101.20958333333334,1160,101.2C1162.4166666666667,101.19041666666666,1164.8333333333333,99.76249999999999,1167.25,99.04374999999999C1169.6666666666667,98.32499999999999,1172.0833333333333,97.60625,1174.5,96.8875C1176.9166666666667,96.16875,1179.3333333333333,95.45,1181.75,94.73125C1184.1666666666667,94.0125,1186.5833333333333,93.29374999999999,1189,92.57499999999999C1191.4166666666667,91.85624999999999,1193.8333333333333,91.1375,1196.25,90.41875C1198.6666666666667,89.7,1201.0833333333333,88.98124999999999,1203.5,88.26249999999999C1205.9166666666667,87.54374999999999,1208.3333333333333,86.825,1210.75,86.10625C1213.1666666666667,85.3875,1215.5833333333333,84.66875,1218,83.95C1220.4166666666667,83.23125,1222.8333333333333,82.51249999999999,1225.25,81.79374999999999C1227.6666666666667,81.07499999999999,1230.0833333333333,80.35625,1232.5,79.6375C1234.9166666666667,78.91875,1237.3333333333333,78.2,1239.75,77.48125C1242.1666666666667,76.7625,1244.5833333333333,76.04375,1247,75.325C1249.4166666666667,74.60625,1251.8333333333333,73.8875,1254.25,73.16875C1256.6666666666667,72.45,1259.0833333333333,71.73124999999999,1261.5,71.01249999999999C1263.9166666666667,70.29374999999999,1266.3333333333333,69.575,1268.75,68.85625C1271.1666666666667,68.1375,1273.5833333333333,67.41875,1276,66.7C1278.4166666666667,65.98125,1280.8333333333333,65.2625,1283.25,64.54375C1285.6666666666667,63.825,1288.0833333333333,63.106249999999996,1290.5,62.387499999999996C1292.9166666666667,61.668749999999996,1295.3333333333333,60.949999999999996,1297.75,60.231249999999996C1300.1666666666667,59.512499999999996,1302.5833333333333,58.79375,1305,58.075C1307.4166666666667,57.35625,1309.8333333333333,56.637499999999996,1312.25,55.918749999999996C1314.6666666666667,55.199999999999996,1317.0833333333333,54.48125,1319.5,53.7625C1321.9166666666667,53.04375,1324.3333333333333,52.324999999999996,1326.75,51.606249999999996C1329.1666666666667,50.887499999999996,1331.5833333333333,50.16875,1334,49.45C1336.4166666666667,48.73125,1338.8333333333333,48.0125,1341.25,47.29375C1343.6666666666667,46.575,1346.0833333333333,45.856249999999996,1348.5,45.137499999999996C1350.9166666666667,44.418749999999996,1353.3333333333333,43.7,1355.75,42.98125C1358.1666666666667,42.2625,1360.5833333333333,41.543749999999996,1363,40.824999999999996C1365.4166666666667,40.106249999999996,1367.8333333333333,39.3875,1370.25,38.66875C1372.6666666666667,37.95,1375.0833333333333,37.23125,1377.5,36.5125C1379.9166666666667,35.79375,1382.3333333333333,35.074999999999996,1384.75,34.356249999999996C1387.1666666666667,33.637499999999996,1389.5833333333333,32.91875,1392,32.2C1394.4166666666667,31.481250000000003,1396.8333333333333,30.7625,1399.25,30.04375C1401.6666666666667,29.325,1404.0833333333333,28.606250000000006,1406.5,27.887500000000006C1408.9166666666667,27.168750000000006,1411.3333333333333,26.450000000000003,1413.75,25.73125C1416.1666666666667,25.012499999999996,1418.5833333333333,24.293749999999996,1421,23.574999999999996C1423.4166666666667,22.856249999999996,1425.8333333333333,22.137500000000003,1428.25,21.418750000000003C1430.6666666666667,20.700000000000003,1433.0833333333333,19.98125,1435.5,19.2625C1437.9166666666667,18.54375,1440.3333333333333,17.825000000000006,1442.75,17.106250000000006C1445.1666666666667,16.387500000000006,1447.5833333333333,15.668750000000005,1450,14.950000000000001" fill="transparent" stroke-linecap="round" stroke="#E7C6DF" stroke-width="2"></path><g class="visx-group visx-axis visx-axis-bottom" transform="translate(0, 115)"><g class="visx-group visx-axis-tick" transform="translate(0, 0)"><line class="visx-line" x1="0" y1="0" x2="0" y2="8" fill="transparent" shape-rendering="crispEdges" stroke="#000" stroke-width="0" stroke-linecap="square"></line><svg x="0" y="0" font-size="10" style="overflow:visible"><text transform="" x="0" y="18" fill="#000" font-size="10" text-anchor="middle"><tspan x="0" dy="0em">0%</tspan></text></svg></g><g class="visx-group visx-axis-tick" transform="translate(0, 0)"><line class="visx-line" x1="362.5" y1="0" x2="362.5" y2="8" fill="transparent" shape-rendering="crispEdges" stroke="#000" stroke-width="0" stroke-linecap="square"></line><svg x="0" y="0" font-size="10" style="overflow:visible"><text transform="" x="362.5" y="18" fill="#000" font-size="10" text-anchor="middle"><tspan x="362.5" dy="0em">25%</tspan></text></svg></g><g class="visx-group visx-axis-tick" transform="translate(0, 0)"><line class="visx-line" x1="725" y1="0" x2="725" y2="8" fill="transparent" shape-rendering="crispEdges" stroke="#000" stroke-width="0" stroke-linecap="square"></line><svg x="0" y="0" font-size="10" style="overflow:visible"><text transform="" x="725" y="18" fill="#000" font-size="10" text-anchor="middle"><tspan x="725" dy="0em">50%</tspan></text></svg></g><g class="visx-group visx-axis-tick" transform="translate(0, 0)"><line class="visx-line" x1="1087.5" y1="0" x2="1087.5" y2="8" fill="transparent" shape-rendering="crispEdges" stroke="#000" stroke-width="0" stroke-linecap="square"></line><svg x="0" y="0" font-size="10" style="overflow:visible"><text transform="" x="1087.5" y="18" fill="#000" font-size="10" text-anchor="middle"><tspan x="1087.5" dy="0em">75%</tspan></text></svg></g><g class="visx-group visx-axis-tick" transform="translate(0, 0)"><line class="visx-line" x1="1450" y1="0" x2="1450" y2="8" fill="transparent" shape-rendering="crispEdges" stroke="#000" stroke-width="0" stroke-linecap="square"></line><svg x="0" y="0" font-size="10" style="overflow:visible"><text transform="" x="1450" y="18" fill="#000" font-size="10" text-anchor="middle"><tspan x="1450" dy="0em">100%</tspan></text></svg></g><line class="visx-line visx-axis-line" x1="0.5" y1="0" x2="1450.5" y2="0" fill="transparent" shape-rendering="crispEdges" stroke="#222" stroke-width="0"></line></g><g class="visx-group visx-axis visx-axis-left" transform="translate(0, 0)"><g class="visx-group visx-axis-tick" transform="translate(0, 0)"><line class="visx-line" x1="0" y1="115" x2="-8" y2="115" fill="transparent" shape-rendering="crispEdges" stroke="#222" stroke-width="0" stroke-linecap="square"></line><svg x="-30" y="0" font-size="8" style="overflow:visible"><text transform="" x="-8" y="115" fill="#000" font-size="8" text-anchor="start"><tspan x="-8" dy="0em">0%</tspan></text></svg></g><g class="visx-group visx-axis-tick" transform="translate(0, 0)"><line class="visx-line" x1="0" y1="57.5" x2="-8" y2="57.5" fill="transparent" shape-rendering="crispEdges" stroke="#222" stroke-width="0" stroke-linecap="square"></line><svg x="-30" y="0" font-size="8" style="overflow:visible"><text transform="" x="-8" y="57.5" fill="#000" font-size="8" text-anchor="start"><tspan x="-8" dy="0em">50%</tspan></text></svg></g><g class="visx-group visx-axis-tick" transform="translate(0, 0)"><line class="visx-line" x1="0" y1="0" x2="-8" y2="0" fill="transparent" shape-rendering="crispEdges" stroke="#222" stroke-width="0" stroke-linecap="square"></line><svg x="-30" y="0" font-size="8" style="overflow:visible"><text transform="" x="-8" y="0" fill="#000" font-size="8" text-anchor="start"><tspan x="-8" dy="0em">100%</tspan></text></svg></g><line class="visx-line visx-axis-line" x1="0" y1="115.5" x2="0" y2="0.5" fill="transparent" shape-rendering="crispEdges" stroke="#222" stroke-width="0"></line></g><rect class="visx-bar" width="1450" height="115" fill="transparent"></rect><line class="visx-line" x1="1160" y1="28" x2="1160" y2="115" fill="transparent" shape-rendering="crispEdges" stroke="#0062D2" stroke-width="1" pointer-events="none" stroke-dasharray="5,2"></line><svg x="0" y="0" font-size="10px" style="overflow:visible"><text transform="" x="1160" y="20" font-size="10px" fill="#fff" stroke="#fff" stroke-width="0.8em" text-anchor="middle"><tspan x="1160" dy="0.355em">Optimal 80%</tspan></text></svg><svg x="0" y="0" font-size="10px" style="overflow:visible"><text transform="" x="1160" y="20" font-size="10px" fill="#62677B" text-anchor="middle"><tspan x="1160" dy="0.355em">Optimal 80%</tspan></text></svg></g></svg>