<?xml version="1.0"?><svg xmlns="http://www.w3.org/2000/svg" xmlns:xlink= "http://www.w3.org/1999/xlink" style="background: white;" width="1500" height="300"> <g style="color: black; font-size: 13px; font-family: sans-serif; transform: translate(18px, 25px);"><g><circle r="3" cx="-6" cy="-5" style="fill: #1AD4B3" /><text>Borrow APR, variable</text></g><g style="transform: translateX(150px);"><circle r="3" cx="-6" cy="-5" style="fill: #101423" /><text>Borrow APR, stable</text></g></g><g class="visx-group" transform="translate(45, 50)"><g class="visx-group visx-rows" transform="translate(0, 0)"><line class="visx-line" x1="0" y1="155" x2="1425" y2="155" fill="transparent" shape-rendering="crispEdges" stroke="#F2F0F9" stroke-width="1" pointer-events="none"></line><line class="visx-line" x1="0" y1="90.41666666666666" x2="1425" y2="90.41666666666666" fill="transparent" shape-rendering="crispEdges" stroke="#F2F0F9" stroke-width="1" pointer-events="none"></line><line class="visx-line" x1="0" y1="25.83333333333333" x2="1425" y2="25.83333333333333" fill="transparent" shape-rendering="crispEdges" stroke="#F2F0F9" stroke-width="1" pointer-events="none"></line></g><path class="visx-linepath" d="M0,153.06249999951564C2.375,152.9817708330508,4.75,152.90104166658594,7.125,152.8203125C9.5,152.73958333341406,11.875,152.65885416666666,14.25,152.578125C16.625,152.49739583333334,19,152.41666666666666,21.375,152.3359375C23.75,152.25520833333334,26.125,152.17447916666666,28.5,152.09375C30.875,152.01302083333334,33.25,151.93229166666666,35.625,151.8515625C38,151.77083333333334,40.375,151.69010416666666,42.75,151.609375C45.125,151.52864583333334,47.50000000000001,151.44791666666666,49.87500000000001,151.3671875C52.25000000000001,151.28645833333334,54.625,151.20572916666666,57,151.125C59.375,151.04427083333334,61.75,150.96354166666666,64.125,150.8828125C66.5,150.80208333333334,68.875,150.72135416666666,71.25,150.640625C73.625,150.55989583333334,76,150.47916666666666,78.375,150.3984375C80.75,150.31770833333334,83.125,150.23697916666666,85.5,150.15625C87.875,150.07552083333334,90.25,149.99479166666666,92.625,149.9140625C95,149.83333333333334,97.37500000000001,149.75260416666666,99.75000000000001,149.671875C102.12500000000001,149.59114583333334,104.5,149.51041666666666,106.875,149.4296875C109.25,149.34895833333334,111.625,149.26822916666666,114,149.1875C116.375,149.10677083333334,118.75000000000001,149.02604166666666,121.12500000000001,148.9453125C123.50000000000001,148.86458333333334,125.875,148.78385416666666,128.25,148.703125C130.625,148.62239583333334,133,148.54166666666666,135.375,148.4609375C137.75,148.38020833333334,140.125,148.29947916666666,142.5,148.21875C144.875,148.13802083333334,147.25,148.05729166666666,149.625,147.9765625C152,147.89583333333334,154.375,147.81510416666666,156.75,147.734375C159.125,147.65364583333334,161.5,147.57291666666666,163.875,147.4921875C166.25,147.41145833333334,168.625,147.33072916666666,171,147.25C173.375,147.16927083333334,175.75,147.08854166666666,178.125,147.0078125C180.5,146.92708333333334,182.875,146.84635416666666,185.25,146.765625C187.625,146.68489583333334,190,146.60416666666666,192.375,146.5234375C194.75,146.44270833333334,197.12500000000003,146.36197916666666,199.50000000000003,146.28125C201.875,146.20052083333334,204.25,146.11979166666666,206.62499999999997,146.0390625C208.99999999999997,145.95833333333334,211.375,145.87760416666666,213.75,145.796875C216.125,145.71614583333334,218.5,145.63541666666666,220.875,145.5546875C223.25,145.47395833333334,225.625,145.39322916666666,228,145.3125C230.375,145.23177083333334,232.75,145.15104166666666,235.125,145.0703125C237.5,144.98958333333334,239.87500000000003,144.90885416666666,242.25000000000003,144.828125C244.625,144.74739583333334,247,144.66666666666666,249.37499999999997,144.5859375C251.74999999999997,144.50520833333334,254.125,144.42447916666666,256.5,144.34375C258.875,144.26302083333334,261.25,144.18229166666666,263.625,144.1015625C266,144.02083333333334,268.375,143.94010416666666,270.75,143.859375C273.125,143.77864583333334,275.5,143.69791666666666,277.875,143.6171875C280.25,143.53645833333334,282.625,143.53645833333334,285,143.375C287.375,143.21354166666666,289.75,142.83680555555557,292.125,142.56770833333334C294.5,142.29861111111111,296.875,142.02951388888889,299.25,141.76041666666666C301.625,141.49131944444443,304,141.22222222222223,306.375,140.953125C308.75,140.68402777777777,311.125,140.41493055555557,313.5,140.14583333333334C315.875,139.87673611111111,318.25,139.60763888888889,320.625,139.33854166666666C323,139.06944444444443,325.375,138.80034722222223,327.75,138.53125C330.125,138.26215277777777,332.5,137.99305555555557,334.875,137.72395833333334C337.25,137.45486111111111,339.625,137.18576388888889,342,136.91666666666666C344.375,136.64756944444443,346.75,136.37847222222223,349.125,136.109375C351.5,135.84027777777777,353.875,135.57118055555557,356.25,135.30208333333334C358.625,135.03298611111111,361,134.76388888888889,363.375,134.49479166666666C365.75,134.22569444444443,368.125,133.95659722222223,370.5,133.6875C372.875,133.41840277777777,375.25,133.14930555555557,377.625,132.88020833333334C380,132.61111111111111,382.375,132.34201388888889,384.75,132.07291666666666C387.125,131.80381944444443,389.50000000000006,131.53472222222223,391.87500000000006,131.265625C394.25000000000006,130.99652777777777,396.62500000000006,130.72743055555557,399.00000000000006,130.45833333333334C401.375,130.18923611111111,403.75,129.92013888888889,406.12499999999994,129.65104166666666C408.49999999999994,129.38194444444443,410.87499999999994,129.11284722222223,413.24999999999994,128.84375C415.62499999999994,128.57465277777777,418,128.30555555555557,420.375,128.03645833333334C422.75,127.76736111111111,425.125,127.49826388888889,427.5,127.22916666666666C429.875,126.96006944444443,432.25,126.69097222222223,434.625,126.421875C437,126.15277777777777,439.375,125.88368055555556,441.75,125.61458333333333C444.125,125.3454861111111,446.5,125.07638888888889,448.875,124.80729166666666C451.25,124.53819444444443,453.625,124.26909722222223,456,124C458.375,123.73090277777777,460.75,123.46180555555556,463.125,123.19270833333333C465.5,122.9236111111111,467.875,122.65451388888887,470.25,122.38541666666666C472.625,122.11631944444443,475.00000000000006,121.84722222222223,477.37500000000006,121.578125C479.75000000000006,121.30902777777779,482.12500000000006,121.03993055555556,484.50000000000006,120.77083333333333C486.875,120.5017361111111,489.25,120.23263888888889,491.62499999999994,119.96354166666666C493.99999999999994,119.69444444444443,496.37499999999994,119.4253472222222,498.74999999999994,119.15624999999999C501.12499999999994,118.88715277777776,503.5,118.61805555555556,505.875,118.34895833333333C508.25,118.07986111111111,510.625,117.81076388888889,513,117.54166666666666C515.375,117.27256944444443,517.75,117.00347222222223,520.125,116.734375C522.5,116.46527777777777,524.875,116.19618055555556,527.25,115.92708333333333C529.625,115.6579861111111,532,115.38888888888889,534.375,115.11979166666666C536.75,114.85069444444443,539.125,114.58159722222223,541.5,114.3125C543.875,114.04340277777777,546.25,113.77430555555556,548.625,113.50520833333333C551,113.2361111111111,553.375,112.96701388888889,555.75,112.69791666666666C558.125,112.42881944444443,560.5,112.15972222222223,562.875,111.890625C565.25,111.62152777777777,567.625,111.35243055555556,570,111.08333333333333C572.375,110.8142361111111,574.75,110.54513888888889,577.125,110.27604166666666C579.5,110.00694444444443,581.875,109.73784722222223,584.25,109.46875C586.625,109.19965277777777,589,108.93055555555556,591.375,108.66145833333333C593.75,108.3923611111111,596.125,108.12326388888889,598.5,107.85416666666666C600.875,107.58506944444443,603.25,107.31597222222223,605.625,107.046875C608,106.77777777777777,610.375,106.50868055555556,612.75,106.23958333333333C615.125,105.9704861111111,617.5,105.70138888888889,619.875,105.43229166666666C622.25,105.16319444444443,624.625,104.89409722222223,627,104.625C629.375,104.35590277777777,631.75,104.08680555555556,634.125,103.81770833333333C636.5,103.5486111111111,638.875,103.27951388888889,641.25,103.01041666666666C643.625,102.74131944444443,646,102.47222222222223,648.375,102.203125C650.75,101.93402777777777,653.125,101.66493055555556,655.5,101.39583333333333C657.875,101.1267361111111,660.25,100.85763888888889,662.625,100.58854166666666C665,100.31944444444443,667.375,100.05034722222223,669.75,99.78125C672.125,99.51215277777777,674.5,99.24305555555556,676.875,98.97395833333333C679.25,98.7048611111111,681.625,98.43576388888889,684,98.16666666666666C686.375,97.89756944444443,688.75,97.62847222222223,691.125,97.359375C693.5,97.09027777777777,695.875,96.82118055555556,698.25,96.55208333333333C700.625,96.2829861111111,703,96.01388888888889,705.375,95.74479166666666C707.75,95.47569444444443,710.125,95.20659722222223,712.5,94.9375C714.875,94.66840277777777,717.25,94.39930555555556,719.625,94.13020833333333C722,93.8611111111111,724.375,93.59201388888889,726.75,93.32291666666666C729.125,93.05381944444443,731.5,92.78472222222223,733.875,92.515625C736.25,92.24652777777777,738.625,91.97743055555556,741,91.70833333333333C743.375,91.4392361111111,745.75,91.17013888888889,748.125,90.90104166666666C750.5,90.63194444444443,752.875,90.36284722222223,755.25,90.09375C757.625,89.82465277777777,760,89.55555555555556,762.375,89.28645833333333C764.75,89.0173611111111,767.125,88.74826388888887,769.5,88.47916666666666C771.875,88.21006944444443,774.2500000000001,87.94097222222223,776.6250000000001,87.671875C779.0000000000001,87.40277777777779,781.3750000000001,87.13368055555554,783.7500000000001,86.86458333333333C786.1250000000001,86.59548611111111,788.5000000000001,86.32638888888891,790.8750000000001,86.05729166666669C793.2500000000001,85.78819444444446,795.6250000000001,85.51909722222223,798.0000000000001,85.25C800.375,84.98090277777777,802.75,84.71180555555554,805.1249999999999,84.44270833333333C807.4999999999999,84.1736111111111,809.8749999999999,83.90451388888889,812.2499999999999,83.63541666666666C814.6249999999999,83.36631944444443,816.9999999999999,83.09722222222221,819.3749999999999,82.828125C821.7499999999999,82.55902777777779,824.1249999999999,82.28993055555559,826.4999999999999,82.02083333333336C828.8749999999999,81.75173611111113,831.25,81.48263888888889,833.625,81.21354166666666C836,80.94444444444443,838.375,80.67534722222223,840.75,80.40625C843.125,80.13715277777777,845.5,79.86805555555556,847.875,79.59895833333333C850.25,79.3298611111111,852.625,79.06076388888889,855,78.79166666666666C857.375,78.52256944444443,859.75,78.25347222222223,862.125,77.984375C864.5,77.71527777777777,866.875,77.44618055555556,869.25,77.17708333333333C871.625,76.9079861111111,874,76.63888888888889,876.375,76.36979166666666C878.75,76.10069444444443,881.125,75.83159722222223,883.5,75.5625C885.875,75.29340277777777,888.25,75.02430555555554,890.625,74.75520833333333C893,74.48611111111111,895.375,74.21701388888891,897.75,73.94791666666669C900.125,73.67881944444446,902.5,73.40972222222223,904.875,73.140625C907.25,72.87152777777777,909.625,72.60243055555556,912,72.33333333333333C914.375,72.0642361111111,916.75,71.79513888888889,919.125,71.52604166666666C921.5,71.25694444444443,923.875,70.98784722222223,926.25,70.71875C928.625,70.44965277777777,931,70.18055555555556,933.375,69.91145833333333C935.75,69.6423611111111,938.125,69.37326388888889,940.5,69.10416666666666C942.875,68.83506944444443,945.25,68.56597222222221,947.625,68.296875C950,68.02777777777777,952.3750000000001,67.75868055555556,954.7500000000001,67.48958333333333C957.1250000000001,67.2204861111111,959.5000000000001,66.95138888888889,961.8750000000001,66.68229166666666C964.2500000000001,66.41319444444443,966.6250000000001,66.14409722222223,969.0000000000001,65.875C971.3750000000001,65.60590277777777,973.7500000000001,65.33680555555556,976.1250000000001,65.06770833333333C978.5,64.79861111111111,980.875,64.52951388888887,983.2499999999999,64.26041666666666C985.6249999999999,63.991319444444436,987.9999999999999,63.72222222222223,990.3749999999999,63.45312500000001C992.7499999999999,63.184027777777786,995.1249999999999,62.91493055555556,997.4999999999999,62.645833333333336C999.8749999999999,62.376736111111114,1002.2499999999999,62.107638888888886,1004.6249999999999,61.838541666666664C1006.9999999999999,61.56944444444444,1009.375,61.30034722222223,1011.75,61.03125000000001C1014.125,60.762152777777786,1016.5,60.49305555555556,1018.875,60.223958333333336C1021.25,59.954861111111114,1023.625,59.685763888888886,1026,59.416666666666664C1028.375,59.14756944444444,1030.75,58.87847222222223,1033.125,58.60937500000001C1035.5,58.340277777777786,1037.875,58.07118055555556,1040.25,57.802083333333336C1042.625,57.532986111111114,1045,57.263888888888886,1047.375,56.994791666666664C1049.75,56.72569444444444,1052.125,56.45659722222223,1054.5,56.18750000000001C1056.875,55.918402777777786,1059.25,55.64930555555556,1061.625,55.380208333333336C1064,55.111111111111114,1066.375,54.842013888888886,1068.75,54.572916666666664C1071.125,54.30381944444444,1073.5,54.03472222222223,1075.875,53.76562500000001C1078.25,53.496527777777786,1080.625,53.22743055555556,1083,52.958333333333336C1085.375,52.689236111111114,1087.75,52.420138888888886,1090.125,52.151041666666664C1092.5,51.88194444444444,1094.875,51.61284722222223,1097.25,51.34375000000001C1099.625,51.074652777777786,1102,50.80555555555556,1104.375,50.536458333333336C1106.75,50.267361111111114,1109.125,49.998263888888886,1111.5,49.729166666666664C1113.875,49.46006944444444,1116.25,49.19097222222223,1118.625,48.92187500000001C1121,48.652777777777786,1123.375,48.38368055555556,1125.75,48.114583333333336C1128.125,47.845486111111114,1130.5,47.576388888888886,1132.875,47.307291666666664C1135.25,47.03819444444444,1137.625,46.76909722222223,1140,46.50000000000001C1142.375,46.230902777777786,1144.75,45.96180555555556,1147.125,45.692708333333336C1149.5,45.423611111111114,1151.875,45.154513888888886,1154.25,44.885416666666664C1156.625,44.61631944444444,1159,44.34722222222223,1161.375,44.07812500000001C1163.75,43.809027777777786,1166.125,43.53993055555556,1168.5,43.270833333333336C1170.875,43.001736111111114,1173.25,42.732638888888886,1175.625,42.463541666666664C1178,42.19444444444444,1180.375,41.92534722222223,1182.75,41.65625000000001C1185.125,41.387152777777786,1187.5,41.11805555555556,1189.875,40.848958333333336C1192.25,40.579861111111114,1194.625,40.310763888888886,1197,40.041666666666664C1199.375,39.77256944444444,1201.75,39.50347222222223,1204.125,39.23437500000001C1206.5,38.965277777777786,1208.875,38.69618055555556,1211.25,38.427083333333336C1213.625,38.157986111111114,1216,37.888888888888886,1218.375,37.619791666666664C1220.75,37.35069444444444,1223.125,37.08159722222223,1225.5,36.81250000000001C1227.875,36.543402777777786,1230.25,36.27430555555556,1232.625,36.005208333333336C1235,35.736111111111114,1237.375,35.467013888888886,1239.75,35.197916666666664C1242.125,34.92881944444444,1244.5,34.65972222222223,1246.875,34.39062500000001C1249.25,34.121527777777786,1251.625,33.85243055555556,1254,33.583333333333336C1256.375,33.314236111111114,1258.75,33.045138888888886,1261.125,32.776041666666664C1263.5,32.50694444444444,1265.875,32.23784722222223,1268.25,31.968750000000007C1270.625,31.699652777777786,1273,31.43055555555556,1275.375,31.161458333333336C1277.75,30.89236111111111,1280.125,30.623263888888882,1282.5,30.35416666666666C1284.875,30.08506944444444,1287.25,29.81597222222223,1289.625,29.546875000000007C1292,29.277777777777786,1294.375,29.00868055555556,1296.75,28.739583333333336C1299.125,28.47048611111111,1301.5,28.201388888888882,1303.875,27.93229166666666C1306.25,27.66319444444444,1308.625,27.39409722222223,1311,27.125000000000007C1313.375,26.855902777777786,1315.75,26.58680555555556,1318.125,26.317708333333336C1320.5,26.04861111111111,1322.875,25.779513888888882,1325.25,25.51041666666666C1327.625,25.24131944444444,1330,24.972222222222225,1332.375,24.703125000000007C1334.75,24.43402777777779,1337.125,24.164930555555575,1339.5,23.89583333333335C1341.875,23.626736111111125,1344.25,23.357638888888886,1346.625,23.08854166666666C1349,22.819444444444436,1351.375,22.55034722222221,1353.75,22.28124999999999C1356.125,22.012152777777768,1358.5,21.743055555555557,1360.875,21.473958333333336C1363.25,21.204861111111114,1365.625,20.93576388888888,1368,20.66666666666666C1370.375,20.397569444444443,1372.75,20.128472222222246,1375.125,19.859375000000025C1377.5,19.590277777777803,1379.875,19.321180555555564,1382.25,19.052083333333336C1384.625,18.782986111111107,1387,18.513888888888868,1389.375,18.244791666666647C1391.75,17.975694444444425,1394.125,17.706597222222225,1396.5,17.437500000000007C1398.875,17.16840277777779,1401.25,16.899305555555557,1403.625,16.630208333333336C1406,16.361111111111114,1408.375,16.0920138888889,1410.75,15.822916666666679C1413.125,15.553819444444457,1415.5,15.284722222222234,1417.875,15.015625000000007C1420.25,14.74652777777778,1422.625,14.47743055555555,1425,14.208333333333318" fill="transparent" stroke-linecap="round" stroke="#1AD4B3" stroke-width="2"></path><g class="visx-group visx-axis visx-axis-bottom" transform="translate(0, 155)"><g class="visx-group visx-axis-tick" transform="translate(0, 0)"><line class="visx-line" x1="0" y1="0" x2="0" y2="8" fill="transparent" shape-rendering="crispEdges" stroke="#F2F0F9" stroke-width="1" stroke-linecap="square"></line><svg x="0" y="0" font-size="11" style="overflow:visible"><text transform="" x="0" y="19" fill="#1B2030" font-size="11" text-anchor="middle"><tspan x="0" dy="0em">0%</tspan></text></svg></g><g class="visx-group visx-axis-tick" transform="translate(0, 0)"><line class="visx-line" x1="356.25" y1="0" x2="356.25" y2="8" fill="transparent" shape-rendering="crispEdges" stroke="#F2F0F9" stroke-width="1" stroke-linecap="square"></line><svg x="0" y="0" font-size="11" style="overflow:visible"><text transform="" x="356.25" y="19" fill="#1B2030" font-size="11" text-anchor="middle"><tspan x="356.25" dy="0em">25%</tspan></text></svg></g><g class="visx-group visx-axis-tick" transform="translate(0, 0)"><line class="visx-line" x1="712.5" y1="0" x2="712.5" y2="8" fill="transparent" shape-rendering="crispEdges" stroke="#F2F0F9" stroke-width="1" stroke-linecap="square"></line><svg x="0" y="0" font-size="11" style="overflow:visible"><text transform="" x="712.5" y="19" fill="#1B2030" font-size="11" text-anchor="middle"><tspan x="712.5" dy="0em">50%</tspan></text></svg></g><g class="visx-group visx-axis-tick" transform="translate(0, 0)"><line class="visx-line" x1="1068.75" y1="0" x2="1068.75" y2="8" fill="transparent" shape-rendering="crispEdges" stroke="#F2F0F9" stroke-width="1" stroke-linecap="square"></line><svg x="0" y="0" font-size="11" style="overflow:visible"><text transform="" x="1068.75" y="19" fill="#1B2030" font-size="11" text-anchor="middle"><tspan x="1068.75" dy="0em">75%</tspan></text></svg></g><g class="visx-group visx-axis-tick" transform="translate(0, 0)"><line class="visx-line" x1="1425" y1="0" x2="1425" y2="8" fill="transparent" shape-rendering="crispEdges" stroke="#F2F0F9" stroke-width="1" stroke-linecap="square"></line><svg x="0" y="0" font-size="11" style="overflow:visible"><text transform="" x="1425" y="19" fill="#1B2030" font-size="11" text-anchor="middle"><tspan x="1425" dy="0em">100%</tspan></text></svg></g></g><g class="visx-group visx-axis visx-axis-left" transform="translate(0, 0)"><g class="visx-group visx-axis-tick" transform="translate(0, 0)"><line class="visx-line" x1="0" y1="155" x2="-8" y2="155" fill="transparent" shape-rendering="crispEdges" stroke="#F2F0F9" stroke-width="1" stroke-linecap="square"></line><svg x="-30" y="0" font-size="11" style="overflow:visible"><text transform="" x="-8" y="155" fill="#1B2030" font-size="11" text-anchor="start"><tspan x="-8" dy="0em">0%</tspan></text></svg></g><g class="visx-group visx-axis-tick" transform="translate(0, 0)"><line class="visx-line" x1="0" y1="90.41666666666666" x2="-8" y2="90.41666666666666" fill="transparent" shape-rendering="crispEdges" stroke="#F2F0F9" stroke-width="1" stroke-linecap="square"></line><svg x="-30" y="0" font-size="11" style="overflow:visible"><text transform="" x="-8" y="90.41666666666666" fill="#1B2030" font-size="11" text-anchor="start"><tspan x="-8" dy="0em">100%</tspan></text></svg></g><g class="visx-group visx-axis-tick" transform="translate(0, 0)"><line class="visx-line" x1="0" y1="25.83333333333333" x2="-8" y2="25.83333333333333" fill="transparent" shape-rendering="crispEdges" stroke="#F2F0F9" stroke-width="1" stroke-linecap="square"></line><svg x="-30" y="0" font-size="11" style="overflow:visible"><text transform="" x="-8" y="25.83333333333333" fill="#1B2030" font-size="11" text-anchor="start"><tspan x="-8" dy="0em">200%</tspan></text></svg></g><line class="visx-line visx-axis-line" x1="0" y1="155.5" x2="0" y2="0.5" fill="transparent" shape-rendering="crispEdges" stroke="#F2F0F9" stroke-width="1"></line></g><rect class="visx-bar" width="1425" height="155" fill="transparent"></rect><line class="visx-line" x1="285" y1="58" x2="285" y2="155" fill="transparent" shape-rendering="crispEdges" stroke="#CDC8E1" stroke-width="1" pointer-events="none" stroke-dasharray="5"></line><svg x="0" y="0" font-size="11px" style="overflow:visible"><text transform="" x="285" y="50" font-size="11px" fill="#555069" stroke="#FFFFFF" stroke-width="1px" text-anchor="middle"><tspan x="285" dy="0.355em">Optimal utilization 20%</tspan></text></svg><svg x="0" y="0" font-size="11px" style="overflow:visible"><text transform="" x="285" y="50" font-size="11px" fill="#CDC8E1" text-anchor="middle"><tspan x="285" dy="0.355em">Optimal utilization 20%</tspan></text></svg></g></svg>