<?xml version="1.0"?><svg xmlns="http://www.w3.org/2000/svg" xmlns:xlink= "http://www.w3.org/1999/xlink" style="background: white;" width="1500" height="300"> <g style="color: black; font-size: 13px; font-family: sans-serif; transform: translate(18px, 25px);"><g><circle r="3" cx="-6" cy="-5" style="fill: #1AD4B3" /><text>Borrow APR, variable</text></g><g style="transform: translateX(150px);"><circle r="3" cx="-6" cy="-5" style="fill: #101423" /><text>Borrow APR, stable</text></g></g><g class="visx-group" transform="translate(45, 50)"><g class="visx-group visx-rows" transform="translate(0, 0)"><line class="visx-line" x1="0" y1="155" x2="1425" y2="155" fill="transparent" shape-rendering="crispEdges" stroke="#F2F0F9" stroke-width="1" pointer-events="none"></line><line class="visx-line" x1="0" y1="77.5" x2="1425" y2="77.5" fill="transparent" shape-rendering="crispEdges" stroke="#F2F0F9" stroke-width="1" pointer-events="none"></line><line class="visx-line" x1="0" y1="0" x2="1425" y2="0" fill="transparent" shape-rendering="crispEdges" stroke="#F2F0F9" stroke-width="1" pointer-events="none"></line></g><path class="visx-linepath" d="M0,154.99999999984502C2.375,154.97416666657625,4.75,154.94833333330752,7.125,154.9225C9.5,154.8966666666925,11.875,154.87083333333334,14.25,154.845C16.625,154.81916666666666,19,154.79333333333335,21.375,154.7675C23.75,154.74166666666667,26.125,154.71583333333334,28.5,154.69C30.875,154.66416666666666,33.25,154.63833333333335,35.625,154.6125C38,154.58666666666667,40.375,154.56083333333333,42.75,154.535C45.125,154.50916666666666,47.50000000000001,154.48333333333335,49.87500000000001,154.4575C52.25000000000001,154.43166666666667,54.625,154.40583333333333,57,154.38C59.375,154.35416666666666,61.75,154.32833333333335,64.125,154.3025C66.5,154.27666666666667,68.875,154.25083333333333,71.25,154.225C73.625,154.19916666666666,76,154.17333333333335,78.375,154.1475C80.75,154.12166666666667,83.125,154.09583333333333,85.5,154.07C87.875,154.04416666666665,90.25,154.01833333333335,92.625,153.9925C95,153.96666666666667,97.37500000000001,153.94083333333333,99.75000000000001,153.915C102.12500000000001,153.88916666666665,104.5,153.86333333333334,106.875,153.8375C109.25,153.81166666666667,111.625,153.78583333333333,114,153.76C116.375,153.73416666666665,118.75000000000001,153.70833333333334,121.12500000000001,153.6825C123.50000000000001,153.65666666666667,125.875,153.63083333333333,128.25,153.605C130.625,153.57916666666665,133,153.55333333333334,135.375,153.5275C137.75,153.50166666666667,140.125,153.47583333333333,142.5,153.45C144.875,153.42416666666665,147.25,153.39833333333334,149.625,153.3725C152,153.34666666666666,154.375,153.32083333333333,156.75,153.295C159.125,153.26916666666665,161.5,153.24333333333334,163.875,153.2175C166.25,153.19166666666666,168.625,153.16583333333332,171,153.14C173.375,153.11416666666665,175.75,153.08833333333334,178.125,153.0625C180.5,153.03666666666666,182.875,153.01083333333332,185.25,152.98499999999999C187.625,152.95916666666665,190,152.93333333333334,192.375,152.9075C194.75,152.88166666666666,197.12500000000003,152.85583333333332,199.50000000000003,152.82999999999998C201.875,152.80416666666665,204.25,152.77833333333334,206.62499999999997,152.7525C208.99999999999997,152.72666666666666,211.375,152.70083333333335,213.75,152.675C216.125,152.64916666666667,218.5,152.62333333333333,220.875,152.5975C223.25,152.57166666666666,225.625,152.54583333333335,228,152.52C230.375,152.49416666666667,232.75,152.46833333333333,235.125,152.4425C237.5,152.41666666666666,239.87500000000003,152.39083333333335,242.25000000000003,152.365C244.625,152.33916666666667,247,152.31333333333333,249.37499999999997,152.2875C251.74999999999997,152.26166666666666,254.125,152.23583333333335,256.5,152.21C258.875,152.18416666666667,261.25,152.15833333333333,263.625,152.1325C266,152.10666666666665,268.375,152.08083333333335,270.75,152.055C273.125,152.02916666666667,275.5,152.00333333333333,277.875,151.9775C280.25,151.95166666666665,282.625,151.92583333333334,285,151.9C287.375,151.87416666666667,289.75,151.84833333333336,292.125,151.82250000000002C294.5,151.79666666666668,296.875,151.77083333333334,299.25,151.745C301.625,151.71916666666667,304,151.69333333333336,306.375,151.66750000000002C308.75,151.64166666666668,311.125,151.61583333333334,313.5,151.59C315.875,151.56416666666667,318.25,151.53833333333336,320.625,151.51250000000002C323,151.48666666666668,325.375,151.46083333333334,327.75,151.435C330.125,151.40916666666666,332.5,151.38333333333335,334.875,151.35750000000002C337.25,151.33166666666668,339.625,151.30583333333334,342,151.28C344.375,151.25416666666666,346.75,151.22833333333335,349.125,151.20250000000001C351.5,151.17666666666668,353.875,151.15083333333334,356.25,151.125C358.625,151.09916666666666,361,151.07333333333335,363.375,151.0475C365.75,151.02166666666668,368.125,150.99583333333334,370.5,150.97C372.875,150.94416666666666,375.25,150.91833333333335,377.625,150.8925C380,150.86666666666667,382.375,150.84083333333334,384.75,150.815C387.125,150.78916666666666,389.50000000000006,150.76333333333335,391.87500000000006,150.7375C394.25000000000006,150.71166666666667,396.62500000000006,150.68583333333333,399.00000000000006,150.66C401.375,150.63416666666666,403.75,150.60833333333335,406.12499999999994,150.5825C408.49999999999994,150.55666666666667,410.87499999999994,150.53083333333333,413.24999999999994,150.505C415.62499999999994,150.47916666666666,418,150.45333333333335,420.375,150.4275C422.75,150.40166666666667,425.125,150.37583333333333,427.5,150.35C429.875,150.32416666666666,432.25,150.29833333333335,434.625,150.2725C437,150.24666666666667,439.375,150.22083333333333,441.75,150.195C444.125,150.16916666666665,446.5,150.14333333333335,448.875,150.1175C451.25,150.09166666666667,453.625,150.06583333333333,456,150.04C458.375,150.01416666666665,460.75,149.98833333333334,463.125,149.9625C465.5,149.93666666666667,467.875,149.91083333333333,470.25,149.885C472.625,149.85916666666665,475.00000000000006,149.83333333333334,477.37500000000006,149.8075C479.75000000000006,149.78166666666667,482.12500000000006,149.75583333333333,484.50000000000006,149.73C486.875,149.70416666666665,489.25,149.67833333333334,491.62499999999994,149.6525C493.99999999999994,149.62666666666667,496.37499999999994,149.60083333333333,498.74999999999994,149.575C501.12499999999994,149.54916666666665,503.5,149.52333333333334,505.875,149.4975C508.25,149.47166666666666,510.625,149.44583333333333,513,149.42C515.375,149.39416666666665,517.75,149.36833333333334,520.125,149.3425C522.5,149.31666666666666,524.875,149.29083333333332,527.25,149.265C529.625,149.23916666666665,532,149.21333333333334,534.375,149.1875C536.75,149.16166666666666,539.125,149.13583333333332,541.5,149.10999999999999C543.875,149.08416666666665,546.25,149.05833333333334,548.625,149.0325C551,149.00666666666666,553.375,148.98083333333332,555.75,148.95499999999998C558.125,148.92916666666665,560.5,148.90333333333334,562.875,148.8775C565.25,148.85166666666666,567.625,148.82583333333332,570,148.79999999999998C572.375,148.77416666666664,574.75,148.74833333333333,577.125,148.7225C579.5,148.69666666666666,581.875,148.67083333333332,584.25,148.64499999999998C586.625,148.61916666666664,589,148.59333333333333,591.375,148.5675C593.75,148.54166666666666,596.125,148.51583333333332,598.5,148.48999999999998C600.875,148.46416666666664,603.25,148.43833333333333,605.625,148.4125C608,148.38666666666666,610.375,148.36083333333335,612.75,148.335C615.125,148.30916666666667,617.5,148.28333333333333,619.875,148.2575C622.25,148.23166666666665,624.625,148.20583333333335,627,148.18C629.375,148.15416666666667,631.75,148.12833333333333,634.125,148.1025C636.5,148.07666666666665,638.875,148.07666666666665,641.25,148.025C643.625,147.97333333333336,646,147.27348484848486,648.375,146.89772727272728C650.75,146.5219696969697,653.125,146.14621212121213,655.5,145.77045454545456C657.875,145.39469696969698,660.25,145.0189393939394,662.625,144.64318181818183C665,144.26742424242425,667.375,143.89166666666665,669.75,143.51590909090908C672.125,143.1401515151515,674.5,142.76439393939395,676.875,142.38863636363638C679.25,142.0128787878788,681.625,141.6371212121212,684,141.26136363636363C686.375,140.88560606060605,688.75,140.50984848484848,691.125,140.1340909090909C693.5,139.75833333333333,695.875,139.38257575757575,698.25,139.00681818181818C700.625,138.6310606060606,703,138.25530303030303,705.375,137.87954545454545C707.75,137.50378787878788,710.125,137.1280303030303,712.5,136.75227272727273C714.875,136.37651515151515,717.25,136.00075757575758,719.625,135.625C722,135.24924242424242,724.375,134.87348484848485,726.75,134.49772727272727C729.125,134.1219696969697,731.5,133.74621212121212,733.875,133.37045454545455C736.25,132.99469696969697,738.625,132.6189393939394,741,132.24318181818182C743.375,131.86742424242425,745.75,131.49166666666667,748.125,131.1159090909091C750.5,130.74015151515152,752.875,130.36439393939395,755.25,129.98863636363637C757.625,129.6128787878788,760,129.2371212121212,762.375,128.86136363636362C764.75,128.48560606060605,767.125,128.10984848484847,769.5,127.73409090909091C771.875,127.35833333333333,774.2500000000001,126.98257575757575,776.6250000000001,126.60681818181817C779.0000000000001,126.2310606060606,781.3750000000001,125.85530303030303,783.7500000000001,125.47954545454546C786.1250000000001,125.10378787878788,788.5000000000001,124.7280303030303,790.8750000000001,124.35227272727272C793.2500000000001,123.97651515151514,795.6250000000001,123.60075757575758,798.0000000000001,123.22500000000001C800.375,122.84924242424243,802.75,122.47348484848484,805.1249999999999,122.09772727272727C807.4999999999999,121.7219696969697,809.8749999999999,121.34621212121213,812.2499999999999,120.97045454545456C814.6249999999999,120.59469696969698,816.9999999999999,120.2189393939394,819.3749999999999,119.84318181818182C821.7499999999999,119.46742424242424,824.1249999999999,119.09166666666665,826.4999999999999,118.71590909090908C828.8749999999999,118.3401515151515,831.25,117.96439393939394,833.625,117.58863636363637C836,117.2128787878788,838.375,116.8371212121212,840.75,116.46136363636363C843.125,116.08560606060605,845.5,115.7098484848485,847.875,115.33409090909092C850.25,114.95833333333334,852.625,114.58257575757575,855,114.20681818181818C857.375,113.8310606060606,859.75,113.45530303030303,862.125,113.07954545454545C864.5,112.70378787878788,866.875,112.3280303030303,869.25,111.95227272727273C871.625,111.57651515151515,874,111.20075757575759,876.375,110.82500000000002C878.75,110.44924242424244,881.125,110.07348484848485,883.5,109.69772727272728C885.875,109.3219696969697,888.25,108.94621212121211,890.625,108.57045454545454C893,108.19469696969696,895.375,107.81893939393939,897.75,107.44318181818181C900.125,107.06742424242424,902.5,106.69166666666666,904.875,106.31590909090909C907.25,105.94015151515151,909.625,105.56439393939395,912,105.18863636363638C914.375,104.8128787878788,916.75,104.43712121212121,919.125,104.06136363636364C921.5,103.68560606060606,923.875,103.30984848484849,926.25,102.93409090909091C928.625,102.55833333333334,931,102.18257575757575,933.375,101.80681818181817C935.75,101.4310606060606,938.125,101.05530303030302,940.5,100.67954545454545C942.875,100.30378787878787,945.25,99.92803030303031,947.625,99.55227272727274C950,99.17651515151516,952.3750000000001,98.80075757575757,954.7500000000001,98.425C957.1250000000001,98.04924242424242,959.5000000000001,97.67348484848485,961.8750000000001,97.29772727272727C964.2500000000001,96.9219696969697,966.6250000000001,96.54621212121212,969.0000000000001,96.17045454545455C971.3750000000001,95.79469696969697,973.7500000000001,95.41893939393938,976.1250000000001,95.0431818181818C978.5,94.66742424242422,980.875,94.29166666666664,983.2499999999999,93.91590909090908C985.6249999999999,93.5401515151515,987.9999999999999,93.16439393939393,990.3749999999999,92.78863636363636C992.7499999999999,92.41287878787878,995.1249999999999,92.03712121212122,997.4999999999999,91.66136363636365C999.8749999999999,91.28560606060607,1002.2499999999999,90.90984848484851,1004.6249999999999,90.53409090909093C1006.9999999999999,90.15833333333336,1009.375,89.78257575757578,1011.75,89.4068181818182C1014.125,89.03106060606062,1016.5,88.65530303030303,1018.875,88.27954545454546C1021.25,87.90378787878788,1023.625,87.5280303030303,1026,87.15227272727273C1028.375,86.77651515151516,1030.75,86.40075757575757,1033.125,86.02499999999999C1035.5,85.64924242424242,1037.875,85.27348484848484,1040.25,84.89772727272727C1042.625,84.52196969696969,1045,84.14621212121213,1047.375,83.77045454545456C1049.75,83.39469696969698,1052.125,83.01893939393939,1054.5,82.64318181818182C1056.875,82.26742424242424,1059.25,81.89166666666667,1061.625,81.51590909090909C1064,81.14015151515152,1066.375,80.76439393939393,1068.75,80.38863636363635C1071.125,80.01287878787878,1073.5,79.63712121212122,1075.875,79.26136363636364C1078.25,78.88560606060607,1080.625,78.50984848484849,1083,78.13409090909092C1085.375,77.75833333333334,1087.75,77.38257575757576,1090.125,77.00681818181819C1092.5,76.63106060606061,1094.875,76.25530303030303,1097.25,75.87954545454545C1099.625,75.50378787878788,1102,75.1280303030303,1104.375,74.75227272727273C1106.75,74.37651515151515,1109.125,74.00075757575758,1111.5,73.625C1113.875,73.24924242424242,1116.25,72.87348484848485,1118.625,72.49772727272727C1121,72.1219696969697,1123.375,71.74621212121212,1125.75,71.37045454545455C1128.125,70.99469696969697,1130.5,70.61893939393939,1132.875,70.24318181818181C1135.25,69.86742424242424,1137.625,69.49166666666667,1140,69.1159090909091C1142.375,68.74015151515152,1144.75,68.36439393939393,1147.125,67.98863636363636C1149.5,67.61287878787878,1151.875,67.23712121212121,1154.25,66.86136363636363C1156.625,66.48560606060606,1159,66.10984848484848,1161.375,65.73409090909091C1163.75,65.35833333333333,1166.125,64.98257575757576,1168.5,64.60681818181818C1170.875,64.23106060606061,1173.25,63.85530303030303,1175.625,63.47954545454545C1178,63.10378787878788,1180.375,62.728030303030295,1182.75,62.35227272727272C1185.125,61.976515151515144,1187.5,61.60075757575758,1189.875,61.225C1192.25,60.849242424242426,1194.625,60.473484848484844,1197,60.09772727272727C1199.375,59.721969696969694,1201.75,59.346212121212126,1204.125,58.97045454545455C1206.5,58.594696969696976,1208.875,58.218939393939394,1211.25,57.84318181818182C1213.625,57.467424242424244,1216,57.091666666666676,1218.375,56.7159090909091C1220.75,56.340151515151526,1223.125,55.96439393939394,1225.5,55.58863636363636C1227.875,55.21287878787878,1230.25,54.83712121212119,1232.625,54.461363636363615C1235,54.08560606060604,1237.375,53.709848484848486,1239.75,53.33409090909091C1242.125,52.958333333333336,1244.5,52.58257575757574,1246.875,52.206818181818164C1249.25,51.83106060606059,1251.625,51.455303030303035,1254,51.07954545454546C1256.375,50.703787878787885,1258.75,50.32803030303029,1261.125,49.95227272727271C1263.5,49.576515151515125,1265.875,49.20075757575756,1268.25,48.82499999999999C1270.625,48.44924242424242,1273,48.07348484848487,1275.375,47.69772727272729C1277.75,47.32196969696972,1280.125,46.94621212121211,1282.5,46.57045454545454C1284.875,46.19469696969696,1287.25,45.81893939393942,1289.625,45.44318181818184C1292,45.067424242424266,1294.375,44.69166666666666,1296.75,44.31590909090909C1299.125,43.94015151515151,1301.5,43.564393939393966,1303.875,43.18863636363639C1306.25,42.812878787878816,1308.625,42.43712121212122,1311,42.06136363636364C1313.375,41.685606060606055,1315.75,41.30984848484848,1318.125,40.934090909090905C1320.5,40.55833333333333,1322.875,40.18257575757576,1325.25,39.80681818181819C1327.625,39.43106060606061,1330,39.05530303030302,1332.375,38.67954545454545C1334.75,38.30378787878787,1337.125,37.928030303030305,1339.5,37.55227272727273C1341.875,37.176515151515154,1344.25,36.80075757575757,1346.625,36.425C1349,36.04924242424242,1351.375,35.673484848484854,1353.75,35.29772727272728C1356.125,34.921969696969704,1358.5,34.54621212121212,1360.875,34.17045454545455C1363.25,33.79469696969697,1365.625,33.41893939393939,1368,33.043181818181814C1370.375,32.66742424242424,1372.75,32.29166666666667,1375.125,31.915909090909093C1377.5,31.540151515151518,1379.875,31.164393939393936,1382.25,30.78863636363636C1384.625,30.412878787878785,1387,30.037121212121217,1389.375,29.661363636363642C1391.75,29.285606060606067,1394.125,28.909848484848485,1396.5,28.534090909090907C1398.875,28.158333333333328,1401.25,27.78257575757575,1403.625,27.406818181818174C1406,27.0310606060606,1408.375,26.65530303030303,1410.75,26.279545454545456C1413.125,25.90378787878788,1415.5,25.528030303030295,1417.875,25.15227272727272C1420.25,24.776515151515145,1422.625,24.400757575757574,1425,24.025000000000006" fill="transparent" stroke-linecap="round" stroke="#1AD4B3" stroke-width="2"></path><g class="visx-group visx-axis visx-axis-bottom" transform="translate(0, 155)"><g class="visx-group visx-axis-tick" transform="translate(0, 0)"><line class="visx-line" x1="0" y1="0" x2="0" y2="8" fill="transparent" shape-rendering="crispEdges" stroke="#F2F0F9" stroke-width="1" stroke-linecap="square"></line><svg x="0" y="0" font-size="11" style="overflow:visible"><text transform="" x="0" y="19" fill="#1B2030" font-size="11" text-anchor="middle"><tspan x="0" dy="0em">0%</tspan></text></svg></g><g class="visx-group visx-axis-tick" transform="translate(0, 0)"><line class="visx-line" x1="356.25" y1="0" x2="356.25" y2="8" fill="transparent" shape-rendering="crispEdges" stroke="#F2F0F9" stroke-width="1" stroke-linecap="square"></line><svg x="0" y="0" font-size="11" style="overflow:visible"><text transform="" x="356.25" y="19" fill="#1B2030" font-size="11" text-anchor="middle"><tspan x="356.25" dy="0em">25%</tspan></text></svg></g><g class="visx-group visx-axis-tick" transform="translate(0, 0)"><line class="visx-line" x1="712.5" y1="0" x2="712.5" y2="8" fill="transparent" shape-rendering="crispEdges" stroke="#F2F0F9" stroke-width="1" stroke-linecap="square"></line><svg x="0" y="0" font-size="11" style="overflow:visible"><text transform="" x="712.5" y="19" fill="#1B2030" font-size="11" text-anchor="middle"><tspan x="712.5" dy="0em">50%</tspan></text></svg></g><g class="visx-group visx-axis-tick" transform="translate(0, 0)"><line class="visx-line" x1="1068.75" y1="0" x2="1068.75" y2="8" fill="transparent" shape-rendering="crispEdges" stroke="#F2F0F9" stroke-width="1" stroke-linecap="square"></line><svg x="0" y="0" font-size="11" style="overflow:visible"><text transform="" x="1068.75" y="19" fill="#1B2030" font-size="11" text-anchor="middle"><tspan x="1068.75" dy="0em">75%</tspan></text></svg></g><g class="visx-group visx-axis-tick" transform="translate(0, 0)"><line class="visx-line" x1="1425" y1="0" x2="1425" y2="8" fill="transparent" shape-rendering="crispEdges" stroke="#F2F0F9" stroke-width="1" stroke-linecap="square"></line><svg x="0" y="0" font-size="11" style="overflow:visible"><text transform="" x="1425" y="19" fill="#1B2030" font-size="11" text-anchor="middle"><tspan x="1425" dy="0em">100%</tspan></text></svg></g></g><g class="visx-group visx-axis visx-axis-left" transform="translate(0, 0)"><g class="visx-group visx-axis-tick" transform="translate(0, 0)"><line class="visx-line" x1="0" y1="155" x2="-8" y2="155" fill="transparent" shape-rendering="crispEdges" stroke="#F2F0F9" stroke-width="1" stroke-linecap="square"></line><svg x="-30" y="0" font-size="11" style="overflow:visible"><text transform="" x="-8" y="155" fill="#1B2030" font-size="11" text-anchor="start"><tspan x="-8" dy="0em">0%</tspan></text></svg></g><g class="visx-group visx-axis-tick" transform="translate(0, 0)"><line class="visx-line" x1="0" y1="77.5" x2="-8" y2="77.5" fill="transparent" shape-rendering="crispEdges" stroke="#F2F0F9" stroke-width="1" stroke-linecap="square"></line><svg x="-30" y="0" font-size="11" style="overflow:visible"><text transform="" x="-8" y="77.5" fill="#1B2030" font-size="11" text-anchor="start"><tspan x="-8" dy="0em">50%</tspan></text></svg></g><g class="visx-group visx-axis-tick" transform="translate(0, 0)"><line class="visx-line" x1="0" y1="0" x2="-8" y2="0" fill="transparent" shape-rendering="crispEdges" stroke="#F2F0F9" stroke-width="1" stroke-linecap="square"></line><svg x="-30" y="0" font-size="11" style="overflow:visible"><text transform="" x="-8" y="0" fill="#1B2030" font-size="11" text-anchor="start"><tspan x="-8" dy="0em">100%</tspan></text></svg></g><line class="visx-line visx-axis-line" x1="0" y1="155.5" x2="0" y2="0.5" fill="transparent" shape-rendering="crispEdges" stroke="#F2F0F9" stroke-width="1"></line></g><rect class="visx-bar" width="1425" height="155" fill="transparent"></rect><line class="visx-line" x1="641.25" y1="58" x2="641.25" y2="155" fill="transparent" shape-rendering="crispEdges" stroke="#CDC8E1" stroke-width="1" pointer-events="none" stroke-dasharray="5"></line><svg x="0" y="0" font-size="11px" style="overflow:visible"><text transform="" x="641.25" y="50" font-size="11px" fill="#555069" stroke="#FFFFFF" stroke-width="1px" text-anchor="middle"><tspan x="641.25" dy="0.355em">Optimal utilization 45%</tspan></text></svg><svg x="0" y="0" font-size="11px" style="overflow:visible"><text transform="" x="641.25" y="50" font-size="11px" fill="#CDC8E1" text-anchor="middle"><tspan x="641.25" dy="0.355em">Optimal utilization 45%</tspan></text></svg></g></svg>