<?xml version="1.0"?><svg xmlns="http://www.w3.org/2000/svg" xmlns:xlink= "http://www.w3.org/1999/xlink" style="background: white;" width="1500" height="185"> <g style="color: black; font-size: 13px; font-family: sans-serif; transform: translate(18px, 25px);"><g><circle r="3" cx="-6" cy="-5" style="fill: #B6509E" /><text>Borrow APR, variable</text></g><g style="transform: translateX(150px);"><circle r="3" cx="-6" cy="-5" style="fill: rgb(231, 198, 223)" /><text>Borrow APR, stable</text></g><g style="transform: translateX(290px);"><circle r="3" cx="-6" cy="-5" style="fill: rgb(0, 98, 210)" /><text>Utilization Rate</text></g></g><g class="visx-group" transform="translate(40, 50)"><g class="visx-group visx-rows" transform="translate(0, 0)"><line class="visx-line" x1="0" y1="115" x2="1450" y2="115" fill="transparent" shape-rendering="crispEdges" stroke="#000" stroke-width="1" stroke-dasharray="3,3" pointer-events="none"></line><line class="visx-line" x1="0" y1="57.5" x2="1450" y2="57.5" fill="transparent" shape-rendering="crispEdges" stroke="#000" stroke-width="1" stroke-dasharray="3,3" pointer-events="none"></line><line class="visx-line" x1="0" y1="0" x2="1450" y2="0" fill="transparent" shape-rendering="crispEdges" stroke="#000" stroke-width="1" stroke-dasharray="3,3" pointer-events="none"></line></g><path class="visx-linepath" d="M0,114.99999999993611C2.4166666666666665,114.98935185181458,4.833333333333334,114.97870370369304,7.25,114.96805555555555C9.666666666666666,114.95740740741806,12.083333333333334,114.94675925925927,14.5,114.93611111111112C16.916666666666668,114.92546296296297,19.333333333333332,114.91481481481482,21.75,114.90416666666667C24.166666666666668,114.89351851851852,26.583333333333332,114.88287037037038,29,114.87222222222223C31.416666666666668,114.86157407407408,33.833333333333336,114.85092592592592,36.25,114.84027777777777C38.666666666666664,114.82962962962962,41.083333333333336,114.81898148148147,43.5,114.80833333333332C45.91666666666667,114.79768518518517,48.333333333333336,114.78703703703704,50.75000000000001,114.77638888888889C53.16666666666667,114.76574074074074,55.583333333333336,114.75509259259259,58,114.74444444444444C60.416666666666664,114.73379629629629,62.833333333333336,114.72314814814816,65.25,114.7125C67.66666666666667,114.70185185185186,70.08333333333333,114.6912037037037,72.5,114.68055555555556C74.91666666666667,114.66990740740741,77.33333333333333,114.65925925925926,79.75,114.64861111111111C82.16666666666667,114.63796296296296,84.58333333333333,114.62731481481482,87,114.61666666666667C89.41666666666667,114.60601851851852,91.83333333333333,114.59537037037038,94.25,114.58472222222223C96.66666666666667,114.57407407407408,99.08333333333334,114.56342592592593,101.50000000000001,114.55277777777778C103.91666666666667,114.54212962962963,106.33333333333334,114.53148148148148,108.75,114.52083333333333C111.16666666666667,114.51018518518518,113.58333333333333,114.49953703703703,116,114.48888888888888C118.41666666666667,114.47824074074073,120.83333333333334,114.4675925925926,123.25000000000001,114.45694444444445C125.66666666666667,114.4462962962963,128.08333333333334,114.43564814814815,130.5,114.425C132.91666666666666,114.41435185185185,135.33333333333334,114.4037037037037,137.75,114.39305555555555C140.16666666666666,114.3824074074074,142.58333333333334,114.37175925925926,145,114.36111111111111C147.41666666666666,114.35046296296296,149.83333333333334,114.33981481481482,152.25,114.32916666666667C154.66666666666666,114.31851851851852,157.08333333333334,114.30787037037038,159.5,114.29722222222223C161.91666666666666,114.28657407407408,164.33333333333334,114.27592592592593,166.75,114.26527777777778C169.16666666666666,114.25462962962963,171.58333333333334,114.24398148148148,174,114.23333333333333C176.41666666666666,114.22268518518518,178.83333333333334,114.21203703703704,181.25,114.20138888888889C183.66666666666666,114.19074074074074,186.08333333333334,114.18009259259259,188.5,114.16944444444444C190.91666666666666,114.15879629629629,193.33333333333334,114.14814814814815,195.75,114.1375C198.16666666666669,114.12685185185185,200.58333333333334,114.1162037037037,203.00000000000003,114.10555555555555C205.41666666666669,114.0949074074074,207.83333333333331,114.08425925925926,210.24999999999997,114.0736111111111C212.66666666666666,114.06296296296296,215.08333333333331,114.05231481481482,217.5,114.04166666666667C219.91666666666666,114.03101851851852,222.33333333333334,114.02037037037037,224.75,114.00972222222222C227.16666666666666,113.99907407407407,229.58333333333334,113.98842592592594,232,113.97777777777779C234.41666666666666,113.96712962962964,236.83333333333334,113.95648148148149,239.25,113.94583333333334C241.66666666666669,113.93518518518519,244.08333333333334,113.92453703703704,246.50000000000003,113.91388888888889C248.91666666666669,113.90324074074074,251.33333333333331,113.89259259259259,253.74999999999997,113.88194444444444C256.16666666666663,113.8712962962963,258.5833333333333,113.86064814814814,261,113.85C263.4166666666667,113.83935185185184,265.8333333333333,113.8287037037037,268.25,113.81805555555555C270.6666666666667,113.8074074074074,273.0833333333333,113.79675925925926,275.5,113.78611111111111C277.9166666666667,113.77546296296296,280.3333333333333,113.76481481481481,282.75,113.75416666666666C285.1666666666667,113.74351851851851,287.5833333333333,113.73287037037038,290,113.72222222222223C292.4166666666667,113.71157407407408,294.8333333333333,113.70092592592593,297.25,113.69027777777778C299.6666666666667,113.67962962962963,302.0833333333333,113.66898148148148,304.5,113.65833333333333C306.9166666666667,113.64768518518518,309.3333333333333,113.63703703703705,311.75,113.6263888888889C314.1666666666667,113.61574074074075,316.5833333333333,113.6050925925926,319,113.59444444444445C321.4166666666667,113.5837962962963,323.8333333333333,113.57314814814815,326.25,113.5625C328.6666666666667,113.55185185185185,331.0833333333333,113.5412037037037,333.5,113.53055555555555C335.9166666666667,113.5199074074074,338.3333333333333,113.50925925925925,340.75,113.4986111111111C343.1666666666667,113.48796296296295,345.5833333333333,113.47731481481482,348,113.46666666666667C350.4166666666667,113.45601851851852,352.8333333333333,113.44537037037037,355.25,113.43472222222222C357.6666666666667,113.42407407407407,360.0833333333333,113.41342592592594,362.5,113.40277777777779C364.9166666666667,113.39212962962964,367.3333333333333,113.38148148148149,369.75,113.37083333333334C372.1666666666667,113.36018518518519,374.5833333333333,113.34953703703704,377,113.33888888888889C379.4166666666667,113.32824074074074,381.8333333333333,113.3175925925926,384.25,113.30694444444445C386.6666666666667,113.2962962962963,389.0833333333333,113.28564814814814,391.5,113.27499999999999C393.9166666666667,113.26435185185184,396.33333333333337,113.2537037037037,398.75000000000006,113.24305555555556C401.16666666666674,113.23240740740741,403.58333333333337,113.22175925925926,406.00000000000006,113.21111111111111C408.4166666666667,113.20046296296296,410.8333333333333,113.18981481481481,413.24999999999994,113.17916666666666C415.66666666666663,113.16851851851851,418.08333333333326,113.15787037037038,420.49999999999994,113.14722222222223C422.91666666666663,113.13657407407408,425.3333333333333,113.12592592592593,427.75,113.11527777777778C430.1666666666667,113.10462962962963,432.5833333333333,113.09398148148148,435,113.08333333333333C437.4166666666667,113.07268518518518,439.8333333333333,113.06203703703704,442.25,113.0513888888889C444.6666666666667,113.04074074074074,447.0833333333333,113.0300925925926,449.5,113.01944444444445C451.9166666666667,113.0087962962963,454.3333333333333,112.99814814814816,456.75,112.98750000000001C459.1666666666667,112.97685185185186,461.5833333333333,112.9662037037037,464,112.95555555555555C466.4166666666667,112.9449074074074,468.8333333333333,112.93425925925925,471.25,112.9236111111111C473.6666666666667,112.91296296296295,476.0833333333333,112.90231481481482,478.5,112.89166666666667C480.9166666666667,112.88101851851852,483.33333333333337,112.87037037037037,485.75000000000006,112.85972222222222C488.16666666666674,112.84907407407407,490.58333333333337,112.83842592592593,493.00000000000006,112.82777777777778C495.4166666666667,112.81712962962963,497.8333333333333,112.80648148148148,500.24999999999994,112.79583333333333C502.66666666666663,112.78518518518518,505.08333333333326,112.77453703703704,507.49999999999994,112.76388888888889C509.91666666666663,112.75324074074074,512.3333333333333,112.7425925925926,514.75,112.73194444444445C517.1666666666666,112.7212962962963,519.5833333333334,112.71064814814815,522,112.7C524.4166666666666,112.68935185185185,526.8333333333334,112.6787037037037,529.25,112.66805555555555C531.6666666666666,112.6574074074074,534.0833333333334,112.64675925925926,536.5,112.6361111111111C538.9166666666666,112.62546296296296,541.3333333333334,112.6148148148148,543.75,112.60416666666666C546.1666666666666,112.59351851851851,548.5833333333334,112.58287037037037,551,112.57222222222222C553.4166666666666,112.56157407407407,555.8333333333334,112.55092592592592,558.25,112.54027777777777C560.6666666666666,112.52962962962962,563.0833333333334,112.51898148148148,565.5,112.50833333333333C567.9166666666666,112.49768518518518,570.3333333333334,112.48703703703704,572.75,112.47638888888889C575.1666666666666,112.46574074074074,577.5833333333334,112.45509259259259,580,112.44444444444444C582.4166666666666,112.4337962962963,584.8333333333334,112.42314814814816,587.25,112.41250000000001C589.6666666666666,112.40185185185186,592.0833333333334,112.39120370370371,594.5,112.38055555555556C596.9166666666666,112.36990740740741,599.3333333333334,112.35925925925926,601.75,112.34861111111111C604.1666666666666,112.33796296296296,606.5833333333334,112.32731481481481,609,112.31666666666666C611.4166666666666,112.30601851851851,613.8333333333334,112.29537037037036,616.25,112.28472222222221C618.6666666666666,112.27407407407406,621.0833333333334,112.26342592592593,623.5,112.25277777777778C625.9166666666666,112.24212962962963,628.3333333333334,112.23148148148148,630.75,112.22083333333333C633.1666666666666,112.21018518518518,635.5833333333334,112.19953703703703,638,112.18888888888888C640.4166666666666,112.17824074074073,642.8333333333334,112.1675925925926,645.25,112.15694444444445C647.6666666666666,112.1462962962963,650.0833333333334,112.13564814814815,652.5,112.125C654.9166666666666,112.11435185185185,657.3333333333334,112.10370370370372,659.75,112.09305555555557C662.1666666666666,112.08240740740742,664.5833333333334,112.07175925925927,667,112.06111111111112C669.4166666666666,112.05046296296297,671.8333333333334,112.03981481481482,674.25,112.02916666666667C676.6666666666666,112.01851851851852,679.0833333333334,112.00787037037037,681.5,111.99722222222222C683.9166666666666,111.98657407407407,686.3333333333334,111.97592592592592,688.75,111.96527777777777C691.1666666666666,111.95462962962962,693.5833333333334,111.94398148148149,696,111.93333333333334C698.4166666666666,111.92268518518519,700.8333333333334,111.91203703703704,703.25,111.90138888888889C705.6666666666666,111.89074074074074,708.0833333333334,111.88009259259259,710.5,111.86944444444444C712.9166666666666,111.85879629629629,715.3333333333334,111.84814814814816,717.75,111.8375C720.1666666666666,111.82685185185186,722.5833333333334,111.8162037037037,725,111.80555555555556C727.4166666666666,111.79490740740741,729.8333333333334,111.78425925925927,732.25,111.77361111111112C734.6666666666666,111.76296296296297,737.0833333333334,111.75231481481482,739.5,111.74166666666667C741.9166666666666,111.73101851851852,744.3333333333334,111.72037037037036,746.75,111.70972222222221C749.1666666666666,111.69907407407406,751.5833333333334,111.68842592592593,754,111.67777777777778C756.4166666666666,111.66712962962963,758.8333333333334,111.65648148148148,761.25,111.64583333333333C763.6666666666666,111.63518518518518,766.0833333333334,111.62453703703703,768.5,111.61388888888888C770.9166666666666,111.60324074074073,773.3333333333334,111.5925925925926,775.75,111.58194444444445C778.1666666666666,111.5712962962963,780.5833333333334,111.56064814814815,783,111.55C785.4166666666667,111.53935185185185,787.8333333333334,111.52870370370371,790.2500000000001,111.51805555555556C792.6666666666667,111.50740740740741,795.0833333333335,111.49675925925926,797.5000000000001,111.48611111111111C799.9166666666667,111.47546296296296,802.3333333333335,111.46481481481482,804.7500000000001,111.45416666666667C807.1666666666667,111.44351851851852,809.5833333333335,111.43287037037038,812.0000000000001,111.42222222222223C814.4166666666667,111.41157407407408,816.8333333333333,111.40092592592592,819.2499999999999,111.39027777777777C821.6666666666665,111.37962962962962,824.0833333333333,111.36898148148148,826.4999999999999,111.35833333333333C828.9166666666665,111.34768518518518,831.3333333333333,111.33703703703704,833.7499999999999,111.32638888888889C836.1666666666665,111.31574074074074,838.5833333333333,111.30509259259259,840.9999999999999,111.29444444444444C843.4166666666666,111.28379629629629,845.8333333333333,111.27314814814815,848.25,111.2625C850.6666666666666,111.25185185185185,853.0833333333334,111.2412037037037,855.5,111.23055555555555C857.9166666666666,111.2199074074074,860.3333333333334,111.20925925925927,862.75,111.19861111111112C865.1666666666666,111.18796296296297,867.5833333333334,111.17731481481482,870,111.16666666666667C872.4166666666666,111.15601851851852,874.8333333333334,111.14537037037037,877.25,111.13472222222222C879.6666666666666,111.12407407407407,882.0833333333334,111.11342592592594,884.5,111.10277777777779C886.9166666666666,111.09212962962964,889.3333333333334,111.08148148148148,891.75,111.07083333333333C894.1666666666666,111.06018518518518,896.5833333333334,111.04953703703703,899,111.03888888888888C901.4166666666666,111.02824074074073,903.8333333333334,111.01759259259259,906.25,111.00694444444444C908.6666666666666,110.9962962962963,911.0833333333334,110.98564814814814,913.5,110.975C915.9166666666666,110.96435185185184,918.3333333333334,110.95370370370371,920.75,110.94305555555556C923.1666666666666,110.93240740740741,925.5833333333334,110.92175925925926,928,110.91111111111111C930.4166666666666,110.90046296296296,932.8333333333334,110.88981481481481,935.25,110.87916666666666C937.6666666666666,110.86851851851851,940.0833333333334,110.85787037037038,942.5,110.84722222222223C944.9166666666666,110.83657407407408,947.3333333333334,110.82592592592593,949.75,110.81527777777778C952.1666666666666,110.80462962962963,954.5833333333334,110.79398148148148,957,110.78333333333333C959.4166666666666,110.77268518518518,961.8333333333334,110.76203703703703,964.25,110.75138888888888C966.6666666666667,110.74074074074073,969.0833333333334,110.73009259259258,971.5000000000001,110.71944444444443C973.9166666666667,110.70879629629628,976.3333333333335,110.69814814814815,978.7500000000001,110.6875C981.1666666666667,110.67685185185185,983.5833333333335,110.6662037037037,986.0000000000001,110.65555555555555C988.4166666666667,110.6449074074074,990.8333333333335,110.63425925925927,993.2500000000001,110.62361111111112C995.6666666666667,110.61296296296297,998.0833333333333,110.60231481481482,1000.4999999999999,110.59166666666667C1002.9166666666665,110.58101851851852,1005.3333333333333,110.57037037037037,1007.7499999999999,110.55972222222222C1010.1666666666665,110.54907407407407,1012.5833333333333,110.53842592592594,1014.9999999999999,110.52777777777779C1017.4166666666665,110.51712962962964,1019.8333333333333,110.50648148148149,1022.2499999999999,110.49583333333334C1024.6666666666665,110.48518518518519,1027.0833333333333,110.47453703703704,1029.5,110.46388888888889C1031.9166666666667,110.45324074074074,1034.3333333333333,110.44259259259259,1036.75,110.43194444444444C1039.1666666666667,110.42129629629629,1041.5833333333333,110.41064814814814,1044,110.39999999999999C1046.4166666666667,110.38935185185184,1048.8333333333333,110.3787037037037,1051.25,110.36805555555556C1053.6666666666667,110.35740740740741,1056.0833333333333,110.34675925925926,1058.5,110.33611111111111C1060.9166666666667,110.32546296296296,1063.3333333333333,110.31481481481482,1065.75,110.30416666666667C1068.1666666666667,110.29351851851852,1070.5833333333333,110.28287037037038,1073,110.27222222222223C1075.4166666666667,110.26157407407408,1077.8333333333333,110.25092592592593,1080.25,110.24027777777778C1082.6666666666667,110.22962962962963,1085.0833333333333,110.21898148148149,1087.5,110.20833333333334C1089.9166666666667,110.1976851851852,1092.3333333333333,110.18703703703704,1094.75,110.1763888888889C1097.1666666666667,110.16574074074074,1099.5833333333333,110.1550925925926,1102,110.14444444444445C1104.4166666666667,110.1337962962963,1106.8333333333333,110.12314814814815,1109.25,110.1125C1111.6666666666667,110.10185185185185,1114.0833333333333,110.0912037037037,1116.5,110.08055555555555C1118.9166666666667,110.0699074074074,1121.3333333333333,110.05925925925926,1123.75,110.04861111111111C1126.1666666666667,110.03796296296296,1128.5833333333333,110.02731481481482,1131,110.01666666666667C1133.4166666666667,110.00601851851852,1135.8333333333333,109.99537037037037,1138.25,109.98472222222222C1140.6666666666667,109.97407407407407,1143.0833333333333,109.96342592592593,1145.5,109.95277777777778C1147.9166666666667,109.94212962962963,1150.3333333333333,109.93148148148148,1152.75,109.92083333333333C1155.1666666666667,109.91018518518518,1157.5833333333333,109.89953703703705,1160,109.8888888888889C1162.4166666666667,109.87824074074075,1164.8333333333333,109.8675925925926,1167.25,109.85694444444445C1169.6666666666667,109.8462962962963,1172.0833333333333,109.83564814814814,1174.5,109.82499999999999C1176.9166666666667,109.81435185185184,1179.3333333333333,109.8037037037037,1181.75,109.79305555555555C1184.1666666666667,109.7824074074074,1186.5833333333333,109.77175925925926,1189,109.7611111111111C1191.4166666666667,109.75046296296296,1193.8333333333333,109.73981481481482,1196.25,109.72916666666667C1198.6666666666667,109.71851851851852,1201.0833333333333,109.70787037037037,1203.5,109.69722222222222C1205.9166666666667,109.68657407407407,1208.3333333333333,109.67592592592592,1210.75,109.66527777777777C1213.1666666666667,109.65462962962962,1215.5833333333333,109.64398148148149,1218,109.63333333333334C1220.4166666666667,109.62268518518519,1222.8333333333333,109.61203703703704,1225.25,109.60138888888889C1227.6666666666667,109.59074074074074,1230.0833333333333,109.58009259259259,1232.5,109.56944444444444C1234.9166666666667,109.5587962962963,1237.3333333333333,109.54814814814816,1239.75,109.53750000000001C1242.1666666666667,109.52685185185186,1244.5833333333333,109.5162037037037,1247,109.50555555555555C1249.4166666666667,109.4949074074074,1251.8333333333333,109.48425925925926,1254.25,109.47361111111111C1256.6666666666667,109.46296296296296,1259.0833333333333,109.45231481481481,1261.5,109.44166666666666C1263.9166666666667,109.43101851851851,1266.3333333333333,109.42037037037036,1268.75,109.40972222222221C1271.1666666666667,109.39907407407406,1273.5833333333333,109.38842592592593,1276,109.37777777777778C1278.4166666666667,109.36712962962963,1280.8333333333333,109.35648148148148,1283.25,109.34583333333333C1285.6666666666667,109.33518518518518,1288.0833333333333,109.32453703703705,1290.5,109.3138888888889C1292.9166666666667,109.30324074074075,1295.3333333333333,109.2925925925926,1297.75,109.28194444444445C1300.1666666666667,109.2712962962963,1302.5833333333333,109.2712962962963,1305,109.25C1307.4166666666667,109.2287037037037,1309.8333333333333,106.375,1312.25,104.9375C1314.6666666666667,103.5,1317.0833333333333,102.0625,1319.5,100.625C1321.9166666666667,99.1875,1324.3333333333333,97.75,1326.75,96.3125C1329.1666666666667,94.875,1331.5833333333333,93.4375,1334,92C1336.4166666666667,90.5625,1338.8333333333333,89.125,1341.25,87.6875C1343.6666666666667,86.25,1346.0833333333333,84.8125,1348.5,83.375C1350.9166666666667,81.9375,1353.3333333333333,80.5,1355.75,79.0625C1358.1666666666667,77.625,1360.5833333333333,76.1875,1363,74.75C1365.4166666666667,73.3125,1367.8333333333333,71.875,1370.25,70.4375C1372.6666666666667,69,1375.0833333333333,67.5625,1377.5,66.125C1379.9166666666667,64.6875,1382.3333333333333,63.25,1384.75,61.8125C1387.1666666666667,60.375,1389.5833333333333,58.9375,1392,57.5C1394.4166666666667,56.0625,1396.8333333333333,54.625,1399.25,53.1875C1401.6666666666667,51.75,1404.0833333333333,50.31250000000001,1406.5,48.87500000000001C1408.9166666666667,47.43750000000001,1411.3333333333333,45.99999999999999,1413.75,44.56249999999999C1416.1666666666667,43.12499999999999,1418.5833333333333,41.6875,1421,40.25C1423.4166666666667,38.8125,1425.8333333333333,37.375,1428.25,35.9375C1430.6666666666667,34.5,1433.0833333333333,33.0625,1435.5,31.625000000000004C1437.9166666666667,30.187500000000004,1440.3333333333333,28.750000000000004,1442.75,27.312500000000004C1445.1666666666667,25.875000000000004,1447.5833333333333,24.4375,1450,22.999999999999996" fill="transparent" stroke-linecap="round" stroke="#B6509E" stroke-width="2"></path><path class="visx-linepath" d="M0,105.79999999993612C2.4166666666666665,105.78935185181459,4.833333333333334,105.77870370369305,7.25,105.76805555555555C9.666666666666666,105.75740740741804,12.083333333333334,105.74675925925926,14.5,105.73611111111111C16.916666666666668,105.72546296296296,19.333333333333332,105.71481481481482,21.75,105.70416666666667C24.166666666666668,105.69351851851852,26.583333333333332,105.68287037037037,29,105.67222222222222C31.416666666666668,105.66157407407407,33.833333333333336,105.65092592592592,36.25,105.64027777777777C38.666666666666664,105.62962962962962,41.083333333333336,105.61898148148148,43.5,105.60833333333333C45.91666666666667,105.59768518518518,48.333333333333336,105.58703703703704,50.75000000000001,105.57638888888889C53.16666666666667,105.56574074074074,55.583333333333336,105.5550925925926,58,105.54444444444445C60.416666666666664,105.5337962962963,62.833333333333336,105.52314814814815,65.25,105.5125C67.66666666666667,105.50185185185185,70.08333333333333,105.4912037037037,72.5,105.48055555555555C74.91666666666667,105.4699074074074,77.33333333333333,105.45925925925926,79.75,105.4486111111111C82.16666666666667,105.43796296296296,84.58333333333333,105.42731481481482,87,105.41666666666667C89.41666666666667,105.40601851851852,91.83333333333333,105.39537037037037,94.25,105.38472222222222C96.66666666666667,105.37407407407407,99.08333333333334,105.36342592592592,101.50000000000001,105.35277777777777C103.91666666666667,105.34212962962962,106.33333333333334,105.33148148148148,108.75,105.32083333333333C111.16666666666667,105.31018518518518,113.58333333333333,105.29953703703704,116,105.28888888888889C118.41666666666667,105.27824074074074,120.83333333333334,105.26759259259259,123.25000000000001,105.25694444444444C125.66666666666667,105.2462962962963,128.08333333333334,105.23564814814816,130.5,105.22500000000001C132.91666666666666,105.21435185185186,135.33333333333334,105.20370370370371,137.75,105.19305555555556C140.16666666666666,105.18240740740741,142.58333333333334,105.17175925925926,145,105.16111111111111C147.41666666666666,105.15046296296296,149.83333333333334,105.13981481481481,152.25,105.12916666666666C154.66666666666666,105.11851851851851,157.08333333333334,105.10787037037036,159.5,105.09722222222221C161.91666666666666,105.08657407407406,164.33333333333334,105.07592592592593,166.75,105.06527777777778C169.16666666666666,105.05462962962963,171.58333333333334,105.04398148148148,174,105.03333333333333C176.41666666666666,105.02268518518518,178.83333333333334,105.01203703703703,181.25,105.00138888888888C183.66666666666666,104.99074074074073,186.08333333333334,104.9800925925926,188.5,104.96944444444445C190.91666666666666,104.9587962962963,193.33333333333334,104.94814814814815,195.75,104.9375C198.16666666666669,104.92685185185185,200.58333333333334,104.91620370370372,203.00000000000003,104.90555555555557C205.41666666666669,104.89490740740742,207.83333333333331,104.88425925925927,210.24999999999997,104.87361111111112C212.66666666666666,104.86296296296297,215.08333333333331,104.85231481481482,217.5,104.84166666666667C219.91666666666666,104.83101851851852,222.33333333333334,104.82037037037037,224.75,104.80972222222222C227.16666666666666,104.79907407407407,229.58333333333334,104.78842592592592,232,104.77777777777777C234.41666666666666,104.76712962962962,236.83333333333334,104.75648148148149,239.25,104.74583333333334C241.66666666666669,104.73518518518519,244.08333333333334,104.72453703703704,246.50000000000003,104.71388888888889C248.91666666666669,104.70324074074074,251.33333333333331,104.69259259259259,253.74999999999997,104.68194444444444C256.16666666666663,104.67129629629629,258.5833333333333,104.66064814814816,261,104.65C263.4166666666667,104.63935185185186,265.8333333333333,104.6287037037037,268.25,104.61805555555556C270.6666666666667,104.60740740740741,273.0833333333333,104.59675925925927,275.5,104.58611111111112C277.9166666666667,104.57546296296297,280.3333333333333,104.56481481481482,282.75,104.55416666666667C285.1666666666667,104.54351851851852,287.5833333333333,104.53287037037036,290,104.52222222222221C292.4166666666667,104.51157407407406,294.8333333333333,104.50092592592593,297.25,104.49027777777778C299.6666666666667,104.47962962962963,302.0833333333333,104.46898148148148,304.5,104.45833333333333C306.9166666666667,104.44768518518518,309.3333333333333,104.43703703703704,311.75,104.4263888888889C314.1666666666667,104.41574074074074,316.5833333333333,104.4050925925926,319,104.39444444444445C321.4166666666667,104.3837962962963,323.8333333333333,104.37314814814815,326.25,104.3625C328.6666666666667,104.35185185185185,331.0833333333333,104.3412037037037,333.5,104.33055555555555C335.9166666666667,104.3199074074074,338.3333333333333,104.30925925925926,340.75,104.29861111111111C343.1666666666667,104.28796296296296,345.5833333333333,104.27731481481482,348,104.26666666666667C350.4166666666667,104.25601851851852,352.8333333333333,104.24537037037038,355.25,104.23472222222223C357.6666666666667,104.22407407407408,360.0833333333333,104.21342592592592,362.5,104.20277777777777C364.9166666666667,104.19212962962962,367.3333333333333,104.18148148148148,369.75,104.17083333333333C372.1666666666667,104.16018518518518,374.5833333333333,104.14953703703704,377,104.13888888888889C379.4166666666667,104.12824074074074,381.8333333333333,104.1175925925926,384.25,104.10694444444445C386.6666666666667,104.0962962962963,389.0833333333333,104.08564814814815,391.5,104.075C393.9166666666667,104.06435185185185,396.33333333333337,104.0537037037037,398.75000000000006,104.04305555555555C401.16666666666674,104.0324074074074,403.58333333333337,104.02175925925926,406.00000000000006,104.0111111111111C408.4166666666667,104.00046296296296,410.8333333333333,103.98981481481482,413.24999999999994,103.97916666666667C415.66666666666663,103.96851851851852,418.08333333333326,103.95787037037037,420.49999999999994,103.94722222222222C422.91666666666663,103.93657407407407,425.3333333333333,103.92592592592594,427.75,103.91527777777779C430.1666666666667,103.90462962962964,432.5833333333333,103.89398148148148,435,103.88333333333333C437.4166666666667,103.87268518518518,439.8333333333333,103.86203703703703,442.25,103.85138888888888C444.6666666666667,103.84074074074073,447.0833333333333,103.83009259259259,449.5,103.81944444444444C451.9166666666667,103.8087962962963,454.3333333333333,103.79814814814814,456.75,103.7875C459.1666666666667,103.77685185185184,461.5833333333333,103.76620370370371,464,103.75555555555556C466.4166666666667,103.74490740740741,468.8333333333333,103.73425925925926,471.25,103.72361111111111C473.6666666666667,103.71296296296296,476.0833333333333,103.70231481481481,478.5,103.69166666666666C480.9166666666667,103.68101851851851,483.33333333333337,103.67037037037038,485.75000000000006,103.65972222222223C488.16666666666674,103.64907407407408,490.58333333333337,103.63842592592593,493.00000000000006,103.62777777777778C495.4166666666667,103.61712962962963,497.8333333333333,103.60648148148148,500.24999999999994,103.59583333333333C502.66666666666663,103.58518518518518,505.08333333333326,103.57453703703703,507.49999999999994,103.56388888888888C509.91666666666663,103.55324074074073,512.3333333333333,103.54259259259258,514.75,103.53194444444443C517.1666666666666,103.52129629629628,519.5833333333334,103.51064814814815,522,103.5C524.4166666666666,103.48935185185185,526.8333333333334,103.4787037037037,529.25,103.46805555555555C531.6666666666666,103.4574074074074,534.0833333333334,103.44675925925927,536.5,103.43611111111112C538.9166666666666,103.42546296296297,541.3333333333334,103.41481481481482,543.75,103.40416666666667C546.1666666666666,103.39351851851852,548.5833333333334,103.38287037037037,551,103.37222222222222C553.4166666666666,103.36157407407407,555.8333333333334,103.35092592592594,558.25,103.34027777777779C560.6666666666666,103.32962962962964,563.0833333333334,103.31898148148149,565.5,103.30833333333334C567.9166666666666,103.29768518518519,570.3333333333334,103.28703703703704,572.75,103.27638888888889C575.1666666666666,103.26574074074074,577.5833333333334,103.25509259259259,580,103.24444444444444C582.4166666666666,103.23379629629629,584.8333333333334,103.22314814814814,587.25,103.21249999999999C589.6666666666666,103.20185185185184,592.0833333333334,103.1912037037037,594.5,103.18055555555556C596.9166666666666,103.16990740740741,599.3333333333334,103.15925925925926,601.75,103.14861111111111C604.1666666666666,103.13796296296296,606.5833333333334,103.12731481481482,609,103.11666666666667C611.4166666666666,103.10601851851852,613.8333333333334,103.09537037037038,616.25,103.08472222222223C618.6666666666666,103.07407407407408,621.0833333333334,103.06342592592593,623.5,103.05277777777778C625.9166666666666,103.04212962962963,628.3333333333334,103.03148148148148,630.75,103.02083333333333C633.1666666666666,103.01018518518518,635.5833333333334,102.99953703703704,638,102.9888888888889C640.4166666666666,102.97824074074074,642.8333333333334,102.9675925925926,645.25,102.95694444444445C647.6666666666666,102.9462962962963,650.0833333333334,102.93564814814815,652.5,102.925C654.9166666666666,102.91435185185185,657.3333333333334,102.9037037037037,659.75,102.89305555555555C662.1666666666666,102.8824074074074,664.5833333333334,102.87175925925926,667,102.86111111111111C669.4166666666666,102.85046296296296,671.8333333333334,102.83981481481482,674.25,102.82916666666667C676.6666666666666,102.81851851851852,679.0833333333334,102.80787037037038,681.5,102.79722222222223C683.9166666666666,102.78657407407408,686.3333333333334,102.77592592592593,688.75,102.76527777777778C691.1666666666666,102.75462962962963,693.5833333333334,102.74398148148148,696,102.73333333333333C698.4166666666666,102.72268518518518,700.8333333333334,102.71203703703704,703.25,102.70138888888889C705.6666666666666,102.69074074074074,708.0833333333334,102.6800925925926,710.5,102.66944444444445C712.9166666666666,102.6587962962963,715.3333333333334,102.64814814814814,717.75,102.63749999999999C720.1666666666666,102.62685185185184,722.5833333333334,102.6162037037037,725,102.60555555555555C727.4166666666666,102.5949074074074,729.8333333333334,102.58425925925926,732.25,102.5736111111111C734.6666666666666,102.56296296296296,737.0833333333334,102.5523148148148,739.5,102.54166666666666C741.9166666666666,102.53101851851851,744.3333333333334,102.52037037037037,746.75,102.50972222222222C749.1666666666666,102.49907407407407,751.5833333333334,102.48842592592594,754,102.47777777777779C756.4166666666666,102.46712962962964,758.8333333333334,102.45648148148149,761.25,102.44583333333334C763.6666666666666,102.43518518518519,766.0833333333334,102.42453703703704,768.5,102.41388888888889C770.9166666666666,102.40324074074074,773.3333333333334,102.39259259259259,775.75,102.38194444444444C778.1666666666666,102.3712962962963,780.5833333333334,102.36064814814816,783,102.35000000000001C785.4166666666667,102.33935185185186,787.8333333333334,102.3287037037037,790.2500000000001,102.31805555555555C792.6666666666667,102.3074074074074,795.0833333333335,102.29675925925926,797.5000000000001,102.28611111111111C799.9166666666667,102.27546296296296,802.3333333333335,102.26481481481481,804.7500000000001,102.25416666666666C807.1666666666667,102.24351851851851,809.5833333333335,102.23287037037036,812.0000000000001,102.22222222222221C814.4166666666667,102.21157407407406,816.8333333333333,102.20092592592593,819.2499999999999,102.19027777777778C821.6666666666665,102.17962962962963,824.0833333333333,102.16898148148148,826.4999999999999,102.15833333333333C828.9166666666665,102.14768518518518,831.3333333333333,102.13703703703705,833.7499999999999,102.1263888888889C836.1666666666665,102.11574074074075,838.5833333333333,102.1050925925926,840.9999999999999,102.09444444444445C843.4166666666666,102.0837962962963,845.8333333333333,102.07314814814815,848.25,102.0625C850.6666666666666,102.05185185185185,853.0833333333334,102.0412037037037,855.5,102.03055555555555C857.9166666666666,102.0199074074074,860.3333333333334,102.00925925925925,862.75,101.9986111111111C865.1666666666666,101.98796296296295,867.5833333333334,101.97731481481482,870,101.96666666666667C872.4166666666666,101.95601851851852,874.8333333333334,101.94537037037037,877.25,101.93472222222222C879.6666666666666,101.92407407407407,882.0833333333334,101.91342592592592,884.5,101.90277777777777C886.9166666666666,101.89212962962962,889.3333333333334,101.88148148148149,891.75,101.87083333333334C894.1666666666666,101.86018518518519,896.5833333333334,101.84953703703704,899,101.83888888888889C901.4166666666666,101.82824074074074,903.8333333333334,101.8175925925926,906.25,101.80694444444445C908.6666666666666,101.7962962962963,911.0833333333334,101.78564814814816,913.5,101.775C915.9166666666666,101.76435185185186,918.3333333333334,101.7537037037037,920.75,101.74305555555556C923.1666666666666,101.73240740740741,925.5833333333334,101.72175925925926,928,101.71111111111111C930.4166666666666,101.70046296296296,932.8333333333334,101.68981481481481,935.25,101.67916666666666C937.6666666666666,101.66851851851851,940.0833333333334,101.65787037037038,942.5,101.64722222222223C944.9166666666666,101.63657407407408,947.3333333333334,101.62592592592593,949.75,101.61527777777778C952.1666666666666,101.60462962962963,954.5833333333334,101.59398148148148,957,101.58333333333333C959.4166666666666,101.57268518518518,961.8333333333334,101.56203703703704,964.25,101.5513888888889C966.6666666666667,101.54074074074074,969.0833333333334,101.5300925925926,971.5000000000001,101.51944444444445C973.9166666666667,101.5087962962963,976.3333333333335,101.49814814814816,978.7500000000001,101.48750000000001C981.1666666666667,101.47685185185186,983.5833333333335,101.46620370370371,986.0000000000001,101.45555555555556C988.4166666666667,101.44490740740741,990.8333333333335,101.43425925925926,993.2500000000001,101.42361111111111C995.6666666666667,101.41296296296296,998.0833333333333,101.40231481481482,1000.4999999999999,101.39166666666667C1002.9166666666665,101.38101851851852,1005.3333333333333,101.37037037037037,1007.7499999999999,101.35972222222222C1010.1666666666665,101.34907407407407,1012.5833333333333,101.33842592592592,1014.9999999999999,101.32777777777777C1017.4166666666665,101.31712962962962,1019.8333333333333,101.30648148148148,1022.2499999999999,101.29583333333333C1024.6666666666665,101.28518518518518,1027.0833333333333,101.27453703703704,1029.5,101.26388888888889C1031.9166666666667,101.25324074074074,1034.3333333333333,101.2425925925926,1036.75,101.23194444444445C1039.1666666666667,101.2212962962963,1041.5833333333333,101.21064814814815,1044,101.2C1046.4166666666667,101.18935185185185,1048.8333333333333,101.17870370370372,1051.25,101.16805555555557C1053.6666666666667,101.15740740740742,1056.0833333333333,101.14675925925927,1058.5,101.13611111111112C1060.9166666666667,101.12546296296297,1063.3333333333333,101.11481481481482,1065.75,101.10416666666667C1068.1666666666667,101.09351851851852,1070.5833333333333,101.08287037037036,1073,101.07222222222221C1075.4166666666667,101.06157407407406,1077.8333333333333,101.05092592592592,1080.25,101.04027777777777C1082.6666666666667,101.02962962962962,1085.0833333333333,101.01898148148148,1087.5,101.00833333333333C1089.9166666666667,100.99768518518518,1092.3333333333333,100.98703703703704,1094.75,100.97638888888889C1097.1666666666667,100.96574074074074,1099.5833333333333,100.95509259259259,1102,100.94444444444444C1104.4166666666667,100.9337962962963,1106.8333333333333,100.92314814814814,1109.25,100.9125C1111.6666666666667,100.90185185185184,1114.0833333333333,100.89120370370371,1116.5,100.88055555555556C1118.9166666666667,100.86990740740741,1121.3333333333333,100.85925925925926,1123.75,100.84861111111111C1126.1666666666667,100.83796296296296,1128.5833333333333,100.82731481481483,1131,100.81666666666668C1133.4166666666667,100.80601851851853,1135.8333333333333,100.79537037037038,1138.25,100.78472222222223C1140.6666666666667,100.77407407407408,1143.0833333333333,100.76342592592592,1145.5,100.75277777777777C1147.9166666666667,100.74212962962962,1150.3333333333333,100.73148148148148,1152.75,100.72083333333333C1155.1666666666667,100.71018518518518,1157.5833333333333,100.69953703703703,1160,100.68888888888888C1162.4166666666667,100.67824074074073,1164.8333333333333,100.6675925925926,1167.25,100.65694444444445C1169.6666666666667,100.6462962962963,1172.0833333333333,100.63564814814815,1174.5,100.625C1176.9166666666667,100.61435185185185,1179.3333333333333,100.6037037037037,1181.75,100.59305555555555C1184.1666666666667,100.5824074074074,1186.5833333333333,100.57175925925927,1189,100.56111111111112C1191.4166666666667,100.55046296296297,1193.8333333333333,100.53981481481482,1196.25,100.52916666666667C1198.6666666666667,100.51851851851852,1201.0833333333333,100.50787037037038,1203.5,100.49722222222223C1205.9166666666667,100.48657407407408,1208.3333333333333,100.47592592592592,1210.75,100.46527777777777C1213.1666666666667,100.45462962962962,1215.5833333333333,100.44398148148147,1218,100.43333333333332C1220.4166666666667,100.42268518518517,1222.8333333333333,100.41203703703704,1225.25,100.40138888888889C1227.6666666666667,100.39074074074074,1230.0833333333333,100.38009259259259,1232.5,100.36944444444444C1234.9166666666667,100.35879629629629,1237.3333333333333,100.34814814814816,1239.75,100.3375C1242.1666666666667,100.32685185185186,1244.5833333333333,100.3162037037037,1247,100.30555555555556C1249.4166666666667,100.29490740740741,1251.8333333333333,100.28425925925926,1254.25,100.27361111111111C1256.6666666666667,100.26296296296296,1259.0833333333333,100.25231481481482,1261.5,100.24166666666667C1263.9166666666667,100.23101851851852,1266.3333333333333,100.22037037037038,1268.75,100.20972222222223C1271.1666666666667,100.19907407407408,1273.5833333333333,100.18842592592594,1276,100.17777777777779C1278.4166666666667,100.16712962962964,1280.8333333333333,100.15648148148148,1283.25,100.14583333333333C1285.6666666666667,100.13518518518518,1288.0833333333333,100.12453703703703,1290.5,100.11388888888888C1292.9166666666667,100.10324074074073,1295.3333333333333,100.0925925925926,1297.75,100.08194444444445C1300.1666666666667,100.0712962962963,1302.5833333333333,100.0712962962963,1305,100.05C1307.4166666666667,100.0287037037037,1309.8333333333333,97.175,1312.25,95.7375C1314.6666666666667,94.3,1317.0833333333333,92.86250000000001,1319.5,91.42500000000001C1321.9166666666667,89.98750000000001,1324.3333333333333,88.55000000000001,1326.75,87.11250000000001C1329.1666666666667,85.67500000000001,1331.5833333333333,84.2375,1334,82.8C1336.4166666666667,81.3625,1338.8333333333333,79.925,1341.25,78.4875C1343.6666666666667,77.05,1346.0833333333333,75.6125,1348.5,74.175C1350.9166666666667,72.7375,1353.3333333333333,71.3,1355.75,69.8625C1358.1666666666667,68.425,1360.5833333333333,66.98750000000001,1363,65.55000000000001C1365.4166666666667,64.11250000000001,1367.8333333333333,62.675,1370.25,61.2375C1372.6666666666667,59.8,1375.0833333333333,58.3625,1377.5,56.925C1379.9166666666667,55.4875,1382.3333333333333,54.050000000000004,1384.75,52.612500000000004C1387.1666666666667,51.175000000000004,1389.5833333333333,49.737500000000004,1392,48.300000000000004C1394.4166666666667,46.862500000000004,1396.8333333333333,45.425,1399.25,43.9875C1401.6666666666667,42.55,1404.0833333333333,41.1125,1406.5,39.675C1408.9166666666667,38.2375,1411.3333333333333,36.8,1413.75,35.3625C1416.1666666666667,33.925,1418.5833333333333,32.4875,1421,31.05C1423.4166666666667,29.6125,1425.8333333333333,28.175000000000004,1428.25,26.737500000000004C1430.6666666666667,25.300000000000004,1433.0833333333333,23.862499999999994,1435.5,22.424999999999994C1437.9166666666667,20.987499999999994,1440.3333333333333,19.549999999999997,1442.75,18.112499999999997C1445.1666666666667,16.674999999999997,1447.5833333333333,15.237499999999999,1450,13.799999999999999" fill="transparent" stroke-linecap="round" stroke="#E7C6DF" stroke-width="2"></path><g class="visx-group visx-axis visx-axis-bottom" transform="translate(0, 115)"><g class="visx-group visx-axis-tick" transform="translate(0, 0)"><line class="visx-line" x1="0" y1="0" x2="0" y2="8" fill="transparent" shape-rendering="crispEdges" stroke="#000" stroke-width="0" stroke-linecap="square"></line><svg x="0" y="0" font-size="10" style="overflow:visible"><text transform="" x="0" y="18" fill="#000" font-size="10" text-anchor="middle"><tspan x="0" dy="0em">0%</tspan></text></svg></g><g class="visx-group visx-axis-tick" transform="translate(0, 0)"><line class="visx-line" x1="362.5" y1="0" x2="362.5" y2="8" fill="transparent" shape-rendering="crispEdges" stroke="#000" stroke-width="0" stroke-linecap="square"></line><svg x="0" y="0" font-size="10" style="overflow:visible"><text transform="" x="362.5" y="18" fill="#000" font-size="10" text-anchor="middle"><tspan x="362.5" dy="0em">25%</tspan></text></svg></g><g class="visx-group visx-axis-tick" transform="translate(0, 0)"><line class="visx-line" x1="725" y1="0" x2="725" y2="8" fill="transparent" shape-rendering="crispEdges" stroke="#000" stroke-width="0" stroke-linecap="square"></line><svg x="0" y="0" font-size="10" style="overflow:visible"><text transform="" x="725" y="18" fill="#000" font-size="10" text-anchor="middle"><tspan x="725" dy="0em">50%</tspan></text></svg></g><g class="visx-group visx-axis-tick" transform="translate(0, 0)"><line class="visx-line" x1="1087.5" y1="0" x2="1087.5" y2="8" fill="transparent" shape-rendering="crispEdges" stroke="#000" stroke-width="0" stroke-linecap="square"></line><svg x="0" y="0" font-size="10" style="overflow:visible"><text transform="" x="1087.5" y="18" fill="#000" font-size="10" text-anchor="middle"><tspan x="1087.5" dy="0em">75%</tspan></text></svg></g><g class="visx-group visx-axis-tick" transform="translate(0, 0)"><line class="visx-line" x1="1450" y1="0" x2="1450" y2="8" fill="transparent" shape-rendering="crispEdges" stroke="#000" stroke-width="0" stroke-linecap="square"></line><svg x="0" y="0" font-size="10" style="overflow:visible"><text transform="" x="1450" y="18" fill="#000" font-size="10" text-anchor="middle"><tspan x="1450" dy="0em">100%</tspan></text></svg></g><line class="visx-line visx-axis-line" x1="0.5" y1="0" x2="1450.5" y2="0" fill="transparent" shape-rendering="crispEdges" stroke="#222" stroke-width="0"></line></g><g class="visx-group visx-axis visx-axis-left" transform="translate(0, 0)"><g class="visx-group visx-axis-tick" transform="translate(0, 0)"><line class="visx-line" x1="0" y1="115" x2="-8" y2="115" fill="transparent" shape-rendering="crispEdges" stroke="#222" stroke-width="0" stroke-linecap="square"></line><svg x="-30" y="0" font-size="8" style="overflow:visible"><text transform="" x="-8" y="115" fill="#000" font-size="8" text-anchor="start"><tspan x="-8" dy="0em">0%</tspan></text></svg></g><g class="visx-group visx-axis-tick" transform="translate(0, 0)"><line class="visx-line" x1="0" y1="57.5" x2="-8" y2="57.5" fill="transparent" shape-rendering="crispEdges" stroke="#222" stroke-width="0" stroke-linecap="square"></line><svg x="-30" y="0" font-size="8" style="overflow:visible"><text transform="" x="-8" y="57.5" fill="#000" font-size="8" text-anchor="start"><tspan x="-8" dy="0em">50%</tspan></text></svg></g><g class="visx-group visx-axis-tick" transform="translate(0, 0)"><line class="visx-line" x1="0" y1="0" x2="-8" y2="0" fill="transparent" shape-rendering="crispEdges" stroke="#222" stroke-width="0" stroke-linecap="square"></line><svg x="-30" y="0" font-size="8" style="overflow:visible"><text transform="" x="-8" y="0" fill="#000" font-size="8" text-anchor="start"><tspan x="-8" dy="0em">100%</tspan></text></svg></g><line class="visx-line visx-axis-line" x1="0" y1="115.5" x2="0" y2="0.5" fill="transparent" shape-rendering="crispEdges" stroke="#222" stroke-width="0"></line></g><rect class="visx-bar" width="1450" height="115" fill="transparent"></rect><line class="visx-line" x1="1305" y1="28" x2="1305" y2="115" fill="transparent" shape-rendering="crispEdges" stroke="#0062D2" stroke-width="1" pointer-events="none" stroke-dasharray="5,2"></line><svg x="0" y="0" font-size="10px" style="overflow:visible"><text transform="" x="1305" y="20" font-size="10px" fill="#fff" stroke="#fff" stroke-width="0.8em" text-anchor="middle"><tspan x="1305" dy="0.355em">Optimal 90%</tspan></text></svg><svg x="0" y="0" font-size="10px" style="overflow:visible"><text transform="" x="1305" y="20" font-size="10px" fill="#62677B" text-anchor="middle"><tspan x="1305" dy="0.355em">Optimal 90%</tspan></text></svg></g></svg>