<?xml version="1.0"?><svg xmlns="http://www.w3.org/2000/svg" xmlns:xlink= "http://www.w3.org/1999/xlink" style="background: white;" width="1500" height="185"> <g style="color: black; font-size: 13px; font-family: sans-serif; transform: translate(18px, 25px);"><g><circle r="3" cx="-6" cy="-5" style="fill: #B6509E" /><text>Borrow APR, variable</text></g><g style="transform: translateX(150px);"><circle r="3" cx="-6" cy="-5" style="fill: rgb(231, 198, 223)" /><text>Borrow APR, stable</text></g><g style="transform: translateX(290px);"><circle r="3" cx="-6" cy="-5" style="fill: rgb(0, 98, 210)" /><text>Utilization Rate</text></g></g><g class="visx-group" transform="translate(40, 50)"><g class="visx-group visx-rows" transform="translate(0, 0)"><line class="visx-line" x1="0" y1="115" x2="1450" y2="115" fill="transparent" shape-rendering="crispEdges" stroke="#000" stroke-width="1" stroke-dasharray="3,3" pointer-events="none"></line><line class="visx-line" x1="0" y1="89.44444444444444" x2="1450" y2="89.44444444444444" fill="transparent" shape-rendering="crispEdges" stroke="#000" stroke-width="1" stroke-dasharray="3,3" pointer-events="none"></line><line class="visx-line" x1="0" y1="63.88888888888889" x2="1450" y2="63.88888888888889" fill="transparent" shape-rendering="crispEdges" stroke="#000" stroke-width="1" stroke-dasharray="3,3" pointer-events="none"></line><line class="visx-line" x1="0" y1="38.333333333333336" x2="1450" y2="38.333333333333336" fill="transparent" shape-rendering="crispEdges" stroke="#000" stroke-width="1" stroke-dasharray="3,3" pointer-events="none"></line><line class="visx-line" x1="0" y1="12.777777777777784" x2="1450" y2="12.777777777777784" fill="transparent" shape-rendering="crispEdges" stroke="#000" stroke-width="1" stroke-dasharray="3,3" pointer-events="none"></line></g><path class="visx-linepath" d="M0,114.99999999992013C2.4166666666666665,114.98668981476823,4.833333333333334,114.97337962961632,7.25,114.96006944444444C9.666666666666666,114.94675925927257,12.083333333333334,114.93344907407408,14.5,114.92013888888889C16.916666666666668,114.9068287037037,19.333333333333332,114.89351851851852,21.75,114.88020833333333C24.166666666666668,114.86689814814814,26.583333333333332,114.85358796296296,29,114.84027777777777C31.416666666666668,114.82696759259258,33.833333333333336,114.81365740740739,36.25,114.80034722222221C38.666666666666664,114.78703703703704,41.083333333333336,114.77372685185186,43.5,114.76041666666667C45.91666666666667,114.74710648148148,48.333333333333336,114.73379629629629,50.75000000000001,114.7204861111111C53.16666666666667,114.70717592592591,55.583333333333336,114.69386574074073,58,114.68055555555556C60.416666666666664,114.66724537037037,62.833333333333336,114.65393518518519,65.25,114.640625C67.66666666666667,114.62731481481481,70.08333333333333,114.61400462962963,72.5,114.60069444444444C74.91666666666667,114.58738425925925,77.33333333333333,114.57407407407408,79.75,114.56076388888889C82.16666666666667,114.5474537037037,84.58333333333333,114.53414351851852,87,114.52083333333333C89.41666666666667,114.50752314814814,91.83333333333333,114.49421296296295,94.25,114.48090277777777C96.66666666666667,114.46759259259258,99.08333333333334,114.45428240740742,101.50000000000001,114.44097222222223C103.91666666666667,114.42766203703704,106.33333333333334,114.41435185185185,108.75,114.40104166666666C111.16666666666667,114.38773148148147,113.58333333333333,114.37442129629629,116,114.36111111111111C118.41666666666667,114.34780092592592,120.83333333333334,114.33449074074075,123.25000000000001,114.32118055555556C125.66666666666667,114.30787037037037,128.08333333333334,114.29456018518519,130.5,114.28125C132.91666666666666,114.26793981481481,135.33333333333334,114.25462962962963,137.75,114.24131944444444C140.16666666666666,114.22800925925925,142.58333333333334,114.21469907407408,145,114.20138888888889C147.41666666666666,114.1880787037037,149.83333333333334,114.1747685185185,152.25,114.16145833333333C154.66666666666666,114.14814814814815,157.08333333333334,114.13483796296298,159.5,114.12152777777779C161.91666666666666,114.1082175925926,164.33333333333334,114.0949074074074,166.75,114.08159722222221C169.16666666666666,114.06828703703702,171.58333333333334,114.05497685185185,174,114.04166666666667C176.41666666666666,114.0283564814815,178.83333333333334,114.0150462962963,181.25,114.00173611111111C183.66666666666666,113.98842592592592,186.08333333333334,113.97511574074075,188.5,113.96180555555556C190.91666666666666,113.94849537037037,193.33333333333334,113.93518518518519,195.75,113.921875C198.16666666666669,113.90856481481481,200.58333333333334,113.89525462962963,203.00000000000003,113.88194444444444C205.41666666666669,113.86863425925925,207.83333333333331,113.85532407407406,210.24999999999997,113.84201388888889C212.66666666666666,113.8287037037037,215.08333333333331,113.81539351851853,217.5,113.80208333333334C219.91666666666666,113.78877314814815,222.33333333333334,113.77546296296296,224.75,113.76215277777777C227.16666666666666,113.74884259259258,229.58333333333334,113.73553240740742,232,113.72222222222223C234.41666666666666,113.70891203703704,236.83333333333334,113.69560185185186,239.25,113.68229166666667C241.66666666666669,113.66898148148148,244.08333333333334,113.6556712962963,246.50000000000003,113.64236111111111C248.91666666666669,113.62905092592592,251.33333333333331,113.61574074074075,253.74999999999997,113.60243055555556C256.16666666666663,113.58912037037037,258.5833333333333,113.57581018518519,261,113.5625C263.4166666666667,113.54918981481481,265.8333333333333,113.53587962962962,268.25,113.52256944444444C270.6666666666667,113.50925925925927,273.0833333333333,113.49594907407409,275.5,113.4826388888889C277.9166666666667,113.46932870370371,280.3333333333333,113.45601851851852,282.75,113.44270833333333C285.1666666666667,113.42939814814814,287.5833333333333,113.41608796296296,290,113.40277777777779C292.4166666666667,113.38946759259261,294.8333333333333,113.37615740740742,297.25,113.36284722222223C299.6666666666667,113.34953703703704,302.0833333333333,113.33622685185186,304.5,113.32291666666667C306.9166666666667,113.30960648148148,309.3333333333333,113.2962962962963,311.75,113.28298611111111C314.1666666666667,113.26967592592592,316.5833333333333,113.25636574074075,319,113.24305555555556C321.4166666666667,113.22974537037037,323.8333333333333,113.21643518518519,326.25,113.203125C328.6666666666667,113.18981481481481,331.0833333333333,113.17650462962963,333.5,113.16319444444444C335.9166666666667,113.14988425925925,338.3333333333333,113.13657407407408,340.75,113.12326388888889C343.1666666666667,113.1099537037037,345.5833333333333,113.09664351851852,348,113.08333333333333C350.4166666666667,113.07002314814814,352.8333333333333,113.05671296296296,355.25,113.04340277777777C357.6666666666667,113.03009259259258,360.0833333333333,113.01678240740739,362.5,113.00347222222221C364.9166666666667,112.99016203703704,367.3333333333333,112.97685185185186,369.75,112.96354166666667C372.1666666666667,112.95023148148148,374.5833333333333,112.93692129629629,377,112.9236111111111C379.4166666666667,112.91030092592591,381.8333333333333,112.89699074074073,384.25,112.88368055555556C386.6666666666667,112.87037037037038,389.0833333333333,112.85706018518519,391.5,112.84375C393.9166666666667,112.83043981481481,396.33333333333337,112.81712962962963,398.75000000000006,112.80381944444444C401.16666666666674,112.79050925925925,403.58333333333337,112.77719907407408,406.00000000000006,112.76388888888889C408.4166666666667,112.7505787037037,410.8333333333333,112.73726851851852,413.24999999999994,112.72395833333333C415.66666666666663,112.71064814814814,418.08333333333326,112.69733796296295,420.49999999999994,112.68402777777777C422.91666666666663,112.67071759259258,425.3333333333333,112.65740740740742,427.75,112.64409722222223C430.1666666666667,112.63078703703704,432.5833333333333,112.61747685185185,435,112.60416666666666C437.4166666666667,112.59085648148147,439.8333333333333,112.5775462962963,442.25,112.56423611111111C444.6666666666667,112.55092592592592,447.0833333333333,112.53761574074075,449.5,112.52430555555556C451.9166666666667,112.51099537037037,454.3333333333333,112.49768518518519,456.75,112.484375C459.1666666666667,112.47106481481481,461.5833333333333,112.45775462962963,464,112.44444444444444C466.4166666666667,112.43113425925925,468.8333333333333,112.41782407407408,471.25,112.40451388888889C473.6666666666667,112.3912037037037,476.0833333333333,112.3778935185185,478.5,112.36458333333333C480.9166666666667,112.35127314814814,483.33333333333337,112.33796296296298,485.75000000000006,112.32465277777779C488.16666666666674,112.3113425925926,490.58333333333337,112.2980324074074,493.00000000000006,112.28472222222221C495.4166666666667,112.27141203703702,497.8333333333333,112.25810185185185,500.24999999999994,112.24479166666667C502.66666666666663,112.23148148148148,505.08333333333326,112.2181712962963,507.49999999999994,112.20486111111111C509.91666666666663,112.19155092592592,512.3333333333333,112.17824074074075,514.75,112.16493055555556C517.1666666666666,112.15162037037037,519.5833333333334,112.13831018518519,522,112.125C524.4166666666666,112.11168981481481,526.8333333333334,112.09837962962963,529.25,112.08506944444444C531.6666666666666,112.07175925925925,534.0833333333334,112.05844907407408,536.5,112.04513888888889C538.9166666666666,112.0318287037037,541.3333333333334,112.01851851851853,543.75,112.00520833333334C546.1666666666666,111.99189814814815,548.5833333333334,111.97858796296296,551,111.96527777777777C553.4166666666666,111.95196759259258,555.8333333333334,111.93865740740742,558.25,111.92534722222223C560.6666666666666,111.91203703703704,563.0833333333334,111.89872685185186,565.5,111.88541666666667C567.9166666666666,111.87210648148148,570.3333333333334,111.8587962962963,572.75,111.84548611111111C575.1666666666666,111.83217592592592,577.5833333333334,111.81886574074075,580,111.80555555555556C582.4166666666666,111.79224537037037,584.8333333333334,111.77893518518519,587.25,111.765625C589.6666666666666,111.75231481481481,592.0833333333334,111.73900462962962,594.5,111.72569444444444C596.9166666666666,111.71238425925927,599.3333333333334,111.69907407407409,601.75,111.6857638888889C604.1666666666666,111.67245370370371,606.5833333333334,111.65914351851852,609,111.64583333333333C611.4166666666666,111.63252314814814,613.8333333333334,111.61921296296296,616.25,111.60590277777779C618.6666666666666,111.59259259259261,621.0833333333334,111.57928240740742,623.5,111.56597222222223C625.9166666666666,111.55266203703704,628.3333333333334,111.53935185185186,630.75,111.52604166666667C633.1666666666666,111.51273148148148,635.5833333333334,111.4994212962963,638,111.48611111111111C640.4166666666666,111.47280092592592,642.8333333333334,111.45949074074075,645.25,111.44618055555556C647.6666666666666,111.43287037037037,650.0833333333334,111.41956018518519,652.5,111.40625C654.9166666666666,111.39293981481481,657.3333333333334,111.37962962962963,659.75,111.36631944444444C662.1666666666666,111.35300925925925,664.5833333333334,111.33969907407408,667,111.32638888888889C669.4166666666666,111.3130787037037,671.8333333333334,111.29976851851852,674.25,111.28645833333333C676.6666666666666,111.27314814814814,679.0833333333334,111.25983796296296,681.5,111.24652777777777C683.9166666666666,111.23321759259258,686.3333333333334,111.21990740740739,688.75,111.20659722222221C691.1666666666666,111.19328703703704,693.5833333333334,111.17997685185186,696,111.16666666666667C698.4166666666666,111.15335648148148,700.8333333333334,111.14004629629629,703.25,111.1267361111111C705.6666666666666,111.11342592592591,708.0833333333334,111.10011574074073,710.5,111.08680555555556C712.9166666666666,111.07349537037038,715.3333333333334,111.06018518518519,717.75,111.046875C720.1666666666666,111.03356481481481,722.5833333333334,111.02025462962963,725,111.00694444444444C727.4166666666666,110.99363425925925,729.8333333333334,110.98032407407408,732.25,110.96701388888889C734.6666666666666,110.9537037037037,737.0833333333334,110.94039351851852,739.5,110.92708333333333C741.9166666666666,110.91377314814814,744.3333333333334,110.90046296296296,746.75,110.88715277777777C749.1666666666666,110.87384259259258,751.5833333333334,110.86053240740742,754,110.84722222222223C756.4166666666666,110.83391203703704,758.8333333333334,110.82060185185185,761.25,110.80729166666666C763.6666666666666,110.79398148148147,766.0833333333334,110.7806712962963,768.5,110.76736111111111C770.9166666666666,110.75405092592592,773.3333333333334,110.74074074074075,775.75,110.72743055555556C778.1666666666666,110.71412037037037,780.5833333333334,110.70081018518519,783,110.6875C785.4166666666667,110.67418981481481,787.8333333333334,110.66087962962963,790.2500000000001,110.64756944444444C792.6666666666667,110.63425925925925,795.0833333333335,110.62094907407408,797.5000000000001,110.60763888888889C799.9166666666667,110.5943287037037,802.3333333333335,110.5810185185185,804.7500000000001,110.56770833333333C807.1666666666667,110.55439814814815,809.5833333333335,110.54108796296298,812.0000000000001,110.52777777777779C814.4166666666667,110.5144675925926,816.8333333333333,110.5011574074074,819.2499999999999,110.48784722222221C821.6666666666665,110.47453703703702,824.0833333333333,110.46122685185185,826.4999999999999,110.44791666666667C828.9166666666665,110.4346064814815,831.3333333333333,110.4212962962963,833.7499999999999,110.40798611111111C836.1666666666665,110.39467592592592,838.5833333333333,110.38136574074075,840.9999999999999,110.36805555555556C843.4166666666666,110.35474537037037,845.8333333333333,110.34143518518519,848.25,110.328125C850.6666666666666,110.31481481481481,853.0833333333334,110.30150462962963,855.5,110.28819444444444C857.9166666666666,110.27488425925925,860.3333333333334,110.26157407407408,862.75,110.24826388888889C865.1666666666666,110.2349537037037,867.5833333333334,110.22164351851853,870,110.20833333333334C872.4166666666666,110.19502314814815,874.8333333333334,110.18171296296296,877.25,110.16840277777777C879.6666666666666,110.15509259259258,882.0833333333334,110.14178240740742,884.5,110.12847222222223C886.9166666666666,110.11516203703704,889.3333333333334,110.10185185185186,891.75,110.08854166666667C894.1666666666666,110.07523148148148,896.5833333333334,110.0619212962963,899,110.04861111111111C901.4166666666666,110.03530092592592,903.8333333333334,110.02199074074075,906.25,110.00868055555556C908.6666666666666,109.99537037037037,911.0833333333334,109.98206018518519,913.5,109.96875C915.9166666666666,109.95543981481481,918.3333333333334,109.94212962962962,920.75,109.92881944444444C923.1666666666666,109.91550925925927,925.5833333333334,109.90219907407409,928,109.8888888888889C930.4166666666666,109.87557870370371,932.8333333333334,109.86226851851852,935.25,109.84895833333333C937.6666666666666,109.83564814814814,940.0833333333334,109.82233796296296,942.5,109.80902777777779C944.9166666666666,109.79571759259261,947.3333333333334,109.78240740740742,949.75,109.76909722222223C952.1666666666666,109.75578703703704,954.5833333333334,109.74247685185186,957,109.72916666666667C959.4166666666666,109.71585648148148,961.8333333333334,109.7025462962963,964.25,109.68923611111111C966.6666666666667,109.67592592592592,969.0833333333334,109.66261574074075,971.5000000000001,109.64930555555556C973.9166666666667,109.63599537037037,976.3333333333335,109.62268518518519,978.7500000000001,109.609375C981.1666666666667,109.59606481481481,983.5833333333335,109.58275462962963,986.0000000000001,109.56944444444444C988.4166666666667,109.55613425925925,990.8333333333335,109.54282407407408,993.2500000000001,109.52951388888889C995.6666666666667,109.5162037037037,998.0833333333333,109.50289351851852,1000.4999999999999,109.48958333333333C1002.9166666666665,109.47627314814814,1005.3333333333333,109.46296296296296,1007.7499999999999,109.44965277777777C1010.1666666666665,109.43634259259258,1012.5833333333333,109.42303240740739,1014.9999999999999,109.40972222222221C1017.4166666666665,109.39641203703704,1019.8333333333333,109.38310185185186,1022.2499999999999,109.36979166666667C1024.6666666666665,109.35648148148148,1027.0833333333333,109.34317129629629,1029.5,109.3298611111111C1031.9166666666667,109.31655092592591,1034.3333333333333,109.30324074074073,1036.75,109.28993055555556C1039.1666666666667,109.27662037037038,1041.5833333333333,109.26331018518519,1044,109.25C1046.4166666666667,109.23668981481481,1048.8333333333333,109.22337962962963,1051.25,109.21006944444444C1053.6666666666667,109.19675925925925,1056.0833333333333,109.18344907407408,1058.5,109.17013888888889C1060.9166666666667,109.1568287037037,1063.3333333333333,109.14351851851852,1065.75,109.13020833333333C1068.1666666666667,109.11689814814814,1070.5833333333333,109.10358796296296,1073,109.09027777777777C1075.4166666666667,109.07696759259258,1077.8333333333333,109.06365740740742,1080.25,109.05034722222223C1082.6666666666667,109.03703703703704,1085.0833333333333,109.02372685185185,1087.5,109.01041666666666C1089.9166666666667,108.99710648148147,1092.3333333333333,108.9837962962963,1094.75,108.97048611111111C1097.1666666666667,108.95717592592592,1099.5833333333333,108.94386574074075,1102,108.93055555555556C1104.4166666666667,108.91724537037037,1106.8333333333333,108.90393518518519,1109.25,108.890625C1111.6666666666667,108.87731481481481,1114.0833333333333,108.86400462962963,1116.5,108.85069444444444C1118.9166666666667,108.83738425925925,1121.3333333333333,108.82407407407408,1123.75,108.81076388888889C1126.1666666666667,108.7974537037037,1128.5833333333333,108.7841435185185,1131,108.77083333333333C1133.4166666666667,108.75752314814815,1135.8333333333333,108.74421296296298,1138.25,108.73090277777779C1140.6666666666667,108.7175925925926,1143.0833333333333,108.7042824074074,1145.5,108.69097222222221C1147.9166666666667,108.67766203703702,1150.3333333333333,108.66435185185185,1152.75,108.65104166666667C1155.1666666666667,108.6377314814815,1157.5833333333333,108.63773148148148,1160,108.61111111111111C1162.4166666666667,108.58449074074075,1164.8333333333333,107.0138888888889,1167.25,106.21527777777779C1169.6666666666667,105.41666666666667,1172.0833333333333,104.61805555555556,1174.5,103.81944444444444C1176.9166666666667,103.02083333333333,1179.3333333333333,102.22222222222223,1181.75,101.42361111111111C1184.1666666666667,100.625,1186.5833333333333,99.8263888888889,1189,99.02777777777779C1191.4166666666667,98.22916666666667,1193.8333333333333,97.43055555555556,1196.25,96.63194444444444C1198.6666666666667,95.83333333333333,1201.0833333333333,95.03472222222223,1203.5,94.23611111111111C1205.9166666666667,93.4375,1208.3333333333333,92.6388888888889,1210.75,91.84027777777779C1213.1666666666667,91.04166666666667,1215.5833333333333,90.24305555555556,1218,89.44444444444444C1220.4166666666667,88.64583333333333,1222.8333333333333,87.84722222222223,1225.25,87.04861111111111C1227.6666666666667,86.25,1230.0833333333333,85.4513888888889,1232.5,84.65277777777779C1234.9166666666667,83.85416666666667,1237.3333333333333,83.05555555555556,1239.75,82.25694444444444C1242.1666666666667,81.45833333333333,1244.5833333333333,80.65972222222223,1247,79.86111111111111C1249.4166666666667,79.0625,1251.8333333333333,78.2638888888889,1254.25,77.46527777777779C1256.6666666666667,76.66666666666667,1259.0833333333333,75.86805555555556,1261.5,75.06944444444444C1263.9166666666667,74.27083333333333,1266.3333333333333,73.47222222222223,1268.75,72.67361111111111C1271.1666666666667,71.875,1273.5833333333333,71.0763888888889,1276,70.27777777777779C1278.4166666666667,69.47916666666667,1280.8333333333333,68.68055555555556,1283.25,67.88194444444444C1285.6666666666667,67.08333333333333,1288.0833333333333,66.28472222222223,1290.5,65.48611111111111C1292.9166666666667,64.6875,1295.3333333333333,63.8888888888889,1297.75,63.090277777777786C1300.1666666666667,62.29166666666667,1302.5833333333333,61.49305555555556,1305,60.69444444444444C1307.4166666666667,59.89583333333333,1309.8333333333333,59.097222222222214,1312.25,58.29861111111111C1314.6666666666667,57.5,1317.0833333333333,56.7013888888889,1319.5,55.902777777777786C1321.9166666666667,55.10416666666667,1324.3333333333333,54.30555555555556,1326.75,53.50694444444444C1329.1666666666667,52.70833333333333,1331.5833333333333,51.90972222222222,1334,51.11111111111111C1336.4166666666667,50.31249999999999,1338.8333333333333,49.513888888888886,1341.25,48.71527777777777C1343.6666666666667,47.91666666666666,1346.0833333333333,47.11805555555556,1348.5,46.31944444444444C1350.9166666666667,45.52083333333333,1353.3333333333333,44.722222222222214,1355.75,43.92361111111111C1358.1666666666667,43.125,1360.5833333333333,42.3263888888889,1363,41.527777777777786C1365.4166666666667,40.72916666666667,1367.8333333333333,39.93055555555556,1370.25,39.13194444444444C1372.6666666666667,38.33333333333333,1375.0833333333333,37.534722222222214,1377.5,36.73611111111111C1379.9166666666667,35.9375,1382.3333333333333,35.13888888888889,1384.75,34.340277777777786C1387.1666666666667,33.54166666666668,1389.5833333333333,32.74305555555556,1392,31.944444444444446C1394.4166666666667,31.145833333333332,1396.8333333333333,30.347222222222218,1399.25,29.548611111111107C1401.6666666666667,28.749999999999996,1404.0833333333333,27.951388888888893,1406.5,27.152777777777782C1408.9166666666667,26.35416666666667,1411.3333333333333,25.555555555555557,1413.75,24.756944444444446C1416.1666666666667,23.958333333333336,1418.5833333333333,23.159722222222218,1421,22.361111111111107C1423.4166666666667,21.562499999999996,1425.8333333333333,20.763888888888893,1428.25,19.965277777777782C1430.6666666666667,19.16666666666667,1433.0833333333333,18.368055555555557,1435.5,17.569444444444446C1437.9166666666667,16.770833333333336,1440.3333333333333,15.97222222222222,1442.75,15.173611111111109C1445.1666666666667,14.374999999999998,1447.5833333333333,13.576388888888891,1450,12.777777777777784" fill="transparent" stroke-linecap="round" stroke="#B6509E" stroke-width="2"></path><path class="visx-linepath" d="M0,107.33333333332534C2.4166666666666665,107.33200231481015,4.833333333333334,107.33067129629497,7.25,107.32934027777777C9.666666666666666,107.32800925926058,12.083333333333334,107.32667824074073,14.5,107.32534722222222C16.916666666666668,107.3240162037037,19.333333333333332,107.32268518518518,21.75,107.32135416666667C24.166666666666668,107.32002314814815,26.583333333333332,107.31869212962962,29,107.31736111111111C31.416666666666668,107.3160300925926,33.833333333333336,107.31469907407407,36.25,107.31336805555556C38.666666666666664,107.31203703703704,41.083333333333336,107.31070601851852,43.5,107.309375C45.91666666666667,107.30804398148149,48.333333333333336,107.30671296296298,50.75000000000001,107.30538194444445C53.16666666666667,107.30405092592594,55.583333333333336,107.3027199074074,58,107.30138888888888C60.416666666666664,107.30005787037035,62.833333333333336,107.29872685185184,65.25,107.29739583333333C67.66666666666667,107.29606481481481,70.08333333333333,107.29473379629628,72.5,107.29340277777777C74.91666666666667,107.29207175925926,77.33333333333333,107.29074074074073,79.75,107.28940972222222C82.16666666666667,107.2880787037037,84.58333333333333,107.28674768518518,87,107.28541666666666C89.41666666666667,107.28408564814815,91.83333333333333,107.28275462962964,94.25,107.28142361111112C96.66666666666667,107.28009259259261,99.08333333333334,107.27876157407408,101.50000000000001,107.27743055555555C103.91666666666667,107.27609953703704,106.33333333333334,107.27476851851851,108.75,107.2734375C111.16666666666667,107.27210648148149,113.58333333333333,107.27077546296296,116,107.26944444444445C118.41666666666667,107.26811342592593,120.83333333333334,107.2667824074074,123.25000000000001,107.26545138888889C125.66666666666667,107.26412037037038,128.08333333333334,107.26278935185185,130.5,107.26145833333334C132.91666666666666,107.26012731481482,135.33333333333334,107.2587962962963,137.75,107.25746527777778C140.16666666666666,107.25613425925927,142.58333333333334,107.25480324074074,145,107.25347222222223C147.41666666666666,107.25214120370372,149.83333333333334,107.25081018518519,152.25,107.24947916666667C154.66666666666666,107.24814814814816,157.08333333333334,107.24681712962962,159.5,107.2454861111111C161.91666666666666,107.24415509259259,164.33333333333334,107.24282407407406,166.75,107.24149305555555C169.16666666666666,107.24016203703704,171.58333333333334,107.23883101851851,174,107.2375C176.41666666666666,107.23616898148148,178.83333333333334,107.23483796296296,181.25,107.23350694444444C183.66666666666666,107.23217592592593,186.08333333333334,107.2308449074074,188.5,107.22951388888889C190.91666666666666,107.22818287037038,193.33333333333334,107.22685185185185,195.75,107.22552083333333C198.16666666666669,107.22418981481482,200.58333333333334,107.22285879629631,203.00000000000003,107.22152777777778C205.41666666666669,107.22019675925927,207.83333333333331,107.21886574074072,210.24999999999997,107.21753472222221C212.66666666666666,107.21620370370368,215.08333333333331,107.21487268518517,217.5,107.21354166666666C219.91666666666666,107.21221064814814,222.33333333333334,107.21087962962962,224.75,107.2095486111111C227.16666666666666,107.20821759259259,229.58333333333334,107.20688657407408,232,107.20555555555556C234.41666666666666,107.20422453703705,236.83333333333334,107.20289351851851,239.25,107.2015625C241.66666666666669,107.20023148148148,244.08333333333334,107.19890046296297,246.50000000000003,107.19756944444445C248.91666666666669,107.19623842592594,251.33333333333331,107.19490740740741,253.74999999999997,107.1935763888889C256.16666666666663,107.19224537037037,258.5833333333333,107.19091435185186,261,107.18958333333333C263.4166666666667,107.18825231481482,265.8333333333333,107.18692129629629,268.25,107.18559027777778C270.6666666666667,107.18425925925926,273.0833333333333,107.18292824074074,275.5,107.18159722222222C277.9166666666667,107.18026620370371,280.3333333333333,107.17893518518518,282.75,107.17760416666667C285.1666666666667,107.17627314814816,287.5833333333333,107.17494212962963,290,107.17361111111111C292.4166666666667,107.1722800925926,294.8333333333333,107.17094907407407,297.25,107.16961805555556C299.6666666666667,107.16828703703705,302.0833333333333,107.16695601851852,304.5,107.165625C306.9166666666667,107.16429398148149,309.3333333333333,107.16296296296296,311.75,107.16163194444445C314.1666666666667,107.16030092592594,316.5833333333333,107.1589699074074,319,107.15763888888888C321.4166666666667,107.15630787037037,323.8333333333333,107.15497685185184,326.25,107.15364583333333C328.6666666666667,107.15231481481482,331.0833333333333,107.15098379629629,333.5,107.14965277777777C335.9166666666667,107.14832175925926,338.3333333333333,107.14699074074073,340.75,107.14565972222222C343.1666666666667,107.1443287037037,345.5833333333333,107.14299768518518,348,107.14166666666667C350.4166666666667,107.14033564814815,352.8333333333333,107.13900462962962,355.25,107.13767361111111C357.6666666666667,107.1363425925926,360.0833333333333,107.13501157407407,362.5,107.13368055555556C364.9166666666667,107.13234953703704,367.3333333333333,107.1310185185185,369.75,107.12968749999999C372.1666666666667,107.12835648148148,374.5833333333333,107.12702546296295,377,107.12569444444443C379.4166666666667,107.12436342592592,381.8333333333333,107.1230324074074,384.25,107.12170138888888C386.6666666666667,107.12037037037037,389.0833333333333,107.11903935185184,391.5,107.11770833333333C393.9166666666667,107.11637731481481,396.33333333333337,107.1150462962963,398.75000000000006,107.11371527777779C401.16666666666674,107.11238425925927,403.58333333333337,107.11105324074074,406.00000000000006,107.10972222222223C408.4166666666667,107.10839120370372,410.8333333333333,107.10706018518519,413.24999999999994,107.10572916666668C415.66666666666663,107.10439814814815,418.08333333333326,107.10306712962962,420.49999999999994,107.10173611111111C422.91666666666663,107.10040509259258,425.3333333333333,107.09907407407407,427.75,107.09774305555555C430.1666666666667,107.09641203703704,432.5833333333333,107.09508101851851,435,107.09375C437.4166666666667,107.09241898148149,439.8333333333333,107.09108796296296,442.25,107.08975694444445C444.6666666666667,107.08842592592593,447.0833333333333,107.0870949074074,449.5,107.08576388888889C451.9166666666667,107.08443287037038,454.3333333333333,107.08310185185185,456.75,107.08177083333334C459.1666666666667,107.08043981481482,461.5833333333333,107.0791087962963,464,107.07777777777778C466.4166666666667,107.07644675925927,468.8333333333333,107.07511574074074,471.25,107.07378472222223C473.6666666666667,107.07245370370372,476.0833333333333,107.07112268518517,478.5,107.06979166666666C480.9166666666667,107.06846064814813,483.33333333333337,107.06712962962962,485.75000000000006,107.0657986111111C488.16666666666674,107.06446759259259,490.58333333333337,107.06313657407406,493.00000000000006,107.06180555555555C495.4166666666667,107.06047453703704,497.8333333333333,107.05914351851851,500.24999999999994,107.0578125C502.66666666666663,107.05648148148148,505.08333333333326,107.05515046296296,507.49999999999994,107.05381944444444C509.91666666666663,107.05248842592593,512.3333333333333,107.0511574074074,514.75,107.04982638888889C517.1666666666666,107.04849537037038,519.5833333333334,107.04716435185185,522,107.04583333333333C524.4166666666666,107.04450231481482,526.8333333333334,107.04317129629628,529.25,107.04184027777777C531.6666666666666,107.04050925925925,534.0833333333334,107.03917824074074,536.5,107.03784722222223C538.9166666666666,107.03651620370371,541.3333333333334,107.03518518518517,543.75,107.03385416666666C546.1666666666666,107.03252314814814,548.5833333333334,107.03119212962963,551,107.02986111111112C553.4166666666666,107.0285300925926,555.8333333333334,107.02719907407408,558.25,107.02586805555556C560.6666666666666,107.02453703703705,563.0833333333334,107.02320601851852,565.5,107.02187500000001C567.9166666666666,107.0205439814815,570.3333333333334,107.01921296296297,572.75,107.01788194444445C575.1666666666666,107.01655092592594,577.5833333333334,107.0152199074074,580,107.01388888888889C582.4166666666666,107.01255787037037,584.8333333333334,107.01122685185184,587.25,107.00989583333333C589.6666666666666,107.00856481481482,592.0833333333334,107.00723379629629,594.5,107.00590277777778C596.9166666666666,107.00457175925926,599.3333333333334,107.00324074074074,601.75,107.00190972222222C604.1666666666666,107.00057870370371,606.5833333333334,106.99924768518518,609,106.99791666666667C611.4166666666666,106.99658564814816,613.8333333333334,106.99525462962963,616.25,106.99392361111111C618.6666666666666,106.9925925925926,621.0833333333334,106.99126157407407,623.5,106.98993055555556C625.9166666666666,106.98859953703705,628.3333333333334,106.9872685185185,630.75,106.98593749999999C633.1666666666666,106.98460648148148,635.5833333333334,106.98327546296295,638,106.98194444444444C640.4166666666666,106.98061342592592,642.8333333333334,106.9792824074074,645.25,106.97795138888888C647.6666666666666,106.97662037037037,650.0833333333334,106.97528935185184,652.5,106.97395833333333C654.9166666666666,106.97262731481482,657.3333333333334,106.97129629629629,659.75,106.96996527777777C662.1666666666666,106.96863425925926,664.5833333333334,106.96730324074073,667,106.96597222222222C669.4166666666666,106.9646412037037,671.8333333333334,106.9633101851852,674.25,106.96197916666668C676.6666666666666,106.96064814814817,679.0833333333334,106.95931712962962,681.5,106.95798611111111C683.9166666666666,106.9566550925926,686.3333333333334,106.95532407407407,688.75,106.95399305555556C691.1666666666666,106.95266203703704,693.5833333333334,106.95133101851852,696,106.95C698.4166666666666,106.94866898148149,700.8333333333334,106.94733796296296,703.25,106.94600694444445C705.6666666666666,106.94467592592594,708.0833333333334,106.94334490740741,710.5,106.9420138888889C712.9166666666666,106.94068287037038,715.3333333333334,106.93935185185185,717.75,106.93802083333334C720.1666666666666,106.93668981481483,722.5833333333334,106.9353587962963,725,106.93402777777779C727.4166666666666,106.93269675925927,729.8333333333334,106.93136574074074,732.25,106.93003472222223C734.6666666666666,106.92870370370372,737.0833333333334,106.92737268518518,739.5,106.92604166666666C741.9166666666666,106.92471064814815,744.3333333333334,106.92337962962962,746.75,106.92204861111111C749.1666666666666,106.9207175925926,751.5833333333334,106.91938657407407,754,106.91805555555555C756.4166666666666,106.91672453703704,758.8333333333334,106.91539351851851,761.25,106.9140625C763.6666666666666,106.91273148148149,766.0833333333334,106.91140046296296,768.5,106.91006944444445C770.9166666666666,106.90873842592593,773.3333333333334,106.9074074074074,775.75,106.90607638888889C778.1666666666666,106.90474537037038,780.5833333333334,106.90341435185185,783,106.90208333333334C785.4166666666667,106.90075231481481,787.8333333333334,106.8994212962963,790.2500000000001,106.89809027777777C792.6666666666667,106.89675925925926,795.0833333333335,106.89542824074073,797.5000000000001,106.89409722222221C799.9166666666667,106.8927662037037,802.3333333333335,106.89143518518517,804.7500000000001,106.89010416666666C807.1666666666667,106.88877314814815,809.5833333333335,106.88744212962962,812.0000000000001,106.8861111111111C814.4166666666667,106.88478009259259,816.8333333333333,106.88344907407406,819.2499999999999,106.88211805555555C821.6666666666665,106.88078703703704,824.0833333333333,106.87945601851852,826.4999999999999,106.87812500000001C828.9166666666665,106.8767939814815,831.3333333333333,106.87546296296296,833.7499999999999,106.87413194444444C836.1666666666665,106.87280092592593,838.5833333333333,106.8714699074074,840.9999999999999,106.87013888888889C843.4166666666666,106.86880787037038,845.8333333333333,106.86747685185185,848.25,106.86614583333333C850.6666666666666,106.86481481481482,853.0833333333334,106.8634837962963,855.5,106.86215277777778C857.9166666666666,106.86082175925927,860.3333333333334,106.85949074074074,862.75,106.85815972222223C865.1666666666666,106.85682870370371,867.5833333333334,106.85549768518518,870,106.85416666666667C872.4166666666666,106.85283564814816,874.8333333333334,106.85150462962963,877.25,106.85017361111112C879.6666666666666,106.8488425925926,882.0833333333334,106.84751157407408,884.5,106.84618055555556C886.9166666666666,106.84484953703705,889.3333333333334,106.84351851851852,891.75,106.84218750000001C894.1666666666666,106.8408564814815,896.5833333333334,106.83952546296295,899,106.83819444444444C901.4166666666666,106.83686342592593,903.8333333333334,106.8355324074074,906.25,106.83420138888889C908.6666666666666,106.83287037037037,911.0833333333334,106.83153935185184,913.5,106.83020833333333C915.9166666666666,106.82887731481482,918.3333333333334,106.82754629629629,920.75,106.82621527777778C923.1666666666666,106.82488425925926,925.5833333333334,106.82355324074074,928,106.82222222222222C930.4166666666666,106.82089120370371,932.8333333333334,106.81956018518518,935.25,106.81822916666667C937.6666666666666,106.81689814814816,940.0833333333334,106.81556712962963,942.5,106.81423611111111C944.9166666666666,106.8129050925926,947.3333333333334,106.81157407407406,949.75,106.81024305555555C952.1666666666666,106.80891203703703,954.5833333333334,106.8075810185185,957,106.80624999999999C959.4166666666666,106.80491898148148,961.8333333333334,106.80358796296295,964.25,106.80225694444444C966.6666666666667,106.80092592592592,969.0833333333334,106.7995949074074,971.5000000000001,106.79826388888888C973.9166666666667,106.79693287037037,976.3333333333335,106.79560185185184,978.7500000000001,106.79427083333333C981.1666666666667,106.79293981481482,983.5833333333335,106.79160879629629,986.0000000000001,106.79027777777777C988.4166666666667,106.78894675925926,990.8333333333335,106.78761574074075,993.2500000000001,106.78628472222223C995.6666666666667,106.78495370370372,998.0833333333333,106.78362268518518,1000.4999999999999,106.78229166666667C1002.9166666666665,106.78096064814814,1005.3333333333333,106.77962962962962,1007.7499999999999,106.77829861111111C1010.1666666666665,106.7769675925926,1012.5833333333333,106.77563657407407,1014.9999999999999,106.77430555555556C1017.4166666666665,106.77297453703704,1019.8333333333333,106.77164351851852,1022.2499999999999,106.7703125C1024.6666666666665,106.76898148148149,1027.0833333333333,106.76765046296296,1029.5,106.76631944444445C1031.9166666666667,106.76498842592594,1034.3333333333333,106.76365740740741,1036.75,106.7623263888889C1039.1666666666667,106.76099537037038,1041.5833333333333,106.75966435185185,1044,106.75833333333334C1046.4166666666667,106.75700231481483,1048.8333333333333,106.75567129629628,1051.25,106.75434027777777C1053.6666666666667,106.75300925925926,1056.0833333333333,106.75167824074073,1058.5,106.75034722222222C1060.9166666666667,106.7490162037037,1063.3333333333333,106.74768518518518,1065.75,106.74635416666666C1068.1666666666667,106.74502314814815,1070.5833333333333,106.74369212962962,1073,106.74236111111111C1075.4166666666667,106.7410300925926,1077.8333333333333,106.73969907407407,1080.25,106.73836805555555C1082.6666666666667,106.73703703703704,1085.0833333333333,106.73570601851851,1087.5,106.734375C1089.9166666666667,106.73304398148149,1092.3333333333333,106.73171296296296,1094.75,106.73038194444445C1097.1666666666667,106.72905092592593,1099.5833333333333,106.7277199074074,1102,106.72638888888889C1104.4166666666667,106.72505787037038,1106.8333333333333,106.72372685185184,1109.25,106.72239583333332C1111.6666666666667,106.72106481481481,1114.0833333333333,106.7197337962963,1116.5,106.71840277777778C1118.9166666666667,106.71707175925927,1121.3333333333333,106.71574074074073,1123.75,106.71440972222221C1126.1666666666667,106.7130787037037,1128.5833333333333,106.71174768518519,1131,106.71041666666667C1133.4166666666667,106.70908564814816,1135.8333333333333,106.70775462962963,1138.25,106.70642361111112C1140.6666666666667,106.7050925925926,1143.0833333333333,106.70376157407408,1145.5,106.70243055555557C1147.9166666666667,106.70109953703705,1150.3333333333333,106.69976851851852,1152.75,106.69843750000001C1155.1666666666667,106.6971064814815,1157.5833333333333,106.69710648148148,1160,106.69444444444444C1162.4166666666667,106.6917824074074,1164.8333333333333,105.09722222222223,1167.25,104.29861111111111C1169.6666666666667,103.5,1172.0833333333333,102.70138888888889,1174.5,101.90277777777777C1176.9166666666667,101.10416666666666,1179.3333333333333,100.30555555555556,1181.75,99.50694444444444C1184.1666666666667,98.70833333333333,1186.5833333333333,97.90972222222223,1189,97.11111111111111C1191.4166666666667,96.3125,1193.8333333333333,95.51388888888889,1196.25,94.71527777777777C1198.6666666666667,93.91666666666666,1201.0833333333333,93.11805555555556,1203.5,92.31944444444444C1205.9166666666667,91.52083333333333,1208.3333333333333,90.72222222222223,1210.75,89.92361111111111C1213.1666666666667,89.125,1215.5833333333333,88.32638888888889,1218,87.52777777777777C1220.4166666666667,86.72916666666666,1222.8333333333333,85.93055555555556,1225.25,85.13194444444444C1227.6666666666667,84.33333333333333,1230.0833333333333,83.53472222222223,1232.5,82.73611111111111C1234.9166666666667,81.9375,1237.3333333333333,81.13888888888889,1239.75,80.34027777777777C1242.1666666666667,79.54166666666666,1244.5833333333333,78.74305555555556,1247,77.94444444444444C1249.4166666666667,77.14583333333333,1251.8333333333333,76.34722222222221,1254.25,75.5486111111111C1256.6666666666667,74.74999999999999,1259.0833333333333,73.95138888888889,1261.5,73.15277777777777C1263.9166666666667,72.35416666666666,1266.3333333333333,71.55555555555556,1268.75,70.75694444444444C1271.1666666666667,69.95833333333333,1273.5833333333333,69.15972222222223,1276,68.36111111111111C1278.4166666666667,67.5625,1280.8333333333333,66.76388888888889,1283.25,65.96527777777777C1285.6666666666667,65.16666666666666,1288.0833333333333,64.36805555555556,1290.5,63.56944444444445C1292.9166666666667,62.77083333333334,1295.3333333333333,61.97222222222223,1297.75,61.173611111111114C1300.1666666666667,60.375,1302.5833333333333,59.576388888888886,1305,58.77777777777777C1307.4166666666667,57.97916666666666,1309.8333333333333,57.18055555555556,1312.25,56.38194444444445C1314.6666666666667,55.58333333333334,1317.0833333333333,54.78472222222223,1319.5,53.986111111111114C1321.9166666666667,53.1875,1324.3333333333333,52.388888888888886,1326.75,51.59027777777777C1329.1666666666667,50.79166666666666,1331.5833333333333,49.99305555555556,1334,49.19444444444445C1336.4166666666667,48.39583333333334,1338.8333333333333,47.597222222222236,1341.25,46.79861111111112C1343.6666666666667,46.00000000000001,1346.0833333333333,45.201388888888886,1348.5,44.40277777777777C1350.9166666666667,43.60416666666666,1353.3333333333333,42.80555555555556,1355.75,42.00694444444445C1358.1666666666667,41.20833333333334,1360.5833333333333,40.40972222222223,1363,39.611111111111114C1365.4166666666667,38.8125,1367.8333333333333,38.013888888888886,1370.25,37.21527777777777C1372.6666666666667,36.41666666666666,1375.0833333333333,35.61805555555556,1377.5,34.81944444444445C1379.9166666666667,34.02083333333334,1382.3333333333333,33.22222222222223,1384.75,32.423611111111114C1387.1666666666667,31.625,1389.5833333333333,30.826388888888882,1392,30.02777777777777C1394.4166666666667,29.22916666666666,1396.8333333333333,28.43055555555556,1399.25,27.63194444444445C1401.6666666666667,26.83333333333334,1404.0833333333333,26.034722222222225,1406.5,25.23611111111111C1408.9166666666667,24.437499999999996,1411.3333333333333,23.638888888888882,1413.75,22.84027777777777C1416.1666666666667,22.04166666666666,1418.5833333333333,21.24305555555556,1421,20.44444444444445C1423.4166666666667,19.64583333333334,1425.8333333333333,18.847222222222225,1428.25,18.04861111111111C1430.6666666666667,17.249999999999996,1433.0833333333333,16.451388888888882,1435.5,15.652777777777773C1437.9166666666667,14.854166666666663,1440.3333333333333,14.055555555555559,1442.75,13.256944444444448C1445.1666666666667,12.458333333333337,1447.5833333333333,11.659722222222225,1450,10.86111111111111" fill="transparent" stroke-linecap="round" stroke="#E7C6DF" stroke-width="2"></path><g class="visx-group visx-axis visx-axis-bottom" transform="translate(0, 115)"><g class="visx-group visx-axis-tick" transform="translate(0, 0)"><line class="visx-line" x1="0" y1="0" x2="0" y2="8" fill="transparent" shape-rendering="crispEdges" stroke="#000" stroke-width="0" stroke-linecap="square"></line><svg x="0" y="0" font-size="10" style="overflow:visible"><text transform="" x="0" y="18" fill="#000" font-size="10" text-anchor="middle"><tspan x="0" dy="0em">0%</tspan></text></svg></g><g class="visx-group visx-axis-tick" transform="translate(0, 0)"><line class="visx-line" x1="362.5" y1="0" x2="362.5" y2="8" fill="transparent" shape-rendering="crispEdges" stroke="#000" stroke-width="0" stroke-linecap="square"></line><svg x="0" y="0" font-size="10" style="overflow:visible"><text transform="" x="362.5" y="18" fill="#000" font-size="10" text-anchor="middle"><tspan x="362.5" dy="0em">25%</tspan></text></svg></g><g class="visx-group visx-axis-tick" transform="translate(0, 0)"><line class="visx-line" x1="725" y1="0" x2="725" y2="8" fill="transparent" shape-rendering="crispEdges" stroke="#000" stroke-width="0" stroke-linecap="square"></line><svg x="0" y="0" font-size="10" style="overflow:visible"><text transform="" x="725" y="18" fill="#000" font-size="10" text-anchor="middle"><tspan x="725" dy="0em">50%</tspan></text></svg></g><g class="visx-group visx-axis-tick" transform="translate(0, 0)"><line class="visx-line" x1="1087.5" y1="0" x2="1087.5" y2="8" fill="transparent" shape-rendering="crispEdges" stroke="#000" stroke-width="0" stroke-linecap="square"></line><svg x="0" y="0" font-size="10" style="overflow:visible"><text transform="" x="1087.5" y="18" fill="#000" font-size="10" text-anchor="middle"><tspan x="1087.5" dy="0em">75%</tspan></text></svg></g><g class="visx-group visx-axis-tick" transform="translate(0, 0)"><line class="visx-line" x1="1450" y1="0" x2="1450" y2="8" fill="transparent" shape-rendering="crispEdges" stroke="#000" stroke-width="0" stroke-linecap="square"></line><svg x="0" y="0" font-size="10" style="overflow:visible"><text transform="" x="1450" y="18" fill="#000" font-size="10" text-anchor="middle"><tspan x="1450" dy="0em">100%</tspan></text></svg></g><line class="visx-line visx-axis-line" x1="0.5" y1="0" x2="1450.5" y2="0" fill="transparent" shape-rendering="crispEdges" stroke="#222" stroke-width="0"></line></g><g class="visx-group visx-axis visx-axis-left" transform="translate(0, 0)"><g class="visx-group visx-axis-tick" transform="translate(0, 0)"><line class="visx-line" x1="0" y1="115" x2="-8" y2="115" fill="transparent" shape-rendering="crispEdges" stroke="#222" stroke-width="0" stroke-linecap="square"></line><svg x="-30" y="0" font-size="8" style="overflow:visible"><text transform="" x="-8" y="115" fill="#000" font-size="8" text-anchor="start"><tspan x="-8" dy="0em">0%</tspan></text></svg></g><g class="visx-group visx-axis-tick" transform="translate(0, 0)"><line class="visx-line" x1="0" y1="51.11111111111111" x2="-8" y2="51.11111111111111" fill="transparent" shape-rendering="crispEdges" stroke="#222" stroke-width="0" stroke-linecap="square"></line><svg x="-30" y="0" font-size="8" style="overflow:visible"><text transform="" x="-8" y="51.11111111111111" fill="#000" font-size="8" text-anchor="start"><tspan x="-8" dy="0em">50%</tspan></text></svg></g><line class="visx-line visx-axis-line" x1="0" y1="115.5" x2="0" y2="0.5" fill="transparent" shape-rendering="crispEdges" stroke="#222" stroke-width="0"></line></g><rect class="visx-bar" width="1450" height="115" fill="transparent"></rect><line class="visx-line" x1="1160" y1="28" x2="1160" y2="115" fill="transparent" shape-rendering="crispEdges" stroke="#0062D2" stroke-width="1" pointer-events="none" stroke-dasharray="5,2"></line><svg x="0" y="0" font-size="10px" style="overflow:visible"><text transform="" x="1160" y="20" font-size="10px" fill="#fff" stroke="#fff" stroke-width="0.8em" text-anchor="middle"><tspan x="1160" dy="0.355em">Optimal 80%</tspan></text></svg><svg x="0" y="0" font-size="10px" style="overflow:visible"><text transform="" x="1160" y="20" font-size="10px" fill="#62677B" text-anchor="middle"><tspan x="1160" dy="0.355em">Optimal 80%</tspan></text></svg></g></svg>