<?xml version="1.0"?><svg xmlns="http://www.w3.org/2000/svg" xmlns:xlink= "http://www.w3.org/1999/xlink" style="background: white;" width="1500" height="300"> <g style="color: black; font-size: 13px; font-family: sans-serif; transform: translate(18px, 25px);"><g><circle r="3" cx="-6" cy="-5" style="fill: #1AD4B3" /><text>Borrow APR, variable</text></g><g style="transform: translateX(150px);"><circle r="3" cx="-6" cy="-5" style="fill: #101423" /><text>Borrow APR, stable</text></g></g><g class="visx-group" transform="translate(45, 50)"><g class="visx-group visx-rows" transform="translate(0, 0)"><line class="visx-line" x1="0" y1="155" x2="1425" y2="155" fill="transparent" shape-rendering="crispEdges" stroke="#F2F0F9" stroke-width="1" pointer-events="none"></line><line class="visx-line" x1="0" y1="77.5" x2="1425" y2="77.5" fill="transparent" shape-rendering="crispEdges" stroke="#F2F0F9" stroke-width="1" pointer-events="none"></line><line class="visx-line" x1="0" y1="0" x2="1425" y2="0" fill="transparent" shape-rendering="crispEdges" stroke="#F2F0F9" stroke-width="1" pointer-events="none"></line></g><path class="visx-linepath" d="M0,154.99999999982563C2.375,154.9709374998983,4.75,154.94187499997093,7.125,154.9128125C9.5,154.88375000002907,11.875,154.8546875,14.25,154.825625C16.625,154.7965625,19,154.7675,21.375,154.7384375C23.75,154.709375,26.125,154.6803125,28.5,154.65125C30.875,154.6221875,33.25,154.59312500000001,35.625,154.5640625C38,154.535,40.375,154.50593750000002,42.75,154.476875C45.125,154.4478125,47.50000000000001,154.41875000000002,49.87500000000001,154.3896875C52.25000000000001,154.360625,54.625,154.33156250000002,57,154.3025C59.375,154.2734375,61.75,154.24437500000002,64.125,154.2153125C66.5,154.18625,68.875,154.15718750000002,71.25,154.128125C73.625,154.0990625,76,154.07,78.375,154.04093749999998C80.75,154.01187499999997,83.125,153.9828125,85.5,153.95374999999999C87.875,153.92468749999998,90.25,153.89562499999997,92.625,153.8665625C95,153.83749999999998,97.37500000000001,153.80843750000003,99.75000000000001,153.77937500000002C102.12500000000001,153.7503125,104.5,153.72125,106.875,153.6921875C109.25,153.66312499999998,111.625,153.6340625,114,153.605C116.375,153.57593749999998,118.75000000000001,153.546875,121.12500000000001,153.5178125C123.50000000000001,153.48874999999998,125.875,153.4596875,128.25,153.430625C130.625,153.40156249999998,133,153.3725,135.375,153.3434375C137.75,153.31437499999998,140.125,153.2853125,142.5,153.25625C144.875,153.22718749999999,147.25,153.198125,149.625,153.1690625C152,153.14,154.375,153.1109375,156.75,153.081875C159.125,153.0528125,161.5,153.02375,163.875,152.9946875C166.25,152.965625,168.625,152.9365625,171,152.9075C173.375,152.8784375,175.75,152.849375,178.125,152.8203125C180.5,152.79125,182.875,152.7621875,185.25,152.733125C187.625,152.7040625,190,152.675,192.375,152.6459375C194.75,152.616875,197.12500000000003,152.5878125,199.50000000000003,152.55875C201.875,152.5296875,204.25,152.500625,206.62499999999997,152.4715625C208.99999999999997,152.4425,211.375,152.41343750000001,213.75,152.384375C216.125,152.3553125,218.5,152.32625000000002,220.875,152.2971875C223.25,152.268125,225.625,152.23906250000002,228,152.21C230.375,152.1809375,232.75,152.151875,235.125,152.12281249999998C237.5,152.09374999999997,239.87500000000003,152.06468750000002,242.25000000000003,152.035625C244.625,152.00656250000003,247,151.97750000000002,249.37499999999997,151.9484375C251.74999999999997,151.919375,254.125,151.89031250000002,256.5,151.86125C258.875,151.8321875,261.25,151.803125,263.625,151.77406249999999C266,151.74499999999998,268.375,151.7159375,270.75,151.686875C273.125,151.65781249999998,275.5,151.62875000000003,277.875,151.59968750000002C280.25,151.570625,282.625,151.54156250000003,285,151.51250000000002C287.375,151.4834375,289.75,151.454375,292.125,151.4253125C294.5,151.39624999999998,296.875,151.3671875,299.25,151.338125C301.625,151.30906249999998,304,151.28,306.375,151.2509375C308.75,151.22187499999998,311.125,151.1928125,313.5,151.16375C315.875,151.13468749999998,318.25,151.105625,320.625,151.0765625C323,151.04749999999999,325.375,151.0184375,327.75,150.989375C330.125,150.9603125,332.5,150.93125,334.875,150.9021875C337.25,150.873125,339.625,150.8440625,342,150.815C344.375,150.7859375,346.75,150.756875,349.125,150.7278125C351.5,150.69875,353.875,150.6696875,356.25,150.640625C358.625,150.6115625,361,150.5825,363.375,150.5534375C365.75,150.524375,368.125,150.4953125,370.5,150.46625C372.875,150.4371875,375.25,150.408125,377.625,150.3790625C380,150.35,382.375,150.3209375,384.75,150.291875C387.125,150.2628125,389.50000000000006,150.23375000000001,391.87500000000006,150.2046875C394.25000000000006,150.175625,396.62500000000006,150.14656250000002,399.00000000000006,150.1175C401.375,150.0884375,403.75,150.05937500000002,406.12499999999994,150.0303125C408.49999999999994,150.00125,410.87499999999994,149.97218750000002,413.24999999999994,149.943125C415.62499999999994,149.9140625,418,149.885,420.375,149.85593749999998C422.75,149.82687499999997,425.125,149.79781250000002,427.5,149.76875C429.875,149.7396875,432.25,149.71062500000002,434.625,149.6815625C437,149.6525,439.375,149.62343750000002,441.75,149.594375C444.125,149.5653125,446.5,149.53625,448.875,149.5071875C451.25,149.47812499999998,453.625,149.4490625,456,149.42C458.375,149.39093749999998,460.75,149.361875,463.125,149.3328125C465.5,149.30374999999998,467.875,149.27468750000003,470.25,149.24562500000002C472.625,149.2165625,475.00000000000006,149.1875,477.37500000000006,149.1584375C479.75000000000006,149.12937499999998,482.12500000000006,149.1003125,484.50000000000006,149.07125C486.875,149.04218749999998,489.25,149.013125,491.62499999999994,148.9840625C493.99999999999994,148.95499999999998,496.37499999999994,148.9259375,498.74999999999994,148.896875C501.12499999999994,148.86781249999999,503.5,148.83875,505.875,148.8096875C508.25,148.780625,510.625,148.7515625,513,148.7225C515.375,148.6934375,517.75,148.664375,520.125,148.6353125C522.5,148.60625,524.875,148.5771875,527.25,148.548125C529.625,148.5190625,532,148.49,534.375,148.4609375C536.75,148.431875,539.125,148.4028125,541.5,148.37375C543.875,148.3446875,546.25,148.315625,548.625,148.2865625C551,148.2575,553.375,148.2284375,555.75,148.199375C558.125,148.1703125,560.5,148.14125,562.875,148.1121875C565.25,148.083125,567.625,148.05406250000001,570,148.025C572.375,147.9959375,574.75,147.96687500000002,577.125,147.9378125C579.5,147.90875,581.875,147.87968750000002,584.25,147.850625C586.625,147.8215625,589,147.79250000000002,591.375,147.7634375C593.75,147.734375,596.125,147.70531250000002,598.5,147.67625C600.875,147.6471875,603.25,147.618125,605.625,147.58906249999998C608,147.55999999999997,610.375,147.5309375,612.75,147.50187499999998C615.125,147.47281249999997,617.5,147.44375000000002,619.875,147.4146875C622.25,147.385625,624.625,147.35656250000002,627,147.32750000000001C629.375,147.2984375,631.75,147.269375,634.125,147.2403125C636.5,147.21124999999998,638.875,147.1821875,641.25,147.153125C643.625,147.12406249999998,646,147.09500000000003,648.375,147.06593750000002C650.75,147.036875,653.125,147.00781250000003,655.5,146.97875000000002C657.875,146.9496875,660.25,146.920625,662.625,146.8915625C665,146.86249999999998,667.375,146.8334375,669.75,146.804375C672.125,146.77531249999998,674.5,146.74625,676.875,146.7171875C679.25,146.68812499999999,681.625,146.6590625,684,146.63C686.375,146.6009375,688.75,146.571875,691.125,146.5428125C693.5,146.51375,695.875,146.4846875,698.25,146.455625C700.625,146.4265625,703,146.3975,705.375,146.3684375C707.75,146.339375,710.125,146.3103125,712.5,146.28125C714.875,146.2521875,717.25,146.223125,719.625,146.1940625C722,146.165,724.375,146.1359375,726.75,146.106875C729.125,146.0778125,731.5,146.04875,733.875,146.0196875C736.25,145.990625,738.625,145.9615625,741,145.9325C743.375,145.9034375,745.75,145.87437500000001,748.125,145.8453125C750.5,145.81625,752.875,145.78718750000002,755.25,145.758125C757.625,145.7290625,760,145.70000000000002,762.375,145.6709375C764.75,145.641875,767.125,145.61281250000002,769.5,145.58375C771.875,145.5546875,774.2500000000001,145.52562500000002,776.6250000000001,145.4965625C779.0000000000001,145.4675,781.3750000000001,145.43843750000002,783.7500000000001,145.409375C786.1250000000001,145.3803125,788.5000000000001,145.35125,790.8750000000001,145.32218749999998C793.2500000000001,145.29312499999997,795.6250000000001,145.26406250000002,798.0000000000001,145.235C800.375,145.20593750000003,802.75,145.17687500000002,805.1249999999999,145.14781250000001C807.4999999999999,145.11875,809.8749999999999,145.08968750000003,812.2499999999999,145.06062500000002C814.6249999999999,145.0315625,816.9999999999999,145.0025,819.3749999999999,144.9734375C821.7499999999999,144.94437499999998,824.1249999999999,144.9153125,826.4999999999999,144.88625C828.8749999999999,144.85718749999998,831.25,144.828125,833.625,144.7990625C836,144.76999999999998,838.375,144.7409375,840.75,144.711875C843.125,144.68281249999998,845.5,144.65375,847.875,144.6246875C850.25,144.59562499999998,852.625,144.5665625,855,144.5375C857.375,144.50843749999999,859.75,144.479375,862.125,144.4503125C864.5,144.42125,866.875,144.3921875,869.25,144.363125C871.625,144.3340625,874,144.305,876.375,144.2759375C878.75,144.246875,881.125,144.2178125,883.5,144.18875C885.875,144.1596875,888.25,144.130625,890.625,144.1015625C893,144.0725,895.375,144.0434375,897.75,144.014375C900.125,143.9853125,902.5,143.95625,904.875,143.9271875C907.25,143.898125,909.625,143.8690625,912,143.84C914.375,143.8109375,916.75,143.781875,919.125,143.7528125C921.5,143.72375,923.875,143.69468750000001,926.25,143.665625C928.625,143.6365625,931,143.60750000000002,933.375,143.5784375C935.75,143.549375,938.125,143.52031250000002,940.5,143.49125C942.875,143.4621875,945.25,143.43312500000002,947.625,143.4040625C950,143.375,952.3750000000001,143.34593750000002,954.7500000000001,143.316875C957.1250000000001,143.2878125,959.5000000000001,143.25875000000002,961.8750000000001,143.2296875C964.2500000000001,143.200625,966.6250000000001,143.1715625,969.0000000000001,143.14249999999998C971.3750000000001,143.11343749999997,973.7500000000001,143.084375,976.1250000000001,143.05531249999999C978.5,143.02624999999998,980.875,142.99718749999997,983.2499999999999,142.968125C985.6249999999999,142.93906249999998,987.9999999999999,142.91000000000003,990.3749999999999,142.88093750000002C992.7499999999999,142.851875,995.1249999999999,142.8228125,997.4999999999999,142.79375C999.8749999999999,142.76468749999998,1002.2499999999999,142.735625,1004.6249999999999,142.7065625C1006.9999999999999,142.67749999999998,1009.375,142.6484375,1011.75,142.619375C1014.125,142.5903125,1016.5,142.56125000000003,1018.875,142.53218750000002C1021.25,142.503125,1023.625,142.4740625,1026,142.445C1028.375,142.41593749999998,1030.75,142.386875,1033.125,142.3578125C1035.5,142.32874999999999,1037.875,142.2996875,1040.25,142.270625C1042.625,142.2415625,1045,142.2125,1047.375,142.1834375C1049.75,142.154375,1052.125,142.1253125,1054.5,142.09625C1056.875,142.0671875,1059.25,142.038125,1061.625,142.0090625C1064,141.98,1066.375,141.9509375,1068.75,141.921875C1071.125,141.8928125,1073.5,141.86375,1075.875,141.8346875C1078.25,141.805625,1080.625,141.7765625,1083,141.7475C1085.375,141.7184375,1087.75,141.689375,1090.125,141.6603125C1092.5,141.63125,1094.875,141.6021875,1097.25,141.573125C1099.625,141.5440625,1102,141.51500000000001,1104.375,141.4859375C1106.75,141.456875,1109.125,141.42781250000002,1111.5,141.39875C1113.875,141.3696875,1116.25,141.34062500000002,1118.625,141.3115625C1121,141.2825,1123.375,141.2534375,1125.75,141.22437499999998C1128.125,141.19531249999997,1130.5,141.16625,1132.875,141.13718749999998C1135.25,141.10812499999997,1137.625,141.108125,1140,141.05C1142.375,140.99187500000002,1144.75,139.1125,1147.125,138.14375C1149.5,137.175,1151.875,136.20625,1154.25,135.2375C1156.625,134.26875,1159,133.3,1161.375,132.33125C1163.75,131.3625,1166.125,130.39374999999998,1168.5,129.42499999999998C1170.875,128.45624999999998,1173.25,127.48750000000001,1175.625,126.51875000000001C1178,125.55000000000001,1180.375,124.58125,1182.75,123.6125C1185.125,122.64375,1187.5,121.67500000000001,1189.875,120.70625000000001C1192.25,119.73750000000001,1194.625,118.76875,1197,117.8C1199.375,116.83125,1201.75,115.8625,1204.125,114.89375C1206.5,113.925,1208.875,112.95624999999998,1211.25,111.98749999999998C1213.625,111.01874999999998,1216,110.05,1218.375,109.08125C1220.75,108.1125,1223.125,107.14375000000001,1225.5,106.17500000000001C1227.875,105.20625000000001,1230.25,104.2375,1232.625,103.26875C1235,102.3,1237.375,101.33125,1239.75,100.3625C1242.125,99.39375,1244.5,98.42499999999998,1246.875,97.45624999999998C1249.25,96.48749999999998,1251.625,95.51875,1254,94.55C1256.375,93.58125,1258.75,92.61250000000001,1261.125,91.64375000000001C1263.5,90.67500000000001,1265.875,89.70625,1268.25,88.7375C1270.625,87.76875,1273,86.8,1275.375,85.83125C1277.75,84.8625,1280.125,83.89374999999998,1282.5,82.92499999999998C1284.875,81.95624999999998,1287.25,80.9875,1289.625,80.01875C1292,79.05,1294.375,78.08125000000001,1296.75,77.11250000000001C1299.125,76.14375000000001,1301.5,75.175,1303.875,74.20625C1306.25,73.2375,1308.625,72.26875,1311,71.3C1313.375,70.33125,1315.75,69.36250000000001,1318.125,68.39375000000001C1320.5,67.42500000000001,1322.875,66.45625,1325.25,65.4875C1327.625,64.51875,1330,63.55000000000001,1332.375,62.58125000000001C1334.75,61.61250000000001,1337.125,60.643750000000004,1339.5,59.675000000000004C1341.875,58.706250000000004,1344.25,57.7375,1346.625,56.76875C1349,55.8,1351.375,54.831250000000004,1353.75,53.862500000000004C1356.125,52.893750000000004,1358.5,51.925,1360.875,50.95625C1363.25,49.9875,1365.625,49.01875000000001,1368,48.05000000000001C1370.375,47.08125000000001,1372.75,46.112500000000004,1375.125,45.143750000000004C1377.5,44.175000000000004,1379.875,43.20625,1382.25,42.2375C1384.625,41.26875,1387,40.300000000000004,1389.375,39.331250000000004C1391.75,38.362500000000004,1394.125,37.39375,1396.5,36.425C1398.875,35.45625,1401.25,34.48750000000001,1403.625,33.51875000000001C1406,32.55000000000001,1408.375,31.581250000000004,1410.75,30.6125C1413.125,29.643749999999997,1415.5,28.674999999999994,1417.875,27.706249999999994C1420.25,26.737499999999994,1422.625,25.76875,1425,24.800000000000004" fill="transparent" stroke-linecap="round" stroke="#1AD4B3" stroke-width="2"></path><g class="visx-group visx-axis visx-axis-bottom" transform="translate(0, 155)"><g class="visx-group visx-axis-tick" transform="translate(0, 0)"><line class="visx-line" x1="0" y1="0" x2="0" y2="8" fill="transparent" shape-rendering="crispEdges" stroke="#F2F0F9" stroke-width="1" stroke-linecap="square"></line><svg x="0" y="0" font-size="11" style="overflow:visible"><text transform="" x="0" y="19" fill="#1B2030" font-size="11" text-anchor="middle"><tspan x="0" dy="0em">0%</tspan></text></svg></g><g class="visx-group visx-axis-tick" transform="translate(0, 0)"><line class="visx-line" x1="356.25" y1="0" x2="356.25" y2="8" fill="transparent" shape-rendering="crispEdges" stroke="#F2F0F9" stroke-width="1" stroke-linecap="square"></line><svg x="0" y="0" font-size="11" style="overflow:visible"><text transform="" x="356.25" y="19" fill="#1B2030" font-size="11" text-anchor="middle"><tspan x="356.25" dy="0em">25%</tspan></text></svg></g><g class="visx-group visx-axis-tick" transform="translate(0, 0)"><line class="visx-line" x1="712.5" y1="0" x2="712.5" y2="8" fill="transparent" shape-rendering="crispEdges" stroke="#F2F0F9" stroke-width="1" stroke-linecap="square"></line><svg x="0" y="0" font-size="11" style="overflow:visible"><text transform="" x="712.5" y="19" fill="#1B2030" font-size="11" text-anchor="middle"><tspan x="712.5" dy="0em">50%</tspan></text></svg></g><g class="visx-group visx-axis-tick" transform="translate(0, 0)"><line class="visx-line" x1="1068.75" y1="0" x2="1068.75" y2="8" fill="transparent" shape-rendering="crispEdges" stroke="#F2F0F9" stroke-width="1" stroke-linecap="square"></line><svg x="0" y="0" font-size="11" style="overflow:visible"><text transform="" x="1068.75" y="19" fill="#1B2030" font-size="11" text-anchor="middle"><tspan x="1068.75" dy="0em">75%</tspan></text></svg></g><g class="visx-group visx-axis-tick" transform="translate(0, 0)"><line class="visx-line" x1="1425" y1="0" x2="1425" y2="8" fill="transparent" shape-rendering="crispEdges" stroke="#F2F0F9" stroke-width="1" stroke-linecap="square"></line><svg x="0" y="0" font-size="11" style="overflow:visible"><text transform="" x="1425" y="19" fill="#1B2030" font-size="11" text-anchor="middle"><tspan x="1425" dy="0em">100%</tspan></text></svg></g></g><g class="visx-group visx-axis visx-axis-left" transform="translate(0, 0)"><g class="visx-group visx-axis-tick" transform="translate(0, 0)"><line class="visx-line" x1="0" y1="155" x2="-8" y2="155" fill="transparent" shape-rendering="crispEdges" stroke="#F2F0F9" stroke-width="1" stroke-linecap="square"></line><svg x="-30" y="0" font-size="11" style="overflow:visible"><text transform="" x="-8" y="155" fill="#1B2030" font-size="11" text-anchor="start"><tspan x="-8" dy="0em">0%</tspan></text></svg></g><g class="visx-group visx-axis-tick" transform="translate(0, 0)"><line class="visx-line" x1="0" y1="77.5" x2="-8" y2="77.5" fill="transparent" shape-rendering="crispEdges" stroke="#F2F0F9" stroke-width="1" stroke-linecap="square"></line><svg x="-30" y="0" font-size="11" style="overflow:visible"><text transform="" x="-8" y="77.5" fill="#1B2030" font-size="11" text-anchor="start"><tspan x="-8" dy="0em">50%</tspan></text></svg></g><g class="visx-group visx-axis-tick" transform="translate(0, 0)"><line class="visx-line" x1="0" y1="0" x2="-8" y2="0" fill="transparent" shape-rendering="crispEdges" stroke="#F2F0F9" stroke-width="1" stroke-linecap="square"></line><svg x="-30" y="0" font-size="11" style="overflow:visible"><text transform="" x="-8" y="0" fill="#1B2030" font-size="11" text-anchor="start"><tspan x="-8" dy="0em">100%</tspan></text></svg></g><line class="visx-line visx-axis-line" x1="0" y1="155.5" x2="0" y2="0.5" fill="transparent" shape-rendering="crispEdges" stroke="#F2F0F9" stroke-width="1"></line></g><rect class="visx-bar" width="1425" height="155" fill="transparent"></rect><line class="visx-line" x1="1140" y1="58" x2="1140" y2="155" fill="transparent" shape-rendering="crispEdges" stroke="#CDC8E1" stroke-width="1" pointer-events="none" stroke-dasharray="5"></line><svg x="0" y="0" font-size="11px" style="overflow:visible"><text transform="" x="1140" y="50" font-size="11px" fill="#555069" stroke="#FFFFFF" stroke-width="1px" text-anchor="middle"><tspan x="1140" dy="0.355em">Optimal utilization 80%</tspan></text></svg><svg x="0" y="0" font-size="11px" style="overflow:visible"><text transform="" x="1140" y="50" font-size="11px" fill="#CDC8E1" text-anchor="middle"><tspan x="1140" dy="0.355em">Optimal utilization 80%</tspan></text></svg></g></svg>