<?xml version="1.0"?><svg xmlns="http://www.w3.org/2000/svg" xmlns:xlink= "http://www.w3.org/1999/xlink" style="background: white;" width="1500" height="185"> <g style="color: black; font-size: 13px; font-family: sans-serif; transform: translate(18px, 25px);"><g><circle r="3" cx="-6" cy="-5" style="fill: #B6509E" /><text>Borrow APR, variable</text></g><g style="transform: translateX(150px);"><circle r="3" cx="-6" cy="-5" style="fill: rgb(231, 198, 223)" /><text>Borrow APR, stable</text></g><g style="transform: translateX(290px);"><circle r="3" cx="-6" cy="-5" style="fill: rgb(0, 98, 210)" /><text>Utilization Rate</text></g></g><g class="visx-group" transform="translate(40, 50)"><g class="visx-group visx-rows" transform="translate(0, 0)"><line class="visx-line" x1="0" y1="115" x2="1450" y2="115" fill="transparent" shape-rendering="crispEdges" stroke="#000" stroke-width="1" stroke-dasharray="3,3" pointer-events="none"></line><line class="visx-line" x1="0" y1="89.44444444444444" x2="1450" y2="89.44444444444444" fill="transparent" shape-rendering="crispEdges" stroke="#000" stroke-width="1" stroke-dasharray="3,3" pointer-events="none"></line><line class="visx-line" x1="0" y1="63.88888888888889" x2="1450" y2="63.88888888888889" fill="transparent" shape-rendering="crispEdges" stroke="#000" stroke-width="1" stroke-dasharray="3,3" pointer-events="none"></line><line class="visx-line" x1="0" y1="38.333333333333336" x2="1450" y2="38.333333333333336" fill="transparent" shape-rendering="crispEdges" stroke="#000" stroke-width="1" stroke-dasharray="3,3" pointer-events="none"></line><line class="visx-line" x1="0" y1="12.777777777777784" x2="1450" y2="12.777777777777784" fill="transparent" shape-rendering="crispEdges" stroke="#000" stroke-width="1" stroke-dasharray="3,3" pointer-events="none"></line></g><path class="visx-linepath" d="M0,114.99999999992902C2.4166666666666665,114.98816872423843,4.833333333333334,114.97633744854784,7.25,114.9645061728395C9.666666666666666,114.95267489713117,12.083333333333334,114.94084362139918,14.5,114.92901234567901C16.916666666666668,114.91718106995884,19.333333333333332,114.90534979423869,21.75,114.89351851851852C24.166666666666668,114.88168724279835,26.583333333333332,114.8698559670782,29,114.85802469135803C31.416666666666668,114.84619341563786,33.833333333333336,114.8343621399177,36.25,114.82253086419753C38.666666666666664,114.81069958847736,41.083333333333336,114.79886831275721,43.5,114.78703703703704C45.91666666666667,114.77520576131687,48.333333333333336,114.7633744855967,50.75000000000001,114.75154320987653C53.16666666666667,114.73971193415636,55.583333333333336,114.7278806584362,58,114.71604938271605C60.416666666666664,114.70421810699588,62.833333333333336,114.69238683127573,65.25,114.68055555555556C67.66666666666667,114.66872427983539,70.08333333333333,114.65689300411523,72.5,114.64506172839506C74.91666666666667,114.6332304526749,77.33333333333333,114.62139917695474,79.75,114.60956790123457C82.16666666666667,114.5977366255144,84.58333333333333,114.58590534979425,87,114.57407407407408C89.41666666666667,114.5622427983539,91.83333333333333,114.55041152263375,94.25,114.53858024691358C96.66666666666667,114.52674897119341,99.08333333333334,114.51491769547326,101.50000000000001,114.50308641975309C103.91666666666667,114.49125514403292,106.33333333333334,114.47942386831276,108.75,114.4675925925926C111.16666666666667,114.45576131687243,113.58333333333333,114.44393004115226,116,114.43209876543209C118.41666666666667,114.42026748971192,120.83333333333334,114.40843621399178,123.25000000000001,114.39660493827161C125.66666666666667,114.38477366255145,128.08333333333334,114.37294238683128,130.5,114.36111111111111C132.91666666666666,114.34927983539094,135.33333333333334,114.33744855967079,137.75,114.32561728395062C140.16666666666666,114.31378600823045,142.58333333333334,114.3019547325103,145,114.29012345679013C147.41666666666666,114.27829218106996,149.83333333333334,114.26646090534979,152.25,114.25462962962962C154.66666666666666,114.24279835390945,157.08333333333334,114.23096707818931,159.5,114.21913580246914C161.91666666666666,114.20730452674897,164.33333333333334,114.19547325102882,166.75,114.18364197530865C169.16666666666666,114.17181069958848,171.58333333333334,114.15997942386832,174,114.14814814814815C176.41666666666666,114.13631687242798,178.83333333333334,114.12448559670781,181.25,114.11265432098764C183.66666666666666,114.10082304526748,186.08333333333334,114.08899176954733,188.5,114.07716049382717C190.91666666666666,114.065329218107,193.33333333333334,114.05349794238684,195.75,114.04166666666667C198.16666666666669,114.0298353909465,200.58333333333334,114.01800411522635,203.00000000000003,114.00617283950618C205.41666666666669,113.99434156378601,207.83333333333331,113.98251028806584,210.24999999999997,113.97067901234567C212.66666666666666,113.9588477366255,215.08333333333331,113.94701646090535,217.5,113.93518518518518C219.91666666666666,113.92335390946502,222.33333333333334,113.91152263374485,224.75,113.8996913580247C227.16666666666666,113.88786008230454,229.58333333333334,113.87602880658437,232,113.8641975308642C234.41666666666666,113.85236625514403,236.83333333333334,113.84053497942388,239.25,113.82870370370371C241.66666666666669,113.81687242798354,244.08333333333334,113.80504115226337,246.50000000000003,113.7932098765432C248.91666666666669,113.78137860082303,251.33333333333331,113.76954732510286,253.74999999999997,113.75771604938271C256.16666666666663,113.74588477366254,258.5833333333333,113.7340534979424,261,113.72222222222223C263.4166666666667,113.71039094650207,265.8333333333333,113.6985596707819,268.25,113.68672839506173C270.6666666666667,113.67489711934157,273.0833333333333,113.6630658436214,275.5,113.65123456790123C277.9166666666667,113.63940329218106,280.3333333333333,113.6275720164609,282.75,113.61574074074073C285.1666666666667,113.60390946502056,287.5833333333333,113.5920781893004,290,113.58024691358024C292.4166666666667,113.56841563786008,294.8333333333333,113.55658436213992,297.25,113.54475308641976C299.6666666666667,113.5329218106996,302.0833333333333,113.52109053497944,304.5,113.50925925925927C306.9166666666667,113.4974279835391,309.3333333333333,113.48559670781893,311.75,113.47376543209876C314.1666666666667,113.46193415637859,316.5833333333333,113.45010288065842,319,113.43827160493827C321.4166666666667,113.42644032921811,323.8333333333333,113.41460905349794,326.25,113.40277777777779C328.6666666666667,113.39094650205763,331.0833333333333,113.37911522633746,333.5,113.36728395061729C335.9166666666667,113.35545267489712,338.3333333333333,113.34362139917695,340.75,113.33179012345678C343.1666666666667,113.31995884773661,345.5833333333333,113.30812757201646,348,113.29629629629629C350.4166666666667,113.28446502057612,352.8333333333333,113.27263374485597,355.25,113.2608024691358C357.6666666666667,113.24897119341563,360.0833333333333,113.23713991769549,362.5,113.22530864197532C364.9166666666667,113.21347736625515,367.3333333333333,113.201646090535,369.75,113.18981481481482C372.1666666666667,113.17798353909465,374.5833333333333,113.16615226337449,377,113.15432098765432C379.4166666666667,113.14248971193415,381.8333333333333,113.13065843621399,384.25,113.11882716049382C386.6666666666667,113.10699588477365,389.0833333333333,113.09516460905348,391.5,113.08333333333333C393.9166666666667,113.07150205761316,396.33333333333337,113.05967078189302,398.75000000000006,113.04783950617285C401.16666666666674,113.03600823045268,403.58333333333337,113.02417695473251,406.00000000000006,113.01234567901234C408.4166666666667,113.00051440329217,410.8333333333333,112.98868312757202,413.24999999999994,112.97685185185185C415.66666666666663,112.96502057613168,418.08333333333326,112.95318930041152,420.49999999999994,112.94135802469135C422.91666666666663,112.92952674897118,425.3333333333333,112.91769547325103,427.75,112.90586419753086C430.1666666666667,112.89403292181069,432.5833333333333,112.88220164609054,435,112.87037037037037C437.4166666666667,112.8585390946502,439.8333333333333,112.84670781893004,442.25,112.83487654320987C444.6666666666667,112.8230452674897,447.0833333333333,112.81121399176955,449.5,112.79938271604938C451.9166666666667,112.78755144032921,454.3333333333333,112.77572016460906,456.75,112.76388888888889C459.1666666666667,112.75205761316872,461.5833333333333,112.74022633744858,464,112.7283950617284C466.4166666666667,112.71656378600824,468.8333333333333,112.70473251028807,471.25,112.6929012345679C473.6666666666667,112.68106995884773,476.0833333333333,112.66923868312757,478.5,112.6574074074074C480.9166666666667,112.64557613168724,483.33333333333337,112.63374485596708,485.75000000000006,112.62191358024691C488.16666666666674,112.61008230452674,490.58333333333337,112.59825102880659,493.00000000000006,112.58641975308642C495.4166666666667,112.57458847736625,497.8333333333333,112.5627572016461,500.24999999999994,112.55092592592592C502.66666666666663,112.53909465020575,505.08333333333326,112.5272633744856,507.49999999999994,112.51543209876543C509.91666666666663,112.50360082304526,512.3333333333333,112.4917695473251,514.75,112.47993827160494C517.1666666666666,112.46810699588477,519.5833333333334,112.4562757201646,522,112.44444444444444C524.4166666666666,112.43261316872429,526.8333333333334,112.42078189300413,529.25,112.40895061728396C531.6666666666666,112.3971193415638,534.0833333333334,112.38528806584362,536.5,112.37345679012346C538.9166666666666,112.36162551440329,541.3333333333334,112.34979423868313,543.75,112.33796296296296C546.1666666666666,112.32613168724279,548.5833333333334,112.31430041152264,551,112.30246913580247C553.4166666666666,112.2906378600823,555.8333333333334,112.27880658436214,558.25,112.26697530864197C560.6666666666666,112.2551440329218,563.0833333333334,112.24331275720165,565.5,112.23148148148148C567.9166666666666,112.21965020576131,570.3333333333334,112.20781893004116,572.75,112.19598765432099C575.1666666666666,112.18415637860082,577.5833333333334,112.17232510288066,580,112.1604938271605C582.4166666666666,112.14866255144032,584.8333333333334,112.13683127572017,587.25,112.125C589.6666666666666,112.11316872427983,592.0833333333334,112.10133744855968,594.5,112.0895061728395C596.9166666666666,112.07767489711934,599.3333333333334,112.06584362139918,601.75,112.05401234567901C604.1666666666666,112.04218106995884,606.5833333333334,112.03034979423869,609,112.01851851851852C611.4166666666666,112.00668724279835,613.8333333333334,111.9948559670782,616.25,111.98302469135803C618.6666666666666,111.97119341563786,621.0833333333334,111.9593621399177,623.5,111.94753086419753C625.9166666666666,111.93569958847736,628.3333333333334,111.92386831275721,630.75,111.91203703703704C633.1666666666666,111.90020576131687,635.5833333333334,111.88837448559671,638,111.87654320987654C640.4166666666666,111.86471193415638,642.8333333333334,111.85288065843622,645.25,111.84104938271605C647.6666666666666,111.82921810699588,650.0833333333334,111.81738683127573,652.5,111.80555555555556C654.9166666666666,111.79372427983539,657.3333333333334,111.78189300411523,659.75,111.77006172839506C662.1666666666666,111.7582304526749,664.5833333333334,111.74639917695474,667,111.73456790123457C669.4166666666666,111.7227366255144,671.8333333333334,111.71090534979425,674.25,111.69907407407408C676.6666666666666,111.6872427983539,679.0833333333334,111.67541152263375,681.5,111.66358024691358C683.9166666666666,111.65174897119341,686.3333333333334,111.63991769547326,688.75,111.62808641975309C691.1666666666666,111.61625514403292,693.5833333333334,111.60442386831275,696,111.59259259259258C698.4166666666666,111.58076131687241,700.8333333333334,111.56893004115227,703.25,111.5570987654321C705.6666666666666,111.54526748971193,708.0833333333334,111.53343621399178,710.5,111.52160493827161C712.9166666666666,111.50977366255144,715.3333333333334,111.49794238683128,717.75,111.48611111111111C720.1666666666666,111.47427983539094,722.5833333333334,111.46244855967079,725,111.45061728395062C727.4166666666666,111.43878600823045,729.8333333333334,111.42695473251028,732.25,111.41512345679011C734.6666666666666,111.40329218106994,737.0833333333334,111.39146090534979,739.5,111.37962962962963C741.9166666666666,111.36779835390948,744.3333333333334,111.35596707818931,746.75,111.34413580246914C749.1666666666666,111.33230452674897,751.5833333333334,111.32047325102882,754,111.30864197530865C756.4166666666666,111.29681069958848,758.8333333333334,111.28497942386831,761.25,111.27314814814814C763.6666666666666,111.26131687242797,766.0833333333334,111.24948559670781,768.5,111.23765432098766C770.9166666666666,111.2258230452675,773.3333333333334,111.21399176954733,775.75,111.20216049382717C778.1666666666666,111.190329218107,780.5833333333334,111.17849794238684,783,111.16666666666667C785.4166666666667,111.1548353909465,787.8333333333334,111.14300411522635,790.2500000000001,111.13117283950618C792.6666666666667,111.11934156378601,795.0833333333335,111.10751028806584,797.5000000000001,111.09567901234567C799.9166666666667,111.0838477366255,802.3333333333335,111.07201646090536,804.7500000000001,111.06018518518519C807.1666666666667,111.04835390946502,809.5833333333335,111.03652263374487,812.0000000000001,111.0246913580247C814.4166666666667,111.01286008230453,816.8333333333333,111.00102880658437,819.2499999999999,110.9891975308642C821.6666666666665,110.97736625514403,824.0833333333333,110.96553497942386,826.4999999999999,110.9537037037037C828.9166666666665,110.94187242798353,831.3333333333333,110.93004115226336,833.7499999999999,110.9182098765432C836.1666666666665,110.90637860082305,838.5833333333333,110.89454732510288,840.9999999999999,110.88271604938272C843.4166666666666,110.87088477366255,845.8333333333333,110.8590534979424,848.25,110.84722222222223C850.6666666666666,110.83539094650206,853.0833333333334,110.82355967078189,855.5,110.81172839506172C857.9166666666666,110.79989711934155,860.3333333333334,110.7880658436214,862.75,110.77623456790123C865.1666666666666,110.76440329218106,867.5833333333334,110.7525720164609,870,110.74074074074073C872.4166666666666,110.72890946502056,874.8333333333334,110.71707818930042,877.25,110.70524691358025C879.6666666666666,110.69341563786008,882.0833333333334,110.68158436213993,884.5,110.66975308641976C886.9166666666666,110.65792181069959,889.3333333333334,110.64609053497942,891.75,110.63425925925925C894.1666666666666,110.62242798353908,896.5833333333334,110.61059670781893,899,110.59876543209876C901.4166666666666,110.58693415637859,903.8333333333334,110.57510288065845,906.25,110.56327160493828C908.6666666666666,110.55144032921811,911.0833333333334,110.53960905349795,913.5,110.52777777777779C915.9166666666666,110.51594650205762,918.3333333333334,110.50411522633745,920.75,110.49228395061728C923.1666666666666,110.48045267489711,925.5833333333334,110.46862139917695,928,110.45679012345678C930.4166666666666,110.44495884773661,932.8333333333334,110.43312757201645,935.25,110.42129629629629C937.6666666666666,110.40946502057614,940.0833333333334,110.39763374485597,942.5,110.38580246913581C944.9166666666666,110.37397119341566,947.3333333333334,110.36213991769549,949.75,110.35030864197532C952.1666666666666,110.33847736625515,954.5833333333334,110.32664609053498,957,110.31481481481481C959.4166666666666,110.30298353909464,961.8333333333334,110.29115226337449,964.25,110.27932098765432C966.6666666666667,110.26748971193415,969.0833333333334,110.25565843621399,971.5000000000001,110.24382716049382C973.9166666666667,110.23199588477367,976.3333333333335,110.22016460905351,978.7500000000001,110.20833333333334C981.1666666666667,110.19650205761317,983.5833333333335,110.184670781893,986.0000000000001,110.17283950617283C988.4166666666667,110.16100823045267,990.8333333333335,110.14917695473251,993.2500000000001,110.13734567901234C995.6666666666667,110.12551440329217,998.0833333333333,110.113683127572,1000.4999999999999,110.10185185185185C1002.9166666666665,110.09002057613168,1005.3333333333333,110.07818930041154,1007.7499999999999,110.06635802469137C1010.1666666666665,110.0545267489712,1012.5833333333333,110.04269547325104,1014.9999999999999,110.03086419753087C1017.4166666666665,110.0190329218107,1019.8333333333333,110.00720164609054,1022.2499999999999,109.99537037037037C1024.6666666666665,109.9835390946502,1027.0833333333333,109.97170781893004,1029.5,109.95987654320987C1031.9166666666667,109.9480452674897,1034.3333333333333,109.93621399176953,1036.75,109.92438271604938C1039.1666666666667,109.91255144032922,1041.5833333333333,109.90072016460907,1044,109.8888888888889C1046.4166666666667,109.87705761316873,1048.8333333333333,109.86522633744856,1051.25,109.85339506172839C1053.6666666666667,109.84156378600822,1056.0833333333333,109.82973251028807,1058.5,109.8179012345679C1060.9166666666667,109.80606995884773,1063.3333333333333,109.79423868312757,1065.75,109.7824074074074C1068.1666666666667,109.77057613168724,1070.5833333333333,109.75874485596708,1073,109.74691358024691C1075.4166666666667,109.73508230452674,1077.8333333333333,109.72325102880659,1080.25,109.71141975308642C1082.6666666666667,109.69958847736625,1085.0833333333333,109.6877572016461,1087.5,109.67592592592592C1089.9166666666667,109.66409465020575,1092.3333333333333,109.6522633744856,1094.75,109.64043209876543C1097.1666666666667,109.62860082304526,1099.5833333333333,109.6167695473251,1102,109.60493827160494C1104.4166666666667,109.59310699588477,1106.8333333333333,109.58127572016461,1109.25,109.56944444444444C1111.6666666666667,109.55761316872427,1114.0833333333333,109.54578189300412,1116.5,109.53395061728395C1118.9166666666667,109.52211934156378,1121.3333333333333,109.51028806584362,1123.75,109.49845679012346C1126.1666666666667,109.48662551440329,1128.5833333333333,109.47479423868313,1131,109.46296296296296C1133.4166666666667,109.45113168724279,1135.8333333333333,109.43930041152264,1138.25,109.42746913580247C1140.6666666666667,109.4156378600823,1143.0833333333333,109.40380658436214,1145.5,109.39197530864197C1147.9166666666667,109.3801440329218,1150.3333333333333,109.36831275720165,1152.75,109.35648148148148C1155.1666666666667,109.34465020576131,1157.5833333333333,109.33281893004116,1160,109.32098765432099C1162.4166666666667,109.30915637860082,1164.8333333333333,109.29732510288066,1167.25,109.2854938271605C1169.6666666666667,109.27366255144032,1172.0833333333333,109.26183127572017,1174.5,109.25C1176.9166666666667,109.23816872427983,1179.3333333333333,109.22633744855968,1181.75,109.2145061728395C1184.1666666666667,109.20267489711934,1186.5833333333333,109.19084362139918,1189,109.17901234567901C1191.4166666666667,109.16718106995884,1193.8333333333333,109.15534979423869,1196.25,109.14351851851852C1198.6666666666667,109.13168724279835,1201.0833333333333,109.1198559670782,1203.5,109.10802469135803C1205.9166666666667,109.09619341563786,1208.3333333333333,109.0843621399177,1210.75,109.07253086419753C1213.1666666666667,109.06069958847736,1215.5833333333333,109.04886831275721,1218,109.03703703703704C1220.4166666666667,109.02520576131687,1222.8333333333333,109.01337448559671,1225.25,109.00154320987654C1227.6666666666667,108.98971193415638,1230.0833333333333,108.97788065843622,1232.5,108.96604938271605C1234.9166666666667,108.95421810699588,1237.3333333333333,108.94238683127573,1239.75,108.93055555555556C1242.1666666666667,108.91872427983539,1244.5833333333333,108.90689300411523,1247,108.89506172839506C1249.4166666666667,108.8832304526749,1251.8333333333333,108.87139917695474,1254.25,108.85956790123457C1256.6666666666667,108.8477366255144,1259.0833333333333,108.83590534979425,1261.5,108.82407407407408C1263.9166666666667,108.8122427983539,1266.3333333333333,108.80041152263375,1268.75,108.78858024691358C1271.1666666666667,108.77674897119341,1273.5833333333333,108.76491769547324,1276,108.75308641975307C1278.4166666666667,108.7412551440329,1280.8333333333333,108.72942386831275,1283.25,108.7175925925926C1285.6666666666667,108.70576131687244,1288.0833333333333,108.69393004115227,1290.5,108.6820987654321C1292.9166666666667,108.67026748971193,1295.3333333333333,108.65843621399178,1297.75,108.64660493827161C1300.1666666666667,108.63477366255144,1302.5833333333333,108.63477366255144,1305,108.61111111111111C1307.4166666666667,108.58744855967079,1309.8333333333333,105.41666666666666,1312.25,103.81944444444444C1314.6666666666667,102.22222222222223,1317.0833333333333,100.625,1319.5,99.02777777777779C1321.9166666666667,97.43055555555557,1324.3333333333333,95.83333333333334,1326.75,94.23611111111111C1329.1666666666667,92.63888888888889,1331.5833333333333,91.04166666666666,1334,89.44444444444444C1336.4166666666667,87.84722222222223,1338.8333333333333,86.25,1341.25,84.65277777777779C1343.6666666666667,83.05555555555557,1346.0833333333333,81.45833333333334,1348.5,79.86111111111111C1350.9166666666667,78.26388888888889,1353.3333333333333,76.66666666666666,1355.75,75.06944444444444C1358.1666666666667,73.47222222222223,1360.5833333333333,71.875,1363,70.27777777777779C1365.4166666666667,68.68055555555557,1367.8333333333333,67.08333333333334,1370.25,65.48611111111111C1372.6666666666667,63.88888888888889,1375.0833333333333,62.291666666666664,1377.5,60.69444444444444C1379.9166666666667,59.09722222222222,1382.3333333333333,57.50000000000001,1384.75,55.902777777777786C1387.1666666666667,54.305555555555564,1389.5833333333333,52.70833333333333,1392,51.11111111111111C1394.4166666666667,49.513888888888886,1396.8333333333333,47.916666666666664,1399.25,46.31944444444444C1401.6666666666667,44.72222222222222,1404.0833333333333,43.12500000000001,1406.5,41.527777777777786C1408.9166666666667,39.930555555555564,1411.3333333333333,38.33333333333333,1413.75,36.73611111111111C1416.1666666666667,35.138888888888886,1418.5833333333333,33.541666666666664,1421,31.944444444444446C1423.4166666666667,30.347222222222225,1425.8333333333333,28.750000000000004,1428.25,27.152777777777782C1430.6666666666667,25.55555555555556,1433.0833333333333,23.95833333333333,1435.5,22.361111111111107C1437.9166666666667,20.763888888888886,1440.3333333333333,19.166666666666668,1442.75,17.569444444444446C1445.1666666666667,15.972222222222225,1447.5833333333333,14.375000000000005,1450,12.777777777777784" fill="transparent" stroke-linecap="round" stroke="#B6509E" stroke-width="2"></path><path class="visx-linepath" d="M0,107.33333333332624C2.4166666666666665,107.33215020575717,4.833333333333334,107.33096707818811,7.25,107.32978395061728C9.666666666666666,107.32860082304646,12.083333333333334,107.32741769547326,14.5,107.32623456790124C16.916666666666668,107.32505144032922,19.333333333333332,107.3238683127572,21.75,107.32268518518518C24.166666666666668,107.32150205761316,26.583333333333332,107.32031893004115,29,107.31913580246913C31.416666666666668,107.31795267489711,33.833333333333336,107.31676954732511,36.25,107.31558641975309C38.666666666666664,107.31440329218107,41.083333333333336,107.31322016460906,43.5,107.31203703703704C45.91666666666667,107.31085390946502,48.333333333333336,107.30967078189302,50.75000000000001,107.308487654321C53.16666666666667,107.30730452674898,55.583333333333336,107.30612139917696,58,107.30493827160494C60.416666666666664,107.30375514403292,62.833333333333336,107.3025720164609,65.25,107.30138888888888C67.66666666666667,107.30020576131686,70.08333333333333,107.29902263374485,72.5,107.29783950617283C74.91666666666667,107.29665637860082,77.33333333333333,107.29547325102881,79.75,107.29429012345679C82.16666666666667,107.29310699588477,84.58333333333333,107.29192386831276,87,107.29074074074074C89.41666666666667,107.28955761316872,91.83333333333333,107.28837448559672,94.25,107.2871913580247C96.66666666666667,107.28600823045268,99.08333333333334,107.28482510288066,101.50000000000001,107.28364197530864C103.91666666666667,107.28245884773662,106.33333333333334,107.28127572016461,108.75,107.2800925925926C111.16666666666667,107.27890946502058,113.58333333333333,107.27772633744857,116,107.27654320987655C118.41666666666667,107.27536008230453,120.83333333333334,107.27417695473251,123.25000000000001,107.27299382716049C125.66666666666667,107.27181069958847,128.08333333333334,107.27062757201647,130.5,107.26944444444445C132.91666666666666,107.26826131687243,135.33333333333334,107.2670781893004,137.75,107.26589506172839C140.16666666666666,107.26471193415637,142.58333333333334,107.26352880658436,145,107.26234567901234C147.41666666666666,107.26116255144032,149.83333333333334,107.25997942386832,152.25,107.2587962962963C154.66666666666666,107.25761316872428,157.08333333333334,107.25643004115227,159.5,107.25524691358025C161.91666666666666,107.25406378600823,164.33333333333334,107.25288065843623,166.75,107.2516975308642C169.16666666666666,107.25051440329219,171.58333333333334,107.24933127572017,174,107.24814814814815C176.41666666666666,107.24696502057613,178.83333333333334,107.24578189300411,181.25,107.24459876543209C183.66666666666666,107.24341563786007,186.08333333333334,107.24223251028806,188.5,107.24104938271604C190.91666666666666,107.23986625514402,193.33333333333334,107.23868312757202,195.75,107.2375C198.16666666666669,107.23631687242798,200.58333333333334,107.23513374485597,203.00000000000003,107.23395061728395C205.41666666666669,107.23276748971193,207.83333333333331,107.23158436213993,210.24999999999997,107.2304012345679C212.66666666666666,107.22921810699589,215.08333333333331,107.22803497942387,217.5,107.22685185185185C219.91666666666666,107.22566872427983,222.33333333333334,107.22448559670782,224.75,107.2233024691358C227.16666666666666,107.22211934156378,229.58333333333334,107.22093621399178,232,107.21975308641976C234.41666666666666,107.21856995884774,236.83333333333334,107.21738683127572,239.25,107.2162037037037C241.66666666666669,107.21502057613168,244.08333333333334,107.21383744855967,246.50000000000003,107.21265432098765C248.91666666666669,107.21147119341563,251.33333333333331,107.21028806584363,253.74999999999997,107.20910493827161C256.16666666666663,107.20792181069959,258.5833333333333,107.20673868312758,261,107.20555555555556C263.4166666666667,107.20437242798354,265.8333333333333,107.20318930041152,268.25,107.2020061728395C270.6666666666667,107.20082304526748,273.0833333333333,107.19963991769548,275.5,107.19845679012346C277.9166666666667,107.19727366255144,280.3333333333333,107.19609053497943,282.75,107.19490740740741C285.1666666666667,107.1937242798354,287.5833333333333,107.19254115226339,290,107.19135802469137C292.4166666666667,107.19017489711935,294.8333333333333,107.18899176954731,297.25,107.1878086419753C299.6666666666667,107.18662551440327,302.0833333333333,107.18544238683127,304.5,107.18425925925925C306.9166666666667,107.18307613168723,309.3333333333333,107.18189300411522,311.75,107.1807098765432C314.1666666666667,107.17952674897118,316.5833333333333,107.17834362139918,319,107.17716049382716C321.4166666666667,107.17597736625514,323.8333333333333,107.17479423868313,326.25,107.17361111111111C328.6666666666667,107.1724279835391,331.0833333333333,107.17124485596709,333.5,107.17006172839507C335.9166666666667,107.16887860082305,338.3333333333333,107.16769547325104,340.75,107.16651234567902C343.1666666666667,107.165329218107,345.5833333333333,107.16414609053498,348,107.16296296296296C350.4166666666667,107.16177983539094,352.8333333333333,107.16059670781893,355.25,107.1594135802469C357.6666666666667,107.15823045267489,360.0833333333333,107.15704732510288,362.5,107.15586419753086C364.9166666666667,107.15468106995884,367.3333333333333,107.15349794238684,369.75,107.15231481481482C372.1666666666667,107.1511316872428,374.5833333333333,107.14994855967078,377,107.14876543209876C379.4166666666667,107.14758230452674,381.8333333333333,107.14639917695473,384.25,107.14521604938271C386.6666666666667,107.14403292181069,389.0833333333333,107.14284979423869,391.5,107.14166666666667C393.9166666666667,107.14048353909465,396.33333333333337,107.13930041152264,398.75000000000006,107.13811728395062C401.16666666666674,107.1369341563786,403.58333333333337,107.1357510288066,406.00000000000006,107.13456790123458C408.4166666666667,107.13338477366256,410.8333333333333,107.13220164609054,413.24999999999994,107.13101851851852C415.66666666666663,107.1298353909465,418.08333333333326,107.12865226337449,420.49999999999994,107.12746913580247C422.91666666666663,107.12628600823045,425.3333333333333,107.12510288065843,427.75,107.12391975308641C430.1666666666667,107.12273662551439,432.5833333333333,107.12155349794239,435,107.12037037037037C437.4166666666667,107.11918724279835,439.8333333333333,107.11800411522634,442.25,107.11682098765432C444.6666666666667,107.1156378600823,447.0833333333333,107.1144547325103,449.5,107.11327160493828C451.9166666666667,107.11208847736626,454.3333333333333,107.11090534979425,456.75,107.10972222222223C459.1666666666667,107.10853909465021,461.5833333333333,107.10735596707819,464,107.10617283950617C466.4166666666667,107.10498971193415,468.8333333333333,107.10380658436215,471.25,107.10262345679013C473.6666666666667,107.10144032921811,476.0833333333333,107.10025720164609,478.5,107.09907407407407C480.9166666666667,107.09789094650205,483.33333333333337,107.09670781893004,485.75000000000006,107.09552469135802C488.16666666666674,107.094341563786,490.58333333333337,107.093158436214,493.00000000000006,107.09197530864198C495.4166666666667,107.09079218106996,497.8333333333333,107.08960905349795,500.24999999999994,107.08842592592593C502.66666666666663,107.08724279835391,505.08333333333326,107.08605967078189,507.49999999999994,107.08487654320987C509.91666666666663,107.08369341563785,512.3333333333333,107.08251028806585,514.75,107.08132716049383C517.1666666666666,107.08014403292181,519.5833333333334,107.0789609053498,522,107.07777777777778C524.4166666666666,107.07659465020576,526.8333333333334,107.07541152263376,529.25,107.07422839506174C531.6666666666666,107.07304526748972,534.0833333333334,107.0718621399177,536.5,107.07067901234568C538.9166666666666,107.06949588477366,541.3333333333334,107.06831275720164,543.75,107.06712962962962C546.1666666666666,107.0659465020576,548.5833333333334,107.0647633744856,551,107.06358024691357C553.4166666666666,107.06239711934155,555.8333333333334,107.06121399176955,558.25,107.06003086419753C560.6666666666666,107.05884773662551,563.0833333333334,107.0576646090535,565.5,107.05648148148148C567.9166666666666,107.05529835390946,570.3333333333334,107.05411522633746,572.75,107.05293209876544C575.1666666666666,107.05174897119342,577.5833333333334,107.05056584362141,580,107.0493827160494C582.4166666666666,107.04819958847737,584.8333333333334,107.04701646090535,587.25,107.04583333333333C589.6666666666666,107.04465020576131,592.0833333333334,107.0434670781893,594.5,107.04228395061727C596.9166666666666,107.04110082304526,599.3333333333334,107.03991769547325,601.75,107.03873456790123C604.1666666666666,107.03755144032921,606.5833333333334,107.0363683127572,609,107.03518518518518C611.4166666666666,107.03400205761316,613.8333333333334,107.03281893004116,616.25,107.03163580246914C618.6666666666666,107.03045267489712,621.0833333333334,107.0292695473251,623.5,107.02808641975308C625.9166666666666,107.02690329218106,628.3333333333334,107.02572016460906,630.75,107.02453703703704C633.1666666666666,107.02335390946502,635.5833333333334,107.02217078189301,638,107.02098765432099C640.4166666666666,107.01980452674897,642.8333333333334,107.01862139917696,645.25,107.01743827160495C647.6666666666666,107.01625514403293,650.0833333333334,107.0150720164609,652.5,107.01388888888889C654.9166666666666,107.01270576131687,657.3333333333334,107.01152263374486,659.75,107.01033950617284C662.1666666666666,107.00915637860082,664.5833333333334,107.0079732510288,667,107.00679012345678C669.4166666666666,107.00560699588476,671.8333333333334,107.00442386831276,674.25,107.00324074074074C676.6666666666666,107.00205761316872,679.0833333333334,107.00087448559671,681.5,106.99969135802469C683.9166666666666,106.99850823045267,686.3333333333334,106.99732510288067,688.75,106.99614197530865C691.1666666666666,106.99495884773663,693.5833333333334,106.99377572016462,696,106.9925925925926C698.4166666666666,106.99140946502058,700.8333333333334,106.99022633744858,703.25,106.98904320987656C705.6666666666666,106.98786008230454,708.0833333333334,106.98667695473252,710.5,106.9854938271605C712.9166666666666,106.98431069958848,715.3333333333334,106.98312757201646,717.75,106.98194444444444C720.1666666666666,106.98076131687242,722.5833333333334,106.97957818930041,725,106.97839506172839C727.4166666666666,106.97721193415637,729.8333333333334,106.97602880658437,732.25,106.97484567901235C734.6666666666666,106.97366255144033,737.0833333333334,106.97247942386832,739.5,106.9712962962963C741.9166666666666,106.97011316872428,744.3333333333334,106.96893004115226,746.75,106.96774691358024C749.1666666666666,106.96656378600822,751.5833333333334,106.96538065843622,754,106.9641975308642C756.4166666666666,106.96301440329218,758.8333333333334,106.96183127572017,761.25,106.96064814814815C763.6666666666666,106.95946502057613,766.0833333333334,106.95828189300411,768.5,106.9570987654321C770.9166666666666,106.95591563786007,773.3333333333334,106.95473251028807,775.75,106.95354938271605C778.1666666666666,106.95236625514403,780.5833333333334,106.95118312757202,783,106.95C785.4166666666667,106.94881687242798,787.8333333333334,106.94763374485596,790.2500000000001,106.94645061728394C792.6666666666667,106.94526748971192,795.0833333333335,106.94408436213992,797.5000000000001,106.9429012345679C799.9166666666667,106.94171810699588,802.3333333333335,106.94053497942387,804.7500000000001,106.93935185185185C807.1666666666667,106.93816872427983,809.5833333333335,106.93698559670783,812.0000000000001,106.93580246913581C814.4166666666667,106.93461934156379,816.8333333333333,106.93343621399178,819.2499999999999,106.93225308641976C821.6666666666665,106.93106995884774,824.0833333333333,106.92988683127572,826.4999999999999,106.9287037037037C828.9166666666665,106.92752057613168,831.3333333333333,106.92633744855966,833.7499999999999,106.92515432098764C836.1666666666665,106.92397119341562,838.5833333333333,106.92278806584362,840.9999999999999,106.9216049382716C843.4166666666666,106.92042181069958,845.8333333333333,106.91923868312757,848.25,106.91805555555555C850.6666666666666,106.91687242798353,853.0833333333334,106.91568930041153,855.5,106.91450617283951C857.9166666666666,106.91332304526749,860.3333333333334,106.91213991769548,862.75,106.91095679012346C865.1666666666666,106.90977366255144,867.5833333333334,106.90859053497942,870,106.9074074074074C872.4166666666666,106.90622427983539,874.8333333333334,106.90504115226338,877.25,106.90385802469136C879.6666666666666,106.90267489711934,882.0833333333334,106.90149176954733,884.5,106.90030864197531C886.9166666666666,106.8991255144033,889.3333333333334,106.89794238683128,891.75,106.89675925925926C894.1666666666666,106.89557613168724,896.5833333333334,106.89439300411523,899,106.89320987654321C901.4166666666666,106.89202674897119,903.8333333333334,106.89084362139918,906.25,106.88966049382717C908.6666666666666,106.88847736625515,911.0833333333334,106.88729423868313,913.5,106.8861111111111C915.9166666666666,106.88492798353909,918.3333333333334,106.88374485596708,920.75,106.88256172839506C923.1666666666666,106.88137860082304,925.5833333333334,106.88019547325104,928,106.87901234567902C930.4166666666666,106.877829218107,932.8333333333334,106.87664609053499,935.25,106.87546296296297C937.6666666666666,106.87427983539095,940.0833333333334,106.87309670781895,942.5,106.87191358024693C944.9166666666666,106.8707304526749,947.3333333333334,106.86954732510287,949.75,106.86836419753085C952.1666666666666,106.86718106995883,954.5833333333334,106.86599794238683,957,106.8648148148148C959.4166666666666,106.86363168724279,961.8333333333334,106.86244855967078,964.25,106.86126543209876C966.6666666666667,106.86008230452674,969.0833333333334,106.85889917695474,971.5000000000001,106.85771604938272C973.9166666666667,106.8565329218107,976.3333333333335,106.85534979423869,978.7500000000001,106.85416666666667C981.1666666666667,106.85298353909465,983.5833333333335,106.85180041152265,986.0000000000001,106.85061728395063C988.4166666666667,106.8494341563786,990.8333333333335,106.84825102880659,993.2500000000001,106.84706790123457C995.6666666666667,106.84588477366255,998.0833333333333,106.84470164609054,1000.4999999999999,106.84351851851852C1002.9166666666665,106.8423353909465,1005.3333333333333,106.84115226337448,1007.7499999999999,106.83996913580246C1010.1666666666665,106.83878600823044,1012.5833333333333,106.83760288065844,1014.9999999999999,106.83641975308642C1017.4166666666665,106.8352366255144,1019.8333333333333,106.83405349794239,1022.2499999999999,106.83287037037037C1024.6666666666665,106.83168724279835,1027.0833333333333,106.83050411522633,1029.5,106.82932098765431C1031.9166666666667,106.8281378600823,1034.3333333333333,106.82695473251029,1036.75,106.82577160493827C1039.1666666666667,106.82458847736625,1041.5833333333333,106.82340534979424,1044,106.82222222222222C1046.4166666666667,106.8210390946502,1048.8333333333333,106.8198559670782,1051.25,106.81867283950618C1053.6666666666667,106.81748971193416,1056.0833333333333,106.81630658436215,1058.5,106.81512345679013C1060.9166666666667,106.81394032921811,1063.3333333333333,106.8127572016461,1065.75,106.81157407407407C1068.1666666666667,106.81039094650205,1070.5833333333333,106.80920781893005,1073,106.80802469135803C1075.4166666666667,106.80684156378601,1077.8333333333333,106.80565843621399,1080.25,106.80447530864197C1082.6666666666667,106.80329218106995,1085.0833333333333,106.80210905349794,1087.5,106.80092592592592C1089.9166666666667,106.7997427983539,1092.3333333333333,106.7985596707819,1094.75,106.79737654320988C1097.1666666666667,106.79619341563786,1099.5833333333333,106.79501028806585,1102,106.79382716049383C1104.4166666666667,106.79264403292181,1106.8333333333333,106.7914609053498,1109.25,106.79027777777777C1111.6666666666667,106.78909465020575,1114.0833333333333,106.78791152263375,1116.5,106.78672839506173C1118.9166666666667,106.78554526748971,1121.3333333333333,106.78436213991769,1123.75,106.78317901234567C1126.1666666666667,106.78199588477365,1128.5833333333333,106.78081275720164,1131,106.77962962962962C1133.4166666666667,106.7784465020576,1135.8333333333333,106.7772633744856,1138.25,106.77608024691358C1140.6666666666667,106.77489711934156,1143.0833333333333,106.77371399176955,1145.5,106.77253086419753C1147.9166666666667,106.77134773662551,1150.3333333333333,106.77016460905351,1152.75,106.76898148148149C1155.1666666666667,106.76779835390947,1157.5833333333333,106.76661522633745,1160,106.76543209876543C1162.4166666666667,106.76424897119341,1164.8333333333333,106.7630658436214,1167.25,106.76188271604939C1169.6666666666667,106.76069958847737,1172.0833333333333,106.75951646090536,1174.5,106.75833333333334C1176.9166666666667,106.75715020576132,1179.3333333333333,106.7559670781893,1181.75,106.75478395061728C1184.1666666666667,106.75360082304526,1186.5833333333333,106.75241769547324,1189,106.75123456790122C1191.4166666666667,106.7500514403292,1193.8333333333333,106.7488683127572,1196.25,106.74768518518518C1198.6666666666667,106.74650205761316,1201.0833333333333,106.74531893004115,1203.5,106.74413580246913C1205.9166666666667,106.74295267489711,1208.3333333333333,106.7417695473251,1210.75,106.74058641975309C1213.1666666666667,106.73940329218107,1215.5833333333333,106.73822016460906,1218,106.73703703703704C1220.4166666666667,106.73585390946502,1222.8333333333333,106.73467078189302,1225.25,106.733487654321C1227.6666666666667,106.73230452674898,1230.0833333333333,106.73112139917697,1232.5,106.72993827160495C1234.9166666666667,106.72875514403293,1237.3333333333333,106.72757201646091,1239.75,106.72638888888889C1242.1666666666667,106.72520576131687,1244.5833333333333,106.72402263374485,1247,106.72283950617283C1249.4166666666667,106.72165637860081,1251.8333333333333,106.7204732510288,1254.25,106.71929012345679C1256.6666666666667,106.71810699588477,1259.0833333333333,106.71692386831276,1261.5,106.71574074074074C1263.9166666666667,106.71455761316872,1266.3333333333333,106.71337448559672,1268.75,106.7121913580247C1271.1666666666667,106.71100823045268,1273.5833333333333,106.70982510288066,1276,106.70864197530864C1278.4166666666667,106.70745884773662,1280.8333333333333,106.70627572016461,1283.25,106.70509259259259C1285.6666666666667,106.70390946502057,1288.0833333333333,106.70272633744857,1290.5,106.70154320987655C1292.9166666666667,106.70036008230453,1295.3333333333333,106.69917695473252,1297.75,106.6979938271605C1300.1666666666667,106.69681069958848,1302.5833333333333,106.69681069958848,1305,106.69444444444444C1307.4166666666667,106.6920781893004,1309.8333333333333,103.5,1312.25,101.90277777777777C1314.6666666666667,100.30555555555554,1317.0833333333333,98.70833333333334,1319.5,97.11111111111111C1321.9166666666667,95.51388888888889,1324.3333333333333,93.91666666666667,1326.75,92.31944444444444C1329.1666666666667,90.72222222222221,1331.5833333333333,89.125,1334,87.52777777777777C1336.4166666666667,85.93055555555554,1338.8333333333333,84.33333333333334,1341.25,82.73611111111111C1343.6666666666667,81.13888888888889,1346.0833333333333,79.54166666666667,1348.5,77.94444444444444C1350.9166666666667,76.34722222222221,1353.3333333333333,74.75,1355.75,73.15277777777777C1358.1666666666667,71.55555555555554,1360.5833333333333,69.95833333333333,1363,68.36111111111111C1365.4166666666667,66.7638888888889,1367.8333333333333,65.16666666666667,1370.25,63.56944444444445C1372.6666666666667,61.97222222222223,1375.0833333333333,60.37499999999999,1377.5,58.77777777777777C1379.9166666666667,57.18055555555555,1382.3333333333333,55.583333333333336,1384.75,53.986111111111114C1387.1666666666667,52.38888888888889,1389.5833333333333,50.79166666666667,1392,49.19444444444445C1394.4166666666667,47.59722222222223,1396.8333333333333,45.99999999999999,1399.25,44.40277777777777C1401.6666666666667,42.80555555555555,1404.0833333333333,41.208333333333336,1406.5,39.611111111111114C1408.9166666666667,38.01388888888889,1411.3333333333333,36.41666666666667,1413.75,34.81944444444445C1416.1666666666667,33.22222222222223,1418.5833333333333,31.624999999999993,1421,30.02777777777777C1423.4166666666667,28.43055555555555,1425.8333333333333,26.833333333333332,1428.25,25.23611111111111C1430.6666666666667,23.63888888888889,1433.0833333333333,22.04166666666667,1435.5,20.44444444444445C1437.9166666666667,18.84722222222223,1440.3333333333333,17.249999999999996,1442.75,15.652777777777773C1445.1666666666667,14.05555555555555,1447.5833333333333,12.45833333333333,1450,10.86111111111111" fill="transparent" stroke-linecap="round" stroke="#E7C6DF" stroke-width="2"></path><g class="visx-group visx-axis visx-axis-bottom" transform="translate(0, 115)"><g class="visx-group visx-axis-tick" transform="translate(0, 0)"><line class="visx-line" x1="0" y1="0" x2="0" y2="8" fill="transparent" shape-rendering="crispEdges" stroke="#000" stroke-width="0" stroke-linecap="square"></line><svg x="0" y="0" font-size="10" style="overflow:visible"><text transform="" x="0" y="18" fill="#000" font-size="10" text-anchor="middle"><tspan x="0" dy="0em">0%</tspan></text></svg></g><g class="visx-group visx-axis-tick" transform="translate(0, 0)"><line class="visx-line" x1="362.5" y1="0" x2="362.5" y2="8" fill="transparent" shape-rendering="crispEdges" stroke="#000" stroke-width="0" stroke-linecap="square"></line><svg x="0" y="0" font-size="10" style="overflow:visible"><text transform="" x="362.5" y="18" fill="#000" font-size="10" text-anchor="middle"><tspan x="362.5" dy="0em">25%</tspan></text></svg></g><g class="visx-group visx-axis-tick" transform="translate(0, 0)"><line class="visx-line" x1="725" y1="0" x2="725" y2="8" fill="transparent" shape-rendering="crispEdges" stroke="#000" stroke-width="0" stroke-linecap="square"></line><svg x="0" y="0" font-size="10" style="overflow:visible"><text transform="" x="725" y="18" fill="#000" font-size="10" text-anchor="middle"><tspan x="725" dy="0em">50%</tspan></text></svg></g><g class="visx-group visx-axis-tick" transform="translate(0, 0)"><line class="visx-line" x1="1087.5" y1="0" x2="1087.5" y2="8" fill="transparent" shape-rendering="crispEdges" stroke="#000" stroke-width="0" stroke-linecap="square"></line><svg x="0" y="0" font-size="10" style="overflow:visible"><text transform="" x="1087.5" y="18" fill="#000" font-size="10" text-anchor="middle"><tspan x="1087.5" dy="0em">75%</tspan></text></svg></g><g class="visx-group visx-axis-tick" transform="translate(0, 0)"><line class="visx-line" x1="1450" y1="0" x2="1450" y2="8" fill="transparent" shape-rendering="crispEdges" stroke="#000" stroke-width="0" stroke-linecap="square"></line><svg x="0" y="0" font-size="10" style="overflow:visible"><text transform="" x="1450" y="18" fill="#000" font-size="10" text-anchor="middle"><tspan x="1450" dy="0em">100%</tspan></text></svg></g><line class="visx-line visx-axis-line" x1="0.5" y1="0" x2="1450.5" y2="0" fill="transparent" shape-rendering="crispEdges" stroke="#222" stroke-width="0"></line></g><g class="visx-group visx-axis visx-axis-left" transform="translate(0, 0)"><g class="visx-group visx-axis-tick" transform="translate(0, 0)"><line class="visx-line" x1="0" y1="115" x2="-8" y2="115" fill="transparent" shape-rendering="crispEdges" stroke="#222" stroke-width="0" stroke-linecap="square"></line><svg x="-30" y="0" font-size="8" style="overflow:visible"><text transform="" x="-8" y="115" fill="#000" font-size="8" text-anchor="start"><tspan x="-8" dy="0em">0%</tspan></text></svg></g><g class="visx-group visx-axis-tick" transform="translate(0, 0)"><line class="visx-line" x1="0" y1="51.11111111111111" x2="-8" y2="51.11111111111111" fill="transparent" shape-rendering="crispEdges" stroke="#222" stroke-width="0" stroke-linecap="square"></line><svg x="-30" y="0" font-size="8" style="overflow:visible"><text transform="" x="-8" y="51.11111111111111" fill="#000" font-size="8" text-anchor="start"><tspan x="-8" dy="0em">50%</tspan></text></svg></g><line class="visx-line visx-axis-line" x1="0" y1="115.5" x2="0" y2="0.5" fill="transparent" shape-rendering="crispEdges" stroke="#222" stroke-width="0"></line></g><rect class="visx-bar" width="1450" height="115" fill="transparent"></rect><line class="visx-line" x1="1305" y1="28" x2="1305" y2="115" fill="transparent" shape-rendering="crispEdges" stroke="#0062D2" stroke-width="1" pointer-events="none" stroke-dasharray="5,2"></line><svg x="0" y="0" font-size="10px" style="overflow:visible"><text transform="" x="1305" y="20" font-size="10px" fill="#fff" stroke="#fff" stroke-width="0.8em" text-anchor="middle"><tspan x="1305" dy="0.355em">Optimal 90%</tspan></text></svg><svg x="0" y="0" font-size="10px" style="overflow:visible"><text transform="" x="1305" y="20" font-size="10px" fill="#62677B" text-anchor="middle"><tspan x="1305" dy="0.355em">Optimal 90%</tspan></text></svg></g></svg>