<?xml version="1.0"?><svg xmlns="http://www.w3.org/2000/svg" xmlns:xlink= "http://www.w3.org/1999/xlink" style="background: white;" width="1500" height="185"> <g style="color: black; font-size: 13px; font-family: sans-serif; transform: translate(18px, 25px);"><g><circle r="3" cx="-6" cy="-5" style="fill: #B6509E" /><text>Borrow APR, variable</text></g><g style="transform: translateX(150px);"><circle r="3" cx="-6" cy="-5" style="fill: rgb(231, 198, 223)" /><text>Borrow APR, stable</text></g><g style="transform: translateX(290px);"><circle r="3" cx="-6" cy="-5" style="fill: rgb(0, 98, 210)" /><text>Utilization Rate</text></g></g><g class="visx-group" transform="translate(40, 50)"><g class="visx-group visx-rows" transform="translate(0, 0)"><line class="visx-line" x1="0" y1="115" x2="1450" y2="115" fill="transparent" shape-rendering="crispEdges" stroke="#000" stroke-width="1" stroke-dasharray="3,3" pointer-events="none"></line><line class="visx-line" x1="0" y1="62.72727272727272" x2="1450" y2="62.72727272727272" fill="transparent" shape-rendering="crispEdges" stroke="#000" stroke-width="1" stroke-dasharray="3,3" pointer-events="none"></line><line class="visx-line" x1="0" y1="10.454545454545459" x2="1450" y2="10.454545454545459" fill="transparent" shape-rendering="crispEdges" stroke="#000" stroke-width="1" stroke-dasharray="3,3" pointer-events="none"></line></g><path class="visx-linepath" d="M0,113.9545454544958C2.4166666666666665,113.94626893936497,4.833333333333334,113.93799242423414,7.25,113.9297159090909C9.666666666666666,113.92143939394767,12.083333333333334,113.91316287878789,14.5,113.90488636363636C16.916666666666668,113.89660984848484,19.333333333333332,113.88833333333332,21.75,113.88005681818181C24.166666666666668,113.8717803030303,26.583333333333332,113.86350378787878,29,113.85522727272728C31.416666666666668,113.84695075757577,33.833333333333336,113.83867424242425,36.25,113.83039772727273C38.666666666666664,113.8221212121212,41.083333333333336,113.8138446969697,43.5,113.80556818181819C45.91666666666667,113.79729166666667,48.333333333333336,113.78901515151516,50.75000000000001,113.78073863636364C53.16666666666667,113.77246212121211,55.583333333333336,113.7641856060606,58,113.75590909090909C60.416666666666664,113.74763257575756,62.833333333333336,113.73935606060607,65.25,113.73107954545455C67.66666666666667,113.72280303030303,70.08333333333333,113.7145265151515,72.5,113.70625C74.91666666666667,113.69797348484849,77.33333333333333,113.68969696969697,79.75,113.68142045454546C82.16666666666667,113.67314393939395,84.58333333333333,113.66486742424243,87,113.65659090909091C89.41666666666667,113.64831439393939,91.83333333333333,113.64003787878787,94.25,113.63176136363636C96.66666666666667,113.62348484848484,99.08333333333334,113.61520833333334,101.50000000000001,113.60693181818182C103.91666666666667,113.59865530303031,106.33333333333334,113.59037878787878,108.75,113.58210227272727C111.16666666666667,113.57382575757575,113.58333333333333,113.56554924242424,116,113.55727272727273C118.41666666666667,113.54899621212121,120.83333333333334,113.5407196969697,123.25000000000001,113.53244318181818C125.66666666666667,113.52416666666666,128.08333333333334,113.51589015151514,130.5,113.50761363636363C132.91666666666666,113.49933712121211,135.33333333333334,113.49106060606061,137.75,113.48278409090909C140.16666666666666,113.47450757575757,142.58333333333334,113.46623106060605,145,113.45795454545454C147.41666666666666,113.44967803030303,149.83333333333334,113.44140151515151,152.25,113.433125C154.66666666666666,113.4248484848485,157.08333333333334,113.41657196969697,159.5,113.40829545454545C161.91666666666666,113.40001893939393,164.33333333333334,113.39174242424244,166.75,113.38346590909092C169.16666666666666,113.3751893939394,171.58333333333334,113.36691287878789,174,113.35863636363636C176.41666666666666,113.35035984848484,178.83333333333334,113.34208333333333,181.25,113.33380681818181C183.66666666666666,113.32553030303029,186.08333333333334,113.3172537878788,188.5,113.30897727272728C190.91666666666666,113.30070075757575,193.33333333333334,113.29242424242423,195.75,113.28414772727272C198.16666666666669,113.2758712121212,200.58333333333334,113.26759469696971,203.00000000000003,113.25931818181819C205.41666666666669,113.25104166666668,207.83333333333331,113.24276515151516,210.24999999999997,113.23448863636364C212.66666666666666,113.22621212121211,215.08333333333331,113.2179356060606,217.5,113.20965909090908C219.91666666666666,113.20138257575758,222.33333333333334,113.19310606060606,224.75,113.18482954545455C227.16666666666666,113.17655303030304,229.58333333333334,113.16827651515152,232,113.16C234.41666666666666,113.15172348484847,236.83333333333334,113.14344696969697,239.25,113.13517045454546C241.66666666666669,113.12689393939394,244.08333333333334,113.11861742424243,246.50000000000003,113.11034090909091C248.91666666666669,113.1020643939394,251.33333333333331,113.0937878787879,253.74999999999997,113.08551136363637C256.16666666666663,113.07723484848485,258.5833333333333,113.06895833333333,261,113.0606818181818C263.4166666666667,113.05240530303028,265.8333333333333,113.04412878787878,268.25,113.03585227272727C270.6666666666667,113.02757575757576,273.0833333333333,113.01929924242424,275.5,113.01102272727273C277.9166666666667,113.00274621212122,280.3333333333333,112.9944696969697,282.75,112.98619318181818C285.1666666666667,112.97791666666666,287.5833333333333,112.96964015151516,290,112.96136363636364C292.4166666666667,112.95308712121212,294.8333333333333,112.94481060606061,297.25,112.93653409090909C299.6666666666667,112.92825757575757,302.0833333333333,112.91998106060606,304.5,112.91170454545454C306.9166666666667,112.90342803030302,309.3333333333333,112.89515151515153,311.75,112.886875C314.1666666666667,112.87859848484848,316.5833333333333,112.87032196969696,319,112.86204545454545C321.4166666666667,112.85376893939394,323.8333333333333,112.84549242424242,326.25,112.83721590909092C328.6666666666667,112.82893939393941,331.0833333333333,112.82066287878789,333.5,112.81238636363636C335.9166666666667,112.80410984848484,338.3333333333333,112.79583333333335,340.75,112.78755681818183C343.1666666666667,112.7792803030303,345.5833333333333,112.77100378787878,348,112.76272727272726C350.4166666666667,112.75445075757574,352.8333333333333,112.74617424242423,355.25,112.73789772727272C357.6666666666667,112.72962121212122,360.0833333333333,112.72134469696971,362.5,112.71306818181819C364.9166666666667,112.70479166666667,367.3333333333333,112.69651515151514,369.75,112.68823863636364C372.1666666666667,112.67996212121213,374.5833333333333,112.6716856060606,377,112.6634090909091C379.4166666666667,112.65513257575759,381.8333333333333,112.64685606060607,384.25,112.63857954545455C386.6666666666667,112.63030303030303,389.0833333333333,112.62202651515152,391.5,112.61375C393.9166666666667,112.60547348484847,396.33333333333337,112.59719696969697,398.75000000000006,112.58892045454544C401.16666666666674,112.58064393939394,403.58333333333337,112.57236742424242,406.00000000000006,112.56409090909091C408.4166666666667,112.5558143939394,410.8333333333333,112.54753787878788,413.24999999999994,112.53926136363637C415.66666666666663,112.53098484848485,418.08333333333326,112.52270833333333,420.49999999999994,112.51443181818182C422.91666666666663,112.5061553030303,425.3333333333333,112.4978787878788,427.75,112.48960227272728C430.1666666666667,112.48132575757576,432.5833333333333,112.47304924242424,435,112.46477272727272C437.4166666666667,112.4564962121212,439.8333333333333,112.44821969696969,442.25,112.43994318181818C444.6666666666667,112.43166666666667,447.0833333333333,112.42339015151515,449.5,112.41511363636364C451.9166666666667,112.40683712121213,454.3333333333333,112.39856060606061,456.75,112.39028409090909C459.1666666666667,112.38200757575757,461.5833333333333,112.37373106060608,464,112.36545454545455C466.4166666666667,112.35717803030303,468.8333333333333,112.34890151515152,471.25,112.340625C473.6666666666667,112.33234848484848,476.0833333333333,112.32407196969697,478.5,112.31579545454545C480.9166666666667,112.30751893939393,483.33333333333337,112.29924242424242,485.75000000000006,112.2909659090909C488.16666666666674,112.28268939393939,490.58333333333337,112.27441287878787,493.00000000000006,112.26613636363636C495.4166666666667,112.25785984848486,497.8333333333333,112.24958333333333,500.24999999999994,112.24130681818183C502.66666666666663,112.2330303030303,505.08333333333326,112.22475378787878,507.49999999999994,112.21647727272727C509.91666666666663,112.20820075757575,512.3333333333333,112.19992424242426,514.75,112.19164772727274C517.1666666666666,112.18337121212122,519.5833333333334,112.1750946969697,522,112.16681818181817C524.4166666666666,112.15854166666665,526.8333333333334,112.15026515151516,529.25,112.14198863636364C531.6666666666666,112.13371212121211,534.0833333333334,112.12543560606059,536.5,112.11715909090908C538.9166666666666,112.10888257575758,541.3333333333334,112.10060606060605,543.75,112.09232954545455C546.1666666666666,112.08405303030304,548.5833333333334,112.07577651515152,551,112.06750000000001C553.4166666666666,112.0592234848485,555.8333333333334,112.05094696969698,558.25,112.04267045454546C560.6666666666666,112.03439393939394,563.0833333333334,112.02611742424243,565.5,112.0178409090909C567.9166666666666,112.00956439393939,570.3333333333334,112.00128787878788,572.75,111.99301136363636C575.1666666666666,111.98473484848483,577.5833333333334,111.97645833333333,580,111.96818181818182C582.4166666666666,111.95990530303031,584.8333333333334,111.9516287878788,587.25,111.94335227272728C589.6666666666666,111.93507575757576,592.0833333333334,111.92679924242424,594.5,111.91852272727273C596.9166666666666,111.91024621212122,599.3333333333334,111.90196969696972,601.75,111.8936931818182C604.1666666666666,111.88541666666667,606.5833333333334,111.87714015151515,609,111.86886363636363C611.4166666666666,111.8605871212121,613.8333333333334,111.8523106060606,616.25,111.84403409090909C618.6666666666666,111.83575757575758,621.0833333333334,111.82748106060606,623.5,111.81920454545454C625.9166666666666,111.81092803030302,628.3333333333334,111.80265151515151,630.75,111.794375C633.1666666666666,111.7860984848485,635.5833333333334,111.77782196969699,638,111.76954545454547C640.4166666666666,111.76126893939394,642.8333333333334,111.75299242424242,645.25,111.7447159090909C647.6666666666666,111.73643939393938,650.0833333333334,111.72816287878788,652.5,111.71988636363636C654.9166666666666,111.71160984848484,657.3333333333334,111.70333333333332,659.75,111.69505681818181C662.1666666666666,111.6867803030303,664.5833333333334,111.67850378787878,667,111.67022727272727C669.4166666666666,111.66195075757577,671.8333333333334,111.65367424242424,674.25,111.64539772727272C676.6666666666666,111.6371212121212,679.0833333333334,111.6288446969697,681.5,111.62056818181819C683.9166666666666,111.61229166666668,686.3333333333334,111.60401515151517,688.75,111.59573863636365C691.1666666666666,111.58746212121213,693.5833333333334,111.5791856060606,696,111.57090909090908C698.4166666666666,111.56263257575756,700.8333333333334,111.55435606060607,703.25,111.54607954545455C705.6666666666666,111.53780303030302,708.0833333333334,111.5295265151515,710.5,111.52125C712.9166666666666,111.51297348484849,715.3333333333334,111.50469696969697,717.75,111.49642045454546C720.1666666666666,111.48814393939395,722.5833333333334,111.47986742424243,725,111.4715909090909C727.4166666666666,111.46331439393938,729.8333333333334,111.45503787878786,732.25,111.44676136363636C734.6666666666666,111.43848484848485,737.0833333333334,111.43020833333333,739.5,111.42193181818182C741.9166666666666,111.41365530303031,744.3333333333334,111.40537878787879,746.75,111.39710227272727C749.1666666666666,111.38882575757575,751.5833333333334,111.38054924242425,754,111.37227272727273C756.4166666666666,111.36399621212121,758.8333333333334,111.35571969696969,761.25,111.34744318181818C763.6666666666666,111.33916666666667,766.0833333333334,111.33089015151515,768.5,111.32261363636364C770.9166666666666,111.31433712121213,773.3333333333334,111.30606060606063,775.75,111.2977840909091C778.1666666666666,111.28950757575758,780.5833333333334,111.28123106060606,783,111.27295454545454C785.4166666666667,111.26467803030302,787.8333333333334,111.25640151515152,790.2500000000001,111.248125C792.6666666666667,111.2398484848485,795.0833333333335,111.23157196969697,797.5000000000001,111.22329545454545C799.9166666666667,111.21501893939393,802.3333333333335,111.20674242424244,804.7500000000001,111.19846590909091C807.1666666666667,111.19018939393939,809.5833333333335,111.18191287878788,812.0000000000001,111.17363636363636C814.4166666666667,111.16535984848484,816.8333333333333,111.15708333333332,819.2499999999999,111.14880681818181C821.6666666666665,111.14053030303029,824.0833333333333,111.1322537878788,826.4999999999999,111.12397727272727C828.9166666666665,111.11570075757575,831.3333333333333,111.10742424242423,833.7499999999999,111.09914772727272C836.1666666666665,111.09087121212121,838.5833333333333,111.0825946969697,840.9999999999999,111.07431818181819C843.4166666666666,111.06604166666666,845.8333333333333,111.05776515151516,848.25,111.04948863636363C850.6666666666666,111.04121212121213,853.0833333333334,111.03293560606062,855.5,111.0246590909091C857.9166666666666,111.01638257575758,860.3333333333334,111.00810606060607,862.75,110.99982954545455C865.1666666666666,110.99155303030302,867.5833333333334,110.98327651515152,870,110.975C872.4166666666666,110.96672348484847,874.8333333333334,110.95844696969698,877.25,110.95017045454546C879.6666666666666,110.94189393939394,882.0833333333334,110.93361742424241,884.5,110.9253409090909C886.9166666666666,110.9170643939394,889.3333333333334,110.90878787878788,891.75,110.90051136363637C894.1666666666666,110.89223484848486,896.5833333333334,110.88395833333334,899,110.87568181818182C901.4166666666666,110.8674053030303,903.8333333333334,110.85912878787877,906.25,110.85085227272727C908.6666666666666,110.84257575757576,911.0833333333334,110.83429924242424,913.5,110.82602272727273C915.9166666666666,110.81774621212122,918.3333333333334,110.8094696969697,920.75,110.80119318181818C923.1666666666666,110.79291666666666,925.5833333333334,110.78464015151516,928,110.77636363636364C930.4166666666666,110.76808712121212,932.8333333333334,110.7598106060606,935.25,110.75153409090909C937.6666666666666,110.74325757575758,940.0833333333334,110.73498106060606,942.5,110.72670454545455C944.9166666666666,110.71842803030304,947.3333333333334,110.71015151515152,949.75,110.701875C952.1666666666666,110.69359848484848,954.5833333333334,110.68532196969696,957,110.67704545454545C959.4166666666666,110.66876893939394,961.8333333333334,110.66049242424242,964.25,110.65221590909091C966.6666666666667,110.64393939393939,969.0833333333334,110.63566287878788,971.5000000000001,110.62738636363636C973.9166666666667,110.61910984848485,976.3333333333335,110.61083333333335,978.7500000000001,110.60255681818182C981.1666666666667,110.5942803030303,983.5833333333335,110.5860037878788,986.0000000000001,110.57772727272727C988.4166666666667,110.56945075757575,990.8333333333335,110.56117424242424,993.2500000000001,110.55289772727272C995.6666666666667,110.54462121212121,998.0833333333333,110.53634469696969,1000.4999999999999,110.52806818181818C1002.9166666666665,110.51979166666666,1005.3333333333333,110.51151515151514,1007.7499999999999,110.50323863636363C1010.1666666666665,110.49496212121213,1012.5833333333333,110.4866856060606,1014.9999999999999,110.4784090909091C1017.4166666666665,110.47013257575759,1019.8333333333333,110.46185606060605,1022.2499999999999,110.45357954545455C1024.6666666666665,110.44530303030302,1027.0833333333333,110.43702651515153,1029.5,110.42875000000001C1031.9166666666667,110.42047348484849,1034.3333333333333,110.41219696969696,1036.75,110.40392045454544C1039.1666666666667,110.39564393939392,1041.5833333333333,110.38736742424241,1044,110.3790909090909C1046.4166666666667,110.3708143939394,1048.8333333333333,110.36253787878789,1051.25,110.35426136363637C1053.6666666666667,110.34598484848485,1056.0833333333333,110.33770833333332,1058.5,110.32943181818182C1060.9166666666667,110.32115530303031,1063.3333333333333,110.3128787878788,1065.75,110.30460227272728C1068.1666666666667,110.29632575757576,1070.5833333333333,110.28804924242424,1073,110.27977272727271C1075.4166666666667,110.27149621212119,1077.8333333333333,110.26321969696968,1080.25,110.25494318181818C1082.6666666666667,110.24666666666667,1085.0833333333333,110.23839015151515,1087.5,110.23011363636364C1089.9166666666667,110.22183712121213,1092.3333333333333,110.21356060606061,1094.75,110.20528409090909C1097.1666666666667,110.19700757575757,1099.5833333333333,110.18873106060607,1102,110.18045454545455C1104.4166666666667,110.17217803030303,1106.8333333333333,110.16390151515151,1109.25,110.155625C1111.6666666666667,110.1473484848485,1114.0833333333333,110.13907196969699,1116.5,110.13079545454546C1118.9166666666667,110.12251893939394,1121.3333333333333,110.11424242424242,1123.75,110.1059659090909C1126.1666666666667,110.09768939393938,1128.5833333333333,110.08941287878787,1131,110.08113636363636C1133.4166666666667,110.07285984848485,1135.8333333333333,110.06458333333333,1138.25,110.05630681818182C1140.6666666666667,110.04803030303032,1143.0833333333333,110.0397537878788,1145.5,110.03147727272727C1147.9166666666667,110.02320075757575,1150.3333333333333,110.01492424242426,1152.75,110.00664772727274C1155.1666666666667,109.99837121212121,1157.5833333333333,109.99837121212121,1160,109.98181818181818C1162.4166666666667,109.96526515151515,1164.8333333333333,108.5878787878788,1167.25,107.89090909090909C1169.6666666666667,107.19393939393939,1172.0833333333333,106.4969696969697,1174.5,105.80000000000001C1176.9166666666667,105.10303030303032,1179.3333333333333,104.40606060606062,1181.75,103.70909090909092C1184.1666666666667,103.01212121212122,1186.5833333333333,102.31515151515153,1189,101.61818181818182C1191.4166666666667,100.92121212121212,1193.8333333333333,100.22424242424243,1196.25,99.52727272727273C1198.6666666666667,98.83030303030303,1201.0833333333333,98.13333333333334,1203.5,97.43636363636364C1205.9166666666667,96.73939393939393,1208.3333333333333,96.04242424242425,1210.75,95.34545454545454C1213.1666666666667,94.64848484848484,1215.5833333333333,93.95151515151515,1218,93.25454545454545C1220.4166666666667,92.55757575757575,1222.8333333333333,91.86060606060605,1225.25,91.16363636363636C1227.6666666666667,90.46666666666667,1230.0833333333333,89.76969696969698,1232.5,89.07272727272728C1234.9166666666667,88.37575757575758,1237.3333333333333,87.67878787878789,1239.75,86.98181818181818C1242.1666666666667,86.28484848484848,1244.5833333333333,85.58787878787881,1247,84.8909090909091C1249.4166666666667,84.1939393939394,1251.8333333333333,83.4969696969697,1254.25,82.8C1256.6666666666667,82.1030303030303,1259.0833333333333,81.4060606060606,1261.5,80.7090909090909C1263.9166666666667,80.0121212121212,1266.3333333333333,79.31515151515151,1268.75,78.61818181818181C1271.1666666666667,77.92121212121211,1273.5833333333333,77.22424242424242,1276,76.52727272727273C1278.4166666666667,75.83030303030304,1280.8333333333333,75.13333333333333,1283.25,74.43636363636364C1285.6666666666667,73.73939393939395,1288.0833333333333,73.04242424242426,1290.5,72.34545454545456C1292.9166666666667,71.64848484848486,1295.3333333333333,70.95151515151517,1297.75,70.25454545454546C1300.1666666666667,69.55757575757576,1302.5833333333333,68.86060606060607,1305,68.16363636363637C1307.4166666666667,67.46666666666667,1309.8333333333333,66.76969696969697,1312.25,66.07272727272726C1314.6666666666667,65.37575757575756,1317.0833333333333,64.67878787878789,1319.5,63.981818181818184C1321.9166666666667,63.28484848484849,1324.3333333333333,62.587878787878786,1326.75,61.89090909090909C1329.1666666666667,61.193939393939395,1331.5833333333333,60.4969696969697,1334,59.800000000000004C1336.4166666666667,59.10303030303031,1338.8333333333333,58.40606060606059,1341.25,57.7090909090909C1343.6666666666667,57.0121212121212,1346.0833333333333,56.31515151515151,1348.5,55.61818181818182C1350.9166666666667,54.92121212121212,1353.3333333333333,54.22424242424242,1355.75,53.527272727272724C1358.1666666666667,52.83030303030303,1360.5833333333333,52.13333333333333,1363,51.43636363636364C1365.4166666666667,50.73939393939394,1367.8333333333333,50.04242424242424,1370.25,49.345454545454544C1372.6666666666667,48.64848484848485,1375.0833333333333,47.951515151515146,1377.5,47.25454545454545C1379.9166666666667,46.557575757575755,1382.3333333333333,45.86060606060606,1384.75,45.163636363636364C1387.1666666666667,44.46666666666667,1389.5833333333333,43.76969696969698,1392,43.072727272727285C1394.4166666666667,42.37575757575759,1396.8333333333333,41.67878787878789,1399.25,40.98181818181819C1401.6666666666667,40.284848484848496,1404.0833333333333,39.58787878787879,1406.5,38.8909090909091C1408.9166666666667,38.1939393939394,1411.3333333333333,37.4969696969697,1413.75,36.800000000000004C1416.1666666666667,36.10303030303031,1418.5833333333333,35.40606060606061,1421,34.70909090909092C1423.4166666666667,34.01212121212122,1425.8333333333333,33.31515151515153,1428.25,32.618181818181824C1430.6666666666667,31.921212121212125,1433.0833333333333,31.22424242424242,1435.5,30.52727272727272C1437.9166666666667,29.83030303030302,1440.3333333333333,29.133333333333336,1442.75,28.43636363636364C1445.1666666666667,27.739393939393945,1447.5833333333333,27.042424242424246,1450,26.345454545454547" fill="transparent" stroke-linecap="round" stroke="#B6509E" stroke-width="2"></path><path class="visx-linepath" d="M0,104.54545454540227C2.4166666666666665,104.53674242421192,4.833333333333334,104.52803030302158,7.25,104.51931818181818C9.666666666666666,104.51060606061478,12.083333333333334,104.50189393939394,14.5,104.49318181818182C16.916666666666668,104.48446969696971,19.333333333333332,104.47575757575758,21.75,104.46704545454546C24.166666666666668,104.45833333333333,26.583333333333332,104.4496212121212,29,104.44090909090909C31.416666666666668,104.43219696969697,33.833333333333336,104.42348484848485,36.25,104.41477272727273C38.666666666666664,104.40606060606062,41.083333333333336,104.3973484848485,43.5,104.38863636363637C45.91666666666667,104.37992424242424,48.333333333333336,104.37121212121212,50.75000000000001,104.3625C53.16666666666667,104.35378787878787,55.583333333333336,104.34507575757576,58,104.33636363636363C60.416666666666664,104.3276515151515,62.833333333333336,104.31893939393937,65.25,104.31022727272726C67.66666666666667,104.30151515151515,70.08333333333333,104.29280303030302,72.5,104.2840909090909C74.91666666666667,104.2753787878788,77.33333333333333,104.26666666666667,79.75,104.25795454545455C82.16666666666667,104.24924242424244,84.58333333333333,104.24053030303031,87,104.23181818181818C89.41666666666667,104.22310606060606,91.83333333333333,104.21439393939394,94.25,104.20568181818182C96.66666666666667,104.19696969696969,99.08333333333334,104.18825757575758,101.50000000000001,104.17954545454545C103.91666666666667,104.17083333333333,106.33333333333334,104.1621212121212,108.75,104.1534090909091C111.16666666666667,104.14469696969698,113.58333333333333,104.13598484848485,116,104.12727272727274C118.41666666666667,104.11856060606061,120.83333333333334,104.1098484848485,123.25000000000001,104.10113636363637C125.66666666666667,104.09242424242424,128.08333333333334,104.08371212121213,130.5,104.075C132.91666666666666,104.06628787878788,135.33333333333334,104.05757575757576,137.75,104.04886363636363C140.16666666666666,104.0401515151515,142.58333333333334,104.03143939393938,145,104.02272727272727C147.41666666666666,104.01401515151515,149.83333333333334,104.00530303030303,152.25,103.99659090909091C154.66666666666666,103.9878787878788,157.08333333333334,103.97916666666667,159.5,103.97045454545454C161.91666666666666,103.96174242424242,164.33333333333334,103.95303030303029,166.75,103.94431818181818C169.16666666666666,103.93560606060606,171.58333333333334,103.92689393939393,174,103.91818181818182C176.41666666666666,103.90946969696971,178.83333333333334,103.90075757575757,181.25,103.89204545454545C183.66666666666666,103.88333333333334,186.08333333333334,103.87462121212121,188.5,103.8659090909091C190.91666666666666,103.85719696969699,193.33333333333334,103.84848484848486,195.75,103.83977272727273C198.16666666666669,103.8310606060606,200.58333333333334,103.82234848484849,203.00000000000003,103.81363636363636C205.41666666666669,103.80492424242424,207.83333333333331,103.79621212121212,210.24999999999997,103.7875C212.66666666666666,103.77878787878787,215.08333333333331,103.77007575757575,217.5,103.76136363636363C219.91666666666666,103.75265151515151,222.33333333333334,103.74393939393939,224.75,103.73522727272727C227.16666666666666,103.72651515151516,229.58333333333334,103.71780303030303,232,103.70909090909092C234.41666666666666,103.7003787878788,236.83333333333334,103.69166666666668,239.25,103.68295454545455C241.66666666666669,103.67424242424242,244.08333333333334,103.66553030303031,246.50000000000003,103.65681818181818C248.91666666666669,103.64810606060605,251.33333333333331,103.63939393939394,253.74999999999997,103.63068181818181C256.16666666666663,103.62196969696969,258.5833333333333,103.61325757575757,261,103.60454545454544C263.4166666666667,103.59583333333333,265.8333333333333,103.5871212121212,268.25,103.57840909090909C270.6666666666667,103.56969696969698,273.0833333333333,103.56098484848485,275.5,103.55227272727274C277.9166666666667,103.54356060606062,280.3333333333333,103.5348484848485,282.75,103.52613636363637C285.1666666666667,103.51742424242424,287.5833333333333,103.50871212121213,290,103.5C292.4166666666667,103.49128787878787,294.8333333333333,103.48257575757575,297.25,103.47386363636363C299.6666666666667,103.46515151515152,302.0833333333333,103.45643939393939,304.5,103.44772727272728C306.9166666666667,103.43901515151516,309.3333333333333,103.43030303030304,311.75,103.42159090909091C314.1666666666667,103.41287878787878,316.5833333333333,103.40416666666665,319,103.39545454545454C321.4166666666667,103.38674242424243,323.8333333333333,103.3780303030303,326.25,103.36931818181819C328.6666666666667,103.36060606060607,331.0833333333333,103.35189393939395,333.5,103.34318181818182C335.9166666666667,103.33446969696969,338.3333333333333,103.32575757575756,340.75,103.31704545454545C343.1666666666667,103.30833333333334,345.5833333333333,103.29962121212121,348,103.2909090909091C350.4166666666667,103.28219696969698,352.8333333333333,103.27348484848486,355.25,103.26477272727273C357.6666666666667,103.2560606060606,360.0833333333333,103.24734848484849,362.5,103.23863636363636C364.9166666666667,103.22992424242423,367.3333333333333,103.2212121212121,369.75,103.21249999999999C372.1666666666667,103.20378787878788,374.5833333333333,103.19507575757575,377,103.18636363636364C379.4166666666667,103.17765151515152,381.8333333333333,103.16893939393938,384.25,103.16022727272727C386.6666666666667,103.15151515151516,389.0833333333333,103.14280303030303,391.5,103.13409090909092C393.9166666666667,103.12537878787879,396.33333333333337,103.11666666666667,398.75000000000006,103.10795454545455C401.16666666666674,103.09924242424242,403.58333333333337,103.0905303030303,406.00000000000006,103.08181818181818C408.4166666666667,103.07310606060605,410.8333333333333,103.06439393939392,413.24999999999994,103.05568181818181C415.66666666666663,103.04696969696968,418.08333333333326,103.03825757575757,420.49999999999994,103.02954545454546C422.91666666666663,103.02083333333334,425.3333333333333,103.01212121212123,427.75,103.0034090909091C430.1666666666667,102.99469696969699,432.5833333333333,102.98598484848486,435,102.97727272727273C437.4166666666667,102.9685606060606,439.8333333333333,102.9598484848485,442.25,102.95113636363637C444.6666666666667,102.94242424242424,447.0833333333333,102.93371212121211,449.5,102.925C451.9166666666667,102.91628787878788,454.3333333333333,102.90757575757576,456.75,102.89886363636364C459.1666666666667,102.89015151515153,461.5833333333333,102.8814393939394,464,102.87272727272727C466.4166666666667,102.86401515151515,468.8333333333333,102.85530303030303,471.25,102.8465909090909C473.6666666666667,102.83787878787878,476.0833333333333,102.82916666666667,478.5,102.82045454545454C480.9166666666667,102.81174242424241,483.33333333333337,102.8030303030303,485.75000000000006,102.79431818181817C488.16666666666674,102.78560606060606,490.58333333333337,102.77689393939393,493.00000000000006,102.76818181818182C495.4166666666667,102.7594696969697,497.8333333333333,102.75075757575758,500.24999999999994,102.74204545454546C502.66666666666663,102.73333333333333,505.08333333333326,102.72462121212122,507.49999999999994,102.7159090909091C509.91666666666663,102.70719696969697,512.3333333333333,102.69848484848485,514.75,102.68977272727273C517.1666666666666,102.6810606060606,519.5833333333334,102.67234848484848,522,102.66363636363636C524.4166666666666,102.65492424242423,526.8333333333334,102.6462121212121,529.25,102.63749999999999C531.6666666666666,102.62878787878788,534.0833333333334,102.62007575757576,536.5,102.61136363636365C538.9166666666666,102.60265151515154,541.3333333333334,102.59393939393941,543.75,102.58522727272728C546.1666666666666,102.57651515151515,548.5833333333334,102.56780303030304,551,102.55909090909091C553.4166666666666,102.55037878787878,555.8333333333334,102.54166666666667,558.25,102.53295454545454C560.6666666666666,102.52424242424242,563.0833333333334,102.51553030303029,565.5,102.50681818181818C567.9166666666666,102.49810606060606,570.3333333333334,102.48939393939393,572.75,102.48068181818182C575.1666666666666,102.47196969696971,577.5833333333334,102.46325757575758,580,102.45454545454545C582.4166666666666,102.44583333333333,584.8333333333334,102.4371212121212,587.25,102.42840909090908C589.6666666666666,102.41969696969697,592.0833333333334,102.41098484848484,594.5,102.40227272727273C596.9166666666666,102.39356060606062,599.3333333333334,102.38484848484848,601.75,102.37613636363636C604.1666666666666,102.36742424242425,606.5833333333334,102.35871212121212,609,102.35000000000001C611.4166666666666,102.3412878787879,613.8333333333334,102.33257575757577,616.25,102.32386363636364C618.6666666666666,102.31515151515151,621.0833333333334,102.3064393939394,623.5,102.29772727272727C625.9166666666666,102.28901515151514,628.3333333333334,102.28030303030302,630.75,102.2715909090909C633.1666666666666,102.26287878787879,635.5833333333334,102.25416666666666,638,102.24545454545455C640.4166666666666,102.23674242424244,642.8333333333334,102.2280303030303,645.25,102.21931818181818C647.6666666666666,102.21060606060607,650.0833333333334,102.20189393939394,652.5,102.19318181818183C654.9166666666666,102.18446969696971,657.3333333333334,102.17575757575759,659.75,102.16704545454546C662.1666666666666,102.15833333333333,664.5833333333334,102.14962121212122,667,102.14090909090909C669.4166666666666,102.13219696969696,671.8333333333334,102.12348484848485,674.25,102.11477272727272C676.6666666666666,102.1060606060606,679.0833333333334,102.09734848484847,681.5,102.08863636363635C683.9166666666666,102.07992424242424,686.3333333333334,102.07121212121211,688.75,102.0625C691.1666666666666,102.05378787878789,693.5833333333334,102.04507575757575,696,102.03636363636363C698.4166666666666,102.02765151515152,700.8333333333334,102.01893939393939,703.25,102.01022727272728C705.6666666666666,102.00151515151516,708.0833333333334,101.99280303030304,710.5,101.98409090909091C712.9166666666666,101.97537878787878,715.3333333333334,101.96666666666665,717.75,101.95795454545454C720.1666666666666,101.94924242424243,722.5833333333334,101.9405303030303,725,101.93181818181819C727.4166666666666,101.92310606060607,729.8333333333334,101.91439393939395,732.25,101.90568181818182C734.6666666666666,101.89696969696969,737.0833333333334,101.88825757575756,739.5,101.87954545454545C741.9166666666666,101.87083333333334,744.3333333333334,101.86212121212121,746.75,101.8534090909091C749.1666666666666,101.84469696969698,751.5833333333334,101.83598484848486,754,101.82727272727273C756.4166666666666,101.8185606060606,758.8333333333334,101.80984848484847,761.25,101.80113636363636C763.6666666666666,101.79242424242425,766.0833333333334,101.78371212121212,768.5,101.775C770.9166666666666,101.76628787878789,773.3333333333334,101.75757575757576,775.75,101.74886363636364C778.1666666666666,101.74015151515151,780.5833333333334,101.7314393939394,783,101.72272727272727C785.4166666666667,101.71401515151514,787.8333333333334,101.70530303030303,790.2500000000001,101.6965909090909C792.6666666666667,101.68787878787877,795.0833333333335,101.67916666666665,797.5000000000001,101.67045454545453C799.9166666666667,101.66174242424242,802.3333333333335,101.6530303030303,804.7500000000001,101.64431818181819C807.1666666666667,101.63560606060608,809.5833333333335,101.62689393939395,812.0000000000001,101.61818181818182C814.4166666666667,101.6094696969697,816.8333333333333,101.60075757575758,819.2499999999999,101.59204545454546C821.6666666666665,101.58333333333333,824.0833333333333,101.57462121212122,826.4999999999999,101.56590909090909C828.9166666666665,101.55719696969696,831.3333333333333,101.54848484848483,833.7499999999999,101.53977272727272C836.1666666666665,101.5310606060606,838.5833333333333,101.52234848484848,840.9999999999999,101.51363636363637C843.4166666666666,101.50492424242424,845.8333333333333,101.49621212121212,848.25,101.4875C850.6666666666666,101.47878787878788,853.0833333333334,101.47007575757576,855.5,101.46136363636364C857.9166666666666,101.45265151515153,860.3333333333334,101.4439393939394,862.75,101.43522727272727C865.1666666666666,101.42651515151515,867.5833333333334,101.41780303030302,870,101.4090909090909C872.4166666666666,101.4003787878788,874.8333333333334,101.39166666666667,877.25,101.38295454545455C879.6666666666666,101.37424242424244,882.0833333333334,101.36553030303031,884.5,101.35681818181818C886.9166666666666,101.34810606060606,889.3333333333334,101.33939393939394,891.75,101.33068181818182C894.1666666666666,101.32196969696969,896.5833333333334,101.31325757575758,899,101.30454545454545C901.4166666666666,101.29583333333332,903.8333333333334,101.28712121212119,906.25,101.27840909090908C908.6666666666666,101.26969696969697,911.0833333333334,101.26098484848484,913.5,101.25227272727273C915.9166666666666,101.24356060606061,918.3333333333334,101.23484848484848,920.75,101.22613636363637C923.1666666666666,101.21742424242426,925.5833333333334,101.20871212121213,928,101.2C930.4166666666666,101.19128787878788,932.8333333333334,101.18257575757576,935.25,101.17386363636363C937.6666666666666,101.1651515151515,940.0833333333334,101.1564393939394,942.5,101.14772727272727C944.9166666666666,101.13901515151514,947.3333333333334,101.13030303030301,949.75,101.1215909090909C952.1666666666666,101.11287878787878,954.5833333333334,101.10416666666667,957,101.09545454545456C959.4166666666666,101.08674242424244,961.8333333333334,101.07803030303032,964.25,101.06931818181819C966.6666666666667,101.06060606060606,969.0833333333334,101.05189393939395,971.5000000000001,101.04318181818182C973.9166666666667,101.0344696969697,976.3333333333335,101.02575757575758,978.7500000000001,101.01704545454545C981.1666666666667,101.00833333333333,983.5833333333335,100.9996212121212,986.0000000000001,100.99090909090908C988.4166666666667,100.98219696969697,990.8333333333335,100.97348484848486,993.2500000000001,100.96477272727273C995.6666666666667,100.95606060606062,998.0833333333333,100.94734848484849,1000.4999999999999,100.93863636363636C1002.9166666666665,100.92992424242424,1005.3333333333333,100.92121212121211,1007.7499999999999,100.9125C1010.1666666666665,100.90378787878788,1012.5833333333333,100.89507575757575,1014.9999999999999,100.88636363636364C1017.4166666666665,100.87765151515153,1019.8333333333333,100.8689393939394,1022.2499999999999,100.86022727272727C1024.6666666666665,100.85151515151514,1027.0833333333333,100.84280303030303,1029.5,100.8340909090909C1031.9166666666667,100.82537878787879,1034.3333333333333,100.81666666666666,1036.75,100.80795454545455C1039.1666666666667,100.79924242424244,1041.5833333333333,100.79053030303031,1044,100.78181818181818C1046.4166666666667,100.77310606060605,1048.8333333333333,100.76439393939394,1051.25,100.75568181818181C1053.6666666666667,100.74696969696969,1056.0833333333333,100.73825757575756,1058.5,100.72954545454544C1060.9166666666667,100.72083333333333,1063.3333333333333,100.7121212121212,1065.75,100.70340909090909C1068.1666666666667,100.69469696969698,1070.5833333333333,100.68598484848485,1073,100.67727272727274C1075.4166666666667,100.66856060606062,1077.8333333333333,100.6598484848485,1080.25,100.65113636363637C1082.6666666666667,100.64242424242424,1085.0833333333333,100.63371212121213,1087.5,100.625C1089.9166666666667,100.61628787878787,1092.3333333333333,100.60757575757576,1094.75,100.59886363636363C1097.1666666666667,100.5901515151515,1099.5833333333333,100.58143939393938,1102,100.57272727272726C1104.4166666666667,100.56401515151515,1106.8333333333333,100.55530303030302,1109.25,100.54659090909091C1111.6666666666667,100.5378787878788,1114.0833333333333,100.52916666666667,1116.5,100.52045454545454C1118.9166666666667,100.51174242424241,1121.3333333333333,100.50303030303029,1123.75,100.49431818181817C1126.1666666666667,100.48560606060606,1128.5833333333333,100.47689393939393,1131,100.46818181818182C1133.4166666666667,100.4594696969697,1135.8333333333333,100.45075757575756,1138.25,100.44204545454545C1140.6666666666667,100.43333333333334,1143.0833333333333,100.42462121212121,1145.5,100.4159090909091C1147.9166666666667,100.40719696969698,1150.3333333333333,100.39848484848486,1152.75,100.38977272727273C1155.1666666666667,100.3810606060606,1157.5833333333333,100.3810606060606,1160,100.36363636363636C1162.4166666666667,100.34621212121212,1164.8333333333333,98.96969696969697,1167.25,98.27272727272727C1169.6666666666667,97.57575757575756,1172.0833333333333,96.87878787878789,1174.5,96.18181818181819C1176.9166666666667,95.48484848484848,1179.3333333333333,94.78787878787878,1181.75,94.09090909090908C1184.1666666666667,93.39393939393938,1186.5833333333333,92.69696969696969,1189,92C1191.4166666666667,91.30303030303031,1193.8333333333333,90.6060606060606,1196.25,89.9090909090909C1198.6666666666667,89.21212121212122,1201.0833333333333,88.51515151515153,1203.5,87.81818181818183C1205.9166666666667,87.12121212121212,1208.3333333333333,86.42424242424242,1210.75,85.72727272727272C1213.1666666666667,85.03030303030302,1215.5833333333333,84.33333333333334,1218,83.63636363636364C1220.4166666666667,82.93939393939394,1222.8333333333333,82.24242424242425,1225.25,81.54545454545455C1227.6666666666667,80.84848484848484,1230.0833333333333,80.15151515151516,1232.5,79.45454545454545C1234.9166666666667,78.75757575757575,1237.3333333333333,78.06060606060606,1239.75,77.36363636363636C1242.1666666666667,76.66666666666666,1244.5833333333333,75.96969696969697,1247,75.27272727272727C1249.4166666666667,74.57575757575756,1251.8333333333333,73.87878787878788,1254.25,73.18181818181819C1256.6666666666667,72.4848484848485,1259.0833333333333,71.7878787878788,1261.5,71.0909090909091C1263.9166666666667,70.39393939393939,1266.3333333333333,69.6969696969697,1268.75,69C1271.1666666666667,68.3030303030303,1273.5833333333333,67.6060606060606,1276,66.9090909090909C1278.4166666666667,66.21212121212122,1280.8333333333333,65.51515151515153,1283.25,64.81818181818183C1285.6666666666667,64.12121212121212,1288.0833333333333,63.424242424242415,1290.5,62.72727272727272C1292.9166666666667,62.030303030303024,1295.3333333333333,61.333333333333336,1297.75,60.63636363636364C1300.1666666666667,59.939393939393945,1302.5833333333333,59.242424242424235,1305,58.54545454545454C1307.4166666666667,57.848484848484844,1309.8333333333333,57.15151515151514,1312.25,56.454545454545446C1314.6666666666667,55.75757575757575,1317.0833333333333,55.06060606060606,1319.5,54.36363636363637C1321.9166666666667,53.66666666666667,1324.3333333333333,52.969696969696976,1326.75,52.27272727272728C1329.1666666666667,51.575757575757585,1331.5833333333333,50.87878787878788,1334,50.18181818181819C1336.4166666666667,49.48484848484849,1338.8333333333333,48.78787878787879,1341.25,48.09090909090909C1343.6666666666667,47.3939393939394,1346.0833333333333,46.696969696969695,1348.5,46C1350.9166666666667,45.303030303030305,1353.3333333333333,44.60606060606061,1355.75,43.909090909090914C1358.1666666666667,43.21212121212122,1360.5833333333333,42.515151515151516,1363,41.81818181818182C1365.4166666666667,41.121212121212125,1367.8333333333333,40.42424242424242,1370.25,39.72727272727273C1372.6666666666667,39.03030303030303,1375.0833333333333,38.33333333333333,1377.5,37.63636363636363C1379.9166666666667,36.93939393939394,1382.3333333333333,36.24242424242424,1384.75,35.54545454545455C1387.1666666666667,34.84848484848485,1389.5833333333333,34.15151515151515,1392,33.45454545454545C1394.4166666666667,32.75757575757576,1396.8333333333333,32.060606060606055,1399.25,31.36363636363636C1401.6666666666667,30.666666666666664,1404.0833333333333,29.969696969696965,1406.5,29.27272727272727C1408.9166666666667,28.575757575757574,1411.3333333333333,27.878787878787875,1413.75,27.18181818181818C1416.1666666666667,26.484848484848484,1418.5833333333333,25.787878787878782,1421,25.090909090909086C1423.4166666666667,24.39393939393939,1425.8333333333333,23.696969696969695,1428.25,22.999999999999996C1430.6666666666667,22.303030303030297,1433.0833333333333,21.6060606060606,1435.5,20.909090909090903C1437.9166666666667,20.212121212121207,1440.3333333333333,19.51515151515152,1442.75,18.818181818181824C1445.1666666666667,18.121212121212128,1447.5833333333333,17.424242424242433,1450,16.727272727272734" fill="transparent" stroke-linecap="round" stroke="#E7C6DF" stroke-width="2"></path><g class="visx-group visx-axis visx-axis-bottom" transform="translate(0, 115)"><g class="visx-group visx-axis-tick" transform="translate(0, 0)"><line class="visx-line" x1="0" y1="0" x2="0" y2="8" fill="transparent" shape-rendering="crispEdges" stroke="#000" stroke-width="0" stroke-linecap="square"></line><svg x="0" y="0" font-size="10" style="overflow:visible"><text transform="" x="0" y="18" fill="#000" font-size="10" text-anchor="middle"><tspan x="0" dy="0em">0%</tspan></text></svg></g><g class="visx-group visx-axis-tick" transform="translate(0, 0)"><line class="visx-line" x1="362.5" y1="0" x2="362.5" y2="8" fill="transparent" shape-rendering="crispEdges" stroke="#000" stroke-width="0" stroke-linecap="square"></line><svg x="0" y="0" font-size="10" style="overflow:visible"><text transform="" x="362.5" y="18" fill="#000" font-size="10" text-anchor="middle"><tspan x="362.5" dy="0em">25%</tspan></text></svg></g><g class="visx-group visx-axis-tick" transform="translate(0, 0)"><line class="visx-line" x1="725" y1="0" x2="725" y2="8" fill="transparent" shape-rendering="crispEdges" stroke="#000" stroke-width="0" stroke-linecap="square"></line><svg x="0" y="0" font-size="10" style="overflow:visible"><text transform="" x="725" y="18" fill="#000" font-size="10" text-anchor="middle"><tspan x="725" dy="0em">50%</tspan></text></svg></g><g class="visx-group visx-axis-tick" transform="translate(0, 0)"><line class="visx-line" x1="1087.5" y1="0" x2="1087.5" y2="8" fill="transparent" shape-rendering="crispEdges" stroke="#000" stroke-width="0" stroke-linecap="square"></line><svg x="0" y="0" font-size="10" style="overflow:visible"><text transform="" x="1087.5" y="18" fill="#000" font-size="10" text-anchor="middle"><tspan x="1087.5" dy="0em">75%</tspan></text></svg></g><g class="visx-group visx-axis-tick" transform="translate(0, 0)"><line class="visx-line" x1="1450" y1="0" x2="1450" y2="8" fill="transparent" shape-rendering="crispEdges" stroke="#000" stroke-width="0" stroke-linecap="square"></line><svg x="0" y="0" font-size="10" style="overflow:visible"><text transform="" x="1450" y="18" fill="#000" font-size="10" text-anchor="middle"><tspan x="1450" dy="0em">100%</tspan></text></svg></g><line class="visx-line visx-axis-line" x1="0.5" y1="0" x2="1450.5" y2="0" fill="transparent" shape-rendering="crispEdges" stroke="#222" stroke-width="0"></line></g><g class="visx-group visx-axis visx-axis-left" transform="translate(0, 0)"><g class="visx-group visx-axis-tick" transform="translate(0, 0)"><line class="visx-line" x1="0" y1="115" x2="-8" y2="115" fill="transparent" shape-rendering="crispEdges" stroke="#222" stroke-width="0" stroke-linecap="square"></line><svg x="-30" y="0" font-size="8" style="overflow:visible"><text transform="" x="-8" y="115" fill="#000" font-size="8" text-anchor="start"><tspan x="-8" dy="0em">0%</tspan></text></svg></g><g class="visx-group visx-axis-tick" transform="translate(0, 0)"><line class="visx-line" x1="0" y1="62.72727272727272" x2="-8" y2="62.72727272727272" fill="transparent" shape-rendering="crispEdges" stroke="#222" stroke-width="0" stroke-linecap="square"></line><svg x="-30" y="0" font-size="8" style="overflow:visible"><text transform="" x="-8" y="62.72727272727272" fill="#000" font-size="8" text-anchor="start"><tspan x="-8" dy="0em">50%</tspan></text></svg></g><g class="visx-group visx-axis-tick" transform="translate(0, 0)"><line class="visx-line" x1="0" y1="10.454545454545459" x2="-8" y2="10.454545454545459" fill="transparent" shape-rendering="crispEdges" stroke="#222" stroke-width="0" stroke-linecap="square"></line><svg x="-30" y="0" font-size="8" style="overflow:visible"><text transform="" x="-8" y="10.454545454545459" fill="#000" font-size="8" text-anchor="start"><tspan x="-8" dy="0em">100%</tspan></text></svg></g><line class="visx-line visx-axis-line" x1="0" y1="115.5" x2="0" y2="0.5" fill="transparent" shape-rendering="crispEdges" stroke="#222" stroke-width="0"></line></g><rect class="visx-bar" width="1450" height="115" fill="transparent"></rect><line class="visx-line" x1="1160" y1="28" x2="1160" y2="115" fill="transparent" shape-rendering="crispEdges" stroke="#0062D2" stroke-width="1" pointer-events="none" stroke-dasharray="5,2"></line><svg x="0" y="0" font-size="10px" style="overflow:visible"><text transform="" x="1160" y="20" font-size="10px" fill="#fff" stroke="#fff" stroke-width="0.8em" text-anchor="middle"><tspan x="1160" dy="0.355em">Optimal 80%</tspan></text></svg><svg x="0" y="0" font-size="10px" style="overflow:visible"><text transform="" x="1160" y="20" font-size="10px" fill="#62677B" text-anchor="middle"><tspan x="1160" dy="0.355em">Optimal 80%</tspan></text></svg></g></svg>