<?xml version="1.0"?><svg xmlns="http://www.w3.org/2000/svg" xmlns:xlink= "http://www.w3.org/1999/xlink" style="background: white;" width="1500" height="185"> <g style="color: black; font-size: 13px; font-family: sans-serif; transform: translate(18px, 25px);"><g><circle r="3" cx="-6" cy="-5" style="fill: #B6509E" /><text>Borrow APR, variable</text></g><g style="transform: translateX(150px);"><circle r="3" cx="-6" cy="-5" style="fill: rgb(231, 198, 223)" /><text>Borrow APR, stable</text></g><g style="transform: translateX(290px);"><circle r="3" cx="-6" cy="-5" style="fill: rgb(0, 98, 210)" /><text>Utilization Rate</text></g></g><g class="visx-group" transform="translate(40, 50)"><g class="visx-group visx-rows" transform="translate(0, 0)"><line class="visx-line" x1="0" y1="115" x2="1450" y2="115" fill="transparent" shape-rendering="crispEdges" stroke="#000" stroke-width="1" stroke-dasharray="3,3" pointer-events="none"></line><line class="visx-line" x1="0" y1="82.14285714285714" x2="1450" y2="82.14285714285714" fill="transparent" shape-rendering="crispEdges" stroke="#000" stroke-width="1" stroke-dasharray="3,3" pointer-events="none"></line><line class="visx-line" x1="0" y1="49.28571428571429" x2="1450" y2="49.28571428571429" fill="transparent" shape-rendering="crispEdges" stroke="#000" stroke-width="1" stroke-dasharray="3,3" pointer-events="none"></line><line class="visx-line" x1="0" y1="16.428571428571434" x2="1450" y2="16.428571428571434" fill="transparent" shape-rendering="crispEdges" stroke="#000" stroke-width="1" stroke-dasharray="3,3" pointer-events="none"></line></g><path class="visx-linepath" d="M0,114.99999999995619C2.4166666666666665,114.99269841267285,4.833333333333334,114.98539682538951,7.25,114.97809523809524C9.666666666666666,114.97079365080096,12.083333333333334,114.96349206349205,14.5,114.95619047619047C16.916666666666668,114.94888888888889,19.333333333333332,114.9415873015873,21.75,114.93428571428572C24.166666666666668,114.92698412698414,26.583333333333332,114.91968253968254,29,114.91238095238096C31.416666666666668,114.90507936507937,33.833333333333336,114.89777777777778,36.25,114.89047619047619C38.666666666666664,114.88317460317461,41.083333333333336,114.87587301587301,43.5,114.86857142857143C45.91666666666667,114.86126984126984,48.333333333333336,114.85396825396825,50.75000000000001,114.84666666666666C53.16666666666667,114.83936507936508,55.583333333333336,114.8320634920635,58,114.82476190476191C60.416666666666664,114.81746031746033,62.833333333333336,114.81015873015873,65.25,114.80285714285715C67.66666666666667,114.79555555555557,70.08333333333333,114.78825396825397,72.5,114.78095238095239C74.91666666666667,114.7736507936508,77.33333333333333,114.76634920634919,79.75,114.7590476190476C82.16666666666667,114.75174603174602,84.58333333333333,114.74444444444444,87,114.73714285714286C89.41666666666667,114.72984126984127,91.83333333333333,114.72253968253968,94.25,114.71523809523809C96.66666666666667,114.70793650793651,99.08333333333334,114.70063492063491,101.50000000000001,114.69333333333333C103.91666666666667,114.68603174603174,106.33333333333334,114.67873015873015,108.75,114.67142857142856C111.16666666666667,114.66412698412698,113.58333333333333,114.65682539682538,116,114.6495238095238C118.41666666666667,114.64222222222222,120.83333333333334,114.63492063492063,123.25000000000001,114.62761904761905C125.66666666666667,114.62031746031747,128.08333333333334,114.61301587301587,130.5,114.60571428571428C132.91666666666666,114.5984126984127,135.33333333333334,114.5911111111111,137.75,114.58380952380952C140.16666666666666,114.57650793650794,142.58333333333334,114.56920634920634,145,114.56190476190476C147.41666666666666,114.55460317460317,149.83333333333334,114.54730158730159,152.25,114.54C154.66666666666666,114.53269841269842,157.08333333333334,114.52539682539683,159.5,114.51809523809524C161.91666666666666,114.51079365079366,164.33333333333334,114.50349206349206,166.75,114.49619047619048C169.16666666666666,114.4888888888889,171.58333333333334,114.4815873015873,174,114.47428571428571C176.41666666666666,114.46698412698413,178.83333333333334,114.45968253968253,181.25,114.45238095238095C183.66666666666666,114.44507936507937,186.08333333333334,114.43777777777778,188.5,114.4304761904762C190.91666666666666,114.42317460317462,193.33333333333334,114.41587301587302,195.75,114.40857142857143C198.16666666666669,114.40126984126985,200.58333333333334,114.39396825396825,203.00000000000003,114.38666666666667C205.41666666666669,114.37936507936509,207.83333333333331,114.37206349206349,210.24999999999997,114.3647619047619C212.66666666666666,114.35746031746032,215.08333333333331,114.35015873015873,217.5,114.34285714285714C219.91666666666666,114.33555555555556,222.33333333333334,114.32825396825397,224.75,114.32095238095239C227.16666666666666,114.31365079365081,229.58333333333334,114.30634920634921,232,114.29904761904763C234.41666666666666,114.29174603174604,236.83333333333334,114.28444444444443,239.25,114.27714285714285C241.66666666666669,114.26984126984125,244.08333333333334,114.26253968253967,246.50000000000003,114.25523809523808C248.91666666666669,114.2479365079365,251.33333333333331,114.24063492063492,253.74999999999997,114.23333333333333C256.16666666666663,114.22603174603175,258.5833333333333,114.21873015873015,261,114.21142857142857C263.4166666666667,114.20412698412699,265.8333333333333,114.19682539682539,268.25,114.1895238095238C270.6666666666667,114.18222222222222,273.0833333333333,114.17492063492062,275.5,114.16761904761904C277.9166666666667,114.16031746031746,280.3333333333333,114.15301587301586,282.75,114.14571428571428C285.1666666666667,114.1384126984127,287.5833333333333,114.13111111111111,290,114.12380952380953C292.4166666666667,114.11650793650794,294.8333333333333,114.10920634920635,297.25,114.10190476190476C299.6666666666667,114.09460317460318,302.0833333333333,114.08730158730158,304.5,114.08C306.9166666666667,114.07269841269841,309.3333333333333,114.06539682539682,311.75,114.05809523809523C314.1666666666667,114.05079365079365,316.5833333333333,114.04349206349205,319,114.03619047619047C321.4166666666667,114.02888888888889,323.8333333333333,114.0215873015873,326.25,114.01428571428572C328.6666666666667,114.00698412698414,331.0833333333333,113.99968253968254,333.5,113.99238095238096C335.9166666666667,113.98507936507937,338.3333333333333,113.97777777777777,340.75,113.97047619047619C343.1666666666667,113.96317460317461,345.5833333333333,113.95587301587301,348,113.94857142857143C350.4166666666667,113.94126984126984,352.8333333333333,113.93396825396826,355.25,113.92666666666668C357.6666666666667,113.9193650793651,360.0833333333333,113.9120634920635,362.5,113.90476190476191C364.9166666666667,113.89746031746033,367.3333333333333,113.89015873015873,369.75,113.88285714285715C372.1666666666667,113.87555555555556,374.5833333333333,113.86825396825397,377,113.86095238095238C379.4166666666667,113.8536507936508,381.8333333333333,113.8463492063492,384.25,113.83904761904762C386.6666666666667,113.83174603174604,389.0833333333333,113.82444444444445,391.5,113.81714285714287C393.9166666666667,113.80984126984129,396.33333333333337,113.80253968253969,398.75000000000006,113.79523809523809C401.16666666666674,113.78793650793651,403.58333333333337,113.78063492063491,406.00000000000006,113.77333333333333C408.4166666666667,113.76603174603174,410.8333333333333,113.75873015873015,413.24999999999994,113.75142857142856C415.66666666666663,113.74412698412698,418.08333333333326,113.7368253968254,420.49999999999994,113.72952380952381C422.91666666666663,113.72222222222223,425.3333333333333,113.71492063492063,427.75,113.70761904761905C430.1666666666667,113.70031746031746,432.5833333333333,113.69301587301587,435,113.68571428571428C437.4166666666667,113.6784126984127,439.8333333333333,113.6711111111111,442.25,113.66380952380952C444.6666666666667,113.65650793650794,447.0833333333333,113.64920634920634,449.5,113.64190476190475C451.9166666666667,113.63460317460317,454.3333333333333,113.62730158730159,456.75,113.62C459.1666666666667,113.61269841269842,461.5833333333333,113.60539682539682,464,113.59809523809524C466.4166666666667,113.59079365079366,468.8333333333333,113.58349206349206,471.25,113.57619047619048C473.6666666666667,113.56888888888889,476.0833333333333,113.5615873015873,478.5,113.55428571428571C480.9166666666667,113.54698412698413,483.33333333333337,113.53968253968253,485.75000000000006,113.53238095238095C488.16666666666674,113.52507936507936,490.58333333333337,113.51777777777778,493.00000000000006,113.5104761904762C495.4166666666667,113.50317460317461,497.8333333333333,113.49587301587302,500.24999999999994,113.48857142857143C502.66666666666663,113.48126984126985,505.08333333333326,113.47396825396825,507.49999999999994,113.46666666666667C509.91666666666663,113.45936507936509,512.3333333333333,113.45206349206349,514.75,113.4447619047619C517.1666666666666,113.43746031746032,519.5833333333334,113.43015873015872,522,113.42285714285714C524.4166666666666,113.41555555555556,526.8333333333334,113.40825396825397,529.25,113.40095238095239C531.6666666666666,113.3936507936508,534.0833333333334,113.38634920634921,536.5,113.37904761904763C538.9166666666666,113.37174603174604,541.3333333333334,113.36444444444444,543.75,113.35714285714286C546.1666666666666,113.34984126984128,548.5833333333334,113.34253968253967,551,113.33523809523808C553.4166666666666,113.3279365079365,555.8333333333334,113.32063492063492,558.25,113.31333333333333C560.6666666666666,113.30603174603175,563.0833333333334,113.29873015873015,565.5,113.29142857142857C567.9166666666666,113.28412698412698,570.3333333333334,113.27682539682539,572.75,113.2695238095238C575.1666666666666,113.26222222222222,577.5833333333334,113.25492063492062,580,113.24761904761904C582.4166666666666,113.24031746031746,584.8333333333334,113.23301587301586,587.25,113.22571428571428C589.6666666666666,113.21841269841269,592.0833333333334,113.21111111111111,594.5,113.20380952380953C596.9166666666666,113.19650793650794,599.3333333333334,113.18920634920634,601.75,113.18190476190476C604.1666666666666,113.17460317460318,606.5833333333334,113.16730158730158,609,113.16C611.4166666666666,113.15269841269841,613.8333333333334,113.14539682539682,616.25,113.13809523809523C618.6666666666666,113.13079365079365,621.0833333333334,113.12349206349207,623.5,113.11619047619048C625.9166666666666,113.1088888888889,628.3333333333334,113.1015873015873,630.75,113.09428571428572C633.1666666666666,113.08698412698413,635.5833333333334,113.07968253968254,638,113.07238095238095C640.4166666666666,113.06507936507937,642.8333333333334,113.05777777777777,645.25,113.05047619047619C647.6666666666666,113.0431746031746,650.0833333333334,113.0431746031746,652.5,113.02857142857142C654.9166666666666,113.01396825396824,657.3333333333334,112.43116883116883,659.75,112.13246753246753C662.1666666666666,111.83376623376623,664.5833333333334,111.53506493506494,667,111.23636363636363C669.4166666666666,110.93766233766233,671.8333333333334,110.63896103896104,674.25,110.34025974025974C676.6666666666666,110.04155844155844,679.0833333333334,109.74285714285715,681.5,109.44415584415584C683.9166666666666,109.14545454545454,686.3333333333334,108.84675324675325,688.75,108.54805194805195C691.1666666666666,108.24935064935065,693.5833333333334,107.95064935064936,696,107.65194805194805C698.4166666666666,107.35324675324675,700.8333333333334,107.05454545454546,703.25,106.75584415584416C705.6666666666666,106.45714285714286,708.0833333333334,106.15844155844157,710.5,105.85974025974026C712.9166666666666,105.56103896103896,715.3333333333334,105.26233766233767,717.75,104.96363636363637C720.1666666666666,104.66493506493507,722.5833333333334,104.36623376623378,725,104.06753246753247C727.4166666666666,103.76883116883117,729.8333333333334,103.47012987012987,732.25,103.17142857142856C734.6666666666666,102.87272727272726,737.0833333333334,102.57402597402597,739.5,102.27532467532467C741.9166666666666,101.97662337662337,744.3333333333334,101.67792207792208,746.75,101.37922077922077C749.1666666666666,101.08051948051947,751.5833333333334,100.78181818181818,754,100.48311688311688C756.4166666666666,100.18441558441558,758.8333333333334,99.88571428571429,761.25,99.58701298701298C763.6666666666666,99.28831168831168,766.0833333333334,98.98961038961039,768.5,98.69090909090909C770.9166666666666,98.39220779220778,773.3333333333334,98.0935064935065,775.75,97.79480519480519C778.1666666666666,97.49610389610389,780.5833333333334,97.19740259740259,783,96.8987012987013C785.4166666666667,96.6,787.8333333333334,96.30129870129872,790.2500000000001,96.00259740259742C792.6666666666667,95.70389610389611,795.0833333333335,95.40519480519481,797.5000000000001,95.1064935064935C799.9166666666667,94.8077922077922,802.3333333333335,94.50909090909092,804.7500000000001,94.21038961038961C807.1666666666667,93.91168831168831,809.5833333333335,93.61298701298702,812.0000000000001,93.31428571428572C814.4166666666667,93.01558441558443,816.8333333333333,92.71688311688312,819.2499999999999,92.41818181818182C821.6666666666665,92.11948051948052,824.0833333333333,91.82077922077922,826.4999999999999,91.52207792207791C828.9166666666665,91.22337662337661,831.3333333333333,90.92467532467532,833.7499999999999,90.62597402597402C836.1666666666665,90.32727272727271,838.5833333333333,90.02857142857141,840.9999999999999,89.72987012987012C843.4166666666666,89.43116883116882,845.8333333333333,89.13246753246754,848.25,88.83376623376624C850.6666666666666,88.53506493506495,853.0833333333334,88.23636363636363,855.5,87.93766233766233C857.9166666666666,87.63896103896103,860.3333333333334,87.34025974025975,862.75,87.04155844155845C865.1666666666666,86.74285714285715,867.5833333333334,86.44415584415584,870,86.14545454545454C872.4166666666666,85.84675324675324,874.8333333333334,85.54805194805196,877.25,85.24935064935066C879.6666666666666,84.95064935064936,882.0833333333334,84.65194805194805,884.5,84.35324675324675C886.9166666666666,84.05454545454545,889.3333333333334,83.75584415584416,891.75,83.45714285714286C894.1666666666666,83.15844155844155,896.5833333333334,82.85974025974025,899,82.56103896103895C901.4166666666666,82.26233766233764,903.8333333333334,81.96363636363635,906.25,81.66493506493507C908.6666666666666,81.36623376623378,911.0833333333334,81.06753246753247,913.5,80.76883116883117C915.9166666666666,80.47012987012987,918.3333333333334,80.17142857142858,920.75,79.87272727272727C923.1666666666666,79.57402597402597,925.5833333333334,79.27532467532467,928,78.97662337662337C930.4166666666666,78.67792207792206,932.8333333333334,78.37922077922079,935.25,78.08051948051948C937.6666666666666,77.78181818181818,940.0833333333334,77.48311688311688,942.5,77.18441558441558C944.9166666666666,76.88571428571427,947.3333333333334,76.587012987013,949.75,76.2883116883117C952.1666666666666,75.98961038961039,954.5833333333334,75.69090909090909,957,75.39220779220778C959.4166666666666,75.09350649350648,961.8333333333334,74.79480519480519,964.25,74.4961038961039C966.6666666666667,74.1974025974026,969.0833333333334,73.89870129870131,971.5000000000001,73.60000000000001C973.9166666666667,73.3012987012987,976.3333333333335,73.0025974025974,978.7500000000001,72.7038961038961C981.1666666666667,72.4051948051948,983.5833333333335,72.10649350649352,986.0000000000001,71.80779220779222C988.4166666666667,71.50909090909092,990.8333333333335,71.21038961038961,993.2500000000001,70.91168831168831C995.6666666666667,70.612987012987,998.0833333333333,70.3142857142857,1000.4999999999999,70.01558441558441C1002.9166666666665,69.71688311688311,1005.3333333333333,69.41818181818181,1007.7499999999999,69.11948051948052C1010.1666666666665,68.82077922077923,1012.5833333333333,68.52207792207794,1014.9999999999999,68.22337662337664C1017.4166666666665,67.92467532467533,1019.8333333333333,67.62597402597403,1022.2499999999999,67.32727272727273C1024.6666666666665,67.02857142857142,1027.0833333333333,66.72987012987014,1029.5,66.43116883116883C1031.9166666666667,66.13246753246753,1034.3333333333333,65.83376623376624,1036.75,65.53506493506494C1039.1666666666667,65.23636363636363,1041.5833333333333,64.93766233766235,1044,64.63896103896104C1046.4166666666667,64.34025974025974,1048.8333333333333,64.04155844155844,1051.25,63.74285714285714C1053.6666666666667,63.444155844155844,1056.0833333333333,63.145454545454555,1058.5,62.84675324675326C1060.9166666666667,62.54805194805196,1063.3333333333333,62.24935064935065,1065.75,61.95064935064935C1068.1666666666667,61.65194805194805,1070.5833333333333,61.35324675324675,1073,61.054545454545455C1075.4166666666667,60.75584415584416,1077.8333333333333,60.45714285714285,1080.25,60.15844155844155C1082.6666666666667,59.859740259740256,1085.0833333333333,59.56103896103897,1087.5,59.26233766233767C1089.9166666666667,58.963636363636375,1092.3333333333333,58.664935064935065,1094.75,58.36623376623376C1097.1666666666667,58.06753246753246,1099.5833333333333,57.76883116883116,1102,57.47012987012987C1104.4166666666667,57.17142857142857,1106.8333333333333,56.87272727272727,1109.25,56.57402597402597C1111.6666666666667,56.275324675324676,1114.0833333333333,55.97662337662338,1116.5,55.677922077922084C1118.9166666666667,55.37922077922079,1121.3333333333333,55.08051948051948,1123.75,54.781818181818174C1126.1666666666667,54.48311688311687,1128.5833333333333,54.184415584415575,1131,53.88571428571428C1133.4166666666667,53.58701298701298,1135.8333333333333,53.288311688311694,1138.25,52.9896103896104C1140.6666666666667,52.6909090909091,1143.0833333333333,52.39220779220779,1145.5,52.09350649350649C1147.9166666666667,51.794805194805186,1150.3333333333333,51.49610389610389,1152.75,51.19740259740259C1155.1666666666667,50.8987012987013,1157.5833333333333,50.6,1160,50.301298701298705C1162.4166666666667,50.00259740259741,1164.8333333333333,49.703896103896106,1167.25,49.40519480519481C1169.6666666666667,49.106493506493514,1172.0833333333333,48.80779220779221,1174.5,48.509090909090915C1176.9166666666667,48.21038961038962,1179.3333333333333,47.911688311688316,1181.75,47.61298701298702C1184.1666666666667,47.314285714285724,1186.5833333333333,47.01558441558443,1189,46.716883116883125C1191.4166666666667,46.41818181818182,1193.8333333333333,46.11948051948052,1196.25,45.820779220779215C1198.6666666666667,45.52207792207791,1201.0833333333333,45.223376623376616,1203.5,44.92467532467532C1205.9166666666667,44.625974025974024,1208.3333333333333,44.32727272727273,1210.75,44.02857142857143C1213.1666666666667,43.729870129870136,1215.5833333333333,43.43116883116882,1218,43.13246753246752C1220.4166666666667,42.83376623376623,1222.8333333333333,42.53506493506494,1225.25,42.23636363636364C1227.6666666666667,41.937662337662346,1230.0833333333333,41.63896103896104,1232.5,41.34025974025975C1234.9166666666667,41.04155844155845,1237.3333333333333,40.74285714285714,1239.75,40.444155844155844C1242.1666666666667,40.14545454545455,1244.5833333333333,39.846753246753245,1247,39.54805194805195C1249.4166666666667,39.24935064935065,1251.8333333333333,38.95064935064935,1254.25,38.651948051948054C1256.6666666666667,38.35324675324676,1259.0833333333333,38.05454545454546,1261.5,37.75584415584416C1263.9166666666667,37.457142857142856,1266.3333333333333,37.158441558441545,1268.75,36.85974025974025C1271.1666666666667,36.56103896103895,1273.5833333333333,36.262337662337664,1276,35.96363636363637C1278.4166666666667,35.66493506493507,1280.8333333333333,35.36623376623376,1283.25,35.067532467532466C1285.6666666666667,34.76883116883117,1288.0833333333333,34.47012987012987,1290.5,34.17142857142857C1292.9166666666667,33.872727272727275,1295.3333333333333,33.57402597402597,1297.75,33.275324675324676C1300.1666666666667,32.97662337662338,1302.5833333333333,32.67792207792208,1305,32.37922077922078C1307.4166666666667,32.080519480519484,1309.8333333333333,31.781818181818178,1312.25,31.48311688311688C1314.6666666666667,31.184415584415586,1317.0833333333333,30.8857142857143,1319.5,30.587012987013C1321.9166666666667,30.2883116883117,1324.3333333333333,29.98961038961039,1326.75,29.69090909090909C1329.1666666666667,29.392207792207792,1331.5833333333333,29.09350649350649,1334,28.794805194805193C1336.4166666666667,28.496103896103897,1338.8333333333333,28.19740259740261,1341.25,27.89870129870131C1343.6666666666667,27.600000000000012,1346.0833333333333,27.301298701298702,1348.5,27.002597402597402C1350.9166666666667,26.703896103896103,1353.3333333333333,26.405194805194803,1355.75,26.106493506493504C1358.1666666666667,25.807792207792204,1360.5833333333333,25.509090909090894,1363,25.210389610389594C1365.4166666666667,24.911688311688295,1367.8333333333333,24.612987012987006,1370.25,24.314285714285713C1372.6666666666667,24.01558441558442,1375.0833333333333,23.716883116883125,1377.5,23.41818181818183C1379.9166666666667,23.119480519480533,1382.3333333333333,22.820779220779233,1384.75,22.522077922077933C1387.1666666666667,22.223376623376634,1389.5833333333333,21.924675324675324,1392,21.625974025974024C1394.4166666666667,21.327272727272724,1396.8333333333333,21.02857142857142,1399.25,20.729870129870125C1401.6666666666667,20.43116883116883,1404.0833333333333,20.132467532467544,1406.5,19.833766233766244C1408.9166666666667,19.535064935064945,1411.3333333333333,19.236363636363635,1413.75,18.937662337662335C1416.1666666666667,18.638961038961035,1418.5833333333333,18.34025974025975,1421,18.04155844155845C1423.4166666666667,17.74285714285715,1425.8333333333333,17.44415584415584,1428.25,17.14545454545454C1430.6666666666667,16.84675324675324,1433.0833333333333,16.548051948051942,1435.5,16.249350649350646C1437.9166666666667,15.95064935064935,1440.3333333333333,15.651948051948061,1442.75,15.353246753246761C1445.1666666666667,15.054545454545462,1447.5833333333333,14.755844155844157,1450,14.457142857142852" fill="transparent" stroke-linecap="round" stroke="#B6509E" stroke-width="2"></path><path class="visx-linepath" d="M0,112.6999999999708C2.4166666666666665,112.69513227511524,4.833333333333334,112.69026455025968,7.25,112.68539682539682C9.666666666666666,112.68052910053396,12.083333333333334,112.67566137566136,14.5,112.67079365079364C16.916666666666668,112.66592592592592,19.333333333333332,112.6610582010582,21.75,112.65619047619047C24.166666666666668,112.65132275132275,26.583333333333332,112.64645502645503,29,112.64158730158731C31.416666666666668,112.63671957671959,33.833333333333336,112.63185185185185,36.25,112.62698412698413C38.666666666666664,112.6221164021164,41.083333333333336,112.61724867724868,43.5,112.61238095238096C45.91666666666667,112.60751322751324,48.333333333333336,112.6026455026455,50.75000000000001,112.59777777777778C53.16666666666667,112.59291005291006,55.583333333333336,112.58804232804232,58,112.5831746031746C60.416666666666664,112.57830687830688,62.833333333333336,112.57343915343915,65.25,112.56857142857143C67.66666666666667,112.56370370370371,70.08333333333333,112.55883597883599,72.5,112.55396825396826C74.91666666666667,112.54910052910054,77.33333333333333,112.5442328042328,79.75,112.53936507936508C82.16666666666667,112.53449735449736,84.58333333333333,112.52962962962962,87,112.5247619047619C89.41666666666667,112.51989417989418,91.83333333333333,112.51502645502644,94.25,112.51015873015872C96.66666666666667,112.505291005291,99.08333333333334,112.50042328042328,101.50000000000001,112.49555555555555C103.91666666666667,112.49068783068783,106.33333333333334,112.48582010582011,108.75,112.48095238095239C111.16666666666667,112.47608465608467,113.58333333333333,112.47121693121693,116,112.46634920634921C118.41666666666667,112.46148148148148,120.83333333333334,112.45661375661375,123.25000000000001,112.45174603174603C125.66666666666667,112.4468783068783,128.08333333333334,112.44201058201058,130.5,112.43714285714286C132.91666666666666,112.43227513227514,135.33333333333334,112.4274074074074,137.75,112.42253968253968C140.16666666666666,112.41767195767196,142.58333333333334,112.41280423280423,145,112.40793650793651C147.41666666666666,112.40306878306879,149.83333333333334,112.39820105820107,152.25,112.39333333333335C154.66666666666666,112.38846560846562,157.08333333333334,112.38359788359787,159.5,112.37873015873015C161.91666666666666,112.37386243386243,164.33333333333334,112.3689947089947,166.75,112.36412698412698C169.16666666666666,112.35925925925926,171.58333333333334,112.35439153439152,174,112.3495238095238C176.41666666666666,112.34465608465608,178.83333333333334,112.33978835978836,181.25,112.33492063492064C183.66666666666666,112.33005291005291,186.08333333333334,112.32518518518519,188.5,112.32031746031747C190.91666666666666,112.31544973544975,193.33333333333334,112.31058201058201,195.75,112.30571428571429C198.16666666666669,112.30084656084657,200.58333333333334,112.29597883597883,203.00000000000003,112.2911111111111C205.41666666666669,112.28624338624338,207.83333333333331,112.28137566137566,210.24999999999997,112.27650793650794C212.66666666666666,112.27164021164022,215.08333333333331,112.26677248677248,217.5,112.26190476190476C219.91666666666666,112.25703703703704,222.33333333333334,112.25216931216931,224.75,112.24730158730159C227.16666666666666,112.24243386243387,229.58333333333334,112.23756613756613,232,112.23269841269841C234.41666666666666,112.22783068783069,236.83333333333334,112.22296296296295,239.25,112.21809523809523C241.66666666666669,112.21322751322751,244.08333333333334,112.20835978835979,246.50000000000003,112.20349206349206C248.91666666666669,112.19862433862434,251.33333333333331,112.1937566137566,253.74999999999997,112.18888888888888C256.16666666666663,112.18402116402116,258.5833333333333,112.17915343915344,261,112.17428571428572C263.4166666666667,112.169417989418,265.8333333333333,112.16455026455027,268.25,112.15968253968255C270.6666666666667,112.15481481481483,273.0833333333333,112.14994708994708,275.5,112.14507936507935C277.9166666666667,112.14021164021163,280.3333333333333,112.13534391534391,282.75,112.13047619047619C285.1666666666667,112.12560846560847,287.5833333333333,112.12074074074074,290,112.11587301587302C292.4166666666667,112.1110052910053,294.8333333333333,112.10613756613756,297.25,112.10126984126984C299.6666666666667,112.09640211640212,302.0833333333333,112.0915343915344,304.5,112.08666666666667C306.9166666666667,112.08179894179895,309.3333333333333,112.07693121693121,311.75,112.07206349206349C314.1666666666667,112.06719576719577,316.5833333333333,112.06232804232803,319,112.05746031746031C321.4166666666667,112.05259259259259,323.8333333333333,112.04772486772487,326.25,112.04285714285714C328.6666666666667,112.03798941798942,331.0833333333333,112.03312169312169,333.5,112.02825396825396C335.9166666666667,112.02338624338624,338.3333333333333,112.01851851851852,340.75,112.0136507936508C343.1666666666667,112.00878306878307,345.5833333333333,112.00391534391535,348,111.99904761904763C350.4166666666667,111.99417989417991,352.8333333333333,111.98931216931216,355.25,111.98444444444443C357.6666666666667,111.97957671957671,360.0833333333333,111.97470899470899,362.5,111.96984126984127C364.9166666666667,111.96497354497355,367.3333333333333,111.96010582010582,369.75,111.9552380952381C372.1666666666667,111.95037037037038,374.5833333333333,111.94550264550264,377,111.94063492063492C379.4166666666667,111.9357671957672,381.8333333333333,111.93089947089948,384.25,111.92603174603175C386.6666666666667,111.92116402116403,389.0833333333333,111.91629629629628,391.5,111.91142857142856C393.9166666666667,111.90656084656084,396.33333333333337,111.90169312169311,398.75000000000006,111.89682539682539C401.16666666666674,111.89195767195767,403.58333333333337,111.88708994708995,406.00000000000006,111.88222222222223C408.4166666666667,111.8773544973545,410.8333333333333,111.87248677248677,413.24999999999994,111.86761904761904C415.66666666666663,111.86275132275132,418.08333333333326,111.8578835978836,420.49999999999994,111.85301587301588C422.91666666666663,111.84814814814816,425.3333333333333,111.84328042328042,427.75,111.8384126984127C430.1666666666667,111.83354497354497,432.5833333333333,111.82867724867724,435,111.82380952380952C437.4166666666667,111.8189417989418,439.8333333333333,111.81407407407407,442.25,111.80920634920635C444.6666666666667,111.80433862433863,447.0833333333333,111.7994708994709,449.5,111.79460317460318C451.9166666666667,111.78973544973546,454.3333333333333,111.78486772486772,456.75,111.78C459.1666666666667,111.77513227513228,461.5833333333333,111.77026455026454,464,111.76539682539682C466.4166666666667,111.7605291005291,468.8333333333333,111.75566137566138,471.25,111.75079365079365C473.6666666666667,111.74592592592593,476.0833333333333,111.7410582010582,478.5,111.73619047619047C480.9166666666667,111.73132275132275,483.33333333333337,111.72645502645503,485.75000000000006,111.7215873015873C488.16666666666674,111.71671957671958,490.58333333333337,111.71185185185185,493.00000000000006,111.70698412698412C495.4166666666667,111.7021164021164,497.8333333333333,111.69724867724868,500.24999999999994,111.69238095238096C502.66666666666663,111.68751322751324,505.08333333333326,111.6826455026455,507.49999999999994,111.67777777777778C509.91666666666663,111.67291005291005,512.3333333333333,111.66804232804232,514.75,111.6631746031746C517.1666666666666,111.65830687830687,519.5833333333334,111.65343915343915,522,111.64857142857143C524.4166666666666,111.64370370370371,526.8333333333334,111.63883597883598,529.25,111.63396825396826C531.6666666666666,111.62910052910054,534.0833333333334,111.6242328042328,536.5,111.61936507936508C538.9166666666666,111.61449735449736,541.3333333333334,111.60962962962962,543.75,111.6047619047619C546.1666666666666,111.59989417989418,548.5833333333334,111.59502645502644,551,111.59015873015872C553.4166666666666,111.585291005291,555.8333333333334,111.58042328042328,558.25,111.57555555555555C560.6666666666666,111.57068783068783,563.0833333333334,111.56582010582011,565.5,111.56095238095239C567.9166666666666,111.55608465608466,570.3333333333334,111.55121693121693,572.75,111.5463492063492C575.1666666666666,111.54148148148148,577.5833333333334,111.53661375661375,580,111.53174603174602C582.4166666666666,111.5268783068783,584.8333333333334,111.52201058201058,587.25,111.51714285714286C589.6666666666666,111.51227513227514,592.0833333333334,111.5074074074074,594.5,111.50253968253968C596.9166666666666,111.49767195767195,599.3333333333334,111.49280423280423,601.75,111.48793650793651C604.1666666666666,111.48306878306879,606.5833333333334,111.47820105820107,609,111.47333333333334C611.4166666666666,111.46846560846562,613.8333333333334,111.46359788359788,616.25,111.45873015873016C618.6666666666666,111.45386243386244,621.0833333333334,111.4489947089947,623.5,111.44412698412698C625.9166666666666,111.43925925925926,628.3333333333334,111.43439153439154,630.75,111.42952380952381C633.1666666666666,111.42465608465609,635.5833333333334,111.41978835978836,638,111.41492063492063C640.4166666666666,111.41005291005291,642.8333333333334,111.40518518518519,645.25,111.40031746031747C647.6666666666666,111.39544973544974,650.0833333333334,111.39544973544974,652.5,111.38571428571429C654.9166666666666,111.37597883597883,657.3333333333334,111.23636363636363,659.75,111.16168831168831C662.1666666666666,111.08701298701298,664.5833333333334,111.01233766233767,667,110.93766233766235C669.4166666666666,110.86298701298702,671.8333333333334,110.7883116883117,674.25,110.71363636363637C676.6666666666666,110.63896103896104,679.0833333333334,110.56428571428572,681.5,110.48961038961039C683.9166666666666,110.41493506493507,686.3333333333334,110.34025974025974,688.75,110.26558441558441C691.1666666666666,110.19090909090909,693.5833333333334,110.11623376623376,696,110.04155844155844C698.4166666666666,109.96688311688311,700.8333333333334,109.8922077922078,703.25,109.81753246753247C705.6666666666666,109.74285714285715,708.0833333333334,109.66818181818182,710.5,109.5935064935065C712.9166666666666,109.51883116883117,715.3333333333334,109.44415584415584,717.75,109.36948051948052C720.1666666666666,109.29480519480519,722.5833333333334,109.22012987012987,725,109.14545454545454C727.4166666666666,109.07077922077922,729.8333333333334,108.9961038961039,732.25,108.92142857142858C734.6666666666666,108.84675324675325,737.0833333333334,108.77207792207791,739.5,108.69740259740259C741.9166666666666,108.62272727272726,744.3333333333334,108.54805194805195,746.75,108.47337662337662C749.1666666666666,108.3987012987013,751.5833333333334,108.32402597402597,754,108.24935064935065C756.4166666666666,108.17467532467532,758.8333333333334,108.10000000000001,761.25,108.02532467532468C763.6666666666666,107.95064935064936,766.0833333333334,107.87597402597403,768.5,107.8012987012987C770.9166666666666,107.72662337662338,773.3333333333334,107.65194805194805,775.75,107.57727272727273C778.1666666666666,107.5025974025974,780.5833333333334,107.42792207792208,783,107.35324675324675C785.4166666666667,107.27857142857142,787.8333333333334,107.20389610389611,790.2500000000001,107.12922077922079C792.6666666666667,107.05454545454546,795.0833333333335,106.97987012987012,797.5000000000001,106.9051948051948C799.9166666666667,106.83051948051947,802.3333333333335,106.75584415584416,804.7500000000001,106.68116883116883C807.1666666666667,106.6064935064935,809.5833333333335,106.53181818181818,812.0000000000001,106.45714285714286C814.4166666666667,106.38246753246753,816.8333333333333,106.30779220779222,819.2499999999999,106.23311688311689C821.6666666666665,106.15844155844157,824.0833333333333,106.08376623376624,826.4999999999999,106.00909090909092C828.9166666666665,105.93441558441559,831.3333333333333,105.85974025974026,833.7499999999999,105.78506493506494C836.1666666666665,105.71038961038961,838.5833333333333,105.63571428571429,840.9999999999999,105.56103896103896C843.4166666666666,105.48636363636363,845.8333333333333,105.41168831168831,848.25,105.33701298701298C850.6666666666666,105.26233766233766,853.0833333333334,105.18766233766235,855.5,105.11298701298702C857.9166666666666,105.0383116883117,860.3333333333334,104.96363636363635,862.75,104.88896103896103C865.1666666666666,104.8142857142857,867.5833333333334,104.73961038961039,870,104.66493506493507C872.4166666666666,104.59025974025974,874.8333333333334,104.51558441558441,877.25,104.44090909090909C879.6666666666666,104.36623376623376,882.0833333333334,104.29155844155845,884.5,104.21688311688312C886.9166666666666,104.1422077922078,889.3333333333334,104.06753246753246,891.75,103.99285714285713C894.1666666666666,103.91818181818181,896.5833333333334,103.8435064935065,899,103.76883116883117C901.4166666666666,103.69415584415584,903.8333333333334,103.61948051948052,906.25,103.54480519480519C908.6666666666666,103.47012987012987,911.0833333333334,103.39545454545456,913.5,103.32077922077923C915.9166666666666,103.2461038961039,918.3333333333334,103.17142857142856,920.75,103.09675324675324C923.1666666666666,103.02207792207791,925.5833333333334,102.9474025974026,928,102.87272727272727C930.4166666666666,102.79805194805195,932.8333333333334,102.72337662337662,935.25,102.6487012987013C937.6666666666666,102.57402597402597,940.0833333333334,102.49935064935066,942.5,102.42467532467533C944.9166666666666,102.35000000000001,947.3333333333334,102.27532467532467,949.75,102.20064935064934C952.1666666666666,102.12597402597402,954.5833333333334,102.0512987012987,957,101.97662337662338C959.4166666666666,101.90194805194805,961.8333333333334,101.82727272727273,964.25,101.7525974025974C966.6666666666667,101.67792207792208,969.0833333333334,101.60324675324676,971.5000000000001,101.52857142857144C973.9166666666667,101.45389610389611,976.3333333333335,101.37922077922077,978.7500000000001,101.30454545454545C981.1666666666667,101.22987012987012,983.5833333333335,101.15519480519481,986.0000000000001,101.08051948051948C988.4166666666667,101.00584415584416,990.8333333333335,100.93116883116883,993.2500000000001,100.8564935064935C995.6666666666667,100.78181818181818,998.0833333333333,100.70714285714286,1000.4999999999999,100.63246753246753C1002.9166666666665,100.5577922077922,1005.3333333333333,100.48311688311689,1007.7499999999999,100.40844155844157C1010.1666666666665,100.33376623376624,1012.5833333333333,100.2590909090909,1014.9999999999999,100.18441558441558C1017.4166666666665,100.10974025974025,1019.8333333333333,100.03506493506494,1022.2499999999999,99.96038961038961C1024.6666666666665,99.88571428571429,1027.0833333333333,99.81103896103896,1029.5,99.73636363636363C1031.9166666666667,99.66168831168831,1034.3333333333333,99.58701298701298,1036.75,99.51233766233766C1039.1666666666667,99.43766233766233,1041.5833333333333,99.362987012987,1044,99.28831168831168C1046.4166666666667,99.21363636363635,1048.8333333333333,99.13896103896104,1051.25,99.06428571428572C1053.6666666666667,98.98961038961039,1056.0833333333333,98.91493506493507,1058.5,98.84025974025974C1060.9166666666667,98.76558441558441,1063.3333333333333,98.6909090909091,1065.75,98.61623376623378C1068.1666666666667,98.54155844155845,1070.5833333333333,98.46688311688311,1073,98.39220779220778C1075.4166666666667,98.31753246753246,1077.8333333333333,98.24285714285715,1080.25,98.16818181818182C1082.6666666666667,98.0935064935065,1085.0833333333333,98.01883116883117,1087.5,97.94415584415584C1089.9166666666667,97.86948051948052,1092.3333333333333,97.79480519480519,1094.75,97.72012987012987C1097.1666666666667,97.64545454545454,1099.5833333333333,97.57077922077922,1102,97.49610389610389C1104.4166666666667,97.42142857142856,1106.8333333333333,97.34675324675325,1109.25,97.27207792207793C1111.6666666666667,97.1974025974026,1114.0833333333333,97.12272727272727,1116.5,97.04805194805195C1118.9166666666667,96.97337662337662,1121.3333333333333,96.89870129870131,1123.75,96.82402597402599C1126.1666666666667,96.74935064935066,1128.5833333333333,96.67467532467532,1131,96.6C1133.4166666666667,96.52532467532467,1135.8333333333333,96.45064935064936,1138.25,96.37597402597403C1140.6666666666667,96.3012987012987,1143.0833333333333,96.22662337662338,1145.5,96.15194805194805C1147.9166666666667,96.07727272727273,1150.3333333333333,96.0025974025974,1152.75,95.92792207792208C1155.1666666666667,95.85324675324675,1157.5833333333333,95.77857142857142,1160,95.7038961038961C1162.4166666666667,95.62922077922077,1164.8333333333333,95.55454545454546,1167.25,95.47987012987014C1169.6666666666667,95.40519480519481,1172.0833333333333,95.33051948051948,1174.5,95.25584415584416C1176.9166666666667,95.18116883116883,1179.3333333333333,95.1064935064935,1181.75,95.03181818181818C1184.1666666666667,94.95714285714286,1186.5833333333333,94.88246753246753,1189,94.8077922077922C1191.4166666666667,94.73311688311688,1193.8333333333333,94.65844155844155,1196.25,94.58376623376623C1198.6666666666667,94.5090909090909,1201.0833333333333,94.43441558441559,1203.5,94.35974025974026C1205.9166666666667,94.28506493506494,1208.3333333333333,94.2103896103896,1210.75,94.13571428571427C1213.1666666666667,94.06103896103895,1215.5833333333333,93.98636363636363,1218,93.91168831168831C1220.4166666666667,93.83701298701298,1222.8333333333333,93.76233766233766,1225.25,93.68766233766233C1227.6666666666667,93.612987012987,1230.0833333333333,93.5383116883117,1232.5,93.46363636363637C1234.9166666666667,93.38896103896104,1237.3333333333333,93.31428571428572,1239.75,93.23961038961039C1242.1666666666667,93.16493506493507,1244.5833333333333,93.09025974025975,1247,93.01558441558443C1249.4166666666667,92.9409090909091,1251.8333333333333,92.86623376623376,1254.25,92.79155844155844C1256.6666666666667,92.71688311688311,1259.0833333333333,92.6422077922078,1261.5,92.56753246753247C1263.9166666666667,92.49285714285715,1266.3333333333333,92.41818181818182,1268.75,92.3435064935065C1271.1666666666667,92.26883116883117,1273.5833333333333,92.19415584415584,1276,92.11948051948052C1278.4166666666667,92.04480519480519,1280.8333333333333,91.97012987012987,1283.25,91.89545454545454C1285.6666666666667,91.82077922077922,1288.0833333333333,91.7461038961039,1290.5,91.67142857142858C1292.9166666666667,91.59675324675325,1295.3333333333333,91.52207792207793,1297.75,91.4474025974026C1300.1666666666667,91.37272727272727,1302.5833333333333,91.29805194805196,1305,91.22337662337664C1307.4166666666667,91.14870129870131,1309.8333333333333,91.07402597402597,1312.25,90.99935064935065C1314.6666666666667,90.92467532467532,1317.0833333333333,90.85000000000001,1319.5,90.77532467532468C1321.9166666666667,90.70064935064936,1324.3333333333333,90.62597402597403,1326.75,90.5512987012987C1329.1666666666667,90.47662337662338,1331.5833333333333,90.40194805194805,1334,90.32727272727273C1336.4166666666667,90.2525974025974,1338.8333333333333,90.17792207792208,1341.25,90.10324675324675C1343.6666666666667,90.02857142857142,1346.0833333333333,89.9538961038961,1348.5,89.87922077922077C1350.9166666666667,89.80454545454545,1353.3333333333333,89.72987012987014,1355.75,89.65519480519481C1358.1666666666667,89.58051948051948,1360.5833333333333,89.50584415584416,1363,89.43116883116883C1365.4166666666667,89.3564935064935,1367.8333333333333,89.28181818181818,1370.25,89.20714285714286C1372.6666666666667,89.13246753246753,1375.0833333333333,89.0577922077922,1377.5,88.98311688311688C1379.9166666666667,88.90844155844155,1382.3333333333333,88.83376623376624,1384.75,88.75909090909092C1387.1666666666667,88.68441558441559,1389.5833333333333,88.60974025974025,1392,88.53506493506492C1394.4166666666667,88.4603896103896,1396.8333333333333,88.38571428571429,1399.25,88.31103896103896C1401.6666666666667,88.23636363636363,1404.0833333333333,88.16168831168831,1406.5,88.08701298701298C1408.9166666666667,88.01233766233766,1411.3333333333333,87.93766233766235,1413.75,87.86298701298702C1416.1666666666667,87.7883116883117,1418.5833333333333,87.71363636363635,1421,87.63896103896103C1423.4166666666667,87.5642857142857,1425.8333333333333,87.48961038961039,1428.25,87.41493506493507C1430.6666666666667,87.34025974025974,1433.0833333333333,87.26558441558441,1435.5,87.19090909090909C1437.9166666666667,87.11623376623376,1440.3333333333333,87.04155844155845,1442.75,86.96688311688312C1445.1666666666667,86.8922077922078,1447.5833333333333,86.81753246753246,1450,86.74285714285713" fill="transparent" stroke-linecap="round" stroke="#E7C6DF" stroke-width="2"></path><g class="visx-group visx-axis visx-axis-bottom" transform="translate(0, 115)"><g class="visx-group visx-axis-tick" transform="translate(0, 0)"><line class="visx-line" x1="0" y1="0" x2="0" y2="8" fill="transparent" shape-rendering="crispEdges" stroke="#000" stroke-width="0" stroke-linecap="square"></line><svg x="0" y="0" font-size="10" style="overflow:visible"><text transform="" x="0" y="18" fill="#000" font-size="10" text-anchor="middle"><tspan x="0" dy="0em">0%</tspan></text></svg></g><g class="visx-group visx-axis-tick" transform="translate(0, 0)"><line class="visx-line" x1="362.5" y1="0" x2="362.5" y2="8" fill="transparent" shape-rendering="crispEdges" stroke="#000" stroke-width="0" stroke-linecap="square"></line><svg x="0" y="0" font-size="10" style="overflow:visible"><text transform="" x="362.5" y="18" fill="#000" font-size="10" text-anchor="middle"><tspan x="362.5" dy="0em">25%</tspan></text></svg></g><g class="visx-group visx-axis-tick" transform="translate(0, 0)"><line class="visx-line" x1="725" y1="0" x2="725" y2="8" fill="transparent" shape-rendering="crispEdges" stroke="#000" stroke-width="0" stroke-linecap="square"></line><svg x="0" y="0" font-size="10" style="overflow:visible"><text transform="" x="725" y="18" fill="#000" font-size="10" text-anchor="middle"><tspan x="725" dy="0em">50%</tspan></text></svg></g><g class="visx-group visx-axis-tick" transform="translate(0, 0)"><line class="visx-line" x1="1087.5" y1="0" x2="1087.5" y2="8" fill="transparent" shape-rendering="crispEdges" stroke="#000" stroke-width="0" stroke-linecap="square"></line><svg x="0" y="0" font-size="10" style="overflow:visible"><text transform="" x="1087.5" y="18" fill="#000" font-size="10" text-anchor="middle"><tspan x="1087.5" dy="0em">75%</tspan></text></svg></g><g class="visx-group visx-axis-tick" transform="translate(0, 0)"><line class="visx-line" x1="1450" y1="0" x2="1450" y2="8" fill="transparent" shape-rendering="crispEdges" stroke="#000" stroke-width="0" stroke-linecap="square"></line><svg x="0" y="0" font-size="10" style="overflow:visible"><text transform="" x="1450" y="18" fill="#000" font-size="10" text-anchor="middle"><tspan x="1450" dy="0em">100%</tspan></text></svg></g><line class="visx-line visx-axis-line" x1="0.5" y1="0" x2="1450.5" y2="0" fill="transparent" shape-rendering="crispEdges" stroke="#222" stroke-width="0"></line></g><g class="visx-group visx-axis visx-axis-left" transform="translate(0, 0)"><g class="visx-group visx-axis-tick" transform="translate(0, 0)"><line class="visx-line" x1="0" y1="115" x2="-8" y2="115" fill="transparent" shape-rendering="crispEdges" stroke="#222" stroke-width="0" stroke-linecap="square"></line><svg x="-30" y="0" font-size="8" style="overflow:visible"><text transform="" x="-8" y="115" fill="#000" font-size="8" text-anchor="start"><tspan x="-8" dy="0em">0%</tspan></text></svg></g><g class="visx-group visx-axis-tick" transform="translate(0, 0)"><line class="visx-line" x1="0" y1="49.28571428571429" x2="-8" y2="49.28571428571429" fill="transparent" shape-rendering="crispEdges" stroke="#222" stroke-width="0" stroke-linecap="square"></line><svg x="-30" y="0" font-size="8" style="overflow:visible"><text transform="" x="-8" y="49.28571428571429" fill="#000" font-size="8" text-anchor="start"><tspan x="-8" dy="0em">200%</tspan></text></svg></g><line class="visx-line visx-axis-line" x1="0" y1="115.5" x2="0" y2="0.5" fill="transparent" shape-rendering="crispEdges" stroke="#222" stroke-width="0"></line></g><rect class="visx-bar" width="1450" height="115" fill="transparent"></rect><line class="visx-line" x1="652.5" y1="28" x2="652.5" y2="115" fill="transparent" shape-rendering="crispEdges" stroke="#0062D2" stroke-width="1" pointer-events="none" stroke-dasharray="5,2"></line><svg x="0" y="0" font-size="10px" style="overflow:visible"><text transform="" x="652.5" y="20" font-size="10px" fill="#fff" stroke="#fff" stroke-width="0.8em" text-anchor="middle"><tspan x="652.5" dy="0.355em">Optimal 45%</tspan></text></svg><svg x="0" y="0" font-size="10px" style="overflow:visible"><text transform="" x="652.5" y="20" font-size="10px" fill="#62677B" text-anchor="middle"><tspan x="652.5" dy="0.355em">Optimal 45%</tspan></text></svg></g></svg>