<?xml version="1.0"?><svg xmlns="http://www.w3.org/2000/svg" xmlns:xlink= "http://www.w3.org/1999/xlink" style="background: white;" width="1500" height="185"> <g style="color: black; font-size: 13px; font-family: sans-serif; transform: translate(18px, 25px);"><g><circle r="3" cx="-6" cy="-5" style="fill: #B6509E" /><text>Borrow APR, variable</text></g><g style="transform: translateX(150px);"><circle r="3" cx="-6" cy="-5" style="fill: rgb(231, 198, 223)" /><text>Borrow APR, stable</text></g><g style="transform: translateX(290px);"><circle r="3" cx="-6" cy="-5" style="fill: rgb(0, 98, 210)" /><text>Utilization Rate</text></g></g><g class="visx-group" transform="translate(40, 50)"><g class="visx-group visx-rows" transform="translate(0, 0)"><line class="visx-line" x1="0" y1="115" x2="1450" y2="115" fill="transparent" shape-rendering="crispEdges" stroke="#000" stroke-width="1" stroke-dasharray="3,3" pointer-events="none"></line><line class="visx-line" x1="0" y1="82.14285714285714" x2="1450" y2="82.14285714285714" fill="transparent" shape-rendering="crispEdges" stroke="#000" stroke-width="1" stroke-dasharray="3,3" pointer-events="none"></line><line class="visx-line" x1="0" y1="49.28571428571429" x2="1450" y2="49.28571428571429" fill="transparent" shape-rendering="crispEdges" stroke="#000" stroke-width="1" stroke-dasharray="3,3" pointer-events="none"></line><line class="visx-line" x1="0" y1="16.428571428571434" x2="1450" y2="16.428571428571434" fill="transparent" shape-rendering="crispEdges" stroke="#000" stroke-width="1" stroke-dasharray="3,3" pointer-events="none"></line></g><path class="visx-linepath" d="M0,114.999999999954C2.4166666666666665,114.9923333333065,4.833333333333334,114.984666666659,7.25,114.977C9.666666666666666,114.96933333334101,12.083333333333334,114.96166666666667,14.5,114.95400000000001C16.916666666666668,114.94633333333334,19.333333333333332,114.93866666666666,21.75,114.931C24.166666666666668,114.92333333333333,26.583333333333332,114.91566666666667,29,114.908C31.416666666666668,114.90033333333334,33.833333333333336,114.89266666666667,36.25,114.885C38.666666666666664,114.87733333333334,41.083333333333336,114.86966666666667,43.5,114.86200000000001C45.91666666666667,114.85433333333334,48.333333333333336,114.84666666666666,50.75000000000001,114.839C53.16666666666667,114.83133333333333,55.583333333333336,114.82366666666665,58,114.81599999999999C60.416666666666664,114.80833333333332,62.833333333333336,114.80066666666666,65.25,114.79299999999999C67.66666666666667,114.78533333333333,70.08333333333333,114.77766666666666,72.5,114.77C74.91666666666667,114.76233333333333,77.33333333333333,114.75466666666667,79.75,114.747C82.16666666666667,114.73933333333333,84.58333333333333,114.73166666666667,87,114.724C89.41666666666667,114.71633333333334,91.83333333333333,114.70866666666666,94.25,114.701C96.66666666666667,114.69333333333333,99.08333333333334,114.68566666666666,101.50000000000001,114.678C103.91666666666667,114.67033333333333,106.33333333333334,114.66266666666667,108.75,114.655C111.16666666666667,114.64733333333334,113.58333333333333,114.63966666666667,116,114.632C118.41666666666667,114.62433333333334,120.83333333333334,114.61666666666667,123.25000000000001,114.60900000000001C125.66666666666667,114.60133333333334,128.08333333333334,114.59366666666666,130.5,114.586C132.91666666666666,114.57833333333333,135.33333333333334,114.57066666666667,137.75,114.563C140.16666666666666,114.55533333333334,142.58333333333334,114.54766666666667,145,114.54C147.41666666666666,114.53233333333334,149.83333333333334,114.52466666666666,152.25,114.517C154.66666666666666,114.50933333333333,157.08333333333334,114.50166666666667,159.5,114.494C161.91666666666666,114.48633333333333,164.33333333333334,114.47866666666665,166.75,114.47099999999999C169.16666666666666,114.46333333333332,171.58333333333334,114.45566666666666,174,114.448C176.41666666666666,114.44033333333333,178.83333333333334,114.43266666666666,181.25,114.425C183.66666666666666,114.41733333333333,186.08333333333334,114.40966666666667,188.5,114.402C190.91666666666666,114.39433333333334,193.33333333333334,114.38666666666667,195.75,114.379C198.16666666666669,114.37133333333334,200.58333333333334,114.36366666666666,203.00000000000003,114.356C205.41666666666669,114.34833333333333,207.83333333333331,114.34066666666666,210.24999999999997,114.333C212.66666666666666,114.32533333333333,215.08333333333331,114.31766666666667,217.5,114.31C219.91666666666666,114.30233333333334,222.33333333333334,114.29466666666667,224.75,114.287C227.16666666666666,114.27933333333334,229.58333333333334,114.27166666666668,232,114.26400000000001C234.41666666666666,114.25633333333334,236.83333333333334,114.24866666666667,239.25,114.241C241.66666666666669,114.23333333333333,244.08333333333334,114.22566666666667,246.50000000000003,114.218C248.91666666666669,114.21033333333334,251.33333333333331,114.20266666666666,253.74999999999997,114.195C256.16666666666663,114.18733333333333,258.5833333333333,114.17966666666666,261,114.172C263.4166666666667,114.16433333333333,265.8333333333333,114.15666666666667,268.25,114.149C270.6666666666667,114.14133333333334,273.0833333333333,114.13366666666666,275.5,114.12599999999999C277.9166666666667,114.11833333333333,280.3333333333333,114.11066666666666,282.75,114.103C285.1666666666667,114.09533333333333,287.5833333333333,114.08766666666666,290,114.08C292.4166666666667,114.07233333333333,294.8333333333333,114.06466666666667,297.25,114.057C299.6666666666667,114.04933333333334,302.0833333333333,114.04166666666667,304.5,114.034C306.9166666666667,114.02633333333334,309.3333333333333,114.01866666666666,311.75,114.011C314.1666666666667,114.00333333333333,316.5833333333333,113.99566666666666,319,113.988C321.4166666666667,113.98033333333333,323.8333333333333,113.97266666666667,326.25,113.965C328.6666666666667,113.95733333333334,331.0833333333333,113.94966666666667,333.5,113.94200000000001C335.9166666666667,113.93433333333334,338.3333333333333,113.92666666666668,340.75,113.91900000000001C343.1666666666667,113.91133333333335,345.5833333333333,113.90366666666667,348,113.896C350.4166666666667,113.88833333333334,352.8333333333333,113.88066666666666,355.25,113.87299999999999C357.6666666666667,113.86533333333333,360.0833333333333,113.85766666666666,362.5,113.85C364.9166666666667,113.84233333333333,367.3333333333333,113.83466666666666,369.75,113.827C372.1666666666667,113.81933333333333,374.5833333333333,113.81166666666667,377,113.804C379.4166666666667,113.79633333333334,381.8333333333333,113.78866666666666,384.25,113.78099999999999C386.6666666666667,113.77333333333333,389.0833333333333,113.76566666666666,391.5,113.758C393.9166666666667,113.75033333333333,396.33333333333337,113.74266666666666,398.75000000000006,113.735C401.16666666666674,113.72733333333333,403.58333333333337,113.71966666666667,406.00000000000006,113.712C408.4166666666667,113.70433333333334,410.8333333333333,113.69666666666667,413.24999999999994,113.68900000000001C415.66666666666663,113.68133333333334,418.08333333333326,113.67366666666666,420.49999999999994,113.666C422.91666666666663,113.65833333333333,425.3333333333333,113.65066666666667,427.75,113.643C430.1666666666667,113.63533333333334,432.5833333333333,113.62766666666667,435,113.62C437.4166666666667,113.61233333333334,439.8333333333333,113.60466666666667,442.25,113.59700000000001C444.6666666666667,113.58933333333334,447.0833333333333,113.58166666666666,449.5,113.574C451.9166666666667,113.56633333333333,454.3333333333333,113.55866666666667,456.75,113.551C459.1666666666667,113.54333333333334,461.5833333333333,113.53566666666666,464,113.52799999999999C466.4166666666667,113.52033333333333,468.8333333333333,113.51266666666666,471.25,113.505C473.6666666666667,113.49733333333333,476.0833333333333,113.48966666666666,478.5,113.482C480.9166666666667,113.47433333333333,483.33333333333337,113.46666666666667,485.75000000000006,113.459C488.16666666666674,113.45133333333334,490.58333333333337,113.44366666666666,493.00000000000006,113.43599999999999C495.4166666666667,113.42833333333333,497.8333333333333,113.42066666666666,500.24999999999994,113.413C502.66666666666663,113.40533333333333,505.08333333333326,113.39766666666667,507.49999999999994,113.39C509.91666666666663,113.38233333333334,512.3333333333333,113.37466666666667,514.75,113.367C517.1666666666666,113.35933333333334,519.5833333333334,113.35166666666667,522,113.34400000000001C524.4166666666666,113.33633333333334,526.8333333333334,113.32866666666668,529.25,113.32100000000001C531.6666666666666,113.31333333333335,534.0833333333334,113.30566666666667,536.5,113.298C538.9166666666666,113.29033333333334,541.3333333333334,113.28266666666666,543.75,113.27499999999999C546.1666666666666,113.26733333333333,548.5833333333334,113.25966666666666,551,113.252C553.4166666666666,113.24433333333333,555.8333333333334,113.23666666666666,558.25,113.229C560.6666666666666,113.22133333333333,563.0833333333334,113.21366666666667,565.5,113.206C567.9166666666666,113.19833333333334,570.3333333333334,113.19066666666666,572.75,113.18299999999999C575.1666666666666,113.17533333333333,577.5833333333334,113.16766666666666,580,113.16C582.4166666666666,113.15233333333333,584.8333333333334,113.14466666666667,587.25,113.137C589.6666666666666,113.12933333333334,592.0833333333334,113.12166666666667,594.5,113.114C596.9166666666666,113.10633333333334,599.3333333333334,113.09866666666667,601.75,113.09100000000001C604.1666666666666,113.08333333333334,606.5833333333334,113.07566666666666,609,113.068C611.4166666666666,113.06033333333333,613.8333333333334,113.05266666666667,616.25,113.045C618.6666666666666,113.03733333333334,621.0833333333334,113.02966666666667,623.5,113.022C625.9166666666666,113.01433333333334,628.3333333333334,113.00666666666667,630.75,112.99900000000001C633.1666666666666,112.99133333333334,635.5833333333334,112.98366666666666,638,112.976C640.4166666666666,112.96833333333333,642.8333333333334,112.96066666666665,645.25,112.95299999999999C647.6666666666666,112.94533333333332,650.0833333333334,112.93766666666666,652.5,112.92999999999999C654.9166666666666,112.92233333333333,657.3333333333334,112.91466666666666,659.75,112.907C662.1666666666666,112.89933333333333,664.5833333333334,112.89166666666667,667,112.884C669.4166666666666,112.87633333333333,671.8333333333334,112.86866666666667,674.25,112.861C676.6666666666666,112.85333333333334,679.0833333333334,112.84566666666666,681.5,112.838C683.9166666666666,112.83033333333333,686.3333333333334,112.82266666666666,688.75,112.815C691.1666666666666,112.80733333333333,693.5833333333334,112.79966666666667,696,112.792C698.4166666666666,112.78433333333334,700.8333333333334,112.77666666666667,703.25,112.769C705.6666666666666,112.76133333333334,708.0833333333334,112.75366666666667,710.5,112.74600000000001C712.9166666666666,112.73833333333334,715.3333333333334,112.73066666666666,717.75,112.723C720.1666666666666,112.71533333333333,722.5833333333334,112.71533333333333,725,112.7C727.4166666666666,112.68466666666667,729.8333333333334,112.04285714285714,732.25,111.71428571428571C734.6666666666666,111.38571428571427,737.0833333333334,111.05714285714285,739.5,110.72857142857143C741.9166666666666,110.4,744.3333333333334,110.07142857142858,746.75,109.74285714285715C749.1666666666666,109.41428571428571,751.5833333333334,109.08571428571429,754,108.75714285714285C756.4166666666666,108.42857142857142,758.8333333333334,108.1,761.25,107.77142857142857C763.6666666666666,107.44285714285715,766.0833333333334,107.11428571428573,768.5,106.78571428571429C770.9166666666666,106.45714285714286,773.3333333333334,106.12857142857143,775.75,105.8C778.1666666666666,105.47142857142856,780.5833333333334,105.14285714285714,783,104.81428571428572C785.4166666666667,104.48571428571428,787.8333333333334,104.15714285714286,790.2500000000001,103.82857142857142C792.6666666666667,103.5,795.0833333333335,103.17142857142858,797.5000000000001,102.84285714285714C799.9166666666667,102.5142857142857,802.3333333333335,102.18571428571428,804.7500000000001,101.85714285714285C807.1666666666667,101.52857142857141,809.5833333333335,101.2,812.0000000000001,100.87142857142857C814.4166666666667,100.54285714285714,816.8333333333333,100.21428571428571,819.2499999999999,99.88571428571429C821.6666666666665,99.55714285714285,824.0833333333333,99.22857142857143,826.4999999999999,98.89999999999999C828.9166666666665,98.57142857142856,831.3333333333333,98.24285714285713,833.7499999999999,97.91428571428571C836.1666666666665,97.58571428571429,838.5833333333333,97.25714285714285,840.9999999999999,96.92857142857143C843.4166666666666,96.6,845.8333333333333,96.27142857142859,848.25,95.94285714285715C850.6666666666666,95.61428571428573,853.0833333333334,95.28571428571428,855.5,94.95714285714286C857.9166666666666,94.62857142857143,860.3333333333334,94.3,862.75,93.97142857142858C865.1666666666666,93.64285714285715,867.5833333333334,93.31428571428572,870,92.9857142857143C872.4166666666666,92.65714285714287,874.8333333333334,92.32857142857144,877.25,92C879.6666666666666,91.67142857142856,882.0833333333334,91.34285714285713,884.5,91.0142857142857C886.9166666666666,90.68571428571428,889.3333333333334,90.35714285714286,891.75,90.02857142857144C894.1666666666666,89.70000000000002,896.5833333333334,89.37142857142858,899,89.04285714285714C901.4166666666666,88.71428571428571,903.8333333333334,88.38571428571427,906.25,88.05714285714285C908.6666666666666,87.72857142857143,911.0833333333334,87.39999999999999,913.5,87.07142857142857C915.9166666666666,86.74285714285715,918.3333333333334,86.41428571428571,920.75,86.08571428571429C923.1666666666666,85.75714285714287,925.5833333333334,85.42857142857142,928,85.1C930.4166666666666,84.77142857142857,932.8333333333334,84.44285714285714,935.25,84.11428571428571C937.6666666666666,83.78571428571429,940.0833333333334,83.45714285714286,942.5,83.12857142857143C944.9166666666666,82.80000000000001,947.3333333333334,82.47142857142856,949.75,82.14285714285714C952.1666666666666,81.81428571428572,954.5833333333334,81.4857142857143,957,81.15714285714286C959.4166666666666,80.82857142857142,961.8333333333334,80.49999999999999,964.25,80.17142857142856C966.6666666666667,79.84285714285713,969.0833333333334,79.51428571428572,971.5000000000001,79.18571428571428C973.9166666666667,78.85714285714286,976.3333333333335,78.52857142857141,978.7500000000001,78.19999999999999C981.1666666666667,77.87142857142857,983.5833333333335,77.54285714285714,986.0000000000001,77.21428571428572C988.4166666666667,76.8857142857143,990.8333333333335,76.55714285714286,993.2500000000001,76.22857142857143C995.6666666666667,75.9,998.0833333333333,75.57142857142857,1000.4999999999999,75.24285714285715C1002.9166666666665,74.91428571428571,1005.3333333333333,74.58571428571429,1007.7499999999999,74.25714285714285C1010.1666666666665,73.92857142857142,1012.5833333333333,73.6,1014.9999999999999,73.27142857142857C1017.4166666666665,72.94285714285715,1019.8333333333333,72.6142857142857,1022.2499999999999,72.28571428571428C1024.6666666666665,71.95714285714284,1027.0833333333333,71.62857142857143,1029.5,71.3C1031.9166666666667,70.97142857142858,1034.3333333333333,70.64285714285714,1036.75,70.31428571428572C1039.1666666666667,69.9857142857143,1041.5833333333333,69.65714285714287,1044,69.32857142857144C1046.4166666666667,69,1048.8333333333333,68.67142857142858,1051.25,68.34285714285714C1053.6666666666667,68.0142857142857,1056.0833333333333,67.68571428571427,1058.5,67.35714285714285C1060.9166666666667,67.02857142857142,1063.3333333333333,66.70000000000002,1065.75,66.37142857142858C1068.1666666666667,66.04285714285714,1070.5833333333333,65.7142857142857,1073,65.38571428571427C1075.4166666666667,65.05714285714285,1077.8333333333333,64.72857142857143,1080.25,64.4C1082.6666666666667,64.07142857142858,1085.0833333333333,63.74285714285714,1087.5,63.41428571428571C1089.9166666666667,63.08571428571428,1092.3333333333333,62.75714285714287,1094.75,62.42857142857144C1097.1666666666667,62.10000000000001,1099.5833333333333,61.771428571428565,1102,61.442857142857136C1104.4166666666667,61.11428571428571,1106.8333333333333,60.785714285714285,1109.25,60.457142857142856C1111.6666666666667,60.128571428571426,1114.0833333333333,59.8,1116.5,59.47142857142857C1118.9166666666667,59.14285714285714,1121.3333333333333,58.81428571428572,1123.75,58.48571428571429C1126.1666666666667,58.15714285714286,1128.5833333333333,57.82857142857143,1131,57.5C1133.4166666666667,57.17142857142857,1135.8333333333333,56.84285714285714,1138.25,56.51428571428571C1140.6666666666667,56.18571428571428,1143.0833333333333,55.85714285714286,1145.5,55.52857142857143C1147.9166666666667,55.2,1150.3333333333333,54.871428571428574,1152.75,54.542857142857144C1155.1666666666667,54.214285714285715,1157.5833333333333,53.88571428571429,1160,53.557142857142864C1162.4166666666667,53.228571428571435,1164.8333333333333,52.900000000000006,1167.25,52.57142857142858C1169.6666666666667,52.24285714285715,1172.0833333333333,51.91428571428572,1174.5,51.58571428571429C1176.9166666666667,51.25714285714286,1179.3333333333333,50.92857142857142,1181.75,50.599999999999994C1184.1666666666667,50.271428571428565,1186.5833333333333,49.942857142857136,1189,49.61428571428571C1191.4166666666667,49.28571428571428,1193.8333333333333,48.957142857142856,1196.25,48.628571428571426C1198.6666666666667,48.3,1201.0833333333333,47.97142857142858,1203.5,47.64285714285715C1205.9166666666667,47.314285714285724,1208.3333333333333,46.98571428571429,1210.75,46.65714285714286C1213.1666666666667,46.32857142857143,1215.5833333333333,46,1218,45.67142857142857C1220.4166666666667,45.34285714285714,1222.8333333333333,45.01428571428571,1225.25,44.68571428571428C1227.6666666666667,44.357142857142854,1230.0833333333333,44.02857142857143,1232.5,43.7C1234.9166666666667,43.371428571428574,1237.3333333333333,43.04285714285713,1239.75,42.7142857142857C1242.1666666666667,42.38571428571427,1244.5833333333333,42.05714285714285,1247,41.72857142857143C1249.4166666666667,41.400000000000006,1251.8333333333333,41.07142857142858,1254.25,40.74285714285715C1256.6666666666667,40.41428571428572,1259.0833333333333,40.08571428571429,1261.5,39.75714285714286C1263.9166666666667,39.42857142857143,1266.3333333333333,39.10000000000001,1268.75,38.77142857142858C1271.1666666666667,38.44285714285715,1273.5833333333333,38.11428571428572,1276,37.78571428571429C1278.4166666666667,37.45714285714286,1280.8333333333333,37.128571428571426,1283.25,36.8C1285.6666666666667,36.47142857142857,1288.0833333333333,36.14285714285714,1290.5,35.81428571428571C1292.9166666666667,35.48571428571428,1295.3333333333333,35.15714285714285,1297.75,34.82857142857142C1300.1666666666667,34.49999999999999,1302.5833333333333,34.17142857142856,1305,33.84285714285713C1307.4166666666667,33.5142857142857,1309.8333333333333,33.185714285714276,1312.25,32.857142857142854C1314.6666666666667,32.52857142857143,1317.0833333333333,32.20000000000001,1319.5,31.871428571428584C1321.9166666666667,31.542857142857155,1324.3333333333333,31.214285714285715,1326.75,30.885714285714286C1329.1666666666667,30.557142857142857,1331.5833333333333,30.22857142857143,1334,29.900000000000002C1336.4166666666667,29.571428571428573,1338.8333333333333,29.242857142857144,1341.25,28.914285714285715C1343.6666666666667,28.585714285714285,1346.0833333333333,28.25714285714286,1348.5,27.92857142857143C1350.9166666666667,27.6,1353.3333333333333,27.271428571428576,1355.75,26.942857142857147C1358.1666666666667,26.614285714285717,1360.5833333333333,26.285714285714292,1363,25.957142857142863C1365.4166666666667,25.628571428571433,1367.8333333333333,25.300000000000008,1370.25,24.97142857142858C1372.6666666666667,24.64285714285715,1375.0833333333333,24.31428571428571,1377.5,23.98571428571428C1379.9166666666667,23.65714285714285,1382.3333333333333,23.328571428571426,1384.75,22.999999999999996C1387.1666666666667,22.671428571428567,1389.5833333333333,22.342857142857138,1392,22.01428571428571C1394.4166666666667,21.68571428571428,1396.8333333333333,21.357142857142854,1399.25,21.028571428571425C1401.6666666666667,20.699999999999996,1404.0833333333333,20.37142857142857,1406.5,20.04285714285714C1408.9166666666667,19.71428571428571,1411.3333333333333,19.385714285714286,1413.75,19.057142857142857C1416.1666666666667,18.728571428571428,1418.5833333333333,18.4,1421,18.07142857142857C1423.4166666666667,17.74285714285714,1425.8333333333333,17.414285714285715,1428.25,17.085714285714285C1430.6666666666667,16.757142857142856,1433.0833333333333,16.42857142857143,1435.5,16.1C1437.9166666666667,15.771428571428574,1440.3333333333333,15.442857142857147,1442.75,15.114285714285717C1445.1666666666667,14.785714285714288,1447.5833333333333,14.45714285714286,1450,14.128571428571432" fill="transparent" stroke-linecap="round" stroke="#B6509E" stroke-width="2"></path><path class="visx-linepath" d="M0,111.71428571428571C2.4166666666666665,111.71428571428571,4.833333333333334,111.71428571428571,7.25,111.71428571428571C9.666666666666666,111.71428571428571,12.083333333333334,111.71428571428571,14.5,111.71428571428571C16.916666666666668,111.71428571428571,19.333333333333332,111.71428571428571,21.75,111.71428571428571C24.166666666666668,111.71428571428571,26.583333333333332,111.71428571428571,29,111.71428571428571C31.416666666666668,111.71428571428571,33.833333333333336,111.71428571428571,36.25,111.71428571428571C38.666666666666664,111.71428571428571,41.083333333333336,111.71428571428571,43.5,111.71428571428571C45.91666666666667,111.71428571428571,48.333333333333336,111.71428571428571,50.75000000000001,111.71428571428571C53.16666666666667,111.71428571428571,55.583333333333336,111.71428571428571,58,111.71428571428571C60.416666666666664,111.71428571428571,62.833333333333336,111.71428571428571,65.25,111.71428571428571C67.66666666666667,111.71428571428571,70.08333333333333,111.71428571428571,72.5,111.71428571428571C74.91666666666667,111.71428571428571,77.33333333333333,111.71428571428571,79.75,111.71428571428571C82.16666666666667,111.71428571428571,84.58333333333333,111.71428571428571,87,111.71428571428571C89.41666666666667,111.71428571428571,91.83333333333333,111.71428571428571,94.25,111.71428571428571C96.66666666666667,111.71428571428571,99.08333333333334,111.71428571428571,101.50000000000001,111.71428571428571C103.91666666666667,111.71428571428571,106.33333333333334,111.71428571428571,108.75,111.71428571428571C111.16666666666667,111.71428571428571,113.58333333333333,111.71428571428571,116,111.71428571428571C118.41666666666667,111.71428571428571,120.83333333333334,111.71428571428571,123.25000000000001,111.71428571428571C125.66666666666667,111.71428571428571,128.08333333333334,111.71428571428571,130.5,111.71428571428571C132.91666666666666,111.71428571428571,135.33333333333334,111.71428571428571,137.75,111.71428571428571C140.16666666666666,111.71428571428571,142.58333333333334,111.71428571428571,145,111.71428571428571C147.41666666666666,111.71428571428571,149.83333333333334,111.71428571428571,152.25,111.71428571428571C154.66666666666666,111.71428571428571,157.08333333333334,111.71428571428571,159.5,111.71428571428571C161.91666666666666,111.71428571428571,164.33333333333334,111.71428571428571,166.75,111.71428571428571C169.16666666666666,111.71428571428571,171.58333333333334,111.71428571428571,174,111.71428571428571C176.41666666666666,111.71428571428571,178.83333333333334,111.71428571428571,181.25,111.71428571428571C183.66666666666666,111.71428571428571,186.08333333333334,111.71428571428571,188.5,111.71428571428571C190.91666666666666,111.71428571428571,193.33333333333334,111.71428571428571,195.75,111.71428571428571C198.16666666666669,111.71428571428571,200.58333333333334,111.71428571428571,203.00000000000003,111.71428571428571C205.41666666666669,111.71428571428571,207.83333333333331,111.71428571428571,210.24999999999997,111.71428571428571C212.66666666666666,111.71428571428571,215.08333333333331,111.71428571428571,217.5,111.71428571428571C219.91666666666666,111.71428571428571,222.33333333333334,111.71428571428571,224.75,111.71428571428571C227.16666666666666,111.71428571428571,229.58333333333334,111.71428571428571,232,111.71428571428571C234.41666666666666,111.71428571428571,236.83333333333334,111.71428571428571,239.25,111.71428571428571C241.66666666666669,111.71428571428571,244.08333333333334,111.71428571428571,246.50000000000003,111.71428571428571C248.91666666666669,111.71428571428571,251.33333333333331,111.71428571428571,253.74999999999997,111.71428571428571C256.16666666666663,111.71428571428571,258.5833333333333,111.71428571428571,261,111.71428571428571C263.4166666666667,111.71428571428571,265.8333333333333,111.71428571428571,268.25,111.71428571428571C270.6666666666667,111.71428571428571,273.0833333333333,111.71428571428571,275.5,111.71428571428571C277.9166666666667,111.71428571428571,280.3333333333333,111.71428571428571,282.75,111.71428571428571C285.1666666666667,111.71428571428571,287.5833333333333,111.71428571428571,290,111.71428571428571C292.4166666666667,111.71428571428571,294.8333333333333,111.71428571428571,297.25,111.71428571428571C299.6666666666667,111.71428571428571,302.0833333333333,111.71428571428571,304.5,111.71428571428571C306.9166666666667,111.71428571428571,309.3333333333333,111.71428571428571,311.75,111.71428571428571C314.1666666666667,111.71428571428571,316.5833333333333,111.71428571428571,319,111.71428571428571C321.4166666666667,111.71428571428571,323.8333333333333,111.71428571428571,326.25,111.71428571428571C328.6666666666667,111.71428571428571,331.0833333333333,111.71428571428571,333.5,111.71428571428571C335.9166666666667,111.71428571428571,338.3333333333333,111.71428571428571,340.75,111.71428571428571C343.1666666666667,111.71428571428571,345.5833333333333,111.71428571428571,348,111.71428571428571C350.4166666666667,111.71428571428571,352.8333333333333,111.71428571428571,355.25,111.71428571428571C357.6666666666667,111.71428571428571,360.0833333333333,111.71428571428571,362.5,111.71428571428571C364.9166666666667,111.71428571428571,367.3333333333333,111.71428571428571,369.75,111.71428571428571C372.1666666666667,111.71428571428571,374.5833333333333,111.71428571428571,377,111.71428571428571C379.4166666666667,111.71428571428571,381.8333333333333,111.71428571428571,384.25,111.71428571428571C386.6666666666667,111.71428571428571,389.0833333333333,111.71428571428571,391.5,111.71428571428571C393.9166666666667,111.71428571428571,396.33333333333337,111.71428571428571,398.75000000000006,111.71428571428571C401.16666666666674,111.71428571428571,403.58333333333337,111.71428571428571,406.00000000000006,111.71428571428571C408.4166666666667,111.71428571428571,410.8333333333333,111.71428571428571,413.24999999999994,111.71428571428571C415.66666666666663,111.71428571428571,418.08333333333326,111.71428571428571,420.49999999999994,111.71428571428571C422.91666666666663,111.71428571428571,425.3333333333333,111.71428571428571,427.75,111.71428571428571C430.1666666666667,111.71428571428571,432.5833333333333,111.71428571428571,435,111.71428571428571C437.4166666666667,111.71428571428571,439.8333333333333,111.71428571428571,442.25,111.71428571428571C444.6666666666667,111.71428571428571,447.0833333333333,111.71428571428571,449.5,111.71428571428571C451.9166666666667,111.71428571428571,454.3333333333333,111.71428571428571,456.75,111.71428571428571C459.1666666666667,111.71428571428571,461.5833333333333,111.71428571428571,464,111.71428571428571C466.4166666666667,111.71428571428571,468.8333333333333,111.71428571428571,471.25,111.71428571428571C473.6666666666667,111.71428571428571,476.0833333333333,111.71428571428571,478.5,111.71428571428571C480.9166666666667,111.71428571428571,483.33333333333337,111.71428571428571,485.75000000000006,111.71428571428571C488.16666666666674,111.71428571428571,490.58333333333337,111.71428571428571,493.00000000000006,111.71428571428571C495.4166666666667,111.71428571428571,497.8333333333333,111.71428571428571,500.24999999999994,111.71428571428571C502.66666666666663,111.71428571428571,505.08333333333326,111.71428571428571,507.49999999999994,111.71428571428571C509.91666666666663,111.71428571428571,512.3333333333333,111.71428571428571,514.75,111.71428571428571C517.1666666666666,111.71428571428571,519.5833333333334,111.71428571428571,522,111.71428571428571C524.4166666666666,111.71428571428571,526.8333333333334,111.71428571428571,529.25,111.71428571428571C531.6666666666666,111.71428571428571,534.0833333333334,111.71428571428571,536.5,111.71428571428571C538.9166666666666,111.71428571428571,541.3333333333334,111.71428571428571,543.75,111.71428571428571C546.1666666666666,111.71428571428571,548.5833333333334,111.71428571428571,551,111.71428571428571C553.4166666666666,111.71428571428571,555.8333333333334,111.71428571428571,558.25,111.71428571428571C560.6666666666666,111.71428571428571,563.0833333333334,111.71428571428571,565.5,111.71428571428571C567.9166666666666,111.71428571428571,570.3333333333334,111.71428571428571,572.75,111.71428571428571C575.1666666666666,111.71428571428571,577.5833333333334,111.71428571428571,580,111.71428571428571C582.4166666666666,111.71428571428571,584.8333333333334,111.71428571428571,587.25,111.71428571428571C589.6666666666666,111.71428571428571,592.0833333333334,111.71428571428571,594.5,111.71428571428571C596.9166666666666,111.71428571428571,599.3333333333334,111.71428571428571,601.75,111.71428571428571C604.1666666666666,111.71428571428571,606.5833333333334,111.71428571428571,609,111.71428571428571C611.4166666666666,111.71428571428571,613.8333333333334,111.71428571428571,616.25,111.71428571428571C618.6666666666666,111.71428571428571,621.0833333333334,111.71428571428571,623.5,111.71428571428571C625.9166666666666,111.71428571428571,628.3333333333334,111.71428571428571,630.75,111.71428571428571C633.1666666666666,111.71428571428571,635.5833333333334,111.71428571428571,638,111.71428571428571C640.4166666666666,111.71428571428571,642.8333333333334,111.71428571428571,645.25,111.71428571428571C647.6666666666666,111.71428571428571,650.0833333333334,111.71428571428571,652.5,111.71428571428571C654.9166666666666,111.71428571428571,657.3333333333334,111.71428571428571,659.75,111.71428571428571C662.1666666666666,111.71428571428571,664.5833333333334,111.71428571428571,667,111.71428571428571C669.4166666666666,111.71428571428571,671.8333333333334,111.71428571428571,674.25,111.71428571428571C676.6666666666666,111.71428571428571,679.0833333333334,111.71428571428571,681.5,111.71428571428571C683.9166666666666,111.71428571428571,686.3333333333334,111.71428571428571,688.75,111.71428571428571C691.1666666666666,111.71428571428571,693.5833333333334,111.71428571428571,696,111.71428571428571C698.4166666666666,111.71428571428571,700.8333333333334,111.71428571428571,703.25,111.71428571428571C705.6666666666666,111.71428571428571,708.0833333333334,111.71428571428571,710.5,111.71428571428571C712.9166666666666,111.71428571428571,715.3333333333334,111.71428571428571,717.75,111.71428571428571C720.1666666666666,111.71428571428571,722.5833333333334,111.71428571428571,725,111.71428571428571C727.4166666666666,111.71428571428571,729.8333333333334,111.71428571428571,732.25,111.71428571428571C734.6666666666666,111.71428571428571,737.0833333333334,111.71428571428571,739.5,111.71428571428571C741.9166666666666,111.71428571428571,744.3333333333334,111.71428571428571,746.75,111.71428571428571C749.1666666666666,111.71428571428571,751.5833333333334,111.71428571428571,754,111.71428571428571C756.4166666666666,111.71428571428571,758.8333333333334,111.71428571428571,761.25,111.71428571428571C763.6666666666666,111.71428571428571,766.0833333333334,111.71428571428571,768.5,111.71428571428571C770.9166666666666,111.71428571428571,773.3333333333334,111.71428571428571,775.75,111.71428571428571C778.1666666666666,111.71428571428571,780.5833333333334,111.71428571428571,783,111.71428571428571C785.4166666666667,111.71428571428571,787.8333333333334,111.71428571428571,790.2500000000001,111.71428571428571C792.6666666666667,111.71428571428571,795.0833333333335,111.71428571428571,797.5000000000001,111.71428571428571C799.9166666666667,111.71428571428571,802.3333333333335,111.71428571428571,804.7500000000001,111.71428571428571C807.1666666666667,111.71428571428571,809.5833333333335,111.71428571428571,812.0000000000001,111.71428571428571C814.4166666666667,111.71428571428571,816.8333333333333,111.71428571428571,819.2499999999999,111.71428571428571C821.6666666666665,111.71428571428571,824.0833333333333,111.71428571428571,826.4999999999999,111.71428571428571C828.9166666666665,111.71428571428571,831.3333333333333,111.71428571428571,833.7499999999999,111.71428571428571C836.1666666666665,111.71428571428571,838.5833333333333,111.71428571428571,840.9999999999999,111.71428571428571C843.4166666666666,111.71428571428571,845.8333333333333,111.71428571428571,848.25,111.71428571428571C850.6666666666666,111.71428571428571,853.0833333333334,111.71428571428571,855.5,111.71428571428571C857.9166666666666,111.71428571428571,860.3333333333334,111.71428571428571,862.75,111.71428571428571C865.1666666666666,111.71428571428571,867.5833333333334,111.71428571428571,870,111.71428571428571C872.4166666666666,111.71428571428571,874.8333333333334,111.71428571428571,877.25,111.71428571428571C879.6666666666666,111.71428571428571,882.0833333333334,111.71428571428571,884.5,111.71428571428571C886.9166666666666,111.71428571428571,889.3333333333334,111.71428571428571,891.75,111.71428571428571C894.1666666666666,111.71428571428571,896.5833333333334,111.71428571428571,899,111.71428571428571C901.4166666666666,111.71428571428571,903.8333333333334,111.71428571428571,906.25,111.71428571428571C908.6666666666666,111.71428571428571,911.0833333333334,111.71428571428571,913.5,111.71428571428571C915.9166666666666,111.71428571428571,918.3333333333334,111.71428571428571,920.75,111.71428571428571C923.1666666666666,111.71428571428571,925.5833333333334,111.71428571428571,928,111.71428571428571C930.4166666666666,111.71428571428571,932.8333333333334,111.71428571428571,935.25,111.71428571428571C937.6666666666666,111.71428571428571,940.0833333333334,111.71428571428571,942.5,111.71428571428571C944.9166666666666,111.71428571428571,947.3333333333334,111.71428571428571,949.75,111.71428571428571C952.1666666666666,111.71428571428571,954.5833333333334,111.71428571428571,957,111.71428571428571C959.4166666666666,111.71428571428571,961.8333333333334,111.71428571428571,964.25,111.71428571428571C966.6666666666667,111.71428571428571,969.0833333333334,111.71428571428571,971.5000000000001,111.71428571428571C973.9166666666667,111.71428571428571,976.3333333333335,111.71428571428571,978.7500000000001,111.71428571428571C981.1666666666667,111.71428571428571,983.5833333333335,111.71428571428571,986.0000000000001,111.71428571428571C988.4166666666667,111.71428571428571,990.8333333333335,111.71428571428571,993.2500000000001,111.71428571428571C995.6666666666667,111.71428571428571,998.0833333333333,111.71428571428571,1000.4999999999999,111.71428571428571C1002.9166666666665,111.71428571428571,1005.3333333333333,111.71428571428571,1007.7499999999999,111.71428571428571C1010.1666666666665,111.71428571428571,1012.5833333333333,111.71428571428571,1014.9999999999999,111.71428571428571C1017.4166666666665,111.71428571428571,1019.8333333333333,111.71428571428571,1022.2499999999999,111.71428571428571C1024.6666666666665,111.71428571428571,1027.0833333333333,111.71428571428571,1029.5,111.71428571428571C1031.9166666666667,111.71428571428571,1034.3333333333333,111.71428571428571,1036.75,111.71428571428571C1039.1666666666667,111.71428571428571,1041.5833333333333,111.71428571428571,1044,111.71428571428571C1046.4166666666667,111.71428571428571,1048.8333333333333,111.71428571428571,1051.25,111.71428571428571C1053.6666666666667,111.71428571428571,1056.0833333333333,111.71428571428571,1058.5,111.71428571428571C1060.9166666666667,111.71428571428571,1063.3333333333333,111.71428571428571,1065.75,111.71428571428571C1068.1666666666667,111.71428571428571,1070.5833333333333,111.71428571428571,1073,111.71428571428571C1075.4166666666667,111.71428571428571,1077.8333333333333,111.71428571428571,1080.25,111.71428571428571C1082.6666666666667,111.71428571428571,1085.0833333333333,111.71428571428571,1087.5,111.71428571428571C1089.9166666666667,111.71428571428571,1092.3333333333333,111.71428571428571,1094.75,111.71428571428571C1097.1666666666667,111.71428571428571,1099.5833333333333,111.71428571428571,1102,111.71428571428571C1104.4166666666667,111.71428571428571,1106.8333333333333,111.71428571428571,1109.25,111.71428571428571C1111.6666666666667,111.71428571428571,1114.0833333333333,111.71428571428571,1116.5,111.71428571428571C1118.9166666666667,111.71428571428571,1121.3333333333333,111.71428571428571,1123.75,111.71428571428571C1126.1666666666667,111.71428571428571,1128.5833333333333,111.71428571428571,1131,111.71428571428571C1133.4166666666667,111.71428571428571,1135.8333333333333,111.71428571428571,1138.25,111.71428571428571C1140.6666666666667,111.71428571428571,1143.0833333333333,111.71428571428571,1145.5,111.71428571428571C1147.9166666666667,111.71428571428571,1150.3333333333333,111.71428571428571,1152.75,111.71428571428571C1155.1666666666667,111.71428571428571,1157.5833333333333,111.71428571428571,1160,111.71428571428571C1162.4166666666667,111.71428571428571,1164.8333333333333,111.71428571428571,1167.25,111.71428571428571C1169.6666666666667,111.71428571428571,1172.0833333333333,111.71428571428571,1174.5,111.71428571428571C1176.9166666666667,111.71428571428571,1179.3333333333333,111.71428571428571,1181.75,111.71428571428571C1184.1666666666667,111.71428571428571,1186.5833333333333,111.71428571428571,1189,111.71428571428571C1191.4166666666667,111.71428571428571,1193.8333333333333,111.71428571428571,1196.25,111.71428571428571C1198.6666666666667,111.71428571428571,1201.0833333333333,111.71428571428571,1203.5,111.71428571428571C1205.9166666666667,111.71428571428571,1208.3333333333333,111.71428571428571,1210.75,111.71428571428571C1213.1666666666667,111.71428571428571,1215.5833333333333,111.71428571428571,1218,111.71428571428571C1220.4166666666667,111.71428571428571,1222.8333333333333,111.71428571428571,1225.25,111.71428571428571C1227.6666666666667,111.71428571428571,1230.0833333333333,111.71428571428571,1232.5,111.71428571428571C1234.9166666666667,111.71428571428571,1237.3333333333333,111.71428571428571,1239.75,111.71428571428571C1242.1666666666667,111.71428571428571,1244.5833333333333,111.71428571428571,1247,111.71428571428571C1249.4166666666667,111.71428571428571,1251.8333333333333,111.71428571428571,1254.25,111.71428571428571C1256.6666666666667,111.71428571428571,1259.0833333333333,111.71428571428571,1261.5,111.71428571428571C1263.9166666666667,111.71428571428571,1266.3333333333333,111.71428571428571,1268.75,111.71428571428571C1271.1666666666667,111.71428571428571,1273.5833333333333,111.71428571428571,1276,111.71428571428571C1278.4166666666667,111.71428571428571,1280.8333333333333,111.71428571428571,1283.25,111.71428571428571C1285.6666666666667,111.71428571428571,1288.0833333333333,111.71428571428571,1290.5,111.71428571428571C1292.9166666666667,111.71428571428571,1295.3333333333333,111.71428571428571,1297.75,111.71428571428571C1300.1666666666667,111.71428571428571,1302.5833333333333,111.71428571428571,1305,111.71428571428571C1307.4166666666667,111.71428571428571,1309.8333333333333,111.71428571428571,1312.25,111.71428571428571C1314.6666666666667,111.71428571428571,1317.0833333333333,111.71428571428571,1319.5,111.71428571428571C1321.9166666666667,111.71428571428571,1324.3333333333333,111.71428571428571,1326.75,111.71428571428571C1329.1666666666667,111.71428571428571,1331.5833333333333,111.71428571428571,1334,111.71428571428571C1336.4166666666667,111.71428571428571,1338.8333333333333,111.71428571428571,1341.25,111.71428571428571C1343.6666666666667,111.71428571428571,1346.0833333333333,111.71428571428571,1348.5,111.71428571428571C1350.9166666666667,111.71428571428571,1353.3333333333333,111.71428571428571,1355.75,111.71428571428571C1358.1666666666667,111.71428571428571,1360.5833333333333,111.71428571428571,1363,111.71428571428571C1365.4166666666667,111.71428571428571,1367.8333333333333,111.71428571428571,1370.25,111.71428571428571C1372.6666666666667,111.71428571428571,1375.0833333333333,111.71428571428571,1377.5,111.71428571428571C1379.9166666666667,111.71428571428571,1382.3333333333333,111.71428571428571,1384.75,111.71428571428571C1387.1666666666667,111.71428571428571,1389.5833333333333,111.71428571428571,1392,111.71428571428571C1394.4166666666667,111.71428571428571,1396.8333333333333,111.71428571428571,1399.25,111.71428571428571C1401.6666666666667,111.71428571428571,1404.0833333333333,111.71428571428571,1406.5,111.71428571428571C1408.9166666666667,111.71428571428571,1411.3333333333333,111.71428571428571,1413.75,111.71428571428571C1416.1666666666667,111.71428571428571,1418.5833333333333,111.71428571428571,1421,111.71428571428571C1423.4166666666667,111.71428571428571,1425.8333333333333,111.71428571428571,1428.25,111.71428571428571C1430.6666666666667,111.71428571428571,1433.0833333333333,111.71428571428571,1435.5,111.71428571428571C1437.9166666666667,111.71428571428571,1440.3333333333333,111.71428571428571,1442.75,111.71428571428571C1445.1666666666667,111.71428571428571,1447.5833333333333,111.71428571428571,1450,111.71428571428571" fill="transparent" stroke-linecap="round" stroke="#E7C6DF" stroke-width="2"></path><g class="visx-group visx-axis visx-axis-bottom" transform="translate(0, 115)"><g class="visx-group visx-axis-tick" transform="translate(0, 0)"><line class="visx-line" x1="0" y1="0" x2="0" y2="8" fill="transparent" shape-rendering="crispEdges" stroke="#000" stroke-width="0" stroke-linecap="square"></line><svg x="0" y="0" font-size="10" style="overflow:visible"><text transform="" x="0" y="18" fill="#000" font-size="10" text-anchor="middle"><tspan x="0" dy="0em">0%</tspan></text></svg></g><g class="visx-group visx-axis-tick" transform="translate(0, 0)"><line class="visx-line" x1="362.5" y1="0" x2="362.5" y2="8" fill="transparent" shape-rendering="crispEdges" stroke="#000" stroke-width="0" stroke-linecap="square"></line><svg x="0" y="0" font-size="10" style="overflow:visible"><text transform="" x="362.5" y="18" fill="#000" font-size="10" text-anchor="middle"><tspan x="362.5" dy="0em">25%</tspan></text></svg></g><g class="visx-group visx-axis-tick" transform="translate(0, 0)"><line class="visx-line" x1="725" y1="0" x2="725" y2="8" fill="transparent" shape-rendering="crispEdges" stroke="#000" stroke-width="0" stroke-linecap="square"></line><svg x="0" y="0" font-size="10" style="overflow:visible"><text transform="" x="725" y="18" fill="#000" font-size="10" text-anchor="middle"><tspan x="725" dy="0em">50%</tspan></text></svg></g><g class="visx-group visx-axis-tick" transform="translate(0, 0)"><line class="visx-line" x1="1087.5" y1="0" x2="1087.5" y2="8" fill="transparent" shape-rendering="crispEdges" stroke="#000" stroke-width="0" stroke-linecap="square"></line><svg x="0" y="0" font-size="10" style="overflow:visible"><text transform="" x="1087.5" y="18" fill="#000" font-size="10" text-anchor="middle"><tspan x="1087.5" dy="0em">75%</tspan></text></svg></g><g class="visx-group visx-axis-tick" transform="translate(0, 0)"><line class="visx-line" x1="1450" y1="0" x2="1450" y2="8" fill="transparent" shape-rendering="crispEdges" stroke="#000" stroke-width="0" stroke-linecap="square"></line><svg x="0" y="0" font-size="10" style="overflow:visible"><text transform="" x="1450" y="18" fill="#000" font-size="10" text-anchor="middle"><tspan x="1450" dy="0em">100%</tspan></text></svg></g><line class="visx-line visx-axis-line" x1="0.5" y1="0" x2="1450.5" y2="0" fill="transparent" shape-rendering="crispEdges" stroke="#222" stroke-width="0"></line></g><g class="visx-group visx-axis visx-axis-left" transform="translate(0, 0)"><g class="visx-group visx-axis-tick" transform="translate(0, 0)"><line class="visx-line" x1="0" y1="115" x2="-8" y2="115" fill="transparent" shape-rendering="crispEdges" stroke="#222" stroke-width="0" stroke-linecap="square"></line><svg x="-30" y="0" font-size="8" style="overflow:visible"><text transform="" x="-8" y="115" fill="#000" font-size="8" text-anchor="start"><tspan x="-8" dy="0em">0%</tspan></text></svg></g><g class="visx-group visx-axis-tick" transform="translate(0, 0)"><line class="visx-line" x1="0" y1="49.28571428571429" x2="-8" y2="49.28571428571429" fill="transparent" shape-rendering="crispEdges" stroke="#222" stroke-width="0" stroke-linecap="square"></line><svg x="-30" y="0" font-size="8" style="overflow:visible"><text transform="" x="-8" y="49.28571428571429" fill="#000" font-size="8" text-anchor="start"><tspan x="-8" dy="0em">200%</tspan></text></svg></g><line class="visx-line visx-axis-line" x1="0" y1="115.5" x2="0" y2="0.5" fill="transparent" shape-rendering="crispEdges" stroke="#222" stroke-width="0"></line></g><rect class="visx-bar" width="1450" height="115" fill="transparent"></rect><line class="visx-line" x1="725" y1="28" x2="725" y2="115" fill="transparent" shape-rendering="crispEdges" stroke="#0062D2" stroke-width="1" pointer-events="none" stroke-dasharray="5,2"></line><svg x="0" y="0" font-size="10px" style="overflow:visible"><text transform="" x="725" y="20" font-size="10px" fill="#fff" stroke="#fff" stroke-width="0.8em" text-anchor="middle"><tspan x="725" dy="0.355em">Optimal 50%</tspan></text></svg><svg x="0" y="0" font-size="10px" style="overflow:visible"><text transform="" x="725" y="20" font-size="10px" fill="#62677B" text-anchor="middle"><tspan x="725" dy="0.355em">Optimal 50%</tspan></text></svg></g></svg>