<?xml version="1.0"?><svg xmlns="http://www.w3.org/2000/svg" xmlns:xlink= "http://www.w3.org/1999/xlink" style="background: white;" width="1500" height="300"> <g style="color: black; font-size: 13px; font-family: sans-serif; transform: translate(18px, 25px);"><g><circle r="3" cx="-6" cy="-5" style="fill: #1AD4B3" /><text>Borrow APR, variable</text></g><g style="transform: translateX(150px);"><circle r="3" cx="-6" cy="-5" style="fill: #101423" /><text>Borrow APR, stable</text></g></g><g class="visx-group" transform="translate(45, 50)"><g class="visx-group visx-rows" transform="translate(0, 0)"><line class="visx-line" x1="0" y1="155" x2="1425" y2="155" fill="transparent" shape-rendering="crispEdges" stroke="#F2F0F9" stroke-width="1" pointer-events="none"></line><line class="visx-line" x1="0" y1="77.5" x2="1425" y2="77.5" fill="transparent" shape-rendering="crispEdges" stroke="#F2F0F9" stroke-width="1" pointer-events="none"></line><line class="visx-line" x1="0" y1="0" x2="1425" y2="0" fill="transparent" shape-rendering="crispEdges" stroke="#F2F0F9" stroke-width="1" pointer-events="none"></line></g><path class="visx-linepath" d="M0,154.9999999999535C2.375,154.99224999997287,4.75,154.98449999999227,7.125,154.97675C9.5,154.96900000000775,11.875,154.96125,14.25,154.9535C16.625,154.94574999999998,19,154.938,21.375,154.93025C23.75,154.9225,26.125,154.91474999999997,28.5,154.90699999999998C30.875,154.89925,33.25,154.89149999999998,35.625,154.88375C38,154.876,40.375,154.86825,42.75,154.8605C45.125,154.85275000000001,47.50000000000001,154.84500000000003,49.87500000000001,154.83725C52.25000000000001,154.82950000000002,54.625,154.82174999999998,57,154.814C59.375,154.80624999999998,61.75,154.7985,64.125,154.79075C66.5,154.78300000000002,68.875,154.77525000000003,71.25,154.7675C73.625,154.75975,76,154.752,78.375,154.74425C80.75,154.73649999999998,83.125,154.72875,85.5,154.721C87.875,154.71325000000002,90.25,154.70549999999997,92.625,154.69774999999998C95,154.68999999999997,97.37500000000001,154.68224999999998,99.75000000000001,154.6745C102.12500000000001,154.66675,104.5,154.659,106.875,154.65125C109.25,154.64350000000002,111.625,154.63575,114,154.62800000000001C116.375,154.62025,118.75000000000001,154.6125,121.12500000000001,154.60475C123.50000000000001,154.597,125.875,154.58925,128.25,154.5815C130.625,154.57375,133,154.56599999999997,135.375,154.55825C137.75,154.5505,140.125,154.54274999999998,142.5,154.535C144.875,154.52725,147.25,154.5195,149.625,154.51175C152,154.50400000000002,154.375,154.49625000000003,156.75,154.48850000000002C159.125,154.48075,161.5,154.473,163.875,154.46525C166.25,154.45749999999998,168.625,154.44975,171,154.44199999999998C173.375,154.43424999999996,175.75,154.42649999999998,178.125,154.41875C180.5,154.411,182.875,154.40324999999999,185.25,154.3955C187.625,154.38775,190,154.38,192.375,154.37225C194.75,154.3645,197.12500000000003,154.35675,199.50000000000003,154.349C201.875,154.34125,204.25,154.3335,206.62499999999997,154.32575C208.99999999999997,154.318,211.375,154.31025000000002,213.75,154.3025C216.125,154.29475000000002,218.5,154.28699999999998,220.875,154.27925C223.25,154.2715,225.625,154.26375,228,154.256C230.375,154.24825,232.75,154.2405,235.125,154.23275C237.5,154.225,239.87500000000003,154.21725,242.25000000000003,154.2095C244.625,154.20175,247,154.194,249.37499999999997,154.18625C251.74999999999997,154.1785,254.125,154.17075000000003,256.5,154.163C258.875,154.15525000000002,261.25,154.14749999999998,263.625,154.13975C266,154.132,268.375,154.12425000000002,270.75,154.1165C273.125,154.10875,275.5,154.101,277.875,154.09324999999998C280.25,154.08549999999997,282.625,154.07774999999998,285,154.07C287.375,154.06225,289.75,154.0545,292.125,154.04675C294.5,154.03900000000002,296.875,154.03125,299.25,154.0235C301.625,154.01575000000003,304,154.00799999999998,306.375,154.00025C308.75,153.9925,311.125,153.98475000000002,313.5,153.977C315.875,153.96925,318.25,153.9615,320.625,153.95374999999999C323,153.94599999999997,325.375,153.93824999999998,327.75,153.9305C330.125,153.92275,332.5,153.915,334.875,153.90725C337.25,153.89950000000002,339.625,153.89175,342,153.88400000000001C344.375,153.87625000000003,346.75,153.86849999999998,349.125,153.86075C351.5,153.853,353.875,153.84525000000002,356.25,153.8375C358.625,153.82975,361,153.822,363.375,153.81425C365.75,153.80649999999997,368.125,153.79874999999998,370.5,153.791C372.875,153.78325,375.25,153.77550000000002,377.625,153.76775C380,153.76,382.375,153.75224999999998,384.75,153.7445C387.125,153.73674999999997,389.50000000000006,153.72899999999998,391.87500000000006,153.72125C394.25000000000006,153.7135,396.62500000000006,153.70575,399.00000000000006,153.698C401.375,153.69025000000002,403.75,153.6825,406.12499999999994,153.67475000000002C408.49999999999994,153.667,410.87499999999994,153.65925,413.24999999999994,153.6515C415.62499999999994,153.64374999999998,418,153.63600000000002,420.375,153.62825C422.75,153.62050000000002,425.125,153.61275,427.5,153.605C429.875,153.59724999999997,432.25,153.5895,434.625,153.58175C437,153.574,439.375,153.56625,441.75,153.5585C444.125,153.55075000000002,446.5,153.543,448.875,153.53525000000002C451.25,153.52750000000003,453.625,153.51975000000002,456,153.512C458.375,153.50424999999998,460.75,153.49649999999997,463.125,153.48874999999998C465.5,153.481,467.875,153.47324999999998,470.25,153.4655C472.625,153.45775,475.00000000000006,153.45,477.37500000000006,153.44225C479.75000000000006,153.4345,482.12500000000006,153.42675000000003,484.50000000000006,153.419C486.875,153.41125000000002,489.25,153.40349999999998,491.62499999999994,153.39575C493.99999999999994,153.38799999999998,496.37499999999994,153.38025,498.74999999999994,153.3725C501.12499999999994,153.36475,503.5,153.357,505.875,153.34924999999998C508.25,153.3415,510.625,153.33374999999998,513,153.326C515.375,153.31825,517.75,153.3105,520.125,153.30275C522.5,153.29500000000002,524.875,153.28725000000003,527.25,153.2795C529.625,153.27175,532,153.264,534.375,153.25625C536.75,153.24849999999998,539.125,153.24075,541.5,153.233C543.875,153.22525000000002,546.25,153.21750000000003,548.625,153.20975C551,153.202,553.375,153.19425,555.75,153.1865C558.125,153.17874999999998,560.5,153.171,562.875,153.16325C565.25,153.15550000000002,567.625,153.14774999999997,570,153.14C572.375,153.13225,574.75,153.12449999999998,577.125,153.11675C579.5,153.109,581.875,153.10125,584.25,153.0935C586.625,153.08575000000002,589,153.07800000000003,591.375,153.07025000000002C593.75,153.0625,596.125,153.05475,598.5,153.047C600.875,153.03924999999998,603.25,153.0315,605.625,153.02375C608,153.01600000000002,610.375,153.00824999999998,612.75,153.0005C615.125,152.99275,617.5,152.98499999999999,619.875,152.97725C622.25,152.9695,624.625,152.96175,627,152.954C629.375,152.94625000000002,631.75,152.93850000000003,634.125,152.93075000000002C636.5,152.923,638.875,152.91525000000001,641.25,152.9075C643.625,152.89974999999998,646,152.892,648.375,152.88424999999998C650.75,152.87649999999996,653.125,152.86874999999998,655.5,152.861C657.875,152.85325,660.25,152.8455,662.625,152.83775C665,152.83,667.375,152.82225,669.75,152.8145C672.125,152.80675000000002,674.5,152.79899999999998,676.875,152.79125C679.25,152.7835,681.625,152.77575,684,152.768C686.375,152.76025,688.75,152.7525,691.125,152.74475C693.5,152.73700000000002,695.875,152.72924999999998,698.25,152.7215C700.625,152.71375,703,152.706,705.375,152.69825C707.75,152.69050000000001,710.125,152.68275,712.5,152.675C714.875,152.66725000000002,717.25,152.65949999999998,719.625,152.65175C722,152.644,724.375,152.63625,726.75,152.6285C729.125,152.62075000000002,731.5,152.613,733.875,152.60525C736.25,152.59750000000003,738.625,152.58975000000004,741,152.58200000000002C743.375,152.57425,745.75,152.56650000000002,748.125,152.55875C750.5,152.551,752.875,152.54325,755.25,152.53549999999998C757.625,152.52774999999997,760,152.51999999999998,762.375,152.51225C764.75,152.5045,767.125,152.49675,769.5,152.489C771.875,152.48125000000002,774.2500000000001,152.47350000000003,776.6250000000001,152.46575C779.0000000000001,152.45800000000003,781.3750000000001,152.45024999999998,783.7500000000001,152.4425C786.1250000000001,152.43475,788.5000000000001,152.42700000000002,790.8750000000001,152.41925C793.2500000000001,152.4115,795.6250000000001,152.40375,798.0000000000001,152.396C800.375,152.38825,802.75,152.38049999999998,805.1249999999999,152.37275C807.4999999999999,152.365,809.8749999999999,152.35725,812.2499999999999,152.3495C814.6249999999999,152.34175000000002,816.9999999999999,152.334,819.3749999999999,152.32625000000002C821.7499999999999,152.31850000000003,824.1249999999999,152.31074999999998,826.4999999999999,152.303C828.8749999999999,152.29524999999998,831.25,152.28750000000002,833.625,152.27975C836,152.27200000000002,838.375,152.26425,840.75,152.2565C843.125,152.24874999999997,845.5,152.24099999999999,847.875,152.23325C850.25,152.2255,852.625,152.21775000000002,855,152.21C857.375,152.20225,859.75,152.1945,862.125,152.18675C864.5,152.17899999999997,866.875,152.17125,869.25,152.1635C871.625,152.15575,874,152.148,876.375,152.14025C878.75,152.13250000000002,881.125,152.12475,883.5,152.11700000000002C885.875,152.10925000000003,888.25,152.1015,890.625,152.09375C893,152.086,895.375,152.07825000000003,897.75,152.0705C900.125,152.06275,902.5,152.055,904.875,152.04725C907.25,152.03949999999998,909.625,152.03175,912,152.024C914.375,152.01625,916.75,152.00850000000003,919.125,152.00075C921.5,151.993,923.875,151.98525,926.25,151.9775C928.625,151.96974999999998,931,151.962,933.375,151.95425C935.75,151.94650000000001,938.125,151.93874999999997,940.5,151.93099999999998C942.875,151.92325,945.25,151.91549999999998,947.625,151.90775C950,151.9,952.3750000000001,151.89225,954.7500000000001,151.8845C957.1250000000001,151.87675000000002,959.5000000000001,151.86900000000003,961.8750000000001,151.86125C964.2500000000001,151.8535,966.6250000000001,151.84575,969.0000000000001,151.838C971.3750000000001,151.83024999999998,973.7500000000001,151.82250000000002,976.1250000000001,151.81475C978.5,151.80700000000002,980.875,151.79924999999997,983.2499999999999,151.79149999999998C985.6249999999999,151.78374999999997,987.9999999999999,151.77599999999998,990.3749999999999,151.76825C992.7499999999999,151.7605,995.1249999999999,151.75275,997.4999999999999,151.745C999.8749999999999,151.73725000000002,1002.2499999999999,151.72949999999997,1004.6249999999999,151.72175C1006.9999999999999,151.71399999999997,1009.375,151.70624999999998,1011.75,151.6985C1014.125,151.69075,1016.5,151.683,1018.875,151.67525C1021.25,151.66750000000002,1023.625,151.65975000000003,1026,151.65200000000002C1028.375,151.64425,1030.75,151.6365,1033.125,151.62875C1035.5,151.62099999999998,1037.875,151.61325,1040.25,151.6055C1042.625,151.59775000000002,1045,151.58999999999997,1047.375,151.58225C1049.75,151.5745,1052.125,151.56674999999998,1054.5,151.559C1056.875,151.55125,1059.25,151.5435,1061.625,151.53575C1064,151.52800000000002,1066.375,151.52025000000003,1068.75,151.51250000000002C1071.125,151.50475,1073.5,151.497,1075.875,151.48925C1078.25,151.48149999999998,1080.625,151.47375,1083,151.46599999999998C1085.375,151.45824999999996,1087.75,151.45049999999998,1090.125,151.44275C1092.5,151.435,1094.875,151.42725,1097.25,151.4195C1099.625,151.41175,1102,151.404,1104.375,151.39625C1106.75,151.38850000000002,1109.125,151.38074999999998,1111.5,151.373C1113.875,151.36525,1116.25,151.35750000000002,1118.625,151.34975C1121,151.34199999999998,1123.375,151.33425,1125.75,151.32649999999998C1128.125,151.31874999999997,1130.5,151.31099999999998,1132.875,151.30325C1135.25,151.2955,1137.625,151.28775,1140,151.28C1142.375,151.27225,1144.75,151.2645,1147.125,151.25675C1149.5,151.24900000000002,1151.875,151.24124999999998,1154.25,151.2335C1156.625,151.22575,1159,151.218,1161.375,151.21025C1163.75,151.20250000000001,1166.125,151.19475,1168.5,151.187C1170.875,151.17925000000002,1173.25,151.17149999999998,1175.625,151.16375C1178,151.156,1180.375,151.14825000000002,1182.75,151.1405C1185.125,151.13275,1187.5,151.125,1189.875,151.11724999999998C1192.25,151.10949999999997,1194.625,151.10174999999998,1197,151.094C1199.375,151.08625,1201.75,151.0785,1204.125,151.07075C1206.5,151.06300000000002,1208.875,151.05525,1211.25,151.0475C1213.625,151.03975000000003,1216,151.03199999999998,1218.375,151.02425C1220.75,151.0165,1223.125,151.00875000000002,1225.5,151.001C1227.875,150.99325,1230.25,150.9855,1232.625,150.97775C1235,150.96999999999997,1237.375,150.96224999999998,1239.75,150.9545C1242.125,150.94675,1244.5,150.939,1246.875,150.93125C1249.25,150.92350000000002,1251.625,150.91575,1254,150.90800000000002C1256.375,150.90025000000003,1258.75,150.89249999999998,1261.125,150.88475C1263.5,150.877,1265.875,150.86925000000002,1268.25,150.8615C1270.625,150.85375,1273,150.846,1275.375,150.83825C1277.75,150.83049999999997,1280.125,150.8305,1282.5,150.815C1284.875,150.7995,1287.25,146.68166666666667,1289.625,144.615C1292,142.54833333333335,1294.375,140.48166666666665,1296.75,138.415C1299.125,136.34833333333333,1301.5,134.28166666666667,1303.875,132.215C1306.25,130.14833333333334,1308.625,128.08166666666665,1311,126.01499999999999C1313.375,123.94833333333332,1315.75,121.88166666666666,1318.125,119.815C1320.5,117.74833333333333,1322.875,115.68166666666666,1325.25,113.615C1327.625,111.54833333333333,1330,109.48166666666667,1332.375,107.415C1334.75,105.34833333333334,1337.125,103.28166666666667,1339.5,101.215C1341.875,99.14833333333334,1344.25,97.08166666666666,1346.625,95.015C1349,92.94833333333334,1351.375,90.88166666666669,1353.75,88.81500000000001C1356.125,86.74833333333333,1358.5,84.68166666666664,1360.875,82.61499999999998C1363.25,80.54833333333332,1365.625,78.48166666666665,1368,76.41499999999999C1370.375,74.34833333333333,1372.75,72.28166666666665,1375.125,70.21499999999999C1377.5,68.14833333333333,1379.875,66.08166666666666,1382.25,64.015C1384.625,61.94833333333334,1387,59.88166666666667,1389.375,57.815C1391.75,55.74833333333333,1394.125,53.681666666666665,1396.5,51.614999999999995C1398.875,49.548333333333325,1401.25,47.481666666666655,1403.625,45.41499999999999C1406,43.34833333333333,1408.375,41.281666666666666,1410.75,39.215C1413.125,37.14833333333334,1415.5,35.081666666666656,1417.875,33.01499999999999C1420.25,30.94833333333333,1422.625,28.881666666666675,1425,26.815000000000023" fill="transparent" stroke-linecap="round" stroke="#1AD4B3" stroke-width="2"></path><g class="visx-group visx-axis visx-axis-bottom" transform="translate(0, 155)"><g class="visx-group visx-axis-tick" transform="translate(0, 0)"><line class="visx-line" x1="0" y1="0" x2="0" y2="8" fill="transparent" shape-rendering="crispEdges" stroke="#F2F0F9" stroke-width="1" stroke-linecap="square"></line><svg x="0" y="0" font-size="11" style="overflow:visible"><text transform="" x="0" y="19" fill="#1B2030" font-size="11" text-anchor="middle"><tspan x="0" dy="0em">0%</tspan></text></svg></g><g class="visx-group visx-axis-tick" transform="translate(0, 0)"><line class="visx-line" x1="356.25" y1="0" x2="356.25" y2="8" fill="transparent" shape-rendering="crispEdges" stroke="#F2F0F9" stroke-width="1" stroke-linecap="square"></line><svg x="0" y="0" font-size="11" style="overflow:visible"><text transform="" x="356.25" y="19" fill="#1B2030" font-size="11" text-anchor="middle"><tspan x="356.25" dy="0em">25%</tspan></text></svg></g><g class="visx-group visx-axis-tick" transform="translate(0, 0)"><line class="visx-line" x1="712.5" y1="0" x2="712.5" y2="8" fill="transparent" shape-rendering="crispEdges" stroke="#F2F0F9" stroke-width="1" stroke-linecap="square"></line><svg x="0" y="0" font-size="11" style="overflow:visible"><text transform="" x="712.5" y="19" fill="#1B2030" font-size="11" text-anchor="middle"><tspan x="712.5" dy="0em">50%</tspan></text></svg></g><g class="visx-group visx-axis-tick" transform="translate(0, 0)"><line class="visx-line" x1="1068.75" y1="0" x2="1068.75" y2="8" fill="transparent" shape-rendering="crispEdges" stroke="#F2F0F9" stroke-width="1" stroke-linecap="square"></line><svg x="0" y="0" font-size="11" style="overflow:visible"><text transform="" x="1068.75" y="19" fill="#1B2030" font-size="11" text-anchor="middle"><tspan x="1068.75" dy="0em">75%</tspan></text></svg></g><g class="visx-group visx-axis-tick" transform="translate(0, 0)"><line class="visx-line" x1="1425" y1="0" x2="1425" y2="8" fill="transparent" shape-rendering="crispEdges" stroke="#F2F0F9" stroke-width="1" stroke-linecap="square"></line><svg x="0" y="0" font-size="11" style="overflow:visible"><text transform="" x="1425" y="19" fill="#1B2030" font-size="11" text-anchor="middle"><tspan x="1425" dy="0em">100%</tspan></text></svg></g></g><g class="visx-group visx-axis visx-axis-left" transform="translate(0, 0)"><g class="visx-group visx-axis-tick" transform="translate(0, 0)"><line class="visx-line" x1="0" y1="155" x2="-8" y2="155" fill="transparent" shape-rendering="crispEdges" stroke="#F2F0F9" stroke-width="1" stroke-linecap="square"></line><svg x="-30" y="0" font-size="11" style="overflow:visible"><text transform="" x="-8" y="155" fill="#1B2030" font-size="11" text-anchor="start"><tspan x="-8" dy="0em">0%</tspan></text></svg></g><g class="visx-group visx-axis-tick" transform="translate(0, 0)"><line class="visx-line" x1="0" y1="77.5" x2="-8" y2="77.5" fill="transparent" shape-rendering="crispEdges" stroke="#F2F0F9" stroke-width="1" stroke-linecap="square"></line><svg x="-30" y="0" font-size="11" style="overflow:visible"><text transform="" x="-8" y="77.5" fill="#1B2030" font-size="11" text-anchor="start"><tspan x="-8" dy="0em">50%</tspan></text></svg></g><g class="visx-group visx-axis-tick" transform="translate(0, 0)"><line class="visx-line" x1="0" y1="0" x2="-8" y2="0" fill="transparent" shape-rendering="crispEdges" stroke="#F2F0F9" stroke-width="1" stroke-linecap="square"></line><svg x="-30" y="0" font-size="11" style="overflow:visible"><text transform="" x="-8" y="0" fill="#1B2030" font-size="11" text-anchor="start"><tspan x="-8" dy="0em">100%</tspan></text></svg></g><line class="visx-line visx-axis-line" x1="0" y1="155.5" x2="0" y2="0.5" fill="transparent" shape-rendering="crispEdges" stroke="#F2F0F9" stroke-width="1"></line></g><rect class="visx-bar" width="1425" height="155" fill="transparent"></rect><line class="visx-line" x1="1282.5" y1="58" x2="1282.5" y2="155" fill="transparent" shape-rendering="crispEdges" stroke="#CDC8E1" stroke-width="1" pointer-events="none" stroke-dasharray="5"></line><svg x="0" y="0" font-size="11px" style="overflow:visible"><text transform="" x="1282.5" y="50" font-size="11px" fill="#555069" stroke="#FFFFFF" stroke-width="1px" text-anchor="middle"><tspan x="1282.5" dy="0.355em">Optimal utilization 90%</tspan></text></svg><svg x="0" y="0" font-size="11px" style="overflow:visible"><text transform="" x="1282.5" y="50" font-size="11px" fill="#CDC8E1" text-anchor="middle"><tspan x="1282.5" dy="0.355em">Optimal utilization 90%</tspan></text></svg></g></svg>