<?xml version="1.0"?><svg xmlns="http://www.w3.org/2000/svg" xmlns:xlink= "http://www.w3.org/1999/xlink" style="background: white;" width="1500" height="300"> <g style="color: black; font-size: 13px; font-family: sans-serif; transform: translate(18px, 25px);"><g><circle r="3" cx="-6" cy="-5" style="fill: #1AD4B3" /><text>Borrow APR, variable</text></g><g style="transform: translateX(150px);"><circle r="3" cx="-6" cy="-5" style="fill: #101423" /><text>Borrow APR, stable</text></g></g><g class="visx-group" transform="translate(45, 50)"><g class="visx-group visx-rows" transform="translate(0, 0)"><line class="visx-line" x1="0" y1="155" x2="1425" y2="155" fill="transparent" shape-rendering="crispEdges" stroke="#F2F0F9" stroke-width="1" pointer-events="none"></line><line class="visx-line" x1="0" y1="116.25" x2="1425" y2="116.25" fill="transparent" shape-rendering="crispEdges" stroke="#F2F0F9" stroke-width="1" pointer-events="none"></line><line class="visx-line" x1="0" y1="77.5" x2="1425" y2="77.5" fill="transparent" shape-rendering="crispEdges" stroke="#F2F0F9" stroke-width="1" pointer-events="none"></line><line class="visx-line" x1="0" y1="38.75" x2="1425" y2="38.75" fill="transparent" shape-rendering="crispEdges" stroke="#F2F0F9" stroke-width="1" pointer-events="none"></line><line class="visx-line" x1="0" y1="0" x2="1425" y2="0" fill="transparent" shape-rendering="crispEdges" stroke="#F2F0F9" stroke-width="1" pointer-events="none"></line></g><path class="visx-linepath" d="M0,154.9999999998816C2.375,154.98026620363464,4.75,154.9605324073877,7.125,154.94079861111112C9.5,154.92106481483455,11.875,154.9013310185185,14.25,154.8815972222222C16.625,154.86186342592592,19,154.84212962962962,21.375,154.82239583333333C23.75,154.80266203703704,26.125,154.78292824074074,28.5,154.76319444444445C30.875,154.74346064814816,33.25,154.72372685185186,35.625,154.70399305555557C38,154.68425925925928,40.375,154.66452546296296,42.75,154.64479166666666C45.125,154.62505787037037,47.50000000000001,154.60532407407408,49.87500000000001,154.58559027777778C52.25000000000001,154.5658564814815,54.625,154.54612268518517,57,154.52638888888887C59.375,154.50665509259258,61.75,154.4869212962963,64.125,154.4671875C66.5,154.4474537037037,68.875,154.4277199074074,71.25,154.40798611111111C73.625,154.38825231481482,76,154.36851851851853,78.375,154.34878472222223C80.75,154.32905092592594,83.125,154.30931712962962,85.5,154.28958333333333C87.875,154.26984953703703,90.25,154.25011574074074,92.625,154.23038194444445C95,154.21064814814815,97.37500000000001,154.19091435185186,99.75000000000001,154.17118055555557C102.12500000000001,154.15144675925927,104.5,154.13171296296295,106.875,154.11197916666666C109.25,154.09224537037036,111.625,154.07251157407407,114,154.05277777777778C116.375,154.03304398148148,118.75000000000001,154.0133101851852,121.12500000000001,153.9935763888889C123.50000000000001,153.9738425925926,125.875,153.9541087962963,128.25,153.93437500000002C130.625,153.91464120370372,133,153.8949074074074,135.375,153.8751736111111C137.75,153.85543981481482,140.125,153.83570601851852,142.5,153.81597222222223C144.875,153.79623842592594,147.25,153.7765046296296,149.625,153.75677083333332C152,153.73703703703703,154.375,153.71730324074073,156.75,153.69756944444444C159.125,153.67783564814815,161.5,153.65810185185185,163.875,153.63836805555556C166.25,153.61863425925927,168.625,153.59890046296297,171,153.57916666666668C173.375,153.5594328703704,175.75,153.53969907407406,178.125,153.51996527777777C180.5,153.50023148148148,182.875,153.48049768518518,185.25,153.4607638888889C187.625,153.4410300925926,190,153.4212962962963,192.375,153.4015625C194.75,153.38182870370372,197.12500000000003,153.3620949074074,199.50000000000003,153.3423611111111C201.875,153.3226273148148,204.25,153.30289351851852,206.62499999999997,153.28315972222222C208.99999999999997,153.26342592592593,211.375,153.24369212962964,213.75,153.22395833333334C216.125,153.20422453703705,218.5,153.18449074074076,220.875,153.16475694444446C223.25,153.14502314814817,225.625,153.12528935185185,228,153.10555555555555C230.375,153.08582175925926,232.75,153.06608796296297,235.125,153.04635416666667C237.5,153.02662037037038,239.87500000000003,153.00688657407406,242.25000000000003,152.98715277777777C244.625,152.96741898148147,247,152.94768518518518,249.37499999999997,152.92795138888889C251.74999999999997,152.9082175925926,254.125,152.8884837962963,256.5,152.86875C258.875,152.8490162037037,261.25,152.82928240740742,263.625,152.80954861111113C266,152.78981481481483,268.375,152.7700810185185,270.75,152.75034722222222C273.125,152.73061342592592,275.5,152.71087962962963,277.875,152.69114583333334C280.25,152.67141203703704,282.625,152.65167824074075,285,152.63194444444446C287.375,152.61221064814816,289.75,152.59247685185184,292.125,152.57274305555555C294.5,152.55300925925926,296.875,152.53327546296296,299.25,152.51354166666667C301.625,152.49380787037038,304,152.47407407407408,306.375,152.4543402777778C308.75,152.4346064814815,311.125,152.4148726851852,313.5,152.3951388888889C315.875,152.37540509259262,318.25,152.3556712962963,320.625,152.3359375C323,152.3162037037037,325.375,152.2964699074074,327.75,152.27673611111112C330.125,152.25700231481483,332.5,152.2372685185185,334.875,152.2175347222222C337.25,152.19780092592592,339.625,152.17806712962962,342,152.15833333333333C344.375,152.13859953703704,346.75,152.11886574074074,349.125,152.09913194444445C351.5,152.07939814814816,353.875,152.05966435185186,356.25,152.03993055555557C358.625,152.02019675925928,361,152.00046296296296,363.375,151.98072916666666C365.75,151.96099537037037,368.125,151.94126157407408,370.5,151.92152777777778C372.875,151.9017939814815,375.25,151.8820601851852,377.625,151.8623263888889C380,151.8425925925926,382.375,151.8228587962963,384.75,151.803125C387.125,151.7833912037037,389.50000000000006,151.7636574074074,391.87500000000006,151.74392361111111C394.25000000000006,151.72418981481482,396.62500000000006,151.70445601851853,399.00000000000006,151.68472222222223C401.375,151.66498842592594,403.75,151.64525462962962,406.12499999999994,151.62552083333333C408.49999999999994,151.60578703703703,410.87499999999994,151.58605324074074,413.24999999999994,151.56631944444445C415.62499999999994,151.54658564814815,418,151.52685185185186,420.375,151.50711805555557C422.75,151.48738425925927,425.125,151.46765046296295,427.5,151.44791666666666C429.875,151.42818287037036,432.25,151.40844907407407,434.625,151.38871527777778C437,151.36898148148148,439.375,151.3492476851852,441.75,151.3295138888889C444.125,151.3097800925926,446.5,151.29004629629628,448.875,151.2703125C451.25,151.2505787037037,453.625,151.2308449074074,456,151.2111111111111C458.375,151.19137731481482,460.75,151.17164351851852,463.125,151.15190972222223C465.5,151.13217592592594,467.875,151.11244212962964,470.25,151.09270833333335C472.625,151.07297453703706,475.00000000000006,151.05324074074073,477.37500000000006,151.03350694444444C479.75000000000006,151.01377314814815,482.12500000000006,150.99403935185185,484.50000000000006,150.97430555555556C486.875,150.95457175925927,489.25,150.93483796296294,491.62499999999994,150.91510416666665C493.99999999999994,150.89537037037036,496.37499999999994,150.87563657407406,498.74999999999994,150.85590277777777C501.12499999999994,150.83616898148148,503.5,150.81643518518518,505.875,150.7967013888889C508.25,150.7769675925926,510.625,150.7572337962963,513,150.7375C515.375,150.71776620370372,517.75,150.6980324074074,520.125,150.6782986111111C522.5,150.6585648148148,524.875,150.63883101851852,527.25,150.61909722222222C529.625,150.59936342592593,532,150.5796296296296,534.375,150.55989583333331C536.75,150.54016203703702,539.125,150.52042824074073,541.5,150.50069444444443C543.875,150.48096064814814,546.25,150.46122685185185,548.625,150.44149305555555C551,150.42175925925926,553.375,150.40202546296297,555.75,150.38229166666667C558.125,150.36255787037038,560.5,150.34282407407406,562.875,150.32309027777777C565.25,150.30335648148147,567.625,150.28362268518518,570,150.26388888888889C572.375,150.2441550925926,574.75,150.2244212962963,577.125,150.2046875C579.5,150.1849537037037,581.875,150.1652199074074,584.25,150.1454861111111C586.625,150.1257523148148,589,150.1060185185185,591.375,150.08628472222222C593.75,150.06655092592592,596.125,150.04681712962963,598.5,150.02708333333334C600.875,150.00734953703704,603.25,149.98761574074075,605.625,149.96788194444446C608,149.94814814814816,610.375,149.92841435185184,612.75,149.90868055555555C615.125,149.88894675925926,617.5,149.86921296296296,619.875,149.84947916666667C622.25,149.82974537037038,624.625,149.81001157407405,627,149.79027777777776C629.375,149.77054398148147,631.75,149.75081018518517,634.125,149.73107638888888C636.5,149.7113425925926,638.875,149.6916087962963,641.25,149.671875C643.625,149.6521412037037,646,149.6324074074074,648.375,149.61267361111112C650.75,149.59293981481483,653.125,149.57320601851853,655.5,149.55347222222224C657.875,149.53373842592595,660.25,149.51400462962962,662.625,149.49427083333333C665,149.47453703703704,667.375,149.45480324074074,669.75,149.43506944444445C672.125,149.41533564814816,674.5,149.39560185185184,676.875,149.37586805555554C679.25,149.35613425925925,681.625,149.33640046296296,684,149.31666666666666C686.375,149.29693287037037,688.75,149.27719907407408,691.125,149.25746527777778C693.5,149.2377314814815,695.875,149.2179976851852,698.25,149.1982638888889C700.625,149.1785300925926,703,149.1587962962963,705.375,149.1390625C707.75,149.1193287037037,710.125,149.0995949074074,712.5,149.07986111111111C714.875,149.06012731481482,717.25,149.0403935185185,719.625,149.0206597222222C722,149.0009259259259,724.375,148.98119212962962,726.75,148.96145833333333C729.125,148.94172453703703,731.5,148.92199074074074,733.875,148.90225694444445C736.25,148.88252314814815,738.625,148.86278935185186,741,148.84305555555557C743.375,148.82332175925927,745.75,148.80358796296298,748.125,148.78385416666669C750.5,148.7641203703704,752.875,148.74438657407407,755.25,148.72465277777778C757.625,148.70491898148148,760,148.6851851851852,762.375,148.6654513888889C764.75,148.6457175925926,767.125,148.62598379629628,769.5,148.60625C771.875,148.5865162037037,774.2500000000001,148.5667824074074,776.6250000000001,148.5470486111111C779.0000000000001,148.52731481481482,781.3750000000001,148.50758101851852,783.7500000000001,148.48784722222223C786.1250000000001,148.46811342592594,788.5000000000001,148.44837962962964,790.8750000000001,148.42864583333335C793.2500000000001,148.40891203703706,795.6250000000001,148.38917824074073,798.0000000000001,148.36944444444444C800.375,148.34971064814815,802.75,148.32997685185185,805.1249999999999,148.31024305555556C807.4999999999999,148.29050925925927,809.8749999999999,148.27077546296294,812.2499999999999,148.25104166666665C814.6249999999999,148.23130787037036,816.9999999999999,148.21157407407406,819.3749999999999,148.19184027777777C821.7499999999999,148.17210648148148,824.1249999999999,148.15237268518518,826.4999999999999,148.1326388888889C828.8749999999999,148.1129050925926,831.25,148.0931712962963,833.625,148.0734375C836,148.05370370370372,838.375,148.0339699074074,840.75,148.0142361111111C843.125,147.9945023148148,845.5,147.97476851851852,847.875,147.95503472222222C850.25,147.93530092592593,852.625,147.91556712962964,855,147.89583333333334C857.375,147.87609953703705,859.75,147.85636574074073,862.125,147.83663194444443C864.5,147.81689814814814,866.875,147.79716435185185,869.25,147.77743055555555C871.625,147.75769675925926,874,147.73796296296297,876.375,147.71822916666667C878.75,147.69849537037038,881.125,147.6787615740741,883.5,147.6590277777778C885.875,147.6392939814815,888.25,147.61956018518518,890.625,147.59982638888889C893,147.5800925925926,895.375,147.5603587962963,897.75,147.540625C900.125,147.5208912037037,902.5,147.5011574074074,904.875,147.4814236111111C907.25,147.4616898148148,909.625,147.4419560185185,912,147.42222222222222C914.375,147.40248842592592,916.75,147.38275462962963,919.125,147.36302083333334C921.5,147.34328703703704,923.875,147.32355324074075,926.25,147.30381944444446C928.625,147.28408564814816,931,147.26435185185184,933.375,147.24461805555555C935.75,147.22488425925926,938.125,147.20515046296296,940.5,147.18541666666667C942.875,147.16568287037038,945.25,147.14594907407405,947.625,147.12621527777776C950,147.10648148148147,952.3750000000001,147.08674768518517,954.7500000000001,147.06701388888888C957.1250000000001,147.0472800925926,959.5000000000001,147.0275462962963,961.8750000000001,147.0078125C964.2500000000001,146.9880787037037,966.6250000000001,146.9683449074074,969.0000000000001,146.94861111111112C971.3750000000001,146.92887731481483,973.7500000000001,146.90914351851853,976.1250000000001,146.88940972222224C978.5,146.86967592592595,980.875,146.84994212962962,983.2499999999999,146.83020833333333C985.6249999999999,146.81047453703704,987.9999999999999,146.79074074074074,990.3749999999999,146.77100694444445C992.7499999999999,146.75127314814816,995.1249999999999,146.73153935185184,997.4999999999999,146.71180555555554C999.8749999999999,146.69207175925925,1002.2499999999999,146.67233796296296,1004.6249999999999,146.65260416666666C1006.9999999999999,146.63287037037037,1009.375,146.61313657407408,1011.75,146.59340277777778C1014.125,146.5736689814815,1016.5,146.5539351851852,1018.875,146.5342013888889C1021.25,146.5144675925926,1023.625,146.49473379629632,1026,146.47500000000002C1028.375,146.45526620370373,1030.75,146.4355324074074,1033.125,146.41579861111111C1035.5,146.39606481481482,1037.875,146.3763310185185,1040.25,146.3565972222222C1042.625,146.3368634259259,1045,146.31712962962962,1047.375,146.29739583333333C1049.75,146.27766203703703,1052.125,146.25792824074074,1054.5,146.23819444444445C1056.875,146.21846064814815,1059.25,146.19872685185186,1061.625,146.17899305555557C1064,146.15925925925927,1066.375,146.13952546296298,1068.75,146.11979166666669C1071.125,146.1000578703704,1073.5,146.08032407407407,1075.875,146.06059027777778C1078.25,146.04085648148148,1080.625,146.0211226851852,1083,146.0013888888889C1085.375,145.9816550925926,1087.75,145.96192129629628,1090.125,145.9421875C1092.5,145.9224537037037,1094.875,145.9027199074074,1097.25,145.8829861111111C1099.625,145.86325231481482,1102,145.84351851851852,1104.375,145.82378472222223C1106.75,145.80405092592594,1109.125,145.78431712962964,1111.5,145.76458333333335C1113.875,145.74484953703706,1116.25,145.72511574074073,1118.625,145.70538194444444C1121,145.68564814814815,1123.375,145.66591435185185,1125.75,145.64618055555556C1128.125,145.62644675925927,1130.5,145.60671296296294,1132.875,145.58697916666665C1135.25,145.56724537037036,1137.625,145.54751157407406,1140,145.52777777777777C1142.375,145.50804398148148,1144.75,145.48831018518518,1147.125,145.4685763888889C1149.5,145.4488425925926,1151.875,145.4291087962963,1154.25,145.409375C1156.625,145.38964120370372,1159,145.3699074074074,1161.375,145.3501736111111C1163.75,145.3304398148148,1166.125,145.31070601851852,1168.5,145.29097222222222C1170.875,145.27123842592593,1173.25,145.25150462962964,1175.625,145.23177083333334C1178,145.21203703703705,1180.375,145.19230324074073,1182.75,145.17256944444443C1185.125,145.15283564814814,1187.5,145.13310185185185,1189.875,145.11336805555555C1192.25,145.09363425925926,1194.625,145.07390046296297,1197,145.05416666666667C1199.375,145.03443287037038,1201.75,145.01469907407406,1204.125,144.99496527777777C1206.5,144.97523148148147,1208.875,144.95549768518518,1211.25,144.93576388888889C1213.625,144.9160300925926,1216,144.8962962962963,1218.375,144.8765625C1220.75,144.8568287037037,1223.125,144.8370949074074,1225.5,144.8173611111111C1227.875,144.7976273148148,1230.25,144.7778935185185,1232.625,144.75815972222222C1235,144.73842592592592,1237.375,144.71869212962963,1239.75,144.69895833333334C1242.125,144.67922453703704,1244.5,144.65949074074072,1246.875,144.63975694444443C1249.25,144.62002314814814,1251.625,144.60028935185184,1254,144.58055555555555C1256.375,144.56082175925926,1258.75,144.54108796296296,1261.125,144.52135416666667C1263.5,144.50162037037038,1265.875,144.48188657407408,1268.25,144.4621527777778C1270.625,144.4424189814815,1273,144.42268518518517,1275.375,144.40295138888888C1277.75,144.3832175925926,1280.125,144.3832175925926,1282.5,144.34375C1284.875,144.3042824074074,1287.25,140.46875,1289.625,138.53125C1292,136.59375,1294.375,134.65625,1296.75,132.71875C1299.125,130.78125,1301.5,128.84375,1303.875,126.90625000000001C1306.25,124.96875000000001,1308.625,123.03125,1311,121.09375C1313.375,119.15625,1315.75,117.21875,1318.125,115.28125C1320.5,113.34375,1322.875,111.40625,1325.25,109.46875C1327.625,107.53125,1330,105.59375,1332.375,103.65625C1334.75,101.71875,1337.125,99.78125,1339.5,97.84375C1341.875,95.90625,1344.25,93.96875,1346.625,92.03125C1349,90.09375,1351.375,88.15625,1353.75,86.21875C1356.125,84.28125,1358.5,82.34375,1360.875,80.40625C1363.25,78.46875,1365.625,76.53125,1368,74.59375C1370.375,72.65625,1372.75,70.71875,1375.125,68.78125C1377.5,66.84375,1379.875,64.90625,1382.25,62.96875C1384.625,61.03125,1387,59.09375,1389.375,57.15625C1391.75,55.21875,1394.125,53.28125000000001,1396.5,51.34375000000001C1398.875,49.40625000000001,1401.25,47.46875000000001,1403.625,45.53125000000001C1406,43.59375000000001,1408.375,41.65625,1410.75,39.71875C1413.125,37.78125,1415.5,35.84375,1417.875,33.90625C1420.25,31.96875,1422.625,30.031250000000004,1425,28.093750000000004" fill="transparent" stroke-linecap="round" stroke="#1AD4B3" stroke-width="2"></path><g class="visx-group visx-axis visx-axis-bottom" transform="translate(0, 155)"><g class="visx-group visx-axis-tick" transform="translate(0, 0)"><line class="visx-line" x1="0" y1="0" x2="0" y2="8" fill="transparent" shape-rendering="crispEdges" stroke="#F2F0F9" stroke-width="1" stroke-linecap="square"></line><svg x="0" y="0" font-size="11" style="overflow:visible"><text transform="" x="0" y="19" fill="#1B2030" font-size="11" text-anchor="middle"><tspan x="0" dy="0em">0%</tspan></text></svg></g><g class="visx-group visx-axis-tick" transform="translate(0, 0)"><line class="visx-line" x1="356.25" y1="0" x2="356.25" y2="8" fill="transparent" shape-rendering="crispEdges" stroke="#F2F0F9" stroke-width="1" stroke-linecap="square"></line><svg x="0" y="0" font-size="11" style="overflow:visible"><text transform="" x="356.25" y="19" fill="#1B2030" font-size="11" text-anchor="middle"><tspan x="356.25" dy="0em">25%</tspan></text></svg></g><g class="visx-group visx-axis-tick" transform="translate(0, 0)"><line class="visx-line" x1="712.5" y1="0" x2="712.5" y2="8" fill="transparent" shape-rendering="crispEdges" stroke="#F2F0F9" stroke-width="1" stroke-linecap="square"></line><svg x="0" y="0" font-size="11" style="overflow:visible"><text transform="" x="712.5" y="19" fill="#1B2030" font-size="11" text-anchor="middle"><tspan x="712.5" dy="0em">50%</tspan></text></svg></g><g class="visx-group visx-axis-tick" transform="translate(0, 0)"><line class="visx-line" x1="1068.75" y1="0" x2="1068.75" y2="8" fill="transparent" shape-rendering="crispEdges" stroke="#F2F0F9" stroke-width="1" stroke-linecap="square"></line><svg x="0" y="0" font-size="11" style="overflow:visible"><text transform="" x="1068.75" y="19" fill="#1B2030" font-size="11" text-anchor="middle"><tspan x="1068.75" dy="0em">75%</tspan></text></svg></g><g class="visx-group visx-axis-tick" transform="translate(0, 0)"><line class="visx-line" x1="1425" y1="0" x2="1425" y2="8" fill="transparent" shape-rendering="crispEdges" stroke="#F2F0F9" stroke-width="1" stroke-linecap="square"></line><svg x="0" y="0" font-size="11" style="overflow:visible"><text transform="" x="1425" y="19" fill="#1B2030" font-size="11" text-anchor="middle"><tspan x="1425" dy="0em">100%</tspan></text></svg></g></g><g class="visx-group visx-axis visx-axis-left" transform="translate(0, 0)"><g class="visx-group visx-axis-tick" transform="translate(0, 0)"><line class="visx-line" x1="0" y1="155" x2="-8" y2="155" fill="transparent" shape-rendering="crispEdges" stroke="#F2F0F9" stroke-width="1" stroke-linecap="square"></line><svg x="-30" y="0" font-size="11" style="overflow:visible"><text transform="" x="-8" y="155" fill="#1B2030" font-size="11" text-anchor="start"><tspan x="-8" dy="0em">0%</tspan></text></svg></g><g class="visx-group visx-axis-tick" transform="translate(0, 0)"><line class="visx-line" x1="0" y1="116.25" x2="-8" y2="116.25" fill="transparent" shape-rendering="crispEdges" stroke="#F2F0F9" stroke-width="1" stroke-linecap="square"></line><svg x="-30" y="0" font-size="11" style="overflow:visible"><text transform="" x="-8" y="116.25" fill="#1B2030" font-size="11" text-anchor="start"><tspan x="-8" dy="0em">20%</tspan></text></svg></g><g class="visx-group visx-axis-tick" transform="translate(0, 0)"><line class="visx-line" x1="0" y1="77.5" x2="-8" y2="77.5" fill="transparent" shape-rendering="crispEdges" stroke="#F2F0F9" stroke-width="1" stroke-linecap="square"></line><svg x="-30" y="0" font-size="11" style="overflow:visible"><text transform="" x="-8" y="77.5" fill="#1B2030" font-size="11" text-anchor="start"><tspan x="-8" dy="0em">40%</tspan></text></svg></g><g class="visx-group visx-axis-tick" transform="translate(0, 0)"><line class="visx-line" x1="0" y1="38.75" x2="-8" y2="38.75" fill="transparent" shape-rendering="crispEdges" stroke="#F2F0F9" stroke-width="1" stroke-linecap="square"></line><svg x="-30" y="0" font-size="11" style="overflow:visible"><text transform="" x="-8" y="38.75" fill="#1B2030" font-size="11" text-anchor="start"><tspan x="-8" dy="0em">60%</tspan></text></svg></g><g class="visx-group visx-axis-tick" transform="translate(0, 0)"><line class="visx-line" x1="0" y1="0" x2="-8" y2="0" fill="transparent" shape-rendering="crispEdges" stroke="#F2F0F9" stroke-width="1" stroke-linecap="square"></line><svg x="-30" y="0" font-size="11" style="overflow:visible"><text transform="" x="-8" y="0" fill="#1B2030" font-size="11" text-anchor="start"><tspan x="-8" dy="0em">80%</tspan></text></svg></g><line class="visx-line visx-axis-line" x1="0" y1="155.5" x2="0" y2="0.5" fill="transparent" shape-rendering="crispEdges" stroke="#F2F0F9" stroke-width="1"></line></g><rect class="visx-bar" width="1425" height="155" fill="transparent"></rect><line class="visx-line" x1="1282.5" y1="58" x2="1282.5" y2="155" fill="transparent" shape-rendering="crispEdges" stroke="#CDC8E1" stroke-width="1" pointer-events="none" stroke-dasharray="5"></line><svg x="0" y="0" font-size="11px" style="overflow:visible"><text transform="" x="1282.5" y="50" font-size="11px" fill="#555069" stroke="#FFFFFF" stroke-width="1px" text-anchor="middle"><tspan x="1282.5" dy="0.355em">Optimal utilization 90%</tspan></text></svg><svg x="0" y="0" font-size="11px" style="overflow:visible"><text transform="" x="1282.5" y="50" font-size="11px" fill="#CDC8E1" text-anchor="middle"><tspan x="1282.5" dy="0.355em">Optimal utilization 90%</tspan></text></svg></g></svg>