<?xml version="1.0"?><svg xmlns="http://www.w3.org/2000/svg" xmlns:xlink= "http://www.w3.org/1999/xlink" style="background: white;" width="1500" height="185"> <g style="color: black; font-size: 13px; font-family: sans-serif; transform: translate(18px, 25px);"><g><circle r="3" cx="-6" cy="-5" style="fill: #B6509E" /><text>Borrow APR, variable</text></g><g style="transform: translateX(150px);"><circle r="3" cx="-6" cy="-5" style="fill: rgb(231, 198, 223)" /><text>Borrow APR, stable</text></g><g style="transform: translateX(290px);"><circle r="3" cx="-6" cy="-5" style="fill: rgb(0, 98, 210)" /><text>Utilization Rate</text></g></g><g class="visx-group" transform="translate(40, 50)"><g class="visx-group visx-rows" transform="translate(0, 0)"><line class="visx-line" x1="0" y1="115" x2="1450" y2="115" fill="transparent" shape-rendering="crispEdges" stroke="#000" stroke-width="1" stroke-dasharray="3,3" pointer-events="none"></line><line class="visx-line" x1="0" y1="86.25" x2="1450" y2="86.25" fill="transparent" shape-rendering="crispEdges" stroke="#000" stroke-width="1" stroke-dasharray="3,3" pointer-events="none"></line><line class="visx-line" x1="0" y1="57.5" x2="1450" y2="57.5" fill="transparent" shape-rendering="crispEdges" stroke="#000" stroke-width="1" stroke-dasharray="3,3" pointer-events="none"></line><line class="visx-line" x1="0" y1="28.75" x2="1450" y2="28.75" fill="transparent" shape-rendering="crispEdges" stroke="#000" stroke-width="1" stroke-dasharray="3,3" pointer-events="none"></line><line class="visx-line" x1="0" y1="0" x2="1450" y2="0" fill="transparent" shape-rendering="crispEdges" stroke="#000" stroke-width="1" stroke-dasharray="3,3" pointer-events="none"></line></g><path class="visx-linepath" d="M0,114.99999999994249C2.4166666666666665,114.99041666663311,4.833333333333334,114.98083333332374,7.25,114.97125C9.666666666666666,114.96166666667625,12.083333333333334,114.95208333333335,14.5,114.94250000000001C16.916666666666668,114.93291666666667,19.333333333333332,114.92333333333333,21.75,114.91375C24.166666666666668,114.90416666666665,26.583333333333332,114.89458333333333,29,114.885C31.416666666666668,114.87541666666668,33.833333333333336,114.86583333333334,36.25,114.85625C38.666666666666664,114.84666666666666,41.083333333333336,114.83708333333334,43.5,114.8275C45.91666666666667,114.81791666666666,48.333333333333336,114.80833333333334,50.75000000000001,114.79875C53.16666666666667,114.78916666666666,55.583333333333336,114.77958333333332,58,114.77C60.416666666666664,114.76041666666666,62.833333333333336,114.75083333333333,65.25,114.74125000000001C67.66666666666667,114.73166666666668,70.08333333333333,114.72208333333334,72.5,114.7125C74.91666666666667,114.70291666666667,77.33333333333333,114.69333333333334,79.75,114.68375C82.16666666666667,114.67416666666666,84.58333333333333,114.66458333333334,87,114.655C89.41666666666667,114.64541666666666,91.83333333333333,114.63583333333332,94.25,114.62625C96.66666666666667,114.61666666666666,99.08333333333334,114.60708333333335,101.50000000000001,114.59750000000001C103.91666666666667,114.58791666666667,106.33333333333334,114.57833333333333,108.75,114.56875C111.16666666666667,114.55916666666666,113.58333333333333,114.54958333333333,116,114.54C118.41666666666667,114.53041666666667,120.83333333333334,114.52083333333334,123.25000000000001,114.51125C125.66666666666667,114.50166666666667,128.08333333333334,114.49208333333334,130.5,114.4825C132.91666666666666,114.47291666666666,135.33333333333334,114.46333333333334,137.75,114.45375C140.16666666666666,114.44416666666666,142.58333333333334,114.43458333333332,145,114.425C147.41666666666666,114.41541666666667,149.83333333333334,114.40583333333333,152.25,114.39625000000001C154.66666666666666,114.38666666666668,157.08333333333334,114.37708333333335,159.5,114.3675C161.91666666666666,114.35791666666667,164.33333333333334,114.34833333333333,166.75,114.33874999999999C169.16666666666666,114.32916666666665,171.58333333333334,114.31958333333333,174,114.31C176.41666666666666,114.30041666666668,178.83333333333334,114.29083333333332,181.25,114.28125C183.66666666666666,114.27166666666668,186.08333333333334,114.26208333333335,188.5,114.25250000000001C190.91666666666666,114.24291666666667,193.33333333333334,114.23333333333333,195.75,114.22375C198.16666666666669,114.21416666666666,200.58333333333334,114.20458333333333,203.00000000000003,114.195C205.41666666666669,114.18541666666667,207.83333333333331,114.17583333333333,210.24999999999997,114.16625C212.66666666666666,114.15666666666667,215.08333333333331,114.14708333333334,217.5,114.1375C219.91666666666666,114.12791666666666,222.33333333333334,114.11833333333334,224.75,114.10875C227.16666666666666,114.09916666666666,229.58333333333334,114.08958333333334,232,114.08C234.41666666666666,114.07041666666666,236.83333333333334,114.06083333333332,239.25,114.05125C241.66666666666669,114.04166666666666,244.08333333333334,114.03208333333335,246.50000000000003,114.02250000000001C248.91666666666669,114.01291666666667,251.33333333333331,114.00333333333333,253.74999999999997,113.99374999999999C256.16666666666663,113.98416666666665,258.5833333333333,113.97458333333334,261,113.965C263.4166666666667,113.95541666666668,265.8333333333333,113.94583333333334,268.25,113.93625C270.6666666666667,113.92666666666666,273.0833333333333,113.91708333333334,275.5,113.9075C277.9166666666667,113.89791666666666,280.3333333333333,113.88833333333334,282.75,113.87875C285.1666666666667,113.86916666666666,287.5833333333333,113.85958333333332,290,113.85C292.4166666666667,113.84041666666667,294.8333333333333,113.83083333333333,297.25,113.82125C299.6666666666667,113.81166666666668,302.0833333333333,113.80208333333334,304.5,113.7925C306.9166666666667,113.78291666666667,309.3333333333333,113.77333333333334,311.75,113.76375C314.1666666666667,113.75416666666666,316.5833333333333,113.74458333333334,319,113.735C321.4166666666667,113.72541666666666,323.8333333333333,113.71583333333332,326.25,113.70625C328.6666666666667,113.69666666666667,331.0833333333333,113.68708333333335,333.5,113.67750000000001C335.9166666666667,113.66791666666667,338.3333333333333,113.65833333333333,340.75,113.64874999999999C343.1666666666667,113.63916666666665,345.5833333333333,113.62958333333333,348,113.62C350.4166666666667,113.61041666666668,352.8333333333333,113.60083333333334,355.25,113.59125C357.6666666666667,113.58166666666666,360.0833333333333,113.57208333333334,362.5,113.5625C364.9166666666667,113.55291666666666,367.3333333333333,113.54333333333334,369.75,113.53375C372.1666666666667,113.52416666666666,374.5833333333333,113.51458333333332,377,113.505C379.4166666666667,113.49541666666667,381.8333333333333,113.48583333333333,384.25,113.47625000000001C386.6666666666667,113.46666666666668,389.0833333333333,113.45708333333334,391.5,113.4475C393.9166666666667,113.43791666666667,396.33333333333337,113.42833333333333,398.75000000000006,113.41874999999999C401.16666666666674,113.40916666666665,403.58333333333337,113.39958333333334,406.00000000000006,113.39C408.4166666666667,113.38041666666668,410.8333333333333,113.37083333333332,413.24999999999994,113.36125C415.66666666666663,113.35166666666666,418.08333333333326,113.34208333333335,420.49999999999994,113.33250000000001C422.91666666666663,113.32291666666667,425.3333333333333,113.31333333333333,427.75,113.30375C430.1666666666667,113.29416666666665,432.5833333333333,113.28458333333332,435,113.27499999999999C437.4166666666667,113.26541666666667,439.8333333333333,113.25583333333333,442.25,113.24625C444.6666666666667,113.23666666666668,447.0833333333333,113.22708333333334,449.5,113.2175C451.9166666666667,113.20791666666666,454.3333333333333,113.19833333333334,456.75,113.18875C459.1666666666667,113.17916666666666,461.5833333333333,113.16958333333332,464,113.16C466.4166666666667,113.15041666666667,468.8333333333333,113.14083333333333,471.25,113.13125000000001C473.6666666666667,113.12166666666668,476.0833333333333,113.11208333333335,478.5,113.1025C480.9166666666667,113.09291666666667,483.33333333333337,113.08333333333333,485.75000000000006,113.07374999999999C488.16666666666674,113.06416666666665,490.58333333333337,113.05458333333334,493.00000000000006,113.045C495.4166666666667,113.03541666666668,497.8333333333333,113.02583333333332,500.24999999999994,113.01625C502.66666666666663,113.00666666666666,505.08333333333326,112.99708333333335,507.49999999999994,112.98750000000001C509.91666666666663,112.97791666666667,512.3333333333333,112.96833333333333,514.75,112.95875C517.1666666666666,112.94916666666666,519.5833333333334,112.93958333333332,522,112.92999999999999C524.4166666666666,112.92041666666667,526.8333333333334,112.91083333333333,529.25,112.90125C531.6666666666666,112.89166666666668,534.0833333333334,112.88208333333334,536.5,112.8725C538.9166666666666,112.86291666666666,541.3333333333334,112.85333333333334,543.75,112.84375C546.1666666666666,112.83416666666666,548.5833333333334,112.82458333333334,551,112.815C553.4166666666666,112.80541666666666,555.8333333333334,112.79583333333332,558.25,112.78625C560.6666666666666,112.77666666666667,563.0833333333334,112.76708333333335,565.5,112.75750000000001C567.9166666666666,112.74791666666667,570.3333333333334,112.73833333333333,572.75,112.72874999999999C575.1666666666666,112.71916666666665,577.5833333333334,112.70958333333333,580,112.7C582.4166666666666,112.69041666666668,584.8333333333334,112.68083333333334,587.25,112.67125C589.6666666666666,112.66166666666666,592.0833333333334,112.65208333333334,594.5,112.6425C596.9166666666666,112.63291666666666,599.3333333333334,112.62333333333333,601.75,112.61375C604.1666666666666,112.60416666666666,606.5833333333334,112.59458333333332,609,112.585C611.4166666666666,112.57541666666667,613.8333333333334,112.56583333333333,616.25,112.55625C618.6666666666666,112.54666666666668,621.0833333333334,112.53708333333334,623.5,112.5275C625.9166666666666,112.51791666666666,628.3333333333334,112.50833333333334,630.75,112.49875C633.1666666666666,112.48916666666666,635.5833333333334,112.47958333333334,638,112.47C640.4166666666666,112.46041666666666,642.8333333333334,112.45083333333332,645.25,112.44125C647.6666666666666,112.43166666666667,650.0833333333334,112.43166666666667,652.5,112.41250000000001C654.9166666666666,112.39333333333335,657.3333333333334,111.88977272727273,659.75,111.62840909090909C662.1666666666666,111.36704545454545,664.5833333333334,111.10568181818182,667,110.84431818181818C669.4166666666666,110.58295454545454,671.8333333333334,110.32159090909092,674.25,110.06022727272727C676.6666666666666,109.79886363636363,679.0833333333334,109.5375,681.5,109.27613636363635C683.9166666666666,109.01477272727271,686.3333333333334,108.75340909090909,688.75,108.49204545454545C691.1666666666666,108.23068181818181,693.5833333333334,107.96931818181818,696,107.70795454545454C698.4166666666666,107.4465909090909,700.8333333333334,107.18522727272727,703.25,106.92386363636363C705.6666666666666,106.6625,708.0833333333334,106.40113636363637,710.5,106.13977272727273C712.9166666666666,105.87840909090909,715.3333333333334,105.61704545454546,717.75,105.35568181818182C720.1666666666666,105.09431818181818,722.5833333333334,104.83295454545454,725,104.5715909090909C727.4166666666666,104.31022727272726,729.8333333333334,104.04886363636362,732.25,103.7875C734.6666666666666,103.52613636363637,737.0833333333334,103.26477272727274,739.5,103.0034090909091C741.9166666666666,102.74204545454546,744.3333333333334,102.48068181818182,746.75,102.21931818181818C749.1666666666666,101.95795454545454,751.5833333333334,101.69659090909092,754,101.43522727272727C756.4166666666666,101.17386363636363,758.8333333333334,100.91250000000001,761.25,100.65113636363637C763.6666666666666,100.38977272727273,766.0833333333334,100.12840909090909,768.5,99.86704545454545C770.9166666666666,99.60568181818181,773.3333333333334,99.34431818181818,775.75,99.08295454545454C778.1666666666666,98.8215909090909,780.5833333333334,98.56022727272727,783,98.29886363636363C785.4166666666667,98.0375,787.8333333333334,97.77613636363637,790.2500000000001,97.51477272727273C792.6666666666667,97.25340909090909,795.0833333333335,96.99204545454545,797.5000000000001,96.73068181818181C799.9166666666667,96.46931818181817,802.3333333333335,96.20795454545456,804.7500000000001,95.94659090909092C807.1666666666667,95.68522727272727,809.5833333333335,95.42386363636365,812.0000000000001,95.16250000000001C814.4166666666667,94.90113636363637,816.8333333333333,94.63977272727273,819.2499999999999,94.37840909090909C821.6666666666665,94.11704545454545,824.0833333333333,93.85568181818182,826.4999999999999,93.59431818181818C828.9166666666665,93.33295454545454,831.3333333333333,93.07159090909092,833.7499999999999,92.81022727272727C836.1666666666665,92.54886363636363,838.5833333333333,92.28750000000001,840.9999999999999,92.02613636363637C843.4166666666666,91.76477272727273,845.8333333333333,91.5034090909091,848.25,91.24204545454546C850.6666666666666,90.98068181818182,853.0833333333334,90.7193181818182,855.5,90.45795454545456C857.9166666666666,90.19659090909092,860.3333333333334,89.93522727272727,862.75,89.67386363636363C865.1666666666666,89.4125,867.5833333333334,89.15113636363637,870,88.88977272727273C872.4166666666666,88.62840909090909,874.8333333333334,88.36704545454546,877.25,88.10568181818182C879.6666666666666,87.84431818181818,882.0833333333334,87.58295454545454,884.5,87.3215909090909C886.9166666666666,87.06022727272726,889.3333333333334,86.79886363636363,891.75,86.5375C894.1666666666666,86.27613636363635,896.5833333333334,86.01477272727273,899,85.75340909090909C901.4166666666666,85.49204545454545,903.8333333333334,85.23068181818182,906.25,84.96931818181818C908.6666666666666,84.70795454545454,911.0833333333334,84.44659090909092,913.5,84.18522727272727C915.9166666666666,83.92386363636363,918.3333333333334,83.66250000000001,920.75,83.40113636363637C923.1666666666666,83.13977272727273,925.5833333333334,82.87840909090909,928,82.61704545454545C930.4166666666666,82.35568181818181,932.8333333333334,82.09431818181818,935.25,81.83295454545456C937.6666666666666,81.57159090909093,940.0833333333334,81.31022727272729,942.5,81.04886363636365C944.9166666666666,80.78750000000001,947.3333333333334,80.52613636363637,949.75,80.26477272727273C952.1666666666666,80.00340909090909,954.5833333333334,79.74204545454546,957,79.48068181818182C959.4166666666666,79.21931818181818,961.8333333333334,78.95795454545456,964.25,78.69659090909092C966.6666666666667,78.43522727272727,969.0833333333334,78.17386363636363,971.5000000000001,77.9125C973.9166666666667,77.65113636363635,976.3333333333335,77.38977272727273,978.7500000000001,77.12840909090909C981.1666666666667,76.86704545454545,983.5833333333335,76.60568181818182,986.0000000000001,76.34431818181818C988.4166666666667,76.08295454545454,990.8333333333335,75.8215909090909,993.2500000000001,75.56022727272726C995.6666666666667,75.29886363636362,998.0833333333333,75.03749999999998,1000.4999999999999,74.77613636363635C1002.9166666666665,74.51477272727271,1005.3333333333333,74.2534090909091,1007.7499999999999,73.99204545454546C1010.1666666666665,73.73068181818182,1012.5833333333333,73.46931818181817,1014.9999999999999,73.20795454545453C1017.4166666666665,72.94659090909089,1019.8333333333333,72.68522727272727,1022.2499999999999,72.42386363636363C1024.6666666666665,72.1625,1027.0833333333333,71.90113636363635,1029.5,71.63977272727271C1031.9166666666667,71.37840909090907,1034.3333333333333,71.11704545454546,1036.75,70.85568181818182C1039.1666666666667,70.59431818181818,1041.5833333333333,70.33295454545456,1044,70.07159090909092C1046.4166666666667,69.81022727272727,1048.8333333333333,69.54886363636365,1051.25,69.28750000000001C1053.6666666666667,69.02613636363637,1056.0833333333333,68.76477272727273,1058.5,68.50340909090909C1060.9166666666667,68.24204545454545,1063.3333333333333,67.98068181818182,1065.75,67.71931818181818C1068.1666666666667,67.45795454545454,1070.5833333333333,67.19659090909092,1073,66.93522727272727C1075.4166666666667,66.67386363636363,1077.8333333333333,66.4125,1080.25,66.15113636363635C1082.6666666666667,65.88977272727271,1085.0833333333333,65.62840909090909,1087.5,65.36704545454545C1089.9166666666667,65.10568181818181,1092.3333333333333,64.84431818181818,1094.75,64.58295454545454C1097.1666666666667,64.3215909090909,1099.5833333333333,64.06022727272726,1102,63.79886363636363C1104.4166666666667,63.537499999999994,1106.8333333333333,63.27613636363636,1109.25,63.01477272727273C1111.6666666666667,62.753409090909095,1114.0833333333333,62.49204545454546,1116.5,62.23068181818183C1118.9166666666667,61.969318181818196,1121.3333333333333,61.70795454545454,1123.75,61.44659090909091C1126.1666666666667,61.185227272727275,1128.5833333333333,60.92386363636364,1131,60.66250000000001C1133.4166666666667,60.401136363636375,1135.8333333333333,60.13977272727273,1138.25,59.878409090909095C1140.6666666666667,59.61704545454546,1143.0833333333333,59.35568181818182,1145.5,59.09431818181819C1147.9166666666667,58.832954545454555,1150.3333333333333,58.571590909090915,1152.75,58.310227272727275C1155.1666666666667,58.048863636363635,1157.5833333333333,57.78750000000001,1160,57.52613636363637C1162.4166666666667,57.26477272727273,1164.8333333333333,57.003409090909095,1167.25,56.742045454545455C1169.6666666666667,56.480681818181814,1172.0833333333333,56.21931818181818,1174.5,55.95795454545454C1176.9166666666667,55.6965909090909,1179.3333333333333,55.435227272727275,1181.75,55.173863636363635C1184.1666666666667,54.912499999999994,1186.5833333333333,54.651136363636354,1189,54.38977272727272C1191.4166666666667,54.12840909090909,1193.8333333333333,53.867045454545455,1196.25,53.60568181818182C1198.6666666666667,53.34431818181819,1201.0833333333333,53.082954545454555,1203.5,52.821590909090915C1205.9166666666667,52.560227272727275,1208.3333333333333,52.29886363636364,1210.75,52.0375C1213.1666666666667,51.77613636363636,1215.5833333333333,51.51477272727273,1218,51.25340909090909C1220.4166666666667,50.99204545454545,1222.8333333333333,50.73068181818182,1225.25,50.46931818181818C1227.6666666666667,50.20795454545454,1230.0833333333333,49.9465909090909,1232.5,49.68522727272727C1234.9166666666667,49.423863636363635,1237.3333333333333,49.162499999999994,1239.75,48.90113636363636C1242.1666666666667,48.63977272727273,1244.5833333333333,48.378409090909095,1247,48.11704545454546C1249.4166666666667,47.85568181818183,1251.8333333333333,47.59431818181819,1254.25,47.33295454545455C1256.6666666666667,47.07159090909091,1259.0833333333333,46.810227272727275,1261.5,46.548863636363635C1263.9166666666667,46.287499999999994,1266.3333333333333,46.02613636363637,1268.75,45.76477272727273C1271.1666666666667,45.50340909090909,1273.5833333333333,45.24204545454545,1276,44.980681818181814C1278.4166666666667,44.71931818181818,1280.8333333333333,44.45795454545454,1283.25,44.19659090909091C1285.6666666666667,43.935227272727275,1288.0833333333333,43.67386363636363,1290.5,43.412499999999994C1292.9166666666667,43.15113636363636,1295.3333333333333,42.88977272727273,1297.75,42.628409090909095C1300.1666666666667,42.36704545454546,1302.5833333333333,42.10568181818182,1305,41.84431818181818C1307.4166666666667,41.58295454545454,1309.8333333333333,41.321590909090915,1312.25,41.060227272727275C1314.6666666666667,40.798863636363635,1317.0833333333333,40.53749999999998,1319.5,40.27613636363635C1321.9166666666667,40.014772727272714,1324.3333333333333,39.75340909090909,1326.75,39.492045454545455C1329.1666666666667,39.23068181818182,1331.5833333333333,38.96931818181818,1334,38.70795454545454C1336.4166666666667,38.4465909090909,1338.8333333333333,38.18522727272726,1341.25,37.92386363636363C1343.6666666666667,37.662499999999994,1346.0833333333333,37.40113636363637,1348.5,37.139772727272735C1350.9166666666667,36.8784090909091,1353.3333333333333,36.61704545454545,1355.75,36.35568181818181C1358.1666666666667,36.09431818181817,1360.5833333333333,35.83295454545454,1363,35.57159090909091C1365.4166666666667,35.310227272727275,1367.8333333333333,35.048863636363635,1370.25,34.7875C1372.6666666666667,34.52613636363637,1375.0833333333333,34.26477272727273,1377.5,34.00340909090909C1379.9166666666667,33.74204545454545,1382.3333333333333,33.48068181818181,1384.75,33.21931818181817C1387.1666666666667,32.95795454545453,1389.5833333333333,32.6965909090909,1392,32.43522727272727C1394.4166666666667,32.173863636363635,1396.8333333333333,31.9125,1399.25,31.65113636363637C1401.6666666666667,31.389772727272735,1404.0833333333333,31.128409090909095,1406.5,30.86704545454546C1408.9166666666667,30.60568181818182,1411.3333333333333,30.344318181818185,1413.75,30.082954545454545C1416.1666666666667,29.821590909090904,1418.5833333333333,29.56022727272726,1421,29.298863636363624C1423.4166666666667,29.037499999999987,1425.8333333333333,28.77613636363636,1428.25,28.514772727272724C1430.6666666666667,28.253409090909088,1433.0833333333333,27.992045454545448,1435.5,27.730681818181814C1437.9166666666667,27.46931818181818,1440.3333333333333,27.207954545454548,1442.75,26.946590909090915C1445.1666666666667,26.685227272727282,1447.5833333333333,26.42386363636364,1450,26.162500000000005" fill="transparent" stroke-linecap="round" stroke="#B6509E" stroke-width="2"></path><path class="visx-linepath" d="M0,111.54999999991695C2.4166666666666665,111.53615740735896,4.833333333333334,111.52231481480098,7.25,111.50847222222222C9.666666666666666,111.49462962964347,12.083333333333334,111.48078703703705,14.5,111.46694444444445C16.916666666666668,111.45310185185186,19.333333333333332,111.43925925925926,21.75,111.42541666666666C24.166666666666668,111.41157407407407,26.583333333333332,111.39773148148149,29,111.38388888888889C31.416666666666668,111.3700462962963,33.833333333333336,111.35620370370371,36.25,111.34236111111112C38.666666666666664,111.32851851851852,41.083333333333336,111.31467592592593,43.5,111.30083333333333C45.91666666666667,111.28699074074073,48.333333333333336,111.27314814814815,50.75000000000001,111.25930555555556C53.16666666666667,111.24546296296296,55.583333333333336,111.23162037037038,58,111.21777777777778C60.416666666666664,111.20393518518519,62.833333333333336,111.19009259259259,65.25,111.17625C67.66666666666667,111.1624074074074,70.08333333333333,111.14856481481482,72.5,111.13472222222222C74.91666666666667,111.12087962962963,77.33333333333333,111.10703703703705,79.75,111.09319444444445C82.16666666666667,111.07935185185185,84.58333333333333,111.06550925925926,87,111.05166666666666C89.41666666666667,111.03782407407407,91.83333333333333,111.02398148148148,94.25,111.01013888888889C96.66666666666667,110.9962962962963,99.08333333333334,110.98245370370371,101.50000000000001,110.96861111111112C103.91666666666667,110.95476851851852,106.33333333333334,110.94092592592592,108.75,110.92708333333333C111.16666666666667,110.91324074074073,113.58333333333333,110.89939814814815,116,110.88555555555556C118.41666666666667,110.87171296296296,120.83333333333334,110.85787037037036,123.25000000000001,110.84402777777777C125.66666666666667,110.83018518518517,128.08333333333334,110.8163425925926,130.5,110.80250000000001C132.91666666666666,110.78865740740741,135.33333333333334,110.77481481481482,137.75,110.76097222222222C140.16666666666666,110.74712962962963,142.58333333333334,110.73328703703703,145,110.71944444444443C147.41666666666666,110.70560185185184,149.83333333333334,110.69175925925927,152.25,110.67791666666668C154.66666666666666,110.66407407407408,157.08333333333334,110.65023148148148,159.5,110.63638888888889C161.91666666666666,110.62254629629629,164.33333333333334,110.6087037037037,166.75,110.5948611111111C169.16666666666666,110.5810185185185,171.58333333333334,110.56717592592594,174,110.55333333333334C176.41666666666666,110.53949074074075,178.83333333333334,110.52564814814815,181.25,110.51180555555555C183.66666666666666,110.49796296296296,186.08333333333334,110.48412037037038,188.5,110.47027777777778C190.91666666666666,110.45643518518519,193.33333333333334,110.4425925925926,195.75,110.42875000000001C198.16666666666669,110.41490740740741,200.58333333333334,110.40106481481482,203.00000000000003,110.38722222222222C205.41666666666669,110.37337962962962,207.83333333333331,110.35953703703704,210.24999999999997,110.34569444444445C212.66666666666666,110.33185185185185,215.08333333333331,110.31800925925927,217.5,110.30416666666667C219.91666666666666,110.29032407407408,222.33333333333334,110.27648148148148,224.75,110.26263888888889C227.16666666666666,110.24879629629629,229.58333333333334,110.23495370370371,232,110.22111111111111C234.41666666666666,110.20726851851852,236.83333333333334,110.19342592592592,239.25,110.17958333333333C241.66666666666669,110.16574074074073,244.08333333333334,110.15189814814815,246.50000000000003,110.13805555555555C248.91666666666669,110.12421296296296,251.33333333333331,110.11037037037038,253.74999999999997,110.09652777777778C256.16666666666663,110.08268518518518,258.5833333333333,110.06884259259259,261,110.05499999999999C263.4166666666667,110.0411574074074,265.8333333333333,110.02731481481483,268.25,110.01347222222223C270.6666666666667,109.99962962962964,273.0833333333333,109.98578703703704,275.5,109.97194444444445C277.9166666666667,109.95810185185185,280.3333333333333,109.94425925925925,282.75,109.93041666666666C285.1666666666667,109.91657407407406,287.5833333333333,109.9027314814815,290,109.8888888888889C292.4166666666667,109.8750462962963,294.8333333333333,109.86120370370371,297.25,109.84736111111111C299.6666666666667,109.83351851851852,302.0833333333333,109.81967592592592,304.5,109.80583333333333C306.9166666666667,109.79199074074073,309.3333333333333,109.77814814814815,311.75,109.76430555555555C314.1666666666667,109.75046296296296,316.5833333333333,109.73662037037037,319,109.72277777777778C321.4166666666667,109.70893518518518,323.8333333333333,109.69509259259259,326.25,109.68124999999999C328.6666666666667,109.6674074074074,331.0833333333333,109.65356481481481,333.5,109.63972222222222C335.9166666666667,109.62587962962962,338.3333333333333,109.61203703703704,340.75,109.59819444444445C343.1666666666667,109.58435185185185,345.5833333333333,109.57050925925927,348,109.55666666666667C350.4166666666667,109.54282407407408,352.8333333333333,109.52898148148148,355.25,109.51513888888888C357.6666666666667,109.50129629629629,360.0833333333333,109.48745370370371,362.5,109.47361111111111C364.9166666666667,109.45976851851852,367.3333333333333,109.44592592592593,369.75,109.43208333333334C372.1666666666667,109.41824074074074,374.5833333333333,109.40439814814815,377,109.39055555555555C379.4166666666667,109.37671296296296,381.8333333333333,109.36287037037037,384.25,109.34902777777778C386.6666666666667,109.33518518518518,389.0833333333333,109.3213425925926,391.5,109.3075C393.9166666666667,109.29365740740741,396.33333333333337,109.27981481481481,398.75000000000006,109.26597222222222C401.16666666666674,109.25212962962962,403.58333333333337,109.23828703703704,406.00000000000006,109.22444444444444C408.4166666666667,109.21060185185185,410.8333333333333,109.19675925925927,413.24999999999994,109.18291666666667C415.66666666666663,109.16907407407408,418.08333333333326,109.15523148148148,420.49999999999994,109.14138888888888C422.91666666666663,109.12754629629629,425.3333333333333,109.1137037037037,427.75,109.09986111111111C430.1666666666667,109.08601851851851,432.5833333333333,109.07217592592593,435,109.05833333333334C437.4166666666667,109.04449074074074,439.8333333333333,109.03064814814815,442.25,109.01680555555555C444.6666666666667,109.00296296296295,447.0833333333333,108.98912037037037,449.5,108.97527777777778C451.9166666666667,108.96143518518518,454.3333333333333,108.9475925925926,456.75,108.93375C459.1666666666667,108.91990740740741,461.5833333333333,108.90606481481481,464,108.89222222222222C466.4166666666667,108.87837962962962,468.8333333333333,108.86453703703704,471.25,108.85069444444444C473.6666666666667,108.83685185185185,476.0833333333333,108.82300925925927,478.5,108.80916666666667C480.9166666666667,108.79532407407407,483.33333333333337,108.78148148148149,485.75000000000006,108.7676388888889C488.16666666666674,108.7537962962963,490.58333333333337,108.7399537037037,493.00000000000006,108.72611111111111C495.4166666666667,108.71226851851851,497.8333333333333,108.69842592592592,500.24999999999994,108.68458333333332C502.66666666666663,108.67074074074073,505.08333333333326,108.65689814814816,507.49999999999994,108.64305555555556C509.91666666666663,108.62921296296297,512.3333333333333,108.61537037037037,514.75,108.60152777777778C517.1666666666666,108.58768518518518,519.5833333333334,108.57384259259258,522,108.55999999999999C524.4166666666666,108.54615740740739,526.8333333333334,108.53231481481482,529.25,108.51847222222223C531.6666666666666,108.50462962962963,534.0833333333334,108.49078703703704,536.5,108.47694444444444C538.9166666666666,108.46310185185185,541.3333333333334,108.44925925925926,543.75,108.43541666666667C546.1666666666666,108.42157407407407,548.5833333333334,108.40773148148149,551,108.3938888888889C553.4166666666666,108.3800462962963,555.8333333333334,108.3662037037037,558.25,108.35236111111111C560.6666666666666,108.33851851851851,563.0833333333334,108.32467592592593,565.5,108.31083333333333C567.9166666666666,108.29699074074074,570.3333333333334,108.28314814814816,572.75,108.26930555555556C575.1666666666666,108.25546296296297,577.5833333333334,108.24162037037037,580,108.22777777777777C582.4166666666666,108.21393518518518,584.8333333333334,108.2000925925926,587.25,108.18625C589.6666666666666,108.1724074074074,592.0833333333334,108.15856481481482,594.5,108.14472222222223C596.9166666666666,108.13087962962963,599.3333333333334,108.11703703703704,601.75,108.10319444444444C604.1666666666666,108.08935185185184,606.5833333333334,108.07550925925926,609,108.06166666666667C611.4166666666666,108.04782407407407,613.8333333333334,108.03398148148148,616.25,108.02013888888888C618.6666666666666,108.00629629629628,621.0833333333334,107.99245370370372,623.5,107.97861111111112C625.9166666666666,107.96476851851853,628.3333333333334,107.95092592592593,630.75,107.93708333333333C633.1666666666666,107.92324074074074,635.5833333333334,107.90939814814814,638,107.89555555555555C640.4166666666666,107.88171296296295,642.8333333333334,107.86787037037038,645.25,107.85402777777779C647.6666666666666,107.84018518518519,650.0833333333334,107.84018518518519,652.5,107.8125C654.9166666666666,107.78481481481481,657.3333333333334,107.28977272727273,659.75,107.0284090909091C662.1666666666666,106.76704545454545,664.5833333333334,106.50568181818181,667,106.24431818181817C669.4166666666666,105.98295454545453,671.8333333333334,105.7215909090909,674.25,105.46022727272727C676.6666666666666,105.19886363636363,679.0833333333334,104.93750000000001,681.5,104.67613636363637C683.9166666666666,104.41477272727273,686.3333333333334,104.1534090909091,688.75,103.89204545454545C691.1666666666666,103.63068181818181,693.5833333333334,103.36931818181819,696,103.10795454545455C698.4166666666666,102.8465909090909,700.8333333333334,102.58522727272728,703.25,102.32386363636364C705.6666666666666,102.0625,708.0833333333334,101.80113636363636,710.5,101.53977272727272C712.9166666666666,101.27840909090908,715.3333333333334,101.01704545454544,717.75,100.75568181818181C720.1666666666666,100.49431818181819,722.5833333333334,100.23295454545456,725,99.97159090909092C727.4166666666666,99.71022727272728,729.8333333333334,99.44886363636364,732.25,99.1875C734.6666666666666,98.92613636363636,737.0833333333334,98.66477272727273,739.5,98.4034090909091C741.9166666666666,98.14204545454545,744.3333333333334,97.88068181818183,746.75,97.61931818181819C749.1666666666666,97.35795454545455,751.5833333333334,97.0965909090909,754,96.83522727272727C756.4166666666666,96.57386363636363,758.8333333333334,96.3125,761.25,96.05113636363636C763.6666666666666,95.78977272727272,766.0833333333334,95.5284090909091,768.5,95.26704545454545C770.9166666666666,95.00568181818181,773.3333333333334,94.74431818181817,775.75,94.48295454545453C778.1666666666666,94.22159090909089,780.5833333333334,93.96022727272725,783,93.69886363636363C785.4166666666667,93.43749999999999,787.8333333333334,93.17613636363637,790.2500000000001,92.91477272727273C792.6666666666667,92.6534090909091,795.0833333333335,92.39204545454545,797.5000000000001,92.13068181818181C799.9166666666667,91.86931818181817,802.3333333333335,91.60795454545455,804.7500000000001,91.3465909090909C807.1666666666667,91.08522727272727,809.5833333333335,90.82386363636364,812.0000000000001,90.5625C814.4166666666667,90.30113636363637,816.8333333333333,90.03977272727272,819.2499999999999,89.7784090909091C821.6666666666665,89.51704545454545,824.0833333333333,89.25568181818183,826.4999999999999,88.99431818181819C828.9166666666665,88.73295454545455,831.3333333333333,88.47159090909092,833.7499999999999,88.21022727272728C836.1666666666665,87.94886363636364,838.5833333333333,87.6875,840.9999999999999,87.42613636363636C843.4166666666666,87.16477272727272,845.8333333333333,86.9034090909091,848.25,86.64204545454545C850.6666666666666,86.38068181818181,853.0833333333334,86.11931818181819,855.5,85.85795454545455C857.9166666666666,85.5965909090909,860.3333333333334,85.33522727272728,862.75,85.07386363636364C865.1666666666666,84.8125,867.5833333333334,84.55113636363636,870,84.28977272727272C872.4166666666666,84.02840909090908,874.8333333333334,83.76704545454545,877.25,83.50568181818181C879.6666666666666,83.24431818181817,882.0833333333334,82.98295454545455,884.5,82.7215909090909C886.9166666666666,82.46022727272727,889.3333333333334,82.19886363636364,891.75,81.9375C894.1666666666666,81.67613636363636,896.5833333333334,81.41477272727273,899,81.1534090909091C901.4166666666666,80.89204545454545,903.8333333333334,80.63068181818183,906.25,80.36931818181819C908.6666666666666,80.10795454545455,911.0833333333334,79.8465909090909,913.5,79.58522727272727C915.9166666666666,79.32386363636363,918.3333333333334,79.0625,920.75,78.80113636363637C923.1666666666666,78.53977272727275,925.5833333333334,78.27840909090911,928,78.01704545454547C930.4166666666666,77.75568181818183,932.8333333333334,77.49431818181819,935.25,77.23295454545455C937.6666666666666,76.9715909090909,940.0833333333334,76.71022727272728,942.5,76.44886363636364C944.9166666666666,76.1875,947.3333333333334,75.92613636363637,949.75,75.66477272727273C952.1666666666666,75.4034090909091,954.5833333333334,75.14204545454545,957,74.88068181818181C959.4166666666666,74.61931818181817,961.8333333333334,74.35795454545455,964.25,74.0965909090909C966.6666666666667,73.83522727272727,969.0833333333334,73.57386363636364,971.5000000000001,73.3125C973.9166666666667,73.05113636363636,976.3333333333335,72.78977272727272,978.7500000000001,72.52840909090908C981.1666666666667,72.26704545454544,983.5833333333335,72.00568181818181,986.0000000000001,71.74431818181817C988.4166666666667,71.48295454545453,990.8333333333335,71.2215909090909,993.2500000000001,70.96022727272727C995.6666666666667,70.69886363636364,998.0833333333333,70.4375,1000.4999999999999,70.17613636363636C1002.9166666666665,69.91477272727272,1005.3333333333333,69.65340909090907,1007.7499999999999,69.39204545454544C1010.1666666666665,69.13068181818181,1012.5833333333333,68.86931818181819,1014.9999999999999,68.60795454545456C1017.4166666666665,68.34659090909093,1019.8333333333333,68.08522727272728,1022.2499999999999,67.82386363636364C1024.6666666666665,67.5625,1027.0833333333333,67.30113636363637,1029.5,67.03977272727273C1031.9166666666667,66.7784090909091,1034.3333333333333,66.51704545454547,1036.75,66.25568181818183C1039.1666666666667,65.99431818181819,1041.5833333333333,65.73295454545455,1044,65.4715909090909C1046.4166666666667,65.21022727272727,1048.8333333333333,64.94886363636364,1051.25,64.6875C1053.6666666666667,64.42613636363636,1056.0833333333333,64.16477272727272,1058.5,63.903409090909086C1060.9166666666667,63.64204545454545,1063.3333333333333,63.38068181818181,1065.75,63.11931818181818C1068.1666666666667,62.85795454545455,1070.5833333333333,62.59659090909091,1073,62.335227272727266C1075.4166666666667,62.073863636363626,1077.8333333333333,61.8125,1080.25,61.55113636363636C1082.6666666666667,61.28977272727272,1085.0833333333333,61.02840909090908,1087.5,60.767045454545446C1089.9166666666667,60.50568181818181,1092.3333333333333,60.244318181818194,1094.75,59.98295454545456C1097.1666666666667,59.72159090909093,1099.5833333333333,59.460227272727266,1102,59.19886363636363C1104.4166666666667,58.9375,1106.8333333333333,58.676136363636374,1109.25,58.41477272727274C1111.6666666666667,58.15340909090911,1114.0833333333333,57.89204545454547,1116.5,57.63068181818183C1118.9166666666667,57.36931818181819,1121.3333333333333,57.10795454545455,1123.75,56.84659090909091C1126.1666666666667,56.585227272727266,1128.5833333333333,56.32386363636364,1131,56.06250000000001C1133.4166666666667,55.801136363636374,1135.8333333333333,55.539772727272734,1138.25,55.27840909090909C1140.6666666666667,55.01704545454545,1143.0833333333333,54.75568181818181,1145.5,54.49431818181818C1147.9166666666667,54.23295454545455,1150.3333333333333,53.97159090909091,1152.75,53.71022727272727C1155.1666666666667,53.44886363636364,1157.5833333333333,53.1875,1160,52.92613636363636C1162.4166666666667,52.66477272727272,1164.8333333333333,52.40340909090909,1167.25,52.14204545454545C1169.6666666666667,51.88068181818181,1172.0833333333333,51.61931818181817,1174.5,51.35795454545454C1176.9166666666667,51.09659090909091,1179.3333333333333,50.83522727272727,1181.75,50.57386363636364C1184.1666666666667,50.31250000000001,1186.5833333333333,50.051136363636374,1189,49.789772727272734C1191.4166666666667,49.52840909090909,1193.8333333333333,49.26704545454546,1196.25,49.00568181818182C1198.6666666666667,48.74431818181818,1201.0833333333333,48.48295454545455,1203.5,48.22159090909091C1205.9166666666667,47.960227272727266,1208.3333333333333,47.69886363636364,1210.75,47.4375C1213.1666666666667,47.17613636363636,1215.5833333333333,46.91477272727273,1218,46.653409090909086C1220.4166666666667,46.392045454545446,1222.8333333333333,46.130681818181806,1225.25,45.86931818181817C1227.6666666666667,45.60795454545454,1230.0833333333333,45.346590909090914,1232.5,45.08522727272728C1234.9166666666667,44.82386363636365,1237.3333333333333,44.56250000000001,1239.75,44.30113636363637C1242.1666666666667,44.03977272727273,1244.5833333333333,43.77840909090909,1247,43.51704545454545C1249.4166666666667,43.25568181818181,1251.8333333333333,42.99431818181819,1254.25,42.73295454545455C1256.6666666666667,42.47159090909091,1259.0833333333333,42.21022727272727,1261.5,41.94886363636363C1263.9166666666667,41.68749999999999,1266.3333333333333,41.42613636363635,1268.75,41.16477272727272C1271.1666666666667,40.903409090909086,1273.5833333333333,40.64204545454546,1276,40.38068181818183C1278.4166666666667,40.119318181818194,1280.8333333333333,39.857954545454554,1283.25,39.596590909090914C1285.6666666666667,39.33522727272727,1288.0833333333333,39.07386363636364,1290.5,38.8125C1292.9166666666667,38.55113636363636,1295.3333333333333,38.28977272727272,1297.75,38.02840909090908C1300.1666666666667,37.76704545454544,1302.5833333333333,37.50568181818181,1305,37.24431818181818C1307.4166666666667,36.98295454545455,1309.8333333333333,36.72159090909091,1312.25,36.460227272727266C1314.6666666666667,36.198863636363626,1317.0833333333333,35.93749999999999,1319.5,35.67613636363636C1321.9166666666667,35.41477272727273,1324.3333333333333,35.15340909090909,1326.75,34.89204545454546C1329.1666666666667,34.63068181818183,1331.5833333333333,34.36931818181817,1334,34.10795454545454C1336.4166666666667,33.84659090909091,1338.8333333333333,33.58522727272727,1341.25,33.32386363636364C1343.6666666666667,33.06250000000001,1346.0833333333333,32.80113636363637,1348.5,32.53977272727273C1350.9166666666667,32.278409090909086,1353.3333333333333,32.01704545454545,1355.75,31.755681818181817C1358.1666666666667,31.494318181818176,1360.5833333333333,31.23295454545453,1363,30.971590909090892C1365.4166666666667,30.710227272727256,1367.8333333333333,30.44886363636363,1370.25,30.187499999999996C1372.6666666666667,29.926136363636363,1375.0833333333333,29.664772727272734,1377.5,29.403409090909097C1379.9166666666667,29.14204545454546,1382.3333333333333,28.880681818181824,1384.75,28.619318181818187C1387.1666666666667,28.35795454545455,1389.5833333333333,28.096590909090914,1392,27.835227272727273C1394.4166666666667,27.573863636363633,1396.8333333333333,27.31249999999999,1399.25,27.051136363636353C1401.6666666666667,26.789772727272716,1404.0833333333333,26.528409090909086,1406.5,26.267045454545453C1408.9166666666667,26.00568181818182,1411.3333333333333,25.74431818181818,1413.75,25.482954545454543C1416.1666666666667,25.221590909090907,1418.5833333333333,24.960227272727266,1421,24.69886363636363C1423.4166666666667,24.437499999999993,1425.8333333333333,24.176136363636367,1428.25,23.914772727272734C1430.6666666666667,23.6534090909091,1433.0833333333333,23.39204545454547,1435.5,23.130681818181834C1437.9166666666667,22.869318181818198,1440.3333333333333,22.60795454545455,1442.75,22.34659090909091C1445.1666666666667,22.08522727272727,1447.5833333333333,21.823863636363637,1450,21.5625" fill="transparent" stroke-linecap="round" stroke="#E7C6DF" stroke-width="2"></path><g class="visx-group visx-axis visx-axis-bottom" transform="translate(0, 115)"><g class="visx-group visx-axis-tick" transform="translate(0, 0)"><line class="visx-line" x1="0" y1="0" x2="0" y2="8" fill="transparent" shape-rendering="crispEdges" stroke="#000" stroke-width="0" stroke-linecap="square"></line><svg x="0" y="0" font-size="10" style="overflow:visible"><text transform="" x="0" y="18" fill="#000" font-size="10" text-anchor="middle"><tspan x="0" dy="0em">0%</tspan></text></svg></g><g class="visx-group visx-axis-tick" transform="translate(0, 0)"><line class="visx-line" x1="362.5" y1="0" x2="362.5" y2="8" fill="transparent" shape-rendering="crispEdges" stroke="#000" stroke-width="0" stroke-linecap="square"></line><svg x="0" y="0" font-size="10" style="overflow:visible"><text transform="" x="362.5" y="18" fill="#000" font-size="10" text-anchor="middle"><tspan x="362.5" dy="0em">25%</tspan></text></svg></g><g class="visx-group visx-axis-tick" transform="translate(0, 0)"><line class="visx-line" x1="725" y1="0" x2="725" y2="8" fill="transparent" shape-rendering="crispEdges" stroke="#000" stroke-width="0" stroke-linecap="square"></line><svg x="0" y="0" font-size="10" style="overflow:visible"><text transform="" x="725" y="18" fill="#000" font-size="10" text-anchor="middle"><tspan x="725" dy="0em">50%</tspan></text></svg></g><g class="visx-group visx-axis-tick" transform="translate(0, 0)"><line class="visx-line" x1="1087.5" y1="0" x2="1087.5" y2="8" fill="transparent" shape-rendering="crispEdges" stroke="#000" stroke-width="0" stroke-linecap="square"></line><svg x="0" y="0" font-size="10" style="overflow:visible"><text transform="" x="1087.5" y="18" fill="#000" font-size="10" text-anchor="middle"><tspan x="1087.5" dy="0em">75%</tspan></text></svg></g><g class="visx-group visx-axis-tick" transform="translate(0, 0)"><line class="visx-line" x1="1450" y1="0" x2="1450" y2="8" fill="transparent" shape-rendering="crispEdges" stroke="#000" stroke-width="0" stroke-linecap="square"></line><svg x="0" y="0" font-size="10" style="overflow:visible"><text transform="" x="1450" y="18" fill="#000" font-size="10" text-anchor="middle"><tspan x="1450" dy="0em">100%</tspan></text></svg></g><line class="visx-line visx-axis-line" x1="0.5" y1="0" x2="1450.5" y2="0" fill="transparent" shape-rendering="crispEdges" stroke="#222" stroke-width="0"></line></g><g class="visx-group visx-axis visx-axis-left" transform="translate(0, 0)"><g class="visx-group visx-axis-tick" transform="translate(0, 0)"><line class="visx-line" x1="0" y1="115" x2="-8" y2="115" fill="transparent" shape-rendering="crispEdges" stroke="#222" stroke-width="0" stroke-linecap="square"></line><svg x="-30" y="0" font-size="8" style="overflow:visible"><text transform="" x="-8" y="115" fill="#000" font-size="8" text-anchor="start"><tspan x="-8" dy="0em">0%</tspan></text></svg></g><g class="visx-group visx-axis-tick" transform="translate(0, 0)"><line class="visx-line" x1="0" y1="57.5" x2="-8" y2="57.5" fill="transparent" shape-rendering="crispEdges" stroke="#222" stroke-width="0" stroke-linecap="square"></line><svg x="-30" y="0" font-size="8" style="overflow:visible"><text transform="" x="-8" y="57.5" fill="#000" font-size="8" text-anchor="start"><tspan x="-8" dy="0em">200%</tspan></text></svg></g><g class="visx-group visx-axis-tick" transform="translate(0, 0)"><line class="visx-line" x1="0" y1="0" x2="-8" y2="0" fill="transparent" shape-rendering="crispEdges" stroke="#222" stroke-width="0" stroke-linecap="square"></line><svg x="-30" y="0" font-size="8" style="overflow:visible"><text transform="" x="-8" y="0" fill="#000" font-size="8" text-anchor="start"><tspan x="-8" dy="0em">400%</tspan></text></svg></g><line class="visx-line visx-axis-line" x1="0" y1="115.5" x2="0" y2="0.5" fill="transparent" shape-rendering="crispEdges" stroke="#222" stroke-width="0"></line></g><rect class="visx-bar" width="1450" height="115" fill="transparent"></rect><line class="visx-line" x1="652.5" y1="28" x2="652.5" y2="115" fill="transparent" shape-rendering="crispEdges" stroke="#0062D2" stroke-width="1" pointer-events="none" stroke-dasharray="5,2"></line><svg x="0" y="0" font-size="10px" style="overflow:visible"><text transform="" x="652.5" y="20" font-size="10px" fill="#fff" stroke="#fff" stroke-width="0.8em" text-anchor="middle"><tspan x="652.5" dy="0.355em">Optimal 45%</tspan></text></svg><svg x="0" y="0" font-size="10px" style="overflow:visible"><text transform="" x="652.5" y="20" font-size="10px" fill="#62677B" text-anchor="middle"><tspan x="652.5" dy="0.355em">Optimal 45%</tspan></text></svg></g></svg>