<?xml version="1.0"?><svg xmlns="http://www.w3.org/2000/svg" xmlns:xlink= "http://www.w3.org/1999/xlink" style="background: white;" width="1500" height="185"> <g style="color: black; font-size: 13px; font-family: sans-serif; transform: translate(18px, 25px);"><g><circle r="3" cx="-6" cy="-5" style="fill: #B6509E" /><text>Borrow APR, variable</text></g><g style="transform: translateX(150px);"><circle r="3" cx="-6" cy="-5" style="fill: rgb(231, 198, 223)" /><text>Borrow APR, stable</text></g><g style="transform: translateX(290px);"><circle r="3" cx="-6" cy="-5" style="fill: rgb(0, 98, 210)" /><text>Utilization Rate</text></g></g><g class="visx-group" transform="translate(40, 50)"><g class="visx-group visx-rows" transform="translate(0, 0)"><line class="visx-line" x1="0" y1="115" x2="1450" y2="115" fill="transparent" shape-rendering="crispEdges" stroke="#000" stroke-width="1" stroke-dasharray="3,3" pointer-events="none"></line><line class="visx-line" x1="0" y1="86.25" x2="1450" y2="86.25" fill="transparent" shape-rendering="crispEdges" stroke="#000" stroke-width="1" stroke-dasharray="3,3" pointer-events="none"></line><line class="visx-line" x1="0" y1="57.5" x2="1450" y2="57.5" fill="transparent" shape-rendering="crispEdges" stroke="#000" stroke-width="1" stroke-dasharray="3,3" pointer-events="none"></line><line class="visx-line" x1="0" y1="28.75" x2="1450" y2="28.75" fill="transparent" shape-rendering="crispEdges" stroke="#000" stroke-width="1" stroke-dasharray="3,3" pointer-events="none"></line><line class="visx-line" x1="0" y1="0" x2="1450" y2="0" fill="transparent" shape-rendering="crispEdges" stroke="#000" stroke-width="1" stroke-dasharray="3,3" pointer-events="none"></line></g><path class="visx-linepath" d="M0,114.99999999994411C2.4166666666666665,114.99068287033776,4.833333333333334,114.98136574073142,7.25,114.9720486111111C9.666666666666666,114.96273148149079,12.083333333333334,114.95341435185185,14.5,114.94409722222223C16.916666666666668,114.9347800925926,19.333333333333332,114.92546296296297,21.75,114.91614583333333C24.166666666666668,114.9068287037037,26.583333333333332,114.89751157407406,29,114.88819444444444C31.416666666666668,114.87887731481482,33.833333333333336,114.86956018518518,36.25,114.86024305555556C38.666666666666664,114.85092592592594,41.083333333333336,114.8416087962963,43.5,114.83229166666666C45.91666666666667,114.82297453703703,48.333333333333336,114.8136574074074,50.75000000000001,114.80434027777777C53.16666666666667,114.79502314814815,55.583333333333336,114.78570601851851,58,114.77638888888889C60.416666666666664,114.76707175925925,62.833333333333336,114.75775462962963,65.25,114.7484375C67.66666666666667,114.73912037037036,70.08333333333333,114.72980324074072,72.5,114.7204861111111C74.91666666666667,114.71116898148148,77.33333333333333,114.70185185185184,79.75,114.69253472222222C82.16666666666667,114.6832175925926,84.58333333333333,114.67390046296295,87,114.66458333333333C89.41666666666667,114.6552662037037,91.83333333333333,114.64594907407407,94.25,114.63663194444445C96.66666666666667,114.62731481481481,99.08333333333334,114.61799768518519,101.50000000000001,114.60868055555555C103.91666666666667,114.59936342592593,106.33333333333334,114.5900462962963,108.75,114.58072916666667C111.16666666666667,114.57141203703704,113.58333333333333,114.5620949074074,116,114.55277777777778C118.41666666666667,114.54346064814814,120.83333333333334,114.53414351851853,123.25000000000001,114.5248263888889C125.66666666666667,114.51550925925928,128.08333333333334,114.50619212962962,130.5,114.496875C132.91666666666666,114.48755787037037,135.33333333333334,114.47824074074074,137.75,114.46892361111112C140.16666666666666,114.4596064814815,142.58333333333334,114.45028935185186,145,114.44097222222223C147.41666666666666,114.43165509259259,149.83333333333334,114.42233796296296,152.25,114.41302083333333C154.66666666666666,114.40370370370371,157.08333333333334,114.39438657407408,159.5,114.38506944444445C161.91666666666666,114.37575231481483,164.33333333333334,114.3664351851852,166.75,114.35711805555556C169.16666666666666,114.34780092592592,171.58333333333334,114.33848379629629,174,114.32916666666667C176.41666666666666,114.31984953703704,178.83333333333334,114.31053240740741,181.25,114.30121527777779C183.66666666666666,114.29189814814816,186.08333333333334,114.28258101851853,188.5,114.27326388888889C190.91666666666666,114.26394675925926,193.33333333333334,114.25462962962962,195.75,114.2453125C198.16666666666669,114.23599537037036,200.58333333333334,114.22667824074075,203.00000000000003,114.21736111111112C205.41666666666669,114.2080439814815,207.83333333333331,114.19872685185186,210.24999999999997,114.18940972222222C212.66666666666666,114.18009259259259,215.08333333333331,114.17077546296296,217.5,114.16145833333333C219.91666666666666,114.1521412037037,222.33333333333334,114.14282407407407,224.75,114.13350694444445C227.16666666666666,114.12418981481483,229.58333333333334,114.11487268518519,232,114.10555555555555C234.41666666666666,114.09623842592592,236.83333333333334,114.08692129629628,239.25,114.07760416666666C241.66666666666669,114.06828703703702,244.08333333333334,114.05896990740742,246.50000000000003,114.04965277777778C248.91666666666669,114.04033564814816,251.33333333333331,114.03101851851852,253.74999999999997,114.02170138888889C256.16666666666663,114.01238425925925,258.5833333333333,114.00306712962963,261,113.99374999999999C263.4166666666667,113.98443287037037,265.8333333333333,113.97511574074073,268.25,113.96579861111111C270.6666666666667,113.95648148148149,273.0833333333333,113.94716435185185,275.5,113.93784722222222C277.9166666666667,113.92853009259258,280.3333333333333,113.91921296296294,282.75,113.90989583333332C285.1666666666667,113.9005787037037,287.5833333333333,113.89126157407406,290,113.88194444444444C292.4166666666667,113.87262731481482,294.8333333333333,113.86331018518517,297.25,113.85399305555555C299.6666666666667,113.84467592592593,302.0833333333333,113.83535879629629,304.5,113.82604166666667C306.9166666666667,113.81672453703705,309.3333333333333,113.80740740740741,311.75,113.79809027777779C314.1666666666667,113.78877314814817,316.5833333333333,113.77945601851853,319,113.7701388888889C321.4166666666667,113.76082175925926,323.8333333333333,113.75150462962962,326.25,113.7421875C328.6666666666667,113.73287037037038,331.0833333333333,113.72355324074074,333.5,113.71423611111112C335.9166666666667,113.7049189814815,338.3333333333333,113.69560185185186,340.75,113.68628472222223C343.1666666666667,113.67696759259259,345.5833333333333,113.66765046296295,348,113.65833333333333C350.4166666666667,113.64901620370371,352.8333333333333,113.63969907407407,355.25,113.63038194444445C357.6666666666667,113.62106481481483,360.0833333333333,113.6117476851852,362.5,113.60243055555556C364.9166666666667,113.59311342592592,367.3333333333333,113.58379629629628,369.75,113.57447916666666C372.1666666666667,113.56516203703704,374.5833333333333,113.5558449074074,377,113.54652777777778C379.4166666666667,113.53721064814816,381.8333333333333,113.52789351851852,384.25,113.51857638888889C386.6666666666667,113.50925925925925,389.0833333333333,113.49994212962962,391.5,113.490625C393.9166666666667,113.48130787037036,396.33333333333337,113.47199074074075,398.75000000000006,113.46267361111111C401.16666666666674,113.45335648148149,403.58333333333337,113.44403935185186,406.00000000000006,113.43472222222222C408.4166666666667,113.42540509259258,410.8333333333333,113.41608796296295,413.24999999999994,113.40677083333333C415.66666666666663,113.39745370370369,418.08333333333326,113.38813657407407,420.49999999999994,113.37881944444445C422.91666666666663,113.36950231481481,425.3333333333333,113.36018518518519,427.75,113.35086805555555C430.1666666666667,113.34155092592593,432.5833333333333,113.3322337962963,435,113.32291666666667C437.4166666666667,113.31359953703705,439.8333333333333,113.30428240740741,442.25,113.29496527777778C444.6666666666667,113.28564814814814,447.0833333333333,113.2763310185185,449.5,113.26701388888888C451.9166666666667,113.25769675925926,454.3333333333333,113.24837962962962,456.75,113.2390625C459.1666666666667,113.22974537037038,461.5833333333333,113.22042824074074,464,113.21111111111111C466.4166666666667,113.20179398148147,468.8333333333333,113.19247685185184,471.25,113.18315972222221C473.6666666666667,113.17384259259259,476.0833333333333,113.16452546296296,478.5,113.15520833333333C480.9166666666667,113.1458912037037,483.33333333333337,113.13657407407408,485.75000000000006,113.12725694444444C488.16666666666674,113.1179398148148,490.58333333333337,113.10862268518518,493.00000000000006,113.09930555555555C495.4166666666667,113.08998842592592,497.8333333333333,113.08067129629629,500.24999999999994,113.07135416666667C502.66666666666663,113.06203703703703,505.08333333333326,113.0527199074074,507.49999999999994,113.04340277777777C509.91666666666663,113.03408564814814,512.3333333333333,113.02476851851851,514.75,113.01545138888889C517.1666666666666,113.00613425925927,519.5833333333334,112.99681712962963,522,112.98750000000001C524.4166666666666,112.97818287037039,526.8333333333334,112.96886574074075,529.25,112.95954861111112C531.6666666666666,112.95023148148148,534.0833333333334,112.94091435185184,536.5,112.93159722222222C538.9166666666666,112.9222800925926,541.3333333333334,112.91296296296296,543.75,112.90364583333334C546.1666666666666,112.89432870370372,548.5833333333334,112.88501157407408,551,112.87569444444445C553.4166666666666,112.86637731481481,555.8333333333334,112.85706018518518,558.25,112.84774305555555C560.6666666666666,112.83842592592593,563.0833333333334,112.8291087962963,565.5,112.81979166666667C567.9166666666666,112.81047453703705,570.3333333333334,112.80115740740742,572.75,112.79184027777778C575.1666666666666,112.78252314814814,577.5833333333334,112.77320601851851,580,112.76388888888889C582.4166666666666,112.75457175925926,584.8333333333334,112.74525462962963,587.25,112.7359375C589.6666666666666,112.72662037037038,592.0833333333334,112.71730324074075,594.5,112.70798611111111C596.9166666666666,112.69866898148148,599.3333333333334,112.68935185185184,601.75,112.68003472222222C604.1666666666666,112.6707175925926,606.5833333333334,112.66140046296296,609,112.65208333333334C611.4166666666666,112.64276620370372,613.8333333333334,112.63344907407408,616.25,112.62413194444444C618.6666666666666,112.6148148148148,621.0833333333334,112.60549768518517,623.5,112.59618055555555C625.9166666666666,112.58686342592593,628.3333333333334,112.57754629629629,630.75,112.56822916666667C633.1666666666666,112.55891203703705,635.5833333333334,112.54959490740741,638,112.54027777777777C640.4166666666666,112.53096064814814,642.8333333333334,112.5216435185185,645.25,112.51232638888888C647.6666666666666,112.50300925925926,650.0833333333334,112.49369212962962,652.5,112.484375C654.9166666666666,112.47505787037038,657.3333333333334,112.46574074074073,659.75,112.4564236111111C662.1666666666666,112.44710648148148,664.5833333333334,112.43778935185185,667,112.42847222222223C669.4166666666666,112.4191550925926,671.8333333333334,112.40983796296297,674.25,112.40052083333333C676.6666666666666,112.3912037037037,679.0833333333334,112.38188657407406,681.5,112.37256944444444C683.9166666666666,112.36325231481482,686.3333333333334,112.35393518518518,688.75,112.34461805555556C691.1666666666666,112.33530092592594,693.5833333333334,112.3259837962963,696,112.31666666666666C698.4166666666666,112.30734953703703,700.8333333333334,112.29803240740739,703.25,112.28871527777777C705.6666666666666,112.27939814814815,708.0833333333334,112.27008101851851,710.5,112.26076388888889C712.9166666666666,112.25144675925927,715.3333333333334,112.24212962962963,717.75,112.23281250000001C720.1666666666666,112.22349537037039,722.5833333333334,112.21417824074074,725,112.20486111111111C727.4166666666666,112.19554398148149,729.8333333333334,112.18622685185186,732.25,112.17690972222223C734.6666666666666,112.16759259259261,737.0833333333334,112.15827546296298,739.5,112.14895833333334C741.9166666666666,112.1396412037037,744.3333333333334,112.13032407407407,746.75,112.12100694444445C749.1666666666666,112.11168981481482,751.5833333333334,112.10237268518519,754,112.09305555555557C756.4166666666666,112.08373842592594,758.8333333333334,112.07442129629631,761.25,112.06510416666667C763.6666666666666,112.05578703703704,766.0833333333334,112.0464699074074,768.5,112.03715277777778C770.9166666666666,112.02783564814816,773.3333333333334,112.01851851851852,775.75,112.0092013888889C778.1666666666666,111.99988425925928,780.5833333333334,111.99056712962964,783,111.98125C785.4166666666667,111.97193287037037,787.8333333333334,111.96261574074074,790.2500000000001,111.95329861111111C792.6666666666667,111.94398148148149,795.0833333333335,111.93466435185185,797.5000000000001,111.92534722222223C799.9166666666667,111.9160300925926,802.3333333333335,111.90671296296297,804.7500000000001,111.89739583333333C807.1666666666667,111.8880787037037,809.5833333333335,111.87876157407408,812.0000000000001,111.86944444444444C814.4166666666667,111.86012731481482,816.8333333333333,111.85081018518518,819.2499999999999,111.84149305555556C821.6666666666665,111.83217592592592,824.0833333333333,111.8228587962963,826.4999999999999,111.81354166666667C828.9166666666665,111.80422453703703,831.3333333333333,111.7949074074074,833.7499999999999,111.78559027777777C836.1666666666665,111.77627314814815,838.5833333333333,111.76695601851851,840.9999999999999,111.75763888888889C843.4166666666666,111.74832175925926,845.8333333333333,111.73900462962963,848.25,111.7296875C850.6666666666666,111.72037037037036,853.0833333333334,111.71105324074072,855.5,111.7017361111111C857.9166666666666,111.69241898148148,860.3333333333334,111.68310185185184,862.75,111.67378472222222C865.1666666666666,111.6644675925926,867.5833333333334,111.65515046296296,870,111.64583333333333C872.4166666666666,111.63651620370369,874.8333333333334,111.62719907407406,877.25,111.61788194444443C879.6666666666666,111.60856481481481,882.0833333333334,111.59924768518518,884.5,111.58993055555555C886.9166666666666,111.58061342592593,889.3333333333334,111.5712962962963,891.75,111.56197916666666C894.1666666666666,111.55266203703702,896.5833333333334,111.54334490740739,899,111.53402777777777C901.4166666666666,111.52471064814814,903.8333333333334,111.51539351851851,906.25,111.50607638888889C908.6666666666666,111.49675925925926,911.0833333333334,111.48744212962961,913.5,111.47812499999999C915.9166666666666,111.46880787037037,918.3333333333334,111.45949074074073,920.75,111.45017361111111C923.1666666666666,111.44085648148149,925.5833333333334,111.43153935185185,928,111.42222222222223C930.4166666666666,111.41290509259261,932.8333333333334,111.40358796296297,935.25,111.39427083333334C937.6666666666666,111.3849537037037,940.0833333333334,111.37563657407406,942.5,111.36631944444444C944.9166666666666,111.35700231481482,947.3333333333334,111.34768518518518,949.75,111.33836805555556C952.1666666666666,111.32905092592594,954.5833333333334,111.3197337962963,957,111.31041666666667C959.4166666666666,111.30109953703703,961.8333333333334,111.2917824074074,964.25,111.28246527777777C966.6666666666667,111.27314814814814,969.0833333333334,111.26383101851853,971.5000000000001,111.2545138888889C973.9166666666667,111.24519675925927,976.3333333333335,111.23587962962962,978.7500000000001,111.2265625C981.1666666666667,111.21724537037038,983.5833333333335,111.20792824074074,986.0000000000001,111.19861111111112C988.4166666666667,111.1892939814815,990.8333333333335,111.17997685185186,993.2500000000001,111.17065972222223C995.6666666666667,111.16134259259259,998.0833333333333,111.15202546296295,1000.4999999999999,111.14270833333333C1002.9166666666665,111.1333912037037,1005.3333333333333,111.12407407407407,1007.7499999999999,111.11475694444445C1010.1666666666665,111.10543981481483,1012.5833333333333,111.0961226851852,1014.9999999999999,111.08680555555556C1017.4166666666665,111.07748842592592,1019.8333333333333,111.06817129629628,1022.2499999999999,111.05885416666666C1024.6666666666665,111.04953703703703,1027.0833333333333,111.04021990740742,1029.5,111.03090277777778C1031.9166666666667,111.02158564814816,1034.3333333333333,111.01226851851852,1036.75,111.00295138888889C1039.1666666666667,110.99363425925925,1041.5833333333333,110.98431712962962,1044,110.975C1046.4166666666667,110.96568287037037,1048.8333333333333,110.95636574074074,1051.25,110.94704861111111C1053.6666666666667,110.93773148148149,1056.0833333333333,110.92841435185186,1058.5,110.91909722222222C1060.9166666666667,110.90978009259258,1063.3333333333333,110.90046296296295,1065.75,110.89114583333333C1068.1666666666667,110.8818287037037,1070.5833333333333,110.87251157407407,1073,110.86319444444445C1075.4166666666667,110.85387731481482,1077.8333333333333,110.84456018518519,1080.25,110.83524305555555C1082.6666666666667,110.82592592592592,1085.0833333333333,110.81660879629628,1087.5,110.80729166666666C1089.9166666666667,110.79797453703704,1092.3333333333333,110.7886574074074,1094.75,110.77934027777778C1097.1666666666667,110.77002314814816,1099.5833333333333,110.76070601851852,1102,110.75138888888888C1104.4166666666667,110.74207175925925,1106.8333333333333,110.73275462962961,1109.25,110.72343749999999C1111.6666666666667,110.71412037037037,1114.0833333333333,110.70480324074073,1116.5,110.69548611111111C1118.9166666666667,110.68616898148149,1121.3333333333333,110.67685185185185,1123.75,110.66753472222223C1126.1666666666667,110.6582175925926,1128.5833333333333,110.64890046296296,1131,110.63958333333333C1133.4166666666667,110.63026620370371,1135.8333333333333,110.62094907407408,1138.25,110.61163194444445C1140.6666666666667,110.60231481481483,1143.0833333333333,110.5929976851852,1145.5,110.58368055555556C1147.9166666666667,110.57436342592592,1150.3333333333333,110.56504629629629,1152.75,110.55572916666667C1155.1666666666667,110.54641203703704,1157.5833333333333,110.53709490740741,1160,110.52777777777779C1162.4166666666667,110.51846064814816,1164.8333333333333,110.50914351851853,1167.25,110.49982638888889C1169.6666666666667,110.49050925925926,1172.0833333333333,110.48119212962962,1174.5,110.471875C1176.9166666666667,110.46255787037038,1179.3333333333333,110.45324074074074,1181.75,110.44392361111112C1184.1666666666667,110.4346064814815,1186.5833333333333,110.42528935185184,1189,110.41597222222222C1191.4166666666667,110.4066550925926,1193.8333333333333,110.39733796296296,1196.25,110.38802083333334C1198.6666666666667,110.37870370370372,1201.0833333333333,110.36938657407408,1203.5,110.36006944444445C1205.9166666666667,110.35075231481481,1208.3333333333333,110.34143518518518,1210.75,110.33211805555555C1213.1666666666667,110.32280092592593,1215.5833333333333,110.3134837962963,1218,110.30416666666667C1220.4166666666667,110.29484953703705,1222.8333333333333,110.28553240740742,1225.25,110.27621527777778C1227.6666666666667,110.26689814814814,1230.0833333333333,110.25758101851851,1232.5,110.24826388888889C1234.9166666666667,110.23894675925926,1237.3333333333333,110.22962962962963,1239.75,110.2203125C1242.1666666666667,110.21099537037038,1244.5833333333333,110.20167824074075,1247,110.19236111111111C1249.4166666666667,110.18304398148148,1251.8333333333333,110.17372685185184,1254.25,110.16440972222222C1256.6666666666667,110.1550925925926,1259.0833333333333,110.14577546296296,1261.5,110.13645833333334C1263.9166666666667,110.12714120370372,1266.3333333333333,110.11782407407408,1268.75,110.10850694444444C1271.1666666666667,110.0991898148148,1273.5833333333333,110.08987268518517,1276,110.08055555555555C1278.4166666666667,110.07123842592593,1280.8333333333333,110.06192129629629,1283.25,110.05260416666667C1285.6666666666667,110.04328703703705,1288.0833333333333,110.03396990740741,1290.5,110.02465277777777C1292.9166666666667,110.01533564814814,1295.3333333333333,110.0060185185185,1297.75,109.99670138888888C1300.1666666666667,109.98738425925926,1302.5833333333333,109.98738425925926,1305,109.96875C1307.4166666666667,109.95011574074074,1309.8333333333333,107.09375,1312.25,105.65625C1314.6666666666667,104.21875,1317.0833333333333,102.78125,1319.5,101.34375C1321.9166666666667,99.90625,1324.3333333333333,98.46875,1326.75,97.03125C1329.1666666666667,95.59375,1331.5833333333333,94.15625,1334,92.71875C1336.4166666666667,91.28125,1338.8333333333333,89.84375,1341.25,88.40625C1343.6666666666667,86.96875,1346.0833333333333,85.53125,1348.5,84.09375C1350.9166666666667,82.65625,1353.3333333333333,81.21875,1355.75,79.78125C1358.1666666666667,78.34375,1360.5833333333333,76.90625,1363,75.46875C1365.4166666666667,74.03125,1367.8333333333333,72.59375,1370.25,71.15625C1372.6666666666667,69.71875,1375.0833333333333,68.28125,1377.5,66.84375C1379.9166666666667,65.40625,1382.3333333333333,63.96874999999999,1384.75,62.53124999999999C1387.1666666666667,61.09374999999999,1389.5833333333333,59.65625,1392,58.21875C1394.4166666666667,56.78125,1396.8333333333333,55.34375,1399.25,53.90625C1401.6666666666667,52.46875,1404.0833333333333,51.03125,1406.5,49.59375C1408.9166666666667,48.15625,1411.3333333333333,46.71875000000001,1413.75,45.28125000000001C1416.1666666666667,43.84375000000001,1418.5833333333333,42.40625,1421,40.96874999999999C1423.4166666666667,39.531249999999986,1425.8333333333333,38.093749999999986,1428.25,36.656249999999986C1430.6666666666667,35.218749999999986,1433.0833333333333,33.781250000000014,1435.5,32.343750000000014C1437.9166666666667,30.906250000000018,1440.3333333333333,29.468750000000004,1442.75,28.031250000000004C1445.1666666666667,26.593750000000004,1447.5833333333333,25.156250000000004,1450,23.718750000000004" fill="transparent" stroke-linecap="round" stroke="#B6509E" stroke-width="2"></path><path class="visx-linepath" d="M0,108.53124999999201C2.4166666666666665,108.52991898147683,4.833333333333334,108.52858796296164,7.25,108.52725694444445C9.666666666666666,108.52592592592725,12.083333333333334,108.5245949074074,14.5,108.52326388888889C16.916666666666668,108.52193287037038,19.333333333333332,108.52060185185184,21.75,108.51927083333332C24.166666666666668,108.51793981481481,26.583333333333332,108.51660879629628,29,108.51527777777777C31.416666666666668,108.51394675925926,33.833333333333336,108.51261574074073,36.25,108.51128472222221C38.666666666666664,108.5099537037037,41.083333333333336,108.50862268518519,43.5,108.50729166666667C45.91666666666667,108.50596064814816,48.333333333333336,108.50462962962962,50.75000000000001,108.5032986111111C53.16666666666667,108.50196759259259,55.583333333333336,108.50063657407408,58,108.49930555555557C60.416666666666664,108.49797453703705,62.833333333333336,108.49664351851852,65.25,108.49531250000001C67.66666666666667,108.4939814814815,70.08333333333333,108.49265046296296,72.5,108.49131944444444C74.91666666666667,108.48998842592593,77.33333333333333,108.4886574074074,79.75,108.48732638888889C82.16666666666667,108.48599537037038,84.58333333333333,108.48466435185185,87,108.48333333333333C89.41666666666667,108.48200231481482,91.83333333333333,108.4806712962963,94.25,108.47934027777778C96.66666666666667,108.47800925925927,99.08333333333334,108.47667824074074,101.50000000000001,108.47534722222223C103.91666666666667,108.47401620370371,106.33333333333334,108.47268518518518,108.75,108.47135416666667C111.16666666666667,108.47002314814816,113.58333333333333,108.46869212962963,116,108.46736111111112C118.41666666666667,108.46603009259259,120.83333333333334,108.46469907407408,123.25000000000001,108.46336805555555C125.66666666666667,108.46203703703704,128.08333333333334,108.46070601851851,130.5,108.459375C132.91666666666666,108.45804398148148,135.33333333333334,108.45671296296295,137.75,108.45538194444444C140.16666666666666,108.45405092592593,142.58333333333334,108.4527199074074,145,108.45138888888889C147.41666666666666,108.45005787037037,149.83333333333334,108.44872685185184,152.25,108.44739583333333C154.66666666666666,108.44606481481482,157.08333333333334,108.44473379629629,159.5,108.44340277777778C161.91666666666666,108.44207175925926,164.33333333333334,108.44074074074074,166.75,108.43940972222222C169.16666666666666,108.43807870370371,171.58333333333334,108.43674768518518,174,108.43541666666667C176.41666666666666,108.43408564814816,178.83333333333334,108.43275462962961,181.25,108.4314236111111C183.66666666666666,108.43009259259259,186.08333333333334,108.42876157407406,188.5,108.42743055555555C190.91666666666666,108.42609953703703,193.33333333333334,108.42476851851852,195.75,108.4234375C198.16666666666669,108.42210648148149,200.58333333333334,108.42077546296296,203.00000000000003,108.41944444444445C205.41666666666669,108.41811342592594,207.83333333333331,108.41678240740741,210.24999999999997,108.4154513888889C212.66666666666666,108.41412037037038,215.08333333333331,108.41278935185186,217.5,108.41145833333334C219.91666666666666,108.41012731481483,222.33333333333334,108.4087962962963,224.75,108.40746527777779C227.16666666666666,108.40613425925928,229.58333333333334,108.40480324074073,232,108.40347222222222C234.41666666666666,108.4021412037037,236.83333333333334,108.40081018518518,239.25,108.39947916666667C241.66666666666669,108.39814814814815,244.08333333333334,108.39681712962962,246.50000000000003,108.39548611111111C248.91666666666669,108.3941550925926,251.33333333333331,108.39282407407407,253.74999999999997,108.39149305555556C256.16666666666663,108.39016203703704,258.5833333333333,108.38883101851852,261,108.3875C263.4166666666667,108.38616898148149,265.8333333333333,108.38483796296296,268.25,108.38350694444445C270.6666666666667,108.38217592592594,273.0833333333333,108.38084490740741,275.5,108.3795138888889C277.9166666666667,108.37818287037038,280.3333333333333,108.37685185185184,282.75,108.37552083333333C285.1666666666667,108.37418981481481,287.5833333333333,108.37285879629628,290,108.37152777777777C292.4166666666667,108.37019675925926,294.8333333333333,108.36886574074073,297.25,108.36753472222222C299.6666666666667,108.3662037037037,302.0833333333333,108.36487268518518,304.5,108.36354166666666C306.9166666666667,108.36221064814815,309.3333333333333,108.36087962962962,311.75,108.35954861111111C314.1666666666667,108.3582175925926,316.5833333333333,108.35688657407407,319,108.35555555555555C321.4166666666667,108.35422453703704,323.8333333333333,108.35289351851851,326.25,108.3515625C328.6666666666667,108.35023148148149,331.0833333333333,108.34890046296296,333.5,108.34756944444445C335.9166666666667,108.34623842592593,338.3333333333333,108.34490740740739,340.75,108.34357638888888C343.1666666666667,108.34224537037036,345.5833333333333,108.34091435185185,348,108.33958333333334C350.4166666666667,108.33825231481482,352.8333333333333,108.3369212962963,355.25,108.33559027777778C357.6666666666667,108.33425925925927,360.0833333333333,108.33292824074074,362.5,108.33159722222223C364.9166666666667,108.33026620370372,367.3333333333333,108.32893518518519,369.75,108.32760416666667C372.1666666666667,108.32627314814816,374.5833333333333,108.32494212962963,377,108.32361111111112C379.4166666666667,108.3222800925926,381.8333333333333,108.32094907407406,384.25,108.31961805555555C386.6666666666667,108.31828703703704,389.0833333333333,108.31695601851851,391.5,108.315625C393.9166666666667,108.31429398148148,396.33333333333337,108.31296296296296,398.75000000000006,108.31163194444444C401.16666666666674,108.31030092592593,403.58333333333337,108.3089699074074,406.00000000000006,108.30763888888889C408.4166666666667,108.30630787037038,410.8333333333333,108.30497685185185,413.24999999999994,108.30364583333333C415.66666666666663,108.30231481481482,418.08333333333326,108.3009837962963,420.49999999999994,108.29965277777778C422.91666666666663,108.29832175925927,425.3333333333333,108.29699074074074,427.75,108.29565972222223C430.1666666666667,108.29432870370371,432.5833333333333,108.29299768518518,435,108.29166666666667C437.4166666666667,108.29033564814816,439.8333333333333,108.28900462962962,442.25,108.2876736111111C444.6666666666667,108.28634259259259,447.0833333333333,108.28501157407406,449.5,108.28368055555555C451.9166666666667,108.28234953703704,454.3333333333333,108.28101851851851,456.75,108.2796875C459.1666666666667,108.27835648148148,461.5833333333333,108.27702546296295,464,108.27569444444444C466.4166666666667,108.27436342592593,468.8333333333333,108.2730324074074,471.25,108.27170138888889C473.6666666666667,108.27037037037037,476.0833333333333,108.26903935185184,478.5,108.26770833333333C480.9166666666667,108.26637731481482,483.33333333333337,108.26504629629632,485.75000000000006,108.26371527777779C488.16666666666674,108.26238425925928,490.58333333333337,108.26105324074074,493.00000000000006,108.25972222222221C495.4166666666667,108.2583912037037,497.8333333333333,108.25706018518518,500.24999999999994,108.25572916666667C502.66666666666663,108.25439814814816,505.08333333333326,108.25306712962963,507.49999999999994,108.25173611111111C509.91666666666663,108.2504050925926,512.3333333333333,108.24907407407407,514.75,108.24774305555556C517.1666666666666,108.24641203703705,519.5833333333334,108.24508101851852,522,108.24375C524.4166666666666,108.24241898148149,526.8333333333334,108.24108796296296,529.25,108.23975694444445C531.6666666666666,108.23842592592594,534.0833333333334,108.23709490740741,536.5,108.2357638888889C538.9166666666666,108.23443287037038,541.3333333333334,108.23310185185184,543.75,108.23177083333333C546.1666666666666,108.23043981481482,548.5833333333334,108.22910879629629,551,108.22777777777777C553.4166666666666,108.22644675925926,555.8333333333334,108.22511574074073,558.25,108.22378472222222C560.6666666666666,108.2224537037037,563.0833333333334,108.22112268518518,565.5,108.21979166666667C567.9166666666666,108.21846064814815,570.3333333333334,108.21712962962962,572.75,108.21579861111111C575.1666666666666,108.2144675925926,577.5833333333334,108.21313657407407,580,108.21180555555556C582.4166666666666,108.21047453703704,584.8333333333334,108.20914351851852,587.25,108.2078125C589.6666666666666,108.20648148148149,592.0833333333334,108.20515046296296,594.5,108.20381944444445C596.9166666666666,108.20248842592594,599.3333333333334,108.2011574074074,601.75,108.19982638888888C604.1666666666666,108.19849537037037,606.5833333333334,108.19716435185184,609,108.19583333333333C611.4166666666666,108.19450231481481,613.8333333333334,108.19317129629628,616.25,108.19184027777777C618.6666666666666,108.19050925925926,621.0833333333334,108.18917824074073,623.5,108.18784722222222C625.9166666666666,108.1865162037037,628.3333333333334,108.18518518518518,630.75,108.18385416666666C633.1666666666666,108.18252314814815,635.5833333333334,108.18119212962964,638,108.17986111111112C640.4166666666666,108.17853009259261,642.8333333333334,108.17719907407407,645.25,108.17586805555555C647.6666666666666,108.17453703703704,650.0833333333334,108.17320601851851,652.5,108.171875C654.9166666666666,108.17054398148149,657.3333333333334,108.16921296296296,659.75,108.16788194444445C662.1666666666666,108.16655092592593,664.5833333333334,108.1652199074074,667,108.16388888888889C669.4166666666666,108.16255787037038,671.8333333333334,108.16122685185185,674.25,108.15989583333334C676.6666666666666,108.15856481481482,679.0833333333334,108.1572337962963,681.5,108.15590277777778C683.9166666666666,108.15457175925927,686.3333333333334,108.15324074074074,688.75,108.15190972222223C691.1666666666666,108.15057870370372,693.5833333333334,108.14924768518519,696,108.14791666666667C698.4166666666666,108.14658564814816,700.8333333333334,108.14525462962962,703.25,108.1439236111111C705.6666666666666,108.14259259259259,708.0833333333334,108.14126157407406,710.5,108.13993055555555C712.9166666666666,108.13859953703704,715.3333333333334,108.13726851851851,717.75,108.1359375C720.1666666666666,108.13460648148148,722.5833333333334,108.13327546296296,725,108.13194444444444C727.4166666666666,108.13061342592593,729.8333333333334,108.1292824074074,732.25,108.12795138888889C734.6666666666666,108.12662037037038,737.0833333333334,108.12528935185185,739.5,108.12395833333333C741.9166666666666,108.12262731481482,744.3333333333334,108.1212962962963,746.75,108.11996527777778C749.1666666666666,108.11863425925927,751.5833333333334,108.11730324074072,754,108.11597222222221C756.4166666666666,108.1146412037037,758.8333333333334,108.11331018518517,761.25,108.11197916666666C763.6666666666666,108.11064814814814,766.0833333333334,108.10931712962962,768.5,108.1079861111111C770.9166666666666,108.10665509259259,773.3333333333334,108.10532407407406,775.75,108.10399305555555C778.1666666666666,108.10266203703704,780.5833333333334,108.10133101851851,783,108.1C785.4166666666667,108.09866898148148,787.8333333333334,108.09733796296297,790.2500000000001,108.09600694444445C792.6666666666667,108.09467592592594,795.0833333333335,108.09334490740741,797.5000000000001,108.0920138888889C799.9166666666667,108.09068287037039,802.3333333333335,108.08935185185184,804.7500000000001,108.08802083333333C807.1666666666667,108.08668981481482,809.5833333333335,108.08535879629629,812.0000000000001,108.08402777777778C814.4166666666667,108.08269675925926,816.8333333333333,108.08136574074074,819.2499999999999,108.08003472222222C821.6666666666665,108.07870370370371,824.0833333333333,108.07737268518518,826.4999999999999,108.07604166666667C828.9166666666665,108.07471064814816,831.3333333333333,108.07337962962963,833.7499999999999,108.07204861111111C836.1666666666665,108.0707175925926,838.5833333333333,108.06938657407407,840.9999999999999,108.06805555555556C843.4166666666666,108.06672453703705,845.8333333333333,108.06539351851852,848.25,108.0640625C850.6666666666666,108.06273148148149,853.0833333333334,108.06140046296296,855.5,108.06006944444445C857.9166666666666,108.05873842592594,860.3333333333334,108.0574074074074,862.75,108.05607638888888C865.1666666666666,108.05474537037037,867.5833333333334,108.05341435185184,870,108.05208333333333C872.4166666666666,108.05075231481482,874.8333333333334,108.04942129629629,877.25,108.04809027777777C879.6666666666666,108.04675925925926,882.0833333333334,108.04542824074073,884.5,108.04409722222222C886.9166666666666,108.0427662037037,889.3333333333334,108.04143518518518,891.75,108.04010416666667C894.1666666666666,108.03877314814815,896.5833333333334,108.03744212962962,899,108.03611111111111C901.4166666666666,108.0347800925926,903.8333333333334,108.03344907407407,906.25,108.03211805555556C908.6666666666666,108.03078703703704,911.0833333333334,108.0294560185185,913.5,108.02812499999999C915.9166666666666,108.02679398148148,918.3333333333334,108.02546296296295,920.75,108.02413194444443C923.1666666666666,108.02280092592592,925.5833333333334,108.02146990740741,928,108.0201388888889C930.4166666666666,108.01880787037038,932.8333333333334,108.01747685185184,935.25,108.01614583333333C937.6666666666666,108.01481481481481,940.0833333333334,108.0134837962963,942.5,108.01215277777779C944.9166666666666,108.01082175925927,947.3333333333334,108.00949074074074,949.75,108.00815972222223C952.1666666666666,108.00682870370372,954.5833333333334,108.00549768518519,957,108.00416666666668C959.4166666666666,108.00283564814816,961.8333333333334,108.00150462962962,964.25,108.00017361111111C966.6666666666667,107.99884259259258,969.0833333333334,107.99751157407407,971.5000000000001,107.99618055555555C973.9166666666667,107.99484953703704,976.3333333333335,107.99351851851851,978.7500000000001,107.9921875C981.1666666666667,107.99085648148149,983.5833333333335,107.98952546296296,986.0000000000001,107.98819444444445C988.4166666666667,107.98686342592593,990.8333333333335,107.9855324074074,993.2500000000001,107.98420138888889C995.6666666666667,107.98287037037038,998.0833333333333,107.98153935185185,1000.4999999999999,107.98020833333334C1002.9166666666665,107.97887731481482,1005.3333333333333,107.9775462962963,1007.7499999999999,107.97621527777778C1010.1666666666665,107.97488425925927,1012.5833333333333,107.97355324074074,1014.9999999999999,107.97222222222223C1017.4166666666665,107.97089120370372,1019.8333333333333,107.96956018518517,1022.2499999999999,107.96822916666666C1024.6666666666665,107.96689814814813,1027.0833333333333,107.96556712962962,1029.5,107.9642361111111C1031.9166666666667,107.96290509259259,1034.3333333333333,107.96157407407406,1036.75,107.96024305555555C1039.1666666666667,107.95891203703704,1041.5833333333333,107.95758101851851,1044,107.95625C1046.4166666666667,107.95491898148148,1048.8333333333333,107.95358796296296,1051.25,107.95225694444444C1053.6666666666667,107.95092592592593,1056.0833333333333,107.9495949074074,1058.5,107.94826388888889C1060.9166666666667,107.94693287037038,1063.3333333333333,107.94560185185185,1065.75,107.94427083333333C1068.1666666666667,107.94293981481482,1070.5833333333333,107.94160879629628,1073,107.94027777777777C1075.4166666666667,107.93894675925925,1077.8333333333333,107.93761574074074,1080.25,107.93628472222223C1082.6666666666667,107.93495370370371,1085.0833333333333,107.93362268518518,1087.5,107.93229166666667C1089.9166666666667,107.93096064814816,1092.3333333333333,107.92962962962963,1094.75,107.92829861111112C1097.1666666666667,107.9269675925926,1099.5833333333333,107.92563657407408,1102,107.92430555555556C1104.4166666666667,107.92297453703705,1106.8333333333333,107.92164351851852,1109.25,107.92031250000001C1111.6666666666667,107.9189814814815,1114.0833333333333,107.91765046296297,1116.5,107.91631944444445C1118.9166666666667,107.91498842592594,1121.3333333333333,107.9136574074074,1123.75,107.91232638888889C1126.1666666666667,107.91099537037037,1128.5833333333333,107.90966435185184,1131,107.90833333333333C1133.4166666666667,107.90700231481482,1135.8333333333333,107.90567129629629,1138.25,107.90434027777778C1140.6666666666667,107.90300925925926,1143.0833333333333,107.90167824074074,1145.5,107.90034722222222C1147.9166666666667,107.89901620370371,1150.3333333333333,107.89768518518518,1152.75,107.89635416666667C1155.1666666666667,107.89502314814816,1157.5833333333333,107.89369212962963,1160,107.89236111111111C1162.4166666666667,107.8910300925926,1164.8333333333333,107.88969907407407,1167.25,107.88836805555556C1169.6666666666667,107.88703703703705,1172.0833333333333,107.8857060185185,1174.5,107.88437499999999C1176.9166666666667,107.88304398148148,1179.3333333333333,107.88171296296295,1181.75,107.88038194444444C1184.1666666666667,107.87905092592592,1186.5833333333333,107.8777199074074,1189,107.87638888888888C1191.4166666666667,107.87505787037037,1193.8333333333333,107.87372685185184,1196.25,107.87239583333333C1198.6666666666667,107.87106481481482,1201.0833333333333,107.86973379629629,1203.5,107.86840277777777C1205.9166666666667,107.86707175925926,1208.3333333333333,107.86574074074073,1210.75,107.86440972222222C1213.1666666666667,107.8630787037037,1215.5833333333333,107.86174768518518,1218,107.86041666666667C1220.4166666666667,107.85908564814815,1222.8333333333333,107.85775462962962,1225.25,107.85642361111111C1227.6666666666667,107.8550925925926,1230.0833333333333,107.85376157407407,1232.5,107.85243055555556C1234.9166666666667,107.85109953703704,1237.3333333333333,107.8497685185185,1239.75,107.84843749999999C1242.1666666666667,107.84710648148148,1244.5833333333333,107.84577546296296,1247,107.84444444444445C1249.4166666666667,107.84311342592594,1251.8333333333333,107.84178240740741,1254.25,107.8404513888889C1256.6666666666667,107.83912037037038,1259.0833333333333,107.83778935185185,1261.5,107.83645833333334C1263.9166666666667,107.83512731481483,1266.3333333333333,107.8337962962963,1268.75,107.83246527777779C1271.1666666666667,107.83113425925927,1273.5833333333333,107.82980324074074,1276,107.82847222222223C1278.4166666666667,107.82714120370372,1280.8333333333333,107.82581018518518,1283.25,107.82447916666666C1285.6666666666667,107.82314814814815,1288.0833333333333,107.82181712962962,1290.5,107.82048611111111C1292.9166666666667,107.8191550925926,1295.3333333333333,107.81782407407407,1297.75,107.81649305555555C1300.1666666666667,107.81516203703704,1302.5833333333333,107.81516203703704,1305,107.8125C1307.4166666666667,107.80983796296296,1309.8333333333333,104.9375,1312.25,103.5C1314.6666666666667,102.0625,1317.0833333333333,100.625,1319.5,99.1875C1321.9166666666667,97.75,1324.3333333333333,96.3125,1326.75,94.875C1329.1666666666667,93.4375,1331.5833333333333,92,1334,90.5625C1336.4166666666667,89.125,1338.8333333333333,87.6875,1341.25,86.25C1343.6666666666667,84.8125,1346.0833333333333,83.375,1348.5,81.9375C1350.9166666666667,80.5,1353.3333333333333,79.0625,1355.75,77.625C1358.1666666666667,76.1875,1360.5833333333333,74.75000000000001,1363,73.31250000000001C1365.4166666666667,71.87500000000001,1367.8333333333333,70.4375,1370.25,69C1372.6666666666667,67.5625,1375.0833333333333,66.125,1377.5,64.6875C1379.9166666666667,63.25,1382.3333333333333,61.8125,1384.75,60.375C1387.1666666666667,58.9375,1389.5833333333333,57.50000000000001,1392,56.06250000000001C1394.4166666666667,54.62500000000001,1396.8333333333333,53.18749999999999,1399.25,51.74999999999999C1401.6666666666667,50.31249999999999,1404.0833333333333,48.875,1406.5,47.4375C1408.9166666666667,46,1411.3333333333333,44.5625,1413.75,43.125C1416.1666666666667,41.6875,1418.5833333333333,40.25,1421,38.8125C1423.4166666666667,37.375,1425.8333333333333,35.93749999999999,1428.25,34.49999999999999C1430.6666666666667,33.06249999999999,1433.0833333333333,31.624999999999996,1435.5,30.187499999999996C1437.9166666666667,28.749999999999996,1440.3333333333333,27.312499999999996,1442.75,25.874999999999996C1445.1666666666667,24.437499999999996,1447.5833333333333,23,1450,21.5625" fill="transparent" stroke-linecap="round" stroke="#E7C6DF" stroke-width="2"></path><g class="visx-group visx-axis visx-axis-bottom" transform="translate(0, 115)"><g class="visx-group visx-axis-tick" transform="translate(0, 0)"><line class="visx-line" x1="0" y1="0" x2="0" y2="8" fill="transparent" shape-rendering="crispEdges" stroke="#000" stroke-width="0" stroke-linecap="square"></line><svg x="0" y="0" font-size="10" style="overflow:visible"><text transform="" x="0" y="18" fill="#000" font-size="10" text-anchor="middle"><tspan x="0" dy="0em">0%</tspan></text></svg></g><g class="visx-group visx-axis-tick" transform="translate(0, 0)"><line class="visx-line" x1="362.5" y1="0" x2="362.5" y2="8" fill="transparent" shape-rendering="crispEdges" stroke="#000" stroke-width="0" stroke-linecap="square"></line><svg x="0" y="0" font-size="10" style="overflow:visible"><text transform="" x="362.5" y="18" fill="#000" font-size="10" text-anchor="middle"><tspan x="362.5" dy="0em">25%</tspan></text></svg></g><g class="visx-group visx-axis-tick" transform="translate(0, 0)"><line class="visx-line" x1="725" y1="0" x2="725" y2="8" fill="transparent" shape-rendering="crispEdges" stroke="#000" stroke-width="0" stroke-linecap="square"></line><svg x="0" y="0" font-size="10" style="overflow:visible"><text transform="" x="725" y="18" fill="#000" font-size="10" text-anchor="middle"><tspan x="725" dy="0em">50%</tspan></text></svg></g><g class="visx-group visx-axis-tick" transform="translate(0, 0)"><line class="visx-line" x1="1087.5" y1="0" x2="1087.5" y2="8" fill="transparent" shape-rendering="crispEdges" stroke="#000" stroke-width="0" stroke-linecap="square"></line><svg x="0" y="0" font-size="10" style="overflow:visible"><text transform="" x="1087.5" y="18" fill="#000" font-size="10" text-anchor="middle"><tspan x="1087.5" dy="0em">75%</tspan></text></svg></g><g class="visx-group visx-axis-tick" transform="translate(0, 0)"><line class="visx-line" x1="1450" y1="0" x2="1450" y2="8" fill="transparent" shape-rendering="crispEdges" stroke="#000" stroke-width="0" stroke-linecap="square"></line><svg x="0" y="0" font-size="10" style="overflow:visible"><text transform="" x="1450" y="18" fill="#000" font-size="10" text-anchor="middle"><tspan x="1450" dy="0em">100%</tspan></text></svg></g><line class="visx-line visx-axis-line" x1="0.5" y1="0" x2="1450.5" y2="0" fill="transparent" shape-rendering="crispEdges" stroke="#222" stroke-width="0"></line></g><g class="visx-group visx-axis visx-axis-left" transform="translate(0, 0)"><g class="visx-group visx-axis-tick" transform="translate(0, 0)"><line class="visx-line" x1="0" y1="115" x2="-8" y2="115" fill="transparent" shape-rendering="crispEdges" stroke="#222" stroke-width="0" stroke-linecap="square"></line><svg x="-30" y="0" font-size="8" style="overflow:visible"><text transform="" x="-8" y="115" fill="#000" font-size="8" text-anchor="start"><tspan x="-8" dy="0em">0%</tspan></text></svg></g><g class="visx-group visx-axis-tick" transform="translate(0, 0)"><line class="visx-line" x1="0" y1="43.125" x2="-8" y2="43.125" fill="transparent" shape-rendering="crispEdges" stroke="#222" stroke-width="0" stroke-linecap="square"></line><svg x="-30" y="0" font-size="8" style="overflow:visible"><text transform="" x="-8" y="43.125" fill="#000" font-size="8" text-anchor="start"><tspan x="-8" dy="0em">50%</tspan></text></svg></g><line class="visx-line visx-axis-line" x1="0" y1="115.5" x2="0" y2="0.5" fill="transparent" shape-rendering="crispEdges" stroke="#222" stroke-width="0"></line></g><rect class="visx-bar" width="1450" height="115" fill="transparent"></rect><line class="visx-line" x1="1305" y1="28" x2="1305" y2="115" fill="transparent" shape-rendering="crispEdges" stroke="#0062D2" stroke-width="1" pointer-events="none" stroke-dasharray="5,2"></line><svg x="0" y="0" font-size="10px" style="overflow:visible"><text transform="" x="1305" y="20" font-size="10px" fill="#fff" stroke="#fff" stroke-width="0.8em" text-anchor="middle"><tspan x="1305" dy="0.355em">Optimal 90%</tspan></text></svg><svg x="0" y="0" font-size="10px" style="overflow:visible"><text transform="" x="1305" y="20" font-size="10px" fill="#62677B" text-anchor="middle"><tspan x="1305" dy="0.355em">Optimal 90%</tspan></text></svg></g></svg>