<?xml version="1.0"?><svg xmlns="http://www.w3.org/2000/svg" xmlns:xlink= "http://www.w3.org/1999/xlink" style="background: white;" width="1500" height="300"> <g style="color: black; font-size: 13px; font-family: sans-serif; transform: translate(18px, 25px);"><g><circle r="3" cx="-6" cy="-5" style="fill: #1AD4B3" /><text>Borrow APR, variable</text></g><g style="transform: translateX(150px);"><circle r="3" cx="-6" cy="-5" style="fill: #101423" /><text>Borrow APR, stable</text></g></g><g class="visx-group" transform="translate(45, 50)"><g class="visx-group visx-rows" transform="translate(0, 0)"><line class="visx-line" x1="0" y1="155" x2="1425" y2="155" fill="transparent" shape-rendering="crispEdges" stroke="#F2F0F9" stroke-width="1" pointer-events="none"></line><line class="visx-line" x1="0" y1="84.54545454545453" x2="1425" y2="84.54545454545453" fill="transparent" shape-rendering="crispEdges" stroke="#F2F0F9" stroke-width="1" pointer-events="none"></line><line class="visx-line" x1="0" y1="14.090909090909095" x2="1425" y2="14.090909090909095" fill="transparent" shape-rendering="crispEdges" stroke="#F2F0F9" stroke-width="1" pointer-events="none"></line></g><path class="visx-linepath" d="M0,154.99999999978863C2.375,154.9647727271494,4.75,154.92954545451022,7.125,154.89431818181816C9.5,154.8590909091261,11.875,154.82386363636363,14.25,154.78863636363636C16.625,154.7534090909091,19,154.71818181818182,21.375,154.68295454545455C23.75,154.64772727272728,26.125,154.6125,28.5,154.57727272727274C30.875,154.54204545454547,33.25,154.50681818181818,35.625,154.4715909090909C38,154.43636363636364,40.375,154.40113636363634,42.75,154.36590909090907C45.125,154.3306818181818,47.50000000000001,154.29545454545453,49.87500000000001,154.26022727272726C52.25000000000001,154.225,54.625,154.18977272727273,57,154.15454545454546C59.375,154.1193181818182,61.75,154.08409090909092,64.125,154.04886363636365C66.5,154.01363636363638,68.875,153.97840909090908,71.25,153.9431818181818C73.625,153.90795454545454,76,153.87272727272727,78.375,153.8375C80.75,153.80227272727274,83.125,153.76704545454544,85.5,153.73181818181817C87.875,153.6965909090909,90.25,153.66136363636363,92.625,153.62613636363636C95,153.5909090909091,97.37500000000001,153.55568181818182,99.75000000000001,153.52045454545456C102.12500000000001,153.4852272727273,104.5,153.45,106.875,153.41477272727272C109.25,153.37954545454545,111.625,153.34431818181818,114,153.3090909090909C116.375,153.27386363636364,118.75000000000001,153.23863636363635,121.12500000000001,153.20340909090908C123.50000000000001,153.1681818181818,125.875,153.13295454545454,128.25,153.09772727272727C130.625,153.0625,133,153.02727272727273,135.375,152.99204545454546C137.75,152.9568181818182,140.125,152.9215909090909,142.5,152.88636363636363C144.875,152.85113636363636,147.25,152.8159090909091,149.625,152.78068181818182C152,152.74545454545455,154.375,152.71022727272728,156.75,152.675C159.125,152.63977272727274,161.5,152.60454545454544,163.875,152.56931818181818C166.25,152.5340909090909,168.625,152.49886363636364,171,152.46363636363637C173.375,152.4284090909091,175.75,152.3931818181818,178.125,152.35795454545453C180.5,152.32272727272726,182.875,152.2875,185.25,152.25227272727273C187.625,152.21704545454546,190,152.1818181818182,192.375,152.14659090909092C194.75,152.11136363636365,197.12500000000003,152.07613636363638,199.50000000000003,152.0409090909091C201.875,152.00568181818184,204.25,151.97045454545454,206.62499999999997,151.93522727272727C208.99999999999997,151.9,211.375,151.8647727272727,213.75,151.82954545454544C216.125,151.79431818181817,218.5,151.7590909090909,220.875,151.72386363636363C223.25,151.68863636363636,225.625,151.6534090909091,228,151.61818181818182C230.375,151.58295454545456,232.75,151.5477272727273,235.125,151.51250000000002C237.5,151.47727272727275,239.87500000000003,151.44204545454545,242.25000000000003,151.40681818181818C244.625,151.3715909090909,247,151.33636363636361,249.37499999999997,151.30113636363635C251.74999999999997,151.26590909090908,254.125,151.2306818181818,256.5,151.19545454545454C258.875,151.16022727272727,261.25,151.125,263.625,151.08977272727273C266,151.05454545454546,268.375,151.0193181818182,270.75,150.98409090909092C273.125,150.94886363636365,275.5,150.91363636363636,277.875,150.8784090909091C280.25,150.84318181818182,282.625,150.80795454545455,285,150.77272727272728C287.375,150.7375,289.75,150.7022727272727,292.125,150.66704545454544C294.5,150.63181818181818,296.875,150.5965909090909,299.25,150.56136363636364C301.625,150.52613636363637,304,150.4909090909091,306.375,150.45568181818183C308.75,150.42045454545456,311.125,150.38522727272726,313.5,150.35C315.875,150.31477272727273,318.25,150.27954545454546,320.625,150.2443181818182C323,150.20909090909092,325.375,150.17386363636362,327.75,150.13863636363635C330.125,150.10340909090908,332.5,150.0681818181818,334.875,150.03295454545454C337.25,149.99772727272727,339.625,149.9625,342,149.92727272727274C344.375,149.89204545454547,346.75,149.85681818181817,349.125,149.8215909090909C351.5,149.78636363636363,353.875,149.75113636363636,356.25,149.7159090909091C358.625,149.68068181818182,361,149.64545454545453,363.375,149.61022727272726C365.75,149.575,368.125,149.53977272727272,370.5,149.50454545454545C372.875,149.46931818181818,375.25,149.4340909090909,377.625,149.39886363636364C380,149.36363636363637,382.375,149.32840909090908,384.75,149.2931818181818C387.125,149.25795454545454,389.50000000000006,149.22272727272727,391.87500000000006,149.1875C394.25000000000006,149.15227272727273,396.62500000000006,149.11704545454543,399.00000000000006,149.08181818181816C401.375,149.0465909090909,403.75,149.01136363636363,406.12499999999994,148.97613636363636C408.49999999999994,148.9409090909091,410.87499999999994,148.90568181818182,413.24999999999994,148.87045454545455C415.62499999999994,148.83522727272728,418,148.79999999999998,420.375,148.7647727272727C422.75,148.72954545454544,425.125,148.69431818181818,427.5,148.6590909090909C429.875,148.62386363636364,432.25,148.58863636363637,434.625,148.5534090909091C437,148.51818181818183,439.375,148.48295454545456,441.75,148.4477272727273C444.125,148.41250000000002,446.5,148.37727272727273,448.875,148.34204545454546C451.25,148.3068181818182,453.625,148.27159090909092,456,148.23636363636365C458.375,148.20113636363638,460.75,148.16590909090908,463.125,148.1306818181818C465.5,148.09545454545454,467.875,148.06022727272727,470.25,148.025C472.625,147.98977272727274,475.00000000000006,147.95454545454547,477.37500000000006,147.9193181818182C479.75000000000006,147.88409090909093,482.12500000000006,147.84886363636363,484.50000000000006,147.81363636363636C486.875,147.7784090909091,489.25,147.74318181818182,491.62499999999994,147.70795454545456C493.99999999999994,147.6727272727273,496.37499999999994,147.6375,498.74999999999994,147.60227272727272C501.12499999999994,147.56704545454545,503.5,147.53181818181818,505.875,147.4965909090909C508.25,147.46136363636364,510.625,147.42613636363637,513,147.3909090909091C515.375,147.35568181818184,517.75,147.32045454545454,520.125,147.28522727272727C522.5,147.25,524.875,147.21477272727273,527.25,147.17954545454546C529.625,147.1443181818182,532,147.1090909090909,534.375,147.07386363636363C536.75,147.03863636363636,539.125,147.0034090909091,541.5,146.96818181818182C543.875,146.93295454545455,546.25,146.89772727272728,548.625,146.8625C551,146.82727272727274,553.375,146.79204545454544,555.75,146.75681818181818C558.125,146.7215909090909,560.5,146.68636363636364,562.875,146.65113636363637C565.25,146.6159090909091,567.625,146.5806818181818,570,146.54545454545453C572.375,146.51022727272726,574.75,146.475,577.125,146.43977272727273C579.5,146.40454545454546,581.875,146.3693181818182,584.25,146.33409090909092C586.625,146.29886363636365,589,146.26363636363635,591.375,146.22840909090908C593.75,146.1931818181818,596.125,146.15795454545454,598.5,146.12272727272727C600.875,146.0875,603.25,146.0522727272727,605.625,146.01704545454544C608,145.98181818181817,610.375,145.9465909090909,612.75,145.91136363636363C615.125,145.87613636363636,617.5,145.8409090909091,619.875,145.80568181818182C622.25,145.77045454545456,624.625,145.73522727272726,627,145.7C629.375,145.66477272727272,631.75,145.62954545454545,634.125,145.59431818181818C636.5,145.5590909090909,638.875,145.52386363636361,641.25,145.48863636363635C643.625,145.45340909090908,646,145.4181818181818,648.375,145.38295454545454C650.75,145.34772727272727,653.125,145.3125,655.5,145.27727272727273C657.875,145.24204545454546,660.25,145.20681818181816,662.625,145.1715909090909C665,145.13636363636363,667.375,145.10113636363636,669.75,145.0659090909091C672.125,145.03068181818182,674.5,144.99545454545455,676.875,144.96022727272728C679.25,144.925,681.625,144.8897727272727,684,144.85454545454544C686.375,144.81931818181818,688.75,144.7840909090909,691.125,144.74886363636364C693.5,144.71363636363637,695.875,144.6784090909091,698.25,144.64318181818183C700.625,144.60795454545456,703,144.57272727272726,705.375,144.5375C707.75,144.50227272727273,710.125,144.46704545454546,712.5,144.4318181818182C714.875,144.39659090909092,717.25,144.36136363636365,719.625,144.32613636363638C722,144.2909090909091,724.375,144.2556818181818,726.75,144.22045454545454C729.125,144.18522727272727,731.5,144.15,733.875,144.11477272727274C736.25,144.07954545454547,738.625,144.04431818181817,741,144.0090909090909C743.375,143.97386363636363,745.75,143.93863636363636,748.125,143.9034090909091C750.5,143.86818181818182,752.875,143.83295454545456,755.25,143.7977272727273C757.625,143.76250000000002,760,143.72727272727272,762.375,143.69204545454545C764.75,143.65681818181818,767.125,143.6215909090909,769.5,143.58636363636364C771.875,143.55113636363637,774.2500000000001,143.51590909090908,776.6250000000001,143.4806818181818C779.0000000000001,143.44545454545454,781.3750000000001,143.41022727272727,783.7500000000001,143.375C786.1250000000001,143.33977272727273,788.5000000000001,143.30454545454546,790.8750000000001,143.2693181818182C793.2500000000001,143.23409090909092,795.6250000000001,143.19886363636363,798.0000000000001,143.16363636363636C800.375,143.1284090909091,802.75,143.09318181818182,805.1249999999999,143.05795454545455C807.4999999999999,143.02272727272728,809.8749999999999,142.98749999999998,812.2499999999999,142.9522727272727C814.6249999999999,142.91704545454544,816.9999999999999,142.88181818181818,819.3749999999999,142.8465909090909C821.7499999999999,142.81136363636364,824.1249999999999,142.77613636363637,826.4999999999999,142.7409090909091C828.8749999999999,142.70568181818183,831.25,142.67045454545456,833.625,142.6352272727273C836,142.60000000000002,838.375,142.56477272727273,840.75,142.52954545454546C843.125,142.4943181818182,845.5,142.4590909090909,847.875,142.42386363636362C850.25,142.38863636363635,852.625,142.35340909090908,855,142.3181818181818C857.375,142.28295454545454,859.75,142.24772727272727,862.125,142.2125C864.5,142.17727272727274,866.875,142.14204545454544,869.25,142.10681818181817C871.625,142.0715909090909,874,142.03636363636363,876.375,142.00113636363636C878.75,141.9659090909091,881.125,141.9306818181818,883.5,141.89545454545453C885.875,141.86022727272726,888.25,141.825,890.625,141.78977272727272C893,141.75454545454545,895.375,141.71931818181818,897.75,141.6840909090909C900.125,141.64886363636364,902.5,141.61363636363637,904.875,141.5784090909091C907.25,141.54318181818184,909.625,141.50795454545454,912,141.47272727272727C914.375,141.4375,916.75,141.4022727272727,919.125,141.36704545454543C921.5,141.33181818181816,923.875,141.2965909090909,926.25,141.26136363636363C928.625,141.22613636363636,931,141.1909090909091,933.375,141.15568181818182C935.75,141.12045454545455,938.125,141.08522727272728,940.5,141.05C942.875,141.01477272727274,945.25,140.97954545454544,947.625,140.94431818181818C950,140.9090909090909,952.3750000000001,140.87386363636364,954.7500000000001,140.83863636363637C957.1250000000001,140.8034090909091,959.5000000000001,140.7681818181818,961.8750000000001,140.73295454545453C964.2500000000001,140.69772727272726,966.6250000000001,140.6625,969.0000000000001,140.62727272727273C971.3750000000001,140.59204545454546,973.7500000000001,140.5568181818182,976.1250000000001,140.52159090909092C978.5,140.48636363636365,980.875,140.45113636363635,983.2499999999999,140.41590909090908C985.6249999999999,140.3806818181818,987.9999999999999,140.34545454545454,990.3749999999999,140.31022727272727C992.7499999999999,140.275,995.1249999999999,140.23977272727274,997.4999999999999,140.20454545454547C999.8749999999999,140.1693181818182,1002.2499999999999,140.1340909090909,1004.6249999999999,140.09886363636363C1006.9999999999999,140.06363636363636,1009.375,140.0284090909091,1011.75,139.99318181818182C1014.125,139.95795454545456,1016.5,139.92272727272726,1018.875,139.8875C1021.25,139.85227272727272,1023.625,139.81704545454545,1026,139.78181818181818C1028.375,139.7465909090909,1030.75,139.71136363636364,1033.125,139.67613636363637C1035.5,139.6409090909091,1037.875,139.60568181818184,1040.25,139.57045454545457C1042.625,139.5352272727273,1045,139.5,1047.375,139.46477272727273C1049.75,139.42954545454546,1052.125,139.39431818181816,1054.5,139.3590909090909C1056.875,139.32386363636363,1059.25,139.28863636363636,1061.625,139.2534090909091C1064,139.21818181818182,1066.375,139.18295454545455,1068.75,139.14772727272728C1071.125,139.1125,1073.5,139.0772727272727,1075.875,139.04204545454544C1078.25,139.00681818181818,1080.625,138.9715909090909,1083,138.93636363636364C1085.375,138.90113636363637,1087.75,138.8659090909091,1090.125,138.83068181818183C1092.5,138.79545454545456,1094.875,138.76022727272726,1097.25,138.725C1099.625,138.68977272727273,1102,138.65454545454546,1104.375,138.6193181818182C1106.75,138.58409090909092,1109.125,138.54886363636365,1111.5,138.51363636363638C1113.875,138.4784090909091,1116.25,138.4431818181818,1118.625,138.40795454545454C1121,138.37272727272727,1123.375,138.3375,1125.75,138.30227272727274C1128.125,138.26704545454547,1130.5,138.23181818181817,1132.875,138.1965909090909C1135.25,138.16136363636363,1137.625,138.16136363636363,1140,138.0909090909091C1142.375,138.02045454545456,1144.75,136.0477272727273,1147.125,135.02613636363637C1149.5,134.00454545454545,1151.875,132.98295454545456,1154.25,131.96136363636364C1156.625,130.93977272727273,1159,129.9181818181818,1161.375,128.8965909090909C1163.75,127.87499999999997,1166.125,126.85340909090908,1168.5,125.83181818181818C1170.875,124.81022727272727,1173.25,123.78863636363636,1175.625,122.76704545454545C1178,121.74545454545455,1180.375,120.72386363636362,1182.75,119.70227272727271C1185.125,118.68068181818181,1187.5,117.6590909090909,1189.875,116.6375C1192.25,115.6159090909091,1194.625,114.59431818181817,1197,113.57272727272726C1199.375,112.55113636363636,1201.75,111.52954545454546,1204.125,110.50795454545455C1206.5,109.48636363636365,1208.875,108.46477272727273,1211.25,107.44318181818181C1213.625,106.4215909090909,1216,105.4,1218.375,104.37840909090909C1220.75,103.35681818181817,1223.125,102.33522727272725,1225.5,101.31363636363635C1227.875,100.29204545454544,1230.25,99.27045454545453,1232.625,98.24886363636362C1235,97.22727272727272,1237.375,96.20568181818182,1239.75,95.18409090909091C1242.125,94.16250000000001,1244.5,93.14090909090908,1246.875,92.11931818181817C1249.25,91.09772727272727,1251.625,90.07613636363635,1254,89.05454545454545C1256.375,88.03295454545454,1258.75,87.01136363636361,1261.125,85.98977272727271C1263.5,84.9681818181818,1265.875,83.94659090909092,1268.25,82.92500000000001C1270.625,81.90340909090911,1273,80.88181818181818,1275.375,79.86022727272726C1277.75,78.83863636363634,1280.125,77.81704545454544,1282.5,76.79545454545453C1284.875,75.77386363636363,1287.25,74.75227272727273,1289.625,73.73068181818182C1292,72.70909090909092,1294.375,71.6875,1296.75,70.6659090909091C1299.125,69.64431818181819,1301.5,68.62272727272727,1303.875,67.60113636363637C1306.25,66.57954545454547,1308.625,65.55795454545455,1311,64.53636363636365C1313.375,63.514772727272735,1315.75,62.493181818181824,1318.125,61.471590909090914C1320.5,60.45,1322.875,59.42840909090909,1325.25,58.40681818181818C1327.625,57.38522727272727,1330,56.363636363636346,1332.375,55.34204545454544C1334.75,54.32045454545454,1337.125,53.29886363636365,1339.5,52.277272727272745C1341.875,51.25568181818184,1344.25,50.23409090909091,1346.625,49.2125C1349,48.19090909090909,1351.375,47.169318181818184,1353.75,46.14772727272727C1356.125,45.12613636363636,1358.5,44.10454545454546,1360.875,43.08295454545455C1363.25,42.06136363636364,1365.625,41.03977272727273,1368,40.018181818181816C1370.375,38.996590909090905,1372.75,37.975,1375.125,36.95340909090909C1377.5,35.93181818181818,1379.875,34.910227272727276,1382.25,33.888636363636365C1384.625,32.867045454545455,1387,31.845454545454544,1389.375,30.823863636363633C1391.75,29.802272727272722,1394.125,28.780681818181815,1396.5,27.759090909090908C1398.875,26.7375,1401.25,25.715909090909108,1403.625,24.694318181818197C1406,23.672727272727286,1408.375,22.65113636363636,1410.75,21.62954545454545C1413.125,20.60795454545454,1415.5,19.586363636363636,1417.875,18.564772727272725C1420.25,17.543181818181814,1422.625,16.521590909090907,1425,15.499999999999996" fill="transparent" stroke-linecap="round" stroke="#1AD4B3" stroke-width="2"></path><g class="visx-group visx-axis visx-axis-bottom" transform="translate(0, 155)"><g class="visx-group visx-axis-tick" transform="translate(0, 0)"><line class="visx-line" x1="0" y1="0" x2="0" y2="8" fill="transparent" shape-rendering="crispEdges" stroke="#F2F0F9" stroke-width="1" stroke-linecap="square"></line><svg x="0" y="0" font-size="11" style="overflow:visible"><text transform="" x="0" y="19" fill="#1B2030" font-size="11" text-anchor="middle"><tspan x="0" dy="0em">0%</tspan></text></svg></g><g class="visx-group visx-axis-tick" transform="translate(0, 0)"><line class="visx-line" x1="356.25" y1="0" x2="356.25" y2="8" fill="transparent" shape-rendering="crispEdges" stroke="#F2F0F9" stroke-width="1" stroke-linecap="square"></line><svg x="0" y="0" font-size="11" style="overflow:visible"><text transform="" x="356.25" y="19" fill="#1B2030" font-size="11" text-anchor="middle"><tspan x="356.25" dy="0em">25%</tspan></text></svg></g><g class="visx-group visx-axis-tick" transform="translate(0, 0)"><line class="visx-line" x1="712.5" y1="0" x2="712.5" y2="8" fill="transparent" shape-rendering="crispEdges" stroke="#F2F0F9" stroke-width="1" stroke-linecap="square"></line><svg x="0" y="0" font-size="11" style="overflow:visible"><text transform="" x="712.5" y="19" fill="#1B2030" font-size="11" text-anchor="middle"><tspan x="712.5" dy="0em">50%</tspan></text></svg></g><g class="visx-group visx-axis-tick" transform="translate(0, 0)"><line class="visx-line" x1="1068.75" y1="0" x2="1068.75" y2="8" fill="transparent" shape-rendering="crispEdges" stroke="#F2F0F9" stroke-width="1" stroke-linecap="square"></line><svg x="0" y="0" font-size="11" style="overflow:visible"><text transform="" x="1068.75" y="19" fill="#1B2030" font-size="11" text-anchor="middle"><tspan x="1068.75" dy="0em">75%</tspan></text></svg></g><g class="visx-group visx-axis-tick" transform="translate(0, 0)"><line class="visx-line" x1="1425" y1="0" x2="1425" y2="8" fill="transparent" shape-rendering="crispEdges" stroke="#F2F0F9" stroke-width="1" stroke-linecap="square"></line><svg x="0" y="0" font-size="11" style="overflow:visible"><text transform="" x="1425" y="19" fill="#1B2030" font-size="11" text-anchor="middle"><tspan x="1425" dy="0em">100%</tspan></text></svg></g></g><g class="visx-group visx-axis visx-axis-left" transform="translate(0, 0)"><g class="visx-group visx-axis-tick" transform="translate(0, 0)"><line class="visx-line" x1="0" y1="155" x2="-8" y2="155" fill="transparent" shape-rendering="crispEdges" stroke="#F2F0F9" stroke-width="1" stroke-linecap="square"></line><svg x="-30" y="0" font-size="11" style="overflow:visible"><text transform="" x="-8" y="155" fill="#1B2030" font-size="11" text-anchor="start"><tspan x="-8" dy="0em">0%</tspan></text></svg></g><g class="visx-group visx-axis-tick" transform="translate(0, 0)"><line class="visx-line" x1="0" y1="84.54545454545453" x2="-8" y2="84.54545454545453" fill="transparent" shape-rendering="crispEdges" stroke="#F2F0F9" stroke-width="1" stroke-linecap="square"></line><svg x="-30" y="0" font-size="11" style="overflow:visible"><text transform="" x="-8" y="84.54545454545453" fill="#1B2030" font-size="11" text-anchor="start"><tspan x="-8" dy="0em">50%</tspan></text></svg></g><g class="visx-group visx-axis-tick" transform="translate(0, 0)"><line class="visx-line" x1="0" y1="14.090909090909095" x2="-8" y2="14.090909090909095" fill="transparent" shape-rendering="crispEdges" stroke="#F2F0F9" stroke-width="1" stroke-linecap="square"></line><svg x="-30" y="0" font-size="11" style="overflow:visible"><text transform="" x="-8" y="14.090909090909095" fill="#1B2030" font-size="11" text-anchor="start"><tspan x="-8" dy="0em">100%</tspan></text></svg></g><line class="visx-line visx-axis-line" x1="0" y1="155.5" x2="0" y2="0.5" fill="transparent" shape-rendering="crispEdges" stroke="#F2F0F9" stroke-width="1"></line></g><rect class="visx-bar" width="1425" height="155" fill="transparent"></rect><line class="visx-line" x1="1140" y1="58" x2="1140" y2="155" fill="transparent" shape-rendering="crispEdges" stroke="#CDC8E1" stroke-width="1" pointer-events="none" stroke-dasharray="5"></line><svg x="0" y="0" font-size="11px" style="overflow:visible"><text transform="" x="1140" y="50" font-size="11px" fill="#555069" stroke="#FFFFFF" stroke-width="1px" text-anchor="middle"><tspan x="1140" dy="0.355em">uOptimal 80%</tspan></text></svg><svg x="0" y="0" font-size="11px" style="overflow:visible"><text transform="" x="1140" y="50" font-size="11px" fill="#CDC8E1" text-anchor="middle"><tspan x="1140" dy="0.355em">uOptimal 80%</tspan></text></svg></g></svg>