<?xml version="1.0"?><svg xmlns="http://www.w3.org/2000/svg" xmlns:xlink= "http://www.w3.org/1999/xlink" style="background: white;" width="1500" height="185"> <g style="color: black; font-size: 13px; font-family: sans-serif; transform: translate(18px, 25px);"><g><circle r="3" cx="-6" cy="-5" style="fill: #B6509E" /><text>Borrow APR, variable</text></g><g style="transform: translateX(150px);"><circle r="3" cx="-6" cy="-5" style="fill: rgb(231, 198, 223)" /><text>Borrow APR, stable</text></g><g style="transform: translateX(290px);"><circle r="3" cx="-6" cy="-5" style="fill: rgb(0, 98, 210)" /><text>Utilization Rate</text></g></g><g class="visx-group" transform="translate(40, 50)"><g class="visx-group visx-rows" transform="translate(0, 0)"><line class="visx-line" x1="0" y1="115" x2="1450" y2="115" fill="transparent" shape-rendering="crispEdges" stroke="#000" stroke-width="1" stroke-dasharray="3,3" pointer-events="none"></line><line class="visx-line" x1="0" y1="57.5" x2="1450" y2="57.5" fill="transparent" shape-rendering="crispEdges" stroke="#000" stroke-width="1" stroke-dasharray="3,3" pointer-events="none"></line><line class="visx-line" x1="0" y1="0" x2="1450" y2="0" fill="transparent" shape-rendering="crispEdges" stroke="#000" stroke-width="1" stroke-dasharray="3,3" pointer-events="none"></line></g><path class="visx-linepath" d="M0,114.99999999994249C2.4166666666666665,114.99041666663311,4.833333333333334,114.98083333332374,7.25,114.97125C9.666666666666666,114.96166666667625,12.083333333333334,114.95208333333335,14.5,114.94250000000001C16.916666666666668,114.93291666666667,19.333333333333332,114.92333333333333,21.75,114.91375C24.166666666666668,114.90416666666665,26.583333333333332,114.89458333333333,29,114.885C31.416666666666668,114.87541666666668,33.833333333333336,114.86583333333334,36.25,114.85625C38.666666666666664,114.84666666666666,41.083333333333336,114.83708333333334,43.5,114.8275C45.91666666666667,114.81791666666666,48.333333333333336,114.80833333333334,50.75000000000001,114.79875C53.16666666666667,114.78916666666666,55.583333333333336,114.77958333333332,58,114.77C60.416666666666664,114.76041666666666,62.833333333333336,114.75083333333333,65.25,114.74125000000001C67.66666666666667,114.73166666666668,70.08333333333333,114.72208333333334,72.5,114.7125C74.91666666666667,114.70291666666667,77.33333333333333,114.69333333333334,79.75,114.68375C82.16666666666667,114.67416666666666,84.58333333333333,114.66458333333334,87,114.655C89.41666666666667,114.64541666666666,91.83333333333333,114.63583333333332,94.25,114.62625C96.66666666666667,114.61666666666666,99.08333333333334,114.60708333333335,101.50000000000001,114.59750000000001C103.91666666666667,114.58791666666667,106.33333333333334,114.57833333333333,108.75,114.56875C111.16666666666667,114.55916666666666,113.58333333333333,114.54958333333333,116,114.54C118.41666666666667,114.53041666666667,120.83333333333334,114.52083333333334,123.25000000000001,114.51125C125.66666666666667,114.50166666666667,128.08333333333334,114.49208333333334,130.5,114.4825C132.91666666666666,114.47291666666666,135.33333333333334,114.46333333333334,137.75,114.45375C140.16666666666666,114.44416666666666,142.58333333333334,114.43458333333332,145,114.425C147.41666666666666,114.41541666666667,149.83333333333334,114.40583333333333,152.25,114.39625000000001C154.66666666666666,114.38666666666668,157.08333333333334,114.37708333333335,159.5,114.3675C161.91666666666666,114.35791666666667,164.33333333333334,114.34833333333333,166.75,114.33874999999999C169.16666666666666,114.32916666666665,171.58333333333334,114.31958333333333,174,114.31C176.41666666666666,114.30041666666668,178.83333333333334,114.29083333333332,181.25,114.28125C183.66666666666666,114.27166666666668,186.08333333333334,114.26208333333335,188.5,114.25250000000001C190.91666666666666,114.24291666666667,193.33333333333334,114.23333333333333,195.75,114.22375C198.16666666666669,114.21416666666666,200.58333333333334,114.20458333333333,203.00000000000003,114.195C205.41666666666669,114.18541666666667,207.83333333333331,114.17583333333333,210.24999999999997,114.16625C212.66666666666666,114.15666666666667,215.08333333333331,114.14708333333334,217.5,114.1375C219.91666666666666,114.12791666666666,222.33333333333334,114.11833333333334,224.75,114.10875C227.16666666666666,114.09916666666666,229.58333333333334,114.08958333333334,232,114.08C234.41666666666666,114.07041666666666,236.83333333333334,114.06083333333332,239.25,114.05125C241.66666666666669,114.04166666666666,244.08333333333334,114.03208333333335,246.50000000000003,114.02250000000001C248.91666666666669,114.01291666666667,251.33333333333331,114.00333333333333,253.74999999999997,113.99374999999999C256.16666666666663,113.98416666666665,258.5833333333333,113.97458333333334,261,113.965C263.4166666666667,113.95541666666668,265.8333333333333,113.94583333333334,268.25,113.93625C270.6666666666667,113.92666666666666,273.0833333333333,113.91708333333334,275.5,113.9075C277.9166666666667,113.89791666666666,280.3333333333333,113.88833333333334,282.75,113.87875C285.1666666666667,113.86916666666666,287.5833333333333,113.85958333333332,290,113.85C292.4166666666667,113.84041666666667,294.8333333333333,113.83083333333333,297.25,113.82125C299.6666666666667,113.81166666666668,302.0833333333333,113.80208333333334,304.5,113.7925C306.9166666666667,113.78291666666667,309.3333333333333,113.77333333333334,311.75,113.76375C314.1666666666667,113.75416666666666,316.5833333333333,113.74458333333334,319,113.735C321.4166666666667,113.72541666666666,323.8333333333333,113.71583333333332,326.25,113.70625C328.6666666666667,113.69666666666667,331.0833333333333,113.68708333333335,333.5,113.67750000000001C335.9166666666667,113.66791666666667,338.3333333333333,113.65833333333333,340.75,113.64874999999999C343.1666666666667,113.63916666666665,345.5833333333333,113.62958333333333,348,113.62C350.4166666666667,113.61041666666668,352.8333333333333,113.60083333333334,355.25,113.59125C357.6666666666667,113.58166666666666,360.0833333333333,113.57208333333334,362.5,113.5625C364.9166666666667,113.55291666666666,367.3333333333333,113.54333333333334,369.75,113.53375C372.1666666666667,113.52416666666666,374.5833333333333,113.51458333333332,377,113.505C379.4166666666667,113.49541666666667,381.8333333333333,113.48583333333333,384.25,113.47625000000001C386.6666666666667,113.46666666666668,389.0833333333333,113.45708333333334,391.5,113.4475C393.9166666666667,113.43791666666667,396.33333333333337,113.42833333333333,398.75000000000006,113.41874999999999C401.16666666666674,113.40916666666665,403.58333333333337,113.39958333333334,406.00000000000006,113.39C408.4166666666667,113.38041666666668,410.8333333333333,113.37083333333332,413.24999999999994,113.36125C415.66666666666663,113.35166666666666,418.08333333333326,113.34208333333335,420.49999999999994,113.33250000000001C422.91666666666663,113.32291666666667,425.3333333333333,113.31333333333333,427.75,113.30375C430.1666666666667,113.29416666666665,432.5833333333333,113.28458333333332,435,113.27499999999999C437.4166666666667,113.26541666666667,439.8333333333333,113.25583333333333,442.25,113.24625C444.6666666666667,113.23666666666668,447.0833333333333,113.22708333333334,449.5,113.2175C451.9166666666667,113.20791666666666,454.3333333333333,113.19833333333334,456.75,113.18875C459.1666666666667,113.17916666666666,461.5833333333333,113.16958333333332,464,113.16C466.4166666666667,113.15041666666667,468.8333333333333,113.14083333333333,471.25,113.13125000000001C473.6666666666667,113.12166666666668,476.0833333333333,113.11208333333335,478.5,113.1025C480.9166666666667,113.09291666666667,483.33333333333337,113.08333333333333,485.75000000000006,113.07374999999999C488.16666666666674,113.06416666666665,490.58333333333337,113.05458333333334,493.00000000000006,113.045C495.4166666666667,113.03541666666668,497.8333333333333,113.02583333333332,500.24999999999994,113.01625C502.66666666666663,113.00666666666666,505.08333333333326,112.99708333333335,507.49999999999994,112.98750000000001C509.91666666666663,112.97791666666667,512.3333333333333,112.96833333333333,514.75,112.95875C517.1666666666666,112.94916666666666,519.5833333333334,112.93958333333332,522,112.92999999999999C524.4166666666666,112.92041666666667,526.8333333333334,112.91083333333333,529.25,112.90125C531.6666666666666,112.89166666666668,534.0833333333334,112.88208333333334,536.5,112.8725C538.9166666666666,112.86291666666666,541.3333333333334,112.85333333333334,543.75,112.84375C546.1666666666666,112.83416666666666,548.5833333333334,112.82458333333334,551,112.815C553.4166666666666,112.80541666666666,555.8333333333334,112.79583333333332,558.25,112.78625C560.6666666666666,112.77666666666667,563.0833333333334,112.76708333333335,565.5,112.75750000000001C567.9166666666666,112.74791666666667,570.3333333333334,112.73833333333333,572.75,112.72874999999999C575.1666666666666,112.71916666666665,577.5833333333334,112.70958333333333,580,112.7C582.4166666666666,112.69041666666668,584.8333333333334,112.68083333333334,587.25,112.67125C589.6666666666666,112.66166666666666,592.0833333333334,112.65208333333334,594.5,112.6425C596.9166666666666,112.63291666666666,599.3333333333334,112.62333333333333,601.75,112.61375C604.1666666666666,112.60416666666666,606.5833333333334,112.59458333333332,609,112.585C611.4166666666666,112.57541666666667,613.8333333333334,112.56583333333333,616.25,112.55625C618.6666666666666,112.54666666666668,621.0833333333334,112.53708333333334,623.5,112.5275C625.9166666666666,112.51791666666666,628.3333333333334,112.50833333333334,630.75,112.49875C633.1666666666666,112.48916666666666,635.5833333333334,112.47958333333334,638,112.47C640.4166666666666,112.46041666666666,642.8333333333334,112.45083333333332,645.25,112.44125C647.6666666666666,112.43166666666667,650.0833333333334,112.42208333333335,652.5,112.41250000000001C654.9166666666666,112.40291666666667,657.3333333333334,112.39333333333333,659.75,112.38374999999999C662.1666666666666,112.37416666666665,664.5833333333334,112.36458333333333,667,112.355C669.4166666666666,112.34541666666668,671.8333333333334,112.33583333333334,674.25,112.32625C676.6666666666666,112.31666666666666,679.0833333333334,112.30708333333334,681.5,112.2975C683.9166666666666,112.28791666666666,686.3333333333334,112.27833333333334,688.75,112.26875C691.1666666666666,112.25916666666666,693.5833333333334,112.24958333333332,696,112.24C698.4166666666666,112.23041666666667,700.8333333333334,112.22083333333333,703.25,112.21125C705.6666666666666,112.20166666666668,708.0833333333334,112.19208333333334,710.5,112.1825C712.9166666666666,112.17291666666667,715.3333333333334,112.16333333333333,717.75,112.15374999999999C720.1666666666666,112.14416666666665,722.5833333333334,112.13458333333332,725,112.125C727.4166666666666,112.11541666666668,729.8333333333334,112.10583333333332,732.25,112.09625C734.6666666666666,112.08666666666667,737.0833333333334,112.07708333333335,739.5,112.06750000000001C741.9166666666666,112.05791666666667,744.3333333333334,112.04833333333333,746.75,112.03875C749.1666666666666,112.02916666666665,751.5833333333334,112.01958333333332,754,112.00999999999999C756.4166666666666,112.00041666666667,758.8333333333334,111.99083333333333,761.25,111.98125C763.6666666666666,111.97166666666668,766.0833333333334,111.96208333333334,768.5,111.9525C770.9166666666666,111.94291666666666,773.3333333333334,111.93333333333334,775.75,111.92375C778.1666666666666,111.91416666666666,780.5833333333334,111.90458333333333,783,111.895C785.4166666666667,111.88541666666666,787.8333333333334,111.87583333333333,790.2500000000001,111.86625C792.6666666666667,111.85666666666667,795.0833333333335,111.84708333333334,797.5000000000001,111.8375C799.9166666666667,111.82791666666667,802.3333333333335,111.81833333333333,804.7500000000001,111.80874999999999C807.1666666666667,111.79916666666665,809.5833333333335,111.78958333333334,812.0000000000001,111.78C814.4166666666667,111.77041666666668,816.8333333333333,111.76083333333334,819.2499999999999,111.75125C821.6666666666665,111.74166666666666,824.0833333333333,111.73208333333334,826.4999999999999,111.7225C828.9166666666665,111.71291666666666,831.3333333333333,111.70333333333333,833.7499999999999,111.69375C836.1666666666665,111.68416666666666,838.5833333333333,111.67458333333332,840.9999999999999,111.66499999999999C843.4166666666666,111.65541666666665,845.8333333333333,111.64583333333334,848.25,111.63625C850.6666666666666,111.62666666666668,853.0833333333334,111.61708333333333,855.5,111.6075C857.9166666666666,111.59791666666668,860.3333333333334,111.58833333333335,862.75,111.57875000000001C865.1666666666666,111.56916666666667,867.5833333333334,111.55958333333334,870,111.55C872.4166666666666,111.54041666666666,874.8333333333334,111.53083333333332,877.25,111.52125C879.6666666666666,111.51166666666667,882.0833333333334,111.50208333333335,884.5,111.4925C886.9166666666666,111.48291666666667,889.3333333333334,111.47333333333333,891.75,111.46374999999999C894.1666666666666,111.45416666666665,896.5833333333334,111.44458333333333,899,111.435C901.4166666666666,111.42541666666668,903.8333333333334,111.41583333333334,906.25,111.40625C908.6666666666666,111.39666666666666,911.0833333333334,111.38708333333332,913.5,111.3775C915.9166666666666,111.36791666666667,918.3333333333334,111.35833333333335,920.75,111.34875000000001C923.1666666666666,111.33916666666667,925.5833333333334,111.32958333333333,928,111.32C930.4166666666666,111.31041666666665,932.8333333333334,111.30083333333333,935.25,111.29125C937.6666666666666,111.28166666666668,940.0833333333334,111.27208333333334,942.5,111.2625C944.9166666666666,111.25291666666666,947.3333333333334,111.24333333333333,949.75,111.23374999999999C952.1666666666666,111.22416666666665,954.5833333333334,111.21458333333332,957,111.205C959.4166666666666,111.19541666666667,961.8333333333334,111.18583333333332,964.25,111.17625C966.6666666666667,111.16666666666666,969.0833333333334,111.15708333333335,971.5000000000001,111.14750000000001C973.9166666666667,111.13791666666668,976.3333333333335,111.12833333333334,978.7500000000001,111.11875C981.1666666666667,111.10916666666667,983.5833333333335,111.09958333333334,986.0000000000001,111.09C988.4166666666667,111.08041666666666,990.8333333333335,111.07083333333334,993.2500000000001,111.06125C995.6666666666667,111.05166666666666,998.0833333333333,111.04208333333334,1000.4999999999999,111.0325C1002.9166666666665,111.02291666666666,1005.3333333333333,111.01333333333334,1007.7499999999999,111.00375C1010.1666666666665,110.99416666666666,1012.5833333333333,110.98458333333332,1014.9999999999999,110.975C1017.4166666666665,110.96541666666667,1019.8333333333333,110.95583333333333,1022.2499999999999,110.94625C1024.6666666666665,110.93666666666667,1027.0833333333333,110.92708333333334,1029.5,110.9175C1031.9166666666667,110.90791666666667,1034.3333333333333,110.89833333333334,1036.75,110.88875C1039.1666666666667,110.87916666666666,1041.5833333333333,110.86958333333334,1044,110.86C1046.4166666666667,110.85041666666666,1048.8333333333333,110.84083333333332,1051.25,110.83125C1053.6666666666667,110.82166666666667,1056.0833333333333,110.81208333333333,1058.5,110.80250000000001C1060.9166666666667,110.79291666666668,1063.3333333333333,110.78333333333335,1065.75,110.77375C1068.1666666666667,110.76416666666667,1070.5833333333333,110.75458333333333,1073,110.74499999999999C1075.4166666666667,110.73541666666665,1077.8333333333333,110.72583333333333,1080.25,110.71625C1082.6666666666667,110.70666666666668,1085.0833333333333,110.69708333333332,1087.5,110.6875C1089.9166666666667,110.67791666666668,1092.3333333333333,110.66833333333335,1094.75,110.65875000000001C1097.1666666666667,110.64916666666667,1099.5833333333333,110.63958333333333,1102,110.63C1104.4166666666667,110.62041666666666,1106.8333333333333,110.61083333333332,1109.25,110.60125C1111.6666666666667,110.59166666666667,1114.0833333333333,110.58208333333333,1116.5,110.5725C1118.9166666666667,110.56291666666668,1121.3333333333333,110.55333333333334,1123.75,110.54375C1126.1666666666667,110.53416666666666,1128.5833333333333,110.52458333333334,1131,110.515C1133.4166666666667,110.50541666666666,1135.8333333333333,110.49583333333334,1138.25,110.48625C1140.6666666666667,110.47666666666666,1143.0833333333333,110.46708333333332,1145.5,110.4575C1147.9166666666667,110.44791666666667,1150.3333333333333,110.43833333333335,1152.75,110.42875000000001C1155.1666666666667,110.41916666666667,1157.5833333333333,110.41916666666667,1160,110.39999999999999C1162.4166666666667,110.38083333333331,1164.8333333333333,108.9625,1167.25,108.24375C1169.6666666666667,107.525,1172.0833333333333,106.80624999999999,1174.5,106.08749999999999C1176.9166666666667,105.36874999999999,1179.3333333333333,104.65,1181.75,103.93125C1184.1666666666667,103.2125,1186.5833333333333,102.49375,1189,101.775C1191.4166666666667,101.05625,1193.8333333333333,100.33749999999999,1196.25,99.61874999999999C1198.6666666666667,98.89999999999999,1201.0833333333333,98.18125,1203.5,97.4625C1205.9166666666667,96.74375,1208.3333333333333,96.02499999999999,1210.75,95.30624999999999C1213.1666666666667,94.58749999999999,1215.5833333333333,93.86875,1218,93.15C1220.4166666666667,92.43125,1222.8333333333333,91.7125,1225.25,90.99375C1227.6666666666667,90.275,1230.0833333333333,89.55624999999999,1232.5,88.83749999999999C1234.9166666666667,88.11874999999999,1237.3333333333333,87.4,1239.75,86.68125C1242.1666666666667,85.9625,1244.5833333333333,85.24374999999999,1247,84.52499999999999C1249.4166666666667,83.80624999999999,1251.8333333333333,83.0875,1254.25,82.36875C1256.6666666666667,81.65,1259.0833333333333,80.93125,1261.5,80.2125C1263.9166666666667,79.49375,1266.3333333333333,78.77499999999999,1268.75,78.05624999999999C1271.1666666666667,77.33749999999999,1273.5833333333333,76.61874999999999,1276,75.89999999999999C1278.4166666666667,75.18124999999999,1280.8333333333333,74.46249999999999,1283.25,73.74374999999999C1285.6666666666667,73.02499999999999,1288.0833333333333,72.30625,1290.5,71.5875C1292.9166666666667,70.86875,1295.3333333333333,70.15,1297.75,69.43125C1300.1666666666667,68.7125,1302.5833333333333,67.99374999999999,1305,67.27499999999999C1307.4166666666667,66.55624999999999,1309.8333333333333,65.83749999999999,1312.25,65.11874999999999C1314.6666666666667,64.39999999999999,1317.0833333333333,63.68125,1319.5,62.9625C1321.9166666666667,62.24375,1324.3333333333333,61.525000000000006,1326.75,60.806250000000006C1329.1666666666667,60.087500000000006,1331.5833333333333,59.36875,1334,58.65C1336.4166666666667,57.93125,1338.8333333333333,57.2125,1341.25,56.49375C1343.6666666666667,55.775,1346.0833333333333,55.056250000000006,1348.5,54.337500000000006C1350.9166666666667,53.618750000000006,1353.3333333333333,52.9,1355.75,52.18125C1358.1666666666667,51.4625,1360.5833333333333,50.743750000000006,1363,50.025000000000006C1365.4166666666667,49.306250000000006,1367.8333333333333,48.5875,1370.25,47.86875C1372.6666666666667,47.15,1375.0833333333333,46.43125,1377.5,45.7125C1379.9166666666667,44.99375,1382.3333333333333,44.275000000000006,1384.75,43.556250000000006C1387.1666666666667,42.837500000000006,1389.5833333333333,42.11875,1392,41.4C1394.4166666666667,40.68125,1396.8333333333333,39.962500000000006,1399.25,39.243750000000006C1401.6666666666667,38.525000000000006,1404.0833333333333,37.80625,1406.5,37.0875C1408.9166666666667,36.36875,1411.3333333333333,35.65,1413.75,34.93125C1416.1666666666667,34.2125,1418.5833333333333,33.493750000000006,1421,32.775000000000006C1423.4166666666667,32.056250000000006,1425.8333333333333,31.3375,1428.25,30.61875C1430.6666666666667,29.9,1433.0833333333333,29.181250000000006,1435.5,28.462500000000006C1437.9166666666667,27.743750000000006,1440.3333333333333,27.025000000000006,1442.75,26.306250000000002C1445.1666666666667,25.5875,1447.5833333333333,24.86875,1450,24.149999999999995" fill="transparent" stroke-linecap="round" stroke="#B6509E" stroke-width="2"></path><path class="visx-linepath" d="M0,109.2499999999425C2.4166666666666665,109.24041666663312,4.833333333333334,109.23083333332374,7.25,109.22125C9.666666666666666,109.21166666667625,12.083333333333334,109.20208333333332,14.5,109.1925C16.916666666666668,109.18291666666667,19.333333333333332,109.17333333333335,21.75,109.16375000000001C24.166666666666668,109.15416666666667,26.583333333333332,109.14458333333333,29,109.13499999999999C31.416666666666668,109.12541666666665,33.833333333333336,109.11583333333333,36.25,109.10625C38.666666666666664,109.09666666666668,41.083333333333336,109.08708333333334,43.5,109.0775C45.91666666666667,109.06791666666666,48.333333333333336,109.05833333333334,50.75000000000001,109.04875C53.16666666666667,109.03916666666666,55.583333333333336,109.02958333333333,58,109.02C60.416666666666664,109.01041666666666,62.833333333333336,109.00083333333332,65.25,108.99125C67.66666666666667,108.98166666666667,70.08333333333333,108.97208333333333,72.5,108.9625C74.91666666666667,108.95291666666668,77.33333333333333,108.94333333333334,79.75,108.93375C82.16666666666667,108.92416666666666,84.58333333333333,108.91458333333334,87,108.905C89.41666666666667,108.89541666666666,91.83333333333333,108.88583333333334,94.25,108.87625C96.66666666666667,108.86666666666666,99.08333333333334,108.85708333333334,101.50000000000001,108.8475C103.91666666666667,108.83791666666667,106.33333333333334,108.82833333333335,108.75,108.81875000000001C111.16666666666667,108.80916666666667,113.58333333333333,108.79958333333333,116,108.78999999999999C118.41666666666667,108.78041666666665,120.83333333333334,108.77083333333334,123.25000000000001,108.76125C125.66666666666667,108.75166666666668,128.08333333333334,108.74208333333334,130.5,108.7325C132.91666666666666,108.72291666666666,135.33333333333334,108.71333333333334,137.75,108.70375C140.16666666666666,108.69416666666666,142.58333333333334,108.68458333333334,145,108.675C147.41666666666666,108.66541666666666,149.83333333333334,108.65583333333332,152.25,108.64625C154.66666666666666,108.63666666666667,157.08333333333334,108.62708333333333,159.5,108.6175C161.91666666666666,108.60791666666668,164.33333333333334,108.59833333333334,166.75,108.58875C169.16666666666666,108.57916666666667,171.58333333333334,108.56958333333333,174,108.55999999999999C176.41666666666666,108.55041666666665,178.83333333333334,108.54083333333332,181.25,108.53125C183.66666666666666,108.52166666666668,186.08333333333334,108.51208333333332,188.5,108.5025C190.91666666666666,108.49291666666667,193.33333333333334,108.48333333333335,195.75,108.47375000000001C198.16666666666669,108.46416666666667,200.58333333333334,108.45458333333333,203.00000000000003,108.445C205.41666666666669,108.43541666666665,207.83333333333331,108.42583333333332,210.24999999999997,108.41624999999999C212.66666666666666,108.40666666666665,215.08333333333331,108.39708333333334,217.5,108.3875C219.91666666666666,108.37791666666668,222.33333333333334,108.36833333333334,224.75,108.35875C227.16666666666666,108.34916666666666,229.58333333333334,108.33958333333334,232,108.33C234.41666666666666,108.32041666666666,236.83333333333334,108.31083333333333,239.25,108.30125C241.66666666666669,108.29166666666666,244.08333333333334,108.28208333333333,246.50000000000003,108.2725C248.91666666666669,108.26291666666667,251.33333333333331,108.25333333333333,253.74999999999997,108.24375C256.16666666666663,108.23416666666667,258.5833333333333,108.22458333333334,261,108.215C263.4166666666667,108.20541666666666,265.8333333333333,108.19583333333334,268.25,108.18625C270.6666666666667,108.17666666666666,273.0833333333333,108.16708333333334,275.5,108.1575C277.9166666666667,108.14791666666666,280.3333333333333,108.13833333333334,282.75,108.12875C285.1666666666667,108.11916666666666,287.5833333333333,108.10958333333333,290,108.1C292.4166666666667,108.09041666666666,294.8333333333333,108.08083333333332,297.25,108.07124999999999C299.6666666666667,108.06166666666667,302.0833333333333,108.05208333333333,304.5,108.0425C306.9166666666667,108.03291666666668,309.3333333333333,108.02333333333333,311.75,108.01375C314.1666666666667,108.00416666666668,316.5833333333333,107.99458333333335,319,107.98500000000001C321.4166666666667,107.97541666666667,323.8333333333333,107.96583333333334,326.25,107.95625C328.6666666666667,107.94666666666666,331.0833333333333,107.93708333333332,333.5,107.9275C335.9166666666667,107.91791666666667,338.3333333333333,107.90833333333335,340.75,107.89875C343.1666666666667,107.88916666666667,345.5833333333333,107.87958333333333,348,107.86999999999999C350.4166666666667,107.86041666666665,352.8333333333333,107.85083333333333,355.25,107.84125C357.6666666666667,107.83166666666668,360.0833333333333,107.82208333333334,362.5,107.8125C364.9166666666667,107.80291666666666,367.3333333333333,107.79333333333332,369.75,107.78375C372.1666666666667,107.77416666666667,374.5833333333333,107.76458333333335,377,107.75500000000001C379.4166666666667,107.74541666666667,381.8333333333333,107.73583333333333,384.25,107.72625C386.6666666666667,107.71666666666665,389.0833333333333,107.70708333333333,391.5,107.6975C393.9166666666667,107.68791666666667,396.33333333333337,107.67833333333334,398.75000000000006,107.66875C401.16666666666674,107.65916666666666,403.58333333333337,107.64958333333333,406.00000000000006,107.63999999999999C408.4166666666667,107.63041666666665,410.8333333333333,107.62083333333332,413.24999999999994,107.61125C415.66666666666663,107.60166666666666,418.08333333333326,107.59208333333332,420.49999999999994,107.5825C422.91666666666663,107.57291666666666,425.3333333333333,107.56333333333335,427.75,107.55375000000001C430.1666666666667,107.54416666666668,432.5833333333333,107.53458333333334,435,107.525C437.4166666666667,107.51541666666667,439.8333333333333,107.50583333333334,442.25,107.49625C444.6666666666667,107.48666666666666,447.0833333333333,107.47708333333334,449.5,107.4675C451.9166666666667,107.45791666666666,454.3333333333333,107.44833333333334,456.75,107.43875C459.1666666666667,107.42916666666666,461.5833333333333,107.41958333333334,464,107.41C466.4166666666667,107.40041666666666,468.8333333333333,107.39083333333332,471.25,107.38125C473.6666666666667,107.37166666666667,476.0833333333333,107.36208333333333,478.5,107.3525C480.9166666666667,107.34291666666667,483.33333333333337,107.33333333333334,485.75000000000006,107.32375C488.16666666666674,107.31416666666667,490.58333333333337,107.30458333333334,493.00000000000006,107.295C495.4166666666667,107.28541666666666,497.8333333333333,107.27583333333334,500.24999999999994,107.26625C502.66666666666663,107.25666666666666,505.08333333333326,107.24708333333332,507.49999999999994,107.2375C509.91666666666663,107.22791666666666,512.3333333333333,107.21833333333335,514.75,107.20875000000001C517.1666666666666,107.19916666666667,519.5833333333334,107.18958333333333,522,107.17999999999999C524.4166666666666,107.17041666666665,526.8333333333334,107.16083333333331,529.25,107.15124999999999C531.6666666666666,107.14166666666667,534.0833333333334,107.13208333333333,536.5,107.1225C538.9166666666666,107.11291666666668,541.3333333333334,107.10333333333332,543.75,107.09375C546.1666666666666,107.08416666666668,548.5833333333334,107.07458333333335,551,107.06500000000001C553.4166666666666,107.05541666666667,555.8333333333334,107.04583333333333,558.25,107.03625C560.6666666666666,107.02666666666666,563.0833333333334,107.01708333333332,565.5,107.0075C567.9166666666666,106.99791666666667,570.3333333333334,106.98833333333334,572.75,106.97875C575.1666666666666,106.96916666666667,577.5833333333334,106.95958333333333,580,106.94999999999999C582.4166666666666,106.94041666666665,584.8333333333334,106.93083333333333,587.25,106.92125C589.6666666666666,106.91166666666668,592.0833333333334,106.90208333333334,594.5,106.8925C596.9166666666666,106.88291666666666,599.3333333333334,106.87333333333332,601.75,106.86375C604.1666666666666,106.85416666666667,606.5833333333334,106.84458333333335,609,106.83500000000001C611.4166666666666,106.82541666666667,613.8333333333334,106.81583333333333,616.25,106.80624999999999C618.6666666666666,106.79666666666665,621.0833333333334,106.78708333333333,623.5,106.7775C625.9166666666666,106.76791666666668,628.3333333333334,106.75833333333334,630.75,106.74875C633.1666666666666,106.73916666666666,635.5833333333334,106.72958333333334,638,106.72C640.4166666666666,106.71041666666666,642.8333333333334,106.70083333333334,645.25,106.69125C647.6666666666666,106.68166666666666,650.0833333333334,106.67208333333332,652.5,106.6625C654.9166666666666,106.65291666666667,657.3333333333334,106.64333333333333,659.75,106.63375C662.1666666666666,106.62416666666668,664.5833333333334,106.61458333333334,667,106.605C669.4166666666666,106.59541666666667,671.8333333333334,106.58583333333334,674.25,106.57625C676.6666666666666,106.56666666666666,679.0833333333334,106.55708333333334,681.5,106.5475C683.9166666666666,106.53791666666666,686.3333333333334,106.52833333333332,688.75,106.51875C691.1666666666666,106.50916666666667,693.5833333333334,106.49958333333335,696,106.49000000000001C698.4166666666666,106.48041666666667,700.8333333333334,106.47083333333333,703.25,106.46124999999999C705.6666666666666,106.45166666666665,708.0833333333334,106.44208333333333,710.5,106.4325C712.9166666666666,106.42291666666668,715.3333333333334,106.41333333333334,717.75,106.40375C720.1666666666666,106.39416666666666,722.5833333333334,106.38458333333334,725,106.375C727.4166666666666,106.36541666666666,729.8333333333334,106.35583333333334,732.25,106.34625C734.6666666666666,106.33666666666666,737.0833333333334,106.32708333333332,739.5,106.3175C741.9166666666666,106.30791666666667,744.3333333333334,106.29833333333333,746.75,106.28875000000001C749.1666666666666,106.27916666666668,751.5833333333334,106.26958333333334,754,106.26C756.4166666666666,106.25041666666667,758.8333333333334,106.24083333333333,761.25,106.23124999999999C763.6666666666666,106.22166666666665,766.0833333333334,106.21208333333333,768.5,106.2025C770.9166666666666,106.19291666666668,773.3333333333334,106.18333333333332,775.75,106.17375C778.1666666666666,106.16416666666667,780.5833333333334,106.15458333333335,783,106.14500000000001C785.4166666666667,106.13541666666667,787.8333333333334,106.12583333333333,790.2500000000001,106.11625C792.6666666666667,106.10666666666665,795.0833333333335,106.09708333333332,797.5000000000001,106.08749999999999C799.9166666666667,106.07791666666667,802.3333333333335,106.06833333333333,804.7500000000001,106.05875C807.1666666666667,106.04916666666668,809.5833333333335,106.03958333333334,812.0000000000001,106.03C814.4166666666667,106.02041666666666,816.8333333333333,106.01083333333334,819.2499999999999,106.00125C821.6666666666665,105.99166666666666,824.0833333333333,105.98208333333332,826.4999999999999,105.9725C828.9166666666665,105.96291666666667,831.3333333333333,105.95333333333333,833.7499999999999,105.94375000000001C836.1666666666665,105.93416666666668,838.5833333333333,105.92458333333335,840.9999999999999,105.915C843.4166666666666,105.90541666666667,845.8333333333333,105.89583333333333,848.25,105.88624999999999C850.6666666666666,105.87666666666665,853.0833333333334,105.86708333333333,855.5,105.8575C857.9166666666666,105.84791666666668,860.3333333333334,105.83833333333332,862.75,105.82875C865.1666666666666,105.81916666666667,867.5833333333334,105.80958333333335,870,105.80000000000001C872.4166666666666,105.79041666666667,874.8333333333334,105.78083333333333,877.25,105.77125C879.6666666666666,105.76166666666666,882.0833333333334,105.75208333333332,884.5,105.74249999999999C886.9166666666666,105.73291666666667,889.3333333333334,105.72333333333333,891.75,105.71375C894.1666666666666,105.70416666666668,896.5833333333334,105.69458333333334,899,105.685C901.4166666666666,105.67541666666666,903.8333333333334,105.66583333333334,906.25,105.65625C908.6666666666666,105.64666666666666,911.0833333333334,105.63708333333334,913.5,105.6275C915.9166666666666,105.61791666666666,918.3333333333334,105.60833333333333,920.75,105.59875C923.1666666666666,105.58916666666666,925.5833333333334,105.57958333333332,928,105.57C930.4166666666666,105.56041666666667,932.8333333333334,105.55083333333333,935.25,105.54125C937.6666666666666,105.53166666666668,940.0833333333334,105.52208333333334,942.5,105.5125C944.9166666666666,105.50291666666666,947.3333333333334,105.49333333333334,949.75,105.48375C952.1666666666666,105.47416666666666,954.5833333333334,105.46458333333334,957,105.455C959.4166666666666,105.44541666666666,961.8333333333334,105.43583333333333,964.25,105.42625C966.6666666666667,105.41666666666666,969.0833333333334,105.40708333333333,971.5000000000001,105.3975C973.9166666666667,105.38791666666667,976.3333333333335,105.37833333333333,978.7500000000001,105.36875C981.1666666666667,105.35916666666668,983.5833333333335,105.34958333333334,986.0000000000001,105.34C988.4166666666667,105.33041666666666,990.8333333333335,105.32083333333334,993.2500000000001,105.31125C995.6666666666667,105.30166666666666,998.0833333333333,105.29208333333334,1000.4999999999999,105.2825C1002.9166666666665,105.27291666666666,1005.3333333333333,105.26333333333332,1007.7499999999999,105.25375C1010.1666666666665,105.24416666666667,1012.5833333333333,105.23458333333335,1014.9999999999999,105.22500000000001C1017.4166666666665,105.21541666666667,1019.8333333333333,105.20583333333333,1022.2499999999999,105.19624999999999C1024.6666666666665,105.18666666666665,1027.0833333333333,105.17708333333334,1029.5,105.1675C1031.9166666666667,105.15791666666668,1034.3333333333333,105.14833333333334,1036.75,105.13875C1039.1666666666667,105.12916666666666,1041.5833333333333,105.11958333333332,1044,105.11C1046.4166666666667,105.10041666666667,1048.8333333333333,105.09083333333335,1051.25,105.08125000000001C1053.6666666666667,105.07166666666667,1056.0833333333333,105.06208333333333,1058.5,105.0525C1060.9166666666667,105.04291666666666,1063.3333333333333,105.03333333333333,1065.75,105.02375C1068.1666666666667,105.01416666666668,1070.5833333333333,105.00458333333334,1073,104.995C1075.4166666666667,104.98541666666667,1077.8333333333333,104.97583333333333,1080.25,104.96624999999999C1082.6666666666667,104.95666666666665,1085.0833333333333,104.94708333333332,1087.5,104.9375C1089.9166666666667,104.92791666666668,1092.3333333333333,104.91833333333332,1094.75,104.90875C1097.1666666666667,104.89916666666667,1099.5833333333333,104.88958333333333,1102,104.88000000000001C1104.4166666666667,104.87041666666669,1106.8333333333333,104.86083333333335,1109.25,104.85125000000001C1111.6666666666667,104.84166666666667,1114.0833333333333,104.83208333333333,1116.5,104.82249999999999C1118.9166666666667,104.81291666666665,1121.3333333333333,104.80333333333333,1123.75,104.79375C1126.1666666666667,104.78416666666668,1128.5833333333333,104.77458333333334,1131,104.765C1133.4166666666667,104.75541666666666,1135.8333333333333,104.74583333333334,1138.25,104.73625C1140.6666666666667,104.72666666666666,1143.0833333333333,104.71708333333333,1145.5,104.7075C1147.9166666666667,104.69791666666666,1150.3333333333333,104.68833333333332,1152.75,104.67875C1155.1666666666667,104.66916666666667,1157.5833333333333,104.66916666666667,1160,104.65C1162.4166666666667,104.63083333333334,1164.8333333333333,103.21249999999999,1167.25,102.49374999999999C1169.6666666666667,101.77499999999999,1172.0833333333333,101.05625,1174.5,100.3375C1176.9166666666667,99.61875,1179.3333333333333,98.9,1181.75,98.18125C1184.1666666666667,97.4625,1186.5833333333333,96.74374999999999,1189,96.02499999999999C1191.4166666666667,95.30624999999999,1193.8333333333333,94.5875,1196.25,93.86875C1198.6666666666667,93.15,1201.0833333333333,92.43124999999999,1203.5,91.71249999999999C1205.9166666666667,90.99374999999999,1208.3333333333333,90.275,1210.75,89.55625C1213.1666666666667,88.8375,1215.5833333333333,88.11875,1218,87.4C1220.4166666666667,86.68125,1222.8333333333333,85.96249999999999,1225.25,85.24374999999999C1227.6666666666667,84.52499999999999,1230.0833333333333,83.80624999999999,1232.5,83.08749999999999C1234.9166666666667,82.36874999999999,1237.3333333333333,81.64999999999999,1239.75,80.93124999999999C1242.1666666666667,80.21249999999999,1244.5833333333333,79.49375,1247,78.775C1249.4166666666667,78.05625,1251.8333333333333,77.3375,1254.25,76.61875C1256.6666666666667,75.9,1259.0833333333333,75.18124999999999,1261.5,74.46249999999999C1263.9166666666667,73.74374999999999,1266.3333333333333,73.02499999999999,1268.75,72.30624999999999C1271.1666666666667,71.58749999999999,1273.5833333333333,70.86874999999999,1276,70.14999999999999C1278.4166666666667,69.43124999999999,1280.8333333333333,68.7125,1283.25,67.99375C1285.6666666666667,67.275,1288.0833333333333,66.55625,1290.5,65.8375C1292.9166666666667,65.11875,1295.3333333333333,64.4,1297.75,63.68125C1300.1666666666667,62.9625,1302.5833333333333,62.24374999999999,1305,61.52499999999999C1307.4166666666667,60.80624999999999,1309.8333333333333,60.0875,1312.25,59.36875C1314.6666666666667,58.65,1317.0833333333333,57.931250000000006,1319.5,57.212500000000006C1321.9166666666667,56.493750000000006,1324.3333333333333,55.775,1326.75,55.05625C1329.1666666666667,54.3375,1331.5833333333333,53.61875,1334,52.9C1336.4166666666667,52.18125,1338.8333333333333,51.462500000000006,1341.25,50.743750000000006C1343.6666666666667,50.025000000000006,1346.0833333333333,49.30625,1348.5,48.5875C1350.9166666666667,47.86875,1353.3333333333333,47.150000000000006,1355.75,46.431250000000006C1358.1666666666667,45.712500000000006,1360.5833333333333,44.99375,1363,44.275C1365.4166666666667,43.55625,1367.8333333333333,42.8375,1370.25,42.11875C1372.6666666666667,41.4,1375.0833333333333,40.681250000000006,1377.5,39.962500000000006C1379.9166666666667,39.243750000000006,1382.3333333333333,38.525,1384.75,37.80625C1387.1666666666667,37.0875,1389.5833333333333,36.368750000000006,1392,35.650000000000006C1394.4166666666667,34.931250000000006,1396.8333333333333,34.2125,1399.25,33.49375C1401.6666666666667,32.775,1404.0833333333333,32.05624999999999,1406.5,31.337499999999995C1408.9166666666667,30.618749999999995,1411.3333333333333,29.900000000000002,1413.75,29.181250000000002C1416.1666666666667,28.462500000000002,1418.5833333333333,27.74375,1421,27.025C1423.4166666666667,26.30625,1425.8333333333333,25.587500000000006,1428.25,24.868750000000006C1430.6666666666667,24.150000000000006,1433.0833333333333,23.431250000000006,1435.5,22.712500000000002C1437.9166666666667,21.99375,1440.3333333333333,21.274999999999995,1442.75,20.556249999999995C1445.1666666666667,19.837499999999995,1447.5833333333333,19.11875,1450,18.400000000000002" fill="transparent" stroke-linecap="round" stroke="#E7C6DF" stroke-width="2"></path><g class="visx-group visx-axis visx-axis-bottom" transform="translate(0, 115)"><g class="visx-group visx-axis-tick" transform="translate(0, 0)"><line class="visx-line" x1="0" y1="0" x2="0" y2="8" fill="transparent" shape-rendering="crispEdges" stroke="#000" stroke-width="0" stroke-linecap="square"></line><svg x="0" y="0" font-size="10" style="overflow:visible"><text transform="" x="0" y="18" fill="#000" font-size="10" text-anchor="middle"><tspan x="0" dy="0em">0%</tspan></text></svg></g><g class="visx-group visx-axis-tick" transform="translate(0, 0)"><line class="visx-line" x1="362.5" y1="0" x2="362.5" y2="8" fill="transparent" shape-rendering="crispEdges" stroke="#000" stroke-width="0" stroke-linecap="square"></line><svg x="0" y="0" font-size="10" style="overflow:visible"><text transform="" x="362.5" y="18" fill="#000" font-size="10" text-anchor="middle"><tspan x="362.5" dy="0em">25%</tspan></text></svg></g><g class="visx-group visx-axis-tick" transform="translate(0, 0)"><line class="visx-line" x1="725" y1="0" x2="725" y2="8" fill="transparent" shape-rendering="crispEdges" stroke="#000" stroke-width="0" stroke-linecap="square"></line><svg x="0" y="0" font-size="10" style="overflow:visible"><text transform="" x="725" y="18" fill="#000" font-size="10" text-anchor="middle"><tspan x="725" dy="0em">50%</tspan></text></svg></g><g class="visx-group visx-axis-tick" transform="translate(0, 0)"><line class="visx-line" x1="1087.5" y1="0" x2="1087.5" y2="8" fill="transparent" shape-rendering="crispEdges" stroke="#000" stroke-width="0" stroke-linecap="square"></line><svg x="0" y="0" font-size="10" style="overflow:visible"><text transform="" x="1087.5" y="18" fill="#000" font-size="10" text-anchor="middle"><tspan x="1087.5" dy="0em">75%</tspan></text></svg></g><g class="visx-group visx-axis-tick" transform="translate(0, 0)"><line class="visx-line" x1="1450" y1="0" x2="1450" y2="8" fill="transparent" shape-rendering="crispEdges" stroke="#000" stroke-width="0" stroke-linecap="square"></line><svg x="0" y="0" font-size="10" style="overflow:visible"><text transform="" x="1450" y="18" fill="#000" font-size="10" text-anchor="middle"><tspan x="1450" dy="0em">100%</tspan></text></svg></g><line class="visx-line visx-axis-line" x1="0.5" y1="0" x2="1450.5" y2="0" fill="transparent" shape-rendering="crispEdges" stroke="#222" stroke-width="0"></line></g><g class="visx-group visx-axis visx-axis-left" transform="translate(0, 0)"><g class="visx-group visx-axis-tick" transform="translate(0, 0)"><line class="visx-line" x1="0" y1="115" x2="-8" y2="115" fill="transparent" shape-rendering="crispEdges" stroke="#222" stroke-width="0" stroke-linecap="square"></line><svg x="-30" y="0" font-size="8" style="overflow:visible"><text transform="" x="-8" y="115" fill="#000" font-size="8" text-anchor="start"><tspan x="-8" dy="0em">0%</tspan></text></svg></g><g class="visx-group visx-axis-tick" transform="translate(0, 0)"><line class="visx-line" x1="0" y1="57.5" x2="-8" y2="57.5" fill="transparent" shape-rendering="crispEdges" stroke="#222" stroke-width="0" stroke-linecap="square"></line><svg x="-30" y="0" font-size="8" style="overflow:visible"><text transform="" x="-8" y="57.5" fill="#000" font-size="8" text-anchor="start"><tspan x="-8" dy="0em">50%</tspan></text></svg></g><g class="visx-group visx-axis-tick" transform="translate(0, 0)"><line class="visx-line" x1="0" y1="0" x2="-8" y2="0" fill="transparent" shape-rendering="crispEdges" stroke="#222" stroke-width="0" stroke-linecap="square"></line><svg x="-30" y="0" font-size="8" style="overflow:visible"><text transform="" x="-8" y="0" fill="#000" font-size="8" text-anchor="start"><tspan x="-8" dy="0em">100%</tspan></text></svg></g><line class="visx-line visx-axis-line" x1="0" y1="115.5" x2="0" y2="0.5" fill="transparent" shape-rendering="crispEdges" stroke="#222" stroke-width="0"></line></g><rect class="visx-bar" width="1450" height="115" fill="transparent"></rect><line class="visx-line" x1="1160" y1="28" x2="1160" y2="115" fill="transparent" shape-rendering="crispEdges" stroke="#0062D2" stroke-width="1" pointer-events="none" stroke-dasharray="5,2"></line><svg x="0" y="0" font-size="10px" style="overflow:visible"><text transform="" x="1160" y="20" font-size="10px" fill="#fff" stroke="#fff" stroke-width="0.8em" text-anchor="middle"><tspan x="1160" dy="0.355em">Optimal 80%</tspan></text></svg><svg x="0" y="0" font-size="10px" style="overflow:visible"><text transform="" x="1160" y="20" font-size="10px" fill="#62677B" text-anchor="middle"><tspan x="1160" dy="0.355em">Optimal 80%</tspan></text></svg></g></svg>