<?xml version="1.0"?><svg xmlns="http://www.w3.org/2000/svg" xmlns:xlink= "http://www.w3.org/1999/xlink" style="background: white;" width="1500" height="185"> <g style="color: black; font-size: 13px; font-family: sans-serif; transform: translate(18px, 25px);"><g><circle r="3" cx="-6" cy="-5" style="fill: #B6509E" /><text>Borrow APR, variable</text></g><g style="transform: translateX(150px);"><circle r="3" cx="-6" cy="-5" style="fill: rgb(231, 198, 223)" /><text>Borrow APR, stable</text></g><g style="transform: translateX(290px);"><circle r="3" cx="-6" cy="-5" style="fill: rgb(0, 98, 210)" /><text>Utilization Rate</text></g></g><g class="visx-group" transform="translate(40, 50)"><g class="visx-group visx-rows" transform="translate(0, 0)"><line class="visx-line" x1="0" y1="115" x2="1450" y2="115" fill="transparent" shape-rendering="crispEdges" stroke="#000" stroke-width="1" stroke-dasharray="3,3" pointer-events="none"></line><line class="visx-line" x1="0" y1="67.08333333333333" x2="1450" y2="67.08333333333333" fill="transparent" shape-rendering="crispEdges" stroke="#000" stroke-width="1" stroke-dasharray="3,3" pointer-events="none"></line><line class="visx-line" x1="0" y1="19.16666666666666" x2="1450" y2="19.16666666666666" fill="transparent" shape-rendering="crispEdges" stroke="#000" stroke-width="1" stroke-dasharray="3,3" pointer-events="none"></line></g><path class="visx-linepath" d="M0,114.99999999992205C2.4166666666666665,114.98700925921379,4.833333333333334,114.97401851850552,7.25,114.96102777777777C9.666666666666666,114.94803703705003,12.083333333333334,114.93504629629629,14.5,114.92205555555556C16.916666666666668,114.90906481481483,19.333333333333332,114.89607407407406,21.75,114.88308333333333C24.166666666666668,114.8700925925926,26.583333333333332,114.85710185185185,29,114.84411111111112C31.416666666666668,114.83112037037039,33.833333333333336,114.81812962962964,36.25,114.80513888888889C38.666666666666664,114.79214814814814,41.083333333333336,114.7791574074074,43.5,114.76616666666666C45.91666666666667,114.75317592592592,48.333333333333336,114.7401851851852,50.75000000000001,114.72719444444445C53.16666666666667,114.71420370370372,55.583333333333336,114.70121296296297,58,114.68822222222222C60.416666666666664,114.67523148148148,62.833333333333336,114.66224074074073,65.25,114.64925C67.66666666666667,114.63625925925926,70.08333333333333,114.62326851851851,72.5,114.61027777777778C74.91666666666667,114.59728703703705,77.33333333333333,114.5842962962963,79.75,114.57130555555555C82.16666666666667,114.5583148148148,84.58333333333333,114.54532407407406,87,114.53233333333333C89.41666666666667,114.5193425925926,91.83333333333333,114.50635185185185,94.25,114.49336111111111C96.66666666666667,114.48037037037037,99.08333333333334,114.46737962962963,101.50000000000001,114.45438888888889C103.91666666666667,114.44139814814815,106.33333333333334,114.4284074074074,108.75,114.41541666666667C111.16666666666667,114.40242592592593,113.58333333333333,114.38943518518519,116,114.37644444444445C118.41666666666667,114.3634537037037,120.83333333333334,114.35046296296296,123.25000000000001,114.33747222222222C125.66666666666667,114.32448148148148,128.08333333333334,114.31149074074074,130.5,114.2985C132.91666666666666,114.28550925925926,135.33333333333334,114.27251851851851,137.75,114.25952777777778C140.16666666666666,114.24653703703704,142.58333333333334,114.2335462962963,145,114.22055555555556C147.41666666666666,114.20756481481483,149.83333333333334,114.19457407407408,152.25,114.18158333333334C154.66666666666666,114.16859259259259,157.08333333333334,114.15560185185184,159.5,114.14261111111111C161.91666666666666,114.12962037037038,164.33333333333334,114.11662962962963,166.75,114.1036388888889C169.16666666666666,114.09064814814816,171.58333333333334,114.07765740740741,174,114.06466666666667C176.41666666666666,114.05167592592592,178.83333333333334,114.03868518518517,181.25,114.02569444444444C183.66666666666666,114.0127037037037,186.08333333333334,113.99971296296296,188.5,113.98672222222223C190.91666666666666,113.9737314814815,193.33333333333334,113.96074074074075,195.75,113.94775C198.16666666666669,113.93475925925925,200.58333333333334,113.92176851851852,203.00000000000003,113.90877777777777C205.41666666666669,113.89578703703704,207.83333333333331,113.88279629629629,210.24999999999997,113.86980555555556C212.66666666666666,113.85681481481481,215.08333333333331,113.84382407407408,217.5,113.83083333333333C219.91666666666666,113.8178425925926,222.33333333333334,113.80485185185185,224.75,113.79186111111112C227.16666666666666,113.77887037037038,229.58333333333334,113.76587962962964,232,113.75288888888889C234.41666666666666,113.73989814814814,236.83333333333334,113.7269074074074,239.25,113.71391666666666C241.66666666666669,113.70092592592592,244.08333333333334,113.6879351851852,246.50000000000003,113.67494444444445C248.91666666666669,113.66195370370372,251.33333333333331,113.64896296296295,253.74999999999997,113.63597222222222C256.16666666666663,113.62298148148147,258.5833333333333,113.60999074074076,261,113.59700000000001C263.4166666666667,113.58400925925928,265.8333333333333,113.57101851851853,268.25,113.55802777777778C270.6666666666667,113.54503703703703,273.0833333333333,113.53204629629629,275.5,113.51905555555555C277.9166666666667,113.50606481481482,280.3333333333333,113.49307407407407,282.75,113.48008333333334C285.1666666666667,113.4670925925926,287.5833333333333,113.45410185185186,290,113.44111111111111C292.4166666666667,113.42812037037037,294.8333333333333,113.41512962962962,297.25,113.40213888888889C299.6666666666667,113.38914814814815,302.0833333333333,113.3761574074074,304.5,113.36316666666667C306.9166666666667,113.35017592592594,309.3333333333333,113.33718518518519,311.75,113.32419444444444C314.1666666666667,113.3112037037037,316.5833333333333,113.29821296296295,319,113.28522222222222C321.4166666666667,113.27223148148148,323.8333333333333,113.25924074074074,326.25,113.24625C328.6666666666667,113.23325925925927,331.0833333333333,113.22026851851851,333.5,113.20727777777778C335.9166666666667,113.19428703703704,338.3333333333333,113.1812962962963,340.75,113.16830555555556C343.1666666666667,113.15531481481483,345.5833333333333,113.14232407407408,348,113.12933333333334C350.4166666666667,113.11634259259259,352.8333333333333,113.10335185185184,355.25,113.09036111111111C357.6666666666667,113.07737037037037,360.0833333333333,113.06437962962963,362.5,113.0513888888889C364.9166666666667,113.03839814814816,367.3333333333333,113.0254074074074,369.75,113.01241666666667C372.1666666666667,112.99942592592593,374.5833333333333,112.98643518518519,377,112.97344444444445C379.4166666666667,112.96045370370372,381.8333333333333,112.94746296296297,384.25,112.93447222222223C386.6666666666667,112.92148148148148,389.0833333333333,112.90849074074073,391.5,112.8955C393.9166666666667,112.88250925925925,396.33333333333337,112.86951851851853,398.75000000000006,112.85652777777779C401.16666666666674,112.84353703703705,403.58333333333337,112.8305462962963,406.00000000000006,112.81755555555556C408.4166666666667,112.80456481481481,410.8333333333333,112.79157407407406,413.24999999999994,112.77858333333333C415.66666666666663,112.76559259259258,418.08333333333326,112.75260185185185,420.49999999999994,112.73961111111112C422.91666666666663,112.72662037037037,425.3333333333333,112.71362962962964,427.75,112.70063888888889C430.1666666666667,112.68764814814814,432.5833333333333,112.6746574074074,435,112.66166666666666C437.4166666666667,112.64867592592593,439.8333333333333,112.63568518518518,442.25,112.62269444444445C444.6666666666667,112.60970370370372,447.0833333333333,112.59671296296295,449.5,112.58372222222222C451.9166666666667,112.57073148148149,454.3333333333333,112.55774074074074,456.75,112.54475000000001C459.1666666666667,112.53175925925927,461.5833333333333,112.51876851851853,464,112.50577777777778C466.4166666666667,112.49278703703703,468.8333333333333,112.47979629629629,471.25,112.46680555555555C473.6666666666667,112.45381481481482,476.0833333333333,112.44082407407407,478.5,112.42783333333334C480.9166666666667,112.41484259259259,483.33333333333337,112.40185185185186,485.75000000000006,112.38886111111111C488.16666666666674,112.37587037037038,490.58333333333337,112.36287962962965,493.00000000000006,112.3498888888889C495.4166666666667,112.33689814814817,497.8333333333333,112.32390740740742,500.24999999999994,112.31091666666667C502.66666666666663,112.29792592592592,505.08333333333326,112.28493518518518,507.49999999999994,112.27194444444444C509.91666666666663,112.2589537037037,512.3333333333333,112.24596296296298,514.75,112.23297222222223C517.1666666666666,112.2199814814815,519.5833333333334,112.20699074074075,522,112.194C524.4166666666666,112.18100925925926,526.8333333333334,112.16801851851851,529.25,112.15502777777778C531.6666666666666,112.14203703703704,534.0833333333334,112.1290462962963,536.5,112.11605555555556C538.9166666666666,112.10306481481483,541.3333333333334,112.09007407407408,543.75,112.07708333333333C546.1666666666666,112.06409259259259,548.5833333333334,112.05110185185184,551,112.0381111111111C553.4166666666666,112.02512037037037,555.8333333333334,112.01212962962963,558.25,111.9991388888889C560.6666666666666,111.98614814814816,563.0833333333334,111.9731574074074,565.5,111.96016666666667C567.9166666666666,111.94717592592593,570.3333333333334,111.93418518518519,572.75,111.92119444444445C575.1666666666666,111.90820370370372,577.5833333333334,111.89521296296297,580,111.88222222222223C582.4166666666666,111.86923148148148,584.8333333333334,111.85624074074073,587.25,111.84325C589.6666666666666,111.83025925925926,592.0833333333334,111.81726851851852,594.5,111.80427777777778C596.9166666666666,111.79128703703705,599.3333333333334,111.77829629629629,601.75,111.76530555555556C604.1666666666666,111.75231481481482,606.5833333333334,111.73932407407408,609,111.72633333333334C611.4166666666666,111.71334259259261,613.8333333333334,111.70035185185186,616.25,111.68736111111112C618.6666666666666,111.67437037037037,621.0833333333334,111.66137962962962,623.5,111.64838888888889C625.9166666666666,111.63539814814816,628.3333333333334,111.62240740740741,630.75,111.60941666666668C633.1666666666666,111.59642592592594,635.5833333333334,111.5834351851852,638,111.57044444444445C640.4166666666666,111.5574537037037,642.8333333333334,111.54446296296295,645.25,111.53147222222222C647.6666666666666,111.51848148148149,650.0833333333334,111.50549074074074,652.5,111.4925C654.9166666666666,111.47950925925927,657.3333333333334,111.46651851851853,659.75,111.45352777777778C662.1666666666666,111.44053703703703,664.5833333333334,111.42754629629628,667,111.41455555555555C669.4166666666666,111.40156481481482,671.8333333333334,111.38857407407407,674.25,111.37558333333334C676.6666666666666,111.3625925925926,679.0833333333334,111.34960185185184,681.5,111.33661111111111C683.9166666666666,111.32362037037038,686.3333333333334,111.31062962962963,688.75,111.2976388888889C691.1666666666666,111.28464814814816,693.5833333333334,111.27165740740742,696,111.25866666666667C698.4166666666666,111.24567592592592,700.8333333333334,111.23268518518518,703.25,111.21969444444444C705.6666666666666,111.20670370370371,708.0833333333334,111.19371296296296,710.5,111.18072222222223C712.9166666666666,111.1677314814815,715.3333333333334,111.15474074074073,717.75,111.14175C720.1666666666666,111.12875925925927,722.5833333333334,111.11576851851852,725,111.10277777777779C727.4166666666666,111.08978703703706,729.8333333333334,111.07679629629631,732.25,111.06380555555556C734.6666666666666,111.05081481481481,737.0833333333334,111.03782407407407,739.5,111.02483333333333C741.9166666666666,111.0118425925926,744.3333333333334,110.99885185185185,746.75,110.98586111111112C749.1666666666666,110.97287037037039,751.5833333333334,110.95987962962964,754,110.94688888888889C756.4166666666666,110.93389814814815,758.8333333333334,110.9209074074074,761.25,110.90791666666667C763.6666666666666,110.89492592592593,766.0833333333334,110.88193518518518,768.5,110.86894444444445C770.9166666666666,110.85595370370372,773.3333333333334,110.84296296296297,775.75,110.82997222222222C778.1666666666666,110.81698148148148,780.5833333333334,110.80399074074073,783,110.791C785.4166666666667,110.77800925925925,787.8333333333334,110.76501851851853,790.2500000000001,110.75202777777778C792.6666666666667,110.73903703703705,795.0833333333335,110.72604629629629,797.5000000000001,110.71305555555556C799.9166666666667,110.70006481481482,802.3333333333335,110.68707407407408,804.7500000000001,110.67408333333334C807.1666666666667,110.66109259259261,809.5833333333335,110.64810185185186,812.0000000000001,110.63511111111112C814.4166666666667,110.62212037037037,816.8333333333333,110.60912962962962,819.2499999999999,110.59613888888889C821.6666666666665,110.58314814814814,824.0833333333333,110.57015740740741,826.4999999999999,110.55716666666667C828.9166666666665,110.54417592592594,831.3333333333333,110.53118518518518,833.7499999999999,110.51819444444445C836.1666666666665,110.50520370370371,838.5833333333333,110.49221296296297,840.9999999999999,110.47922222222223C843.4166666666666,110.46623148148149,845.8333333333333,110.45324074074075,848.25,110.44025C850.6666666666666,110.42725925925926,853.0833333333334,110.41426851851851,855.5,110.40127777777778C857.9166666666666,110.38828703703705,860.3333333333334,110.3752962962963,862.75,110.36230555555557C865.1666666666666,110.34931481481483,867.5833333333334,110.33632407407408,870,110.32333333333334C872.4166666666666,110.31034259259259,874.8333333333334,110.29735185185184,877.25,110.28436111111111C879.6666666666666,110.27137037037038,882.0833333333334,110.25837962962963,884.5,110.2453888888889C886.9166666666666,110.23239814814816,889.3333333333334,110.21940740740742,891.75,110.20641666666667C894.1666666666666,110.19342592592592,896.5833333333334,110.18043518518517,899,110.16744444444444C901.4166666666666,110.15445370370371,903.8333333333334,110.14146296296296,906.25,110.12847222222223C908.6666666666666,110.1154814814815,911.0833333333334,110.10249074074073,913.5,110.0895C915.9166666666666,110.07650925925927,918.3333333333334,110.06351851851852,920.75,110.05052777777779C923.1666666666666,110.03753703703705,925.5833333333334,110.02454629629631,928,110.01155555555556C930.4166666666666,109.99856481481481,932.8333333333334,109.98557407407407,935.25,109.97258333333333C937.6666666666666,109.9595925925926,940.0833333333334,109.94660185185185,942.5,109.93361111111112C944.9166666666666,109.92062037037039,947.3333333333334,109.90762962962962,949.75,109.89463888888889C952.1666666666666,109.88164814814816,954.5833333333334,109.86865740740741,957,109.85566666666668C959.4166666666666,109.84267592592595,961.8333333333334,109.8296851851852,964.25,109.81669444444445C966.6666666666667,109.8037037037037,969.0833333333334,109.79071296296297,971.5000000000001,109.77772222222222C973.9166666666667,109.76473148148149,976.3333333333335,109.75174074074074,978.7500000000001,109.73875000000001C981.1666666666667,109.72575925925928,983.5833333333335,109.71276851851853,986.0000000000001,109.69977777777778C988.4166666666667,109.68678703703704,990.8333333333335,109.6737962962963,993.2500000000001,109.66080555555556C995.6666666666667,109.64781481481482,998.0833333333333,109.63482407407407,1000.4999999999999,109.62183333333334C1002.9166666666665,109.6088425925926,1005.3333333333333,109.59585185185186,1007.7499999999999,109.58286111111111C1010.1666666666665,109.56987037037037,1012.5833333333333,109.55687962962962,1014.9999999999999,109.54388888888889C1017.4166666666665,109.53089814814815,1019.8333333333333,109.5179074074074,1022.2499999999999,109.50491666666667C1024.6666666666665,109.49192592592593,1027.0833333333333,109.4789351851852,1029.5,109.46594444444445C1031.9166666666667,109.45295370370371,1034.3333333333333,109.43996296296297,1036.75,109.42697222222223C1039.1666666666667,109.4139814814815,1041.5833333333333,109.40099074074075,1044,109.388C1046.4166666666667,109.37500925925926,1048.8333333333333,109.36201851851851,1051.25,109.34902777777778C1053.6666666666667,109.33603703703704,1056.0833333333333,109.3230462962963,1058.5,109.31005555555556C1060.9166666666667,109.29706481481483,1063.3333333333333,109.28407407407407,1065.75,109.27108333333334C1068.1666666666667,109.2580925925926,1070.5833333333333,109.24510185185186,1073,109.23211111111112C1075.4166666666667,109.21912037037039,1077.8333333333333,109.20612962962964,1080.25,109.1931388888889C1082.6666666666667,109.18014814814815,1085.0833333333333,109.18014814814815,1087.5,109.15416666666667C1089.9166666666667,109.12818518518519,1092.3333333333333,107.87638888888888,1094.75,107.2375C1097.1666666666667,106.59861111111111,1099.5833333333333,105.95972222222221,1102,105.32083333333333C1104.4166666666667,104.68194444444444,1106.8333333333333,104.04305555555555,1109.25,103.40416666666667C1111.6666666666667,102.76527777777778,1114.0833333333333,102.1263888888889,1116.5,101.48750000000001C1118.9166666666667,100.84861111111113,1121.3333333333333,100.20972222222223,1123.75,99.57083333333334C1126.1666666666667,98.93194444444445,1128.5833333333333,98.29305555555555,1131,97.65416666666667C1133.4166666666667,97.01527777777778,1135.8333333333333,96.37638888888888,1138.25,95.7375C1140.6666666666667,95.09861111111111,1143.0833333333333,94.45972222222221,1145.5,93.82083333333333C1147.9166666666667,93.18194444444444,1150.3333333333333,92.54305555555555,1152.75,91.90416666666667C1155.1666666666667,91.26527777777778,1157.5833333333333,90.62638888888888,1160,89.9875C1162.4166666666667,89.34861111111111,1164.8333333333333,88.70972222222223,1167.25,88.07083333333334C1169.6666666666667,87.43194444444445,1172.0833333333333,86.79305555555557,1174.5,86.15416666666668C1176.9166666666667,85.5152777777778,1179.3333333333333,84.87638888888888,1181.75,84.2375C1184.1666666666667,83.59861111111111,1186.5833333333333,82.95972222222221,1189,82.32083333333333C1191.4166666666667,81.68194444444444,1193.8333333333333,81.04305555555555,1196.25,80.40416666666667C1198.6666666666667,79.76527777777778,1201.0833333333333,79.12638888888888,1203.5,78.4875C1205.9166666666667,77.84861111111111,1208.3333333333333,77.20972222222221,1210.75,76.57083333333333C1213.1666666666667,75.93194444444444,1215.5833333333333,75.29305555555555,1218,74.65416666666667C1220.4166666666667,74.01527777777778,1222.8333333333333,73.3763888888889,1225.25,72.73750000000001C1227.6666666666667,72.09861111111113,1230.0833333333333,71.45972222222223,1232.5,70.82083333333334C1234.9166666666667,70.18194444444445,1237.3333333333333,69.54305555555555,1239.75,68.90416666666667C1242.1666666666667,68.26527777777778,1244.5833333333333,67.62638888888888,1247,66.9875C1249.4166666666667,66.34861111111111,1251.8333333333333,65.70972222222221,1254.25,65.07083333333333C1256.6666666666667,64.43194444444444,1259.0833333333333,63.79305555555554,1261.5,63.154166666666654C1263.9166666666667,62.51527777777777,1266.3333333333333,61.87638888888888,1268.75,61.2375C1271.1666666666667,60.59861111111111,1273.5833333333333,59.959722222222226,1276,59.32083333333334C1278.4166666666667,58.681944444444454,1280.8333333333333,58.04305555555557,1283.25,57.404166666666676C1285.6666666666667,56.76527777777778,1288.0833333333333,56.12638888888889,1290.5,55.487500000000004C1292.9166666666667,54.84861111111112,1295.3333333333333,54.20972222222224,1297.75,53.57083333333335C1300.1666666666667,52.931944444444454,1302.5833333333333,52.293055555555554,1305,51.65416666666666C1307.4166666666667,51.01527777777777,1309.8333333333333,50.376388888888876,1312.25,49.73749999999999C1314.6666666666667,49.098611111111104,1317.0833333333333,48.459722222222226,1319.5,47.82083333333334C1321.9166666666667,47.181944444444454,1324.3333333333333,46.543055555555554,1326.75,45.90416666666667C1329.1666666666667,45.26527777777778,1331.5833333333333,44.6263888888889,1334,43.987500000000004C1336.4166666666667,43.34861111111111,1338.8333333333333,42.709722222222226,1341.25,42.07083333333333C1343.6666666666667,41.43194444444444,1346.0833333333333,40.793055555555554,1348.5,40.15416666666666C1350.9166666666667,39.51527777777777,1353.3333333333333,38.876388888888876,1355.75,38.23749999999999C1358.1666666666667,37.598611111111104,1360.5833333333333,36.959722222222226,1363,36.32083333333334C1365.4166666666667,35.681944444444454,1367.8333333333333,35.043055555555554,1370.25,34.40416666666667C1372.6666666666667,33.76527777777778,1375.0833333333333,33.1263888888889,1377.5,32.48750000000001C1379.9166666666667,31.848611111111122,1382.3333333333333,31.209722222222226,1384.75,30.570833333333336C1387.1666666666667,29.931944444444447,1389.5833333333333,29.293055555555554,1392,28.654166666666665C1394.4166666666667,28.015277777777776,1396.8333333333333,27.376388888888876,1399.25,26.73749999999999C1401.6666666666667,26.098611111111104,1404.0833333333333,25.45972222222223,1406.5,24.820833333333344C1408.9166666666667,24.181944444444458,1411.3333333333333,23.54305555555556,1413.75,22.904166666666672C1416.1666666666667,22.265277777777783,1418.5833333333333,21.62638888888889,1421,20.9875C1423.4166666666667,20.34861111111111,1425.8333333333333,19.70972222222223,1428.25,19.07083333333334C1430.6666666666667,18.43194444444445,1433.0833333333333,17.793055555555558,1435.5,17.15416666666667C1437.9166666666667,16.51527777777778,1440.3333333333333,15.876388888888897,1442.75,15.237500000000008C1445.1666666666667,14.598611111111119,1447.5833333333333,13.959722222222227,1450,13.320833333333335" fill="transparent" stroke-linecap="round" stroke="#B6509E" stroke-width="2"></path><path class="visx-linepath" d="M0,107.2375C2.4166666666666665,107.2375,4.833333333333334,107.2375,7.25,107.2375C9.666666666666666,107.2375,12.083333333333334,107.2375,14.5,107.2375C16.916666666666668,107.2375,19.333333333333332,107.2375,21.75,107.2375C24.166666666666668,107.2375,26.583333333333332,107.2375,29,107.2375C31.416666666666668,107.2375,33.833333333333336,107.2375,36.25,107.2375C38.666666666666664,107.2375,41.083333333333336,107.2375,43.5,107.2375C45.91666666666667,107.2375,48.333333333333336,107.2375,50.75000000000001,107.2375C53.16666666666667,107.2375,55.583333333333336,107.2375,58,107.2375C60.416666666666664,107.2375,62.833333333333336,107.2375,65.25,107.2375C67.66666666666667,107.2375,70.08333333333333,107.2375,72.5,107.2375C74.91666666666667,107.2375,77.33333333333333,107.2375,79.75,107.2375C82.16666666666667,107.2375,84.58333333333333,107.2375,87,107.2375C89.41666666666667,107.2375,91.83333333333333,107.2375,94.25,107.2375C96.66666666666667,107.2375,99.08333333333334,107.2375,101.50000000000001,107.2375C103.91666666666667,107.2375,106.33333333333334,107.2375,108.75,107.2375C111.16666666666667,107.2375,113.58333333333333,107.2375,116,107.2375C118.41666666666667,107.2375,120.83333333333334,107.2375,123.25000000000001,107.2375C125.66666666666667,107.2375,128.08333333333334,107.2375,130.5,107.2375C132.91666666666666,107.2375,135.33333333333334,107.2375,137.75,107.2375C140.16666666666666,107.2375,142.58333333333334,107.2375,145,107.2375C147.41666666666666,107.2375,149.83333333333334,107.2375,152.25,107.2375C154.66666666666666,107.2375,157.08333333333334,107.2375,159.5,107.2375C161.91666666666666,107.2375,164.33333333333334,107.2375,166.75,107.2375C169.16666666666666,107.2375,171.58333333333334,107.2375,174,107.2375C176.41666666666666,107.2375,178.83333333333334,107.2375,181.25,107.2375C183.66666666666666,107.2375,186.08333333333334,107.2375,188.5,107.2375C190.91666666666666,107.2375,193.33333333333334,107.2375,195.75,107.2375C198.16666666666669,107.2375,200.58333333333334,107.2375,203.00000000000003,107.2375C205.41666666666669,107.2375,207.83333333333331,107.2375,210.24999999999997,107.2375C212.66666666666666,107.2375,215.08333333333331,107.2375,217.5,107.2375C219.91666666666666,107.2375,222.33333333333334,107.2375,224.75,107.2375C227.16666666666666,107.2375,229.58333333333334,107.2375,232,107.2375C234.41666666666666,107.2375,236.83333333333334,107.2375,239.25,107.2375C241.66666666666669,107.2375,244.08333333333334,107.2375,246.50000000000003,107.2375C248.91666666666669,107.2375,251.33333333333331,107.2375,253.74999999999997,107.2375C256.16666666666663,107.2375,258.5833333333333,107.2375,261,107.2375C263.4166666666667,107.2375,265.8333333333333,107.2375,268.25,107.2375C270.6666666666667,107.2375,273.0833333333333,107.2375,275.5,107.2375C277.9166666666667,107.2375,280.3333333333333,107.2375,282.75,107.2375C285.1666666666667,107.2375,287.5833333333333,107.2375,290,107.2375C292.4166666666667,107.2375,294.8333333333333,107.2375,297.25,107.2375C299.6666666666667,107.2375,302.0833333333333,107.2375,304.5,107.2375C306.9166666666667,107.2375,309.3333333333333,107.2375,311.75,107.2375C314.1666666666667,107.2375,316.5833333333333,107.2375,319,107.2375C321.4166666666667,107.2375,323.8333333333333,107.2375,326.25,107.2375C328.6666666666667,107.2375,331.0833333333333,107.2375,333.5,107.2375C335.9166666666667,107.2375,338.3333333333333,107.2375,340.75,107.2375C343.1666666666667,107.2375,345.5833333333333,107.2375,348,107.2375C350.4166666666667,107.2375,352.8333333333333,107.2375,355.25,107.2375C357.6666666666667,107.2375,360.0833333333333,107.2375,362.5,107.2375C364.9166666666667,107.2375,367.3333333333333,107.2375,369.75,107.2375C372.1666666666667,107.2375,374.5833333333333,107.2375,377,107.2375C379.4166666666667,107.2375,381.8333333333333,107.2375,384.25,107.2375C386.6666666666667,107.2375,389.0833333333333,107.2375,391.5,107.2375C393.9166666666667,107.2375,396.33333333333337,107.2375,398.75000000000006,107.2375C401.16666666666674,107.2375,403.58333333333337,107.2375,406.00000000000006,107.2375C408.4166666666667,107.2375,410.8333333333333,107.2375,413.24999999999994,107.2375C415.66666666666663,107.2375,418.08333333333326,107.2375,420.49999999999994,107.2375C422.91666666666663,107.2375,425.3333333333333,107.2375,427.75,107.2375C430.1666666666667,107.2375,432.5833333333333,107.2375,435,107.2375C437.4166666666667,107.2375,439.8333333333333,107.2375,442.25,107.2375C444.6666666666667,107.2375,447.0833333333333,107.2375,449.5,107.2375C451.9166666666667,107.2375,454.3333333333333,107.2375,456.75,107.2375C459.1666666666667,107.2375,461.5833333333333,107.2375,464,107.2375C466.4166666666667,107.2375,468.8333333333333,107.2375,471.25,107.2375C473.6666666666667,107.2375,476.0833333333333,107.2375,478.5,107.2375C480.9166666666667,107.2375,483.33333333333337,107.2375,485.75000000000006,107.2375C488.16666666666674,107.2375,490.58333333333337,107.2375,493.00000000000006,107.2375C495.4166666666667,107.2375,497.8333333333333,107.2375,500.24999999999994,107.2375C502.66666666666663,107.2375,505.08333333333326,107.2375,507.49999999999994,107.2375C509.91666666666663,107.2375,512.3333333333333,107.2375,514.75,107.2375C517.1666666666666,107.2375,519.5833333333334,107.2375,522,107.2375C524.4166666666666,107.2375,526.8333333333334,107.2375,529.25,107.2375C531.6666666666666,107.2375,534.0833333333334,107.2375,536.5,107.2375C538.9166666666666,107.2375,541.3333333333334,107.2375,543.75,107.2375C546.1666666666666,107.2375,548.5833333333334,107.2375,551,107.2375C553.4166666666666,107.2375,555.8333333333334,107.2375,558.25,107.2375C560.6666666666666,107.2375,563.0833333333334,107.2375,565.5,107.2375C567.9166666666666,107.2375,570.3333333333334,107.2375,572.75,107.2375C575.1666666666666,107.2375,577.5833333333334,107.2375,580,107.2375C582.4166666666666,107.2375,584.8333333333334,107.2375,587.25,107.2375C589.6666666666666,107.2375,592.0833333333334,107.2375,594.5,107.2375C596.9166666666666,107.2375,599.3333333333334,107.2375,601.75,107.2375C604.1666666666666,107.2375,606.5833333333334,107.2375,609,107.2375C611.4166666666666,107.2375,613.8333333333334,107.2375,616.25,107.2375C618.6666666666666,107.2375,621.0833333333334,107.2375,623.5,107.2375C625.9166666666666,107.2375,628.3333333333334,107.2375,630.75,107.2375C633.1666666666666,107.2375,635.5833333333334,107.2375,638,107.2375C640.4166666666666,107.2375,642.8333333333334,107.2375,645.25,107.2375C647.6666666666666,107.2375,650.0833333333334,107.2375,652.5,107.2375C654.9166666666666,107.2375,657.3333333333334,107.2375,659.75,107.2375C662.1666666666666,107.2375,664.5833333333334,107.2375,667,107.2375C669.4166666666666,107.2375,671.8333333333334,107.2375,674.25,107.2375C676.6666666666666,107.2375,679.0833333333334,107.2375,681.5,107.2375C683.9166666666666,107.2375,686.3333333333334,107.2375,688.75,107.2375C691.1666666666666,107.2375,693.5833333333334,107.2375,696,107.2375C698.4166666666666,107.2375,700.8333333333334,107.2375,703.25,107.2375C705.6666666666666,107.2375,708.0833333333334,107.2375,710.5,107.2375C712.9166666666666,107.2375,715.3333333333334,107.2375,717.75,107.2375C720.1666666666666,107.2375,722.5833333333334,107.2375,725,107.2375C727.4166666666666,107.2375,729.8333333333334,107.2375,732.25,107.2375C734.6666666666666,107.2375,737.0833333333334,107.2375,739.5,107.2375C741.9166666666666,107.2375,744.3333333333334,107.2375,746.75,107.2375C749.1666666666666,107.2375,751.5833333333334,107.2375,754,107.2375C756.4166666666666,107.2375,758.8333333333334,107.2375,761.25,107.2375C763.6666666666666,107.2375,766.0833333333334,107.2375,768.5,107.2375C770.9166666666666,107.2375,773.3333333333334,107.2375,775.75,107.2375C778.1666666666666,107.2375,780.5833333333334,107.2375,783,107.2375C785.4166666666667,107.2375,787.8333333333334,107.2375,790.2500000000001,107.2375C792.6666666666667,107.2375,795.0833333333335,107.2375,797.5000000000001,107.2375C799.9166666666667,107.2375,802.3333333333335,107.2375,804.7500000000001,107.2375C807.1666666666667,107.2375,809.5833333333335,107.2375,812.0000000000001,107.2375C814.4166666666667,107.2375,816.8333333333333,107.2375,819.2499999999999,107.2375C821.6666666666665,107.2375,824.0833333333333,107.2375,826.4999999999999,107.2375C828.9166666666665,107.2375,831.3333333333333,107.2375,833.7499999999999,107.2375C836.1666666666665,107.2375,838.5833333333333,107.2375,840.9999999999999,107.2375C843.4166666666666,107.2375,845.8333333333333,107.2375,848.25,107.2375C850.6666666666666,107.2375,853.0833333333334,107.2375,855.5,107.2375C857.9166666666666,107.2375,860.3333333333334,107.2375,862.75,107.2375C865.1666666666666,107.2375,867.5833333333334,107.2375,870,107.2375C872.4166666666666,107.2375,874.8333333333334,107.2375,877.25,107.2375C879.6666666666666,107.2375,882.0833333333334,107.2375,884.5,107.2375C886.9166666666666,107.2375,889.3333333333334,107.2375,891.75,107.2375C894.1666666666666,107.2375,896.5833333333334,107.2375,899,107.2375C901.4166666666666,107.2375,903.8333333333334,107.2375,906.25,107.2375C908.6666666666666,107.2375,911.0833333333334,107.2375,913.5,107.2375C915.9166666666666,107.2375,918.3333333333334,107.2375,920.75,107.2375C923.1666666666666,107.2375,925.5833333333334,107.2375,928,107.2375C930.4166666666666,107.2375,932.8333333333334,107.2375,935.25,107.2375C937.6666666666666,107.2375,940.0833333333334,107.2375,942.5,107.2375C944.9166666666666,107.2375,947.3333333333334,107.2375,949.75,107.2375C952.1666666666666,107.2375,954.5833333333334,107.2375,957,107.2375C959.4166666666666,107.2375,961.8333333333334,107.2375,964.25,107.2375C966.6666666666667,107.2375,969.0833333333334,107.2375,971.5000000000001,107.2375C973.9166666666667,107.2375,976.3333333333335,107.2375,978.7500000000001,107.2375C981.1666666666667,107.2375,983.5833333333335,107.2375,986.0000000000001,107.2375C988.4166666666667,107.2375,990.8333333333335,107.2375,993.2500000000001,107.2375C995.6666666666667,107.2375,998.0833333333333,107.2375,1000.4999999999999,107.2375C1002.9166666666665,107.2375,1005.3333333333333,107.2375,1007.7499999999999,107.2375C1010.1666666666665,107.2375,1012.5833333333333,107.2375,1014.9999999999999,107.2375C1017.4166666666665,107.2375,1019.8333333333333,107.2375,1022.2499999999999,107.2375C1024.6666666666665,107.2375,1027.0833333333333,107.2375,1029.5,107.2375C1031.9166666666667,107.2375,1034.3333333333333,107.2375,1036.75,107.2375C1039.1666666666667,107.2375,1041.5833333333333,107.2375,1044,107.2375C1046.4166666666667,107.2375,1048.8333333333333,107.2375,1051.25,107.2375C1053.6666666666667,107.2375,1056.0833333333333,107.2375,1058.5,107.2375C1060.9166666666667,107.2375,1063.3333333333333,107.2375,1065.75,107.2375C1068.1666666666667,107.2375,1070.5833333333333,107.2375,1073,107.2375C1075.4166666666667,107.2375,1077.8333333333333,107.2375,1080.25,107.2375C1082.6666666666667,107.2375,1085.0833333333333,107.2375,1087.5,107.2375C1089.9166666666667,107.2375,1092.3333333333333,107.2375,1094.75,107.2375C1097.1666666666667,107.2375,1099.5833333333333,107.2375,1102,107.2375C1104.4166666666667,107.2375,1106.8333333333333,107.2375,1109.25,107.2375C1111.6666666666667,107.2375,1114.0833333333333,107.2375,1116.5,107.2375C1118.9166666666667,107.2375,1121.3333333333333,107.2375,1123.75,107.2375C1126.1666666666667,107.2375,1128.5833333333333,107.2375,1131,107.2375C1133.4166666666667,107.2375,1135.8333333333333,107.2375,1138.25,107.2375C1140.6666666666667,107.2375,1143.0833333333333,107.2375,1145.5,107.2375C1147.9166666666667,107.2375,1150.3333333333333,107.2375,1152.75,107.2375C1155.1666666666667,107.2375,1157.5833333333333,107.2375,1160,107.2375C1162.4166666666667,107.2375,1164.8333333333333,107.2375,1167.25,107.2375C1169.6666666666667,107.2375,1172.0833333333333,107.2375,1174.5,107.2375C1176.9166666666667,107.2375,1179.3333333333333,107.2375,1181.75,107.2375C1184.1666666666667,107.2375,1186.5833333333333,107.2375,1189,107.2375C1191.4166666666667,107.2375,1193.8333333333333,107.2375,1196.25,107.2375C1198.6666666666667,107.2375,1201.0833333333333,107.2375,1203.5,107.2375C1205.9166666666667,107.2375,1208.3333333333333,107.2375,1210.75,107.2375C1213.1666666666667,107.2375,1215.5833333333333,107.2375,1218,107.2375C1220.4166666666667,107.2375,1222.8333333333333,107.2375,1225.25,107.2375C1227.6666666666667,107.2375,1230.0833333333333,107.2375,1232.5,107.2375C1234.9166666666667,107.2375,1237.3333333333333,107.2375,1239.75,107.2375C1242.1666666666667,107.2375,1244.5833333333333,107.2375,1247,107.2375C1249.4166666666667,107.2375,1251.8333333333333,107.2375,1254.25,107.2375C1256.6666666666667,107.2375,1259.0833333333333,107.2375,1261.5,107.2375C1263.9166666666667,107.2375,1266.3333333333333,107.2375,1268.75,107.2375C1271.1666666666667,107.2375,1273.5833333333333,107.2375,1276,107.2375C1278.4166666666667,107.2375,1280.8333333333333,107.2375,1283.25,107.2375C1285.6666666666667,107.2375,1288.0833333333333,107.2375,1290.5,107.2375C1292.9166666666667,107.2375,1295.3333333333333,107.2375,1297.75,107.2375C1300.1666666666667,107.2375,1302.5833333333333,107.2375,1305,107.2375C1307.4166666666667,107.2375,1309.8333333333333,107.2375,1312.25,107.2375C1314.6666666666667,107.2375,1317.0833333333333,107.2375,1319.5,107.2375C1321.9166666666667,107.2375,1324.3333333333333,107.2375,1326.75,107.2375C1329.1666666666667,107.2375,1331.5833333333333,107.2375,1334,107.2375C1336.4166666666667,107.2375,1338.8333333333333,107.2375,1341.25,107.2375C1343.6666666666667,107.2375,1346.0833333333333,107.2375,1348.5,107.2375C1350.9166666666667,107.2375,1353.3333333333333,107.2375,1355.75,107.2375C1358.1666666666667,107.2375,1360.5833333333333,107.2375,1363,107.2375C1365.4166666666667,107.2375,1367.8333333333333,107.2375,1370.25,107.2375C1372.6666666666667,107.2375,1375.0833333333333,107.2375,1377.5,107.2375C1379.9166666666667,107.2375,1382.3333333333333,107.2375,1384.75,107.2375C1387.1666666666667,107.2375,1389.5833333333333,107.2375,1392,107.2375C1394.4166666666667,107.2375,1396.8333333333333,107.2375,1399.25,107.2375C1401.6666666666667,107.2375,1404.0833333333333,107.2375,1406.5,107.2375C1408.9166666666667,107.2375,1411.3333333333333,107.2375,1413.75,107.2375C1416.1666666666667,107.2375,1418.5833333333333,107.2375,1421,107.2375C1423.4166666666667,107.2375,1425.8333333333333,107.2375,1428.25,107.2375C1430.6666666666667,107.2375,1433.0833333333333,107.2375,1435.5,107.2375C1437.9166666666667,107.2375,1440.3333333333333,107.2375,1442.75,107.2375C1445.1666666666667,107.2375,1447.5833333333333,107.2375,1450,107.2375" fill="transparent" stroke-linecap="round" stroke="#E7C6DF" stroke-width="2"></path><g class="visx-group visx-axis visx-axis-bottom" transform="translate(0, 115)"><g class="visx-group visx-axis-tick" transform="translate(0, 0)"><line class="visx-line" x1="0" y1="0" x2="0" y2="8" fill="transparent" shape-rendering="crispEdges" stroke="#000" stroke-width="0" stroke-linecap="square"></line><svg x="0" y="0" font-size="10" style="overflow:visible"><text transform="" x="0" y="18" fill="#000" font-size="10" text-anchor="middle"><tspan x="0" dy="0em">0%</tspan></text></svg></g><g class="visx-group visx-axis-tick" transform="translate(0, 0)"><line class="visx-line" x1="362.5" y1="0" x2="362.5" y2="8" fill="transparent" shape-rendering="crispEdges" stroke="#000" stroke-width="0" stroke-linecap="square"></line><svg x="0" y="0" font-size="10" style="overflow:visible"><text transform="" x="362.5" y="18" fill="#000" font-size="10" text-anchor="middle"><tspan x="362.5" dy="0em">25%</tspan></text></svg></g><g class="visx-group visx-axis-tick" transform="translate(0, 0)"><line class="visx-line" x1="725" y1="0" x2="725" y2="8" fill="transparent" shape-rendering="crispEdges" stroke="#000" stroke-width="0" stroke-linecap="square"></line><svg x="0" y="0" font-size="10" style="overflow:visible"><text transform="" x="725" y="18" fill="#000" font-size="10" text-anchor="middle"><tspan x="725" dy="0em">50%</tspan></text></svg></g><g class="visx-group visx-axis-tick" transform="translate(0, 0)"><line class="visx-line" x1="1087.5" y1="0" x2="1087.5" y2="8" fill="transparent" shape-rendering="crispEdges" stroke="#000" stroke-width="0" stroke-linecap="square"></line><svg x="0" y="0" font-size="10" style="overflow:visible"><text transform="" x="1087.5" y="18" fill="#000" font-size="10" text-anchor="middle"><tspan x="1087.5" dy="0em">75%</tspan></text></svg></g><g class="visx-group visx-axis-tick" transform="translate(0, 0)"><line class="visx-line" x1="1450" y1="0" x2="1450" y2="8" fill="transparent" shape-rendering="crispEdges" stroke="#000" stroke-width="0" stroke-linecap="square"></line><svg x="0" y="0" font-size="10" style="overflow:visible"><text transform="" x="1450" y="18" fill="#000" font-size="10" text-anchor="middle"><tspan x="1450" dy="0em">100%</tspan></text></svg></g><line class="visx-line visx-axis-line" x1="0.5" y1="0" x2="1450.5" y2="0" fill="transparent" shape-rendering="crispEdges" stroke="#222" stroke-width="0"></line></g><g class="visx-group visx-axis visx-axis-left" transform="translate(0, 0)"><g class="visx-group visx-axis-tick" transform="translate(0, 0)"><line class="visx-line" x1="0" y1="115" x2="-8" y2="115" fill="transparent" shape-rendering="crispEdges" stroke="#222" stroke-width="0" stroke-linecap="square"></line><svg x="-30" y="0" font-size="8" style="overflow:visible"><text transform="" x="-8" y="115" fill="#000" font-size="8" text-anchor="start"><tspan x="-8" dy="0em">0%</tspan></text></svg></g><g class="visx-group visx-axis-tick" transform="translate(0, 0)"><line class="visx-line" x1="0" y1="67.08333333333333" x2="-8" y2="67.08333333333333" fill="transparent" shape-rendering="crispEdges" stroke="#222" stroke-width="0" stroke-linecap="square"></line><svg x="-30" y="0" font-size="8" style="overflow:visible"><text transform="" x="-8" y="67.08333333333333" fill="#000" font-size="8" text-anchor="start"><tspan x="-8" dy="0em">50%</tspan></text></svg></g><g class="visx-group visx-axis-tick" transform="translate(0, 0)"><line class="visx-line" x1="0" y1="19.16666666666666" x2="-8" y2="19.16666666666666" fill="transparent" shape-rendering="crispEdges" stroke="#222" stroke-width="0" stroke-linecap="square"></line><svg x="-30" y="0" font-size="8" style="overflow:visible"><text transform="" x="-8" y="19.16666666666666" fill="#000" font-size="8" text-anchor="start"><tspan x="-8" dy="0em">100%</tspan></text></svg></g><line class="visx-line visx-axis-line" x1="0" y1="115.5" x2="0" y2="0.5" fill="transparent" shape-rendering="crispEdges" stroke="#222" stroke-width="0"></line></g><rect class="visx-bar" width="1450" height="115" fill="transparent"></rect><line class="visx-line" x1="1087.5" y1="28" x2="1087.5" y2="115" fill="transparent" shape-rendering="crispEdges" stroke="#0062D2" stroke-width="1" pointer-events="none" stroke-dasharray="5,2"></line><svg x="0" y="0" font-size="10px" style="overflow:visible"><text transform="" x="1087.5" y="20" font-size="10px" fill="#fff" stroke="#fff" stroke-width="0.8em" text-anchor="middle"><tspan x="1087.5" dy="0.355em">Optimal 75%</tspan></text></svg><svg x="0" y="0" font-size="10px" style="overflow:visible"><text transform="" x="1087.5" y="20" font-size="10px" fill="#62677B" text-anchor="middle"><tspan x="1087.5" dy="0.355em">Optimal 75%</tspan></text></svg></g></svg>