<?xml version="1.0"?><svg xmlns="http://www.w3.org/2000/svg" xmlns:xlink= "http://www.w3.org/1999/xlink" style="background: white;" width="1500" height="185"> <g style="color: black; font-size: 13px; font-family: sans-serif; transform: translate(18px, 25px);"><g><circle r="3" cx="-6" cy="-5" style="fill: #B6509E" /><text>Borrow APR, variable</text></g><g style="transform: translateX(150px);"><circle r="3" cx="-6" cy="-5" style="fill: rgb(231, 198, 223)" /><text>Borrow APR, stable</text></g><g style="transform: translateX(290px);"><circle r="3" cx="-6" cy="-5" style="fill: rgb(0, 98, 210)" /><text>Utilization Rate</text></g></g><g class="visx-group" transform="translate(40, 50)"><g class="visx-group visx-rows" transform="translate(0, 0)"><line class="visx-line" x1="0" y1="115" x2="1450" y2="115" fill="transparent" shape-rendering="crispEdges" stroke="#000" stroke-width="1" stroke-dasharray="3,3" pointer-events="none"></line><line class="visx-line" x1="0" y1="82.14285714285714" x2="1450" y2="82.14285714285714" fill="transparent" shape-rendering="crispEdges" stroke="#000" stroke-width="1" stroke-dasharray="3,3" pointer-events="none"></line><line class="visx-line" x1="0" y1="49.28571428571429" x2="1450" y2="49.28571428571429" fill="transparent" shape-rendering="crispEdges" stroke="#000" stroke-width="1" stroke-dasharray="3,3" pointer-events="none"></line><line class="visx-line" x1="0" y1="16.428571428571434" x2="1450" y2="16.428571428571434" fill="transparent" shape-rendering="crispEdges" stroke="#000" stroke-width="1" stroke-dasharray="3,3" pointer-events="none"></line></g><path class="visx-linepath" d="M0,114.99999999997078C2.4166666666666665,114.99513227511524,4.833333333333334,114.99026455025968,7.25,114.98539682539683C9.666666666666666,114.98052910053399,12.083333333333334,114.97566137566137,14.5,114.97079365079365C16.916666666666668,114.96592592592593,19.333333333333332,114.9610582010582,21.75,114.95619047619047C24.166666666666668,114.95132275132275,26.583333333333332,114.94645502645503,29,114.9415873015873C31.416666666666668,114.93671957671958,33.833333333333336,114.93185185185185,36.25,114.92698412698412C38.666666666666664,114.9221164021164,41.083333333333336,114.91724867724868,43.5,114.91238095238096C45.91666666666667,114.90751322751323,48.333333333333336,114.9026455026455,50.75000000000001,114.89777777777778C53.16666666666667,114.89291005291005,55.583333333333336,114.88804232804232,58,114.8831746031746C60.416666666666664,114.87830687830687,62.833333333333336,114.87343915343915,65.25,114.86857142857143C67.66666666666667,114.8637037037037,70.08333333333333,114.85883597883597,72.5,114.85396825396825C74.91666666666667,114.84910052910053,77.33333333333333,114.8442328042328,79.75,114.83936507936508C82.16666666666667,114.83449735449736,84.58333333333333,114.82962962962964,87,114.82476190476191C89.41666666666667,114.81989417989419,91.83333333333333,114.81502645502646,94.25,114.81015873015873C96.66666666666667,114.80529100529101,99.08333333333334,114.80042328042327,101.50000000000001,114.79555555555555C103.91666666666667,114.79068783068783,106.33333333333334,114.78582010582011,108.75,114.78095238095239C111.16666666666667,114.77608465608466,113.58333333333333,114.77121693121693,116,114.7663492063492C118.41666666666667,114.76148148148148,120.83333333333334,114.75661375661376,123.25000000000001,114.75174603174604C125.66666666666667,114.74687830687832,128.08333333333334,114.74201058201058,130.5,114.73714285714286C132.91666666666666,114.73227513227513,135.33333333333334,114.7274074074074,137.75,114.72253968253968C140.16666666666666,114.71767195767195,142.58333333333334,114.71280423280423,145,114.70793650793651C147.41666666666666,114.70306878306879,149.83333333333334,114.69820105820105,152.25,114.69333333333333C154.66666666666666,114.6884656084656,157.08333333333334,114.68359788359788,159.5,114.67873015873016C161.91666666666666,114.67386243386244,164.33333333333334,114.66899470899472,166.75,114.664126984127C169.16666666666666,114.65925925925927,171.58333333333334,114.65439153439152,174,114.6495238095238C176.41666666666666,114.64465608465608,178.83333333333334,114.63978835978835,181.25,114.63492063492063C183.66666666666666,114.63005291005291,186.08333333333334,114.62518518518519,188.5,114.62031746031747C190.91666666666666,114.61544973544974,193.33333333333334,114.61058201058201,195.75,114.60571428571428C198.16666666666669,114.60084656084656,200.58333333333334,114.59597883597884,203.00000000000003,114.59111111111112C205.41666666666669,114.5862433862434,207.83333333333331,114.58137566137566,210.24999999999997,114.57650793650794C212.66666666666666,114.57164021164022,215.08333333333331,114.56677248677248,217.5,114.56190476190476C219.91666666666666,114.55703703703703,222.33333333333334,114.55216931216931,224.75,114.54730158730159C227.16666666666666,114.54243386243387,229.58333333333334,114.53756613756613,232,114.53269841269841C234.41666666666666,114.52783068783069,236.83333333333334,114.52296296296296,239.25,114.51809523809524C241.66666666666669,114.51322751322752,244.08333333333334,114.5083597883598,246.50000000000003,114.50349206349208C248.91666666666669,114.49862433862435,251.33333333333331,114.4937566137566,253.74999999999997,114.48888888888888C256.16666666666663,114.48402116402116,258.5833333333333,114.47915343915344,261,114.47428571428571C263.4166666666667,114.46941798941799,265.8333333333333,114.46455026455027,268.25,114.45968253968255C270.6666666666667,114.45481481481482,273.0833333333333,114.44994708994709,275.5,114.44507936507937C277.9166666666667,114.44021164021164,280.3333333333333,114.43534391534392,282.75,114.4304761904762C285.1666666666667,114.42560846560848,287.5833333333333,114.42074074074073,290,114.415873015873C292.4166666666667,114.41100529100528,294.8333333333333,114.40613756613756,297.25,114.40126984126984C299.6666666666667,114.39640211640211,302.0833333333333,114.39153439153439,304.5,114.38666666666667C306.9166666666667,114.38179894179895,309.3333333333333,114.37693121693121,311.75,114.37206349206349C314.1666666666667,114.36719576719577,316.5833333333333,114.36232804232804,319,114.35746031746032C321.4166666666667,114.3525925925926,323.8333333333333,114.34772486772486,326.25,114.34285714285714C328.6666666666667,114.33798941798942,331.0833333333333,114.33312169312168,333.5,114.32825396825396C335.9166666666667,114.32338624338624,338.3333333333333,114.31851851851852,340.75,114.3136507936508C343.1666666666667,114.30878306878307,345.5833333333333,114.30391534391535,348,114.29904761904763C350.4166666666667,114.2941798941799,352.8333333333333,114.28931216931217,355.25,114.28444444444445C357.6666666666667,114.27957671957672,360.0833333333333,114.27470899470899,362.5,114.26984126984127C364.9166666666667,114.26497354497354,367.3333333333333,114.2601058201058,369.75,114.25523809523808C372.1666666666667,114.25037037037036,374.5833333333333,114.24550264550264,377,114.24063492063492C379.4166666666667,114.2357671957672,381.8333333333333,114.23089947089947,384.25,114.22603174603175C386.6666666666667,114.22116402116403,389.0833333333333,114.21629629629629,391.5,114.21142857142857C393.9166666666667,114.20656084656085,396.33333333333337,114.20169312169313,398.75000000000006,114.1968253968254C401.16666666666674,114.19195767195768,403.58333333333337,114.18708994708994,406.00000000000006,114.18222222222222C408.4166666666667,114.1773544973545,410.8333333333333,114.17248677248676,413.24999999999994,114.16761904761904C415.66666666666663,114.16275132275132,418.08333333333326,114.1578835978836,420.49999999999994,114.15301587301587C422.91666666666663,114.14814814814815,425.3333333333333,114.14328042328043,427.75,114.13841269841271C430.1666666666667,114.13354497354499,432.5833333333333,114.12867724867725,435,114.12380952380953C437.4166666666667,114.1189417989418,439.8333333333333,114.11407407407407,442.25,114.10920634920635C444.6666666666667,114.10433862433862,447.0833333333333,114.09947089947089,449.5,114.09460317460317C451.9166666666667,114.08973544973544,454.3333333333333,114.08486772486772,456.75,114.08C459.1666666666667,114.07513227513228,461.5833333333333,114.07026455026455,464,114.06539682539683C466.4166666666667,114.06052910052911,468.8333333333333,114.05566137566137,471.25,114.05079365079365C473.6666666666667,114.04592592592593,476.0833333333333,114.04105820105819,478.5,114.03619047619047C480.9166666666667,114.03132275132275,483.33333333333337,114.02645502645503,485.75000000000006,114.0215873015873C488.16666666666674,114.01671957671958,490.58333333333337,114.01185185185184,493.00000000000006,114.00698412698412C495.4166666666667,114.0021164021164,497.8333333333333,113.99724867724868,500.24999999999994,113.99238095238096C502.66666666666663,113.98751322751323,505.08333333333326,113.98264550264551,507.49999999999994,113.97777777777779C509.91666666666663,113.97291005291007,512.3333333333333,113.96804232804233,514.75,113.96317460317461C517.1666666666666,113.95830687830689,519.5833333333334,113.95343915343915,522,113.94857142857143C524.4166666666666,113.9437037037037,526.8333333333334,113.93883597883597,529.25,113.93396825396825C531.6666666666666,113.92910052910052,534.0833333333334,113.9242328042328,536.5,113.91936507936508C538.9166666666666,113.91449735449736,541.3333333333334,113.90962962962963,543.75,113.90476190476191C546.1666666666666,113.89989417989419,548.5833333333334,113.89502645502645,551,113.89015873015873C553.4166666666666,113.88529100529101,555.8333333333334,113.88042328042327,558.25,113.87555555555555C560.6666666666666,113.87068783068783,563.0833333333334,113.8658201058201,565.5,113.86095238095238C567.9166666666666,113.85608465608466,570.3333333333334,113.85121693121692,572.75,113.8463492063492C575.1666666666666,113.84148148148148,577.5833333333334,113.83661375661376,580,113.83174603174604C582.4166666666666,113.82687830687831,584.8333333333334,113.82201058201059,587.25,113.81714285714287C589.6666666666666,113.81227513227515,592.0833333333334,113.8074074074074,594.5,113.80253968253967C596.9166666666666,113.79767195767195,599.3333333333334,113.79280423280423,601.75,113.78793650793651C604.1666666666666,113.78306878306879,606.5833333333334,113.77820105820105,609,113.77333333333333C611.4166666666666,113.7684656084656,613.8333333333334,113.76359788359788,616.25,113.75873015873016C618.6666666666666,113.75386243386244,621.0833333333334,113.74899470899472,623.5,113.74412698412699C625.9166666666666,113.73925925925927,628.3333333333334,113.73439153439153,630.75,113.72952380952381C633.1666666666666,113.72465608465609,635.5833333333334,113.71978835978835,638,113.71492063492063C640.4166666666666,113.71005291005291,642.8333333333334,113.70518518518519,645.25,113.70031746031746C647.6666666666666,113.69544973544974,650.0833333333334,113.69544973544974,652.5,113.68571428571428C654.9166666666666,113.67597883597882,657.3333333333334,113.08831168831169,659.75,112.78961038961039C662.1666666666666,112.49090909090908,664.5833333333334,112.1922077922078,667,111.8935064935065C669.4166666666666,111.59480519480519,671.8333333333334,111.2961038961039,674.25,110.9974025974026C676.6666666666666,110.6987012987013,679.0833333333334,110.4,681.5,110.1012987012987C683.9166666666666,109.8025974025974,686.3333333333334,109.50389610389611,688.75,109.20519480519481C691.1666666666666,108.9064935064935,693.5833333333334,108.6077922077922,696,108.3090909090909C698.4166666666666,108.0103896103896,700.8333333333334,107.71168831168829,703.25,107.412987012987C705.6666666666666,107.11428571428571,708.0833333333334,106.81558441558442,710.5,106.51688311688312C712.9166666666666,106.21818181818182,715.3333333333334,105.91948051948052,717.75,105.62077922077921C720.1666666666666,105.32207792207791,722.5833333333334,105.02337662337663,725,104.72467532467533C727.4166666666666,104.42597402597403,729.8333333333334,104.12727272727273,732.25,103.82857142857142C734.6666666666666,103.52987012987012,737.0833333333334,103.23116883116883,739.5,102.93246753246754C741.9166666666666,102.63376623376625,744.3333333333334,102.33506493506495,746.75,102.03636363636365C749.1666666666666,101.73766233766234,751.5833333333334,101.43896103896105,754,101.14025974025975C756.4166666666666,100.84155844155845,758.8333333333334,100.54285714285716,761.25,100.24415584415586C763.6666666666666,99.94545454545455,766.0833333333334,99.64675324675325,768.5,99.34805194805195C770.9166666666666,99.04935064935064,773.3333333333334,98.75064935064935,775.75,98.45194805194805C778.1666666666666,98.15324675324675,780.5833333333334,97.85454545454544,783,97.55584415584416C785.4166666666667,97.25714285714285,787.8333333333334,96.95844155844156,790.2500000000001,96.65974025974026C792.6666666666667,96.36103896103896,795.0833333333335,96.06233766233767,797.5000000000001,95.76363636363637C799.9166666666667,95.46493506493506,802.3333333333335,95.16623376623377,804.7500000000001,94.86753246753247C807.1666666666667,94.56883116883117,809.5833333333335,94.27012987012988,812.0000000000001,93.97142857142858C814.4166666666667,93.67272727272729,816.8333333333333,93.37402597402597,819.2499999999999,93.07532467532468C821.6666666666665,92.77662337662338,824.0833333333333,92.47792207792209,826.4999999999999,92.17922077922078C828.9166666666665,91.88051948051948,831.3333333333333,91.58181818181819,833.7499999999999,91.28311688311689C836.1666666666665,90.98441558441559,838.5833333333333,90.68571428571428,840.9999999999999,90.387012987013C843.4166666666666,90.08831168831169,845.8333333333333,89.7896103896104,848.25,89.4909090909091C850.6666666666666,89.1922077922078,853.0833333333334,88.8935064935065,855.5,88.59480519480519C857.9166666666666,88.29610389610389,860.3333333333334,87.9974025974026,862.75,87.6987012987013C865.1666666666666,87.39999999999999,867.5833333333334,87.1012987012987,870,86.8025974025974C872.4166666666666,86.5038961038961,874.8333333333334,86.20519480519481,877.25,85.9064935064935C879.6666666666666,85.6077922077922,882.0833333333334,85.30909090909091,884.5,85.01038961038961C886.9166666666666,84.7116883116883,889.3333333333334,84.41298701298702,891.75,84.11428571428571C894.1666666666666,83.81558441558441,896.5833333333334,83.51688311688312,899,83.21818181818182C901.4166666666666,82.91948051948052,903.8333333333334,82.62077922077923,906.25,82.32207792207792C908.6666666666666,82.02337662337662,911.0833333333334,81.72467532467533,913.5,81.42597402597403C915.9166666666666,81.12727272727273,918.3333333333334,80.82857142857144,920.75,80.52987012987013C923.1666666666666,80.23116883116883,925.5833333333334,79.93246753246754,928,79.63376623376624C930.4166666666666,79.33506493506493,932.8333333333334,79.03636363636365,935.25,78.73766233766234C937.6666666666666,78.43896103896104,940.0833333333334,78.14025974025974,942.5,77.84155844155843C944.9166666666666,77.54285714285713,947.3333333333334,77.24415584415586,949.75,76.94545454545455C952.1666666666666,76.64675324675325,954.5833333333334,76.34805194805195,957,76.04935064935064C959.4166666666666,75.75064935064934,961.8333333333334,75.45194805194805,964.25,75.15324675324676C966.6666666666667,74.85454545454546,969.0833333333334,74.55584415584416,971.5000000000001,74.25714285714285C973.9166666666667,73.95844155844155,976.3333333333335,73.65974025974026,978.7500000000001,73.36103896103896C981.1666666666667,73.06233766233765,983.5833333333335,72.76363636363637,986.0000000000001,72.46493506493506C988.4166666666667,72.16623376623376,990.8333333333335,71.86753246753247,993.2500000000001,71.56883116883117C995.6666666666667,71.27012987012988,998.0833333333333,70.97142857142856,1000.4999999999999,70.67272727272727C1002.9166666666665,70.37402597402597,1005.3333333333333,70.07532467532468,1007.7499999999999,69.77662337662338C1010.1666666666665,69.47792207792207,1012.5833333333333,69.17922077922078,1014.9999999999999,68.88051948051948C1017.4166666666665,68.58181818181818,1019.8333333333333,68.28311688311689,1022.2499999999999,67.98441558441559C1024.6666666666665,67.68571428571428,1027.0833333333333,67.38701298701298,1029.5,67.08831168831168C1031.9166666666667,66.78961038961037,1034.3333333333333,66.4909090909091,1036.75,66.1922077922078C1039.1666666666667,65.8935064935065,1041.5833333333333,65.59480519480519,1044,65.29610389610389C1046.4166666666667,64.99740259740258,1048.8333333333333,64.69870129870131,1051.25,64.4C1053.6666666666667,64.1012987012987,1056.0833333333333,63.80259740259739,1058.5,63.503896103896096C1060.9166666666667,63.2051948051948,1063.3333333333333,62.90649350649351,1065.75,62.607792207792215C1068.1666666666667,62.30909090909092,1070.5833333333333,62.0103896103896,1073,61.711688311688306C1075.4166666666667,61.41298701298701,1077.8333333333333,61.114285714285714,1080.25,60.81558441558442C1082.6666666666667,60.51688311688312,1085.0833333333333,60.21818181818182,1087.5,59.91948051948052C1089.9166666666667,59.62077922077923,1092.3333333333333,59.32207792207793,1094.75,59.02337662337663C1097.1666666666667,58.724675324675324,1099.5833333333333,58.42597402597402,1102,58.12727272727272C1104.4166666666667,57.828571428571415,1106.8333333333333,57.52987012987012,1109.25,57.23116883116882C1111.6666666666667,56.93246753246753,1114.0833333333333,56.63376623376624,1116.5,56.33506493506494C1118.9166666666667,56.036363636363646,1121.3333333333333,55.737662337662336,1123.75,55.43896103896104C1126.1666666666667,55.140259740259744,1128.5833333333333,54.84155844155844,1131,54.542857142857144C1133.4166666666667,54.24415584415585,1135.8333333333333,53.945454545454545,1138.25,53.64675324675325C1140.6666666666667,53.34805194805195,1143.0833333333333,53.04935064935065,1145.5,52.750649350649354C1147.9166666666667,52.45194805194806,1150.3333333333333,52.153246753246755,1152.75,51.85454545454546C1155.1666666666667,51.55584415584416,1157.5833333333333,51.25714285714285,1160,50.95844155844156C1162.4166666666667,50.65974025974026,1164.8333333333333,50.36103896103896,1167.25,50.06233766233766C1169.6666666666667,49.763636363636365,1172.0833333333333,49.46493506493506,1174.5,49.166233766233766C1176.9166666666667,48.86753246753247,1179.3333333333333,48.56883116883118,1181.75,48.270129870129885C1184.1666666666667,47.97142857142859,1186.5833333333333,47.67272727272728,1189,47.374025974025976C1191.4166666666667,47.07532467532467,1193.8333333333333,46.77662337662338,1196.25,46.47792207792208C1198.6666666666667,46.179220779220785,1201.0833333333333,45.880519480519474,1203.5,45.58181818181818C1205.9166666666667,45.28311688311688,1208.3333333333333,44.98441558441558,1210.75,44.68571428571428C1213.1666666666667,44.38701298701299,1215.5833333333333,44.088311688311684,1218,43.78961038961039C1220.4166666666667,43.49090909090909,1222.8333333333333,43.19220779220779,1225.25,42.89350649350649C1227.6666666666667,42.5948051948052,1230.0833333333333,42.29610389610391,1232.5,41.99740259740261C1234.9166666666667,41.698701298701316,1237.3333333333333,41.400000000000006,1239.75,41.1012987012987C1242.1666666666667,40.8025974025974,1244.5833333333333,40.503896103896096,1247,40.2051948051948C1249.4166666666667,39.906493506493504,1251.8333333333333,39.6077922077922,1254.25,39.309090909090905C1256.6666666666667,39.01038961038961,1259.0833333333333,38.711688311688306,1261.5,38.41298701298701C1263.9166666666667,38.114285714285714,1266.3333333333333,37.81558441558441,1268.75,37.516883116883115C1271.1666666666667,37.21818181818182,1273.5833333333333,36.91948051948053,1276,36.620779220779234C1278.4166666666667,36.32207792207794,1280.8333333333333,36.023376623376635,1283.25,35.72467532467533C1285.6666666666667,35.42597402597403,1288.0833333333333,35.12727272727272,1290.5,34.82857142857142C1292.9166666666667,34.529870129870126,1295.3333333333333,34.23116883116884,1297.75,33.93246753246754C1300.1666666666667,33.633766233766245,1302.5833333333333,33.335064935064935,1305,33.03636363636363C1307.4166666666667,32.73766233766233,1309.8333333333333,32.43896103896103,1312.25,32.14025974025974C1314.6666666666667,31.841558441558437,1317.0833333333333,31.542857142857134,1319.5,31.244155844155838C1321.9166666666667,30.94545454545454,1324.3333333333333,30.646753246753256,1326.75,30.348051948051957C1329.1666666666667,30.049350649350657,1331.5833333333333,29.750649350649347,1334,29.451948051948047C1336.4166666666667,29.153246753246748,1338.8333333333333,28.85454545454546,1341.25,28.555844155844163C1343.6666666666667,28.257142857142867,1346.0833333333333,27.958441558441567,1348.5,27.659740259740268C1350.9166666666667,27.361038961038968,1353.3333333333333,27.062337662337658,1355.75,26.76363636363636C1358.1666666666667,26.46493506493506,1360.5833333333333,26.166233766233756,1363,25.86753246753246C1365.4166666666667,25.568831168831164,1367.8333333333333,25.27012987012987,1370.25,24.97142857142858C1372.6666666666667,24.672727272727286,1375.0833333333333,24.374025974025994,1377.5,24.075324675324694C1379.9166666666667,23.776623376623395,1382.3333333333333,23.477922077922088,1384.75,23.179220779220785C1387.1666666666667,22.88051948051948,1389.5833333333333,22.581818181818175,1392,22.283116883116875C1394.4166666666667,21.984415584415576,1396.8333333333333,21.685714285714276,1399.25,21.38701298701298C1401.6666666666667,21.088311688311684,1404.0833333333333,20.789610389610395,1406.5,20.490909090909096C1408.9166666666667,20.192207792207796,1411.3333333333333,19.893506493506486,1413.75,19.594805194805186C1416.1666666666667,19.296103896103887,1418.5833333333333,18.997402597402587,1421,18.69870129870129C1423.4166666666667,18.399999999999995,1425.8333333333333,18.101298701298706,1428.25,17.802597402597407C1430.6666666666667,17.503896103896107,1433.0833333333333,17.205194805194797,1435.5,16.906493506493497C1437.9166666666667,16.607792207792198,1440.3333333333333,16.30909090909091,1442.75,16.010389610389613C1445.1666666666667,15.711688311688317,1447.5833333333333,15.412987012987017,1450,15.114285714285717" fill="transparent" stroke-linecap="round" stroke="#B6509E" stroke-width="2"></path><path class="visx-linepath" d="M0,113.02857142852032C2.4166666666666665,113.0200529100231,4.833333333333334,113.01153439152587,7.25,113.00301587301587C9.666666666666666,112.99449735450587,12.083333333333334,112.98597883597883,14.5,112.97746031746031C16.916666666666668,112.9689417989418,19.333333333333332,112.96042328042327,21.75,112.95190476190476C24.166666666666668,112.94338624338624,26.583333333333332,112.93486772486771,29,112.9263492063492C31.416666666666668,112.91783068783069,33.833333333333336,112.90931216931216,36.25,112.90079365079364C38.666666666666664,112.89227513227513,41.083333333333336,112.88375661375662,43.5,112.8752380952381C45.91666666666667,112.86671957671959,48.333333333333336,112.85820105820106,50.75000000000001,112.84968253968255C53.16666666666667,112.84116402116403,55.583333333333336,112.8326455026455,58,112.82412698412699C60.416666666666664,112.81560846560848,62.833333333333336,112.80708994708995,65.25,112.79857142857144C67.66666666666667,112.79005291005292,70.08333333333333,112.7815343915344,72.5,112.77301587301588C74.91666666666667,112.76449735449737,77.33333333333333,112.75597883597885,79.75,112.74746031746032C82.16666666666667,112.7389417989418,84.58333333333333,112.73042328042328,87,112.72190476190475C89.41666666666667,112.71338624338622,91.83333333333333,112.70486772486771,94.25,112.6963492063492C96.66666666666667,112.68783068783068,99.08333333333334,112.67931216931215,101.50000000000001,112.67079365079364C103.91666666666667,112.66227513227513,106.33333333333334,112.65375661375661,108.75,112.6452380952381C111.16666666666667,112.63671957671959,113.58333333333333,112.62820105820106,116,112.61968253968254C118.41666666666667,112.61116402116403,120.83333333333334,112.6026455026455,123.25000000000001,112.59412698412699C125.66666666666667,112.58560846560847,128.08333333333334,112.57708994708995,130.5,112.56857142857143C132.91666666666666,112.56005291005292,135.33333333333334,112.55153439153439,137.75,112.54301587301588C140.16666666666666,112.53449735449736,142.58333333333334,112.52597883597883,145,112.51746031746032C147.41666666666666,112.5089417989418,149.83333333333334,112.50042328042328,152.25,112.49190476190476C154.66666666666666,112.48338624338625,157.08333333333334,112.47486772486772,159.5,112.46634920634921C161.91666666666666,112.4578306878307,164.33333333333334,112.44931216931217,166.75,112.44079365079365C169.16666666666666,112.43227513227514,171.58333333333334,112.42375661375661,174,112.4152380952381C176.41666666666666,112.40671957671958,178.83333333333334,112.39820105820105,181.25,112.38968253968254C183.66666666666666,112.38116402116403,186.08333333333334,112.3726455026455,188.5,112.36412698412698C190.91666666666666,112.35560846560847,193.33333333333334,112.34708994708994,195.75,112.33857142857143C198.16666666666669,112.33005291005291,200.58333333333334,112.32153439153439,203.00000000000003,112.31301587301587C205.41666666666669,112.30449735449736,207.83333333333331,112.29597883597883,210.24999999999997,112.28746031746032C212.66666666666666,112.2789417989418,215.08333333333331,112.27042328042327,217.5,112.26190476190476C219.91666666666666,112.25338624338625,222.33333333333334,112.24486772486772,224.75,112.2363492063492C227.16666666666666,112.22783068783069,229.58333333333334,112.21931216931216,232,112.21079365079365C234.41666666666666,112.20227513227513,236.83333333333334,112.19375661375662,239.25,112.1852380952381C241.66666666666669,112.17671957671959,244.08333333333334,112.16820105820106,246.50000000000003,112.15968253968255C248.91666666666669,112.15116402116404,251.33333333333331,112.14264550264551,253.74999999999997,112.134126984127C256.16666666666663,112.12560846560847,258.5833333333333,112.11708994708995,261,112.10857142857142C263.4166666666667,112.10005291005291,265.8333333333333,112.09153439153438,268.25,112.08301587301587C270.6666666666667,112.07449735449735,273.0833333333333,112.06597883597883,275.5,112.05746031746031C277.9166666666667,112.0489417989418,280.3333333333333,112.04042328042327,282.75,112.03190476190476C285.1666666666667,112.02338624338624,287.5833333333333,112.01486772486771,290,112.0063492063492C292.4166666666667,111.99783068783069,294.8333333333333,111.98931216931216,297.25,111.98079365079364C299.6666666666667,111.97227513227513,302.0833333333333,111.96375661375662,304.5,111.9552380952381C306.9166666666667,111.94671957671959,309.3333333333333,111.93820105820106,311.75,111.92968253968255C314.1666666666667,111.92116402116403,316.5833333333333,111.9126455026455,319,111.90412698412699C321.4166666666667,111.89560846560848,323.8333333333333,111.88708994708995,326.25,111.87857142857143C328.6666666666667,111.87005291005292,331.0833333333333,111.86153439153439,333.5,111.85301587301588C335.9166666666667,111.84449735449736,338.3333333333333,111.83597883597884,340.75,111.82746031746032C343.1666666666667,111.81894179894181,345.5833333333333,111.8104232804233,348,111.80190476190477C350.4166666666667,111.79338624338624,352.8333333333333,111.78486772486771,355.25,111.7763492063492C357.6666666666667,111.76783068783068,360.0833333333333,111.75931216931217,362.5,111.75079365079365C364.9166666666667,111.74227513227514,367.3333333333333,111.73375661375661,369.75,111.7252380952381C372.1666666666667,111.71671957671958,374.5833333333333,111.70820105820106,377,111.69968253968254C379.4166666666667,111.69116402116403,381.8333333333333,111.6826455026455,384.25,111.67412698412699C386.6666666666667,111.66560846560847,389.0833333333333,111.65708994708994,391.5,111.64857142857143C393.9166666666667,111.64005291005292,396.33333333333337,111.63153439153439,398.75000000000006,111.62301587301587C401.16666666666674,111.61449735449736,403.58333333333337,111.60597883597883,406.00000000000006,111.59746031746032C408.4166666666667,111.5889417989418,410.8333333333333,111.58042328042328,413.24999999999994,111.57190476190476C415.66666666666663,111.56338624338625,418.08333333333326,111.55486772486772,420.49999999999994,111.5463492063492C422.91666666666663,111.53783068783069,425.3333333333333,111.52931216931218,427.75,111.52079365079366C430.1666666666667,111.51227513227515,432.5833333333333,111.50375661375662,435,111.4952380952381C437.4166666666667,111.48671957671957,439.8333333333333,111.47820105820105,442.25,111.46968253968254C444.6666666666667,111.46116402116402,447.0833333333333,111.4526455026455,449.5,111.44412698412698C451.9166666666667,111.43560846560847,454.3333333333333,111.42708994708994,456.75,111.41857142857143C459.1666666666667,111.41005291005291,461.5833333333333,111.40153439153438,464,111.39301587301587C466.4166666666667,111.38449735449736,468.8333333333333,111.37597883597883,471.25,111.36746031746031C473.6666666666667,111.3589417989418,476.0833333333333,111.35042328042327,478.5,111.34190476190476C480.9166666666667,111.33338624338624,483.33333333333337,111.32486772486772,485.75000000000006,111.3163492063492C488.16666666666674,111.30783068783069,490.58333333333337,111.29931216931217,493.00000000000006,111.29079365079366C495.4166666666667,111.28227513227515,497.8333333333333,111.27375661375662,500.24999999999994,111.2652380952381C502.66666666666663,111.25671957671959,505.08333333333326,111.24820105820106,507.49999999999994,111.23968253968255C509.91666666666663,111.23116402116403,512.3333333333333,111.2226455026455,514.75,111.21412698412699C517.1666666666666,111.20560846560848,519.5833333333334,111.19708994708995,522,111.18857142857144C524.4166666666666,111.18005291005292,526.8333333333334,111.17153439153438,529.25,111.16301587301587C531.6666666666666,111.15449735449735,534.0833333333334,111.14597883597882,536.5,111.13746031746031C538.9166666666666,111.1289417989418,541.3333333333334,111.12042328042327,543.75,111.11190476190475C546.1666666666666,111.10338624338624,548.5833333333334,111.09486772486771,551,111.0863492063492C553.4166666666666,111.07783068783068,555.8333333333334,111.06931216931217,558.25,111.06079365079366C560.6666666666666,111.05227513227514,563.0833333333334,111.04375661375661,565.5,111.0352380952381C567.9166666666666,111.02671957671959,570.3333333333334,111.01820105820106,572.75,111.00968253968254C575.1666666666666,111.00116402116403,577.5833333333334,110.9926455026455,580,110.98412698412699C582.4166666666666,110.97560846560847,584.8333333333334,110.96708994708995,587.25,110.95857142857143C589.6666666666666,110.95005291005292,592.0833333333334,110.94153439153439,594.5,110.93301587301588C596.9166666666666,110.92449735449736,599.3333333333334,110.91597883597883,601.75,110.90746031746032C604.1666666666666,110.8989417989418,606.5833333333334,110.89042328042328,609,110.88190476190476C611.4166666666666,110.87338624338625,613.8333333333334,110.86486772486771,616.25,110.8563492063492C618.6666666666666,110.84783068783068,621.0833333333334,110.83931216931217,623.5,110.83079365079365C625.9166666666666,110.82227513227514,628.3333333333334,110.81375661375661,630.75,110.8052380952381C633.1666666666666,110.79671957671958,635.5833333333334,110.78820105820105,638,110.77968253968254C640.4166666666666,110.77116402116403,642.8333333333334,110.7626455026455,645.25,110.75412698412698C647.6666666666666,110.74560846560847,650.0833333333334,110.74560846560847,652.5,110.72857142857143C654.9166666666666,110.71153439153439,657.3333333333334,110.13116883116884,659.75,109.83246753246753C662.1666666666666,109.53376623376623,664.5833333333334,109.23506493506494,667,108.93636363636364C669.4166666666666,108.63766233766233,671.8333333333334,108.33896103896105,674.25,108.04025974025974C676.6666666666666,107.74155844155844,679.0833333333334,107.44285714285715,681.5,107.14415584415585C683.9166666666666,106.84545454545454,686.3333333333334,106.54675324675325,688.75,106.24805194805195C691.1666666666666,105.94935064935065,693.5833333333334,105.65064935064936,696,105.35194805194806C698.4166666666666,105.05324675324675,700.8333333333334,104.75454545454545,703.25,104.45584415584415C705.6666666666666,104.15714285714284,708.0833333333334,103.85844155844156,710.5,103.55974025974025C712.9166666666666,103.26103896103895,715.3333333333334,102.96233766233766,717.75,102.66363636363636C720.1666666666666,102.36493506493505,722.5833333333334,102.06623376623376,725,101.76753246753246C727.4166666666666,101.46883116883116,729.8333333333334,101.17012987012987,732.25,100.87142857142857C734.6666666666666,100.57272727272726,737.0833333333334,100.27402597402597,739.5,99.97532467532467C741.9166666666666,99.67662337662337,744.3333333333334,99.37792207792208,746.75,99.07922077922078C749.1666666666666,98.78051948051947,751.5833333333334,98.48181818181817,754,98.18311688311688C756.4166666666666,97.88441558441559,758.8333333333334,97.5857142857143,761.25,97.287012987013C763.6666666666666,96.9883116883117,766.0833333333334,96.6896103896104,768.5,96.39090909090909C770.9166666666666,96.09220779220779,773.3333333333334,95.7935064935065,775.75,95.4948051948052C778.1666666666666,95.19610389610389,780.5833333333334,94.89740259740259,783,94.59870129870129C785.4166666666667,94.29999999999998,787.8333333333334,94.00129870129871,790.2500000000001,93.7025974025974C792.6666666666667,93.4038961038961,795.0833333333335,93.1051948051948,797.5000000000001,92.8064935064935C799.9166666666667,92.50779220779219,802.3333333333335,92.2090909090909,804.7500000000001,91.9103896103896C807.1666666666667,91.6116883116883,809.5833333333335,91.31298701298701,812.0000000000001,91.0142857142857C814.4166666666667,90.71558441558442,816.8333333333333,90.41688311688311,819.2499999999999,90.11818181818182C821.6666666666665,89.81948051948052,824.0833333333333,89.52077922077922,826.4999999999999,89.22207792207791C828.9166666666665,88.92337662337661,831.3333333333333,88.62467532467532,833.7499999999999,88.32597402597403C836.1666666666665,88.02727272727275,838.5833333333333,87.72857142857143,840.9999999999999,87.42987012987014C843.4166666666666,87.13116883116884,845.8333333333333,86.83246753246755,848.25,86.53376623376624C850.6666666666666,86.23506493506494,853.0833333333334,85.93636363636364,855.5,85.63766233766233C857.9166666666666,85.33896103896103,860.3333333333334,85.04025974025974,862.75,84.74155844155844C865.1666666666666,84.44285714285714,867.5833333333334,84.14415584415583,870,83.84545454545453C872.4166666666666,83.54675324675323,874.8333333333334,83.24805194805194,877.25,82.94935064935065C879.6666666666666,82.65064935064936,882.0833333333334,82.35194805194806,884.5,82.05324675324675C886.9166666666666,81.75454545454545,889.3333333333334,81.45584415584416,891.75,81.15714285714286C894.1666666666666,80.85844155844156,896.5833333333334,80.55974025974025,899,80.26103896103895C901.4166666666666,79.96233766233765,903.8333333333334,79.66363636363637,906.25,79.36493506493507C908.6666666666666,79.06623376623376,911.0833333333334,78.76753246753246,913.5,78.46883116883116C915.9166666666666,78.17012987012986,918.3333333333334,77.87142857142857,920.75,77.57272727272728C923.1666666666666,77.27402597402599,925.5833333333334,76.97532467532469,928,76.67662337662338C930.4166666666666,76.37792207792208,932.8333333333334,76.07922077922079,935.25,75.78051948051949C937.6666666666666,75.48181818181818,940.0833333333334,75.1831168831169,942.5,74.88441558441559C944.9166666666666,74.58571428571429,947.3333333333334,74.28701298701299,949.75,73.98831168831168C952.1666666666666,73.68961038961038,954.5833333333334,73.3909090909091,957,73.0922077922078C959.4166666666666,72.7935064935065,961.8333333333334,72.4948051948052,964.25,72.19610389610389C966.6666666666667,71.89740259740259,969.0833333333334,71.5987012987013,971.5000000000001,71.3C973.9166666666667,71.00129870129871,976.3333333333335,70.70259740259739,978.7500000000001,70.4038961038961C981.1666666666667,70.10519480519481,983.5833333333335,69.80649350649352,986.0000000000001,69.50779220779222C988.4166666666667,69.20909090909092,990.8333333333335,68.91038961038961,993.2500000000001,68.61168831168831C995.6666666666667,68.31298701298701,998.0833333333333,68.0142857142857,1000.4999999999999,67.71558441558442C1002.9166666666665,67.41688311688311,1005.3333333333333,67.11818181818182,1007.7499999999999,66.81948051948052C1010.1666666666665,66.52077922077922,1012.5833333333333,66.22207792207793,1014.9999999999999,65.92337662337663C1017.4166666666665,65.62467532467532,1019.8333333333333,65.32597402597403,1022.2499999999999,65.02727272727273C1024.6666666666665,64.72857142857143,1027.0833333333333,64.42987012987014,1029.5,64.13116883116884C1031.9166666666667,63.83246753246754,1034.3333333333333,63.53376623376623,1036.75,63.23506493506493C1039.1666666666667,62.93636363636364,1041.5833333333333,62.637662337662334,1044,62.33896103896104C1046.4166666666667,62.04025974025974,1048.8333333333333,61.74155844155843,1051.25,61.442857142857136C1053.6666666666667,61.14415584415584,1056.0833333333333,60.84545454545455,1058.5,60.546753246753255C1060.9166666666667,60.24805194805196,1063.3333333333333,59.94935064935065,1065.75,59.650649350649346C1068.1666666666667,59.35194805194804,1070.5833333333333,59.053246753246746,1073,58.75454545454545C1075.4166666666667,58.455844155844154,1077.8333333333333,58.15714285714285,1080.25,57.858441558441555C1082.6666666666667,57.55974025974026,1085.0833333333333,57.26103896103896,1087.5,56.96233766233767C1089.9166666666667,56.66363636363637,1092.3333333333333,56.36493506493506,1094.75,56.06623376623376C1097.1666666666667,55.767532467532455,1099.5833333333333,55.46883116883116,1102,55.17012987012986C1104.4166666666667,54.87142857142857,1106.8333333333333,54.57272727272728,1109.25,54.27402597402598C1111.6666666666667,53.975324675324686,1114.0833333333333,53.676623376623375,1116.5,53.37792207792207C1118.9166666666667,53.07922077922077,1121.3333333333333,52.78051948051947,1123.75,52.48181818181818C1126.1666666666667,52.18311688311688,1128.5833333333333,51.884415584415585,1131,51.58571428571429C1133.4166666666667,51.28701298701299,1135.8333333333333,50.9883116883117,1138.25,50.689610389610394C1140.6666666666667,50.39090909090909,1143.0833333333333,50.09220779220779,1145.5,49.793506493506484C1147.9166666666667,49.49480519480518,1150.3333333333333,49.196103896103885,1152.75,48.89740259740259C1155.1666666666667,48.59870129870129,1157.5833333333333,48.300000000000004,1160,48.00129870129871C1162.4166666666667,47.70259740259741,1164.8333333333333,47.40389610389611,1167.25,47.105194805194806C1169.6666666666667,46.8064935064935,1172.0833333333333,46.50779220779221,1174.5,46.209090909090904C1176.9166666666667,45.9103896103896,1179.3333333333333,45.6116883116883,1181.75,45.312987012987C1184.1666666666667,45.014285714285705,1186.5833333333333,44.71558441558443,1189,44.416883116883135C1191.4166666666667,44.11818181818184,1193.8333333333333,43.81948051948053,1196.25,43.520779220779225C1198.6666666666667,43.22207792207792,1201.0833333333333,42.923376623376626,1203.5,42.62467532467533C1205.9166666666667,42.325974025974034,1208.3333333333333,42.027272727272724,1210.75,41.72857142857143C1213.1666666666667,41.42987012987013,1215.5833333333333,41.13116883116883,1218,40.83246753246753C1220.4166666666667,40.53376623376624,1222.8333333333333,40.23506493506493,1225.25,39.93636363636364C1227.6666666666667,39.63766233766234,1230.0833333333333,39.33896103896104,1232.5,39.04025974025974C1234.9166666666667,38.741558441558446,1237.3333333333333,38.44285714285716,1239.75,38.14415584415586C1242.1666666666667,37.845454545454565,1244.5833333333333,37.546753246753255,1247,37.24805194805195C1249.4166666666667,36.94935064935065,1251.8333333333333,36.650649350649346,1254.25,36.35194805194805C1256.6666666666667,36.05324675324675,1259.0833333333333,35.75454545454545,1261.5,35.455844155844154C1263.9166666666667,35.15714285714286,1266.3333333333333,34.858441558441555,1268.75,34.55974025974026C1271.1666666666667,34.26103896103896,1273.5833333333333,33.96233766233766,1276,33.663636363636364C1278.4166666666667,33.36493506493507,1280.8333333333333,33.066233766233765,1283.25,32.76753246753247C1285.6666666666667,32.46883116883117,1288.0833333333333,32.170129870129884,1290.5,31.871428571428584C1292.9166666666667,31.572727272727285,1295.3333333333333,31.274025974025975,1297.75,30.975324675324675C1300.1666666666667,30.676623376623375,1302.5833333333333,30.37792207792209,1305,30.07922077922079C1307.4166666666667,29.78051948051949,1309.8333333333333,29.481818181818184,1312.25,29.18311688311688C1314.6666666666667,28.884415584415578,1317.0833333333333,28.58571428571427,1319.5,28.28701298701297C1321.9166666666667,27.988311688311672,1324.3333333333333,27.689610389610383,1326.75,27.390909090909087C1329.1666666666667,27.09220779220779,1331.5833333333333,26.793506493506488,1334,26.494805194805192C1336.4166666666667,26.196103896103896,1338.8333333333333,25.897402597402607,1341.25,25.598701298701307C1343.6666666666667,25.300000000000008,1346.0833333333333,25.001298701298698,1348.5,24.702597402597398C1350.9166666666667,24.4038961038961,1353.3333333333333,24.1051948051948,1355.75,23.806493506493503C1358.1666666666667,23.507792207792207,1360.5833333333333,23.209090909090918,1363,22.91038961038962C1365.4166666666667,22.61168831168832,1367.8333333333333,22.31298701298701,1370.25,22.01428571428571C1372.6666666666667,21.71558441558441,1375.0833333333333,21.416883116883113,1377.5,21.118181818181814C1379.9166666666667,20.819480519480514,1382.3333333333333,20.520779220779204,1384.75,20.222077922077904C1387.1666666666667,19.923376623376605,1389.5833333333333,19.624675324675312,1392,19.32597402597402C1394.4166666666667,19.027272727272727,1396.8333333333333,18.728571428571435,1399.25,18.42987012987014C1401.6666666666667,18.131168831168843,1404.0833333333333,17.83246753246754,1406.5,17.53376623376624C1408.9166666666667,17.23506493506494,1411.3333333333333,16.93636363636363,1413.75,16.63766233766233C1416.1666666666667,16.33896103896103,1418.5833333333333,16.04025974025973,1421,15.741558441558436C1423.4166666666667,15.44285714285714,1425.8333333333333,15.14415584415585,1428.25,14.845454545454551C1430.6666666666667,14.546753246753251,1433.0833333333333,14.248051948051941,1435.5,13.949350649350642C1437.9166666666667,13.650649350649342,1440.3333333333333,13.351948051948055,1442.75,13.053246753246759C1445.1666666666667,12.754545454545463,1447.5833333333333,12.455844155844161,1450,12.157142857142862" fill="transparent" stroke-linecap="round" stroke="#E7C6DF" stroke-width="2"></path><g class="visx-group visx-axis visx-axis-bottom" transform="translate(0, 115)"><g class="visx-group visx-axis-tick" transform="translate(0, 0)"><line class="visx-line" x1="0" y1="0" x2="0" y2="8" fill="transparent" shape-rendering="crispEdges" stroke="#000" stroke-width="0" stroke-linecap="square"></line><svg x="0" y="0" font-size="10" style="overflow:visible"><text transform="" x="0" y="18" fill="#000" font-size="10" text-anchor="middle"><tspan x="0" dy="0em">0%</tspan></text></svg></g><g class="visx-group visx-axis-tick" transform="translate(0, 0)"><line class="visx-line" x1="362.5" y1="0" x2="362.5" y2="8" fill="transparent" shape-rendering="crispEdges" stroke="#000" stroke-width="0" stroke-linecap="square"></line><svg x="0" y="0" font-size="10" style="overflow:visible"><text transform="" x="362.5" y="18" fill="#000" font-size="10" text-anchor="middle"><tspan x="362.5" dy="0em">25%</tspan></text></svg></g><g class="visx-group visx-axis-tick" transform="translate(0, 0)"><line class="visx-line" x1="725" y1="0" x2="725" y2="8" fill="transparent" shape-rendering="crispEdges" stroke="#000" stroke-width="0" stroke-linecap="square"></line><svg x="0" y="0" font-size="10" style="overflow:visible"><text transform="" x="725" y="18" fill="#000" font-size="10" text-anchor="middle"><tspan x="725" dy="0em">50%</tspan></text></svg></g><g class="visx-group visx-axis-tick" transform="translate(0, 0)"><line class="visx-line" x1="1087.5" y1="0" x2="1087.5" y2="8" fill="transparent" shape-rendering="crispEdges" stroke="#000" stroke-width="0" stroke-linecap="square"></line><svg x="0" y="0" font-size="10" style="overflow:visible"><text transform="" x="1087.5" y="18" fill="#000" font-size="10" text-anchor="middle"><tspan x="1087.5" dy="0em">75%</tspan></text></svg></g><g class="visx-group visx-axis-tick" transform="translate(0, 0)"><line class="visx-line" x1="1450" y1="0" x2="1450" y2="8" fill="transparent" shape-rendering="crispEdges" stroke="#000" stroke-width="0" stroke-linecap="square"></line><svg x="0" y="0" font-size="10" style="overflow:visible"><text transform="" x="1450" y="18" fill="#000" font-size="10" text-anchor="middle"><tspan x="1450" dy="0em">100%</tspan></text></svg></g><line class="visx-line visx-axis-line" x1="0.5" y1="0" x2="1450.5" y2="0" fill="transparent" shape-rendering="crispEdges" stroke="#222" stroke-width="0"></line></g><g class="visx-group visx-axis visx-axis-left" transform="translate(0, 0)"><g class="visx-group visx-axis-tick" transform="translate(0, 0)"><line class="visx-line" x1="0" y1="115" x2="-8" y2="115" fill="transparent" shape-rendering="crispEdges" stroke="#222" stroke-width="0" stroke-linecap="square"></line><svg x="-30" y="0" font-size="8" style="overflow:visible"><text transform="" x="-8" y="115" fill="#000" font-size="8" text-anchor="start"><tspan x="-8" dy="0em">0%</tspan></text></svg></g><g class="visx-group visx-axis-tick" transform="translate(0, 0)"><line class="visx-line" x1="0" y1="49.28571428571429" x2="-8" y2="49.28571428571429" fill="transparent" shape-rendering="crispEdges" stroke="#222" stroke-width="0" stroke-linecap="square"></line><svg x="-30" y="0" font-size="8" style="overflow:visible"><text transform="" x="-8" y="49.28571428571429" fill="#000" font-size="8" text-anchor="start"><tspan x="-8" dy="0em">200%</tspan></text></svg></g><line class="visx-line visx-axis-line" x1="0" y1="115.5" x2="0" y2="0.5" fill="transparent" shape-rendering="crispEdges" stroke="#222" stroke-width="0"></line></g><rect class="visx-bar" width="1450" height="115" fill="transparent"></rect><line class="visx-line" x1="652.5" y1="28" x2="652.5" y2="115" fill="transparent" shape-rendering="crispEdges" stroke="#0062D2" stroke-width="1" pointer-events="none" stroke-dasharray="5,2"></line><svg x="0" y="0" font-size="10px" style="overflow:visible"><text transform="" x="652.5" y="20" font-size="10px" fill="#fff" stroke="#fff" stroke-width="0.8em" text-anchor="middle"><tspan x="652.5" dy="0.355em">Optimal 45%</tspan></text></svg><svg x="0" y="0" font-size="10px" style="overflow:visible"><text transform="" x="652.5" y="20" font-size="10px" fill="#62677B" text-anchor="middle"><tspan x="652.5" dy="0.355em">Optimal 45%</tspan></text></svg></g></svg>