<?xml version="1.0"?><svg xmlns="http://www.w3.org/2000/svg" xmlns:xlink= "http://www.w3.org/1999/xlink" style="background: white;" width="1500" height="185"> <g style="color: black; font-size: 13px; font-family: sans-serif; transform: translate(18px, 25px);"><g><circle r="3" cx="-6" cy="-5" style="fill: #B6509E" /><text>Borrow APR, variable</text></g><g style="transform: translateX(150px);"><circle r="3" cx="-6" cy="-5" style="fill: rgb(231, 198, 223)" /><text>Borrow APR, stable</text></g><g style="transform: translateX(290px);"><circle r="3" cx="-6" cy="-5" style="fill: rgb(0, 98, 210)" /><text>Utilization Rate</text></g></g><g class="visx-group" transform="translate(40, 50)"><g class="visx-group visx-rows" transform="translate(0, 0)"><line class="visx-line" x1="0" y1="115" x2="1450" y2="115" fill="transparent" shape-rendering="crispEdges" stroke="#000" stroke-width="1" stroke-dasharray="3,3" pointer-events="none"></line><line class="visx-line" x1="0" y1="82.14285714285714" x2="1450" y2="82.14285714285714" fill="transparent" shape-rendering="crispEdges" stroke="#000" stroke-width="1" stroke-dasharray="3,3" pointer-events="none"></line><line class="visx-line" x1="0" y1="49.28571428571429" x2="1450" y2="49.28571428571429" fill="transparent" shape-rendering="crispEdges" stroke="#000" stroke-width="1" stroke-dasharray="3,3" pointer-events="none"></line><line class="visx-line" x1="0" y1="16.428571428571434" x2="1450" y2="16.428571428571434" fill="transparent" shape-rendering="crispEdges" stroke="#000" stroke-width="1" stroke-dasharray="3,3" pointer-events="none"></line></g><path class="visx-linepath" d="M0,114.99999999992698C2.4166666666666665,114.9878306877881,4.833333333333334,114.97566137564921,7.25,114.96349206349207C9.666666666666666,114.95132275133493,12.083333333333334,114.93915343915343,14.5,114.92698412698412C16.916666666666668,114.91481481481482,19.333333333333332,114.9026455026455,21.75,114.89047619047619C24.166666666666668,114.87830687830689,26.583333333333332,114.86613756613755,29,114.85396825396825C31.416666666666668,114.84179894179894,33.833333333333336,114.82962962962962,36.25,114.81746031746032C38.666666666666664,114.80529100529101,41.083333333333336,114.79312169312169,43.5,114.78095238095239C45.91666666666667,114.76878306878307,48.333333333333336,114.75661375661376,50.75000000000001,114.74444444444444C53.16666666666667,114.73227513227513,55.583333333333336,114.72010582010581,58,114.70793650793651C60.416666666666664,114.69576719576719,62.833333333333336,114.68359788359787,65.25,114.67142857142856C67.66666666666667,114.65925925925926,70.08333333333333,114.64708994708994,72.5,114.63492063492063C74.91666666666667,114.62275132275133,77.33333333333333,114.610582010582,79.75,114.59841269841269C82.16666666666667,114.58624338624338,84.58333333333333,114.57407407407406,87,114.56190476190476C89.41666666666667,114.54973544973545,91.83333333333333,114.53756613756613,94.25,114.52539682539683C96.66666666666667,114.5132275132275,99.08333333333334,114.5010582010582,101.50000000000001,114.48888888888888C103.91666666666667,114.47671957671957,106.33333333333334,114.46455026455025,108.75,114.45238095238095C111.16666666666667,114.44021164021163,113.58333333333333,114.42804232804231,116,114.415873015873C118.41666666666667,114.40370370370368,120.83333333333334,114.39153439153438,123.25000000000001,114.37936507936507C125.66666666666667,114.36719576719577,128.08333333333334,114.35502645502645,130.5,114.34285714285714C132.91666666666666,114.33068783068784,135.33333333333334,114.31851851851852,137.75,114.30634920634921C140.16666666666666,114.2941798941799,142.58333333333334,114.28201058201057,145,114.26984126984127C147.41666666666666,114.25767195767196,149.83333333333334,114.24550264550264,152.25,114.23333333333333C154.66666666666666,114.22116402116403,157.08333333333334,114.20899470899471,159.5,114.1968253968254C161.91666666666666,114.1846560846561,164.33333333333334,114.17248677248678,166.75,114.16031746031747C169.16666666666666,114.14814814814817,171.58333333333334,114.13597883597883,174,114.12380952380953C176.41666666666666,114.11164021164022,178.83333333333334,114.0994708994709,181.25,114.0873015873016C183.66666666666666,114.07513227513229,186.08333333333334,114.06296296296296,188.5,114.05079365079365C190.91666666666666,114.03862433862435,193.33333333333334,114.02645502645503,195.75,114.01428571428572C198.16666666666669,114.00211640211641,200.58333333333334,113.98994708994711,203.00000000000003,113.97777777777779C205.41666666666669,113.96560846560848,207.83333333333331,113.95343915343915,210.24999999999997,113.94126984126984C212.66666666666666,113.92910052910052,215.08333333333331,113.91693121693123,217.5,113.90476190476191C219.91666666666666,113.8925925925926,222.33333333333334,113.88042328042327,224.75,113.86825396825397C227.16666666666666,113.85608465608466,229.58333333333334,113.84391534391534,232,113.83174603174604C234.41666666666666,113.81957671957673,236.83333333333334,113.8074074074074,239.25,113.79523809523809C241.66666666666669,113.78306878306877,244.08333333333334,113.77089947089947,246.50000000000003,113.75873015873016C248.91666666666669,113.74656084656085,251.33333333333331,113.73439153439153,253.74999999999997,113.72222222222223C256.16666666666663,113.71005291005291,258.5833333333333,113.6978835978836,261,113.68571428571428C263.4166666666667,113.67354497354498,265.8333333333333,113.66137566137566,268.25,113.64920634920635C270.6666666666667,113.63703703703705,273.0833333333333,113.62486772486771,275.5,113.6126984126984C277.9166666666667,113.6005291005291,280.3333333333333,113.58835978835978,282.75,113.57619047619048C285.1666666666667,113.56402116402117,287.5833333333333,113.55185185185185,290,113.53968253968254C292.4166666666667,113.52751322751324,294.8333333333333,113.5153439153439,297.25,113.5031746031746C299.6666666666667,113.4910052910053,302.0833333333333,113.47883597883597,304.5,113.46666666666667C306.9166666666667,113.45449735449736,309.3333333333333,113.44232804232803,311.75,113.43015873015872C314.1666666666667,113.41798941798942,316.5833333333333,113.4058201058201,319,113.39365079365079C321.4166666666667,113.38148148148149,323.8333333333333,113.36931216931217,326.25,113.35714285714286C328.6666666666667,113.34497354497356,331.0833333333333,113.33280423280422,333.5,113.32063492063492C335.9166666666667,113.30846560846561,338.3333333333333,113.29629629629629,340.75,113.28412698412698C343.1666666666667,113.27195767195768,345.5833333333333,113.25978835978835,348,113.24761904761904C350.4166666666667,113.23544973544973,352.8333333333333,113.22328042328041,355.25,113.21111111111111C357.6666666666667,113.1989417989418,360.0833333333333,113.18677248677248,362.5,113.17460317460318C364.9166666666667,113.16243386243387,367.3333333333333,113.15026455026454,369.75,113.13809523809523C372.1666666666667,113.12592592592593,374.5833333333333,113.1137566137566,377,113.1015873015873C379.4166666666667,113.089417989418,381.8333333333333,113.07724867724866,384.25,113.06507936507936C386.6666666666667,113.05291005291005,389.0833333333333,113.04074074074073,391.5,113.02857142857142C393.9166666666667,113.0164021164021,396.33333333333337,113.0042328042328,398.75000000000006,112.99206349206348C401.16666666666674,112.97989417989417,403.58333333333337,112.96772486772485,406.00000000000006,112.95555555555555C408.4166666666667,112.94338624338624,410.8333333333333,112.93121693121692,413.24999999999994,112.91904761904762C415.66666666666663,112.90687830687831,418.08333333333326,112.89470899470899,420.49999999999994,112.88253968253969C422.91666666666663,112.87037037037038,425.3333333333333,112.85820105820108,427.75,112.84603174603176C430.1666666666667,112.83386243386245,432.5833333333333,112.82169312169312,435,112.80952380952381C437.4166666666667,112.7973544973545,439.8333333333333,112.78518518518518,442.25,112.77301587301588C444.6666666666667,112.76084656084657,447.0833333333333,112.74867724867725,449.5,112.73650793650795C451.9166666666667,112.72433862433864,454.3333333333333,112.71216931216931,456.75,112.7C459.1666666666667,112.6878306878307,461.5833333333333,112.67566137566138,464,112.66349206349207C466.4166666666667,112.65132275132277,468.8333333333333,112.63915343915343,471.25,112.62698412698413C473.6666666666667,112.61481481481482,476.0833333333333,112.6026455026455,478.5,112.5904761904762C480.9166666666667,112.57830687830689,483.33333333333337,112.56613756613758,485.75000000000006,112.55396825396826C488.16666666666674,112.54179894179896,490.58333333333337,112.52962962962964,493.00000000000006,112.51746031746032C495.4166666666667,112.50529100529101,497.8333333333333,112.4931216931217,500.24999999999994,112.48095238095239C502.66666666666663,112.46878306878307,505.08333333333326,112.45661375661375,507.49999999999994,112.44444444444444C509.91666666666663,112.43227513227512,512.3333333333333,112.42010582010583,514.75,112.40793650793651C517.1666666666666,112.3957671957672,519.5833333333334,112.38359788359787,522,112.37142857142857C524.4166666666666,112.35925925925926,526.8333333333334,112.34708994708994,529.25,112.33492063492064C531.6666666666666,112.32275132275133,534.0833333333334,112.31058201058201,536.5,112.2984126984127C538.9166666666666,112.2862433862434,541.3333333333334,112.27407407407406,543.75,112.26190476190476C546.1666666666666,112.24973544973545,548.5833333333334,112.23756613756613,551,112.22539682539683C553.4166666666666,112.21322751322752,555.8333333333334,112.20105820105819,558.25,112.18888888888888C560.6666666666666,112.17671957671958,563.0833333333334,112.16455026455026,565.5,112.15238095238095C567.9166666666666,112.14021164021165,570.3333333333334,112.12804232804233,572.75,112.11587301587302C575.1666666666666,112.10370370370372,577.5833333333334,112.09153439153438,580,112.07936507936508C582.4166666666666,112.06719576719577,584.8333333333334,112.05502645502645,587.25,112.04285714285714C589.6666666666666,112.03068783068784,592.0833333333334,112.0185185185185,594.5,112.0063492063492C596.9166666666666,111.9941798941799,599.3333333333334,111.98201058201057,601.75,111.96984126984127C604.1666666666666,111.95767195767196,606.5833333333334,111.94550264550264,609,111.93333333333334C611.4166666666666,111.92116402116403,613.8333333333334,111.9089947089947,616.25,111.89682539682539C618.6666666666666,111.88465608465609,621.0833333333334,111.87248677248677,623.5,111.86031746031746C625.9166666666666,111.84814814814816,628.3333333333334,111.83597883597882,630.75,111.82380952380952C633.1666666666666,111.81164021164021,635.5833333333334,111.79947089947089,638,111.78730158730158C640.4166666666666,111.77513227513228,642.8333333333334,111.76296296296296,645.25,111.75079365079365C647.6666666666666,111.73862433862435,650.0833333333334,111.73862433862433,652.5,111.71428571428571C654.9166666666666,111.68994708994708,657.3333333333334,111.11688311688312,659.75,110.81818181818181C662.1666666666666,110.51948051948051,664.5833333333334,110.22077922077922,667,109.92207792207792C669.4166666666666,109.62337662337661,671.8333333333334,109.32467532467533,674.25,109.02597402597402C676.6666666666666,108.72727272727272,679.0833333333334,108.42857142857143,681.5,108.12987012987013C683.9166666666666,107.83116883116882,686.3333333333334,107.53246753246754,688.75,107.23376623376623C691.1666666666666,106.93506493506493,693.5833333333334,106.63636363636364,696,106.33766233766234C698.4166666666666,106.03896103896103,700.8333333333334,105.74025974025975,703.25,105.44155844155844C705.6666666666666,105.14285714285714,708.0833333333334,104.84415584415585,710.5,104.54545454545455C712.9166666666666,104.24675324675324,715.3333333333334,103.94805194805195,717.75,103.64935064935065C720.1666666666666,103.35064935064935,722.5833333333334,103.05194805194805,725,102.75324675324674C727.4166666666666,102.45454545454544,729.8333333333334,102.15584415584415,732.25,101.85714285714285C734.6666666666666,101.55844155844154,737.0833333333334,101.25974025974025,739.5,100.96103896103895C741.9166666666666,100.66233766233765,744.3333333333334,100.36363636363635,746.75,100.06493506493506C749.1666666666666,99.76623376623377,751.5833333333334,99.46753246753248,754,99.16883116883118C756.4166666666666,98.87012987012987,758.8333333333334,98.57142857142857,761.25,98.27272727272727C763.6666666666666,97.97402597402596,766.0833333333334,97.67532467532467,768.5,97.37662337662337C770.9166666666666,97.07792207792207,773.3333333333334,96.77922077922076,775.75,96.48051948051948C778.1666666666666,96.18181818181819,780.5833333333334,95.88311688311688,783,95.5844155844156C785.4166666666667,95.28571428571429,787.8333333333334,94.987012987013,790.2500000000001,94.6883116883117C792.6666666666667,94.3896103896104,795.0833333333335,94.09090909090911,797.5000000000001,93.7922077922078C799.9166666666667,93.4935064935065,802.3333333333335,93.1948051948052,804.7500000000001,92.8961038961039C807.1666666666667,92.59740259740259,809.5833333333335,92.2987012987013,812.0000000000001,92C814.4166666666667,91.7012987012987,816.8333333333333,91.40259740259738,819.2499999999999,91.10389610389609C821.6666666666665,90.80519480519479,824.0833333333333,90.50649350649351,826.4999999999999,90.20779220779221C828.9166666666665,89.9090909090909,831.3333333333333,89.6103896103896,833.7499999999999,89.3116883116883C836.1666666666665,89.012987012987,838.5833333333333,88.71428571428571,840.9999999999999,88.41558441558442C843.4166666666666,88.11688311688312,845.8333333333333,87.81818181818183,848.25,87.51948051948052C850.6666666666666,87.22077922077924,853.0833333333334,86.92207792207793,855.5,86.62337662337663C857.9166666666666,86.32467532467533,860.3333333333334,86.02597402597402,862.75,85.72727272727272C865.1666666666666,85.42857142857142,867.5833333333334,85.12987012987013,870,84.83116883116884C872.4166666666666,84.53246753246755,874.8333333333334,84.23376623376625,877.25,83.93506493506494C879.6666666666666,83.63636363636364,882.0833333333334,83.33766233766235,884.5,83.03896103896105C886.9166666666666,82.74025974025975,889.3333333333334,82.44155844155844,891.75,82.14285714285714C894.1666666666666,81.84415584415584,896.5833333333334,81.54545454545453,899,81.24675324675324C901.4166666666666,80.94805194805195,903.8333333333334,80.64935064935067,906.25,80.35064935064936C908.6666666666666,80.05194805194806,911.0833333333334,79.75324675324676,913.5,79.45454545454545C915.9166666666666,79.15584415584415,918.3333333333334,78.85714285714286,920.75,78.55844155844156C923.1666666666666,78.25974025974025,925.5833333333334,77.96103896103897,928,77.66233766233766C930.4166666666666,77.36363636363636,932.8333333333334,77.06493506493507,935.25,76.76623376623377C937.6666666666666,76.46753246753246,940.0833333333334,76.16883116883118,942.5,75.87012987012987C944.9166666666666,75.57142857142857,947.3333333333334,75.27272727272728,949.75,74.97402597402598C952.1666666666666,74.67532467532467,954.5833333333334,74.37662337662339,957,74.07792207792208C959.4166666666666,73.77922077922078,961.8333333333334,73.48051948051949,964.25,73.18181818181819C966.6666666666667,72.88311688311688,969.0833333333334,72.58441558441558,971.5000000000001,72.28571428571428C973.9166666666667,71.98701298701297,976.3333333333335,71.68831168831167,978.7500000000001,71.38961038961037C981.1666666666667,71.09090909090907,983.5833333333335,70.79220779220778,986.0000000000001,70.49350649350649C988.4166666666667,70.1948051948052,990.8333333333335,69.8961038961039,993.2500000000001,69.59740259740259C995.6666666666667,69.2987012987013,998.0833333333333,68.99999999999999,1000.4999999999999,68.7012987012987C1002.9166666666665,68.4025974025974,1005.3333333333333,68.10389610389612,1007.7499999999999,67.80519480519482C1010.1666666666665,67.50649350649351,1012.5833333333333,67.20779220779221,1014.9999999999999,66.9090909090909C1017.4166666666665,66.6103896103896,1019.8333333333333,66.3116883116883,1022.2499999999999,66.01298701298701C1024.6666666666665,65.71428571428571,1027.0833333333333,65.41558441558442,1029.5,65.11688311688312C1031.9166666666667,64.81818181818183,1034.3333333333333,64.51948051948054,1036.75,64.22077922077924C1039.1666666666667,63.92207792207794,1041.5833333333333,63.623376623376615,1044,63.32467532467532C1046.4166666666667,63.02597402597402,1048.8333333333333,62.727272727272734,1051.25,62.42857142857144C1053.6666666666667,62.12987012987014,1056.0833333333333,61.83116883116883,1058.5,61.53246753246753C1060.9166666666667,61.233766233766225,1063.3333333333333,60.93506493506493,1065.75,60.63636363636363C1068.1666666666667,60.33766233766234,1070.5833333333333,60.038961038961034,1073,59.74025974025974C1075.4166666666667,59.44155844155844,1077.8333333333333,59.142857142857146,1080.25,58.84415584415585C1082.6666666666667,58.545454545454554,1085.0833333333333,58.24675324675326,1087.5,57.948051948051955C1089.9166666666667,57.64935064935065,1092.3333333333333,57.35064935064935,1094.75,57.051948051948045C1097.1666666666667,56.75324675324674,1099.5833333333333,56.454545454545446,1102,56.15584415584415C1104.4166666666667,55.857142857142854,1106.8333333333333,55.55844155844156,1109.25,55.25974025974026C1111.6666666666667,54.961038961038966,1114.0833333333333,54.66233766233767,1116.5,54.36363636363637C1118.9166666666667,54.064935064935064,1121.3333333333333,53.76623376623375,1123.75,53.46753246753246C1126.1666666666667,53.16883116883116,1128.5833333333333,52.87012987012987,1131,52.57142857142858C1133.4166666666667,52.27272727272728,1135.8333333333333,51.974025974025984,1138.25,51.67532467532468C1140.6666666666667,51.37662337662338,1143.0833333333333,51.07792207792207,1145.5,50.77922077922077C1147.9166666666667,50.480519480519476,1150.3333333333333,50.18181818181818,1152.75,49.883116883116884C1155.1666666666667,49.58441558441559,1157.5833333333333,49.28571428571427,1160,48.987012987012974C1162.4166666666667,48.68831168831168,1164.8333333333333,48.38961038961039,1167.25,48.09090909090909C1169.6666666666667,47.7922077922078,1172.0833333333333,47.493506493506494,1174.5,47.1948051948052C1176.9166666666667,46.8961038961039,1179.3333333333333,46.5974025974026,1181.75,46.2987012987013C1184.1666666666667,46.00000000000001,1186.5833333333333,45.70129870129871,1189,45.40259740259741C1191.4166666666667,45.103896103896105,1193.8333333333333,44.805194805194795,1196.25,44.5064935064935C1198.6666666666667,44.2077922077922,1201.0833333333333,43.90909090909091,1203.5,43.61038961038961C1205.9166666666667,43.311688311688314,1208.3333333333333,43.012987012987,1210.75,42.7142857142857C1213.1666666666667,42.415584415584405,1215.5833333333333,42.116883116883116,1218,41.81818181818182C1220.4166666666667,41.519480519480524,1222.8333333333333,41.22077922077922,1225.25,40.922077922077925C1227.6666666666667,40.62337662337663,1230.0833333333333,40.324675324675326,1232.5,40.02597402597403C1234.9166666666667,39.727272727272734,1237.3333333333333,39.42857142857142,1239.75,39.12987012987013C1242.1666666666667,38.83116883116883,1244.5833333333333,38.53246753246753,1247,38.23376623376623C1249.4166666666667,37.935064935064936,1251.8333333333333,37.63636363636364,1254.25,37.33766233766234C1256.6666666666667,37.038961038961034,1259.0833333333333,36.740259740259724,1261.5,36.44155844155843C1263.9166666666667,36.14285714285713,1266.3333333333333,35.84415584415584,1268.75,35.54545454545455C1271.1666666666667,35.24675324675325,1273.5833333333333,34.94805194805195,1276,34.64935064935065C1278.4166666666667,34.350649350649356,1280.8333333333333,34.05194805194806,1283.25,33.75324675324676C1285.6666666666667,33.45454545454547,1288.0833333333333,33.15584415584416,1290.5,32.857142857142854C1292.9166666666667,32.55844155844155,1295.3333333333333,32.259740259740255,1297.75,31.96103896103896C1300.1666666666667,31.66233766233766,1302.5833333333333,31.363636363636363,1305,31.064935064935064C1307.4166666666667,30.766233766233764,1309.8333333333333,30.46753246753246,1312.25,30.168831168831165C1314.6666666666667,29.87012987012987,1317.0833333333333,29.57142857142858,1319.5,29.272727272727284C1321.9166666666667,28.974025974025988,1324.3333333333333,28.675324675324685,1326.75,28.376623376623385C1329.1666666666667,28.077922077922086,1331.5833333333333,27.779220779220775,1334,27.480519480519476C1336.4166666666667,27.181818181818176,1338.8333333333333,26.883116883116895,1341.25,26.584415584415595C1343.6666666666667,26.285714285714295,1346.0833333333333,25.987012987012985,1348.5,25.688311688311686C1350.9166666666667,25.389610389610386,1353.3333333333333,25.090909090909086,1355.75,24.792207792207787C1358.1666666666667,24.493506493506487,1360.5833333333333,24.194805194805177,1363,23.896103896103877C1365.4166666666667,23.597402597402578,1367.8333333333333,23.29870129870129,1370.25,22.999999999999996C1372.6666666666667,22.701298701298704,1375.0833333333333,22.402597402597408,1377.5,22.103896103896112C1379.9166666666667,21.805194805194816,1382.3333333333333,21.506493506493513,1384.75,21.207792207792213C1387.1666666666667,20.909090909090914,1389.5833333333333,20.610389610389607,1392,20.311688311688307C1394.4166666666667,20.012987012987008,1396.8333333333333,19.714285714285705,1399.25,19.41558441558441C1401.6666666666667,19.116883116883113,1404.0833333333333,18.818181818181824,1406.5,18.519480519480524C1408.9166666666667,18.220779220779225,1411.3333333333333,17.922077922077914,1413.75,17.623376623376615C1416.1666666666667,17.324675324675315,1418.5833333333333,17.02597402597403,1421,16.727272727272734C1423.4166666666667,16.428571428571438,1425.8333333333333,16.129870129870138,1428.25,15.831168831168837C1430.6666666666667,15.532467532467535,1433.0833333333333,15.233766233766227,1435.5,14.935064935064927C1437.9166666666667,14.636363636363628,1440.3333333333333,14.337662337662339,1442.75,14.038961038961043C1445.1666666666667,13.740259740259747,1447.5833333333333,13.441558441558447,1450,13.142857142857148" fill="transparent" stroke-linecap="round" stroke="#B6509E" stroke-width="2"></path><path class="visx-linepath" d="M0,111.05714285714286C2.4166666666666665,111.05714285714286,4.833333333333334,111.05714285714286,7.25,111.05714285714286C9.666666666666666,111.05714285714286,12.083333333333334,111.05714285714286,14.5,111.05714285714286C16.916666666666668,111.05714285714286,19.333333333333332,111.05714285714286,21.75,111.05714285714286C24.166666666666668,111.05714285714286,26.583333333333332,111.05714285714286,29,111.05714285714286C31.416666666666668,111.05714285714286,33.833333333333336,111.05714285714286,36.25,111.05714285714286C38.666666666666664,111.05714285714286,41.083333333333336,111.05714285714286,43.5,111.05714285714286C45.91666666666667,111.05714285714286,48.333333333333336,111.05714285714286,50.75000000000001,111.05714285714286C53.16666666666667,111.05714285714286,55.583333333333336,111.05714285714286,58,111.05714285714286C60.416666666666664,111.05714285714286,62.833333333333336,111.05714285714286,65.25,111.05714285714286C67.66666666666667,111.05714285714286,70.08333333333333,111.05714285714286,72.5,111.05714285714286C74.91666666666667,111.05714285714286,77.33333333333333,111.05714285714286,79.75,111.05714285714286C82.16666666666667,111.05714285714286,84.58333333333333,111.05714285714286,87,111.05714285714286C89.41666666666667,111.05714285714286,91.83333333333333,111.05714285714286,94.25,111.05714285714286C96.66666666666667,111.05714285714286,99.08333333333334,111.05714285714286,101.50000000000001,111.05714285714286C103.91666666666667,111.05714285714286,106.33333333333334,111.05714285714286,108.75,111.05714285714286C111.16666666666667,111.05714285714286,113.58333333333333,111.05714285714286,116,111.05714285714286C118.41666666666667,111.05714285714286,120.83333333333334,111.05714285714286,123.25000000000001,111.05714285714286C125.66666666666667,111.05714285714286,128.08333333333334,111.05714285714286,130.5,111.05714285714286C132.91666666666666,111.05714285714286,135.33333333333334,111.05714285714286,137.75,111.05714285714286C140.16666666666666,111.05714285714286,142.58333333333334,111.05714285714286,145,111.05714285714286C147.41666666666666,111.05714285714286,149.83333333333334,111.05714285714286,152.25,111.05714285714286C154.66666666666666,111.05714285714286,157.08333333333334,111.05714285714286,159.5,111.05714285714286C161.91666666666666,111.05714285714286,164.33333333333334,111.05714285714286,166.75,111.05714285714286C169.16666666666666,111.05714285714286,171.58333333333334,111.05714285714286,174,111.05714285714286C176.41666666666666,111.05714285714286,178.83333333333334,111.05714285714286,181.25,111.05714285714286C183.66666666666666,111.05714285714286,186.08333333333334,111.05714285714286,188.5,111.05714285714286C190.91666666666666,111.05714285714286,193.33333333333334,111.05714285714286,195.75,111.05714285714286C198.16666666666669,111.05714285714286,200.58333333333334,111.05714285714286,203.00000000000003,111.05714285714286C205.41666666666669,111.05714285714286,207.83333333333331,111.05714285714286,210.24999999999997,111.05714285714286C212.66666666666666,111.05714285714286,215.08333333333331,111.05714285714286,217.5,111.05714285714286C219.91666666666666,111.05714285714286,222.33333333333334,111.05714285714286,224.75,111.05714285714286C227.16666666666666,111.05714285714286,229.58333333333334,111.05714285714286,232,111.05714285714286C234.41666666666666,111.05714285714286,236.83333333333334,111.05714285714286,239.25,111.05714285714286C241.66666666666669,111.05714285714286,244.08333333333334,111.05714285714286,246.50000000000003,111.05714285714286C248.91666666666669,111.05714285714286,251.33333333333331,111.05714285714286,253.74999999999997,111.05714285714286C256.16666666666663,111.05714285714286,258.5833333333333,111.05714285714286,261,111.05714285714286C263.4166666666667,111.05714285714286,265.8333333333333,111.05714285714286,268.25,111.05714285714286C270.6666666666667,111.05714285714286,273.0833333333333,111.05714285714286,275.5,111.05714285714286C277.9166666666667,111.05714285714286,280.3333333333333,111.05714285714286,282.75,111.05714285714286C285.1666666666667,111.05714285714286,287.5833333333333,111.05714285714286,290,111.05714285714286C292.4166666666667,111.05714285714286,294.8333333333333,111.05714285714286,297.25,111.05714285714286C299.6666666666667,111.05714285714286,302.0833333333333,111.05714285714286,304.5,111.05714285714286C306.9166666666667,111.05714285714286,309.3333333333333,111.05714285714286,311.75,111.05714285714286C314.1666666666667,111.05714285714286,316.5833333333333,111.05714285714286,319,111.05714285714286C321.4166666666667,111.05714285714286,323.8333333333333,111.05714285714286,326.25,111.05714285714286C328.6666666666667,111.05714285714286,331.0833333333333,111.05714285714286,333.5,111.05714285714286C335.9166666666667,111.05714285714286,338.3333333333333,111.05714285714286,340.75,111.05714285714286C343.1666666666667,111.05714285714286,345.5833333333333,111.05714285714286,348,111.05714285714286C350.4166666666667,111.05714285714286,352.8333333333333,111.05714285714286,355.25,111.05714285714286C357.6666666666667,111.05714285714286,360.0833333333333,111.05714285714286,362.5,111.05714285714286C364.9166666666667,111.05714285714286,367.3333333333333,111.05714285714286,369.75,111.05714285714286C372.1666666666667,111.05714285714286,374.5833333333333,111.05714285714286,377,111.05714285714286C379.4166666666667,111.05714285714286,381.8333333333333,111.05714285714286,384.25,111.05714285714286C386.6666666666667,111.05714285714286,389.0833333333333,111.05714285714286,391.5,111.05714285714286C393.9166666666667,111.05714285714286,396.33333333333337,111.05714285714286,398.75000000000006,111.05714285714286C401.16666666666674,111.05714285714286,403.58333333333337,111.05714285714286,406.00000000000006,111.05714285714286C408.4166666666667,111.05714285714286,410.8333333333333,111.05714285714286,413.24999999999994,111.05714285714286C415.66666666666663,111.05714285714286,418.08333333333326,111.05714285714286,420.49999999999994,111.05714285714286C422.91666666666663,111.05714285714286,425.3333333333333,111.05714285714286,427.75,111.05714285714286C430.1666666666667,111.05714285714286,432.5833333333333,111.05714285714286,435,111.05714285714286C437.4166666666667,111.05714285714286,439.8333333333333,111.05714285714286,442.25,111.05714285714286C444.6666666666667,111.05714285714286,447.0833333333333,111.05714285714286,449.5,111.05714285714286C451.9166666666667,111.05714285714286,454.3333333333333,111.05714285714286,456.75,111.05714285714286C459.1666666666667,111.05714285714286,461.5833333333333,111.05714285714286,464,111.05714285714286C466.4166666666667,111.05714285714286,468.8333333333333,111.05714285714286,471.25,111.05714285714286C473.6666666666667,111.05714285714286,476.0833333333333,111.05714285714286,478.5,111.05714285714286C480.9166666666667,111.05714285714286,483.33333333333337,111.05714285714286,485.75000000000006,111.05714285714286C488.16666666666674,111.05714285714286,490.58333333333337,111.05714285714286,493.00000000000006,111.05714285714286C495.4166666666667,111.05714285714286,497.8333333333333,111.05714285714286,500.24999999999994,111.05714285714286C502.66666666666663,111.05714285714286,505.08333333333326,111.05714285714286,507.49999999999994,111.05714285714286C509.91666666666663,111.05714285714286,512.3333333333333,111.05714285714286,514.75,111.05714285714286C517.1666666666666,111.05714285714286,519.5833333333334,111.05714285714286,522,111.05714285714286C524.4166666666666,111.05714285714286,526.8333333333334,111.05714285714286,529.25,111.05714285714286C531.6666666666666,111.05714285714286,534.0833333333334,111.05714285714286,536.5,111.05714285714286C538.9166666666666,111.05714285714286,541.3333333333334,111.05714285714286,543.75,111.05714285714286C546.1666666666666,111.05714285714286,548.5833333333334,111.05714285714286,551,111.05714285714286C553.4166666666666,111.05714285714286,555.8333333333334,111.05714285714286,558.25,111.05714285714286C560.6666666666666,111.05714285714286,563.0833333333334,111.05714285714286,565.5,111.05714285714286C567.9166666666666,111.05714285714286,570.3333333333334,111.05714285714286,572.75,111.05714285714286C575.1666666666666,111.05714285714286,577.5833333333334,111.05714285714286,580,111.05714285714286C582.4166666666666,111.05714285714286,584.8333333333334,111.05714285714286,587.25,111.05714285714286C589.6666666666666,111.05714285714286,592.0833333333334,111.05714285714286,594.5,111.05714285714286C596.9166666666666,111.05714285714286,599.3333333333334,111.05714285714286,601.75,111.05714285714286C604.1666666666666,111.05714285714286,606.5833333333334,111.05714285714286,609,111.05714285714286C611.4166666666666,111.05714285714286,613.8333333333334,111.05714285714286,616.25,111.05714285714286C618.6666666666666,111.05714285714286,621.0833333333334,111.05714285714286,623.5,111.05714285714286C625.9166666666666,111.05714285714286,628.3333333333334,111.05714285714286,630.75,111.05714285714286C633.1666666666666,111.05714285714286,635.5833333333334,111.05714285714286,638,111.05714285714286C640.4166666666666,111.05714285714286,642.8333333333334,111.05714285714286,645.25,111.05714285714286C647.6666666666666,111.05714285714286,650.0833333333334,111.05714285714286,652.5,111.05714285714286C654.9166666666666,111.05714285714286,657.3333333333334,111.05714285714286,659.75,111.05714285714286C662.1666666666666,111.05714285714286,664.5833333333334,111.05714285714286,667,111.05714285714286C669.4166666666666,111.05714285714286,671.8333333333334,111.05714285714286,674.25,111.05714285714286C676.6666666666666,111.05714285714286,679.0833333333334,111.05714285714286,681.5,111.05714285714286C683.9166666666666,111.05714285714286,686.3333333333334,111.05714285714286,688.75,111.05714285714286C691.1666666666666,111.05714285714286,693.5833333333334,111.05714285714286,696,111.05714285714286C698.4166666666666,111.05714285714286,700.8333333333334,111.05714285714286,703.25,111.05714285714286C705.6666666666666,111.05714285714286,708.0833333333334,111.05714285714286,710.5,111.05714285714286C712.9166666666666,111.05714285714286,715.3333333333334,111.05714285714286,717.75,111.05714285714286C720.1666666666666,111.05714285714286,722.5833333333334,111.05714285714286,725,111.05714285714286C727.4166666666666,111.05714285714286,729.8333333333334,111.05714285714286,732.25,111.05714285714286C734.6666666666666,111.05714285714286,737.0833333333334,111.05714285714286,739.5,111.05714285714286C741.9166666666666,111.05714285714286,744.3333333333334,111.05714285714286,746.75,111.05714285714286C749.1666666666666,111.05714285714286,751.5833333333334,111.05714285714286,754,111.05714285714286C756.4166666666666,111.05714285714286,758.8333333333334,111.05714285714286,761.25,111.05714285714286C763.6666666666666,111.05714285714286,766.0833333333334,111.05714285714286,768.5,111.05714285714286C770.9166666666666,111.05714285714286,773.3333333333334,111.05714285714286,775.75,111.05714285714286C778.1666666666666,111.05714285714286,780.5833333333334,111.05714285714286,783,111.05714285714286C785.4166666666667,111.05714285714286,787.8333333333334,111.05714285714286,790.2500000000001,111.05714285714286C792.6666666666667,111.05714285714286,795.0833333333335,111.05714285714286,797.5000000000001,111.05714285714286C799.9166666666667,111.05714285714286,802.3333333333335,111.05714285714286,804.7500000000001,111.05714285714286C807.1666666666667,111.05714285714286,809.5833333333335,111.05714285714286,812.0000000000001,111.05714285714286C814.4166666666667,111.05714285714286,816.8333333333333,111.05714285714286,819.2499999999999,111.05714285714286C821.6666666666665,111.05714285714286,824.0833333333333,111.05714285714286,826.4999999999999,111.05714285714286C828.9166666666665,111.05714285714286,831.3333333333333,111.05714285714286,833.7499999999999,111.05714285714286C836.1666666666665,111.05714285714286,838.5833333333333,111.05714285714286,840.9999999999999,111.05714285714286C843.4166666666666,111.05714285714286,845.8333333333333,111.05714285714286,848.25,111.05714285714286C850.6666666666666,111.05714285714286,853.0833333333334,111.05714285714286,855.5,111.05714285714286C857.9166666666666,111.05714285714286,860.3333333333334,111.05714285714286,862.75,111.05714285714286C865.1666666666666,111.05714285714286,867.5833333333334,111.05714285714286,870,111.05714285714286C872.4166666666666,111.05714285714286,874.8333333333334,111.05714285714286,877.25,111.05714285714286C879.6666666666666,111.05714285714286,882.0833333333334,111.05714285714286,884.5,111.05714285714286C886.9166666666666,111.05714285714286,889.3333333333334,111.05714285714286,891.75,111.05714285714286C894.1666666666666,111.05714285714286,896.5833333333334,111.05714285714286,899,111.05714285714286C901.4166666666666,111.05714285714286,903.8333333333334,111.05714285714286,906.25,111.05714285714286C908.6666666666666,111.05714285714286,911.0833333333334,111.05714285714286,913.5,111.05714285714286C915.9166666666666,111.05714285714286,918.3333333333334,111.05714285714286,920.75,111.05714285714286C923.1666666666666,111.05714285714286,925.5833333333334,111.05714285714286,928,111.05714285714286C930.4166666666666,111.05714285714286,932.8333333333334,111.05714285714286,935.25,111.05714285714286C937.6666666666666,111.05714285714286,940.0833333333334,111.05714285714286,942.5,111.05714285714286C944.9166666666666,111.05714285714286,947.3333333333334,111.05714285714286,949.75,111.05714285714286C952.1666666666666,111.05714285714286,954.5833333333334,111.05714285714286,957,111.05714285714286C959.4166666666666,111.05714285714286,961.8333333333334,111.05714285714286,964.25,111.05714285714286C966.6666666666667,111.05714285714286,969.0833333333334,111.05714285714286,971.5000000000001,111.05714285714286C973.9166666666667,111.05714285714286,976.3333333333335,111.05714285714286,978.7500000000001,111.05714285714286C981.1666666666667,111.05714285714286,983.5833333333335,111.05714285714286,986.0000000000001,111.05714285714286C988.4166666666667,111.05714285714286,990.8333333333335,111.05714285714286,993.2500000000001,111.05714285714286C995.6666666666667,111.05714285714286,998.0833333333333,111.05714285714286,1000.4999999999999,111.05714285714286C1002.9166666666665,111.05714285714286,1005.3333333333333,111.05714285714286,1007.7499999999999,111.05714285714286C1010.1666666666665,111.05714285714286,1012.5833333333333,111.05714285714286,1014.9999999999999,111.05714285714286C1017.4166666666665,111.05714285714286,1019.8333333333333,111.05714285714286,1022.2499999999999,111.05714285714286C1024.6666666666665,111.05714285714286,1027.0833333333333,111.05714285714286,1029.5,111.05714285714286C1031.9166666666667,111.05714285714286,1034.3333333333333,111.05714285714286,1036.75,111.05714285714286C1039.1666666666667,111.05714285714286,1041.5833333333333,111.05714285714286,1044,111.05714285714286C1046.4166666666667,111.05714285714286,1048.8333333333333,111.05714285714286,1051.25,111.05714285714286C1053.6666666666667,111.05714285714286,1056.0833333333333,111.05714285714286,1058.5,111.05714285714286C1060.9166666666667,111.05714285714286,1063.3333333333333,111.05714285714286,1065.75,111.05714285714286C1068.1666666666667,111.05714285714286,1070.5833333333333,111.05714285714286,1073,111.05714285714286C1075.4166666666667,111.05714285714286,1077.8333333333333,111.05714285714286,1080.25,111.05714285714286C1082.6666666666667,111.05714285714286,1085.0833333333333,111.05714285714286,1087.5,111.05714285714286C1089.9166666666667,111.05714285714286,1092.3333333333333,111.05714285714286,1094.75,111.05714285714286C1097.1666666666667,111.05714285714286,1099.5833333333333,111.05714285714286,1102,111.05714285714286C1104.4166666666667,111.05714285714286,1106.8333333333333,111.05714285714286,1109.25,111.05714285714286C1111.6666666666667,111.05714285714286,1114.0833333333333,111.05714285714286,1116.5,111.05714285714286C1118.9166666666667,111.05714285714286,1121.3333333333333,111.05714285714286,1123.75,111.05714285714286C1126.1666666666667,111.05714285714286,1128.5833333333333,111.05714285714286,1131,111.05714285714286C1133.4166666666667,111.05714285714286,1135.8333333333333,111.05714285714286,1138.25,111.05714285714286C1140.6666666666667,111.05714285714286,1143.0833333333333,111.05714285714286,1145.5,111.05714285714286C1147.9166666666667,111.05714285714286,1150.3333333333333,111.05714285714286,1152.75,111.05714285714286C1155.1666666666667,111.05714285714286,1157.5833333333333,111.05714285714286,1160,111.05714285714286C1162.4166666666667,111.05714285714286,1164.8333333333333,111.05714285714286,1167.25,111.05714285714286C1169.6666666666667,111.05714285714286,1172.0833333333333,111.05714285714286,1174.5,111.05714285714286C1176.9166666666667,111.05714285714286,1179.3333333333333,111.05714285714286,1181.75,111.05714285714286C1184.1666666666667,111.05714285714286,1186.5833333333333,111.05714285714286,1189,111.05714285714286C1191.4166666666667,111.05714285714286,1193.8333333333333,111.05714285714286,1196.25,111.05714285714286C1198.6666666666667,111.05714285714286,1201.0833333333333,111.05714285714286,1203.5,111.05714285714286C1205.9166666666667,111.05714285714286,1208.3333333333333,111.05714285714286,1210.75,111.05714285714286C1213.1666666666667,111.05714285714286,1215.5833333333333,111.05714285714286,1218,111.05714285714286C1220.4166666666667,111.05714285714286,1222.8333333333333,111.05714285714286,1225.25,111.05714285714286C1227.6666666666667,111.05714285714286,1230.0833333333333,111.05714285714286,1232.5,111.05714285714286C1234.9166666666667,111.05714285714286,1237.3333333333333,111.05714285714286,1239.75,111.05714285714286C1242.1666666666667,111.05714285714286,1244.5833333333333,111.05714285714286,1247,111.05714285714286C1249.4166666666667,111.05714285714286,1251.8333333333333,111.05714285714286,1254.25,111.05714285714286C1256.6666666666667,111.05714285714286,1259.0833333333333,111.05714285714286,1261.5,111.05714285714286C1263.9166666666667,111.05714285714286,1266.3333333333333,111.05714285714286,1268.75,111.05714285714286C1271.1666666666667,111.05714285714286,1273.5833333333333,111.05714285714286,1276,111.05714285714286C1278.4166666666667,111.05714285714286,1280.8333333333333,111.05714285714286,1283.25,111.05714285714286C1285.6666666666667,111.05714285714286,1288.0833333333333,111.05714285714286,1290.5,111.05714285714286C1292.9166666666667,111.05714285714286,1295.3333333333333,111.05714285714286,1297.75,111.05714285714286C1300.1666666666667,111.05714285714286,1302.5833333333333,111.05714285714286,1305,111.05714285714286C1307.4166666666667,111.05714285714286,1309.8333333333333,111.05714285714286,1312.25,111.05714285714286C1314.6666666666667,111.05714285714286,1317.0833333333333,111.05714285714286,1319.5,111.05714285714286C1321.9166666666667,111.05714285714286,1324.3333333333333,111.05714285714286,1326.75,111.05714285714286C1329.1666666666667,111.05714285714286,1331.5833333333333,111.05714285714286,1334,111.05714285714286C1336.4166666666667,111.05714285714286,1338.8333333333333,111.05714285714286,1341.25,111.05714285714286C1343.6666666666667,111.05714285714286,1346.0833333333333,111.05714285714286,1348.5,111.05714285714286C1350.9166666666667,111.05714285714286,1353.3333333333333,111.05714285714286,1355.75,111.05714285714286C1358.1666666666667,111.05714285714286,1360.5833333333333,111.05714285714286,1363,111.05714285714286C1365.4166666666667,111.05714285714286,1367.8333333333333,111.05714285714286,1370.25,111.05714285714286C1372.6666666666667,111.05714285714286,1375.0833333333333,111.05714285714286,1377.5,111.05714285714286C1379.9166666666667,111.05714285714286,1382.3333333333333,111.05714285714286,1384.75,111.05714285714286C1387.1666666666667,111.05714285714286,1389.5833333333333,111.05714285714286,1392,111.05714285714286C1394.4166666666667,111.05714285714286,1396.8333333333333,111.05714285714286,1399.25,111.05714285714286C1401.6666666666667,111.05714285714286,1404.0833333333333,111.05714285714286,1406.5,111.05714285714286C1408.9166666666667,111.05714285714286,1411.3333333333333,111.05714285714286,1413.75,111.05714285714286C1416.1666666666667,111.05714285714286,1418.5833333333333,111.05714285714286,1421,111.05714285714286C1423.4166666666667,111.05714285714286,1425.8333333333333,111.05714285714286,1428.25,111.05714285714286C1430.6666666666667,111.05714285714286,1433.0833333333333,111.05714285714286,1435.5,111.05714285714286C1437.9166666666667,111.05714285714286,1440.3333333333333,111.05714285714286,1442.75,111.05714285714286C1445.1666666666667,111.05714285714286,1447.5833333333333,111.05714285714286,1450,111.05714285714286" fill="transparent" stroke-linecap="round" stroke="#E7C6DF" stroke-width="2"></path><g class="visx-group visx-axis visx-axis-bottom" transform="translate(0, 115)"><g class="visx-group visx-axis-tick" transform="translate(0, 0)"><line class="visx-line" x1="0" y1="0" x2="0" y2="8" fill="transparent" shape-rendering="crispEdges" stroke="#000" stroke-width="0" stroke-linecap="square"></line><svg x="0" y="0" font-size="10" style="overflow:visible"><text transform="" x="0" y="18" fill="#000" font-size="10" text-anchor="middle"><tspan x="0" dy="0em">0%</tspan></text></svg></g><g class="visx-group visx-axis-tick" transform="translate(0, 0)"><line class="visx-line" x1="362.5" y1="0" x2="362.5" y2="8" fill="transparent" shape-rendering="crispEdges" stroke="#000" stroke-width="0" stroke-linecap="square"></line><svg x="0" y="0" font-size="10" style="overflow:visible"><text transform="" x="362.5" y="18" fill="#000" font-size="10" text-anchor="middle"><tspan x="362.5" dy="0em">25%</tspan></text></svg></g><g class="visx-group visx-axis-tick" transform="translate(0, 0)"><line class="visx-line" x1="725" y1="0" x2="725" y2="8" fill="transparent" shape-rendering="crispEdges" stroke="#000" stroke-width="0" stroke-linecap="square"></line><svg x="0" y="0" font-size="10" style="overflow:visible"><text transform="" x="725" y="18" fill="#000" font-size="10" text-anchor="middle"><tspan x="725" dy="0em">50%</tspan></text></svg></g><g class="visx-group visx-axis-tick" transform="translate(0, 0)"><line class="visx-line" x1="1087.5" y1="0" x2="1087.5" y2="8" fill="transparent" shape-rendering="crispEdges" stroke="#000" stroke-width="0" stroke-linecap="square"></line><svg x="0" y="0" font-size="10" style="overflow:visible"><text transform="" x="1087.5" y="18" fill="#000" font-size="10" text-anchor="middle"><tspan x="1087.5" dy="0em">75%</tspan></text></svg></g><g class="visx-group visx-axis-tick" transform="translate(0, 0)"><line class="visx-line" x1="1450" y1="0" x2="1450" y2="8" fill="transparent" shape-rendering="crispEdges" stroke="#000" stroke-width="0" stroke-linecap="square"></line><svg x="0" y="0" font-size="10" style="overflow:visible"><text transform="" x="1450" y="18" fill="#000" font-size="10" text-anchor="middle"><tspan x="1450" dy="0em">100%</tspan></text></svg></g><line class="visx-line visx-axis-line" x1="0.5" y1="0" x2="1450.5" y2="0" fill="transparent" shape-rendering="crispEdges" stroke="#222" stroke-width="0"></line></g><g class="visx-group visx-axis visx-axis-left" transform="translate(0, 0)"><g class="visx-group visx-axis-tick" transform="translate(0, 0)"><line class="visx-line" x1="0" y1="115" x2="-8" y2="115" fill="transparent" shape-rendering="crispEdges" stroke="#222" stroke-width="0" stroke-linecap="square"></line><svg x="-30" y="0" font-size="8" style="overflow:visible"><text transform="" x="-8" y="115" fill="#000" font-size="8" text-anchor="start"><tspan x="-8" dy="0em">0%</tspan></text></svg></g><g class="visx-group visx-axis-tick" transform="translate(0, 0)"><line class="visx-line" x1="0" y1="49.28571428571429" x2="-8" y2="49.28571428571429" fill="transparent" shape-rendering="crispEdges" stroke="#222" stroke-width="0" stroke-linecap="square"></line><svg x="-30" y="0" font-size="8" style="overflow:visible"><text transform="" x="-8" y="49.28571428571429" fill="#000" font-size="8" text-anchor="start"><tspan x="-8" dy="0em">200%</tspan></text></svg></g><line class="visx-line visx-axis-line" x1="0" y1="115.5" x2="0" y2="0.5" fill="transparent" shape-rendering="crispEdges" stroke="#222" stroke-width="0"></line></g><rect class="visx-bar" width="1450" height="115" fill="transparent"></rect><line class="visx-line" x1="652.5" y1="28" x2="652.5" y2="115" fill="transparent" shape-rendering="crispEdges" stroke="#0062D2" stroke-width="1" pointer-events="none" stroke-dasharray="5,2"></line><svg x="0" y="0" font-size="10px" style="overflow:visible"><text transform="" x="652.5" y="20" font-size="10px" fill="#fff" stroke="#fff" stroke-width="0.8em" text-anchor="middle"><tspan x="652.5" dy="0.355em">Optimal 45%</tspan></text></svg><svg x="0" y="0" font-size="10px" style="overflow:visible"><text transform="" x="652.5" y="20" font-size="10px" fill="#62677B" text-anchor="middle"><tspan x="652.5" dy="0.355em">Optimal 45%</tspan></text></svg></g></svg>