<?xml version="1.0"?><svg xmlns="http://www.w3.org/2000/svg" xmlns:xlink= "http://www.w3.org/1999/xlink" style="background: white;" width="1500" height="185"> <g style="color: black; font-size: 13px; font-family: sans-serif; transform: translate(18px, 25px);"><g><circle r="3" cx="-6" cy="-5" style="fill: #B6509E" /><text>Borrow APR, variable</text></g><g style="transform: translateX(150px);"><circle r="3" cx="-6" cy="-5" style="fill: rgb(231, 198, 223)" /><text>Borrow APR, stable</text></g><g style="transform: translateX(290px);"><circle r="3" cx="-6" cy="-5" style="fill: rgb(0, 98, 210)" /><text>Utilization Rate</text></g></g><g class="visx-group" transform="translate(40, 50)"><g class="visx-group visx-rows" transform="translate(0, 0)"><line class="visx-line" x1="0" y1="115" x2="1450" y2="115" fill="transparent" shape-rendering="crispEdges" stroke="#000" stroke-width="1" stroke-dasharray="3,3" pointer-events="none"></line><line class="visx-line" x1="0" y1="57.5" x2="1450" y2="57.5" fill="transparent" shape-rendering="crispEdges" stroke="#000" stroke-width="1" stroke-dasharray="3,3" pointer-events="none"></line><line class="visx-line" x1="0" y1="0" x2="1450" y2="0" fill="transparent" shape-rendering="crispEdges" stroke="#000" stroke-width="1" stroke-dasharray="3,3" pointer-events="none"></line></g><path class="visx-linepath" d="M0,113.84999999995257C2.4166666666666665,113.84209374997234,4.833333333333334,113.83418749999211,7.25,113.82628125000001C9.666666666666666,113.8183750000079,12.083333333333334,113.81046875,14.5,113.8025625C16.916666666666668,113.79465624999999,19.333333333333332,113.78674999999998,21.75,113.77884375C24.166666666666668,113.7709375,26.583333333333332,113.76303125000001,29,113.755125C31.416666666666668,113.74721875,33.833333333333336,113.7393125,36.25,113.73140624999999C38.666666666666664,113.72349999999999,41.083333333333336,113.71559374999998,43.5,113.70768749999999C45.91666666666667,113.69978124999999,48.333333333333336,113.69187500000001,50.75000000000001,113.68396875C53.16666666666667,113.6760625,55.583333333333336,113.66815625,58,113.66024999999999C60.416666666666664,113.65234374999999,62.833333333333336,113.6444375,65.25,113.63653125C67.66666666666667,113.62862500000001,70.08333333333333,113.62071875000001,72.5,113.6128125C74.91666666666667,113.60490625,77.33333333333333,113.597,79.75,113.58909374999999C82.16666666666667,113.58118749999998,84.58333333333333,113.57328125,87,113.565375C89.41666666666667,113.55746875000001,91.83333333333333,113.54956250000001,94.25,113.54165625C96.66666666666667,113.53375,99.08333333333334,113.52584374999999,101.50000000000001,113.51793749999999C103.91666666666667,113.51003124999998,106.33333333333334,113.50212499999999,108.75,113.49421875C111.16666666666667,113.4863125,113.58333333333333,113.47840625,116,113.4705C118.41666666666667,113.46259375,120.83333333333334,113.4546875,123.25000000000001,113.44678125C125.66666666666667,113.438875,128.08333333333334,113.43096875,130.5,113.4230625C132.91666666666666,113.41515625,135.33333333333334,113.40725,137.75,113.39934375C140.16666666666666,113.3914375,142.58333333333334,113.38353125,145,113.375625C147.41666666666666,113.36771875,149.83333333333334,113.3598125,152.25,113.35190625C154.66666666666666,113.344,157.08333333333334,113.33609375,159.5,113.3281875C161.91666666666666,113.32028125,164.33333333333334,113.312375,166.75,113.30446875C169.16666666666666,113.2965625,171.58333333333334,113.28865625,174,113.28075C176.41666666666666,113.27284374999999,178.83333333333334,113.26493749999999,181.25,113.25703125C183.66666666666666,113.249125,186.08333333333334,113.24121875000002,188.5,113.23331250000001C190.91666666666666,113.22540625,193.33333333333334,113.2175,195.75,113.20959375C198.16666666666669,113.20168749999999,200.58333333333334,113.19378125,203.00000000000003,113.185875C205.41666666666669,113.17796875,207.83333333333331,113.17006250000001,210.24999999999997,113.16215625000001C212.66666666666666,113.15425,215.08333333333331,113.14634375,217.5,113.1384375C219.91666666666666,113.13053124999999,222.33333333333334,113.122625,224.75,113.11471875000001C227.16666666666666,113.10681250000002,229.58333333333334,113.09890625000001,232,113.09100000000001C234.41666666666666,113.08309375,236.83333333333334,113.0751875,239.25,113.06728125C241.66666666666669,113.05937499999999,244.08333333333334,113.05146875000001,246.50000000000003,113.04356250000001C248.91666666666669,113.03565625000002,251.33333333333331,113.02775000000001,253.74999999999997,113.01984375C256.16666666666663,113.0119375,258.5833333333333,113.00403125,261,112.99612499999999C263.4166666666667,112.98821874999999,265.8333333333333,112.9803125,268.25,112.97240625C270.6666666666667,112.96450000000002,273.0833333333333,112.95659375000001,275.5,112.9486875C277.9166666666667,112.94078125,280.3333333333333,112.932875,282.75,112.92496874999999C285.1666666666667,112.91706249999999,287.5833333333333,112.90915625,290,112.90125C292.4166666666667,112.89334375000001,294.8333333333333,112.88543750000001,297.25,112.87753125C299.6666666666667,112.869625,302.0833333333333,112.86171875000001,304.5,112.8538125C306.9166666666667,112.84590625,309.3333333333333,112.83800000000001,311.75,112.83009375C314.1666666666667,112.8221875,316.5833333333333,112.81428125000001,319,112.806375C321.4166666666667,112.79846875,323.8333333333333,112.79056250000001,326.25,112.78265625C328.6666666666667,112.77475,331.0833333333333,112.76684375,333.5,112.7589375C335.9166666666667,112.75103125,338.3333333333333,112.743125,340.75,112.73521875C343.1666666666667,112.7273125,345.5833333333333,112.71940625,348,112.7115C350.4166666666667,112.70359375,352.8333333333333,112.6956875,355.25,112.68778125C357.6666666666667,112.679875,360.0833333333333,112.67196875,362.5,112.6640625C364.9166666666667,112.65615625,367.3333333333333,112.64825,369.75,112.64034375C372.1666666666667,112.6324375,374.5833333333333,112.62453125,377,112.616625C379.4166666666667,112.60871875,381.8333333333333,112.6008125,384.25,112.59290625C386.6666666666667,112.585,389.0833333333333,112.57709375,391.5,112.5691875C393.9166666666667,112.56128125,396.33333333333337,112.553375,398.75000000000006,112.54546875C401.16666666666674,112.5375625,403.58333333333337,112.52965625000002,406.00000000000006,112.52175000000001C408.4166666666667,112.51384375,410.8333333333333,112.5059375,413.24999999999994,112.49803125C415.66666666666663,112.49012499999999,418.08333333333326,112.48221874999999,420.49999999999994,112.4743125C422.91666666666663,112.46640624999999,425.3333333333333,112.45850000000002,427.75,112.45059375000001C430.1666666666667,112.4426875,432.5833333333333,112.43478125,435,112.426875C437.4166666666667,112.41896874999999,439.8333333333333,112.41106249999999,442.25,112.40315625C444.6666666666667,112.39525,447.0833333333333,112.38734375000001,449.5,112.37943750000001C451.9166666666667,112.37153125,454.3333333333333,112.363625,456.75,112.35571875C459.1666666666667,112.34781249999999,461.5833333333333,112.33990624999998,464,112.332C466.4166666666667,112.32409375,468.8333333333333,112.31618750000001,471.25,112.30828125000001C473.6666666666667,112.300375,476.0833333333333,112.29246875,478.5,112.28456249999999C480.9166666666667,112.27665624999999,483.33333333333337,112.26875000000001,485.75000000000006,112.26084375C488.16666666666674,112.25293750000002,490.58333333333337,112.24503125000001,493.00000000000006,112.237125C495.4166666666667,112.22921875,497.8333333333333,112.2213125,500.24999999999994,112.21340624999999C502.66666666666663,112.20549999999999,505.08333333333326,112.19759375,507.49999999999994,112.1896875C509.91666666666663,112.18178125,512.3333333333333,112.17387500000001,514.75,112.16596875C517.1666666666666,112.1580625,519.5833333333334,112.15015625,522,112.14224999999999C524.4166666666666,112.13434374999999,526.8333333333334,112.1264375,529.25,112.11853125C531.6666666666666,112.11062500000001,534.0833333333334,112.10271875000001,536.5,112.0948125C538.9166666666666,112.08690625,541.3333333333334,112.079,543.75,112.07109374999999C546.1666666666666,112.06318749999998,548.5833333333334,112.05528125,551,112.047375C553.4166666666666,112.03946875000001,555.8333333333334,112.0315625,558.25,112.02365625C560.6666666666666,112.01575,563.0833333333334,112.00784375,565.5,111.9999375C567.9166666666666,111.99203125,570.3333333333334,111.984125,572.75,111.97621875C575.1666666666666,111.9683125,577.5833333333334,111.96040625,580,111.9525C582.4166666666666,111.94459375,584.8333333333334,111.9366875,587.25,111.92878125C589.6666666666666,111.920875,592.0833333333334,111.91296875,594.5,111.9050625C596.9166666666666,111.89715625,599.3333333333334,111.88925,601.75,111.88134375C604.1666666666666,111.8734375,606.5833333333334,111.86553125,609,111.857625C611.4166666666666,111.84971875,613.8333333333334,111.8418125,616.25,111.83390625C618.6666666666666,111.826,621.0833333333334,111.81809375,623.5,111.8101875C625.9166666666666,111.80228125,628.3333333333334,111.794375,630.75,111.78646875C633.1666666666666,111.77856249999999,635.5833333333334,111.77065625,638,111.76275C640.4166666666666,111.75484374999999,642.8333333333334,111.7469375,645.25,111.73903125C647.6666666666666,111.73112499999999,650.0833333333334,111.72321875,652.5,111.7153125C654.9166666666666,111.70740624999999,657.3333333333334,111.69949999999999,659.75,111.69159375C662.1666666666666,111.6836875,664.5833333333334,111.67578125000001,667,111.66787500000001C669.4166666666666,111.65996875,671.8333333333334,111.6520625,674.25,111.64415625C676.6666666666666,111.63624999999999,679.0833333333334,111.62834374999998,681.5,111.6204375C683.9166666666666,111.61253125,686.3333333333334,111.60462500000001,688.75,111.59671875000001C691.1666666666666,111.5888125,693.5833333333334,111.58090625,696,111.573C698.4166666666666,111.56509374999999,700.8333333333334,111.55718749999998,703.25,111.54928124999999C705.6666666666666,111.541375,708.0833333333334,111.53346875000001,710.5,111.5255625C712.9166666666666,111.51765625,715.3333333333334,111.50975,717.75,111.50184374999999C720.1666666666666,111.49393749999999,722.5833333333334,111.48603124999998,725,111.47812499999999C727.4166666666666,111.47021875,729.8333333333334,111.46231250000001,732.25,111.45440625C734.6666666666666,111.4465,737.0833333333334,111.43859375,739.5,111.43068749999999C741.9166666666666,111.42278124999999,744.3333333333334,111.414875,746.75,111.40696875C749.1666666666666,111.39906250000001,751.5833333333334,111.39115625000001,754,111.38325C756.4166666666666,111.37534375,758.8333333333334,111.36743750000001,761.25,111.35953125C763.6666666666666,111.351625,766.0833333333334,111.34371875000001,768.5,111.3358125C770.9166666666666,111.32790625,773.3333333333334,111.32000000000001,775.75,111.31209375C778.1666666666666,111.3041875,780.5833333333334,111.29628124999999,783,111.28837499999999C785.4166666666667,111.28046874999998,787.8333333333334,111.2725625,790.2500000000001,111.26465625C792.6666666666667,111.25675000000001,795.0833333333335,111.24884375,797.5000000000001,111.2409375C799.9166666666667,111.23303125,802.3333333333335,111.225125,804.7500000000001,111.21721875C807.1666666666667,111.2093125,809.5833333333335,111.20140625,812.0000000000001,111.1935C814.4166666666667,111.18559375,816.8333333333333,111.1776875,819.2499999999999,111.16978125C821.6666666666665,111.161875,824.0833333333333,111.15396875,826.4999999999999,111.1460625C828.9166666666665,111.13815625,831.3333333333333,111.13025,833.7499999999999,111.12234375C836.1666666666665,111.1144375,838.5833333333333,111.10653124999999,840.9999999999999,111.098625C843.4166666666666,111.09071875,845.8333333333333,111.08281250000002,848.25,111.07490625000001C850.6666666666666,111.06700000000001,853.0833333333334,111.05909375,855.5,111.0511875C857.9166666666666,111.04328124999999,860.3333333333334,111.035375,862.75,111.02746875C865.1666666666666,111.01956249999999,867.5833333333334,111.01165625,870,111.00375C872.4166666666666,110.99584374999999,874.8333333333334,110.9879375,877.25,110.98003125C879.6666666666666,110.97212499999999,882.0833333333334,110.96421874999999,884.5,110.9563125C886.9166666666666,110.94840625,889.3333333333334,110.94050000000001,891.75,110.93259375000001C894.1666666666666,110.9246875,896.5833333333334,110.91678125,899,110.908875C901.4166666666666,110.90096874999999,903.8333333333334,110.8930625,906.25,110.88515625000001C908.6666666666666,110.87725000000002,911.0833333333334,110.86934375000001,913.5,110.86143750000001C915.9166666666666,110.85353125,918.3333333333334,110.845625,920.75,110.83771875C923.1666666666666,110.82981249999999,925.5833333333334,110.82190625,928,110.81400000000001C930.4166666666666,110.80609375000002,932.8333333333334,110.79818750000001,935.25,110.79028125C937.6666666666666,110.782375,940.0833333333334,110.77446875,942.5,110.76656249999999C944.9166666666666,110.75865624999999,947.3333333333334,110.75075,949.75,110.74284375C952.1666666666666,110.73493750000002,954.5833333333334,110.72703125000001,957,110.719125C959.4166666666666,110.71121875,961.8333333333334,110.7033125,964.25,110.69540624999999C966.6666666666667,110.68749999999999,969.0833333333334,110.67959375000001,971.5000000000001,110.6716875C973.9166666666667,110.66378125000001,976.3333333333335,110.65587500000001,978.7500000000001,110.64796875C981.1666666666667,110.6400625,983.5833333333335,110.63215625000001,986.0000000000001,110.62425C988.4166666666667,110.61634375,990.8333333333335,110.60843750000001,993.2500000000001,110.60053125C995.6666666666667,110.592625,998.0833333333333,110.58471875000001,1000.4999999999999,110.5768125C1002.9166666666665,110.56890625,1005.3333333333333,110.561,1007.7499999999999,110.55309375C1010.1666666666665,110.5451875,1012.5833333333333,110.53728125,1014.9999999999999,110.529375C1017.4166666666665,110.52146875,1019.8333333333333,110.5135625,1022.2499999999999,110.50565625C1024.6666666666665,110.49775,1027.0833333333333,110.48984375,1029.5,110.4819375C1031.9166666666667,110.47403125,1034.3333333333333,110.466125,1036.75,110.45821875C1039.1666666666667,110.4503125,1041.5833333333333,110.44240625,1044,110.4345C1046.4166666666667,110.42659375,1048.8333333333333,110.4186875,1051.25,110.41078125C1053.6666666666667,110.402875,1056.0833333333333,110.39496875,1058.5,110.3870625C1060.9166666666667,110.37915625,1063.3333333333333,110.37125,1065.75,110.36334375C1068.1666666666667,110.3554375,1070.5833333333333,110.34753125,1073,110.339625C1075.4166666666667,110.33171875,1077.8333333333333,110.32381249999999,1080.25,110.31590625C1082.6666666666667,110.308,1085.0833333333333,110.30009375000002,1087.5,110.29218750000001C1089.9166666666667,110.28428125,1092.3333333333333,110.276375,1094.75,110.26846875C1097.1666666666667,110.26056249999999,1099.5833333333333,110.25265624999999,1102,110.24475C1104.4166666666667,110.23684375,1106.8333333333333,110.22893750000001,1109.25,110.22103125000001C1111.6666666666667,110.213125,1114.0833333333333,110.20521875,1116.5,110.1973125C1118.9166666666667,110.18940624999999,1121.3333333333333,110.18149999999999,1123.75,110.17359375C1126.1666666666667,110.1656875,1128.5833333333333,110.15778125000001,1131,110.14987500000001C1133.4166666666667,110.14196875,1135.8333333333333,110.1340625,1138.25,110.12615625C1140.6666666666667,110.11824999999999,1143.0833333333333,110.11034374999998,1145.5,110.1024375C1147.9166666666667,110.09453125,1150.3333333333333,110.08662500000001,1152.75,110.07871875000001C1155.1666666666667,110.0708125,1157.5833333333333,110.0708125,1160,110.05499999999999C1162.4166666666667,110.03918749999998,1164.8333333333333,108.52166666666668,1167.25,107.75500000000001C1169.6666666666667,106.98833333333334,1172.0833333333333,106.22166666666666,1174.5,105.455C1176.9166666666667,104.68833333333333,1179.3333333333333,103.92166666666667,1181.75,103.155C1184.1666666666667,102.38833333333334,1186.5833333333333,101.62166666666667,1189,100.855C1191.4166666666667,100.08833333333334,1193.8333333333333,99.32166666666666,1196.25,98.55499999999999C1198.6666666666667,97.78833333333333,1201.0833333333333,97.02166666666666,1203.5,96.255C1205.9166666666667,95.48833333333333,1208.3333333333333,94.72166666666666,1210.75,93.955C1213.1666666666667,93.18833333333333,1215.5833333333333,92.42166666666665,1218,91.65499999999999C1220.4166666666667,90.88833333333332,1222.8333333333333,90.12166666666667,1225.25,89.355C1227.6666666666667,88.58833333333334,1230.0833333333333,87.82166666666667,1232.5,87.055C1234.9166666666667,86.28833333333334,1237.3333333333333,85.52166666666666,1239.75,84.755C1242.1666666666667,83.98833333333333,1244.5833333333333,83.22166666666668,1247,82.45500000000001C1249.4166666666667,81.68833333333335,1251.8333333333333,80.92166666666667,1254.25,80.155C1256.6666666666667,79.38833333333334,1259.0833333333333,78.62166666666666,1261.5,77.85499999999999C1263.9166666666667,77.08833333333332,1266.3333333333333,76.32166666666667,1268.75,75.555C1271.1666666666667,74.78833333333334,1273.5833333333333,74.02166666666666,1276,73.255C1278.4166666666667,72.48833333333333,1280.8333333333333,71.72166666666666,1283.25,70.955C1285.6666666666667,70.18833333333333,1288.0833333333333,69.42166666666667,1290.5,68.655C1292.9166666666667,67.88833333333334,1295.3333333333333,67.12166666666666,1297.75,66.35499999999999C1300.1666666666667,65.58833333333332,1302.5833333333333,64.82166666666667,1305,64.055C1307.4166666666667,63.28833333333334,1309.8333333333333,62.521666666666654,1312.25,61.75499999999999C1314.6666666666667,60.98833333333332,1317.0833333333333,60.221666666666664,1319.5,59.455C1321.9166666666667,58.68833333333333,1324.3333333333333,57.92166666666667,1326.75,57.155C1329.1666666666667,56.388333333333335,1331.5833333333333,55.62166666666666,1334,54.855C1336.4166666666667,54.08833333333333,1338.8333333333333,53.32166666666666,1341.25,52.55499999999999C1343.6666666666667,51.78833333333333,1346.0833333333333,51.021666666666675,1348.5,50.25500000000001C1350.9166666666667,49.488333333333344,1353.3333333333333,48.72166666666667,1355.75,47.955000000000005C1358.1666666666667,47.18833333333334,1360.5833333333333,46.42166666666667,1363,45.655C1365.4166666666667,44.888333333333335,1367.8333333333333,44.12166666666666,1370.25,43.355C1372.6666666666667,42.58833333333333,1375.0833333333333,41.821666666666665,1377.5,41.055C1379.9166666666667,40.288333333333334,1382.3333333333333,39.521666666666675,1384.75,38.75500000000001C1387.1666666666667,37.988333333333344,1389.5833333333333,37.22166666666665,1392,36.454999999999984C1394.4166666666667,35.68833333333332,1396.8333333333333,34.921666666666674,1399.25,34.15500000000001C1401.6666666666667,33.38833333333334,1404.0833333333333,32.62166666666667,1406.5,31.855000000000004C1408.9166666666667,31.088333333333335,1411.3333333333333,30.321666666666665,1413.75,29.555C1416.1666666666667,28.788333333333334,1418.5833333333333,28.021666666666665,1421,27.255C1423.4166666666667,26.488333333333333,1425.8333333333333,25.72166666666668,1428.25,24.95500000000001C1430.6666666666667,24.18833333333334,1433.0833333333333,23.421666666666653,1435.5,22.654999999999983C1437.9166666666667,21.888333333333314,1440.3333333333333,21.121666666666666,1442.75,20.355000000000004C1445.1666666666667,19.588333333333342,1447.5833333333333,18.821666666666673,1450,18.055000000000003" fill="transparent" stroke-linecap="round" stroke="#B6509E" stroke-width="2"></path><path class="visx-linepath" d="M0,107.7549999999425C2.4166666666666665,107.74541666663312,4.833333333333334,107.73583333332374,7.25,107.72625C9.666666666666666,107.71666666667625,12.083333333333334,107.70708333333333,14.5,107.6975C16.916666666666668,107.68791666666668,19.333333333333332,107.67833333333334,21.75,107.66875C24.166666666666668,107.65916666666666,26.583333333333332,107.64958333333333,29,107.63999999999999C31.416666666666668,107.63041666666665,33.833333333333336,107.62083333333332,36.25,107.61125C38.666666666666664,107.60166666666667,41.083333333333336,107.59208333333332,43.5,107.5825C45.91666666666667,107.57291666666666,48.333333333333336,107.56333333333335,50.75000000000001,107.55375000000001C53.16666666666667,107.54416666666668,55.583333333333336,107.53458333333334,58,107.525C60.416666666666664,107.51541666666667,62.833333333333336,107.50583333333334,65.25,107.49625C67.66666666666667,107.48666666666666,70.08333333333333,107.47708333333334,72.5,107.4675C74.91666666666667,107.45791666666666,77.33333333333333,107.44833333333334,79.75,107.43875C82.16666666666667,107.42916666666666,84.58333333333333,107.41958333333334,87,107.41C89.41666666666667,107.40041666666666,91.83333333333333,107.39083333333332,94.25,107.38125C96.66666666666667,107.37166666666666,99.08333333333334,107.36208333333335,101.50000000000001,107.3525C103.91666666666667,107.34291666666668,106.33333333333334,107.33333333333334,108.75,107.32375C111.16666666666667,107.31416666666667,113.58333333333333,107.30458333333334,116,107.295C118.41666666666667,107.28541666666666,120.83333333333334,107.27583333333334,123.25000000000001,107.26625C125.66666666666667,107.25666666666666,128.08333333333334,107.24708333333332,130.5,107.2375C132.91666666666666,107.22791666666666,135.33333333333334,107.21833333333335,137.75,107.20875000000001C140.16666666666666,107.19916666666667,142.58333333333334,107.18958333333333,145,107.17999999999999C147.41666666666666,107.17041666666665,149.83333333333334,107.16083333333331,152.25,107.15124999999999C154.66666666666666,107.14166666666667,157.08333333333334,107.13208333333333,159.5,107.1225C161.91666666666666,107.11291666666668,164.33333333333334,107.10333333333332,166.75,107.09375C169.16666666666666,107.08416666666668,171.58333333333334,107.07458333333335,174,107.06500000000001C176.41666666666666,107.05541666666667,178.83333333333334,107.04583333333333,181.25,107.03625C183.66666666666666,107.02666666666666,186.08333333333334,107.01708333333332,188.5,107.0075C190.91666666666666,106.99791666666667,193.33333333333334,106.98833333333334,195.75,106.97875C198.16666666666669,106.96916666666667,200.58333333333334,106.95958333333333,203.00000000000003,106.94999999999999C205.41666666666669,106.94041666666665,207.83333333333331,106.93083333333333,210.24999999999997,106.92125C212.66666666666666,106.91166666666666,215.08333333333331,106.90208333333334,217.5,106.8925C219.91666666666666,106.88291666666666,222.33333333333334,106.87333333333332,224.75,106.86375C227.16666666666666,106.85416666666667,229.58333333333334,106.84458333333335,232,106.83500000000001C234.41666666666666,106.82541666666667,236.83333333333334,106.81583333333333,239.25,106.80624999999999C241.66666666666669,106.79666666666665,244.08333333333334,106.78708333333334,246.50000000000003,106.7775C248.91666666666669,106.76791666666668,251.33333333333331,106.75833333333334,253.74999999999997,106.74875C256.16666666666663,106.73916666666666,258.5833333333333,106.72958333333334,261,106.72C263.4166666666667,106.71041666666666,265.8333333333333,106.70083333333334,268.25,106.69125C270.6666666666667,106.68166666666666,273.0833333333333,106.67208333333332,275.5,106.6625C277.9166666666667,106.65291666666667,280.3333333333333,106.64333333333333,282.75,106.63375C285.1666666666667,106.62416666666668,287.5833333333333,106.61458333333334,290,106.605C292.4166666666667,106.59541666666667,294.8333333333333,106.58583333333334,297.25,106.57625C299.6666666666667,106.56666666666666,302.0833333333333,106.55708333333334,304.5,106.5475C306.9166666666667,106.53791666666666,309.3333333333333,106.52833333333332,311.75,106.51875C314.1666666666667,106.50916666666667,316.5833333333333,106.49958333333335,319,106.49000000000001C321.4166666666667,106.48041666666667,323.8333333333333,106.47083333333333,326.25,106.46124999999999C328.6666666666667,106.45166666666665,331.0833333333333,106.44208333333333,333.5,106.4325C335.9166666666667,106.42291666666668,338.3333333333333,106.41333333333334,340.75,106.40375C343.1666666666667,106.39416666666666,345.5833333333333,106.38458333333334,348,106.375C350.4166666666667,106.36541666666666,352.8333333333333,106.35583333333334,355.25,106.34625C357.6666666666667,106.33666666666666,360.0833333333333,106.32708333333332,362.5,106.3175C364.9166666666667,106.30791666666667,367.3333333333333,106.29833333333333,369.75,106.28875000000001C372.1666666666667,106.27916666666668,374.5833333333333,106.26958333333334,377,106.26C379.4166666666667,106.25041666666667,381.8333333333333,106.24083333333333,384.25,106.23124999999999C386.6666666666667,106.22166666666665,389.0833333333333,106.21208333333333,391.5,106.2025C393.9166666666667,106.19291666666666,396.33333333333337,106.18333333333334,398.75000000000006,106.17375C401.16666666666674,106.16416666666667,403.58333333333337,106.15458333333335,406.00000000000006,106.14500000000001C408.4166666666667,106.13541666666667,410.8333333333333,106.12583333333333,413.24999999999994,106.11625C415.66666666666663,106.10666666666665,418.08333333333326,106.09708333333332,420.49999999999994,106.08749999999999C422.91666666666663,106.07791666666665,425.3333333333333,106.06833333333334,427.75,106.05875C430.1666666666667,106.04916666666668,432.5833333333333,106.03958333333334,435,106.03C437.4166666666667,106.02041666666666,439.8333333333333,106.01083333333334,442.25,106.00125C444.6666666666667,105.99166666666666,447.0833333333333,105.98208333333332,449.5,105.9725C451.9166666666667,105.96291666666667,454.3333333333333,105.95333333333333,456.75,105.94375000000001C459.1666666666667,105.93416666666668,461.5833333333333,105.92458333333335,464,105.915C466.4166666666667,105.90541666666667,468.8333333333333,105.89583333333333,471.25,105.88624999999999C473.6666666666667,105.87666666666665,476.0833333333333,105.86708333333333,478.5,105.8575C480.9166666666667,105.84791666666666,483.33333333333337,105.83833333333334,485.75000000000006,105.82875C488.16666666666674,105.81916666666667,490.58333333333337,105.80958333333335,493.00000000000006,105.80000000000001C495.4166666666667,105.79041666666667,497.8333333333333,105.78083333333333,500.24999999999994,105.77125C502.66666666666663,105.76166666666666,505.08333333333326,105.75208333333332,507.49999999999994,105.74249999999999C509.91666666666663,105.73291666666665,512.3333333333333,105.72333333333334,514.75,105.71375C517.1666666666666,105.70416666666668,519.5833333333334,105.69458333333334,522,105.685C524.4166666666666,105.67541666666666,526.8333333333334,105.66583333333334,529.25,105.65625C531.6666666666666,105.64666666666666,534.0833333333334,105.63708333333334,536.5,105.6275C538.9166666666666,105.61791666666666,541.3333333333334,105.60833333333333,543.75,105.59875C546.1666666666666,105.58916666666666,548.5833333333334,105.57958333333332,551,105.57C553.4166666666666,105.56041666666667,555.8333333333334,105.55083333333333,558.25,105.54125C560.6666666666666,105.53166666666668,563.0833333333334,105.52208333333334,565.5,105.5125C567.9166666666666,105.50291666666666,570.3333333333334,105.49333333333334,572.75,105.48375C575.1666666666666,105.47416666666666,577.5833333333334,105.46458333333334,580,105.455C582.4166666666666,105.44541666666666,584.8333333333334,105.43583333333333,587.25,105.42625C589.6666666666666,105.41666666666666,592.0833333333334,105.40708333333332,594.5,105.3975C596.9166666666666,105.38791666666667,599.3333333333334,105.37833333333333,601.75,105.36875C604.1666666666666,105.35916666666668,606.5833333333334,105.34958333333334,609,105.34C611.4166666666666,105.33041666666666,613.8333333333334,105.32083333333334,616.25,105.31125C618.6666666666666,105.30166666666666,621.0833333333334,105.29208333333334,623.5,105.2825C625.9166666666666,105.27291666666666,628.3333333333334,105.26333333333332,630.75,105.25375C633.1666666666666,105.24416666666667,635.5833333333334,105.23458333333335,638,105.22500000000001C640.4166666666666,105.21541666666667,642.8333333333334,105.20583333333333,645.25,105.19624999999999C647.6666666666666,105.18666666666665,650.0833333333334,105.17708333333333,652.5,105.1675C654.9166666666666,105.15791666666668,657.3333333333334,105.14833333333334,659.75,105.13875C662.1666666666666,105.12916666666666,664.5833333333334,105.11958333333332,667,105.11C669.4166666666666,105.10041666666667,671.8333333333334,105.09083333333335,674.25,105.08125000000001C676.6666666666666,105.07166666666667,679.0833333333334,105.06208333333333,681.5,105.0525C683.9166666666666,105.04291666666666,686.3333333333334,105.03333333333333,688.75,105.02375C691.1666666666666,105.01416666666668,693.5833333333334,105.00458333333334,696,104.995C698.4166666666666,104.98541666666667,700.8333333333334,104.97583333333333,703.25,104.96624999999999C705.6666666666666,104.95666666666665,708.0833333333334,104.94708333333332,710.5,104.9375C712.9166666666666,104.92791666666668,715.3333333333334,104.91833333333332,717.75,104.90875C720.1666666666666,104.89916666666667,722.5833333333334,104.88958333333333,725,104.88000000000001C727.4166666666666,104.87041666666669,729.8333333333334,104.86083333333335,732.25,104.85125000000001C734.6666666666666,104.84166666666667,737.0833333333334,104.83208333333333,739.5,104.82249999999999C741.9166666666666,104.81291666666665,744.3333333333334,104.80333333333333,746.75,104.79375C749.1666666666666,104.78416666666668,751.5833333333334,104.77458333333334,754,104.765C756.4166666666666,104.75541666666666,758.8333333333334,104.74583333333334,761.25,104.73625C763.6666666666666,104.72666666666666,766.0833333333334,104.71708333333333,768.5,104.7075C770.9166666666666,104.69791666666666,773.3333333333334,104.68833333333332,775.75,104.67875C778.1666666666666,104.66916666666667,780.5833333333334,104.65958333333333,783,104.65C785.4166666666667,104.64041666666667,787.8333333333334,104.63083333333334,790.2500000000001,104.62125C792.6666666666667,104.61166666666666,795.0833333333335,104.60208333333334,797.5000000000001,104.5925C799.9166666666667,104.58291666666666,802.3333333333335,104.57333333333334,804.7500000000001,104.56375C807.1666666666667,104.55416666666666,809.5833333333335,104.54458333333334,812.0000000000001,104.535C814.4166666666667,104.52541666666666,816.8333333333333,104.51583333333333,819.2499999999999,104.50625C821.6666666666665,104.49666666666666,824.0833333333333,104.48708333333332,826.4999999999999,104.47749999999999C828.9166666666665,104.46791666666667,831.3333333333333,104.45833333333333,833.7499999999999,104.44875C836.1666666666665,104.43916666666668,838.5833333333333,104.42958333333333,840.9999999999999,104.42C843.4166666666666,104.41041666666666,845.8333333333333,104.40083333333335,848.25,104.39125000000001C850.6666666666666,104.38166666666667,853.0833333333334,104.37208333333334,855.5,104.3625C857.9166666666666,104.35291666666666,860.3333333333334,104.34333333333332,862.75,104.33375C865.1666666666666,104.32416666666667,867.5833333333334,104.31458333333335,870,104.305C872.4166666666666,104.29541666666667,874.8333333333334,104.28583333333333,877.25,104.27624999999999C879.6666666666666,104.26666666666665,882.0833333333334,104.25708333333333,884.5,104.2475C886.9166666666666,104.23791666666668,889.3333333333334,104.22833333333334,891.75,104.21875C894.1666666666666,104.20916666666666,896.5833333333334,104.19958333333332,899,104.19C901.4166666666666,104.18041666666667,903.8333333333334,104.17083333333335,906.25,104.16125000000001C908.6666666666666,104.15166666666667,911.0833333333334,104.14208333333333,913.5,104.1325C915.9166666666666,104.12291666666665,918.3333333333334,104.11333333333333,920.75,104.10375C923.1666666666666,104.09416666666668,925.5833333333334,104.08458333333334,928,104.075C930.4166666666666,104.06541666666666,932.8333333333334,104.05583333333333,935.25,104.04624999999999C937.6666666666666,104.03666666666665,940.0833333333334,104.02708333333332,942.5,104.0175C944.9166666666666,104.00791666666667,947.3333333333334,103.99833333333332,949.75,103.98875C952.1666666666666,103.97916666666667,954.5833333333334,103.96958333333333,957,103.96000000000001C959.4166666666666,103.95041666666668,961.8333333333334,103.94083333333334,964.25,103.93125C966.6666666666667,103.92166666666667,969.0833333333334,103.91208333333334,971.5000000000001,103.9025C973.9166666666667,103.89291666666666,976.3333333333335,103.88333333333334,978.7500000000001,103.87375C981.1666666666667,103.86416666666666,983.5833333333335,103.85458333333334,986.0000000000001,103.845C988.4166666666667,103.83541666666666,990.8333333333335,103.82583333333334,993.2500000000001,103.81625C995.6666666666667,103.80666666666666,998.0833333333333,103.79708333333332,1000.4999999999999,103.7875C1002.9166666666665,103.77791666666666,1005.3333333333333,103.76833333333333,1007.7499999999999,103.75875C1010.1666666666665,103.74916666666668,1012.5833333333333,103.73958333333334,1014.9999999999999,103.73C1017.4166666666665,103.72041666666667,1019.8333333333333,103.71083333333334,1022.2499999999999,103.70125C1024.6666666666665,103.69166666666666,1027.0833333333333,103.68208333333334,1029.5,103.6725C1031.9166666666667,103.66291666666666,1034.3333333333333,103.65333333333332,1036.75,103.64375C1039.1666666666667,103.63416666666667,1041.5833333333333,103.62458333333335,1044,103.61500000000001C1046.4166666666667,103.60541666666667,1048.8333333333333,103.59583333333333,1051.25,103.58624999999999C1053.6666666666667,103.57666666666665,1056.0833333333333,103.56708333333331,1058.5,103.55749999999999C1060.9166666666667,103.54791666666667,1063.3333333333333,103.53833333333333,1065.75,103.52875C1068.1666666666667,103.51916666666668,1070.5833333333333,103.50958333333332,1073,103.5C1075.4166666666667,103.49041666666668,1077.8333333333333,103.48083333333335,1080.25,103.47125000000001C1082.6666666666667,103.46166666666667,1085.0833333333333,103.45208333333333,1087.5,103.4425C1089.9166666666667,103.43291666666666,1092.3333333333333,103.42333333333332,1094.75,103.41375C1097.1666666666667,103.40416666666667,1099.5833333333333,103.39458333333334,1102,103.385C1104.4166666666667,103.37541666666667,1106.8333333333333,103.36583333333333,1109.25,103.35624999999999C1111.6666666666667,103.34666666666665,1114.0833333333333,103.33708333333333,1116.5,103.3275C1118.9166666666667,103.31791666666668,1121.3333333333333,103.30833333333334,1123.75,103.29875C1126.1666666666667,103.28916666666666,1128.5833333333333,103.27958333333332,1131,103.27C1133.4166666666667,103.26041666666667,1135.8333333333333,103.25083333333335,1138.25,103.24125000000001C1140.6666666666667,103.23166666666667,1143.0833333333333,103.22208333333333,1145.5,103.21249999999999C1147.9166666666667,103.20291666666665,1150.3333333333333,103.19333333333333,1152.75,103.18375C1155.1666666666667,103.17416666666668,1157.5833333333333,103.17416666666666,1160,103.155C1162.4166666666667,103.13583333333334,1164.8333333333333,101.62166666666667,1167.25,100.855C1169.6666666666667,100.08833333333334,1172.0833333333333,99.32166666666666,1174.5,98.55499999999999C1176.9166666666667,97.78833333333333,1179.3333333333333,97.02166666666666,1181.75,96.255C1184.1666666666667,95.48833333333333,1186.5833333333333,94.72166666666666,1189,93.955C1191.4166666666667,93.18833333333333,1193.8333333333333,92.42166666666665,1196.25,91.65499999999999C1198.6666666666667,90.88833333333332,1201.0833333333333,90.12166666666667,1203.5,89.355C1205.9166666666667,88.58833333333334,1208.3333333333333,87.82166666666667,1210.75,87.055C1213.1666666666667,86.28833333333334,1215.5833333333333,85.52166666666666,1218,84.755C1220.4166666666667,83.98833333333333,1222.8333333333333,83.22166666666668,1225.25,82.45500000000001C1227.6666666666667,81.68833333333335,1230.0833333333333,80.92166666666667,1232.5,80.155C1234.9166666666667,79.38833333333334,1237.3333333333333,78.62166666666666,1239.75,77.85499999999999C1242.1666666666667,77.08833333333332,1244.5833333333333,76.32166666666667,1247,75.555C1249.4166666666667,74.78833333333334,1251.8333333333333,74.02166666666666,1254.25,73.255C1256.6666666666667,72.48833333333333,1259.0833333333333,71.72166666666666,1261.5,70.955C1263.9166666666667,70.18833333333333,1266.3333333333333,69.42166666666667,1268.75,68.655C1271.1666666666667,67.88833333333334,1273.5833333333333,67.12166666666666,1276,66.35499999999999C1278.4166666666667,65.58833333333332,1280.8333333333333,64.82166666666667,1283.25,64.055C1285.6666666666667,63.28833333333334,1288.0833333333333,62.521666666666654,1290.5,61.75499999999999C1292.9166666666667,60.98833333333332,1295.3333333333333,60.221666666666664,1297.75,59.455C1300.1666666666667,58.68833333333333,1302.5833333333333,57.92166666666667,1305,57.155C1307.4166666666667,56.388333333333335,1309.8333333333333,55.62166666666666,1312.25,54.855C1314.6666666666667,54.08833333333333,1317.0833333333333,53.32166666666666,1319.5,52.55499999999999C1321.9166666666667,51.78833333333333,1324.3333333333333,51.021666666666675,1326.75,50.25500000000001C1329.1666666666667,49.488333333333344,1331.5833333333333,48.72166666666667,1334,47.955000000000005C1336.4166666666667,47.18833333333334,1338.8333333333333,46.42166666666667,1341.25,45.655C1343.6666666666667,44.888333333333335,1346.0833333333333,44.12166666666666,1348.5,43.355C1350.9166666666667,42.58833333333333,1353.3333333333333,41.821666666666665,1355.75,41.055C1358.1666666666667,40.288333333333334,1360.5833333333333,39.521666666666675,1363,38.75500000000001C1365.4166666666667,37.988333333333344,1367.8333333333333,37.22166666666665,1370.25,36.454999999999984C1372.6666666666667,35.68833333333332,1375.0833333333333,34.921666666666674,1377.5,34.15500000000001C1379.9166666666667,33.38833333333334,1382.3333333333333,32.62166666666667,1384.75,31.855000000000004C1387.1666666666667,31.088333333333335,1389.5833333333333,30.321666666666665,1392,29.555C1394.4166666666667,28.788333333333334,1396.8333333333333,28.021666666666665,1399.25,27.255C1401.6666666666667,26.488333333333333,1404.0833333333333,25.72166666666668,1406.5,24.95500000000001C1408.9166666666667,24.18833333333334,1411.3333333333333,23.421666666666653,1413.75,22.654999999999983C1416.1666666666667,21.888333333333314,1418.5833333333333,21.121666666666666,1421,20.355000000000004C1423.4166666666667,19.588333333333342,1425.8333333333333,18.82166666666667,1428.25,18.055000000000003C1430.6666666666667,17.288333333333338,1433.0833333333333,16.52166666666667,1435.5,15.755C1437.9166666666667,14.988333333333333,1440.3333333333333,14.221666666666666,1442.75,13.454999999999998C1445.1666666666667,12.68833333333333,1447.5833333333333,11.921666666666665,1450,11.154999999999998" fill="transparent" stroke-linecap="round" stroke="#E7C6DF" stroke-width="2"></path><g class="visx-group visx-axis visx-axis-bottom" transform="translate(0, 115)"><g class="visx-group visx-axis-tick" transform="translate(0, 0)"><line class="visx-line" x1="0" y1="0" x2="0" y2="8" fill="transparent" shape-rendering="crispEdges" stroke="#000" stroke-width="0" stroke-linecap="square"></line><svg x="0" y="0" font-size="10" style="overflow:visible"><text transform="" x="0" y="18" fill="#000" font-size="10" text-anchor="middle"><tspan x="0" dy="0em">0%</tspan></text></svg></g><g class="visx-group visx-axis-tick" transform="translate(0, 0)"><line class="visx-line" x1="362.5" y1="0" x2="362.5" y2="8" fill="transparent" shape-rendering="crispEdges" stroke="#000" stroke-width="0" stroke-linecap="square"></line><svg x="0" y="0" font-size="10" style="overflow:visible"><text transform="" x="362.5" y="18" fill="#000" font-size="10" text-anchor="middle"><tspan x="362.5" dy="0em">25%</tspan></text></svg></g><g class="visx-group visx-axis-tick" transform="translate(0, 0)"><line class="visx-line" x1="725" y1="0" x2="725" y2="8" fill="transparent" shape-rendering="crispEdges" stroke="#000" stroke-width="0" stroke-linecap="square"></line><svg x="0" y="0" font-size="10" style="overflow:visible"><text transform="" x="725" y="18" fill="#000" font-size="10" text-anchor="middle"><tspan x="725" dy="0em">50%</tspan></text></svg></g><g class="visx-group visx-axis-tick" transform="translate(0, 0)"><line class="visx-line" x1="1087.5" y1="0" x2="1087.5" y2="8" fill="transparent" shape-rendering="crispEdges" stroke="#000" stroke-width="0" stroke-linecap="square"></line><svg x="0" y="0" font-size="10" style="overflow:visible"><text transform="" x="1087.5" y="18" fill="#000" font-size="10" text-anchor="middle"><tspan x="1087.5" dy="0em">75%</tspan></text></svg></g><g class="visx-group visx-axis-tick" transform="translate(0, 0)"><line class="visx-line" x1="1450" y1="0" x2="1450" y2="8" fill="transparent" shape-rendering="crispEdges" stroke="#000" stroke-width="0" stroke-linecap="square"></line><svg x="0" y="0" font-size="10" style="overflow:visible"><text transform="" x="1450" y="18" fill="#000" font-size="10" text-anchor="middle"><tspan x="1450" dy="0em">100%</tspan></text></svg></g><line class="visx-line visx-axis-line" x1="0.5" y1="0" x2="1450.5" y2="0" fill="transparent" shape-rendering="crispEdges" stroke="#222" stroke-width="0"></line></g><g class="visx-group visx-axis visx-axis-left" transform="translate(0, 0)"><g class="visx-group visx-axis-tick" transform="translate(0, 0)"><line class="visx-line" x1="0" y1="115" x2="-8" y2="115" fill="transparent" shape-rendering="crispEdges" stroke="#222" stroke-width="0" stroke-linecap="square"></line><svg x="-30" y="0" font-size="8" style="overflow:visible"><text transform="" x="-8" y="115" fill="#000" font-size="8" text-anchor="start"><tspan x="-8" dy="0em">0%</tspan></text></svg></g><g class="visx-group visx-axis-tick" transform="translate(0, 0)"><line class="visx-line" x1="0" y1="57.5" x2="-8" y2="57.5" fill="transparent" shape-rendering="crispEdges" stroke="#222" stroke-width="0" stroke-linecap="square"></line><svg x="-30" y="0" font-size="8" style="overflow:visible"><text transform="" x="-8" y="57.5" fill="#000" font-size="8" text-anchor="start"><tspan x="-8" dy="0em">50%</tspan></text></svg></g><g class="visx-group visx-axis-tick" transform="translate(0, 0)"><line class="visx-line" x1="0" y1="0" x2="-8" y2="0" fill="transparent" shape-rendering="crispEdges" stroke="#222" stroke-width="0" stroke-linecap="square"></line><svg x="-30" y="0" font-size="8" style="overflow:visible"><text transform="" x="-8" y="0" fill="#000" font-size="8" text-anchor="start"><tspan x="-8" dy="0em">100%</tspan></text></svg></g><line class="visx-line visx-axis-line" x1="0" y1="115.5" x2="0" y2="0.5" fill="transparent" shape-rendering="crispEdges" stroke="#222" stroke-width="0"></line></g><rect class="visx-bar" width="1450" height="115" fill="transparent"></rect><line class="visx-line" x1="1160" y1="28" x2="1160" y2="115" fill="transparent" shape-rendering="crispEdges" stroke="#0062D2" stroke-width="1" pointer-events="none" stroke-dasharray="5,2"></line><svg x="0" y="0" font-size="10px" style="overflow:visible"><text transform="" x="1160" y="20" font-size="10px" fill="#fff" stroke="#fff" stroke-width="0.8em" text-anchor="middle"><tspan x="1160" dy="0.355em">Optimal 80%</tspan></text></svg><svg x="0" y="0" font-size="10px" style="overflow:visible"><text transform="" x="1160" y="20" font-size="10px" fill="#62677B" text-anchor="middle"><tspan x="1160" dy="0.355em">Optimal 80%</tspan></text></svg></g></svg>