<?xml version="1.0"?><svg xmlns="http://www.w3.org/2000/svg" xmlns:xlink= "http://www.w3.org/1999/xlink" style="background: white;" width="1500" height="300"> <g style="color: black; font-size: 13px; font-family: sans-serif; transform: translate(18px, 25px);"><g><circle r="3" cx="-6" cy="-5" style="fill: #1AD4B3" /><text>Borrow APR, variable</text></g><g style="transform: translateX(150px);"><circle r="3" cx="-6" cy="-5" style="fill: #101423" /><text>Borrow APR, stable</text></g></g><g class="visx-group" transform="translate(45, 50)"><g class="visx-group visx-rows" transform="translate(0, 0)"><line class="visx-line" x1="0" y1="155" x2="1425" y2="155" fill="transparent" shape-rendering="crispEdges" stroke="#F2F0F9" stroke-width="1" pointer-events="none"></line><line class="visx-line" x1="0" y1="110.71428571428572" x2="1425" y2="110.71428571428572" fill="transparent" shape-rendering="crispEdges" stroke="#F2F0F9" stroke-width="1" pointer-events="none"></line><line class="visx-line" x1="0" y1="66.42857142857143" x2="1425" y2="66.42857142857143" fill="transparent" shape-rendering="crispEdges" stroke="#F2F0F9" stroke-width="1" pointer-events="none"></line><line class="visx-line" x1="0" y1="22.14285714285715" x2="1425" y2="22.14285714285715" fill="transparent" shape-rendering="crispEdges" stroke="#F2F0F9" stroke-width="1" pointer-events="none"></line></g><path class="visx-linepath" d="M0,154.99999999994097C2.375,154.9901587301243,4.75,154.98031746030765,7.125,154.9704761904762C9.5,154.96063492064476,11.875,154.95079365079366,14.25,154.94095238095238C16.625,154.9311111111111,19,154.92126984126986,21.375,154.9114285714286C23.75,154.9015873015873,26.125,154.89174603174604,28.5,154.88190476190476C30.875,154.8720634920635,33.25,154.86222222222224,35.625,154.85238095238097C38,154.8425396825397,40.375,154.83269841269842,42.75,154.82285714285715C45.125,154.81301587301587,47.50000000000001,154.80317460317463,49.87500000000001,154.79333333333335C52.25000000000001,154.78349206349208,54.625,154.7736507936508,57,154.76380952380953C59.375,154.75396825396825,61.75,154.744126984127,64.125,154.73428571428573C66.5,154.72444444444446,68.875,154.71460317460318,71.25,154.7047619047619C73.625,154.69492063492063,76,154.68507936507936,78.375,154.6752380952381C80.75,154.6653968253968,83.125,154.65555555555557,85.5,154.6457142857143C87.875,154.63587301587302,90.25,154.62603174603174,92.625,154.61619047619047C95,154.6063492063492,97.37500000000001,154.59650793650795,99.75000000000001,154.58666666666667C102.12500000000001,154.5768253968254,104.5,154.56698412698412,106.875,154.55714285714285C109.25,154.54730158730158,111.625,154.53746031746033,114,154.52761904761905C116.375,154.51777777777778,118.75000000000001,154.5079365079365,121.12500000000001,154.49809523809523C123.50000000000001,154.48825396825396,125.875,154.4784126984127,128.25,154.46857142857144C130.625,154.45873015873016,133,154.4488888888889,135.375,154.4390476190476C137.75,154.42920634920634,140.125,154.4193650793651,142.5,154.40952380952382C144.875,154.39968253968254,147.25,154.38984126984127,149.625,154.38C152,154.37015873015872,154.375,154.36031746031748,156.75,154.3504761904762C159.125,154.34063492063493,161.5,154.33079365079365,163.875,154.32095238095238C166.25,154.3111111111111,168.625,154.30126984126986,171,154.29142857142858C173.375,154.2815873015873,175.75,154.27174603174603,178.125,154.26190476190476C180.5,154.25206349206348,182.875,154.24222222222224,185.25,154.23238095238096C187.625,154.2225396825397,190,154.21269841269842,192.375,154.20285714285714C194.75,154.19301587301587,197.12500000000003,154.18317460317462,199.50000000000003,154.17333333333335C201.875,154.16349206349207,204.25,154.1536507936508,206.62499999999997,154.14380952380952C208.99999999999997,154.13396825396825,211.375,154.124126984127,213.75,154.11428571428573C216.125,154.10444444444445,218.5,154.09460317460318,220.875,154.0847619047619C223.25,154.07492063492063,225.625,154.06507936507938,228,154.0552380952381C230.375,154.04539682539684,232.75,154.03555555555556,235.125,154.0257142857143C237.5,154.015873015873,239.87500000000003,154.00603174603174,242.25000000000003,153.99619047619046C244.625,153.9863492063492,247,153.97650793650794,249.37499999999997,153.96666666666667C251.74999999999997,153.9568253968254,254.125,153.94698412698412,256.5,153.93714285714285C258.875,153.92730158730157,261.25,153.91746031746032,263.625,153.90761904761905C266,153.89777777777778,268.375,153.8879365079365,270.75,153.87809523809523C273.125,153.86825396825395,275.5,153.8584126984127,277.875,153.84857142857143C280.25,153.83873015873016,282.625,153.82888888888888,285,153.8190476190476C287.375,153.80920634920633,289.75,153.7993650793651,292.125,153.7895238095238C294.5,153.77968253968254,296.875,153.76984126984127,299.25,153.76C301.625,153.75015873015872,304,153.74031746031747,306.375,153.7304761904762C308.75,153.72063492063492,311.125,153.71079365079365,313.5,153.70095238095237C315.875,153.6911111111111,318.25,153.68126984126985,320.625,153.67142857142858C323,153.6615873015873,325.375,153.65174603174603,327.75,153.64190476190475C330.125,153.63206349206348,332.5,153.62222222222223,334.875,153.61238095238096C337.25,153.60253968253969,339.625,153.5926984126984,342,153.58285714285714C344.375,153.57301587301586,346.75,153.56317460317462,349.125,153.55333333333334C351.5,153.54349206349207,353.875,153.5336507936508,356.25,153.52380952380952C358.625,153.51396825396824,361,153.504126984127,363.375,153.49428571428572C365.75,153.48444444444445,368.125,153.47460317460317,370.5,153.4647619047619C372.875,153.45492063492063,375.25,153.44507936507938,377.625,153.4352380952381C380,153.42539682539683,382.375,153.41555555555556,384.75,153.40571428571428C387.125,153.395873015873,389.50000000000006,153.38603174603173,391.87500000000006,153.37619047619046C394.25000000000006,153.36634920634918,396.62500000000006,153.35650793650794,399.00000000000006,153.34666666666666C401.375,153.3368253968254,403.75,153.32698412698412,406.12499999999994,153.31714285714284C408.49999999999994,153.30730158730157,410.87499999999994,153.29746031746032,413.24999999999994,153.28761904761905C415.62499999999994,153.27777777777777,418,153.2679365079365,420.375,153.25809523809522C422.75,153.24825396825395,425.125,153.2384126984127,427.5,153.22857142857143C429.875,153.21873015873015,432.25,153.20888888888888,434.625,153.1990476190476C437,153.18920634920633,439.375,153.17936507936508,441.75,153.1695238095238C444.125,153.15968253968254,446.5,153.14984126984126,448.875,153.14C451.25,153.1301587301587,453.625,153.12031746031747,456,153.1104761904762C458.375,153.10063492063492,460.75,153.09079365079364,463.125,153.08095238095237C465.5,153.0711111111111,467.875,153.06126984126985,470.25,153.05142857142857C472.625,153.0415873015873,475.00000000000006,153.03174603174602,477.37500000000006,153.02190476190475C479.75000000000006,153.01206349206348,482.12500000000006,153.00222222222223,484.50000000000006,152.99238095238096C486.875,152.98253968253968,489.25,152.9726984126984,491.62499999999994,152.96285714285713C493.99999999999994,152.95301587301586,496.37499999999994,152.9431746031746,498.74999999999994,152.93333333333334C501.12499999999994,152.92349206349206,503.5,152.91365079365082,505.875,152.90380952380954C508.25,152.89396825396827,510.625,152.884126984127,513,152.87428571428572C515.375,152.86444444444444,517.75,152.8546031746032,520.125,152.84476190476192C522.5,152.83492063492065,524.875,152.82507936507938,527.25,152.8152380952381C529.625,152.80539682539683,532,152.79555555555558,534.375,152.7857142857143C536.75,152.77587301587303,539.125,152.76603174603173,541.5,152.75619047619045C543.875,152.74634920634918,546.25,152.73650793650793,548.625,152.72666666666666C551,152.71682539682539,553.375,152.7069841269841,555.75,152.69714285714284C558.125,152.68730158730156,560.5,152.67746031746032,562.875,152.66761904761904C565.25,152.65777777777777,567.625,152.64793650793652,570,152.63809523809525C572.375,152.62825396825397,574.75,152.6184126984127,577.125,152.60857142857142C579.5,152.59873015873015,581.875,152.5888888888889,584.25,152.57904761904763C586.625,152.56920634920635,589,152.55936507936508,591.375,152.5495238095238C593.75,152.53968253968253,596.125,152.52984126984128,598.5,152.52C600.875,152.51015873015874,603.25,152.50031746031746,605.625,152.4904761904762C608,152.4806349206349,610.375,152.47079365079367,612.75,152.4609523809524C615.125,152.45111111111112,617.5,152.44126984126984,619.875,152.43142857142857C622.25,152.4215873015873,624.625,152.41174603174605,627,152.40190476190477C629.375,152.3920634920635,631.75,152.38222222222223,634.125,152.37238095238095C636.5,152.36253968253968,638.875,152.36253968253968,641.25,152.34285714285716C643.625,152.32317460317464,646,151.53766233766234,648.375,151.13506493506495C650.75,150.73246753246755,653.125,150.32987012987013,655.5,149.92727272727274C657.875,149.52467532467534,660.25,149.12207792207792,662.625,148.71948051948053C665,148.31688311688313,667.375,147.9142857142857,669.75,147.51168831168832C672.125,147.10909090909092,674.5,146.7064935064935,676.875,146.3038961038961C679.25,145.9012987012987,681.625,145.4987012987013,684,145.0961038961039C686.375,144.6935064935065,688.75,144.29090909090908,691.125,143.8883116883117C693.5,143.4857142857143,695.875,143.08311688311687,698.25,142.68051948051948C700.625,142.27792207792209,703,141.87532467532466,705.375,141.47272727272727C707.75,141.07012987012988,710.125,140.66753246753245,712.5,140.26493506493506C714.875,139.86233766233767,717.25,139.45974025974024,719.625,139.05714285714285C722,138.65454545454546,724.375,138.25194805194803,726.75,137.84935064935064C729.125,137.44675324675325,731.5,137.04415584415582,733.875,136.64155844155843C736.25,136.23896103896104,738.625,135.83636363636361,741,135.43376623376622C743.375,135.03116883116883,745.75,134.6285714285714,748.125,134.225974025974C750.5,133.82337662337662,752.875,133.4207792207792,755.25,133.0181818181818C757.625,132.6155844155844,760,132.21298701298699,762.375,131.8103896103896C764.75,131.4077922077922,767.125,131.0051948051948,769.5,130.6025974025974C771.875,130.20000000000002,774.2500000000001,129.7974025974026,776.6250000000001,129.3948051948052C779.0000000000001,128.9922077922078,781.3750000000001,128.58961038961039,783.7500000000001,128.187012987013C786.1250000000001,127.7844155844156,788.5000000000001,127.3818181818182,790.8750000000001,126.9792207792208C793.2500000000001,126.57662337662339,795.6250000000001,126.17402597402598,798.0000000000001,125.77142857142857C800.375,125.36883116883118,802.75,124.96623376623377,805.1249999999999,124.56363636363638C807.4999999999999,124.16103896103897,809.8749999999999,123.75844155844156,812.2499999999999,123.35584415584415C814.6249999999999,122.95324675324675,816.9999999999999,122.55064935064935,819.3749999999999,122.14805194805194C821.7499999999999,121.74545454545454,824.1249999999999,121.34285714285713,826.4999999999999,120.94025974025973C828.8749999999999,120.53766233766233,831.25,120.13506493506495,833.625,119.73246753246754C836,119.32987012987014,838.375,118.92727272727272,840.75,118.52467532467531C843.125,118.1220779220779,845.5,117.71948051948053,847.875,117.31688311688312C850.25,116.91428571428571,852.625,116.51168831168829,855,116.1090909090909C857.375,115.7064935064935,859.75,115.30389610389611,862.125,114.90129870129871C864.5,114.49870129870132,866.875,114.0961038961039,869.25,113.69350649350649C871.625,113.29090909090908,874,112.8883116883117,876.375,112.4857142857143C878.75,112.08311688311689,881.125,111.68051948051948,883.5,111.27792207792207C885.875,110.87532467532466,888.25,110.47272727272727,890.625,110.07012987012988C893,109.66753246753248,895.375,109.26493506493507,897.75,108.86233766233767C900.125,108.45974025974026,902.5,108.05714285714286,904.875,107.65454545454546C907.25,107.25194805194805,909.625,106.84935064935064,912,106.44675324675323C914.375,106.04415584415582,916.75,105.64155844155844,919.125,105.23896103896104C921.5,104.83636363636363,923.875,104.43376623376622,926.25,104.03116883116881C928.625,103.6285714285714,931,103.22597402597404,933.375,102.82337662337663C935.75,102.42077922077922,938.125,102.01818181818182,940.5,101.61558441558441C942.875,101.212987012987,945.25,100.8103896103896,947.625,100.40779220779221C950,100.0051948051948,952.3750000000001,99.60259740259741,954.7500000000001,99.2C957.1250000000001,98.79740259740261,959.5000000000001,98.3948051948052,961.8750000000001,97.9922077922078C964.2500000000001,97.58961038961039,966.6250000000001,97.187012987013,969.0000000000001,96.7844155844156C971.3750000000001,96.38181818181819,973.7500000000001,95.97922077922078,976.1250000000001,95.57662337662337C978.5,95.17402597402598,980.875,94.77142857142856,983.2499999999999,94.36883116883116C985.6249999999999,93.96623376623376,987.9999999999999,93.56363636363635,990.3749999999999,93.16103896103895C992.7499999999999,92.75844155844156,995.1249999999999,92.35584415584418,997.4999999999999,91.95324675324677C999.8749999999999,91.55064935064937,1002.2499999999999,91.14805194805196,1004.6249999999999,90.74545454545455C1006.9999999999999,90.34285714285714,1009.375,89.94025974025975,1011.75,89.53766233766234C1014.125,89.13506493506495,1016.5,88.73246753246754,1018.875,88.32987012987013C1021.25,87.92727272727272,1023.625,87.52467532467533,1026,87.12207792207792C1028.375,86.71948051948051,1030.75,86.3168831168831,1033.125,85.91428571428571C1035.5,85.51168831168832,1037.875,85.10909090909092,1040.25,84.70649350649352C1042.625,84.30389610389611,1045,83.9012987012987,1047.375,83.49870129870129C1049.75,83.09610389610388,1052.125,82.69350649350649,1054.5,82.29090909090908C1056.875,81.88831168831167,1059.25,81.48571428571427,1061.625,81.08311688311687C1064,80.68051948051948,1066.375,80.27792207792209,1068.75,79.87532467532469C1071.125,79.4727272727273,1073.5,79.07012987012988,1075.875,78.66753246753247C1078.25,78.26493506493506,1080.625,77.86233766233767,1083,77.45974025974026C1085.375,77.05714285714285,1087.75,76.65454545454546,1090.125,76.25194805194805C1092.5,75.84935064935064,1094.875,75.44675324675326,1097.25,75.04415584415585C1099.625,74.64155844155844,1102,74.23896103896104,1104.375,73.83636363636363C1106.75,73.43376623376622,1109.125,73.03116883116883,1111.5,72.62857142857142C1113.875,72.22597402597401,1116.25,71.82337662337663,1118.625,71.42077922077922C1121,71.01818181818182,1123.375,70.61558441558441,1125.75,70.212987012987C1128.125,69.81038961038959,1130.5,69.40779220779218,1132.875,69.00519480519479C1135.25,68.6025974025974,1137.625,68.2,1140,67.79740259740261C1142.375,67.39480519480522,1144.75,66.99220779220781,1147.125,66.5896103896104C1149.5,66.18701298701299,1151.875,65.7844155844156,1154.25,65.38181818181819C1156.625,64.97922077922078,1159,64.57662337662339,1161.375,64.17402597402598C1163.75,63.77142857142858,1166.125,63.36883116883118,1168.5,62.96623376623377C1170.875,62.56363636363636,1173.25,62.161038961038955,1175.625,61.75844155844155C1178,61.35584415584414,1180.375,60.95324675324674,1182.75,60.55064935064934C1185.125,60.148051948051936,1187.5,59.74545454545455,1189.875,59.34285714285715C1192.25,58.94025974025975,1194.625,58.537662337662326,1197,58.135064935064925C1199.375,57.732467532467524,1201.75,57.32987012987013,1204.125,56.92727272727273C1206.5,56.52467532467533,1208.875,56.12207792207793,1211.25,55.71948051948053C1213.625,55.316883116883126,1216,54.91428571428572,1218.375,54.51168831168832C1220.75,54.10909090909092,1223.125,53.70649350649351,1225.5,53.30389610389611C1227.875,52.90129870129871,1230.25,52.4987012987013,1232.625,52.0961038961039C1235,51.6935064935065,1237.375,51.290909090909096,1239.75,50.88831168831169C1242.125,50.48571428571428,1244.5,50.083116883116865,1246.875,49.680519480519465C1249.25,49.277922077922064,1251.625,48.87532467532468,1254,48.472727272727276C1256.375,48.070129870129875,1258.75,47.66753246753247,1261.125,47.26493506493507C1263.5,46.862337662337666,1265.875,46.45974025974026,1268.25,46.05714285714286C1270.625,45.654545454545456,1273,45.25194805194805,1275.375,44.84935064935065C1277.75,44.44675324675325,1280.125,44.044155844155846,1282.5,43.641558441558445C1284.875,43.238961038961044,1287.25,42.836363636363636,1289.625,42.433766233766235C1292,42.031168831168834,1294.375,41.62857142857144,1296.75,41.22597402597404C1299.125,40.82337662337664,1301.5,40.420779220779224,1303.875,40.018181818181816C1306.25,39.61558441558441,1308.625,39.21298701298701,1311,38.810389610389606C1313.375,38.407792207792205,1315.75,38.00519480519482,1318.125,37.60259740259742C1320.5,37.20000000000002,1322.875,36.7974025974026,1325.25,36.394805194805194C1327.625,35.992207792207786,1330,35.58961038961039,1332.375,35.187012987012984C1334.75,34.78441558441558,1337.125,34.38181818181816,1339.5,33.97922077922076C1341.875,33.57662337662336,1344.25,33.174025974025966,1346.625,32.771428571428565C1349,32.368831168831164,1351.375,31.966233766233778,1353.75,31.563636363636377C1356.125,31.161038961038976,1358.5,30.758441558441575,1360.875,30.35584415584417C1363.25,29.953246753246766,1365.625,29.550649350649348,1368,29.148051948051943C1370.375,28.74545454545454,1372.75,28.342857142857138,1375.125,27.940259740259737C1377.5,27.537662337662336,1379.875,27.13506493506495,1382.25,26.732467532467545C1384.625,26.32987012987014,1387,25.927272727272722,1389.375,25.524675324675318C1391.75,25.122077922077914,1394.125,24.719480519480534,1396.5,24.31688311688313C1398.875,23.914285714285725,1401.25,23.511688311688307,1403.625,23.109090909090902C1406,22.706493506493498,1408.375,22.303896103896097,1410.75,21.901298701298696C1413.125,21.498701298701295,1415.5,21.09610389610391,1417.875,20.693506493506504C1420.25,20.2909090909091,1422.625,19.88831168831169,1425,19.485714285714277" fill="transparent" stroke-linecap="round" stroke="#1AD4B3" stroke-width="2"></path><g class="visx-group visx-axis visx-axis-bottom" transform="translate(0, 155)"><g class="visx-group visx-axis-tick" transform="translate(0, 0)"><line class="visx-line" x1="0" y1="0" x2="0" y2="8" fill="transparent" shape-rendering="crispEdges" stroke="#F2F0F9" stroke-width="1" stroke-linecap="square"></line><svg x="0" y="0" font-size="11" style="overflow:visible"><text transform="" x="0" y="19" fill="#1B2030" font-size="11" text-anchor="middle"><tspan x="0" dy="0em">0%</tspan></text></svg></g><g class="visx-group visx-axis-tick" transform="translate(0, 0)"><line class="visx-line" x1="356.25" y1="0" x2="356.25" y2="8" fill="transparent" shape-rendering="crispEdges" stroke="#F2F0F9" stroke-width="1" stroke-linecap="square"></line><svg x="0" y="0" font-size="11" style="overflow:visible"><text transform="" x="356.25" y="19" fill="#1B2030" font-size="11" text-anchor="middle"><tspan x="356.25" dy="0em">25%</tspan></text></svg></g><g class="visx-group visx-axis-tick" transform="translate(0, 0)"><line class="visx-line" x1="712.5" y1="0" x2="712.5" y2="8" fill="transparent" shape-rendering="crispEdges" stroke="#F2F0F9" stroke-width="1" stroke-linecap="square"></line><svg x="0" y="0" font-size="11" style="overflow:visible"><text transform="" x="712.5" y="19" fill="#1B2030" font-size="11" text-anchor="middle"><tspan x="712.5" dy="0em">50%</tspan></text></svg></g><g class="visx-group visx-axis-tick" transform="translate(0, 0)"><line class="visx-line" x1="1068.75" y1="0" x2="1068.75" y2="8" fill="transparent" shape-rendering="crispEdges" stroke="#F2F0F9" stroke-width="1" stroke-linecap="square"></line><svg x="0" y="0" font-size="11" style="overflow:visible"><text transform="" x="1068.75" y="19" fill="#1B2030" font-size="11" text-anchor="middle"><tspan x="1068.75" dy="0em">75%</tspan></text></svg></g><g class="visx-group visx-axis-tick" transform="translate(0, 0)"><line class="visx-line" x1="1425" y1="0" x2="1425" y2="8" fill="transparent" shape-rendering="crispEdges" stroke="#F2F0F9" stroke-width="1" stroke-linecap="square"></line><svg x="0" y="0" font-size="11" style="overflow:visible"><text transform="" x="1425" y="19" fill="#1B2030" font-size="11" text-anchor="middle"><tspan x="1425" dy="0em">100%</tspan></text></svg></g></g><g class="visx-group visx-axis visx-axis-left" transform="translate(0, 0)"><g class="visx-group visx-axis-tick" transform="translate(0, 0)"><line class="visx-line" x1="0" y1="155" x2="-8" y2="155" fill="transparent" shape-rendering="crispEdges" stroke="#F2F0F9" stroke-width="1" stroke-linecap="square"></line><svg x="-30" y="0" font-size="11" style="overflow:visible"><text transform="" x="-8" y="155" fill="#1B2030" font-size="11" text-anchor="start"><tspan x="-8" dy="0em">0%</tspan></text></svg></g><g class="visx-group visx-axis-tick" transform="translate(0, 0)"><line class="visx-line" x1="0" y1="110.71428571428572" x2="-8" y2="110.71428571428572" fill="transparent" shape-rendering="crispEdges" stroke="#F2F0F9" stroke-width="1" stroke-linecap="square"></line><svg x="-30" y="0" font-size="11" style="overflow:visible"><text transform="" x="-8" y="110.71428571428572" fill="#1B2030" font-size="11" text-anchor="start"><tspan x="-8" dy="0em">100%</tspan></text></svg></g><g class="visx-group visx-axis-tick" transform="translate(0, 0)"><line class="visx-line" x1="0" y1="66.42857142857143" x2="-8" y2="66.42857142857143" fill="transparent" shape-rendering="crispEdges" stroke="#F2F0F9" stroke-width="1" stroke-linecap="square"></line><svg x="-30" y="0" font-size="11" style="overflow:visible"><text transform="" x="-8" y="66.42857142857143" fill="#1B2030" font-size="11" text-anchor="start"><tspan x="-8" dy="0em">200%</tspan></text></svg></g><g class="visx-group visx-axis-tick" transform="translate(0, 0)"><line class="visx-line" x1="0" y1="22.14285714285715" x2="-8" y2="22.14285714285715" fill="transparent" shape-rendering="crispEdges" stroke="#F2F0F9" stroke-width="1" stroke-linecap="square"></line><svg x="-30" y="0" font-size="11" style="overflow:visible"><text transform="" x="-8" y="22.14285714285715" fill="#1B2030" font-size="11" text-anchor="start"><tspan x="-8" dy="0em">300%</tspan></text></svg></g><line class="visx-line visx-axis-line" x1="0" y1="155.5" x2="0" y2="0.5" fill="transparent" shape-rendering="crispEdges" stroke="#F2F0F9" stroke-width="1"></line></g><rect class="visx-bar" width="1425" height="155" fill="transparent"></rect><line class="visx-line" x1="641.25" y1="58" x2="641.25" y2="155" fill="transparent" shape-rendering="crispEdges" stroke="#CDC8E1" stroke-width="1" pointer-events="none" stroke-dasharray="5"></line><svg x="0" y="0" font-size="11px" style="overflow:visible"><text transform="" x="641.25" y="50" font-size="11px" fill="#555069" stroke="#FFFFFF" stroke-width="1px" text-anchor="middle"><tspan x="641.25" dy="0.355em">uOptimal 45%</tspan></text></svg><svg x="0" y="0" font-size="11px" style="overflow:visible"><text transform="" x="641.25" y="50" font-size="11px" fill="#CDC8E1" text-anchor="middle"><tspan x="641.25" dy="0.355em">uOptimal 45%</tspan></text></svg></g></svg>