<?xml version="1.0"?><svg xmlns="http://www.w3.org/2000/svg" xmlns:xlink= "http://www.w3.org/1999/xlink" style="background: white;" width="1500" height="185"> <g style="color: black; font-size: 13px; font-family: sans-serif; transform: translate(18px, 25px);"><g><circle r="3" cx="-6" cy="-5" style="fill: #B6509E" /><text>Borrow APR, variable</text></g><g style="transform: translateX(150px);"><circle r="3" cx="-6" cy="-5" style="fill: rgb(231, 198, 223)" /><text>Borrow APR, stable</text></g><g style="transform: translateX(290px);"><circle r="3" cx="-6" cy="-5" style="fill: rgb(0, 98, 210)" /><text>Utilization Rate</text></g></g><g class="visx-group" transform="translate(40, 50)"><g class="visx-group visx-rows" transform="translate(0, 0)"><line class="visx-line" x1="0" y1="115" x2="1450" y2="115" fill="transparent" shape-rendering="crispEdges" stroke="#000" stroke-width="1" stroke-dasharray="3,3" pointer-events="none"></line><line class="visx-line" x1="0" y1="67.08333333333333" x2="1450" y2="67.08333333333333" fill="transparent" shape-rendering="crispEdges" stroke="#000" stroke-width="1" stroke-dasharray="3,3" pointer-events="none"></line><line class="visx-line" x1="0" y1="19.16666666666666" x2="1450" y2="19.16666666666666" fill="transparent" shape-rendering="crispEdges" stroke="#000" stroke-width="1" stroke-dasharray="3,3" pointer-events="none"></line></g><path class="visx-linepath" d="M0,114.99999999993611C2.4166666666666665,114.98935185181458,4.833333333333334,114.97870370369304,7.25,114.96805555555555C9.666666666666666,114.95740740741806,12.083333333333334,114.94675925925927,14.5,114.93611111111112C16.916666666666668,114.92546296296297,19.333333333333332,114.91481481481482,21.75,114.90416666666667C24.166666666666668,114.89351851851852,26.583333333333332,114.88287037037038,29,114.87222222222223C31.416666666666668,114.86157407407408,33.833333333333336,114.85092592592592,36.25,114.84027777777777C38.666666666666664,114.82962962962962,41.083333333333336,114.81898148148147,43.5,114.80833333333332C45.91666666666667,114.79768518518517,48.333333333333336,114.78703703703704,50.75000000000001,114.77638888888889C53.16666666666667,114.76574074074074,55.583333333333336,114.75509259259259,58,114.74444444444444C60.416666666666664,114.73379629629629,62.833333333333336,114.72314814814816,65.25,114.7125C67.66666666666667,114.70185185185186,70.08333333333333,114.6912037037037,72.5,114.68055555555556C74.91666666666667,114.66990740740741,77.33333333333333,114.65925925925926,79.75,114.64861111111111C82.16666666666667,114.63796296296296,84.58333333333333,114.62731481481482,87,114.61666666666667C89.41666666666667,114.60601851851852,91.83333333333333,114.59537037037038,94.25,114.58472222222223C96.66666666666667,114.57407407407408,99.08333333333334,114.56342592592593,101.50000000000001,114.55277777777778C103.91666666666667,114.54212962962963,106.33333333333334,114.53148148148148,108.75,114.52083333333333C111.16666666666667,114.51018518518518,113.58333333333333,114.49953703703703,116,114.48888888888888C118.41666666666667,114.47824074074073,120.83333333333334,114.4675925925926,123.25000000000001,114.45694444444445C125.66666666666667,114.4462962962963,128.08333333333334,114.43564814814815,130.5,114.425C132.91666666666666,114.41435185185185,135.33333333333334,114.4037037037037,137.75,114.39305555555555C140.16666666666666,114.3824074074074,142.58333333333334,114.37175925925926,145,114.36111111111111C147.41666666666666,114.35046296296296,149.83333333333334,114.33981481481482,152.25,114.32916666666667C154.66666666666666,114.31851851851852,157.08333333333334,114.30787037037038,159.5,114.29722222222223C161.91666666666666,114.28657407407408,164.33333333333334,114.27592592592593,166.75,114.26527777777778C169.16666666666666,114.25462962962963,171.58333333333334,114.24398148148148,174,114.23333333333333C176.41666666666666,114.22268518518518,178.83333333333334,114.21203703703704,181.25,114.20138888888889C183.66666666666666,114.19074074074074,186.08333333333334,114.18009259259259,188.5,114.16944444444444C190.91666666666666,114.15879629629629,193.33333333333334,114.14814814814815,195.75,114.1375C198.16666666666669,114.12685185185185,200.58333333333334,114.1162037037037,203.00000000000003,114.10555555555555C205.41666666666669,114.0949074074074,207.83333333333331,114.08425925925926,210.24999999999997,114.0736111111111C212.66666666666666,114.06296296296296,215.08333333333331,114.05231481481482,217.5,114.04166666666667C219.91666666666666,114.03101851851852,222.33333333333334,114.02037037037037,224.75,114.00972222222222C227.16666666666666,113.99907407407407,229.58333333333334,113.98842592592594,232,113.97777777777779C234.41666666666666,113.96712962962964,236.83333333333334,113.95648148148149,239.25,113.94583333333334C241.66666666666669,113.93518518518519,244.08333333333334,113.92453703703704,246.50000000000003,113.91388888888889C248.91666666666669,113.90324074074074,251.33333333333331,113.89259259259259,253.74999999999997,113.88194444444444C256.16666666666663,113.8712962962963,258.5833333333333,113.86064814814814,261,113.85C263.4166666666667,113.83935185185184,265.8333333333333,113.8287037037037,268.25,113.81805555555555C270.6666666666667,113.8074074074074,273.0833333333333,113.79675925925926,275.5,113.78611111111111C277.9166666666667,113.77546296296296,280.3333333333333,113.76481481481481,282.75,113.75416666666666C285.1666666666667,113.74351851851851,287.5833333333333,113.73287037037038,290,113.72222222222223C292.4166666666667,113.71157407407408,294.8333333333333,113.70092592592593,297.25,113.69027777777778C299.6666666666667,113.67962962962963,302.0833333333333,113.66898148148148,304.5,113.65833333333333C306.9166666666667,113.64768518518518,309.3333333333333,113.63703703703705,311.75,113.6263888888889C314.1666666666667,113.61574074074075,316.5833333333333,113.6050925925926,319,113.59444444444445C321.4166666666667,113.5837962962963,323.8333333333333,113.57314814814815,326.25,113.5625C328.6666666666667,113.55185185185185,331.0833333333333,113.5412037037037,333.5,113.53055555555555C335.9166666666667,113.5199074074074,338.3333333333333,113.50925925925925,340.75,113.4986111111111C343.1666666666667,113.48796296296295,345.5833333333333,113.47731481481482,348,113.46666666666667C350.4166666666667,113.45601851851852,352.8333333333333,113.44537037037037,355.25,113.43472222222222C357.6666666666667,113.42407407407407,360.0833333333333,113.41342592592594,362.5,113.40277777777779C364.9166666666667,113.39212962962964,367.3333333333333,113.38148148148149,369.75,113.37083333333334C372.1666666666667,113.36018518518519,374.5833333333333,113.34953703703704,377,113.33888888888889C379.4166666666667,113.32824074074074,381.8333333333333,113.3175925925926,384.25,113.30694444444445C386.6666666666667,113.2962962962963,389.0833333333333,113.28564814814814,391.5,113.27499999999999C393.9166666666667,113.26435185185184,396.33333333333337,113.2537037037037,398.75000000000006,113.24305555555556C401.16666666666674,113.23240740740741,403.58333333333337,113.22175925925926,406.00000000000006,113.21111111111111C408.4166666666667,113.20046296296296,410.8333333333333,113.18981481481481,413.24999999999994,113.17916666666666C415.66666666666663,113.16851851851851,418.08333333333326,113.15787037037038,420.49999999999994,113.14722222222223C422.91666666666663,113.13657407407408,425.3333333333333,113.12592592592593,427.75,113.11527777777778C430.1666666666667,113.10462962962963,432.5833333333333,113.09398148148148,435,113.08333333333333C437.4166666666667,113.07268518518518,439.8333333333333,113.06203703703704,442.25,113.0513888888889C444.6666666666667,113.04074074074074,447.0833333333333,113.0300925925926,449.5,113.01944444444445C451.9166666666667,113.0087962962963,454.3333333333333,112.99814814814816,456.75,112.98750000000001C459.1666666666667,112.97685185185186,461.5833333333333,112.9662037037037,464,112.95555555555555C466.4166666666667,112.9449074074074,468.8333333333333,112.93425925925925,471.25,112.9236111111111C473.6666666666667,112.91296296296295,476.0833333333333,112.90231481481482,478.5,112.89166666666667C480.9166666666667,112.88101851851852,483.33333333333337,112.87037037037037,485.75000000000006,112.85972222222222C488.16666666666674,112.84907407407407,490.58333333333337,112.83842592592593,493.00000000000006,112.82777777777778C495.4166666666667,112.81712962962963,497.8333333333333,112.80648148148148,500.24999999999994,112.79583333333333C502.66666666666663,112.78518518518518,505.08333333333326,112.77453703703704,507.49999999999994,112.76388888888889C509.91666666666663,112.75324074074074,512.3333333333333,112.7425925925926,514.75,112.73194444444445C517.1666666666666,112.7212962962963,519.5833333333334,112.71064814814815,522,112.7C524.4166666666666,112.68935185185185,526.8333333333334,112.6787037037037,529.25,112.66805555555555C531.6666666666666,112.6574074074074,534.0833333333334,112.64675925925926,536.5,112.6361111111111C538.9166666666666,112.62546296296296,541.3333333333334,112.6148148148148,543.75,112.60416666666666C546.1666666666666,112.59351851851851,548.5833333333334,112.58287037037037,551,112.57222222222222C553.4166666666666,112.56157407407407,555.8333333333334,112.55092592592592,558.25,112.54027777777777C560.6666666666666,112.52962962962962,563.0833333333334,112.51898148148148,565.5,112.50833333333333C567.9166666666666,112.49768518518518,570.3333333333334,112.48703703703704,572.75,112.47638888888889C575.1666666666666,112.46574074074074,577.5833333333334,112.45509259259259,580,112.44444444444444C582.4166666666666,112.4337962962963,584.8333333333334,112.42314814814816,587.25,112.41250000000001C589.6666666666666,112.40185185185186,592.0833333333334,112.39120370370371,594.5,112.38055555555556C596.9166666666666,112.36990740740741,599.3333333333334,112.35925925925926,601.75,112.34861111111111C604.1666666666666,112.33796296296296,606.5833333333334,112.32731481481481,609,112.31666666666666C611.4166666666666,112.30601851851851,613.8333333333334,112.29537037037036,616.25,112.28472222222221C618.6666666666666,112.27407407407406,621.0833333333334,112.26342592592593,623.5,112.25277777777778C625.9166666666666,112.24212962962963,628.3333333333334,112.23148148148148,630.75,112.22083333333333C633.1666666666666,112.21018518518518,635.5833333333334,112.19953703703703,638,112.18888888888888C640.4166666666666,112.17824074074073,642.8333333333334,112.1675925925926,645.25,112.15694444444445C647.6666666666666,112.1462962962963,650.0833333333334,112.13564814814815,652.5,112.125C654.9166666666666,112.11435185185185,657.3333333333334,112.10370370370372,659.75,112.09305555555557C662.1666666666666,112.08240740740742,664.5833333333334,112.07175925925927,667,112.06111111111112C669.4166666666666,112.05046296296297,671.8333333333334,112.03981481481482,674.25,112.02916666666667C676.6666666666666,112.01851851851852,679.0833333333334,112.00787037037037,681.5,111.99722222222222C683.9166666666666,111.98657407407407,686.3333333333334,111.97592592592592,688.75,111.96527777777777C691.1666666666666,111.95462962962962,693.5833333333334,111.94398148148149,696,111.93333333333334C698.4166666666666,111.92268518518519,700.8333333333334,111.91203703703704,703.25,111.90138888888889C705.6666666666666,111.89074074074074,708.0833333333334,111.88009259259259,710.5,111.86944444444444C712.9166666666666,111.85879629629629,715.3333333333334,111.84814814814816,717.75,111.8375C720.1666666666666,111.82685185185186,722.5833333333334,111.8162037037037,725,111.80555555555556C727.4166666666666,111.79490740740741,729.8333333333334,111.78425925925927,732.25,111.77361111111112C734.6666666666666,111.76296296296297,737.0833333333334,111.75231481481482,739.5,111.74166666666667C741.9166666666666,111.73101851851852,744.3333333333334,111.72037037037036,746.75,111.70972222222221C749.1666666666666,111.69907407407406,751.5833333333334,111.68842592592593,754,111.67777777777778C756.4166666666666,111.66712962962963,758.8333333333334,111.65648148148148,761.25,111.64583333333333C763.6666666666666,111.63518518518518,766.0833333333334,111.62453703703703,768.5,111.61388888888888C770.9166666666666,111.60324074074073,773.3333333333334,111.5925925925926,775.75,111.58194444444445C778.1666666666666,111.5712962962963,780.5833333333334,111.56064814814815,783,111.55C785.4166666666667,111.53935185185185,787.8333333333334,111.52870370370371,790.2500000000001,111.51805555555556C792.6666666666667,111.50740740740741,795.0833333333335,111.49675925925926,797.5000000000001,111.48611111111111C799.9166666666667,111.47546296296296,802.3333333333335,111.46481481481482,804.7500000000001,111.45416666666667C807.1666666666667,111.44351851851852,809.5833333333335,111.43287037037038,812.0000000000001,111.42222222222223C814.4166666666667,111.41157407407408,816.8333333333333,111.40092592592592,819.2499999999999,111.39027777777777C821.6666666666665,111.37962962962962,824.0833333333333,111.36898148148148,826.4999999999999,111.35833333333333C828.9166666666665,111.34768518518518,831.3333333333333,111.33703703703704,833.7499999999999,111.32638888888889C836.1666666666665,111.31574074074074,838.5833333333333,111.30509259259259,840.9999999999999,111.29444444444444C843.4166666666666,111.28379629629629,845.8333333333333,111.27314814814815,848.25,111.2625C850.6666666666666,111.25185185185185,853.0833333333334,111.2412037037037,855.5,111.23055555555555C857.9166666666666,111.2199074074074,860.3333333333334,111.20925925925927,862.75,111.19861111111112C865.1666666666666,111.18796296296297,867.5833333333334,111.17731481481482,870,111.16666666666667C872.4166666666666,111.15601851851852,874.8333333333334,111.14537037037037,877.25,111.13472222222222C879.6666666666666,111.12407407407407,882.0833333333334,111.11342592592594,884.5,111.10277777777779C886.9166666666666,111.09212962962964,889.3333333333334,111.08148148148148,891.75,111.07083333333333C894.1666666666666,111.06018518518518,896.5833333333334,111.04953703703704,899,111.03888888888889C901.4166666666666,111.02824074074074,903.8333333333334,111.01759259259259,906.25,111.00694444444444C908.6666666666666,110.9962962962963,911.0833333333334,110.98564814814814,913.5,110.975C915.9166666666666,110.96435185185184,918.3333333333334,110.95370370370371,920.75,110.94305555555556C923.1666666666666,110.93240740740741,925.5833333333334,110.92175925925926,928,110.91111111111111C930.4166666666666,110.90046296296296,932.8333333333334,110.88981481481481,935.25,110.87916666666666C937.6666666666666,110.86851851851851,940.0833333333334,110.85787037037038,942.5,110.84722222222223C944.9166666666666,110.83657407407408,947.3333333333334,110.82592592592593,949.75,110.81527777777778C952.1666666666666,110.80462962962963,954.5833333333334,110.79398148148148,957,110.78333333333333C959.4166666666666,110.77268518518518,961.8333333333334,110.76203703703703,964.25,110.75138888888888C966.6666666666667,110.74074074074073,969.0833333333334,110.73009259259258,971.5000000000001,110.71944444444443C973.9166666666667,110.70879629629628,976.3333333333335,110.69814814814815,978.7500000000001,110.6875C981.1666666666667,110.67685185185185,983.5833333333335,110.6662037037037,986.0000000000001,110.65555555555555C988.4166666666667,110.6449074074074,990.8333333333335,110.63425925925927,993.2500000000001,110.62361111111112C995.6666666666667,110.61296296296297,998.0833333333333,110.60231481481482,1000.4999999999999,110.59166666666667C1002.9166666666665,110.58101851851852,1005.3333333333333,110.57037037037037,1007.7499999999999,110.55972222222222C1010.1666666666665,110.54907407407407,1012.5833333333333,110.53842592592594,1014.9999999999999,110.52777777777779C1017.4166666666665,110.51712962962964,1019.8333333333333,110.50648148148149,1022.2499999999999,110.49583333333334C1024.6666666666665,110.48518518518519,1027.0833333333333,110.47453703703704,1029.5,110.46388888888889C1031.9166666666667,110.45324074074074,1034.3333333333333,110.44259259259259,1036.75,110.43194444444444C1039.1666666666667,110.42129629629629,1041.5833333333333,110.41064814814814,1044,110.39999999999999C1046.4166666666667,110.38935185185184,1048.8333333333333,110.3787037037037,1051.25,110.36805555555556C1053.6666666666667,110.35740740740741,1056.0833333333333,110.34675925925926,1058.5,110.33611111111111C1060.9166666666667,110.32546296296296,1063.3333333333333,110.31481481481481,1065.75,110.30416666666666C1068.1666666666667,110.29351851851851,1070.5833333333333,110.28287037037038,1073,110.27222222222223C1075.4166666666667,110.26157407407408,1077.8333333333333,110.25092592592593,1080.25,110.24027777777778C1082.6666666666667,110.22962962962963,1085.0833333333333,110.22962962962963,1087.5,110.20833333333334C1089.9166666666667,110.18703703703706,1092.3333333333333,108.93055555555556,1094.75,108.29166666666667C1097.1666666666667,107.65277777777779,1099.5833333333333,107.01388888888889,1102,106.375C1104.4166666666667,105.73611111111111,1106.8333333333333,105.09722222222221,1109.25,104.45833333333333C1111.6666666666667,103.81944444444444,1114.0833333333333,103.18055555555554,1116.5,102.54166666666666C1118.9166666666667,101.90277777777777,1121.3333333333333,101.26388888888889,1123.75,100.625C1126.1666666666667,99.98611111111111,1128.5833333333333,99.34722222222223,1131,98.70833333333334C1133.4166666666667,98.06944444444446,1135.8333333333333,97.43055555555556,1138.25,96.79166666666667C1140.6666666666667,96.15277777777779,1143.0833333333333,95.51388888888889,1145.5,94.875C1147.9166666666667,94.23611111111111,1150.3333333333333,93.59722222222221,1152.75,92.95833333333333C1155.1666666666667,92.31944444444444,1157.5833333333333,91.68055555555554,1160,91.04166666666666C1162.4166666666667,90.40277777777777,1164.8333333333333,89.76388888888889,1167.25,89.125C1169.6666666666667,88.48611111111111,1172.0833333333333,87.84722222222221,1174.5,87.20833333333333C1176.9166666666667,86.56944444444444,1179.3333333333333,85.93055555555556,1181.75,85.29166666666667C1184.1666666666667,84.65277777777779,1186.5833333333333,84.01388888888889,1189,83.375C1191.4166666666667,82.73611111111111,1193.8333333333333,82.09722222222221,1196.25,81.45833333333333C1198.6666666666667,80.81944444444444,1201.0833333333333,80.18055555555556,1203.5,79.54166666666667C1205.9166666666667,78.90277777777779,1208.3333333333333,78.26388888888889,1210.75,77.625C1213.1666666666667,76.98611111111111,1215.5833333333333,76.34722222222221,1218,75.70833333333333C1220.4166666666667,75.06944444444444,1222.8333333333333,74.43055555555554,1225.25,73.79166666666666C1227.6666666666667,73.15277777777777,1230.0833333333333,72.51388888888889,1232.5,71.875C1234.9166666666667,71.23611111111111,1237.3333333333333,70.59722222222223,1239.75,69.95833333333334C1242.1666666666667,69.31944444444446,1244.5833333333333,68.68055555555556,1247,68.04166666666667C1249.4166666666667,67.40277777777779,1251.8333333333333,66.76388888888889,1254.25,66.125C1256.6666666666667,65.48611111111111,1259.0833333333333,64.84722222222221,1261.5,64.20833333333333C1263.9166666666667,63.56944444444444,1266.3333333333333,62.93055555555555,1268.75,62.291666666666664C1271.1666666666667,61.65277777777778,1273.5833333333333,61.0138888888889,1276,60.375000000000014C1278.4166666666667,59.73611111111113,1280.8333333333333,59.09722222222222,1283.25,58.45833333333333C1285.6666666666667,57.819444444444436,1288.0833333333333,57.18055555555556,1290.5,56.54166666666667C1292.9166666666667,55.902777777777786,1295.3333333333333,55.263888888888886,1297.75,54.625C1300.1666666666667,53.986111111111114,1302.5833333333333,53.34722222222223,1305,52.708333333333336C1307.4166666666667,52.06944444444444,1309.8333333333333,51.43055555555555,1312.25,50.791666666666664C1314.6666666666667,50.15277777777778,1317.0833333333333,49.51388888888889,1319.5,48.87500000000001C1321.9166666666667,48.23611111111112,1324.3333333333333,47.59722222222223,1326.75,46.958333333333336C1329.1666666666667,46.31944444444444,1331.5833333333333,45.68055555555556,1334,45.04166666666667C1336.4166666666667,44.402777777777786,1338.8333333333333,43.76388888888889,1341.25,43.125C1343.6666666666667,42.48611111111111,1346.0833333333333,41.847222222222214,1348.5,41.20833333333333C1350.9166666666667,40.56944444444444,1353.3333333333333,39.93055555555556,1355.75,39.291666666666664C1358.1666666666667,38.65277777777777,1360.5833333333333,38.01388888888888,1363,37.37499999999999C1365.4166666666667,36.73611111111111,1367.8333333333333,36.09722222222222,1370.25,35.458333333333336C1372.6666666666667,34.81944444444445,1375.0833333333333,34.18055555555555,1377.5,33.541666666666664C1379.9166666666667,32.90277777777778,1382.3333333333333,32.26388888888889,1384.75,31.625000000000004C1387.1666666666667,30.986111111111114,1389.5833333333333,30.347222222222218,1392,29.70833333333333C1394.4166666666667,29.06944444444444,1396.8333333333333,28.43055555555556,1399.25,27.79166666666667C1401.6666666666667,27.152777777777782,1404.0833333333333,26.513888888888886,1406.5,25.874999999999996C1408.9166666666667,25.236111111111107,1411.3333333333333,24.59722222222223,1413.75,23.95833333333334C1416.1666666666667,23.31944444444445,1418.5833333333333,22.680555555555554,1421,22.041666666666664C1423.4166666666667,21.402777777777775,1425.8333333333333,20.763888888888893,1428.25,20.125000000000004C1430.6666666666667,19.486111111111114,1433.0833333333333,18.84722222222222,1435.5,18.208333333333332C1437.9166666666667,17.569444444444443,1440.3333333333333,16.93055555555556,1442.75,16.29166666666667C1445.1666666666667,15.652777777777782,1447.5833333333333,15.013888888888891,1450,14.375" fill="transparent" stroke-linecap="round" stroke="#B6509E" stroke-width="2"></path><path class="visx-linepath" d="M0,108.29166666666667C2.4166666666666665,108.29166666666667,4.833333333333334,108.29166666666667,7.25,108.29166666666667C9.666666666666666,108.29166666666667,12.083333333333334,108.29166666666667,14.5,108.29166666666667C16.916666666666668,108.29166666666667,19.333333333333332,108.29166666666667,21.75,108.29166666666667C24.166666666666668,108.29166666666667,26.583333333333332,108.29166666666667,29,108.29166666666667C31.416666666666668,108.29166666666667,33.833333333333336,108.29166666666667,36.25,108.29166666666667C38.666666666666664,108.29166666666667,41.083333333333336,108.29166666666667,43.5,108.29166666666667C45.91666666666667,108.29166666666667,48.333333333333336,108.29166666666667,50.75000000000001,108.29166666666667C53.16666666666667,108.29166666666667,55.583333333333336,108.29166666666667,58,108.29166666666667C60.416666666666664,108.29166666666667,62.833333333333336,108.29166666666667,65.25,108.29166666666667C67.66666666666667,108.29166666666667,70.08333333333333,108.29166666666667,72.5,108.29166666666667C74.91666666666667,108.29166666666667,77.33333333333333,108.29166666666667,79.75,108.29166666666667C82.16666666666667,108.29166666666667,84.58333333333333,108.29166666666667,87,108.29166666666667C89.41666666666667,108.29166666666667,91.83333333333333,108.29166666666667,94.25,108.29166666666667C96.66666666666667,108.29166666666667,99.08333333333334,108.29166666666667,101.50000000000001,108.29166666666667C103.91666666666667,108.29166666666667,106.33333333333334,108.29166666666667,108.75,108.29166666666667C111.16666666666667,108.29166666666667,113.58333333333333,108.29166666666667,116,108.29166666666667C118.41666666666667,108.29166666666667,120.83333333333334,108.29166666666667,123.25000000000001,108.29166666666667C125.66666666666667,108.29166666666667,128.08333333333334,108.29166666666667,130.5,108.29166666666667C132.91666666666666,108.29166666666667,135.33333333333334,108.29166666666667,137.75,108.29166666666667C140.16666666666666,108.29166666666667,142.58333333333334,108.29166666666667,145,108.29166666666667C147.41666666666666,108.29166666666667,149.83333333333334,108.29166666666667,152.25,108.29166666666667C154.66666666666666,108.29166666666667,157.08333333333334,108.29166666666667,159.5,108.29166666666667C161.91666666666666,108.29166666666667,164.33333333333334,108.29166666666667,166.75,108.29166666666667C169.16666666666666,108.29166666666667,171.58333333333334,108.29166666666667,174,108.29166666666667C176.41666666666666,108.29166666666667,178.83333333333334,108.29166666666667,181.25,108.29166666666667C183.66666666666666,108.29166666666667,186.08333333333334,108.29166666666667,188.5,108.29166666666667C190.91666666666666,108.29166666666667,193.33333333333334,108.29166666666667,195.75,108.29166666666667C198.16666666666669,108.29166666666667,200.58333333333334,108.29166666666667,203.00000000000003,108.29166666666667C205.41666666666669,108.29166666666667,207.83333333333331,108.29166666666667,210.24999999999997,108.29166666666667C212.66666666666666,108.29166666666667,215.08333333333331,108.29166666666667,217.5,108.29166666666667C219.91666666666666,108.29166666666667,222.33333333333334,108.29166666666667,224.75,108.29166666666667C227.16666666666666,108.29166666666667,229.58333333333334,108.29166666666667,232,108.29166666666667C234.41666666666666,108.29166666666667,236.83333333333334,108.29166666666667,239.25,108.29166666666667C241.66666666666669,108.29166666666667,244.08333333333334,108.29166666666667,246.50000000000003,108.29166666666667C248.91666666666669,108.29166666666667,251.33333333333331,108.29166666666667,253.74999999999997,108.29166666666667C256.16666666666663,108.29166666666667,258.5833333333333,108.29166666666667,261,108.29166666666667C263.4166666666667,108.29166666666667,265.8333333333333,108.29166666666667,268.25,108.29166666666667C270.6666666666667,108.29166666666667,273.0833333333333,108.29166666666667,275.5,108.29166666666667C277.9166666666667,108.29166666666667,280.3333333333333,108.29166666666667,282.75,108.29166666666667C285.1666666666667,108.29166666666667,287.5833333333333,108.29166666666667,290,108.29166666666667C292.4166666666667,108.29166666666667,294.8333333333333,108.29166666666667,297.25,108.29166666666667C299.6666666666667,108.29166666666667,302.0833333333333,108.29166666666667,304.5,108.29166666666667C306.9166666666667,108.29166666666667,309.3333333333333,108.29166666666667,311.75,108.29166666666667C314.1666666666667,108.29166666666667,316.5833333333333,108.29166666666667,319,108.29166666666667C321.4166666666667,108.29166666666667,323.8333333333333,108.29166666666667,326.25,108.29166666666667C328.6666666666667,108.29166666666667,331.0833333333333,108.29166666666667,333.5,108.29166666666667C335.9166666666667,108.29166666666667,338.3333333333333,108.29166666666667,340.75,108.29166666666667C343.1666666666667,108.29166666666667,345.5833333333333,108.29166666666667,348,108.29166666666667C350.4166666666667,108.29166666666667,352.8333333333333,108.29166666666667,355.25,108.29166666666667C357.6666666666667,108.29166666666667,360.0833333333333,108.29166666666667,362.5,108.29166666666667C364.9166666666667,108.29166666666667,367.3333333333333,108.29166666666667,369.75,108.29166666666667C372.1666666666667,108.29166666666667,374.5833333333333,108.29166666666667,377,108.29166666666667C379.4166666666667,108.29166666666667,381.8333333333333,108.29166666666667,384.25,108.29166666666667C386.6666666666667,108.29166666666667,389.0833333333333,108.29166666666667,391.5,108.29166666666667C393.9166666666667,108.29166666666667,396.33333333333337,108.29166666666667,398.75000000000006,108.29166666666667C401.16666666666674,108.29166666666667,403.58333333333337,108.29166666666667,406.00000000000006,108.29166666666667C408.4166666666667,108.29166666666667,410.8333333333333,108.29166666666667,413.24999999999994,108.29166666666667C415.66666666666663,108.29166666666667,418.08333333333326,108.29166666666667,420.49999999999994,108.29166666666667C422.91666666666663,108.29166666666667,425.3333333333333,108.29166666666667,427.75,108.29166666666667C430.1666666666667,108.29166666666667,432.5833333333333,108.29166666666667,435,108.29166666666667C437.4166666666667,108.29166666666667,439.8333333333333,108.29166666666667,442.25,108.29166666666667C444.6666666666667,108.29166666666667,447.0833333333333,108.29166666666667,449.5,108.29166666666667C451.9166666666667,108.29166666666667,454.3333333333333,108.29166666666667,456.75,108.29166666666667C459.1666666666667,108.29166666666667,461.5833333333333,108.29166666666667,464,108.29166666666667C466.4166666666667,108.29166666666667,468.8333333333333,108.29166666666667,471.25,108.29166666666667C473.6666666666667,108.29166666666667,476.0833333333333,108.29166666666667,478.5,108.29166666666667C480.9166666666667,108.29166666666667,483.33333333333337,108.29166666666667,485.75000000000006,108.29166666666667C488.16666666666674,108.29166666666667,490.58333333333337,108.29166666666667,493.00000000000006,108.29166666666667C495.4166666666667,108.29166666666667,497.8333333333333,108.29166666666667,500.24999999999994,108.29166666666667C502.66666666666663,108.29166666666667,505.08333333333326,108.29166666666667,507.49999999999994,108.29166666666667C509.91666666666663,108.29166666666667,512.3333333333333,108.29166666666667,514.75,108.29166666666667C517.1666666666666,108.29166666666667,519.5833333333334,108.29166666666667,522,108.29166666666667C524.4166666666666,108.29166666666667,526.8333333333334,108.29166666666667,529.25,108.29166666666667C531.6666666666666,108.29166666666667,534.0833333333334,108.29166666666667,536.5,108.29166666666667C538.9166666666666,108.29166666666667,541.3333333333334,108.29166666666667,543.75,108.29166666666667C546.1666666666666,108.29166666666667,548.5833333333334,108.29166666666667,551,108.29166666666667C553.4166666666666,108.29166666666667,555.8333333333334,108.29166666666667,558.25,108.29166666666667C560.6666666666666,108.29166666666667,563.0833333333334,108.29166666666667,565.5,108.29166666666667C567.9166666666666,108.29166666666667,570.3333333333334,108.29166666666667,572.75,108.29166666666667C575.1666666666666,108.29166666666667,577.5833333333334,108.29166666666667,580,108.29166666666667C582.4166666666666,108.29166666666667,584.8333333333334,108.29166666666667,587.25,108.29166666666667C589.6666666666666,108.29166666666667,592.0833333333334,108.29166666666667,594.5,108.29166666666667C596.9166666666666,108.29166666666667,599.3333333333334,108.29166666666667,601.75,108.29166666666667C604.1666666666666,108.29166666666667,606.5833333333334,108.29166666666667,609,108.29166666666667C611.4166666666666,108.29166666666667,613.8333333333334,108.29166666666667,616.25,108.29166666666667C618.6666666666666,108.29166666666667,621.0833333333334,108.29166666666667,623.5,108.29166666666667C625.9166666666666,108.29166666666667,628.3333333333334,108.29166666666667,630.75,108.29166666666667C633.1666666666666,108.29166666666667,635.5833333333334,108.29166666666667,638,108.29166666666667C640.4166666666666,108.29166666666667,642.8333333333334,108.29166666666667,645.25,108.29166666666667C647.6666666666666,108.29166666666667,650.0833333333334,108.29166666666667,652.5,108.29166666666667C654.9166666666666,108.29166666666667,657.3333333333334,108.29166666666667,659.75,108.29166666666667C662.1666666666666,108.29166666666667,664.5833333333334,108.29166666666667,667,108.29166666666667C669.4166666666666,108.29166666666667,671.8333333333334,108.29166666666667,674.25,108.29166666666667C676.6666666666666,108.29166666666667,679.0833333333334,108.29166666666667,681.5,108.29166666666667C683.9166666666666,108.29166666666667,686.3333333333334,108.29166666666667,688.75,108.29166666666667C691.1666666666666,108.29166666666667,693.5833333333334,108.29166666666667,696,108.29166666666667C698.4166666666666,108.29166666666667,700.8333333333334,108.29166666666667,703.25,108.29166666666667C705.6666666666666,108.29166666666667,708.0833333333334,108.29166666666667,710.5,108.29166666666667C712.9166666666666,108.29166666666667,715.3333333333334,108.29166666666667,717.75,108.29166666666667C720.1666666666666,108.29166666666667,722.5833333333334,108.29166666666667,725,108.29166666666667C727.4166666666666,108.29166666666667,729.8333333333334,108.29166666666667,732.25,108.29166666666667C734.6666666666666,108.29166666666667,737.0833333333334,108.29166666666667,739.5,108.29166666666667C741.9166666666666,108.29166666666667,744.3333333333334,108.29166666666667,746.75,108.29166666666667C749.1666666666666,108.29166666666667,751.5833333333334,108.29166666666667,754,108.29166666666667C756.4166666666666,108.29166666666667,758.8333333333334,108.29166666666667,761.25,108.29166666666667C763.6666666666666,108.29166666666667,766.0833333333334,108.29166666666667,768.5,108.29166666666667C770.9166666666666,108.29166666666667,773.3333333333334,108.29166666666667,775.75,108.29166666666667C778.1666666666666,108.29166666666667,780.5833333333334,108.29166666666667,783,108.29166666666667C785.4166666666667,108.29166666666667,787.8333333333334,108.29166666666667,790.2500000000001,108.29166666666667C792.6666666666667,108.29166666666667,795.0833333333335,108.29166666666667,797.5000000000001,108.29166666666667C799.9166666666667,108.29166666666667,802.3333333333335,108.29166666666667,804.7500000000001,108.29166666666667C807.1666666666667,108.29166666666667,809.5833333333335,108.29166666666667,812.0000000000001,108.29166666666667C814.4166666666667,108.29166666666667,816.8333333333333,108.29166666666667,819.2499999999999,108.29166666666667C821.6666666666665,108.29166666666667,824.0833333333333,108.29166666666667,826.4999999999999,108.29166666666667C828.9166666666665,108.29166666666667,831.3333333333333,108.29166666666667,833.7499999999999,108.29166666666667C836.1666666666665,108.29166666666667,838.5833333333333,108.29166666666667,840.9999999999999,108.29166666666667C843.4166666666666,108.29166666666667,845.8333333333333,108.29166666666667,848.25,108.29166666666667C850.6666666666666,108.29166666666667,853.0833333333334,108.29166666666667,855.5,108.29166666666667C857.9166666666666,108.29166666666667,860.3333333333334,108.29166666666667,862.75,108.29166666666667C865.1666666666666,108.29166666666667,867.5833333333334,108.29166666666667,870,108.29166666666667C872.4166666666666,108.29166666666667,874.8333333333334,108.29166666666667,877.25,108.29166666666667C879.6666666666666,108.29166666666667,882.0833333333334,108.29166666666667,884.5,108.29166666666667C886.9166666666666,108.29166666666667,889.3333333333334,108.29166666666667,891.75,108.29166666666667C894.1666666666666,108.29166666666667,896.5833333333334,108.29166666666667,899,108.29166666666667C901.4166666666666,108.29166666666667,903.8333333333334,108.29166666666667,906.25,108.29166666666667C908.6666666666666,108.29166666666667,911.0833333333334,108.29166666666667,913.5,108.29166666666667C915.9166666666666,108.29166666666667,918.3333333333334,108.29166666666667,920.75,108.29166666666667C923.1666666666666,108.29166666666667,925.5833333333334,108.29166666666667,928,108.29166666666667C930.4166666666666,108.29166666666667,932.8333333333334,108.29166666666667,935.25,108.29166666666667C937.6666666666666,108.29166666666667,940.0833333333334,108.29166666666667,942.5,108.29166666666667C944.9166666666666,108.29166666666667,947.3333333333334,108.29166666666667,949.75,108.29166666666667C952.1666666666666,108.29166666666667,954.5833333333334,108.29166666666667,957,108.29166666666667C959.4166666666666,108.29166666666667,961.8333333333334,108.29166666666667,964.25,108.29166666666667C966.6666666666667,108.29166666666667,969.0833333333334,108.29166666666667,971.5000000000001,108.29166666666667C973.9166666666667,108.29166666666667,976.3333333333335,108.29166666666667,978.7500000000001,108.29166666666667C981.1666666666667,108.29166666666667,983.5833333333335,108.29166666666667,986.0000000000001,108.29166666666667C988.4166666666667,108.29166666666667,990.8333333333335,108.29166666666667,993.2500000000001,108.29166666666667C995.6666666666667,108.29166666666667,998.0833333333333,108.29166666666667,1000.4999999999999,108.29166666666667C1002.9166666666665,108.29166666666667,1005.3333333333333,108.29166666666667,1007.7499999999999,108.29166666666667C1010.1666666666665,108.29166666666667,1012.5833333333333,108.29166666666667,1014.9999999999999,108.29166666666667C1017.4166666666665,108.29166666666667,1019.8333333333333,108.29166666666667,1022.2499999999999,108.29166666666667C1024.6666666666665,108.29166666666667,1027.0833333333333,108.29166666666667,1029.5,108.29166666666667C1031.9166666666667,108.29166666666667,1034.3333333333333,108.29166666666667,1036.75,108.29166666666667C1039.1666666666667,108.29166666666667,1041.5833333333333,108.29166666666667,1044,108.29166666666667C1046.4166666666667,108.29166666666667,1048.8333333333333,108.29166666666667,1051.25,108.29166666666667C1053.6666666666667,108.29166666666667,1056.0833333333333,108.29166666666667,1058.5,108.29166666666667C1060.9166666666667,108.29166666666667,1063.3333333333333,108.29166666666667,1065.75,108.29166666666667C1068.1666666666667,108.29166666666667,1070.5833333333333,108.29166666666667,1073,108.29166666666667C1075.4166666666667,108.29166666666667,1077.8333333333333,108.29166666666667,1080.25,108.29166666666667C1082.6666666666667,108.29166666666667,1085.0833333333333,108.29166666666667,1087.5,108.29166666666667C1089.9166666666667,108.29166666666667,1092.3333333333333,108.29166666666667,1094.75,108.29166666666667C1097.1666666666667,108.29166666666667,1099.5833333333333,108.29166666666667,1102,108.29166666666667C1104.4166666666667,108.29166666666667,1106.8333333333333,108.29166666666667,1109.25,108.29166666666667C1111.6666666666667,108.29166666666667,1114.0833333333333,108.29166666666667,1116.5,108.29166666666667C1118.9166666666667,108.29166666666667,1121.3333333333333,108.29166666666667,1123.75,108.29166666666667C1126.1666666666667,108.29166666666667,1128.5833333333333,108.29166666666667,1131,108.29166666666667C1133.4166666666667,108.29166666666667,1135.8333333333333,108.29166666666667,1138.25,108.29166666666667C1140.6666666666667,108.29166666666667,1143.0833333333333,108.29166666666667,1145.5,108.29166666666667C1147.9166666666667,108.29166666666667,1150.3333333333333,108.29166666666667,1152.75,108.29166666666667C1155.1666666666667,108.29166666666667,1157.5833333333333,108.29166666666667,1160,108.29166666666667C1162.4166666666667,108.29166666666667,1164.8333333333333,108.29166666666667,1167.25,108.29166666666667C1169.6666666666667,108.29166666666667,1172.0833333333333,108.29166666666667,1174.5,108.29166666666667C1176.9166666666667,108.29166666666667,1179.3333333333333,108.29166666666667,1181.75,108.29166666666667C1184.1666666666667,108.29166666666667,1186.5833333333333,108.29166666666667,1189,108.29166666666667C1191.4166666666667,108.29166666666667,1193.8333333333333,108.29166666666667,1196.25,108.29166666666667C1198.6666666666667,108.29166666666667,1201.0833333333333,108.29166666666667,1203.5,108.29166666666667C1205.9166666666667,108.29166666666667,1208.3333333333333,108.29166666666667,1210.75,108.29166666666667C1213.1666666666667,108.29166666666667,1215.5833333333333,108.29166666666667,1218,108.29166666666667C1220.4166666666667,108.29166666666667,1222.8333333333333,108.29166666666667,1225.25,108.29166666666667C1227.6666666666667,108.29166666666667,1230.0833333333333,108.29166666666667,1232.5,108.29166666666667C1234.9166666666667,108.29166666666667,1237.3333333333333,108.29166666666667,1239.75,108.29166666666667C1242.1666666666667,108.29166666666667,1244.5833333333333,108.29166666666667,1247,108.29166666666667C1249.4166666666667,108.29166666666667,1251.8333333333333,108.29166666666667,1254.25,108.29166666666667C1256.6666666666667,108.29166666666667,1259.0833333333333,108.29166666666667,1261.5,108.29166666666667C1263.9166666666667,108.29166666666667,1266.3333333333333,108.29166666666667,1268.75,108.29166666666667C1271.1666666666667,108.29166666666667,1273.5833333333333,108.29166666666667,1276,108.29166666666667C1278.4166666666667,108.29166666666667,1280.8333333333333,108.29166666666667,1283.25,108.29166666666667C1285.6666666666667,108.29166666666667,1288.0833333333333,108.29166666666667,1290.5,108.29166666666667C1292.9166666666667,108.29166666666667,1295.3333333333333,108.29166666666667,1297.75,108.29166666666667C1300.1666666666667,108.29166666666667,1302.5833333333333,108.29166666666667,1305,108.29166666666667C1307.4166666666667,108.29166666666667,1309.8333333333333,108.29166666666667,1312.25,108.29166666666667C1314.6666666666667,108.29166666666667,1317.0833333333333,108.29166666666667,1319.5,108.29166666666667C1321.9166666666667,108.29166666666667,1324.3333333333333,108.29166666666667,1326.75,108.29166666666667C1329.1666666666667,108.29166666666667,1331.5833333333333,108.29166666666667,1334,108.29166666666667C1336.4166666666667,108.29166666666667,1338.8333333333333,108.29166666666667,1341.25,108.29166666666667C1343.6666666666667,108.29166666666667,1346.0833333333333,108.29166666666667,1348.5,108.29166666666667C1350.9166666666667,108.29166666666667,1353.3333333333333,108.29166666666667,1355.75,108.29166666666667C1358.1666666666667,108.29166666666667,1360.5833333333333,108.29166666666667,1363,108.29166666666667C1365.4166666666667,108.29166666666667,1367.8333333333333,108.29166666666667,1370.25,108.29166666666667C1372.6666666666667,108.29166666666667,1375.0833333333333,108.29166666666667,1377.5,108.29166666666667C1379.9166666666667,108.29166666666667,1382.3333333333333,108.29166666666667,1384.75,108.29166666666667C1387.1666666666667,108.29166666666667,1389.5833333333333,108.29166666666667,1392,108.29166666666667C1394.4166666666667,108.29166666666667,1396.8333333333333,108.29166666666667,1399.25,108.29166666666667C1401.6666666666667,108.29166666666667,1404.0833333333333,108.29166666666667,1406.5,108.29166666666667C1408.9166666666667,108.29166666666667,1411.3333333333333,108.29166666666667,1413.75,108.29166666666667C1416.1666666666667,108.29166666666667,1418.5833333333333,108.29166666666667,1421,108.29166666666667C1423.4166666666667,108.29166666666667,1425.8333333333333,108.29166666666667,1428.25,108.29166666666667C1430.6666666666667,108.29166666666667,1433.0833333333333,108.29166666666667,1435.5,108.29166666666667C1437.9166666666667,108.29166666666667,1440.3333333333333,108.29166666666667,1442.75,108.29166666666667C1445.1666666666667,108.29166666666667,1447.5833333333333,108.29166666666667,1450,108.29166666666667" fill="transparent" stroke-linecap="round" stroke="#E7C6DF" stroke-width="2"></path><g class="visx-group visx-axis visx-axis-bottom" transform="translate(0, 115)"><g class="visx-group visx-axis-tick" transform="translate(0, 0)"><line class="visx-line" x1="0" y1="0" x2="0" y2="8" fill="transparent" shape-rendering="crispEdges" stroke="#000" stroke-width="0" stroke-linecap="square"></line><svg x="0" y="0" font-size="10" style="overflow:visible"><text transform="" x="0" y="18" fill="#000" font-size="10" text-anchor="middle"><tspan x="0" dy="0em">0%</tspan></text></svg></g><g class="visx-group visx-axis-tick" transform="translate(0, 0)"><line class="visx-line" x1="362.5" y1="0" x2="362.5" y2="8" fill="transparent" shape-rendering="crispEdges" stroke="#000" stroke-width="0" stroke-linecap="square"></line><svg x="0" y="0" font-size="10" style="overflow:visible"><text transform="" x="362.5" y="18" fill="#000" font-size="10" text-anchor="middle"><tspan x="362.5" dy="0em">25%</tspan></text></svg></g><g class="visx-group visx-axis-tick" transform="translate(0, 0)"><line class="visx-line" x1="725" y1="0" x2="725" y2="8" fill="transparent" shape-rendering="crispEdges" stroke="#000" stroke-width="0" stroke-linecap="square"></line><svg x="0" y="0" font-size="10" style="overflow:visible"><text transform="" x="725" y="18" fill="#000" font-size="10" text-anchor="middle"><tspan x="725" dy="0em">50%</tspan></text></svg></g><g class="visx-group visx-axis-tick" transform="translate(0, 0)"><line class="visx-line" x1="1087.5" y1="0" x2="1087.5" y2="8" fill="transparent" shape-rendering="crispEdges" stroke="#000" stroke-width="0" stroke-linecap="square"></line><svg x="0" y="0" font-size="10" style="overflow:visible"><text transform="" x="1087.5" y="18" fill="#000" font-size="10" text-anchor="middle"><tspan x="1087.5" dy="0em">75%</tspan></text></svg></g><g class="visx-group visx-axis-tick" transform="translate(0, 0)"><line class="visx-line" x1="1450" y1="0" x2="1450" y2="8" fill="transparent" shape-rendering="crispEdges" stroke="#000" stroke-width="0" stroke-linecap="square"></line><svg x="0" y="0" font-size="10" style="overflow:visible"><text transform="" x="1450" y="18" fill="#000" font-size="10" text-anchor="middle"><tspan x="1450" dy="0em">100%</tspan></text></svg></g><line class="visx-line visx-axis-line" x1="0.5" y1="0" x2="1450.5" y2="0" fill="transparent" shape-rendering="crispEdges" stroke="#222" stroke-width="0"></line></g><g class="visx-group visx-axis visx-axis-left" transform="translate(0, 0)"><g class="visx-group visx-axis-tick" transform="translate(0, 0)"><line class="visx-line" x1="0" y1="115" x2="-8" y2="115" fill="transparent" shape-rendering="crispEdges" stroke="#222" stroke-width="0" stroke-linecap="square"></line><svg x="-30" y="0" font-size="8" style="overflow:visible"><text transform="" x="-8" y="115" fill="#000" font-size="8" text-anchor="start"><tspan x="-8" dy="0em">0%</tspan></text></svg></g><g class="visx-group visx-axis-tick" transform="translate(0, 0)"><line class="visx-line" x1="0" y1="67.08333333333333" x2="-8" y2="67.08333333333333" fill="transparent" shape-rendering="crispEdges" stroke="#222" stroke-width="0" stroke-linecap="square"></line><svg x="-30" y="0" font-size="8" style="overflow:visible"><text transform="" x="-8" y="67.08333333333333" fill="#000" font-size="8" text-anchor="start"><tspan x="-8" dy="0em">50%</tspan></text></svg></g><g class="visx-group visx-axis-tick" transform="translate(0, 0)"><line class="visx-line" x1="0" y1="19.16666666666666" x2="-8" y2="19.16666666666666" fill="transparent" shape-rendering="crispEdges" stroke="#222" stroke-width="0" stroke-linecap="square"></line><svg x="-30" y="0" font-size="8" style="overflow:visible"><text transform="" x="-8" y="19.16666666666666" fill="#000" font-size="8" text-anchor="start"><tspan x="-8" dy="0em">100%</tspan></text></svg></g><line class="visx-line visx-axis-line" x1="0" y1="115.5" x2="0" y2="0.5" fill="transparent" shape-rendering="crispEdges" stroke="#222" stroke-width="0"></line></g><rect class="visx-bar" width="1450" height="115" fill="transparent"></rect><line class="visx-line" x1="1087.5" y1="28" x2="1087.5" y2="115" fill="transparent" shape-rendering="crispEdges" stroke="#0062D2" stroke-width="1" pointer-events="none" stroke-dasharray="5,2"></line><svg x="0" y="0" font-size="10px" style="overflow:visible"><text transform="" x="1087.5" y="20" font-size="10px" fill="#fff" stroke="#fff" stroke-width="0.8em" text-anchor="middle"><tspan x="1087.5" dy="0.355em">Optimal 75%</tspan></text></svg><svg x="0" y="0" font-size="10px" style="overflow:visible"><text transform="" x="1087.5" y="20" font-size="10px" fill="#62677B" text-anchor="middle"><tspan x="1087.5" dy="0.355em">Optimal 75%</tspan></text></svg></g></svg>