<?xml version="1.0"?><svg xmlns="http://www.w3.org/2000/svg" xmlns:xlink= "http://www.w3.org/1999/xlink" style="background: white;" width="1500" height="185"> <g style="color: black; font-size: 13px; font-family: sans-serif; transform: translate(18px, 25px);"><g><circle r="3" cx="-6" cy="-5" style="fill: #B6509E" /><text>Borrow APR, variable</text></g><g style="transform: translateX(150px);"><circle r="3" cx="-6" cy="-5" style="fill: rgb(231, 198, 223)" /><text>Borrow APR, stable</text></g><g style="transform: translateX(290px);"><circle r="3" cx="-6" cy="-5" style="fill: rgb(0, 98, 210)" /><text>Utilization Rate</text></g></g><g class="visx-group" transform="translate(40, 50)"><g class="visx-group visx-rows" transform="translate(0, 0)"><line class="visx-line" x1="0" y1="115" x2="1450" y2="115" fill="transparent" shape-rendering="crispEdges" stroke="#000" stroke-width="1" stroke-dasharray="3,3" pointer-events="none"></line><line class="visx-line" x1="0" y1="70.76923076923077" x2="1450" y2="70.76923076923077" fill="transparent" shape-rendering="crispEdges" stroke="#000" stroke-width="1" stroke-dasharray="3,3" pointer-events="none"></line><line class="visx-line" x1="0" y1="26.538461538461533" x2="1450" y2="26.538461538461533" fill="transparent" shape-rendering="crispEdges" stroke="#000" stroke-width="1" stroke-dasharray="3,3" pointer-events="none"></line></g><path class="visx-linepath" d="M0,114.99999999995578C2.4166666666666665,114.9926282051024,4.833333333333334,114.98525641024904,7.25,114.97788461538461C9.666666666666666,114.97051282052018,12.083333333333334,114.96314102564101,14.5,114.95576923076922C16.916666666666668,114.94839743589743,19.333333333333332,114.94102564102563,21.75,114.93365384615385C24.166666666666668,114.92628205128206,26.583333333333332,114.91891025641026,29,114.91153846153847C31.416666666666668,114.90416666666668,33.833333333333336,114.89679487179488,36.25,114.88942307692308C38.666666666666664,114.88205128205128,41.083333333333336,114.87467948717949,43.5,114.86730769230769C45.91666666666667,114.85993589743589,48.333333333333336,114.8525641025641,50.75000000000001,114.8451923076923C53.16666666666667,114.83782051282051,55.583333333333336,114.83044871794871,58,114.82307692307693C60.416666666666664,114.81570512820512,62.833333333333336,114.80833333333332,65.25,114.80096153846154C67.66666666666667,114.79358974358975,70.08333333333333,114.78621794871795,72.5,114.77884615384616C74.91666666666667,114.77147435897437,77.33333333333333,114.76410256410257,79.75,114.75673076923077C82.16666666666667,114.74935897435897,84.58333333333333,114.74198717948717,87,114.73461538461538C89.41666666666667,114.7272435897436,91.83333333333333,114.71987179487179,94.25,114.7125C96.66666666666667,114.7051282051282,99.08333333333334,114.69775641025642,101.50000000000001,114.69038461538462C103.91666666666667,114.68301282051281,106.33333333333334,114.67564102564101,108.75,114.66826923076923C111.16666666666667,114.66089743589743,113.58333333333333,114.65352564102564,116,114.64615384615385C118.41666666666667,114.63878205128205,120.83333333333334,114.63141025641026,123.25000000000001,114.62403846153846C125.66666666666667,114.61666666666666,128.08333333333334,114.60929487179486,130.5,114.60192307692307C132.91666666666666,114.59455128205127,135.33333333333334,114.58717948717948,137.75,114.5798076923077C140.16666666666666,114.57243589743591,142.58333333333334,114.56506410256411,145,114.5576923076923C147.41666666666666,114.5503205128205,149.83333333333334,114.5429487179487,152.25,114.53557692307692C154.66666666666666,114.52820512820513,157.08333333333334,114.52083333333333,159.5,114.51346153846154C161.91666666666666,114.50608974358975,164.33333333333334,114.49871794871794,166.75,114.49134615384615C169.16666666666666,114.48397435897436,171.58333333333334,114.47660256410256,174,114.46923076923078C176.41666666666666,114.46185897435899,178.83333333333334,114.45448717948719,181.25,114.44711538461539C183.66666666666666,114.43974358974359,186.08333333333334,114.4323717948718,188.5,114.425C190.91666666666666,114.4176282051282,193.33333333333334,114.4102564102564,195.75,114.40288461538461C198.16666666666669,114.3955128205128,200.58333333333334,114.38814102564102,203.00000000000003,114.38076923076923C205.41666666666669,114.37339743589745,207.83333333333331,114.36602564102564,210.24999999999997,114.35865384615386C212.66666666666666,114.35128205128206,215.08333333333331,114.34391025641027,217.5,114.33653846153847C219.91666666666666,114.32916666666667,222.33333333333334,114.32179487179488,224.75,114.31442307692308C227.16666666666666,114.30705128205128,229.58333333333334,114.29967948717949,232,114.29230769230769C234.41666666666666,114.28493589743589,236.83333333333334,114.27756410256409,239.25,114.2701923076923C241.66666666666669,114.2628205128205,244.08333333333334,114.25544871794871,246.50000000000003,114.24807692307692C248.91666666666669,114.24070512820514,251.33333333333331,114.23333333333333,253.74999999999997,114.22596153846155C256.16666666666663,114.21858974358975,258.5833333333333,114.21121794871796,261,114.20384615384616C263.4166666666667,114.19647435897436,265.8333333333333,114.18910256410257,268.25,114.18173076923077C270.6666666666667,114.17435897435897,273.0833333333333,114.16698717948717,275.5,114.15961538461538C277.9166666666667,114.15224358974359,280.3333333333333,114.14487179487179,282.75,114.1375C285.1666666666667,114.13012820512822,287.5833333333333,114.1227564102564,290,114.11538461538461C292.4166666666667,114.10801282051283,294.8333333333333,114.10064102564102,297.25,114.09326923076924C299.6666666666667,114.08589743589745,302.0833333333333,114.07852564102565,304.5,114.07115384615385C306.9166666666667,114.06378205128205,309.3333333333333,114.05641025641025,311.75,114.04903846153846C314.1666666666667,114.04166666666667,316.5833333333333,114.03429487179487,319,114.02692307692308C321.4166666666667,114.0195512820513,323.8333333333333,114.0121794871795,326.25,114.0048076923077C328.6666666666667,113.99743589743589,331.0833333333333,113.99006410256409,333.5,113.9826923076923C335.9166666666667,113.97532051282052,338.3333333333333,113.96794871794872,340.75,113.96057692307693C343.1666666666667,113.95320512820514,345.5833333333333,113.94583333333334,348,113.93846153846154C350.4166666666667,113.93108974358974,352.8333333333333,113.92371794871794,355.25,113.91634615384615C357.6666666666667,113.90897435897436,360.0833333333333,113.90160256410256,362.5,113.89423076923077C364.9166666666667,113.88685897435899,367.3333333333333,113.87948717948719,369.75,113.87211538461538C372.1666666666667,113.86474358974358,374.5833333333333,113.85737179487178,377,113.85C379.4166666666667,113.84262820512821,381.8333333333333,113.8352564102564,384.25,113.82788461538462C386.6666666666667,113.82051282051283,389.0833333333333,113.81314102564102,391.5,113.80576923076923C393.9166666666667,113.79839743589743,396.33333333333337,113.79102564102566,398.75000000000006,113.78365384615385C401.16666666666674,113.77628205128207,403.58333333333337,113.76891025641027,406.00000000000006,113.76153846153846C408.4166666666667,113.75416666666666,410.8333333333333,113.74679487179488,413.24999999999994,113.73942307692307C415.66666666666663,113.73205128205127,418.08333333333326,113.72467948717949,420.49999999999994,113.71730769230768C422.91666666666663,113.70993589743588,425.3333333333333,113.70256410256408,427.75,113.6951923076923C430.1666666666667,113.68782051282051,432.5833333333333,113.68044871794872,435,113.67307692307693C437.4166666666667,113.66570512820515,439.8333333333333,113.65833333333335,442.25,113.65096153846154C444.6666666666667,113.64358974358974,447.0833333333333,113.63621794871796,449.5,113.62884615384615C451.9166666666667,113.62147435897435,454.3333333333333,113.61410256410257,456.75,113.60673076923077C459.1666666666667,113.59935897435896,461.5833333333333,113.59198717948716,464,113.58461538461538C466.4166666666667,113.57724358974359,468.8333333333333,113.56987179487179,471.25,113.5625C473.6666666666667,113.55512820512821,476.0833333333333,113.54775641025641,478.5,113.54038461538462C480.9166666666667,113.53301282051282,483.33333333333337,113.52564102564104,485.75000000000006,113.51826923076923C488.16666666666674,113.51089743589743,490.58333333333337,113.50352564102565,493.00000000000006,113.49615384615385C495.4166666666667,113.48878205128204,497.8333333333333,113.48141025641024,500.24999999999994,113.47403846153846C502.66666666666663,113.46666666666665,505.08333333333326,113.45929487179487,507.49999999999994,113.45192307692308C509.91666666666663,113.44455128205128,512.3333333333333,113.43717948717949,514.75,113.42980769230769C517.1666666666666,113.4224358974359,519.5833333333334,113.4150641025641,522,113.40769230769232C524.4166666666666,113.40032051282053,526.8333333333334,113.39294871794873,529.25,113.38557692307693C531.6666666666666,113.37820512820512,534.0833333333334,113.37083333333332,536.5,113.36346153846154C538.9166666666666,113.35608974358975,541.3333333333334,113.34871794871795,543.75,113.34134615384616C546.1666666666666,113.33397435897437,548.5833333333334,113.32660256410257,551,113.31923076923077C553.4166666666666,113.31185897435897,555.8333333333334,113.30448717948718,558.25,113.29711538461538C560.6666666666666,113.28974358974358,563.0833333333334,113.28237179487178,565.5,113.27499999999999C567.9166666666666,113.2676282051282,570.3333333333334,113.2602564102564,572.75,113.25288461538462C575.1666666666666,113.24551282051283,577.5833333333334,113.23814102564103,580,113.23076923076924C582.4166666666666,113.22339743589745,584.8333333333334,113.21602564102565,587.25,113.20865384615385C589.6666666666666,113.20128205128205,592.0833333333334,113.19391025641026,594.5,113.18653846153846C596.9166666666666,113.17916666666666,599.3333333333334,113.17179487179487,601.75,113.16442307692307C604.1666666666666,113.15705128205127,606.5833333333334,113.14967948717947,609,113.14230769230768C611.4166666666666,113.1349358974359,613.8333333333334,113.1275641025641,616.25,113.1201923076923C618.6666666666666,113.11282051282052,621.0833333333334,113.10544871794872,623.5,113.09807692307693C625.9166666666666,113.09070512820514,628.3333333333334,113.08333333333334,630.75,113.07596153846154C633.1666666666666,113.06858974358974,635.5833333333334,113.06121794871795,638,113.05384615384615C640.4166666666666,113.04647435897435,642.8333333333334,113.03910256410256,645.25,113.03173076923076C647.6666666666666,113.02435897435896,650.0833333333334,113.01698717948716,652.5,113.00961538461537C654.9166666666666,113.00224358974359,657.3333333333334,112.9948717948718,659.75,112.98750000000001C662.1666666666666,112.98012820512822,664.5833333333334,112.97275641025642,667,112.96538461538462C669.4166666666666,112.95801282051282,671.8333333333334,112.95064102564103,674.25,112.94326923076923C676.6666666666666,112.93589743589743,679.0833333333334,112.92852564102564,681.5,112.92115384615384C683.9166666666666,112.91378205128204,686.3333333333334,112.90641025641024,688.75,112.89903846153845C691.1666666666666,112.89166666666667,693.5833333333334,112.88429487179486,696,112.87692307692308C698.4166666666666,112.86955128205129,700.8333333333334,112.86217948717949,703.25,112.8548076923077C705.6666666666666,112.84743589743591,708.0833333333334,112.84006410256411,710.5,112.83269230769231C712.9166666666666,112.82532051282051,715.3333333333334,112.81794871794872,717.75,112.81057692307692C720.1666666666666,112.80320512820512,722.5833333333334,112.79583333333332,725,112.78846153846153C727.4166666666666,112.78108974358975,729.8333333333334,112.77371794871794,732.25,112.76634615384616C734.6666666666666,112.75897435897437,737.0833333333334,112.75160256410257,739.5,112.74423076923077C741.9166666666666,112.73685897435897,744.3333333333334,112.72948717948717,746.75,112.72211538461538C749.1666666666666,112.71474358974359,751.5833333333334,112.70737179487179,754,112.7C756.4166666666666,112.69262820512822,758.8333333333334,112.6852564102564,761.25,112.67788461538461C763.6666666666666,112.67051282051283,766.0833333333334,112.66314102564102,768.5,112.65576923076924C770.9166666666666,112.64839743589745,773.3333333333334,112.64102564102565,775.75,112.63365384615385C778.1666666666666,112.62628205128205,780.5833333333334,112.61891025641026,783,112.61153846153846C785.4166666666667,112.60416666666666,787.8333333333334,112.59679487179487,790.2500000000001,112.58942307692307C792.6666666666667,112.58205128205128,795.0833333333335,112.57467948717948,797.5000000000001,112.5673076923077C799.9166666666667,112.5599358974359,802.3333333333335,112.5525641025641,804.7500000000001,112.54519230769232C807.1666666666667,112.53782051282053,809.5833333333335,112.53044871794873,812.0000000000001,112.52307692307693C814.4166666666667,112.51570512820513,816.8333333333333,112.50833333333334,819.2499999999999,112.50096153846154C821.6666666666665,112.49358974358974,824.0833333333333,112.48621794871795,826.4999999999999,112.47884615384615C828.9166666666665,112.47147435897435,831.3333333333333,112.46410256410255,833.7499999999999,112.45673076923076C836.1666666666665,112.44935897435897,838.5833333333333,112.44198717948717,840.9999999999999,112.43461538461538C843.4166666666666,112.4272435897436,845.8333333333333,112.41987179487181,848.25,112.41250000000001C850.6666666666666,112.40512820512822,853.0833333333334,112.39775641025642,855.5,112.39038461538462C857.9166666666666,112.38301282051282,860.3333333333334,112.37564102564103,862.75,112.36826923076923C865.1666666666666,112.36089743589743,867.5833333333334,112.35352564102564,870,112.34615384615384C872.4166666666666,112.33878205128204,874.8333333333334,112.33141025641024,877.25,112.32403846153845C879.6666666666666,112.31666666666666,882.0833333333334,112.30929487179486,884.5,112.30192307692307C886.9166666666666,112.29455128205129,889.3333333333334,112.28717948717949,891.75,112.2798076923077C894.1666666666666,112.27243589743591,896.5833333333334,112.26506410256411,899,112.25769230769231C901.4166666666666,112.25032051282051,903.8333333333334,112.24294871794872,906.25,112.23557692307692C908.6666666666666,112.22820512820512,911.0833333333334,112.22083333333332,913.5,112.21346153846153C915.9166666666666,112.20608974358974,918.3333333333334,112.19871794871794,920.75,112.19134615384615C923.1666666666666,112.18397435897437,925.5833333333334,112.17660256410255,928,112.16923076923077C930.4166666666666,112.16185897435898,932.8333333333334,112.15448717948718,935.25,112.14711538461539C937.6666666666666,112.1397435897436,940.0833333333334,112.1323717948718,942.5,112.125C944.9166666666666,112.1176282051282,947.3333333333334,112.1102564102564,949.75,112.10288461538461C952.1666666666666,112.09551282051282,954.5833333333334,112.08814102564102,957,112.08076923076923C959.4166666666666,112.07339743589745,961.8333333333334,112.06602564102565,964.25,112.05865384615385C966.6666666666667,112.05128205128204,969.0833333333334,112.04391025641026,971.5000000000001,112.03653846153846C973.9166666666667,112.02916666666667,976.3333333333335,112.02179487179487,978.7500000000001,112.01442307692308C981.1666666666667,112.0070512820513,983.5833333333335,111.99967948717948,986.0000000000001,111.99230769230769C988.4166666666667,111.9849358974359,990.8333333333335,111.97756410256412,993.2500000000001,111.97019230769232C995.6666666666667,111.96282051282053,998.0833333333333,111.95544871794873,1000.4999999999999,111.94807692307693C1002.9166666666665,111.94070512820512,1005.3333333333333,111.93333333333334,1007.7499999999999,111.92596153846154C1010.1666666666665,111.91858974358973,1012.5833333333333,111.91121794871793,1014.9999999999999,111.90384615384615C1017.4166666666665,111.89647435897436,1019.8333333333333,111.88910256410256,1022.2499999999999,111.88173076923077C1024.6666666666665,111.87435897435898,1027.0833333333333,111.8669871794872,1029.5,111.8596153846154C1031.9166666666667,111.85224358974361,1034.3333333333333,111.8448717948718,1036.75,111.8375C1039.1666666666667,111.8301282051282,1041.5833333333333,111.82275641025642,1044,111.81538461538462C1046.4166666666667,111.80801282051281,1048.8333333333333,111.80064102564103,1051.25,111.79326923076923C1053.6666666666667,111.78589743589743,1056.0833333333333,111.77852564102562,1058.5,111.77115384615384C1060.9166666666667,111.76378205128205,1063.3333333333333,111.75641025641025,1065.75,111.74903846153846C1068.1666666666667,111.74166666666667,1070.5833333333333,111.73429487179487,1073,111.72692307692309C1075.4166666666667,111.7195512820513,1077.8333333333333,111.7121794871795,1080.25,111.7048076923077C1082.6666666666667,111.6974358974359,1085.0833333333333,111.69006410256411,1087.5,111.6826923076923C1089.9166666666667,111.6753205128205,1092.3333333333333,111.66794871794872,1094.75,111.66057692307692C1097.1666666666667,111.65320512820512,1099.5833333333333,111.64583333333331,1102,111.63846153846153C1104.4166666666667,111.63108974358974,1106.8333333333333,111.62371794871794,1109.25,111.61634615384615C1111.6666666666667,111.60897435897436,1114.0833333333333,111.60160256410256,1116.5,111.59423076923078C1118.9166666666667,111.58685897435899,1121.3333333333333,111.57948717948719,1123.75,111.57211538461539C1126.1666666666667,111.56474358974359,1128.5833333333333,111.5573717948718,1131,111.55C1133.4166666666667,111.5426282051282,1135.8333333333333,111.5352564102564,1138.25,111.52788461538461C1140.6666666666667,111.52051282051282,1143.0833333333333,111.51314102564102,1145.5,111.50576923076923C1147.9166666666667,111.49839743589745,1150.3333333333333,111.49102564102563,1152.75,111.48365384615384C1155.1666666666667,111.47628205128206,1157.5833333333333,111.47628205128206,1160,111.46153846153847C1162.4166666666667,111.44679487179488,1164.8333333333333,109.98717948717949,1167.25,109.25C1169.6666666666667,108.51282051282051,1172.0833333333333,107.77564102564104,1174.5,107.03846153846155C1176.9166666666667,106.30128205128206,1179.3333333333333,105.56410256410257,1181.75,104.82692307692308C1184.1666666666667,104.08974358974359,1186.5833333333333,103.3525641025641,1189,102.61538461538461C1191.4166666666667,101.87820512820512,1193.8333333333333,101.14102564102565,1196.25,100.40384615384616C1198.6666666666667,99.66666666666667,1201.0833333333333,98.92948717948718,1203.5,98.1923076923077C1205.9166666666667,97.4551282051282,1208.3333333333333,96.71794871794873,1210.75,95.98076923076924C1213.1666666666667,95.24358974358975,1215.5833333333333,94.50641025641026,1218,93.76923076923077C1220.4166666666667,93.03205128205128,1222.8333333333333,92.29487179487181,1225.25,91.55769230769232C1227.6666666666667,90.82051282051283,1230.0833333333333,90.08333333333334,1232.5,89.34615384615385C1234.9166666666667,88.60897435897436,1237.3333333333333,87.87179487179488,1239.75,87.13461538461539C1242.1666666666667,86.3974358974359,1244.5833333333333,85.66025641025642,1247,84.92307692307693C1249.4166666666667,84.18589743589745,1251.8333333333333,83.44871794871796,1254.25,82.71153846153847C1256.6666666666667,81.97435897435898,1259.0833333333333,81.23717948717949,1261.5,80.5C1263.9166666666667,79.76282051282051,1266.3333333333333,79.02564102564104,1268.75,78.28846153846155C1271.1666666666667,77.55128205128206,1273.5833333333333,76.81410256410257,1276,76.07692307692308C1278.4166666666667,75.33974358974359,1280.8333333333333,74.6025641025641,1283.25,73.86538461538461C1285.6666666666667,73.12820512820512,1288.0833333333333,72.39102564102565,1290.5,71.65384615384616C1292.9166666666667,70.91666666666667,1295.3333333333333,70.1794871794872,1297.75,69.44230769230771C1300.1666666666667,68.70512820512822,1302.5833333333333,67.96794871794872,1305,67.23076923076923C1307.4166666666667,66.49358974358974,1309.8333333333333,65.75641025641026,1312.25,65.01923076923077C1314.6666666666667,64.28205128205128,1317.0833333333333,63.5448717948718,1319.5,62.807692307692314C1321.9166666666667,62.070512820512825,1324.3333333333333,61.333333333333336,1326.75,60.59615384615385C1329.1666666666667,59.85897435897436,1331.5833333333333,59.12179487179487,1334,58.38461538461538C1336.4166666666667,57.64743589743589,1338.8333333333333,56.910256410256416,1341.25,56.17307692307693C1343.6666666666667,55.43589743589744,1346.0833333333333,54.69871794871795,1348.5,53.96153846153846C1350.9166666666667,53.22435897435897,1353.3333333333333,52.48717948717948,1355.75,51.74999999999999C1358.1666666666667,51.012820512820504,1360.5833333333333,50.27564102564103,1363,49.53846153846154C1365.4166666666667,48.80128205128205,1367.8333333333333,48.06410256410256,1370.25,47.32692307692307C1372.6666666666667,46.589743589743584,1375.0833333333333,45.85256410256411,1377.5,45.11538461538462C1379.9166666666667,44.37820512820513,1382.3333333333333,43.64102564102564,1384.75,42.90384615384615C1387.1666666666667,42.166666666666664,1389.5833333333333,41.429487179487175,1392,40.692307692307686C1394.4166666666667,39.9551282051282,1396.8333333333333,39.21794871794872,1399.25,38.48076923076923C1401.6666666666667,37.743589743589745,1404.0833333333333,37.006410256410255,1406.5,36.26923076923077C1408.9166666666667,35.53205128205128,1411.3333333333333,34.79487179487179,1413.75,34.0576923076923C1416.1666666666667,33.32051282051281,1418.5833333333333,32.583333333333336,1421,31.846153846153847C1423.4166666666667,31.10897435897436,1425.8333333333333,30.371794871794865,1428.25,29.63461538461538C1430.6666666666667,28.897435897435894,1433.0833333333333,28.160256410256412,1435.5,27.423076923076927C1437.9166666666667,26.68589743589744,1440.3333333333333,25.948717948717963,1442.75,25.211538461538474C1445.1666666666667,24.474358974358985,1447.5833333333333,23.737179487179493,1450,22.999999999999996" fill="transparent" stroke-linecap="round" stroke="#B6509E" stroke-width="2"></path><path class="visx-linepath" d="M0,106.15384615380192C2.4166666666666665,106.14647435894855,4.833333333333334,106.1391025640952,7.25,106.13173076923077C9.666666666666666,106.12435897436634,12.083333333333334,106.11698717948718,14.5,106.10961538461538C16.916666666666668,106.10224358974358,19.333333333333332,106.09487179487178,21.75,106.08749999999999C24.166666666666668,106.0801282051282,26.583333333333332,106.0727564102564,29,106.06538461538462C31.416666666666668,106.05801282051283,33.833333333333336,106.05064102564103,36.25,106.04326923076924C38.666666666666664,106.03589743589745,41.083333333333336,106.02852564102565,43.5,106.02115384615385C45.91666666666667,106.01378205128205,48.333333333333336,106.00641025641026,50.75000000000001,105.99903846153846C53.16666666666667,105.99166666666666,55.583333333333336,105.98429487179487,58,105.97692307692307C60.416666666666664,105.96955128205127,62.833333333333336,105.96217948717947,65.25,105.95480769230768C67.66666666666667,105.9474358974359,70.08333333333333,105.94006410256411,72.5,105.93269230769232C74.91666666666667,105.92532051282053,77.33333333333333,105.91794871794873,79.75,105.91057692307693C82.16666666666667,105.90320512820513,84.58333333333333,105.89583333333334,87,105.88846153846154C89.41666666666667,105.88108974358974,91.83333333333333,105.87371794871795,94.25,105.86634615384615C96.66666666666667,105.85897435897435,99.08333333333334,105.85160256410256,101.50000000000001,105.84423076923076C103.91666666666667,105.83685897435898,106.33333333333334,105.82948717948717,108.75,105.82211538461539C111.16666666666667,105.8147435897436,113.58333333333333,105.8073717948718,116,105.80000000000001C118.41666666666667,105.79262820512821,120.83333333333334,105.78525641025642,123.25000000000001,105.77788461538462C125.66666666666667,105.77051282051282,128.08333333333334,105.76314102564103,130.5,105.75576923076923C132.91666666666666,105.74839743589743,135.33333333333334,105.74102564102564,137.75,105.73365384615384C140.16666666666666,105.72628205128204,142.58333333333334,105.71891025641024,145,105.71153846153845C147.41666666666666,105.70416666666667,149.83333333333334,105.69679487179486,152.25,105.68942307692308C154.66666666666666,105.68205128205129,157.08333333333334,105.67467948717949,159.5,105.6673076923077C161.91666666666666,105.65993589743591,164.33333333333334,105.65256410256411,166.75,105.64519230769231C169.16666666666666,105.63782051282051,171.58333333333334,105.63044871794872,174,105.62307692307692C176.41666666666666,105.61570512820512,178.83333333333334,105.60833333333333,181.25,105.60096153846153C183.66666666666666,105.59358974358973,186.08333333333334,105.58621794871793,188.5,105.57884615384614C190.91666666666666,105.57147435897436,193.33333333333334,105.56410256410255,195.75,105.55673076923077C198.16666666666669,105.54935897435897,200.58333333333334,105.54198717948718,203.00000000000003,105.53461538461538C205.41666666666669,105.52724358974359,207.83333333333331,105.51987179487179,210.24999999999997,105.5125C212.66666666666666,105.5051282051282,215.08333333333331,105.49775641025641,217.5,105.49038461538461C219.91666666666666,105.48301282051281,222.33333333333334,105.47564102564101,224.75,105.46826923076922C227.16666666666666,105.46089743589744,229.58333333333334,105.45352564102564,232,105.44615384615385C234.41666666666666,105.43878205128206,236.83333333333334,105.43141025641026,239.25,105.42403846153846C241.66666666666669,105.41666666666666,244.08333333333334,105.40929487179487,246.50000000000003,105.40192307692307C248.91666666666669,105.39455128205128,251.33333333333331,105.38717948717948,253.74999999999997,105.3798076923077C256.16666666666663,105.37243589743589,258.5833333333333,105.3650641025641,261,105.3576923076923C263.4166666666667,105.35032051282052,265.8333333333333,105.34294871794872,268.25,105.33557692307693C270.6666666666667,105.32820512820514,273.0833333333333,105.32083333333334,275.5,105.31346153846154C277.9166666666667,105.30608974358974,280.3333333333333,105.29871794871795,282.75,105.29134615384615C285.1666666666667,105.28397435897435,287.5833333333333,105.27660256410255,290,105.26923076923076C292.4166666666667,105.26185897435897,294.8333333333333,105.25448717948717,297.25,105.24711538461538C299.6666666666667,105.2397435897436,302.0833333333333,105.2323717948718,304.5,105.22500000000001C306.9166666666667,105.21762820512822,309.3333333333333,105.21025641025642,311.75,105.20288461538462C314.1666666666667,105.19551282051282,316.5833333333333,105.18814102564103,319,105.18076923076923C321.4166666666667,105.17339743589743,323.8333333333333,105.16602564102564,326.25,105.15865384615384C328.6666666666667,105.15128205128204,331.0833333333333,105.14391025641024,333.5,105.13653846153845C335.9166666666667,105.12916666666666,338.3333333333333,105.12179487179486,340.75,105.11442307692307C343.1666666666667,105.10705128205129,345.5833333333333,105.09967948717949,348,105.0923076923077C350.4166666666667,105.08493589743591,352.8333333333333,105.07756410256411,355.25,105.07019230769231C357.6666666666667,105.06282051282051,360.0833333333333,105.05544871794872,362.5,105.04807692307692C364.9166666666667,105.04070512820512,367.3333333333333,105.03333333333332,369.75,105.02596153846153C372.1666666666667,105.01858974358974,374.5833333333333,105.01121794871794,377,105.00384615384615C379.4166666666667,104.99647435897437,381.8333333333333,104.98910256410255,384.25,104.98173076923077C386.6666666666667,104.97435897435898,389.0833333333333,104.96698717948718,391.5,104.95961538461539C393.9166666666667,104.95224358974359,396.33333333333337,104.9448717948718,398.75000000000006,104.9375C401.16666666666674,104.9301282051282,403.58333333333337,104.92275641025641,406.00000000000006,104.91538461538461C408.4166666666667,104.90801282051282,410.8333333333333,104.90064102564102,413.24999999999994,104.89326923076923C415.66666666666663,104.88589743589743,418.08333333333326,104.87852564102565,420.49999999999994,104.87115384615385C422.91666666666663,104.86378205128204,425.3333333333333,104.85641025641026,427.75,104.84903846153846C430.1666666666667,104.84166666666667,432.5833333333333,104.83429487179487,435,104.82692307692308C437.4166666666667,104.8195512820513,439.8333333333333,104.81217948717948,442.25,104.80480769230769C444.6666666666667,104.7974358974359,447.0833333333333,104.7900641025641,449.5,104.78269230769232C451.9166666666667,104.77532051282053,454.3333333333333,104.76794871794873,456.75,104.76057692307693C459.1666666666667,104.75320512820512,461.5833333333333,104.74583333333334,464,104.73846153846154C466.4166666666667,104.73108974358973,468.8333333333333,104.72371794871793,471.25,104.71634615384615C473.6666666666667,104.70897435897436,476.0833333333333,104.70160256410256,478.5,104.69423076923077C480.9166666666667,104.68685897435898,483.33333333333337,104.6794871794872,485.75000000000006,104.6721153846154C488.16666666666674,104.66474358974361,490.58333333333337,104.6573717948718,493.00000000000006,104.65C495.4166666666667,104.6426282051282,497.8333333333333,104.63525641025642,500.24999999999994,104.62788461538462C502.66666666666663,104.62051282051281,505.08333333333326,104.61314102564103,507.49999999999994,104.60576923076923C509.91666666666663,104.59839743589743,512.3333333333333,104.59102564102564,514.75,104.58365384615384C517.1666666666666,104.57628205128205,519.5833333333334,104.56891025641025,522,104.56153846153846C524.4166666666666,104.55416666666667,526.8333333333334,104.54679487179487,529.25,104.53942307692309C531.6666666666666,104.5320512820513,534.0833333333334,104.5246794871795,536.5,104.5173076923077C538.9166666666666,104.5099358974359,541.3333333333334,104.50256410256411,543.75,104.4951923076923C546.1666666666666,104.4878205128205,548.5833333333334,104.4804487179487,551,104.47307692307692C553.4166666666666,104.46570512820513,555.8333333333334,104.45833333333333,558.25,104.45096153846154C560.6666666666666,104.44358974358975,563.0833333333334,104.43621794871794,565.5,104.42884615384615C567.9166666666666,104.42147435897436,570.3333333333334,104.41410256410256,572.75,104.40673076923078C575.1666666666666,104.39935897435899,577.5833333333334,104.39198717948719,580,104.38461538461539C582.4166666666666,104.37724358974359,584.8333333333334,104.36987179487178,587.25,104.3625C589.6666666666666,104.35512820512821,592.0833333333334,104.34775641025641,594.5,104.34038461538462C596.9166666666666,104.33301282051283,599.3333333333334,104.32564102564103,601.75,104.31826923076923C604.1666666666666,104.31089743589743,606.5833333333334,104.30352564102563,609,104.29615384615384C611.4166666666666,104.28878205128206,613.8333333333334,104.28141025641025,616.25,104.27403846153847C618.6666666666666,104.26666666666668,621.0833333333334,104.25929487179486,623.5,104.25192307692308C625.9166666666666,104.24455128205129,628.3333333333334,104.23717948717949,630.75,104.2298076923077C633.1666666666666,104.22243589743591,635.5833333333334,104.21506410256411,638,104.20769230769231C640.4166666666666,104.20032051282051,642.8333333333334,104.19294871794872,645.25,104.18557692307692C647.6666666666666,104.17820512820512,650.0833333333334,104.17083333333332,652.5,104.16346153846153C654.9166666666666,104.15608974358975,657.3333333333334,104.14871794871794,659.75,104.14134615384616C662.1666666666666,104.13397435897437,664.5833333333334,104.12660256410255,667,104.11923076923077C669.4166666666666,104.11185897435898,671.8333333333334,104.10448717948718,674.25,104.09711538461539C676.6666666666666,104.0897435897436,679.0833333333334,104.0823717948718,681.5,104.075C683.9166666666666,104.0676282051282,686.3333333333334,104.06025641025641,688.75,104.05288461538461C691.1666666666666,104.04551282051281,693.5833333333334,104.03814102564101,696,104.03076923076922C698.4166666666666,104.02339743589744,700.8333333333334,104.01602564102564,703.25,104.00865384615385C705.6666666666666,104.00128205128206,708.0833333333334,103.99391025641026,710.5,103.98653846153847C712.9166666666666,103.97916666666669,715.3333333333334,103.97179487179488,717.75,103.96442307692308C720.1666666666666,103.95705128205128,722.5833333333334,103.9496794871795,725,103.9423076923077C727.4166666666666,103.93493589743589,729.8333333333334,103.9275641025641,732.25,103.9201923076923C734.6666666666666,103.9128205128205,737.0833333333334,103.9054487179487,739.5,103.89807692307691C741.9166666666666,103.89070512820513,744.3333333333334,103.88333333333333,746.75,103.87596153846154C749.1666666666666,103.86858974358975,751.5833333333334,103.86121794871795,754,103.85384615384616C756.4166666666666,103.84647435897438,758.8333333333334,103.83910256410257,761.25,103.83173076923077C763.6666666666666,103.82435897435897,766.0833333333334,103.81698717948719,768.5,103.80961538461538C770.9166666666666,103.80224358974358,773.3333333333334,103.7948717948718,775.75,103.7875C778.1666666666666,103.7801282051282,780.5833333333334,103.77275641025639,783,103.7653846153846C785.4166666666667,103.7580128205128,787.8333333333334,103.75064102564102,790.2500000000001,103.74326923076923C792.6666666666667,103.73589743589744,795.0833333333335,103.72852564102564,797.5000000000001,103.72115384615385C799.9166666666667,103.71378205128207,802.3333333333335,103.70641025641027,804.7500000000001,103.69903846153846C807.1666666666667,103.69166666666666,809.5833333333335,103.68429487179488,812.0000000000001,103.67692307692307C814.4166666666667,103.66955128205127,816.8333333333333,103.66217948717947,819.2499999999999,103.65480769230768C821.6666666666665,103.64743589743588,824.0833333333333,103.6400641025641,826.4999999999999,103.63269230769231C828.9166666666665,103.62532051282052,831.3333333333333,103.6179487179487,833.7499999999999,103.61057692307692C836.1666666666665,103.60320512820513,838.5833333333333,103.59583333333333,840.9999999999999,103.58846153846154C843.4166666666666,103.58108974358974,845.8333333333333,103.57371794871796,848.25,103.56634615384615C850.6666666666666,103.55897435897435,853.0833333333334,103.55160256410255,855.5,103.54423076923077C857.9166666666666,103.53685897435898,860.3333333333334,103.52948717948718,862.75,103.52211538461539C865.1666666666666,103.5147435897436,867.5833333333334,103.5073717948718,870,103.5C872.4166666666666,103.4926282051282,874.8333333333334,103.4852564102564,877.25,103.47788461538461C879.6666666666666,103.47051282051282,882.0833333333334,103.46314102564102,884.5,103.45576923076923C886.9166666666666,103.44839743589745,889.3333333333334,103.44102564102563,891.75,103.43365384615385C894.1666666666666,103.42628205128206,896.5833333333334,103.41891025641026,899,103.41153846153847C901.4166666666666,103.40416666666668,903.8333333333334,103.39679487179488,906.25,103.38942307692308C908.6666666666666,103.38205128205128,911.0833333333334,103.37467948717949,913.5,103.36730769230769C915.9166666666666,103.35993589743589,918.3333333333334,103.35256410256409,920.75,103.3451923076923C923.1666666666666,103.33782051282051,925.5833333333334,103.33044871794871,928,103.32307692307693C930.4166666666666,103.31570512820514,932.8333333333334,103.30833333333334,935.25,103.30096153846155C937.6666666666666,103.29358974358976,940.0833333333334,103.28621794871796,942.5,103.27884615384616C944.9166666666666,103.27147435897436,947.3333333333334,103.26410256410257,949.75,103.25673076923077C952.1666666666666,103.24935897435897,954.5833333333334,103.24198717948718,957,103.23461538461538C959.4166666666666,103.22724358974358,961.8333333333334,103.21987179487179,964.25,103.21249999999999C966.6666666666667,103.20512820512819,969.0833333333334,103.19775641025639,971.5000000000001,103.1903846153846C973.9166666666667,103.18301282051281,976.3333333333335,103.17564102564103,978.7500000000001,103.16826923076924C981.1666666666667,103.16089743589745,983.5833333333335,103.15352564102565,986.0000000000001,103.14615384615385C988.4166666666667,103.13878205128205,990.8333333333335,103.13141025641026,993.2500000000001,103.12403846153846C995.6666666666667,103.11666666666666,998.0833333333333,103.10929487179487,1000.4999999999999,103.10192307692307C1002.9166666666665,103.09455128205127,1005.3333333333333,103.08717948717947,1007.7499999999999,103.07980769230768C1010.1666666666665,103.0724358974359,1012.5833333333333,103.0650641025641,1014.9999999999999,103.0576923076923C1017.4166666666665,103.05032051282052,1019.8333333333333,103.04294871794872,1022.2499999999999,103.03557692307693C1024.6666666666665,103.02820512820513,1027.0833333333333,103.02083333333334,1029.5,103.01346153846154C1031.9166666666667,103.00608974358974,1034.3333333333333,102.99871794871795,1036.75,102.99134615384615C1039.1666666666667,102.98397435897435,1041.5833333333333,102.97660256410256,1044,102.96923076923076C1046.4166666666667,102.96185897435896,1048.8333333333333,102.95448717948716,1051.25,102.94711538461537C1053.6666666666667,102.93974358974359,1056.0833333333333,102.93237179487178,1058.5,102.925C1060.9166666666667,102.91762820512821,1063.3333333333333,102.91025641025641,1065.75,102.90288461538462C1068.1666666666667,102.89551282051283,1070.5833333333333,102.88814102564103,1073,102.88076923076923C1075.4166666666667,102.87339743589743,1077.8333333333333,102.86602564102564,1080.25,102.85865384615384C1082.6666666666667,102.85128205128204,1085.0833333333333,102.84391025641024,1087.5,102.83653846153845C1089.9166666666667,102.82916666666667,1092.3333333333333,102.82179487179486,1094.75,102.81442307692308C1097.1666666666667,102.80705128205129,1099.5833333333333,102.79967948717949,1102,102.79230769230769C1104.4166666666667,102.78493589743589,1106.8333333333333,102.77756410256409,1109.25,102.7701923076923C1111.6666666666667,102.76282051282051,1114.0833333333333,102.75544871794871,1116.5,102.74807692307692C1118.9166666666667,102.74070512820514,1121.3333333333333,102.73333333333332,1123.75,102.72596153846153C1126.1666666666667,102.71858974358975,1128.5833333333333,102.71121794871794,1131,102.70384615384616C1133.4166666666667,102.69647435897437,1135.8333333333333,102.68910256410257,1138.25,102.68173076923077C1140.6666666666667,102.67435897435897,1143.0833333333333,102.66698717948718,1145.5,102.65961538461538C1147.9166666666667,102.65224358974358,1150.3333333333333,102.64487179487178,1152.75,102.63749999999999C1155.1666666666667,102.6301282051282,1157.5833333333333,102.6301282051282,1160,102.61538461538461C1162.4166666666667,102.60064102564102,1164.8333333333333,101.14102564102565,1167.25,100.40384615384616C1169.6666666666667,99.66666666666667,1172.0833333333333,98.92948717948718,1174.5,98.1923076923077C1176.9166666666667,97.4551282051282,1179.3333333333333,96.71794871794873,1181.75,95.98076923076924C1184.1666666666667,95.24358974358975,1186.5833333333333,94.50641025641026,1189,93.76923076923077C1191.4166666666667,93.03205128205128,1193.8333333333333,92.29487179487181,1196.25,91.55769230769232C1198.6666666666667,90.82051282051283,1201.0833333333333,90.08333333333334,1203.5,89.34615384615385C1205.9166666666667,88.60897435897436,1208.3333333333333,87.87179487179488,1210.75,87.13461538461539C1213.1666666666667,86.3974358974359,1215.5833333333333,85.66025641025642,1218,84.92307692307693C1220.4166666666667,84.18589743589745,1222.8333333333333,83.44871794871796,1225.25,82.71153846153847C1227.6666666666667,81.97435897435898,1230.0833333333333,81.23717948717949,1232.5,80.5C1234.9166666666667,79.76282051282051,1237.3333333333333,79.02564102564104,1239.75,78.28846153846155C1242.1666666666667,77.55128205128206,1244.5833333333333,76.81410256410257,1247,76.07692307692308C1249.4166666666667,75.33974358974359,1251.8333333333333,74.6025641025641,1254.25,73.86538461538461C1256.6666666666667,73.12820512820512,1259.0833333333333,72.39102564102565,1261.5,71.65384615384616C1263.9166666666667,70.91666666666667,1266.3333333333333,70.1794871794872,1268.75,69.44230769230771C1271.1666666666667,68.70512820512822,1273.5833333333333,67.96794871794872,1276,67.23076923076923C1278.4166666666667,66.49358974358974,1280.8333333333333,65.75641025641026,1283.25,65.01923076923077C1285.6666666666667,64.28205128205128,1288.0833333333333,63.5448717948718,1290.5,62.807692307692314C1292.9166666666667,62.070512820512825,1295.3333333333333,61.333333333333336,1297.75,60.59615384615385C1300.1666666666667,59.85897435897436,1302.5833333333333,59.12179487179487,1305,58.38461538461538C1307.4166666666667,57.64743589743589,1309.8333333333333,56.910256410256416,1312.25,56.17307692307693C1314.6666666666667,55.43589743589744,1317.0833333333333,54.69871794871795,1319.5,53.96153846153846C1321.9166666666667,53.22435897435897,1324.3333333333333,52.48717948717948,1326.75,51.74999999999999C1329.1666666666667,51.012820512820504,1331.5833333333333,50.27564102564103,1334,49.53846153846154C1336.4166666666667,48.80128205128205,1338.8333333333333,48.06410256410256,1341.25,47.32692307692307C1343.6666666666667,46.589743589743584,1346.0833333333333,45.85256410256411,1348.5,45.11538461538462C1350.9166666666667,44.37820512820513,1353.3333333333333,43.64102564102564,1355.75,42.90384615384615C1358.1666666666667,42.166666666666664,1360.5833333333333,41.429487179487175,1363,40.692307692307686C1365.4166666666667,39.9551282051282,1367.8333333333333,39.21794871794872,1370.25,38.48076923076923C1372.6666666666667,37.743589743589745,1375.0833333333333,37.006410256410255,1377.5,36.26923076923077C1379.9166666666667,35.53205128205128,1382.3333333333333,34.79487179487179,1384.75,34.0576923076923C1387.1666666666667,33.32051282051281,1389.5833333333333,32.583333333333336,1392,31.846153846153847C1394.4166666666667,31.10897435897436,1396.8333333333333,30.371794871794865,1399.25,29.63461538461538C1401.6666666666667,28.897435897435894,1404.0833333333333,28.160256410256412,1406.5,27.423076923076927C1408.9166666666667,26.68589743589744,1411.3333333333333,25.948717948717963,1413.75,25.211538461538474C1416.1666666666667,24.474358974358985,1418.5833333333333,23.737179487179485,1421,22.999999999999996C1423.4166666666667,22.262820512820507,1425.8333333333333,21.52564102564103,1428.25,20.78846153846154C1430.6666666666667,20.05128205128205,1433.0833333333333,19.314102564102548,1435.5,18.576923076923062C1437.9166666666667,17.839743589743577,1440.3333333333333,17.102564102564102,1442.75,16.36538461538462C1445.1666666666667,15.628205128205138,1447.5833333333333,14.891025641025653,1450,14.153846153846168" fill="transparent" stroke-linecap="round" stroke="#E7C6DF" stroke-width="2"></path><g class="visx-group visx-axis visx-axis-bottom" transform="translate(0, 115)"><g class="visx-group visx-axis-tick" transform="translate(0, 0)"><line class="visx-line" x1="0" y1="0" x2="0" y2="8" fill="transparent" shape-rendering="crispEdges" stroke="#000" stroke-width="0" stroke-linecap="square"></line><svg x="0" y="0" font-size="10" style="overflow:visible"><text transform="" x="0" y="18" fill="#000" font-size="10" text-anchor="middle"><tspan x="0" dy="0em">0%</tspan></text></svg></g><g class="visx-group visx-axis-tick" transform="translate(0, 0)"><line class="visx-line" x1="362.5" y1="0" x2="362.5" y2="8" fill="transparent" shape-rendering="crispEdges" stroke="#000" stroke-width="0" stroke-linecap="square"></line><svg x="0" y="0" font-size="10" style="overflow:visible"><text transform="" x="362.5" y="18" fill="#000" font-size="10" text-anchor="middle"><tspan x="362.5" dy="0em">25%</tspan></text></svg></g><g class="visx-group visx-axis-tick" transform="translate(0, 0)"><line class="visx-line" x1="725" y1="0" x2="725" y2="8" fill="transparent" shape-rendering="crispEdges" stroke="#000" stroke-width="0" stroke-linecap="square"></line><svg x="0" y="0" font-size="10" style="overflow:visible"><text transform="" x="725" y="18" fill="#000" font-size="10" text-anchor="middle"><tspan x="725" dy="0em">50%</tspan></text></svg></g><g class="visx-group visx-axis-tick" transform="translate(0, 0)"><line class="visx-line" x1="1087.5" y1="0" x2="1087.5" y2="8" fill="transparent" shape-rendering="crispEdges" stroke="#000" stroke-width="0" stroke-linecap="square"></line><svg x="0" y="0" font-size="10" style="overflow:visible"><text transform="" x="1087.5" y="18" fill="#000" font-size="10" text-anchor="middle"><tspan x="1087.5" dy="0em">75%</tspan></text></svg></g><g class="visx-group visx-axis-tick" transform="translate(0, 0)"><line class="visx-line" x1="1450" y1="0" x2="1450" y2="8" fill="transparent" shape-rendering="crispEdges" stroke="#000" stroke-width="0" stroke-linecap="square"></line><svg x="0" y="0" font-size="10" style="overflow:visible"><text transform="" x="1450" y="18" fill="#000" font-size="10" text-anchor="middle"><tspan x="1450" dy="0em">100%</tspan></text></svg></g><line class="visx-line visx-axis-line" x1="0.5" y1="0" x2="1450.5" y2="0" fill="transparent" shape-rendering="crispEdges" stroke="#222" stroke-width="0"></line></g><g class="visx-group visx-axis visx-axis-left" transform="translate(0, 0)"><g class="visx-group visx-axis-tick" transform="translate(0, 0)"><line class="visx-line" x1="0" y1="115" x2="-8" y2="115" fill="transparent" shape-rendering="crispEdges" stroke="#222" stroke-width="0" stroke-linecap="square"></line><svg x="-30" y="0" font-size="8" style="overflow:visible"><text transform="" x="-8" y="115" fill="#000" font-size="8" text-anchor="start"><tspan x="-8" dy="0em">0%</tspan></text></svg></g><g class="visx-group visx-axis-tick" transform="translate(0, 0)"><line class="visx-line" x1="0" y1="70.76923076923077" x2="-8" y2="70.76923076923077" fill="transparent" shape-rendering="crispEdges" stroke="#222" stroke-width="0" stroke-linecap="square"></line><svg x="-30" y="0" font-size="8" style="overflow:visible"><text transform="" x="-8" y="70.76923076923077" fill="#000" font-size="8" text-anchor="start"><tspan x="-8" dy="0em">50%</tspan></text></svg></g><g class="visx-group visx-axis-tick" transform="translate(0, 0)"><line class="visx-line" x1="0" y1="26.538461538461533" x2="-8" y2="26.538461538461533" fill="transparent" shape-rendering="crispEdges" stroke="#222" stroke-width="0" stroke-linecap="square"></line><svg x="-30" y="0" font-size="8" style="overflow:visible"><text transform="" x="-8" y="26.538461538461533" fill="#000" font-size="8" text-anchor="start"><tspan x="-8" dy="0em">100%</tspan></text></svg></g><line class="visx-line visx-axis-line" x1="0" y1="115.5" x2="0" y2="0.5" fill="transparent" shape-rendering="crispEdges" stroke="#222" stroke-width="0"></line></g><rect class="visx-bar" width="1450" height="115" fill="transparent"></rect><line class="visx-line" x1="1160" y1="28" x2="1160" y2="115" fill="transparent" shape-rendering="crispEdges" stroke="#0062D2" stroke-width="1" pointer-events="none" stroke-dasharray="5,2"></line><svg x="0" y="0" font-size="10px" style="overflow:visible"><text transform="" x="1160" y="20" font-size="10px" fill="#fff" stroke="#fff" stroke-width="0.8em" text-anchor="middle"><tspan x="1160" dy="0.355em">Optimal 80%</tspan></text></svg><svg x="0" y="0" font-size="10px" style="overflow:visible"><text transform="" x="1160" y="20" font-size="10px" fill="#62677B" text-anchor="middle"><tspan x="1160" dy="0.355em">Optimal 80%</tspan></text></svg></g></svg>