<?xml version="1.0"?><svg xmlns="http://www.w3.org/2000/svg" xmlns:xlink= "http://www.w3.org/1999/xlink" style="background: white;" width="1500" height="300"> <g style="color: black; font-size: 13px; font-family: sans-serif; transform: translate(18px, 25px);"><g><circle r="3" cx="-6" cy="-5" style="fill: #1AD4B3" /><text>Borrow APR, variable</text></g><g style="transform: translateX(150px);"><circle r="3" cx="-6" cy="-5" style="fill: #101423" /><text>Borrow APR, stable</text></g></g><g class="visx-group" transform="translate(45, 50)"><g class="visx-group visx-rows" transform="translate(0, 0)"><line class="visx-line" x1="0" y1="155" x2="1425" y2="155" fill="transparent" shape-rendering="crispEdges" stroke="#F2F0F9" stroke-width="1" pointer-events="none"></line><line class="visx-line" x1="0" y1="84.54545454545453" x2="1425" y2="84.54545454545453" fill="transparent" shape-rendering="crispEdges" stroke="#F2F0F9" stroke-width="1" pointer-events="none"></line><line class="visx-line" x1="0" y1="14.090909090909095" x2="1425" y2="14.090909090909095" fill="transparent" shape-rendering="crispEdges" stroke="#F2F0F9" stroke-width="1" pointer-events="none"></line></g><path class="visx-linepath" d="M0,154.99999999985027C2.375,154.9750473483975,4.75,154.95009469694475,7.125,154.92514204545455C9.5,154.90018939396435,11.875,154.87523674242425,14.25,154.8502840909091C16.625,154.82533143939395,19,154.80037878787877,21.375,154.77542613636362C23.75,154.75047348484847,26.125,154.72552083333332,28.5,154.70056818181817C30.875,154.67561553030302,33.25,154.65066287878787,35.625,154.62571022727272C38,154.60075757575757,40.375,154.57580492424242,42.75,154.55085227272727C45.125,154.52589962121212,47.50000000000001,154.50094696969697,49.87500000000001,154.47599431818182C52.25000000000001,154.45104166666667,54.625,154.42608901515152,57,154.40113636363637C59.375,154.37618371212122,61.75,154.35123106060604,64.125,154.3262784090909C66.5,154.30132575757574,68.875,154.2763731060606,71.25,154.25142045454544C73.625,154.2264678030303,76,154.20151515151514,78.375,154.1765625C80.75,154.15160984848484,83.125,154.12665719696972,85.5,154.10170454545457C87.875,154.07675189393942,90.25,154.05179924242424,92.625,154.0268465909091C95,154.00189393939394,97.37500000000001,153.9769412878788,99.75000000000001,153.95198863636364C102.12500000000001,153.9270359848485,104.5,153.90208333333334,106.875,153.8771306818182C109.25,153.85217803030304,111.625,153.8272253787879,114,153.80227272727274C116.375,153.7773200757576,118.75000000000001,153.75236742424244,121.12500000000001,153.7274147727273C123.50000000000001,153.70246212121214,125.875,153.677509469697,128.25,153.65255681818184C130.625,153.62760416666669,133,153.6026515151515,135.375,153.57769886363636C137.75,153.5527462121212,140.125,153.52779356060606,142.5,153.5028409090909C144.875,153.47788825757576,147.25,153.4529356060606,149.625,153.42798295454546C152,153.4030303030303,154.375,153.37807765151516,156.75,153.353125C159.125,153.32817234848486,161.5,153.3032196969697,163.875,153.27826704545456C166.25,153.2533143939394,168.625,153.22836174242423,171,153.20340909090908C173.375,153.17845643939393,175.75,153.15350378787878,178.125,153.12855113636363C180.5,153.10359848484848,182.875,153.07864583333333,185.25,153.05369318181818C187.625,153.02874053030303,190,153.00378787878788,192.375,152.97883522727273C194.75,152.95388257575758,197.12500000000003,152.92892992424242,199.50000000000003,152.90397727272727C201.875,152.87902462121212,204.25,152.85407196969697,206.62499999999997,152.82911931818182C208.99999999999997,152.80416666666667,211.375,152.7792140151515,213.75,152.75426136363635C216.125,152.7293087121212,218.5,152.70435606060605,220.875,152.6794034090909C223.25,152.65445075757575,225.625,152.6294981060606,228,152.60454545454544C230.375,152.5795928030303,232.75,152.55464015151514,235.125,152.5296875C237.5,152.50473484848484,239.87500000000003,152.4797821969697,242.25000000000003,152.45482954545454C244.625,152.4298768939394,247,152.40492424242424,249.37499999999997,152.3799715909091C251.74999999999997,152.35501893939394,254.125,152.3300662878788,256.5,152.30511363636364C258.875,152.2801609848485,261.25,152.25520833333334,263.625,152.2302556818182C266,152.20530303030304,268.375,152.1803503787879,270.75,152.15539772727274C273.125,152.1304450757576,275.5,152.10549242424244,277.875,152.0805397727273C280.25,152.05558712121214,282.625,152.03063446969696,285,152.0056818181818C287.375,151.98072916666666,289.75,151.9557765151515,292.125,151.93082386363636C294.5,151.9058712121212,296.875,151.88091856060606,299.25,151.8559659090909C301.625,151.83101325757576,304,151.8060606060606,306.375,151.78110795454546C308.75,151.7561553030303,311.125,151.73120265151516,313.5,151.70625C315.875,151.68129734848486,318.25,151.65634469696968,320.625,151.63139204545453C323,151.60643939393938,325.375,151.58148674242423,327.75,151.55653409090908C330.125,151.53158143939393,332.5,151.50662878787878,334.875,151.48167613636363C337.25,151.45672348484848,339.625,151.43177083333333,342,151.40681818181818C344.375,151.38186553030303,346.75,151.35691287878788,349.125,151.33196022727273C351.5,151.30700757575758,353.875,151.28205492424243,356.25,151.25710227272728C358.625,151.23214962121213,361,151.20719696969695,363.375,151.1822443181818C365.75,151.15729166666665,368.125,151.1323390151515,370.5,151.10738636363635C372.875,151.0824337121212,375.25,151.05748106060605,377.625,151.0325284090909C380,151.00757575757575,382.375,150.9826231060606,384.75,150.95767045454545C387.125,150.9327178030303,389.50000000000006,150.90776515151515,391.87500000000006,150.8828125C394.25000000000006,150.85785984848485,396.62500000000006,150.8329071969697,399.00000000000006,150.80795454545455C401.375,150.7830018939394,403.75,150.75804924242422,406.12499999999994,150.73309659090907C408.49999999999994,150.70814393939392,410.87499999999994,150.6831912878788,413.24999999999994,150.65823863636365C415.62499999999994,150.6332859848485,418,150.60833333333335,420.375,150.5833806818182C422.75,150.55842803030305,425.125,150.5334753787879,427.5,150.50852272727275C429.875,150.4835700757576,432.25,150.45861742424242,434.625,150.43366477272727C437,150.40871212121212,439.375,150.38375946969697,441.75,150.35880681818182C444.125,150.33385416666667,446.5,150.30890151515152,448.875,150.28394886363637C451.25,150.25899621212122,453.625,150.23404356060607,456,150.20909090909092C458.375,150.18413825757577,460.75,150.15918560606062,463.125,150.13423295454547C465.5,150.10928030303032,467.875,150.08432765151514,470.25,150.059375C472.625,150.03442234848484,475.00000000000006,150.0094696969697,477.37500000000006,149.98451704545454C479.75000000000006,149.9595643939394,482.12500000000006,149.93461174242424,484.50000000000006,149.9096590909091C486.875,149.88470643939394,489.25,149.8597537878788,491.62499999999994,149.83480113636364C493.99999999999994,149.8098484848485,496.37499999999994,149.78489583333334,498.74999999999994,149.7599431818182C501.12499999999994,149.73499053030304,503.5,149.7100378787879,505.875,149.68508522727274C508.25,149.6601325757576,510.625,149.6351799242424,513,149.61022727272726C515.375,149.5852746212121,517.75,149.56032196969696,520.125,149.5353693181818C522.5,149.51041666666666,524.875,149.4854640151515,527.25,149.46051136363636C529.625,149.4355587121212,532,149.41060606060606,534.375,149.3856534090909C536.75,149.36070075757576,539.125,149.3357481060606,541.5,149.31079545454546C543.875,149.2858428030303,546.25,149.26089015151516,548.625,149.2359375C551,149.21098484848486,553.375,149.18603219696968,555.75,149.16107954545453C558.125,149.13612689393938,560.5,149.11117424242423,562.875,149.08622159090908C565.25,149.06126893939393,567.625,149.0363162878788,570,149.01136363636365C572.375,148.9864109848485,574.75,148.96145833333333,577.125,148.93650568181818C579.5,148.91155303030303,581.875,148.88660037878788,584.25,148.86164772727273C586.625,148.83669507575758,589,148.81174242424242,591.375,148.78678977272727C593.75,148.76183712121212,596.125,148.73688446969697,598.5,148.71193181818182C600.875,148.68697916666667,603.25,148.66202651515152,605.625,148.63707386363637C608,148.61212121212122,610.375,148.58716856060607,612.75,148.56221590909092C615.125,148.53726325757577,617.5,148.5123106060606,619.875,148.48735795454544C622.25,148.4624053030303,624.625,148.43745265151514,627,148.4125C629.375,148.38754734848484,631.75,148.3625946969697,634.125,148.33764204545454C636.5,148.3126893939394,638.875,148.28773674242424,641.25,148.2627840909091C643.625,148.23783143939394,646,148.2128787878788,648.375,148.18792613636364C650.75,148.1629734848485,653.125,148.13802083333334,655.5,148.1130681818182C657.875,148.08811553030304,660.25,148.06316287878786,662.625,148.0382102272727C665,148.01325757575756,667.375,147.9883049242424,669.75,147.96335227272726C672.125,147.9383996212121,674.5,147.91344696969696,676.875,147.8884943181818C679.25,147.86354166666666,681.625,147.8385890151515,684,147.81363636363636C686.375,147.7886837121212,688.75,147.76373106060606,691.125,147.7387784090909C693.5,147.71382575757576,695.875,147.6888731060606,698.25,147.66392045454546C700.625,147.6389678030303,703,147.61401515151513,705.375,147.58906249999998C707.75,147.56410984848483,710.125,147.53915719696968,712.5,147.51420454545453C714.875,147.48925189393938,717.25,147.46429924242423,719.625,147.43934659090908C722,147.41439393939393,724.375,147.38944128787878,726.75,147.36448863636363C729.125,147.33953598484848,731.5,147.31458333333333,733.875,147.28963068181818C736.25,147.26467803030303,738.625,147.23972537878788,741,147.21477272727273C743.375,147.18982007575758,745.75,147.16486742424243,748.125,147.13991477272728C750.5,147.11496212121213,752.875,147.09000946969698,755.25,147.06505681818183C757.625,147.04010416666668,760,147.01515151515153,762.375,146.99019886363638C764.75,146.96524621212123,767.125,146.94029356060605,769.5,146.9153409090909C771.875,146.89038825757575,774.2500000000001,146.8654356060606,776.6250000000001,146.84048295454545C779.0000000000001,146.8155303030303,781.3750000000001,146.79057765151515,783.7500000000001,146.765625C786.1250000000001,146.74067234848485,788.5000000000001,146.7157196969697,790.8750000000001,146.69076704545455C793.2500000000001,146.6658143939394,795.6250000000001,146.64086174242425,798.0000000000001,146.6159090909091C800.375,146.59095643939395,802.75,146.5660037878788,805.1249999999999,146.54105113636365C807.4999999999999,146.5160984848485,809.8749999999999,146.49114583333332,812.2499999999999,146.46619318181817C814.6249999999999,146.44124053030302,816.9999999999999,146.41628787878787,819.3749999999999,146.39133522727272C821.7499999999999,146.36638257575757,824.1249999999999,146.34142992424242,826.4999999999999,146.31647727272727C828.8749999999999,146.29152462121212,831.25,146.26657196969697,833.625,146.24161931818182C836,146.21666666666667,838.375,146.19171401515152,840.75,146.16676136363637C843.125,146.14180871212122,845.5,146.11685606060607,847.875,146.09190340909092C850.25,146.06695075757577,852.625,146.0419981060606,855,146.01704545454544C857.375,145.9920928030303,859.75,145.96714015151514,862.125,145.9421875C864.5,145.91723484848484,866.875,145.8922821969697,869.25,145.86732954545454C871.625,145.8423768939394,874,145.81742424242424,876.375,145.7924715909091C878.75,145.76751893939394,881.125,145.7425662878788,883.5,145.71761363636364C885.875,145.6926609848485,888.25,145.66770833333334,890.625,145.6427556818182C893,145.61780303030304,895.375,145.5928503787879,897.75,145.56789772727274C900.125,145.5429450757576,902.5,145.51799242424244,904.875,145.4930397727273C907.25,145.46808712121214,909.625,145.443134469697,912,145.41818181818184C914.375,145.39322916666669,916.75,145.3682765151515,919.125,145.34332386363636C921.5,145.3183712121212,923.875,145.29341856060606,926.25,145.2684659090909C928.625,145.24351325757576,931,145.2185606060606,933.375,145.19360795454546C935.75,145.1686553030303,938.125,145.14370265151516,940.5,145.11875C942.875,145.09379734848486,945.25,145.0688446969697,947.625,145.04389204545456C950,145.0189393939394,952.3750000000001,144.99398674242425,954.7500000000001,144.9690340909091C957.1250000000001,144.94408143939395,959.5000000000001,144.91912878787878,961.8750000000001,144.89417613636363C964.2500000000001,144.86922348484848,966.6250000000001,144.84427083333333,969.0000000000001,144.81931818181818C971.3750000000001,144.79436553030303,973.7500000000001,144.76941287878788,976.1250000000001,144.74446022727273C978.5,144.71950757575758,980.875,144.69455492424242,983.2499999999999,144.66960227272727C985.6249999999999,144.64464962121212,987.9999999999999,144.61969696969697,990.3749999999999,144.59474431818182C992.7499999999999,144.56979166666667,995.1249999999999,144.54483901515152,997.4999999999999,144.51988636363637C999.8749999999999,144.49493371212122,1002.2499999999999,144.46998106060605,1004.6249999999999,144.4450284090909C1006.9999999999999,144.42007575757575,1009.375,144.3951231060606,1011.75,144.37017045454544C1014.125,144.3452178030303,1016.5,144.32026515151514,1018.875,144.2953125C1021.25,144.27035984848484,1023.625,144.2454071969697,1026,144.22045454545454C1028.375,144.1955018939394,1030.75,144.17054924242424,1033.125,144.1455965909091C1035.5,144.12064393939394,1037.875,144.0956912878788,1040.25,144.07073863636364C1042.625,144.0457859848485,1045,144.02083333333331,1047.375,143.99588068181816C1049.75,143.970928030303,1052.125,143.94597537878786,1054.5,143.9210227272727C1056.875,143.89607007575756,1059.25,143.8711174242424,1061.625,143.84616477272726C1064,143.8212121212121,1066.375,143.79625946969696,1068.75,143.7713068181818C1071.125,143.74635416666666,1073.5,143.7214015151515,1075.875,143.69644886363636C1078.25,143.6714962121212,1080.625,143.64654356060606,1083,143.6215909090909C1085.375,143.59663825757576,1087.75,143.5716856060606,1090.125,143.54673295454546C1092.5,143.5217803030303,1094.875,143.49682765151516,1097.25,143.471875C1099.625,143.44692234848486,1102,143.4219696969697,1104.375,143.39701704545456C1106.75,143.3720643939394,1109.125,143.34711174242423,1111.5,143.32215909090908C1113.875,143.29720643939393,1116.25,143.27225378787878,1118.625,143.24730113636363C1121,143.22234848484848,1123.375,143.19739583333333,1125.75,143.17244318181818C1128.125,143.14749053030303,1130.5,143.12253787878788,1132.875,143.09758522727273C1135.25,143.07263257575758,1137.625,143.07263257575758,1140,143.02272727272728C1142.375,142.97282196969698,1144.75,140.97954545454547,1147.125,139.95795454545456C1149.5,138.93636363636364,1151.875,137.91477272727275,1154.25,136.89318181818183C1156.625,135.8715909090909,1159,134.85,1161.375,133.82840909090908C1163.75,132.80681818181816,1166.125,131.78522727272727,1168.5,130.76363636363635C1170.875,129.74204545454543,1173.25,128.72045454545454,1175.625,127.69886363636364C1178,126.67727272727274,1180.375,125.65568181818182,1182.75,124.6340909090909C1185.125,123.61249999999998,1187.5,122.59090909090908,1189.875,121.56931818181818C1192.25,120.54772727272727,1194.625,119.52613636363635,1197,118.50454545454545C1199.375,117.48295454545455,1201.75,116.46136363636363,1204.125,115.43977272727273C1206.5,114.41818181818182,1208.875,113.3965909090909,1211.25,112.375C1213.625,111.3534090909091,1216,110.33181818181819,1218.375,109.31022727272729C1220.75,108.28863636363639,1223.125,107.26704545454548,1225.5,106.24545454545456C1227.875,105.22386363636365,1230.25,104.20227272727273,1232.625,103.18068181818181C1235,102.15909090909089,1237.375,101.13749999999999,1239.75,100.11590909090908C1242.125,99.09431818181818,1244.5,98.07272727272728,1246.875,97.05113636363637C1249.25,96.02954545454547,1251.625,95.00795454545457,1254,93.98636363636365C1256.375,92.96477272727273,1258.75,91.94318181818181,1261.125,90.92159090909091C1263.5,89.9,1265.875,88.87840909090912,1268.25,87.8568181818182C1270.625,86.83522727272728,1273,85.81363636363636,1275.375,84.79204545454544C1277.75,83.77045454545453,1280.125,82.74886363636364,1282.5,81.72727272727273C1284.875,80.70568181818183,1287.25,79.68409090909091,1289.625,78.66250000000001C1292,77.6409090909091,1294.375,76.61931818181819,1296.75,75.59772727272727C1299.125,74.57613636363635,1301.5,73.55454545454545,1303.875,72.53295454545454C1306.25,71.51136363636364,1308.625,70.48977272727274,1311,69.46818181818183C1313.375,68.44659090909093,1315.75,67.42500000000001,1318.125,66.4034090909091C1320.5,65.38181818181818,1322.875,64.36022727272727,1325.25,63.33863636363637C1327.625,62.31704545454546,1330,61.295454545454554,1332.375,60.27386363636364C1334.75,59.25227272727273,1337.125,58.23068181818183,1339.5,57.20909090909092C1341.875,56.18750000000001,1344.25,55.16590909090908,1346.625,54.14431818181817C1349,53.12272727272726,1351.375,52.101136363636364,1353.75,51.07954545454546C1356.125,50.05795454545456,1358.5,49.036363636363646,1360.875,48.014772727272735C1363.25,46.993181818181824,1365.625,45.9715909090909,1368,44.94999999999999C1370.375,43.92840909090908,1372.75,42.90681818181819,1375.125,41.88522727272728C1377.5,40.86363636363637,1379.875,39.84204545454544,1382.25,38.82045454545453C1384.625,37.79886363636362,1387,36.777272727272724,1389.375,35.75568181818182C1391.75,34.73409090909092,1394.125,33.712500000000006,1396.5,32.690909090909095C1398.875,31.669318181818184,1401.25,30.647727272727256,1403.625,29.62613636363635C1406,28.60454545454544,1408.375,27.582954545454562,1410.75,26.561363636363655C1413.125,25.539772727272748,1415.5,24.518181818181823,1417.875,23.496590909090912C1420.25,22.475,1422.625,21.45340909090909,1425,20.431818181818183" fill="transparent" stroke-linecap="round" stroke="#1AD4B3" stroke-width="2"></path><g class="visx-group visx-axis visx-axis-bottom" transform="translate(0, 155)"><g class="visx-group visx-axis-tick" transform="translate(0, 0)"><line class="visx-line" x1="0" y1="0" x2="0" y2="8" fill="transparent" shape-rendering="crispEdges" stroke="#F2F0F9" stroke-width="1" stroke-linecap="square"></line><svg x="0" y="0" font-size="11" style="overflow:visible"><text transform="" x="0" y="19" fill="#1B2030" font-size="11" text-anchor="middle"><tspan x="0" dy="0em">0%</tspan></text></svg></g><g class="visx-group visx-axis-tick" transform="translate(0, 0)"><line class="visx-line" x1="356.25" y1="0" x2="356.25" y2="8" fill="transparent" shape-rendering="crispEdges" stroke="#F2F0F9" stroke-width="1" stroke-linecap="square"></line><svg x="0" y="0" font-size="11" style="overflow:visible"><text transform="" x="356.25" y="19" fill="#1B2030" font-size="11" text-anchor="middle"><tspan x="356.25" dy="0em">25%</tspan></text></svg></g><g class="visx-group visx-axis-tick" transform="translate(0, 0)"><line class="visx-line" x1="712.5" y1="0" x2="712.5" y2="8" fill="transparent" shape-rendering="crispEdges" stroke="#F2F0F9" stroke-width="1" stroke-linecap="square"></line><svg x="0" y="0" font-size="11" style="overflow:visible"><text transform="" x="712.5" y="19" fill="#1B2030" font-size="11" text-anchor="middle"><tspan x="712.5" dy="0em">50%</tspan></text></svg></g><g class="visx-group visx-axis-tick" transform="translate(0, 0)"><line class="visx-line" x1="1068.75" y1="0" x2="1068.75" y2="8" fill="transparent" shape-rendering="crispEdges" stroke="#F2F0F9" stroke-width="1" stroke-linecap="square"></line><svg x="0" y="0" font-size="11" style="overflow:visible"><text transform="" x="1068.75" y="19" fill="#1B2030" font-size="11" text-anchor="middle"><tspan x="1068.75" dy="0em">75%</tspan></text></svg></g><g class="visx-group visx-axis-tick" transform="translate(0, 0)"><line class="visx-line" x1="1425" y1="0" x2="1425" y2="8" fill="transparent" shape-rendering="crispEdges" stroke="#F2F0F9" stroke-width="1" stroke-linecap="square"></line><svg x="0" y="0" font-size="11" style="overflow:visible"><text transform="" x="1425" y="19" fill="#1B2030" font-size="11" text-anchor="middle"><tspan x="1425" dy="0em">100%</tspan></text></svg></g></g><g class="visx-group visx-axis visx-axis-left" transform="translate(0, 0)"><g class="visx-group visx-axis-tick" transform="translate(0, 0)"><line class="visx-line" x1="0" y1="155" x2="-8" y2="155" fill="transparent" shape-rendering="crispEdges" stroke="#F2F0F9" stroke-width="1" stroke-linecap="square"></line><svg x="-30" y="0" font-size="11" style="overflow:visible"><text transform="" x="-8" y="155" fill="#1B2030" font-size="11" text-anchor="start"><tspan x="-8" dy="0em">0%</tspan></text></svg></g><g class="visx-group visx-axis-tick" transform="translate(0, 0)"><line class="visx-line" x1="0" y1="84.54545454545453" x2="-8" y2="84.54545454545453" fill="transparent" shape-rendering="crispEdges" stroke="#F2F0F9" stroke-width="1" stroke-linecap="square"></line><svg x="-30" y="0" font-size="11" style="overflow:visible"><text transform="" x="-8" y="84.54545454545453" fill="#1B2030" font-size="11" text-anchor="start"><tspan x="-8" dy="0em">50%</tspan></text></svg></g><g class="visx-group visx-axis-tick" transform="translate(0, 0)"><line class="visx-line" x1="0" y1="14.090909090909095" x2="-8" y2="14.090909090909095" fill="transparent" shape-rendering="crispEdges" stroke="#F2F0F9" stroke-width="1" stroke-linecap="square"></line><svg x="-30" y="0" font-size="11" style="overflow:visible"><text transform="" x="-8" y="14.090909090909095" fill="#1B2030" font-size="11" text-anchor="start"><tspan x="-8" dy="0em">100%</tspan></text></svg></g><line class="visx-line visx-axis-line" x1="0" y1="155.5" x2="0" y2="0.5" fill="transparent" shape-rendering="crispEdges" stroke="#F2F0F9" stroke-width="1"></line></g><rect class="visx-bar" width="1425" height="155" fill="transparent"></rect><line class="visx-line" x1="1140" y1="58" x2="1140" y2="155" fill="transparent" shape-rendering="crispEdges" stroke="#CDC8E1" stroke-width="1" pointer-events="none" stroke-dasharray="5"></line><svg x="0" y="0" font-size="11px" style="overflow:visible"><text transform="" x="1140" y="50" font-size="11px" fill="#555069" stroke="#FFFFFF" stroke-width="1px" text-anchor="middle"><tspan x="1140" dy="0.355em">Optimal utilization 80%</tspan></text></svg><svg x="0" y="0" font-size="11px" style="overflow:visible"><text transform="" x="1140" y="50" font-size="11px" fill="#CDC8E1" text-anchor="middle"><tspan x="1140" dy="0.355em">Optimal utilization 80%</tspan></text></svg></g></svg>