<?xml version="1.0"?><svg xmlns="http://www.w3.org/2000/svg" xmlns:xlink= "http://www.w3.org/1999/xlink" style="background: white;" width="1500" height="185"> <g style="color: black; font-size: 13px; font-family: sans-serif; transform: translate(18px, 25px);"><g><circle r="3" cx="-6" cy="-5" style="fill: #B6509E" /><text>Borrow APR, variable</text></g><g style="transform: translateX(150px);"><circle r="3" cx="-6" cy="-5" style="fill: rgb(231, 198, 223)" /><text>Borrow APR, stable</text></g><g style="transform: translateX(290px);"><circle r="3" cx="-6" cy="-5" style="fill: rgb(0, 98, 210)" /><text>Utilization Rate</text></g></g><g class="visx-group" transform="translate(40, 50)"><g class="visx-group visx-rows" transform="translate(0, 0)"><line class="visx-line" x1="0" y1="115" x2="1450" y2="115" fill="transparent" shape-rendering="crispEdges" stroke="#000" stroke-width="1" stroke-dasharray="3,3" pointer-events="none"></line><line class="visx-line" x1="0" y1="86.25" x2="1450" y2="86.25" fill="transparent" shape-rendering="crispEdges" stroke="#000" stroke-width="1" stroke-dasharray="3,3" pointer-events="none"></line><line class="visx-line" x1="0" y1="57.5" x2="1450" y2="57.5" fill="transparent" shape-rendering="crispEdges" stroke="#000" stroke-width="1" stroke-dasharray="3,3" pointer-events="none"></line><line class="visx-line" x1="0" y1="28.75" x2="1450" y2="28.75" fill="transparent" shape-rendering="crispEdges" stroke="#000" stroke-width="1" stroke-dasharray="3,3" pointer-events="none"></line><line class="visx-line" x1="0" y1="0" x2="1450" y2="0" fill="transparent" shape-rendering="crispEdges" stroke="#000" stroke-width="1" stroke-dasharray="3,3" pointer-events="none"></line></g><path class="visx-linepath" d="M0,114.99999999990416C2.4166666666666665,114.98402777772188,4.833333333333334,114.96805555553958,7.25,114.95208333333333C9.666666666666666,114.93611111112709,12.083333333333334,114.92013888888889,14.5,114.90416666666667C16.916666666666668,114.88819444444445,19.333333333333332,114.87222222222222,21.75,114.85625C24.166666666666668,114.84027777777779,26.583333333333332,114.82430555555554,29,114.80833333333332C31.416666666666668,114.7923611111111,33.833333333333336,114.77638888888889,36.25,114.76041666666667C38.666666666666664,114.74444444444445,41.083333333333336,114.72847222222222,43.5,114.7125C45.91666666666667,114.69652777777777,48.333333333333336,114.68055555555554,50.75000000000001,114.66458333333333C53.16666666666667,114.64861111111111,55.583333333333336,114.63263888888889,58,114.61666666666667C60.416666666666664,114.60069444444446,62.833333333333336,114.58472222222221,65.25,114.56875C67.66666666666667,114.55277777777778,70.08333333333333,114.53680555555555,72.5,114.52083333333333C74.91666666666667,114.50486111111111,77.33333333333333,114.48888888888888,79.75,114.47291666666666C82.16666666666667,114.45694444444445,84.58333333333333,114.44097222222221,87,114.425C89.41666666666667,114.40902777777778,91.83333333333333,114.39305555555555,94.25,114.37708333333333C96.66666666666667,114.36111111111111,99.08333333333334,114.34513888888888,101.50000000000001,114.32916666666667C103.91666666666667,114.31319444444445,106.33333333333334,114.29722222222222,108.75,114.28125C111.16666666666667,114.26527777777778,113.58333333333333,114.24930555555555,116,114.23333333333333C118.41666666666667,114.21736111111112,120.83333333333334,114.20138888888889,123.25000000000001,114.18541666666667C125.66666666666667,114.16944444444445,128.08333333333334,114.15347222222222,130.5,114.1375C132.91666666666666,114.12152777777779,135.33333333333334,114.10555555555555,137.75,114.08958333333334C140.16666666666666,114.07361111111112,142.58333333333334,114.05763888888889,145,114.04166666666667C147.41666666666666,114.02569444444445,149.83333333333334,114.00972222222221,152.25,113.99374999999999C154.66666666666666,113.97777777777777,157.08333333333334,113.96180555555556,159.5,113.94583333333334C161.91666666666666,113.92986111111112,164.33333333333334,113.91388888888889,166.75,113.89791666666667C169.16666666666666,113.88194444444446,171.58333333333334,113.86597222222221,174,113.85C176.41666666666666,113.83402777777778,178.83333333333334,113.81805555555556,181.25,113.80208333333334C183.66666666666666,113.78611111111113,186.08333333333334,113.77013888888888,188.5,113.75416666666666C190.91666666666666,113.73819444444445,193.33333333333334,113.72222222222221,195.75,113.70625C198.16666666666669,113.69027777777778,200.58333333333334,113.67430555555555,203.00000000000003,113.65833333333333C205.41666666666669,113.64236111111111,207.83333333333331,113.62638888888888,210.24999999999997,113.61041666666667C212.66666666666666,113.59444444444445,215.08333333333331,113.57847222222222,217.5,113.5625C219.91666666666666,113.54652777777778,222.33333333333334,113.53055555555555,224.75,113.51458333333333C227.16666666666666,113.49861111111112,229.58333333333334,113.48263888888889,232,113.46666666666667C234.41666666666666,113.45069444444445,236.83333333333334,113.4347222222222,239.25,113.41874999999999C241.66666666666669,113.40277777777777,244.08333333333334,113.38680555555555,246.50000000000003,113.37083333333334C248.91666666666669,113.35486111111112,251.33333333333331,113.33888888888889,253.74999999999997,113.32291666666667C256.16666666666663,113.30694444444444,258.5833333333333,113.29097222222221,261,113.27499999999999C263.4166666666667,113.25902777777777,265.8333333333333,113.24305555555556,268.25,113.22708333333334C270.6666666666667,113.21111111111112,273.0833333333333,113.19513888888888,275.5,113.17916666666666C277.9166666666667,113.16319444444444,280.3333333333333,113.14722222222223,282.75,113.13125000000001C285.1666666666667,113.11527777777779,287.5833333333333,113.09930555555555,290,113.08333333333333C292.4166666666667,113.06736111111111,294.8333333333333,113.05138888888888,297.25,113.03541666666666C299.6666666666667,113.01944444444445,302.0833333333333,113.00347222222223,304.5,112.98750000000001C306.9166666666667,112.9715277777778,309.3333333333333,112.95555555555555,311.75,112.93958333333333C314.1666666666667,112.92361111111111,316.5833333333333,112.90763888888888,319,112.89166666666667C321.4166666666667,112.87569444444445,323.8333333333333,112.85972222222222,326.25,112.84375C328.6666666666667,112.82777777777778,331.0833333333333,112.81180555555555,333.5,112.79583333333333C335.9166666666667,112.77986111111112,338.3333333333333,112.76388888888889,340.75,112.74791666666667C343.1666666666667,112.73194444444445,345.5833333333333,112.71597222222222,348,112.7C350.4166666666667,112.68402777777779,352.8333333333333,112.66805555555555,355.25,112.65208333333334C357.6666666666667,112.63611111111112,360.0833333333333,112.62013888888887,362.5,112.60416666666666C364.9166666666667,112.58819444444444,367.3333333333333,112.57222222222222,369.75,112.55625C372.1666666666667,112.54027777777779,374.5833333333333,112.52430555555556,377,112.50833333333334C379.4166666666667,112.49236111111112,381.8333333333333,112.47638888888888,384.25,112.46041666666666C386.6666666666667,112.44444444444444,389.0833333333333,112.42847222222223,391.5,112.41250000000001C393.9166666666667,112.39652777777779,396.33333333333337,112.38055555555556,398.75000000000006,112.36458333333333C401.16666666666674,112.34861111111111,403.58333333333337,112.33263888888888,406.00000000000006,112.31666666666666C408.4166666666667,112.30069444444445,410.8333333333333,112.28472222222221,413.24999999999994,112.26875C415.66666666666663,112.25277777777778,418.08333333333326,112.23680555555555,420.49999999999994,112.22083333333333C422.91666666666663,112.20486111111111,425.3333333333333,112.18888888888888,427.75,112.17291666666667C430.1666666666667,112.15694444444445,432.5833333333333,112.14097222222222,435,112.125C437.4166666666667,112.10902777777778,439.8333333333333,112.09305555555555,442.25,112.07708333333333C444.6666666666667,112.06111111111112,447.0833333333333,112.04513888888889,449.5,112.02916666666667C451.9166666666667,112.01319444444445,454.3333333333333,111.99722222222222,456.75,111.98125C459.1666666666667,111.96527777777779,461.5833333333333,111.94930555555555,464,111.93333333333334C466.4166666666667,111.91736111111112,468.8333333333333,111.90138888888889,471.25,111.88541666666667C473.6666666666667,111.86944444444445,476.0833333333333,111.85347222222222,478.5,111.8375C480.9166666666667,111.82152777777777,483.33333333333337,111.80555555555554,485.75000000000006,111.78958333333333C488.16666666666674,111.77361111111111,490.58333333333337,111.75763888888889,493.00000000000006,111.74166666666667C495.4166666666667,111.72569444444446,497.8333333333333,111.70972222222221,500.24999999999994,111.69375C502.66666666666663,111.67777777777776,505.08333333333326,111.66180555555555,507.49999999999994,111.64583333333333C509.91666666666663,111.62986111111111,512.3333333333333,111.6138888888889,514.75,111.59791666666668C517.1666666666666,111.58194444444446,519.5833333333334,111.56597222222221,522,111.55C524.4166666666666,111.53402777777778,526.8333333333334,111.51805555555555,529.25,111.50208333333333C531.6666666666666,111.48611111111111,534.0833333333334,111.47013888888888,536.5,111.45416666666667C538.9166666666666,111.43819444444445,541.3333333333334,111.42222222222222,543.75,111.40625C546.1666666666666,111.39027777777778,548.5833333333334,111.37430555555555,551,111.35833333333333C553.4166666666666,111.34236111111112,555.8333333333334,111.32638888888889,558.25,111.31041666666667C560.6666666666666,111.29444444444445,563.0833333333334,111.27847222222222,565.5,111.2625C567.9166666666666,111.24652777777779,570.3333333333334,111.23055555555554,572.75,111.21458333333332C575.1666666666666,111.1986111111111,577.5833333333334,111.18263888888889,580,111.16666666666667C582.4166666666666,111.15069444444445,584.8333333333334,111.13472222222222,587.25,111.11875C589.6666666666666,111.10277777777779,592.0833333333334,111.08680555555554,594.5,111.07083333333333C596.9166666666666,111.05486111111111,599.3333333333334,111.03888888888889,601.75,111.02291666666667C604.1666666666666,111.00694444444446,606.5833333333334,110.99097222222221,609,110.975C611.4166666666666,110.95902777777778,613.8333333333334,110.94305555555555,616.25,110.92708333333333C618.6666666666666,110.91111111111111,621.0833333333334,110.89513888888888,623.5,110.87916666666666C625.9166666666666,110.86319444444445,628.3333333333334,110.84722222222221,630.75,110.83125C633.1666666666666,110.81527777777778,635.5833333333334,110.79930555555555,638,110.78333333333333C640.4166666666666,110.76736111111111,642.8333333333334,110.75138888888888,645.25,110.73541666666667C647.6666666666666,110.71944444444445,650.0833333333334,110.70347222222222,652.5,110.6875C654.9166666666666,110.67152777777778,657.3333333333334,110.65555555555555,659.75,110.63958333333333C662.1666666666666,110.62361111111112,664.5833333333334,110.60763888888889,667,110.59166666666667C669.4166666666666,110.57569444444445,671.8333333333334,110.55972222222222,674.25,110.54375C676.6666666666666,110.52777777777779,679.0833333333334,110.51180555555555,681.5,110.49583333333334C683.9166666666666,110.47986111111112,686.3333333333334,110.46388888888889,688.75,110.44791666666667C691.1666666666666,110.43194444444445,693.5833333333334,110.41597222222221,696,110.39999999999999C698.4166666666666,110.38402777777777,700.8333333333334,110.36805555555556,703.25,110.35208333333334C705.6666666666666,110.33611111111112,708.0833333333334,110.32013888888889,710.5,110.30416666666667C712.9166666666666,110.28819444444446,715.3333333333334,110.27222222222221,717.75,110.25625C720.1666666666666,110.24027777777778,722.5833333333334,110.22430555555556,725,110.20833333333334C727.4166666666666,110.19236111111113,729.8333333333334,110.17638888888888,732.25,110.16041666666666C734.6666666666666,110.14444444444445,737.0833333333334,110.12847222222221,739.5,110.1125C741.9166666666666,110.09652777777778,744.3333333333334,110.08055555555555,746.75,110.06458333333333C749.1666666666666,110.04861111111111,751.5833333333334,110.03263888888888,754,110.01666666666667C756.4166666666666,110.00069444444445,758.8333333333334,109.98472222222222,761.25,109.96875C763.6666666666666,109.95277777777778,766.0833333333334,109.93680555555555,768.5,109.92083333333333C770.9166666666666,109.90486111111112,773.3333333333334,109.88888888888889,775.75,109.87291666666667C778.1666666666666,109.85694444444445,780.5833333333334,109.8409722222222,783,109.82499999999999C785.4166666666667,109.80902777777777,787.8333333333334,109.79305555555555,790.2500000000001,109.77708333333334C792.6666666666667,109.76111111111112,795.0833333333335,109.74513888888889,797.5000000000001,109.72916666666667C799.9166666666667,109.71319444444445,802.3333333333335,109.69722222222221,804.7500000000001,109.68124999999999C807.1666666666667,109.66527777777777,809.5833333333335,109.64930555555556,812.0000000000001,109.63333333333334C814.4166666666667,109.61736111111112,816.8333333333333,109.60138888888888,819.2499999999999,109.58541666666666C821.6666666666665,109.56944444444444,824.0833333333333,109.55347222222223,826.4999999999999,109.53750000000001C828.9166666666665,109.52152777777779,831.3333333333333,109.50555555555556,833.7499999999999,109.48958333333334C836.1666666666665,109.47361111111113,838.5833333333333,109.45763888888888,840.9999999999999,109.44166666666666C843.4166666666666,109.42569444444445,845.8333333333333,109.40972222222223,848.25,109.39375000000001C850.6666666666666,109.3777777777778,853.0833333333334,109.36180555555555,855.5,109.34583333333333C857.9166666666666,109.32986111111111,860.3333333333334,109.31388888888888,862.75,109.29791666666667C865.1666666666666,109.28194444444445,867.5833333333334,109.26597222222222,870,109.25C872.4166666666666,109.23402777777778,874.8333333333334,109.21805555555555,877.25,109.20208333333333C879.6666666666666,109.18611111111112,882.0833333333334,109.17013888888889,884.5,109.15416666666667C886.9166666666666,109.13819444444445,889.3333333333334,109.12222222222222,891.75,109.10625C894.1666666666666,109.09027777777779,896.5833333333334,109.07430555555555,899,109.05833333333334C901.4166666666666,109.04236111111112,903.8333333333334,109.02638888888887,906.25,109.01041666666666C908.6666666666666,108.99444444444444,911.0833333333334,108.97847222222222,913.5,108.9625C915.9166666666666,108.94652777777779,918.3333333333334,108.93055555555554,920.75,108.91458333333333C923.1666666666666,108.89861111111111,925.5833333333334,108.88263888888888,928,108.86666666666666C930.4166666666666,108.85069444444444,932.8333333333334,108.83472222222223,935.25,108.81875000000001C937.6666666666666,108.80277777777779,940.0833333333334,108.78680555555555,942.5,108.77083333333333C944.9166666666666,108.75486111111111,947.3333333333334,108.73888888888888,949.75,108.72291666666666C952.1666666666666,108.70694444444445,954.5833333333334,108.69097222222223,957,108.67500000000001C959.4166666666666,108.6590277777778,961.8333333333334,108.64305555555555,964.25,108.62708333333333C966.6666666666667,108.6111111111111,969.0833333333334,108.59513888888888,971.5000000000001,108.57916666666667C973.9166666666667,108.56319444444445,976.3333333333335,108.54722222222222,978.7500000000001,108.53125C981.1666666666667,108.51527777777778,983.5833333333335,108.49930555555555,986.0000000000001,108.48333333333333C988.4166666666667,108.46736111111112,990.8333333333335,108.45138888888889,993.2500000000001,108.43541666666667C995.6666666666667,108.41944444444445,998.0833333333333,108.40347222222222,1000.4999999999999,108.3875C1002.9166666666665,108.37152777777779,1005.3333333333333,108.35555555555555,1007.7499999999999,108.33958333333334C1010.1666666666665,108.32361111111112,1012.5833333333333,108.30763888888889,1014.9999999999999,108.29166666666667C1017.4166666666665,108.27569444444445,1019.8333333333333,108.25972222222222,1022.2499999999999,108.24375C1024.6666666666665,108.22777777777777,1027.0833333333333,108.21180555555554,1029.5,108.19583333333333C1031.9166666666667,108.17986111111111,1034.3333333333333,108.16388888888889,1036.75,108.14791666666667C1039.1666666666667,108.13194444444446,1041.5833333333333,108.11597222222221,1044,108.1C1046.4166666666667,108.08402777777778,1048.8333333333333,108.06805555555555,1051.25,108.05208333333333C1053.6666666666667,108.03611111111111,1056.0833333333333,108.0201388888889,1058.5,108.00416666666668C1060.9166666666667,107.98819444444446,1063.3333333333333,107.97222222222221,1065.75,107.95625C1068.1666666666667,107.94027777777778,1070.5833333333333,107.92430555555555,1073,107.90833333333333C1075.4166666666667,107.89236111111111,1077.8333333333333,107.87638888888888,1080.25,107.86041666666667C1082.6666666666667,107.84444444444445,1085.0833333333333,107.82847222222222,1087.5,107.8125C1089.9166666666667,107.79652777777778,1092.3333333333333,107.78055555555555,1094.75,107.76458333333333C1097.1666666666667,107.74861111111112,1099.5833333333333,107.73263888888889,1102,107.71666666666667C1104.4166666666667,107.70069444444445,1106.8333333333333,107.68472222222222,1109.25,107.66875C1111.6666666666667,107.65277777777779,1114.0833333333333,107.63680555555554,1116.5,107.62083333333332C1118.9166666666667,107.6048611111111,1121.3333333333333,107.58888888888889,1123.75,107.57291666666667C1126.1666666666667,107.55694444444445,1128.5833333333333,107.54097222222222,1131,107.525C1133.4166666666667,107.50902777777779,1135.8333333333333,107.49305555555554,1138.25,107.47708333333333C1140.6666666666667,107.46111111111111,1143.0833333333333,107.44513888888889,1145.5,107.42916666666667C1147.9166666666667,107.41319444444446,1150.3333333333333,107.39722222222221,1152.75,107.38125C1155.1666666666667,107.36527777777778,1157.5833333333333,107.34930555555555,1160,107.33333333333333C1162.4166666666667,107.31736111111111,1164.8333333333333,107.30138888888888,1167.25,107.28541666666666C1169.6666666666667,107.26944444444445,1172.0833333333333,107.25347222222221,1174.5,107.2375C1176.9166666666667,107.22152777777778,1179.3333333333333,107.20555555555555,1181.75,107.18958333333333C1184.1666666666667,107.17361111111111,1186.5833333333333,107.15763888888888,1189,107.14166666666667C1191.4166666666667,107.12569444444445,1193.8333333333333,107.10972222222222,1196.25,107.09375C1198.6666666666667,107.07777777777778,1201.0833333333333,107.06180555555555,1203.5,107.04583333333333C1205.9166666666667,107.02986111111112,1208.3333333333333,107.01388888888889,1210.75,106.99791666666667C1213.1666666666667,106.98194444444445,1215.5833333333333,106.9659722222222,1218,106.94999999999999C1220.4166666666667,106.93402777777777,1222.8333333333333,106.91805555555555,1225.25,106.90208333333334C1227.6666666666667,106.88611111111112,1230.0833333333333,106.87013888888889,1232.5,106.85416666666667C1234.9166666666667,106.83819444444445,1237.3333333333333,106.82222222222221,1239.75,106.80624999999999C1242.1666666666667,106.79027777777777,1244.5833333333333,106.77430555555556,1247,106.75833333333334C1249.4166666666667,106.74236111111112,1251.8333333333333,106.72638888888889,1254.25,106.71041666666667C1256.6666666666667,106.69444444444446,1259.0833333333333,106.67847222222221,1261.5,106.6625C1263.9166666666667,106.64652777777778,1266.3333333333333,106.63055555555556,1268.75,106.61458333333334C1271.1666666666667,106.59861111111113,1273.5833333333333,106.58263888888888,1276,106.56666666666666C1278.4166666666667,106.55069444444445,1280.8333333333333,106.53472222222221,1283.25,106.51875C1285.6666666666667,106.50277777777778,1288.0833333333333,106.48680555555555,1290.5,106.47083333333333C1292.9166666666667,106.45486111111111,1295.3333333333333,106.43888888888888,1297.75,106.42291666666667C1300.1666666666667,106.40694444444445,1302.5833333333333,106.40694444444445,1305,106.375C1307.4166666666667,106.34305555555555,1309.8333333333333,103.5,1312.25,102.0625C1314.6666666666667,100.625,1317.0833333333333,99.1875,1319.5,97.75C1321.9166666666667,96.3125,1324.3333333333333,94.875,1326.75,93.4375C1329.1666666666667,92,1331.5833333333333,90.5625,1334,89.125C1336.4166666666667,87.6875,1338.8333333333333,86.25,1341.25,84.8125C1343.6666666666667,83.375,1346.0833333333333,81.9375,1348.5,80.5C1350.9166666666667,79.0625,1353.3333333333333,77.625,1355.75,76.1875C1358.1666666666667,74.75,1360.5833333333333,73.3125,1363,71.875C1365.4166666666667,70.4375,1367.8333333333333,69,1370.25,67.5625C1372.6666666666667,66.125,1375.0833333333333,64.68750000000001,1377.5,63.25000000000001C1379.9166666666667,61.81250000000001,1382.3333333333333,60.37499999999999,1384.75,58.93749999999999C1387.1666666666667,57.49999999999999,1389.5833333333333,56.0625,1392,54.625C1394.4166666666667,53.1875,1396.8333333333333,51.75,1399.25,50.3125C1401.6666666666667,48.875,1404.0833333333333,47.4375,1406.5,46C1408.9166666666667,44.5625,1411.3333333333333,43.12500000000001,1413.75,41.68750000000001C1416.1666666666667,40.25000000000001,1418.5833333333333,38.81249999999999,1421,37.37499999999999C1423.4166666666667,35.93749999999999,1425.8333333333333,34.50000000000001,1428.25,33.06250000000001C1430.6666666666667,31.625000000000007,1433.0833333333333,30.1875,1435.5,28.75C1437.9166666666667,27.3125,1440.3333333333333,25.875000000000004,1442.75,24.437500000000004C1445.1666666666667,23.000000000000004,1447.5833333333333,21.562500000000004,1450,20.125000000000004" fill="transparent" stroke-linecap="round" stroke="#B6509E" stroke-width="2"></path><path class="visx-linepath" d="M0,104.9374999999441C2.4166666666666665,104.92818287033775,4.833333333333334,104.91886574073142,7.25,104.9095486111111C9.666666666666666,104.90023148149079,12.083333333333334,104.89091435185185,14.5,104.88159722222223C16.916666666666668,104.8722800925926,19.333333333333332,104.86296296296295,21.75,104.85364583333333C24.166666666666668,104.84432870370371,26.583333333333332,104.83501157407407,29,104.82569444444445C31.416666666666668,104.81637731481483,33.833333333333336,104.8070601851852,36.25,104.79774305555556C38.666666666666664,104.78842592592592,41.083333333333336,104.77910879629628,43.5,104.76979166666666C45.91666666666667,104.76047453703703,48.333333333333336,104.75115740740742,50.75000000000001,104.74184027777778C53.16666666666667,104.73252314814816,55.583333333333336,104.72320601851852,58,104.71388888888889C60.416666666666664,104.70457175925925,62.833333333333336,104.69525462962962,65.25,104.6859375C67.66666666666667,104.67662037037037,70.08333333333333,104.66730324074074,72.5,104.65798611111111C74.91666666666667,104.64866898148149,77.33333333333333,104.63935185185186,79.75,104.63003472222222C82.16666666666667,104.62071759259258,84.58333333333333,104.61140046296295,87,104.60208333333333C89.41666666666667,104.5927662037037,91.83333333333333,104.58344907407407,94.25,104.57413194444445C96.66666666666667,104.56481481481481,99.08333333333334,104.55549768518519,101.50000000000001,104.54618055555555C103.91666666666667,104.53686342592592,106.33333333333334,104.52754629629628,108.75,104.51822916666666C111.16666666666667,104.50891203703702,113.58333333333333,104.4995949074074,116,104.49027777777778C118.41666666666667,104.48096064814814,120.83333333333334,104.47164351851852,123.25000000000001,104.46232638888888C125.66666666666667,104.45300925925925,128.08333333333334,104.44369212962961,130.5,104.43437499999999C132.91666666666666,104.42505787037035,135.33333333333334,104.41574074074073,137.75,104.40642361111111C140.16666666666666,104.39710648148149,142.58333333333334,104.38778935185185,145,104.37847222222223C147.41666666666666,104.3691550925926,149.83333333333334,104.35983796296296,152.25,104.35052083333333C154.66666666666666,104.34120370370371,157.08333333333334,104.33188657407408,159.5,104.32256944444445C161.91666666666666,104.31325231481483,164.33333333333334,104.3039351851852,166.75,104.29461805555556C169.16666666666666,104.28530092592592,171.58333333333334,104.27598379629629,174,104.26666666666667C176.41666666666666,104.25734953703704,178.83333333333334,104.24803240740741,181.25,104.23871527777779C183.66666666666666,104.22939814814816,186.08333333333334,104.22008101851851,188.5,104.21076388888889C190.91666666666666,104.20144675925927,193.33333333333334,104.19212962962963,195.75,104.18281250000001C198.16666666666669,104.17349537037038,200.58333333333334,104.16417824074075,203.00000000000003,104.15486111111112C205.41666666666669,104.14554398148148,207.83333333333331,104.13622685185186,210.24999999999997,104.12690972222222C212.66666666666666,104.11759259259259,215.08333333333331,104.10827546296296,217.5,104.09895833333333C219.91666666666666,104.0896412037037,222.33333333333334,104.08032407407407,224.75,104.07100694444445C227.16666666666666,104.06168981481483,229.58333333333334,104.05237268518518,232,104.04305555555555C234.41666666666666,104.03373842592593,236.83333333333334,104.0244212962963,239.25,104.01510416666667C241.66666666666669,104.00578703703704,244.08333333333334,103.99646990740742,246.50000000000003,103.98715277777778C248.91666666666669,103.97783564814814,251.33333333333331,103.96851851851851,253.74999999999997,103.95920138888889C256.16666666666663,103.94988425925925,258.5833333333333,103.94056712962964,261,103.93125C263.4166666666667,103.92193287037038,265.8333333333333,103.91261574074075,268.25,103.90329861111111C270.6666666666667,103.89398148148148,273.0833333333333,103.88466435185184,275.5,103.87534722222222C277.9166666666667,103.8660300925926,280.3333333333333,103.85671296296296,282.75,103.84739583333334C285.1666666666667,103.83807870370372,287.5833333333333,103.82876157407408,290,103.81944444444444C292.4166666666667,103.8101273148148,294.8333333333333,103.80081018518517,297.25,103.79149305555555C299.6666666666667,103.78217592592593,302.0833333333333,103.77285879629629,304.5,103.76354166666667C306.9166666666667,103.75422453703705,309.3333333333333,103.74490740740741,311.75,103.73559027777777C314.1666666666667,103.72627314814814,316.5833333333333,103.7169560185185,319,103.70763888888888C321.4166666666667,103.69832175925926,323.8333333333333,103.68900462962962,326.25,103.6796875C328.6666666666667,103.67037037037038,331.0833333333333,103.66105324074074,333.5,103.6517361111111C335.9166666666667,103.64241898148147,338.3333333333333,103.63310185185183,340.75,103.62378472222221C343.1666666666667,103.61446759259259,345.5833333333333,103.60515046296295,348,103.59583333333333C350.4166666666667,103.58651620370371,352.8333333333333,103.57719907407407,355.25,103.56788194444445C357.6666666666667,103.55856481481483,360.0833333333333,103.54924768518518,362.5,103.53993055555556C364.9166666666667,103.53061342592594,367.3333333333333,103.5212962962963,369.75,103.51197916666668C372.1666666666667,103.50266203703706,374.5833333333333,103.49334490740742,377,103.48402777777778C379.4166666666667,103.47471064814815,381.8333333333333,103.46539351851851,384.25,103.45607638888889C386.6666666666667,103.44675925925927,389.0833333333333,103.43744212962963,391.5,103.42812500000001C393.9166666666667,103.41880787037037,396.33333333333337,103.40949074074075,398.75000000000006,103.40017361111111C401.16666666666674,103.39085648148148,403.58333333333337,103.38153935185186,406.00000000000006,103.37222222222222C408.4166666666667,103.3629050925926,410.8333333333333,103.35358796296296,413.24999999999994,103.34427083333334C415.66666666666663,103.3349537037037,418.08333333333326,103.32563657407408,420.49999999999994,103.31631944444445C422.91666666666663,103.30700231481481,425.3333333333333,103.29768518518519,427.75,103.28836805555555C430.1666666666667,103.27905092592593,432.5833333333333,103.2697337962963,435,103.26041666666667C437.4166666666667,103.25109953703705,439.8333333333333,103.24178240740741,442.25,103.23246527777778C444.6666666666667,103.22314814814814,447.0833333333333,103.2138310185185,449.5,103.20451388888888C451.9166666666667,103.19519675925926,454.3333333333333,103.18587962962962,456.75,103.1765625C459.1666666666667,103.16724537037038,461.5833333333333,103.15792824074074,464,103.14861111111111C466.4166666666667,103.13929398148147,468.8333333333333,103.12997685185184,471.25,103.12065972222221C473.6666666666667,103.11134259259259,476.0833333333333,103.10202546296296,478.5,103.09270833333333C480.9166666666667,103.0833912037037,483.33333333333337,103.07407407407408,485.75000000000006,103.06475694444444C488.16666666666674,103.0554398148148,490.58333333333337,103.04612268518518,493.00000000000006,103.03680555555555C495.4166666666667,103.02748842592592,497.8333333333333,103.01817129629629,500.24999999999994,103.00885416666667C502.66666666666663,102.99953703703703,505.08333333333326,102.9902199074074,507.49999999999994,102.98090277777777C509.91666666666663,102.97158564814814,512.3333333333333,102.96226851851853,514.75,102.95295138888889C517.1666666666666,102.94363425925927,519.5833333333334,102.93431712962963,522,102.925C524.4166666666666,102.91568287037036,526.8333333333334,102.90636574074072,529.25,102.8970486111111C531.6666666666666,102.88773148148148,534.0833333333334,102.87841435185184,536.5,102.86909722222222C538.9166666666666,102.8597800925926,541.3333333333334,102.85046296296295,543.75,102.84114583333333C546.1666666666666,102.8318287037037,548.5833333333334,102.82251157407407,551,102.81319444444445C553.4166666666666,102.80387731481483,555.8333333333334,102.79456018518518,558.25,102.78524305555555C560.6666666666666,102.77592592592593,563.0833333333334,102.7666087962963,565.5,102.75729166666667C567.9166666666666,102.74797453703705,570.3333333333334,102.7386574074074,572.75,102.72934027777778C575.1666666666666,102.72002314814816,577.5833333333334,102.71070601851852,580,102.7013888888889C582.4166666666666,102.69207175925928,584.8333333333334,102.68275462962964,587.25,102.6734375C589.6666666666666,102.66412037037037,592.0833333333334,102.65480324074073,594.5,102.64548611111111C596.9166666666666,102.63616898148149,599.3333333333334,102.62685185185185,601.75,102.61753472222223C604.1666666666666,102.60821759259261,606.5833333333334,102.59890046296297,609,102.58958333333334C611.4166666666666,102.5802662037037,613.8333333333334,102.57094907407406,616.25,102.56163194444444C618.6666666666666,102.55231481481482,621.0833333333334,102.54299768518518,623.5,102.53368055555556C625.9166666666666,102.52436342592594,628.3333333333334,102.5150462962963,630.75,102.50572916666667C633.1666666666666,102.49641203703703,635.5833333333334,102.4870949074074,638,102.47777777777777C640.4166666666666,102.46846064814815,642.8333333333334,102.45914351851852,645.25,102.4498263888889C647.6666666666666,102.44050925925927,650.0833333333334,102.43119212962964,652.5,102.421875C654.9166666666666,102.41255787037036,657.3333333333334,102.40324074074073,659.75,102.3939236111111C662.1666666666666,102.38460648148148,664.5833333333334,102.37528935185185,667,102.36597222222223C669.4166666666666,102.3566550925926,671.8333333333334,102.34733796296297,674.25,102.33802083333333C676.6666666666666,102.3287037037037,679.0833333333334,102.31938657407406,681.5,102.31006944444444C683.9166666666666,102.30075231481482,686.3333333333334,102.29143518518518,688.75,102.28211805555556C691.1666666666666,102.27280092592594,693.5833333333334,102.2634837962963,696,102.25416666666666C698.4166666666666,102.24484953703703,700.8333333333334,102.23553240740739,703.25,102.22621527777777C705.6666666666666,102.21689814814815,708.0833333333334,102.20758101851851,710.5,102.19826388888889C712.9166666666666,102.18894675925927,715.3333333333334,102.17962962962962,717.75,102.1703125C720.1666666666666,102.16099537037037,722.5833333333334,102.15167824074074,725,102.14236111111111C727.4166666666666,102.13304398148149,729.8333333333334,102.12372685185186,732.25,102.11440972222222C734.6666666666666,102.10509259259258,737.0833333333334,102.09577546296295,739.5,102.08645833333333C741.9166666666666,102.0771412037037,744.3333333333334,102.06782407407407,746.75,102.05850694444445C749.1666666666666,102.04918981481482,751.5833333333334,102.03987268518517,754,102.03055555555555C756.4166666666666,102.02123842592593,758.8333333333334,102.0119212962963,761.25,102.00260416666667C763.6666666666666,101.99328703703705,766.0833333333334,101.9839699074074,768.5,101.97465277777778C770.9166666666666,101.96533564814816,773.3333333333334,101.95601851851852,775.75,101.9467013888889C778.1666666666666,101.93738425925928,780.5833333333334,101.92806712962962,783,101.91875C785.4166666666667,101.90943287037037,787.8333333333334,101.90011574074076,790.2500000000001,101.89079861111112C792.6666666666667,101.8814814814815,795.0833333333335,101.87216435185186,797.5000000000001,101.86284722222223C799.9166666666667,101.85353009259259,802.3333333333335,101.84421296296296,804.7500000000001,101.83489583333333C807.1666666666667,101.82557870370371,809.5833333333335,101.81626157407409,812.0000000000001,101.80694444444445C814.4166666666667,101.79762731481483,816.8333333333333,101.7883101851852,819.2499999999999,101.77899305555556C821.6666666666665,101.76967592592592,824.0833333333333,101.76035879629629,826.4999999999999,101.75104166666667C828.9166666666665,101.74172453703704,831.3333333333333,101.73240740740741,833.7499999999999,101.72309027777779C836.1666666666665,101.71377314814816,838.5833333333333,101.70445601851853,840.9999999999999,101.69513888888889C843.4166666666666,101.68582175925926,845.8333333333333,101.67650462962963,848.25,101.6671875C850.6666666666666,101.65787037037038,853.0833333333334,101.64855324074074,855.5,101.63923611111112C857.9166666666666,101.6299189814815,860.3333333333334,101.62060185185186,862.75,101.61128472222222C865.1666666666666,101.60196759259259,867.5833333333334,101.59265046296295,870,101.58333333333333C872.4166666666666,101.5740162037037,874.8333333333334,101.56469907407407,877.25,101.55538194444445C879.6666666666666,101.54606481481483,882.0833333333334,101.53674768518519,884.5,101.52743055555555C886.9166666666666,101.51811342592592,889.3333333333334,101.50879629629628,891.75,101.49947916666666C894.1666666666666,101.49016203703704,896.5833333333334,101.4808449074074,899,101.47152777777778C901.4166666666666,101.46221064814816,903.8333333333334,101.45289351851852,906.25,101.44357638888889C908.6666666666666,101.43425925925925,911.0833333333334,101.42494212962961,913.5,101.41562499999999C915.9166666666666,101.40630787037037,918.3333333333334,101.39699074074073,920.75,101.38767361111111C923.1666666666666,101.37835648148149,925.5833333333334,101.36903935185185,928,101.35972222222222C930.4166666666666,101.35040509259258,932.8333333333334,101.34108796296294,935.25,101.33177083333332C937.6666666666666,101.3224537037037,940.0833333333334,101.31313657407406,942.5,101.30381944444444C944.9166666666666,101.29450231481482,947.3333333333334,101.28518518518517,949.75,101.27586805555555C952.1666666666666,101.26655092592593,954.5833333333334,101.25723379629629,957,101.24791666666667C959.4166666666666,101.23859953703705,961.8333333333334,101.22928240740741,964.25,101.21996527777779C966.6666666666667,101.21064814814815,969.0833333333334,101.20133101851853,971.5000000000001,101.1920138888889C973.9166666666667,101.18269675925926,976.3333333333335,101.17337962962962,978.7500000000001,101.1640625C981.1666666666667,101.15474537037038,983.5833333333335,101.14542824074074,986.0000000000001,101.13611111111112C988.4166666666667,101.1267939814815,990.8333333333335,101.11747685185186,993.2500000000001,101.10815972222223C995.6666666666667,101.09884259259259,998.0833333333333,101.08952546296295,1000.4999999999999,101.08020833333333C1002.9166666666665,101.0708912037037,1005.3333333333333,101.06157407407407,1007.7499999999999,101.05225694444445C1010.1666666666665,101.04293981481483,1012.5833333333333,101.0336226851852,1014.9999999999999,101.02430555555556C1017.4166666666665,101.01498842592592,1019.8333333333333,101.00567129629628,1022.2499999999999,100.99635416666666C1024.6666666666665,100.98703703703703,1027.0833333333333,100.97771990740742,1029.5,100.96840277777778C1031.9166666666667,100.95908564814816,1034.3333333333333,100.94976851851852,1036.75,100.94045138888889C1039.1666666666667,100.93113425925925,1041.5833333333333,100.92181712962962,1044,100.9125C1046.4166666666667,100.90318287037037,1048.8333333333333,100.89386574074074,1051.25,100.88454861111111C1053.6666666666667,100.87523148148149,1056.0833333333333,100.86591435185184,1058.5,100.85659722222222C1060.9166666666667,100.8472800925926,1063.3333333333333,100.83796296296296,1065.75,100.82864583333334C1068.1666666666667,100.81932870370372,1070.5833333333333,100.81001157407408,1073,100.80069444444445C1075.4166666666667,100.79137731481481,1077.8333333333333,100.78206018518517,1080.25,100.77274305555555C1082.6666666666667,100.76342592592593,1085.0833333333333,100.7541087962963,1087.5,100.74479166666667C1089.9166666666667,100.73547453703705,1092.3333333333333,100.72615740740741,1094.75,100.71684027777778C1097.1666666666667,100.70752314814814,1099.5833333333333,100.69820601851852,1102,100.68888888888888C1104.4166666666667,100.67957175925925,1106.8333333333333,100.67025462962961,1109.25,100.66093749999999C1111.6666666666667,100.65162037037037,1114.0833333333333,100.64230324074073,1116.5,100.63298611111111C1118.9166666666667,100.62366898148149,1121.3333333333333,100.61435185185185,1123.75,100.60503472222221C1126.1666666666667,100.59571759259258,1128.5833333333333,100.58640046296294,1131,100.57708333333332C1133.4166666666667,100.5677662037037,1135.8333333333333,100.55844907407406,1138.25,100.54913194444444C1140.6666666666667,100.53981481481482,1143.0833333333333,100.53049768518517,1145.5,100.52118055555555C1147.9166666666667,100.51186342592592,1150.3333333333333,100.50254629629629,1152.75,100.49322916666667C1155.1666666666667,100.48391203703704,1157.5833333333333,100.4745949074074,1160,100.46527777777777C1162.4166666666667,100.45596064814815,1164.8333333333333,100.44664351851851,1167.25,100.43732638888889C1169.6666666666667,100.42800925925927,1172.0833333333333,100.41869212962962,1174.5,100.409375C1176.9166666666667,100.40005787037038,1179.3333333333333,100.39074074074074,1181.75,100.38142361111112C1184.1666666666667,100.3721064814815,1186.5833333333333,100.36278935185187,1189,100.35347222222224C1191.4166666666667,100.3441550925926,1193.8333333333333,100.33483796296296,1196.25,100.32552083333333C1198.6666666666667,100.31620370370369,1201.0833333333333,100.30688657407407,1203.5,100.29756944444445C1205.9166666666667,100.28825231481483,1208.3333333333333,100.27893518518519,1210.75,100.26961805555555C1213.1666666666667,100.26030092592592,1215.5833333333333,100.25098379629628,1218,100.24166666666666C1220.4166666666667,100.23234953703704,1222.8333333333333,100.2230324074074,1225.25,100.21371527777778C1227.6666666666667,100.20439814814816,1230.0833333333333,100.19508101851852,1232.5,100.1857638888889C1234.9166666666667,100.17644675925928,1237.3333333333333,100.16712962962964,1239.75,100.1578125C1242.1666666666667,100.14849537037037,1244.5833333333333,100.13917824074073,1247,100.12986111111111C1249.4166666666667,100.12054398148149,1251.8333333333333,100.11122685185185,1254.25,100.10190972222223C1256.6666666666667,100.09259259259261,1259.0833333333333,100.08327546296297,1261.5,100.07395833333334C1263.9166666666667,100.0646412037037,1266.3333333333333,100.05532407407406,1268.75,100.04600694444444C1271.1666666666667,100.03668981481482,1273.5833333333333,100.02737268518518,1276,100.01805555555556C1278.4166666666667,100.00873842592594,1280.8333333333333,99.9994212962963,1283.25,99.99010416666667C1285.6666666666667,99.98078703703703,1288.0833333333333,99.9714699074074,1290.5,99.96215277777777C1292.9166666666667,99.95283564814815,1295.3333333333333,99.94351851851852,1297.75,99.9342013888889C1300.1666666666667,99.92488425925927,1302.5833333333333,99.92488425925926,1305,99.90625C1307.4166666666667,99.88761574074074,1309.8333333333333,97.03125,1312.25,95.59375C1314.6666666666667,94.15625,1317.0833333333333,92.71875,1319.5,91.28125C1321.9166666666667,89.84375,1324.3333333333333,88.40625,1326.75,86.96875C1329.1666666666667,85.53125,1331.5833333333333,84.09375,1334,82.65625C1336.4166666666667,81.21875,1338.8333333333333,79.78125,1341.25,78.34375C1343.6666666666667,76.90625,1346.0833333333333,75.46875,1348.5,74.03125C1350.9166666666667,72.59375,1353.3333333333333,71.15625,1355.75,69.71875C1358.1666666666667,68.28125,1360.5833333333333,66.84375,1363,65.40625C1365.4166666666667,63.96875,1367.8333333333333,62.53125,1370.25,61.09375C1372.6666666666667,59.65625,1375.0833333333333,58.21875,1377.5,56.78125C1379.9166666666667,55.34375,1382.3333333333333,53.90625000000001,1384.75,52.46875000000001C1387.1666666666667,51.03125000000001,1389.5833333333333,49.59374999999999,1392,48.15624999999999C1394.4166666666667,46.71874999999999,1396.8333333333333,45.28125,1399.25,43.84375C1401.6666666666667,42.40625,1404.0833333333333,40.96875,1406.5,39.53125C1408.9166666666667,38.09375,1411.3333333333333,36.65624999999999,1413.75,35.21874999999999C1416.1666666666667,33.78124999999999,1418.5833333333333,32.34375,1421,30.906250000000004C1423.4166666666667,29.468750000000004,1425.8333333333333,28.031249999999996,1428.25,26.593749999999996C1430.6666666666667,25.156249999999996,1433.0833333333333,23.718749999999996,1435.5,22.281249999999996C1437.9166666666667,20.843749999999996,1440.3333333333333,19.40625,1442.75,17.96875C1445.1666666666667,16.53125,1447.5833333333333,15.093750000000002,1450,13.656250000000002" fill="transparent" stroke-linecap="round" stroke="#E7C6DF" stroke-width="2"></path><g class="visx-group visx-axis visx-axis-bottom" transform="translate(0, 115)"><g class="visx-group visx-axis-tick" transform="translate(0, 0)"><line class="visx-line" x1="0" y1="0" x2="0" y2="8" fill="transparent" shape-rendering="crispEdges" stroke="#000" stroke-width="0" stroke-linecap="square"></line><svg x="0" y="0" font-size="10" style="overflow:visible"><text transform="" x="0" y="18" fill="#000" font-size="10" text-anchor="middle"><tspan x="0" dy="0em">0%</tspan></text></svg></g><g class="visx-group visx-axis-tick" transform="translate(0, 0)"><line class="visx-line" x1="362.5" y1="0" x2="362.5" y2="8" fill="transparent" shape-rendering="crispEdges" stroke="#000" stroke-width="0" stroke-linecap="square"></line><svg x="0" y="0" font-size="10" style="overflow:visible"><text transform="" x="362.5" y="18" fill="#000" font-size="10" text-anchor="middle"><tspan x="362.5" dy="0em">25%</tspan></text></svg></g><g class="visx-group visx-axis-tick" transform="translate(0, 0)"><line class="visx-line" x1="725" y1="0" x2="725" y2="8" fill="transparent" shape-rendering="crispEdges" stroke="#000" stroke-width="0" stroke-linecap="square"></line><svg x="0" y="0" font-size="10" style="overflow:visible"><text transform="" x="725" y="18" fill="#000" font-size="10" text-anchor="middle"><tspan x="725" dy="0em">50%</tspan></text></svg></g><g class="visx-group visx-axis-tick" transform="translate(0, 0)"><line class="visx-line" x1="1087.5" y1="0" x2="1087.5" y2="8" fill="transparent" shape-rendering="crispEdges" stroke="#000" stroke-width="0" stroke-linecap="square"></line><svg x="0" y="0" font-size="10" style="overflow:visible"><text transform="" x="1087.5" y="18" fill="#000" font-size="10" text-anchor="middle"><tspan x="1087.5" dy="0em">75%</tspan></text></svg></g><g class="visx-group visx-axis-tick" transform="translate(0, 0)"><line class="visx-line" x1="1450" y1="0" x2="1450" y2="8" fill="transparent" shape-rendering="crispEdges" stroke="#000" stroke-width="0" stroke-linecap="square"></line><svg x="0" y="0" font-size="10" style="overflow:visible"><text transform="" x="1450" y="18" fill="#000" font-size="10" text-anchor="middle"><tspan x="1450" dy="0em">100%</tspan></text></svg></g><line class="visx-line visx-axis-line" x1="0.5" y1="0" x2="1450.5" y2="0" fill="transparent" shape-rendering="crispEdges" stroke="#222" stroke-width="0"></line></g><g class="visx-group visx-axis visx-axis-left" transform="translate(0, 0)"><g class="visx-group visx-axis-tick" transform="translate(0, 0)"><line class="visx-line" x1="0" y1="115" x2="-8" y2="115" fill="transparent" shape-rendering="crispEdges" stroke="#222" stroke-width="0" stroke-linecap="square"></line><svg x="-30" y="0" font-size="8" style="overflow:visible"><text transform="" x="-8" y="115" fill="#000" font-size="8" text-anchor="start"><tspan x="-8" dy="0em">0%</tspan></text></svg></g><g class="visx-group visx-axis-tick" transform="translate(0, 0)"><line class="visx-line" x1="0" y1="43.125" x2="-8" y2="43.125" fill="transparent" shape-rendering="crispEdges" stroke="#222" stroke-width="0" stroke-linecap="square"></line><svg x="-30" y="0" font-size="8" style="overflow:visible"><text transform="" x="-8" y="43.125" fill="#000" font-size="8" text-anchor="start"><tspan x="-8" dy="0em">50%</tspan></text></svg></g><line class="visx-line visx-axis-line" x1="0" y1="115.5" x2="0" y2="0.5" fill="transparent" shape-rendering="crispEdges" stroke="#222" stroke-width="0"></line></g><rect class="visx-bar" width="1450" height="115" fill="transparent"></rect><line class="visx-line" x1="1305" y1="28" x2="1305" y2="115" fill="transparent" shape-rendering="crispEdges" stroke="#0062D2" stroke-width="1" pointer-events="none" stroke-dasharray="5,2"></line><svg x="0" y="0" font-size="10px" style="overflow:visible"><text transform="" x="1305" y="20" font-size="10px" fill="#fff" stroke="#fff" stroke-width="0.8em" text-anchor="middle"><tspan x="1305" dy="0.355em">Optimal 90%</tspan></text></svg><svg x="0" y="0" font-size="10px" style="overflow:visible"><text transform="" x="1305" y="20" font-size="10px" fill="#62677B" text-anchor="middle"><tspan x="1305" dy="0.355em">Optimal 90%</tspan></text></svg></g></svg>