<?xml version="1.0"?><svg xmlns="http://www.w3.org/2000/svg" xmlns:xlink= "http://www.w3.org/1999/xlink" style="background: white;" width="1500" height="185"> <g style="color: black; font-size: 13px; font-family: sans-serif; transform: translate(18px, 25px);"><g><circle r="3" cx="-6" cy="-5" style="fill: #B6509E" /><text>Borrow APR, variable</text></g><g style="transform: translateX(150px);"><circle r="3" cx="-6" cy="-5" style="fill: rgb(231, 198, 223)" /><text>Borrow APR, stable</text></g><g style="transform: translateX(290px);"><circle r="3" cx="-6" cy="-5" style="fill: rgb(0, 98, 210)" /><text>Utilization Rate</text></g></g><g class="visx-group" transform="translate(40, 50)"><g class="visx-group visx-rows" transform="translate(0, 0)"><line class="visx-line" x1="0" y1="115" x2="1450" y2="115" fill="transparent" shape-rendering="crispEdges" stroke="#000" stroke-width="1" stroke-dasharray="3,3" pointer-events="none"></line><line class="visx-line" x1="0" y1="86.25" x2="1450" y2="86.25" fill="transparent" shape-rendering="crispEdges" stroke="#000" stroke-width="1" stroke-dasharray="3,3" pointer-events="none"></line><line class="visx-line" x1="0" y1="57.5" x2="1450" y2="57.5" fill="transparent" shape-rendering="crispEdges" stroke="#000" stroke-width="1" stroke-dasharray="3,3" pointer-events="none"></line><line class="visx-line" x1="0" y1="28.75" x2="1450" y2="28.75" fill="transparent" shape-rendering="crispEdges" stroke="#000" stroke-width="1" stroke-dasharray="3,3" pointer-events="none"></line><line class="visx-line" x1="0" y1="0" x2="1450" y2="0" fill="transparent" shape-rendering="crispEdges" stroke="#000" stroke-width="1" stroke-dasharray="3,3" pointer-events="none"></line></g><path class="visx-linepath" d="M0,114.1374999999425C2.4166666666666665,114.12791666663313,4.833333333333334,114.11833333332375,7.25,114.10875C9.666666666666666,114.09916666667625,12.083333333333334,114.08958333333334,14.5,114.08C16.916666666666668,114.07041666666666,19.333333333333332,114.06083333333332,21.75,114.05125C24.166666666666668,114.04166666666667,26.583333333333332,114.03208333333335,29,114.02250000000001C31.416666666666668,114.01291666666667,33.833333333333336,114.00333333333333,36.25,113.99374999999999C38.666666666666664,113.98416666666665,41.083333333333336,113.97458333333333,43.5,113.965C45.91666666666667,113.95541666666666,48.333333333333336,113.94583333333334,50.75000000000001,113.93625C53.16666666666667,113.92666666666666,55.583333333333336,113.91708333333334,58,113.9075C60.416666666666664,113.89791666666666,62.833333333333336,113.88833333333334,65.25,113.87875C67.66666666666667,113.86916666666666,70.08333333333333,113.85958333333332,72.5,113.85C74.91666666666667,113.84041666666667,77.33333333333333,113.83083333333333,79.75,113.82125C82.16666666666667,113.81166666666668,84.58333333333333,113.80208333333334,87,113.7925C89.41666666666667,113.78291666666667,91.83333333333333,113.77333333333334,94.25,113.76375C96.66666666666667,113.75416666666666,99.08333333333334,113.74458333333334,101.50000000000001,113.735C103.91666666666667,113.72541666666666,106.33333333333334,113.71583333333332,108.75,113.70625C111.16666666666667,113.69666666666666,113.58333333333333,113.68708333333335,116,113.67750000000001C118.41666666666667,113.66791666666667,120.83333333333334,113.65833333333333,123.25000000000001,113.64874999999999C125.66666666666667,113.63916666666665,128.08333333333334,113.62958333333333,130.5,113.62C132.91666666666666,113.61041666666667,135.33333333333334,113.60083333333334,137.75,113.59125C140.16666666666666,113.58166666666666,142.58333333333334,113.57208333333334,145,113.5625C147.41666666666666,113.55291666666666,149.83333333333334,113.54333333333334,152.25,113.53375C154.66666666666666,113.52416666666666,157.08333333333334,113.51458333333332,159.5,113.505C161.91666666666666,113.49541666666667,164.33333333333334,113.48583333333333,166.75,113.47625000000001C169.16666666666666,113.46666666666668,171.58333333333334,113.45708333333334,174,113.4475C176.41666666666666,113.43791666666667,178.83333333333334,113.42833333333333,181.25,113.41874999999999C183.66666666666666,113.40916666666665,186.08333333333334,113.39958333333333,188.5,113.39C190.91666666666666,113.38041666666668,193.33333333333334,113.37083333333332,195.75,113.36125C198.16666666666669,113.35166666666666,200.58333333333334,113.34208333333335,203.00000000000003,113.33250000000001C205.41666666666669,113.32291666666667,207.83333333333331,113.31333333333333,210.24999999999997,113.30375C212.66666666666666,113.29416666666665,215.08333333333331,113.28458333333333,217.5,113.27499999999999C219.91666666666666,113.26541666666667,222.33333333333334,113.25583333333333,224.75,113.24625C227.16666666666666,113.23666666666668,229.58333333333334,113.22708333333334,232,113.2175C234.41666666666666,113.20791666666666,236.83333333333334,113.19833333333334,239.25,113.18875C241.66666666666669,113.17916666666666,244.08333333333334,113.16958333333334,246.50000000000003,113.16C248.91666666666669,113.15041666666667,251.33333333333331,113.14083333333333,253.74999999999997,113.13125000000001C256.16666666666663,113.12166666666667,258.5833333333333,113.11208333333335,261,113.1025C263.4166666666667,113.09291666666667,265.8333333333333,113.08333333333333,268.25,113.07374999999999C270.6666666666667,113.06416666666665,273.0833333333333,113.05458333333333,275.5,113.045C277.9166666666667,113.03541666666668,280.3333333333333,113.02583333333332,282.75,113.01625C285.1666666666667,113.00666666666667,287.5833333333333,112.99708333333335,290,112.98750000000001C292.4166666666667,112.97791666666667,294.8333333333333,112.96833333333333,297.25,112.95875C299.6666666666667,112.94916666666666,302.0833333333333,112.93958333333332,304.5,112.92999999999999C306.9166666666667,112.92041666666667,309.3333333333333,112.91083333333333,311.75,112.90125C314.1666666666667,112.89166666666668,316.5833333333333,112.88208333333334,319,112.8725C321.4166666666667,112.86291666666666,323.8333333333333,112.85333333333334,326.25,112.84375C328.6666666666667,112.83416666666666,331.0833333333333,112.82458333333334,333.5,112.815C335.9166666666667,112.80541666666666,338.3333333333333,112.79583333333332,340.75,112.78625C343.1666666666667,112.77666666666667,345.5833333333333,112.76708333333335,348,112.75750000000001C350.4166666666667,112.74791666666667,352.8333333333333,112.73833333333333,355.25,112.72874999999999C357.6666666666667,112.71916666666665,360.0833333333333,112.70958333333333,362.5,112.7C364.9166666666667,112.69041666666668,367.3333333333333,112.68083333333334,369.75,112.67125C372.1666666666667,112.66166666666666,374.5833333333333,112.65208333333334,377,112.6425C379.4166666666667,112.63291666666666,381.8333333333333,112.62333333333333,384.25,112.61375C386.6666666666667,112.60416666666666,389.0833333333333,112.59458333333332,391.5,112.585C393.9166666666667,112.57541666666665,396.33333333333337,112.56583333333334,398.75000000000006,112.55625C401.16666666666674,112.54666666666668,403.58333333333337,112.53708333333334,406.00000000000006,112.5275C408.4166666666667,112.51791666666666,410.8333333333333,112.50833333333334,413.24999999999994,112.49875C415.66666666666663,112.48916666666666,418.08333333333326,112.47958333333334,420.49999999999994,112.47C422.91666666666663,112.46041666666666,425.3333333333333,112.45083333333334,427.75,112.44125C430.1666666666667,112.43166666666667,432.5833333333333,112.42208333333335,435,112.41250000000001C437.4166666666667,112.40291666666667,439.8333333333333,112.39333333333333,442.25,112.38374999999999C444.6666666666667,112.37416666666665,447.0833333333333,112.36458333333333,449.5,112.355C451.9166666666667,112.34541666666668,454.3333333333333,112.33583333333334,456.75,112.32625C459.1666666666667,112.31666666666666,461.5833333333333,112.30708333333334,464,112.2975C466.4166666666667,112.28791666666666,468.8333333333333,112.27833333333334,471.25,112.26875C473.6666666666667,112.25916666666666,476.0833333333333,112.24958333333332,478.5,112.24C480.9166666666667,112.23041666666666,483.33333333333337,112.22083333333335,485.75000000000006,112.21125C488.16666666666674,112.20166666666668,490.58333333333337,112.19208333333334,493.00000000000006,112.1825C495.4166666666667,112.17291666666667,497.8333333333333,112.16333333333333,500.24999999999994,112.15374999999999C502.66666666666663,112.14416666666665,505.08333333333326,112.13458333333332,507.49999999999994,112.125C509.91666666666663,112.11541666666666,512.3333333333333,112.10583333333334,514.75,112.09625C517.1666666666666,112.08666666666667,519.5833333333334,112.07708333333335,522,112.06750000000001C524.4166666666666,112.05791666666667,526.8333333333334,112.04833333333333,529.25,112.03875C531.6666666666666,112.02916666666665,534.0833333333334,112.01958333333332,536.5,112.00999999999999C538.9166666666666,112.00041666666667,541.3333333333334,111.99083333333333,543.75,111.98125C546.1666666666666,111.97166666666668,548.5833333333334,111.96208333333334,551,111.9525C553.4166666666666,111.94291666666666,555.8333333333334,111.93333333333334,558.25,111.92375C560.6666666666666,111.91416666666666,563.0833333333334,111.90458333333333,565.5,111.895C567.9166666666666,111.88541666666666,570.3333333333334,111.87583333333332,572.75,111.86625C575.1666666666666,111.85666666666667,577.5833333333334,111.84708333333334,580,111.8375C582.4166666666666,111.82791666666667,584.8333333333334,111.81833333333333,587.25,111.80874999999999C589.6666666666666,111.79916666666665,592.0833333333334,111.78958333333333,594.5,111.78C596.9166666666666,111.77041666666668,599.3333333333334,111.76083333333334,601.75,111.75125C604.1666666666666,111.74166666666666,606.5833333333334,111.73208333333334,609,111.7225C611.4166666666666,111.71291666666666,613.8333333333334,111.70333333333333,616.25,111.69375C618.6666666666666,111.68416666666666,621.0833333333334,111.67458333333332,623.5,111.66499999999999C625.9166666666666,111.65541666666667,628.3333333333334,111.64583333333333,630.75,111.63625C633.1666666666666,111.62666666666668,635.5833333333334,111.61708333333333,638,111.6075C640.4166666666666,111.59791666666668,642.8333333333334,111.58833333333335,645.25,111.57875000000001C647.6666666666666,111.56916666666667,650.0833333333334,111.55958333333334,652.5,111.55C654.9166666666666,111.54041666666666,657.3333333333334,111.53083333333332,659.75,111.52125C662.1666666666666,111.51166666666667,664.5833333333334,111.50208333333335,667,111.4925C669.4166666666666,111.48291666666667,671.8333333333334,111.47333333333333,674.25,111.46374999999999C676.6666666666666,111.45416666666665,679.0833333333334,111.44458333333333,681.5,111.435C683.9166666666666,111.42541666666668,686.3333333333334,111.41583333333334,688.75,111.40625C691.1666666666666,111.39666666666666,693.5833333333334,111.38708333333332,696,111.3775C698.4166666666666,111.36791666666667,700.8333333333334,111.35833333333335,703.25,111.34875000000001C705.6666666666666,111.33916666666667,708.0833333333334,111.32958333333333,710.5,111.32C712.9166666666666,111.31041666666665,715.3333333333334,111.30083333333333,717.75,111.29125C720.1666666666666,111.28166666666668,722.5833333333334,111.27208333333334,725,111.2625C727.4166666666666,111.25291666666666,729.8333333333334,111.24333333333333,732.25,111.23374999999999C734.6666666666666,111.22416666666665,737.0833333333334,111.21458333333332,739.5,111.205C741.9166666666666,111.19541666666667,744.3333333333334,111.18583333333332,746.75,111.17625C749.1666666666666,111.16666666666667,751.5833333333334,111.15708333333333,754,111.14750000000001C756.4166666666666,111.13791666666668,758.8333333333334,111.12833333333334,761.25,111.11875C763.6666666666666,111.10916666666667,766.0833333333334,111.09958333333334,768.5,111.09C770.9166666666666,111.08041666666666,773.3333333333334,111.07083333333334,775.75,111.06125C778.1666666666666,111.05166666666666,780.5833333333334,111.04208333333334,783,111.0325C785.4166666666667,111.02291666666666,787.8333333333334,111.01333333333334,790.2500000000001,111.00375C792.6666666666667,110.99416666666666,795.0833333333335,110.98458333333332,797.5000000000001,110.975C799.9166666666667,110.96541666666667,802.3333333333335,110.95583333333333,804.7500000000001,110.94625C807.1666666666667,110.93666666666668,809.5833333333335,110.92708333333334,812.0000000000001,110.9175C814.4166666666667,110.90791666666667,816.8333333333333,110.89833333333334,819.2499999999999,110.88875C821.6666666666665,110.87916666666666,824.0833333333333,110.86958333333334,826.4999999999999,110.86C828.9166666666665,110.85041666666666,831.3333333333333,110.84083333333332,833.7499999999999,110.83125C836.1666666666665,110.82166666666667,838.5833333333333,110.81208333333333,840.9999999999999,110.80250000000001C843.4166666666666,110.79291666666667,845.8333333333333,110.78333333333335,848.25,110.77375C850.6666666666666,110.76416666666667,853.0833333333334,110.75458333333333,855.5,110.74499999999999C857.9166666666666,110.73541666666665,860.3333333333334,110.72583333333333,862.75,110.71625C865.1666666666666,110.70666666666668,867.5833333333334,110.69708333333332,870,110.6875C872.4166666666666,110.67791666666668,874.8333333333334,110.66833333333335,877.25,110.65875000000001C879.6666666666666,110.64916666666667,882.0833333333334,110.63958333333333,884.5,110.63C886.9166666666666,110.62041666666666,889.3333333333334,110.61083333333332,891.75,110.60125C894.1666666666666,110.59166666666667,896.5833333333334,110.58208333333333,899,110.5725C901.4166666666666,110.56291666666668,903.8333333333334,110.55333333333334,906.25,110.54375C908.6666666666666,110.53416666666666,911.0833333333334,110.52458333333334,913.5,110.515C915.9166666666666,110.50541666666666,918.3333333333334,110.49583333333334,920.75,110.48625C923.1666666666666,110.47666666666666,925.5833333333334,110.46708333333332,928,110.4575C930.4166666666666,110.44791666666667,932.8333333333334,110.43833333333335,935.25,110.42875000000001C937.6666666666666,110.41916666666667,940.0833333333334,110.40958333333333,942.5,110.39999999999999C944.9166666666666,110.39041666666665,947.3333333333334,110.38083333333333,949.75,110.37125C952.1666666666666,110.36166666666668,954.5833333333334,110.35208333333334,957,110.3425C959.4166666666666,110.33291666666666,961.8333333333334,110.32333333333334,964.25,110.31375C966.6666666666667,110.30416666666666,969.0833333333334,110.29458333333334,971.5000000000001,110.285C973.9166666666667,110.27541666666666,976.3333333333335,110.26583333333332,978.7500000000001,110.25625C981.1666666666667,110.24666666666667,983.5833333333335,110.23708333333333,986.0000000000001,110.2275C988.4166666666667,110.21791666666668,990.8333333333335,110.20833333333334,993.2500000000001,110.19875C995.6666666666667,110.18916666666667,998.0833333333333,110.17958333333334,1000.4999999999999,110.17C1002.9166666666665,110.16041666666666,1005.3333333333333,110.15083333333334,1007.7499999999999,110.14125C1010.1666666666665,110.13166666666666,1012.5833333333333,110.13166666666666,1014.9999999999999,110.1125C1017.4166666666665,110.09333333333333,1019.8333333333333,109.15416666666665,1022.2499999999999,108.675C1024.6666666666665,108.19583333333333,1027.0833333333333,107.71666666666667,1029.5,107.2375C1031.9166666666667,106.75833333333334,1034.3333333333333,106.27916666666668,1036.75,105.80000000000001C1039.1666666666667,105.32083333333334,1041.5833333333333,104.84166666666667,1044,104.3625C1046.4166666666667,103.88333333333333,1048.8333333333333,103.40416666666665,1051.25,102.925C1053.6666666666667,102.44583333333334,1056.0833333333333,101.96666666666668,1058.5,101.48750000000001C1060.9166666666667,101.00833333333334,1063.3333333333333,100.52916666666667,1065.75,100.05C1068.1666666666667,99.57083333333333,1070.5833333333333,99.09166666666668,1073,98.61250000000001C1075.4166666666667,98.13333333333334,1077.8333333333333,97.65416666666667,1080.25,97.175C1082.6666666666667,96.69583333333333,1085.0833333333333,96.21666666666665,1087.5,95.7375C1089.9166666666667,95.25833333333334,1092.3333333333333,94.77916666666668,1094.75,94.30000000000001C1097.1666666666667,93.82083333333334,1099.5833333333333,93.34166666666667,1102,92.8625C1104.4166666666667,92.38333333333333,1106.8333333333333,91.90416666666668,1109.25,91.42500000000001C1111.6666666666667,90.94583333333334,1114.0833333333333,90.46666666666667,1116.5,89.9875C1118.9166666666667,89.50833333333333,1121.3333333333333,89.02916666666665,1123.75,88.55C1126.1666666666667,88.07083333333334,1128.5833333333333,87.59166666666668,1131,87.11250000000001C1133.4166666666667,86.63333333333334,1135.8333333333333,86.15416666666667,1138.25,85.675C1140.6666666666667,85.19583333333333,1143.0833333333333,84.71666666666667,1145.5,84.2375C1147.9166666666667,83.75833333333333,1150.3333333333333,83.27916666666667,1152.75,82.8C1155.1666666666667,82.32083333333333,1157.5833333333333,81.84166666666665,1160,81.3625C1162.4166666666667,80.88333333333334,1164.8333333333333,80.40416666666668,1167.25,79.92500000000001C1169.6666666666667,79.44583333333334,1172.0833333333333,78.96666666666667,1174.5,78.4875C1176.9166666666667,78.00833333333333,1179.3333333333333,77.52916666666667,1181.75,77.05C1184.1666666666667,76.57083333333333,1186.5833333333333,76.09166666666667,1189,75.6125C1191.4166666666667,75.13333333333333,1193.8333333333333,74.65416666666665,1196.25,74.175C1198.6666666666667,73.69583333333334,1201.0833333333333,73.21666666666668,1203.5,72.73750000000001C1205.9166666666667,72.25833333333334,1208.3333333333333,71.77916666666667,1210.75,71.3C1213.1666666666667,70.82083333333333,1215.5833333333333,70.34166666666667,1218,69.8625C1220.4166666666667,69.38333333333333,1222.8333333333333,68.90416666666667,1225.25,68.425C1227.6666666666667,67.94583333333333,1230.0833333333333,67.46666666666665,1232.5,66.9875C1234.9166666666667,66.50833333333334,1237.3333333333333,66.02916666666668,1239.75,65.55000000000001C1242.1666666666667,65.07083333333334,1244.5833333333333,64.59166666666667,1247,64.1125C1249.4166666666667,63.633333333333326,1251.8333333333333,63.154166666666654,1254.25,62.67499999999999C1256.6666666666667,62.195833333333326,1259.0833333333333,61.71666666666666,1261.5,61.2375C1263.9166666666667,60.75833333333333,1266.3333333333333,60.27916666666667,1268.75,59.800000000000004C1271.1666666666667,59.32083333333334,1273.5833333333333,58.84166666666667,1276,58.362500000000004C1278.4166666666667,57.88333333333334,1280.8333333333333,57.40416666666666,1283.25,56.925C1285.6666666666667,56.44583333333333,1288.0833333333333,55.96666666666667,1290.5,55.487500000000004C1292.9166666666667,55.00833333333334,1295.3333333333333,54.52916666666666,1297.75,54.05C1300.1666666666667,53.57083333333333,1302.5833333333333,53.09166666666667,1305,52.612500000000004C1307.4166666666667,52.13333333333334,1309.8333333333333,51.65416666666666,1312.25,51.175C1314.6666666666667,50.69583333333333,1317.0833333333333,50.21666666666666,1319.5,49.7375C1321.9166666666667,49.25833333333333,1324.3333333333333,48.77916666666667,1326.75,48.300000000000004C1329.1666666666667,47.82083333333334,1331.5833333333333,47.34166666666666,1334,46.8625C1336.4166666666667,46.38333333333333,1338.8333333333333,45.90416666666667,1341.25,45.425000000000004C1343.6666666666667,44.94583333333334,1346.0833333333333,44.46666666666666,1348.5,43.9875C1350.9166666666667,43.50833333333333,1353.3333333333333,43.02916666666666,1355.75,42.55C1358.1666666666667,42.07083333333333,1360.5833333333333,41.59166666666667,1363,41.112500000000004C1365.4166666666667,40.63333333333334,1367.8333333333333,40.15416666666666,1370.25,39.675C1372.6666666666667,39.19583333333333,1375.0833333333333,38.71666666666667,1377.5,38.237500000000004C1379.9166666666667,37.75833333333334,1382.3333333333333,37.27916666666666,1384.75,36.8C1387.1666666666667,36.32083333333333,1389.5833333333333,35.84166666666666,1392,35.3625C1394.4166666666667,34.88333333333333,1396.8333333333333,34.40416666666667,1399.25,33.925000000000004C1401.6666666666667,33.44583333333334,1404.0833333333333,32.96666666666666,1406.5,32.4875C1408.9166666666667,32.00833333333333,1411.3333333333333,31.52916666666667,1413.75,31.05C1416.1666666666667,30.570833333333333,1418.5833333333333,30.09166666666666,1421,29.612499999999994C1423.4166666666667,29.133333333333326,1425.8333333333333,28.654166666666665,1428.25,28.175C1430.6666666666667,27.695833333333336,1433.0833333333333,27.216666666666672,1435.5,26.737500000000004C1437.9166666666667,26.258333333333336,1440.3333333333333,25.779166666666665,1442.75,25.299999999999997C1445.1666666666667,24.82083333333333,1447.5833333333333,24.341666666666665,1450,23.8625" fill="transparent" stroke-linecap="round" stroke="#B6509E" stroke-width="2"></path><path class="visx-linepath" d="M0,110.11249999996714C2.4166666666666665,110.10702380950464,4.833333333333334,110.10154761904215,7.25,110.09607142857143C9.666666666666666,110.09059523810072,12.083333333333334,110.08511904761905,14.5,110.07964285714286C16.916666666666668,110.07416666666667,19.333333333333332,110.06869047619047,21.75,110.06321428571428C24.166666666666668,110.0577380952381,26.583333333333332,110.0522619047619,29,110.04678571428572C31.416666666666668,110.04130952380953,33.833333333333336,110.03583333333333,36.25,110.03035714285714C38.666666666666664,110.02488095238095,41.083333333333336,110.01940476190475,43.5,110.01392857142856C45.91666666666667,110.00845238095238,48.333333333333336,110.00297619047619,50.75000000000001,109.9975C53.16666666666667,109.99202380952381,55.583333333333336,109.98654761904763,58,109.98107142857144C60.416666666666664,109.97559523809525,62.833333333333336,109.97011904761904,65.25,109.96464285714285C67.66666666666667,109.95916666666666,70.08333333333333,109.95369047619047,72.5,109.94821428571429C74.91666666666667,109.9427380952381,77.33333333333333,109.93726190476191,79.75,109.93178571428572C82.16666666666667,109.92630952380954,84.58333333333333,109.92083333333332,87,109.91535714285713C89.41666666666667,109.90988095238095,91.83333333333333,109.90440476190476,94.25,109.89892857142857C96.66666666666667,109.89345238095238,99.08333333333334,109.8879761904762,101.50000000000001,109.88250000000001C103.91666666666667,109.87702380952382,106.33333333333334,109.87154761904762,108.75,109.86607142857143C111.16666666666667,109.86059523809524,113.58333333333333,109.85511904761904,116,109.84964285714285C118.41666666666667,109.84416666666667,120.83333333333334,109.83869047619048,123.25000000000001,109.83321428571429C125.66666666666667,109.8277380952381,128.08333333333334,109.8222619047619,130.5,109.81678571428571C132.91666666666666,109.81130952380953,135.33333333333334,109.80583333333333,137.75,109.80035714285714C140.16666666666666,109.79488095238095,142.58333333333334,109.78940476190476,145,109.78392857142858C147.41666666666666,109.77845238095239,149.83333333333334,109.77297619047619,152.25,109.7675C154.66666666666666,109.76202380952381,157.08333333333334,109.75654761904762,159.5,109.75107142857144C161.91666666666666,109.74559523809525,164.33333333333334,109.74011904761905,166.75,109.73464285714286C169.16666666666666,109.72916666666667,171.58333333333334,109.72369047619047,174,109.71821428571428C176.41666666666666,109.7127380952381,178.83333333333334,109.7072619047619,181.25,109.70178571428572C183.66666666666666,109.69630952380953,186.08333333333334,109.69083333333333,188.5,109.68535714285714C190.91666666666666,109.67988095238096,193.33333333333334,109.67440476190475,195.75,109.66892857142857C198.16666666666669,109.66345238095238,200.58333333333334,109.65797619047619,203.00000000000003,109.6525C205.41666666666669,109.64702380952382,207.83333333333331,109.64154761904763,210.24999999999997,109.63607142857144C212.66666666666666,109.63059523809525,215.08333333333331,109.62511904761904,217.5,109.61964285714285C219.91666666666666,109.61416666666666,222.33333333333334,109.60869047619047,224.75,109.60321428571429C227.16666666666666,109.5977380952381,229.58333333333334,109.59226190476191,232,109.58678571428572C234.41666666666666,109.58130952380954,236.83333333333334,109.57583333333332,239.25,109.57035714285713C241.66666666666669,109.56488095238095,244.08333333333334,109.55940476190476,246.50000000000003,109.55392857142857C248.91666666666669,109.54845238095238,251.33333333333331,109.5429761904762,253.74999999999997,109.53750000000001C256.16666666666663,109.53202380952382,258.5833333333333,109.52654761904762,261,109.52107142857143C263.4166666666667,109.51559523809524,265.8333333333333,109.51011904761904,268.25,109.50464285714285C270.6666666666667,109.49916666666667,273.0833333333333,109.49369047619048,275.5,109.48821428571429C277.9166666666667,109.4827380952381,280.3333333333333,109.4772619047619,282.75,109.47178571428572C285.1666666666667,109.46630952380953,287.5833333333333,109.46083333333333,290,109.45535714285714C292.4166666666667,109.44988095238095,294.8333333333333,109.44440476190476,297.25,109.43892857142858C299.6666666666667,109.43345238095239,302.0833333333333,109.42797619047619,304.5,109.4225C306.9166666666667,109.41702380952381,309.3333333333333,109.41154761904762,311.75,109.40607142857144C314.1666666666667,109.40059523809525,316.5833333333333,109.39511904761905,319,109.38964285714286C321.4166666666667,109.38416666666667,323.8333333333333,109.37869047619047,326.25,109.37321428571428C328.6666666666667,109.3677380952381,331.0833333333333,109.36226190476191,333.5,109.35678571428572C335.9166666666667,109.35130952380953,338.3333333333333,109.34583333333333,340.75,109.34035714285714C343.1666666666667,109.33488095238096,345.5833333333333,109.32940476190475,348,109.32392857142857C350.4166666666667,109.31845238095238,352.8333333333333,109.31297619047619,355.25,109.3075C357.6666666666667,109.30202380952382,360.0833333333333,109.29654761904762,362.5,109.29107142857143C364.9166666666667,109.28559523809524,367.3333333333333,109.28011904761904,369.75,109.27464285714285C372.1666666666667,109.26916666666666,374.5833333333333,109.26369047619048,377,109.25821428571429C379.4166666666667,109.2527380952381,381.8333333333333,109.2472619047619,384.25,109.24178571428571C386.6666666666667,109.23630952380952,389.0833333333333,109.23083333333332,391.5,109.22535714285713C393.9166666666667,109.21988095238095,396.33333333333337,109.21440476190476,398.75000000000006,109.20892857142857C401.16666666666674,109.20345238095238,403.58333333333337,109.19797619047618,406.00000000000006,109.1925C408.4166666666667,109.18702380952381,410.8333333333333,109.18154761904762,413.24999999999994,109.17607142857143C415.66666666666663,109.17059523809525,418.08333333333326,109.16511904761904,420.49999999999994,109.15964285714286C422.91666666666663,109.15416666666667,425.3333333333333,109.14869047619047,427.75,109.14321428571428C430.1666666666667,109.13773809523809,432.5833333333333,109.1322619047619,435,109.12678571428572C437.4166666666667,109.12130952380953,439.8333333333333,109.11583333333334,442.25,109.11035714285715C444.6666666666667,109.10488095238097,447.0833333333333,109.09940476190475,449.5,109.09392857142856C451.9166666666667,109.08845238095238,454.3333333333333,109.08297619047619,456.75,109.0775C459.1666666666667,109.07202380952381,461.5833333333333,109.06654761904763,464,109.06107142857144C466.4166666666667,109.05559523809525,468.8333333333333,109.05011904761903,471.25,109.04464285714285C473.6666666666667,109.03916666666666,476.0833333333333,109.03369047619047,478.5,109.02821428571428C480.9166666666667,109.0227380952381,483.33333333333337,109.01726190476191,485.75000000000006,109.01178571428572C488.16666666666674,109.00630952380953,490.58333333333337,109.00083333333332,493.00000000000006,108.99535714285713C495.4166666666667,108.98988095238094,497.8333333333333,108.98440476190476,500.24999999999994,108.97892857142857C502.66666666666663,108.97345238095238,505.08333333333326,108.9679761904762,507.49999999999994,108.9625C509.91666666666663,108.95702380952382,512.3333333333333,108.95154761904762,514.75,108.94607142857143C517.1666666666666,108.94059523809524,519.5833333333334,108.93511904761904,522,108.92964285714285C524.4166666666666,108.92416666666666,526.8333333333334,108.91869047619048,529.25,108.91321428571429C531.6666666666666,108.9077380952381,534.0833333333334,108.9022619047619,536.5,108.89678571428571C538.9166666666666,108.89130952380953,541.3333333333334,108.88583333333334,543.75,108.88035714285715C546.1666666666666,108.87488095238096,548.5833333333334,108.86940476190476,551,108.86392857142857C553.4166666666666,108.85845238095239,555.8333333333334,108.85297619047618,558.25,108.8475C560.6666666666666,108.84202380952381,563.0833333333334,108.83654761904762,565.5,108.83107142857143C567.9166666666666,108.82559523809525,570.3333333333334,108.82011904761904,572.75,108.81464285714286C575.1666666666666,108.80916666666667,577.5833333333334,108.80369047619047,580,108.79821428571428C582.4166666666666,108.7927380952381,584.8333333333334,108.7872619047619,587.25,108.78178571428572C589.6666666666666,108.77630952380953,592.0833333333334,108.77083333333333,594.5,108.76535714285714C596.9166666666666,108.75988095238095,599.3333333333334,108.75440476190475,601.75,108.74892857142856C604.1666666666666,108.74345238095238,606.5833333333334,108.73797619047619,609,108.7325C611.4166666666666,108.72702380952381,613.8333333333334,108.72154761904763,616.25,108.71607142857144C618.6666666666666,108.71059523809525,621.0833333333334,108.70511904761904,623.5,108.69964285714285C625.9166666666666,108.69416666666666,628.3333333333334,108.68869047619047,630.75,108.68321428571429C633.1666666666666,108.6777380952381,635.5833333333334,108.67226190476191,638,108.66678571428572C640.4166666666666,108.66130952380954,642.8333333333334,108.65583333333333,645.25,108.65035714285715C647.6666666666666,108.64488095238096,650.0833333333334,108.63940476190476,652.5,108.63392857142857C654.9166666666666,108.62845238095238,657.3333333333334,108.6229761904762,659.75,108.6175C662.1666666666666,108.61202380952382,664.5833333333334,108.60654761904762,667,108.60107142857143C669.4166666666666,108.59559523809524,671.8333333333334,108.59011904761904,674.25,108.58464285714285C676.6666666666666,108.57916666666667,679.0833333333334,108.57369047619048,681.5,108.56821428571429C683.9166666666666,108.5627380952381,686.3333333333334,108.5572619047619,688.75,108.55178571428571C691.1666666666666,108.54630952380953,693.5833333333334,108.54083333333332,696,108.53535714285714C698.4166666666666,108.52988095238095,700.8333333333334,108.52440476190476,703.25,108.51892857142857C705.6666666666666,108.51345238095239,708.0833333333334,108.50797619047619,710.5,108.5025C712.9166666666666,108.49702380952381,715.3333333333334,108.49154761904762,717.75,108.48607142857144C720.1666666666666,108.48059523809525,722.5833333333334,108.47511904761905,725,108.46964285714286C727.4166666666666,108.46416666666667,729.8333333333334,108.45869047619047,732.25,108.45321428571428C734.6666666666666,108.4477380952381,737.0833333333334,108.4422619047619,739.5,108.43678571428572C741.9166666666666,108.43130952380953,744.3333333333334,108.42583333333333,746.75,108.42035714285714C749.1666666666666,108.41488095238095,751.5833333333334,108.40940476190475,754,108.40392857142857C756.4166666666666,108.39845238095238,758.8333333333334,108.39297619047619,761.25,108.3875C763.6666666666666,108.38202380952382,766.0833333333334,108.37654761904761,768.5,108.37107142857143C770.9166666666666,108.36559523809524,773.3333333333334,108.36011904761904,775.75,108.35464285714285C778.1666666666666,108.34916666666666,780.5833333333334,108.34369047619047,783,108.33821428571429C785.4166666666667,108.3327380952381,787.8333333333334,108.3272619047619,790.2500000000001,108.32178571428571C792.6666666666667,108.31630952380952,795.0833333333335,108.31083333333333,797.5000000000001,108.30535714285715C799.9166666666667,108.29988095238096,802.3333333333335,108.29440476190476,804.7500000000001,108.28892857142857C807.1666666666667,108.28345238095238,809.5833333333335,108.27797619047618,812.0000000000001,108.2725C814.4166666666667,108.2670238095238,816.8333333333333,108.26154761904762,819.2499999999999,108.25607142857143C821.6666666666665,108.25059523809524,824.0833333333333,108.24511904761904,826.4999999999999,108.23964285714285C828.9166666666665,108.23416666666667,831.3333333333333,108.22869047619047,833.7499999999999,108.22321428571428C836.1666666666665,108.21773809523809,838.5833333333333,108.2122619047619,840.9999999999999,108.20678571428572C843.4166666666666,108.20130952380953,845.8333333333333,108.19583333333334,848.25,108.19035714285715C850.6666666666666,108.18488095238096,853.0833333333334,108.17940476190475,855.5,108.17392857142856C857.9166666666666,108.16845238095237,860.3333333333334,108.16297619047619,862.75,108.1575C865.1666666666666,108.15202380952381,867.5833333333334,108.14654761904762,870,108.14107142857144C872.4166666666666,108.13559523809525,874.8333333333334,108.13011904761903,877.25,108.12464285714285C879.6666666666666,108.11916666666666,882.0833333333334,108.11369047619047,884.5,108.10821428571428C886.9166666666666,108.1027380952381,889.3333333333334,108.09726190476191,891.75,108.09178571428572C894.1666666666666,108.08630952380953,896.5833333333334,108.08083333333333,899,108.07535714285714C901.4166666666666,108.06988095238096,903.8333333333334,108.06440476190475,906.25,108.05892857142857C908.6666666666666,108.05345238095238,911.0833333333334,108.04797619047619,913.5,108.0425C915.9166666666666,108.03702380952382,918.3333333333334,108.03154761904761,920.75,108.02607142857143C923.1666666666666,108.02059523809524,925.5833333333334,108.01511904761904,928,108.00964285714285C930.4166666666666,108.00416666666666,932.8333333333334,107.99869047619048,935.25,107.99321428571429C937.6666666666666,107.9877380952381,940.0833333333334,107.9822619047619,942.5,107.97678571428571C944.9166666666666,107.97130952380952,947.3333333333334,107.96583333333334,949.75,107.96035714285715C952.1666666666666,107.95488095238096,954.5833333333334,107.94940476190476,957,107.94392857142857C959.4166666666666,107.93845238095238,961.8333333333334,107.93297619047618,964.25,107.9275C966.6666666666667,107.92202380952381,969.0833333333334,107.91654761904762,971.5000000000001,107.91107142857143C973.9166666666667,107.90559523809524,976.3333333333335,107.90011904761904,978.7500000000001,107.89464285714286C981.1666666666667,107.88916666666667,983.5833333333335,107.88369047619047,986.0000000000001,107.87821428571428C988.4166666666667,107.87273809523809,990.8333333333335,107.8672619047619,993.2500000000001,107.86178571428572C995.6666666666667,107.85630952380953,998.0833333333333,107.85083333333334,1000.4999999999999,107.84535714285715C1002.9166666666665,107.83988095238097,1005.3333333333333,107.83440476190475,1007.7499999999999,107.82892857142856C1010.1666666666665,107.82345238095238,1012.5833333333333,107.82345238095238,1014.9999999999999,107.8125C1017.4166666666665,107.80154761904762,1019.8333333333333,106.85416666666666,1022.2499999999999,106.375C1024.6666666666665,105.89583333333333,1027.0833333333333,105.41666666666667,1029.5,104.9375C1031.9166666666667,104.45833333333334,1034.3333333333333,103.97916666666667,1036.75,103.5C1039.1666666666667,103.02083333333333,1041.5833333333333,102.54166666666667,1044,102.0625C1046.4166666666667,101.58333333333333,1048.8333333333333,101.10416666666667,1051.25,100.625C1053.6666666666667,100.14583333333333,1056.0833333333333,99.66666666666667,1058.5,99.1875C1060.9166666666667,98.70833333333333,1063.3333333333333,98.22916666666667,1065.75,97.75C1068.1666666666667,97.27083333333333,1070.5833333333333,96.79166666666667,1073,96.3125C1075.4166666666667,95.83333333333333,1077.8333333333333,95.35416666666667,1080.25,94.875C1082.6666666666667,94.39583333333333,1085.0833333333333,93.91666666666667,1087.5,93.4375C1089.9166666666667,92.95833333333333,1092.3333333333333,92.47916666666667,1094.75,92C1097.1666666666667,91.52083333333333,1099.5833333333333,91.04166666666667,1102,90.5625C1104.4166666666667,90.08333333333333,1106.8333333333333,89.60416666666667,1109.25,89.125C1111.6666666666667,88.64583333333333,1114.0833333333333,88.16666666666667,1116.5,87.6875C1118.9166666666667,87.20833333333333,1121.3333333333333,86.72916666666667,1123.75,86.25C1126.1666666666667,85.77083333333333,1128.5833333333333,85.29166666666667,1131,84.8125C1133.4166666666667,84.33333333333333,1135.8333333333333,83.85416666666667,1138.25,83.375C1140.6666666666667,82.89583333333333,1143.0833333333333,82.41666666666667,1145.5,81.9375C1147.9166666666667,81.45833333333333,1150.3333333333333,80.97916666666667,1152.75,80.5C1155.1666666666667,80.02083333333333,1157.5833333333333,79.54166666666667,1160,79.0625C1162.4166666666667,78.58333333333333,1164.8333333333333,78.10416666666667,1167.25,77.625C1169.6666666666667,77.14583333333333,1172.0833333333333,76.66666666666667,1174.5,76.1875C1176.9166666666667,75.70833333333333,1179.3333333333333,75.22916666666667,1181.75,74.75C1184.1666666666667,74.27083333333333,1186.5833333333333,73.79166666666667,1189,73.3125C1191.4166666666667,72.83333333333333,1193.8333333333333,72.35416666666667,1196.25,71.875C1198.6666666666667,71.39583333333333,1201.0833333333333,70.91666666666667,1203.5,70.4375C1205.9166666666667,69.95833333333333,1208.3333333333333,69.47916666666667,1210.75,69C1213.1666666666667,68.52083333333333,1215.5833333333333,68.04166666666667,1218,67.5625C1220.4166666666667,67.08333333333333,1222.8333333333333,66.60416666666667,1225.25,66.125C1227.6666666666667,65.64583333333333,1230.0833333333333,65.16666666666667,1232.5,64.6875C1234.9166666666667,64.20833333333333,1237.3333333333333,63.72916666666667,1239.75,63.25000000000001C1242.1666666666667,62.77083333333334,1244.5833333333333,62.291666666666664,1247,61.8125C1249.4166666666667,61.333333333333336,1251.8333333333333,60.854166666666664,1254.25,60.375C1256.6666666666667,59.895833333333336,1259.0833333333333,59.41666666666666,1261.5,58.93749999999999C1263.9166666666667,58.45833333333333,1266.3333333333333,57.979166666666664,1268.75,57.5C1271.1666666666667,57.020833333333336,1273.5833333333333,56.54166666666667,1276,56.06250000000001C1278.4166666666667,55.58333333333334,1280.8333333333333,55.104166666666664,1283.25,54.625C1285.6666666666667,54.145833333333336,1288.0833333333333,53.666666666666664,1290.5,53.1875C1292.9166666666667,52.708333333333336,1295.3333333333333,52.22916666666666,1297.75,51.74999999999999C1300.1666666666667,51.27083333333333,1302.5833333333333,50.791666666666664,1305,50.3125C1307.4166666666667,49.833333333333336,1309.8333333333333,49.35416666666667,1312.25,48.87500000000001C1314.6666666666667,48.39583333333334,1317.0833333333333,47.916666666666664,1319.5,47.4375C1321.9166666666667,46.958333333333336,1324.3333333333333,46.479166666666664,1326.75,46C1329.1666666666667,45.520833333333336,1331.5833333333333,45.04166666666666,1334,44.56249999999999C1336.4166666666667,44.08333333333333,1338.8333333333333,43.604166666666664,1341.25,43.125C1343.6666666666667,42.645833333333336,1346.0833333333333,42.16666666666667,1348.5,41.68750000000001C1350.9166666666667,41.20833333333334,1353.3333333333333,40.729166666666664,1355.75,40.25C1358.1666666666667,39.770833333333336,1360.5833333333333,39.291666666666664,1363,38.8125C1365.4166666666667,38.333333333333336,1367.8333333333333,37.85416666666666,1370.25,37.37499999999999C1372.6666666666667,36.89583333333333,1375.0833333333333,36.416666666666664,1377.5,35.9375C1379.9166666666667,35.458333333333336,1382.3333333333333,34.97916666666667,1384.75,34.50000000000001C1387.1666666666667,34.02083333333334,1389.5833333333333,33.541666666666664,1392,33.0625C1394.4166666666667,32.583333333333336,1396.8333333333333,32.10416666666667,1399.25,31.625000000000004C1401.6666666666667,31.145833333333336,1404.0833333333333,30.666666666666664,1406.5,30.187499999999996C1408.9166666666667,29.70833333333333,1411.3333333333333,29.229166666666664,1413.75,28.75C1416.1666666666667,28.270833333333336,1418.5833333333333,27.79166666666667,1421,27.312500000000004C1423.4166666666667,26.833333333333336,1425.8333333333333,26.354166666666664,1428.25,25.874999999999996C1430.6666666666667,25.39583333333333,1433.0833333333333,24.91666666666667,1435.5,24.437500000000004C1437.9166666666667,23.958333333333336,1440.3333333333333,23.479166666666664,1442.75,22.999999999999996C1445.1666666666667,22.52083333333333,1447.5833333333333,22.041666666666664,1450,21.5625" fill="transparent" stroke-linecap="round" stroke="#E7C6DF" stroke-width="2"></path><g class="visx-group visx-axis visx-axis-bottom" transform="translate(0, 115)"><g class="visx-group visx-axis-tick" transform="translate(0, 0)"><line class="visx-line" x1="0" y1="0" x2="0" y2="8" fill="transparent" shape-rendering="crispEdges" stroke="#000" stroke-width="0" stroke-linecap="square"></line><svg x="0" y="0" font-size="10" style="overflow:visible"><text transform="" x="0" y="18" fill="#000" font-size="10" text-anchor="middle"><tspan x="0" dy="0em">0%</tspan></text></svg></g><g class="visx-group visx-axis-tick" transform="translate(0, 0)"><line class="visx-line" x1="362.5" y1="0" x2="362.5" y2="8" fill="transparent" shape-rendering="crispEdges" stroke="#000" stroke-width="0" stroke-linecap="square"></line><svg x="0" y="0" font-size="10" style="overflow:visible"><text transform="" x="362.5" y="18" fill="#000" font-size="10" text-anchor="middle"><tspan x="362.5" dy="0em">25%</tspan></text></svg></g><g class="visx-group visx-axis-tick" transform="translate(0, 0)"><line class="visx-line" x1="725" y1="0" x2="725" y2="8" fill="transparent" shape-rendering="crispEdges" stroke="#000" stroke-width="0" stroke-linecap="square"></line><svg x="0" y="0" font-size="10" style="overflow:visible"><text transform="" x="725" y="18" fill="#000" font-size="10" text-anchor="middle"><tspan x="725" dy="0em">50%</tspan></text></svg></g><g class="visx-group visx-axis-tick" transform="translate(0, 0)"><line class="visx-line" x1="1087.5" y1="0" x2="1087.5" y2="8" fill="transparent" shape-rendering="crispEdges" stroke="#000" stroke-width="0" stroke-linecap="square"></line><svg x="0" y="0" font-size="10" style="overflow:visible"><text transform="" x="1087.5" y="18" fill="#000" font-size="10" text-anchor="middle"><tspan x="1087.5" dy="0em">75%</tspan></text></svg></g><g class="visx-group visx-axis-tick" transform="translate(0, 0)"><line class="visx-line" x1="1450" y1="0" x2="1450" y2="8" fill="transparent" shape-rendering="crispEdges" stroke="#000" stroke-width="0" stroke-linecap="square"></line><svg x="0" y="0" font-size="10" style="overflow:visible"><text transform="" x="1450" y="18" fill="#000" font-size="10" text-anchor="middle"><tspan x="1450" dy="0em">100%</tspan></text></svg></g><line class="visx-line visx-axis-line" x1="0.5" y1="0" x2="1450.5" y2="0" fill="transparent" shape-rendering="crispEdges" stroke="#222" stroke-width="0"></line></g><g class="visx-group visx-axis visx-axis-left" transform="translate(0, 0)"><g class="visx-group visx-axis-tick" transform="translate(0, 0)"><line class="visx-line" x1="0" y1="115" x2="-8" y2="115" fill="transparent" shape-rendering="crispEdges" stroke="#222" stroke-width="0" stroke-linecap="square"></line><svg x="-30" y="0" font-size="8" style="overflow:visible"><text transform="" x="-8" y="115" fill="#000" font-size="8" text-anchor="start"><tspan x="-8" dy="0em">0%</tspan></text></svg></g><g class="visx-group visx-axis-tick" transform="translate(0, 0)"><line class="visx-line" x1="0" y1="57.5" x2="-8" y2="57.5" fill="transparent" shape-rendering="crispEdges" stroke="#222" stroke-width="0" stroke-linecap="square"></line><svg x="-30" y="0" font-size="8" style="overflow:visible"><text transform="" x="-8" y="57.5" fill="#000" font-size="8" text-anchor="start"><tspan x="-8" dy="0em">200%</tspan></text></svg></g><g class="visx-group visx-axis-tick" transform="translate(0, 0)"><line class="visx-line" x1="0" y1="0" x2="-8" y2="0" fill="transparent" shape-rendering="crispEdges" stroke="#222" stroke-width="0" stroke-linecap="square"></line><svg x="-30" y="0" font-size="8" style="overflow:visible"><text transform="" x="-8" y="0" fill="#000" font-size="8" text-anchor="start"><tspan x="-8" dy="0em">400%</tspan></text></svg></g><line class="visx-line visx-axis-line" x1="0" y1="115.5" x2="0" y2="0.5" fill="transparent" shape-rendering="crispEdges" stroke="#222" stroke-width="0"></line></g><rect class="visx-bar" width="1450" height="115" fill="transparent"></rect><line class="visx-line" x1="1014.9999999999999" y1="28" x2="1014.9999999999999" y2="115" fill="transparent" shape-rendering="crispEdges" stroke="#0062D2" stroke-width="1" pointer-events="none" stroke-dasharray="5,2"></line><svg x="0" y="0" font-size="10px" style="overflow:visible"><text transform="" x="1014.9999999999999" y="20" font-size="10px" fill="#fff" stroke="#fff" stroke-width="0.8em" text-anchor="middle"><tspan x="1014.9999999999999" dy="0.355em">Optimal 70%</tspan></text></svg><svg x="0" y="0" font-size="10px" style="overflow:visible"><text transform="" x="1014.9999999999999" y="20" font-size="10px" fill="#62677B" text-anchor="middle"><tspan x="1014.9999999999999" dy="0.355em">Optimal 70%</tspan></text></svg></g></svg>