<?xml version="1.0"?><svg xmlns="http://www.w3.org/2000/svg" xmlns:xlink= "http://www.w3.org/1999/xlink" style="background: white;" width="1500" height="185"> <g style="color: black; font-size: 13px; font-family: sans-serif; transform: translate(18px, 25px);"><g><circle r="3" cx="-6" cy="-5" style="fill: #B6509E" /><text>Borrow APR, variable</text></g><g style="transform: translateX(150px);"><circle r="3" cx="-6" cy="-5" style="fill: rgb(231, 198, 223)" /><text>Borrow APR, stable</text></g><g style="transform: translateX(290px);"><circle r="3" cx="-6" cy="-5" style="fill: rgb(0, 98, 210)" /><text>Utilization Rate</text></g></g><g class="visx-group" transform="translate(40, 50)"><g class="visx-group visx-rows" transform="translate(0, 0)"><line class="visx-line" x1="0" y1="115" x2="1450" y2="115" fill="transparent" shape-rendering="crispEdges" stroke="#000" stroke-width="1" stroke-dasharray="3,3" pointer-events="none"></line><line class="visx-line" x1="0" y1="57.5" x2="1450" y2="57.5" fill="transparent" shape-rendering="crispEdges" stroke="#000" stroke-width="1" stroke-dasharray="3,3" pointer-events="none"></line><line class="visx-line" x1="0" y1="0" x2="1450" y2="0" fill="transparent" shape-rendering="crispEdges" stroke="#000" stroke-width="1" stroke-dasharray="3,3" pointer-events="none"></line></g><path class="visx-linepath" d="M0,114.712499999885C2.4166666666666665,114.69333333326625,4.833333333333334,114.6741666666475,7.25,114.655C9.666666666666666,114.63583333335251,12.083333333333334,114.61666666666667,14.5,114.59750000000001C16.916666666666668,114.57833333333335,19.333333333333332,114.55916666666667,21.75,114.54C24.166666666666668,114.52083333333334,26.583333333333332,114.50166666666667,29,114.4825C31.416666666666668,114.46333333333334,33.833333333333336,114.44416666666666,36.25,114.425C38.666666666666664,114.40583333333333,41.083333333333336,114.38666666666667,43.5,114.3675C45.91666666666667,114.34833333333334,48.333333333333336,114.32916666666667,50.75000000000001,114.31C53.16666666666667,114.29083333333334,55.583333333333336,114.27166666666668,58,114.25250000000001C60.416666666666664,114.23333333333335,62.833333333333336,114.21416666666666,65.25,114.195C67.66666666666667,114.17583333333333,70.08333333333333,114.15666666666667,72.5,114.1375C74.91666666666667,114.11833333333334,77.33333333333333,114.09916666666666,79.75,114.08C82.16666666666667,114.06083333333333,84.58333333333333,114.04166666666667,87,114.02250000000001C89.41666666666667,114.00333333333334,91.83333333333333,113.98416666666667,94.25,113.965C96.66666666666667,113.94583333333334,99.08333333333334,113.92666666666666,101.50000000000001,113.9075C103.91666666666667,113.88833333333334,106.33333333333334,113.86916666666666,108.75,113.85C111.16666666666667,113.83083333333333,113.58333333333333,113.81166666666667,116,113.7925C118.41666666666667,113.77333333333334,120.83333333333334,113.75416666666666,123.25000000000001,113.735C125.66666666666667,113.71583333333334,128.08333333333334,113.69666666666667,130.5,113.67750000000001C132.91666666666666,113.65833333333335,135.33333333333334,113.63916666666667,137.75,113.62C140.16666666666666,113.60083333333334,142.58333333333334,113.58166666666666,145,113.5625C147.41666666666666,113.54333333333334,149.83333333333334,113.52416666666666,152.25,113.505C154.66666666666666,113.48583333333333,157.08333333333334,113.46666666666667,159.5,113.4475C161.91666666666666,113.42833333333334,164.33333333333334,113.40916666666666,166.75,113.39C169.16666666666666,113.37083333333334,171.58333333333334,113.35166666666667,174,113.33250000000001C176.41666666666666,113.31333333333335,178.83333333333334,113.29416666666665,181.25,113.27499999999999C183.66666666666666,113.25583333333333,186.08333333333334,113.23666666666666,188.5,113.2175C190.91666666666666,113.19833333333334,193.33333333333334,113.17916666666666,195.75,113.16C198.16666666666669,113.14083333333333,200.58333333333334,113.12166666666667,203.00000000000003,113.1025C205.41666666666669,113.08333333333334,207.83333333333331,113.06416666666667,210.24999999999997,113.045C212.66666666666666,113.02583333333334,215.08333333333331,113.00666666666667,217.5,112.98750000000001C219.91666666666666,112.96833333333335,222.33333333333334,112.94916666666666,224.75,112.92999999999999C227.16666666666666,112.91083333333333,229.58333333333334,112.89166666666667,232,112.8725C234.41666666666666,112.85333333333334,236.83333333333334,112.83416666666666,239.25,112.815C241.66666666666669,112.79583333333333,244.08333333333334,112.77666666666667,246.50000000000003,112.75750000000001C248.91666666666669,112.73833333333334,251.33333333333331,112.71916666666667,253.74999999999997,112.7C256.16666666666663,112.68083333333334,258.5833333333333,112.66166666666666,261,112.6425C263.4166666666667,112.62333333333333,265.8333333333333,112.60416666666666,268.25,112.585C270.6666666666667,112.56583333333333,273.0833333333333,112.54666666666667,275.5,112.5275C277.9166666666667,112.50833333333334,280.3333333333333,112.48916666666666,282.75,112.47C285.1666666666667,112.45083333333334,287.5833333333333,112.43166666666667,290,112.41250000000001C292.4166666666667,112.39333333333335,294.8333333333333,112.37416666666667,297.25,112.355C299.6666666666667,112.33583333333334,302.0833333333333,112.31666666666666,304.5,112.2975C306.9166666666667,112.27833333333334,309.3333333333333,112.25916666666666,311.75,112.24C314.1666666666667,112.22083333333333,316.5833333333333,112.20166666666667,319,112.1825C321.4166666666667,112.16333333333334,323.8333333333333,112.14416666666666,326.25,112.125C328.6666666666667,112.10583333333334,331.0833333333333,112.08666666666667,333.5,112.06750000000001C335.9166666666667,112.04833333333335,338.3333333333333,112.02916666666665,340.75,112.00999999999999C343.1666666666667,111.99083333333333,345.5833333333333,111.97166666666666,348,111.9525C350.4166666666667,111.93333333333334,352.8333333333333,111.91416666666666,355.25,111.895C357.6666666666667,111.87583333333333,360.0833333333333,111.85666666666667,362.5,111.8375C364.9166666666667,111.81833333333334,367.3333333333333,111.79916666666666,369.75,111.78C372.1666666666667,111.76083333333334,374.5833333333333,111.74166666666666,377,111.7225C379.4166666666667,111.70333333333333,381.8333333333333,111.68416666666666,384.25,111.66499999999999C386.6666666666667,111.64583333333333,389.0833333333333,111.62666666666667,391.5,111.6075C393.9166666666667,111.58833333333334,396.33333333333337,111.56916666666666,398.75000000000006,111.55C401.16666666666674,111.53083333333333,403.58333333333337,111.51166666666667,406.00000000000006,111.4925C408.4166666666667,111.47333333333334,410.8333333333333,111.45416666666667,413.24999999999994,111.435C415.66666666666663,111.41583333333334,418.08333333333326,111.39666666666666,420.49999999999994,111.3775C422.91666666666663,111.35833333333333,425.3333333333333,111.33916666666666,427.75,111.32C430.1666666666667,111.30083333333333,432.5833333333333,111.28166666666667,435,111.2625C437.4166666666667,111.24333333333334,439.8333333333333,111.22416666666666,442.25,111.205C444.6666666666667,111.18583333333333,447.0833333333333,111.16666666666667,449.5,111.14750000000001C451.9166666666667,111.12833333333334,454.3333333333333,111.10916666666667,456.75,111.09C459.1666666666667,111.07083333333334,461.5833333333333,111.05166666666666,464,111.0325C466.4166666666667,111.01333333333334,468.8333333333333,110.99416666666666,471.25,110.975C473.6666666666667,110.95583333333333,476.0833333333333,110.93666666666667,478.5,110.9175C480.9166666666667,110.89833333333334,483.33333333333337,110.87916666666666,485.75000000000006,110.86C488.16666666666674,110.84083333333334,490.58333333333337,110.82166666666667,493.00000000000006,110.80250000000001C495.4166666666667,110.78333333333335,497.8333333333333,110.76416666666665,500.24999999999994,110.74499999999999C502.66666666666663,110.72583333333333,505.08333333333326,110.70666666666666,507.49999999999994,110.6875C509.91666666666663,110.66833333333334,512.3333333333333,110.64916666666666,514.75,110.63C517.1666666666666,110.61083333333333,519.5833333333334,110.59166666666667,522,110.5725C524.4166666666666,110.55333333333334,526.8333333333334,110.53416666666666,529.25,110.515C531.6666666666666,110.49583333333334,534.0833333333334,110.47666666666666,536.5,110.4575C538.9166666666666,110.43833333333333,541.3333333333334,110.41916666666665,543.75,110.39999999999999C546.1666666666666,110.38083333333333,548.5833333333334,110.36166666666666,551,110.3425C553.4166666666666,110.32333333333334,555.8333333333334,110.30416666666666,558.25,110.285C560.6666666666666,110.26583333333333,563.0833333333334,110.24666666666667,565.5,110.2275C567.9166666666666,110.20833333333334,570.3333333333334,110.18916666666667,572.75,110.17C575.1666666666666,110.15083333333334,577.5833333333334,110.13166666666666,580,110.1125C582.4166666666666,110.09333333333333,584.8333333333334,110.07416666666666,587.25,110.05499999999999C589.6666666666666,110.03583333333333,592.0833333333334,110.01666666666667,594.5,109.9975C596.9166666666666,109.97833333333334,599.3333333333334,109.95916666666666,601.75,109.94C604.1666666666666,109.92083333333333,606.5833333333334,109.90166666666667,609,109.88250000000001C611.4166666666666,109.86333333333334,613.8333333333334,109.84416666666665,616.25,109.82499999999999C618.6666666666666,109.80583333333333,621.0833333333334,109.78666666666666,623.5,109.7675C625.9166666666666,109.74833333333333,628.3333333333334,109.72916666666666,630.75,109.71C633.1666666666666,109.69083333333333,635.5833333333334,109.67166666666667,638,109.6525C640.4166666666666,109.63333333333334,642.8333333333334,109.61416666666666,645.25,109.595C647.6666666666666,109.57583333333334,650.0833333333334,109.57583333333334,652.5,109.53750000000001C654.9166666666666,109.49916666666668,657.3333333333334,108.97992424242425,659.75,108.70113636363637C662.1666666666666,108.42234848484848,664.5833333333334,108.14356060606062,667,107.86477272727274C669.4166666666666,107.58598484848486,671.8333333333334,107.30719696969697,674.25,107.0284090909091C676.6666666666666,106.74962121212121,679.0833333333334,106.47083333333335,681.5,106.19204545454546C683.9166666666666,105.91325757575758,686.3333333333334,105.6344696969697,688.75,105.35568181818182C691.1666666666666,105.07689393939394,693.5833333333334,104.79810606060607,696,104.51931818181819C698.4166666666666,104.24053030303031,700.8333333333334,103.96174242424243,703.25,103.68295454545455C705.6666666666666,103.40416666666667,708.0833333333334,103.12537878787879,710.5,102.8465909090909C712.9166666666666,102.56780303030303,715.3333333333334,102.28901515151514,717.75,102.01022727272726C720.1666666666666,101.73143939393938,722.5833333333334,101.45265151515152,725,101.17386363636363C727.4166666666666,100.89507575757575,729.8333333333334,100.61628787878789,732.25,100.3375C734.6666666666666,100.05871212121212,737.0833333333334,99.77992424242424,739.5,99.50113636363636C741.9166666666666,99.22234848484848,744.3333333333334,98.9435606060606,746.75,98.66477272727272C749.1666666666666,98.38598484848484,751.5833333333334,98.10719696969697,754,97.82840909090909C756.4166666666666,97.54962121212121,758.8333333333334,97.27083333333333,761.25,96.99204545454545C763.6666666666666,96.71325757575757,766.0833333333334,96.4344696969697,768.5,96.15568181818182C770.9166666666666,95.87689393939394,773.3333333333334,95.59810606060606,775.75,95.31931818181818C778.1666666666666,95.0405303030303,780.5833333333334,94.76174242424241,783,94.48295454545453C785.4166666666667,94.20416666666665,787.8333333333334,93.92537878787878,790.2500000000001,93.6465909090909C792.6666666666667,93.36780303030302,795.0833333333335,93.08901515151516,797.5000000000001,92.81022727272727C799.9166666666667,92.5314393939394,802.3333333333335,92.25265151515153,804.7500000000001,91.97386363636365C807.1666666666667,91.69507575757576,809.5833333333335,91.41628787878788,812.0000000000001,91.1375C814.4166666666667,90.85871212121212,816.8333333333333,90.57992424242425,819.2499999999999,90.30113636363637C821.6666666666665,90.0223484848485,824.0833333333333,89.74356060606061,826.4999999999999,89.46477272727273C828.9166666666665,89.18598484848485,831.3333333333333,88.90719696969698,833.7499999999999,88.6284090909091C836.1666666666665,88.34962121212122,838.5833333333333,88.07083333333334,840.9999999999999,87.79204545454546C843.4166666666666,87.51325757575758,845.8333333333333,87.2344696969697,848.25,86.95568181818182C850.6666666666666,86.67689393939393,853.0833333333334,86.39810606060605,855.5,86.11931818181817C857.9166666666666,85.84053030303029,860.3333333333334,85.56174242424242,862.75,85.28295454545454C865.1666666666666,85.00416666666666,867.5833333333334,84.7253787878788,870,84.44659090909092C872.4166666666666,84.16780303030303,874.8333333333334,83.88901515151515,877.25,83.61022727272727C879.6666666666666,83.33143939393939,882.0833333333334,83.05265151515151,884.5,82.77386363636363C886.9166666666666,82.49507575757575,889.3333333333334,82.21628787878788,891.75,81.9375C894.1666666666666,81.65871212121212,896.5833333333334,81.37992424242424,899,81.10113636363636C901.4166666666666,80.82234848484848,903.8333333333334,80.54356060606061,906.25,80.26477272727273C908.6666666666666,79.98598484848485,911.0833333333334,79.70719696969697,913.5,79.42840909090908C915.9166666666666,79.1496212121212,918.3333333333334,78.87083333333332,920.75,78.59204545454544C923.1666666666666,78.31325757575756,925.5833333333334,78.0344696969697,928,77.75568181818181C930.4166666666666,77.47689393939393,932.8333333333334,77.19810606060607,935.25,76.91931818181818C937.6666666666666,76.6405303030303,940.0833333333334,76.36174242424244,942.5,76.08295454545456C944.9166666666666,75.80416666666667,947.3333333333334,75.5253787878788,949.75,75.24659090909091C952.1666666666666,74.96780303030303,954.5833333333334,74.68901515151515,957,74.41022727272727C959.4166666666666,74.13143939393939,961.8333333333334,73.85265151515152,964.25,73.57386363636364C966.6666666666667,73.29507575757576,969.0833333333334,73.01628787878789,971.5000000000001,72.73750000000001C973.9166666666667,72.45871212121213,976.3333333333335,72.17992424242425,978.7500000000001,71.90113636363637C981.1666666666667,71.62234848484849,983.5833333333335,71.3435606060606,986.0000000000001,71.06477272727273C988.4166666666667,70.78598484848484,990.8333333333335,70.50719696969696,993.2500000000001,70.22840909090908C995.6666666666667,69.9496212121212,998.0833333333333,69.67083333333332,1000.4999999999999,69.39204545454544C1002.9166666666665,69.11325757575756,1005.3333333333333,68.83446969696969,1007.7499999999999,68.55568181818181C1010.1666666666665,68.27689393939393,1012.5833333333333,67.99810606060606,1014.9999999999999,67.71931818181818C1017.4166666666665,67.4405303030303,1019.8333333333333,67.16174242424243,1022.2499999999999,66.88295454545455C1024.6666666666665,66.60416666666667,1027.0833333333333,66.3253787878788,1029.5,66.04659090909092C1031.9166666666667,65.76780303030304,1034.3333333333333,65.48901515151515,1036.75,65.21022727272727C1039.1666666666667,64.93143939393939,1041.5833333333333,64.65265151515152,1044,64.37386363636364C1046.4166666666667,64.09507575757576,1048.8333333333333,63.81628787878788,1051.25,63.5375C1053.6666666666667,63.25871212121212,1056.0833333333333,62.97992424242424,1058.5,62.70113636363636C1060.9166666666667,62.42234848484848,1063.3333333333333,62.1435606060606,1065.75,61.86477272727273C1068.1666666666667,61.585984848484856,1070.5833333333333,61.30719696969698,1073,61.0284090909091C1075.4166666666667,60.74962121212122,1077.8333333333333,60.47083333333334,1080.25,60.19204545454546C1082.6666666666667,59.91325757575758,1085.0833333333333,59.634469696969695,1087.5,59.355681818181814C1089.9166666666667,59.07689393939393,1092.3333333333333,58.79810606060605,1094.75,58.51931818181817C1097.1666666666667,58.24053030303029,1099.5833333333333,57.961742424242416,1102,57.68295454545454C1104.4166666666667,57.40416666666667,1106.8333333333333,57.12537878787879,1109.25,56.84659090909091C1111.6666666666667,56.567803030303025,1114.0833333333333,56.28901515151516,1116.5,56.01022727272728C1118.9166666666667,55.7314393939394,1121.3333333333333,55.452651515151516,1123.75,55.173863636363635C1126.1666666666667,54.89507575757575,1128.5833333333333,54.61628787878789,1131,54.337500000000006C1133.4166666666667,54.058712121212125,1135.8333333333333,53.779924242424244,1138.25,53.50113636363636C1140.6666666666667,53.22234848484848,1143.0833333333333,52.943560606060615,1145.5,52.664772727272734C1147.9166666666667,52.38598484848485,1150.3333333333333,52.10719696969697,1152.75,51.82840909090909C1155.1666666666667,51.54962121212121,1157.5833333333333,51.27083333333333,1160,50.99204545454545C1162.4166666666667,50.71325757575757,1164.8333333333333,50.4344696969697,1167.25,50.15568181818182C1169.6666666666667,49.87689393939394,1172.0833333333333,49.59810606060606,1174.5,49.319318181818176C1176.9166666666667,49.040530303030295,1179.3333333333333,48.76174242424243,1181.75,48.48295454545455C1184.1666666666667,48.204166666666666,1186.5833333333333,47.925378787878785,1189,47.64659090909091C1191.4166666666667,47.36780303030304,1193.8333333333333,47.08901515151516,1196.25,46.81022727272728C1198.6666666666667,46.5314393939394,1201.0833333333333,46.25265151515152,1203.5,45.97386363636364C1205.9166666666667,45.69507575757576,1208.3333333333333,45.41628787878788,1210.75,45.137499999999996C1213.1666666666667,44.858712121212115,1215.5833333333333,44.57992424242425,1218,44.30113636363637C1220.4166666666667,44.022348484848486,1222.8333333333333,43.743560606060605,1225.25,43.464772727272724C1227.6666666666667,43.18598484848484,1230.0833333333333,42.907196969696976,1232.5,42.628409090909095C1234.9166666666667,42.349621212121214,1237.3333333333333,42.07083333333333,1239.75,41.79204545454545C1242.1666666666667,41.51325757575757,1244.5833333333333,41.23446969696969,1247,40.95568181818181C1249.4166666666667,40.67689393939393,1251.8333333333333,40.398106060606054,1254.25,40.11931818181818C1256.6666666666667,39.840530303030306,1259.0833333333333,39.561742424242425,1261.5,39.282954545454544C1263.9166666666667,39.00416666666666,1266.3333333333333,38.725378787878796,1268.75,38.446590909090915C1271.1666666666667,38.167803030303034,1273.5833333333333,37.88901515151515,1276,37.61022727272727C1278.4166666666667,37.33143939393939,1280.8333333333333,37.052651515151524,1283.25,36.77386363636364C1285.6666666666667,36.49507575757576,1288.0833333333333,36.21628787878788,1290.5,35.9375C1292.9166666666667,35.65871212121212,1295.3333333333333,35.37992424242424,1297.75,35.10113636363636C1300.1666666666667,34.822348484848476,1302.5833333333333,34.54356060606061,1305,34.26477272727273C1307.4166666666667,33.98598484848485,1309.8333333333333,33.707196969696966,1312.25,33.428409090909085C1314.6666666666667,33.149621212121204,1317.0833333333333,32.87083333333334,1319.5,32.592045454545456C1321.9166666666667,32.313257575757575,1324.3333333333333,32.034469696969694,1326.75,31.755681818181817C1329.1666666666667,31.47689393939394,1331.5833333333333,31.198106060606065,1334,30.919318181818188C1336.4166666666667,30.64053030303031,1338.8333333333333,30.361742424242426,1341.25,30.082954545454545C1343.6666666666667,29.804166666666664,1346.0833333333333,29.525378787878783,1348.5,29.246590909090905C1350.9166666666667,28.967803030303028,1353.3333333333333,28.689015151515154,1355.75,28.410227272727276C1358.1666666666667,28.1314393939394,1360.5833333333333,27.85265151515151,1363,27.573863636363633C1365.4166666666667,27.295075757575756,1367.8333333333333,27.016287878787885,1370.25,26.737500000000004C1372.6666666666667,26.458712121212123,1375.0833333333333,26.179924242424228,1377.5,25.90113636363635C1379.9166666666667,25.622348484848473,1382.3333333333333,25.34356060606061,1384.75,25.064772727272732C1387.1666666666667,24.785984848484855,1389.5833333333333,24.507196969696956,1392,24.22840909090908C1394.4166666666667,23.9496212121212,1396.8333333333333,23.67083333333334,1399.25,23.392045454545464C1401.6666666666667,23.113257575757586,1404.0833333333333,22.834469696969688,1406.5,22.55568181818181C1408.9166666666667,22.276893939393933,1411.3333333333333,21.99810606060607,1413.75,21.719318181818192C1416.1666666666667,21.440530303030314,1418.5833333333333,21.16174242424242,1421,20.882954545454538C1423.4166666666667,20.604166666666657,1425.8333333333333,20.325378787878787,1428.25,20.04659090909091C1430.6666666666667,19.767803030303032,1433.0833333333333,19.489015151515144,1435.5,19.210227272727266C1437.9166666666667,18.93143939393939,1440.3333333333333,18.652651515151515,1442.75,18.373863636363637C1445.1666666666667,18.09507575757576,1447.5833333333333,17.81628787878788,1450,17.537499999999998" fill="transparent" stroke-linecap="round" stroke="#B6509E" stroke-width="2"></path><path class="visx-linepath" d="M0,108.674999999885C2.4166666666666665,108.65583333326626,4.833333333333334,108.63666666664751,7.25,108.6175C9.666666666666666,108.5983333333525,12.083333333333334,108.57916666666665,14.5,108.55999999999999C16.916666666666668,108.54083333333332,19.333333333333332,108.52166666666666,21.75,108.5025C24.166666666666668,108.48333333333333,26.583333333333332,108.46416666666666,29,108.445C31.416666666666668,108.42583333333333,33.833333333333336,108.40666666666667,36.25,108.3875C38.666666666666664,108.36833333333334,41.083333333333336,108.34916666666666,43.5,108.33C45.91666666666667,108.31083333333333,48.333333333333336,108.29166666666666,50.75000000000001,108.2725C53.16666666666667,108.25333333333333,55.583333333333336,108.23416666666667,58,108.215C60.416666666666664,108.19583333333334,62.833333333333336,108.17666666666666,65.25,108.1575C67.66666666666667,108.13833333333334,70.08333333333333,108.11916666666666,72.5,108.1C74.91666666666667,108.08083333333333,77.33333333333333,108.06166666666667,79.75,108.0425C82.16666666666667,108.02333333333334,84.58333333333333,108.00416666666668,87,107.98500000000001C89.41666666666667,107.96583333333335,91.83333333333333,107.94666666666666,94.25,107.9275C96.66666666666667,107.90833333333332,99.08333333333334,107.88916666666665,101.50000000000001,107.86999999999999C103.91666666666667,107.85083333333333,106.33333333333334,107.83166666666666,108.75,107.8125C111.16666666666667,107.79333333333334,113.58333333333333,107.77416666666667,116,107.75500000000001C118.41666666666667,107.73583333333335,120.83333333333334,107.71666666666668,123.25000000000001,107.6975C125.66666666666667,107.67833333333334,128.08333333333334,107.65916666666665,130.5,107.63999999999999C132.91666666666666,107.62083333333332,135.33333333333334,107.60166666666666,137.75,107.5825C140.16666666666666,107.56333333333333,142.58333333333334,107.54416666666667,145,107.525C147.41666666666666,107.50583333333334,149.83333333333334,107.48666666666666,152.25,107.4675C154.66666666666666,107.44833333333334,157.08333333333334,107.42916666666666,159.5,107.41C161.91666666666666,107.39083333333333,164.33333333333334,107.37166666666667,166.75,107.3525C169.16666666666666,107.33333333333334,171.58333333333334,107.31416666666667,174,107.295C176.41666666666666,107.27583333333334,178.83333333333334,107.25666666666666,181.25,107.2375C183.66666666666666,107.21833333333333,186.08333333333334,107.19916666666666,188.5,107.17999999999999C190.91666666666666,107.16083333333333,193.33333333333334,107.14166666666667,195.75,107.1225C198.16666666666669,107.10333333333334,200.58333333333334,107.08416666666668,203.00000000000003,107.06500000000001C205.41666666666669,107.04583333333335,207.83333333333331,107.02666666666666,210.24999999999997,107.0075C212.66666666666666,106.98833333333332,215.08333333333331,106.96916666666665,217.5,106.94999999999999C219.91666666666666,106.93083333333333,222.33333333333334,106.91166666666666,224.75,106.8925C227.16666666666666,106.87333333333333,229.58333333333334,106.85416666666667,232,106.83500000000001C234.41666666666666,106.81583333333334,236.83333333333334,106.79666666666667,239.25,106.7775C241.66666666666669,106.75833333333334,244.08333333333334,106.73916666666666,246.50000000000003,106.72C248.91666666666669,106.70083333333334,251.33333333333331,106.68166666666666,253.74999999999997,106.6625C256.16666666666663,106.64333333333333,258.5833333333333,106.62416666666667,261,106.605C263.4166666666667,106.58583333333334,265.8333333333333,106.56666666666666,268.25,106.5475C270.6666666666667,106.52833333333334,273.0833333333333,106.50916666666667,275.5,106.49000000000001C277.9166666666667,106.47083333333335,280.3333333333333,106.45166666666667,282.75,106.4325C285.1666666666667,106.41333333333334,287.5833333333333,106.39416666666666,290,106.375C292.4166666666667,106.35583333333334,294.8333333333333,106.33666666666666,297.25,106.3175C299.6666666666667,106.29833333333333,302.0833333333333,106.27916666666667,304.5,106.26C306.9166666666667,106.24083333333334,309.3333333333333,106.22166666666666,311.75,106.2025C314.1666666666667,106.18333333333334,316.5833333333333,106.16416666666667,319,106.14500000000001C321.4166666666667,106.12583333333335,323.8333333333333,106.10666666666665,326.25,106.08749999999999C328.6666666666667,106.06833333333333,331.0833333333333,106.04916666666666,333.5,106.03C335.9166666666667,106.01083333333334,338.3333333333333,105.99166666666666,340.75,105.9725C343.1666666666667,105.95333333333333,345.5833333333333,105.93416666666667,348,105.915C350.4166666666667,105.89583333333334,352.8333333333333,105.87666666666667,355.25,105.8575C357.6666666666667,105.83833333333334,360.0833333333333,105.81916666666667,362.5,105.80000000000001C364.9166666666667,105.78083333333335,367.3333333333333,105.76166666666666,369.75,105.74249999999999C372.1666666666667,105.72333333333333,374.5833333333333,105.70416666666667,377,105.685C379.4166666666667,105.66583333333334,381.8333333333333,105.64666666666666,384.25,105.6275C386.6666666666667,105.60833333333333,389.0833333333333,105.58916666666666,391.5,105.57C393.9166666666667,105.55083333333333,396.33333333333337,105.53166666666667,398.75000000000006,105.5125C401.16666666666674,105.49333333333334,403.58333333333337,105.47416666666666,406.00000000000006,105.455C408.4166666666667,105.43583333333333,410.8333333333333,105.41666666666666,413.24999999999994,105.3975C415.66666666666663,105.37833333333333,418.08333333333326,105.35916666666667,420.49999999999994,105.34C422.91666666666663,105.32083333333334,425.3333333333333,105.30166666666666,427.75,105.2825C430.1666666666667,105.26333333333334,432.5833333333333,105.24416666666667,435,105.22500000000001C437.4166666666667,105.20583333333335,439.8333333333333,105.18666666666667,442.25,105.1675C444.6666666666667,105.14833333333334,447.0833333333333,105.12916666666666,449.5,105.11C451.9166666666667,105.09083333333334,454.3333333333333,105.07166666666666,456.75,105.0525C459.1666666666667,105.03333333333333,461.5833333333333,105.01416666666667,464,104.995C466.4166666666667,104.97583333333334,468.8333333333333,104.95666666666666,471.25,104.9375C473.6666666666667,104.91833333333334,476.0833333333333,104.89916666666667,478.5,104.88000000000001C480.9166666666667,104.86083333333335,483.33333333333337,104.84166666666665,485.75000000000006,104.82249999999999C488.16666666666674,104.80333333333333,490.58333333333337,104.78416666666666,493.00000000000006,104.765C495.4166666666667,104.74583333333334,497.8333333333333,104.72666666666666,500.24999999999994,104.7075C502.66666666666663,104.68833333333333,505.08333333333326,104.66916666666667,507.49999999999994,104.65C509.91666666666663,104.63083333333334,512.3333333333333,104.61166666666666,514.75,104.5925C517.1666666666666,104.57333333333334,519.5833333333334,104.55416666666666,522,104.535C524.4166666666666,104.51583333333333,526.8333333333334,104.49666666666666,529.25,104.47749999999999C531.6666666666666,104.45833333333333,534.0833333333334,104.43916666666667,536.5,104.42C538.9166666666666,104.40083333333334,541.3333333333334,104.38166666666666,543.75,104.3625C546.1666666666666,104.34333333333333,548.5833333333334,104.32416666666667,551,104.305C553.4166666666666,104.28583333333334,555.8333333333334,104.26666666666667,558.25,104.2475C560.6666666666666,104.22833333333334,563.0833333333334,104.20916666666666,565.5,104.19C567.9166666666666,104.17083333333333,570.3333333333334,104.15166666666666,572.75,104.1325C575.1666666666666,104.11333333333333,577.5833333333334,104.09416666666667,580,104.075C582.4166666666666,104.05583333333334,584.8333333333334,104.03666666666666,587.25,104.0175C589.6666666666666,103.99833333333333,592.0833333333334,103.97916666666667,594.5,103.96000000000001C596.9166666666666,103.94083333333334,599.3333333333334,103.92166666666667,601.75,103.9025C604.1666666666666,103.88333333333334,606.5833333333334,103.86416666666666,609,103.845C611.4166666666666,103.82583333333334,613.8333333333334,103.80666666666666,616.25,103.7875C618.6666666666666,103.76833333333333,621.0833333333334,103.74916666666667,623.5,103.73C625.9166666666666,103.71083333333334,628.3333333333334,103.69166666666666,630.75,103.6725C633.1666666666666,103.65333333333334,635.5833333333334,103.63416666666667,638,103.61500000000001C640.4166666666666,103.59583333333335,642.8333333333334,103.57666666666665,645.25,103.55749999999999C647.6666666666666,103.53833333333333,650.0833333333334,103.53833333333333,652.5,103.5C654.9166666666666,103.46166666666667,657.3333333333334,102.94242424242424,659.75,102.66363636363636C662.1666666666666,102.38484848484848,664.5833333333334,102.10606060606061,667,101.82727272727273C669.4166666666666,101.54848484848485,671.8333333333334,101.26969696969697,674.25,100.99090909090908C676.6666666666666,100.7121212121212,679.0833333333334,100.43333333333332,681.5,100.15454545454544C683.9166666666666,99.87575757575756,686.3333333333334,99.5969696969697,688.75,99.31818181818181C691.1666666666666,99.03939393939393,693.5833333333334,98.76060606060607,696,98.48181818181818C698.4166666666666,98.2030303030303,700.8333333333334,97.92424242424244,703.25,97.64545454545456C705.6666666666666,97.36666666666667,708.0833333333334,97.0878787878788,710.5,96.80909090909091C712.9166666666666,96.53030303030303,715.3333333333334,96.25151515151515,717.75,95.97272727272727C720.1666666666666,95.69393939393939,722.5833333333334,95.41515151515152,725,95.13636363636364C727.4166666666666,94.85757575757576,729.8333333333334,94.57878787878789,732.25,94.30000000000001C734.6666666666666,94.02121212121213,737.0833333333334,93.74242424242425,739.5,93.46363636363637C741.9166666666666,93.18484848484849,744.3333333333334,92.9060606060606,746.75,92.62727272727273C749.1666666666666,92.34848484848484,751.5833333333334,92.06969696969698,754,91.7909090909091C756.4166666666666,91.51212121212122,758.8333333333334,91.23333333333333,761.25,90.95454545454545C763.6666666666666,90.67575757575757,766.0833333333334,90.3969696969697,768.5,90.11818181818182C770.9166666666666,89.83939393939394,773.3333333333334,89.56060606060606,775.75,89.28181818181818C778.1666666666666,89.0030303030303,780.5833333333334,88.72424242424242,783,88.44545454545454C785.4166666666667,88.16666666666666,787.8333333333334,87.88787878787879,790.2500000000001,87.60909090909091C792.6666666666667,87.33030303030303,795.0833333333335,87.05151515151515,797.5000000000001,86.77272727272727C799.9166666666667,86.49393939393939,802.3333333333335,86.21515151515152,804.7500000000001,85.93636363636364C807.1666666666667,85.65757575757576,809.5833333333335,85.37878787878788,812.0000000000001,85.1C814.4166666666667,84.82121212121211,816.8333333333333,84.54242424242423,819.2499999999999,84.26363636363635C821.6666666666665,83.98484848484847,824.0833333333333,83.7060606060606,826.4999999999999,83.42727272727272C828.9166666666665,83.14848484848484,831.3333333333333,82.86969696969697,833.7499999999999,82.5909090909091C836.1666666666665,82.31212121212121,838.5833333333333,82.03333333333333,840.9999999999999,81.75454545454545C843.4166666666666,81.47575757575757,845.8333333333333,81.1969696969697,848.25,80.91818181818182C850.6666666666666,80.63939393939394,853.0833333333334,80.36060606060606,855.5,80.08181818181818C857.9166666666666,79.8030303030303,860.3333333333334,79.52424242424243,862.75,79.24545454545455C865.1666666666666,78.96666666666667,867.5833333333334,78.6878787878788,870,78.40909090909092C872.4166666666666,78.13030303030304,874.8333333333334,77.85151515151516,877.25,77.57272727272728C879.6666666666666,77.2939393939394,882.0833333333334,77.01515151515152,884.5,76.73636363636363C886.9166666666666,76.45757575757575,889.3333333333334,76.17878787878787,891.75,75.89999999999999C894.1666666666666,75.62121212121211,896.5833333333334,75.34242424242424,899,75.06363636363636C901.4166666666666,74.78484848484848,903.8333333333334,74.50606060606061,906.25,74.22727272727273C908.6666666666666,73.94848484848485,911.0833333333334,73.66969696969697,913.5,73.39090909090909C915.9166666666666,73.11212121212121,918.3333333333334,72.83333333333333,920.75,72.55454545454545C923.1666666666666,72.27575757575757,925.5833333333334,71.9969696969697,928,71.71818181818182C930.4166666666666,71.43939393939394,932.8333333333334,71.16060606060607,935.25,70.88181818181819C937.6666666666666,70.60303030303031,940.0833333333334,70.32424242424243,942.5,70.04545454545455C944.9166666666666,69.76666666666667,947.3333333333334,69.48787878787878,949.75,69.2090909090909C952.1666666666666,68.93030303030302,954.5833333333334,68.65151515151514,957,68.37272727272726C959.4166666666666,68.09393939393938,961.8333333333334,67.81515151515151,964.25,67.53636363636363C966.6666666666667,67.25757575757575,969.0833333333334,66.97878787878788,971.5000000000001,66.7C973.9166666666667,66.42121212121212,976.3333333333335,66.14242424242424,978.7500000000001,65.86363636363636C981.1666666666667,65.58484848484848,983.5833333333335,65.30606060606061,986.0000000000001,65.02727272727273C988.4166666666667,64.74848484848485,990.8333333333335,64.46969696969698,993.2500000000001,64.1909090909091C995.6666666666667,63.91212121212123,998.0833333333333,63.63333333333334,1000.4999999999999,63.354545454545466C1002.9166666666665,63.075757575757585,1005.3333333333333,62.796969696969704,1007.7499999999999,62.51818181818182C1010.1666666666665,62.23939393939394,1012.5833333333333,61.96060606060606,1014.9999999999999,61.68181818181818C1017.4166666666665,61.4030303030303,1019.8333333333333,61.124242424242425,1022.2499999999999,60.845454545454544C1024.6666666666665,60.56666666666666,1027.0833333333333,60.28787878787878,1029.5,60.0090909090909C1031.9166666666667,59.73030303030303,1034.3333333333333,59.451515151515146,1036.75,59.17272727272727C1039.1666666666667,58.8939393939394,1041.5833333333333,58.615151515151524,1044,58.33636363636364C1046.4166666666667,58.05757575757576,1048.8333333333333,57.77878787878788,1051.25,57.5C1053.6666666666667,57.22121212121212,1056.0833333333333,56.94242424242424,1058.5,56.66363636363636C1060.9166666666667,56.384848484848476,1063.3333333333333,56.10606060606061,1065.75,55.82727272727273C1068.1666666666667,55.54848484848485,1070.5833333333333,55.269696969696966,1073,54.990909090909085C1075.4166666666667,54.712121212121204,1077.8333333333333,54.43333333333334,1080.25,54.154545454545456C1082.6666666666667,53.875757575757575,1085.0833333333333,53.596969696969694,1087.5,53.31818181818182C1089.9166666666667,53.039393939393946,1092.3333333333333,52.76060606060607,1094.75,52.48181818181819C1097.1666666666667,52.20303030303031,1099.5833333333333,51.92424242424243,1102,51.64545454545455C1104.4166666666667,51.36666666666667,1106.8333333333333,51.087878787878786,1109.25,50.809090909090905C1111.6666666666667,50.530303030303024,1114.0833333333333,50.25151515151516,1116.5,49.972727272727276C1118.9166666666667,49.693939393939395,1121.3333333333333,49.415151515151514,1123.75,49.13636363636363C1126.1666666666667,48.85757575757575,1128.5833333333333,48.578787878787885,1131,48.300000000000004C1133.4166666666667,48.02121212121212,1135.8333333333333,47.74242424242424,1138.25,47.46363636363636C1140.6666666666667,47.18484848484848,1143.0833333333333,46.9060606060606,1145.5,46.62727272727272C1147.9166666666667,46.34848484848484,1150.3333333333333,46.06969696969696,1152.75,45.79090909090909C1155.1666666666667,45.512121212121215,1157.5833333333333,45.233333333333334,1160,44.95454545454545C1162.4166666666667,44.67575757575757,1164.8333333333333,44.396969696969705,1167.25,44.118181818181824C1169.6666666666667,43.83939393939394,1172.0833333333333,43.56060606060606,1174.5,43.28181818181818C1176.9166666666667,43.0030303030303,1179.3333333333333,42.72424242424243,1181.75,42.44545454545455C1184.1666666666667,42.16666666666667,1186.5833333333333,41.88787878787879,1189,41.60909090909091C1191.4166666666667,41.33030303030303,1193.8333333333333,41.05151515151515,1196.25,40.772727272727266C1198.6666666666667,40.493939393939385,1201.0833333333333,40.21515151515152,1203.5,39.93636363636364C1205.9166666666667,39.657575757575756,1208.3333333333333,39.378787878787875,1210.75,39.099999999999994C1213.1666666666667,38.82121212121211,1215.5833333333333,38.54242424242425,1218,38.263636363636365C1220.4166666666667,37.984848484848484,1222.8333333333333,37.7060606060606,1225.25,37.42727272727272C1227.6666666666667,37.14848484848484,1230.0833333333333,36.869696969696975,1232.5,36.59090909090909C1234.9166666666667,36.31212121212121,1237.3333333333333,36.03333333333334,1239.75,35.75454545454546C1242.1666666666667,35.47575757575758,1244.5833333333333,35.196969696969695,1247,34.918181818181814C1249.4166666666667,34.63939393939393,1251.8333333333333,34.36060606060607,1254.25,34.081818181818186C1256.6666666666667,33.803030303030305,1259.0833333333333,33.52424242424242,1261.5,33.24545454545454C1263.9166666666667,32.96666666666666,1266.3333333333333,32.687878787878795,1268.75,32.409090909090914C1271.1666666666667,32.13030303030303,1273.5833333333333,31.85151515151515,1276,31.57272727272727C1278.4166666666667,31.29393939393939,1280.8333333333333,31.01515151515151,1283.25,30.73636363636363C1285.6666666666667,30.457575757575754,1288.0833333333333,30.17878787878788,1290.5,29.900000000000002C1292.9166666666667,29.621212121212125,1295.3333333333333,29.342424242424237,1297.75,29.06363636363636C1300.1666666666667,28.78484848484848,1302.5833333333333,28.506060606060608,1305,28.22727272727273C1307.4166666666667,27.948484848484853,1309.8333333333333,27.669696969696965,1312.25,27.390909090909087C1314.6666666666667,27.11212121212121,1317.0833333333333,26.833333333333336,1319.5,26.55454545454546C1321.9166666666667,26.27575757575758,1324.3333333333333,25.9969696969697,1326.75,25.71818181818182C1329.1666666666667,25.439393939393938,1331.5833333333333,25.160606060606053,1334,24.881818181818176C1336.4166666666667,24.603030303030298,1338.8333333333333,24.324242424242428,1341.25,24.045454545454547C1343.6666666666667,23.766666666666666,1346.0833333333333,23.48787878787877,1348.5,23.209090909090893C1350.9166666666667,22.930303030303016,1353.3333333333333,22.651515151515152,1355.75,22.372727272727275C1358.1666666666667,22.093939393939397,1360.5833333333333,21.8151515151515,1363,21.53636363636362C1365.4166666666667,21.257575757575744,1367.8333333333333,20.978787878787884,1370.25,20.700000000000006C1372.6666666666667,20.42121212121213,1375.0833333333333,20.14242424242423,1377.5,19.863636363636353C1379.9166666666667,19.584848484848475,1382.3333333333333,19.306060606060612,1384.75,19.027272727272734C1387.1666666666667,18.748484848484857,1389.5833333333333,18.46969696969696,1392,18.19090909090908C1394.4166666666667,17.9121212121212,1396.8333333333333,17.633333333333326,1399.25,17.354545454545452C1401.6666666666667,17.075757575757578,1404.0833333333333,16.79696969696971,1406.5,16.518181818181834C1408.9166666666667,16.239393939393956,1411.3333333333333,15.960606060606057,1413.75,15.68181818181818C1416.1666666666667,15.403030303030302,1418.5833333333333,15.124242424242443,1421,14.845454545454565C1423.4166666666667,14.566666666666688,1425.8333333333333,14.287878787878793,1428.25,14.00909090909091C1430.6666666666667,13.730303030303027,1433.0833333333333,13.451515151515146,1435.5,13.172727272727268C1437.9166666666667,12.893939393939391,1440.3333333333333,12.615151515151517,1442.75,12.33636363636364C1445.1666666666667,12.057575757575762,1447.5833333333333,11.77878787878788,1450,11.499999999999998" fill="transparent" stroke-linecap="round" stroke="#E7C6DF" stroke-width="2"></path><g class="visx-group visx-axis visx-axis-bottom" transform="translate(0, 115)"><g class="visx-group visx-axis-tick" transform="translate(0, 0)"><line class="visx-line" x1="0" y1="0" x2="0" y2="8" fill="transparent" shape-rendering="crispEdges" stroke="#000" stroke-width="0" stroke-linecap="square"></line><svg x="0" y="0" font-size="10" style="overflow:visible"><text transform="" x="0" y="18" fill="#000" font-size="10" text-anchor="middle"><tspan x="0" dy="0em">0%</tspan></text></svg></g><g class="visx-group visx-axis-tick" transform="translate(0, 0)"><line class="visx-line" x1="362.5" y1="0" x2="362.5" y2="8" fill="transparent" shape-rendering="crispEdges" stroke="#000" stroke-width="0" stroke-linecap="square"></line><svg x="0" y="0" font-size="10" style="overflow:visible"><text transform="" x="362.5" y="18" fill="#000" font-size="10" text-anchor="middle"><tspan x="362.5" dy="0em">25%</tspan></text></svg></g><g class="visx-group visx-axis-tick" transform="translate(0, 0)"><line class="visx-line" x1="725" y1="0" x2="725" y2="8" fill="transparent" shape-rendering="crispEdges" stroke="#000" stroke-width="0" stroke-linecap="square"></line><svg x="0" y="0" font-size="10" style="overflow:visible"><text transform="" x="725" y="18" fill="#000" font-size="10" text-anchor="middle"><tspan x="725" dy="0em">50%</tspan></text></svg></g><g class="visx-group visx-axis-tick" transform="translate(0, 0)"><line class="visx-line" x1="1087.5" y1="0" x2="1087.5" y2="8" fill="transparent" shape-rendering="crispEdges" stroke="#000" stroke-width="0" stroke-linecap="square"></line><svg x="0" y="0" font-size="10" style="overflow:visible"><text transform="" x="1087.5" y="18" fill="#000" font-size="10" text-anchor="middle"><tspan x="1087.5" dy="0em">75%</tspan></text></svg></g><g class="visx-group visx-axis-tick" transform="translate(0, 0)"><line class="visx-line" x1="1450" y1="0" x2="1450" y2="8" fill="transparent" shape-rendering="crispEdges" stroke="#000" stroke-width="0" stroke-linecap="square"></line><svg x="0" y="0" font-size="10" style="overflow:visible"><text transform="" x="1450" y="18" fill="#000" font-size="10" text-anchor="middle"><tspan x="1450" dy="0em">100%</tspan></text></svg></g><line class="visx-line visx-axis-line" x1="0.5" y1="0" x2="1450.5" y2="0" fill="transparent" shape-rendering="crispEdges" stroke="#222" stroke-width="0"></line></g><g class="visx-group visx-axis visx-axis-left" transform="translate(0, 0)"><g class="visx-group visx-axis-tick" transform="translate(0, 0)"><line class="visx-line" x1="0" y1="115" x2="-8" y2="115" fill="transparent" shape-rendering="crispEdges" stroke="#222" stroke-width="0" stroke-linecap="square"></line><svg x="-30" y="0" font-size="8" style="overflow:visible"><text transform="" x="-8" y="115" fill="#000" font-size="8" text-anchor="start"><tspan x="-8" dy="0em">0%</tspan></text></svg></g><g class="visx-group visx-axis-tick" transform="translate(0, 0)"><line class="visx-line" x1="0" y1="57.5" x2="-8" y2="57.5" fill="transparent" shape-rendering="crispEdges" stroke="#222" stroke-width="0" stroke-linecap="square"></line><svg x="-30" y="0" font-size="8" style="overflow:visible"><text transform="" x="-8" y="57.5" fill="#000" font-size="8" text-anchor="start"><tspan x="-8" dy="0em">50%</tspan></text></svg></g><g class="visx-group visx-axis-tick" transform="translate(0, 0)"><line class="visx-line" x1="0" y1="0" x2="-8" y2="0" fill="transparent" shape-rendering="crispEdges" stroke="#222" stroke-width="0" stroke-linecap="square"></line><svg x="-30" y="0" font-size="8" style="overflow:visible"><text transform="" x="-8" y="0" fill="#000" font-size="8" text-anchor="start"><tspan x="-8" dy="0em">100%</tspan></text></svg></g><line class="visx-line visx-axis-line" x1="0" y1="115.5" x2="0" y2="0.5" fill="transparent" shape-rendering="crispEdges" stroke="#222" stroke-width="0"></line></g><rect class="visx-bar" width="1450" height="115" fill="transparent"></rect><line class="visx-line" x1="652.5" y1="28" x2="652.5" y2="115" fill="transparent" shape-rendering="crispEdges" stroke="#0062D2" stroke-width="1" pointer-events="none" stroke-dasharray="5,2"></line><svg x="0" y="0" font-size="10px" style="overflow:visible"><text transform="" x="652.5" y="20" font-size="10px" fill="#fff" stroke="#fff" stroke-width="0.8em" text-anchor="middle"><tspan x="652.5" dy="0.355em">Optimal 45%</tspan></text></svg><svg x="0" y="0" font-size="10px" style="overflow:visible"><text transform="" x="652.5" y="20" font-size="10px" fill="#62677B" text-anchor="middle"><tspan x="652.5" dy="0.355em">Optimal 45%</tspan></text></svg></g></svg>