<?xml version="1.0"?><svg xmlns="http://www.w3.org/2000/svg" xmlns:xlink= "http://www.w3.org/1999/xlink" style="background: white;" width="1500" height="185"> <g style="color: black; font-size: 13px; font-family: sans-serif; transform: translate(18px, 25px);"><g><circle r="3" cx="-6" cy="-5" style="fill: #B6509E" /><text>Borrow APR, variable</text></g><g style="transform: translateX(150px);"><circle r="3" cx="-6" cy="-5" style="fill: rgb(231, 198, 223)" /><text>Borrow APR, stable</text></g><g style="transform: translateX(290px);"><circle r="3" cx="-6" cy="-5" style="fill: rgb(0, 98, 210)" /><text>Utilization Rate</text></g></g><g class="visx-group" transform="translate(40, 50)"><g class="visx-group visx-rows" transform="translate(0, 0)"><line class="visx-line" x1="0" y1="115" x2="1450" y2="115" fill="transparent" shape-rendering="crispEdges" stroke="#000" stroke-width="1" stroke-dasharray="3,3" pointer-events="none"></line><line class="visx-line" x1="0" y1="89.44444444444444" x2="1450" y2="89.44444444444444" fill="transparent" shape-rendering="crispEdges" stroke="#000" stroke-width="1" stroke-dasharray="3,3" pointer-events="none"></line><line class="visx-line" x1="0" y1="63.88888888888889" x2="1450" y2="63.88888888888889" fill="transparent" shape-rendering="crispEdges" stroke="#000" stroke-width="1" stroke-dasharray="3,3" pointer-events="none"></line><line class="visx-line" x1="0" y1="38.333333333333336" x2="1450" y2="38.333333333333336" fill="transparent" shape-rendering="crispEdges" stroke="#000" stroke-width="1" stroke-dasharray="3,3" pointer-events="none"></line><line class="visx-line" x1="0" y1="12.777777777777784" x2="1450" y2="12.777777777777784" fill="transparent" shape-rendering="crispEdges" stroke="#000" stroke-width="1" stroke-dasharray="3,3" pointer-events="none"></line></g><path class="visx-linepath" d="M0,114.99999999993611C2.4166666666666665,114.98935185181458,4.833333333333334,114.97870370369304,7.25,114.96805555555555C9.666666666666666,114.95740740741806,12.083333333333334,114.94675925925927,14.5,114.93611111111112C16.916666666666668,114.92546296296297,19.333333333333332,114.91481481481482,21.75,114.90416666666667C24.166666666666668,114.89351851851852,26.583333333333332,114.88287037037038,29,114.87222222222223C31.416666666666668,114.86157407407408,33.833333333333336,114.85092592592592,36.25,114.84027777777777C38.666666666666664,114.82962962962962,41.083333333333336,114.81898148148147,43.5,114.80833333333332C45.91666666666667,114.79768518518517,48.333333333333336,114.78703703703704,50.75000000000001,114.77638888888889C53.16666666666667,114.76574074074074,55.583333333333336,114.75509259259259,58,114.74444444444444C60.416666666666664,114.73379629629629,62.833333333333336,114.72314814814816,65.25,114.7125C67.66666666666667,114.70185185185186,70.08333333333333,114.6912037037037,72.5,114.68055555555556C74.91666666666667,114.66990740740741,77.33333333333333,114.65925925925926,79.75,114.64861111111111C82.16666666666667,114.63796296296296,84.58333333333333,114.62731481481482,87,114.61666666666667C89.41666666666667,114.60601851851852,91.83333333333333,114.59537037037038,94.25,114.58472222222223C96.66666666666667,114.57407407407408,99.08333333333334,114.56342592592593,101.50000000000001,114.55277777777778C103.91666666666667,114.54212962962963,106.33333333333334,114.53148148148148,108.75,114.52083333333333C111.16666666666667,114.51018518518518,113.58333333333333,114.49953703703703,116,114.48888888888888C118.41666666666667,114.47824074074073,120.83333333333334,114.4675925925926,123.25000000000001,114.45694444444445C125.66666666666667,114.4462962962963,128.08333333333334,114.43564814814815,130.5,114.425C132.91666666666666,114.41435185185185,135.33333333333334,114.4037037037037,137.75,114.39305555555555C140.16666666666666,114.3824074074074,142.58333333333334,114.37175925925926,145,114.36111111111111C147.41666666666666,114.35046296296296,149.83333333333334,114.33981481481482,152.25,114.32916666666667C154.66666666666666,114.31851851851852,157.08333333333334,114.30787037037038,159.5,114.29722222222223C161.91666666666666,114.28657407407408,164.33333333333334,114.27592592592593,166.75,114.26527777777778C169.16666666666666,114.25462962962963,171.58333333333334,114.24398148148148,174,114.23333333333333C176.41666666666666,114.22268518518518,178.83333333333334,114.21203703703704,181.25,114.20138888888889C183.66666666666666,114.19074074074074,186.08333333333334,114.18009259259259,188.5,114.16944444444444C190.91666666666666,114.15879629629629,193.33333333333334,114.14814814814815,195.75,114.1375C198.16666666666669,114.12685185185185,200.58333333333334,114.1162037037037,203.00000000000003,114.10555555555555C205.41666666666669,114.0949074074074,207.83333333333331,114.08425925925926,210.24999999999997,114.0736111111111C212.66666666666666,114.06296296296296,215.08333333333331,114.05231481481482,217.5,114.04166666666667C219.91666666666666,114.03101851851852,222.33333333333334,114.02037037037037,224.75,114.00972222222222C227.16666666666666,113.99907407407407,229.58333333333334,113.98842592592594,232,113.97777777777779C234.41666666666666,113.96712962962964,236.83333333333334,113.95648148148149,239.25,113.94583333333334C241.66666666666669,113.93518518518519,244.08333333333334,113.92453703703704,246.50000000000003,113.91388888888889C248.91666666666669,113.90324074074074,251.33333333333331,113.89259259259259,253.74999999999997,113.88194444444444C256.16666666666663,113.8712962962963,258.5833333333333,113.86064814814814,261,113.85C263.4166666666667,113.83935185185184,265.8333333333333,113.8287037037037,268.25,113.81805555555555C270.6666666666667,113.8074074074074,273.0833333333333,113.79675925925926,275.5,113.78611111111111C277.9166666666667,113.77546296296296,280.3333333333333,113.76481481481481,282.75,113.75416666666666C285.1666666666667,113.74351851851851,287.5833333333333,113.73287037037038,290,113.72222222222223C292.4166666666667,113.71157407407408,294.8333333333333,113.70092592592593,297.25,113.69027777777778C299.6666666666667,113.67962962962963,302.0833333333333,113.66898148148148,304.5,113.65833333333333C306.9166666666667,113.64768518518518,309.3333333333333,113.63703703703705,311.75,113.6263888888889C314.1666666666667,113.61574074074075,316.5833333333333,113.6050925925926,319,113.59444444444445C321.4166666666667,113.5837962962963,323.8333333333333,113.57314814814815,326.25,113.5625C328.6666666666667,113.55185185185185,331.0833333333333,113.5412037037037,333.5,113.53055555555555C335.9166666666667,113.5199074074074,338.3333333333333,113.50925925925925,340.75,113.4986111111111C343.1666666666667,113.48796296296295,345.5833333333333,113.47731481481482,348,113.46666666666667C350.4166666666667,113.45601851851852,352.8333333333333,113.44537037037037,355.25,113.43472222222222C357.6666666666667,113.42407407407407,360.0833333333333,113.41342592592594,362.5,113.40277777777779C364.9166666666667,113.39212962962964,367.3333333333333,113.38148148148149,369.75,113.37083333333334C372.1666666666667,113.36018518518519,374.5833333333333,113.34953703703704,377,113.33888888888889C379.4166666666667,113.32824074074074,381.8333333333333,113.3175925925926,384.25,113.30694444444445C386.6666666666667,113.2962962962963,389.0833333333333,113.28564814814814,391.5,113.27499999999999C393.9166666666667,113.26435185185184,396.33333333333337,113.2537037037037,398.75000000000006,113.24305555555556C401.16666666666674,113.23240740740741,403.58333333333337,113.22175925925926,406.00000000000006,113.21111111111111C408.4166666666667,113.20046296296296,410.8333333333333,113.18981481481481,413.24999999999994,113.17916666666666C415.66666666666663,113.16851851851851,418.08333333333326,113.15787037037038,420.49999999999994,113.14722222222223C422.91666666666663,113.13657407407408,425.3333333333333,113.12592592592593,427.75,113.11527777777778C430.1666666666667,113.10462962962963,432.5833333333333,113.09398148148148,435,113.08333333333333C437.4166666666667,113.07268518518518,439.8333333333333,113.06203703703704,442.25,113.0513888888889C444.6666666666667,113.04074074074074,447.0833333333333,113.0300925925926,449.5,113.01944444444445C451.9166666666667,113.0087962962963,454.3333333333333,112.99814814814816,456.75,112.98750000000001C459.1666666666667,112.97685185185186,461.5833333333333,112.9662037037037,464,112.95555555555555C466.4166666666667,112.9449074074074,468.8333333333333,112.93425925925925,471.25,112.9236111111111C473.6666666666667,112.91296296296295,476.0833333333333,112.90231481481482,478.5,112.89166666666667C480.9166666666667,112.88101851851852,483.33333333333337,112.87037037037037,485.75000000000006,112.85972222222222C488.16666666666674,112.84907407407407,490.58333333333337,112.83842592592593,493.00000000000006,112.82777777777778C495.4166666666667,112.81712962962963,497.8333333333333,112.80648148148148,500.24999999999994,112.79583333333333C502.66666666666663,112.78518518518518,505.08333333333326,112.77453703703704,507.49999999999994,112.76388888888889C509.91666666666663,112.75324074074074,512.3333333333333,112.7425925925926,514.75,112.73194444444445C517.1666666666666,112.7212962962963,519.5833333333334,112.71064814814815,522,112.7C524.4166666666666,112.68935185185185,526.8333333333334,112.6787037037037,529.25,112.66805555555555C531.6666666666666,112.6574074074074,534.0833333333334,112.64675925925926,536.5,112.6361111111111C538.9166666666666,112.62546296296296,541.3333333333334,112.6148148148148,543.75,112.60416666666666C546.1666666666666,112.59351851851851,548.5833333333334,112.58287037037037,551,112.57222222222222C553.4166666666666,112.56157407407407,555.8333333333334,112.55092592592592,558.25,112.54027777777777C560.6666666666666,112.52962962962962,563.0833333333334,112.51898148148148,565.5,112.50833333333333C567.9166666666666,112.49768518518518,570.3333333333334,112.48703703703704,572.75,112.47638888888889C575.1666666666666,112.46574074074074,577.5833333333334,112.45509259259259,580,112.44444444444444C582.4166666666666,112.4337962962963,584.8333333333334,112.42314814814816,587.25,112.41250000000001C589.6666666666666,112.40185185185186,592.0833333333334,112.39120370370371,594.5,112.38055555555556C596.9166666666666,112.36990740740741,599.3333333333334,112.35925925925926,601.75,112.34861111111111C604.1666666666666,112.33796296296296,606.5833333333334,112.32731481481481,609,112.31666666666666C611.4166666666666,112.30601851851851,613.8333333333334,112.29537037037036,616.25,112.28472222222221C618.6666666666666,112.27407407407406,621.0833333333334,112.26342592592593,623.5,112.25277777777778C625.9166666666666,112.24212962962963,628.3333333333334,112.23148148148148,630.75,112.22083333333333C633.1666666666666,112.21018518518518,635.5833333333334,112.19953703703703,638,112.18888888888888C640.4166666666666,112.17824074074073,642.8333333333334,112.1675925925926,645.25,112.15694444444445C647.6666666666666,112.1462962962963,650.0833333333334,112.13564814814815,652.5,112.125C654.9166666666666,112.11435185185185,657.3333333333334,112.10370370370372,659.75,112.09305555555557C662.1666666666666,112.08240740740742,664.5833333333334,112.07175925925927,667,112.06111111111112C669.4166666666666,112.05046296296297,671.8333333333334,112.03981481481482,674.25,112.02916666666667C676.6666666666666,112.01851851851852,679.0833333333334,112.00787037037037,681.5,111.99722222222222C683.9166666666666,111.98657407407407,686.3333333333334,111.97592592592592,688.75,111.96527777777777C691.1666666666666,111.95462962962962,693.5833333333334,111.94398148148149,696,111.93333333333334C698.4166666666666,111.92268518518519,700.8333333333334,111.91203703703704,703.25,111.90138888888889C705.6666666666666,111.89074074074074,708.0833333333334,111.88009259259259,710.5,111.86944444444444C712.9166666666666,111.85879629629629,715.3333333333334,111.84814814814816,717.75,111.8375C720.1666666666666,111.82685185185186,722.5833333333334,111.8162037037037,725,111.80555555555556C727.4166666666666,111.79490740740741,729.8333333333334,111.78425925925926,732.25,111.77361111111111C734.6666666666666,111.76296296296296,737.0833333333334,111.75231481481482,739.5,111.74166666666667C741.9166666666666,111.73101851851852,744.3333333333334,111.72037037037036,746.75,111.70972222222221C749.1666666666666,111.69907407407406,751.5833333333334,111.68842592592593,754,111.67777777777778C756.4166666666666,111.66712962962963,758.8333333333334,111.65648148148148,761.25,111.64583333333333C763.6666666666666,111.63518518518518,766.0833333333334,111.62453703703703,768.5,111.61388888888888C770.9166666666666,111.60324074074073,773.3333333333334,111.5925925925926,775.75,111.58194444444445C778.1666666666666,111.5712962962963,780.5833333333334,111.56064814814815,783,111.55C785.4166666666667,111.53935185185185,787.8333333333334,111.52870370370371,790.2500000000001,111.51805555555556C792.6666666666667,111.50740740740741,795.0833333333335,111.49675925925926,797.5000000000001,111.48611111111111C799.9166666666667,111.47546296296296,802.3333333333335,111.46481481481482,804.7500000000001,111.45416666666667C807.1666666666667,111.44351851851852,809.5833333333335,111.43287037037038,812.0000000000001,111.42222222222223C814.4166666666667,111.41157407407408,816.8333333333333,111.40092592592592,819.2499999999999,111.39027777777777C821.6666666666665,111.37962962962962,824.0833333333333,111.36898148148148,826.4999999999999,111.35833333333333C828.9166666666665,111.34768518518518,831.3333333333333,111.33703703703704,833.7499999999999,111.32638888888889C836.1666666666665,111.31574074074074,838.5833333333333,111.30509259259259,840.9999999999999,111.29444444444444C843.4166666666666,111.28379629629629,845.8333333333333,111.27314814814815,848.25,111.2625C850.6666666666666,111.25185185185185,853.0833333333334,111.2412037037037,855.5,111.23055555555555C857.9166666666666,111.2199074074074,860.3333333333334,111.20925925925927,862.75,111.19861111111112C865.1666666666666,111.18796296296297,867.5833333333334,111.17731481481482,870,111.16666666666667C872.4166666666666,111.15601851851852,874.8333333333334,111.14537037037037,877.25,111.13472222222222C879.6666666666666,111.12407407407407,882.0833333333334,111.11342592592594,884.5,111.10277777777779C886.9166666666666,111.09212962962964,889.3333333333334,111.08148148148148,891.75,111.07083333333333C894.1666666666666,111.06018518518518,896.5833333333334,111.04953703703703,899,111.03888888888888C901.4166666666666,111.02824074074073,903.8333333333334,111.01759259259259,906.25,111.00694444444444C908.6666666666666,110.9962962962963,911.0833333333334,110.98564814814814,913.5,110.975C915.9166666666666,110.96435185185184,918.3333333333334,110.95370370370371,920.75,110.94305555555556C923.1666666666666,110.93240740740741,925.5833333333334,110.92175925925926,928,110.91111111111111C930.4166666666666,110.90046296296296,932.8333333333334,110.88981481481481,935.25,110.87916666666666C937.6666666666666,110.86851851851851,940.0833333333334,110.85787037037038,942.5,110.84722222222223C944.9166666666666,110.83657407407408,947.3333333333334,110.82592592592593,949.75,110.81527777777778C952.1666666666666,110.80462962962963,954.5833333333334,110.79398148148148,957,110.78333333333333C959.4166666666666,110.77268518518518,961.8333333333334,110.76203703703703,964.25,110.75138888888888C966.6666666666667,110.74074074074073,969.0833333333334,110.73009259259258,971.5000000000001,110.71944444444443C973.9166666666667,110.70879629629628,976.3333333333335,110.69814814814815,978.7500000000001,110.6875C981.1666666666667,110.67685185185185,983.5833333333335,110.6662037037037,986.0000000000001,110.65555555555555C988.4166666666667,110.6449074074074,990.8333333333335,110.63425925925927,993.2500000000001,110.62361111111112C995.6666666666667,110.61296296296297,998.0833333333333,110.60231481481482,1000.4999999999999,110.59166666666667C1002.9166666666665,110.58101851851852,1005.3333333333333,110.57037037037037,1007.7499999999999,110.55972222222222C1010.1666666666665,110.54907407407407,1012.5833333333333,110.53842592592594,1014.9999999999999,110.52777777777779C1017.4166666666665,110.51712962962964,1019.8333333333333,110.50648148148149,1022.2499999999999,110.49583333333334C1024.6666666666665,110.48518518518519,1027.0833333333333,110.47453703703704,1029.5,110.46388888888889C1031.9166666666667,110.45324074074074,1034.3333333333333,110.44259259259259,1036.75,110.43194444444444C1039.1666666666667,110.42129629629629,1041.5833333333333,110.41064814814814,1044,110.39999999999999C1046.4166666666667,110.38935185185184,1048.8333333333333,110.3787037037037,1051.25,110.36805555555556C1053.6666666666667,110.35740740740741,1056.0833333333333,110.34675925925926,1058.5,110.33611111111111C1060.9166666666667,110.32546296296296,1063.3333333333333,110.31481481481482,1065.75,110.30416666666667C1068.1666666666667,110.29351851851852,1070.5833333333333,110.28287037037038,1073,110.27222222222223C1075.4166666666667,110.26157407407408,1077.8333333333333,110.25092592592593,1080.25,110.24027777777778C1082.6666666666667,110.22962962962963,1085.0833333333333,110.21898148148149,1087.5,110.20833333333334C1089.9166666666667,110.1976851851852,1092.3333333333333,110.18703703703704,1094.75,110.1763888888889C1097.1666666666667,110.16574074074074,1099.5833333333333,110.1550925925926,1102,110.14444444444445C1104.4166666666667,110.1337962962963,1106.8333333333333,110.12314814814815,1109.25,110.1125C1111.6666666666667,110.10185185185185,1114.0833333333333,110.0912037037037,1116.5,110.08055555555555C1118.9166666666667,110.0699074074074,1121.3333333333333,110.05925925925926,1123.75,110.04861111111111C1126.1666666666667,110.03796296296296,1128.5833333333333,110.02731481481482,1131,110.01666666666667C1133.4166666666667,110.00601851851852,1135.8333333333333,109.99537037037037,1138.25,109.98472222222222C1140.6666666666667,109.97407407407407,1143.0833333333333,109.96342592592593,1145.5,109.95277777777778C1147.9166666666667,109.94212962962963,1150.3333333333333,109.93148148148148,1152.75,109.92083333333333C1155.1666666666667,109.91018518518518,1157.5833333333333,109.91018518518518,1160,109.8888888888889C1162.4166666666667,109.86759259259262,1164.8333333333333,108.29166666666667,1167.25,107.49305555555556C1169.6666666666667,106.69444444444444,1172.0833333333333,105.89583333333333,1174.5,105.09722222222221C1176.9166666666667,104.2986111111111,1179.3333333333333,103.50000000000001,1181.75,102.7013888888889C1184.1666666666667,101.90277777777779,1186.5833333333333,101.10416666666667,1189,100.30555555555556C1191.4166666666667,99.50694444444444,1193.8333333333333,98.70833333333333,1196.25,97.90972222222221C1198.6666666666667,97.1111111111111,1201.0833333333333,96.3125,1203.5,95.51388888888889C1205.9166666666667,94.71527777777777,1208.3333333333333,93.91666666666667,1210.75,93.11805555555556C1213.1666666666667,92.31944444444444,1215.5833333333333,91.52083333333333,1218,90.72222222222221C1220.4166666666667,89.9236111111111,1222.8333333333333,89.125,1225.25,88.32638888888889C1227.6666666666667,87.52777777777777,1230.0833333333333,86.72916666666667,1232.5,85.93055555555556C1234.9166666666667,85.13194444444444,1237.3333333333333,84.33333333333333,1239.75,83.53472222222221C1242.1666666666667,82.7361111111111,1244.5833333333333,81.9375,1247,81.13888888888889C1249.4166666666667,80.34027777777777,1251.8333333333333,79.54166666666667,1254.25,78.74305555555556C1256.6666666666667,77.94444444444444,1259.0833333333333,77.14583333333333,1261.5,76.34722222222221C1263.9166666666667,75.5486111111111,1266.3333333333333,74.75,1268.75,73.95138888888889C1271.1666666666667,73.15277777777777,1273.5833333333333,72.35416666666667,1276,71.55555555555556C1278.4166666666667,70.75694444444444,1280.8333333333333,69.95833333333333,1283.25,69.15972222222221C1285.6666666666667,68.3611111111111,1288.0833333333333,67.5625,1290.5,66.76388888888889C1292.9166666666667,65.96527777777777,1295.3333333333333,65.16666666666667,1297.75,64.36805555555556C1300.1666666666667,63.56944444444444,1302.5833333333333,62.770833333333336,1305,61.97222222222222C1307.4166666666667,61.17361111111111,1309.8333333333333,60.374999999999986,1312.25,59.57638888888888C1314.6666666666667,58.77777777777777,1317.0833333333333,57.979166666666664,1319.5,57.18055555555556C1321.9166666666667,56.38194444444445,1324.3333333333333,55.58333333333333,1326.75,54.78472222222222C1329.1666666666667,53.986111111111114,1331.5833333333333,53.1875,1334,52.38888888888889C1336.4166666666667,51.590277777777786,1338.8333333333333,50.79166666666667,1341.25,49.99305555555556C1343.6666666666667,49.19444444444444,1346.0833333333333,48.39583333333333,1348.5,47.59722222222222C1350.9166666666667,46.798611111111114,1353.3333333333333,46,1355.75,45.20138888888889C1358.1666666666667,44.402777777777786,1360.5833333333333,43.604166666666686,1363,42.80555555555557C1365.4166666666667,42.00694444444446,1367.8333333333333,41.208333333333336,1370.25,40.40972222222222C1372.6666666666667,39.61111111111111,1375.0833333333333,38.8125,1377.5,38.01388888888889C1379.9166666666667,37.215277777777786,1382.3333333333333,36.41666666666667,1384.75,35.61805555555556C1387.1666666666667,34.81944444444444,1389.5833333333333,34.02083333333333,1392,33.22222222222222C1394.4166666666667,32.423611111111114,1396.8333333333333,31.625000000000004,1399.25,30.826388888888893C1401.6666666666667,30.027777777777782,1404.0833333333333,29.229166666666668,1406.5,28.430555555555557C1408.9166666666667,27.631944444444446,1411.3333333333333,26.83333333333333,1413.75,26.034722222222218C1416.1666666666667,25.236111111111107,1418.5833333333333,24.437500000000004,1421,23.638888888888893C1423.4166666666667,22.840277777777782,1425.8333333333333,22.041666666666668,1428.25,21.243055555555557C1430.6666666666667,20.444444444444446,1433.0833333333333,19.64583333333333,1435.5,18.847222222222218C1437.9166666666667,18.048611111111107,1440.3333333333333,17.250000000000004,1442.75,16.451388888888893C1445.1666666666667,15.652777777777782,1447.5833333333333,14.85416666666667,1450,14.055555555555557" fill="transparent" stroke-linecap="round" stroke="#B6509E" stroke-width="2"></path><path class="visx-linepath" d="M0,102.22222222222221C2.4166666666666665,102.22222222222221,4.833333333333334,102.22222222222221,7.25,102.22222222222221C9.666666666666666,102.22222222222221,12.083333333333334,102.22222222222221,14.5,102.22222222222221C16.916666666666668,102.22222222222221,19.333333333333332,102.22222222222221,21.75,102.22222222222221C24.166666666666668,102.22222222222221,26.583333333333332,102.22222222222221,29,102.22222222222221C31.416666666666668,102.22222222222221,33.833333333333336,102.22222222222221,36.25,102.22222222222221C38.666666666666664,102.22222222222221,41.083333333333336,102.22222222222221,43.5,102.22222222222221C45.91666666666667,102.22222222222221,48.333333333333336,102.22222222222221,50.75000000000001,102.22222222222221C53.16666666666667,102.22222222222221,55.583333333333336,102.22222222222221,58,102.22222222222221C60.416666666666664,102.22222222222221,62.833333333333336,102.22222222222221,65.25,102.22222222222221C67.66666666666667,102.22222222222221,70.08333333333333,102.22222222222221,72.5,102.22222222222221C74.91666666666667,102.22222222222221,77.33333333333333,102.22222222222221,79.75,102.22222222222221C82.16666666666667,102.22222222222221,84.58333333333333,102.22222222222221,87,102.22222222222221C89.41666666666667,102.22222222222221,91.83333333333333,102.22222222222221,94.25,102.22222222222221C96.66666666666667,102.22222222222221,99.08333333333334,102.22222222222221,101.50000000000001,102.22222222222221C103.91666666666667,102.22222222222221,106.33333333333334,102.22222222222221,108.75,102.22222222222221C111.16666666666667,102.22222222222221,113.58333333333333,102.22222222222221,116,102.22222222222221C118.41666666666667,102.22222222222221,120.83333333333334,102.22222222222221,123.25000000000001,102.22222222222221C125.66666666666667,102.22222222222221,128.08333333333334,102.22222222222221,130.5,102.22222222222221C132.91666666666666,102.22222222222221,135.33333333333334,102.22222222222221,137.75,102.22222222222221C140.16666666666666,102.22222222222221,142.58333333333334,102.22222222222221,145,102.22222222222221C147.41666666666666,102.22222222222221,149.83333333333334,102.22222222222221,152.25,102.22222222222221C154.66666666666666,102.22222222222221,157.08333333333334,102.22222222222221,159.5,102.22222222222221C161.91666666666666,102.22222222222221,164.33333333333334,102.22222222222221,166.75,102.22222222222221C169.16666666666666,102.22222222222221,171.58333333333334,102.22222222222221,174,102.22222222222221C176.41666666666666,102.22222222222221,178.83333333333334,102.22222222222221,181.25,102.22222222222221C183.66666666666666,102.22222222222221,186.08333333333334,102.22222222222221,188.5,102.22222222222221C190.91666666666666,102.22222222222221,193.33333333333334,102.22222222222221,195.75,102.22222222222221C198.16666666666669,102.22222222222221,200.58333333333334,102.22222222222221,203.00000000000003,102.22222222222221C205.41666666666669,102.22222222222221,207.83333333333331,102.22222222222221,210.24999999999997,102.22222222222221C212.66666666666666,102.22222222222221,215.08333333333331,102.22222222222221,217.5,102.22222222222221C219.91666666666666,102.22222222222221,222.33333333333334,102.22222222222221,224.75,102.22222222222221C227.16666666666666,102.22222222222221,229.58333333333334,102.22222222222221,232,102.22222222222221C234.41666666666666,102.22222222222221,236.83333333333334,102.22222222222221,239.25,102.22222222222221C241.66666666666669,102.22222222222221,244.08333333333334,102.22222222222221,246.50000000000003,102.22222222222221C248.91666666666669,102.22222222222221,251.33333333333331,102.22222222222221,253.74999999999997,102.22222222222221C256.16666666666663,102.22222222222221,258.5833333333333,102.22222222222221,261,102.22222222222221C263.4166666666667,102.22222222222221,265.8333333333333,102.22222222222221,268.25,102.22222222222221C270.6666666666667,102.22222222222221,273.0833333333333,102.22222222222221,275.5,102.22222222222221C277.9166666666667,102.22222222222221,280.3333333333333,102.22222222222221,282.75,102.22222222222221C285.1666666666667,102.22222222222221,287.5833333333333,102.22222222222221,290,102.22222222222221C292.4166666666667,102.22222222222221,294.8333333333333,102.22222222222221,297.25,102.22222222222221C299.6666666666667,102.22222222222221,302.0833333333333,102.22222222222221,304.5,102.22222222222221C306.9166666666667,102.22222222222221,309.3333333333333,102.22222222222221,311.75,102.22222222222221C314.1666666666667,102.22222222222221,316.5833333333333,102.22222222222221,319,102.22222222222221C321.4166666666667,102.22222222222221,323.8333333333333,102.22222222222221,326.25,102.22222222222221C328.6666666666667,102.22222222222221,331.0833333333333,102.22222222222221,333.5,102.22222222222221C335.9166666666667,102.22222222222221,338.3333333333333,102.22222222222221,340.75,102.22222222222221C343.1666666666667,102.22222222222221,345.5833333333333,102.22222222222221,348,102.22222222222221C350.4166666666667,102.22222222222221,352.8333333333333,102.22222222222221,355.25,102.22222222222221C357.6666666666667,102.22222222222221,360.0833333333333,102.22222222222221,362.5,102.22222222222221C364.9166666666667,102.22222222222221,367.3333333333333,102.22222222222221,369.75,102.22222222222221C372.1666666666667,102.22222222222221,374.5833333333333,102.22222222222221,377,102.22222222222221C379.4166666666667,102.22222222222221,381.8333333333333,102.22222222222221,384.25,102.22222222222221C386.6666666666667,102.22222222222221,389.0833333333333,102.22222222222221,391.5,102.22222222222221C393.9166666666667,102.22222222222221,396.33333333333337,102.22222222222221,398.75000000000006,102.22222222222221C401.16666666666674,102.22222222222221,403.58333333333337,102.22222222222221,406.00000000000006,102.22222222222221C408.4166666666667,102.22222222222221,410.8333333333333,102.22222222222221,413.24999999999994,102.22222222222221C415.66666666666663,102.22222222222221,418.08333333333326,102.22222222222221,420.49999999999994,102.22222222222221C422.91666666666663,102.22222222222221,425.3333333333333,102.22222222222221,427.75,102.22222222222221C430.1666666666667,102.22222222222221,432.5833333333333,102.22222222222221,435,102.22222222222221C437.4166666666667,102.22222222222221,439.8333333333333,102.22222222222221,442.25,102.22222222222221C444.6666666666667,102.22222222222221,447.0833333333333,102.22222222222221,449.5,102.22222222222221C451.9166666666667,102.22222222222221,454.3333333333333,102.22222222222221,456.75,102.22222222222221C459.1666666666667,102.22222222222221,461.5833333333333,102.22222222222221,464,102.22222222222221C466.4166666666667,102.22222222222221,468.8333333333333,102.22222222222221,471.25,102.22222222222221C473.6666666666667,102.22222222222221,476.0833333333333,102.22222222222221,478.5,102.22222222222221C480.9166666666667,102.22222222222221,483.33333333333337,102.22222222222221,485.75000000000006,102.22222222222221C488.16666666666674,102.22222222222221,490.58333333333337,102.22222222222221,493.00000000000006,102.22222222222221C495.4166666666667,102.22222222222221,497.8333333333333,102.22222222222221,500.24999999999994,102.22222222222221C502.66666666666663,102.22222222222221,505.08333333333326,102.22222222222221,507.49999999999994,102.22222222222221C509.91666666666663,102.22222222222221,512.3333333333333,102.22222222222221,514.75,102.22222222222221C517.1666666666666,102.22222222222221,519.5833333333334,102.22222222222221,522,102.22222222222221C524.4166666666666,102.22222222222221,526.8333333333334,102.22222222222221,529.25,102.22222222222221C531.6666666666666,102.22222222222221,534.0833333333334,102.22222222222221,536.5,102.22222222222221C538.9166666666666,102.22222222222221,541.3333333333334,102.22222222222221,543.75,102.22222222222221C546.1666666666666,102.22222222222221,548.5833333333334,102.22222222222221,551,102.22222222222221C553.4166666666666,102.22222222222221,555.8333333333334,102.22222222222221,558.25,102.22222222222221C560.6666666666666,102.22222222222221,563.0833333333334,102.22222222222221,565.5,102.22222222222221C567.9166666666666,102.22222222222221,570.3333333333334,102.22222222222221,572.75,102.22222222222221C575.1666666666666,102.22222222222221,577.5833333333334,102.22222222222221,580,102.22222222222221C582.4166666666666,102.22222222222221,584.8333333333334,102.22222222222221,587.25,102.22222222222221C589.6666666666666,102.22222222222221,592.0833333333334,102.22222222222221,594.5,102.22222222222221C596.9166666666666,102.22222222222221,599.3333333333334,102.22222222222221,601.75,102.22222222222221C604.1666666666666,102.22222222222221,606.5833333333334,102.22222222222221,609,102.22222222222221C611.4166666666666,102.22222222222221,613.8333333333334,102.22222222222221,616.25,102.22222222222221C618.6666666666666,102.22222222222221,621.0833333333334,102.22222222222221,623.5,102.22222222222221C625.9166666666666,102.22222222222221,628.3333333333334,102.22222222222221,630.75,102.22222222222221C633.1666666666666,102.22222222222221,635.5833333333334,102.22222222222221,638,102.22222222222221C640.4166666666666,102.22222222222221,642.8333333333334,102.22222222222221,645.25,102.22222222222221C647.6666666666666,102.22222222222221,650.0833333333334,102.22222222222221,652.5,102.22222222222221C654.9166666666666,102.22222222222221,657.3333333333334,102.22222222222221,659.75,102.22222222222221C662.1666666666666,102.22222222222221,664.5833333333334,102.22222222222221,667,102.22222222222221C669.4166666666666,102.22222222222221,671.8333333333334,102.22222222222221,674.25,102.22222222222221C676.6666666666666,102.22222222222221,679.0833333333334,102.22222222222221,681.5,102.22222222222221C683.9166666666666,102.22222222222221,686.3333333333334,102.22222222222221,688.75,102.22222222222221C691.1666666666666,102.22222222222221,693.5833333333334,102.22222222222221,696,102.22222222222221C698.4166666666666,102.22222222222221,700.8333333333334,102.22222222222221,703.25,102.22222222222221C705.6666666666666,102.22222222222221,708.0833333333334,102.22222222222221,710.5,102.22222222222221C712.9166666666666,102.22222222222221,715.3333333333334,102.22222222222221,717.75,102.22222222222221C720.1666666666666,102.22222222222221,722.5833333333334,102.22222222222221,725,102.22222222222221C727.4166666666666,102.22222222222221,729.8333333333334,102.22222222222221,732.25,102.22222222222221C734.6666666666666,102.22222222222221,737.0833333333334,102.22222222222221,739.5,102.22222222222221C741.9166666666666,102.22222222222221,744.3333333333334,102.22222222222221,746.75,102.22222222222221C749.1666666666666,102.22222222222221,751.5833333333334,102.22222222222221,754,102.22222222222221C756.4166666666666,102.22222222222221,758.8333333333334,102.22222222222221,761.25,102.22222222222221C763.6666666666666,102.22222222222221,766.0833333333334,102.22222222222221,768.5,102.22222222222221C770.9166666666666,102.22222222222221,773.3333333333334,102.22222222222221,775.75,102.22222222222221C778.1666666666666,102.22222222222221,780.5833333333334,102.22222222222221,783,102.22222222222221C785.4166666666667,102.22222222222221,787.8333333333334,102.22222222222221,790.2500000000001,102.22222222222221C792.6666666666667,102.22222222222221,795.0833333333335,102.22222222222221,797.5000000000001,102.22222222222221C799.9166666666667,102.22222222222221,802.3333333333335,102.22222222222221,804.7500000000001,102.22222222222221C807.1666666666667,102.22222222222221,809.5833333333335,102.22222222222221,812.0000000000001,102.22222222222221C814.4166666666667,102.22222222222221,816.8333333333333,102.22222222222221,819.2499999999999,102.22222222222221C821.6666666666665,102.22222222222221,824.0833333333333,102.22222222222221,826.4999999999999,102.22222222222221C828.9166666666665,102.22222222222221,831.3333333333333,102.22222222222221,833.7499999999999,102.22222222222221C836.1666666666665,102.22222222222221,838.5833333333333,102.22222222222221,840.9999999999999,102.22222222222221C843.4166666666666,102.22222222222221,845.8333333333333,102.22222222222221,848.25,102.22222222222221C850.6666666666666,102.22222222222221,853.0833333333334,102.22222222222221,855.5,102.22222222222221C857.9166666666666,102.22222222222221,860.3333333333334,102.22222222222221,862.75,102.22222222222221C865.1666666666666,102.22222222222221,867.5833333333334,102.22222222222221,870,102.22222222222221C872.4166666666666,102.22222222222221,874.8333333333334,102.22222222222221,877.25,102.22222222222221C879.6666666666666,102.22222222222221,882.0833333333334,102.22222222222221,884.5,102.22222222222221C886.9166666666666,102.22222222222221,889.3333333333334,102.22222222222221,891.75,102.22222222222221C894.1666666666666,102.22222222222221,896.5833333333334,102.22222222222221,899,102.22222222222221C901.4166666666666,102.22222222222221,903.8333333333334,102.22222222222221,906.25,102.22222222222221C908.6666666666666,102.22222222222221,911.0833333333334,102.22222222222221,913.5,102.22222222222221C915.9166666666666,102.22222222222221,918.3333333333334,102.22222222222221,920.75,102.22222222222221C923.1666666666666,102.22222222222221,925.5833333333334,102.22222222222221,928,102.22222222222221C930.4166666666666,102.22222222222221,932.8333333333334,102.22222222222221,935.25,102.22222222222221C937.6666666666666,102.22222222222221,940.0833333333334,102.22222222222221,942.5,102.22222222222221C944.9166666666666,102.22222222222221,947.3333333333334,102.22222222222221,949.75,102.22222222222221C952.1666666666666,102.22222222222221,954.5833333333334,102.22222222222221,957,102.22222222222221C959.4166666666666,102.22222222222221,961.8333333333334,102.22222222222221,964.25,102.22222222222221C966.6666666666667,102.22222222222221,969.0833333333334,102.22222222222221,971.5000000000001,102.22222222222221C973.9166666666667,102.22222222222221,976.3333333333335,102.22222222222221,978.7500000000001,102.22222222222221C981.1666666666667,102.22222222222221,983.5833333333335,102.22222222222221,986.0000000000001,102.22222222222221C988.4166666666667,102.22222222222221,990.8333333333335,102.22222222222221,993.2500000000001,102.22222222222221C995.6666666666667,102.22222222222221,998.0833333333333,102.22222222222221,1000.4999999999999,102.22222222222221C1002.9166666666665,102.22222222222221,1005.3333333333333,102.22222222222221,1007.7499999999999,102.22222222222221C1010.1666666666665,102.22222222222221,1012.5833333333333,102.22222222222221,1014.9999999999999,102.22222222222221C1017.4166666666665,102.22222222222221,1019.8333333333333,102.22222222222221,1022.2499999999999,102.22222222222221C1024.6666666666665,102.22222222222221,1027.0833333333333,102.22222222222221,1029.5,102.22222222222221C1031.9166666666667,102.22222222222221,1034.3333333333333,102.22222222222221,1036.75,102.22222222222221C1039.1666666666667,102.22222222222221,1041.5833333333333,102.22222222222221,1044,102.22222222222221C1046.4166666666667,102.22222222222221,1048.8333333333333,102.22222222222221,1051.25,102.22222222222221C1053.6666666666667,102.22222222222221,1056.0833333333333,102.22222222222221,1058.5,102.22222222222221C1060.9166666666667,102.22222222222221,1063.3333333333333,102.22222222222221,1065.75,102.22222222222221C1068.1666666666667,102.22222222222221,1070.5833333333333,102.22222222222221,1073,102.22222222222221C1075.4166666666667,102.22222222222221,1077.8333333333333,102.22222222222221,1080.25,102.22222222222221C1082.6666666666667,102.22222222222221,1085.0833333333333,102.22222222222221,1087.5,102.22222222222221C1089.9166666666667,102.22222222222221,1092.3333333333333,102.22222222222221,1094.75,102.22222222222221C1097.1666666666667,102.22222222222221,1099.5833333333333,102.22222222222221,1102,102.22222222222221C1104.4166666666667,102.22222222222221,1106.8333333333333,102.22222222222221,1109.25,102.22222222222221C1111.6666666666667,102.22222222222221,1114.0833333333333,102.22222222222221,1116.5,102.22222222222221C1118.9166666666667,102.22222222222221,1121.3333333333333,102.22222222222221,1123.75,102.22222222222221C1126.1666666666667,102.22222222222221,1128.5833333333333,102.22222222222221,1131,102.22222222222221C1133.4166666666667,102.22222222222221,1135.8333333333333,102.22222222222221,1138.25,102.22222222222221C1140.6666666666667,102.22222222222221,1143.0833333333333,102.22222222222221,1145.5,102.22222222222221C1147.9166666666667,102.22222222222221,1150.3333333333333,102.22222222222221,1152.75,102.22222222222221C1155.1666666666667,102.22222222222221,1157.5833333333333,102.22222222222221,1160,102.22222222222221C1162.4166666666667,102.22222222222221,1164.8333333333333,102.22222222222221,1167.25,102.22222222222221C1169.6666666666667,102.22222222222221,1172.0833333333333,102.22222222222221,1174.5,102.22222222222221C1176.9166666666667,102.22222222222221,1179.3333333333333,102.22222222222221,1181.75,102.22222222222221C1184.1666666666667,102.22222222222221,1186.5833333333333,102.22222222222221,1189,102.22222222222221C1191.4166666666667,102.22222222222221,1193.8333333333333,102.22222222222221,1196.25,102.22222222222221C1198.6666666666667,102.22222222222221,1201.0833333333333,102.22222222222221,1203.5,102.22222222222221C1205.9166666666667,102.22222222222221,1208.3333333333333,102.22222222222221,1210.75,102.22222222222221C1213.1666666666667,102.22222222222221,1215.5833333333333,102.22222222222221,1218,102.22222222222221C1220.4166666666667,102.22222222222221,1222.8333333333333,102.22222222222221,1225.25,102.22222222222221C1227.6666666666667,102.22222222222221,1230.0833333333333,102.22222222222221,1232.5,102.22222222222221C1234.9166666666667,102.22222222222221,1237.3333333333333,102.22222222222221,1239.75,102.22222222222221C1242.1666666666667,102.22222222222221,1244.5833333333333,102.22222222222221,1247,102.22222222222221C1249.4166666666667,102.22222222222221,1251.8333333333333,102.22222222222221,1254.25,102.22222222222221C1256.6666666666667,102.22222222222221,1259.0833333333333,102.22222222222221,1261.5,102.22222222222221C1263.9166666666667,102.22222222222221,1266.3333333333333,102.22222222222221,1268.75,102.22222222222221C1271.1666666666667,102.22222222222221,1273.5833333333333,102.22222222222221,1276,102.22222222222221C1278.4166666666667,102.22222222222221,1280.8333333333333,102.22222222222221,1283.25,102.22222222222221C1285.6666666666667,102.22222222222221,1288.0833333333333,102.22222222222221,1290.5,102.22222222222221C1292.9166666666667,102.22222222222221,1295.3333333333333,102.22222222222221,1297.75,102.22222222222221C1300.1666666666667,102.22222222222221,1302.5833333333333,102.22222222222221,1305,102.22222222222221C1307.4166666666667,102.22222222222221,1309.8333333333333,102.22222222222221,1312.25,102.22222222222221C1314.6666666666667,102.22222222222221,1317.0833333333333,102.22222222222221,1319.5,102.22222222222221C1321.9166666666667,102.22222222222221,1324.3333333333333,102.22222222222221,1326.75,102.22222222222221C1329.1666666666667,102.22222222222221,1331.5833333333333,102.22222222222221,1334,102.22222222222221C1336.4166666666667,102.22222222222221,1338.8333333333333,102.22222222222221,1341.25,102.22222222222221C1343.6666666666667,102.22222222222221,1346.0833333333333,102.22222222222221,1348.5,102.22222222222221C1350.9166666666667,102.22222222222221,1353.3333333333333,102.22222222222221,1355.75,102.22222222222221C1358.1666666666667,102.22222222222221,1360.5833333333333,102.22222222222221,1363,102.22222222222221C1365.4166666666667,102.22222222222221,1367.8333333333333,102.22222222222221,1370.25,102.22222222222221C1372.6666666666667,102.22222222222221,1375.0833333333333,102.22222222222221,1377.5,102.22222222222221C1379.9166666666667,102.22222222222221,1382.3333333333333,102.22222222222221,1384.75,102.22222222222221C1387.1666666666667,102.22222222222221,1389.5833333333333,102.22222222222221,1392,102.22222222222221C1394.4166666666667,102.22222222222221,1396.8333333333333,102.22222222222221,1399.25,102.22222222222221C1401.6666666666667,102.22222222222221,1404.0833333333333,102.22222222222221,1406.5,102.22222222222221C1408.9166666666667,102.22222222222221,1411.3333333333333,102.22222222222221,1413.75,102.22222222222221C1416.1666666666667,102.22222222222221,1418.5833333333333,102.22222222222221,1421,102.22222222222221C1423.4166666666667,102.22222222222221,1425.8333333333333,102.22222222222221,1428.25,102.22222222222221C1430.6666666666667,102.22222222222221,1433.0833333333333,102.22222222222221,1435.5,102.22222222222221C1437.9166666666667,102.22222222222221,1440.3333333333333,102.22222222222221,1442.75,102.22222222222221C1445.1666666666667,102.22222222222221,1447.5833333333333,102.22222222222221,1450,102.22222222222221" fill="transparent" stroke-linecap="round" stroke="#E7C6DF" stroke-width="2"></path><g class="visx-group visx-axis visx-axis-bottom" transform="translate(0, 115)"><g class="visx-group visx-axis-tick" transform="translate(0, 0)"><line class="visx-line" x1="0" y1="0" x2="0" y2="8" fill="transparent" shape-rendering="crispEdges" stroke="#000" stroke-width="0" stroke-linecap="square"></line><svg x="0" y="0" font-size="10" style="overflow:visible"><text transform="" x="0" y="18" fill="#000" font-size="10" text-anchor="middle"><tspan x="0" dy="0em">0%</tspan></text></svg></g><g class="visx-group visx-axis-tick" transform="translate(0, 0)"><line class="visx-line" x1="362.5" y1="0" x2="362.5" y2="8" fill="transparent" shape-rendering="crispEdges" stroke="#000" stroke-width="0" stroke-linecap="square"></line><svg x="0" y="0" font-size="10" style="overflow:visible"><text transform="" x="362.5" y="18" fill="#000" font-size="10" text-anchor="middle"><tspan x="362.5" dy="0em">25%</tspan></text></svg></g><g class="visx-group visx-axis-tick" transform="translate(0, 0)"><line class="visx-line" x1="725" y1="0" x2="725" y2="8" fill="transparent" shape-rendering="crispEdges" stroke="#000" stroke-width="0" stroke-linecap="square"></line><svg x="0" y="0" font-size="10" style="overflow:visible"><text transform="" x="725" y="18" fill="#000" font-size="10" text-anchor="middle"><tspan x="725" dy="0em">50%</tspan></text></svg></g><g class="visx-group visx-axis-tick" transform="translate(0, 0)"><line class="visx-line" x1="1087.5" y1="0" x2="1087.5" y2="8" fill="transparent" shape-rendering="crispEdges" stroke="#000" stroke-width="0" stroke-linecap="square"></line><svg x="0" y="0" font-size="10" style="overflow:visible"><text transform="" x="1087.5" y="18" fill="#000" font-size="10" text-anchor="middle"><tspan x="1087.5" dy="0em">75%</tspan></text></svg></g><g class="visx-group visx-axis-tick" transform="translate(0, 0)"><line class="visx-line" x1="1450" y1="0" x2="1450" y2="8" fill="transparent" shape-rendering="crispEdges" stroke="#000" stroke-width="0" stroke-linecap="square"></line><svg x="0" y="0" font-size="10" style="overflow:visible"><text transform="" x="1450" y="18" fill="#000" font-size="10" text-anchor="middle"><tspan x="1450" dy="0em">100%</tspan></text></svg></g><line class="visx-line visx-axis-line" x1="0.5" y1="0" x2="1450.5" y2="0" fill="transparent" shape-rendering="crispEdges" stroke="#222" stroke-width="0"></line></g><g class="visx-group visx-axis visx-axis-left" transform="translate(0, 0)"><g class="visx-group visx-axis-tick" transform="translate(0, 0)"><line class="visx-line" x1="0" y1="115" x2="-8" y2="115" fill="transparent" shape-rendering="crispEdges" stroke="#222" stroke-width="0" stroke-linecap="square"></line><svg x="-30" y="0" font-size="8" style="overflow:visible"><text transform="" x="-8" y="115" fill="#000" font-size="8" text-anchor="start"><tspan x="-8" dy="0em">0%</tspan></text></svg></g><g class="visx-group visx-axis-tick" transform="translate(0, 0)"><line class="visx-line" x1="0" y1="51.11111111111111" x2="-8" y2="51.11111111111111" fill="transparent" shape-rendering="crispEdges" stroke="#222" stroke-width="0" stroke-linecap="square"></line><svg x="-30" y="0" font-size="8" style="overflow:visible"><text transform="" x="-8" y="51.11111111111111" fill="#000" font-size="8" text-anchor="start"><tspan x="-8" dy="0em">50%</tspan></text></svg></g><line class="visx-line visx-axis-line" x1="0" y1="115.5" x2="0" y2="0.5" fill="transparent" shape-rendering="crispEdges" stroke="#222" stroke-width="0"></line></g><rect class="visx-bar" width="1450" height="115" fill="transparent"></rect><line class="visx-line" x1="1160" y1="28" x2="1160" y2="115" fill="transparent" shape-rendering="crispEdges" stroke="#0062D2" stroke-width="1" pointer-events="none" stroke-dasharray="5,2"></line><svg x="0" y="0" font-size="10px" style="overflow:visible"><text transform="" x="1160" y="20" font-size="10px" fill="#fff" stroke="#fff" stroke-width="0.8em" text-anchor="middle"><tspan x="1160" dy="0.355em">Optimal 80%</tspan></text></svg><svg x="0" y="0" font-size="10px" style="overflow:visible"><text transform="" x="1160" y="20" font-size="10px" fill="#62677B" text-anchor="middle"><tspan x="1160" dy="0.355em">Optimal 80%</tspan></text></svg></g></svg>