<?xml version="1.0"?><svg xmlns="http://www.w3.org/2000/svg" xmlns:xlink= "http://www.w3.org/1999/xlink" style="background: white;" width="1500" height="185"> <g style="color: black; font-size: 13px; font-family: sans-serif; transform: translate(18px, 25px);"><g><circle r="3" cx="-6" cy="-5" style="fill: #B6509E" /><text>Borrow APR, variable</text></g><g style="transform: translateX(150px);"><circle r="3" cx="-6" cy="-5" style="fill: rgb(231, 198, 223)" /><text>Borrow APR, stable</text></g><g style="transform: translateX(290px);"><circle r="3" cx="-6" cy="-5" style="fill: rgb(0, 98, 210)" /><text>Utilization Rate</text></g></g><g class="visx-group" transform="translate(40, 50)"><g class="visx-group visx-rows" transform="translate(0, 0)"><line class="visx-line" x1="0" y1="115" x2="1450" y2="115" fill="transparent" shape-rendering="crispEdges" stroke="#000" stroke-width="1" stroke-dasharray="3,3" pointer-events="none"></line><line class="visx-line" x1="0" y1="62.72727272727272" x2="1450" y2="62.72727272727272" fill="transparent" shape-rendering="crispEdges" stroke="#000" stroke-width="1" stroke-dasharray="3,3" pointer-events="none"></line><line class="visx-line" x1="0" y1="10.454545454545459" x2="1450" y2="10.454545454545459" fill="transparent" shape-rendering="crispEdges" stroke="#000" stroke-width="1" stroke-dasharray="3,3" pointer-events="none"></line></g><path class="visx-linepath" d="M0,112.38636363621988C2.4166666666666665,112.36240530294644,4.833333333333334,112.338446969673,7.25,112.31448863636363C9.666666666666666,112.29053030305427,12.083333333333334,112.26657196969697,14.5,112.24261363636364C16.916666666666668,112.21865530303032,19.333333333333332,112.19469696969698,21.75,112.17073863636364C24.166666666666668,112.1467803030303,26.583333333333332,112.12282196969696,29,112.09886363636363C31.416666666666668,112.0749053030303,33.833333333333336,112.05094696969698,36.25,112.02698863636364C38.666666666666664,112.0030303030303,41.083333333333336,111.97907196969696,43.5,111.95511363636363C45.91666666666667,111.9311553030303,48.333333333333336,111.90719696969698,50.75000000000001,111.88323863636364C53.16666666666667,111.85928030303032,55.583333333333336,111.83532196969696,58,111.81136363636364C60.416666666666664,111.7874053030303,62.833333333333336,111.76344696969699,65.25,111.73948863636365C67.66666666666667,111.7155303030303,70.08333333333333,111.69157196969698,72.5,111.66761363636364C74.91666666666667,111.6436553030303,77.33333333333333,111.61969696969699,79.75,111.59573863636365C82.16666666666667,111.57178030303031,84.58333333333333,111.54782196969697,87,111.52386363636363C89.41666666666667,111.49990530303029,91.83333333333333,111.47594696969696,94.25,111.45198863636364C96.66666666666667,111.4280303030303,99.08333333333334,111.40407196969697,101.50000000000001,111.38011363636363C103.91666666666667,111.3561553030303,106.33333333333334,111.33219696969697,108.75,111.30823863636364C111.16666666666667,111.2842803030303,113.58333333333333,111.26032196969696,116,111.23636363636363C118.41666666666667,111.2124053030303,120.83333333333334,111.18844696969698,123.25000000000001,111.16448863636364C125.66666666666667,111.14053030303032,128.08333333333334,111.11657196969696,130.5,111.09261363636364C132.91666666666666,111.0686553030303,135.33333333333334,111.04469696969699,137.75,111.02073863636365C140.16666666666666,110.9967803030303,142.58333333333334,110.97282196969697,145,110.94886363636363C147.41666666666666,110.92490530303029,149.83333333333334,110.90094696969697,152.25,110.87698863636363C154.66666666666666,110.8530303030303,157.08333333333334,110.82907196969697,159.5,110.80511363636363C161.91666666666666,110.78115530303029,164.33333333333334,110.75719696969696,166.75,110.73323863636364C169.16666666666666,110.70928030303031,171.58333333333334,110.68532196969696,174,110.66136363636363C176.41666666666666,110.6374053030303,178.83333333333334,110.61344696969698,181.25,110.58948863636364C183.66666666666666,110.5655303030303,186.08333333333334,110.54157196969697,188.5,110.51761363636363C190.91666666666666,110.4936553030303,193.33333333333334,110.46969696969697,195.75,110.44573863636364C198.16666666666669,110.4217803030303,200.58333333333334,110.39782196969698,203.00000000000003,110.37386363636364C205.41666666666669,110.3499053030303,207.83333333333331,110.32594696969696,210.24999999999997,110.30198863636363C212.66666666666666,110.27803030303029,215.08333333333331,110.25407196969698,217.5,110.23011363636364C219.91666666666666,110.20615530303031,222.33333333333334,110.18219696969697,224.75,110.15823863636363C227.16666666666666,110.1342803030303,229.58333333333334,110.11032196969697,232,110.08636363636364C234.41666666666666,110.06240530303032,236.83333333333334,110.03844696969696,239.25,110.01448863636364C241.66666666666669,109.9905303030303,244.08333333333334,109.96657196969699,246.50000000000003,109.94261363636365C248.91666666666669,109.91865530303032,251.33333333333331,109.89469696969698,253.74999999999997,109.87073863636364C256.16666666666663,109.8467803030303,258.5833333333333,109.82282196969697,261,109.79886363636363C263.4166666666667,109.7749053030303,265.8333333333333,109.75094696969697,268.25,109.72698863636363C270.6666666666667,109.70303030303029,273.0833333333333,109.67907196969696,275.5,109.65511363636364C277.9166666666667,109.63115530303031,280.3333333333333,109.60719696969696,282.75,109.58323863636363C285.1666666666667,109.5592803030303,287.5833333333333,109.53532196969698,290,109.51136363636364C292.4166666666667,109.4874053030303,294.8333333333333,109.46344696969697,297.25,109.43948863636363C299.6666666666667,109.4155303030303,302.0833333333333,109.39157196969697,304.5,109.36761363636364C306.9166666666667,109.34365530303032,309.3333333333333,109.31969696969698,311.75,109.29573863636364C314.1666666666667,109.2717803030303,316.5833333333333,109.24782196969697,319,109.22386363636363C321.4166666666667,109.19990530303029,323.8333333333333,109.17594696969695,326.25,109.15198863636363C328.6666666666667,109.1280303030303,331.0833333333333,109.10407196969697,333.5,109.08011363636363C335.9166666666667,109.0561553030303,338.3333333333333,109.03219696969697,340.75,109.00823863636363C343.1666666666667,108.98428030303029,345.5833333333333,108.96032196969696,348,108.93636363636364C350.4166666666667,108.91240530303031,352.8333333333333,108.88844696969696,355.25,108.86448863636363C357.6666666666667,108.8405303030303,360.0833333333333,108.81657196969698,362.5,108.79261363636364C364.9166666666667,108.7686553030303,367.3333333333333,108.74469696969697,369.75,108.72073863636363C372.1666666666667,108.6967803030303,374.5833333333333,108.67282196969697,377,108.64886363636364C379.4166666666667,108.62490530303032,381.8333333333333,108.60094696969698,384.25,108.57698863636364C386.6666666666667,108.5530303030303,389.0833333333333,108.52907196969696,391.5,108.50511363636363C393.9166666666667,108.48115530303029,396.33333333333337,108.45719696969698,398.75000000000006,108.43323863636364C401.16666666666674,108.40928030303031,403.58333333333337,108.38532196969697,406.00000000000006,108.36136363636363C408.4166666666667,108.33740530303031,410.8333333333333,108.31344696969697,413.24999999999994,108.28948863636364C415.66666666666663,108.2655303030303,418.08333333333326,108.24157196969696,420.49999999999994,108.21761363636364C422.91666666666663,108.1936553030303,425.3333333333333,108.16969696969699,427.75,108.14573863636365C430.1666666666667,108.12178030303032,432.5833333333333,108.09782196969698,435,108.07386363636364C437.4166666666667,108.0499053030303,439.8333333333333,108.02594696969699,442.25,108.00198863636365C444.6666666666667,107.97803030303031,447.0833333333333,107.95407196969697,449.5,107.93011363636363C451.9166666666667,107.90615530303029,454.3333333333333,107.88219696969696,456.75,107.85823863636364C459.1666666666667,107.83428030303031,461.5833333333333,107.81032196969696,464,107.78636363636363C466.4166666666667,107.7624053030303,468.8333333333333,107.73844696969698,471.25,107.71448863636364C473.6666666666667,107.6905303030303,476.0833333333333,107.66657196969696,478.5,107.64261363636363C480.9166666666667,107.6186553030303,483.33333333333337,107.59469696969698,485.75000000000006,107.57073863636364C488.16666666666674,107.54678030303032,490.58333333333337,107.52282196969698,493.00000000000006,107.49886363636364C495.4166666666667,107.4749053030303,497.8333333333333,107.45094696969697,500.24999999999994,107.42698863636363C502.66666666666663,107.40303030303029,505.08333333333326,107.37907196969695,507.49999999999994,107.35511363636363C509.91666666666663,107.33115530303029,512.3333333333333,107.30719696969697,514.75,107.28323863636363C517.1666666666666,107.25928030303031,519.5833333333334,107.23532196969697,522,107.21136363636363C524.4166666666666,107.18740530303029,526.8333333333334,107.16344696969696,529.25,107.13948863636364C531.6666666666666,107.11553030303031,534.0833333333334,107.09157196969696,536.5,107.06761363636363C538.9166666666666,107.0436553030303,541.3333333333334,107.01969696969698,543.75,106.99573863636364C546.1666666666666,106.9717803030303,548.5833333333334,106.94782196969697,551,106.92386363636363C553.4166666666666,106.8999053030303,555.8333333333334,106.87594696969697,558.25,106.85198863636364C560.6666666666666,106.82803030303032,563.0833333333334,106.80407196969698,565.5,106.78011363636364C567.9166666666666,106.7561553030303,570.3333333333334,106.73219696969696,572.75,106.70823863636363C575.1666666666666,106.6842803030303,577.5833333333334,106.66032196969698,580,106.63636363636364C582.4166666666666,106.6124053030303,584.8333333333334,106.58844696969697,587.25,106.56448863636363C589.6666666666666,106.5405303030303,592.0833333333334,106.51657196969697,594.5,106.49261363636364C596.9166666666666,106.46865530303032,599.3333333333334,106.44469696969696,601.75,106.42073863636364C604.1666666666666,106.39678030303031,606.5833333333334,106.37282196969699,609,106.34886363636365C611.4166666666666,106.3249053030303,613.8333333333334,106.30094696969698,616.25,106.27698863636364C618.6666666666666,106.2530303030303,621.0833333333334,106.22907196969697,623.5,106.20511363636363C625.9166666666666,106.1811553030303,628.3333333333334,106.15719696969697,630.75,106.13323863636363C633.1666666666666,106.10928030303029,635.5833333333334,106.08532196969696,638,106.06136363636364C640.4166666666666,106.03740530303031,642.8333333333334,106.01344696969696,645.25,105.98948863636363C647.6666666666666,105.9655303030303,650.0833333333334,105.94157196969698,652.5,105.91761363636364C654.9166666666666,105.8936553030303,657.3333333333334,105.86969696969697,659.75,105.84573863636363C662.1666666666666,105.8217803030303,664.5833333333334,105.79782196969697,667,105.77386363636364C669.4166666666666,105.74990530303032,671.8333333333334,105.72594696969698,674.25,105.70198863636364C676.6666666666666,105.6780303030303,679.0833333333334,105.65407196969697,681.5,105.63011363636363C683.9166666666666,105.60615530303029,686.3333333333334,105.58219696969695,688.75,105.55823863636363C691.1666666666666,105.5342803030303,693.5833333333334,105.51032196969697,696,105.48636363636363C698.4166666666666,105.4624053030303,700.8333333333334,105.43844696969697,703.25,105.41448863636363C705.6666666666666,105.39053030303029,708.0833333333334,105.36657196969696,710.5,105.34261363636364C712.9166666666666,105.31865530303031,715.3333333333334,105.29469696969696,717.75,105.27073863636363C720.1666666666666,105.2467803030303,722.5833333333334,105.22282196969698,725,105.19886363636364C727.4166666666666,105.1749053030303,729.8333333333334,105.15094696969697,732.25,105.12698863636363C734.6666666666666,105.1030303030303,737.0833333333334,105.07907196969697,739.5,105.05511363636364C741.9166666666666,105.03115530303032,744.3333333333334,105.00719696969698,746.75,104.98323863636364C749.1666666666666,104.9592803030303,751.5833333333334,104.93532196969696,754,104.91136363636363C756.4166666666666,104.8874053030303,758.8333333333334,104.86344696969698,761.25,104.83948863636364C763.6666666666666,104.8155303030303,766.0833333333334,104.79157196969697,768.5,104.76761363636363C770.9166666666666,104.7436553030303,773.3333333333334,104.71969696969697,775.75,104.69573863636364C778.1666666666666,104.67178030303032,780.5833333333334,104.64782196969696,783,104.62386363636364C785.4166666666667,104.5999053030303,787.8333333333334,104.57594696969699,790.2500000000001,104.55198863636365C792.6666666666667,104.52803030303032,795.0833333333335,104.50407196969698,797.5000000000001,104.48011363636364C799.9166666666667,104.4561553030303,802.3333333333335,104.43219696969699,804.7500000000001,104.40823863636365C807.1666666666667,104.38428030303031,809.5833333333335,104.36032196969697,812.0000000000001,104.33636363636363C814.4166666666667,104.31240530303029,816.8333333333333,104.28844696969696,819.2499999999999,104.26448863636364C821.6666666666665,104.2405303030303,824.0833333333333,104.21657196969696,826.4999999999999,104.19261363636363C828.9166666666665,104.1686553030303,831.3333333333333,104.14469696969698,833.7499999999999,104.12073863636364C836.1666666666665,104.0967803030303,838.5833333333333,104.07282196969696,840.9999999999999,104.04886363636363C843.4166666666666,104.0249053030303,845.8333333333333,104.00094696969698,848.25,103.97698863636364C850.6666666666666,103.95303030303032,853.0833333333334,103.92907196969698,855.5,103.90511363636364C857.9166666666666,103.8811553030303,860.3333333333334,103.85719696969697,862.75,103.83323863636363C865.1666666666666,103.80928030303029,867.5833333333334,103.78532196969695,870,103.76136363636363C872.4166666666666,103.7374053030303,874.8333333333334,103.71344696969697,877.25,103.68948863636363C879.6666666666666,103.6655303030303,882.0833333333334,103.64157196969697,884.5,103.61761363636363C886.9166666666666,103.59365530303029,889.3333333333334,103.56969696969696,891.75,103.54573863636364C894.1666666666666,103.52178030303031,896.5833333333334,103.49782196969696,899,103.47386363636363C901.4166666666666,103.4499053030303,903.8333333333334,103.42594696969698,906.25,103.40198863636364C908.6666666666666,103.3780303030303,911.0833333333334,103.35407196969697,913.5,103.33011363636363C915.9166666666666,103.3061553030303,918.3333333333334,103.28219696969697,920.75,103.25823863636364C923.1666666666666,103.23428030303032,925.5833333333334,103.21032196969698,928,103.18636363636364C930.4166666666666,103.1624053030303,932.8333333333334,103.13844696969696,935.25,103.11448863636363C937.6666666666666,103.0905303030303,940.0833333333334,103.06657196969698,942.5,103.04261363636364C944.9166666666666,103.0186553030303,947.3333333333334,102.99469696969697,949.75,102.97073863636363C952.1666666666666,102.9467803030303,954.5833333333334,102.92282196969697,957,102.89886363636364C959.4166666666666,102.87490530303032,961.8333333333334,102.85094696969696,964.25,102.82698863636364C966.6666666666667,102.8030303030303,969.0833333333334,102.77907196969699,971.5000000000001,102.75511363636365C973.9166666666667,102.73115530303032,976.3333333333335,102.70719696969698,978.7500000000001,102.68323863636364C981.1666666666667,102.6592803030303,983.5833333333335,102.63532196969699,986.0000000000001,102.61136363636365C988.4166666666667,102.58740530303031,990.8333333333335,102.56344696969697,993.2500000000001,102.53948863636363C995.6666666666667,102.51553030303029,998.0833333333333,102.49157196969696,1000.4999999999999,102.46761363636364C1002.9166666666665,102.4436553030303,1005.3333333333333,102.41969696969696,1007.7499999999999,102.39573863636363C1010.1666666666665,102.3717803030303,1012.5833333333333,102.34782196969698,1014.9999999999999,102.32386363636364C1017.4166666666665,102.2999053030303,1019.8333333333333,102.27594696969696,1022.2499999999999,102.25198863636363C1024.6666666666665,102.2280303030303,1027.0833333333333,102.20407196969698,1029.5,102.18011363636364C1031.9166666666667,102.15615530303032,1034.3333333333333,102.13219696969698,1036.75,102.10823863636364C1039.1666666666667,102.0842803030303,1041.5833333333333,102.06032196969697,1044,102.03636363636363C1046.4166666666667,102.01240530303029,1048.8333333333333,101.98844696969695,1051.25,101.96448863636363C1053.6666666666667,101.9405303030303,1056.0833333333333,101.91657196969697,1058.5,101.89261363636363C1060.9166666666667,101.8686553030303,1063.3333333333333,101.84469696969697,1065.75,101.82073863636363C1068.1666666666667,101.79678030303029,1070.5833333333333,101.77282196969696,1073,101.74886363636364C1075.4166666666667,101.72490530303031,1077.8333333333333,101.70094696969696,1080.25,101.67698863636363C1082.6666666666667,101.6530303030303,1085.0833333333333,101.62907196969698,1087.5,101.60511363636364C1089.9166666666667,101.5811553030303,1092.3333333333333,101.55719696969697,1094.75,101.53323863636363C1097.1666666666667,101.5092803030303,1099.5833333333333,101.48532196969697,1102,101.46136363636364C1104.4166666666667,101.43740530303032,1106.8333333333333,101.41344696969696,1109.25,101.38948863636364C1111.6666666666667,101.36553030303031,1114.0833333333333,101.34157196969699,1116.5,101.31761363636365C1118.9166666666667,101.2936553030303,1121.3333333333333,101.26969696969698,1123.75,101.24573863636364C1126.1666666666667,101.2217803030303,1128.5833333333333,101.19782196969697,1131,101.17386363636363C1133.4166666666667,101.1499053030303,1135.8333333333333,101.12594696969697,1138.25,101.10198863636364C1140.6666666666667,101.07803030303032,1143.0833333333333,101.05407196969696,1145.5,101.03011363636364C1147.9166666666667,101.00615530303031,1150.3333333333333,100.98219696969699,1152.75,100.95823863636365C1155.1666666666667,100.9342803030303,1157.5833333333333,100.9342803030303,1160,100.88636363636364C1162.4166666666667,100.83844696969697,1164.8333333333333,99.57954545454545,1167.25,98.92613636363636C1169.6666666666667,98.27272727272727,1172.0833333333333,97.61931818181819,1174.5,96.9659090909091C1176.9166666666667,96.3125,1179.3333333333333,95.65909090909092,1181.75,95.00568181818183C1184.1666666666667,94.35227272727273,1186.5833333333333,93.69886363636364,1189,93.04545454545455C1191.4166666666667,92.39204545454545,1193.8333333333333,91.73863636363636,1196.25,91.08522727272727C1198.6666666666667,90.43181818181817,1201.0833333333333,89.7784090909091,1203.5,89.125C1205.9166666666667,88.4715909090909,1208.3333333333333,87.81818181818181,1210.75,87.16477272727272C1213.1666666666667,86.51136363636363,1215.5833333333333,85.85795454545456,1218,85.20454545454547C1220.4166666666667,84.55113636363637,1222.8333333333333,83.89772727272728,1225.25,83.24431818181819C1227.6666666666667,82.5909090909091,1230.0833333333333,81.9375,1232.5,81.2840909090909C1234.9166666666667,80.63068181818181,1237.3333333333333,79.97727272727272,1239.75,79.32386363636363C1242.1666666666667,78.67045454545453,1244.5833333333333,78.01704545454545,1247,77.36363636363636C1249.4166666666667,76.71022727272727,1251.8333333333333,76.05681818181819,1254.25,75.4034090909091C1256.6666666666667,74.75,1259.0833333333333,74.09659090909092,1261.5,73.44318181818183C1263.9166666666667,72.78977272727273,1266.3333333333333,72.13636363636364,1268.75,71.48295454545455C1271.1666666666667,70.82954545454545,1273.5833333333333,70.17613636363636,1276,69.52272727272727C1278.4166666666667,68.86931818181817,1280.8333333333333,68.2159090909091,1283.25,67.5625C1285.6666666666667,66.9090909090909,1288.0833333333333,66.25568181818181,1290.5,65.60227272727272C1292.9166666666667,64.94886363636363,1295.3333333333333,64.29545454545455,1297.75,63.64204545454546C1300.1666666666667,62.988636363636374,1302.5833333333333,62.33522727272727,1305,61.68181818181818C1307.4166666666667,61.028409090909086,1309.8333333333333,60.375,1312.25,59.72159090909091C1314.6666666666667,59.06818181818181,1317.0833333333333,58.41477272727271,1319.5,57.761363636363626C1321.9166666666667,57.10795454545454,1324.3333333333333,56.45454545454545,1326.75,55.80113636363637C1329.1666666666667,55.14772727272728,1331.5833333333333,54.49431818181818,1334,53.840909090909086C1336.4166666666667,53.18749999999999,1338.8333333333333,52.534090909090914,1341.25,51.88068181818182C1343.6666666666667,51.22727272727273,1346.0833333333333,50.573863636363626,1348.5,49.92045454545453C1350.9166666666667,49.26704545454544,1353.3333333333333,48.61363636363635,1355.75,47.960227272727266C1358.1666666666667,47.30681818181818,1360.5833333333333,46.65340909090909,1363,46C1365.4166666666667,45.34659090909091,1367.8333333333333,44.69318181818181,1370.25,44.03977272727273C1372.6666666666667,43.38636363636364,1375.0833333333333,42.732954545454554,1377.5,42.07954545454546C1379.9166666666667,41.42613636363637,1382.3333333333333,40.77272727272727,1384.75,40.11931818181818C1387.1666666666667,39.465909090909086,1389.5833333333333,38.8125,1392,38.15909090909091C1394.4166666666667,37.50568181818181,1396.8333333333333,36.852272727272734,1399.25,36.19886363636364C1401.6666666666667,35.54545454545455,1404.0833333333333,34.89204545454546,1406.5,34.23863636363637C1408.9166666666667,33.58522727272727,1411.3333333333333,32.93181818181818,1413.75,32.278409090909086C1416.1666666666667,31.624999999999996,1418.5833333333333,30.97159090909091,1421,30.31818181818182C1423.4166666666667,29.66477272727273,1425.8333333333333,29.011363636363637,1428.25,28.357954545454543C1430.6666666666667,27.70454545454545,1433.0833333333333,27.051136363636356,1435.5,26.397727272727266C1437.9166666666667,25.744318181818176,1440.3333333333333,25.090909090909093,1442.75,24.437500000000004C1445.1666666666667,23.784090909090914,1447.5833333333333,23.13068181818182,1450,22.477272727272727" fill="transparent" stroke-linecap="round" stroke="#B6509E" stroke-width="2"></path><path class="visx-linepath" d="M0,100.8863636362199C2.4166666666666665,100.86240530294646,4.833333333333334,100.83844696967303,7.25,100.81448863636365C9.666666666666666,100.79053030305427,12.083333333333334,100.76657196969697,14.5,100.74261363636363C16.916666666666668,100.71865530303029,19.333333333333332,100.69469696969696,21.75,100.67073863636364C24.166666666666668,100.64678030303031,26.583333333333332,100.62282196969696,29,100.59886363636363C31.416666666666668,100.5749053030303,33.833333333333336,100.55094696969698,36.25,100.52698863636364C38.666666666666664,100.5030303030303,41.083333333333336,100.47907196969696,43.5,100.45511363636363C45.91666666666667,100.4311553030303,48.333333333333336,100.40719696969698,50.75000000000001,100.38323863636364C53.16666666666667,100.35928030303032,55.583333333333336,100.33532196969696,58,100.31136363636364C60.416666666666664,100.2874053030303,62.833333333333336,100.26344696969699,65.25,100.23948863636365C67.66666666666667,100.2155303030303,70.08333333333333,100.19157196969698,72.5,100.16761363636364C74.91666666666667,100.1436553030303,77.33333333333333,100.11969696969697,79.75,100.09573863636363C82.16666666666667,100.0717803030303,84.58333333333333,100.04782196969697,87,100.02386363636363C89.41666666666667,99.99990530303029,91.83333333333333,99.97594696969696,94.25,99.95198863636364C96.66666666666667,99.9280303030303,99.08333333333334,99.90407196969697,101.50000000000001,99.88011363636363C103.91666666666667,99.8561553030303,106.33333333333334,99.83219696969697,108.75,99.80823863636364C111.16666666666667,99.7842803030303,113.58333333333333,99.76032196969696,116,99.73636363636363C118.41666666666667,99.7124053030303,120.83333333333334,99.68844696969698,123.25000000000001,99.66448863636364C125.66666666666667,99.64053030303032,128.08333333333334,99.61657196969698,130.5,99.59261363636364C132.91666666666666,99.5686553030303,135.33333333333334,99.54469696969696,137.75,99.52073863636363C140.16666666666666,99.4967803030303,142.58333333333334,99.47282196969698,145,99.44886363636364C147.41666666666666,99.4249053030303,149.83333333333334,99.40094696969697,152.25,99.37698863636363C154.66666666666666,99.3530303030303,157.08333333333334,99.32907196969697,159.5,99.30511363636364C161.91666666666666,99.28115530303032,164.33333333333334,99.25719696969696,166.75,99.23323863636364C169.16666666666666,99.20928030303031,171.58333333333334,99.18532196969699,174,99.16136363636365C176.41666666666666,99.1374053030303,178.83333333333334,99.11344696969695,181.25,99.08948863636363C183.66666666666666,99.0655303030303,186.08333333333334,99.04157196969697,188.5,99.01761363636365C190.91666666666666,98.99365530303032,193.33333333333334,98.96969696969697,195.75,98.94573863636363C198.16666666666669,98.92178030303029,200.58333333333334,98.89782196969698,203.00000000000003,98.87386363636364C205.41666666666669,98.84990530303031,207.83333333333331,98.82594696969696,210.24999999999997,98.80198863636363C212.66666666666666,98.77803030303029,215.08333333333331,98.75407196969698,217.5,98.73011363636364C219.91666666666666,98.70615530303031,222.33333333333334,98.68219696969697,224.75,98.65823863636363C227.16666666666666,98.6342803030303,229.58333333333334,98.61032196969697,232,98.58636363636364C234.41666666666666,98.56240530303032,236.83333333333334,98.53844696969696,239.25,98.51448863636364C241.66666666666669,98.4905303030303,244.08333333333334,98.46657196969699,246.50000000000003,98.44261363636365C248.91666666666669,98.41865530303032,251.33333333333331,98.39469696969698,253.74999999999997,98.37073863636364C256.16666666666663,98.3467803030303,258.5833333333333,98.32282196969697,261,98.29886363636363C263.4166666666667,98.2749053030303,265.8333333333333,98.25094696969697,268.25,98.22698863636363C270.6666666666667,98.20303030303029,273.0833333333333,98.17907196969696,275.5,98.15511363636364C277.9166666666667,98.13115530303031,280.3333333333333,98.10719696969696,282.75,98.08323863636363C285.1666666666667,98.0592803030303,287.5833333333333,98.03532196969698,290,98.01136363636364C292.4166666666667,97.9874053030303,294.8333333333333,97.96344696969695,297.25,97.93948863636362C299.6666666666667,97.9155303030303,302.0833333333333,97.89157196969697,304.5,97.86761363636364C306.9166666666667,97.84365530303032,309.3333333333333,97.81969696969698,311.75,97.79573863636364C314.1666666666667,97.7717803030303,316.5833333333333,97.74782196969696,319,97.72386363636363C321.4166666666667,97.6999053030303,323.8333333333333,97.67594696969698,326.25,97.65198863636364C328.6666666666667,97.6280303030303,331.0833333333333,97.60407196969697,333.5,97.58011363636363C335.9166666666667,97.5561553030303,338.3333333333333,97.53219696969697,340.75,97.50823863636364C343.1666666666667,97.48428030303032,345.5833333333333,97.46032196969696,348,97.43636363636364C350.4166666666667,97.41240530303031,352.8333333333333,97.38844696969699,355.25,97.36448863636365C357.6666666666667,97.3405303030303,360.0833333333333,97.31657196969695,362.5,97.29261363636363C364.9166666666667,97.2686553030303,367.3333333333333,97.24469696969697,369.75,97.22073863636365C372.1666666666667,97.19678030303032,374.5833333333333,97.17282196969697,377,97.14886363636363C379.4166666666667,97.12490530303029,381.8333333333333,97.10094696969696,384.25,97.07698863636364C386.6666666666667,97.05303030303031,389.0833333333333,97.02907196969696,391.5,97.00511363636363C393.9166666666667,96.98115530303029,396.33333333333337,96.95719696969698,398.75000000000006,96.93323863636364C401.16666666666674,96.90928030303031,403.58333333333337,96.88532196969697,406.00000000000006,96.86136363636363C408.4166666666667,96.83740530303031,410.8333333333333,96.81344696969697,413.24999999999994,96.78948863636364C415.66666666666663,96.7655303030303,418.08333333333326,96.74157196969698,420.49999999999994,96.71761363636364C422.91666666666663,96.6936553030303,425.3333333333333,96.66969696969697,427.75,96.64573863636363C430.1666666666667,96.6217803030303,432.5833333333333,96.59782196969698,435,96.57386363636364C437.4166666666667,96.5499053030303,439.8333333333333,96.52594696969697,442.25,96.50198863636363C444.6666666666667,96.4780303030303,447.0833333333333,96.45407196969697,449.5,96.43011363636363C451.9166666666667,96.40615530303029,454.3333333333333,96.38219696969696,456.75,96.35823863636364C459.1666666666667,96.33428030303031,461.5833333333333,96.31032196969696,464,96.28636363636363C466.4166666666667,96.2624053030303,468.8333333333333,96.23844696969698,471.25,96.21448863636364C473.6666666666667,96.1905303030303,476.0833333333333,96.16657196969695,478.5,96.14261363636362C480.9166666666667,96.11865530303028,483.33333333333337,96.09469696969697,485.75000000000006,96.07073863636364C488.16666666666674,96.04678030303032,490.58333333333337,96.02282196969698,493.00000000000006,95.99886363636364C495.4166666666667,95.97490530303031,497.8333333333333,95.95094696969697,500.24999999999994,95.92698863636365C502.66666666666663,95.9030303030303,505.08333333333326,95.87907196969698,507.49999999999994,95.85511363636364C509.91666666666663,95.8311553030303,512.3333333333333,95.80719696969697,514.75,95.78323863636363C517.1666666666666,95.75928030303031,519.5833333333334,95.73532196969697,522,95.71136363636364C524.4166666666666,95.68740530303032,526.8333333333334,95.66344696969696,529.25,95.63948863636364C531.6666666666666,95.61553030303031,534.0833333333334,95.59157196969699,536.5,95.56761363636365C538.9166666666666,95.5436553030303,541.3333333333334,95.51969696969695,543.75,95.49573863636363C546.1666666666666,95.4717803030303,548.5833333333334,95.44782196969697,551,95.42386363636365C553.4166666666666,95.39990530303032,555.8333333333334,95.37594696969697,558.25,95.35198863636363C560.6666666666666,95.32803030303029,563.0833333333334,95.30407196969699,565.5,95.28011363636365C567.9166666666666,95.25615530303031,570.3333333333334,95.23219696969697,572.75,95.20823863636363C575.1666666666666,95.18428030303029,577.5833333333334,95.16032196969698,580,95.13636363636364C582.4166666666666,95.1124053030303,584.8333333333334,95.08844696969697,587.25,95.06448863636363C589.6666666666666,95.0405303030303,592.0833333333334,95.01657196969697,594.5,94.99261363636364C596.9166666666666,94.96865530303032,599.3333333333334,94.94469696969698,601.75,94.92073863636364C604.1666666666666,94.8967803030303,606.5833333333334,94.87282196969696,609,94.84886363636363C611.4166666666666,94.8249053030303,613.8333333333334,94.80094696969698,616.25,94.77698863636364C618.6666666666666,94.7530303030303,621.0833333333334,94.72907196969697,623.5,94.70511363636363C625.9166666666666,94.6811553030303,628.3333333333334,94.65719696969697,630.75,94.63323863636363C633.1666666666666,94.60928030303029,635.5833333333334,94.58532196969696,638,94.56136363636364C640.4166666666666,94.53740530303031,642.8333333333334,94.51344696969696,645.25,94.48948863636363C647.6666666666666,94.4655303030303,650.0833333333334,94.44157196969698,652.5,94.41761363636364C654.9166666666666,94.3936553030303,657.3333333333334,94.36969696969695,659.75,94.34573863636362C662.1666666666666,94.3217803030303,664.5833333333334,94.29782196969697,667,94.27386363636364C669.4166666666666,94.24990530303032,671.8333333333334,94.22594696969696,674.25,94.20198863636364C676.6666666666666,94.17803030303031,679.0833333333334,94.15407196969699,681.5,94.13011363636365C683.9166666666666,94.1061553030303,686.3333333333334,94.08219696969698,688.75,94.05823863636364C691.1666666666666,94.0342803030303,693.5833333333334,94.01032196969697,696,93.98636363636363C698.4166666666666,93.9624053030303,700.8333333333334,93.93844696969697,703.25,93.91448863636364C705.6666666666666,93.89053030303032,708.0833333333334,93.86657196969696,710.5,93.84261363636364C712.9166666666666,93.81865530303031,715.3333333333334,93.79469696969699,717.75,93.77073863636365C720.1666666666666,93.7467803030303,722.5833333333334,93.72282196969695,725,93.69886363636363C727.4166666666666,93.6749053030303,729.8333333333334,93.65094696969697,732.25,93.62698863636365C734.6666666666666,93.60303030303032,737.0833333333334,93.57907196969697,739.5,93.55511363636363C741.9166666666666,93.53115530303029,744.3333333333334,93.50719696969696,746.75,93.48323863636364C749.1666666666666,93.45928030303031,751.5833333333334,93.43532196969696,754,93.41136363636363C756.4166666666666,93.3874053030303,758.8333333333334,93.36344696969698,761.25,93.33948863636364C763.6666666666666,93.3155303030303,766.0833333333334,93.29157196969697,768.5,93.26761363636363C770.9166666666666,93.2436553030303,773.3333333333334,93.21969696969697,775.75,93.19573863636363C778.1666666666666,93.17178030303029,780.5833333333334,93.14782196969696,783,93.12386363636364C785.4166666666667,93.09990530303031,787.8333333333334,93.07594696969699,790.2500000000001,93.05198863636365C792.6666666666667,93.02803030303032,795.0833333333335,93.00407196969698,797.5000000000001,92.98011363636364C799.9166666666667,92.9561553030303,802.3333333333335,92.93219696969697,804.7500000000001,92.90823863636363C807.1666666666667,92.8842803030303,809.5833333333335,92.86032196969697,812.0000000000001,92.83636363636363C814.4166666666667,92.8124053030303,816.8333333333333,92.78844696969696,819.2499999999999,92.76448863636364C821.6666666666665,92.7405303030303,824.0833333333333,92.71657196969696,826.4999999999999,92.69261363636363C828.9166666666665,92.6686553030303,831.3333333333333,92.64469696969698,833.7499999999999,92.62073863636364C836.1666666666665,92.5967803030303,838.5833333333333,92.57282196969695,840.9999999999999,92.54886363636362C843.4166666666666,92.52490530303028,845.8333333333333,92.50094696969697,848.25,92.47698863636364C850.6666666666666,92.45303030303032,853.0833333333334,92.42907196969696,855.5,92.40511363636364C857.9166666666666,92.38115530303031,860.3333333333334,92.35719696969699,862.75,92.33323863636365C865.1666666666666,92.3092803030303,867.5833333333334,92.28532196969698,870,92.26136363636364C872.4166666666666,92.2374053030303,874.8333333333334,92.21344696969697,877.25,92.18948863636363C879.6666666666666,92.1655303030303,882.0833333333334,92.14157196969697,884.5,92.11761363636364C886.9166666666666,92.09365530303032,889.3333333333334,92.06969696969696,891.75,92.04573863636364C894.1666666666666,92.02178030303031,896.5833333333334,91.99782196969699,899,91.97386363636365C901.4166666666666,91.9499053030303,903.8333333333334,91.92594696969695,906.25,91.90198863636363C908.6666666666666,91.8780303030303,911.0833333333334,91.85407196969697,913.5,91.83011363636365C915.9166666666666,91.80615530303032,918.3333333333334,91.78219696969697,920.75,91.75823863636363C923.1666666666666,91.73428030303029,925.5833333333334,91.71032196969696,928,91.68636363636364C930.4166666666666,91.66240530303031,932.8333333333334,91.63844696969696,935.25,91.61448863636363C937.6666666666666,91.5905303030303,940.0833333333334,91.56657196969698,942.5,91.54261363636364C944.9166666666666,91.5186553030303,947.3333333333334,91.49469696969697,949.75,91.47073863636363C952.1666666666666,91.4467803030303,954.5833333333334,91.42282196969697,957,91.39886363636364C959.4166666666666,91.37490530303032,961.8333333333334,91.35094696969696,964.25,91.32698863636364C966.6666666666667,91.3030303030303,969.0833333333334,91.27907196969699,971.5000000000001,91.25511363636365C973.9166666666667,91.23115530303032,976.3333333333335,91.20719696969698,978.7500000000001,91.18323863636364C981.1666666666667,91.1592803030303,983.5833333333335,91.13532196969697,986.0000000000001,91.11136363636363C988.4166666666667,91.0874053030303,990.8333333333335,91.06344696969697,993.2500000000001,91.03948863636363C995.6666666666667,91.0155303030303,998.0833333333333,90.99157196969696,1000.4999999999999,90.96761363636364C1002.9166666666665,90.9436553030303,1005.3333333333333,90.91969696969696,1007.7499999999999,90.89573863636363C1010.1666666666665,90.8717803030303,1012.5833333333333,90.84782196969698,1014.9999999999999,90.82386363636364C1017.4166666666665,90.7999053030303,1019.8333333333333,90.77594696969696,1022.2499999999999,90.75198863636363C1024.6666666666665,90.7280303030303,1027.0833333333333,90.70407196969698,1029.5,90.68011363636364C1031.9166666666667,90.65615530303032,1034.3333333333333,90.63219696969698,1036.75,90.60823863636364C1039.1666666666667,90.5842803030303,1041.5833333333333,90.56032196969696,1044,90.53636363636363C1046.4166666666667,90.5124053030303,1048.8333333333333,90.48844696969698,1051.25,90.46448863636364C1053.6666666666667,90.4405303030303,1056.0833333333333,90.41657196969697,1058.5,90.39261363636363C1060.9166666666667,90.3686553030303,1063.3333333333333,90.34469696969697,1065.75,90.32073863636364C1068.1666666666667,90.29678030303032,1070.5833333333333,90.27282196969696,1073,90.24886363636364C1075.4166666666667,90.22490530303031,1077.8333333333333,90.20094696969699,1080.25,90.17698863636365C1082.6666666666667,90.1530303030303,1085.0833333333333,90.12907196969695,1087.5,90.10511363636363C1089.9166666666667,90.0811553030303,1092.3333333333333,90.05719696969697,1094.75,90.03323863636365C1097.1666666666667,90.00928030303032,1099.5833333333333,89.98532196969697,1102,89.96136363636363C1104.4166666666667,89.93740530303029,1106.8333333333333,89.91344696969696,1109.25,89.88948863636364C1111.6666666666667,89.86553030303031,1114.0833333333333,89.84157196969696,1116.5,89.81761363636363C1118.9166666666667,89.7936553030303,1121.3333333333333,89.76969696969698,1123.75,89.74573863636364C1126.1666666666667,89.7217803030303,1128.5833333333333,89.69782196969697,1131,89.67386363636363C1133.4166666666667,89.6499053030303,1135.8333333333333,89.62594696969697,1138.25,89.60198863636364C1140.6666666666667,89.57803030303032,1143.0833333333333,89.55407196969696,1145.5,89.53011363636364C1147.9166666666667,89.50615530303031,1150.3333333333333,89.48219696969699,1152.75,89.45823863636365C1155.1666666666667,89.4342803030303,1157.5833333333333,89.4342803030303,1160,89.38636363636364C1162.4166666666667,89.33844696969697,1164.8333333333333,88.07954545454545,1167.25,87.42613636363636C1169.6666666666667,86.77272727272727,1172.0833333333333,86.11931818181819,1174.5,85.4659090909091C1176.9166666666667,84.8125,1179.3333333333333,84.1590909090909,1181.75,83.50568181818181C1184.1666666666667,82.85227272727272,1186.5833333333333,82.19886363636364,1189,81.54545454545455C1191.4166666666667,80.89204545454545,1193.8333333333333,80.23863636363636,1196.25,79.58522727272727C1198.6666666666667,78.93181818181817,1201.0833333333333,78.2784090909091,1203.5,77.625C1205.9166666666667,76.9715909090909,1208.3333333333333,76.31818181818183,1210.75,75.66477272727273C1213.1666666666667,75.01136363636364,1215.5833333333333,74.35795454545455,1218,73.70454545454545C1220.4166666666667,73.05113636363636,1222.8333333333333,72.39772727272727,1225.25,71.74431818181817C1227.6666666666667,71.09090909090908,1230.0833333333333,70.4375,1232.5,69.7840909090909C1234.9166666666667,69.13068181818181,1237.3333333333333,68.47727272727273,1239.75,67.82386363636364C1242.1666666666667,67.17045454545455,1244.5833333333333,66.51704545454545,1247,65.86363636363636C1249.4166666666667,65.21022727272727,1251.8333333333333,64.55681818181817,1254.25,63.903409090909086C1256.6666666666667,63.25,1259.0833333333333,62.596590909090914,1261.5,61.94318181818183C1263.9166666666667,61.28977272727274,1266.3333333333333,60.63636363636364,1268.75,59.98295454545455C1271.1666666666667,59.32954545454545,1273.5833333333333,58.676136363636346,1276,58.02272727272726C1278.4166666666667,57.36931818181817,1280.8333333333333,56.71590909090909,1283.25,56.06250000000001C1285.6666666666667,55.40909090909092,1288.0833333333333,54.75568181818182,1290.5,54.10227272727273C1292.9166666666667,53.44886363636363,1295.3333333333333,52.79545454545455,1297.75,52.14204545454546C1300.1666666666667,51.488636363636374,1302.5833333333333,50.83522727272728,1305,50.18181818181819C1307.4166666666667,49.52840909090909,1309.8333333333333,48.874999999999986,1312.25,48.22159090909089C1314.6666666666667,47.5681818181818,1317.0833333333333,46.91477272727272,1319.5,46.26136363636363C1321.9166666666667,45.60795454545455,1324.3333333333333,44.95454545454546,1326.75,44.30113636363637C1329.1666666666667,43.64772727272727,1331.5833333333333,42.99431818181817,1334,42.340909090909086C1336.4166666666667,41.6875,1338.8333333333333,41.034090909090914,1341.25,40.38068181818183C1343.6666666666667,39.72727272727274,1346.0833333333333,39.07386363636364,1348.5,38.42045454545455C1350.9166666666667,37.76704545454545,1353.3333333333333,37.11363636363635,1355.75,36.460227272727266C1358.1666666666667,35.80681818181818,1360.5833333333333,35.15340909090909,1363,34.50000000000001C1365.4166666666667,33.84659090909092,1367.8333333333333,33.19318181818182,1370.25,32.53977272727273C1372.6666666666667,31.886363636363633,1375.0833333333333,31.23295454545454,1377.5,30.57954545454545C1379.9166666666667,29.92613636363636,1382.3333333333333,29.272727272727277,1384.75,28.619318181818187C1387.1666666666667,27.965909090909097,1389.5833333333333,27.312500000000004,1392,26.65909090909091C1394.4166666666667,26.005681818181817,1396.8333333333333,25.35227272727272,1399.25,24.69886363636363C1401.6666666666667,24.04545454545454,1404.0833333333333,23.392045454545457,1406.5,22.738636363636367C1408.9166666666667,22.085227272727277,1411.3333333333333,21.43181818181818,1413.75,20.77840909090909C1416.1666666666667,20.125,1418.5833333333333,19.471590909090914,1421,18.818181818181824C1423.4166666666667,18.164772727272734,1425.8333333333333,17.51136363636364,1428.25,16.857954545454547C1430.6666666666667,16.204545454545453,1433.0833333333333,15.55113636363636,1435.5,14.89772727272727C1437.9166666666667,14.24431818181818,1440.3333333333333,13.590909090909095,1442.75,12.937500000000005C1445.1666666666667,12.284090909090915,1447.5833333333333,11.630681818181822,1450,10.977272727272728" fill="transparent" stroke-linecap="round" stroke="#E7C6DF" stroke-width="2"></path><g class="visx-group visx-axis visx-axis-bottom" transform="translate(0, 115)"><g class="visx-group visx-axis-tick" transform="translate(0, 0)"><line class="visx-line" x1="0" y1="0" x2="0" y2="8" fill="transparent" shape-rendering="crispEdges" stroke="#000" stroke-width="0" stroke-linecap="square"></line><svg x="0" y="0" font-size="10" style="overflow:visible"><text transform="" x="0" y="18" fill="#000" font-size="10" text-anchor="middle"><tspan x="0" dy="0em">0%</tspan></text></svg></g><g class="visx-group visx-axis-tick" transform="translate(0, 0)"><line class="visx-line" x1="362.5" y1="0" x2="362.5" y2="8" fill="transparent" shape-rendering="crispEdges" stroke="#000" stroke-width="0" stroke-linecap="square"></line><svg x="0" y="0" font-size="10" style="overflow:visible"><text transform="" x="362.5" y="18" fill="#000" font-size="10" text-anchor="middle"><tspan x="362.5" dy="0em">25%</tspan></text></svg></g><g class="visx-group visx-axis-tick" transform="translate(0, 0)"><line class="visx-line" x1="725" y1="0" x2="725" y2="8" fill="transparent" shape-rendering="crispEdges" stroke="#000" stroke-width="0" stroke-linecap="square"></line><svg x="0" y="0" font-size="10" style="overflow:visible"><text transform="" x="725" y="18" fill="#000" font-size="10" text-anchor="middle"><tspan x="725" dy="0em">50%</tspan></text></svg></g><g class="visx-group visx-axis-tick" transform="translate(0, 0)"><line class="visx-line" x1="1087.5" y1="0" x2="1087.5" y2="8" fill="transparent" shape-rendering="crispEdges" stroke="#000" stroke-width="0" stroke-linecap="square"></line><svg x="0" y="0" font-size="10" style="overflow:visible"><text transform="" x="1087.5" y="18" fill="#000" font-size="10" text-anchor="middle"><tspan x="1087.5" dy="0em">75%</tspan></text></svg></g><g class="visx-group visx-axis-tick" transform="translate(0, 0)"><line class="visx-line" x1="1450" y1="0" x2="1450" y2="8" fill="transparent" shape-rendering="crispEdges" stroke="#000" stroke-width="0" stroke-linecap="square"></line><svg x="0" y="0" font-size="10" style="overflow:visible"><text transform="" x="1450" y="18" fill="#000" font-size="10" text-anchor="middle"><tspan x="1450" dy="0em">100%</tspan></text></svg></g><line class="visx-line visx-axis-line" x1="0.5" y1="0" x2="1450.5" y2="0" fill="transparent" shape-rendering="crispEdges" stroke="#222" stroke-width="0"></line></g><g class="visx-group visx-axis visx-axis-left" transform="translate(0, 0)"><g class="visx-group visx-axis-tick" transform="translate(0, 0)"><line class="visx-line" x1="0" y1="115" x2="-8" y2="115" fill="transparent" shape-rendering="crispEdges" stroke="#222" stroke-width="0" stroke-linecap="square"></line><svg x="-30" y="0" font-size="8" style="overflow:visible"><text transform="" x="-8" y="115" fill="#000" font-size="8" text-anchor="start"><tspan x="-8" dy="0em">0%</tspan></text></svg></g><g class="visx-group visx-axis-tick" transform="translate(0, 0)"><line class="visx-line" x1="0" y1="62.72727272727272" x2="-8" y2="62.72727272727272" fill="transparent" shape-rendering="crispEdges" stroke="#222" stroke-width="0" stroke-linecap="square"></line><svg x="-30" y="0" font-size="8" style="overflow:visible"><text transform="" x="-8" y="62.72727272727272" fill="#000" font-size="8" text-anchor="start"><tspan x="-8" dy="0em">100%</tspan></text></svg></g><g class="visx-group visx-axis-tick" transform="translate(0, 0)"><line class="visx-line" x1="0" y1="10.454545454545459" x2="-8" y2="10.454545454545459" fill="transparent" shape-rendering="crispEdges" stroke="#222" stroke-width="0" stroke-linecap="square"></line><svg x="-30" y="0" font-size="8" style="overflow:visible"><text transform="" x="-8" y="10.454545454545459" fill="#000" font-size="8" text-anchor="start"><tspan x="-8" dy="0em">200%</tspan></text></svg></g><line class="visx-line visx-axis-line" x1="0" y1="115.5" x2="0" y2="0.5" fill="transparent" shape-rendering="crispEdges" stroke="#222" stroke-width="0"></line></g><rect class="visx-bar" width="1450" height="115" fill="transparent"></rect><line class="visx-line" x1="1160" y1="28" x2="1160" y2="115" fill="transparent" shape-rendering="crispEdges" stroke="#0062D2" stroke-width="1" pointer-events="none" stroke-dasharray="5,2"></line><svg x="0" y="0" font-size="10px" style="overflow:visible"><text transform="" x="1160" y="20" font-size="10px" fill="#fff" stroke="#fff" stroke-width="0.8em" text-anchor="middle"><tspan x="1160" dy="0.355em">Optimal 80%</tspan></text></svg><svg x="0" y="0" font-size="10px" style="overflow:visible"><text transform="" x="1160" y="20" font-size="10px" fill="#62677B" text-anchor="middle"><tspan x="1160" dy="0.355em">Optimal 80%</tspan></text></svg></g></svg>