<?xml version="1.0"?><svg xmlns="http://www.w3.org/2000/svg" xmlns:xlink= "http://www.w3.org/1999/xlink" style="background: white;" width="1500" height="185"> <g style="color: black; font-size: 13px; font-family: sans-serif; transform: translate(18px, 25px);"><g><circle r="3" cx="-6" cy="-5" style="fill: #B6509E" /><text>Borrow APR, variable</text></g><g style="transform: translateX(150px);"><circle r="3" cx="-6" cy="-5" style="fill: rgb(231, 198, 223)" /><text>Borrow APR, stable</text></g><g style="transform: translateX(290px);"><circle r="3" cx="-6" cy="-5" style="fill: rgb(0, 98, 210)" /><text>Utilization Rate</text></g></g><g class="visx-group" transform="translate(40, 50)"><g class="visx-group visx-rows" transform="translate(0, 0)"><line class="visx-line" x1="0" y1="115" x2="1450" y2="115" fill="transparent" shape-rendering="crispEdges" stroke="#000" stroke-width="1" stroke-dasharray="3,3" pointer-events="none"></line><line class="visx-line" x1="0" y1="86.25" x2="1450" y2="86.25" fill="transparent" shape-rendering="crispEdges" stroke="#000" stroke-width="1" stroke-dasharray="3,3" pointer-events="none"></line><line class="visx-line" x1="0" y1="57.5" x2="1450" y2="57.5" fill="transparent" shape-rendering="crispEdges" stroke="#000" stroke-width="1" stroke-dasharray="3,3" pointer-events="none"></line><line class="visx-line" x1="0" y1="28.75" x2="1450" y2="28.75" fill="transparent" shape-rendering="crispEdges" stroke="#000" stroke-width="1" stroke-dasharray="3,3" pointer-events="none"></line><line class="visx-line" x1="0" y1="0" x2="1450" y2="0" fill="transparent" shape-rendering="crispEdges" stroke="#000" stroke-width="1" stroke-dasharray="3,3" pointer-events="none"></line></g><path class="visx-linepath" d="M0,114.99999999994411C2.4166666666666665,114.99068287033776,4.833333333333334,114.98136574073142,7.25,114.9720486111111C9.666666666666666,114.96273148149079,12.083333333333334,114.95341435185185,14.5,114.94409722222223C16.916666666666668,114.9347800925926,19.333333333333332,114.92546296296297,21.75,114.91614583333333C24.166666666666668,114.9068287037037,26.583333333333332,114.89751157407406,29,114.88819444444444C31.416666666666668,114.87887731481482,33.833333333333336,114.86956018518518,36.25,114.86024305555556C38.666666666666664,114.85092592592594,41.083333333333336,114.8416087962963,43.5,114.83229166666666C45.91666666666667,114.82297453703703,48.333333333333336,114.8136574074074,50.75000000000001,114.80434027777777C53.16666666666667,114.79502314814815,55.583333333333336,114.78570601851851,58,114.77638888888889C60.416666666666664,114.76707175925925,62.833333333333336,114.75775462962963,65.25,114.7484375C67.66666666666667,114.73912037037036,70.08333333333333,114.72980324074072,72.5,114.7204861111111C74.91666666666667,114.71116898148148,77.33333333333333,114.70185185185184,79.75,114.69253472222222C82.16666666666667,114.6832175925926,84.58333333333333,114.67390046296295,87,114.66458333333333C89.41666666666667,114.6552662037037,91.83333333333333,114.64594907407407,94.25,114.63663194444445C96.66666666666667,114.62731481481481,99.08333333333334,114.61799768518519,101.50000000000001,114.60868055555555C103.91666666666667,114.59936342592593,106.33333333333334,114.5900462962963,108.75,114.58072916666667C111.16666666666667,114.57141203703704,113.58333333333333,114.5620949074074,116,114.55277777777778C118.41666666666667,114.54346064814814,120.83333333333334,114.53414351851853,123.25000000000001,114.5248263888889C125.66666666666667,114.51550925925928,128.08333333333334,114.50619212962962,130.5,114.496875C132.91666666666666,114.48755787037037,135.33333333333334,114.47824074074074,137.75,114.46892361111112C140.16666666666666,114.4596064814815,142.58333333333334,114.45028935185186,145,114.44097222222223C147.41666666666666,114.43165509259259,149.83333333333334,114.42233796296296,152.25,114.41302083333333C154.66666666666666,114.40370370370371,157.08333333333334,114.39438657407408,159.5,114.38506944444445C161.91666666666666,114.37575231481483,164.33333333333334,114.3664351851852,166.75,114.35711805555556C169.16666666666666,114.34780092592592,171.58333333333334,114.33848379629629,174,114.32916666666667C176.41666666666666,114.31984953703704,178.83333333333334,114.31053240740741,181.25,114.30121527777779C183.66666666666666,114.29189814814816,186.08333333333334,114.28258101851853,188.5,114.27326388888889C190.91666666666666,114.26394675925926,193.33333333333334,114.25462962962962,195.75,114.2453125C198.16666666666669,114.23599537037036,200.58333333333334,114.22667824074075,203.00000000000003,114.21736111111112C205.41666666666669,114.2080439814815,207.83333333333331,114.19872685185186,210.24999999999997,114.18940972222222C212.66666666666666,114.18009259259259,215.08333333333331,114.17077546296296,217.5,114.16145833333333C219.91666666666666,114.1521412037037,222.33333333333334,114.14282407407407,224.75,114.13350694444445C227.16666666666666,114.12418981481483,229.58333333333334,114.11487268518519,232,114.10555555555555C234.41666666666666,114.09623842592592,236.83333333333334,114.08692129629628,239.25,114.07760416666666C241.66666666666669,114.06828703703702,244.08333333333334,114.05896990740742,246.50000000000003,114.04965277777778C248.91666666666669,114.04033564814816,251.33333333333331,114.03101851851852,253.74999999999997,114.02170138888889C256.16666666666663,114.01238425925925,258.5833333333333,114.00306712962963,261,113.99374999999999C263.4166666666667,113.98443287037037,265.8333333333333,113.97511574074073,268.25,113.96579861111111C270.6666666666667,113.95648148148149,273.0833333333333,113.94716435185185,275.5,113.93784722222222C277.9166666666667,113.92853009259258,280.3333333333333,113.91921296296294,282.75,113.90989583333332C285.1666666666667,113.9005787037037,287.5833333333333,113.89126157407406,290,113.88194444444444C292.4166666666667,113.87262731481482,294.8333333333333,113.86331018518517,297.25,113.85399305555555C299.6666666666667,113.84467592592593,302.0833333333333,113.83535879629629,304.5,113.82604166666667C306.9166666666667,113.81672453703705,309.3333333333333,113.80740740740741,311.75,113.79809027777779C314.1666666666667,113.78877314814817,316.5833333333333,113.77945601851853,319,113.7701388888889C321.4166666666667,113.76082175925926,323.8333333333333,113.75150462962962,326.25,113.7421875C328.6666666666667,113.73287037037038,331.0833333333333,113.72355324074074,333.5,113.71423611111112C335.9166666666667,113.7049189814815,338.3333333333333,113.69560185185186,340.75,113.68628472222223C343.1666666666667,113.67696759259259,345.5833333333333,113.66765046296295,348,113.65833333333333C350.4166666666667,113.64901620370371,352.8333333333333,113.63969907407407,355.25,113.63038194444445C357.6666666666667,113.62106481481483,360.0833333333333,113.6117476851852,362.5,113.60243055555556C364.9166666666667,113.59311342592592,367.3333333333333,113.58379629629628,369.75,113.57447916666666C372.1666666666667,113.56516203703704,374.5833333333333,113.5558449074074,377,113.54652777777778C379.4166666666667,113.53721064814816,381.8333333333333,113.52789351851852,384.25,113.51857638888889C386.6666666666667,113.50925925925925,389.0833333333333,113.49994212962962,391.5,113.490625C393.9166666666667,113.48130787037036,396.33333333333337,113.47199074074075,398.75000000000006,113.46267361111111C401.16666666666674,113.45335648148149,403.58333333333337,113.44403935185186,406.00000000000006,113.43472222222222C408.4166666666667,113.42540509259258,410.8333333333333,113.41608796296295,413.24999999999994,113.40677083333333C415.66666666666663,113.39745370370369,418.08333333333326,113.38813657407407,420.49999999999994,113.37881944444445C422.91666666666663,113.36950231481481,425.3333333333333,113.36018518518519,427.75,113.35086805555555C430.1666666666667,113.34155092592593,432.5833333333333,113.3322337962963,435,113.32291666666667C437.4166666666667,113.31359953703705,439.8333333333333,113.30428240740741,442.25,113.29496527777778C444.6666666666667,113.28564814814814,447.0833333333333,113.2763310185185,449.5,113.26701388888888C451.9166666666667,113.25769675925926,454.3333333333333,113.24837962962962,456.75,113.2390625C459.1666666666667,113.22974537037038,461.5833333333333,113.22042824074074,464,113.21111111111111C466.4166666666667,113.20179398148147,468.8333333333333,113.19247685185184,471.25,113.18315972222221C473.6666666666667,113.17384259259259,476.0833333333333,113.16452546296296,478.5,113.15520833333333C480.9166666666667,113.1458912037037,483.33333333333337,113.13657407407408,485.75000000000006,113.12725694444444C488.16666666666674,113.1179398148148,490.58333333333337,113.10862268518518,493.00000000000006,113.09930555555555C495.4166666666667,113.08998842592592,497.8333333333333,113.08067129629629,500.24999999999994,113.07135416666667C502.66666666666663,113.06203703703703,505.08333333333326,113.0527199074074,507.49999999999994,113.04340277777777C509.91666666666663,113.03408564814814,512.3333333333333,113.02476851851851,514.75,113.01545138888889C517.1666666666666,113.00613425925927,519.5833333333334,112.99681712962963,522,112.98750000000001C524.4166666666666,112.97818287037039,526.8333333333334,112.96886574074075,529.25,112.95954861111112C531.6666666666666,112.95023148148148,534.0833333333334,112.94091435185184,536.5,112.93159722222222C538.9166666666666,112.9222800925926,541.3333333333334,112.91296296296296,543.75,112.90364583333334C546.1666666666666,112.89432870370372,548.5833333333334,112.88501157407408,551,112.87569444444445C553.4166666666666,112.86637731481481,555.8333333333334,112.85706018518518,558.25,112.84774305555555C560.6666666666666,112.83842592592593,563.0833333333334,112.8291087962963,565.5,112.81979166666667C567.9166666666666,112.81047453703705,570.3333333333334,112.80115740740742,572.75,112.79184027777778C575.1666666666666,112.78252314814814,577.5833333333334,112.77320601851851,580,112.76388888888889C582.4166666666666,112.75457175925926,584.8333333333334,112.74525462962963,587.25,112.7359375C589.6666666666666,112.72662037037038,592.0833333333334,112.71730324074075,594.5,112.70798611111111C596.9166666666666,112.69866898148148,599.3333333333334,112.68935185185184,601.75,112.68003472222222C604.1666666666666,112.6707175925926,606.5833333333334,112.66140046296296,609,112.65208333333334C611.4166666666666,112.64276620370372,613.8333333333334,112.63344907407408,616.25,112.62413194444444C618.6666666666666,112.6148148148148,621.0833333333334,112.60549768518517,623.5,112.59618055555555C625.9166666666666,112.58686342592593,628.3333333333334,112.57754629629629,630.75,112.56822916666667C633.1666666666666,112.55891203703705,635.5833333333334,112.54959490740741,638,112.54027777777777C640.4166666666666,112.53096064814814,642.8333333333334,112.5216435185185,645.25,112.51232638888888C647.6666666666666,112.50300925925926,650.0833333333334,112.49369212962962,652.5,112.484375C654.9166666666666,112.47505787037038,657.3333333333334,112.46574074074073,659.75,112.4564236111111C662.1666666666666,112.44710648148148,664.5833333333334,112.43778935185185,667,112.42847222222223C669.4166666666666,112.4191550925926,671.8333333333334,112.40983796296297,674.25,112.40052083333333C676.6666666666666,112.3912037037037,679.0833333333334,112.38188657407406,681.5,112.37256944444444C683.9166666666666,112.36325231481482,686.3333333333334,112.35393518518518,688.75,112.34461805555556C691.1666666666666,112.33530092592594,693.5833333333334,112.3259837962963,696,112.31666666666666C698.4166666666666,112.30734953703703,700.8333333333334,112.29803240740739,703.25,112.28871527777777C705.6666666666666,112.27939814814815,708.0833333333334,112.27008101851851,710.5,112.26076388888889C712.9166666666666,112.25144675925927,715.3333333333334,112.24212962962963,717.75,112.23281250000001C720.1666666666666,112.22349537037039,722.5833333333334,112.21417824074074,725,112.20486111111111C727.4166666666666,112.19554398148149,729.8333333333334,112.18622685185186,732.25,112.17690972222223C734.6666666666666,112.16759259259261,737.0833333333334,112.15827546296298,739.5,112.14895833333334C741.9166666666666,112.1396412037037,744.3333333333334,112.13032407407407,746.75,112.12100694444445C749.1666666666666,112.11168981481482,751.5833333333334,112.10237268518519,754,112.09305555555557C756.4166666666666,112.08373842592594,758.8333333333334,112.07442129629631,761.25,112.06510416666667C763.6666666666666,112.05578703703704,766.0833333333334,112.0464699074074,768.5,112.03715277777778C770.9166666666666,112.02783564814816,773.3333333333334,112.01851851851852,775.75,112.0092013888889C778.1666666666666,111.99988425925928,780.5833333333334,111.99056712962964,783,111.98125C785.4166666666667,111.97193287037037,787.8333333333334,111.96261574074074,790.2500000000001,111.95329861111111C792.6666666666667,111.94398148148149,795.0833333333335,111.93466435185185,797.5000000000001,111.92534722222223C799.9166666666667,111.9160300925926,802.3333333333335,111.90671296296297,804.7500000000001,111.89739583333333C807.1666666666667,111.8880787037037,809.5833333333335,111.87876157407408,812.0000000000001,111.86944444444444C814.4166666666667,111.86012731481482,816.8333333333333,111.85081018518518,819.2499999999999,111.84149305555556C821.6666666666665,111.83217592592592,824.0833333333333,111.8228587962963,826.4999999999999,111.81354166666667C828.9166666666665,111.80422453703703,831.3333333333333,111.7949074074074,833.7499999999999,111.78559027777777C836.1666666666665,111.77627314814815,838.5833333333333,111.76695601851851,840.9999999999999,111.75763888888889C843.4166666666666,111.74832175925926,845.8333333333333,111.73900462962963,848.25,111.7296875C850.6666666666666,111.72037037037036,853.0833333333334,111.71105324074072,855.5,111.7017361111111C857.9166666666666,111.69241898148148,860.3333333333334,111.68310185185184,862.75,111.67378472222222C865.1666666666666,111.6644675925926,867.5833333333334,111.65515046296296,870,111.64583333333333C872.4166666666666,111.63651620370369,874.8333333333334,111.62719907407406,877.25,111.61788194444443C879.6666666666666,111.60856481481481,882.0833333333334,111.59924768518518,884.5,111.58993055555555C886.9166666666666,111.58061342592593,889.3333333333334,111.5712962962963,891.75,111.56197916666666C894.1666666666666,111.55266203703702,896.5833333333334,111.54334490740739,899,111.53402777777777C901.4166666666666,111.52471064814814,903.8333333333334,111.51539351851851,906.25,111.50607638888889C908.6666666666666,111.49675925925926,911.0833333333334,111.48744212962961,913.5,111.47812499999999C915.9166666666666,111.46880787037037,918.3333333333334,111.45949074074073,920.75,111.45017361111111C923.1666666666666,111.44085648148149,925.5833333333334,111.43153935185185,928,111.42222222222223C930.4166666666666,111.41290509259261,932.8333333333334,111.40358796296297,935.25,111.39427083333334C937.6666666666666,111.3849537037037,940.0833333333334,111.37563657407406,942.5,111.36631944444444C944.9166666666666,111.35700231481482,947.3333333333334,111.34768518518518,949.75,111.33836805555556C952.1666666666666,111.32905092592594,954.5833333333334,111.3197337962963,957,111.31041666666667C959.4166666666666,111.30109953703703,961.8333333333334,111.2917824074074,964.25,111.28246527777777C966.6666666666667,111.27314814814814,969.0833333333334,111.26383101851853,971.5000000000001,111.2545138888889C973.9166666666667,111.24519675925927,976.3333333333335,111.23587962962962,978.7500000000001,111.2265625C981.1666666666667,111.21724537037038,983.5833333333335,111.20792824074074,986.0000000000001,111.19861111111112C988.4166666666667,111.1892939814815,990.8333333333335,111.17997685185186,993.2500000000001,111.17065972222223C995.6666666666667,111.16134259259259,998.0833333333333,111.15202546296295,1000.4999999999999,111.14270833333333C1002.9166666666665,111.1333912037037,1005.3333333333333,111.12407407407407,1007.7499999999999,111.11475694444445C1010.1666666666665,111.10543981481483,1012.5833333333333,111.0961226851852,1014.9999999999999,111.08680555555556C1017.4166666666665,111.07748842592592,1019.8333333333333,111.06817129629628,1022.2499999999999,111.05885416666666C1024.6666666666665,111.04953703703703,1027.0833333333333,111.04021990740742,1029.5,111.03090277777778C1031.9166666666667,111.02158564814816,1034.3333333333333,111.01226851851852,1036.75,111.00295138888889C1039.1666666666667,110.99363425925925,1041.5833333333333,110.98431712962962,1044,110.975C1046.4166666666667,110.96568287037037,1048.8333333333333,110.95636574074074,1051.25,110.94704861111111C1053.6666666666667,110.93773148148149,1056.0833333333333,110.92841435185186,1058.5,110.91909722222222C1060.9166666666667,110.90978009259258,1063.3333333333333,110.90046296296295,1065.75,110.89114583333333C1068.1666666666667,110.8818287037037,1070.5833333333333,110.87251157407407,1073,110.86319444444445C1075.4166666666667,110.85387731481482,1077.8333333333333,110.84456018518519,1080.25,110.83524305555555C1082.6666666666667,110.82592592592592,1085.0833333333333,110.81660879629628,1087.5,110.80729166666666C1089.9166666666667,110.79797453703704,1092.3333333333333,110.7886574074074,1094.75,110.77934027777778C1097.1666666666667,110.77002314814816,1099.5833333333333,110.76070601851852,1102,110.75138888888888C1104.4166666666667,110.74207175925925,1106.8333333333333,110.73275462962961,1109.25,110.72343749999999C1111.6666666666667,110.71412037037037,1114.0833333333333,110.70480324074073,1116.5,110.69548611111111C1118.9166666666667,110.68616898148149,1121.3333333333333,110.67685185185185,1123.75,110.66753472222223C1126.1666666666667,110.6582175925926,1128.5833333333333,110.64890046296296,1131,110.63958333333333C1133.4166666666667,110.63026620370371,1135.8333333333333,110.62094907407408,1138.25,110.61163194444445C1140.6666666666667,110.60231481481483,1143.0833333333333,110.5929976851852,1145.5,110.58368055555556C1147.9166666666667,110.57436342592592,1150.3333333333333,110.56504629629629,1152.75,110.55572916666667C1155.1666666666667,110.54641203703704,1157.5833333333333,110.53709490740741,1160,110.52777777777779C1162.4166666666667,110.51846064814816,1164.8333333333333,110.50914351851853,1167.25,110.49982638888889C1169.6666666666667,110.49050925925926,1172.0833333333333,110.48119212962962,1174.5,110.471875C1176.9166666666667,110.46255787037038,1179.3333333333333,110.45324074074074,1181.75,110.44392361111112C1184.1666666666667,110.4346064814815,1186.5833333333333,110.42528935185184,1189,110.41597222222222C1191.4166666666667,110.4066550925926,1193.8333333333333,110.39733796296296,1196.25,110.38802083333334C1198.6666666666667,110.37870370370372,1201.0833333333333,110.36938657407408,1203.5,110.36006944444445C1205.9166666666667,110.35075231481481,1208.3333333333333,110.34143518518518,1210.75,110.33211805555555C1213.1666666666667,110.32280092592593,1215.5833333333333,110.3134837962963,1218,110.30416666666667C1220.4166666666667,110.29484953703705,1222.8333333333333,110.28553240740742,1225.25,110.27621527777778C1227.6666666666667,110.26689814814814,1230.0833333333333,110.25758101851851,1232.5,110.24826388888889C1234.9166666666667,110.23894675925926,1237.3333333333333,110.22962962962963,1239.75,110.2203125C1242.1666666666667,110.21099537037038,1244.5833333333333,110.20167824074075,1247,110.19236111111111C1249.4166666666667,110.18304398148148,1251.8333333333333,110.17372685185184,1254.25,110.16440972222222C1256.6666666666667,110.1550925925926,1259.0833333333333,110.14577546296296,1261.5,110.13645833333334C1263.9166666666667,110.12714120370372,1266.3333333333333,110.11782407407408,1268.75,110.10850694444444C1271.1666666666667,110.0991898148148,1273.5833333333333,110.08987268518517,1276,110.08055555555555C1278.4166666666667,110.07123842592593,1280.8333333333333,110.06192129629629,1283.25,110.05260416666667C1285.6666666666667,110.04328703703705,1288.0833333333333,110.03396990740741,1290.5,110.02465277777777C1292.9166666666667,110.01533564814814,1295.3333333333333,110.0060185185185,1297.75,109.99670138888888C1300.1666666666667,109.98738425925926,1302.5833333333333,109.98738425925926,1305,109.96875C1307.4166666666667,109.95011574074074,1309.8333333333333,107.09375,1312.25,105.65625C1314.6666666666667,104.21875,1317.0833333333333,102.78125,1319.5,101.34375C1321.9166666666667,99.90625,1324.3333333333333,98.46875,1326.75,97.03125C1329.1666666666667,95.59375,1331.5833333333333,94.15625,1334,92.71875C1336.4166666666667,91.28125,1338.8333333333333,89.84375,1341.25,88.40625C1343.6666666666667,86.96875,1346.0833333333333,85.53125,1348.5,84.09375C1350.9166666666667,82.65625,1353.3333333333333,81.21875,1355.75,79.78125C1358.1666666666667,78.34375,1360.5833333333333,76.90625,1363,75.46875C1365.4166666666667,74.03125,1367.8333333333333,72.59375,1370.25,71.15625C1372.6666666666667,69.71875,1375.0833333333333,68.28125,1377.5,66.84375C1379.9166666666667,65.40625,1382.3333333333333,63.96874999999999,1384.75,62.53124999999999C1387.1666666666667,61.09374999999999,1389.5833333333333,59.65625,1392,58.21875C1394.4166666666667,56.78125,1396.8333333333333,55.34375,1399.25,53.90625C1401.6666666666667,52.46875,1404.0833333333333,51.03125,1406.5,49.59375C1408.9166666666667,48.15625,1411.3333333333333,46.71875000000001,1413.75,45.28125000000001C1416.1666666666667,43.84375000000001,1418.5833333333333,42.40625,1421,40.96874999999999C1423.4166666666667,39.531249999999986,1425.8333333333333,38.093749999999986,1428.25,36.656249999999986C1430.6666666666667,35.218749999999986,1433.0833333333333,33.781250000000014,1435.5,32.343750000000014C1437.9166666666667,30.906250000000018,1440.3333333333333,29.468750000000004,1442.75,28.031250000000004C1445.1666666666667,26.593750000000004,1447.5833333333333,25.156250000000004,1450,23.718750000000004" fill="transparent" stroke-linecap="round" stroke="#B6509E" stroke-width="2"></path><path class="visx-linepath" d="M0,108.5312499999441C2.4166666666666665,108.52193287033775,4.833333333333334,108.51261574073142,7.25,108.5032986111111C9.666666666666666,108.49398148149079,12.083333333333334,108.48466435185185,14.5,108.47534722222223C16.916666666666668,108.4660300925926,19.333333333333332,108.45671296296295,21.75,108.44739583333333C24.166666666666668,108.43807870370371,26.583333333333332,108.42876157407407,29,108.41944444444445C31.416666666666668,108.41012731481483,33.833333333333336,108.4008101851852,36.25,108.39149305555556C38.666666666666664,108.38217592592592,41.083333333333336,108.37285879629628,43.5,108.36354166666666C45.91666666666667,108.35422453703703,48.333333333333336,108.34490740740742,50.75000000000001,108.33559027777778C53.16666666666667,108.32627314814816,55.583333333333336,108.31695601851852,58,108.30763888888889C60.416666666666664,108.29832175925925,62.833333333333336,108.28900462962962,65.25,108.2796875C67.66666666666667,108.27037037037037,70.08333333333333,108.26105324074074,72.5,108.25173611111111C74.91666666666667,108.24241898148149,77.33333333333333,108.23310185185186,79.75,108.22378472222222C82.16666666666667,108.21446759259258,84.58333333333333,108.20515046296295,87,108.19583333333333C89.41666666666667,108.1865162037037,91.83333333333333,108.17719907407407,94.25,108.16788194444445C96.66666666666667,108.15856481481481,99.08333333333334,108.14924768518519,101.50000000000001,108.13993055555555C103.91666666666667,108.13061342592592,106.33333333333334,108.12129629629628,108.75,108.11197916666666C111.16666666666667,108.10266203703702,113.58333333333333,108.0933449074074,116,108.08402777777778C118.41666666666667,108.07471064814814,120.83333333333334,108.06539351851852,123.25000000000001,108.05607638888888C125.66666666666667,108.04675925925925,128.08333333333334,108.03744212962961,130.5,108.02812499999999C132.91666666666666,108.01880787037035,135.33333333333334,108.00949074074073,137.75,108.00017361111111C140.16666666666666,107.99085648148149,142.58333333333334,107.98153935185185,145,107.97222222222223C147.41666666666666,107.9629050925926,149.83333333333334,107.95358796296296,152.25,107.94427083333333C154.66666666666666,107.93495370370371,157.08333333333334,107.92563657407408,159.5,107.91631944444445C161.91666666666666,107.90700231481483,164.33333333333334,107.8976851851852,166.75,107.88836805555556C169.16666666666666,107.87905092592592,171.58333333333334,107.86973379629629,174,107.86041666666667C176.41666666666666,107.85109953703704,178.83333333333334,107.84178240740741,181.25,107.83246527777779C183.66666666666666,107.82314814814816,186.08333333333334,107.81383101851853,188.5,107.80451388888889C190.91666666666666,107.79519675925926,193.33333333333334,107.78587962962962,195.75,107.7765625C198.16666666666669,107.76724537037036,200.58333333333334,107.75792824074075,203.00000000000003,107.74861111111112C205.41666666666669,107.7392939814815,207.83333333333331,107.72997685185184,210.24999999999997,107.72065972222222C212.66666666666666,107.71134259259259,215.08333333333331,107.70202546296298,217.5,107.69270833333334C219.91666666666666,107.68339120370372,222.33333333333334,107.67407407407408,224.75,107.66475694444445C227.16666666666666,107.65543981481481,229.58333333333334,107.64612268518518,232,107.63680555555555C234.41666666666666,107.62748842592593,236.83333333333334,107.6181712962963,239.25,107.60885416666667C241.66666666666669,107.59953703703704,244.08333333333334,107.59021990740742,246.50000000000003,107.58090277777778C248.91666666666669,107.57158564814814,251.33333333333331,107.56226851851851,253.74999999999997,107.55295138888889C256.16666666666663,107.54363425925925,258.5833333333333,107.53431712962964,261,107.525C263.4166666666667,107.51568287037038,265.8333333333333,107.50636574074075,268.25,107.49704861111111C270.6666666666667,107.48773148148148,273.0833333333333,107.47841435185184,275.5,107.46909722222222C277.9166666666667,107.4597800925926,280.3333333333333,107.45046296296296,282.75,107.44114583333334C285.1666666666667,107.43182870370372,287.5833333333333,107.42251157407408,290,107.41319444444444C292.4166666666667,107.4038773148148,294.8333333333333,107.39456018518517,297.25,107.38524305555555C299.6666666666667,107.37592592592593,302.0833333333333,107.36660879629629,304.5,107.35729166666667C306.9166666666667,107.34797453703705,309.3333333333333,107.33865740740741,311.75,107.32934027777777C314.1666666666667,107.32002314814814,316.5833333333333,107.3107060185185,319,107.30138888888888C321.4166666666667,107.29207175925926,323.8333333333333,107.28275462962962,326.25,107.2734375C328.6666666666667,107.26412037037038,331.0833333333333,107.25480324074074,333.5,107.2454861111111C335.9166666666667,107.23616898148147,338.3333333333333,107.22685185185183,340.75,107.21753472222221C343.1666666666667,107.20821759259259,345.5833333333333,107.19890046296295,348,107.18958333333333C350.4166666666667,107.18026620370371,352.8333333333333,107.17094907407407,355.25,107.16163194444445C357.6666666666667,107.15231481481483,360.0833333333333,107.14299768518518,362.5,107.13368055555556C364.9166666666667,107.12436342592594,367.3333333333333,107.1150462962963,369.75,107.10572916666668C372.1666666666667,107.09641203703706,374.5833333333333,107.08709490740742,377,107.07777777777778C379.4166666666667,107.06846064814815,381.8333333333333,107.05914351851851,384.25,107.04982638888889C386.6666666666667,107.04050925925927,389.0833333333333,107.03119212962963,391.5,107.02187500000001C393.9166666666667,107.01255787037037,396.33333333333337,107.00324074074075,398.75000000000006,106.99392361111111C401.16666666666674,106.98460648148148,403.58333333333337,106.97528935185186,406.00000000000006,106.96597222222222C408.4166666666667,106.9566550925926,410.8333333333333,106.94733796296296,413.24999999999994,106.93802083333334C415.66666666666663,106.9287037037037,418.08333333333326,106.91938657407408,420.49999999999994,106.91006944444445C422.91666666666663,106.90075231481481,425.3333333333333,106.89143518518519,427.75,106.88211805555555C430.1666666666667,106.87280092592593,432.5833333333333,106.8634837962963,435,106.85416666666667C437.4166666666667,106.84484953703705,439.8333333333333,106.83553240740741,442.25,106.82621527777778C444.6666666666667,106.81689814814814,447.0833333333333,106.8075810185185,449.5,106.79826388888888C451.9166666666667,106.78894675925926,454.3333333333333,106.77962962962962,456.75,106.7703125C459.1666666666667,106.76099537037038,461.5833333333333,106.75167824074074,464,106.74236111111111C466.4166666666667,106.73304398148147,468.8333333333333,106.72372685185184,471.25,106.71440972222221C473.6666666666667,106.70509259259259,476.0833333333333,106.69577546296296,478.5,106.68645833333333C480.9166666666667,106.6771412037037,483.33333333333337,106.66782407407408,485.75000000000006,106.65850694444444C488.16666666666674,106.6491898148148,490.58333333333337,106.63987268518518,493.00000000000006,106.63055555555555C495.4166666666667,106.62123842592592,497.8333333333333,106.61192129629629,500.24999999999994,106.60260416666667C502.66666666666663,106.59328703703703,505.08333333333326,106.58396990740741,507.49999999999994,106.57465277777777C509.91666666666663,106.56533564814814,512.3333333333333,106.55601851851851,514.75,106.54670138888888C517.1666666666666,106.53738425925926,519.5833333333334,106.52806712962962,522,106.51875C524.4166666666666,106.50943287037038,526.8333333333334,106.50011574074074,529.25,106.4907986111111C531.6666666666666,106.48148148148147,534.0833333333334,106.47216435185183,536.5,106.46284722222221C538.9166666666666,106.45353009259259,541.3333333333334,106.44421296296295,543.75,106.43489583333333C546.1666666666666,106.4255787037037,548.5833333333334,106.41626157407407,551,106.40694444444445C553.4166666666666,106.39762731481483,555.8333333333334,106.38831018518518,558.25,106.37899305555555C560.6666666666666,106.36967592592593,563.0833333333334,106.3603587962963,565.5,106.35104166666667C567.9166666666666,106.34172453703705,570.3333333333334,106.3324074074074,572.75,106.32309027777778C575.1666666666666,106.31377314814816,577.5833333333334,106.30445601851852,580,106.2951388888889C582.4166666666666,106.28582175925928,584.8333333333334,106.27650462962964,587.25,106.2671875C589.6666666666666,106.25787037037037,592.0833333333334,106.24855324074073,594.5,106.23923611111111C596.9166666666666,106.22991898148149,599.3333333333334,106.22060185185185,601.75,106.21128472222223C604.1666666666666,106.20196759259261,606.5833333333334,106.19265046296297,609,106.18333333333334C611.4166666666666,106.1740162037037,613.8333333333334,106.16469907407406,616.25,106.15538194444444C618.6666666666666,106.14606481481482,621.0833333333334,106.13674768518518,623.5,106.12743055555556C625.9166666666666,106.11811342592594,628.3333333333334,106.1087962962963,630.75,106.09947916666667C633.1666666666666,106.09016203703703,635.5833333333334,106.0808449074074,638,106.07152777777777C640.4166666666666,106.06221064814815,642.8333333333334,106.05289351851852,645.25,106.0435763888889C647.6666666666666,106.03425925925927,650.0833333333334,106.02494212962964,652.5,106.015625C654.9166666666666,106.00630787037036,657.3333333333334,105.99699074074073,659.75,105.9876736111111C662.1666666666666,105.97835648148148,664.5833333333334,105.96903935185185,667,105.95972222222223C669.4166666666666,105.9504050925926,671.8333333333334,105.94108796296297,674.25,105.93177083333333C676.6666666666666,105.9224537037037,679.0833333333334,105.91313657407406,681.5,105.90381944444444C683.9166666666666,105.89450231481482,686.3333333333334,105.88518518518518,688.75,105.87586805555556C691.1666666666666,105.86655092592594,693.5833333333334,105.85723379629628,696,105.84791666666666C698.4166666666666,105.83859953703704,700.8333333333334,105.8292824074074,703.25,105.81996527777778C705.6666666666666,105.81064814814816,708.0833333333334,105.80133101851852,710.5,105.79201388888889C712.9166666666666,105.78269675925925,715.3333333333334,105.77337962962963,717.75,105.7640625C720.1666666666666,105.75474537037036,722.5833333333334,105.74542824074072,725,105.7361111111111C727.4166666666666,105.72679398148148,729.8333333333334,105.71747685185184,732.25,105.70815972222222C734.6666666666666,105.6988425925926,737.0833333333334,105.68952546296295,739.5,105.68020833333333C741.9166666666666,105.6708912037037,744.3333333333334,105.66157407407407,746.75,105.65225694444445C749.1666666666666,105.64293981481482,751.5833333333334,105.63362268518517,754,105.62430555555555C756.4166666666666,105.61498842592593,758.8333333333334,105.6056712962963,761.25,105.59635416666667C763.6666666666666,105.58703703703705,766.0833333333334,105.57771990740741,768.5,105.56840277777779C770.9166666666666,105.55908564814817,773.3333333333334,105.54976851851853,775.75,105.5404513888889C778.1666666666666,105.53113425925926,780.5833333333334,105.52181712962962,783,105.5125C785.4166666666667,105.50318287037037,787.8333333333334,105.49386574074076,790.2500000000001,105.48454861111112C792.6666666666667,105.4752314814815,795.0833333333335,105.46591435185186,797.5000000000001,105.45659722222223C799.9166666666667,105.44728009259259,802.3333333333335,105.43796296296296,804.7500000000001,105.42864583333333C807.1666666666667,105.41932870370371,809.5833333333335,105.41001157407409,812.0000000000001,105.40069444444445C814.4166666666667,105.39137731481483,816.8333333333333,105.3820601851852,819.2499999999999,105.37274305555556C821.6666666666665,105.36342592592592,824.0833333333333,105.35410879629629,826.4999999999999,105.34479166666667C828.9166666666665,105.33547453703704,831.3333333333333,105.32615740740741,833.7499999999999,105.31684027777779C836.1666666666665,105.30752314814816,838.5833333333333,105.29820601851853,840.9999999999999,105.28888888888889C843.4166666666666,105.27957175925926,845.8333333333333,105.27025462962963,848.25,105.2609375C850.6666666666666,105.25162037037038,853.0833333333334,105.24230324074074,855.5,105.23298611111112C857.9166666666666,105.2236689814815,860.3333333333334,105.21435185185186,862.75,105.20503472222222C865.1666666666666,105.19571759259259,867.5833333333334,105.18640046296295,870,105.17708333333333C872.4166666666666,105.1677662037037,874.8333333333334,105.15844907407407,877.25,105.14913194444445C879.6666666666666,105.13981481481483,882.0833333333334,105.13049768518519,884.5,105.12118055555555C886.9166666666666,105.11186342592592,889.3333333333334,105.10254629629628,891.75,105.09322916666666C894.1666666666666,105.08391203703704,896.5833333333334,105.0745949074074,899,105.06527777777778C901.4166666666666,105.05596064814816,903.8333333333334,105.04664351851852,906.25,105.03732638888889C908.6666666666666,105.02800925925925,911.0833333333334,105.01869212962961,913.5,105.00937499999999C915.9166666666666,105.00005787037037,918.3333333333334,104.99074074074073,920.75,104.98142361111111C923.1666666666666,104.97210648148149,925.5833333333334,104.96278935185185,928,104.95347222222222C930.4166666666666,104.94415509259258,932.8333333333334,104.93483796296294,935.25,104.92552083333332C937.6666666666666,104.9162037037037,940.0833333333334,104.90688657407406,942.5,104.89756944444444C944.9166666666666,104.88825231481482,947.3333333333334,104.87893518518517,949.75,104.86961805555555C952.1666666666666,104.86030092592593,954.5833333333334,104.85098379629629,957,104.84166666666667C959.4166666666666,104.83234953703705,961.8333333333334,104.82303240740741,964.25,104.81371527777779C966.6666666666667,104.80439814814815,969.0833333333334,104.79508101851853,971.5000000000001,104.7857638888889C973.9166666666667,104.77644675925926,976.3333333333335,104.76712962962962,978.7500000000001,104.7578125C981.1666666666667,104.74849537037038,983.5833333333335,104.73917824074074,986.0000000000001,104.72986111111112C988.4166666666667,104.7205439814815,990.8333333333335,104.71122685185186,993.2500000000001,104.70190972222223C995.6666666666667,104.69259259259259,998.0833333333333,104.68327546296295,1000.4999999999999,104.67395833333333C1002.9166666666665,104.6646412037037,1005.3333333333333,104.65532407407407,1007.7499999999999,104.64600694444445C1010.1666666666665,104.63668981481483,1012.5833333333333,104.6273726851852,1014.9999999999999,104.61805555555556C1017.4166666666665,104.60873842592592,1019.8333333333333,104.59942129629628,1022.2499999999999,104.59010416666666C1024.6666666666665,104.58078703703703,1027.0833333333333,104.57146990740742,1029.5,104.56215277777778C1031.9166666666667,104.55283564814816,1034.3333333333333,104.54351851851852,1036.75,104.53420138888889C1039.1666666666667,104.52488425925925,1041.5833333333333,104.51556712962962,1044,104.50625C1046.4166666666667,104.49693287037037,1048.8333333333333,104.48761574074074,1051.25,104.47829861111111C1053.6666666666667,104.46898148148149,1056.0833333333333,104.45966435185186,1058.5,104.45034722222222C1060.9166666666667,104.44103009259258,1063.3333333333333,104.43171296296295,1065.75,104.42239583333333C1068.1666666666667,104.4130787037037,1070.5833333333333,104.40376157407407,1073,104.39444444444445C1075.4166666666667,104.38512731481482,1077.8333333333333,104.37581018518519,1080.25,104.36649305555555C1082.6666666666667,104.35717592592592,1085.0833333333333,104.34785879629628,1087.5,104.33854166666666C1089.9166666666667,104.32922453703704,1092.3333333333333,104.3199074074074,1094.75,104.31059027777778C1097.1666666666667,104.30127314814816,1099.5833333333333,104.2919560185185,1102,104.28263888888888C1104.4166666666667,104.27332175925926,1106.8333333333333,104.26400462962962,1109.25,104.2546875C1111.6666666666667,104.24537037037038,1114.0833333333333,104.23605324074074,1116.5,104.22673611111111C1118.9166666666667,104.21741898148147,1121.3333333333333,104.20810185185184,1123.75,104.19878472222221C1126.1666666666667,104.18946759259259,1128.5833333333333,104.18015046296296,1131,104.17083333333333C1133.4166666666667,104.16151620370371,1135.8333333333333,104.15219907407408,1138.25,104.14288194444444C1140.6666666666667,104.1335648148148,1143.0833333333333,104.12424768518517,1145.5,104.11493055555555C1147.9166666666667,104.10561342592592,1150.3333333333333,104.09629629629629,1152.75,104.08697916666667C1155.1666666666667,104.07766203703704,1157.5833333333333,104.0683449074074,1160,104.05902777777777C1162.4166666666667,104.04971064814815,1164.8333333333333,104.04039351851851,1167.25,104.03107638888889C1169.6666666666667,104.02175925925927,1172.0833333333333,104.01244212962963,1174.5,104.00312500000001C1176.9166666666667,103.99380787037039,1179.3333333333333,103.98449074074075,1181.75,103.97517361111112C1184.1666666666667,103.96585648148148,1186.5833333333333,103.95653935185184,1189,103.94722222222222C1191.4166666666667,103.9379050925926,1193.8333333333333,103.92858796296296,1196.25,103.91927083333334C1198.6666666666667,103.90995370370372,1201.0833333333333,103.90063657407408,1203.5,103.89131944444445C1205.9166666666667,103.88200231481481,1208.3333333333333,103.87268518518518,1210.75,103.86336805555555C1213.1666666666667,103.85405092592593,1215.5833333333333,103.8447337962963,1218,103.83541666666667C1220.4166666666667,103.82609953703705,1222.8333333333333,103.81678240740742,1225.25,103.80746527777778C1227.6666666666667,103.79814814814814,1230.0833333333333,103.78883101851851,1232.5,103.77951388888889C1234.9166666666667,103.77019675925926,1237.3333333333333,103.76087962962963,1239.75,103.7515625C1242.1666666666667,103.74224537037038,1244.5833333333333,103.73292824074073,1247,103.72361111111111C1249.4166666666667,103.71429398148149,1251.8333333333333,103.70497685185185,1254.25,103.69565972222223C1256.6666666666667,103.68634259259261,1259.0833333333333,103.67702546296297,1261.5,103.66770833333334C1263.9166666666667,103.6583912037037,1266.3333333333333,103.64907407407408,1268.75,103.63975694444444C1271.1666666666667,103.6304398148148,1273.5833333333333,103.62112268518517,1276,103.61180555555555C1278.4166666666667,103.60248842592593,1280.8333333333333,103.59317129629629,1283.25,103.58385416666667C1285.6666666666667,103.57453703703705,1288.0833333333333,103.56521990740741,1290.5,103.55590277777777C1292.9166666666667,103.54658564814814,1295.3333333333333,103.5372685185185,1297.75,103.52795138888888C1300.1666666666667,103.51863425925926,1302.5833333333333,103.51863425925926,1305,103.5C1307.4166666666667,103.48136574074074,1309.8333333333333,100.625,1312.25,99.1875C1314.6666666666667,97.75,1317.0833333333333,96.3125,1319.5,94.875C1321.9166666666667,93.4375,1324.3333333333333,92,1326.75,90.5625C1329.1666666666667,89.125,1331.5833333333333,87.6875,1334,86.25C1336.4166666666667,84.8125,1338.8333333333333,83.375,1341.25,81.9375C1343.6666666666667,80.5,1346.0833333333333,79.0625,1348.5,77.625C1350.9166666666667,76.1875,1353.3333333333333,74.75000000000001,1355.75,73.31250000000001C1358.1666666666667,71.87500000000001,1360.5833333333333,70.4375,1363,69C1365.4166666666667,67.5625,1367.8333333333333,66.125,1370.25,64.6875C1372.6666666666667,63.25,1375.0833333333333,61.8125,1377.5,60.375C1379.9166666666667,58.9375,1382.3333333333333,57.50000000000001,1384.75,56.06250000000001C1387.1666666666667,54.62500000000001,1389.5833333333333,53.18749999999999,1392,51.74999999999999C1394.4166666666667,50.31249999999999,1396.8333333333333,48.875,1399.25,47.4375C1401.6666666666667,46,1404.0833333333333,44.5625,1406.5,43.125C1408.9166666666667,41.6875,1411.3333333333333,40.25,1413.75,38.8125C1416.1666666666667,37.375,1418.5833333333333,35.93749999999999,1421,34.49999999999999C1423.4166666666667,33.06249999999999,1425.8333333333333,31.624999999999996,1428.25,30.187499999999996C1430.6666666666667,28.749999999999996,1433.0833333333333,27.312499999999996,1435.5,25.874999999999996C1437.9166666666667,24.437499999999996,1440.3333333333333,23,1442.75,21.5625C1445.1666666666667,20.125,1447.5833333333333,18.687500000000004,1450,17.250000000000004" fill="transparent" stroke-linecap="round" stroke="#E7C6DF" stroke-width="2"></path><g class="visx-group visx-axis visx-axis-bottom" transform="translate(0, 115)"><g class="visx-group visx-axis-tick" transform="translate(0, 0)"><line class="visx-line" x1="0" y1="0" x2="0" y2="8" fill="transparent" shape-rendering="crispEdges" stroke="#000" stroke-width="0" stroke-linecap="square"></line><svg x="0" y="0" font-size="10" style="overflow:visible"><text transform="" x="0" y="18" fill="#000" font-size="10" text-anchor="middle"><tspan x="0" dy="0em">0%</tspan></text></svg></g><g class="visx-group visx-axis-tick" transform="translate(0, 0)"><line class="visx-line" x1="362.5" y1="0" x2="362.5" y2="8" fill="transparent" shape-rendering="crispEdges" stroke="#000" stroke-width="0" stroke-linecap="square"></line><svg x="0" y="0" font-size="10" style="overflow:visible"><text transform="" x="362.5" y="18" fill="#000" font-size="10" text-anchor="middle"><tspan x="362.5" dy="0em">25%</tspan></text></svg></g><g class="visx-group visx-axis-tick" transform="translate(0, 0)"><line class="visx-line" x1="725" y1="0" x2="725" y2="8" fill="transparent" shape-rendering="crispEdges" stroke="#000" stroke-width="0" stroke-linecap="square"></line><svg x="0" y="0" font-size="10" style="overflow:visible"><text transform="" x="725" y="18" fill="#000" font-size="10" text-anchor="middle"><tspan x="725" dy="0em">50%</tspan></text></svg></g><g class="visx-group visx-axis-tick" transform="translate(0, 0)"><line class="visx-line" x1="1087.5" y1="0" x2="1087.5" y2="8" fill="transparent" shape-rendering="crispEdges" stroke="#000" stroke-width="0" stroke-linecap="square"></line><svg x="0" y="0" font-size="10" style="overflow:visible"><text transform="" x="1087.5" y="18" fill="#000" font-size="10" text-anchor="middle"><tspan x="1087.5" dy="0em">75%</tspan></text></svg></g><g class="visx-group visx-axis-tick" transform="translate(0, 0)"><line class="visx-line" x1="1450" y1="0" x2="1450" y2="8" fill="transparent" shape-rendering="crispEdges" stroke="#000" stroke-width="0" stroke-linecap="square"></line><svg x="0" y="0" font-size="10" style="overflow:visible"><text transform="" x="1450" y="18" fill="#000" font-size="10" text-anchor="middle"><tspan x="1450" dy="0em">100%</tspan></text></svg></g><line class="visx-line visx-axis-line" x1="0.5" y1="0" x2="1450.5" y2="0" fill="transparent" shape-rendering="crispEdges" stroke="#222" stroke-width="0"></line></g><g class="visx-group visx-axis visx-axis-left" transform="translate(0, 0)"><g class="visx-group visx-axis-tick" transform="translate(0, 0)"><line class="visx-line" x1="0" y1="115" x2="-8" y2="115" fill="transparent" shape-rendering="crispEdges" stroke="#222" stroke-width="0" stroke-linecap="square"></line><svg x="-30" y="0" font-size="8" style="overflow:visible"><text transform="" x="-8" y="115" fill="#000" font-size="8" text-anchor="start"><tspan x="-8" dy="0em">0%</tspan></text></svg></g><g class="visx-group visx-axis-tick" transform="translate(0, 0)"><line class="visx-line" x1="0" y1="43.125" x2="-8" y2="43.125" fill="transparent" shape-rendering="crispEdges" stroke="#222" stroke-width="0" stroke-linecap="square"></line><svg x="-30" y="0" font-size="8" style="overflow:visible"><text transform="" x="-8" y="43.125" fill="#000" font-size="8" text-anchor="start"><tspan x="-8" dy="0em">50%</tspan></text></svg></g><line class="visx-line visx-axis-line" x1="0" y1="115.5" x2="0" y2="0.5" fill="transparent" shape-rendering="crispEdges" stroke="#222" stroke-width="0"></line></g><rect class="visx-bar" width="1450" height="115" fill="transparent"></rect><line class="visx-line" x1="1305" y1="28" x2="1305" y2="115" fill="transparent" shape-rendering="crispEdges" stroke="#0062D2" stroke-width="1" pointer-events="none" stroke-dasharray="5,2"></line><svg x="0" y="0" font-size="10px" style="overflow:visible"><text transform="" x="1305" y="20" font-size="10px" fill="#fff" stroke="#fff" stroke-width="0.8em" text-anchor="middle"><tspan x="1305" dy="0.355em">Optimal 90%</tspan></text></svg><svg x="0" y="0" font-size="10px" style="overflow:visible"><text transform="" x="1305" y="20" font-size="10px" fill="#62677B" text-anchor="middle"><tspan x="1305" dy="0.355em">Optimal 90%</tspan></text></svg></g></svg>