<?xml version="1.0"?><svg xmlns="http://www.w3.org/2000/svg" xmlns:xlink= "http://www.w3.org/1999/xlink" style="background: white;" width="1500" height="185"> <g style="color: black; font-size: 13px; font-family: sans-serif; transform: translate(18px, 25px);"><g><circle r="3" cx="-6" cy="-5" style="fill: #B6509E" /><text>Borrow APR, variable</text></g><g style="transform: translateX(150px);"><circle r="3" cx="-6" cy="-5" style="fill: rgb(231, 198, 223)" /><text>Borrow APR, stable</text></g><g style="transform: translateX(290px);"><circle r="3" cx="-6" cy="-5" style="fill: rgb(0, 98, 210)" /><text>Utilization Rate</text></g></g><g class="visx-group" transform="translate(40, 50)"><g class="visx-group visx-rows" transform="translate(0, 0)"><line class="visx-line" x1="0" y1="115" x2="1450" y2="115" fill="transparent" shape-rendering="crispEdges" stroke="#000" stroke-width="1" stroke-dasharray="3,3" pointer-events="none"></line><line class="visx-line" x1="0" y1="57.5" x2="1450" y2="57.5" fill="transparent" shape-rendering="crispEdges" stroke="#000" stroke-width="1" stroke-dasharray="3,3" pointer-events="none"></line><line class="visx-line" x1="0" y1="0" x2="1450" y2="0" fill="transparent" shape-rendering="crispEdges" stroke="#000" stroke-width="1" stroke-dasharray="3,3" pointer-events="none"></line></g><path class="visx-linepath" d="M0,114.99999999991375C2.4166666666666665,114.98562499994969,4.833333333333334,114.97124999998562,7.25,114.956875C9.666666666666666,114.94250000001438,12.083333333333334,114.928125,14.5,114.91375C16.916666666666668,114.89937499999999,19.333333333333332,114.88499999999999,21.75,114.87062499999999C24.166666666666668,114.85624999999999,26.583333333333332,114.841875,29,114.8275C31.416666666666668,114.813125,33.833333333333336,114.79875000000001,36.25,114.78437500000001C38.666666666666664,114.77000000000001,41.083333333333336,114.75562500000001,43.5,114.74125000000001C45.91666666666667,114.726875,48.333333333333336,114.7125,50.75000000000001,114.698125C53.16666666666667,114.68375,55.583333333333336,114.669375,58,114.655C60.416666666666664,114.640625,62.833333333333336,114.62625,65.25,114.611875C67.66666666666667,114.5975,70.08333333333333,114.583125,72.5,114.56875C74.91666666666667,114.554375,77.33333333333333,114.53999999999999,79.75,114.52562499999999C82.16666666666667,114.51124999999999,84.58333333333333,114.496875,87,114.4825C89.41666666666667,114.468125,91.83333333333333,114.45375,94.25,114.439375C96.66666666666667,114.425,99.08333333333334,114.41062500000001,101.50000000000001,114.39625000000001C103.91666666666667,114.38187500000001,106.33333333333334,114.3675,108.75,114.353125C111.16666666666667,114.33875,113.58333333333333,114.324375,116,114.31C118.41666666666667,114.295625,120.83333333333334,114.28125,123.25000000000001,114.266875C125.66666666666667,114.2525,128.08333333333334,114.238125,130.5,114.22375C132.91666666666666,114.209375,135.33333333333334,114.195,137.75,114.18062499999999C140.16666666666666,114.16624999999999,142.58333333333334,114.151875,145,114.1375C147.41666666666666,114.123125,149.83333333333334,114.10875,152.25,114.094375C154.66666666666666,114.08,157.08333333333334,114.065625,159.5,114.05125C161.91666666666666,114.036875,164.33333333333334,114.02250000000001,166.75,114.008125C169.16666666666666,113.99375,171.58333333333334,113.979375,174,113.965C176.41666666666666,113.950625,178.83333333333334,113.93625,181.25,113.921875C183.66666666666666,113.9075,186.08333333333334,113.893125,188.5,113.87875C190.91666666666666,113.864375,193.33333333333334,113.85,195.75,113.835625C198.16666666666669,113.82124999999999,200.58333333333334,113.806875,203.00000000000003,113.7925C205.41666666666669,113.778125,207.83333333333331,113.76375,210.24999999999997,113.749375C212.66666666666666,113.735,215.08333333333331,113.720625,217.5,113.70625C219.91666666666666,113.691875,222.33333333333334,113.6775,224.75,113.663125C227.16666666666666,113.64874999999999,229.58333333333334,113.634375,232,113.62C234.41666666666666,113.605625,236.83333333333334,113.59125,239.25,113.576875C241.66666666666669,113.5625,244.08333333333334,113.548125,246.50000000000003,113.53375C248.91666666666669,113.519375,251.33333333333331,113.505,253.74999999999997,113.490625C256.16666666666663,113.47625,258.5833333333333,113.461875,261,113.4475C263.4166666666667,113.433125,265.8333333333333,113.41875,268.25,113.404375C270.6666666666667,113.39,273.0833333333333,113.375625,275.5,113.36125C277.9166666666667,113.346875,280.3333333333333,113.3325,282.75,113.318125C285.1666666666667,113.30375,287.5833333333333,113.28937499999999,290,113.27499999999999C292.4166666666667,113.26062499999999,294.8333333333333,113.24625,297.25,113.231875C299.6666666666667,113.2175,302.0833333333333,113.203125,304.5,113.18875C306.9166666666667,113.174375,309.3333333333333,113.16000000000001,311.75,113.14562500000001C314.1666666666667,113.13125000000001,316.5833333333333,113.11687500000001,319,113.1025C321.4166666666667,113.088125,323.8333333333333,113.07375,326.25,113.059375C328.6666666666667,113.045,331.0833333333333,113.030625,333.5,113.01625C335.9166666666667,113.001875,338.3333333333333,112.9875,340.75,112.973125C343.1666666666667,112.95875,345.5833333333333,112.944375,348,112.92999999999999C350.4166666666667,112.91562499999999,352.8333333333333,112.90125,355.25,112.886875C357.6666666666667,112.8725,360.0833333333333,112.858125,362.5,112.84375C364.9166666666667,112.829375,367.3333333333333,112.81500000000001,369.75,112.80062500000001C372.1666666666667,112.78625000000001,374.5833333333333,112.77187500000001,377,112.75750000000001C379.4166666666667,112.743125,381.8333333333333,112.72875,384.25,112.714375C386.6666666666667,112.7,389.0833333333333,112.685625,391.5,112.67125C393.9166666666667,112.656875,396.33333333333337,112.6425,398.75000000000006,112.628125C401.16666666666674,112.61375,403.58333333333337,112.599375,406.00000000000006,112.585C408.4166666666667,112.57062499999999,410.8333333333333,112.55624999999999,413.24999999999994,112.54187499999999C415.66666666666663,112.52749999999999,418.08333333333326,112.513125,420.49999999999994,112.49875C422.91666666666663,112.484375,425.3333333333333,112.47000000000001,427.75,112.45562500000001C430.1666666666667,112.44125000000001,432.5833333333333,112.42687500000001,435,112.41250000000001C437.4166666666667,112.39812500000001,439.8333333333333,112.38375,442.25,112.369375C444.6666666666667,112.355,447.0833333333333,112.340625,449.5,112.32625C451.9166666666667,112.311875,454.3333333333333,112.2975,456.75,112.283125C459.1666666666667,112.26875,461.5833333333333,112.254375,464,112.24C466.4166666666667,112.225625,468.8333333333333,112.21124999999999,471.25,112.19687499999999C473.6666666666667,112.18249999999999,476.0833333333333,112.16812499999999,478.5,112.15374999999999C480.9166666666667,112.13937499999999,483.33333333333337,112.125,485.75000000000006,112.110625C488.16666666666674,112.09625,490.58333333333337,112.08187500000001,493.00000000000006,112.06750000000001C495.4166666666667,112.05312500000001,497.8333333333333,112.03875000000001,500.24999999999994,112.024375C502.66666666666663,112.01,505.08333333333326,111.995625,507.49999999999994,111.98125C509.91666666666663,111.966875,512.3333333333333,111.9525,514.75,111.938125C517.1666666666666,111.92375,519.5833333333334,111.909375,522,111.895C524.4166666666666,111.880625,526.8333333333334,111.86625,529.25,111.85187499999999C531.6666666666666,111.83749999999999,534.0833333333334,111.82312499999999,536.5,111.80874999999999C538.9166666666666,111.79437499999999,541.3333333333334,111.78,543.75,111.765625C546.1666666666666,111.75125,548.5833333333334,111.736875,551,111.7225C553.4166666666666,111.708125,555.8333333333334,111.69375000000001,558.25,111.67937500000001C560.6666666666666,111.665,563.0833333333334,111.650625,565.5,111.63625C567.9166666666666,111.621875,570.3333333333334,111.6075,572.75,111.593125C575.1666666666666,111.57875,577.5833333333334,111.564375,580,111.55C582.4166666666666,111.535625,584.8333333333334,111.52125,587.25,111.506875C589.6666666666666,111.49249999999999,592.0833333333334,111.47812499999999,594.5,111.46374999999999C596.9166666666666,111.44937499999999,599.3333333333334,111.435,601.75,111.420625C604.1666666666666,111.40625,606.5833333333334,111.391875,609,111.3775C611.4166666666666,111.363125,613.8333333333334,111.34875000000001,616.25,111.33437500000001C618.6666666666666,111.32000000000001,621.0833333333334,111.305625,623.5,111.29125C625.9166666666666,111.276875,628.3333333333334,111.2625,630.75,111.248125C633.1666666666666,111.23375,635.5833333333334,111.219375,638,111.205C640.4166666666666,111.190625,642.8333333333334,111.17625,645.25,111.161875C647.6666666666666,111.1475,650.0833333333334,111.133125,652.5,111.11875C654.9166666666666,111.104375,657.3333333333334,111.09,659.75,111.075625C662.1666666666666,111.06125,664.5833333333334,111.046875,667,111.0325C669.4166666666666,111.018125,671.8333333333334,111.00375,674.25,110.989375C676.6666666666666,110.975,679.0833333333334,110.96062500000001,681.5,110.94625C683.9166666666666,110.931875,686.3333333333334,110.9175,688.75,110.903125C691.1666666666666,110.88875,693.5833333333334,110.874375,696,110.86C698.4166666666666,110.845625,700.8333333333334,110.83125,703.25,110.816875C705.6666666666666,110.8025,708.0833333333334,110.78812500000001,710.5,110.77375C712.9166666666666,110.759375,715.3333333333334,110.745,717.75,110.730625C720.1666666666666,110.71625,722.5833333333334,110.701875,725,110.6875C727.4166666666666,110.673125,729.8333333333334,110.65875,732.25,110.644375C734.6666666666666,110.63,737.0833333333334,110.615625,739.5,110.60125C741.9166666666666,110.58687499999999,744.3333333333334,110.5725,746.75,110.558125C749.1666666666666,110.54375,751.5833333333334,110.529375,754,110.515C756.4166666666666,110.500625,758.8333333333334,110.48625,761.25,110.471875C763.6666666666666,110.4575,766.0833333333334,110.44312500000001,768.5,110.42875000000001C770.9166666666666,110.414375,773.3333333333334,110.4,775.75,110.385625C778.1666666666666,110.37125,780.5833333333334,110.356875,783,110.3425C785.4166666666667,110.328125,787.8333333333334,110.31375,790.2500000000001,110.299375C792.6666666666667,110.285,795.0833333333335,110.270625,797.5000000000001,110.25625C799.9166666666667,110.241875,802.3333333333335,110.22749999999999,804.7500000000001,110.21312499999999C807.1666666666667,110.19874999999999,809.5833333333335,110.184375,812.0000000000001,110.17C814.4166666666667,110.155625,816.8333333333333,110.14125,819.2499999999999,110.126875C821.6666666666665,110.1125,824.0833333333333,110.09812500000001,826.4999999999999,110.08375000000001C828.9166666666665,110.06937500000001,831.3333333333333,110.055,833.7499999999999,110.040625C836.1666666666665,110.02625,838.5833333333333,110.011875,840.9999999999999,109.9975C843.4166666666666,109.983125,845.8333333333333,109.96875,848.25,109.954375C850.6666666666666,109.94,853.0833333333334,109.925625,855.5,109.91125C857.9166666666666,109.896875,860.3333333333334,109.8825,862.75,109.86812499999999C865.1666666666666,109.85374999999999,867.5833333333334,109.83937499999999,870,109.82499999999999C872.4166666666666,109.81062499999999,874.8333333333334,109.79625000000001,877.25,109.78187500000001C879.6666666666666,109.76750000000001,882.0833333333334,109.75312500000001,884.5,109.73875000000001C886.9166666666666,109.72437500000001,889.3333333333334,109.71000000000001,891.75,109.695625C894.1666666666666,109.68125,896.5833333333334,109.666875,899,109.6525C901.4166666666666,109.638125,903.8333333333334,109.62375,906.25,109.609375C908.6666666666666,109.595,911.0833333333334,109.580625,913.5,109.56625C915.9166666666666,109.551875,918.3333333333334,109.5375,920.75,109.523125C923.1666666666666,109.50874999999999,925.5833333333334,109.49437499999999,928,109.47999999999999C930.4166666666666,109.46562499999999,932.8333333333334,109.45124999999999,935.25,109.43687499999999C937.6666666666666,109.42249999999999,940.0833333333334,109.40812500000001,942.5,109.39375000000001C944.9166666666666,109.37937500000001,947.3333333333334,109.36500000000001,949.75,109.35062500000001C952.1666666666666,109.33625,954.5833333333334,109.321875,957,109.3075C959.4166666666666,109.293125,961.8333333333334,109.27875,964.25,109.264375C966.6666666666667,109.25,969.0833333333334,109.235625,971.5000000000001,109.22125C973.9166666666667,109.206875,976.3333333333335,109.1925,978.7500000000001,109.178125C981.1666666666667,109.16375,983.5833333333335,109.14937499999999,986.0000000000001,109.13499999999999C988.4166666666667,109.12062499999999,990.8333333333335,109.10625,993.2500000000001,109.091875C995.6666666666667,109.0775,998.0833333333333,109.063125,1000.4999999999999,109.04875C1002.9166666666665,109.034375,1005.3333333333333,109.02000000000001,1007.7499999999999,109.00562500000001C1010.1666666666665,108.99125000000001,1012.5833333333333,108.976875,1014.9999999999999,108.9625C1017.4166666666665,108.948125,1019.8333333333333,108.93375,1022.2499999999999,108.919375C1024.6666666666665,108.905,1027.0833333333333,108.890625,1029.5,108.87625C1031.9166666666667,108.861875,1034.3333333333333,108.8475,1036.75,108.833125C1039.1666666666667,108.81875,1041.5833333333333,108.804375,1044,108.78999999999999C1046.4166666666667,108.77562499999999,1048.8333333333333,108.76125,1051.25,108.746875C1053.6666666666667,108.7325,1056.0833333333333,108.718125,1058.5,108.70375C1060.9166666666667,108.689375,1063.3333333333333,108.675,1065.75,108.660625C1068.1666666666667,108.64625,1070.5833333333333,108.63187500000001,1073,108.6175C1075.4166666666667,108.603125,1077.8333333333333,108.58875,1080.25,108.574375C1082.6666666666667,108.56,1085.0833333333333,108.545625,1087.5,108.53125C1089.9166666666667,108.516875,1092.3333333333333,108.5025,1094.75,108.488125C1097.1666666666667,108.47375,1099.5833333333333,108.459375,1102,108.445C1104.4166666666667,108.43062499999999,1106.8333333333333,108.41625,1109.25,108.401875C1111.6666666666667,108.3875,1114.0833333333333,108.373125,1116.5,108.35875C1118.9166666666667,108.344375,1121.3333333333333,108.33,1123.75,108.315625C1126.1666666666667,108.30125,1128.5833333333333,108.286875,1131,108.2725C1133.4166666666667,108.25812499999999,1135.8333333333333,108.24375,1138.25,108.229375C1140.6666666666667,108.215,1143.0833333333333,108.200625,1145.5,108.18625C1147.9166666666667,108.171875,1150.3333333333333,108.1575,1152.75,108.143125C1155.1666666666667,108.12875,1157.5833333333333,108.12875,1160,108.1C1162.4166666666667,108.07124999999999,1164.8333333333333,106.66250000000001,1167.25,105.94375000000001C1169.6666666666667,105.22500000000001,1172.0833333333333,104.50625,1174.5,103.7875C1176.9166666666667,103.06875,1179.3333333333333,102.35000000000001,1181.75,101.63125000000001C1184.1666666666667,100.91250000000001,1186.5833333333333,100.19375,1189,99.475C1191.4166666666667,98.75625,1193.8333333333333,98.0375,1196.25,97.31875C1198.6666666666667,96.6,1201.0833333333333,95.88125000000001,1203.5,95.16250000000001C1205.9166666666667,94.44375000000001,1208.3333333333333,93.725,1210.75,93.00625C1213.1666666666667,92.2875,1215.5833333333333,91.56875000000001,1218,90.85000000000001C1220.4166666666667,90.13125000000001,1222.8333333333333,89.4125,1225.25,88.69375C1227.6666666666667,87.975,1230.0833333333333,87.25625,1232.5,86.5375C1234.9166666666667,85.81875,1237.3333333333333,85.10000000000001,1239.75,84.38125000000001C1242.1666666666667,83.66250000000001,1244.5833333333333,82.94375000000001,1247,82.22500000000001C1249.4166666666667,81.50625000000001,1251.8333333333333,80.78750000000001,1254.25,80.06875000000001C1256.6666666666667,79.35000000000001,1259.0833333333333,78.63125,1261.5,77.9125C1263.9166666666667,77.19375,1266.3333333333333,76.475,1268.75,75.75625C1271.1666666666667,75.0375,1273.5833333333333,74.31875000000001,1276,73.60000000000001C1278.4166666666667,72.88125000000001,1280.8333333333333,72.16250000000001,1283.25,71.44375000000001C1285.6666666666667,70.72500000000001,1288.0833333333333,70.00625000000001,1290.5,69.28750000000001C1292.9166666666667,68.56875000000001,1295.3333333333333,67.85,1297.75,67.13125C1300.1666666666667,66.4125,1302.5833333333333,65.69375,1305,64.975C1307.4166666666667,64.25625,1309.8333333333333,63.5375,1312.25,62.81875C1314.6666666666667,62.1,1317.0833333333333,61.38125000000001,1319.5,60.66250000000001C1321.9166666666667,59.94375000000001,1324.3333333333333,59.225,1326.75,58.50625C1329.1666666666667,57.7875,1331.5833333333333,57.06875,1334,56.35C1336.4166666666667,55.63125,1338.8333333333333,54.912499999999994,1341.25,54.193749999999994C1343.6666666666667,53.474999999999994,1346.0833333333333,52.75625,1348.5,52.0375C1350.9166666666667,51.31875,1353.3333333333333,50.599999999999994,1355.75,49.881249999999994C1358.1666666666667,49.162499999999994,1360.5833333333333,48.44375,1363,47.725C1365.4166666666667,47.00625,1367.8333333333333,46.2875,1370.25,45.56875C1372.6666666666667,44.85,1375.0833333333333,44.131249999999994,1377.5,43.412499999999994C1379.9166666666667,42.693749999999994,1382.3333333333333,41.975,1384.75,41.25625C1387.1666666666667,40.5375,1389.5833333333333,39.818749999999994,1392,39.099999999999994C1394.4166666666667,38.381249999999994,1396.8333333333333,37.6625,1399.25,36.94375C1401.6666666666667,36.225,1404.0833333333333,35.50625,1406.5,34.7875C1408.9166666666667,34.06875,1411.3333333333333,33.349999999999994,1413.75,32.631249999999994C1416.1666666666667,31.912499999999994,1418.5833333333333,31.19375,1421,30.475C1423.4166666666667,29.75625,1425.8333333333333,29.037499999999998,1428.25,28.318749999999998C1430.6666666666667,27.599999999999998,1433.0833333333333,26.881250000000005,1435.5,26.162500000000005C1437.9166666666667,25.443750000000005,1440.3333333333333,24.725,1442.75,24.006249999999998C1445.1666666666667,23.287499999999994,1447.5833333333333,22.568749999999994,1450,21.849999999999994" fill="transparent" stroke-linecap="round" stroke="#B6509E" stroke-width="2"></path><path class="visx-linepath" d="M0,106.94999999999281C2.4166666666666665,106.94880208332914,4.833333333333334,106.94760416666546,7.25,106.94640625C9.666666666666666,106.94520833333453,12.083333333333334,106.94401041666667,14.5,106.9428125C16.916666666666668,106.94161458333333,19.333333333333332,106.94041666666668,21.75,106.93921875000001C24.166666666666668,106.93802083333334,26.583333333333332,106.93682291666667,29,106.935625C31.416666666666668,106.93442708333333,33.833333333333336,106.93322916666666,36.25,106.93203125C38.666666666666664,106.93083333333333,41.083333333333336,106.92963541666667,43.5,106.9284375C45.91666666666667,106.92723958333333,48.333333333333336,106.92604166666666,50.75000000000001,106.92484375C53.16666666666667,106.92364583333332,55.583333333333336,106.92244791666667,58,106.92125C60.416666666666664,106.92005208333333,62.833333333333336,106.91885416666668,65.25,106.91765625000001C67.66666666666667,106.91645833333334,70.08333333333333,106.91526041666667,72.5,106.9140625C74.91666666666667,106.91286458333333,77.33333333333333,106.91166666666666,79.75,106.91046874999999C82.16666666666667,106.90927083333332,84.58333333333333,106.90807291666667,87,106.906875C89.41666666666667,106.90567708333333,91.83333333333333,106.90447916666668,94.25,106.90328125C96.66666666666667,106.90208333333334,99.08333333333334,106.90088541666667,101.50000000000001,106.8996875C103.91666666666667,106.89848958333333,106.33333333333334,106.89729166666667,108.75,106.89609375C111.16666666666667,106.89489583333334,113.58333333333333,106.89369791666667,116,106.8925C118.41666666666667,106.89130208333333,120.83333333333334,106.89010416666666,123.25000000000001,106.88890624999999C125.66666666666667,106.88770833333332,128.08333333333334,106.88651041666667,130.5,106.8853125C132.91666666666666,106.88411458333333,135.33333333333334,106.88291666666667,137.75,106.88171875C140.16666666666666,106.88052083333334,142.58333333333334,106.87932291666668,145,106.87812500000001C147.41666666666666,106.87692708333334,149.83333333333334,106.87572916666667,152.25,106.87453125C154.66666666666666,106.87333333333333,157.08333333333334,106.87213541666667,159.5,106.8709375C161.91666666666666,106.86973958333333,164.33333333333334,106.86854166666667,166.75,106.86734375C169.16666666666666,106.86614583333333,171.58333333333334,106.86494791666667,174,106.86375C176.41666666666666,106.86255208333333,178.83333333333334,106.86135416666667,181.25,106.86015625C183.66666666666666,106.85895833333333,186.08333333333334,106.85776041666668,188.5,106.85656250000001C190.91666666666666,106.85536458333334,193.33333333333334,106.85416666666667,195.75,106.85296875C198.16666666666669,106.85177083333333,200.58333333333334,106.85057291666666,203.00000000000003,106.849375C205.41666666666669,106.84817708333333,207.83333333333331,106.84697916666667,210.24999999999997,106.84578125C212.66666666666666,106.84458333333333,215.08333333333331,106.84338541666668,217.5,106.84218750000001C219.91666666666666,106.84098958333334,222.33333333333334,106.83979166666667,224.75,106.83859375C227.16666666666666,106.83739583333333,229.58333333333334,106.83619791666668,232,106.83500000000001C234.41666666666666,106.83380208333334,236.83333333333334,106.83260416666667,239.25,106.83140625C241.66666666666669,106.83020833333333,244.08333333333334,106.82901041666666,246.50000000000003,106.8278125C248.91666666666669,106.82661458333332,251.33333333333331,106.82541666666667,253.74999999999997,106.82421875C256.16666666666663,106.82302083333333,258.5833333333333,106.82182291666668,261,106.820625C263.4166666666667,106.81942708333334,265.8333333333333,106.81822916666667,268.25,106.81703125C270.6666666666667,106.81583333333333,273.0833333333333,106.81463541666668,275.5,106.8134375C277.9166666666667,106.81223958333334,280.3333333333333,106.81104166666667,282.75,106.80984375C285.1666666666667,106.80864583333333,287.5833333333333,106.80744791666666,290,106.80624999999999C292.4166666666667,106.80505208333332,294.8333333333333,106.80385416666667,297.25,106.80265625C299.6666666666667,106.80145833333333,302.0833333333333,106.80026041666667,304.5,106.7990625C306.9166666666667,106.79786458333334,309.3333333333333,106.79666666666667,311.75,106.79546875C314.1666666666667,106.79427083333333,316.5833333333333,106.79307291666667,319,106.791875C321.4166666666667,106.79067708333334,323.8333333333333,106.78947916666667,326.25,106.78828125C328.6666666666667,106.78708333333333,331.0833333333333,106.78588541666666,333.5,106.78468749999999C335.9166666666667,106.78348958333332,338.3333333333333,106.78229166666667,340.75,106.78109375C343.1666666666667,106.77989583333333,345.5833333333333,106.77869791666667,348,106.7775C350.4166666666667,106.77630208333333,352.8333333333333,106.77510416666667,355.25,106.77390625C357.6666666666667,106.77270833333333,360.0833333333333,106.77151041666667,362.5,106.7703125C364.9166666666667,106.76911458333333,367.3333333333333,106.76791666666666,369.75,106.76671875C372.1666666666667,106.76552083333333,374.5833333333333,106.76432291666666,377,106.76312499999999C379.4166666666667,106.76192708333332,381.8333333333333,106.76072916666668,384.25,106.75953125000001C386.6666666666667,106.75833333333334,389.0833333333333,106.75713541666667,391.5,106.7559375C393.9166666666667,106.75473958333333,396.33333333333337,106.75354166666666,398.75000000000006,106.75234375C401.16666666666674,106.75114583333333,403.58333333333337,106.74994791666667,406.00000000000006,106.74875C408.4166666666667,106.74755208333333,410.8333333333333,106.74635416666666,413.24999999999994,106.74515625C415.66666666666663,106.74395833333332,418.08333333333326,106.74276041666666,420.49999999999994,106.74156249999999C422.91666666666663,106.74036458333332,425.3333333333333,106.73916666666668,427.75,106.73796875000001C430.1666666666667,106.73677083333334,432.5833333333333,106.73557291666667,435,106.734375C437.4166666666667,106.73317708333333,439.8333333333333,106.73197916666666,442.25,106.73078124999999C444.6666666666667,106.72958333333332,447.0833333333333,106.72838541666667,449.5,106.7271875C451.9166666666667,106.72598958333333,454.3333333333333,106.72479166666666,456.75,106.72359374999999C459.1666666666667,106.72239583333332,461.5833333333333,106.72119791666667,464,106.72C466.4166666666667,106.71880208333333,468.8333333333333,106.71760416666667,471.25,106.71640625C473.6666666666667,106.71520833333334,476.0833333333333,106.71401041666667,478.5,106.7128125C480.9166666666667,106.71161458333333,483.33333333333337,106.71041666666667,485.75000000000006,106.70921875C488.16666666666674,106.70802083333334,490.58333333333337,106.70682291666667,493.00000000000006,106.705625C495.4166666666667,106.70442708333333,497.8333333333333,106.70322916666666,500.24999999999994,106.70203124999999C502.66666666666663,106.70083333333332,505.08333333333326,106.69963541666668,507.49999999999994,106.69843750000001C509.91666666666663,106.69723958333334,512.3333333333333,106.69604166666667,514.75,106.69484375C517.1666666666666,106.69364583333333,519.5833333333334,106.69244791666667,522,106.69125C524.4166666666666,106.69005208333333,526.8333333333334,106.68885416666667,529.25,106.68765625C531.6666666666666,106.68645833333333,534.0833333333334,106.68526041666667,536.5,106.6840625C538.9166666666666,106.68286458333333,541.3333333333334,106.68166666666666,543.75,106.68046874999999C546.1666666666666,106.67927083333332,548.5833333333334,106.67807291666668,551,106.67687500000001C553.4166666666666,106.67567708333334,555.8333333333334,106.67447916666667,558.25,106.67328125C560.6666666666666,106.67208333333333,563.0833333333334,106.67088541666666,565.5,106.6696875C567.9166666666666,106.66848958333333,570.3333333333334,106.66729166666667,572.75,106.66609375C575.1666666666666,106.66489583333333,577.5833333333334,106.66369791666666,580,106.6625C582.4166666666666,106.66130208333333,584.8333333333334,106.66010416666667,587.25,106.65890625C589.6666666666666,106.65770833333333,592.0833333333334,106.65651041666668,594.5,106.65531250000001C596.9166666666666,106.65411458333334,599.3333333333334,106.65291666666667,601.75,106.65171875C604.1666666666666,106.65052083333333,606.5833333333334,106.64932291666668,609,106.64812500000001C611.4166666666666,106.64692708333334,613.8333333333334,106.64572916666667,616.25,106.64453125C618.6666666666666,106.64333333333333,621.0833333333334,106.64213541666666,623.5,106.64093749999999C625.9166666666666,106.63973958333332,628.3333333333334,106.63854166666668,630.75,106.63734375000001C633.1666666666666,106.63614583333334,635.5833333333334,106.63494791666668,638,106.63375C640.4166666666666,106.63255208333334,642.8333333333334,106.63135416666667,645.25,106.63015625C647.6666666666666,106.62895833333333,650.0833333333334,106.62776041666667,652.5,106.6265625C654.9166666666666,106.62536458333334,657.3333333333334,106.62416666666667,659.75,106.62296875C662.1666666666666,106.62177083333333,664.5833333333334,106.62057291666666,667,106.61937499999999C669.4166666666666,106.61817708333332,671.8333333333334,106.61697916666668,674.25,106.61578125000001C676.6666666666666,106.61458333333334,679.0833333333334,106.61338541666667,681.5,106.6121875C683.9166666666666,106.61098958333334,686.3333333333334,106.60979166666667,688.75,106.60859375C691.1666666666666,106.60739583333333,693.5833333333334,106.60619791666667,696,106.605C698.4166666666666,106.60380208333333,700.8333333333334,106.60260416666667,703.25,106.60140625C705.6666666666666,106.60020833333333,708.0833333333334,106.59901041666667,710.5,106.5978125C712.9166666666666,106.59661458333333,715.3333333333334,106.59541666666668,717.75,106.59421875000001C720.1666666666666,106.59302083333334,722.5833333333334,106.59182291666667,725,106.590625C727.4166666666666,106.58942708333333,729.8333333333334,106.58822916666666,732.25,106.58703125C734.6666666666666,106.58583333333333,737.0833333333334,106.58463541666667,739.5,106.5834375C741.9166666666666,106.58223958333333,744.3333333333334,106.58104166666666,746.75,106.57984375C749.1666666666666,106.57864583333333,751.5833333333334,106.57744791666667,754,106.57625C756.4166666666666,106.57505208333333,758.8333333333334,106.57385416666668,761.25,106.57265625000001C763.6666666666666,106.57145833333334,766.0833333333334,106.57026041666667,768.5,106.5690625C770.9166666666666,106.56786458333333,773.3333333333334,106.56666666666666,775.75,106.56546875C778.1666666666666,106.56427083333332,780.5833333333334,106.56307291666667,783,106.561875C785.4166666666667,106.56067708333333,787.8333333333334,106.55947916666666,790.2500000000001,106.55828125C792.6666666666667,106.55708333333332,795.0833333333335,106.55588541666667,797.5000000000001,106.5546875C799.9166666666667,106.55348958333333,802.3333333333335,106.55229166666668,804.7500000000001,106.55109375C807.1666666666667,106.54989583333334,809.5833333333335,106.54869791666667,812.0000000000001,106.5475C814.4166666666667,106.54630208333333,816.8333333333333,106.54510416666666,819.2499999999999,106.54390624999999C821.6666666666665,106.54270833333332,824.0833333333333,106.54151041666667,826.4999999999999,106.5403125C828.9166666666665,106.53911458333333,831.3333333333333,106.53791666666666,833.7499999999999,106.53671874999999C836.1666666666665,106.53552083333332,838.5833333333333,106.53432291666667,840.9999999999999,106.533125C843.4166666666666,106.53192708333333,845.8333333333333,106.53072916666667,848.25,106.52953125C850.6666666666666,106.52833333333334,853.0833333333334,106.52713541666667,855.5,106.5259375C857.9166666666666,106.52473958333333,860.3333333333334,106.52354166666666,862.75,106.52234374999999C865.1666666666666,106.52114583333332,867.5833333333334,106.51994791666667,870,106.51875C872.4166666666666,106.51755208333333,874.8333333333334,106.51635416666667,877.25,106.51515625C879.6666666666666,106.51395833333333,882.0833333333334,106.51276041666667,884.5,106.5115625C886.9166666666666,106.51036458333333,889.3333333333334,106.50916666666667,891.75,106.50796875C894.1666666666666,106.50677083333333,896.5833333333334,106.50557291666667,899,106.504375C901.4166666666666,106.50317708333333,903.8333333333334,106.50197916666666,906.25,106.50078124999999C908.6666666666666,106.49958333333332,911.0833333333334,106.49838541666666,913.5,106.4971875C915.9166666666666,106.49598958333333,918.3333333333334,106.49479166666667,920.75,106.49359375C923.1666666666666,106.49239583333333,925.5833333333334,106.49119791666668,928,106.49000000000001C930.4166666666666,106.48880208333334,932.8333333333334,106.48760416666667,935.25,106.48640625C937.6666666666666,106.48520833333333,940.0833333333334,106.48401041666666,942.5,106.4828125C944.9166666666666,106.48161458333333,947.3333333333334,106.48041666666667,949.75,106.47921875C952.1666666666666,106.47802083333333,954.5833333333334,106.47682291666666,957,106.475625C959.4166666666666,106.47442708333332,961.8333333333334,106.47322916666667,964.25,106.47203125C966.6666666666667,106.47083333333333,969.0833333333334,106.46963541666668,971.5000000000001,106.46843750000001C973.9166666666667,106.46723958333334,976.3333333333335,106.46604166666667,978.7500000000001,106.46484375C981.1666666666667,106.46364583333333,983.5833333333335,106.46244791666666,986.0000000000001,106.46124999999999C988.4166666666667,106.46005208333332,990.8333333333335,106.45885416666667,993.2500000000001,106.45765625C995.6666666666667,106.45645833333333,998.0833333333333,106.45526041666668,1000.4999999999999,106.4540625C1002.9166666666665,106.45286458333334,1005.3333333333333,106.45166666666667,1007.7499999999999,106.45046875C1010.1666666666665,106.44927083333333,1012.5833333333333,106.44807291666667,1014.9999999999999,106.446875C1017.4166666666665,106.44567708333334,1019.8333333333333,106.44447916666667,1022.2499999999999,106.44328125C1024.6666666666665,106.44208333333333,1027.0833333333333,106.44088541666666,1029.5,106.43968749999999C1031.9166666666667,106.43848958333332,1034.3333333333333,106.43729166666667,1036.75,106.43609375C1039.1666666666667,106.43489583333333,1041.5833333333333,106.43369791666667,1044,106.4325C1046.4166666666667,106.43130208333334,1048.8333333333333,106.43010416666668,1051.25,106.42890625000001C1053.6666666666667,106.42770833333334,1056.0833333333333,106.42651041666667,1058.5,106.4253125C1060.9166666666667,106.42411458333333,1063.3333333333333,106.42291666666667,1065.75,106.42171875C1068.1666666666667,106.42052083333333,1070.5833333333333,106.41932291666667,1073,106.418125C1075.4166666666667,106.41692708333333,1077.8333333333333,106.41572916666667,1080.25,106.41453125C1082.6666666666667,106.41333333333333,1085.0833333333333,106.41213541666667,1087.5,106.4109375C1089.9166666666667,106.40973958333333,1092.3333333333333,106.40854166666668,1094.75,106.40734375000001C1097.1666666666667,106.40614583333334,1099.5833333333333,106.40494791666667,1102,106.40375C1104.4166666666667,106.40255208333333,1106.8333333333333,106.40135416666666,1109.25,106.40015625C1111.6666666666667,106.39895833333333,1114.0833333333333,106.39776041666667,1116.5,106.3965625C1118.9166666666667,106.39536458333333,1121.3333333333333,106.39416666666668,1123.75,106.39296875000001C1126.1666666666667,106.39177083333334,1128.5833333333333,106.39057291666667,1131,106.389375C1133.4166666666667,106.38817708333333,1135.8333333333333,106.38697916666668,1138.25,106.38578125000001C1140.6666666666667,106.38458333333334,1143.0833333333333,106.38338541666667,1145.5,106.3821875C1147.9166666666667,106.38098958333333,1150.3333333333333,106.37979166666666,1152.75,106.37859375C1155.1666666666667,106.37739583333332,1157.5833333333333,106.37739583333332,1160,106.375C1162.4166666666667,106.37260416666668,1164.8333333333333,104.9375,1167.25,104.21875C1169.6666666666667,103.5,1172.0833333333333,102.78125,1174.5,102.0625C1176.9166666666667,101.34375,1179.3333333333333,100.625,1181.75,99.90625C1184.1666666666667,99.1875,1186.5833333333333,98.46875,1189,97.75C1191.4166666666667,97.03125,1193.8333333333333,96.3125,1196.25,95.59375C1198.6666666666667,94.875,1201.0833333333333,94.15625,1203.5,93.4375C1205.9166666666667,92.71875,1208.3333333333333,92,1210.75,91.28125C1213.1666666666667,90.5625,1215.5833333333333,89.84375,1218,89.125C1220.4166666666667,88.40625,1222.8333333333333,87.6875,1225.25,86.96875C1227.6666666666667,86.25,1230.0833333333333,85.53125,1232.5,84.8125C1234.9166666666667,84.09375,1237.3333333333333,83.375,1239.75,82.65625C1242.1666666666667,81.9375,1244.5833333333333,81.21875,1247,80.5C1249.4166666666667,79.78125,1251.8333333333333,79.0625,1254.25,78.34375C1256.6666666666667,77.625,1259.0833333333333,76.90625,1261.5,76.1875C1263.9166666666667,75.46875,1266.3333333333333,74.75,1268.75,74.03125C1271.1666666666667,73.3125,1273.5833333333333,72.59375,1276,71.875C1278.4166666666667,71.15625,1280.8333333333333,70.4375,1283.25,69.71875C1285.6666666666667,69,1288.0833333333333,68.28125,1290.5,67.5625C1292.9166666666667,66.84375,1295.3333333333333,66.125,1297.75,65.40625C1300.1666666666667,64.6875,1302.5833333333333,63.96875000000001,1305,63.25000000000001C1307.4166666666667,62.53125000000001,1309.8333333333333,61.8125,1312.25,61.09375C1314.6666666666667,60.375,1317.0833333333333,59.65624999999999,1319.5,58.93749999999999C1321.9166666666667,58.21874999999999,1324.3333333333333,57.5,1326.75,56.78125C1329.1666666666667,56.0625,1331.5833333333333,55.34375,1334,54.625C1336.4166666666667,53.90625,1338.8333333333333,53.18750000000001,1341.25,52.46875000000001C1343.6666666666667,51.75000000000001,1346.0833333333333,51.03125,1348.5,50.3125C1350.9166666666667,49.59375,1353.3333333333333,48.87499999999999,1355.75,48.15624999999999C1358.1666666666667,47.43749999999999,1360.5833333333333,46.71875,1363,46C1365.4166666666667,45.28125,1367.8333333333333,44.5625,1370.25,43.84375C1372.6666666666667,43.125,1375.0833333333333,42.40625000000001,1377.5,41.68750000000001C1379.9166666666667,40.96875000000001,1382.3333333333333,40.25,1384.75,39.53125C1387.1666666666667,38.8125,1389.5833333333333,38.09374999999999,1392,37.37499999999999C1394.4166666666667,36.65624999999999,1396.8333333333333,35.9375,1399.25,35.21875C1401.6666666666667,34.5,1404.0833333333333,33.78125,1406.5,33.0625C1408.9166666666667,32.34375,1411.3333333333333,31.625000000000004,1413.75,30.906250000000004C1416.1666666666667,30.187500000000004,1418.5833333333333,29.46875,1421,28.75C1423.4166666666667,28.03125,1425.8333333333333,27.312499999999996,1428.25,26.593749999999996C1430.6666666666667,25.874999999999996,1433.0833333333333,25.156250000000004,1435.5,24.437500000000004C1437.9166666666667,23.718750000000004,1440.3333333333333,22.999999999999996,1442.75,22.281249999999996C1445.1666666666667,21.562499999999996,1447.5833333333333,20.84375,1450,20.125000000000004" fill="transparent" stroke-linecap="round" stroke="#E7C6DF" stroke-width="2"></path><g class="visx-group visx-axis visx-axis-bottom" transform="translate(0, 115)"><g class="visx-group visx-axis-tick" transform="translate(0, 0)"><line class="visx-line" x1="0" y1="0" x2="0" y2="8" fill="transparent" shape-rendering="crispEdges" stroke="#000" stroke-width="0" stroke-linecap="square"></line><svg x="0" y="0" font-size="10" style="overflow:visible"><text transform="" x="0" y="18" fill="#000" font-size="10" text-anchor="middle"><tspan x="0" dy="0em">0%</tspan></text></svg></g><g class="visx-group visx-axis-tick" transform="translate(0, 0)"><line class="visx-line" x1="362.5" y1="0" x2="362.5" y2="8" fill="transparent" shape-rendering="crispEdges" stroke="#000" stroke-width="0" stroke-linecap="square"></line><svg x="0" y="0" font-size="10" style="overflow:visible"><text transform="" x="362.5" y="18" fill="#000" font-size="10" text-anchor="middle"><tspan x="362.5" dy="0em">25%</tspan></text></svg></g><g class="visx-group visx-axis-tick" transform="translate(0, 0)"><line class="visx-line" x1="725" y1="0" x2="725" y2="8" fill="transparent" shape-rendering="crispEdges" stroke="#000" stroke-width="0" stroke-linecap="square"></line><svg x="0" y="0" font-size="10" style="overflow:visible"><text transform="" x="725" y="18" fill="#000" font-size="10" text-anchor="middle"><tspan x="725" dy="0em">50%</tspan></text></svg></g><g class="visx-group visx-axis-tick" transform="translate(0, 0)"><line class="visx-line" x1="1087.5" y1="0" x2="1087.5" y2="8" fill="transparent" shape-rendering="crispEdges" stroke="#000" stroke-width="0" stroke-linecap="square"></line><svg x="0" y="0" font-size="10" style="overflow:visible"><text transform="" x="1087.5" y="18" fill="#000" font-size="10" text-anchor="middle"><tspan x="1087.5" dy="0em">75%</tspan></text></svg></g><g class="visx-group visx-axis-tick" transform="translate(0, 0)"><line class="visx-line" x1="1450" y1="0" x2="1450" y2="8" fill="transparent" shape-rendering="crispEdges" stroke="#000" stroke-width="0" stroke-linecap="square"></line><svg x="0" y="0" font-size="10" style="overflow:visible"><text transform="" x="1450" y="18" fill="#000" font-size="10" text-anchor="middle"><tspan x="1450" dy="0em">100%</tspan></text></svg></g><line class="visx-line visx-axis-line" x1="0.5" y1="0" x2="1450.5" y2="0" fill="transparent" shape-rendering="crispEdges" stroke="#222" stroke-width="0"></line></g><g class="visx-group visx-axis visx-axis-left" transform="translate(0, 0)"><g class="visx-group visx-axis-tick" transform="translate(0, 0)"><line class="visx-line" x1="0" y1="115" x2="-8" y2="115" fill="transparent" shape-rendering="crispEdges" stroke="#222" stroke-width="0" stroke-linecap="square"></line><svg x="-30" y="0" font-size="8" style="overflow:visible"><text transform="" x="-8" y="115" fill="#000" font-size="8" text-anchor="start"><tspan x="-8" dy="0em">0%</tspan></text></svg></g><g class="visx-group visx-axis-tick" transform="translate(0, 0)"><line class="visx-line" x1="0" y1="57.5" x2="-8" y2="57.5" fill="transparent" shape-rendering="crispEdges" stroke="#222" stroke-width="0" stroke-linecap="square"></line><svg x="-30" y="0" font-size="8" style="overflow:visible"><text transform="" x="-8" y="57.5" fill="#000" font-size="8" text-anchor="start"><tspan x="-8" dy="0em">50%</tspan></text></svg></g><g class="visx-group visx-axis-tick" transform="translate(0, 0)"><line class="visx-line" x1="0" y1="0" x2="-8" y2="0" fill="transparent" shape-rendering="crispEdges" stroke="#222" stroke-width="0" stroke-linecap="square"></line><svg x="-30" y="0" font-size="8" style="overflow:visible"><text transform="" x="-8" y="0" fill="#000" font-size="8" text-anchor="start"><tspan x="-8" dy="0em">100%</tspan></text></svg></g><line class="visx-line visx-axis-line" x1="0" y1="115.5" x2="0" y2="0.5" fill="transparent" shape-rendering="crispEdges" stroke="#222" stroke-width="0"></line></g><rect class="visx-bar" width="1450" height="115" fill="transparent"></rect><line class="visx-line" x1="1160" y1="28" x2="1160" y2="115" fill="transparent" shape-rendering="crispEdges" stroke="#0062D2" stroke-width="1" pointer-events="none" stroke-dasharray="5,2"></line><svg x="0" y="0" font-size="10px" style="overflow:visible"><text transform="" x="1160" y="20" font-size="10px" fill="#fff" stroke="#fff" stroke-width="0.8em" text-anchor="middle"><tspan x="1160" dy="0.355em">Optimal 80%</tspan></text></svg><svg x="0" y="0" font-size="10px" style="overflow:visible"><text transform="" x="1160" y="20" font-size="10px" fill="#62677B" text-anchor="middle"><tspan x="1160" dy="0.355em">Optimal 80%</tspan></text></svg></g></svg>