<?xml version="1.0"?><svg xmlns="http://www.w3.org/2000/svg" xmlns:xlink= "http://www.w3.org/1999/xlink" style="background: white;" width="1500" height="300"> <g style="color: black; font-size: 13px; font-family: sans-serif; transform: translate(18px, 25px);"><g><circle r="3" cx="-6" cy="-5" style="fill: #1AD4B3" /><text>Borrow APR, variable</text></g><g style="transform: translateX(150px);"><circle r="3" cx="-6" cy="-5" style="fill: #101423" /><text>Borrow APR, stable</text></g></g><g class="visx-group" transform="translate(45, 50)"><g class="visx-group visx-rows" transform="translate(0, 0)"><line class="visx-line" x1="0" y1="155" x2="1425" y2="155" fill="transparent" shape-rendering="crispEdges" stroke="#F2F0F9" stroke-width="1" pointer-events="none"></line><line class="visx-line" x1="0" y1="120.55555555555556" x2="1425" y2="120.55555555555556" fill="transparent" shape-rendering="crispEdges" stroke="#F2F0F9" stroke-width="1" pointer-events="none"></line><line class="visx-line" x1="0" y1="86.11111111111111" x2="1425" y2="86.11111111111111" fill="transparent" shape-rendering="crispEdges" stroke="#F2F0F9" stroke-width="1" pointer-events="none"></line><line class="visx-line" x1="0" y1="51.66666666666667" x2="1425" y2="51.66666666666667" fill="transparent" shape-rendering="crispEdges" stroke="#F2F0F9" stroke-width="1" pointer-events="none"></line><line class="visx-line" x1="0" y1="17.22222222222223" x2="1425" y2="17.22222222222223" fill="transparent" shape-rendering="crispEdges" stroke="#F2F0F9" stroke-width="1" pointer-events="none"></line></g><path class="visx-linepath" d="M0,154.99999999990433C2.375,154.98405349788658,4.75,154.96810699586882,7.125,154.95216049382717C9.5,154.9362139917855,11.875,154.9202674897119,14.25,154.9043209876543C16.625,154.8883744855967,19,154.8724279835391,21.375,154.8564814814815C23.75,154.8405349794239,26.125,154.82458847736626,28.5,154.80864197530863C30.875,154.792695473251,33.25,154.7767489711934,35.625,154.7608024691358C38,154.7448559670782,40.375,154.72890946502056,42.75,154.71296296296296C45.125,154.69701646090536,47.50000000000001,154.68106995884773,49.87500000000001,154.66512345679013C52.25000000000001,154.64917695473252,54.625,154.6332304526749,57,154.6172839506173C59.375,154.6013374485597,61.75,154.58539094650206,64.125,154.56944444444446C66.5,154.55349794238685,68.875,154.5375514403292,71.25,154.5216049382716C73.625,154.505658436214,76,154.48971193415636,78.375,154.47376543209876C80.75,154.45781893004116,83.125,154.44187242798353,85.5,154.42592592592592C87.875,154.40997942386832,90.25,154.3940329218107,92.625,154.3780864197531C95,154.3621399176955,97.37500000000001,154.34619341563788,99.75000000000001,154.33024691358025C102.12500000000001,154.31430041152265,104.5,154.298353909465,106.875,154.2824074074074C109.25,154.26646090534976,111.625,154.25051440329216,114,154.23456790123456C116.375,154.21862139917695,118.75000000000001,154.20267489711935,121.12500000000001,154.18672839506175C123.50000000000001,154.17078189300415,125.875,154.1548353909465,128.25,154.13888888888889C130.625,154.12294238683126,133,154.10699588477365,135.375,154.09104938271605C137.75,154.07510288065845,140.125,154.05915637860085,142.5,154.04320987654322C144.875,154.02726337448559,147.25,154.01131687242795,149.625,153.99537037037035C152,153.97942386831275,154.375,153.96347736625515,156.75,153.94753086419755C159.125,153.93158436213994,161.5,153.9156378600823,163.875,153.89969135802468C166.25,153.88374485596705,168.625,153.86779835390945,171,153.85185185185185C173.375,153.83590534979425,175.75,153.81995884773661,178.125,153.804012345679C180.5,153.7880658436214,182.875,153.77211934156378,185.25,153.75617283950618C187.625,153.74022633744858,190,153.72427983539094,192.375,153.70833333333334C194.75,153.69238683127574,197.12500000000003,153.67644032921814,199.50000000000003,153.6604938271605C201.875,153.6445473251029,204.25,153.62860082304525,206.62499999999997,153.61265432098764C208.99999999999997,153.59670781893,211.375,153.5807613168724,213.75,153.5648148148148C216.125,153.5488683127572,218.5,153.53292181069958,220.875,153.51697530864197C223.25,153.50102880658437,225.625,153.48508230452674,228,153.46913580246914C230.375,153.45318930041154,232.75,153.4372427983539,235.125,153.4212962962963C237.5,153.40534979423867,239.87500000000003,153.38940329218107,242.25000000000003,153.37345679012344C244.625,153.35751028806584,247,153.3415637860082,249.37499999999997,153.3256172839506C251.74999999999997,153.309670781893,254.125,153.29372427983537,256.5,153.27777777777777C258.875,153.26183127572017,261.25,153.24588477366254,263.625,153.22993827160494C266,153.21399176954733,268.375,153.1980452674897,270.75,153.1820987654321C273.125,153.1661522633745,275.5,153.1502057613169,277.875,153.13425925925927C280.25,153.11831275720164,282.625,153.102366255144,285,153.0864197530864C287.375,153.0704732510288,289.75,153.0545267489712,292.125,153.0385802469136C294.5,153.022633744856,296.875,153.00668724279836,299.25,152.99074074074073C301.625,152.9747942386831,304,152.9588477366255,306.375,152.9429012345679C308.75,152.9269547325103,311.125,152.91100823045267,313.5,152.89506172839506C315.875,152.87911522633746,318.25,152.86316872427983,320.625,152.84722222222223C323,152.83127572016463,325.375,152.81532921810702,327.75,152.7993827160494C330.125,152.78343621399176,332.5,152.76748971193416,334.875,152.75154320987653C337.25,152.7355967078189,339.625,152.7196502057613,342,152.7037037037037C344.375,152.6877572016461,346.75,152.67181069958846,349.125,152.65586419753086C351.5,152.63991769547326,353.875,152.62397119341563,356.25,152.60802469135803C358.625,152.59207818930042,361,152.5761316872428,363.375,152.5601851851852C365.75,152.5442386831276,368.125,152.52829218106996,370.5,152.51234567901236C372.875,152.49639917695475,375.25,152.4804526748971,377.625,152.4645061728395C380,152.4485596707819,382.375,152.43261316872426,384.75,152.41666666666666C387.125,152.40072016460906,389.50000000000006,152.38477366255142,391.87500000000006,152.36882716049382C394.25000000000006,152.35288065843622,396.62500000000006,152.3369341563786,399.00000000000006,152.320987654321C401.375,152.30504115226339,403.75,152.28909465020575,406.12499999999994,152.27314814814815C408.49999999999994,152.25720164609052,410.87499999999994,152.2412551440329,413.24999999999994,152.2253086419753C415.62499999999994,152.20936213991766,418,152.19341563786006,420.375,152.17746913580245C422.75,152.16152263374485,425.125,152.14557613168725,427.5,152.12962962962965C429.875,152.11368312757205,432.25,152.09773662551441,434.625,152.08179012345678C437,152.06584362139915,439.375,152.04989711934155,441.75,152.03395061728395C444.125,152.01800411522635,446.5,152.00205761316872,448.875,151.98611111111111C451.25,151.9701646090535,453.625,151.95421810699588,456,151.93827160493828C458.375,151.92232510288068,460.75,151.90637860082307,463.125,151.89043209876544C465.5,151.8744855967078,467.875,151.85853909465018,470.25,151.84259259259258C472.625,151.82664609053495,475.00000000000006,151.81069958847735,477.37500000000006,151.79475308641975C479.75000000000006,151.77880658436214,482.12500000000006,151.7628600823045,484.50000000000006,151.7469135802469C486.875,151.7309670781893,489.25,151.71502057613168,491.62499999999994,151.69907407407408C493.99999999999994,151.68312757201647,496.37499999999994,151.66718106995884,498.74999999999994,151.65123456790124C501.12499999999994,151.63528806584364,503.5,151.61934156378604,505.875,151.6033950617284C508.25,151.5874485596708,510.625,151.57150205761315,513,151.55555555555554C515.375,151.53960905349794,517.75,151.52366255144034,520.125,151.50771604938274C522.5,151.49176954732513,524.875,151.47582304526748,527.25,151.45987654320987C529.625,151.44393004115227,532,151.42798353909464,534.375,151.41203703703704C536.75,151.39609053497944,539.125,151.3801440329218,541.5,151.3641975308642C543.875,151.3482510288066,546.25,151.33230452674894,548.625,151.31635802469134C551,151.30041152263374,553.375,151.28446502057614,555.75,151.26851851851853C558.125,151.25257201646093,560.5,151.23662551440327,562.875,151.22067901234567C565.25,151.20473251028807,567.625,151.18878600823044,570,151.17283950617283C572.375,151.15689300411523,574.75,151.1409465020576,577.125,151.125C579.5,151.1090534979424,581.875,151.09310699588477,584.25,151.07716049382717C586.625,151.06121399176956,589,151.04526748971193,591.375,151.02932098765433C593.75,151.01337448559673,596.125,150.99742798353913,598.5,150.9814814814815C600.875,150.96553497942386,603.25,150.94958847736626,605.625,150.93364197530863C608,150.917695473251,610.375,150.9017489711934,612.75,150.8858024691358C615.125,150.8698559670782,617.5,150.85390946502056,619.875,150.83796296296296C622.25,150.82201646090536,624.625,150.80606995884773,627,150.79012345679013C629.375,150.77417695473252,631.75,150.75823045267492,634.125,150.7422839506173C636.5,150.72633744855966,638.875,150.71039094650206,641.25,150.69444444444443C643.625,150.6784979423868,646,150.6625514403292,648.375,150.6466049382716C650.75,150.630658436214,653.125,150.6147119341564,655.5,150.5987654320988C657.875,150.58281893004119,660.25,150.56687242798353,662.625,150.55092592592592C665,150.53497942386832,667.375,150.5190329218107,669.75,150.5030864197531C672.125,150.4871399176955,674.5,150.47119341563786,676.875,150.45524691358025C679.25,150.43930041152265,681.625,150.423353909465,684,150.4074074074074C686.375,150.3914609053498,688.75,150.3755144032922,691.125,150.35956790123458C693.5,150.34362139917698,695.875,150.32767489711932,698.25,150.31172839506172C700.625,150.29578189300412,703,150.2798353909465,705.375,150.26388888888889C707.75,150.24794238683128,710.125,150.23199588477365,712.5,150.21604938271605C714.875,150.20010288065845,717.25,150.18415637860082,719.625,150.16820987654322C722,150.1522633744856,724.375,150.13631687242798,726.75,150.12037037037038C729.125,150.10442386831278,731.5,150.08847736625518,733.875,150.07253086419755C736.25,150.05658436213992,738.625,150.0406378600823,741,150.02469135802468C743.375,150.00874485596705,745.75,149.99279835390945,748.125,149.97685185185185C750.5,149.96090534979425,752.875,149.94495884773661,755.25,149.929012345679C757.625,149.9130658436214,760,149.89711934156378,762.375,149.88117283950618C764.75,149.86522633744858,767.125,149.84927983539094,769.5,149.83333333333334C771.875,149.8173868312757,774.2500000000001,149.8014403292181,776.6250000000001,149.78549382716048C779.0000000000001,149.76954732510288,781.3750000000001,149.75360082304525,783.7500000000001,149.73765432098764C786.1250000000001,149.72170781893004,788.5000000000001,149.7057613168724,790.8750000000001,149.6898148148148C793.2500000000001,149.6738683127572,795.6250000000001,149.65792181069958,798.0000000000001,149.64197530864197C800.375,149.62602880658437,802.75,149.61008230452674,805.1249999999999,149.59413580246914C807.4999999999999,149.57818930041154,809.8749999999999,149.5622427983539,812.2499999999999,149.5462962962963C814.6249999999999,149.5303497942387,816.9999999999999,149.51440329218104,819.3749999999999,149.49845679012344C821.7499999999999,149.48251028806584,824.1249999999999,149.46656378600824,826.4999999999999,149.45061728395063C828.8749999999999,149.43467078189303,831.25,149.4187242798354,833.625,149.40277777777777C836,149.38683127572017,838.375,149.37088477366254,840.75,149.35493827160494C843.125,149.33899176954733,845.5,149.3230452674897,847.875,149.3070987654321C850.25,149.2911522633745,852.625,149.27520576131684,855,149.25925925925924C857.375,149.24331275720164,859.75,149.22736625514403,862.125,149.21141975308643C864.5,149.19547325102883,866.875,149.17952674897117,869.25,149.16358024691357C871.625,149.14763374485597,874,149.13168724279834,876.375,149.11574074074073C878.75,149.09979423868313,881.125,149.0838477366255,883.5,149.0679012345679C885.875,149.0519547325103,888.25,149.03600823045267,890.625,149.02006172839506C893,149.00411522633746,895.375,148.98816872427983,897.75,148.97222222222223C900.125,148.95627572016463,902.5,148.94032921810702,904.875,148.9243827160494C907.25,148.90843621399176,909.625,148.89248971193416,912,148.87654320987653C914.375,148.8605967078189,916.75,148.8446502057613,919.125,148.8287037037037C921.5,148.8127572016461,923.875,148.79681069958846,926.25,148.78086419753086C928.625,148.76491769547326,931,148.74897119341563,933.375,148.73302469135803C935.75,148.71707818930042,938.125,148.7011316872428,940.5,148.6851851851852C942.875,148.6692386831276,945.25,148.65329218106996,947.625,148.63734567901236C950,148.62139917695472,952.3750000000001,148.6054526748971,954.7500000000001,148.5895061728395C957.1250000000001,148.5735596707819,959.5000000000001,148.5576131687243,961.8750000000001,148.54166666666669C964.2500000000001,148.52572016460908,966.6250000000001,148.50977366255142,969.0000000000001,148.49382716049382C971.3750000000001,148.47788065843622,973.7500000000001,148.4619341563786,976.1250000000001,148.445987654321C978.5,148.43004115226339,980.875,148.41409465020575,983.2499999999999,148.39814814814815C985.6249999999999,148.38220164609055,987.9999999999999,148.36625514403292,990.3749999999999,148.35030864197532C992.7499999999999,148.33436213991772,995.1249999999999,148.31841563786008,997.4999999999999,148.30246913580248C999.8749999999999,148.28652263374488,1002.2499999999999,148.27057613168722,1004.6249999999999,148.25462962962962C1006.9999999999999,148.238683127572,1009.375,148.2227366255144,1011.75,148.20679012345678C1014.125,148.19084362139918,1016.5,148.17489711934155,1018.875,148.15895061728395C1021.25,148.14300411522635,1023.625,148.12705761316872,1026,148.11111111111111C1028.375,148.0951646090535,1030.75,148.07921810699588,1033.125,148.06327160493828C1035.5,148.04732510288068,1037.875,148.03137860082307,1040.25,148.01543209876544C1042.625,147.9994855967078,1045,147.9835390946502,1047.375,147.96759259259258C1049.75,147.95164609053495,1052.125,147.93569958847735,1054.5,147.91975308641975C1056.875,147.90380658436214,1059.25,147.8878600823045,1061.625,147.8719135802469C1064,147.8559670781893,1066.375,147.84002057613168,1068.75,147.82407407407408C1071.125,147.80812757201647,1073.5,147.79218106995887,1075.875,147.77623456790124C1078.25,147.7602880658436,1080.625,147.744341563786,1083,147.72839506172838C1085.375,147.71244855967075,1087.75,147.69650205761315,1090.125,147.68055555555554C1092.5,147.66460905349794,1094.875,147.6486625514403,1097.25,147.6327160493827C1099.625,147.6167695473251,1102,147.60082304526748,1104.375,147.58487654320987C1106.75,147.56893004115227,1109.125,147.55298353909464,1111.5,147.53703703703704C1113.875,147.52109053497944,1116.25,147.5051440329218,1118.625,147.4891975308642C1121,147.4732510288066,1123.375,147.45730452674897,1125.75,147.44135802469137C1128.125,147.42541152263377,1130.5,147.40946502057614,1132.875,147.39351851851853C1135.25,147.37757201646093,1137.625,147.36162551440327,1140,147.34567901234567C1142.375,147.32973251028807,1144.75,147.31378600823044,1147.125,147.29783950617283C1149.5,147.28189300411523,1151.875,147.2659465020576,1154.25,147.25C1156.625,147.2340534979424,1159,147.21810699588477,1161.375,147.20216049382717C1163.75,147.18621399176956,1166.125,147.17026748971193,1168.5,147.15432098765433C1170.875,147.13837448559673,1173.25,147.12242798353907,1175.625,147.10648148148147C1178,147.09053497942386,1180.375,147.07458847736623,1182.75,147.05864197530863C1185.125,147.04269547325103,1187.5,147.0267489711934,1189.875,147.0108024691358C1192.25,146.9948559670782,1194.625,146.97890946502056,1197,146.96296296296296C1199.375,146.94701646090536,1201.75,146.93106995884773,1204.125,146.91512345679013C1206.5,146.89917695473252,1208.875,146.88323045267492,1211.25,146.8672839506173C1213.625,146.85133744855966,1216,146.83539094650203,1218.375,146.81944444444443C1220.75,146.80349794238683,1223.125,146.78755144032922,1225.5,146.77160493827162C1227.875,146.75565843621402,1230.25,146.7397119341564,1232.625,146.72376543209876C1235,146.70781893004113,1237.375,146.69187242798353,1239.75,146.67592592592592C1242.125,146.65997942386832,1244.5,146.6440329218107,1246.875,146.6280864197531C1249.25,146.6121399176955,1251.625,146.59619341563786,1254,146.58024691358025C1256.375,146.56430041152265,1258.75,146.54835390946502,1261.125,146.53240740740742C1263.5,146.51646090534982,1265.875,146.5005144032922,1268.25,146.48456790123458C1270.625,146.46862139917698,1273,146.45267489711932,1275.375,146.43672839506172C1277.75,146.42078189300412,1280.125,146.42078189300412,1282.5,146.38888888888889C1284.875,146.35699588477365,1287.25,142.08333333333334,1289.625,139.93055555555557C1292,137.7777777777778,1294.375,135.625,1296.75,133.47222222222223C1299.125,131.31944444444446,1301.5,129.16666666666666,1303.875,127.01388888888889C1306.25,124.86111111111111,1308.625,122.70833333333333,1311,120.55555555555556C1313.375,118.40277777777779,1315.75,116.25,1318.125,114.09722222222223C1320.5,111.94444444444446,1322.875,109.79166666666666,1325.25,107.63888888888889C1327.625,105.48611111111111,1330,103.33333333333333,1332.375,101.18055555555556C1334.75,99.02777777777779,1337.125,96.875,1339.5,94.72222222222223C1341.875,92.56944444444446,1344.25,90.41666666666666,1346.625,88.26388888888889C1349,86.11111111111111,1351.375,83.95833333333333,1353.75,81.80555555555556C1356.125,79.65277777777779,1358.5,77.5,1360.875,75.34722222222223C1363.25,73.19444444444446,1365.625,71.04166666666666,1368,68.88888888888889C1370.375,66.73611111111111,1372.75,64.58333333333333,1375.125,62.43055555555556C1377.5,60.27777777777778,1379.875,58.12500000000001,1382.25,55.97222222222223C1384.625,53.81944444444445,1387,51.666666666666664,1389.375,49.513888888888886C1391.75,47.36111111111111,1394.125,45.208333333333336,1396.5,43.05555555555556C1398.875,40.90277777777778,1401.25,38.75000000000001,1403.625,36.59722222222223C1406,34.44444444444445,1408.375,32.291666666666664,1410.75,30.138888888888886C1413.125,27.986111111111107,1415.5,25.833333333333332,1417.875,23.680555555555557C1420.25,21.527777777777782,1422.625,19.375000000000004,1425,17.22222222222223" fill="transparent" stroke-linecap="round" stroke="#1AD4B3" stroke-width="2"></path><g class="visx-group visx-axis visx-axis-bottom" transform="translate(0, 155)"><g class="visx-group visx-axis-tick" transform="translate(0, 0)"><line class="visx-line" x1="0" y1="0" x2="0" y2="8" fill="transparent" shape-rendering="crispEdges" stroke="#F2F0F9" stroke-width="1" stroke-linecap="square"></line><svg x="0" y="0" font-size="11" style="overflow:visible"><text transform="" x="0" y="19" fill="#1B2030" font-size="11" text-anchor="middle"><tspan x="0" dy="0em">0%</tspan></text></svg></g><g class="visx-group visx-axis-tick" transform="translate(0, 0)"><line class="visx-line" x1="356.25" y1="0" x2="356.25" y2="8" fill="transparent" shape-rendering="crispEdges" stroke="#F2F0F9" stroke-width="1" stroke-linecap="square"></line><svg x="0" y="0" font-size="11" style="overflow:visible"><text transform="" x="356.25" y="19" fill="#1B2030" font-size="11" text-anchor="middle"><tspan x="356.25" dy="0em">25%</tspan></text></svg></g><g class="visx-group visx-axis-tick" transform="translate(0, 0)"><line class="visx-line" x1="712.5" y1="0" x2="712.5" y2="8" fill="transparent" shape-rendering="crispEdges" stroke="#F2F0F9" stroke-width="1" stroke-linecap="square"></line><svg x="0" y="0" font-size="11" style="overflow:visible"><text transform="" x="712.5" y="19" fill="#1B2030" font-size="11" text-anchor="middle"><tspan x="712.5" dy="0em">50%</tspan></text></svg></g><g class="visx-group visx-axis-tick" transform="translate(0, 0)"><line class="visx-line" x1="1068.75" y1="0" x2="1068.75" y2="8" fill="transparent" shape-rendering="crispEdges" stroke="#F2F0F9" stroke-width="1" stroke-linecap="square"></line><svg x="0" y="0" font-size="11" style="overflow:visible"><text transform="" x="1068.75" y="19" fill="#1B2030" font-size="11" text-anchor="middle"><tspan x="1068.75" dy="0em">75%</tspan></text></svg></g><g class="visx-group visx-axis-tick" transform="translate(0, 0)"><line class="visx-line" x1="1425" y1="0" x2="1425" y2="8" fill="transparent" shape-rendering="crispEdges" stroke="#F2F0F9" stroke-width="1" stroke-linecap="square"></line><svg x="0" y="0" font-size="11" style="overflow:visible"><text transform="" x="1425" y="19" fill="#1B2030" font-size="11" text-anchor="middle"><tspan x="1425" dy="0em">100%</tspan></text></svg></g></g><g class="visx-group visx-axis visx-axis-left" transform="translate(0, 0)"><g class="visx-group visx-axis-tick" transform="translate(0, 0)"><line class="visx-line" x1="0" y1="155" x2="-8" y2="155" fill="transparent" shape-rendering="crispEdges" stroke="#F2F0F9" stroke-width="1" stroke-linecap="square"></line><svg x="-30" y="0" font-size="11" style="overflow:visible"><text transform="" x="-8" y="155" fill="#1B2030" font-size="11" text-anchor="start"><tspan x="-8" dy="0em">0%</tspan></text></svg></g><g class="visx-group visx-axis-tick" transform="translate(0, 0)"><line class="visx-line" x1="0" y1="120.55555555555556" x2="-8" y2="120.55555555555556" fill="transparent" shape-rendering="crispEdges" stroke="#F2F0F9" stroke-width="1" stroke-linecap="square"></line><svg x="-30" y="0" font-size="11" style="overflow:visible"><text transform="" x="-8" y="120.55555555555556" fill="#1B2030" font-size="11" text-anchor="start"><tspan x="-8" dy="0em">20%</tspan></text></svg></g><g class="visx-group visx-axis-tick" transform="translate(0, 0)"><line class="visx-line" x1="0" y1="86.11111111111111" x2="-8" y2="86.11111111111111" fill="transparent" shape-rendering="crispEdges" stroke="#F2F0F9" stroke-width="1" stroke-linecap="square"></line><svg x="-30" y="0" font-size="11" style="overflow:visible"><text transform="" x="-8" y="86.11111111111111" fill="#1B2030" font-size="11" text-anchor="start"><tspan x="-8" dy="0em">40%</tspan></text></svg></g><g class="visx-group visx-axis-tick" transform="translate(0, 0)"><line class="visx-line" x1="0" y1="51.66666666666667" x2="-8" y2="51.66666666666667" fill="transparent" shape-rendering="crispEdges" stroke="#F2F0F9" stroke-width="1" stroke-linecap="square"></line><svg x="-30" y="0" font-size="11" style="overflow:visible"><text transform="" x="-8" y="51.66666666666667" fill="#1B2030" font-size="11" text-anchor="start"><tspan x="-8" dy="0em">60%</tspan></text></svg></g><g class="visx-group visx-axis-tick" transform="translate(0, 0)"><line class="visx-line" x1="0" y1="17.22222222222223" x2="-8" y2="17.22222222222223" fill="transparent" shape-rendering="crispEdges" stroke="#F2F0F9" stroke-width="1" stroke-linecap="square"></line><svg x="-30" y="0" font-size="11" style="overflow:visible"><text transform="" x="-8" y="17.22222222222223" fill="#1B2030" font-size="11" text-anchor="start"><tspan x="-8" dy="0em">80%</tspan></text></svg></g><line class="visx-line visx-axis-line" x1="0" y1="155.5" x2="0" y2="0.5" fill="transparent" shape-rendering="crispEdges" stroke="#F2F0F9" stroke-width="1"></line></g><rect class="visx-bar" width="1425" height="155" fill="transparent"></rect><line class="visx-line" x1="1282.5" y1="58" x2="1282.5" y2="155" fill="transparent" shape-rendering="crispEdges" stroke="#CDC8E1" stroke-width="1" pointer-events="none" stroke-dasharray="5"></line><svg x="0" y="0" font-size="11px" style="overflow:visible"><text transform="" x="1282.5" y="50" font-size="11px" fill="#555069" stroke="#FFFFFF" stroke-width="1px" text-anchor="middle"><tspan x="1282.5" dy="0.355em">Optimal utilization 90%</tspan></text></svg><svg x="0" y="0" font-size="11px" style="overflow:visible"><text transform="" x="1282.5" y="50" font-size="11px" fill="#CDC8E1" text-anchor="middle"><tspan x="1282.5" dy="0.355em">Optimal utilization 90%</tspan></text></svg></g></svg>