<?xml version="1.0"?><svg xmlns="http://www.w3.org/2000/svg" xmlns:xlink= "http://www.w3.org/1999/xlink" style="background: white;" width="1500" height="300"> <g style="color: black; font-size: 13px; font-family: sans-serif; transform: translate(18px, 25px);"><g><circle r="3" cx="-6" cy="-5" style="fill: #1AD4B3" /><text>Borrow APR, variable</text></g><g style="transform: translateX(150px);"><circle r="3" cx="-6" cy="-5" style="fill: #101423" /><text>Borrow APR, stable</text></g></g><g class="visx-group" transform="translate(45, 50)"><g class="visx-group visx-rows" transform="translate(0, 0)"><line class="visx-line" x1="0" y1="155" x2="1425" y2="155" fill="transparent" shape-rendering="crispEdges" stroke="#F2F0F9" stroke-width="1" pointer-events="none"></line><line class="visx-line" x1="0" y1="116.25" x2="1425" y2="116.25" fill="transparent" shape-rendering="crispEdges" stroke="#F2F0F9" stroke-width="1" pointer-events="none"></line><line class="visx-line" x1="0" y1="77.5" x2="1425" y2="77.5" fill="transparent" shape-rendering="crispEdges" stroke="#F2F0F9" stroke-width="1" pointer-events="none"></line><line class="visx-line" x1="0" y1="38.75" x2="1425" y2="38.75" fill="transparent" shape-rendering="crispEdges" stroke="#F2F0F9" stroke-width="1" pointer-events="none"></line><line class="visx-line" x1="0" y1="0" x2="1425" y2="0" fill="transparent" shape-rendering="crispEdges" stroke="#F2F0F9" stroke-width="1" pointer-events="none"></line></g><path class="visx-linepath" d="M0,154.99999999974168C2.375,154.95694444429375,4.75,154.91388888884583,7.125,154.87083333333334C9.5,154.82777777782084,11.875,154.78472222222223,14.25,154.74166666666667C16.625,154.69861111111112,19,154.65555555555557,21.375,154.6125C23.75,154.56944444444446,26.125,154.5263888888889,28.5,154.48333333333335C30.875,154.4402777777778,33.25,154.3972222222222,35.625,154.35416666666666C38,154.3111111111111,40.375,154.26805555555555,42.75,154.225C45.125,154.18194444444444,47.50000000000001,154.13888888888889,49.87500000000001,154.09583333333333C52.25000000000001,154.05277777777778,54.625,154.00972222222222,57,153.96666666666667C59.375,153.92361111111111,61.75,153.88055555555556,64.125,153.8375C66.5,153.79444444444445,68.875,153.7513888888889,71.25,153.70833333333334C73.625,153.6652777777778,76,153.62222222222223,78.375,153.57916666666668C80.75,153.53611111111113,83.125,153.49305555555554,85.5,153.45C87.875,153.40694444444443,90.25,153.36388888888888,92.625,153.32083333333333C95,153.27777777777777,97.37500000000001,153.23472222222222,99.75000000000001,153.19166666666666C102.12500000000001,153.1486111111111,104.5,153.10555555555555,106.875,153.0625C109.25,153.01944444444445,111.625,152.9763888888889,114,152.93333333333334C116.375,152.89027777777778,118.75000000000001,152.84722222222223,121.12500000000001,152.80416666666667C123.50000000000001,152.76111111111112,125.875,152.71805555555557,128.25,152.675C130.625,152.63194444444446,133,152.58888888888887,135.375,152.54583333333332C137.75,152.50277777777777,140.125,152.4597222222222,142.5,152.41666666666666C144.875,152.3736111111111,147.25,152.33055555555555,149.625,152.2875C152,152.24444444444444,154.375,152.20138888888889,156.75,152.15833333333333C159.125,152.11527777777778,161.5,152.07222222222222,163.875,152.02916666666667C166.25,151.98611111111111,168.625,151.94305555555556,171,151.9C173.375,151.85694444444445,175.75,151.81388888888887,178.125,151.77083333333331C180.5,151.72777777777776,182.875,151.68472222222223,185.25,151.64166666666668C187.625,151.59861111111113,190,151.55555555555557,192.375,151.51250000000002C194.75,151.46944444444446,197.12500000000003,151.42638888888888,199.50000000000003,151.38333333333333C201.875,151.34027777777777,204.25,151.29722222222222,206.62499999999997,151.25416666666666C208.99999999999997,151.2111111111111,211.375,151.16805555555555,213.75,151.125C216.125,151.08194444444445,218.5,151.0388888888889,220.875,150.99583333333334C223.25,150.95277777777778,225.625,150.90972222222223,228,150.86666666666667C230.375,150.82361111111112,232.75,150.78055555555557,235.125,150.7375C237.5,150.69444444444446,239.87500000000003,150.6513888888889,242.25000000000003,150.60833333333335C244.625,150.5652777777778,247,150.5222222222222,249.37499999999997,150.47916666666666C251.74999999999997,150.4361111111111,254.125,150.39305555555555,256.5,150.35C258.875,150.30694444444444,261.25,150.26388888888889,263.625,150.22083333333333C266,150.17777777777778,268.375,150.13472222222222,270.75,150.09166666666667C273.125,150.04861111111111,275.5,150.00555555555556,277.875,149.9625C280.25,149.91944444444445,282.625,149.8763888888889,285,149.83333333333334C287.375,149.7902777777778,289.75,149.7472222222222,292.125,149.70416666666665C294.5,149.6611111111111,296.875,149.61805555555554,299.25,149.575C301.625,149.53194444444443,304,149.48888888888888,306.375,149.44583333333333C308.75,149.40277777777777,311.125,149.35972222222222,313.5,149.31666666666666C315.875,149.2736111111111,318.25,149.23055555555555,320.625,149.1875C323,149.14444444444445,325.375,149.1013888888889,327.75,149.05833333333334C330.125,149.01527777777778,332.5,148.97222222222223,334.875,148.92916666666667C337.25,148.88611111111112,339.625,148.84305555555554,342,148.79999999999998C344.375,148.75694444444443,346.75,148.7138888888889,349.125,148.67083333333335C351.5,148.6277777777778,353.875,148.58472222222224,356.25,148.54166666666669C358.625,148.49861111111113,361,148.45555555555555,363.375,148.4125C365.75,148.36944444444444,368.125,148.32638888888889,370.5,148.28333333333333C372.875,148.24027777777778,375.25,148.19722222222222,377.625,148.15416666666667C380,148.11111111111111,382.375,148.06805555555556,384.75,148.025C387.125,147.98194444444445,389.50000000000006,147.9388888888889,391.87500000000006,147.89583333333334C394.25000000000006,147.8527777777778,396.62500000000006,147.80972222222223,399.00000000000006,147.76666666666668C401.375,147.72361111111113,403.75,147.68055555555554,406.12499999999994,147.6375C408.49999999999994,147.59444444444443,410.87499999999994,147.55138888888888,413.24999999999994,147.50833333333333C415.62499999999994,147.46527777777777,418,147.42222222222222,420.375,147.37916666666666C422.75,147.3361111111111,425.125,147.29305555555555,427.5,147.25C429.875,147.20694444444445,432.25,147.1638888888889,434.625,147.12083333333334C437,147.07777777777778,439.375,147.03472222222223,441.75,146.99166666666667C444.125,146.94861111111112,446.5,146.90555555555557,448.875,146.8625C451.25,146.81944444444446,453.625,146.77638888888887,456,146.73333333333332C458.375,146.69027777777777,460.75,146.6472222222222,463.125,146.60416666666666C465.5,146.5611111111111,467.875,146.51805555555558,470.25,146.47500000000002C472.625,146.43194444444447,475.00000000000006,146.38888888888889,477.37500000000006,146.34583333333333C479.75000000000006,146.30277777777778,482.12500000000006,146.25972222222222,484.50000000000006,146.21666666666667C486.875,146.17361111111111,489.25,146.13055555555556,491.62499999999994,146.0875C493.99999999999994,146.04444444444445,496.37499999999994,146.0013888888889,498.74999999999994,145.95833333333334C501.12499999999994,145.9152777777778,503.5,145.8722222222222,505.875,145.82916666666665C508.25,145.7861111111111,510.625,145.74305555555554,513,145.7C515.375,145.65694444444443,517.75,145.61388888888888,520.125,145.57083333333333C522.5,145.52777777777777,524.875,145.48472222222222,527.25,145.44166666666666C529.625,145.3986111111111,532,145.35555555555555,534.375,145.3125C536.75,145.26944444444445,539.125,145.2263888888889,541.5,145.18333333333334C543.875,145.14027777777778,546.25,145.09722222222223,548.625,145.05416666666667C551,145.01111111111112,553.375,144.96805555555557,555.75,144.925C558.125,144.88194444444446,560.5,144.8388888888889,562.875,144.79583333333335C565.25,144.7527777777778,567.625,144.7097222222222,570,144.66666666666666C572.375,144.6236111111111,574.75,144.58055555555555,577.125,144.5375C579.5,144.49444444444444,581.875,144.45138888888889,584.25,144.40833333333333C586.625,144.36527777777778,589,144.32222222222222,591.375,144.27916666666667C593.75,144.23611111111111,596.125,144.19305555555553,598.5,144.14999999999998C600.875,144.10694444444442,603.25,144.0638888888889,605.625,144.02083333333334C608,143.9777777777778,610.375,143.93472222222223,612.75,143.89166666666668C615.125,143.84861111111113,617.5,143.80555555555554,619.875,143.7625C622.25,143.71944444444443,624.625,143.67638888888888,627,143.63333333333333C629.375,143.59027777777777,631.75,143.54722222222222,634.125,143.50416666666666C636.5,143.4611111111111,638.875,143.41805555555555,641.25,143.375C643.625,143.33194444444445,646,143.2888888888889,648.375,143.24583333333334C650.75,143.20277777777778,653.125,143.15972222222223,655.5,143.11666666666667C657.875,143.07361111111112,660.25,143.03055555555557,662.625,142.9875C665,142.94444444444446,667.375,142.90138888888887,669.75,142.85833333333332C672.125,142.81527777777777,674.5,142.7722222222222,676.875,142.72916666666666C679.25,142.6861111111111,681.625,142.64305555555555,684,142.6C686.375,142.55694444444444,688.75,142.51388888888889,691.125,142.47083333333333C693.5,142.42777777777778,695.875,142.38472222222222,698.25,142.34166666666667C700.625,142.29861111111111,703,142.25555555555556,705.375,142.2125C707.75,142.16944444444445,710.125,142.12638888888887,712.5,142.08333333333331C714.875,142.04027777777776,717.25,141.99722222222223,719.625,141.95416666666668C722,141.91111111111113,724.375,141.86805555555557,726.75,141.82500000000002C729.125,141.78194444444446,731.5,141.73888888888888,733.875,141.69583333333333C736.25,141.65277777777777,738.625,141.60972222222222,741,141.56666666666666C743.375,141.5236111111111,745.75,141.48055555555555,748.125,141.4375C750.5,141.39444444444445,752.875,141.3513888888889,755.25,141.30833333333334C757.625,141.26527777777778,760,141.22222222222223,762.375,141.17916666666667C764.75,141.13611111111112,767.125,141.09305555555557,769.5,141.05C771.875,141.00694444444446,774.2500000000001,140.9638888888889,776.6250000000001,140.92083333333335C779.0000000000001,140.8777777777778,781.3750000000001,140.8347222222222,783.7500000000001,140.79166666666666C786.1250000000001,140.7486111111111,788.5000000000001,140.70555555555555,790.8750000000001,140.6625C793.2500000000001,140.61944444444444,795.6250000000001,140.57638888888889,798.0000000000001,140.53333333333333C800.375,140.49027777777778,802.75,140.44722222222222,805.1249999999999,140.40416666666667C807.4999999999999,140.36111111111111,809.8749999999999,140.31805555555556,812.2499999999999,140.275C814.6249999999999,140.23194444444445,816.9999999999999,140.1888888888889,819.3749999999999,140.14583333333334C821.7499999999999,140.1027777777778,824.1249999999999,140.0597222222222,826.4999999999999,140.01666666666665C828.8749999999999,139.9736111111111,831.25,139.93055555555554,833.625,139.8875C836,139.84444444444443,838.375,139.80138888888888,840.75,139.75833333333333C843.125,139.71527777777777,845.5,139.67222222222222,847.875,139.62916666666666C850.25,139.5861111111111,852.625,139.54305555555555,855,139.5C857.375,139.45694444444445,859.75,139.4138888888889,862.125,139.37083333333334C864.5,139.32777777777778,866.875,139.28472222222223,869.25,139.24166666666667C871.625,139.19861111111112,874,139.15555555555554,876.375,139.11249999999998C878.75,139.06944444444443,881.125,139.0263888888889,883.5,138.98333333333335C885.875,138.9402777777778,888.25,138.89722222222224,890.625,138.85416666666669C893,138.81111111111113,895.375,138.76805555555555,897.75,138.725C900.125,138.68194444444444,902.5,138.63888888888889,904.875,138.59583333333333C907.25,138.55277777777778,909.625,138.50972222222222,912,138.46666666666667C914.375,138.42361111111111,916.75,138.38055555555556,919.125,138.3375C921.5,138.29444444444445,923.875,138.25138888888887,926.25,138.20833333333331C928.625,138.16527777777776,931,138.12222222222223,933.375,138.07916666666668C935.75,138.03611111111113,938.125,137.99305555555554,940.5,137.95C942.875,137.90694444444443,945.25,137.86388888888888,947.625,137.82083333333333C950,137.77777777777777,952.3750000000001,137.73472222222222,954.7500000000001,137.69166666666666C957.1250000000001,137.6486111111111,959.5000000000001,137.60555555555555,961.8750000000001,137.5625C964.2500000000001,137.51944444444445,966.6250000000001,137.4763888888889,969.0000000000001,137.43333333333334C971.3750000000001,137.39027777777778,973.7500000000001,137.34722222222223,976.1250000000001,137.30416666666667C978.5,137.26111111111112,980.875,137.21805555555557,983.2499999999999,137.175C985.6249999999999,137.13194444444446,987.9999999999999,137.08888888888887,990.3749999999999,137.04583333333332C992.7499999999999,137.00277777777777,995.1249999999999,136.9597222222222,997.4999999999999,136.91666666666666C999.8749999999999,136.8736111111111,1002.2499999999999,136.83055555555555,1004.6249999999999,136.7875C1006.9999999999999,136.74444444444444,1009.375,136.70138888888889,1011.75,136.65833333333333C1014.125,136.61527777777778,1016.5,136.57222222222222,1018.875,136.52916666666667C1021.25,136.48611111111111,1023.625,136.44305555555556,1026,136.4C1028.375,136.35694444444445,1030.75,136.3138888888889,1033.125,136.27083333333334C1035.5,136.2277777777778,1037.875,136.1847222222222,1040.25,136.14166666666665C1042.625,136.0986111111111,1045,136.05555555555554,1047.375,136.0125C1049.75,135.96944444444443,1052.125,135.92638888888888,1054.5,135.88333333333333C1056.875,135.84027777777777,1059.25,135.79722222222222,1061.625,135.75416666666666C1064,135.7111111111111,1066.375,135.66805555555555,1068.75,135.625C1071.125,135.58194444444445,1073.5,135.5388888888889,1075.875,135.49583333333334C1078.25,135.45277777777778,1080.625,135.40972222222223,1083,135.36666666666667C1085.375,135.32361111111112,1087.75,135.28055555555557,1090.125,135.2375C1092.5,135.19444444444446,1094.875,135.15138888888887,1097.25,135.10833333333332C1099.625,135.06527777777777,1102,135.0222222222222,1104.375,134.97916666666666C1106.75,134.9361111111111,1109.125,134.89305555555555,1111.5,134.85C1113.875,134.80694444444444,1116.25,134.76388888888889,1118.625,134.72083333333333C1121,134.67777777777778,1123.375,134.63472222222222,1125.75,134.59166666666667C1128.125,134.54861111111111,1130.5,134.50555555555553,1132.875,134.46249999999998C1135.25,134.41944444444442,1137.625,134.3763888888889,1140,134.33333333333334C1142.375,134.2902777777778,1144.75,134.24722222222223,1147.125,134.20416666666668C1149.5,134.16111111111113,1151.875,134.11805555555554,1154.25,134.075C1156.625,134.03194444444443,1159,133.9888888888889,1161.375,133.94583333333335C1163.75,133.9027777777778,1166.125,133.85972222222222,1168.5,133.81666666666666C1170.875,133.7736111111111,1173.25,133.73055555555555,1175.625,133.6875C1178,133.64444444444445,1180.375,133.6013888888889,1182.75,133.55833333333334C1185.125,133.51527777777778,1187.5,133.47222222222223,1189.875,133.42916666666667C1192.25,133.38611111111112,1194.625,133.34305555555557,1197,133.3C1199.375,133.25694444444446,1201.75,133.21388888888887,1204.125,133.17083333333332C1206.5,133.12777777777777,1208.875,133.08472222222224,1211.25,133.04166666666669C1213.625,132.99861111111113,1216,132.95555555555555,1218.375,132.9125C1220.75,132.86944444444444,1223.125,132.82638888888889,1225.5,132.78333333333333C1227.875,132.74027777777778,1230.25,132.69722222222222,1232.625,132.65416666666667C1235,132.61111111111111,1237.375,132.56805555555556,1239.75,132.525C1242.125,132.48194444444445,1244.5,132.4388888888889,1246.875,132.39583333333334C1249.25,132.3527777777778,1251.625,132.3097222222222,1254,132.26666666666665C1256.375,132.2236111111111,1258.75,132.18055555555557,1261.125,132.13750000000002C1263.5,132.09444444444446,1265.875,132.05138888888888,1268.25,132.00833333333333C1270.625,131.96527777777777,1273,131.92222222222222,1275.375,131.87916666666666C1277.75,131.8361111111111,1280.125,131.8361111111111,1282.5,131.75C1284.875,131.6638888888889,1287.25,127.875,1289.625,125.9375C1292,124,1294.375,122.0625,1296.75,120.125C1299.125,118.1875,1301.5,116.25,1303.875,114.3125C1306.25,112.375,1308.625,110.4375,1311,108.5C1313.375,106.5625,1315.75,104.625,1318.125,102.6875C1320.5,100.75,1322.875,98.8125,1325.25,96.875C1327.625,94.9375,1330,93,1332.375,91.0625C1334.75,89.125,1337.125,87.1875,1339.5,85.25C1341.875,83.3125,1344.25,81.375,1346.625,79.4375C1349,77.5,1351.375,75.5625,1353.75,73.625C1356.125,71.6875,1358.5,69.75,1360.875,67.8125C1363.25,65.875,1365.625,63.9375,1368,62C1370.375,60.0625,1372.75,58.12500000000001,1375.125,56.18750000000001C1377.5,54.25000000000001,1379.875,52.31249999999999,1382.25,50.37499999999999C1384.625,48.43749999999999,1387,46.500000000000014,1389.375,44.562500000000014C1391.75,42.625000000000014,1394.125,40.6875,1396.5,38.75C1398.875,36.8125,1401.25,34.875,1403.625,32.9375C1406,31,1408.375,29.062500000000007,1410.75,27.125000000000007C1413.125,25.187500000000007,1415.5,23.249999999999993,1417.875,21.312499999999993C1420.25,19.374999999999993,1422.625,17.437499999999993,1425,15.499999999999996" fill="transparent" stroke-linecap="round" stroke="#1AD4B3" stroke-width="2"></path><g class="visx-group visx-axis visx-axis-bottom" transform="translate(0, 155)"><g class="visx-group visx-axis-tick" transform="translate(0, 0)"><line class="visx-line" x1="0" y1="0" x2="0" y2="8" fill="transparent" shape-rendering="crispEdges" stroke="#F2F0F9" stroke-width="1" stroke-linecap="square"></line><svg x="0" y="0" font-size="11" style="overflow:visible"><text transform="" x="0" y="19" fill="#1B2030" font-size="11" text-anchor="middle"><tspan x="0" dy="0em">0%</tspan></text></svg></g><g class="visx-group visx-axis-tick" transform="translate(0, 0)"><line class="visx-line" x1="356.25" y1="0" x2="356.25" y2="8" fill="transparent" shape-rendering="crispEdges" stroke="#F2F0F9" stroke-width="1" stroke-linecap="square"></line><svg x="0" y="0" font-size="11" style="overflow:visible"><text transform="" x="356.25" y="19" fill="#1B2030" font-size="11" text-anchor="middle"><tspan x="356.25" dy="0em">25%</tspan></text></svg></g><g class="visx-group visx-axis-tick" transform="translate(0, 0)"><line class="visx-line" x1="712.5" y1="0" x2="712.5" y2="8" fill="transparent" shape-rendering="crispEdges" stroke="#F2F0F9" stroke-width="1" stroke-linecap="square"></line><svg x="0" y="0" font-size="11" style="overflow:visible"><text transform="" x="712.5" y="19" fill="#1B2030" font-size="11" text-anchor="middle"><tspan x="712.5" dy="0em">50%</tspan></text></svg></g><g class="visx-group visx-axis-tick" transform="translate(0, 0)"><line class="visx-line" x1="1068.75" y1="0" x2="1068.75" y2="8" fill="transparent" shape-rendering="crispEdges" stroke="#F2F0F9" stroke-width="1" stroke-linecap="square"></line><svg x="0" y="0" font-size="11" style="overflow:visible"><text transform="" x="1068.75" y="19" fill="#1B2030" font-size="11" text-anchor="middle"><tspan x="1068.75" dy="0em">75%</tspan></text></svg></g><g class="visx-group visx-axis-tick" transform="translate(0, 0)"><line class="visx-line" x1="1425" y1="0" x2="1425" y2="8" fill="transparent" shape-rendering="crispEdges" stroke="#F2F0F9" stroke-width="1" stroke-linecap="square"></line><svg x="0" y="0" font-size="11" style="overflow:visible"><text transform="" x="1425" y="19" fill="#1B2030" font-size="11" text-anchor="middle"><tspan x="1425" dy="0em">100%</tspan></text></svg></g></g><g class="visx-group visx-axis visx-axis-left" transform="translate(0, 0)"><g class="visx-group visx-axis-tick" transform="translate(0, 0)"><line class="visx-line" x1="0" y1="155" x2="-8" y2="155" fill="transparent" shape-rendering="crispEdges" stroke="#F2F0F9" stroke-width="1" stroke-linecap="square"></line><svg x="-30" y="0" font-size="11" style="overflow:visible"><text transform="" x="-8" y="155" fill="#1B2030" font-size="11" text-anchor="start"><tspan x="-8" dy="0em">0%</tspan></text></svg></g><g class="visx-group visx-axis-tick" transform="translate(0, 0)"><line class="visx-line" x1="0" y1="116.25" x2="-8" y2="116.25" fill="transparent" shape-rendering="crispEdges" stroke="#F2F0F9" stroke-width="1" stroke-linecap="square"></line><svg x="-30" y="0" font-size="11" style="overflow:visible"><text transform="" x="-8" y="116.25" fill="#1B2030" font-size="11" text-anchor="start"><tspan x="-8" dy="0em">20%</tspan></text></svg></g><g class="visx-group visx-axis-tick" transform="translate(0, 0)"><line class="visx-line" x1="0" y1="77.5" x2="-8" y2="77.5" fill="transparent" shape-rendering="crispEdges" stroke="#F2F0F9" stroke-width="1" stroke-linecap="square"></line><svg x="-30" y="0" font-size="11" style="overflow:visible"><text transform="" x="-8" y="77.5" fill="#1B2030" font-size="11" text-anchor="start"><tspan x="-8" dy="0em">40%</tspan></text></svg></g><g class="visx-group visx-axis-tick" transform="translate(0, 0)"><line class="visx-line" x1="0" y1="38.75" x2="-8" y2="38.75" fill="transparent" shape-rendering="crispEdges" stroke="#F2F0F9" stroke-width="1" stroke-linecap="square"></line><svg x="-30" y="0" font-size="11" style="overflow:visible"><text transform="" x="-8" y="38.75" fill="#1B2030" font-size="11" text-anchor="start"><tspan x="-8" dy="0em">60%</tspan></text></svg></g><g class="visx-group visx-axis-tick" transform="translate(0, 0)"><line class="visx-line" x1="0" y1="0" x2="-8" y2="0" fill="transparent" shape-rendering="crispEdges" stroke="#F2F0F9" stroke-width="1" stroke-linecap="square"></line><svg x="-30" y="0" font-size="11" style="overflow:visible"><text transform="" x="-8" y="0" fill="#1B2030" font-size="11" text-anchor="start"><tspan x="-8" dy="0em">80%</tspan></text></svg></g><line class="visx-line visx-axis-line" x1="0" y1="155.5" x2="0" y2="0.5" fill="transparent" shape-rendering="crispEdges" stroke="#F2F0F9" stroke-width="1"></line></g><rect class="visx-bar" width="1425" height="155" fill="transparent"></rect><line class="visx-line" x1="1282.5" y1="58" x2="1282.5" y2="155" fill="transparent" shape-rendering="crispEdges" stroke="#CDC8E1" stroke-width="1" pointer-events="none" stroke-dasharray="5"></line><svg x="0" y="0" font-size="11px" style="overflow:visible"><text transform="" x="1282.5" y="50" font-size="11px" fill="#555069" stroke="#FFFFFF" stroke-width="1px" text-anchor="middle"><tspan x="1282.5" dy="0.355em">uOptimal 90%</tspan></text></svg><svg x="0" y="0" font-size="11px" style="overflow:visible"><text transform="" x="1282.5" y="50" font-size="11px" fill="#CDC8E1" text-anchor="middle"><tspan x="1282.5" dy="0.355em">uOptimal 90%</tspan></text></svg></g></svg>