<?xml version="1.0"?><svg xmlns="http://www.w3.org/2000/svg" xmlns:xlink= "http://www.w3.org/1999/xlink" style="background: white;" width="1500" height="185"> <g style="color: black; font-size: 13px; font-family: sans-serif; transform: translate(18px, 25px);"><g><circle r="3" cx="-6" cy="-5" style="fill: #B6509E" /><text>Borrow APR, variable</text></g><g style="transform: translateX(150px);"><circle r="3" cx="-6" cy="-5" style="fill: rgb(231, 198, 223)" /><text>Borrow APR, stable</text></g><g style="transform: translateX(290px);"><circle r="3" cx="-6" cy="-5" style="fill: rgb(0, 98, 210)" /><text>Utilization Rate</text></g></g><g class="visx-group" transform="translate(40, 50)"><g class="visx-group visx-rows" transform="translate(0, 0)"><line class="visx-line" x1="0" y1="115" x2="1450" y2="115" fill="transparent" shape-rendering="crispEdges" stroke="#000" stroke-width="1" stroke-dasharray="3,3" pointer-events="none"></line><line class="visx-line" x1="0" y1="67.08333333333333" x2="1450" y2="67.08333333333333" fill="transparent" shape-rendering="crispEdges" stroke="#000" stroke-width="1" stroke-dasharray="3,3" pointer-events="none"></line><line class="visx-line" x1="0" y1="19.16666666666666" x2="1450" y2="19.16666666666666" fill="transparent" shape-rendering="crispEdges" stroke="#000" stroke-width="1" stroke-dasharray="3,3" pointer-events="none"></line></g><path class="visx-linepath" d="M0,114.99999999989818C2.4166666666666665,114.98302951382949,4.833333333333334,114.9660590277608,7.25,114.94908854166667C9.666666666666666,114.93211805557253,12.083333333333334,114.91514756944446,14.5,114.89817708333334C16.916666666666668,114.88120659722222,19.333333333333332,114.8642361111111,21.75,114.84726562499999C24.166666666666668,114.83029513888889,26.583333333333332,114.81332465277777,29,114.79635416666666C31.416666666666668,114.77938368055555,33.833333333333336,114.76241319444443,36.25,114.74544270833333C38.666666666666664,114.72847222222222,41.083333333333336,114.7115017361111,43.5,114.69453125C45.91666666666667,114.67756076388889,48.333333333333336,114.66059027777777,50.75000000000001,114.64361979166667C53.16666666666667,114.62664930555556,55.583333333333336,114.60967881944444,58,114.59270833333333C60.416666666666664,114.57573784722221,62.833333333333336,114.5587673611111,65.25,114.54179687499999C67.66666666666667,114.52482638888888,70.08333333333333,114.50785590277778,72.5,114.49088541666667C74.91666666666667,114.47391493055557,77.33333333333333,114.45694444444445,79.75,114.43997395833333C82.16666666666667,114.4230034722222,84.58333333333333,114.4060329861111,87,114.3890625C89.41666666666667,114.37209201388889,91.83333333333333,114.35512152777777,94.25,114.33815104166666C96.66666666666667,114.32118055555556,99.08333333333334,114.30421006944444,101.50000000000001,114.28723958333333C103.91666666666667,114.27026909722223,106.33333333333334,114.2532986111111,108.75,114.236328125C111.16666666666667,114.2193576388889,113.58333333333333,114.20238715277777,116,114.18541666666667C118.41666666666667,114.16844618055555,120.83333333333334,114.15147569444443,123.25000000000001,114.13450520833332C125.66666666666667,114.11753472222222,128.08333333333334,114.10056423611111,130.5,114.08359375C132.91666666666666,114.0666232638889,135.33333333333334,114.04965277777777,137.75,114.03268229166666C140.16666666666666,114.01571180555555,142.58333333333334,113.99874131944443,145,113.98177083333333C147.41666666666666,113.96480034722222,149.83333333333334,113.9478298611111,152.25,113.930859375C154.66666666666666,113.91388888888889,157.08333333333334,113.89691840277777,159.5,113.87994791666667C161.91666666666666,113.86297743055556,164.33333333333334,113.84600694444444,166.75,113.82903645833333C169.16666666666666,113.81206597222223,171.58333333333334,113.79509548611111,174,113.778125C176.41666666666666,113.7611545138889,178.83333333333334,113.74418402777776,181.25,113.72721354166666C183.66666666666666,113.71024305555555,186.08333333333334,113.69327256944445,188.5,113.67630208333334C190.91666666666666,113.65933159722223,193.33333333333334,113.6423611111111,195.75,113.625390625C198.16666666666669,113.60842013888887,200.58333333333334,113.59144965277777,203.00000000000003,113.57447916666666C205.41666666666669,113.55750868055556,207.83333333333331,113.54053819444444,210.24999999999997,113.52356770833333C212.66666666666666,113.50659722222223,215.08333333333331,113.4896267361111,217.5,113.47265625C219.91666666666666,113.4556857638889,222.33333333333334,113.43871527777777,224.75,113.42174479166667C227.16666666666666,113.40477430555556,229.58333333333334,113.38780381944446,232,113.37083333333334C234.41666666666666,113.35386284722222,236.83333333333334,113.3368923611111,239.25,113.31992187499999C241.66666666666669,113.30295138888889,244.08333333333334,113.28598090277778,246.50000000000003,113.26901041666667C248.91666666666669,113.25203993055557,251.33333333333331,113.23506944444443,253.74999999999997,113.21809895833333C256.16666666666663,113.20112847222221,258.5833333333333,113.1841579861111,261,113.1671875C263.4166666666667,113.15021701388889,265.8333333333333,113.13324652777777,268.25,113.11627604166667C270.6666666666667,113.09930555555556,273.0833333333333,113.08233506944444,275.5,113.06536458333333C277.9166666666667,113.04839409722223,280.3333333333333,113.03142361111111,282.75,113.014453125C285.1666666666667,112.9974826388889,287.5833333333333,112.98051215277778,290,112.96354166666667C292.4166666666667,112.94657118055557,294.8333333333333,112.92960069444443,297.25,112.91263020833333C299.6666666666667,112.89565972222222,302.0833333333333,112.87868923611111,304.5,112.86171875000001C306.9166666666667,112.8447482638889,309.3333333333333,112.82777777777778,311.75,112.81080729166666C314.1666666666667,112.79383680555554,316.5833333333333,112.77686631944444,319,112.75989583333333C321.4166666666667,112.74292534722223,323.8333333333333,112.7259548611111,326.25,112.708984375C328.6666666666667,112.6920138888889,331.0833333333333,112.67504340277777,333.5,112.65807291666667C335.9166666666667,112.64110243055556,338.3333333333333,112.62413194444444,340.75,112.60716145833334C343.1666666666667,112.59019097222223,345.5833333333333,112.57322048611113,348,112.55625C350.4166666666667,112.53927951388889,352.8333333333333,112.52230902777777,355.25,112.50533854166666C357.6666666666667,112.48836805555555,360.0833333333333,112.47139756944445,362.5,112.45442708333334C364.9166666666667,112.43745659722224,367.3333333333333,112.4204861111111,369.75,112.403515625C372.1666666666667,112.38654513888889,374.5833333333333,112.36957465277777,377,112.35260416666667C379.4166666666667,112.33563368055556,381.8333333333333,112.31866319444444,384.25,112.30169270833333C386.6666666666667,112.28472222222223,389.0833333333333,112.26775173611111,391.5,112.25078125C393.9166666666667,112.2338107638889,396.33333333333337,112.21684027777778,398.75000000000006,112.19986979166667C401.16666666666674,112.18289930555557,403.58333333333337,112.16592881944446,406.00000000000006,112.14895833333334C408.4166666666667,112.13198784722223,410.8333333333333,112.1150173611111,413.24999999999994,112.098046875C415.66666666666663,112.08107638888889,418.08333333333326,112.06410590277778,420.49999999999994,112.04713541666668C422.91666666666663,112.03016493055557,425.3333333333333,112.01319444444445,427.75,111.99622395833333C430.1666666666667,111.97925347222223,432.5833333333333,111.9622829861111,435,111.9453125C437.4166666666667,111.9283420138889,439.8333333333333,111.91137152777777,442.25,111.89440104166667C444.6666666666667,111.87743055555556,447.0833333333333,111.86046006944444,449.5,111.84348958333334C451.9166666666667,111.82651909722223,454.3333333333333,111.80954861111111,456.75,111.792578125C459.1666666666667,111.7756076388889,461.5833333333333,111.7586371527778,464,111.74166666666667C466.4166666666667,111.72469618055555,468.8333333333333,111.70772569444443,471.25,111.69075520833333C473.6666666666667,111.67378472222222,476.0833333333333,111.65681423611112,478.5,111.63984375000001C480.9166666666667,111.6228732638889,483.33333333333337,111.60590277777779,485.75000000000006,111.58893229166667C488.16666666666674,111.57196180555556,490.58333333333337,111.55499131944444,493.00000000000006,111.53802083333333C495.4166666666667,111.52105034722223,497.8333333333333,111.50407986111111,500.24999999999994,111.487109375C502.66666666666663,111.4701388888889,505.08333333333326,111.45316840277778,507.49999999999994,111.43619791666667C509.91666666666663,111.41922743055555,512.3333333333333,111.40225694444443,514.75,111.38528645833333C517.1666666666666,111.36831597222222,519.5833333333334,111.35134548611111,522,111.33437500000001C524.4166666666666,111.3174045138889,526.8333333333334,111.30043402777778,529.25,111.28346354166666C531.6666666666666,111.26649305555554,534.0833333333334,111.24952256944444,536.5,111.23255208333333C538.9166666666666,111.21558159722223,541.3333333333334,111.1986111111111,543.75,111.181640625C546.1666666666666,111.1646701388889,548.5833333333334,111.14769965277777,551,111.13072916666667C553.4166666666666,111.11375868055556,555.8333333333334,111.09678819444446,558.25,111.07981770833334C560.6666666666666,111.06284722222222,563.0833333333334,111.0458767361111,565.5,111.02890624999999C567.9166666666666,111.01193576388889,570.3333333333334,110.99496527777777,572.75,110.97799479166666C575.1666666666666,110.96102430555555,577.5833333333334,110.94405381944443,580,110.92708333333333C582.4166666666666,110.91011284722222,584.8333333333334,110.8931423611111,587.25,110.876171875C589.6666666666666,110.85920138888889,592.0833333333334,110.84223090277777,594.5,110.82526041666667C596.9166666666666,110.80828993055556,599.3333333333334,110.79131944444444,601.75,110.77434895833333C604.1666666666666,110.75737847222223,606.5833333333334,110.7404079861111,609,110.72343749999999C611.4166666666666,110.70646701388888,613.8333333333334,110.68949652777778,616.25,110.67252604166667C618.6666666666666,110.65555555555557,621.0833333333334,110.63858506944445,623.5,110.62161458333333C625.9166666666666,110.6046440972222,628.3333333333334,110.5876736111111,630.75,110.570703125C633.1666666666666,110.55373263888889,635.5833333333334,110.53676215277777,638,110.51979166666666C640.4166666666666,110.50282118055556,642.8333333333334,110.48585069444444,645.25,110.46888020833333C647.6666666666666,110.45190972222223,650.0833333333334,110.4349392361111,652.5,110.41796875C654.9166666666666,110.4009982638889,657.3333333333334,110.38402777777779,659.75,110.36705729166667C662.1666666666666,110.35008680555555,664.5833333333334,110.33311631944443,667,110.31614583333332C669.4166666666666,110.29917534722222,671.8333333333334,110.28220486111111,674.25,110.265234375C676.6666666666666,110.2482638888889,679.0833333333334,110.23129340277777,681.5,110.21432291666666C683.9166666666666,110.19735243055555,686.3333333333334,110.18038194444443,688.75,110.16341145833333C691.1666666666666,110.14644097222222,693.5833333333334,110.1294704861111,696,110.1125C698.4166666666666,110.09552951388889,700.8333333333334,110.07855902777777,703.25,110.06158854166667C705.6666666666666,110.04461805555556,708.0833333333334,110.02764756944444,710.5,110.01067708333333C712.9166666666666,109.99370659722223,715.3333333333334,109.97673611111111,717.75,109.959765625C720.1666666666666,109.9427951388889,722.5833333333334,109.92582465277776,725,109.90885416666666C727.4166666666666,109.89188368055555,729.8333333333334,109.87491319444445,732.25,109.85794270833334C734.6666666666666,109.84097222222223,737.0833333333334,109.82400173611111,739.5,109.80703125C741.9166666666666,109.79006076388887,744.3333333333334,109.77309027777777,746.75,109.75611979166666C749.1666666666666,109.73914930555556,751.5833333333334,109.72217881944444,754,109.70520833333333C756.4166666666666,109.68823784722223,758.8333333333334,109.6712673611111,761.25,109.654296875C763.6666666666666,109.6373263888889,766.0833333333334,109.62035590277777,768.5,109.60338541666667C770.9166666666666,109.58641493055556,773.3333333333334,109.56944444444446,775.75,109.55247395833334C778.1666666666666,109.53550347222222,780.5833333333334,109.5185329861111,783,109.50156249999999C785.4166666666667,109.48459201388889,787.8333333333334,109.46762152777778,790.2500000000001,109.45065104166667C792.6666666666667,109.43368055555557,795.0833333333335,109.41671006944443,797.5000000000001,109.39973958333333C799.9166666666667,109.38276909722222,802.3333333333335,109.3657986111111,804.7500000000001,109.348828125C807.1666666666667,109.33185763888889,809.5833333333335,109.31488715277777,812.0000000000001,109.29791666666667C814.4166666666667,109.28094618055556,816.8333333333333,109.26397569444444,819.2499999999999,109.24700520833333C821.6666666666665,109.23003472222223,824.0833333333333,109.21306423611111,826.4999999999999,109.19609375C828.9166666666665,109.1791232638889,831.3333333333333,109.16215277777778,833.7499999999999,109.14518229166667C836.1666666666665,109.12821180555557,838.5833333333333,109.11124131944443,840.9999999999999,109.09427083333333C843.4166666666666,109.07730034722222,845.8333333333333,109.06032986111111,848.25,109.04335937500001C850.6666666666666,109.0263888888889,853.0833333333334,109.00941840277778,855.5,108.99244791666666C857.9166666666666,108.97547743055554,860.3333333333334,108.95850694444444,862.75,108.94153645833333C865.1666666666666,108.92456597222223,867.5833333333334,108.9075954861111,870,108.890625C872.4166666666666,108.8736545138889,874.8333333333334,108.85668402777777,877.25,108.83971354166667C879.6666666666666,108.82274305555556,882.0833333333334,108.80577256944444,884.5,108.78880208333334C886.9166666666666,108.77183159722223,889.3333333333334,108.75486111111113,891.75,108.737890625C894.1666666666666,108.72092013888889,896.5833333333334,108.70394965277777,899,108.68697916666666C901.4166666666666,108.67000868055555,903.8333333333334,108.65303819444445,906.25,108.63606770833334C908.6666666666666,108.61909722222224,911.0833333333334,108.6021267361111,913.5,108.58515625C915.9166666666666,108.56818576388889,918.3333333333334,108.55121527777777,920.75,108.53424479166667C923.1666666666666,108.51727430555556,925.5833333333334,108.50030381944444,928,108.48333333333333C930.4166666666666,108.46636284722223,932.8333333333334,108.44939236111111,935.25,108.432421875C937.6666666666666,108.4154513888889,940.0833333333334,108.39848090277778,942.5,108.38151041666667C944.9166666666666,108.36453993055557,947.3333333333334,108.34756944444445,949.75,108.33059895833334C952.1666666666666,108.31362847222223,954.5833333333334,108.2966579861111,957,108.2796875C959.4166666666666,108.26271701388889,961.8333333333334,108.24574652777778,964.25,108.22877604166668C966.6666666666667,108.21180555555557,969.0833333333334,108.19483506944445,971.5000000000001,108.17786458333333C973.9166666666667,108.16089409722223,976.3333333333335,108.1439236111111,978.7500000000001,108.126953125C981.1666666666667,108.1099826388889,983.5833333333335,108.09301215277777,986.0000000000001,108.07604166666667C988.4166666666667,108.05907118055556,990.8333333333335,108.04210069444446,993.2500000000001,108.02513020833334C995.6666666666667,108.00815972222223,998.0833333333333,107.9911892361111,1000.4999999999999,107.97421874999999C1002.9166666666665,107.95724826388889,1005.3333333333333,107.94027777777778,1007.7499999999999,107.92330729166667C1010.1666666666665,107.90633680555557,1012.5833333333333,107.88936631944443,1014.9999999999999,107.87239583333333C1017.4166666666665,107.85542534722222,1019.8333333333333,107.83845486111112,1022.2499999999999,107.82148437500001C1024.6666666666665,107.8045138888889,1027.0833333333333,107.78754340277779,1029.5,107.77057291666667C1031.9166666666667,107.75360243055556,1034.3333333333333,107.73663194444444,1036.75,107.71966145833333C1039.1666666666667,107.70269097222223,1041.5833333333333,107.68572048611111,1044,107.66875C1046.4166666666667,107.6517795138889,1048.8333333333333,107.63480902777778,1051.25,107.61783854166667C1053.6666666666667,107.60086805555557,1056.0833333333333,107.58389756944443,1058.5,107.56692708333333C1060.9166666666667,107.54995659722222,1063.3333333333333,107.53298611111111,1065.75,107.51601562500001C1068.1666666666667,107.4990451388889,1070.5833333333333,107.48207465277778,1073,107.46510416666666C1075.4166666666667,107.44813368055554,1077.8333333333333,107.43116319444444,1080.25,107.41419270833333C1082.6666666666667,107.39722222222223,1085.0833333333333,107.3802517361111,1087.5,107.36328125C1089.9166666666667,107.3463107638889,1092.3333333333333,107.32934027777777,1094.75,107.31236979166667C1097.1666666666667,107.29539930555556,1099.5833333333333,107.27842881944446,1102,107.26145833333334C1104.4166666666667,107.24448784722222,1106.8333333333333,107.2275173611111,1109.25,107.21054687499999C1111.6666666666667,107.19357638888889,1114.0833333333333,107.17660590277778,1116.5,107.15963541666667C1118.9166666666667,107.14266493055557,1121.3333333333333,107.12569444444443,1123.75,107.10872395833333C1126.1666666666667,107.09175347222222,1128.5833333333333,107.0747829861111,1131,107.0578125C1133.4166666666667,107.04084201388889,1135.8333333333333,107.02387152777777,1138.25,107.00690104166667C1140.6666666666667,106.98993055555556,1143.0833333333333,106.97296006944444,1145.5,106.95598958333333C1147.9166666666667,106.93901909722223,1150.3333333333333,106.9220486111111,1152.75,106.90507812499999C1155.1666666666667,106.88810763888888,1157.5833333333333,106.88810763888888,1160,106.85416666666667C1162.4166666666667,106.82022569444446,1164.8333333333333,105.46458333333334,1167.25,104.76979166666666C1169.6666666666667,104.07499999999999,1172.0833333333333,103.38020833333334,1174.5,102.68541666666667C1176.9166666666667,101.990625,1179.3333333333333,101.29583333333332,1181.75,100.60104166666666C1184.1666666666667,99.90625,1186.5833333333333,99.21145833333333,1189,98.51666666666667C1191.4166666666667,97.821875,1193.8333333333333,97.12708333333333,1196.25,96.43229166666666C1198.6666666666667,95.73749999999998,1201.0833333333333,95.04270833333332,1203.5,94.34791666666666C1205.9166666666667,93.653125,1208.3333333333333,92.95833333333333,1210.75,92.26354166666667C1213.1666666666667,91.56875000000001,1215.5833333333333,90.87395833333333,1218,90.17916666666667C1220.4166666666667,89.48437500000001,1222.8333333333333,88.78958333333335,1225.25,88.09479166666668C1227.6666666666667,87.4,1230.0833333333333,86.70520833333335,1232.5,86.01041666666667C1234.9166666666667,85.315625,1237.3333333333333,84.62083333333334,1239.75,83.92604166666666C1242.1666666666667,83.23124999999999,1244.5833333333333,82.53645833333334,1247,81.84166666666667C1249.4166666666667,81.146875,1251.8333333333333,80.45208333333332,1254.25,79.75729166666666C1256.6666666666667,79.0625,1259.0833333333333,78.36770833333333,1261.5,77.67291666666667C1263.9166666666667,76.978125,1266.3333333333333,76.28333333333333,1268.75,75.58854166666666C1271.1666666666667,74.89374999999998,1273.5833333333333,74.19895833333332,1276,73.50416666666666C1278.4166666666667,72.809375,1280.8333333333333,72.11458333333334,1283.25,71.41979166666667C1285.6666666666667,70.725,1288.0833333333333,70.03020833333332,1290.5,69.33541666666666C1292.9166666666667,68.640625,1295.3333333333333,67.94583333333333,1297.75,67.25104166666667C1300.1666666666667,66.55625,1302.5833333333333,65.86145833333333,1305,65.16666666666667C1307.4166666666667,64.47187500000001,1309.8333333333333,63.77708333333334,1312.25,63.08229166666667C1314.6666666666667,62.3875,1317.0833333333333,61.69270833333333,1319.5,60.99791666666666C1321.9166666666667,60.303124999999994,1324.3333333333333,59.60833333333332,1326.75,58.91354166666666C1329.1666666666667,58.21875,1331.5833333333333,57.52395833333335,1334,56.82916666666668C1336.4166666666667,56.13437500000001,1338.8333333333333,55.43958333333334,1341.25,54.74479166666667C1343.6666666666667,54.050000000000004,1346.0833333333333,53.35520833333333,1348.5,52.66041666666666C1350.9166666666667,51.965624999999996,1353.3333333333333,51.270833333333336,1355.75,50.57604166666667C1358.1666666666667,49.88125,1360.5833333333333,49.18645833333334,1363,48.491666666666674C1365.4166666666667,47.79687500000001,1367.8333333333333,47.10208333333333,1370.25,46.407291666666666C1372.6666666666667,45.7125,1375.0833333333333,45.01770833333333,1377.5,44.322916666666664C1379.9166666666667,43.628125,1382.3333333333333,42.93333333333334,1384.75,42.23854166666667C1387.1666666666667,41.54375,1389.5833333333333,40.84895833333333,1392,40.15416666666666C1394.4166666666667,39.459374999999994,1396.8333333333333,38.76458333333335,1399.25,38.06979166666668C1401.6666666666667,37.375000000000014,1404.0833333333333,36.680208333333326,1406.5,35.98541666666666C1408.9166666666667,35.29062499999999,1411.3333333333333,34.59583333333333,1413.75,33.901041666666664C1416.1666666666667,33.20625,1418.5833333333333,32.511458333333344,1421,31.816666666666674C1423.4166666666667,31.121875000000006,1425.8333333333333,30.42708333333332,1428.25,29.732291666666654C1430.6666666666667,29.037499999999987,1433.0833333333333,28.342708333333338,1435.5,27.647916666666674C1437.9166666666667,26.95312500000001,1440.3333333333333,26.258333333333333,1442.75,25.563541666666666C1445.1666666666667,24.86875,1447.5833333333333,24.173958333333335,1450,23.47916666666667" fill="transparent" stroke-linecap="round" stroke="#B6509E" stroke-width="2"></path><path class="visx-linepath" d="M0,105.89583333323151C2.4166666666666665,105.87886284716282,4.833333333333334,105.86189236109414,7.25,105.844921875C9.666666666666666,105.82795138890586,12.083333333333334,105.81098090277777,14.5,105.79401041666667C16.916666666666668,105.77703993055556,19.333333333333332,105.76006944444443,21.75,105.74309895833332C24.166666666666668,105.72612847222221,26.583333333333332,105.70915798611111,29,105.6921875C31.416666666666668,105.6752170138889,33.833333333333336,105.65824652777776,36.25,105.64127604166666C38.666666666666664,105.62430555555555,41.083333333333336,105.60733506944445,43.5,105.59036458333334C45.91666666666667,105.57339409722223,48.333333333333336,105.55642361111111,50.75000000000001,105.539453125C53.16666666666667,105.52248263888889,55.583333333333336,105.50551215277777,58,105.48854166666666C60.416666666666664,105.47157118055556,62.833333333333336,105.45460069444444,65.25,105.43763020833333C67.66666666666667,105.42065972222223,70.08333333333333,105.4036892361111,72.5,105.38671875C74.91666666666667,105.3697482638889,77.33333333333333,105.35277777777777,79.75,105.33580729166667C82.16666666666667,105.31883680555556,84.58333333333333,105.30186631944446,87,105.28489583333334C89.41666666666667,105.26792534722222,91.83333333333333,105.2509548611111,94.25,105.23398437499999C96.66666666666667,105.21701388888889,99.08333333333334,105.20004340277778,101.50000000000001,105.18307291666667C103.91666666666667,105.16610243055557,106.33333333333334,105.14913194444443,108.75,105.13216145833333C111.16666666666667,105.11519097222222,113.58333333333333,105.09822048611112,116,105.08125000000001C118.41666666666667,105.0642795138889,120.83333333333334,105.04730902777779,123.25000000000001,105.03033854166667C125.66666666666667,105.01336805555556,128.08333333333334,104.99639756944444,130.5,104.97942708333333C132.91666666666666,104.96245659722221,135.33333333333334,104.9454861111111,137.75,104.92851562499999C140.16666666666666,104.91154513888888,142.58333333333334,104.89457465277778,145,104.87760416666667C147.41666666666666,104.86063368055557,149.83333333333334,104.84366319444443,152.25,104.82669270833333C154.66666666666666,104.80972222222222,157.08333333333334,104.79275173611111,159.5,104.77578125000001C161.91666666666666,104.7588107638889,164.33333333333334,104.74184027777778,166.75,104.72486979166666C169.16666666666666,104.70789930555554,171.58333333333334,104.69092881944444,174,104.67395833333333C176.41666666666666,104.65698784722223,178.83333333333334,104.6400173611111,181.25,104.623046875C183.66666666666666,104.6060763888889,186.08333333333334,104.58910590277777,188.5,104.57213541666667C190.91666666666666,104.55516493055556,193.33333333333334,104.53819444444444,195.75,104.52122395833334C198.16666666666669,104.50425347222223,200.58333333333334,104.48728298611113,203.00000000000003,104.4703125C205.41666666666669,104.4533420138889,207.83333333333331,104.43637152777777,210.24999999999997,104.41940104166666C212.66666666666666,104.40243055555555,215.08333333333331,104.38546006944445,217.5,104.36848958333334C219.91666666666666,104.35151909722224,222.33333333333334,104.3345486111111,224.75,104.317578125C227.16666666666666,104.30060763888889,229.58333333333334,104.28363715277777,232,104.26666666666667C234.41666666666666,104.24969618055556,236.83333333333334,104.23272569444444,239.25,104.21575520833333C241.66666666666669,104.19878472222223,244.08333333333334,104.18181423611112,246.50000000000003,104.16484375C248.91666666666669,104.1478732638889,251.33333333333331,104.13090277777776,253.74999999999997,104.11393229166666C256.16666666666663,104.09696180555555,258.5833333333333,104.07999131944445,261,104.06302083333334C263.4166666666667,104.04605034722223,265.8333333333333,104.0290798611111,268.25,104.012109375C270.6666666666667,103.99513888888889,273.0833333333333,103.97816840277778,275.5,103.96119791666668C277.9166666666667,103.94422743055557,280.3333333333333,103.92725694444445,282.75,103.91028645833333C285.1666666666667,103.89331597222221,287.5833333333333,103.8763454861111,290,103.859375C292.4166666666667,103.8424045138889,294.8333333333333,103.82543402777777,297.25,103.80846354166667C299.6666666666667,103.79149305555556,302.0833333333333,103.77452256944444,304.5,103.75755208333334C306.9166666666667,103.74058159722223,309.3333333333333,103.72361111111111,311.75,103.706640625C314.1666666666667,103.6896701388889,316.5833333333333,103.6726996527778,319,103.65572916666667C321.4166666666667,103.63875868055555,323.8333333333333,103.62178819444443,326.25,103.60481770833333C328.6666666666667,103.58784722222222,331.0833333333333,103.57087673611112,333.5,103.55390625000001C335.9166666666667,103.5369357638889,338.3333333333333,103.51996527777777,340.75,103.50299479166667C343.1666666666667,103.48602430555556,345.5833333333333,103.46905381944444,348,103.45208333333333C350.4166666666667,103.43511284722223,352.8333333333333,103.41814236111111,355.25,103.401171875C357.6666666666667,103.3842013888889,360.0833333333333,103.36723090277778,362.5,103.35026041666667C364.9166666666667,103.33328993055557,367.3333333333333,103.31631944444443,369.75,103.29934895833333C372.1666666666667,103.28237847222222,374.5833333333333,103.26540798611111,377,103.24843750000001C379.4166666666667,103.2314670138889,381.8333333333333,103.21449652777778,384.25,103.19752604166666C386.6666666666667,103.18055555555554,389.0833333333333,103.16358506944444,391.5,103.14661458333333C393.9166666666667,103.12964409722223,396.33333333333337,103.1126736111111,398.75000000000006,103.095703125C401.16666666666674,103.0787326388889,403.58333333333337,103.06176215277777,406.00000000000006,103.04479166666667C408.4166666666667,103.02782118055556,410.8333333333333,103.01085069444444,413.24999999999994,102.99388020833334C415.66666666666663,102.97690972222222,418.08333333333326,102.9599392361111,420.49999999999994,102.94296874999999C422.91666666666663,102.92599826388889,425.3333333333333,102.90902777777778,427.75,102.89205729166667C430.1666666666667,102.87508680555557,432.5833333333333,102.85811631944443,435,102.84114583333333C437.4166666666667,102.82417534722222,439.8333333333333,102.8072048611111,442.25,102.790234375C444.6666666666667,102.77326388888889,447.0833333333333,102.75629340277777,449.5,102.73932291666667C451.9166666666667,102.72235243055556,454.3333333333333,102.70538194444444,456.75,102.68841145833333C459.1666666666667,102.67144097222223,461.5833333333333,102.6544704861111,464,102.63749999999999C466.4166666666667,102.62052951388888,468.8333333333333,102.60355902777778,471.25,102.58658854166667C473.6666666666667,102.56961805555557,476.0833333333333,102.55264756944443,478.5,102.53567708333333C480.9166666666667,102.5187065972222,483.33333333333337,102.5017361111111,485.75000000000006,102.484765625C488.16666666666674,102.46779513888889,490.58333333333337,102.45082465277777,493.00000000000006,102.43385416666666C495.4166666666667,102.41688368055556,497.8333333333333,102.39991319444444,500.24999999999994,102.38294270833333C502.66666666666663,102.36597222222223,505.08333333333326,102.3490017361111,507.49999999999994,102.33203125C509.91666666666663,102.3150607638889,512.3333333333333,102.29809027777779,514.75,102.28111979166667C517.1666666666666,102.26414930555556,519.5833333333334,102.24717881944443,522,102.23020833333332C524.4166666666666,102.21323784722222,526.8333333333334,102.19626736111111,529.25,102.179296875C531.6666666666666,102.1623263888889,534.0833333333334,102.14535590277777,536.5,102.12838541666666C538.9166666666666,102.11141493055555,541.3333333333334,102.09444444444443,543.75,102.07747395833333C546.1666666666666,102.06050347222222,548.5833333333334,102.0435329861111,551,102.0265625C553.4166666666666,102.00959201388889,555.8333333333334,101.99262152777777,558.25,101.97565104166667C560.6666666666666,101.95868055555556,563.0833333333334,101.94171006944444,565.5,101.92473958333333C567.9166666666666,101.90776909722223,570.3333333333334,101.89079861111111,572.75,101.873828125C575.1666666666666,101.8568576388889,577.5833333333334,101.83988715277776,580,101.82291666666666C582.4166666666666,101.80594618055555,584.8333333333334,101.78897569444445,587.25,101.77200520833334C589.6666666666666,101.75503472222223,592.0833333333334,101.73806423611111,594.5,101.72109375C596.9166666666666,101.70412326388887,599.3333333333334,101.68715277777777,601.75,101.67018229166666C604.1666666666666,101.65321180555556,606.5833333333334,101.63624131944444,609,101.61927083333333C611.4166666666666,101.60230034722223,613.8333333333334,101.5853298611111,616.25,101.568359375C618.6666666666666,101.5513888888889,621.0833333333334,101.53441840277777,623.5,101.51744791666667C625.9166666666666,101.50047743055556,628.3333333333334,101.48350694444446,630.75,101.46653645833334C633.1666666666666,101.44956597222222,635.5833333333334,101.4325954861111,638,101.41562499999999C640.4166666666666,101.39865451388889,642.8333333333334,101.38168402777778,645.25,101.36471354166667C647.6666666666666,101.34774305555557,650.0833333333334,101.33077256944443,652.5,101.31380208333333C654.9166666666666,101.29683159722222,657.3333333333334,101.27986111111112,659.75,101.26289062500001C662.1666666666666,101.2459201388889,664.5833333333334,101.22894965277777,667,101.21197916666667C669.4166666666666,101.19500868055556,671.8333333333334,101.17803819444444,674.25,101.16106770833333C676.6666666666666,101.14409722222223,679.0833333333334,101.1271267361111,681.5,101.11015624999999C683.9166666666666,101.09318576388888,686.3333333333334,101.07621527777778,688.75,101.05924479166667C691.1666666666666,101.04227430555557,693.5833333333334,101.02530381944443,696,101.00833333333333C698.4166666666666,100.99136284722222,700.8333333333334,100.97439236111111,703.25,100.95742187500001C705.6666666666666,100.9404513888889,708.0833333333334,100.92348090277778,710.5,100.90651041666666C712.9166666666666,100.88953993055554,715.3333333333334,100.87256944444444,717.75,100.85559895833333C720.1666666666666,100.83862847222223,722.5833333333334,100.8216579861111,725,100.8046875C727.4166666666666,100.7877170138889,729.8333333333334,100.77074652777777,732.25,100.75377604166667C734.6666666666666,100.73680555555556,737.0833333333334,100.71983506944444,739.5,100.70286458333334C741.9166666666666,100.68589409722223,744.3333333333334,100.66892361111113,746.75,100.651953125C749.1666666666666,100.63498263888889,751.5833333333334,100.61801215277777,754,100.60104166666666C756.4166666666666,100.58407118055555,758.8333333333334,100.56710069444445,761.25,100.55013020833334C763.6666666666666,100.53315972222224,766.0833333333334,100.5161892361111,768.5,100.49921875C770.9166666666666,100.48224826388889,773.3333333333334,100.46527777777779,775.75,100.44830729166668C778.1666666666666,100.43133680555557,780.5833333333334,100.41436631944444,783,100.39739583333333C785.4166666666667,100.38042534722221,787.8333333333334,100.36345486111112,790.2500000000001,100.346484375C792.6666666666667,100.3295138888889,795.0833333333335,100.31254340277776,797.5000000000001,100.29557291666666C799.9166666666667,100.27860243055555,802.3333333333335,100.26163194444445,804.7500000000001,100.24466145833334C807.1666666666667,100.22769097222223,809.5833333333335,100.2107204861111,812.0000000000001,100.19375C814.4166666666667,100.17677951388889,816.8333333333333,100.15980902777778,819.2499999999999,100.14283854166668C821.6666666666665,100.12586805555557,824.0833333333333,100.10889756944445,826.4999999999999,100.09192708333333C828.9166666666665,100.07495659722221,831.3333333333333,100.0579861111111,833.7499999999999,100.041015625C836.1666666666665,100.0240451388889,838.5833333333333,100.00707465277777,840.9999999999999,99.99010416666667C843.4166666666666,99.97313368055556,845.8333333333333,99.95616319444444,848.25,99.93919270833334C850.6666666666666,99.92222222222223,853.0833333333334,99.90525173611111,855.5,99.88828125C857.9166666666666,99.8713107638889,860.3333333333334,99.8543402777778,862.75,99.83736979166667C865.1666666666666,99.82039930555555,867.5833333333334,99.80342881944443,870,99.78645833333333C872.4166666666666,99.76948784722222,874.8333333333334,99.7525173611111,877.25,99.735546875C879.6666666666666,99.71857638888889,882.0833333333334,99.70160590277777,884.5,99.68463541666667C886.9166666666666,99.66766493055556,889.3333333333334,99.65069444444444,891.75,99.63372395833333C894.1666666666666,99.61675347222223,896.5833333333334,99.59978298611111,899,99.5828125C901.4166666666666,99.5658420138889,903.8333333333334,99.54887152777778,906.25,99.53190104166667C908.6666666666666,99.51493055555557,911.0833333333334,99.49796006944443,913.5,99.48098958333333C915.9166666666666,99.46401909722222,918.3333333333334,99.44704861111111,920.75,99.43007812500001C923.1666666666666,99.4131076388889,925.5833333333334,99.39613715277778,928,99.37916666666666C930.4166666666666,99.36219618055554,932.8333333333334,99.34522569444444,935.25,99.32825520833333C937.6666666666666,99.31128472222223,940.0833333333334,99.2943142361111,942.5,99.27734375C944.9166666666666,99.2603732638889,947.3333333333334,99.24340277777777,949.75,99.22643229166667C952.1666666666666,99.20946180555556,954.5833333333334,99.19249131944446,957,99.17552083333334C959.4166666666666,99.15855034722222,961.8333333333334,99.1415798611111,964.25,99.12460937499999C966.6666666666667,99.10763888888889,969.0833333333334,99.09066840277778,971.5000000000001,99.07369791666667C973.9166666666667,99.05672743055557,976.3333333333335,99.03975694444443,978.7500000000001,99.02278645833333C981.1666666666667,99.00581597222222,983.5833333333335,98.9888454861111,986.0000000000001,98.971875C988.4166666666667,98.95490451388889,990.8333333333335,98.93793402777777,993.2500000000001,98.92096354166667C995.6666666666667,98.90399305555556,998.0833333333333,98.88702256944444,1000.4999999999999,98.87005208333333C1002.9166666666665,98.85308159722223,1005.3333333333333,98.83611111111111,1007.7499999999999,98.819140625C1010.1666666666665,98.8021701388889,1012.5833333333333,98.78519965277778,1014.9999999999999,98.76822916666667C1017.4166666666665,98.75125868055557,1019.8333333333333,98.73428819444443,1022.2499999999999,98.71731770833333C1024.6666666666665,98.7003472222222,1027.0833333333333,98.6833767361111,1029.5,98.66640625C1031.9166666666667,98.64943576388889,1034.3333333333333,98.63246527777777,1036.75,98.61549479166666C1039.1666666666667,98.59852430555556,1041.5833333333333,98.58155381944444,1044,98.56458333333333C1046.4166666666667,98.54761284722223,1048.8333333333333,98.5306423611111,1051.25,98.513671875C1053.6666666666667,98.4967013888889,1056.0833333333333,98.47973090277779,1058.5,98.46276041666667C1060.9166666666667,98.44578993055555,1063.3333333333333,98.42881944444443,1065.75,98.41184895833332C1068.1666666666667,98.39487847222222,1070.5833333333333,98.37790798611111,1073,98.3609375C1075.4166666666667,98.3439670138889,1077.8333333333333,98.32699652777777,1080.25,98.31002604166666C1082.6666666666667,98.29305555555555,1085.0833333333333,98.27608506944445,1087.5,98.25911458333334C1089.9166666666667,98.24214409722224,1092.3333333333333,98.2251736111111,1094.75,98.208203125C1097.1666666666667,98.19123263888889,1099.5833333333333,98.17426215277777,1102,98.15729166666667C1104.4166666666667,98.14032118055556,1106.8333333333333,98.12335069444443,1109.25,98.10638020833332C1111.6666666666667,98.08940972222221,1114.0833333333333,98.07243923611111,1116.5,98.05546875C1118.9166666666667,98.0384982638889,1121.3333333333333,98.02152777777776,1123.75,98.00455729166666C1126.1666666666667,97.98758680555555,1128.5833333333333,97.97061631944445,1131,97.95364583333334C1133.4166666666667,97.93667534722223,1135.8333333333333,97.91970486111111,1138.25,97.902734375C1140.6666666666667,97.88576388888887,1143.0833333333333,97.86879340277777,1145.5,97.85182291666666C1147.9166666666667,97.83485243055556,1150.3333333333333,97.81788194444444,1152.75,97.80091145833333C1155.1666666666667,97.78394097222223,1157.5833333333333,97.78394097222223,1160,97.75C1162.4166666666667,97.71605902777777,1164.8333333333333,96.36041666666668,1167.25,95.665625C1169.6666666666667,94.97083333333333,1172.0833333333333,94.27604166666666,1174.5,93.58125C1176.9166666666667,92.88645833333334,1179.3333333333333,92.19166666666666,1181.75,91.496875C1184.1666666666667,90.80208333333334,1186.5833333333333,90.10729166666667,1189,89.4125C1191.4166666666667,88.71770833333332,1193.8333333333333,88.02291666666667,1196.25,87.328125C1198.6666666666667,86.63333333333333,1201.0833333333333,85.93854166666665,1203.5,85.24374999999999C1205.9166666666667,84.54895833333333,1208.3333333333333,83.85416666666666,1210.75,83.159375C1213.1666666666667,82.46458333333334,1215.5833333333333,81.76979166666666,1218,81.075C1220.4166666666667,80.38020833333334,1222.8333333333333,79.68541666666667,1225.25,78.99062500000001C1227.6666666666667,78.29583333333335,1230.0833333333333,77.60104166666667,1232.5,76.90625C1234.9166666666667,76.21145833333333,1237.3333333333333,75.51666666666667,1239.75,74.821875C1242.1666666666667,74.12708333333335,1244.5833333333333,73.43229166666669,1247,72.73750000000001C1249.4166666666667,72.04270833333334,1251.8333333333333,71.34791666666666,1254.25,70.653125C1256.6666666666667,69.95833333333334,1259.0833333333333,69.26354166666667,1261.5,68.56875000000001C1263.9166666666667,67.87395833333335,1266.3333333333333,67.17916666666667,1268.75,66.484375C1271.1666666666667,65.78958333333333,1273.5833333333333,65.09479166666665,1276,64.39999999999999C1278.4166666666667,63.705208333333324,1280.8333333333333,63.01041666666668,1283.25,62.31562500000001C1285.6666666666667,61.620833333333344,1288.0833333333333,60.92604166666666,1290.5,60.231249999999996C1292.9166666666667,59.53645833333333,1295.3333333333333,58.84166666666667,1297.75,58.146875C1300.1666666666667,57.452083333333334,1302.5833333333333,56.757291666666674,1305,56.06250000000001C1307.4166666666667,55.36770833333334,1309.8333333333333,54.672916666666666,1312.25,53.978125C1314.6666666666667,53.28333333333333,1317.0833333333333,52.58854166666667,1319.5,51.893750000000004C1321.9166666666667,51.19895833333334,1324.3333333333333,50.50416666666666,1326.75,49.809374999999996C1329.1666666666667,49.11458333333333,1331.5833333333333,48.41979166666668,1334,47.725000000000016C1336.4166666666667,47.03020833333335,1338.8333333333333,46.33541666666667,1341.25,45.640625C1343.6666666666667,44.94583333333333,1346.0833333333333,44.25104166666666,1348.5,43.55624999999999C1350.9166666666667,42.861458333333324,1353.3333333333333,42.16666666666668,1355.75,41.47187500000001C1358.1666666666667,40.777083333333344,1360.5833333333333,40.082291666666656,1363,39.38749999999999C1365.4166666666667,38.69270833333332,1367.8333333333333,37.99791666666666,1370.25,37.303124999999994C1372.6666666666667,36.60833333333333,1375.0833333333333,35.91354166666667,1377.5,35.21875C1379.9166666666667,34.52395833333333,1382.3333333333333,33.82916666666667,1384.75,33.134375000000006C1387.1666666666667,32.43958333333334,1389.5833333333333,31.744791666666668,1392,31.05C1394.4166666666667,30.355208333333334,1396.8333333333333,29.660416666666663,1399.25,28.965624999999996C1401.6666666666667,28.27083333333333,1404.0833333333333,27.57604166666667,1406.5,26.88125C1408.9166666666667,26.186458333333334,1411.3333333333333,25.491666666666664,1413.75,24.796874999999996C1416.1666666666667,24.10208333333333,1418.5833333333333,23.407291666666666,1421,22.712500000000002C1423.4166666666667,22.01770833333334,1425.8333333333333,21.32291666666667,1428.25,20.628125000000008C1430.6666666666667,19.933333333333344,1433.0833333333333,19.238541666666684,1435.5,18.543750000000014C1437.9166666666667,17.848958333333343,1440.3333333333333,17.154166666666647,1442.75,16.45937499999998C1445.1666666666667,15.764583333333311,1447.5833333333333,15.069791666666656,1450,14.375" fill="transparent" stroke-linecap="round" stroke="#E7C6DF" stroke-width="2"></path><g class="visx-group visx-axis visx-axis-bottom" transform="translate(0, 115)"><g class="visx-group visx-axis-tick" transform="translate(0, 0)"><line class="visx-line" x1="0" y1="0" x2="0" y2="8" fill="transparent" shape-rendering="crispEdges" stroke="#000" stroke-width="0" stroke-linecap="square"></line><svg x="0" y="0" font-size="10" style="overflow:visible"><text transform="" x="0" y="18" fill="#000" font-size="10" text-anchor="middle"><tspan x="0" dy="0em">0%</tspan></text></svg></g><g class="visx-group visx-axis-tick" transform="translate(0, 0)"><line class="visx-line" x1="362.5" y1="0" x2="362.5" y2="8" fill="transparent" shape-rendering="crispEdges" stroke="#000" stroke-width="0" stroke-linecap="square"></line><svg x="0" y="0" font-size="10" style="overflow:visible"><text transform="" x="362.5" y="18" fill="#000" font-size="10" text-anchor="middle"><tspan x="362.5" dy="0em">25%</tspan></text></svg></g><g class="visx-group visx-axis-tick" transform="translate(0, 0)"><line class="visx-line" x1="725" y1="0" x2="725" y2="8" fill="transparent" shape-rendering="crispEdges" stroke="#000" stroke-width="0" stroke-linecap="square"></line><svg x="0" y="0" font-size="10" style="overflow:visible"><text transform="" x="725" y="18" fill="#000" font-size="10" text-anchor="middle"><tspan x="725" dy="0em">50%</tspan></text></svg></g><g class="visx-group visx-axis-tick" transform="translate(0, 0)"><line class="visx-line" x1="1087.5" y1="0" x2="1087.5" y2="8" fill="transparent" shape-rendering="crispEdges" stroke="#000" stroke-width="0" stroke-linecap="square"></line><svg x="0" y="0" font-size="10" style="overflow:visible"><text transform="" x="1087.5" y="18" fill="#000" font-size="10" text-anchor="middle"><tspan x="1087.5" dy="0em">75%</tspan></text></svg></g><g class="visx-group visx-axis-tick" transform="translate(0, 0)"><line class="visx-line" x1="1450" y1="0" x2="1450" y2="8" fill="transparent" shape-rendering="crispEdges" stroke="#000" stroke-width="0" stroke-linecap="square"></line><svg x="0" y="0" font-size="10" style="overflow:visible"><text transform="" x="1450" y="18" fill="#000" font-size="10" text-anchor="middle"><tspan x="1450" dy="0em">100%</tspan></text></svg></g><line class="visx-line visx-axis-line" x1="0.5" y1="0" x2="1450.5" y2="0" fill="transparent" shape-rendering="crispEdges" stroke="#222" stroke-width="0"></line></g><g class="visx-group visx-axis visx-axis-left" transform="translate(0, 0)"><g class="visx-group visx-axis-tick" transform="translate(0, 0)"><line class="visx-line" x1="0" y1="115" x2="-8" y2="115" fill="transparent" shape-rendering="crispEdges" stroke="#222" stroke-width="0" stroke-linecap="square"></line><svg x="-30" y="0" font-size="8" style="overflow:visible"><text transform="" x="-8" y="115" fill="#000" font-size="8" text-anchor="start"><tspan x="-8" dy="0em">0%</tspan></text></svg></g><g class="visx-group visx-axis-tick" transform="translate(0, 0)"><line class="visx-line" x1="0" y1="67.08333333333333" x2="-8" y2="67.08333333333333" fill="transparent" shape-rendering="crispEdges" stroke="#222" stroke-width="0" stroke-linecap="square"></line><svg x="-30" y="0" font-size="8" style="overflow:visible"><text transform="" x="-8" y="67.08333333333333" fill="#000" font-size="8" text-anchor="start"><tspan x="-8" dy="0em">50%</tspan></text></svg></g><g class="visx-group visx-axis-tick" transform="translate(0, 0)"><line class="visx-line" x1="0" y1="19.16666666666666" x2="-8" y2="19.16666666666666" fill="transparent" shape-rendering="crispEdges" stroke="#222" stroke-width="0" stroke-linecap="square"></line><svg x="-30" y="0" font-size="8" style="overflow:visible"><text transform="" x="-8" y="19.16666666666666" fill="#000" font-size="8" text-anchor="start"><tspan x="-8" dy="0em">100%</tspan></text></svg></g><line class="visx-line visx-axis-line" x1="0" y1="115.5" x2="0" y2="0.5" fill="transparent" shape-rendering="crispEdges" stroke="#222" stroke-width="0"></line></g><rect class="visx-bar" width="1450" height="115" fill="transparent"></rect><line class="visx-line" x1="1160" y1="28" x2="1160" y2="115" fill="transparent" shape-rendering="crispEdges" stroke="#0062D2" stroke-width="1" pointer-events="none" stroke-dasharray="5,2"></line><svg x="0" y="0" font-size="10px" style="overflow:visible"><text transform="" x="1160" y="20" font-size="10px" fill="#fff" stroke="#fff" stroke-width="0.8em" text-anchor="middle"><tspan x="1160" dy="0.355em">Optimal 80%</tspan></text></svg><svg x="0" y="0" font-size="10px" style="overflow:visible"><text transform="" x="1160" y="20" font-size="10px" fill="#62677B" text-anchor="middle"><tspan x="1160" dy="0.355em">Optimal 80%</tspan></text></svg></g></svg>