<?xml version="1.0"?><svg xmlns="http://www.w3.org/2000/svg" xmlns:xlink= "http://www.w3.org/1999/xlink" style="background: white;" width="1500" height="300"> <g style="color: black; font-size: 13px; font-family: sans-serif; transform: translate(18px, 25px);"><g><circle r="3" cx="-6" cy="-5" style="fill: #1AD4B3" /><text>Borrow APR, variable</text></g><g style="transform: translateX(150px);"><circle r="3" cx="-6" cy="-5" style="fill: #101423" /><text>Borrow APR, stable</text></g></g><g class="visx-group" transform="translate(45, 50)"><g class="visx-group visx-rows" transform="translate(0, 0)"><line class="visx-line" x1="0" y1="155" x2="1425" y2="155" fill="transparent" shape-rendering="crispEdges" stroke="#F2F0F9" stroke-width="1" pointer-events="none"></line><line class="visx-line" x1="0" y1="77.5" x2="1425" y2="77.5" fill="transparent" shape-rendering="crispEdges" stroke="#F2F0F9" stroke-width="1" pointer-events="none"></line><line class="visx-line" x1="0" y1="0" x2="1425" y2="0" fill="transparent" shape-rendering="crispEdges" stroke="#F2F0F9" stroke-width="1" pointer-events="none"></line></g><path class="visx-linepath" d="M0,154.99999999984502C2.375,154.97416666657625,4.75,154.94833333330752,7.125,154.9225C9.5,154.8966666666925,11.875,154.87083333333334,14.25,154.845C16.625,154.81916666666666,19,154.79333333333335,21.375,154.7675C23.75,154.74166666666667,26.125,154.71583333333334,28.5,154.69C30.875,154.66416666666666,33.25,154.63833333333335,35.625,154.6125C38,154.58666666666667,40.375,154.56083333333333,42.75,154.535C45.125,154.50916666666666,47.50000000000001,154.48333333333335,49.87500000000001,154.4575C52.25000000000001,154.43166666666667,54.625,154.40583333333333,57,154.38C59.375,154.35416666666666,61.75,154.32833333333335,64.125,154.3025C66.5,154.27666666666667,68.875,154.25083333333333,71.25,154.225C73.625,154.19916666666666,76,154.17333333333335,78.375,154.1475C80.75,154.12166666666667,83.125,154.09583333333333,85.5,154.07C87.875,154.04416666666665,90.25,154.01833333333335,92.625,153.9925C95,153.96666666666667,97.37500000000001,153.94083333333333,99.75000000000001,153.915C102.12500000000001,153.88916666666665,104.5,153.86333333333334,106.875,153.8375C109.25,153.81166666666667,111.625,153.78583333333333,114,153.76C116.375,153.73416666666665,118.75000000000001,153.70833333333334,121.12500000000001,153.6825C123.50000000000001,153.65666666666667,125.875,153.63083333333333,128.25,153.605C130.625,153.57916666666665,133,153.55333333333334,135.375,153.5275C137.75,153.50166666666667,140.125,153.47583333333333,142.5,153.45C144.875,153.42416666666665,147.25,153.39833333333334,149.625,153.3725C152,153.34666666666666,154.375,153.32083333333333,156.75,153.295C159.125,153.26916666666665,161.5,153.24333333333334,163.875,153.2175C166.25,153.19166666666666,168.625,153.16583333333332,171,153.14C173.375,153.11416666666665,175.75,153.08833333333334,178.125,153.0625C180.5,153.03666666666666,182.875,153.01083333333332,185.25,152.98499999999999C187.625,152.95916666666665,190,152.93333333333334,192.375,152.9075C194.75,152.88166666666666,197.12500000000003,152.85583333333332,199.50000000000003,152.82999999999998C201.875,152.80416666666665,204.25,152.77833333333334,206.62499999999997,152.7525C208.99999999999997,152.72666666666666,211.375,152.70083333333335,213.75,152.675C216.125,152.64916666666667,218.5,152.62333333333333,220.875,152.5975C223.25,152.57166666666666,225.625,152.54583333333335,228,152.52C230.375,152.49416666666667,232.75,152.46833333333333,235.125,152.4425C237.5,152.41666666666666,239.87500000000003,152.39083333333335,242.25000000000003,152.365C244.625,152.33916666666667,247,152.31333333333333,249.37499999999997,152.2875C251.74999999999997,152.26166666666666,254.125,152.23583333333335,256.5,152.21C258.875,152.18416666666667,261.25,152.15833333333333,263.625,152.1325C266,152.10666666666665,268.375,152.08083333333335,270.75,152.055C273.125,152.02916666666667,275.5,152.00333333333333,277.875,151.9775C280.25,151.95166666666665,282.625,151.92583333333334,285,151.9C287.375,151.87416666666667,289.75,151.84833333333336,292.125,151.82250000000002C294.5,151.79666666666668,296.875,151.77083333333334,299.25,151.745C301.625,151.71916666666667,304,151.69333333333336,306.375,151.66750000000002C308.75,151.64166666666668,311.125,151.61583333333334,313.5,151.59C315.875,151.56416666666667,318.25,151.53833333333336,320.625,151.51250000000002C323,151.48666666666668,325.375,151.46083333333334,327.75,151.435C330.125,151.40916666666666,332.5,151.38333333333335,334.875,151.35750000000002C337.25,151.33166666666668,339.625,151.30583333333334,342,151.28C344.375,151.25416666666666,346.75,151.22833333333335,349.125,151.20250000000001C351.5,151.17666666666668,353.875,151.15083333333334,356.25,151.125C358.625,151.09916666666666,361,151.07333333333335,363.375,151.0475C365.75,151.02166666666668,368.125,150.99583333333334,370.5,150.97C372.875,150.94416666666666,375.25,150.91833333333335,377.625,150.8925C380,150.86666666666667,382.375,150.84083333333334,384.75,150.815C387.125,150.78916666666666,389.50000000000006,150.76333333333335,391.87500000000006,150.7375C394.25000000000006,150.71166666666667,396.62500000000006,150.68583333333333,399.00000000000006,150.66C401.375,150.63416666666666,403.75,150.60833333333335,406.12499999999994,150.5825C408.49999999999994,150.55666666666667,410.87499999999994,150.53083333333333,413.24999999999994,150.505C415.62499999999994,150.47916666666666,418,150.45333333333335,420.375,150.4275C422.75,150.40166666666667,425.125,150.37583333333333,427.5,150.35C429.875,150.32416666666666,432.25,150.29833333333335,434.625,150.2725C437,150.24666666666667,439.375,150.22083333333333,441.75,150.195C444.125,150.16916666666665,446.5,150.14333333333335,448.875,150.1175C451.25,150.09166666666667,453.625,150.06583333333333,456,150.04C458.375,150.01416666666665,460.75,149.98833333333334,463.125,149.9625C465.5,149.93666666666667,467.875,149.91083333333333,470.25,149.885C472.625,149.85916666666665,475.00000000000006,149.83333333333334,477.37500000000006,149.8075C479.75000000000006,149.78166666666667,482.12500000000006,149.75583333333333,484.50000000000006,149.73C486.875,149.70416666666665,489.25,149.67833333333334,491.62499999999994,149.6525C493.99999999999994,149.62666666666667,496.37499999999994,149.60083333333333,498.74999999999994,149.575C501.12499999999994,149.54916666666665,503.5,149.52333333333334,505.875,149.4975C508.25,149.47166666666666,510.625,149.44583333333333,513,149.42C515.375,149.39416666666665,517.75,149.36833333333334,520.125,149.3425C522.5,149.31666666666666,524.875,149.29083333333332,527.25,149.265C529.625,149.23916666666665,532,149.21333333333334,534.375,149.1875C536.75,149.16166666666666,539.125,149.13583333333332,541.5,149.10999999999999C543.875,149.08416666666665,546.25,149.05833333333334,548.625,149.0325C551,149.00666666666666,553.375,148.98083333333332,555.75,148.95499999999998C558.125,148.92916666666665,560.5,148.90333333333334,562.875,148.8775C565.25,148.85166666666666,567.625,148.82583333333332,570,148.79999999999998C572.375,148.77416666666664,574.75,148.74833333333333,577.125,148.7225C579.5,148.69666666666666,581.875,148.67083333333332,584.25,148.64499999999998C586.625,148.61916666666664,589,148.59333333333333,591.375,148.5675C593.75,148.54166666666666,596.125,148.51583333333332,598.5,148.48999999999998C600.875,148.46416666666664,603.25,148.43833333333333,605.625,148.4125C608,148.38666666666666,610.375,148.36083333333335,612.75,148.335C615.125,148.30916666666667,617.5,148.28333333333333,619.875,148.2575C622.25,148.23166666666665,624.625,148.20583333333335,627,148.18C629.375,148.15416666666667,631.75,148.12833333333333,634.125,148.1025C636.5,148.07666666666665,638.875,148.05083333333334,641.25,148.025C643.625,147.99916666666667,646,147.97333333333333,648.375,147.9475C650.75,147.92166666666665,653.125,147.89583333333334,655.5,147.87C657.875,147.84416666666667,660.25,147.81833333333333,662.625,147.7925C665,147.76666666666665,667.375,147.74083333333334,669.75,147.715C672.125,147.68916666666667,674.5,147.66333333333333,676.875,147.6375C679.25,147.61166666666665,681.625,147.58583333333334,684,147.56C686.375,147.53416666666666,688.75,147.50833333333335,691.125,147.48250000000002C693.5,147.45666666666668,695.875,147.43083333333334,698.25,147.405C700.625,147.37916666666666,703,147.35333333333335,705.375,147.32750000000001C707.75,147.30166666666668,710.125,147.27583333333334,712.5,147.25C714.875,147.22416666666666,717.25,147.19833333333335,719.625,147.1725C722,147.14666666666668,724.375,147.12083333333334,726.75,147.095C729.125,147.06916666666666,731.5,147.04333333333335,733.875,147.0175C736.25,146.99166666666667,738.625,146.96583333333334,741,146.94C743.375,146.91416666666666,745.75,146.88833333333335,748.125,146.8625C750.5,146.83666666666667,752.875,146.81083333333333,755.25,146.785C757.625,146.75916666666666,760,146.73333333333335,762.375,146.7075C764.75,146.68166666666667,767.125,146.65583333333333,769.5,146.63C771.875,146.60416666666666,774.2500000000001,146.57833333333335,776.6250000000001,146.5525C779.0000000000001,146.52666666666667,781.3750000000001,146.50083333333333,783.7500000000001,146.475C786.1250000000001,146.44916666666666,788.5000000000001,146.42333333333335,790.8750000000001,146.3975C793.2500000000001,146.37166666666667,795.6250000000001,146.34583333333333,798.0000000000001,146.32C800.375,146.29416666666665,802.75,146.26833333333335,805.1249999999999,146.2425C807.4999999999999,146.21666666666667,809.8749999999999,146.19083333333333,812.2499999999999,146.165C814.6249999999999,146.13916666666665,816.9999999999999,146.11333333333334,819.3749999999999,146.0875C821.7499999999999,146.06166666666667,824.1249999999999,146.03583333333333,826.4999999999999,146.01C828.8749999999999,145.98416666666665,831.25,145.95833333333334,833.625,145.9325C836,145.90666666666667,838.375,145.88083333333336,840.75,145.85500000000002C843.125,145.82916666666668,845.5,145.80333333333334,847.875,145.7775C850.25,145.75166666666667,852.625,145.72583333333333,855,145.7C857.375,145.67416666666665,859.75,145.64833333333334,862.125,145.6225C864.5,145.59666666666666,866.875,145.57083333333335,869.25,145.54500000000002C871.625,145.51916666666668,874,145.49333333333334,876.375,145.4675C878.75,145.44166666666666,881.125,145.41583333333332,883.5,145.39C885.875,145.36416666666665,888.25,145.33833333333334,890.625,145.3125C893,145.28666666666666,895.375,145.26083333333335,897.75,145.235C900.125,145.20916666666668,902.5,145.18333333333334,904.875,145.1575C907.25,145.13166666666666,909.625,145.10583333333332,912,145.07999999999998C914.375,145.05416666666665,916.75,145.02833333333334,919.125,145.0025C921.5,144.97666666666666,923.875,144.95083333333335,926.25,144.925C928.625,144.89916666666667,931,144.87333333333333,933.375,144.8475C935.75,144.82166666666666,938.125,144.79583333333332,940.5,144.76999999999998C942.875,144.74416666666664,945.25,144.71833333333333,947.625,144.6925C950,144.66666666666666,952.3750000000001,144.64083333333335,954.7500000000001,144.615C957.1250000000001,144.58916666666667,959.5000000000001,144.56333333333333,961.8750000000001,144.5375C964.2500000000001,144.51166666666666,966.6250000000001,144.48583333333332,969.0000000000001,144.45999999999998C971.3750000000001,144.43416666666664,973.7500000000001,144.40833333333333,976.1250000000001,144.3825C978.5,144.35666666666665,980.875,144.33083333333335,983.2499999999999,144.305C985.6249999999999,144.27916666666667,987.9999999999999,144.25333333333333,990.3749999999999,144.2275C992.7499999999999,144.20166666666665,995.1249999999999,144.17583333333332,997.4999999999999,144.14999999999998C999.8749999999999,144.12416666666664,1002.2499999999999,144.09833333333333,1004.6249999999999,144.0725C1006.9999999999999,144.04666666666665,1009.375,144.02083333333334,1011.75,143.995C1014.125,143.96916666666667,1016.5,143.94333333333333,1018.875,143.9175C1021.25,143.89166666666665,1023.625,143.86583333333334,1026,143.84C1028.375,143.81416666666667,1030.75,143.78833333333333,1033.125,143.7625C1035.5,143.73666666666665,1037.875,143.71083333333334,1040.25,143.685C1042.625,143.65916666666666,1045,143.63333333333333,1047.375,143.6075C1049.75,143.58166666666665,1052.125,143.55583333333334,1054.5,143.53C1056.875,143.50416666666666,1059.25,143.47833333333332,1061.625,143.4525C1064,143.42666666666665,1066.375,143.40083333333334,1068.75,143.375C1071.125,143.34916666666666,1073.5,143.32333333333332,1075.875,143.29749999999999C1078.25,143.27166666666665,1080.625,143.24583333333334,1083,143.22C1085.375,143.19416666666666,1087.75,143.16833333333332,1090.125,143.14249999999998C1092.5,143.11666666666665,1094.875,143.09083333333334,1097.25,143.065C1099.625,143.03916666666666,1102,143.01333333333335,1104.375,142.9875C1106.75,142.96166666666667,1109.125,142.93583333333333,1111.5,142.91C1113.875,142.88416666666666,1116.25,142.85833333333335,1118.625,142.8325C1121,142.80666666666667,1123.375,142.78083333333333,1125.75,142.755C1128.125,142.72916666666666,1130.5,142.70333333333335,1132.875,142.6775C1135.25,142.65166666666667,1137.625,142.62583333333333,1140,142.6C1142.375,142.57416666666666,1144.75,142.54833333333335,1147.125,142.5225C1149.5,142.49666666666667,1151.875,142.47083333333333,1154.25,142.445C1156.625,142.41916666666665,1159,142.39333333333335,1161.375,142.3675C1163.75,142.34166666666667,1166.125,142.31583333333333,1168.5,142.29C1170.875,142.26416666666665,1173.25,142.23833333333334,1175.625,142.2125C1178,142.18666666666667,1180.375,142.16083333333336,1182.75,142.13500000000002C1185.125,142.10916666666668,1187.5,142.08333333333334,1189.875,142.0575C1192.25,142.03166666666667,1194.625,142.00583333333336,1197,141.98000000000002C1199.375,141.95416666666668,1201.75,141.92833333333334,1204.125,141.9025C1206.5,141.87666666666667,1208.875,141.85083333333336,1211.25,141.82500000000002C1213.625,141.79916666666668,1216,141.77333333333334,1218.375,141.7475C1220.75,141.72166666666666,1223.125,141.69583333333335,1225.5,141.67000000000002C1227.875,141.64416666666668,1230.25,141.61833333333334,1232.625,141.5925C1235,141.56666666666666,1237.375,141.54083333333335,1239.75,141.51500000000001C1242.125,141.48916666666668,1244.5,141.46333333333334,1246.875,141.4375C1249.25,141.41166666666666,1251.625,141.38583333333335,1254,141.36C1256.375,141.33416666666668,1258.75,141.30833333333334,1261.125,141.2825C1263.5,141.25666666666666,1265.875,141.23083333333335,1268.25,141.205C1270.625,141.17916666666667,1273,141.15333333333334,1275.375,141.1275C1277.75,141.10166666666666,1280.125,141.10166666666666,1282.5,141.05C1284.875,140.99833333333336,1287.25,137.175,1289.625,135.2375C1292,133.3,1294.375,131.36249999999998,1296.75,129.42499999999998C1299.125,127.48749999999998,1301.5,125.55,1303.875,123.6125C1306.25,121.675,1308.625,119.7375,1311,117.8C1313.375,115.8625,1315.75,113.92499999999998,1318.125,111.98749999999998C1320.5,110.04999999999998,1322.875,108.11250000000001,1325.25,106.17500000000001C1327.625,104.23750000000001,1330,102.3,1332.375,100.3625C1334.75,98.425,1337.125,96.4875,1339.5,94.55C1341.875,92.6125,1344.25,90.675,1346.625,88.7375C1349,86.8,1351.375,84.86249999999998,1353.75,82.92499999999998C1356.125,80.98749999999998,1358.5,79.05000000000001,1360.875,77.11250000000001C1363.25,75.17500000000001,1365.625,73.2375,1368,71.3C1370.375,69.3625,1372.75,67.425,1375.125,65.4875C1377.5,63.55,1379.875,61.612500000000004,1382.25,59.675000000000004C1384.625,57.737500000000004,1387,55.800000000000004,1389.375,53.862500000000004C1391.75,51.925000000000004,1394.125,49.98750000000001,1396.5,48.05000000000001C1398.875,46.11250000000001,1401.25,44.175,1403.625,42.2375C1406,40.3,1408.375,38.3625,1410.75,36.425C1413.125,34.4875,1415.5,32.55,1417.875,30.6125C1420.25,28.675,1422.625,26.737500000000004,1425,24.800000000000004" fill="transparent" stroke-linecap="round" stroke="#1AD4B3" stroke-width="2"></path><g class="visx-group visx-axis visx-axis-bottom" transform="translate(0, 155)"><g class="visx-group visx-axis-tick" transform="translate(0, 0)"><line class="visx-line" x1="0" y1="0" x2="0" y2="8" fill="transparent" shape-rendering="crispEdges" stroke="#F2F0F9" stroke-width="1" stroke-linecap="square"></line><svg x="0" y="0" font-size="11" style="overflow:visible"><text transform="" x="0" y="19" fill="#1B2030" font-size="11" text-anchor="middle"><tspan x="0" dy="0em">0%</tspan></text></svg></g><g class="visx-group visx-axis-tick" transform="translate(0, 0)"><line class="visx-line" x1="356.25" y1="0" x2="356.25" y2="8" fill="transparent" shape-rendering="crispEdges" stroke="#F2F0F9" stroke-width="1" stroke-linecap="square"></line><svg x="0" y="0" font-size="11" style="overflow:visible"><text transform="" x="356.25" y="19" fill="#1B2030" font-size="11" text-anchor="middle"><tspan x="356.25" dy="0em">25%</tspan></text></svg></g><g class="visx-group visx-axis-tick" transform="translate(0, 0)"><line class="visx-line" x1="712.5" y1="0" x2="712.5" y2="8" fill="transparent" shape-rendering="crispEdges" stroke="#F2F0F9" stroke-width="1" stroke-linecap="square"></line><svg x="0" y="0" font-size="11" style="overflow:visible"><text transform="" x="712.5" y="19" fill="#1B2030" font-size="11" text-anchor="middle"><tspan x="712.5" dy="0em">50%</tspan></text></svg></g><g class="visx-group visx-axis-tick" transform="translate(0, 0)"><line class="visx-line" x1="1068.75" y1="0" x2="1068.75" y2="8" fill="transparent" shape-rendering="crispEdges" stroke="#F2F0F9" stroke-width="1" stroke-linecap="square"></line><svg x="0" y="0" font-size="11" style="overflow:visible"><text transform="" x="1068.75" y="19" fill="#1B2030" font-size="11" text-anchor="middle"><tspan x="1068.75" dy="0em">75%</tspan></text></svg></g><g class="visx-group visx-axis-tick" transform="translate(0, 0)"><line class="visx-line" x1="1425" y1="0" x2="1425" y2="8" fill="transparent" shape-rendering="crispEdges" stroke="#F2F0F9" stroke-width="1" stroke-linecap="square"></line><svg x="0" y="0" font-size="11" style="overflow:visible"><text transform="" x="1425" y="19" fill="#1B2030" font-size="11" text-anchor="middle"><tspan x="1425" dy="0em">100%</tspan></text></svg></g></g><g class="visx-group visx-axis visx-axis-left" transform="translate(0, 0)"><g class="visx-group visx-axis-tick" transform="translate(0, 0)"><line class="visx-line" x1="0" y1="155" x2="-8" y2="155" fill="transparent" shape-rendering="crispEdges" stroke="#F2F0F9" stroke-width="1" stroke-linecap="square"></line><svg x="-30" y="0" font-size="11" style="overflow:visible"><text transform="" x="-8" y="155" fill="#1B2030" font-size="11" text-anchor="start"><tspan x="-8" dy="0em">0%</tspan></text></svg></g><g class="visx-group visx-axis-tick" transform="translate(0, 0)"><line class="visx-line" x1="0" y1="77.5" x2="-8" y2="77.5" fill="transparent" shape-rendering="crispEdges" stroke="#F2F0F9" stroke-width="1" stroke-linecap="square"></line><svg x="-30" y="0" font-size="11" style="overflow:visible"><text transform="" x="-8" y="77.5" fill="#1B2030" font-size="11" text-anchor="start"><tspan x="-8" dy="0em">50%</tspan></text></svg></g><g class="visx-group visx-axis-tick" transform="translate(0, 0)"><line class="visx-line" x1="0" y1="0" x2="-8" y2="0" fill="transparent" shape-rendering="crispEdges" stroke="#F2F0F9" stroke-width="1" stroke-linecap="square"></line><svg x="-30" y="0" font-size="11" style="overflow:visible"><text transform="" x="-8" y="0" fill="#1B2030" font-size="11" text-anchor="start"><tspan x="-8" dy="0em">100%</tspan></text></svg></g><line class="visx-line visx-axis-line" x1="0" y1="155.5" x2="0" y2="0.5" fill="transparent" shape-rendering="crispEdges" stroke="#F2F0F9" stroke-width="1"></line></g><rect class="visx-bar" width="1425" height="155" fill="transparent"></rect><line class="visx-line" x1="1282.5" y1="58" x2="1282.5" y2="155" fill="transparent" shape-rendering="crispEdges" stroke="#CDC8E1" stroke-width="1" pointer-events="none" stroke-dasharray="5"></line><svg x="0" y="0" font-size="11px" style="overflow:visible"><text transform="" x="1282.5" y="50" font-size="11px" fill="#555069" stroke="#FFFFFF" stroke-width="1px" text-anchor="middle"><tspan x="1282.5" dy="0.355em">Optimal utilization 90%</tspan></text></svg><svg x="0" y="0" font-size="11px" style="overflow:visible"><text transform="" x="1282.5" y="50" font-size="11px" fill="#CDC8E1" text-anchor="middle"><tspan x="1282.5" dy="0.355em">Optimal utilization 90%</tspan></text></svg></g></svg>