<?xml version="1.0"?><svg xmlns="http://www.w3.org/2000/svg" xmlns:xlink= "http://www.w3.org/1999/xlink" style="background: white;" width="1500" height="300"> <g style="color: black; font-size: 13px; font-family: sans-serif; transform: translate(18px, 25px);"><g><circle r="3" cx="-6" cy="-5" style="fill: #1AD4B3" /><text>Borrow APR, variable</text></g><g style="transform: translateX(150px);"><circle r="3" cx="-6" cy="-5" style="fill: #101423" /><text>Borrow APR, stable</text></g></g><g class="visx-group" transform="translate(45, 50)"><g class="visx-group visx-rows" transform="translate(0, 0)"><line class="visx-line" x1="0" y1="155" x2="1425" y2="155" fill="transparent" shape-rendering="crispEdges" stroke="#F2F0F9" stroke-width="1" pointer-events="none"></line><line class="visx-line" x1="0" y1="90.41666666666666" x2="1425" y2="90.41666666666666" fill="transparent" shape-rendering="crispEdges" stroke="#F2F0F9" stroke-width="1" pointer-events="none"></line><line class="visx-line" x1="0" y1="25.83333333333333" x2="1425" y2="25.83333333333333" fill="transparent" shape-rendering="crispEdges" stroke="#F2F0F9" stroke-width="1" pointer-events="none"></line></g><path class="visx-linepath" d="M0,154.99999999483333C2.375,154.138888885875,4.75,153.27777777691665,7.125,152.41666666666666C9.5,151.55555555641666,11.875,150.26823793490462,14.25,149.83333333333334C16.625,149.39842873176207,19,149.39842873176207,21.375,149.18097643097644C23.75,148.96352413019082,26.125,148.74607182940514,28.5,148.52861952861952C30.875,148.3111672278339,33.25,148.09371492704824,35.625,147.87626262626262C38,147.658810325477,40.375,147.44135802469134,42.75,147.22390572390572C45.125,147.0064534231201,47.50000000000001,146.78900112233444,49.87500000000001,146.57154882154882C52.25000000000001,146.3540965207632,54.625,146.13664421997754,57,145.91919191919192C59.375,145.7017396184063,61.75,145.48428731762064,64.125,145.26683501683502C66.5,145.0493827160494,68.875,144.83193041526374,71.25,144.61447811447812C73.625,144.3970258136925,76,144.17957351290684,78.375,143.96212121212122C80.75,143.7446689113356,83.125,143.52721661054994,85.5,143.30976430976432C87.875,143.0923120089787,90.25,142.87485970819304,92.625,142.65740740740742C95,142.4399551066218,97.37500000000001,142.22250280583617,99.75000000000001,142.00505050505052C102.12500000000001,141.7875982042649,104.5,141.57014590347922,106.875,141.3526936026936C109.25,141.13524130190794,111.625,140.91778900112232,114,140.7003367003367C116.375,140.48288439955107,118.75000000000001,140.26543209876542,121.12500000000001,140.0479797979798C123.50000000000001,139.83052749719417,125.875,139.61307519640852,128.25,139.3956228956229C130.625,139.17817059483727,133,138.96071829405162,135.375,138.743265993266C137.75,138.52581369248037,140.125,138.30836139169472,142.5,138.0909090909091C144.875,137.87345679012347,147.25,137.65600448933782,149.625,137.4385521885522C152,137.22109988776657,154.375,137.0036475869809,156.75,136.78619528619527C159.125,136.56874298540964,161.5,136.35129068462402,163.875,136.1338383838384C166.25,135.91638608305277,168.625,135.69893378226712,171,135.4814814814815C173.375,135.26402918069587,175.75,135.04657687991022,178.125,134.8291245791246C180.5,134.61167227833897,182.875,134.3942199775533,185.25,134.17676767676767C187.625,133.95931537598204,190,133.7418630751964,192.375,133.52441077441077C194.75,133.30695847362514,197.12500000000003,133.0895061728395,199.50000000000003,132.87205387205387C201.875,132.65460157126824,204.25,132.4371492704826,206.62499999999997,132.21969696969697C208.99999999999997,132.00224466891135,211.375,131.7847923681257,213.75,131.56734006734007C216.125,131.34988776655445,218.5,131.1324354657688,220.875,130.91498316498317C223.25,130.69753086419755,225.625,130.4800785634119,228,130.26262626262627C230.375,130.04517396184065,232.75,129.82772166105497,235.125,129.61026936026934C237.5,129.3928170594837,239.87500000000003,129.17536475869807,242.25000000000003,128.95791245791244C244.625,128.74046015712682,247,128.52300785634117,249.37499999999997,128.30555555555554C251.74999999999997,128.08810325476992,254.125,127.8706509539843,256.5,127.65319865319866C258.875,127.43574635241302,261.25,127.21829405162738,263.625,127.00084175084174C266,126.7833894500561,268.375,126.5659371492705,270.75,126.34848484848486C273.125,126.13103254769922,275.5,125.91358024691358,277.875,125.69612794612794C280.25,125.4786756453423,282.625,125.26122334455668,285,125.04377104377105C287.375,124.8263187429854,289.75,124.60886644219978,292.125,124.39141414141415C294.5,124.17396184062851,296.875,123.95650953984287,299.25,123.73905723905723C301.625,123.5216049382716,304,123.30415263748597,306.375,123.08670033670033C308.75,122.8692480359147,311.125,122.65179573512907,313.5,122.43434343434343C315.875,122.2168911335578,318.25,121.99943883277217,320.625,121.78198653198653C323,121.5645342312009,325.375,121.34708193041526,327.75,121.12962962962962C330.125,120.91217732884398,332.5,120.69472502805837,334.875,120.47727272727273C337.25,120.2598204264871,339.625,120.04236812570146,342,119.82491582491582C344.375,119.60746352413018,346.75,119.39001122334457,349.125,119.17255892255893C351.5,118.9551066217733,353.875,118.73765432098766,356.25,118.52020202020202C358.625,118.30274971941638,361,118.08529741863076,363.375,117.86784511784512C365.75,117.65039281705948,368.125,117.43294051627386,370.5,117.21548821548822C372.875,116.99803591470258,375.25,116.78058361391696,377.625,116.56313131313132C380,116.34567901234568,382.375,116.12822671156005,384.75,115.91077441077441C387.125,115.69332210998877,389.50000000000006,115.47586980920315,391.87500000000006,115.25841750841751C394.25000000000006,115.04096520763187,396.62500000000006,114.82351290684625,399.00000000000006,114.60606060606061C401.375,114.38860830527497,403.75,114.17115600448933,406.12499999999994,113.9537037037037C408.49999999999994,113.73625140291806,410.87499999999994,113.51879910213243,413.24999999999994,113.3013468013468C415.62499999999994,113.08389450056116,418,112.86644219977553,420.375,112.6489898989899C422.75,112.43153759820427,425.125,112.21408529741865,427.5,111.99663299663301C429.875,111.77918069584737,432.25,111.56172839506172,434.625,111.34427609427608C437,111.12682379349044,439.375,110.90937149270484,441.75,110.6919191919192C444.125,110.47446689113356,446.5,110.25701459034792,448.875,110.03956228956228C451.25,109.82210998877665,453.625,109.60465768799104,456,109.3872053872054C458.375,109.16975308641976,460.75,108.95230078563412,463.125,108.73484848484848C465.5,108.51739618406285,467.875,108.29994388327721,470.25,108.08249158249158C472.625,107.86503928170595,475.00000000000006,107.64758698092034,477.37500000000006,107.4301346801347C479.75000000000006,107.21268237934906,482.12500000000006,106.99523007856341,484.50000000000006,106.77777777777777C486.875,106.56032547699213,489.25,106.34287317620651,491.62499999999994,106.12542087542087C493.99999999999994,105.90796857463523,496.37499999999994,105.69051627384961,498.74999999999994,105.47306397306397C501.12499999999994,105.25561167227833,503.5,105.03815937149271,505.875,104.82070707070707C508.25,104.60325476992143,510.625,104.3858024691358,513,104.16835016835016C515.375,103.95089786756452,517.75,103.7334455667789,520.125,103.51599326599326C522.5,103.29854096520762,524.875,103.081088664422,527.25,102.86363636363637C529.625,102.64618406285075,532,102.42873176206511,534.375,102.21127946127947C536.75,101.99382716049384,539.125,101.7763748597082,541.5,101.55892255892256C543.875,101.34147025813692,546.25,101.1240179573513,548.625,100.90656565656566C551,100.68911335578002,553.375,100.47166105499439,555.75,100.25420875420875C558.125,100.03675645342311,560.5,99.81930415263749,562.875,99.60185185185185C565.25,99.38439955106621,567.625,99.16694725028057,570,98.94949494949493C572.375,98.7320426487093,574.75,98.51459034792367,577.125,98.29713804713805C579.5,98.07968574635242,581.875,97.8622334455668,584.25,97.64478114478116C586.625,97.42732884399553,589,97.20987654320987,591.375,96.99242424242424C593.75,96.7749719416386,596.125,96.55751964085299,598.5,96.34006734006735C600.875,96.12261503928171,603.25,95.90516273849607,605.625,95.68771043771044C608,95.4702581369248,610.375,95.25280583613919,612.75,95.03535353535355C615.125,94.81790123456791,617.5,94.60044893378226,619.875,94.38299663299662C622.25,94.16554433221098,624.625,93.94809203142538,627,93.73063973063974C629.375,93.5131874298541,631.75,93.29573512906848,634.125,93.07828282828284C636.5,92.8608305274972,638.875,92.64337822671156,641.25,92.42592592592592C643.625,92.20847362514029,646,91.99102132435466,648.375,91.77356902356902C650.75,91.55611672278339,653.125,91.33866442199776,655.5,91.12121212121212C657.875,90.90375982042649,660.25,90.68630751964086,662.625,90.46885521885523C665,90.25140291806959,667.375,90.03395061728395,669.75,89.81649831649831C672.125,89.59904601571267,674.5,89.38159371492706,676.875,89.16414141414143C679.25,88.94668911335579,681.625,88.72923681257015,684,88.51178451178451C686.375,88.29433221099887,688.75,88.07687991021326,691.125,87.85942760942763C693.5,87.64197530864199,695.875,87.42452300785634,698.25,87.2070707070707C700.625,86.98961840628506,703,86.77216610549945,705.375,86.55471380471381C707.75,86.33726150392818,710.125,86.11980920314254,712.5,85.9023569023569C714.875,85.68490460157126,717.25,85.46745230078564,719.625,85.25C722,85.03254769921436,724.375,84.81509539842874,726.75,84.5976430976431C729.125,84.38019079685746,731.5,84.16273849607184,733.875,83.9452861952862C736.25,83.72783389450056,738.625,83.51038159371494,741,83.2929292929293C743.375,83.07547699214366,745.75,82.85802469135803,748.125,82.64057239057239C750.5,82.42312008978675,752.875,82.20566778900113,755.25,81.98821548821549C757.625,81.77076318742985,760,81.55331088664423,762.375,81.33585858585859C764.75,81.11840628507295,767.125,80.90095398428731,769.5,80.68350168350167C771.875,80.46604938271604,774.2500000000001,80.24859708193041,776.6250000000001,80.03114478114477C779.0000000000001,79.81369248035914,781.3750000000001,79.59624017957351,783.7500000000001,79.37878787878788C786.1250000000001,79.16133557800224,788.5000000000001,78.9438832772166,790.8750000000001,78.72643097643098C793.2500000000001,78.50897867564535,795.6250000000001,78.29152637485973,798.0000000000001,78.07407407407409C800.375,77.85662177328845,802.75,77.6391694725028,805.1249999999999,77.42171717171716C807.4999999999999,77.20426487093152,809.8749999999999,76.9868125701459,812.2499999999999,76.76936026936026C814.6249999999999,76.55190796857462,816.9999999999999,76.33445566778902,819.3749999999999,76.11700336700338C821.7499999999999,75.89955106621774,824.1249999999999,75.6820987654321,826.4999999999999,75.46464646464646C828.8749999999999,75.24719416386083,831.25,75.0297418630752,833.625,74.81228956228956C836,74.59483726150393,838.375,74.3773849607183,840.75,74.15993265993266C843.125,73.94248035914703,845.5,73.72502805836139,847.875,73.50757575757575C850.25,73.29012345679011,852.625,73.07267115600449,855,72.85521885521885C857.375,72.63776655443321,859.75,72.42031425364759,862.125,72.20286195286195C864.5,71.98540965207631,866.875,71.76795735129069,869.25,71.55050505050505C871.625,71.33305274971941,874,71.11560044893378,876.375,70.89814814814814C878.75,70.6806958473625,881.125,70.46324354657688,883.5,70.24579124579124C885.875,70.0283389450056,888.25,69.81088664421998,890.625,69.59343434343434C893,69.3759820426487,895.375,69.15852974186309,897.75,68.94107744107745C900.125,68.72362514029182,902.5,68.50617283950616,904.875,68.28872053872053C907.25,68.07126823793489,909.625,67.85381593714925,912,67.63636363636363C914.375,67.418911335578,916.75,67.20145903479238,919.125,66.98400673400675C921.5,66.76655443322113,923.875,66.54910213243548,926.25,66.33164983164984C928.625,66.1141975308642,931,65.89674523007857,933.375,65.67929292929293C935.75,65.46184062850729,938.125,65.24438832772165,940.5,65.02693602693603C942.875,64.8094837261504,945.25,64.59203142536478,947.625,64.37457912457914C950,64.1571268237935,952.3750000000001,63.93967452300786,954.7500000000001,63.72222222222222C957.1250000000001,63.50476992143658,959.5000000000001,63.287317620650946,961.8750000000001,63.069865319865315C964.2500000000001,62.852413019079684,966.6250000000001,62.63496071829407,969.0000000000001,62.41750841750843C971.3750000000001,62.20005611672279,973.7500000000001,61.982603815937146,976.1250000000001,61.76515151515151C978.5,61.54769921436587,980.875,61.33024691358023,983.2499999999999,61.1127946127946C985.6249999999999,60.895342312008964,987.9999999999999,60.67789001122333,990.3749999999999,60.4604377104377C992.7499999999999,60.24298540965207,995.1249999999999,60.025533108866455,997.4999999999999,59.80808080808082C999.8749999999999,59.59062850729518,1002.2499999999999,59.373176206509534,1004.6249999999999,59.155723905723896C1006.9999999999999,58.93827160493826,1009.375,58.72081930415262,1011.75,58.50336700336699C1014.125,58.28591470258136,1016.5,58.068462401795735,1018.875,57.851010101010104C1021.25,57.63355780022447,1023.625,57.416105499438856,1026,57.19865319865322C1028.375,56.98120089786758,1030.75,56.76374859708193,1033.125,56.5462962962963C1035.5,56.32884399551067,1037.875,56.11139169472504,1040.25,55.89393939393941C1042.625,55.67648709315378,1045,55.45903479236814,1047.375,55.241582491582506C1049.75,55.02413019079687,1052.125,54.80667789001122,1054.5,54.589225589225585C1056.875,54.37177328843995,1059.25,54.15432098765431,1061.625,53.93686868686868C1064,53.71941638608305,1066.375,53.50196408529742,1068.75,53.28451178451179C1071.125,53.06705948372616,1073.5,52.84960718294053,1075.875,52.63215488215489C1078.25,52.414702581369255,1080.625,52.1972502805836,1083,51.97979797979797C1085.375,51.76234567901234,1087.75,51.54489337822672,1090.125,51.32744107744109C1092.5,51.109988776655456,1094.875,50.89253647586982,1097.25,50.67508417508418C1099.625,50.45763187429854,1102,50.2401795735129,1104.375,50.02272727272726C1106.75,49.80527497194162,1109.125,49.58782267115598,1111.5,49.37037037037035C1113.875,49.15291806958472,1116.25,48.9354657687991,1118.625,48.71801346801347C1121,48.500561167227836,1123.375,48.283108866442205,1125.75,48.06565656565657C1128.125,47.84820426487093,1130.5,47.63075196408528,1132.875,47.41329966329965C1135.25,47.195847362514016,1137.625,46.978395061728406,1140,46.760942760942775C1142.375,46.543490460157145,1144.75,46.32603815937151,1147.125,46.10858585858587C1149.5,45.89113355780023,1151.875,45.673681257014586,1154.25,45.45622895622895C1156.625,45.23877665544331,1159,45.02132435465768,1161.375,44.80387205387205C1163.75,44.58641975308642,1166.125,44.368967452300794,1168.5,44.15151515151516C1170.875,43.93406285072953,1173.25,43.716610549943894,1175.625,43.499158249158256C1178,43.28170594837262,1180.375,43.064253647586966,1182.75,42.846801346801335C1185.125,42.629349046015705,1187.5,42.41189674523008,1189.875,42.19444444444445C1192.25,41.97699214365882,1194.625,41.75953984287318,1197,41.54208754208754C1199.375,41.324635241301905,1201.75,41.10718294051625,1204.125,40.88973063973062C1206.5,40.67227833894499,1208.875,40.45482603815937,1211.25,40.23737373737374C1213.625,40.019921436588106,1216,39.80246913580247,1218.375,39.58501683501684C1220.75,39.36756453423121,1223.125,39.15011223344557,1225.5,38.93265993265993C1227.875,38.71520763187429,1230.25,38.49775533108864,1232.625,38.28030303030301C1235,38.06285072951738,1237.375,37.84539842873177,1239.75,37.62794612794614C1242.125,37.41049382716051,1244.5,37.19304152637487,1246.875,36.97558922558924C1249.25,36.75813692480361,1251.625,36.54068462401797,1254,36.32323232323233C1256.375,36.105780022446694,1258.75,35.88832772166107,1261.125,35.67087542087543C1263.5,35.453423120089795,1265.875,35.235970819304164,1268.25,35.018518518518526C1270.625,34.80106621773289,1273,34.58361391694726,1275.375,34.36616161616162C1277.75,34.14870931537598,1280.125,33.93125701459033,1282.5,33.7138047138047C1284.875,33.49635241301907,1287.25,33.278900112233444,1289.625,33.06144781144781C1292,32.84399551066218,1294.375,32.626543209876544,1296.75,32.409090909090914C1299.125,32.19163860830528,1301.5,31.97418630751964,1303.875,31.756734006734007C1306.25,31.539281705948373,1308.625,31.321829405162738,1311,31.104377104377104C1313.375,30.88692480359147,1315.75,30.669472502805835,1318.125,30.4520202020202C1320.5,30.234567901234566,1322.875,30.017115600448932,1325.25,29.799663299663298C1327.625,29.582210998877663,1330,29.36475869809203,1332.375,29.147306397306394C1334.75,28.92985409652076,1337.125,28.71240179573512,1339.5,28.494949494949488C1341.875,28.277497194163857,1344.25,28.060044893378233,1346.625,27.842592592592602C1349,27.62514029180697,1351.375,27.407687991021334,1353.75,27.1902356902357C1356.125,26.972783389450065,1358.5,26.75533108866443,1360.875,26.537878787878796C1363.25,26.32042648709316,1365.625,26.102974186307524,1368,25.885521885521893C1370.375,25.668069584736262,1372.75,25.45061728395064,1375.125,25.233164983165004C1377.5,25.01571268237937,1379.875,24.79826038159372,1382.25,24.580808080808083C1384.625,24.363355780022445,1387,24.14590347923681,1389.375,23.92845117845118C1391.75,23.71099887766555,1394.125,23.49354657687993,1396.5,23.276094276094295C1398.875,23.05864197530866,1401.25,22.84118967452301,1403.625,22.623737373737374C1406,22.406285072951736,1408.375,22.1888327721661,1410.75,21.97138047138047C1413.125,21.75392817059484,1415.5,21.536475869809216,1417.875,21.31902356902358C1420.25,21.101571268237947,1422.625,20.884118967452302,1425,20.66666666666666" fill="transparent" stroke-linecap="round" stroke="#1AD4B3" stroke-width="2"></path><g class="visx-group visx-axis visx-axis-bottom" transform="translate(0, 155)"><g class="visx-group visx-axis-tick" transform="translate(0, 0)"><line class="visx-line" x1="0" y1="0" x2="0" y2="8" fill="transparent" shape-rendering="crispEdges" stroke="#F2F0F9" stroke-width="1" stroke-linecap="square"></line><svg x="0" y="0" font-size="11" style="overflow:visible"><text transform="" x="0" y="19" fill="#1B2030" font-size="11" text-anchor="middle"><tspan x="0" dy="0em">0%</tspan></text></svg></g><g class="visx-group visx-axis-tick" transform="translate(0, 0)"><line class="visx-line" x1="356.25" y1="0" x2="356.25" y2="8" fill="transparent" shape-rendering="crispEdges" stroke="#F2F0F9" stroke-width="1" stroke-linecap="square"></line><svg x="0" y="0" font-size="11" style="overflow:visible"><text transform="" x="356.25" y="19" fill="#1B2030" font-size="11" text-anchor="middle"><tspan x="356.25" dy="0em">25%</tspan></text></svg></g><g class="visx-group visx-axis-tick" transform="translate(0, 0)"><line class="visx-line" x1="712.5" y1="0" x2="712.5" y2="8" fill="transparent" shape-rendering="crispEdges" stroke="#F2F0F9" stroke-width="1" stroke-linecap="square"></line><svg x="0" y="0" font-size="11" style="overflow:visible"><text transform="" x="712.5" y="19" fill="#1B2030" font-size="11" text-anchor="middle"><tspan x="712.5" dy="0em">50%</tspan></text></svg></g><g class="visx-group visx-axis-tick" transform="translate(0, 0)"><line class="visx-line" x1="1068.75" y1="0" x2="1068.75" y2="8" fill="transparent" shape-rendering="crispEdges" stroke="#F2F0F9" stroke-width="1" stroke-linecap="square"></line><svg x="0" y="0" font-size="11" style="overflow:visible"><text transform="" x="1068.75" y="19" fill="#1B2030" font-size="11" text-anchor="middle"><tspan x="1068.75" dy="0em">75%</tspan></text></svg></g><g class="visx-group visx-axis-tick" transform="translate(0, 0)"><line class="visx-line" x1="1425" y1="0" x2="1425" y2="8" fill="transparent" shape-rendering="crispEdges" stroke="#F2F0F9" stroke-width="1" stroke-linecap="square"></line><svg x="0" y="0" font-size="11" style="overflow:visible"><text transform="" x="1425" y="19" fill="#1B2030" font-size="11" text-anchor="middle"><tspan x="1425" dy="0em">100%</tspan></text></svg></g></g><g class="visx-group visx-axis visx-axis-left" transform="translate(0, 0)"><g class="visx-group visx-axis-tick" transform="translate(0, 0)"><line class="visx-line" x1="0" y1="155" x2="-8" y2="155" fill="transparent" shape-rendering="crispEdges" stroke="#F2F0F9" stroke-width="1" stroke-linecap="square"></line><svg x="-30" y="0" font-size="11" style="overflow:visible"><text transform="" x="-8" y="155" fill="#1B2030" font-size="11" text-anchor="start"><tspan x="-8" dy="0em">0%</tspan></text></svg></g><g class="visx-group visx-axis-tick" transform="translate(0, 0)"><line class="visx-line" x1="0" y1="90.41666666666666" x2="-8" y2="90.41666666666666" fill="transparent" shape-rendering="crispEdges" stroke="#F2F0F9" stroke-width="1" stroke-linecap="square"></line><svg x="-30" y="0" font-size="11" style="overflow:visible"><text transform="" x="-8" y="90.41666666666666" fill="#1B2030" font-size="11" text-anchor="start"><tspan x="-8" dy="0em">50%</tspan></text></svg></g><g class="visx-group visx-axis-tick" transform="translate(0, 0)"><line class="visx-line" x1="0" y1="25.83333333333333" x2="-8" y2="25.83333333333333" fill="transparent" shape-rendering="crispEdges" stroke="#F2F0F9" stroke-width="1" stroke-linecap="square"></line><svg x="-30" y="0" font-size="11" style="overflow:visible"><text transform="" x="-8" y="25.83333333333333" fill="#1B2030" font-size="11" text-anchor="start"><tspan x="-8" dy="0em">100%</tspan></text></svg></g><line class="visx-line visx-axis-line" x1="0" y1="155.5" x2="0" y2="0.5" fill="transparent" shape-rendering="crispEdges" stroke="#F2F0F9" stroke-width="1"></line></g><rect class="visx-bar" width="1425" height="155" fill="transparent"></rect><line class="visx-line" x1="14.25" y1="58" x2="14.25" y2="155" fill="transparent" shape-rendering="crispEdges" stroke="#CDC8E1" stroke-width="1" pointer-events="none" stroke-dasharray="5"></line><svg x="0" y="0" font-size="11px" style="overflow:visible"><text transform="" x="14.25" y="50" font-size="11px" fill="#555069" stroke="#FFFFFF" stroke-width="1px" text-anchor="middle"><tspan x="14.25" dy="0.355em">Optimal utilization 1%</tspan></text></svg><svg x="0" y="0" font-size="11px" style="overflow:visible"><text transform="" x="14.25" y="50" font-size="11px" fill="#CDC8E1" text-anchor="middle"><tspan x="14.25" dy="0.355em">Optimal utilization 1%</tspan></text></svg></g></svg>