<?xml version="1.0"?><svg xmlns="http://www.w3.org/2000/svg" xmlns:xlink= "http://www.w3.org/1999/xlink" style="background: white;" width="1500" height="185"> <g style="color: black; font-size: 13px; font-family: sans-serif; transform: translate(18px, 25px);"><g><circle r="3" cx="-6" cy="-5" style="fill: #B6509E" /><text>Borrow APR, variable</text></g><g style="transform: translateX(150px);"><circle r="3" cx="-6" cy="-5" style="fill: rgb(231, 198, 223)" /><text>Borrow APR, stable</text></g><g style="transform: translateX(290px);"><circle r="3" cx="-6" cy="-5" style="fill: rgb(0, 98, 210)" /><text>Utilization Rate</text></g></g><g class="visx-group" transform="translate(40, 50)"><g class="visx-group visx-rows" transform="translate(0, 0)"><line class="visx-line" x1="0" y1="115" x2="1450" y2="115" fill="transparent" shape-rendering="crispEdges" stroke="#000" stroke-width="1" stroke-dasharray="3,3" pointer-events="none"></line><line class="visx-line" x1="0" y1="86.25" x2="1450" y2="86.25" fill="transparent" shape-rendering="crispEdges" stroke="#000" stroke-width="1" stroke-dasharray="3,3" pointer-events="none"></line><line class="visx-line" x1="0" y1="57.5" x2="1450" y2="57.5" fill="transparent" shape-rendering="crispEdges" stroke="#000" stroke-width="1" stroke-dasharray="3,3" pointer-events="none"></line><line class="visx-line" x1="0" y1="28.75" x2="1450" y2="28.75" fill="transparent" shape-rendering="crispEdges" stroke="#000" stroke-width="1" stroke-dasharray="3,3" pointer-events="none"></line><line class="visx-line" x1="0" y1="0" x2="1450" y2="0" fill="transparent" shape-rendering="crispEdges" stroke="#000" stroke-width="1" stroke-dasharray="3,3" pointer-events="none"></line></g><path class="visx-linepath" d="M0,114.99999999992013C2.4166666666666665,114.98668981476823,4.833333333333334,114.97337962961632,7.25,114.96006944444444C9.666666666666666,114.94675925927257,12.083333333333334,114.93344907407408,14.5,114.92013888888889C16.916666666666668,114.9068287037037,19.333333333333332,114.89351851851852,21.75,114.88020833333333C24.166666666666668,114.86689814814814,26.583333333333332,114.85358796296296,29,114.84027777777777C31.416666666666668,114.82696759259258,33.833333333333336,114.81365740740739,36.25,114.80034722222221C38.666666666666664,114.78703703703704,41.083333333333336,114.77372685185186,43.5,114.76041666666667C45.91666666666667,114.74710648148148,48.333333333333336,114.73379629629629,50.75000000000001,114.7204861111111C53.16666666666667,114.70717592592591,55.583333333333336,114.69386574074073,58,114.68055555555556C60.416666666666664,114.66724537037037,62.833333333333336,114.65393518518519,65.25,114.640625C67.66666666666667,114.62731481481481,70.08333333333333,114.61400462962963,72.5,114.60069444444444C74.91666666666667,114.58738425925925,77.33333333333333,114.57407407407408,79.75,114.56076388888889C82.16666666666667,114.5474537037037,84.58333333333333,114.53414351851852,87,114.52083333333333C89.41666666666667,114.50752314814814,91.83333333333333,114.49421296296295,94.25,114.48090277777777C96.66666666666667,114.46759259259258,99.08333333333334,114.45428240740742,101.50000000000001,114.44097222222223C103.91666666666667,114.42766203703704,106.33333333333334,114.41435185185185,108.75,114.40104166666666C111.16666666666667,114.38773148148147,113.58333333333333,114.37442129629629,116,114.36111111111111C118.41666666666667,114.34780092592592,120.83333333333334,114.33449074074075,123.25000000000001,114.32118055555556C125.66666666666667,114.30787037037037,128.08333333333334,114.29456018518519,130.5,114.28125C132.91666666666666,114.26793981481481,135.33333333333334,114.25462962962963,137.75,114.24131944444444C140.16666666666666,114.22800925925925,142.58333333333334,114.21469907407408,145,114.20138888888889C147.41666666666666,114.1880787037037,149.83333333333334,114.1747685185185,152.25,114.16145833333333C154.66666666666666,114.14814814814815,157.08333333333334,114.13483796296298,159.5,114.12152777777779C161.91666666666666,114.1082175925926,164.33333333333334,114.0949074074074,166.75,114.08159722222221C169.16666666666666,114.06828703703702,171.58333333333334,114.05497685185185,174,114.04166666666667C176.41666666666666,114.0283564814815,178.83333333333334,114.0150462962963,181.25,114.00173611111111C183.66666666666666,113.98842592592592,186.08333333333334,113.97511574074075,188.5,113.96180555555556C190.91666666666666,113.94849537037037,193.33333333333334,113.93518518518519,195.75,113.921875C198.16666666666669,113.90856481481481,200.58333333333334,113.89525462962963,203.00000000000003,113.88194444444444C205.41666666666669,113.86863425925925,207.83333333333331,113.85532407407406,210.24999999999997,113.84201388888889C212.66666666666666,113.8287037037037,215.08333333333331,113.81539351851853,217.5,113.80208333333334C219.91666666666666,113.78877314814815,222.33333333333334,113.77546296296296,224.75,113.76215277777777C227.16666666666666,113.74884259259258,229.58333333333334,113.73553240740742,232,113.72222222222223C234.41666666666666,113.70891203703704,236.83333333333334,113.69560185185186,239.25,113.68229166666667C241.66666666666669,113.66898148148148,244.08333333333334,113.6556712962963,246.50000000000003,113.64236111111111C248.91666666666669,113.62905092592592,251.33333333333331,113.61574074074075,253.74999999999997,113.60243055555556C256.16666666666663,113.58912037037037,258.5833333333333,113.57581018518519,261,113.5625C263.4166666666667,113.54918981481481,265.8333333333333,113.53587962962962,268.25,113.52256944444444C270.6666666666667,113.50925925925927,273.0833333333333,113.49594907407409,275.5,113.4826388888889C277.9166666666667,113.46932870370371,280.3333333333333,113.45601851851852,282.75,113.44270833333333C285.1666666666667,113.42939814814814,287.5833333333333,113.41608796296296,290,113.40277777777779C292.4166666666667,113.38946759259261,294.8333333333333,113.37615740740742,297.25,113.36284722222223C299.6666666666667,113.34953703703704,302.0833333333333,113.33622685185186,304.5,113.32291666666667C306.9166666666667,113.30960648148148,309.3333333333333,113.2962962962963,311.75,113.28298611111111C314.1666666666667,113.26967592592592,316.5833333333333,113.25636574074075,319,113.24305555555556C321.4166666666667,113.22974537037037,323.8333333333333,113.21643518518519,326.25,113.203125C328.6666666666667,113.18981481481481,331.0833333333333,113.17650462962963,333.5,113.16319444444444C335.9166666666667,113.14988425925925,338.3333333333333,113.13657407407408,340.75,113.12326388888889C343.1666666666667,113.1099537037037,345.5833333333333,113.09664351851852,348,113.08333333333333C350.4166666666667,113.07002314814814,352.8333333333333,113.05671296296296,355.25,113.04340277777777C357.6666666666667,113.03009259259258,360.0833333333333,113.01678240740739,362.5,113.00347222222221C364.9166666666667,112.99016203703704,367.3333333333333,112.97685185185186,369.75,112.96354166666667C372.1666666666667,112.95023148148148,374.5833333333333,112.93692129629629,377,112.9236111111111C379.4166666666667,112.91030092592591,381.8333333333333,112.89699074074073,384.25,112.88368055555556C386.6666666666667,112.87037037037038,389.0833333333333,112.85706018518519,391.5,112.84375C393.9166666666667,112.83043981481481,396.33333333333337,112.81712962962963,398.75000000000006,112.80381944444444C401.16666666666674,112.79050925925925,403.58333333333337,112.77719907407408,406.00000000000006,112.76388888888889C408.4166666666667,112.7505787037037,410.8333333333333,112.73726851851852,413.24999999999994,112.72395833333333C415.66666666666663,112.71064814814814,418.08333333333326,112.69733796296295,420.49999999999994,112.68402777777777C422.91666666666663,112.67071759259258,425.3333333333333,112.65740740740742,427.75,112.64409722222223C430.1666666666667,112.63078703703704,432.5833333333333,112.61747685185185,435,112.60416666666666C437.4166666666667,112.59085648148147,439.8333333333333,112.5775462962963,442.25,112.56423611111111C444.6666666666667,112.55092592592592,447.0833333333333,112.53761574074075,449.5,112.52430555555556C451.9166666666667,112.51099537037037,454.3333333333333,112.49768518518519,456.75,112.484375C459.1666666666667,112.47106481481481,461.5833333333333,112.45775462962963,464,112.44444444444444C466.4166666666667,112.43113425925925,468.8333333333333,112.41782407407408,471.25,112.40451388888889C473.6666666666667,112.3912037037037,476.0833333333333,112.3778935185185,478.5,112.36458333333333C480.9166666666667,112.35127314814814,483.33333333333337,112.33796296296298,485.75000000000006,112.32465277777779C488.16666666666674,112.3113425925926,490.58333333333337,112.2980324074074,493.00000000000006,112.28472222222221C495.4166666666667,112.27141203703702,497.8333333333333,112.25810185185185,500.24999999999994,112.24479166666667C502.66666666666663,112.23148148148148,505.08333333333326,112.2181712962963,507.49999999999994,112.20486111111111C509.91666666666663,112.19155092592592,512.3333333333333,112.17824074074075,514.75,112.16493055555556C517.1666666666666,112.15162037037037,519.5833333333334,112.13831018518519,522,112.125C524.4166666666666,112.11168981481481,526.8333333333334,112.09837962962963,529.25,112.08506944444444C531.6666666666666,112.07175925925925,534.0833333333334,112.05844907407408,536.5,112.04513888888889C538.9166666666666,112.0318287037037,541.3333333333334,112.01851851851853,543.75,112.00520833333334C546.1666666666666,111.99189814814815,548.5833333333334,111.97858796296296,551,111.96527777777777C553.4166666666666,111.95196759259258,555.8333333333334,111.93865740740742,558.25,111.92534722222223C560.6666666666666,111.91203703703704,563.0833333333334,111.89872685185186,565.5,111.88541666666667C567.9166666666666,111.87210648148148,570.3333333333334,111.8587962962963,572.75,111.84548611111111C575.1666666666666,111.83217592592592,577.5833333333334,111.81886574074075,580,111.80555555555556C582.4166666666666,111.79224537037037,584.8333333333334,111.77893518518519,587.25,111.765625C589.6666666666666,111.75231481481481,592.0833333333334,111.73900462962962,594.5,111.72569444444444C596.9166666666666,111.71238425925927,599.3333333333334,111.69907407407409,601.75,111.6857638888889C604.1666666666666,111.67245370370371,606.5833333333334,111.65914351851852,609,111.64583333333333C611.4166666666666,111.63252314814814,613.8333333333334,111.61921296296296,616.25,111.60590277777779C618.6666666666666,111.59259259259261,621.0833333333334,111.57928240740742,623.5,111.56597222222223C625.9166666666666,111.55266203703704,628.3333333333334,111.53935185185186,630.75,111.52604166666667C633.1666666666666,111.51273148148148,635.5833333333334,111.4994212962963,638,111.48611111111111C640.4166666666666,111.47280092592592,642.8333333333334,111.45949074074075,645.25,111.44618055555556C647.6666666666666,111.43287037037037,650.0833333333334,111.41956018518519,652.5,111.40625C654.9166666666666,111.39293981481481,657.3333333333334,111.37962962962963,659.75,111.36631944444444C662.1666666666666,111.35300925925925,664.5833333333334,111.33969907407408,667,111.32638888888889C669.4166666666666,111.3130787037037,671.8333333333334,111.29976851851852,674.25,111.28645833333333C676.6666666666666,111.27314814814814,679.0833333333334,111.25983796296296,681.5,111.24652777777777C683.9166666666666,111.23321759259258,686.3333333333334,111.21990740740739,688.75,111.20659722222221C691.1666666666666,111.19328703703704,693.5833333333334,111.17997685185186,696,111.16666666666667C698.4166666666666,111.15335648148148,700.8333333333334,111.14004629629629,703.25,111.1267361111111C705.6666666666666,111.11342592592591,708.0833333333334,111.10011574074073,710.5,111.08680555555556C712.9166666666666,111.07349537037038,715.3333333333334,111.06018518518519,717.75,111.046875C720.1666666666666,111.03356481481481,722.5833333333334,111.02025462962963,725,111.00694444444444C727.4166666666666,110.99363425925925,729.8333333333334,110.98032407407408,732.25,110.96701388888889C734.6666666666666,110.9537037037037,737.0833333333334,110.94039351851852,739.5,110.92708333333333C741.9166666666666,110.91377314814814,744.3333333333334,110.90046296296296,746.75,110.88715277777777C749.1666666666666,110.87384259259258,751.5833333333334,110.86053240740742,754,110.84722222222223C756.4166666666666,110.83391203703704,758.8333333333334,110.82060185185185,761.25,110.80729166666666C763.6666666666666,110.79398148148147,766.0833333333334,110.7806712962963,768.5,110.76736111111111C770.9166666666666,110.75405092592592,773.3333333333334,110.74074074074075,775.75,110.72743055555556C778.1666666666666,110.71412037037037,780.5833333333334,110.70081018518519,783,110.6875C785.4166666666667,110.67418981481481,787.8333333333334,110.66087962962963,790.2500000000001,110.64756944444444C792.6666666666667,110.63425925925925,795.0833333333335,110.62094907407408,797.5000000000001,110.60763888888889C799.9166666666667,110.5943287037037,802.3333333333335,110.5810185185185,804.7500000000001,110.56770833333333C807.1666666666667,110.55439814814815,809.5833333333335,110.54108796296298,812.0000000000001,110.52777777777779C814.4166666666667,110.5144675925926,816.8333333333333,110.5011574074074,819.2499999999999,110.48784722222221C821.6666666666665,110.47453703703702,824.0833333333333,110.46122685185185,826.4999999999999,110.44791666666667C828.9166666666665,110.4346064814815,831.3333333333333,110.4212962962963,833.7499999999999,110.40798611111111C836.1666666666665,110.39467592592592,838.5833333333333,110.38136574074075,840.9999999999999,110.36805555555556C843.4166666666666,110.35474537037037,845.8333333333333,110.34143518518519,848.25,110.328125C850.6666666666666,110.31481481481481,853.0833333333334,110.30150462962963,855.5,110.28819444444444C857.9166666666666,110.27488425925925,860.3333333333334,110.26157407407408,862.75,110.24826388888889C865.1666666666666,110.2349537037037,867.5833333333334,110.22164351851853,870,110.20833333333334C872.4166666666666,110.19502314814815,874.8333333333334,110.18171296296296,877.25,110.16840277777777C879.6666666666666,110.15509259259258,882.0833333333334,110.14178240740742,884.5,110.12847222222223C886.9166666666666,110.11516203703704,889.3333333333334,110.10185185185186,891.75,110.08854166666667C894.1666666666666,110.07523148148148,896.5833333333334,110.0619212962963,899,110.04861111111111C901.4166666666666,110.03530092592592,903.8333333333334,110.02199074074075,906.25,110.00868055555556C908.6666666666666,109.99537037037037,911.0833333333334,109.98206018518519,913.5,109.96875C915.9166666666666,109.95543981481481,918.3333333333334,109.94212962962962,920.75,109.92881944444444C923.1666666666666,109.91550925925927,925.5833333333334,109.90219907407409,928,109.8888888888889C930.4166666666666,109.87557870370371,932.8333333333334,109.86226851851852,935.25,109.84895833333333C937.6666666666666,109.83564814814814,940.0833333333334,109.82233796296296,942.5,109.80902777777779C944.9166666666666,109.79571759259261,947.3333333333334,109.78240740740742,949.75,109.76909722222223C952.1666666666666,109.75578703703704,954.5833333333334,109.74247685185186,957,109.72916666666667C959.4166666666666,109.71585648148148,961.8333333333334,109.7025462962963,964.25,109.68923611111111C966.6666666666667,109.67592592592592,969.0833333333334,109.66261574074075,971.5000000000001,109.64930555555556C973.9166666666667,109.63599537037037,976.3333333333335,109.62268518518519,978.7500000000001,109.609375C981.1666666666667,109.59606481481481,983.5833333333335,109.58275462962963,986.0000000000001,109.56944444444444C988.4166666666667,109.55613425925925,990.8333333333335,109.54282407407408,993.2500000000001,109.52951388888889C995.6666666666667,109.51620370370371,998.0833333333333,109.50289351851853,1000.4999999999999,109.48958333333334C1002.9166666666665,109.47627314814815,1005.3333333333333,109.46296296296296,1007.7499999999999,109.44965277777777C1010.1666666666665,109.43634259259258,1012.5833333333333,109.42303240740739,1014.9999999999999,109.40972222222221C1017.4166666666665,109.39641203703704,1019.8333333333333,109.38310185185186,1022.2499999999999,109.36979166666667C1024.6666666666665,109.35648148148148,1027.0833333333333,109.34317129629629,1029.5,109.3298611111111C1031.9166666666667,109.31655092592591,1034.3333333333333,109.30324074074073,1036.75,109.28993055555556C1039.1666666666667,109.27662037037038,1041.5833333333333,109.26331018518519,1044,109.25C1046.4166666666667,109.23668981481481,1048.8333333333333,109.22337962962963,1051.25,109.21006944444444C1053.6666666666667,109.19675925925925,1056.0833333333333,109.18344907407408,1058.5,109.17013888888889C1060.9166666666667,109.1568287037037,1063.3333333333333,109.14351851851852,1065.75,109.13020833333333C1068.1666666666667,109.11689814814814,1070.5833333333333,109.10358796296296,1073,109.09027777777777C1075.4166666666667,109.07696759259258,1077.8333333333333,109.06365740740742,1080.25,109.05034722222223C1082.6666666666667,109.03703703703704,1085.0833333333333,109.02372685185185,1087.5,109.01041666666666C1089.9166666666667,108.99710648148147,1092.3333333333333,108.9837962962963,1094.75,108.97048611111111C1097.1666666666667,108.95717592592592,1099.5833333333333,108.94386574074075,1102,108.93055555555556C1104.4166666666667,108.91724537037037,1106.8333333333333,108.90393518518519,1109.25,108.890625C1111.6666666666667,108.87731481481481,1114.0833333333333,108.86400462962963,1116.5,108.85069444444444C1118.9166666666667,108.83738425925925,1121.3333333333333,108.82407407407408,1123.75,108.81076388888889C1126.1666666666667,108.7974537037037,1128.5833333333333,108.7841435185185,1131,108.77083333333333C1133.4166666666667,108.75752314814815,1135.8333333333333,108.74421296296298,1138.25,108.73090277777779C1140.6666666666667,108.7175925925926,1143.0833333333333,108.7042824074074,1145.5,108.69097222222221C1147.9166666666667,108.67766203703702,1150.3333333333333,108.66435185185185,1152.75,108.65104166666667C1155.1666666666667,108.6377314814815,1157.5833333333333,108.6244212962963,1160,108.61111111111111C1162.4166666666667,108.59780092592592,1164.8333333333333,108.58449074074075,1167.25,108.57118055555556C1169.6666666666667,108.55787037037037,1172.0833333333333,108.54456018518519,1174.5,108.53125C1176.9166666666667,108.51793981481481,1179.3333333333333,108.50462962962963,1181.75,108.49131944444444C1184.1666666666667,108.47800925925925,1186.5833333333333,108.46469907407408,1189,108.45138888888889C1191.4166666666667,108.4380787037037,1193.8333333333333,108.42476851851853,1196.25,108.41145833333334C1198.6666666666667,108.39814814814815,1201.0833333333333,108.38483796296296,1203.5,108.37152777777777C1205.9166666666667,108.35821759259258,1208.3333333333333,108.34490740740742,1210.75,108.33159722222223C1213.1666666666667,108.31828703703704,1215.5833333333333,108.30497685185186,1218,108.29166666666667C1220.4166666666667,108.27835648148148,1222.8333333333333,108.2650462962963,1225.25,108.25173611111111C1227.6666666666667,108.23842592592592,1230.0833333333333,108.22511574074075,1232.5,108.21180555555556C1234.9166666666667,108.19849537037037,1237.3333333333333,108.18518518518519,1239.75,108.171875C1242.1666666666667,108.15856481481481,1244.5833333333333,108.14525462962962,1247,108.13194444444444C1249.4166666666667,108.11863425925927,1251.8333333333333,108.10532407407409,1254.25,108.0920138888889C1256.6666666666667,108.07870370370371,1259.0833333333333,108.06539351851852,1261.5,108.05208333333333C1263.9166666666667,108.03877314814814,1266.3333333333333,108.02546296296296,1268.75,108.01215277777779C1271.1666666666667,107.99884259259261,1273.5833333333333,107.98553240740742,1276,107.97222222222223C1278.4166666666667,107.95891203703704,1280.8333333333333,107.94560185185186,1283.25,107.93229166666667C1285.6666666666667,107.91898148148148,1288.0833333333333,107.9056712962963,1290.5,107.89236111111111C1292.9166666666667,107.87905092592592,1295.3333333333333,107.86574074074075,1297.75,107.85243055555556C1300.1666666666667,107.83912037037037,1302.5833333333333,107.83912037037037,1305,107.8125C1307.4166666666667,107.78587962962963,1309.8333333333333,104.9375,1312.25,103.5C1314.6666666666667,102.0625,1317.0833333333333,100.625,1319.5,99.1875C1321.9166666666667,97.75,1324.3333333333333,96.3125,1326.75,94.875C1329.1666666666667,93.4375,1331.5833333333333,92,1334,90.5625C1336.4166666666667,89.125,1338.8333333333333,87.6875,1341.25,86.25C1343.6666666666667,84.8125,1346.0833333333333,83.375,1348.5,81.9375C1350.9166666666667,80.5,1353.3333333333333,79.0625,1355.75,77.625C1358.1666666666667,76.1875,1360.5833333333333,74.75000000000001,1363,73.31250000000001C1365.4166666666667,71.87500000000001,1367.8333333333333,70.4375,1370.25,69C1372.6666666666667,67.5625,1375.0833333333333,66.125,1377.5,64.6875C1379.9166666666667,63.25,1382.3333333333333,61.8125,1384.75,60.375C1387.1666666666667,58.9375,1389.5833333333333,57.50000000000001,1392,56.06250000000001C1394.4166666666667,54.62500000000001,1396.8333333333333,53.18749999999999,1399.25,51.74999999999999C1401.6666666666667,50.31249999999999,1404.0833333333333,48.875,1406.5,47.4375C1408.9166666666667,46,1411.3333333333333,44.5625,1413.75,43.125C1416.1666666666667,41.6875,1418.5833333333333,40.25,1421,38.8125C1423.4166666666667,37.375,1425.8333333333333,35.93749999999999,1428.25,34.49999999999999C1430.6666666666667,33.06249999999999,1433.0833333333333,31.624999999999996,1435.5,30.187499999999996C1437.9166666666667,28.749999999999996,1440.3333333333333,27.312499999999996,1442.75,25.874999999999996C1445.1666666666667,24.437499999999996,1447.5833333333333,23,1450,21.5625" fill="transparent" stroke-linecap="round" stroke="#B6509E" stroke-width="2"></path><path class="visx-linepath" d="M0,106.37499999999201C2.4166666666666665,106.37366898147683,4.833333333333334,106.37233796296164,7.25,106.37100694444445C9.666666666666666,106.36967592592725,12.083333333333334,106.3683449074074,14.5,106.36701388888889C16.916666666666668,106.36568287037038,19.333333333333332,106.36435185185185,21.75,106.36302083333334C24.166666666666668,106.36168981481482,26.583333333333332,106.3603587962963,29,106.35902777777778C31.416666666666668,106.35769675925927,33.833333333333336,106.35636574074074,36.25,106.35503472222223C38.666666666666664,106.35370370370372,41.083333333333336,106.35237268518519,43.5,106.35104166666667C45.91666666666667,106.34971064814815,48.333333333333336,106.34837962962963,50.75000000000001,106.3470486111111C53.16666666666667,106.34571759259259,55.583333333333336,106.34438657407406,58,106.34305555555555C60.416666666666664,106.34172453703704,62.833333333333336,106.34039351851851,65.25,106.3390625C67.66666666666667,106.33773148148148,70.08333333333333,106.33640046296296,72.5,106.33506944444444C74.91666666666667,106.33373842592593,77.33333333333333,106.3324074074074,79.75,106.33107638888889C82.16666666666667,106.32974537037038,84.58333333333333,106.32841435185185,87,106.32708333333333C89.41666666666667,106.32575231481482,91.83333333333333,106.3244212962963,94.25,106.32309027777778C96.66666666666667,106.32175925925925,99.08333333333334,106.32042824074074,101.50000000000001,106.31909722222221C103.91666666666667,106.3177662037037,106.33333333333334,106.31643518518517,108.75,106.31510416666666C111.16666666666667,106.31377314814814,113.58333333333333,106.31244212962962,116,106.3111111111111C118.41666666666667,106.30978009259259,120.83333333333334,106.30844907407408,123.25000000000001,106.30711805555556C125.66666666666667,106.30578703703705,128.08333333333334,106.30445601851851,130.5,106.303125C132.91666666666666,106.30179398148148,135.33333333333334,106.30046296296297,137.75,106.29913194444445C140.16666666666666,106.29780092592594,142.58333333333334,106.29646990740741,145,106.2951388888889C147.41666666666666,106.29380787037039,149.83333333333334,106.29247685185184,152.25,106.29114583333333C154.66666666666666,106.28981481481482,157.08333333333334,106.28848379629629,159.5,106.28715277777778C161.91666666666666,106.28582175925926,164.33333333333334,106.28449074074074,166.75,106.28315972222222C169.16666666666666,106.28182870370371,171.58333333333334,106.28049768518518,174,106.27916666666667C176.41666666666666,106.27783564814816,178.83333333333334,106.27650462962963,181.25,106.27517361111111C183.66666666666666,106.2738425925926,186.08333333333334,106.27251157407407,188.5,106.27118055555556C190.91666666666666,106.26984953703705,193.33333333333334,106.26851851851852,195.75,106.2671875C198.16666666666669,106.26585648148149,200.58333333333334,106.26452546296298,203.00000000000003,106.26319444444445C205.41666666666669,106.26186342592594,207.83333333333331,106.2605324074074,210.24999999999997,106.25920138888888C212.66666666666666,106.25787037037036,215.08333333333331,106.25653935185184,217.5,106.25520833333333C219.91666666666666,106.25387731481482,222.33333333333334,106.25254629629629,224.75,106.25121527777777C227.16666666666666,106.24988425925926,229.58333333333334,106.24855324074073,232,106.24722222222222C234.41666666666666,106.2458912037037,236.83333333333334,106.24456018518518,239.25,106.24322916666667C241.66666666666669,106.24189814814815,244.08333333333334,106.24056712962962,246.50000000000003,106.23923611111111C248.91666666666669,106.2379050925926,251.33333333333331,106.23657407407407,253.74999999999997,106.23524305555556C256.16666666666663,106.23391203703703,258.5833333333333,106.23258101851852,261,106.23124999999999C263.4166666666667,106.22991898148148,265.8333333333333,106.22858796296295,268.25,106.22725694444443C270.6666666666667,106.22592592592592,273.0833333333333,106.2245949074074,275.5,106.22326388888888C277.9166666666667,106.22193287037037,280.3333333333333,106.22060185185184,282.75,106.21927083333333C285.1666666666667,106.21793981481481,287.5833333333333,106.2166087962963,290,106.21527777777779C292.4166666666667,106.21394675925927,294.8333333333333,106.21261574074074,297.25,106.21128472222223C299.6666666666667,106.20995370370372,302.0833333333333,106.20862268518519,304.5,106.20729166666668C306.9166666666667,106.20596064814816,309.3333333333333,106.20462962962962,311.75,106.20329861111111C314.1666666666667,106.2019675925926,316.5833333333333,106.20063657407407,319,106.19930555555555C321.4166666666667,106.19797453703704,323.8333333333333,106.19664351851851,326.25,106.1953125C328.6666666666667,106.19398148148149,331.0833333333333,106.19265046296296,333.5,106.19131944444445C335.9166666666667,106.18998842592593,338.3333333333333,106.1886574074074,340.75,106.18732638888889C343.1666666666667,106.18599537037038,345.5833333333333,106.18466435185185,348,106.18333333333334C350.4166666666667,106.18200231481482,352.8333333333333,106.1806712962963,355.25,106.17934027777778C357.6666666666667,106.17800925925927,360.0833333333333,106.17667824074074,362.5,106.17534722222223C364.9166666666667,106.17401620370372,367.3333333333333,106.17268518518517,369.75,106.17135416666666C372.1666666666667,106.17002314814815,374.5833333333333,106.16869212962962,377,106.1673611111111C379.4166666666667,106.16603009259259,381.8333333333333,106.16469907407406,384.25,106.16336805555555C386.6666666666667,106.16203703703704,389.0833333333333,106.16070601851851,391.5,106.159375C393.9166666666667,106.15804398148148,396.33333333333337,106.15671296296296,398.75000000000006,106.15538194444444C401.16666666666674,106.15405092592593,403.58333333333337,106.1527199074074,406.00000000000006,106.15138888888889C408.4166666666667,106.15005787037038,410.8333333333333,106.14872685185185,413.24999999999994,106.14739583333333C415.66666666666663,106.1460648148148,418.08333333333326,106.14473379629628,420.49999999999994,106.14340277777777C422.91666666666663,106.14207175925925,425.3333333333333,106.14074074074074,427.75,106.13940972222223C430.1666666666667,106.13807870370371,432.5833333333333,106.13674768518517,435,106.13541666666666C437.4166666666667,106.13408564814814,439.8333333333333,106.13275462962963,442.25,106.13142361111112C444.6666666666667,106.1300925925926,447.0833333333333,106.12876157407408,449.5,106.12743055555556C451.9166666666667,106.12609953703705,454.3333333333333,106.12476851851852,456.75,106.12343750000001C459.1666666666667,106.1221064814815,461.5833333333333,106.12077546296297,464,106.11944444444445C466.4166666666667,106.11811342592594,468.8333333333333,106.1167824074074,471.25,106.11545138888889C473.6666666666667,106.11412037037037,476.0833333333333,106.11278935185184,478.5,106.11145833333333C480.9166666666667,106.11012731481482,483.33333333333337,106.10879629629629,485.75000000000006,106.10746527777778C488.16666666666674,106.10613425925926,490.58333333333337,106.10480324074074,493.00000000000006,106.10347222222222C495.4166666666667,106.10214120370371,497.8333333333333,106.10081018518518,500.24999999999994,106.09947916666667C502.66666666666663,106.09814814814816,505.08333333333326,106.09681712962963,507.49999999999994,106.09548611111111C509.91666666666663,106.0941550925926,512.3333333333333,106.09282407407409,514.75,106.09149305555556C517.1666666666666,106.09016203703705,519.5833333333334,106.0888310185185,522,106.08749999999999C524.4166666666666,106.08616898148148,526.8333333333334,106.08483796296295,529.25,106.08350694444444C531.6666666666666,106.08217592592592,534.0833333333334,106.0808449074074,536.5,106.07951388888888C538.9166666666666,106.07818287037037,541.3333333333334,106.07685185185184,543.75,106.07552083333333C546.1666666666666,106.07418981481482,548.5833333333334,106.07285879629629,551,106.07152777777777C553.4166666666666,106.07019675925926,555.8333333333334,106.06886574074073,558.25,106.06753472222222C560.6666666666666,106.0662037037037,563.0833333333334,106.06487268518518,565.5,106.06354166666667C567.9166666666666,106.06221064814815,570.3333333333334,106.06087962962962,572.75,106.05954861111111C575.1666666666666,106.0582175925926,577.5833333333334,106.05688657407407,580,106.05555555555556C582.4166666666666,106.05422453703704,584.8333333333334,106.05289351851852,587.25,106.0515625C589.6666666666666,106.05023148148149,592.0833333333334,106.04890046296296,594.5,106.04756944444445C596.9166666666666,106.04623842592594,599.3333333333334,106.04490740740741,601.75,106.0435763888889C604.1666666666666,106.04224537037038,606.5833333333334,106.04091435185185,609,106.03958333333334C611.4166666666666,106.03825231481483,613.8333333333334,106.0369212962963,616.25,106.03559027777779C618.6666666666666,106.03425925925927,621.0833333333334,106.03292824074074,623.5,106.03159722222223C625.9166666666666,106.03026620370372,628.3333333333334,106.02893518518518,630.75,106.02760416666666C633.1666666666666,106.02627314814815,635.5833333333334,106.02494212962962,638,106.02361111111111C640.4166666666666,106.0222800925926,642.8333333333334,106.02094907407407,645.25,106.01961805555555C647.6666666666666,106.01828703703704,650.0833333333334,106.01695601851851,652.5,106.015625C654.9166666666666,106.01429398148149,657.3333333333334,106.01296296296296,659.75,106.01163194444445C662.1666666666666,106.01030092592593,664.5833333333334,106.0089699074074,667,106.00763888888889C669.4166666666666,106.00630787037038,671.8333333333334,106.00497685185185,674.25,106.00364583333334C676.6666666666666,106.00231481481482,679.0833333333334,106.00098379629628,681.5,105.99965277777777C683.9166666666666,105.99832175925926,686.3333333333334,105.99699074074073,688.75,105.99565972222221C691.1666666666666,105.9943287037037,693.5833333333334,105.99299768518517,696,105.99166666666666C698.4166666666666,105.99033564814815,700.8333333333334,105.98900462962962,703.25,105.9876736111111C705.6666666666666,105.98634259259259,708.0833333333334,105.98501157407406,710.5,105.98368055555555C712.9166666666666,105.98234953703704,715.3333333333334,105.98101851851851,717.75,105.9796875C720.1666666666666,105.97835648148148,722.5833333333334,105.97702546296296,725,105.97569444444444C727.4166666666666,105.97436342592593,729.8333333333334,105.9730324074074,732.25,105.97170138888889C734.6666666666666,105.97037037037038,737.0833333333334,105.96903935185183,739.5,105.96770833333332C741.9166666666666,105.9663773148148,744.3333333333334,105.9650462962963,746.75,105.96371527777778C749.1666666666666,105.96238425925927,751.5833333333334,105.96105324074074,754,105.95972222222223C756.4166666666666,105.95839120370371,758.8333333333334,105.95706018518518,761.25,105.95572916666667C763.6666666666666,105.95439814814816,766.0833333333334,105.95306712962963,768.5,105.95173611111112C770.9166666666666,105.9504050925926,773.3333333333334,105.94907407407408,775.75,105.94774305555556C778.1666666666666,105.94641203703705,780.5833333333334,105.94508101851852,783,105.94375000000001C785.4166666666667,105.94241898148148,787.8333333333334,105.94108796296297,790.2500000000001,105.93975694444444C792.6666666666667,105.93842592592593,795.0833333333335,105.9370949074074,797.5000000000001,105.93576388888889C799.9166666666667,105.93443287037037,802.3333333333335,105.93310185185184,804.7500000000001,105.93177083333333C807.1666666666667,105.93043981481482,809.5833333333335,105.92910879629629,812.0000000000001,105.92777777777778C814.4166666666667,105.92644675925926,816.8333333333333,105.92511574074074,819.2499999999999,105.92378472222222C821.6666666666665,105.92245370370371,824.0833333333333,105.92112268518518,826.4999999999999,105.91979166666667C828.9166666666665,105.91846064814816,831.3333333333333,105.91712962962963,833.7499999999999,105.91579861111111C836.1666666666665,105.9144675925926,838.5833333333333,105.91313657407406,840.9999999999999,105.91180555555555C843.4166666666666,105.91047453703702,845.8333333333333,105.9091435185185,848.25,105.90781249999999C850.6666666666666,105.90648148148148,853.0833333333334,105.90515046296295,855.5,105.90381944444444C857.9166666666666,105.90248842592592,860.3333333333334,105.9011574074074,862.75,105.89982638888888C865.1666666666666,105.89849537037037,867.5833333333334,105.89716435185184,870,105.89583333333333C872.4166666666666,105.89450231481482,874.8333333333334,105.89317129629629,877.25,105.89184027777777C879.6666666666666,105.89050925925926,882.0833333333334,105.88917824074075,884.5,105.88784722222223C886.9166666666666,105.88651620370372,889.3333333333334,105.88518518518518,891.75,105.88385416666667C894.1666666666666,105.88252314814815,896.5833333333334,105.88119212962962,899,105.87986111111111C901.4166666666666,105.8785300925926,903.8333333333334,105.87719907407407,906.25,105.87586805555556C908.6666666666666,105.87453703703704,911.0833333333334,105.87320601851852,913.5,105.871875C915.9166666666666,105.87054398148149,918.3333333333334,105.86921296296296,920.75,105.86788194444445C923.1666666666666,105.86655092592594,925.5833333333334,105.86521990740741,928,105.8638888888889C930.4166666666666,105.86255787037038,932.8333333333334,105.86122685185185,935.25,105.85989583333334C937.6666666666666,105.85856481481483,940.0833333333334,105.85723379629628,942.5,105.85590277777777C944.9166666666666,105.85457175925926,947.3333333333334,105.85324074074073,949.75,105.85190972222222C952.1666666666666,105.8505787037037,954.5833333333334,105.84924768518518,957,105.84791666666666C959.4166666666666,105.84658564814815,961.8333333333334,105.84525462962962,964.25,105.84392361111111C966.6666666666667,105.8425925925926,969.0833333333334,105.84126157407407,971.5000000000001,105.83993055555555C973.9166666666667,105.83859953703704,976.3333333333335,105.83726851851851,978.7500000000001,105.8359375C981.1666666666667,105.83460648148149,983.5833333333335,105.83327546296296,986.0000000000001,105.83194444444445C988.4166666666667,105.83061342592593,990.8333333333335,105.82928240740742,993.2500000000001,105.82795138888889C995.6666666666667,105.82662037037038,998.0833333333333,105.82528935185184,1000.4999999999999,105.82395833333332C1002.9166666666665,105.82262731481481,1005.3333333333333,105.8212962962963,1007.7499999999999,105.81996527777778C1010.1666666666665,105.81863425925927,1012.5833333333333,105.81730324074073,1014.9999999999999,105.81597222222221C1017.4166666666665,105.8146412037037,1019.8333333333333,105.81331018518519,1022.2499999999999,105.81197916666667C1024.6666666666665,105.81064814814816,1027.0833333333333,105.80931712962963,1029.5,105.80798611111112C1031.9166666666667,105.8066550925926,1034.3333333333333,105.80532407407408,1036.75,105.80399305555557C1039.1666666666667,105.80266203703705,1041.5833333333333,105.80133101851852,1044,105.80000000000001C1046.4166666666667,105.7986689814815,1048.8333333333333,105.79733796296296,1051.25,105.79600694444444C1053.6666666666667,105.79467592592593,1056.0833333333333,105.7933449074074,1058.5,105.79201388888889C1060.9166666666667,105.79068287037038,1063.3333333333333,105.78935185185185,1065.75,105.78802083333333C1068.1666666666667,105.78668981481482,1070.5833333333333,105.7853587962963,1073,105.78402777777778C1075.4166666666667,105.78269675925927,1077.8333333333333,105.78136574074074,1080.25,105.78003472222223C1082.6666666666667,105.77870370370371,1085.0833333333333,105.77737268518518,1087.5,105.77604166666667C1089.9166666666667,105.77471064814816,1092.3333333333333,105.77337962962963,1094.75,105.77204861111112C1097.1666666666667,105.7707175925926,1099.5833333333333,105.76938657407406,1102,105.76805555555555C1104.4166666666667,105.76672453703704,1106.8333333333333,105.76539351851851,1109.25,105.7640625C1111.6666666666667,105.76273148148148,1114.0833333333333,105.76140046296295,1116.5,105.76006944444444C1118.9166666666667,105.75873842592593,1121.3333333333333,105.7574074074074,1123.75,105.75607638888889C1126.1666666666667,105.75474537037037,1128.5833333333333,105.75341435185184,1131,105.75208333333333C1133.4166666666667,105.75075231481482,1135.8333333333333,105.74942129629629,1138.25,105.74809027777778C1140.6666666666667,105.74675925925926,1143.0833333333333,105.74542824074074,1145.5,105.74409722222222C1147.9166666666667,105.74276620370371,1150.3333333333333,105.74143518518518,1152.75,105.74010416666667C1155.1666666666667,105.73877314814816,1157.5833333333333,105.73744212962961,1160,105.7361111111111C1162.4166666666667,105.73478009259259,1164.8333333333333,105.73344907407406,1167.25,105.73211805555555C1169.6666666666667,105.73078703703703,1172.0833333333333,105.72945601851852,1174.5,105.728125C1176.9166666666667,105.72679398148149,1179.3333333333333,105.72546296296295,1181.75,105.72413194444444C1184.1666666666667,105.72280092592592,1186.5833333333333,105.72146990740741,1189,105.7201388888889C1191.4166666666667,105.71880787037038,1193.8333333333333,105.71747685185186,1196.25,105.71614583333334C1198.6666666666667,105.71481481481483,1201.0833333333333,105.7134837962963,1203.5,105.71215277777779C1205.9166666666667,105.71082175925928,1208.3333333333333,105.70949074074073,1210.75,105.70815972222222C1213.1666666666667,105.7068287037037,1215.5833333333333,105.70549768518518,1218,105.70416666666667C1220.4166666666667,105.70283564814815,1222.8333333333333,105.70150462962962,1225.25,105.70017361111111C1227.6666666666667,105.6988425925926,1230.0833333333333,105.69751157407407,1232.5,105.69618055555556C1234.9166666666667,105.69484953703704,1237.3333333333333,105.69351851851852,1239.75,105.6921875C1242.1666666666667,105.69085648148149,1244.5833333333333,105.68952546296296,1247,105.68819444444445C1249.4166666666667,105.68686342592594,1251.8333333333333,105.68553240740741,1254.25,105.6842013888889C1256.6666666666667,105.68287037037038,1259.0833333333333,105.68153935185184,1261.5,105.68020833333333C1263.9166666666667,105.67887731481481,1266.3333333333333,105.67754629629628,1268.75,105.67621527777777C1271.1666666666667,105.67488425925926,1273.5833333333333,105.67355324074073,1276,105.67222222222222C1278.4166666666667,105.6708912037037,1280.8333333333333,105.66956018518518,1283.25,105.66822916666666C1285.6666666666667,105.66689814814815,1288.0833333333333,105.66556712962962,1290.5,105.66423611111111C1292.9166666666667,105.6629050925926,1295.3333333333333,105.66157407407407,1297.75,105.66024305555555C1300.1666666666667,105.65891203703704,1302.5833333333333,105.65891203703704,1305,105.65625C1307.4166666666667,105.65358796296296,1309.8333333333333,102.78125,1312.25,101.34375C1314.6666666666667,99.90625,1317.0833333333333,98.46875,1319.5,97.03125C1321.9166666666667,95.59375,1324.3333333333333,94.15625,1326.75,92.71875C1329.1666666666667,91.28125,1331.5833333333333,89.84375,1334,88.40625C1336.4166666666667,86.96875,1338.8333333333333,85.53125,1341.25,84.09375C1343.6666666666667,82.65625,1346.0833333333333,81.21875,1348.5,79.78125C1350.9166666666667,78.34375,1353.3333333333333,76.90625,1355.75,75.46875C1358.1666666666667,74.03125,1360.5833333333333,72.59375,1363,71.15625C1365.4166666666667,69.71875,1367.8333333333333,68.28125,1370.25,66.84375C1372.6666666666667,65.40625,1375.0833333333333,63.96874999999999,1377.5,62.53124999999999C1379.9166666666667,61.09374999999999,1382.3333333333333,59.65625,1384.75,58.21875C1387.1666666666667,56.78125,1389.5833333333333,55.34375,1392,53.90625C1394.4166666666667,52.46875,1396.8333333333333,51.03125,1399.25,49.59375C1401.6666666666667,48.15625,1404.0833333333333,46.71875000000001,1406.5,45.28125000000001C1408.9166666666667,43.84375000000001,1411.3333333333333,42.40625,1413.75,40.96874999999999C1416.1666666666667,39.531249999999986,1418.5833333333333,38.093749999999986,1421,36.656249999999986C1423.4166666666667,35.218749999999986,1425.8333333333333,33.781250000000014,1428.25,32.343750000000014C1430.6666666666667,30.906250000000018,1433.0833333333333,29.468750000000004,1435.5,28.031250000000004C1437.9166666666667,26.593750000000004,1440.3333333333333,25.156250000000004,1442.75,23.718750000000004C1445.1666666666667,22.281250000000004,1447.5833333333333,20.84375,1450,19.406249999999996" fill="transparent" stroke-linecap="round" stroke="#E7C6DF" stroke-width="2"></path><g class="visx-group visx-axis visx-axis-bottom" transform="translate(0, 115)"><g class="visx-group visx-axis-tick" transform="translate(0, 0)"><line class="visx-line" x1="0" y1="0" x2="0" y2="8" fill="transparent" shape-rendering="crispEdges" stroke="#000" stroke-width="0" stroke-linecap="square"></line><svg x="0" y="0" font-size="10" style="overflow:visible"><text transform="" x="0" y="18" fill="#000" font-size="10" text-anchor="middle"><tspan x="0" dy="0em">0%</tspan></text></svg></g><g class="visx-group visx-axis-tick" transform="translate(0, 0)"><line class="visx-line" x1="362.5" y1="0" x2="362.5" y2="8" fill="transparent" shape-rendering="crispEdges" stroke="#000" stroke-width="0" stroke-linecap="square"></line><svg x="0" y="0" font-size="10" style="overflow:visible"><text transform="" x="362.5" y="18" fill="#000" font-size="10" text-anchor="middle"><tspan x="362.5" dy="0em">25%</tspan></text></svg></g><g class="visx-group visx-axis-tick" transform="translate(0, 0)"><line class="visx-line" x1="725" y1="0" x2="725" y2="8" fill="transparent" shape-rendering="crispEdges" stroke="#000" stroke-width="0" stroke-linecap="square"></line><svg x="0" y="0" font-size="10" style="overflow:visible"><text transform="" x="725" y="18" fill="#000" font-size="10" text-anchor="middle"><tspan x="725" dy="0em">50%</tspan></text></svg></g><g class="visx-group visx-axis-tick" transform="translate(0, 0)"><line class="visx-line" x1="1087.5" y1="0" x2="1087.5" y2="8" fill="transparent" shape-rendering="crispEdges" stroke="#000" stroke-width="0" stroke-linecap="square"></line><svg x="0" y="0" font-size="10" style="overflow:visible"><text transform="" x="1087.5" y="18" fill="#000" font-size="10" text-anchor="middle"><tspan x="1087.5" dy="0em">75%</tspan></text></svg></g><g class="visx-group visx-axis-tick" transform="translate(0, 0)"><line class="visx-line" x1="1450" y1="0" x2="1450" y2="8" fill="transparent" shape-rendering="crispEdges" stroke="#000" stroke-width="0" stroke-linecap="square"></line><svg x="0" y="0" font-size="10" style="overflow:visible"><text transform="" x="1450" y="18" fill="#000" font-size="10" text-anchor="middle"><tspan x="1450" dy="0em">100%</tspan></text></svg></g><line class="visx-line visx-axis-line" x1="0.5" y1="0" x2="1450.5" y2="0" fill="transparent" shape-rendering="crispEdges" stroke="#222" stroke-width="0"></line></g><g class="visx-group visx-axis visx-axis-left" transform="translate(0, 0)"><g class="visx-group visx-axis-tick" transform="translate(0, 0)"><line class="visx-line" x1="0" y1="115" x2="-8" y2="115" fill="transparent" shape-rendering="crispEdges" stroke="#222" stroke-width="0" stroke-linecap="square"></line><svg x="-30" y="0" font-size="8" style="overflow:visible"><text transform="" x="-8" y="115" fill="#000" font-size="8" text-anchor="start"><tspan x="-8" dy="0em">0%</tspan></text></svg></g><g class="visx-group visx-axis-tick" transform="translate(0, 0)"><line class="visx-line" x1="0" y1="43.125" x2="-8" y2="43.125" fill="transparent" shape-rendering="crispEdges" stroke="#222" stroke-width="0" stroke-linecap="square"></line><svg x="-30" y="0" font-size="8" style="overflow:visible"><text transform="" x="-8" y="43.125" fill="#000" font-size="8" text-anchor="start"><tspan x="-8" dy="0em">50%</tspan></text></svg></g><line class="visx-line visx-axis-line" x1="0" y1="115.5" x2="0" y2="0.5" fill="transparent" shape-rendering="crispEdges" stroke="#222" stroke-width="0"></line></g><rect class="visx-bar" width="1450" height="115" fill="transparent"></rect><line class="visx-line" x1="1305" y1="28" x2="1305" y2="115" fill="transparent" shape-rendering="crispEdges" stroke="#0062D2" stroke-width="1" pointer-events="none" stroke-dasharray="5,2"></line><svg x="0" y="0" font-size="10px" style="overflow:visible"><text transform="" x="1305" y="20" font-size="10px" fill="#fff" stroke="#fff" stroke-width="0.8em" text-anchor="middle"><tspan x="1305" dy="0.355em">Optimal 90%</tspan></text></svg><svg x="0" y="0" font-size="10px" style="overflow:visible"><text transform="" x="1305" y="20" font-size="10px" fill="#62677B" text-anchor="middle"><tspan x="1305" dy="0.355em">Optimal 90%</tspan></text></svg></g></svg>