<?xml version="1.0"?><svg xmlns="http://www.w3.org/2000/svg" xmlns:xlink= "http://www.w3.org/1999/xlink" style="background: white;" width="1500" height="300"> <g style="color: black; font-size: 13px; font-family: sans-serif; transform: translate(18px, 25px);"><g><circle r="3" cx="-6" cy="-5" style="fill: #1AD4B3" /><text>Borrow APR, variable</text></g><g style="transform: translateX(150px);"><circle r="3" cx="-6" cy="-5" style="fill: #101423" /><text>Borrow APR, stable</text></g></g><g class="visx-group" transform="translate(45, 50)"><g class="visx-group visx-rows" transform="translate(0, 0)"><line class="visx-line" x1="0" y1="155" x2="1425" y2="155" fill="transparent" shape-rendering="crispEdges" stroke="#F2F0F9" stroke-width="1" pointer-events="none"></line><line class="visx-line" x1="0" y1="110.71428571428572" x2="1425" y2="110.71428571428572" fill="transparent" shape-rendering="crispEdges" stroke="#F2F0F9" stroke-width="1" pointer-events="none"></line><line class="visx-line" x1="0" y1="66.42857142857143" x2="1425" y2="66.42857142857143" fill="transparent" shape-rendering="crispEdges" stroke="#F2F0F9" stroke-width="1" pointer-events="none"></line><line class="visx-line" x1="0" y1="22.14285714285715" x2="1425" y2="22.14285714285715" fill="transparent" shape-rendering="crispEdges" stroke="#F2F0F9" stroke-width="1" pointer-events="none"></line></g><path class="visx-linepath" d="M0,154.9999999999455C2.375,154.99091575088394,4.75,154.9818315018224,7.125,154.97274725274724C9.5,154.96366300367208,11.875,154.95457875457876,14.25,154.9454945054945C16.625,154.93641025641026,19,154.927326007326,21.375,154.91824175824175C23.75,154.9091575091575,26.125,154.90007326007327,28.5,154.89098901098902C30.875,154.88190476190476,33.25,154.8728205128205,35.625,154.86373626373626C38,154.854652014652,40.375,154.84556776556778,42.75,154.83648351648353C45.125,154.82739926739927,47.50000000000001,154.81831501831502,49.87500000000001,154.80923076923077C52.25000000000001,154.8001465201465,54.625,154.79106227106226,57,154.781978021978C59.375,154.77289377289375,61.75,154.76380952380953,64.125,154.75472527472527C66.5,154.74564102564102,68.875,154.73655677655677,71.25,154.72747252747251C73.625,154.71838827838826,76,154.70930402930404,78.375,154.70021978021978C80.75,154.69113553113553,83.125,154.68205128205128,85.5,154.67296703296702C87.875,154.66388278388277,90.25,154.65479853479854,92.625,154.6457142857143C95,154.63663003663004,97.37500000000001,154.62754578754578,99.75000000000001,154.61846153846153C102.12500000000001,154.60937728937728,104.5,154.60029304029305,106.875,154.5912087912088C109.25,154.58212454212455,111.625,154.5730402930403,114,154.56395604395604C116.375,154.5548717948718,118.75000000000001,154.54578754578756,121.12500000000001,154.5367032967033C123.50000000000001,154.52761904761905,125.875,154.5185347985348,128.25,154.50945054945055C130.625,154.5003663003663,133,154.49128205128207,135.375,154.48219780219782C137.75,154.47311355311356,140.125,154.4640293040293,142.5,154.45494505494506C144.875,154.4458608058608,147.25,154.43677655677658,149.625,154.42769230769233C152,154.41860805860807,154.375,154.40952380952382,156.75,154.40043956043957C159.125,154.3913553113553,161.5,154.38227106227106,163.875,154.3731868131868C166.25,154.36410256410255,168.625,154.35501831501833,171,154.34593406593407C173.375,154.33684981684982,175.75,154.32776556776557,178.125,154.3186813186813C180.5,154.30959706959706,182.875,154.30051282051284,185.25,154.29142857142858C187.625,154.28234432234433,190,154.27326007326008,192.375,154.26417582417582C194.75,154.25509157509157,197.12500000000003,154.24600732600734,199.50000000000003,154.2369230769231C201.875,154.22783882783884,204.25,154.21875457875458,206.62499999999997,154.20967032967033C208.99999999999997,154.20058608058608,211.375,154.19150183150182,213.75,154.18241758241757C216.125,154.17333333333332,218.5,154.1642490842491,220.875,154.15516483516484C223.25,154.1460805860806,225.625,154.13699633699633,228,154.12791208791208C230.375,154.11882783882783,232.75,154.1097435897436,235.125,154.10065934065935C237.5,154.0915750915751,239.87500000000003,154.08249084249084,242.25000000000003,154.0734065934066C244.625,154.06432234432233,247,154.0552380952381,249.37499999999997,154.04615384615386C251.74999999999997,154.0370695970696,254.125,154.02798534798535,256.5,154.0189010989011C258.875,154.00981684981684,261.25,154.0007326007326,263.625,153.99164835164834C266,153.98256410256408,268.375,153.97347985347986,270.75,153.9643956043956C273.125,153.95531135531135,275.5,153.9462271062271,277.875,153.93714285714285C280.25,153.9280586080586,282.625,153.91897435897437,285,153.9098901098901C287.375,153.90080586080586,289.75,153.8917216117216,292.125,153.88263736263735C294.5,153.8735531135531,296.875,153.86446886446885,299.25,153.8553846153846C301.625,153.84630036630034,304,153.83721611721612,306.375,153.82813186813186C308.75,153.8190476190476,311.125,153.80996336996338,313.5,153.80087912087913C315.875,153.79179487179488,318.25,153.78271062271062,320.625,153.77362637362637C323,153.76454212454212,325.375,153.7554578754579,327.75,153.74637362637364C330.125,153.7372893772894,332.5,153.72820512820513,334.875,153.71912087912088C337.25,153.71003663003663,339.625,153.7009523809524,342,153.69186813186815C344.375,153.6827838827839,346.75,153.67369963369964,349.125,153.6646153846154C351.5,153.65553113553113,353.875,153.64644688644688,356.25,153.63736263736263C358.625,153.62827838827837,361,153.61919413919415,363.375,153.6101098901099C365.75,153.60102564102564,368.125,153.5919413919414,370.5,153.58285714285714C372.875,153.57377289377288,375.25,153.56468864468866,377.625,153.5556043956044C380,153.54652014652015,382.375,153.5374358974359,384.75,153.52835164835165C387.125,153.5192673992674,389.50000000000006,153.51018315018317,391.87500000000006,153.5010989010989C394.25000000000006,153.49201465201466,396.62500000000006,153.4829304029304,399.00000000000006,153.47384615384615C401.375,153.4647619047619,403.75,153.45567765567765,406.12499999999994,153.4465934065934C408.49999999999994,153.43750915750914,410.87499999999994,153.42842490842492,413.24999999999994,153.41934065934066C415.62499999999994,153.4102564102564,418,153.40117216117216,420.375,153.3920879120879C422.75,153.38300366300365,425.125,153.37391941391942,427.5,153.36483516483517C429.875,153.35575091575092,432.25,153.34666666666666,434.625,153.3375824175824C437,153.32849816849816,439.375,153.31941391941393,441.75,153.31032967032968C444.125,153.30124542124543,446.5,153.29216117216117,448.875,153.28307692307692C451.25,153.27399267399267,453.625,153.2649084249084,456,153.25582417582416C458.375,153.2467399267399,460.75,153.23765567765568,463.125,153.22857142857143C465.5,153.21948717948717,467.875,153.21040293040292,470.25,153.20131868131867C472.625,153.19223443223441,475.00000000000006,153.1831501831502,477.37500000000006,153.17406593406594C479.75000000000006,153.16498168498168,482.12500000000006,153.15589743589743,484.50000000000006,153.14681318681318C486.875,153.13772893772892,489.25,153.1286446886447,491.62499999999994,153.11956043956044C493.99999999999994,153.1104761904762,496.37499999999994,153.10139194139194,498.74999999999994,153.09230769230768C501.12499999999994,153.08322344322343,503.5,153.07413919413918,505.875,153.06505494505492C508.25,153.05597069597067,510.625,153.04688644688645,513,153.0378021978022C515.375,153.02871794871794,517.75,153.01963369963372,520.125,153.01054945054946C522.5,153.0014652014652,524.875,152.99238095238096,527.25,152.9832967032967C529.625,152.97421245421245,532,152.96512820512822,534.375,152.95604395604397C536.75,152.94695970695972,539.125,152.93787545787546,541.5,152.9287912087912C543.875,152.91970695970696,546.25,152.91062271062273,548.625,152.90153846153848C551,152.89245421245423,553.375,152.88336996336997,555.75,152.87428571428572C558.125,152.86520146520147,560.5,152.8561172161172,562.875,152.84703296703296C565.25,152.8379487179487,567.625,152.82886446886448,570,152.81978021978023C572.375,152.81069597069597,574.75,152.80161172161172,577.125,152.79252747252747C579.5,152.78344322344321,581.875,152.774358974359,584.25,152.76527472527474C586.625,152.75619047619048,589,152.74710622710623,591.375,152.73802197802198C593.75,152.72893772893772,596.125,152.7198534798535,598.5,152.71076923076924C600.875,152.701684981685,603.25,152.69260073260074,605.625,152.68351648351648C608,152.67443223443223,610.375,152.66534798534798,612.75,152.65626373626372C615.125,152.64717948717947,617.5,152.63809523809525,619.875,152.629010989011C622.25,152.61992673992674,624.625,152.6108424908425,627,152.60175824175823C629.375,152.59267399267398,631.75,152.58358974358976,634.125,152.5745054945055C636.5,152.56542124542125,638.875,152.556336996337,641.25,152.54725274725274C643.625,152.5381684981685,646,152.52908424908426,648.375,152.52C650.75,152.51091575091576,653.125,152.5018315018315,655.5,152.49274725274725C657.875,152.483663003663,660.25,152.47457875457874,662.625,152.4654945054945C665,152.45641025641024,667.375,152.447326007326,669.75,152.43824175824176C672.125,152.4291575091575,674.5,152.42007326007325,676.875,152.410989010989C679.25,152.40190476190475,681.625,152.39282051282052,684,152.38373626373627C686.375,152.374652014652,688.75,152.36556776556776,691.125,152.3564835164835C693.5,152.34739926739925,695.875,152.33831501831503,698.25,152.32923076923078C700.625,152.32014652014652,703,152.31106227106227,705.375,152.30197802197802C707.75,152.29289377289376,710.125,152.2838095238095,712.5,152.27472527472526C714.875,152.265641025641,717.25,152.25655677655678,719.625,152.24747252747252C722,152.23838827838827,724.375,152.22930402930405,726.75,152.2202197802198C729.125,152.21113553113554,731.5,152.2020512820513,733.875,152.19296703296703C736.25,152.18388278388278,738.625,152.17479853479855,741,152.1657142857143C743.375,152.15663003663005,745.75,152.1475457875458,748.125,152.13846153846154C750.5,152.1293772893773,752.875,152.12029304029306,755.25,152.1112087912088C757.625,152.10212454212456,760,152.0930402930403,762.375,152.08395604395605C764.75,152.0748717948718,767.125,152.06578754578754,769.5,152.0567032967033C771.875,152.04761904761904,774.2500000000001,152.0385347985348,776.6250000000001,152.02945054945056C779.0000000000001,152.0203663003663,781.3750000000001,152.01128205128205,783.7500000000001,152.0021978021978C786.1250000000001,151.99311355311355,788.5000000000001,151.98402930402932,790.8750000000001,151.97494505494507C793.2500000000001,151.9658608058608,795.6250000000001,151.95677655677656,798.0000000000001,151.9476923076923C800.375,151.93860805860805,802.75,151.92952380952383,805.1249999999999,151.92043956043958C807.4999999999999,151.91135531135532,809.8749999999999,151.90227106227107,812.2499999999999,151.89318681318682C814.6249999999999,151.88410256410256,816.9999999999999,151.8750183150183,819.3749999999999,151.86593406593406C821.7499999999999,151.8568498168498,824.1249999999999,151.84776556776558,826.4999999999999,151.83868131868132C828.8749999999999,151.82959706959707,831.25,151.82051282051282,833.625,151.81142857142856C836,151.8023443223443,838.375,151.7932600732601,840.75,151.78417582417583C843.125,151.77509157509158,845.5,151.76600732600733,847.875,151.75692307692307C850.25,151.74783882783882,852.625,151.7387545787546,855,151.72967032967034C857.375,151.7205860805861,859.75,151.71150183150183,862.125,151.70241758241758C864.5,151.69333333333333,866.875,151.68424908424907,869.25,151.67516483516482C871.625,151.66608058608057,874,151.65699633699634,876.375,151.6479120879121C878.75,151.63882783882784,881.125,151.62974358974358,883.5,151.62065934065933C885.875,151.61157509157508,888.25,151.60249084249085,890.625,151.5934065934066C893,151.58432234432235,895.375,151.5752380952381,897.75,151.56615384615384C900.125,151.55706959706959,902.5,151.54798534798533,904.875,151.53890109890108C907.25,151.52981684981683,909.625,151.5207326007326,912,151.51164835164835C914.375,151.5025641025641,916.75,151.49347985347984,919.125,151.4843956043956C921.5,151.47531135531133,923.875,151.47531135531133,926.25,151.45714285714286C928.625,151.43897435897438,931,150.19183673469388,933.375,149.5591836734694C935.75,148.9265306122449,938.125,148.29387755102042,940.5,147.66122448979593C942.875,147.02857142857144,945.25,146.39591836734692,947.625,145.76326530612243C950,145.13061224489795,952.3750000000001,144.49795918367346,954.7500000000001,143.86530612244897C957.1250000000001,143.23265306122448,959.5000000000001,142.6,961.8750000000001,141.9673469387755C964.2500000000001,141.33469387755102,966.6250000000001,140.70204081632653,969.0000000000001,140.06938775510204C971.3750000000001,139.43673469387755,973.7500000000001,138.80408163265307,976.1250000000001,138.17142857142858C978.5,137.5387755102041,980.875,136.9061224489796,983.2499999999999,136.2734693877551C985.6249999999999,135.6408163265306,987.9999999999999,135.0081632653061,990.3749999999999,134.37551020408162C992.7499999999999,133.74285714285713,995.1249999999999,133.11020408163265,997.4999999999999,132.47755102040816C999.8749999999999,131.84489795918367,1002.2499999999999,131.21224489795918,1004.6249999999999,130.5795918367347C1006.9999999999999,129.9469387755102,1009.375,129.31428571428572,1011.75,128.68163265306123C1014.125,128.04897959183674,1016.5,127.41632653061225,1018.875,126.78367346938776C1021.25,126.15102040816328,1023.625,125.51836734693877,1026,124.88571428571429C1028.375,124.2530612244898,1030.75,123.6204081632653,1033.125,122.98775510204081C1035.5,122.35510204081632,1037.875,121.72244897959185,1040.25,121.08979591836736C1042.625,120.45714285714287,1045,119.82448979591837,1047.375,119.19183673469388C1049.75,118.55918367346939,1052.125,117.92653061224489,1054.5,117.2938775510204C1056.875,116.66122448979591,1059.25,116.02857142857144,1061.625,115.39591836734695C1064,114.76326530612246,1066.375,114.13061224489795,1068.75,113.49795918367346C1071.125,112.86530612244897,1073.5,112.23265306122448,1075.875,111.6C1078.25,110.9673469387755,1080.625,110.33469387755103,1083,109.70204081632654C1085.375,109.06938775510206,1087.75,108.43673469387757,1090.125,107.80408163265308C1092.5,107.17142857142859,1094.875,106.53877551020408,1097.25,105.90612244897959C1099.625,105.2734693877551,1102,104.64081632653063,1104.375,104.00816326530614C1106.75,103.37551020408165,1109.125,102.74285714285713,1111.5,102.11020408163265C1113.875,101.47755102040816,1116.25,100.84489795918367,1118.625,100.21224489795918C1121,99.57959183673469,1123.375,98.9469387755102,1125.75,98.31428571428572C1128.125,97.68163265306123,1130.5,97.04897959183671,1132.875,96.41632653061222C1135.25,95.78367346938774,1137.625,95.15102040816326,1140,94.51836734693877C1142.375,93.88571428571429,1144.75,93.2530612244898,1147.125,92.62040816326531C1149.5,91.98775510204082,1151.875,91.35510204081633,1154.25,90.72244897959185C1156.625,90.08979591836736,1159,89.45714285714286,1161.375,88.82448979591837C1163.75,88.19183673469388,1166.125,87.55918367346938,1168.5,86.92653061224489C1170.875,86.2938775510204,1173.25,85.66122448979593,1175.625,85.02857142857144C1178,84.39591836734695,1180.375,83.76326530612245,1182.75,83.13061224489796C1185.125,82.49795918367347,1187.5,81.86530612244897,1189.875,81.23265306122448C1192.25,80.6,1194.625,79.96734693877549,1197,79.334693877551C1199.375,78.70204081632652,1201.75,78.06938775510204,1204.125,77.43673469387755C1206.5,76.80408163265307,1208.875,76.17142857142858,1211.25,75.53877551020409C1213.625,74.9061224489796,1216,74.27346938775509,1218.375,73.6408163265306C1220.75,73.00816326530611,1223.125,72.37551020408164,1225.5,71.74285714285715C1227.875,71.11020408163266,1230.25,70.47755102040817,1232.625,69.84489795918368C1235,69.2122448979592,1237.375,68.57959183673468,1239.75,67.94693877551019C1242.125,67.3142857142857,1244.5,66.68163265306124,1246.875,66.04897959183675C1249.25,65.41632653061227,1251.625,64.78367346938776,1254,64.15102040816326C1256.375,63.51836734693877,1258.75,62.88571428571427,1261.125,62.253061224489784C1263.5,61.620408163265296,1265.875,60.987755102040815,1268.25,60.35510204081633C1270.625,59.72244897959184,1273,59.089795918367344,1275.375,58.457142857142856C1277.75,57.82448979591837,1280.125,57.19183673469388,1282.5,56.55918367346939C1284.875,55.9265306122449,1287.25,55.293877551020415,1289.625,54.66122448979592C1292,54.028571428571425,1294.375,53.39591836734693,1296.75,52.76326530612244C1299.125,52.130612244897954,1301.5,51.49795918367347,1303.875,50.865306122448985C1306.25,50.2326530612245,1308.625,49.60000000000001,1311,48.96734693877551C1313.375,48.33469387755102,1315.75,47.70204081632652,1318.125,47.069387755102035C1320.5,46.43673469387755,1322.875,45.804081632653066,1325.25,45.17142857142858C1327.625,44.53877551020409,1330,43.906122448979595,1332.375,43.27346938775511C1334.75,42.64081632653062,1337.125,42.00816326530614,1339.5,41.37551020408165C1341.875,40.74285714285716,1344.25,40.11020408163266,1346.625,39.47755102040817C1349,38.84489795918368,1351.375,38.21224489795921,1353.75,37.579591836734714C1356.125,36.94693877551022,1358.5,36.31428571428572,1360.875,35.68163265306122C1363.25,35.048979591836726,1365.625,34.41632653061224,1368,33.78367346938775C1370.375,33.15102040816326,1372.75,32.51836734693878,1375.125,31.88571428571429C1377.5,31.2530612244898,1379.875,30.620408163265303,1382.25,29.987755102040815C1384.625,29.355102040816327,1387,28.722448979591846,1389.375,28.089795918367358C1391.75,27.45714285714287,1394.125,26.824489795918378,1396.5,26.191836734693883C1398.875,25.559183673469388,1401.25,24.926530612244882,1403.625,24.29387755102039C1406,23.6612244897959,1408.375,23.028571428571418,1410.75,22.395918367346933C1413.125,21.76326530612245,1415.5,21.13061224489798,1417.875,20.49795918367349C1420.25,19.865306122449002,1422.625,19.2326530612245,1425,18.599999999999998" fill="transparent" stroke-linecap="round" stroke="#1AD4B3" stroke-width="2"></path><g class="visx-group visx-axis visx-axis-bottom" transform="translate(0, 155)"><g class="visx-group visx-axis-tick" transform="translate(0, 0)"><line class="visx-line" x1="0" y1="0" x2="0" y2="8" fill="transparent" shape-rendering="crispEdges" stroke="#F2F0F9" stroke-width="1" stroke-linecap="square"></line><svg x="0" y="0" font-size="11" style="overflow:visible"><text transform="" x="0" y="19" fill="#1B2030" font-size="11" text-anchor="middle"><tspan x="0" dy="0em">0%</tspan></text></svg></g><g class="visx-group visx-axis-tick" transform="translate(0, 0)"><line class="visx-line" x1="356.25" y1="0" x2="356.25" y2="8" fill="transparent" shape-rendering="crispEdges" stroke="#F2F0F9" stroke-width="1" stroke-linecap="square"></line><svg x="0" y="0" font-size="11" style="overflow:visible"><text transform="" x="356.25" y="19" fill="#1B2030" font-size="11" text-anchor="middle"><tspan x="356.25" dy="0em">25%</tspan></text></svg></g><g class="visx-group visx-axis-tick" transform="translate(0, 0)"><line class="visx-line" x1="712.5" y1="0" x2="712.5" y2="8" fill="transparent" shape-rendering="crispEdges" stroke="#F2F0F9" stroke-width="1" stroke-linecap="square"></line><svg x="0" y="0" font-size="11" style="overflow:visible"><text transform="" x="712.5" y="19" fill="#1B2030" font-size="11" text-anchor="middle"><tspan x="712.5" dy="0em">50%</tspan></text></svg></g><g class="visx-group visx-axis-tick" transform="translate(0, 0)"><line class="visx-line" x1="1068.75" y1="0" x2="1068.75" y2="8" fill="transparent" shape-rendering="crispEdges" stroke="#F2F0F9" stroke-width="1" stroke-linecap="square"></line><svg x="0" y="0" font-size="11" style="overflow:visible"><text transform="" x="1068.75" y="19" fill="#1B2030" font-size="11" text-anchor="middle"><tspan x="1068.75" dy="0em">75%</tspan></text></svg></g><g class="visx-group visx-axis-tick" transform="translate(0, 0)"><line class="visx-line" x1="1425" y1="0" x2="1425" y2="8" fill="transparent" shape-rendering="crispEdges" stroke="#F2F0F9" stroke-width="1" stroke-linecap="square"></line><svg x="0" y="0" font-size="11" style="overflow:visible"><text transform="" x="1425" y="19" fill="#1B2030" font-size="11" text-anchor="middle"><tspan x="1425" dy="0em">100%</tspan></text></svg></g></g><g class="visx-group visx-axis visx-axis-left" transform="translate(0, 0)"><g class="visx-group visx-axis-tick" transform="translate(0, 0)"><line class="visx-line" x1="0" y1="155" x2="-8" y2="155" fill="transparent" shape-rendering="crispEdges" stroke="#F2F0F9" stroke-width="1" stroke-linecap="square"></line><svg x="-30" y="0" font-size="11" style="overflow:visible"><text transform="" x="-8" y="155" fill="#1B2030" font-size="11" text-anchor="start"><tspan x="-8" dy="0em">0%</tspan></text></svg></g><g class="visx-group visx-axis-tick" transform="translate(0, 0)"><line class="visx-line" x1="0" y1="110.71428571428572" x2="-8" y2="110.71428571428572" fill="transparent" shape-rendering="crispEdges" stroke="#F2F0F9" stroke-width="1" stroke-linecap="square"></line><svg x="-30" y="0" font-size="11" style="overflow:visible"><text transform="" x="-8" y="110.71428571428572" fill="#1B2030" font-size="11" text-anchor="start"><tspan x="-8" dy="0em">100%</tspan></text></svg></g><g class="visx-group visx-axis-tick" transform="translate(0, 0)"><line class="visx-line" x1="0" y1="66.42857142857143" x2="-8" y2="66.42857142857143" fill="transparent" shape-rendering="crispEdges" stroke="#F2F0F9" stroke-width="1" stroke-linecap="square"></line><svg x="-30" y="0" font-size="11" style="overflow:visible"><text transform="" x="-8" y="66.42857142857143" fill="#1B2030" font-size="11" text-anchor="start"><tspan x="-8" dy="0em">200%</tspan></text></svg></g><g class="visx-group visx-axis-tick" transform="translate(0, 0)"><line class="visx-line" x1="0" y1="22.14285714285715" x2="-8" y2="22.14285714285715" fill="transparent" shape-rendering="crispEdges" stroke="#F2F0F9" stroke-width="1" stroke-linecap="square"></line><svg x="-30" y="0" font-size="11" style="overflow:visible"><text transform="" x="-8" y="22.14285714285715" fill="#1B2030" font-size="11" text-anchor="start"><tspan x="-8" dy="0em">300%</tspan></text></svg></g><line class="visx-line visx-axis-line" x1="0" y1="155.5" x2="0" y2="0.5" fill="transparent" shape-rendering="crispEdges" stroke="#F2F0F9" stroke-width="1"></line></g><rect class="visx-bar" width="1425" height="155" fill="transparent"></rect><line class="visx-line" x1="926.25" y1="58" x2="926.25" y2="155" fill="transparent" shape-rendering="crispEdges" stroke="#CDC8E1" stroke-width="1" pointer-events="none" stroke-dasharray="5"></line><svg x="0" y="0" font-size="11px" style="overflow:visible"><text transform="" x="926.25" y="50" font-size="11px" fill="#555069" stroke="#FFFFFF" stroke-width="1px" text-anchor="middle"><tspan x="926.25" dy="0.355em">Optimal utilization 65%</tspan></text></svg><svg x="0" y="0" font-size="11px" style="overflow:visible"><text transform="" x="926.25" y="50" font-size="11px" fill="#CDC8E1" text-anchor="middle"><tspan x="926.25" dy="0.355em">Optimal utilization 65%</tspan></text></svg></g></svg>