<?xml version="1.0"?><svg xmlns="http://www.w3.org/2000/svg" xmlns:xlink= "http://www.w3.org/1999/xlink" style="background: white;" width="1500" height="185"> <g style="color: black; font-size: 13px; font-family: sans-serif; transform: translate(18px, 25px);"><g><circle r="3" cx="-6" cy="-5" style="fill: #B6509E" /><text>Borrow APR, variable</text></g><g style="transform: translateX(150px);"><circle r="3" cx="-6" cy="-5" style="fill: rgb(231, 198, 223)" /><text>Borrow APR, stable</text></g><g style="transform: translateX(290px);"><circle r="3" cx="-6" cy="-5" style="fill: rgb(0, 98, 210)" /><text>Utilization Rate</text></g></g><g class="visx-group" transform="translate(40, 50)"><g class="visx-group visx-rows" transform="translate(0, 0)"><line class="visx-line" x1="0" y1="115" x2="1450" y2="115" fill="transparent" shape-rendering="crispEdges" stroke="#000" stroke-width="1" stroke-dasharray="3,3" pointer-events="none"></line><line class="visx-line" x1="0" y1="57.5" x2="1450" y2="57.5" fill="transparent" shape-rendering="crispEdges" stroke="#000" stroke-width="1" stroke-dasharray="3,3" pointer-events="none"></line><line class="visx-line" x1="0" y1="0" x2="1450" y2="0" fill="transparent" shape-rendering="crispEdges" stroke="#000" stroke-width="1" stroke-dasharray="3,3" pointer-events="none"></line></g><path class="visx-linepath" d="M0,114.99999999995974C2.4166666666666665,114.99329166664317,4.833333333333334,114.98658333332662,7.25,114.97987499999999C9.666666666666666,114.97316666667336,12.083333333333334,114.96645833333334,14.5,114.95975C16.916666666666668,114.95304166666666,19.333333333333332,114.94633333333334,21.75,114.939625C24.166666666666668,114.93291666666667,26.583333333333332,114.92620833333334,29,114.9195C31.416666666666668,114.91279166666666,33.833333333333336,114.90608333333334,36.25,114.899375C38.666666666666664,114.89266666666667,41.083333333333336,114.88595833333333,43.5,114.87925C45.91666666666667,114.87254166666666,48.333333333333336,114.86583333333333,50.75000000000001,114.85912499999999C53.16666666666667,114.85241666666666,55.583333333333336,114.84570833333333,58,114.839C60.416666666666664,114.83229166666666,62.833333333333336,114.82558333333334,65.25,114.818875C67.66666666666667,114.81216666666667,70.08333333333333,114.80545833333333,72.5,114.79875C74.91666666666667,114.79204166666666,77.33333333333333,114.78533333333334,79.75,114.778625C82.16666666666667,114.77191666666667,84.58333333333333,114.76520833333333,87,114.7585C89.41666666666667,114.75179166666666,91.83333333333333,114.74508333333333,94.25,114.73837499999999C96.66666666666667,114.73166666666665,99.08333333333334,114.72495833333335,101.50000000000001,114.71825000000001C103.91666666666667,114.71154166666668,106.33333333333334,114.70483333333334,108.75,114.698125C111.16666666666667,114.69141666666667,113.58333333333333,114.68470833333333,116,114.678C118.41666666666667,114.67129166666666,120.83333333333334,114.66458333333334,123.25000000000001,114.657875C125.66666666666667,114.65116666666667,128.08333333333334,114.64445833333333,130.5,114.63775C132.91666666666666,114.63104166666666,135.33333333333334,114.62433333333334,137.75,114.617625C140.16666666666666,114.61091666666667,142.58333333333334,114.60420833333335,145,114.59750000000001C147.41666666666666,114.59079166666668,149.83333333333334,114.58408333333334,152.25,114.577375C154.66666666666666,114.57066666666667,157.08333333333334,114.56395833333333,159.5,114.55725C161.91666666666666,114.55054166666666,164.33333333333334,114.54383333333334,166.75,114.537125C169.16666666666666,114.53041666666667,171.58333333333334,114.52370833333333,174,114.517C176.41666666666666,114.51029166666666,178.83333333333334,114.50358333333334,181.25,114.496875C183.66666666666666,114.49016666666667,186.08333333333334,114.48345833333333,188.5,114.47675C190.91666666666666,114.47004166666666,193.33333333333334,114.46333333333334,195.75,114.456625C198.16666666666669,114.44991666666667,200.58333333333334,114.44320833333333,203.00000000000003,114.4365C205.41666666666669,114.42979166666666,207.83333333333331,114.42308333333332,210.24999999999997,114.41637499999999C212.66666666666666,114.40966666666665,215.08333333333331,114.40295833333334,217.5,114.39625000000001C219.91666666666666,114.38954166666667,222.33333333333334,114.38283333333334,224.75,114.376125C227.16666666666666,114.36941666666667,229.58333333333334,114.36270833333333,232,114.356C234.41666666666666,114.34929166666666,236.83333333333334,114.34258333333334,239.25,114.335875C241.66666666666669,114.32916666666667,244.08333333333334,114.32245833333333,246.50000000000003,114.31575C248.91666666666669,114.30904166666666,251.33333333333331,114.30233333333334,253.74999999999997,114.295625C256.16666666666663,114.28891666666667,258.5833333333333,114.28220833333334,261,114.27550000000001C263.4166666666667,114.26879166666667,265.8333333333333,114.26208333333334,268.25,114.255375C270.6666666666667,114.24866666666667,273.0833333333333,114.24195833333333,275.5,114.23525C277.9166666666667,114.22854166666666,280.3333333333333,114.22183333333334,282.75,114.215125C285.1666666666667,114.20841666666666,287.5833333333333,114.20170833333333,290,114.195C292.4166666666667,114.18829166666666,294.8333333333333,114.18158333333334,297.25,114.174875C299.6666666666667,114.16816666666666,302.0833333333333,114.16145833333334,304.5,114.15475C306.9166666666667,114.14804166666667,309.3333333333333,114.14133333333334,311.75,114.134625C314.1666666666667,114.12791666666666,316.5833333333333,114.12120833333333,319,114.11449999999999C321.4166666666667,114.10779166666666,323.8333333333333,114.10108333333334,326.25,114.094375C328.6666666666667,114.08766666666666,331.0833333333333,114.08095833333334,333.5,114.07425C335.9166666666667,114.06754166666667,338.3333333333333,114.06083333333333,340.75,114.054125C343.1666666666667,114.04741666666666,345.5833333333333,114.04070833333334,348,114.034C350.4166666666667,114.02729166666667,352.8333333333333,114.02058333333333,355.25,114.013875C357.6666666666667,114.00716666666666,360.0833333333333,114.00045833333333,362.5,113.99374999999999C364.9166666666667,113.98704166666666,367.3333333333333,113.98033333333333,369.75,113.973625C372.1666666666667,113.96691666666666,374.5833333333333,113.96020833333334,377,113.9535C379.4166666666667,113.94679166666667,381.8333333333333,113.94008333333333,384.25,113.933375C386.6666666666667,113.92666666666666,389.0833333333333,113.91995833333334,391.5,113.91325C393.9166666666667,113.90654166666667,396.33333333333337,113.89983333333333,398.75000000000006,113.893125C401.16666666666674,113.88641666666666,403.58333333333337,113.87970833333333,406.00000000000006,113.87299999999999C408.4166666666667,113.86629166666665,410.8333333333333,113.85958333333335,413.24999999999994,113.85287500000001C415.66666666666663,113.84616666666668,418.08333333333326,113.83945833333334,420.49999999999994,113.83275C422.91666666666663,113.82604166666667,425.3333333333333,113.81933333333333,427.75,113.812625C430.1666666666667,113.80591666666666,432.5833333333333,113.79920833333334,435,113.7925C437.4166666666667,113.78579166666667,439.8333333333333,113.77908333333333,442.25,113.772375C444.6666666666667,113.76566666666666,447.0833333333333,113.75895833333334,449.5,113.75225C451.9166666666667,113.74554166666667,454.3333333333333,113.73883333333335,456.75,113.73212500000001C459.1666666666667,113.72541666666667,461.5833333333333,113.71870833333334,464,113.712C466.4166666666667,113.70529166666667,468.8333333333333,113.69858333333333,471.25,113.691875C473.6666666666667,113.68516666666666,476.0833333333333,113.67845833333334,478.5,113.67175C480.9166666666667,113.66504166666667,483.33333333333337,113.65833333333333,485.75000000000006,113.651625C488.16666666666674,113.64491666666666,490.58333333333337,113.63820833333334,493.00000000000006,113.6315C495.4166666666667,113.62479166666667,497.8333333333333,113.61808333333335,500.24999999999994,113.61137500000001C502.66666666666663,113.60466666666667,505.08333333333326,113.59795833333334,507.49999999999994,113.59125C509.91666666666663,113.58454166666667,512.3333333333333,113.57783333333333,514.75,113.571125C517.1666666666666,113.56441666666666,519.5833333333334,113.55770833333334,522,113.551C524.4166666666666,113.54429166666667,526.8333333333334,113.53758333333334,529.25,113.53087500000001C531.6666666666666,113.52416666666667,534.0833333333334,113.51745833333334,536.5,113.51075C538.9166666666666,113.50404166666667,541.3333333333334,113.49733333333333,543.75,113.490625C546.1666666666666,113.48391666666666,548.5833333333334,113.47720833333334,551,113.4705C553.4166666666666,113.46379166666667,555.8333333333334,113.45708333333333,558.25,113.450375C560.6666666666666,113.44366666666666,563.0833333333334,113.43695833333334,565.5,113.43025C567.9166666666666,113.42354166666667,570.3333333333334,113.41683333333334,572.75,113.41012500000001C575.1666666666666,113.40341666666667,577.5833333333334,113.39670833333334,580,113.39C582.4166666666666,113.38329166666666,584.8333333333334,113.37658333333333,587.25,113.369875C589.6666666666666,113.36316666666666,592.0833333333334,113.35645833333334,594.5,113.34975C596.9166666666666,113.34304166666666,599.3333333333334,113.33633333333333,601.75,113.329625C604.1666666666666,113.32291666666666,606.5833333333334,113.31620833333334,609,113.3095C611.4166666666666,113.30279166666666,613.8333333333334,113.29608333333334,616.25,113.289375C618.6666666666666,113.28266666666667,621.0833333333334,113.27595833333334,623.5,113.26925C625.9166666666666,113.26254166666666,628.3333333333334,113.25583333333333,630.75,113.24912499999999C633.1666666666666,113.24241666666666,635.5833333333334,113.23570833333333,638,113.229C640.4166666666666,113.22229166666666,642.8333333333334,113.21558333333334,645.25,113.208875C647.6666666666666,113.20216666666667,650.0833333333334,113.19545833333333,652.5,113.18875C654.9166666666666,113.18204166666666,657.3333333333334,113.17533333333334,659.75,113.168625C662.1666666666666,113.16191666666667,664.5833333333334,113.15520833333333,667,113.1485C669.4166666666666,113.14179166666666,671.8333333333334,113.13508333333333,674.25,113.12837499999999C676.6666666666666,113.12166666666666,679.0833333333334,113.11495833333333,681.5,113.10825C683.9166666666666,113.10154166666666,686.3333333333334,113.09483333333334,688.75,113.088125C691.1666666666666,113.08141666666667,693.5833333333334,113.07470833333333,696,113.068C698.4166666666666,113.06129166666666,700.8333333333334,113.05458333333334,703.25,113.047875C705.6666666666666,113.04116666666667,708.0833333333334,113.03445833333333,710.5,113.02775C712.9166666666666,113.02104166666666,715.3333333333334,113.01433333333333,717.75,113.00762499999999C720.1666666666666,113.00091666666665,722.5833333333334,112.99420833333335,725,112.98750000000001C727.4166666666666,112.98079166666668,729.8333333333334,112.97408333333334,732.25,112.967375C734.6666666666666,112.96066666666667,737.0833333333334,112.95395833333333,739.5,112.94725C741.9166666666666,112.94054166666666,744.3333333333334,112.93383333333334,746.75,112.927125C749.1666666666666,112.92041666666667,751.5833333333334,112.91370833333333,754,112.907C756.4166666666666,112.90029166666666,758.8333333333334,112.89358333333334,761.25,112.886875C763.6666666666666,112.88016666666667,766.0833333333334,112.87345833333335,768.5,112.86675000000001C770.9166666666666,112.86004166666667,773.3333333333334,112.85333333333334,775.75,112.846625C778.1666666666666,112.83991666666667,780.5833333333334,112.83320833333333,783,112.8265C785.4166666666667,112.81979166666666,787.8333333333334,112.81308333333334,790.2500000000001,112.806375C792.6666666666667,112.79966666666667,795.0833333333335,112.79295833333333,797.5000000000001,112.78625C799.9166666666667,112.77954166666666,802.3333333333335,112.77283333333334,804.7500000000001,112.766125C807.1666666666667,112.75941666666667,809.5833333333335,112.75270833333335,812.0000000000001,112.74600000000001C814.4166666666667,112.73929166666667,816.8333333333333,112.73258333333334,819.2499999999999,112.725875C821.6666666666665,112.71916666666667,824.0833333333333,112.71245833333333,826.4999999999999,112.70575C828.9166666666665,112.69904166666666,831.3333333333333,112.69233333333334,833.7499999999999,112.685625C836.1666666666665,112.67891666666667,838.5833333333333,112.67220833333334,840.9999999999999,112.66550000000001C843.4166666666666,112.65879166666667,845.8333333333333,112.65208333333334,848.25,112.645375C850.6666666666666,112.63866666666667,853.0833333333334,112.63195833333333,855.5,112.62525C857.9166666666666,112.61854166666666,860.3333333333334,112.61183333333334,862.75,112.605125C865.1666666666666,112.59841666666667,867.5833333333334,112.59170833333333,870,112.585C872.4166666666666,112.57829166666666,874.8333333333334,112.57158333333334,877.25,112.564875C879.6666666666666,112.55816666666666,882.0833333333334,112.55145833333334,884.5,112.54475000000001C886.9166666666666,112.53804166666667,889.3333333333334,112.53133333333334,891.75,112.524625C894.1666666666666,112.51791666666666,896.5833333333334,112.51120833333333,899,112.5045C901.4166666666666,112.49779166666666,903.8333333333334,112.49108333333334,906.25,112.484375C908.6666666666666,112.47766666666666,911.0833333333334,112.47095833333333,913.5,112.46424999999999C915.9166666666666,112.45754166666666,918.3333333333334,112.45083333333334,920.75,112.444125C923.1666666666666,112.43741666666666,925.5833333333334,112.43070833333334,928,112.424C930.4166666666666,112.41729166666667,932.8333333333334,112.41058333333334,935.25,112.403875C937.6666666666666,112.39716666666666,940.0833333333334,112.39045833333333,942.5,112.38374999999999C944.9166666666666,112.37704166666666,947.3333333333334,112.37033333333333,949.75,112.363625C952.1666666666666,112.35691666666666,954.5833333333334,112.35020833333334,957,112.3435C959.4166666666666,112.33679166666667,961.8333333333334,112.33008333333333,964.25,112.323375C966.6666666666667,112.31666666666666,969.0833333333334,112.30995833333334,971.5000000000001,112.30325C973.9166666666667,112.29654166666667,976.3333333333335,112.28983333333333,978.7500000000001,112.283125C981.1666666666667,112.27641666666666,983.5833333333335,112.26970833333333,986.0000000000001,112.26299999999999C988.4166666666667,112.25629166666666,990.8333333333335,112.24958333333333,993.2500000000001,112.242875C995.6666666666667,112.23616666666666,998.0833333333333,112.22945833333334,1000.4999999999999,112.22275C1002.9166666666665,112.21604166666667,1005.3333333333333,112.20933333333333,1007.7499999999999,112.202625C1010.1666666666665,112.19591666666666,1012.5833333333333,112.18920833333334,1014.9999999999999,112.1825C1017.4166666666665,112.17579166666667,1019.8333333333333,112.16908333333333,1022.2499999999999,112.162375C1024.6666666666665,112.15566666666666,1027.0833333333333,112.14895833333333,1029.5,112.14224999999999C1031.9166666666667,112.13554166666665,1034.3333333333333,112.12883333333335,1036.75,112.12212500000001C1039.1666666666667,112.11541666666668,1041.5833333333333,112.10870833333334,1044,112.102C1046.4166666666667,112.09529166666667,1048.8333333333333,112.08858333333333,1051.25,112.081875C1053.6666666666667,112.07516666666666,1056.0833333333333,112.06845833333334,1058.5,112.06175C1060.9166666666667,112.05504166666667,1063.3333333333333,112.04833333333333,1065.75,112.041625C1068.1666666666667,112.03491666666666,1070.5833333333333,112.02820833333334,1073,112.0215C1075.4166666666667,112.01479166666667,1077.8333333333333,112.00808333333335,1080.25,112.00137500000001C1082.6666666666667,111.99466666666667,1085.0833333333333,111.98795833333334,1087.5,111.98125C1089.9166666666667,111.97454166666667,1092.3333333333333,111.96783333333333,1094.75,111.961125C1097.1666666666667,111.95441666666666,1099.5833333333333,111.94770833333334,1102,111.941C1104.4166666666667,111.93429166666667,1106.8333333333333,111.92758333333333,1109.25,111.920875C1111.6666666666667,111.91416666666666,1114.0833333333333,111.90745833333334,1116.5,111.90075C1118.9166666666667,111.89404166666667,1121.3333333333333,111.88733333333334,1123.75,111.88062500000001C1126.1666666666667,111.87391666666667,1128.5833333333333,111.86720833333334,1131,111.8605C1133.4166666666667,111.85379166666667,1135.8333333333333,111.84708333333333,1138.25,111.840375C1140.6666666666667,111.83366666666666,1143.0833333333333,111.82695833333334,1145.5,111.82025C1147.9166666666667,111.81354166666667,1150.3333333333333,111.80683333333334,1152.75,111.80012500000001C1155.1666666666667,111.79341666666667,1157.5833333333333,111.79341666666667,1160,111.78C1162.4166666666667,111.76658333333333,1164.8333333333333,110.24666666666666,1167.25,109.47999999999999C1169.6666666666667,108.71333333333332,1172.0833333333333,107.94666666666666,1174.5,107.17999999999999C1176.9166666666667,106.41333333333333,1179.3333333333333,105.64666666666668,1181.75,104.88000000000001C1184.1666666666667,104.11333333333334,1186.5833333333333,103.34666666666666,1189,102.58C1191.4166666666667,101.81333333333333,1193.8333333333333,101.04666666666667,1196.25,100.28C1198.6666666666667,99.51333333333334,1201.0833333333333,98.74666666666667,1203.5,97.98C1205.9166666666667,97.21333333333334,1208.3333333333333,96.44666666666666,1210.75,95.67999999999999C1213.1666666666667,94.91333333333333,1215.5833333333333,94.14666666666668,1218,93.38000000000001C1220.4166666666667,92.61333333333334,1222.8333333333333,91.84666666666666,1225.25,91.08C1227.6666666666667,90.31333333333333,1230.0833333333333,89.54666666666667,1232.5,88.78C1234.9166666666667,88.01333333333334,1237.3333333333333,87.24666666666667,1239.75,86.48C1242.1666666666667,85.71333333333334,1244.5833333333333,84.94666666666666,1247,84.17999999999999C1249.4166666666667,83.41333333333333,1251.8333333333333,82.64666666666666,1254.25,81.88C1256.6666666666667,81.11333333333333,1259.0833333333333,80.34666666666666,1261.5,79.58C1263.9166666666667,78.81333333333333,1266.3333333333333,78.04666666666665,1268.75,77.27999999999999C1271.1666666666667,76.51333333333332,1273.5833333333333,75.74666666666667,1276,74.98C1278.4166666666667,74.21333333333334,1280.8333333333333,73.44666666666667,1283.25,72.68C1285.6666666666667,71.91333333333334,1288.0833333333333,71.14666666666665,1290.5,70.37999999999998C1292.9166666666667,69.61333333333332,1295.3333333333333,68.84666666666668,1297.75,68.08000000000001C1300.1666666666667,67.31333333333335,1302.5833333333333,66.54666666666667,1305,65.78C1307.4166666666667,65.01333333333334,1309.8333333333333,64.24666666666666,1312.25,63.47999999999999C1314.6666666666667,62.713333333333324,1317.0833333333333,61.94666666666667,1319.5,61.18000000000001C1321.9166666666667,60.41333333333334,1324.3333333333333,59.64666666666667,1326.75,58.88C1329.1666666666667,58.11333333333334,1331.5833333333333,57.346666666666664,1334,56.58C1336.4166666666667,55.81333333333333,1338.8333333333333,55.04666666666666,1341.25,54.279999999999994C1343.6666666666667,53.51333333333333,1346.0833333333333,52.74666666666666,1348.5,51.98C1350.9166666666667,51.21333333333333,1353.3333333333333,50.44666666666667,1355.75,49.68000000000001C1358.1666666666667,48.91333333333334,1360.5833333333333,48.14666666666667,1363,47.38C1365.4166666666667,46.61333333333334,1367.8333333333333,45.846666666666664,1370.25,45.08C1372.6666666666667,44.31333333333333,1375.0833333333333,43.54666666666667,1377.5,42.78C1379.9166666666667,42.013333333333335,1382.3333333333333,41.24666666666666,1384.75,40.48C1387.1666666666667,39.71333333333333,1389.5833333333333,38.94666666666667,1392,38.18000000000001C1394.4166666666667,37.41333333333334,1396.8333333333333,36.646666666666675,1399.25,35.88000000000001C1401.6666666666667,35.113333333333344,1404.0833333333333,34.34666666666667,1406.5,33.580000000000005C1408.9166666666667,32.81333333333334,1411.3333333333333,32.04666666666667,1413.75,31.28C1416.1666666666667,30.513333333333335,1418.5833333333333,29.746666666666666,1421,28.98C1423.4166666666667,28.213333333333335,1425.8333333333333,27.446666666666665,1428.25,26.68C1430.6666666666667,25.913333333333334,1433.0833333333333,25.14666666666668,1435.5,24.38000000000001C1437.9166666666667,23.61333333333334,1440.3333333333333,22.84666666666665,1442.75,22.07999999999998C1445.1666666666667,21.31333333333331,1447.5833333333333,20.54666666666666,1450,19.780000000000005" fill="transparent" stroke-linecap="round" stroke="#B6509E" stroke-width="2"></path><path class="visx-linepath" d="M0,108.3299999999425C2.4166666666666665,108.32041666663312,4.833333333333334,108.31083333332374,7.25,108.30125C9.666666666666666,108.29166666667625,12.083333333333334,108.28208333333332,14.5,108.2725C16.916666666666668,108.26291666666667,19.333333333333332,108.25333333333333,21.75,108.24375C24.166666666666668,108.23416666666668,26.583333333333332,108.22458333333334,29,108.215C31.416666666666668,108.20541666666666,33.833333333333336,108.19583333333334,36.25,108.18625C38.666666666666664,108.17666666666666,41.083333333333336,108.16708333333334,43.5,108.1575C45.91666666666667,108.14791666666666,48.333333333333336,108.13833333333334,50.75000000000001,108.12875C53.16666666666667,108.11916666666666,55.583333333333336,108.10958333333333,58,108.1C60.416666666666664,108.09041666666666,62.833333333333336,108.08083333333332,65.25,108.07124999999999C67.66666666666667,108.06166666666667,70.08333333333333,108.05208333333333,72.5,108.0425C74.91666666666667,108.03291666666668,77.33333333333333,108.02333333333333,79.75,108.01375C82.16666666666667,108.00416666666668,84.58333333333333,107.99458333333335,87,107.98500000000001C89.41666666666667,107.97541666666667,91.83333333333333,107.96583333333334,94.25,107.95625C96.66666666666667,107.94666666666666,99.08333333333334,107.93708333333333,101.50000000000001,107.9275C103.91666666666667,107.91791666666667,106.33333333333334,107.90833333333335,108.75,107.89875C111.16666666666667,107.88916666666667,113.58333333333333,107.87958333333333,116,107.86999999999999C118.41666666666667,107.86041666666665,120.83333333333334,107.85083333333334,123.25000000000001,107.84125C125.66666666666667,107.83166666666668,128.08333333333334,107.82208333333334,130.5,107.8125C132.91666666666666,107.80291666666666,135.33333333333334,107.79333333333332,137.75,107.78375C140.16666666666666,107.77416666666667,142.58333333333334,107.76458333333335,145,107.75500000000001C147.41666666666666,107.74541666666667,149.83333333333334,107.73583333333333,152.25,107.72625C154.66666666666666,107.71666666666665,157.08333333333334,107.70708333333333,159.5,107.6975C161.91666666666666,107.68791666666668,164.33333333333334,107.67833333333334,166.75,107.66875C169.16666666666666,107.65916666666666,171.58333333333334,107.64958333333333,174,107.63999999999999C176.41666666666666,107.63041666666665,178.83333333333334,107.62083333333332,181.25,107.61125C183.66666666666666,107.60166666666667,186.08333333333334,107.59208333333332,188.5,107.5825C190.91666666666666,107.57291666666667,193.33333333333334,107.56333333333333,195.75,107.55375000000001C198.16666666666669,107.54416666666667,200.58333333333334,107.53458333333334,203.00000000000003,107.525C205.41666666666669,107.51541666666667,207.83333333333331,107.50583333333334,210.24999999999997,107.49625C212.66666666666666,107.48666666666666,215.08333333333331,107.47708333333334,217.5,107.4675C219.91666666666666,107.45791666666666,222.33333333333334,107.44833333333334,224.75,107.43875C227.16666666666666,107.42916666666666,229.58333333333334,107.41958333333334,232,107.41C234.41666666666666,107.40041666666666,236.83333333333334,107.39083333333332,239.25,107.38125C241.66666666666669,107.37166666666666,244.08333333333334,107.36208333333335,246.50000000000003,107.3525C248.91666666666669,107.34291666666668,251.33333333333331,107.33333333333334,253.74999999999997,107.32375C256.16666666666663,107.31416666666667,258.5833333333333,107.30458333333334,261,107.295C263.4166666666667,107.28541666666666,265.8333333333333,107.27583333333334,268.25,107.26625C270.6666666666667,107.25666666666666,273.0833333333333,107.24708333333332,275.5,107.2375C277.9166666666667,107.22791666666667,280.3333333333333,107.21833333333335,282.75,107.20875000000001C285.1666666666667,107.19916666666667,287.5833333333333,107.18958333333333,290,107.17999999999999C292.4166666666667,107.17041666666665,294.8333333333333,107.16083333333331,297.25,107.15124999999999C299.6666666666667,107.14166666666667,302.0833333333333,107.13208333333333,304.5,107.1225C306.9166666666667,107.11291666666668,309.3333333333333,107.10333333333332,311.75,107.09375C314.1666666666667,107.08416666666668,316.5833333333333,107.07458333333335,319,107.06500000000001C321.4166666666667,107.05541666666667,323.8333333333333,107.04583333333333,326.25,107.03625C328.6666666666667,107.02666666666666,331.0833333333333,107.01708333333332,333.5,107.0075C335.9166666666667,106.99791666666667,338.3333333333333,106.98833333333334,340.75,106.97875C343.1666666666667,106.96916666666667,345.5833333333333,106.95958333333333,348,106.94999999999999C350.4166666666667,106.94041666666665,352.8333333333333,106.93083333333333,355.25,106.92125C357.6666666666667,106.91166666666668,360.0833333333333,106.90208333333334,362.5,106.8925C364.9166666666667,106.88291666666666,367.3333333333333,106.87333333333332,369.75,106.86375C372.1666666666667,106.85416666666667,374.5833333333333,106.84458333333335,377,106.83500000000001C379.4166666666667,106.82541666666667,381.8333333333333,106.81583333333333,384.25,106.80624999999999C386.6666666666667,106.79666666666665,389.0833333333333,106.78708333333333,391.5,106.7775C393.9166666666667,106.76791666666666,396.33333333333337,106.75833333333334,398.75000000000006,106.74875C401.16666666666674,106.73916666666666,403.58333333333337,106.72958333333334,406.00000000000006,106.72C408.4166666666667,106.71041666666666,410.8333333333333,106.70083333333334,413.24999999999994,106.69125C415.66666666666663,106.68166666666666,418.08333333333326,106.67208333333332,420.49999999999994,106.6625C422.91666666666663,106.65291666666666,425.3333333333333,106.64333333333335,427.75,106.63375C430.1666666666667,106.62416666666668,432.5833333333333,106.61458333333334,435,106.605C437.4166666666667,106.59541666666667,439.8333333333333,106.58583333333334,442.25,106.57625C444.6666666666667,106.56666666666666,447.0833333333333,106.55708333333334,449.5,106.5475C451.9166666666667,106.53791666666666,454.3333333333333,106.52833333333332,456.75,106.51875C459.1666666666667,106.50916666666667,461.5833333333333,106.49958333333335,464,106.49000000000001C466.4166666666667,106.48041666666667,468.8333333333333,106.47083333333333,471.25,106.46124999999999C473.6666666666667,106.45166666666665,476.0833333333333,106.44208333333333,478.5,106.4325C480.9166666666667,106.42291666666667,483.33333333333337,106.41333333333334,485.75000000000006,106.40375C488.16666666666674,106.39416666666666,490.58333333333337,106.38458333333334,493.00000000000006,106.375C495.4166666666667,106.36541666666666,497.8333333333333,106.35583333333334,500.24999999999994,106.34625C502.66666666666663,106.33666666666666,505.08333333333326,106.32708333333332,507.49999999999994,106.3175C509.91666666666663,106.30791666666666,512.3333333333333,106.29833333333335,514.75,106.28875000000001C517.1666666666666,106.27916666666668,519.5833333333334,106.26958333333334,522,106.26C524.4166666666666,106.25041666666667,526.8333333333334,106.24083333333333,529.25,106.23124999999999C531.6666666666666,106.22166666666665,534.0833333333334,106.21208333333333,536.5,106.2025C538.9166666666666,106.19291666666668,541.3333333333334,106.18333333333332,543.75,106.17375C546.1666666666666,106.16416666666667,548.5833333333334,106.15458333333335,551,106.14500000000001C553.4166666666666,106.13541666666667,555.8333333333334,106.12583333333333,558.25,106.11625C560.6666666666666,106.10666666666665,563.0833333333334,106.09708333333332,565.5,106.08749999999999C567.9166666666666,106.07791666666667,570.3333333333334,106.06833333333333,572.75,106.05875C575.1666666666666,106.04916666666668,577.5833333333334,106.03958333333334,580,106.03C582.4166666666666,106.02041666666666,584.8333333333334,106.01083333333334,587.25,106.00125C589.6666666666666,105.99166666666666,592.0833333333334,105.98208333333332,594.5,105.9725C596.9166666666666,105.96291666666667,599.3333333333334,105.95333333333333,601.75,105.94375000000001C604.1666666666666,105.93416666666668,606.5833333333334,105.92458333333335,609,105.915C611.4166666666666,105.90541666666667,613.8333333333334,105.89583333333333,616.25,105.88624999999999C618.6666666666666,105.87666666666665,621.0833333333334,105.86708333333333,623.5,105.8575C625.9166666666666,105.84791666666668,628.3333333333334,105.83833333333332,630.75,105.82875C633.1666666666666,105.81916666666667,635.5833333333334,105.80958333333335,638,105.80000000000001C640.4166666666666,105.79041666666667,642.8333333333334,105.78083333333333,645.25,105.77125C647.6666666666666,105.76166666666666,650.0833333333334,105.75208333333332,652.5,105.74249999999999C654.9166666666666,105.73291666666667,657.3333333333334,105.72333333333333,659.75,105.71375C662.1666666666666,105.70416666666668,664.5833333333334,105.69458333333334,667,105.685C669.4166666666666,105.67541666666666,671.8333333333334,105.66583333333334,674.25,105.65625C676.6666666666666,105.64666666666666,679.0833333333334,105.63708333333334,681.5,105.6275C683.9166666666666,105.61791666666666,686.3333333333334,105.60833333333333,688.75,105.59875C691.1666666666666,105.58916666666666,693.5833333333334,105.57958333333332,696,105.57C698.4166666666666,105.56041666666667,700.8333333333334,105.55083333333333,703.25,105.54125C705.6666666666666,105.53166666666668,708.0833333333334,105.52208333333334,710.5,105.5125C712.9166666666666,105.50291666666666,715.3333333333334,105.49333333333334,717.75,105.48375C720.1666666666666,105.47416666666666,722.5833333333334,105.46458333333334,725,105.455C727.4166666666666,105.44541666666666,729.8333333333334,105.43583333333333,732.25,105.42625C734.6666666666666,105.41666666666666,737.0833333333334,105.40708333333332,739.5,105.3975C741.9166666666666,105.38791666666667,744.3333333333334,105.37833333333333,746.75,105.36875C749.1666666666666,105.35916666666668,751.5833333333334,105.34958333333334,754,105.34C756.4166666666666,105.33041666666666,758.8333333333334,105.32083333333334,761.25,105.31125C763.6666666666666,105.30166666666666,766.0833333333334,105.29208333333334,768.5,105.2825C770.9166666666666,105.27291666666666,773.3333333333334,105.26333333333332,775.75,105.25375C778.1666666666666,105.24416666666667,780.5833333333334,105.23458333333335,783,105.22500000000001C785.4166666666667,105.21541666666667,787.8333333333334,105.20583333333333,790.2500000000001,105.19624999999999C792.6666666666667,105.18666666666665,795.0833333333335,105.17708333333333,797.5000000000001,105.1675C799.9166666666667,105.15791666666668,802.3333333333335,105.14833333333334,804.7500000000001,105.13875C807.1666666666667,105.12916666666666,809.5833333333335,105.11958333333334,812.0000000000001,105.11C814.4166666666667,105.10041666666667,816.8333333333333,105.09083333333335,819.2499999999999,105.08125000000001C821.6666666666665,105.07166666666667,824.0833333333333,105.06208333333333,826.4999999999999,105.0525C828.9166666666665,105.04291666666666,831.3333333333333,105.03333333333333,833.7499999999999,105.02375C836.1666666666665,105.01416666666668,838.5833333333333,105.00458333333334,840.9999999999999,104.995C843.4166666666666,104.98541666666667,845.8333333333333,104.97583333333333,848.25,104.96624999999999C850.6666666666666,104.95666666666665,853.0833333333334,104.94708333333332,855.5,104.9375C857.9166666666666,104.92791666666668,860.3333333333334,104.91833333333332,862.75,104.90875C865.1666666666666,104.89916666666667,867.5833333333334,104.88958333333333,870,104.88000000000001C872.4166666666666,104.87041666666669,874.8333333333334,104.86083333333335,877.25,104.85125000000001C879.6666666666666,104.84166666666667,882.0833333333334,104.83208333333333,884.5,104.82249999999999C886.9166666666666,104.81291666666665,889.3333333333334,104.80333333333333,891.75,104.79375C894.1666666666666,104.78416666666668,896.5833333333334,104.77458333333334,899,104.765C901.4166666666666,104.75541666666666,903.8333333333334,104.74583333333334,906.25,104.73625C908.6666666666666,104.72666666666666,911.0833333333334,104.71708333333333,913.5,104.7075C915.9166666666666,104.69791666666666,918.3333333333334,104.68833333333332,920.75,104.67875C923.1666666666666,104.66916666666667,925.5833333333334,104.65958333333333,928,104.65C930.4166666666666,104.64041666666668,932.8333333333334,104.63083333333334,935.25,104.62125C937.6666666666666,104.61166666666666,940.0833333333334,104.60208333333334,942.5,104.5925C944.9166666666666,104.58291666666666,947.3333333333334,104.57333333333334,949.75,104.56375C952.1666666666666,104.55416666666666,954.5833333333334,104.54458333333334,957,104.535C959.4166666666666,104.52541666666666,961.8333333333334,104.51583333333333,964.25,104.50625C966.6666666666667,104.49666666666666,969.0833333333334,104.48708333333333,971.5000000000001,104.47749999999999C973.9166666666667,104.46791666666667,976.3333333333335,104.45833333333333,978.7500000000001,104.44875C981.1666666666667,104.43916666666668,983.5833333333335,104.42958333333333,986.0000000000001,104.42C988.4166666666667,104.41041666666668,990.8333333333335,104.40083333333335,993.2500000000001,104.39125000000001C995.6666666666667,104.38166666666667,998.0833333333333,104.37208333333334,1000.4999999999999,104.3625C1002.9166666666665,104.35291666666666,1005.3333333333333,104.34333333333332,1007.7499999999999,104.33375C1010.1666666666665,104.32416666666667,1012.5833333333333,104.31458333333335,1014.9999999999999,104.305C1017.4166666666665,104.29541666666667,1019.8333333333333,104.28583333333333,1022.2499999999999,104.27624999999999C1024.6666666666665,104.26666666666665,1027.0833333333333,104.25708333333334,1029.5,104.2475C1031.9166666666667,104.23791666666668,1034.3333333333333,104.22833333333334,1036.75,104.21875C1039.1666666666667,104.20916666666666,1041.5833333333333,104.19958333333332,1044,104.19C1046.4166666666667,104.18041666666667,1048.8333333333333,104.17083333333335,1051.25,104.16125000000001C1053.6666666666667,104.15166666666667,1056.0833333333333,104.14208333333333,1058.5,104.1325C1060.9166666666667,104.12291666666665,1063.3333333333333,104.11333333333333,1065.75,104.10375C1068.1666666666667,104.09416666666668,1070.5833333333333,104.08458333333334,1073,104.075C1075.4166666666667,104.06541666666666,1077.8333333333333,104.05583333333333,1080.25,104.04624999999999C1082.6666666666667,104.03666666666665,1085.0833333333333,104.02708333333332,1087.5,104.0175C1089.9166666666667,104.00791666666667,1092.3333333333333,103.99833333333332,1094.75,103.98875C1097.1666666666667,103.97916666666667,1099.5833333333333,103.96958333333333,1102,103.96000000000001C1104.4166666666667,103.95041666666668,1106.8333333333333,103.94083333333334,1109.25,103.93125C1111.6666666666667,103.92166666666667,1114.0833333333333,103.91208333333334,1116.5,103.9025C1118.9166666666667,103.89291666666666,1121.3333333333333,103.88333333333334,1123.75,103.87375C1126.1666666666667,103.86416666666666,1128.5833333333333,103.85458333333334,1131,103.845C1133.4166666666667,103.83541666666666,1135.8333333333333,103.82583333333334,1138.25,103.81625C1140.6666666666667,103.80666666666666,1143.0833333333333,103.79708333333332,1145.5,103.7875C1147.9166666666667,103.77791666666667,1150.3333333333333,103.76833333333333,1152.75,103.75875C1155.1666666666667,103.74916666666668,1157.5833333333333,103.74916666666667,1160,103.73C1162.4166666666667,103.71083333333334,1164.8333333333333,102.19666666666667,1167.25,101.43C1169.6666666666667,100.66333333333334,1172.0833333333333,99.89666666666666,1174.5,99.13C1176.9166666666667,98.36333333333333,1179.3333333333333,97.59666666666666,1181.75,96.83C1184.1666666666667,96.06333333333333,1186.5833333333333,95.29666666666667,1189,94.53C1191.4166666666667,93.76333333333334,1193.8333333333333,92.99666666666667,1196.25,92.23C1198.6666666666667,91.46333333333334,1201.0833333333333,90.69666666666667,1203.5,89.93C1205.9166666666667,89.16333333333334,1208.3333333333333,88.39666666666666,1210.75,87.63C1213.1666666666667,86.86333333333333,1215.5833333333333,86.09666666666666,1218,85.33C1220.4166666666667,84.56333333333333,1222.8333333333333,83.79666666666667,1225.25,83.03C1227.6666666666667,82.26333333333334,1230.0833333333333,81.49666666666666,1232.5,80.72999999999999C1234.9166666666667,79.96333333333332,1237.3333333333333,79.19666666666666,1239.75,78.42999999999999C1242.1666666666667,77.66333333333333,1244.5833333333333,76.89666666666666,1247,76.13C1249.4166666666667,75.36333333333333,1251.8333333333333,74.59666666666666,1254.25,73.83C1256.6666666666667,73.06333333333333,1259.0833333333333,72.29666666666668,1261.5,71.53000000000002C1263.9166666666667,70.76333333333335,1266.3333333333333,69.99666666666667,1268.75,69.23C1271.1666666666667,68.46333333333334,1273.5833333333333,67.69666666666667,1276,66.93C1278.4166666666667,66.16333333333334,1280.8333333333333,65.39666666666668,1283.25,64.63000000000001C1285.6666666666667,63.863333333333344,1288.0833333333333,63.09666666666667,1290.5,62.330000000000005C1292.9166666666667,61.56333333333334,1295.3333333333333,60.79666666666667,1297.75,60.03C1300.1666666666667,59.263333333333335,1302.5833333333333,58.49666666666666,1305,57.73C1307.4166666666667,56.96333333333333,1309.8333333333333,56.196666666666665,1312.25,55.43C1314.6666666666667,54.663333333333334,1317.0833333333333,53.89666666666666,1319.5,53.129999999999995C1321.9166666666667,52.36333333333333,1324.3333333333333,51.59666666666666,1326.75,50.82999999999999C1329.1666666666667,50.063333333333325,1331.5833333333333,49.296666666666674,1334,48.53000000000001C1336.4166666666667,47.76333333333334,1338.8333333333333,46.99666666666667,1341.25,46.230000000000004C1343.6666666666667,45.46333333333334,1346.0833333333333,44.696666666666665,1348.5,43.93C1350.9166666666667,43.163333333333334,1353.3333333333333,42.39666666666666,1355.75,41.629999999999995C1358.1666666666667,40.86333333333333,1360.5833333333333,40.09666666666668,1363,39.33000000000001C1365.4166666666667,38.56333333333335,1367.8333333333333,37.796666666666646,1370.25,37.02999999999998C1372.6666666666667,36.263333333333314,1375.0833333333333,35.49666666666667,1377.5,34.730000000000004C1379.9166666666667,33.96333333333334,1382.3333333333333,33.19666666666667,1384.75,32.43000000000001C1387.1666666666667,31.66333333333334,1389.5833333333333,30.896666666666672,1392,30.130000000000003C1394.4166666666667,29.363333333333333,1396.8333333333333,28.596666666666664,1399.25,27.83C1401.6666666666667,27.063333333333333,1404.0833333333333,26.296666666666667,1406.5,25.529999999999998C1408.9166666666667,24.76333333333333,1411.3333333333333,23.99666666666665,1413.75,23.229999999999983C1416.1666666666667,22.463333333333317,1418.5833333333333,21.69666666666667,1421,20.930000000000007C1423.4166666666667,20.163333333333345,1425.8333333333333,19.39666666666667,1428.25,18.630000000000003C1430.6666666666667,17.863333333333337,1433.0833333333333,17.096666666666668,1435.5,16.330000000000002C1437.9166666666667,15.563333333333334,1440.3333333333333,14.796666666666667,1442.75,14.03C1445.1666666666667,13.263333333333332,1447.5833333333333,12.496666666666664,1450,11.729999999999997" fill="transparent" stroke-linecap="round" stroke="#E7C6DF" stroke-width="2"></path><g class="visx-group visx-axis visx-axis-bottom" transform="translate(0, 115)"><g class="visx-group visx-axis-tick" transform="translate(0, 0)"><line class="visx-line" x1="0" y1="0" x2="0" y2="8" fill="transparent" shape-rendering="crispEdges" stroke="#000" stroke-width="0" stroke-linecap="square"></line><svg x="0" y="0" font-size="10" style="overflow:visible"><text transform="" x="0" y="18" fill="#000" font-size="10" text-anchor="middle"><tspan x="0" dy="0em">0%</tspan></text></svg></g><g class="visx-group visx-axis-tick" transform="translate(0, 0)"><line class="visx-line" x1="362.5" y1="0" x2="362.5" y2="8" fill="transparent" shape-rendering="crispEdges" stroke="#000" stroke-width="0" stroke-linecap="square"></line><svg x="0" y="0" font-size="10" style="overflow:visible"><text transform="" x="362.5" y="18" fill="#000" font-size="10" text-anchor="middle"><tspan x="362.5" dy="0em">25%</tspan></text></svg></g><g class="visx-group visx-axis-tick" transform="translate(0, 0)"><line class="visx-line" x1="725" y1="0" x2="725" y2="8" fill="transparent" shape-rendering="crispEdges" stroke="#000" stroke-width="0" stroke-linecap="square"></line><svg x="0" y="0" font-size="10" style="overflow:visible"><text transform="" x="725" y="18" fill="#000" font-size="10" text-anchor="middle"><tspan x="725" dy="0em">50%</tspan></text></svg></g><g class="visx-group visx-axis-tick" transform="translate(0, 0)"><line class="visx-line" x1="1087.5" y1="0" x2="1087.5" y2="8" fill="transparent" shape-rendering="crispEdges" stroke="#000" stroke-width="0" stroke-linecap="square"></line><svg x="0" y="0" font-size="10" style="overflow:visible"><text transform="" x="1087.5" y="18" fill="#000" font-size="10" text-anchor="middle"><tspan x="1087.5" dy="0em">75%</tspan></text></svg></g><g class="visx-group visx-axis-tick" transform="translate(0, 0)"><line class="visx-line" x1="1450" y1="0" x2="1450" y2="8" fill="transparent" shape-rendering="crispEdges" stroke="#000" stroke-width="0" stroke-linecap="square"></line><svg x="0" y="0" font-size="10" style="overflow:visible"><text transform="" x="1450" y="18" fill="#000" font-size="10" text-anchor="middle"><tspan x="1450" dy="0em">100%</tspan></text></svg></g><line class="visx-line visx-axis-line" x1="0.5" y1="0" x2="1450.5" y2="0" fill="transparent" shape-rendering="crispEdges" stroke="#222" stroke-width="0"></line></g><g class="visx-group visx-axis visx-axis-left" transform="translate(0, 0)"><g class="visx-group visx-axis-tick" transform="translate(0, 0)"><line class="visx-line" x1="0" y1="115" x2="-8" y2="115" fill="transparent" shape-rendering="crispEdges" stroke="#222" stroke-width="0" stroke-linecap="square"></line><svg x="-30" y="0" font-size="8" style="overflow:visible"><text transform="" x="-8" y="115" fill="#000" font-size="8" text-anchor="start"><tspan x="-8" dy="0em">0%</tspan></text></svg></g><g class="visx-group visx-axis-tick" transform="translate(0, 0)"><line class="visx-line" x1="0" y1="57.5" x2="-8" y2="57.5" fill="transparent" shape-rendering="crispEdges" stroke="#222" stroke-width="0" stroke-linecap="square"></line><svg x="-30" y="0" font-size="8" style="overflow:visible"><text transform="" x="-8" y="57.5" fill="#000" font-size="8" text-anchor="start"><tspan x="-8" dy="0em">50%</tspan></text></svg></g><g class="visx-group visx-axis-tick" transform="translate(0, 0)"><line class="visx-line" x1="0" y1="0" x2="-8" y2="0" fill="transparent" shape-rendering="crispEdges" stroke="#222" stroke-width="0" stroke-linecap="square"></line><svg x="-30" y="0" font-size="8" style="overflow:visible"><text transform="" x="-8" y="0" fill="#000" font-size="8" text-anchor="start"><tspan x="-8" dy="0em">100%</tspan></text></svg></g><line class="visx-line visx-axis-line" x1="0" y1="115.5" x2="0" y2="0.5" fill="transparent" shape-rendering="crispEdges" stroke="#222" stroke-width="0"></line></g><rect class="visx-bar" width="1450" height="115" fill="transparent"></rect><line class="visx-line" x1="1160" y1="28" x2="1160" y2="115" fill="transparent" shape-rendering="crispEdges" stroke="#0062D2" stroke-width="1" pointer-events="none" stroke-dasharray="5,2"></line><svg x="0" y="0" font-size="10px" style="overflow:visible"><text transform="" x="1160" y="20" font-size="10px" fill="#fff" stroke="#fff" stroke-width="0.8em" text-anchor="middle"><tspan x="1160" dy="0.355em">Optimal 80%</tspan></text></svg><svg x="0" y="0" font-size="10px" style="overflow:visible"><text transform="" x="1160" y="20" font-size="10px" fill="#62677B" text-anchor="middle"><tspan x="1160" dy="0.355em">Optimal 80%</tspan></text></svg></g></svg>