<?xml version="1.0"?><svg xmlns="http://www.w3.org/2000/svg" xmlns:xlink= "http://www.w3.org/1999/xlink" style="background: white;" width="1500" height="300"> <g style="color: black; font-size: 13px; font-family: sans-serif; transform: translate(18px, 25px);"><g><circle r="3" cx="-6" cy="-5" style="fill: #1AD4B3" /><text>Borrow APR, variable</text></g><g style="transform: translateX(150px);"><circle r="3" cx="-6" cy="-5" style="fill: #101423" /><text>Borrow APR, stable</text></g></g><g class="visx-group" transform="translate(45, 50)"><g class="visx-group visx-rows" transform="translate(0, 0)"><line class="visx-line" x1="0" y1="155" x2="1425" y2="155" fill="transparent" shape-rendering="crispEdges" stroke="#F2F0F9" stroke-width="1" pointer-events="none"></line><line class="visx-line" x1="0" y1="110.71428571428572" x2="1425" y2="110.71428571428572" fill="transparent" shape-rendering="crispEdges" stroke="#F2F0F9" stroke-width="1" pointer-events="none"></line><line class="visx-line" x1="0" y1="66.42857142857143" x2="1425" y2="66.42857142857143" fill="transparent" shape-rendering="crispEdges" stroke="#F2F0F9" stroke-width="1" pointer-events="none"></line><line class="visx-line" x1="0" y1="22.14285714285715" x2="1425" y2="22.14285714285715" fill="transparent" shape-rendering="crispEdges" stroke="#F2F0F9" stroke-width="1" pointer-events="none"></line></g><path class="visx-linepath" d="M0,154.99999999997274C2.375,154.99545787544199,4.75,154.99091575091123,7.125,154.98637362637365C9.5,154.98183150183607,11.875,154.97728937728937,14.25,154.97274725274724C16.625,154.9682051282051,19,154.96366300366302,21.375,154.9591208791209C23.75,154.95457875457876,26.125,154.95003663003664,28.5,154.9454945054945C30.875,154.94095238095238,33.25,154.93641025641026,35.625,154.93186813186813C38,154.927326007326,40.375,154.92278388278388,42.75,154.91824175824175C45.125,154.91369963369962,47.50000000000001,154.90915750915752,49.87500000000001,154.9046153846154C52.25000000000001,154.90007326007327,54.625,154.89553113553114,57,154.89098901098902C59.375,154.8864468864469,61.75,154.88190476190476,64.125,154.87736263736264C66.5,154.8728205128205,68.875,154.86827838827838,71.25,154.86373626373626C73.625,154.85919413919413,76,154.85465201465203,78.375,154.8501098901099C80.75,154.84556776556778,83.125,154.84102564102565,85.5,154.83648351648353C87.875,154.8319413919414,90.25,154.82739926739927,92.625,154.82285714285715C95,154.81831501831502,97.37500000000001,154.8137728937729,99.75000000000001,154.80923076923077C102.12500000000001,154.80468864468864,104.5,154.8001465201465,106.875,154.79560439560439C109.25,154.79106227106226,111.625,154.78652014652013,114,154.781978021978C116.375,154.77743589743588,118.75000000000001,154.77289377289378,121.12500000000001,154.76835164835165C123.50000000000001,154.76380952380953,125.875,154.7592673992674,128.25,154.75472527472527C130.625,154.75018315018315,133,154.74564102564102,135.375,154.7410989010989C137.75,154.73655677655677,140.125,154.73201465201464,142.5,154.72747252747251C144.875,154.7229304029304,147.25,154.7183882783883,149.625,154.71384615384616C152,154.70930402930404,154.375,154.7047619047619,156.75,154.70021978021978C159.125,154.69567765567766,161.5,154.69113553113553,163.875,154.6865934065934C166.25,154.68205128205128,168.625,154.67750915750915,171,154.67296703296702C173.375,154.6684249084249,175.75,154.6638827838828,178.125,154.65934065934067C180.5,154.65479853479854,182.875,154.65025641025642,185.25,154.6457142857143C187.625,154.64117216117216,190,154.63663003663004,192.375,154.6320879120879C194.75,154.62754578754578,197.12500000000003,154.62300366300366,199.50000000000003,154.61846153846153C201.875,154.6139194139194,204.25,154.60937728937728,206.62499999999997,154.60483516483515C208.99999999999997,154.60029304029302,211.375,154.59575091575093,213.75,154.5912087912088C216.125,154.58666666666667,218.5,154.58212454212455,220.875,154.57758241758242C223.25,154.5730402930403,225.625,154.56849816849817,228,154.56395604395604C230.375,154.5594139194139,232.75,154.5548717948718,235.125,154.55032967032966C237.5,154.54578754578753,239.87500000000003,154.54124542124543,242.25000000000003,154.5367032967033C244.625,154.53216117216118,247,154.52761904761905,249.37499999999997,154.52307692307693C251.74999999999997,154.5185347985348,254.125,154.51399267399268,256.5,154.50945054945055C258.875,154.50490842490842,261.25,154.5003663003663,263.625,154.49582417582417C266,154.49128205128204,268.375,154.48673992673994,270.75,154.48219780219782C273.125,154.4776556776557,275.5,154.47311355311356,277.875,154.46857142857144C280.25,154.4640293040293,282.625,154.45948717948718,285,154.45494505494506C287.375,154.45040293040293,289.75,154.4458608058608,292.125,154.44131868131868C294.5,154.43677655677655,296.875,154.43223443223445,299.25,154.42769230769233C301.625,154.4231501831502,304,154.41860805860804,306.375,154.41406593406592C308.75,154.4095238095238,311.125,154.4049816849817,313.5,154.40043956043957C315.875,154.39589743589744,318.25,154.3913553113553,320.625,154.38681318681319C323,154.38227106227106,325.375,154.37772893772893,327.75,154.3731868131868C330.125,154.36864468864468,332.5,154.36410256410255,334.875,154.35956043956043C337.25,154.3550183150183,339.625,154.3504761904762,342,154.34593406593407C344.375,154.34139194139195,346.75,154.33684981684982,349.125,154.3323076923077C351.5,154.32776556776557,353.875,154.32322344322344,356.25,154.3186813186813C358.625,154.3141391941392,361,154.30959706959706,363.375,154.30505494505493C365.75,154.3005128205128,368.125,154.2959706959707,370.5,154.29142857142858C372.875,154.28688644688646,375.25,154.28234432234433,377.625,154.2778021978022C380,154.27326007326008,382.375,154.26871794871795,384.75,154.26417582417582C387.125,154.2596336996337,389.50000000000006,154.25509157509157,391.87500000000006,154.25054945054944C394.25000000000006,154.24600732600732,396.62500000000006,154.24146520146522,399.00000000000006,154.2369230769231C401.375,154.23238095238096,403.75,154.2278388278388,406.12499999999994,154.22329670329668C408.49999999999994,154.21875457875456,410.87499999999994,154.21421245421246,413.24999999999994,154.20967032967033C415.62499999999994,154.2051282051282,418,154.20058608058608,420.375,154.19604395604395C422.75,154.19150183150182,425.125,154.1869597069597,427.5,154.18241758241757C429.875,154.17787545787544,432.25,154.17333333333335,434.625,154.16879120879122C437,154.1642490842491,439.375,154.15970695970697,441.75,154.15516483516484C444.125,154.1506227106227,446.5,154.1460805860806,448.875,154.14153846153846C451.25,154.13699633699633,453.625,154.1324542124542,456,154.12791208791208C458.375,154.12336996336995,460.75,154.11882783882785,463.125,154.11428571428573C465.5,154.1097435897436,467.875,154.10520146520147,470.25,154.10065934065935C472.625,154.09611721611722,475.00000000000006,154.0915750915751,477.37500000000006,154.08703296703297C479.75000000000006,154.08249084249084,482.12500000000006,154.07794871794871,484.50000000000006,154.0734065934066C486.875,154.06886446886446,489.25,154.06432234432236,491.62499999999994,154.05978021978024C493.99999999999994,154.0552380952381,496.37499999999994,154.05069597069598,498.74999999999994,154.04615384615386C501.12499999999994,154.04161172161173,503.5,154.0370695970696,505.875,154.03252747252748C508.25,154.02798534798535,510.625,154.02344322344322,513,154.0189010989011C515.375,154.01435897435897,517.75,154.00981684981684,520.125,154.00527472527472C522.5,154.0007326007326,524.875,153.99619047619046,527.25,153.99164835164834C529.625,153.9871062271062,532,153.9825641025641,534.375,153.97802197802199C536.75,153.97347985347986,539.125,153.96893772893773,541.5,153.9643956043956C543.875,153.95985347985348,546.25,153.95531135531135,548.625,153.95076923076923C551,153.9462271062271,553.375,153.94168498168497,555.75,153.93714285714285C558.125,153.93260073260072,560.5,153.92805860805862,562.875,153.9235164835165C565.25,153.91897435897437,567.625,153.91443223443224,570,153.9098901098901C572.375,153.905347985348,574.75,153.90080586080586,577.125,153.89626373626373C579.5,153.8917216117216,581.875,153.88717948717948,584.25,153.88263736263735C586.625,153.87809523809523,589,153.87355311355313,591.375,153.869010989011C593.75,153.86446886446888,596.125,153.85992673992672,598.5,153.8553846153846C600.875,153.85084249084247,603.25,153.84630036630037,605.625,153.84175824175824C608,153.83721611721612,610.375,153.832673992674,612.75,153.82813186813186C615.125,153.82358974358974,617.5,153.8190476190476,619.875,153.81450549450548C622.25,153.80996336996336,624.625,153.80542124542126,627,153.80087912087913C629.375,153.796336996337,631.75,153.79179487179488,634.125,153.78725274725275C636.5,153.78271062271062,638.875,153.7781684981685,641.25,153.77362637362637C643.625,153.76908424908424,646,153.76454212454212,648.375,153.76C650.75,153.75545787545786,653.125,153.75091575091577,655.5,153.74637362637364C657.875,153.7418315018315,660.25,153.7372893772894,662.625,153.73274725274726C665,153.72820512820513,667.375,153.723663003663,669.75,153.71912087912088C672.125,153.71457875457875,674.5,153.71003663003663,676.875,153.7054945054945C679.25,153.70095238095237,681.625,153.69641025641027,684,153.69186813186815C686.375,153.68732600732602,688.75,153.6827838827839,691.125,153.67824175824177C693.5,153.67369963369964,695.875,153.66915750915751,698.25,153.6646153846154C700.625,153.66007326007326,703,153.65553113553113,705.375,153.650989010989C707.75,153.64644688644688,710.125,153.64190476190475,712.5,153.63736263736263C714.875,153.6328205128205,717.25,153.62827838827837,719.625,153.62373626373625C722,153.61919413919412,724.375,153.61465201465202,726.75,153.6101098901099C729.125,153.60556776556777,731.5,153.60102564102564,733.875,153.59648351648352C736.25,153.5919413919414,738.625,153.58739926739926,741,153.58285714285714C743.375,153.578315018315,745.75,153.57377289377288,748.125,153.56923076923076C750.5,153.56468864468863,752.875,153.56014652014653,755.25,153.5556043956044C757.625,153.55106227106228,760,153.54652014652015,762.375,153.54197802197803C764.75,153.5374358974359,767.125,153.53289377289377,769.5,153.52835164835165C771.875,153.52380952380952,774.2500000000001,153.5192673992674,776.6250000000001,153.51472527472527C779.0000000000001,153.51018315018314,781.3750000000001,153.50564102564104,783.7500000000001,153.5010989010989C786.1250000000001,153.4965567765568,788.5000000000001,153.49201465201466,790.8750000000001,153.48747252747253C793.2500000000001,153.4829304029304,795.6250000000001,153.47838827838828,798.0000000000001,153.47384615384615C800.375,153.46930402930403,802.75,153.4647619047619,805.1249999999999,153.46021978021977C807.4999999999999,153.45567765567765,809.8749999999999,153.45113553113552,812.2499999999999,153.4465934065934C814.6249999999999,153.44205128205127,816.9999999999999,153.43750915750914,819.3749999999999,153.432967032967C821.7499999999999,153.4284249084249,824.1249999999999,153.4238827838828,826.4999999999999,153.41934065934066C828.8749999999999,153.41479853479854,831.25,153.4102564102564,833.625,153.40571428571428C836,153.40117216117216,838.375,153.39663003663003,840.75,153.3920879120879C843.125,153.38754578754578,845.5,153.38300366300368,847.875,153.37846153846155C850.25,153.37391941391942,852.625,153.3693772893773,855,153.36483516483517C857.375,153.36029304029304,859.75,153.35575091575092,862.125,153.3512087912088C864.5,153.34666666666666,866.875,153.34212454212454,869.25,153.3375824175824C871.625,153.33304029304028,874,153.3284981684982,876.375,153.32395604395606C878.75,153.31941391941393,881.125,153.3148717948718,883.5,153.31032967032968C885.875,153.30578754578755,888.25,153.30124542124543,890.625,153.2967032967033C893,153.29216117216117,895.375,153.28761904761905,897.75,153.28307692307692C900.125,153.2785347985348,902.5,153.2739926739927,904.875,153.26945054945057C907.25,153.26490842490844,909.625,153.2603663003663,912,153.25582417582416C914.375,153.25128205128203,916.75,153.24673992673993,919.125,153.2421978021978C921.5,153.23765567765568,923.875,153.23765567765568,926.25,153.22857142857143C928.625,153.21948717948717,931,151.96326530612245,933.375,151.33061224489796C935.75,150.69795918367348,938.125,150.065306122449,940.5,149.4326530612245C942.875,148.8,945.25,148.1673469387755,947.625,147.534693877551C950,146.90204081632652,952.3750000000001,146.26938775510206,954.7500000000001,145.63673469387757C957.1250000000001,145.00408163265308,959.5000000000001,144.37142857142857,961.8750000000001,143.73877551020408C964.2500000000001,143.1061224489796,966.6250000000001,142.4734693877551,969.0000000000001,141.84081632653061C971.3750000000001,141.20816326530613,973.7500000000001,140.5755102040816,976.1250000000001,139.94285714285712C978.5,139.31020408163263,980.875,138.67755102040817,983.2499999999999,138.0448979591837C985.6249999999999,137.4122448979592,987.9999999999999,136.77959183673468,990.3749999999999,136.1469387755102C992.7499999999999,135.5142857142857,995.1249999999999,134.88163265306122,997.4999999999999,134.24897959183673C999.8749999999999,133.61632653061224,1002.2499999999999,132.98367346938775,1004.6249999999999,132.35102040816327C1006.9999999999999,131.71836734693878,1009.375,131.0857142857143,1011.75,130.4530612244898C1014.125,129.8204081632653,1016.5,129.1877551020408,1018.875,128.5551020408163C1021.25,127.92244897959182,1023.625,127.28979591836735,1026,126.65714285714286C1028.375,126.02448979591837,1030.75,125.39183673469387,1033.125,124.75918367346938C1035.5,124.12653061224489,1037.875,123.4938775510204,1040.25,122.86122448979592C1042.625,122.22857142857143,1045,121.59591836734694,1047.375,120.96326530612245C1049.75,120.33061224489796,1052.125,119.69795918367346,1054.5,119.06530612244897C1056.875,118.43265306122449,1059.25,117.8,1061.625,117.16734693877551C1064,116.53469387755102,1066.375,115.90204081632653,1068.75,115.26938775510204C1071.125,114.63673469387756,1073.5,114.00408163265305,1075.875,113.37142857142857C1078.25,112.73877551020408,1080.625,112.10612244897959,1083,111.4734693877551C1085.375,110.84081632653061,1087.75,110.20816326530613,1090.125,109.57551020408164C1092.5,108.94285714285715,1094.875,108.31020408163265,1097.25,107.67755102040816C1099.625,107.04489795918367,1102,106.41224489795918,1104.375,105.7795918367347C1106.75,105.14693877551021,1109.125,104.51428571428572,1111.5,103.88163265306123C1113.875,103.24897959183674,1116.25,102.61632653061224,1118.625,101.98367346938775C1121,101.35102040816327,1123.375,100.71836734693876,1125.75,100.08571428571427C1128.125,99.45306122448979,1130.5,98.82040816326531,1132.875,98.18775510204082C1135.25,97.55510204081634,1137.625,96.92244897959185,1140,96.28979591836736C1142.375,95.65714285714287,1144.75,95.02448979591836,1147.125,94.39183673469387C1149.5,93.75918367346938,1151.875,93.1265306122449,1154.25,92.49387755102042C1156.625,91.86122448979593,1159,91.22857142857143,1161.375,90.59591836734694C1163.75,89.96326530612245,1166.125,89.33061224489795,1168.5,88.69795918367346C1170.875,88.06530612244897,1173.25,87.4326530612245,1175.625,86.80000000000001C1178,86.16734693877552,1180.375,85.534693877551,1182.75,84.90204081632652C1185.125,84.26938775510203,1187.5,83.63673469387754,1189.875,83.00408163265305C1192.25,82.37142857142857,1194.625,81.73877551020409,1197,81.1061224489796C1199.375,80.47346938775512,1201.75,79.84081632653061,1204.125,79.20816326530613C1206.5,78.57551020408164,1208.875,77.94285714285714,1211.25,77.31020408163265C1213.625,76.67755102040816,1216,76.04489795918366,1218.375,75.41224489795917C1220.75,74.77959183673468,1223.125,74.14693877551021,1225.5,73.51428571428572C1227.875,72.88163265306123,1230.25,72.24897959183673,1232.625,71.61632653061224C1235,70.98367346938775,1237.375,70.35102040816325,1239.75,69.71836734693876C1242.125,69.08571428571427,1244.5,68.4530612244898,1246.875,67.82040816326531C1249.25,67.18775510204082,1251.625,66.55510204081631,1254,65.92244897959182C1256.375,65.28979591836733,1258.75,64.65714285714287,1261.125,64.02448979591838C1263.5,63.3918367346939,1265.875,62.7591836734694,1268.25,62.126530612244906C1270.625,61.49387755102041,1273,60.861224489795916,1275.375,60.22857142857143C1277.75,59.59591836734694,1280.125,58.96326530612246,1282.5,58.33061224489797C1284.875,57.69795918367348,1287.25,57.06530612244899,1289.625,56.43265306122449C1292,55.8,1294.375,55.16734693877551,1296.75,54.53469387755102C1299.125,53.90204081632653,1301.5,53.26938775510203,1303.875,52.63673469387754C1306.25,52.004081632653055,1308.625,51.371428571428574,1311,50.738775510204086C1313.375,50.1061224489796,1315.75,49.4734693877551,1318.125,48.840816326530614C1320.5,48.208163265306126,1322.875,47.575510204081624,1325.25,46.942857142857136C1327.625,46.31020408163265,1330,45.67755102040817,1332.375,45.04489795918368C1334.75,44.41224489795919,1337.125,43.779591836734696,1339.5,43.14693877551021C1341.875,42.51428571428572,1344.25,41.88163265306124,1346.625,41.24897959183675C1349,40.61632653061226,1351.375,39.98367346938777,1353.75,39.35102040816327C1356.125,38.71836734693878,1358.5,38.085714285714275,1360.875,37.45306122448978C1363.25,36.820408163265284,1365.625,36.18775510204081,1368,35.55510204081632C1370.375,34.922448979591834,1372.75,34.28979591836735,1375.125,33.657142857142865C1377.5,33.02448979591838,1379.875,32.39183673469388,1382.25,31.75918367346939C1384.625,31.126530612244903,1387,30.493877551020425,1389.375,29.861224489795934C1391.75,29.228571428571442,1394.125,28.595918367346936,1396.5,27.96326530612244C1398.875,27.330612244897946,1401.25,26.697959183673454,1403.625,26.065306122448966C1406,25.432653061224478,1408.375,24.799999999999997,1410.75,24.16734693877551C1413.125,23.53469387755102,1415.5,22.90204081632652,1417.875,22.26938775510203C1420.25,21.636734693877543,1422.625,21.004081632653058,1425,20.371428571428574" fill="transparent" stroke-linecap="round" stroke="#1AD4B3" stroke-width="2"></path><g class="visx-group visx-axis visx-axis-bottom" transform="translate(0, 155)"><g class="visx-group visx-axis-tick" transform="translate(0, 0)"><line class="visx-line" x1="0" y1="0" x2="0" y2="8" fill="transparent" shape-rendering="crispEdges" stroke="#F2F0F9" stroke-width="1" stroke-linecap="square"></line><svg x="0" y="0" font-size="11" style="overflow:visible"><text transform="" x="0" y="19" fill="#1B2030" font-size="11" text-anchor="middle"><tspan x="0" dy="0em">0%</tspan></text></svg></g><g class="visx-group visx-axis-tick" transform="translate(0, 0)"><line class="visx-line" x1="356.25" y1="0" x2="356.25" y2="8" fill="transparent" shape-rendering="crispEdges" stroke="#F2F0F9" stroke-width="1" stroke-linecap="square"></line><svg x="0" y="0" font-size="11" style="overflow:visible"><text transform="" x="356.25" y="19" fill="#1B2030" font-size="11" text-anchor="middle"><tspan x="356.25" dy="0em">25%</tspan></text></svg></g><g class="visx-group visx-axis-tick" transform="translate(0, 0)"><line class="visx-line" x1="712.5" y1="0" x2="712.5" y2="8" fill="transparent" shape-rendering="crispEdges" stroke="#F2F0F9" stroke-width="1" stroke-linecap="square"></line><svg x="0" y="0" font-size="11" style="overflow:visible"><text transform="" x="712.5" y="19" fill="#1B2030" font-size="11" text-anchor="middle"><tspan x="712.5" dy="0em">50%</tspan></text></svg></g><g class="visx-group visx-axis-tick" transform="translate(0, 0)"><line class="visx-line" x1="1068.75" y1="0" x2="1068.75" y2="8" fill="transparent" shape-rendering="crispEdges" stroke="#F2F0F9" stroke-width="1" stroke-linecap="square"></line><svg x="0" y="0" font-size="11" style="overflow:visible"><text transform="" x="1068.75" y="19" fill="#1B2030" font-size="11" text-anchor="middle"><tspan x="1068.75" dy="0em">75%</tspan></text></svg></g><g class="visx-group visx-axis-tick" transform="translate(0, 0)"><line class="visx-line" x1="1425" y1="0" x2="1425" y2="8" fill="transparent" shape-rendering="crispEdges" stroke="#F2F0F9" stroke-width="1" stroke-linecap="square"></line><svg x="0" y="0" font-size="11" style="overflow:visible"><text transform="" x="1425" y="19" fill="#1B2030" font-size="11" text-anchor="middle"><tspan x="1425" dy="0em">100%</tspan></text></svg></g></g><g class="visx-group visx-axis visx-axis-left" transform="translate(0, 0)"><g class="visx-group visx-axis-tick" transform="translate(0, 0)"><line class="visx-line" x1="0" y1="155" x2="-8" y2="155" fill="transparent" shape-rendering="crispEdges" stroke="#F2F0F9" stroke-width="1" stroke-linecap="square"></line><svg x="-30" y="0" font-size="11" style="overflow:visible"><text transform="" x="-8" y="155" fill="#1B2030" font-size="11" text-anchor="start"><tspan x="-8" dy="0em">0%</tspan></text></svg></g><g class="visx-group visx-axis-tick" transform="translate(0, 0)"><line class="visx-line" x1="0" y1="110.71428571428572" x2="-8" y2="110.71428571428572" fill="transparent" shape-rendering="crispEdges" stroke="#F2F0F9" stroke-width="1" stroke-linecap="square"></line><svg x="-30" y="0" font-size="11" style="overflow:visible"><text transform="" x="-8" y="110.71428571428572" fill="#1B2030" font-size="11" text-anchor="start"><tspan x="-8" dy="0em">100%</tspan></text></svg></g><g class="visx-group visx-axis-tick" transform="translate(0, 0)"><line class="visx-line" x1="0" y1="66.42857142857143" x2="-8" y2="66.42857142857143" fill="transparent" shape-rendering="crispEdges" stroke="#F2F0F9" stroke-width="1" stroke-linecap="square"></line><svg x="-30" y="0" font-size="11" style="overflow:visible"><text transform="" x="-8" y="66.42857142857143" fill="#1B2030" font-size="11" text-anchor="start"><tspan x="-8" dy="0em">200%</tspan></text></svg></g><g class="visx-group visx-axis-tick" transform="translate(0, 0)"><line class="visx-line" x1="0" y1="22.14285714285715" x2="-8" y2="22.14285714285715" fill="transparent" shape-rendering="crispEdges" stroke="#F2F0F9" stroke-width="1" stroke-linecap="square"></line><svg x="-30" y="0" font-size="11" style="overflow:visible"><text transform="" x="-8" y="22.14285714285715" fill="#1B2030" font-size="11" text-anchor="start"><tspan x="-8" dy="0em">300%</tspan></text></svg></g><line class="visx-line visx-axis-line" x1="0" y1="155.5" x2="0" y2="0.5" fill="transparent" shape-rendering="crispEdges" stroke="#F2F0F9" stroke-width="1"></line></g><rect class="visx-bar" width="1425" height="155" fill="transparent"></rect><line class="visx-line" x1="926.25" y1="58" x2="926.25" y2="155" fill="transparent" shape-rendering="crispEdges" stroke="#CDC8E1" stroke-width="1" pointer-events="none" stroke-dasharray="5"></line><svg x="0" y="0" font-size="11px" style="overflow:visible"><text transform="" x="926.25" y="50" font-size="11px" fill="#555069" stroke="#FFFFFF" stroke-width="1px" text-anchor="middle"><tspan x="926.25" dy="0.355em">Optimal utilization 65%</tspan></text></svg><svg x="0" y="0" font-size="11px" style="overflow:visible"><text transform="" x="926.25" y="50" font-size="11px" fill="#CDC8E1" text-anchor="middle"><tspan x="926.25" dy="0.355em">Optimal utilization 65%</tspan></text></svg></g></svg>