<?xml version="1.0"?><svg xmlns="http://www.w3.org/2000/svg" xmlns:xlink= "http://www.w3.org/1999/xlink" style="background: white;" width="1500" height="185"> <g style="color: black; font-size: 13px; font-family: sans-serif; transform: translate(18px, 25px);"><g><circle r="3" cx="-6" cy="-5" style="fill: #B6509E" /><text>Borrow APR, variable</text></g><g style="transform: translateX(150px);"><circle r="3" cx="-6" cy="-5" style="fill: rgb(231, 198, 223)" /><text>Borrow APR, stable</text></g><g style="transform: translateX(290px);"><circle r="3" cx="-6" cy="-5" style="fill: rgb(0, 98, 210)" /><text>Utilization Rate</text></g></g><g class="visx-group" transform="translate(40, 50)"><g class="visx-group visx-rows" transform="translate(0, 0)"><line class="visx-line" x1="0" y1="115" x2="1450" y2="115" fill="transparent" shape-rendering="crispEdges" stroke="#000" stroke-width="1" stroke-dasharray="3,3" pointer-events="none"></line><line class="visx-line" x1="0" y1="79.0625" x2="1450" y2="79.0625" fill="transparent" shape-rendering="crispEdges" stroke="#000" stroke-width="1" stroke-dasharray="3,3" pointer-events="none"></line><line class="visx-line" x1="0" y1="43.125" x2="1450" y2="43.125" fill="transparent" shape-rendering="crispEdges" stroke="#000" stroke-width="1" stroke-dasharray="3,3" pointer-events="none"></line><line class="visx-line" x1="0" y1="7.1875" x2="1450" y2="7.1875" fill="transparent" shape-rendering="crispEdges" stroke="#000" stroke-width="1" stroke-dasharray="3,3" pointer-events="none"></line></g><path class="visx-linepath" d="M0,112.84374999986524C2.4166666666666665,112.82128906242139,4.833333333333334,112.79882812497755,7.25,112.7763671875C9.666666666666666,112.75390625002245,12.083333333333334,112.7314453125,14.5,112.708984375C16.916666666666668,112.6865234375,19.333333333333332,112.6640625,21.75,112.6416015625C24.166666666666668,112.619140625,26.583333333333332,112.5966796875,29,112.57421875C31.416666666666668,112.5517578125,33.833333333333336,112.529296875,36.25,112.5068359375C38.666666666666664,112.484375,41.083333333333336,112.4619140625,43.5,112.439453125C45.91666666666667,112.4169921875,48.333333333333336,112.39453125,50.75000000000001,112.3720703125C53.16666666666667,112.349609375,55.583333333333336,112.3271484375,58,112.3046875C60.416666666666664,112.2822265625,62.833333333333336,112.259765625,65.25,112.2373046875C67.66666666666667,112.21484375,70.08333333333333,112.1923828125,72.5,112.169921875C74.91666666666667,112.1474609375,77.33333333333333,112.125,79.75,112.1025390625C82.16666666666667,112.080078125,84.58333333333333,112.0576171875,87,112.03515625C89.41666666666667,112.0126953125,91.83333333333333,111.990234375,94.25,111.9677734375C96.66666666666667,111.9453125,99.08333333333334,111.9228515625,101.50000000000001,111.900390625C103.91666666666667,111.8779296875,106.33333333333334,111.85546875,108.75,111.8330078125C111.16666666666667,111.810546875,113.58333333333333,111.7880859375,116,111.765625C118.41666666666667,111.7431640625,120.83333333333334,111.720703125,123.25000000000001,111.6982421875C125.66666666666667,111.67578125,128.08333333333334,111.6533203125,130.5,111.630859375C132.91666666666666,111.6083984375,135.33333333333334,111.5859375,137.75,111.5634765625C140.16666666666666,111.541015625,142.58333333333334,111.5185546875,145,111.49609375C147.41666666666666,111.4736328125,149.83333333333334,111.451171875,152.25,111.4287109375C154.66666666666666,111.40625,157.08333333333334,111.3837890625,159.5,111.361328125C161.91666666666666,111.3388671875,164.33333333333334,111.31640625,166.75,111.2939453125C169.16666666666666,111.271484375,171.58333333333334,111.2490234375,174,111.2265625C176.41666666666666,111.2041015625,178.83333333333334,111.181640625,181.25,111.1591796875C183.66666666666666,111.13671875,186.08333333333334,111.1142578125,188.5,111.091796875C190.91666666666666,111.0693359375,193.33333333333334,111.046875,195.75,111.0244140625C198.16666666666669,111.001953125,200.58333333333334,110.9794921875,203.00000000000003,110.95703125C205.41666666666669,110.9345703125,207.83333333333331,110.912109375,210.24999999999997,110.8896484375C212.66666666666666,110.8671875,215.08333333333331,110.8447265625,217.5,110.822265625C219.91666666666666,110.7998046875,222.33333333333334,110.77734375,224.75,110.7548828125C227.16666666666666,110.732421875,229.58333333333334,110.7099609375,232,110.6875C234.41666666666666,110.6650390625,236.83333333333334,110.642578125,239.25,110.6201171875C241.66666666666669,110.59765625,244.08333333333334,110.5751953125,246.50000000000003,110.552734375C248.91666666666669,110.5302734375,251.33333333333331,110.5078125,253.74999999999997,110.4853515625C256.16666666666663,110.462890625,258.5833333333333,110.4404296875,261,110.41796875C263.4166666666667,110.3955078125,265.8333333333333,110.373046875,268.25,110.3505859375C270.6666666666667,110.328125,273.0833333333333,110.3056640625,275.5,110.283203125C277.9166666666667,110.2607421875,280.3333333333333,110.23828125,282.75,110.2158203125C285.1666666666667,110.193359375,287.5833333333333,110.1708984375,290,110.1484375C292.4166666666667,110.1259765625,294.8333333333333,110.103515625,297.25,110.0810546875C299.6666666666667,110.05859375,302.0833333333333,110.0361328125,304.5,110.013671875C306.9166666666667,109.9912109375,309.3333333333333,109.96875,311.75,109.9462890625C314.1666666666667,109.923828125,316.5833333333333,109.9013671875,319,109.87890625C321.4166666666667,109.8564453125,323.8333333333333,109.833984375,326.25,109.8115234375C328.6666666666667,109.7890625,331.0833333333333,109.7666015625,333.5,109.744140625C335.9166666666667,109.7216796875,338.3333333333333,109.69921875,340.75,109.6767578125C343.1666666666667,109.654296875,345.5833333333333,109.6318359375,348,109.609375C350.4166666666667,109.5869140625,352.8333333333333,109.564453125,355.25,109.5419921875C357.6666666666667,109.51953125,360.0833333333333,109.4970703125,362.5,109.474609375C364.9166666666667,109.4521484375,367.3333333333333,109.4296875,369.75,109.4072265625C372.1666666666667,109.384765625,374.5833333333333,109.3623046875,377,109.33984375C379.4166666666667,109.3173828125,381.8333333333333,109.294921875,384.25,109.2724609375C386.6666666666667,109.25,389.0833333333333,109.2275390625,391.5,109.205078125C393.9166666666667,109.1826171875,396.33333333333337,109.16015625,398.75000000000006,109.1376953125C401.16666666666674,109.115234375,403.58333333333337,109.0927734375,406.00000000000006,109.0703125C408.4166666666667,109.0478515625,410.8333333333333,109.025390625,413.24999999999994,109.0029296875C415.66666666666663,108.98046875,418.08333333333326,108.9580078125,420.49999999999994,108.935546875C422.91666666666663,108.9130859375,425.3333333333333,108.890625,427.75,108.8681640625C430.1666666666667,108.845703125,432.5833333333333,108.8232421875,435,108.80078125C437.4166666666667,108.7783203125,439.8333333333333,108.755859375,442.25,108.7333984375C444.6666666666667,108.7109375,447.0833333333333,108.6884765625,449.5,108.666015625C451.9166666666667,108.6435546875,454.3333333333333,108.62109375,456.75,108.5986328125C459.1666666666667,108.576171875,461.5833333333333,108.5537109375,464,108.53125C466.4166666666667,108.5087890625,468.8333333333333,108.486328125,471.25,108.4638671875C473.6666666666667,108.44140625,476.0833333333333,108.4189453125,478.5,108.396484375C480.9166666666667,108.3740234375,483.33333333333337,108.3515625,485.75000000000006,108.3291015625C488.16666666666674,108.306640625,490.58333333333337,108.2841796875,493.00000000000006,108.26171875C495.4166666666667,108.2392578125,497.8333333333333,108.216796875,500.24999999999994,108.1943359375C502.66666666666663,108.171875,505.08333333333326,108.1494140625,507.49999999999994,108.126953125C509.91666666666663,108.1044921875,512.3333333333333,108.08203125,514.75,108.0595703125C517.1666666666666,108.037109375,519.5833333333334,108.0146484375,522,107.9921875C524.4166666666666,107.9697265625,526.8333333333334,107.947265625,529.25,107.9248046875C531.6666666666666,107.90234375,534.0833333333334,107.8798828125,536.5,107.857421875C538.9166666666666,107.8349609375,541.3333333333334,107.8125,543.75,107.7900390625C546.1666666666666,107.767578125,548.5833333333334,107.7451171875,551,107.72265625C553.4166666666666,107.7001953125,555.8333333333334,107.677734375,558.25,107.6552734375C560.6666666666666,107.6328125,563.0833333333334,107.6103515625,565.5,107.587890625C567.9166666666666,107.5654296875,570.3333333333334,107.54296875,572.75,107.5205078125C575.1666666666666,107.498046875,577.5833333333334,107.4755859375,580,107.453125C582.4166666666666,107.4306640625,584.8333333333334,107.408203125,587.25,107.3857421875C589.6666666666666,107.36328125,592.0833333333334,107.3408203125,594.5,107.318359375C596.9166666666666,107.2958984375,599.3333333333334,107.2734375,601.75,107.2509765625C604.1666666666666,107.228515625,606.5833333333334,107.2060546875,609,107.18359375C611.4166666666666,107.1611328125,613.8333333333334,107.138671875,616.25,107.1162109375C618.6666666666666,107.09375,621.0833333333334,107.0712890625,623.5,107.048828125C625.9166666666666,107.0263671875,628.3333333333334,107.00390625,630.75,106.9814453125C633.1666666666666,106.958984375,635.5833333333334,106.9365234375,638,106.9140625C640.4166666666666,106.8916015625,642.8333333333334,106.869140625,645.25,106.8466796875C647.6666666666666,106.82421875,650.0833333333334,106.8017578125,652.5,106.779296875C654.9166666666666,106.7568359375,657.3333333333334,106.734375,659.75,106.7119140625C662.1666666666666,106.689453125,664.5833333333334,106.6669921875,667,106.64453125C669.4166666666666,106.6220703125,671.8333333333334,106.599609375,674.25,106.5771484375C676.6666666666666,106.5546875,679.0833333333334,106.5322265625,681.5,106.509765625C683.9166666666666,106.4873046875,686.3333333333334,106.46484375,688.75,106.4423828125C691.1666666666666,106.419921875,693.5833333333334,106.3974609375,696,106.375C698.4166666666666,106.3525390625,700.8333333333334,106.330078125,703.25,106.3076171875C705.6666666666666,106.28515625,708.0833333333334,106.2626953125,710.5,106.240234375C712.9166666666666,106.2177734375,715.3333333333334,106.1953125,717.75,106.1728515625C720.1666666666666,106.150390625,722.5833333333334,106.1279296875,725,106.10546875C727.4166666666666,106.0830078125,729.8333333333334,106.060546875,732.25,106.0380859375C734.6666666666666,106.015625,737.0833333333334,105.9931640625,739.5,105.970703125C741.9166666666666,105.9482421875,744.3333333333334,105.92578125,746.75,105.9033203125C749.1666666666666,105.880859375,751.5833333333334,105.8583984375,754,105.8359375C756.4166666666666,105.8134765625,758.8333333333334,105.791015625,761.25,105.7685546875C763.6666666666666,105.74609375,766.0833333333334,105.7236328125,768.5,105.701171875C770.9166666666666,105.6787109375,773.3333333333334,105.65625,775.75,105.6337890625C778.1666666666666,105.611328125,780.5833333333334,105.5888671875,783,105.56640625C785.4166666666667,105.5439453125,787.8333333333334,105.521484375,790.2500000000001,105.4990234375C792.6666666666667,105.4765625,795.0833333333335,105.4541015625,797.5000000000001,105.431640625C799.9166666666667,105.4091796875,802.3333333333335,105.38671875,804.7500000000001,105.3642578125C807.1666666666667,105.341796875,809.5833333333335,105.3193359375,812.0000000000001,105.296875C814.4166666666667,105.2744140625,816.8333333333333,105.251953125,819.2499999999999,105.2294921875C821.6666666666665,105.20703125,824.0833333333333,105.1845703125,826.4999999999999,105.162109375C828.9166666666665,105.1396484375,831.3333333333333,105.1171875,833.7499999999999,105.0947265625C836.1666666666665,105.072265625,838.5833333333333,105.0498046875,840.9999999999999,105.02734375C843.4166666666666,105.0048828125,845.8333333333333,104.982421875,848.25,104.9599609375C850.6666666666666,104.9375,853.0833333333334,104.9150390625,855.5,104.892578125C857.9166666666666,104.8701171875,860.3333333333334,104.84765625,862.75,104.8251953125C865.1666666666666,104.802734375,867.5833333333334,104.7802734375,870,104.7578125C872.4166666666666,104.7353515625,874.8333333333334,104.712890625,877.25,104.6904296875C879.6666666666666,104.66796875,882.0833333333334,104.6455078125,884.5,104.623046875C886.9166666666666,104.6005859375,889.3333333333334,104.578125,891.75,104.5556640625C894.1666666666666,104.533203125,896.5833333333334,104.5107421875,899,104.48828125C901.4166666666666,104.4658203125,903.8333333333334,104.443359375,906.25,104.4208984375C908.6666666666666,104.3984375,911.0833333333334,104.3759765625,913.5,104.353515625C915.9166666666666,104.3310546875,918.3333333333334,104.30859375,920.75,104.2861328125C923.1666666666666,104.263671875,925.5833333333334,104.2412109375,928,104.21875C930.4166666666666,104.1962890625,932.8333333333334,104.173828125,935.25,104.1513671875C937.6666666666666,104.12890625,940.0833333333334,104.1064453125,942.5,104.083984375C944.9166666666666,104.0615234375,947.3333333333334,104.0390625,949.75,104.0166015625C952.1666666666666,103.994140625,954.5833333333334,103.9716796875,957,103.94921875C959.4166666666666,103.9267578125,961.8333333333334,103.904296875,964.25,103.8818359375C966.6666666666667,103.859375,969.0833333333334,103.8369140625,971.5000000000001,103.814453125C973.9166666666667,103.7919921875,976.3333333333335,103.76953125,978.7500000000001,103.7470703125C981.1666666666667,103.724609375,983.5833333333335,103.7021484375,986.0000000000001,103.6796875C988.4166666666667,103.6572265625,990.8333333333335,103.634765625,993.2500000000001,103.6123046875C995.6666666666667,103.58984375,998.0833333333333,103.5673828125,1000.4999999999999,103.544921875C1002.9166666666665,103.5224609375,1005.3333333333333,103.5,1007.7499999999999,103.4775390625C1010.1666666666665,103.455078125,1012.5833333333333,103.4326171875,1014.9999999999999,103.41015625C1017.4166666666665,103.3876953125,1019.8333333333333,103.365234375,1022.2499999999999,103.3427734375C1024.6666666666665,103.3203125,1027.0833333333333,103.2978515625,1029.5,103.275390625C1031.9166666666667,103.2529296875,1034.3333333333333,103.23046875,1036.75,103.2080078125C1039.1666666666667,103.185546875,1041.5833333333333,103.1630859375,1044,103.140625C1046.4166666666667,103.1181640625,1048.8333333333333,103.095703125,1051.25,103.0732421875C1053.6666666666667,103.05078125,1056.0833333333333,103.0283203125,1058.5,103.005859375C1060.9166666666667,102.9833984375,1063.3333333333333,102.9609375,1065.75,102.9384765625C1068.1666666666667,102.916015625,1070.5833333333333,102.8935546875,1073,102.87109375C1075.4166666666667,102.8486328125,1077.8333333333333,102.826171875,1080.25,102.8037109375C1082.6666666666667,102.78125,1085.0833333333333,102.7587890625,1087.5,102.736328125C1089.9166666666667,102.7138671875,1092.3333333333333,102.69140625,1094.75,102.6689453125C1097.1666666666667,102.646484375,1099.5833333333333,102.6240234375,1102,102.6015625C1104.4166666666667,102.5791015625,1106.8333333333333,102.556640625,1109.25,102.5341796875C1111.6666666666667,102.51171875,1114.0833333333333,102.4892578125,1116.5,102.466796875C1118.9166666666667,102.4443359375,1121.3333333333333,102.421875,1123.75,102.3994140625C1126.1666666666667,102.376953125,1128.5833333333333,102.3544921875,1131,102.33203125C1133.4166666666667,102.3095703125,1135.8333333333333,102.287109375,1138.25,102.2646484375C1140.6666666666667,102.2421875,1143.0833333333333,102.2197265625,1145.5,102.197265625C1147.9166666666667,102.1748046875,1150.3333333333333,102.15234375,1152.75,102.1298828125C1155.1666666666667,102.107421875,1157.5833333333333,102.107421875,1160,102.0625C1162.4166666666667,102.017578125,1164.8333333333333,100.86458333333333,1167.25,100.265625C1169.6666666666667,99.66666666666667,1172.0833333333333,99.06770833333333,1174.5,98.46875C1176.9166666666667,97.86979166666667,1179.3333333333333,97.27083333333333,1181.75,96.671875C1184.1666666666667,96.07291666666667,1186.5833333333333,95.47395833333333,1189,94.875C1191.4166666666667,94.27604166666667,1193.8333333333333,93.67708333333333,1196.25,93.078125C1198.6666666666667,92.47916666666667,1201.0833333333333,91.88020833333333,1203.5,91.28125C1205.9166666666667,90.68229166666667,1208.3333333333333,90.08333333333333,1210.75,89.484375C1213.1666666666667,88.88541666666667,1215.5833333333333,88.28645833333333,1218,87.6875C1220.4166666666667,87.08854166666667,1222.8333333333333,86.48958333333333,1225.25,85.890625C1227.6666666666667,85.29166666666667,1230.0833333333333,84.69270833333333,1232.5,84.09375C1234.9166666666667,83.49479166666667,1237.3333333333333,82.89583333333333,1239.75,82.296875C1242.1666666666667,81.69791666666667,1244.5833333333333,81.09895833333333,1247,80.5C1249.4166666666667,79.90104166666667,1251.8333333333333,79.30208333333333,1254.25,78.703125C1256.6666666666667,78.10416666666667,1259.0833333333333,77.50520833333333,1261.5,76.90625C1263.9166666666667,76.30729166666667,1266.3333333333333,75.70833333333333,1268.75,75.109375C1271.1666666666667,74.51041666666667,1273.5833333333333,73.91145833333334,1276,73.31250000000001C1278.4166666666667,72.71354166666669,1280.8333333333333,72.11458333333334,1283.25,71.515625C1285.6666666666667,70.91666666666666,1288.0833333333333,70.31770833333333,1290.5,69.71875C1292.9166666666667,69.11979166666667,1295.3333333333333,68.52083333333333,1297.75,67.921875C1300.1666666666667,67.32291666666667,1302.5833333333333,66.72395833333333,1305,66.125C1307.4166666666667,65.52604166666667,1309.8333333333333,64.92708333333333,1312.25,64.328125C1314.6666666666667,63.729166666666664,1317.0833333333333,63.13020833333333,1319.5,62.53124999999999C1321.9166666666667,61.93229166666666,1324.3333333333333,61.33333333333333,1326.75,60.73437499999999C1329.1666666666667,60.13541666666666,1331.5833333333333,59.53645833333333,1334,58.93749999999999C1336.4166666666667,58.33854166666666,1338.8333333333333,57.73958333333333,1341.25,57.14062499999999C1343.6666666666667,56.54166666666666,1346.0833333333333,55.94270833333333,1348.5,55.34374999999999C1350.9166666666667,54.74479166666666,1353.3333333333333,54.14583333333333,1355.75,53.54687499999999C1358.1666666666667,52.94791666666666,1360.5833333333333,52.34895833333333,1363,51.74999999999999C1365.4166666666667,51.15104166666666,1367.8333333333333,50.55208333333333,1370.25,49.95312499999999C1372.6666666666667,49.35416666666666,1375.0833333333333,48.75520833333333,1377.5,48.15624999999999C1379.9166666666667,47.55729166666666,1382.3333333333333,46.95833333333333,1384.75,46.35937499999999C1387.1666666666667,45.76041666666666,1389.5833333333333,45.16145833333332,1392,44.56249999999999C1394.4166666666667,43.963541666666664,1396.8333333333333,43.36458333333334,1399.25,42.76562500000001C1401.6666666666667,42.16666666666667,1404.0833333333333,41.56770833333333,1406.5,40.96874999999999C1408.9166666666667,40.36979166666666,1411.3333333333333,39.77083333333333,1413.75,39.17187499999999C1416.1666666666667,38.57291666666666,1418.5833333333333,37.97395833333333,1421,37.37499999999999C1423.4166666666667,36.77604166666666,1425.8333333333333,36.17708333333332,1428.25,35.57812499999999C1430.6666666666667,34.979166666666664,1433.0833333333333,34.38020833333334,1435.5,33.78125000000001C1437.9166666666667,33.18229166666667,1440.3333333333333,32.58333333333333,1442.75,31.984374999999996C1445.1666666666667,31.38541666666666,1447.5833333333333,30.78645833333333,1450,30.187499999999996" fill="transparent" stroke-linecap="round" stroke="#B6509E" stroke-width="2"></path><path class="visx-linepath" d="M0,102.06249999986524C2.4166666666666665,102.04003906242139,4.833333333333334,102.01757812497755,7.25,101.9951171875C9.666666666666666,101.97265625002245,12.083333333333334,101.9501953125,14.5,101.927734375C16.916666666666668,101.9052734375,19.333333333333332,101.8828125,21.75,101.8603515625C24.166666666666668,101.837890625,26.583333333333332,101.8154296875,29,101.79296875C31.416666666666668,101.7705078125,33.833333333333336,101.748046875,36.25,101.7255859375C38.666666666666664,101.703125,41.083333333333336,101.6806640625,43.5,101.658203125C45.91666666666667,101.6357421875,48.333333333333336,101.61328125,50.75000000000001,101.5908203125C53.16666666666667,101.568359375,55.583333333333336,101.5458984375,58,101.5234375C60.416666666666664,101.5009765625,62.833333333333336,101.478515625,65.25,101.4560546875C67.66666666666667,101.43359375,70.08333333333333,101.4111328125,72.5,101.388671875C74.91666666666667,101.3662109375,77.33333333333333,101.34375,79.75,101.3212890625C82.16666666666667,101.298828125,84.58333333333333,101.2763671875,87,101.25390625C89.41666666666667,101.2314453125,91.83333333333333,101.208984375,94.25,101.1865234375C96.66666666666667,101.1640625,99.08333333333334,101.1416015625,101.50000000000001,101.119140625C103.91666666666667,101.0966796875,106.33333333333334,101.07421875,108.75,101.0517578125C111.16666666666667,101.029296875,113.58333333333333,101.0068359375,116,100.984375C118.41666666666667,100.9619140625,120.83333333333334,100.939453125,123.25000000000001,100.9169921875C125.66666666666667,100.89453125,128.08333333333334,100.8720703125,130.5,100.849609375C132.91666666666666,100.8271484375,135.33333333333334,100.8046875,137.75,100.7822265625C140.16666666666666,100.759765625,142.58333333333334,100.7373046875,145,100.71484375C147.41666666666666,100.6923828125,149.83333333333334,100.669921875,152.25,100.6474609375C154.66666666666666,100.625,157.08333333333334,100.6025390625,159.5,100.580078125C161.91666666666666,100.5576171875,164.33333333333334,100.53515625,166.75,100.5126953125C169.16666666666666,100.490234375,171.58333333333334,100.4677734375,174,100.4453125C176.41666666666666,100.4228515625,178.83333333333334,100.400390625,181.25,100.3779296875C183.66666666666666,100.35546875,186.08333333333334,100.3330078125,188.5,100.310546875C190.91666666666666,100.2880859375,193.33333333333334,100.265625,195.75,100.2431640625C198.16666666666669,100.220703125,200.58333333333334,100.1982421875,203.00000000000003,100.17578125C205.41666666666669,100.1533203125,207.83333333333331,100.130859375,210.24999999999997,100.1083984375C212.66666666666666,100.0859375,215.08333333333331,100.0634765625,217.5,100.041015625C219.91666666666666,100.0185546875,222.33333333333334,99.99609375,224.75,99.9736328125C227.16666666666666,99.951171875,229.58333333333334,99.9287109375,232,99.90625C234.41666666666666,99.8837890625,236.83333333333334,99.861328125,239.25,99.8388671875C241.66666666666669,99.81640625,244.08333333333334,99.7939453125,246.50000000000003,99.771484375C248.91666666666669,99.7490234375,251.33333333333331,99.7265625,253.74999999999997,99.7041015625C256.16666666666663,99.681640625,258.5833333333333,99.6591796875,261,99.63671875C263.4166666666667,99.6142578125,265.8333333333333,99.591796875,268.25,99.5693359375C270.6666666666667,99.546875,273.0833333333333,99.5244140625,275.5,99.501953125C277.9166666666667,99.4794921875,280.3333333333333,99.45703125,282.75,99.4345703125C285.1666666666667,99.412109375,287.5833333333333,99.3896484375,290,99.3671875C292.4166666666667,99.3447265625,294.8333333333333,99.322265625,297.25,99.2998046875C299.6666666666667,99.27734375,302.0833333333333,99.2548828125,304.5,99.232421875C306.9166666666667,99.2099609375,309.3333333333333,99.1875,311.75,99.1650390625C314.1666666666667,99.142578125,316.5833333333333,99.1201171875,319,99.09765625C321.4166666666667,99.0751953125,323.8333333333333,99.052734375,326.25,99.0302734375C328.6666666666667,99.0078125,331.0833333333333,98.9853515625,333.5,98.962890625C335.9166666666667,98.9404296875,338.3333333333333,98.91796875,340.75,98.8955078125C343.1666666666667,98.873046875,345.5833333333333,98.8505859375,348,98.828125C350.4166666666667,98.8056640625,352.8333333333333,98.783203125,355.25,98.7607421875C357.6666666666667,98.73828125,360.0833333333333,98.7158203125,362.5,98.693359375C364.9166666666667,98.6708984375,367.3333333333333,98.6484375,369.75,98.6259765625C372.1666666666667,98.603515625,374.5833333333333,98.5810546875,377,98.55859375C379.4166666666667,98.5361328125,381.8333333333333,98.513671875,384.25,98.4912109375C386.6666666666667,98.46875,389.0833333333333,98.4462890625,391.5,98.423828125C393.9166666666667,98.4013671875,396.33333333333337,98.37890625,398.75000000000006,98.3564453125C401.16666666666674,98.333984375,403.58333333333337,98.3115234375,406.00000000000006,98.2890625C408.4166666666667,98.2666015625,410.8333333333333,98.244140625,413.24999999999994,98.2216796875C415.66666666666663,98.19921875,418.08333333333326,98.1767578125,420.49999999999994,98.154296875C422.91666666666663,98.1318359375,425.3333333333333,98.109375,427.75,98.0869140625C430.1666666666667,98.064453125,432.5833333333333,98.0419921875,435,98.01953125C437.4166666666667,97.9970703125,439.8333333333333,97.974609375,442.25,97.9521484375C444.6666666666667,97.9296875,447.0833333333333,97.9072265625,449.5,97.884765625C451.9166666666667,97.8623046875,454.3333333333333,97.83984375,456.75,97.8173828125C459.1666666666667,97.794921875,461.5833333333333,97.7724609375,464,97.75C466.4166666666667,97.7275390625,468.8333333333333,97.705078125,471.25,97.6826171875C473.6666666666667,97.66015625,476.0833333333333,97.6376953125,478.5,97.615234375C480.9166666666667,97.5927734375,483.33333333333337,97.5703125,485.75000000000006,97.5478515625C488.16666666666674,97.525390625,490.58333333333337,97.5029296875,493.00000000000006,97.48046875C495.4166666666667,97.4580078125,497.8333333333333,97.435546875,500.24999999999994,97.4130859375C502.66666666666663,97.390625,505.08333333333326,97.3681640625,507.49999999999994,97.345703125C509.91666666666663,97.3232421875,512.3333333333333,97.30078125,514.75,97.2783203125C517.1666666666666,97.255859375,519.5833333333334,97.2333984375,522,97.2109375C524.4166666666666,97.1884765625,526.8333333333334,97.166015625,529.25,97.1435546875C531.6666666666666,97.12109375,534.0833333333334,97.0986328125,536.5,97.076171875C538.9166666666666,97.0537109375,541.3333333333334,97.03125,543.75,97.0087890625C546.1666666666666,96.986328125,548.5833333333334,96.9638671875,551,96.94140625C553.4166666666666,96.9189453125,555.8333333333334,96.896484375,558.25,96.8740234375C560.6666666666666,96.8515625,563.0833333333334,96.8291015625,565.5,96.806640625C567.9166666666666,96.7841796875,570.3333333333334,96.76171875,572.75,96.7392578125C575.1666666666666,96.716796875,577.5833333333334,96.6943359375,580,96.671875C582.4166666666666,96.6494140625,584.8333333333334,96.626953125,587.25,96.6044921875C589.6666666666666,96.58203125,592.0833333333334,96.55957031249999,594.5,96.53710937499999C596.9166666666666,96.51464843749999,599.3333333333334,96.4921875,601.75,96.4697265625C604.1666666666666,96.447265625,606.5833333333334,96.42480468750001,609,96.40234375000001C611.4166666666666,96.37988281250001,613.8333333333334,96.357421875,616.25,96.3349609375C618.6666666666666,96.3125,621.0833333333334,96.2900390625,623.5,96.267578125C625.9166666666666,96.2451171875,628.3333333333334,96.22265625,630.75,96.2001953125C633.1666666666666,96.177734375,635.5833333333334,96.1552734375,638,96.1328125C640.4166666666666,96.1103515625,642.8333333333334,96.087890625,645.25,96.0654296875C647.6666666666666,96.04296875,650.0833333333334,96.0205078125,652.5,95.998046875C654.9166666666666,95.9755859375,657.3333333333334,95.953125,659.75,95.9306640625C662.1666666666666,95.908203125,664.5833333333334,95.8857421875,667,95.86328125C669.4166666666666,95.8408203125,671.8333333333334,95.818359375,674.25,95.7958984375C676.6666666666666,95.7734375,679.0833333333334,95.7509765625,681.5,95.728515625C683.9166666666666,95.7060546875,686.3333333333334,95.68359375,688.75,95.6611328125C691.1666666666666,95.638671875,693.5833333333334,95.6162109375,696,95.59375C698.4166666666666,95.5712890625,700.8333333333334,95.548828125,703.25,95.5263671875C705.6666666666666,95.50390625,708.0833333333334,95.4814453125,710.5,95.458984375C712.9166666666666,95.4365234375,715.3333333333334,95.4140625,717.75,95.3916015625C720.1666666666666,95.369140625,722.5833333333334,95.3466796875,725,95.32421875C727.4166666666666,95.3017578125,729.8333333333334,95.279296875,732.25,95.2568359375C734.6666666666666,95.234375,737.0833333333334,95.2119140625,739.5,95.189453125C741.9166666666666,95.1669921875,744.3333333333334,95.14453125,746.75,95.1220703125C749.1666666666666,95.099609375,751.5833333333334,95.0771484375,754,95.0546875C756.4166666666666,95.0322265625,758.8333333333334,95.009765625,761.25,94.9873046875C763.6666666666666,94.96484375,766.0833333333334,94.9423828125,768.5,94.919921875C770.9166666666666,94.8974609375,773.3333333333334,94.87499999999999,775.75,94.85253906249999C778.1666666666666,94.83007812499999,780.5833333333334,94.8076171875,783,94.78515625C785.4166666666667,94.7626953125,787.8333333333334,94.74023437500001,790.2500000000001,94.71777343750001C792.6666666666667,94.69531250000001,795.0833333333335,94.6728515625,797.5000000000001,94.650390625C799.9166666666667,94.6279296875,802.3333333333335,94.60546875,804.7500000000001,94.5830078125C807.1666666666667,94.560546875,809.5833333333335,94.5380859375,812.0000000000001,94.515625C814.4166666666667,94.4931640625,816.8333333333333,94.470703125,819.2499999999999,94.4482421875C821.6666666666665,94.42578125,824.0833333333333,94.4033203125,826.4999999999999,94.380859375C828.9166666666665,94.3583984375,831.3333333333333,94.3359375,833.7499999999999,94.3134765625C836.1666666666665,94.291015625,838.5833333333333,94.2685546875,840.9999999999999,94.24609375C843.4166666666666,94.2236328125,845.8333333333333,94.201171875,848.25,94.1787109375C850.6666666666666,94.15625,853.0833333333334,94.1337890625,855.5,94.111328125C857.9166666666666,94.0888671875,860.3333333333334,94.06640625,862.75,94.0439453125C865.1666666666666,94.021484375,867.5833333333334,93.9990234375,870,93.9765625C872.4166666666666,93.9541015625,874.8333333333334,93.931640625,877.25,93.9091796875C879.6666666666666,93.88671875,882.0833333333334,93.8642578125,884.5,93.841796875C886.9166666666666,93.8193359375,889.3333333333334,93.796875,891.75,93.7744140625C894.1666666666666,93.751953125,896.5833333333334,93.7294921875,899,93.70703125C901.4166666666666,93.6845703125,903.8333333333334,93.662109375,906.25,93.6396484375C908.6666666666666,93.6171875,911.0833333333334,93.5947265625,913.5,93.572265625C915.9166666666666,93.5498046875,918.3333333333334,93.52734375,920.75,93.5048828125C923.1666666666666,93.482421875,925.5833333333334,93.4599609375,928,93.4375C930.4166666666666,93.4150390625,932.8333333333334,93.392578125,935.25,93.3701171875C937.6666666666666,93.34765625,940.0833333333334,93.3251953125,942.5,93.302734375C944.9166666666666,93.2802734375,947.3333333333334,93.2578125,949.75,93.2353515625C952.1666666666666,93.212890625,954.5833333333334,93.19042968749999,957,93.16796874999999C959.4166666666666,93.14550781249999,961.8333333333334,93.123046875,964.25,93.1005859375C966.6666666666667,93.078125,969.0833333333334,93.05566406250001,971.5000000000001,93.03320312500001C973.9166666666667,93.01074218750001,976.3333333333335,92.98828125,978.7500000000001,92.9658203125C981.1666666666667,92.943359375,983.5833333333335,92.9208984375,986.0000000000001,92.8984375C988.4166666666667,92.8759765625,990.8333333333335,92.853515625,993.2500000000001,92.8310546875C995.6666666666667,92.80859375,998.0833333333333,92.7861328125,1000.4999999999999,92.763671875C1002.9166666666665,92.7412109375,1005.3333333333333,92.71875,1007.7499999999999,92.6962890625C1010.1666666666665,92.673828125,1012.5833333333333,92.6513671875,1014.9999999999999,92.62890625C1017.4166666666665,92.6064453125,1019.8333333333333,92.583984375,1022.2499999999999,92.5615234375C1024.6666666666665,92.5390625,1027.0833333333333,92.5166015625,1029.5,92.494140625C1031.9166666666667,92.4716796875,1034.3333333333333,92.44921875,1036.75,92.4267578125C1039.1666666666667,92.404296875,1041.5833333333333,92.3818359375,1044,92.359375C1046.4166666666667,92.3369140625,1048.8333333333333,92.314453125,1051.25,92.2919921875C1053.6666666666667,92.26953125,1056.0833333333333,92.2470703125,1058.5,92.224609375C1060.9166666666667,92.2021484375,1063.3333333333333,92.1796875,1065.75,92.1572265625C1068.1666666666667,92.134765625,1070.5833333333333,92.1123046875,1073,92.08984375C1075.4166666666667,92.0673828125,1077.8333333333333,92.044921875,1080.25,92.0224609375C1082.6666666666667,92,1085.0833333333333,91.9775390625,1087.5,91.955078125C1089.9166666666667,91.9326171875,1092.3333333333333,91.91015625,1094.75,91.8876953125C1097.1666666666667,91.865234375,1099.5833333333333,91.8427734375,1102,91.8203125C1104.4166666666667,91.7978515625,1106.8333333333333,91.775390625,1109.25,91.7529296875C1111.6666666666667,91.73046875,1114.0833333333333,91.7080078125,1116.5,91.685546875C1118.9166666666667,91.6630859375,1121.3333333333333,91.640625,1123.75,91.6181640625C1126.1666666666667,91.595703125,1128.5833333333333,91.5732421875,1131,91.55078125C1133.4166666666667,91.5283203125,1135.8333333333333,91.505859375,1138.25,91.4833984375C1140.6666666666667,91.4609375,1143.0833333333333,91.4384765625,1145.5,91.416015625C1147.9166666666667,91.3935546875,1150.3333333333333,91.37109375,1152.75,91.3486328125C1155.1666666666667,91.326171875,1157.5833333333333,91.326171875,1160,91.28125C1162.4166666666667,91.236328125,1164.8333333333333,90.08333333333333,1167.25,89.484375C1169.6666666666667,88.88541666666667,1172.0833333333333,88.28645833333333,1174.5,87.6875C1176.9166666666667,87.08854166666667,1179.3333333333333,86.48958333333333,1181.75,85.890625C1184.1666666666667,85.29166666666667,1186.5833333333333,84.69270833333333,1189,84.09375C1191.4166666666667,83.49479166666667,1193.8333333333333,82.89583333333333,1196.25,82.296875C1198.6666666666667,81.69791666666667,1201.0833333333333,81.09895833333333,1203.5,80.5C1205.9166666666667,79.90104166666667,1208.3333333333333,79.30208333333333,1210.75,78.703125C1213.1666666666667,78.10416666666667,1215.5833333333333,77.50520833333333,1218,76.90625C1220.4166666666667,76.30729166666667,1222.8333333333333,75.70833333333333,1225.25,75.109375C1227.6666666666667,74.51041666666667,1230.0833333333333,73.91145833333334,1232.5,73.31250000000001C1234.9166666666667,72.71354166666669,1237.3333333333333,72.11458333333334,1239.75,71.515625C1242.1666666666667,70.91666666666666,1244.5833333333333,70.31770833333333,1247,69.71875C1249.4166666666667,69.11979166666667,1251.8333333333333,68.52083333333333,1254.25,67.921875C1256.6666666666667,67.32291666666667,1259.0833333333333,66.72395833333333,1261.5,66.125C1263.9166666666667,65.52604166666667,1266.3333333333333,64.92708333333333,1268.75,64.328125C1271.1666666666667,63.729166666666664,1273.5833333333333,63.13020833333333,1276,62.53124999999999C1278.4166666666667,61.93229166666666,1280.8333333333333,61.33333333333333,1283.25,60.73437499999999C1285.6666666666667,60.13541666666666,1288.0833333333333,59.53645833333333,1290.5,58.93749999999999C1292.9166666666667,58.33854166666666,1295.3333333333333,57.73958333333333,1297.75,57.14062499999999C1300.1666666666667,56.54166666666666,1302.5833333333333,55.94270833333333,1305,55.34374999999999C1307.4166666666667,54.74479166666666,1309.8333333333333,54.14583333333333,1312.25,53.54687499999999C1314.6666666666667,52.94791666666666,1317.0833333333333,52.34895833333333,1319.5,51.74999999999999C1321.9166666666667,51.15104166666666,1324.3333333333333,50.55208333333333,1326.75,49.95312499999999C1329.1666666666667,49.35416666666666,1331.5833333333333,48.75520833333333,1334,48.15624999999999C1336.4166666666667,47.55729166666666,1338.8333333333333,46.95833333333333,1341.25,46.35937499999999C1343.6666666666667,45.76041666666666,1346.0833333333333,45.16145833333332,1348.5,44.56249999999999C1350.9166666666667,43.963541666666664,1353.3333333333333,43.36458333333334,1355.75,42.76562500000001C1358.1666666666667,42.16666666666667,1360.5833333333333,41.56770833333333,1363,40.96874999999999C1365.4166666666667,40.36979166666666,1367.8333333333333,39.77083333333333,1370.25,39.17187499999999C1372.6666666666667,38.57291666666666,1375.0833333333333,37.97395833333333,1377.5,37.37499999999999C1379.9166666666667,36.77604166666666,1382.3333333333333,36.17708333333332,1384.75,35.57812499999999C1387.1666666666667,34.979166666666664,1389.5833333333333,34.38020833333334,1392,33.78125000000001C1394.4166666666667,33.18229166666667,1396.8333333333333,32.58333333333333,1399.25,31.984374999999996C1401.6666666666667,31.38541666666666,1404.0833333333333,30.78645833333333,1406.5,30.187499999999996C1408.9166666666667,29.588541666666664,1411.3333333333333,28.98958333333333,1413.75,28.390624999999996C1416.1666666666667,27.791666666666664,1418.5833333333333,27.19270833333333,1421,26.593749999999996C1423.4166666666667,25.994791666666664,1425.8333333333333,25.39583333333334,1428.25,24.796875000000007C1430.6666666666667,24.197916666666675,1433.0833333333333,23.598958333333332,1435.5,22.999999999999996C1437.9166666666667,22.40104166666666,1440.3333333333333,21.80208333333333,1442.75,21.203124999999996C1445.1666666666667,20.604166666666664,1447.5833333333333,20.00520833333333,1450,19.406249999999996" fill="transparent" stroke-linecap="round" stroke="#E7C6DF" stroke-width="2"></path><g class="visx-group visx-axis visx-axis-bottom" transform="translate(0, 115)"><g class="visx-group visx-axis-tick" transform="translate(0, 0)"><line class="visx-line" x1="0" y1="0" x2="0" y2="8" fill="transparent" shape-rendering="crispEdges" stroke="#000" stroke-width="0" stroke-linecap="square"></line><svg x="0" y="0" font-size="10" style="overflow:visible"><text transform="" x="0" y="18" fill="#000" font-size="10" text-anchor="middle"><tspan x="0" dy="0em">0%</tspan></text></svg></g><g class="visx-group visx-axis-tick" transform="translate(0, 0)"><line class="visx-line" x1="362.5" y1="0" x2="362.5" y2="8" fill="transparent" shape-rendering="crispEdges" stroke="#000" stroke-width="0" stroke-linecap="square"></line><svg x="0" y="0" font-size="10" style="overflow:visible"><text transform="" x="362.5" y="18" fill="#000" font-size="10" text-anchor="middle"><tspan x="362.5" dy="0em">25%</tspan></text></svg></g><g class="visx-group visx-axis-tick" transform="translate(0, 0)"><line class="visx-line" x1="725" y1="0" x2="725" y2="8" fill="transparent" shape-rendering="crispEdges" stroke="#000" stroke-width="0" stroke-linecap="square"></line><svg x="0" y="0" font-size="10" style="overflow:visible"><text transform="" x="725" y="18" fill="#000" font-size="10" text-anchor="middle"><tspan x="725" dy="0em">50%</tspan></text></svg></g><g class="visx-group visx-axis-tick" transform="translate(0, 0)"><line class="visx-line" x1="1087.5" y1="0" x2="1087.5" y2="8" fill="transparent" shape-rendering="crispEdges" stroke="#000" stroke-width="0" stroke-linecap="square"></line><svg x="0" y="0" font-size="10" style="overflow:visible"><text transform="" x="1087.5" y="18" fill="#000" font-size="10" text-anchor="middle"><tspan x="1087.5" dy="0em">75%</tspan></text></svg></g><g class="visx-group visx-axis-tick" transform="translate(0, 0)"><line class="visx-line" x1="1450" y1="0" x2="1450" y2="8" fill="transparent" shape-rendering="crispEdges" stroke="#000" stroke-width="0" stroke-linecap="square"></line><svg x="0" y="0" font-size="10" style="overflow:visible"><text transform="" x="1450" y="18" fill="#000" font-size="10" text-anchor="middle"><tspan x="1450" dy="0em">100%</tspan></text></svg></g><line class="visx-line visx-axis-line" x1="0.5" y1="0" x2="1450.5" y2="0" fill="transparent" shape-rendering="crispEdges" stroke="#222" stroke-width="0"></line></g><g class="visx-group visx-axis visx-axis-left" transform="translate(0, 0)"><g class="visx-group visx-axis-tick" transform="translate(0, 0)"><line class="visx-line" x1="0" y1="115" x2="-8" y2="115" fill="transparent" shape-rendering="crispEdges" stroke="#222" stroke-width="0" stroke-linecap="square"></line><svg x="-30" y="0" font-size="8" style="overflow:visible"><text transform="" x="-8" y="115" fill="#000" font-size="8" text-anchor="start"><tspan x="-8" dy="0em">0%</tspan></text></svg></g><g class="visx-group visx-axis-tick" transform="translate(0, 0)"><line class="visx-line" x1="0" y1="43.125" x2="-8" y2="43.125" fill="transparent" shape-rendering="crispEdges" stroke="#222" stroke-width="0" stroke-linecap="square"></line><svg x="-30" y="0" font-size="8" style="overflow:visible"><text transform="" x="-8" y="43.125" fill="#000" font-size="8" text-anchor="start"><tspan x="-8" dy="0em">100%</tspan></text></svg></g><line class="visx-line visx-axis-line" x1="0" y1="115.5" x2="0" y2="0.5" fill="transparent" shape-rendering="crispEdges" stroke="#222" stroke-width="0"></line></g><rect class="visx-bar" width="1450" height="115" fill="transparent"></rect><line class="visx-line" x1="1160" y1="28" x2="1160" y2="115" fill="transparent" shape-rendering="crispEdges" stroke="#0062D2" stroke-width="1" pointer-events="none" stroke-dasharray="5,2"></line><svg x="0" y="0" font-size="10px" style="overflow:visible"><text transform="" x="1160" y="20" font-size="10px" fill="#fff" stroke="#fff" stroke-width="0.8em" text-anchor="middle"><tspan x="1160" dy="0.355em">Optimal 80%</tspan></text></svg><svg x="0" y="0" font-size="10px" style="overflow:visible"><text transform="" x="1160" y="20" font-size="10px" fill="#62677B" text-anchor="middle"><tspan x="1160" dy="0.355em">Optimal 80%</tspan></text></svg></g></svg>