<svg version="1.1" xmlns="http://www.w3.org/2000/svg" viewBox="0 0 943.27734375 674.10546875" width="2829.83203125" height="2022.31640625">
  <!-- svg-source:excalidraw -->
  
  <defs>
    <style class="style-fonts">
      @font-face {
        font-family: "Virgil";
        src: url("https://excalidraw.com/Virgil.woff2");
      }
      @font-face {
        font-family: "Cascadia";
        src: url("https://excalidraw.com/Cascadia.woff2");
      }
    </style>
  </defs>
  <rect x="0" y="0" width="943.27734375" height="674.10546875" fill="#ffffff"></rect><g stroke-linecap="round" transform="translate(10 210.078125) rotate(0 116 57.5)"><path d="M28.75 0 M28.75 0 C89.18 2.92, 151.39 3.24, 203.25 0 M28.75 0 C92.53 -1.65, 156.19 -1.37, 203.25 0 M203.25 0 C222.82 0.41, 233.44 9.88, 232 28.75 M203.25 0 C223.52 -1.64, 234.1 8.81, 232 28.75 M232 28.75 C230.25 41.19, 232.98 52.88, 232 86.25 M232 28.75 C231.73 47.21, 232.83 67.24, 232 86.25 M232 86.25 C233.73 103.46, 221.51 114.19, 203.25 115 M232 86.25 C231.24 106.47, 223.91 117.06, 203.25 115 M203.25 115 C143.45 115.33, 80.54 115.8, 28.75 115 M203.25 115 C157.57 115.02, 110.09 115.71, 28.75 115 M28.75 115 C10.97 116.37, -0.87 105.19, 0 86.25 M28.75 115 C7.75 112.94, -1.67 103.26, 0 86.25 M0 86.25 C1.02 69.72, -1.74 53.03, 0 28.75 M0 86.25 C-0.22 72.65, 0.97 58.3, 0 28.75 M0 28.75 C-0.31 8.28, 8.96 -1.95, 28.75 0 M0 28.75 C1.92 10.63, 10.69 -2.23, 28.75 0" stroke="#000000" stroke-width="1" fill="none"></path></g><g transform="translate(18 255.078125) rotate(0 108 12.5)"><text x="108" y="18" font-family="Virgil, Segoe UI Emoji" font-size="20px" fill="#000000" text-anchor="middle" style="white-space: pre;" direction="ltr">GenericV3ListingEngine</text></g><g stroke-linecap="round" transform="translate(524.078125 118.60546875) rotate(0 112.513671875 30)"><path d="M15 0 M15 0 C74.19 1.33, 135.82 1.24, 210.03 0 M15 0 C92.37 -1.48, 167.24 -0.01, 210.03 0 M210.03 0 C219.44 1.43, 226.08 3.13, 225.03 15 M210.03 0 C218.75 2.09, 223.7 4.04, 225.03 15 M225.03 15 C226.36 23.07, 223.86 32.09, 225.03 45 M225.03 15 C224.37 22.06, 224.11 31.67, 225.03 45 M225.03 45 C225.72 56, 221.35 61.92, 210.03 60 M225.03 45 C225.93 53.2, 221.3 59.11, 210.03 60 M210.03 60 C170.53 59.77, 129.97 61.13, 15 60 M210.03 60 C166.24 60.72, 122.62 62.2, 15 60 M15 60 C4.5 60.44, 1.44 54.14, 0 45 M15 60 C4.98 61.09, 1.91 53.98, 0 45 M0 45 C0.7 40.31, 0.35 31.39, 0 15 M0 45 C-1.05 34.82, -0.17 23.28, 0 15 M0 15 C0.76 5.15, 3.63 1.23, 15 0 M0 15 C0.9 2.75, 5.82 1.12, 15 0" stroke="#000000" stroke-width="1" fill="none"></path></g><g transform="translate(543.591796875 136.10546875) rotate(0 93 12.5)"><text x="93" y="18" font-family="Virgil, Segoe UI Emoji" font-size="20px" fill="#000000" text-anchor="middle" style="white-space: pre;" direction="ltr">AaveV3ListingBase</text></g><g stroke-linecap="round" transform="translate(388.494140625 259.20703125) rotate(0 122.5 30)"><path d="M15 0 M15 0 C62.12 2.92, 111.09 -0.03, 230 0 M15 0 C95.79 0.08, 176.98 0.44, 230 0 M230 0 C241.9 0.13, 244.54 3.74, 245 15 M230 0 C240.48 0.26, 245.81 2.78, 245 15 M245 15 C244.68 22.39, 245.96 27.5, 245 45 M245 15 C244.05 23.48, 245.05 30.87, 245 45 M245 45 C245.1 54.64, 238.73 58.88, 230 60 M245 45 C243.68 52.97, 241.48 59.98, 230 60 M230 60 C164.35 59.34, 96.9 61.61, 15 60 M230 60 C179.54 60.31, 128.66 60.28, 15 60 M15 60 C4.32 59.37, -0.8 53.01, 0 45 M15 60 C3.43 58.5, 1.88 53.75, 0 45 M0 45 C1.84 39.12, 1.11 31.15, 0 15 M0 45 C-0.32 37.13, 0 30.85, 0 15 M0 15 C-1.97 6.13, 5.11 1.43, 15 0 M0 15 C2.06 4.07, 3.67 -0.53, 15 0" stroke="#000000" stroke-width="1" fill="none"></path></g><g transform="translate(398.494140625 276.70703125) rotate(0 112.5 12.5)"><text x="112.5" y="18" font-family="Virgil, Segoe UI Emoji" font-size="20px" fill="#000000" text-anchor="middle" style="white-space: pre;" direction="ltr">AaveV3ListingEthereum</text></g><g stroke-linecap="round" transform="translate(688.27734375 259.4140625) rotate(0 122.5 30)"><path d="M15 0 M15 0 C91.78 -0.89, 167.93 -1.17, 230 0 M15 0 C94.73 -1.7, 172.58 -0.69, 230 0 M230 0 C240.08 1.74, 244.47 6.53, 245 15 M230 0 C242.28 0.86, 245.56 5.3, 245 15 M245 15 C243.83 24.05, 245.79 29.99, 245 45 M245 15 C245.38 22.57, 244.6 29.38, 245 45 M245 45 C246.04 55.05, 239.65 61.17, 230 60 M245 45 C246.88 56.15, 241.08 59.73, 230 60 M230 60 C162.46 62.11, 96.21 61.44, 15 60 M230 60 C164.16 59.29, 99.03 59.75, 15 60 M15 60 C6.08 61.54, -0.91 55.18, 0 45 M15 60 C4.23 59.66, 1.6 55.11, 0 45 M0 45 C1.74 34.12, -0.85 23.37, 0 15 M0 45 C-0.94 36.07, 0.08 27.73, 0 15 M0 15 C-1.61 3.08, 6.61 0.01, 15 0 M0 15 C0.81 3.44, 4.39 0.22, 15 0" stroke="#000000" stroke-width="1" fill="none"></path></g><g transform="translate(708.27734375 276.9140625) rotate(0 102.5 12.5)"><text x="102.5" y="18" font-family="Virgil, Segoe UI Emoji" font-size="20px" fill="#000000" text-anchor="middle" style="white-space: pre;" direction="ltr">AaveV3ListingPolygon</text></g><g stroke-linecap="round" transform="translate(358.09375 399.140625) rotate(0 165.5 30)"><path d="M15 0 M15 0 C117.1 -1.44, 215.61 -1.26, 316 0 M15 0 C82.19 -2.24, 148.89 -1.27, 316 0 M316 0 C326.96 1.57, 332.8 6.73, 331 15 M316 0 C326.37 -1.27, 331.36 4.88, 331 15 M331 15 C330.58 20.71, 330.91 27.29, 331 45 M331 15 C330.66 22.7, 330.59 32.03, 331 45 M331 45 C329.96 54.3, 327.77 61.92, 316 60 M331 45 C330.35 53.79, 324.46 61.63, 316 60 M316 60 C249.79 60.6, 182.56 61.01, 15 60 M316 60 C227.85 58.81, 138.67 59.57, 15 60 M15 60 C3.87 58.72, -1.44 55.53, 0 45 M15 60 C3.1 59, -1.99 53.07, 0 45 M0 45 C-0.62 36.36, -0.36 28.61, 0 15 M0 45 C-0.03 34.34, 0.62 23.14, 0 15 M0 15 C1.72 3.72, 6.82 0.2, 15 0 M0 15 C0.13 2.72, 3.17 -0.8, 15 0" stroke="#000000" stroke-width="1" fill="none"></path></g><g transform="translate(367.09375 416.640625) rotate(0 156.5 12.5)"><text x="156.5" y="18" font-family="Virgil, Segoe UI Emoji" font-size="20px" fill="#000000" text-anchor="middle" style="white-space: pre;" direction="ltr">InitialV3EthereumListingPayload</text></g><g stroke-linecap="round" transform="translate(13.48046875 10) rotate(0 116 57.5)"><path d="M28.75 0 M28.75 0 C69.79 2.13, 110.72 -0.88, 203.25 0 M28.75 0 C91.55 -0.94, 153.45 -0.33, 203.25 0 M203.25 0 C222.93 0.15, 231.7 10.83, 232 28.75 M203.25 0 C223.14 1.65, 232.79 10.37, 232 28.75 M232 28.75 C232.72 46.84, 231.36 62.17, 232 86.25 M232 28.75 C231.42 47.29, 231.42 67.52, 232 86.25 M232 86.25 C232.06 104.4, 223.08 115.72, 203.25 115 M232 86.25 C230.72 105.23, 223.43 115.69, 203.25 115 M203.25 115 C161.72 114.11, 121.66 113.27, 28.75 115 M203.25 115 C149.41 114.12, 94.25 114.12, 28.75 115 M28.75 115 C10.49 115.07, -1.41 105.06, 0 86.25 M28.75 115 C7.79 116.39, 2.09 107.67, 0 86.25 M0 86.25 C0.81 65.52, -1.73 44.52, 0 28.75 M0 86.25 C-0.57 64.68, 0.51 43.86, 0 28.75 M0 28.75 C-1.48 8.52, 9.98 0.4, 28.75 0 M0 28.75 C-1.73 8.48, 11.65 -0.61, 28.75 0" stroke="#000000" stroke-width="1" fill="none"></path></g><g transform="translate(37.98046875 30) rotate(0 91.5 25)"><text x="91.5" y="18" font-family="Virgil, Segoe UI Emoji" font-size="20px" fill="#000000" text-anchor="middle" style="white-space: pre;" direction="ltr">PoolConfigurator</text><text x="91.5" y="43" font-family="Virgil, Segoe UI Emoji" font-size="20px" fill="#000000" text-anchor="middle" style="white-space: pre;" direction="ltr">Aave v3 Ethereum</text></g><g stroke-linecap="round" transform="translate(27.19140625 549.10546875) rotate(0 116.5 57.5)"><path d="M28.75 0 M28.75 0 C92.06 1.23, 156.87 0.17, 204.25 0 M28.75 0 C86.99 -1.39, 147.88 -2.58, 204.25 0 M204.25 0 C224.66 1.74, 231.24 9.59, 233 28.75 M204.25 0 C225.57 0.79, 230.99 8.36, 233 28.75 M233 28.75 C231.82 50.96, 232.02 72.07, 233 86.25 M233 28.75 C232.39 45.29, 232.22 61.03, 233 86.25 M233 86.25 C233.77 103.62, 223.21 114.16, 204.25 115 M233 86.25 C230.82 105.33, 225.59 114.99, 204.25 115 M204.25 115 C159.31 117.77, 115.9 116.27, 28.75 115 M204.25 115 C153.55 115.96, 102.88 116.35, 28.75 115 M28.75 115 C9.1 116.08, -1.8 104.39, 0 86.25 M28.75 115 C10.1 114.92, 1.24 105.66, 0 86.25 M0 86.25 C0.6 70.17, 0.97 49.3, 0 28.75 M0 86.25 C-0.33 73.28, 0.98 60.95, 0 28.75 M0 28.75 C-1.16 11.19, 9.05 1.22, 28.75 0 M0 28.75 C-0.33 9.37, 11.41 1.01, 28.75 0" stroke="#000000" stroke-width="1" fill="none"></path></g><g transform="translate(32.19140625 581.60546875) rotate(0 111 25)"><text x="111" y="18" font-family="Virgil, Segoe UI Emoji" font-size="20px" fill="#000000" text-anchor="middle" style="white-space: pre;" direction="ltr">Entity with permissions</text><text x="111" y="43" font-family="Virgil, Segoe UI Emoji" font-size="20px" fill="#000000" text-anchor="middle" style="white-space: pre;" direction="ltr">(e.g. Level 1 executor)</text></g><g stroke-linecap="round"><g transform="translate(585.37890625 187.35546875) rotate(0 -0.5807350527495032 30.324987478181725)"><path d="M-0.09 0.6 C-0.35 10.53, -0.67 49.83, -1.08 60.05" stroke="#000000" stroke-width="1.5" fill="none" stroke-dasharray="8 9"></path></g><g transform="translate(585.37890625 187.35546875) rotate(0 -0.5807350527495032 30.324987478181725)"><path d="M-9.7 32.85 C-8.38 40.18, -1.99 50.38, -0.95 59.14" stroke="#000000" stroke-width="1.5" fill="none"></path></g><g transform="translate(585.37890625 187.35546875) rotate(0 -0.5807350527495032 30.324987478181725)"><path d="M10.82 33.31 C5.08 40.46, 4.42 50.5, -0.95 59.14" stroke="#000000" stroke-width="1.5" fill="none"></path></g></g><mask></mask><g stroke-linecap="round"><g transform="translate(716.33203125 186.125) rotate(0 2.0288644302636385 30.677803881093865)"><path d="M0.89 0.92 C1.39 11.01, 2.88 50.31, 3.16 60.44" stroke="#000000" stroke-width="1.5" fill="none" stroke-dasharray="8 9"></path></g><g transform="translate(716.33203125 186.125) rotate(0 2.0288644302636385 30.677803881093865)"><path d="M-6.52 32.12 C-5.21 39.87, 0.4 49.13, 3.18 61.03" stroke="#000000" stroke-width="1.5" fill="none"></path></g><g transform="translate(716.33203125 186.125) rotate(0 2.0288644302636385 30.677803881093865)"><path d="M13.99 31.42 C8.84 39.54, 7.98 49.03, 3.18 61.03" stroke="#000000" stroke-width="1.5" fill="none"></path></g></g><mask></mask><g stroke-linecap="round"><g transform="translate(585.03515625 326.63671875) rotate(0 2.095965098217107 30.34609978906809)"><path d="M0.94 0.4 C1.54 10.59, 3.16 50.57, 3.25 60.29" stroke="#000000" stroke-width="1.5" fill="none" stroke-dasharray="8 9"></path></g><g transform="translate(585.03515625 326.63671875) rotate(0 2.095965098217107 30.34609978906809)"><path d="M-7.04 34.23 C-3.67 38.7, -3.32 47.75, 2.1 61.58" stroke="#000000" stroke-width="1.5" fill="none"></path></g><g transform="translate(585.03515625 326.63671875) rotate(0 2.095965098217107 30.34609978906809)"><path d="M13.33 33.66 C11.19 38.44, 6.03 47.65, 2.1 61.58" stroke="#000000" stroke-width="1.5" fill="none"></path></g></g><mask></mask><g mask="url(#mask-9DV51TLpIIZROH08GlsHw)" stroke-linecap="round"><g transform="translate(241.48046875 534.2734375) rotate(0 57.64064027798361 -42.03543782718478)"><path d="M-0.95 -0.25 C18.18 -14.32, 94.61 -70.12, 113.95 -83.82 M0.75 -1.43 C20.34 -15.45, 97.28 -69.65, 116.24 -82.9" stroke="#000000" stroke-width="1" fill="none"></path></g><g transform="translate(241.48046875 534.2734375) rotate(0 57.64064027798361 -42.03543782718478)"><path d="M98.64 -59.67 C100.88 -63.24, 107.14 -70.26, 114.45 -82.74 M98.67 -57.32 C103.21 -64.3, 108.04 -70.19, 115.28 -81.97" stroke="#000000" stroke-width="1" fill="none"></path></g><g transform="translate(241.48046875 534.2734375) rotate(0 57.64064027798361 -42.03543782718478)"><path d="M86.84 -76.46 C91.85 -76.12, 100.79 -79.32, 114.45 -82.74 M86.87 -74.11 C94.08 -77.34, 101.61 -79.37, 115.28 -81.97" stroke="#000000" stroke-width="1" fill="none"></path></g></g><mask id="mask-9DV51TLpIIZROH08GlsHw"><rect x="0" y="0" fill="#fff" width="456.25390625" height="716.90234375"></rect><rect x="216.3671875" y="480.458984375" fill="#000" width="165" height="25" opacity="1"></rect></mask><g transform="translate(216.3671875 480.458984375) rotate(0 82.75392152798361 11.77901529781522)"><text x="82.5" y="18" font-family="Virgil, Segoe UI Emoji" font-size="20px" fill="#000000" text-anchor="middle" style="white-space: pre;" direction="ltr">DELEGATECALL</text></g><g mask="url(#mask-sdZmfLuTcEZs9xEQdcota)" stroke-linecap="round"><g transform="translate(345.83984375 402.7893082515126) rotate(0 -60.47219654903188 -37.079707415810475)"><path d="M-0.05 1.04 C-20.23 -11.6, -100.04 -62.57, -120.1 -75.2 M-1.54 0.53 C-21.94 -12.05, -100.95 -61.83, -120.89 -74.19" stroke="#000000" stroke-width="1" fill="none"></path></g><g transform="translate(345.83984375 402.7893082515126) rotate(0 -60.47219654903188 -37.079707415810475)"><path d="M-89.82 -67.44 C-104.46 -70.36, -114.82 -73.39, -119.52 -72.24 M-91.52 -67.3 C-100.75 -69.47, -109.27 -72.01, -120.35 -74.17" stroke="#000000" stroke-width="1" fill="none"></path></g><g transform="translate(345.83984375 402.7893082515126) rotate(0 -60.47219654903188 -37.079707415810475)"><path d="M-100.71 -50.04 C-111.29 -59.59, -117.5 -69.25, -119.52 -72.24 M-102.41 -49.91 C-108.44 -57.36, -113.64 -65.21, -120.35 -74.17" stroke="#000000" stroke-width="1" fill="none"></path></g></g><mask id="mask-sdZmfLuTcEZs9xEQdcota"><rect x="0" y="0" fill="#fff" width="566.241780694507" height="576.9653352530252"></rect><rect x="203.13887527774648" y="353.20129475075635" fill="#000" width="165" height="25" opacity="1"></rect></mask><g transform="translate(203.13887527774648 353.2012947507563) rotate(0 82.22877192322164 12.508306084945815)"><text x="82.5" y="18" font-family="Virgil, Segoe UI Emoji" font-size="20px" fill="#000000" text-anchor="middle" style="white-space: pre;" direction="ltr">DELEGATECALL</text></g><g mask="url(#mask-TZP4tjnFP3Yq-R4sLGnEj)" stroke-linecap="round"><g transform="translate(125.91015625 201.796875) rotate(0 0.04636815105166647 -34.28889970891178)"><path d="M0.53 0.76 C0.55 -10.7, 0.73 -57.65, 0.82 -69.33 M-0.64 0.11 C-0.89 -11.12, -0.53 -56.58, -0.39 -67.97" stroke="#000000" stroke-width="1" fill="none"></path></g><g transform="translate(125.91015625 201.796875) rotate(0 0.04636815105166647 -34.28889970891178)"><path d="M10.87 -40.53 C5.59 -50.24, 1.96 -58.38, -0.97 -67.38 M9.12 -40.43 C5.59 -50.69, 2.72 -59.63, -1.01 -67.59" stroke="#000000" stroke-width="1" fill="none"></path></g><g transform="translate(125.91015625 201.796875) rotate(0 0.04636815105166647 -34.28889970891178)"><path d="M-9.65 -40.72 C-7.54 -50.46, -3.79 -58.52, -0.97 -67.38 M-11.4 -40.62 C-7.57 -50.7, -3.07 -59.57, -1.01 -67.59" stroke="#000000" stroke-width="1" fill="none"></path></g></g><mask id="mask-TZP4tjnFP3Yq-R4sLGnEj"><rect x="0" y="0" fill="#fff" width="227.23828125" height="370.796875"></rect><rect x="100.57421875" y="154.796875" fill="#000" width="52" height="25" opacity="1"></rect></mask><g transform="translate(100.57421875 154.796875) rotate(0 25.382305651051666 12.711100291088222)"><text x="26" y="18" font-family="Virgil, Segoe UI Emoji" font-size="20px" fill="#000000" text-anchor="middle" style="white-space: pre;" direction="ltr">CALL</text></g></svg>